  0
SECTION
  2
HEADER
  9
$ACADVER
  1
AC1003
  9
$INSBASE
 10
0.0
 20
0.0
  9
$EXTMIN
 10
 0.00000000000000E+0000
 20
 0.00000000000000E+0000
  9
$EXTMAX
 10
 1.25000000000000E+0003
 20
 1.60000000000000E+0003
  9
$LIMMIN
 10
0.0
 20
0.0
  9
$LIMMAX
 10
410.0
 20
287.0
  9
$VIEWCTR
 10
227.0059616
 20
165.058879 
  9
$VIEWSIZE
 40
 1.60000000000000E+0003
9
$SNAPMODE
70
0
9
$SNAPUNIT
10
1
20
1
9
$GRIDMODE
70
0
9
$GRIDUNIT
10
1
20
1
9
$ORTHOMODE
70
0
9
$rEGENMODE
70
1
9
$FILLMODE
70
1
9
$DRAGMODE
70
2
9
$LTSCALE
40
25.0
9
$OSMODE
70
0
9
$ATTMODE
70
1
9
$TRACEWID
40
1.0
9
$TEXTSTYLE
7
STANDARD
9
$CLAYER
8
0
9
$CELTYPE
6
VONLAYER
9
$CECOLOR
62
256
9
$LUNITS
70
2
9
$LUPREC
70
2
9
$AXISMODE
70
0
9
$AXISUNIT
10
0
20
0
9
$SKETCHINC
40
1.0
9
$FILLETRAD
40
0.0
9
$AUNITS
70
0
9
$AUPREC
70
0
9
$MENU
1
ACAD
9
$ELEVATION
40
0.0
9
$THICKNESS
40
0.0
9
$VIEWDIR
10
0.0
20
0.0
30
1.0
9
$LIMCHECK
70
0
9
$BLIPMODE
70
1
9
$CHAMFERA
40
0.0
9
$CHAMFERB
40
0.0
9
$USRTIMER
70
1
9
$ANGBASE
50
0.0
9
$ANGDIR
70
0
9
$PDMODE
70
0
9
$PDSIZE
40
0.0
9
$PLINEWID
40
0.0
9
$COORDS
70
0
0
ENDSEC
0
SECTION
2
TABLES
0
TABLE
2
LTYPE
70
1
0
LTYPE
2
AUSGEZOGEN
70
64
3
Ausgezogene Linie
72
65
73
0
40
0.0
0
ENDTAB
0
TABLE
2
LAYER
70
1
0
LAYER
2
0
70
0
62
7
6
AUSGEZOGEN
0
ENDTAB
0
TABLE
2
STYLE
70
1
0
STYLE
2
STANDARD
70
0
40
0.0
41
1.0
50
0.0
71
0
42
3.5
3
txt
4

0
ENDTAB
0
TABLE
2
VIEW
70
0
0
ENDTAB
0
ENDSEC
0
SECTION
2
BLOCKS
0
ENDSEC
0
SECTION
2
ENTITIES
  0
ARC
  8
0
 10
 1.19000000000000E+0003
 20
 6.00000000000000E+0001
 40
 6.00000000000000E+0001
 50
 2.70000000000000E+0002
 51
 3.60000000000000E+0002
  0
LINE
  8
0
 10
 1.25000000000000E+0003
 20
 6.00000000000000E+0001
 11
 1.25000000000000E+0003
 21
 1.54000000000000E+0003
  0
ARC
  8
0
 10
 1.19000000000000E+0003
 20
 1.54000000000000E+0003
 40
 6.00000000000000E+0001
 50
 0.00000000000000E+0000
 51
 9.00000000000000E+0001
  0
LINE
  8
0
 10
 1.19000000000000E+0003
 20
 1.60000000000000E+0003
 11
 6.00000000000000E+0001
 21
 1.60000000000000E+0003
  0
ARC
  8
0
 10
 6.00000000000000E+0001
 20
 1.54000000000000E+0003
 40
 6.00000000000000E+0001
 50
 9.00000000000000E+0001
 51
 1.80000000000000E+0002
  0
LINE
  8
0
 10
 0.00000000000000E+0000
 20
 1.54000000000000E+0003
 11
 0.00000000000000E+0000
 21
 6.00000000000000E+0001
  0
ARC
  8
0
 10
 6.00000000000000E+0001
 20
 6.00000000000000E+0001
 40
 6.00000000000000E+0001
 50
 1.80000000000000E+0002
 51
 2.70000000000000E+0002
  0
LINE
  8
0
 10
 6.00000000000000E+0001
 20
 0.00000000000000E+0000
 11
 1.19000000000000E+0003
 21
 0.00000000000000E+0000
  0
ARC
  8
0
 10
 1.19000000000000E+0003
 20
 6.00000000000000E+0001
 40
 4.50000000000000E+0001
 50
 2.70000000000000E+0002
 51
 3.60000000000000E+0002
  0
LINE
  8
0
 10
 1.23500000000000E+0003
 20
 6.00000000000000E+0001
 11
 1.23500000000000E+0003
 21
 1.54000000000000E+0003
  0
ARC
  8
0
 10
 1.19000000000000E+0003
 20
 1.54000000000000E+0003
 40
 4.50000000000000E+0001
 50
 0.00000000000000E+0000
 51
 9.00000000000000E+0001
  0
LINE
  8
0
 10
 1.19000000000000E+0003
 20
 1.58500000000000E+0003
 11
 6.00000000000000E+0001
 21
 1.58500000000000E+0003
  0
ARC
  8
0
 10
 6.00000000000000E+0001
 20
 1.54000000000000E+0003
 40
 4.50000000000000E+0001
 50
 9.00000000000000E+0001
 51
 1.80000000000000E+0002
  0
LINE
  8
0
 10
 1.50000000000000E+0001
 20
 1.54000000000000E+0003
 11
 1.50000000000000E+0001
 21
 6.00000000000000E+0001
  0
ARC
  8
0
 10
 6.00000000000000E+0001
 20
 6.00000000000000E+0001
 40
 4.50000000000000E+0001
 50
 1.80000000000000E+0002
 51
 2.70000000000000E+0002
  0
LINE
  8
0
 10
 6.00000000000000E+0001
 20
 1.50000000000000E+0001
 11
 1.19000000000000E+0003
 21
 1.50000000000000E+0001
  0
ARC
  8
0
 10
 1.19000000000000E+0003
 20
 6.00000000000000E+0001
 40
 2.50000000000000E+0001
 50
 2.70000000000000E+0002
 51
 3.60000000000000E+0002
  0
LINE
  8
0
 10
 1.21500000000000E+0003
 20
 6.00000000000000E+0001
 11
 1.21500000000000E+0003
 21
 1.54000000000000E+0003
  0
ARC
  8
0
 10
 1.19000000000000E+0003
 20
 1.54000000000000E+0003
 40
 2.50000000000000E+0001
 50
 0.00000000000000E+0000
 51
 9.00000000000000E+0001
  0
LINE
  8
0
 10
 1.19000000000000E+0003
 20
 1.56500000000000E+0003
 11
 6.00000000000000E+0001
 21
 1.56500000000000E+0003
  0
ARC
  8
0
 10
 6.00000000000000E+0001
 20
 1.54000000000000E+0003
 40
 2.50000000000000E+0001
 50
 9.00000000000000E+0001
 51
 1.80000000000000E+0002
  0
LINE
  8
0
 10
 3.50000000000000E+0001
 20
 1.54000000000000E+0003
 11
 3.50000000000000E+0001
 21
 6.00000000000000E+0001
  0
ARC
  8
0
 10
 6.00000000000000E+0001
 20
 6.00000000000000E+0001
 40
 2.50000000000000E+0001
 50
 1.80000000000000E+0002
 51
 2.70000000000000E+0002
  0
LINE
  8
0
 10
 6.00000000000000E+0001
 20
 3.50000000000000E+0001
 11
 1.19000000000000E+0003
 21
 3.50000000000000E+0001
  0
LINE
  8
0
 10
 2.60000000000000E+0002
 20
 1.29537550000000E+0003
 11
 2.15000000000000E+0002
 21
 1.30700000000000E+0003
  0
LINE
  8
0
 10
 2.15000000000000E+0002
 20
 1.30700000000000E+0003
 11
 2.15000000000000E+0002
 21
 1.26499680000000E+0003
  0
LINE
  8
0
 10
 2.15000000000000E+0002
 20
 1.26499680000000E+0003
 11
 2.15386387071500E+0002
 21
 1.25195320236650E+0003
  0
LINE
  8
0
 10
 2.15386387071500E+0002
 20
 1.25195320236650E+0003
 11
 2.15936474252000E+0002
 21
 1.23907648553200E+0003
  0
LINE
  8
0
 10
 2.15936474252000E+0002
 20
 1.23907648553200E+0003
 11
 2.16646928490500E+0002
 21
 1.22636326859550E+0003
  0
LINE
  8
0
 10
 2.16646928490500E+0002
 20
 1.22636326859550E+0003
 11
 2.17514416736000E+0002
 21
 1.21381017065600E+0003
  0
LINE
  8
0
 10
 2.17514416736000E+0002
 20
 1.21381017065600E+0003
 11
 2.18535605937500E+0002
 21
 1.20141381081250E+0003
  0
LINE
  8
0
 10
 2.18535605937500E+0002
 20
 1.20141381081250E+0003
 11
 2.19707163044000E+0002
 21
 1.18917080816400E+0003
  0
LINE
  8
0
 10
 2.19707163044000E+0002
 20
 1.18917080816400E+0003
 11
 2.21025755004500E+0002
 21
 1.17707778180950E+0003
  0
LINE
  8
0
 10
 2.21025755004500E+0002
 20
 1.17707778180950E+0003
 11
 2.22488048768000E+0002
 21
 1.16513135084800E+0003
  0
LINE
  8
0
 10
 2.22488048768000E+0002
 20
 1.16513135084800E+0003
 11
 2.24090711283500E+0002
 21
 1.15332813437850E+0003
  0
LINE
  8
0
 10
 2.24090711283500E+0002
 20
 1.15332813437850E+0003
 11
 2.25830409500000E+0002
 21
 1.14166475150000E+0003
  0
LINE
  8
0
 10
 2.25830409500000E+0002
 20
 1.14166475150000E+0003
 11
 2.27703810366500E+0002
 21
 1.13013782131150E+0003
  0
LINE
  8
0
 10
 2.27703810366500E+0002
 20
 1.13013782131150E+0003
 11
 2.29707580832000E+0002
 21
 1.11874396291200E+0003
  0
LINE
  8
0
 10
 2.29707580832000E+0002
 20
 1.11874396291200E+0003
 11
 2.31838387845500E+0002
 21
 1.10747979540050E+0003
  0
LINE
  8
0
 10
 2.31838387845500E+0002
 20
 1.10747979540050E+0003
 11
 2.34092898356000E+0002
 21
 1.09634193787600E+0003
  0
LINE
  8
0
 10
 2.34092898356000E+0002
 20
 1.09634193787600E+0003
 11
 2.36467779312500E+0002
 21
 1.08532700943750E+0003
  0
LINE
  8
0
 10
 2.36467779312500E+0002
 20
 1.08532700943750E+0003
 11
 2.38959697664000E+0002
 21
 1.07443162918400E+0003
  0
LINE
  8
0
 10
 2.38959697664000E+0002
 20
 1.07443162918400E+0003
 11
 2.41565320359500E+0002
 21
 1.06365241621450E+0003
  0
LINE
  8
0
 10
 2.41565320359500E+0002
 20
 1.06365241621450E+0003
 11
 2.44281314348000E+0002
 21
 1.05298598962800E+0003
  0
LINE
  8
0
 10
 2.44281314348000E+0002
 20
 1.05298598962800E+0003
 11
 2.47104346578500E+0002
 21
 1.04242896852350E+0003
  0
LINE
  8
0
 10
 2.47104346578500E+0002
 20
 1.04242896852350E+0003
 11
 2.50031084000000E+0002
 21
 1.03197797200000E+0003
  0
LINE
  8
0
 10
 2.50031084000000E+0002
 20
 1.03197797200000E+0003
 11
 2.53058193561500E+0002
 21
 1.02162961915650E+0003
  0
LINE
  8
0
 10
 2.53058193561500E+0002
 20
 1.02162961915650E+0003
 11
 2.56182342212000E+0002
 21
 1.01138052909200E+0003
  0
LINE
  8
0
 10
 2.56182342212000E+0002
 20
 1.01138052909200E+0003
 11
 2.59400196900500E+0002
 21
 1.00122732090550E+0003
  0
LINE
  8
0
 10
 2.59400196900500E+0002
 20
 1.00122732090550E+0003
 11
 2.62708424576000E+0002
 21
 9.91166613696000E+0002
  0
LINE
  8
0
 10
 2.62708424576000E+0002
 20
 9.91166613696000E+0002
 11
 2.66103692187500E+0002
 21
 9.81195026562500E+0002
  0
LINE
  8
0
 10
 2.66103692187500E+0002
 20
 9.81195026562500E+0002
 11
 2.69582666684000E+0002
 21
 9.71309178604000E+0002
  0
LINE
  8
0
 10
 2.69582666684000E+0002
 20
 9.71309178604000E+0002
 11
 2.73142015014500E+0002
 21
 9.61505688919500E+0002
  0
LINE
  8
0
 10
 2.73142015014500E+0002
 20
 9.61505688919500E+0002
 11
 2.76778404128000E+0002
 21
 9.51781176608000E+0002
  0
LINE
  8
0
 10
 2.76778404128000E+0002
 20
 9.51781176608000E+0002
 11
 2.80488500973500E+0002
 21
 9.42132260768500E+0002
  0
LINE
  8
0
 10
 2.80488500973500E+0002
 20
 9.42132260768500E+0002
 11
 2.84268972500000E+0002
 21
 9.32555560500000E+0002
  0
LINE
  8
0
 10
 2.84268972500000E+0002
 20
 9.32555560500000E+0002
 11
 2.88116485656500E+0002
 21
 9.23047694901500E+0002
  0
LINE
  8
0
 10
 2.88116485656500E+0002
 20
 9.23047694901500E+0002
 11
 2.92027707392000E+0002
 21
 9.13605283072000E+0002
  0
LINE
  8
0
 10
 2.92027707392000E+0002
 20
 9.13605283072000E+0002
 11
 2.95999304655500E+0002
 21
 9.04224944110500E+0002
  0
LINE
  8
0
 10
 2.95999304655500E+0002
 20
 9.04224944110500E+0002
 11
 3.00027944396000E+0002
 21
 8.94903297116000E+0002
  0
LINE
  8
0
 10
 3.00027944396000E+0002
 20
 8.94903297116000E+0002
 11
 3.04110293562500E+0002
 21
 8.85636961187500E+0002
  0
LINE
  8
0
 10
 3.04110293562500E+0002
 20
 8.85636961187500E+0002
 11
 3.08243019104000E+0002
 21
 8.76422555424000E+0002
  0
LINE
  8
0
 10
 3.08243019104000E+0002
 20
 8.76422555424000E+0002
 11
 3.12422787969500E+0002
 21
 8.67256698924500E+0002
  0
LINE
  8
0
 10
 3.12422787969500E+0002
 20
 8.67256698924500E+0002
 11
 3.16646267108000E+0002
 21
 8.58136010788000E+0002
  0
LINE
  8
0
 10
 3.16646267108000E+0002
 20
 8.58136010788000E+0002
 11
 3.20910123468500E+0002
 21
 8.49057110113500E+0002
  0
LINE
  8
0
 10
 3.20910123468500E+0002
 20
 8.49057110113500E+0002
 11
 3.25211024000000E+0002
 21
 8.40016616000000E+0002
  0
LINE
  8
0
 10
 3.25211024000000E+0002
 20
 8.40016616000000E+0002
 11
 3.29545635651500E+0002
 21
 8.31011147546500E+0002
  0
LINE
  8
0
 10
 3.29545635651500E+0002
 20
 8.31011147546500E+0002
 11
 3.33910625372000E+0002
 21
 8.22037323852000E+0002
  0
LINE
  8
0
 10
 3.33910625372000E+0002
 20
 8.22037323852000E+0002
 11
 3.38302660110500E+0002
 21
 8.13091764015500E+0002
  0
LINE
  8
0
 10
 3.38302660110500E+0002
 20
 8.13091764015500E+0002
 11
 3.42718406816000E+0002
 21
 8.04171087136000E+0002
  0
LINE
  8
0
 10
 3.42718406816000E+0002
 20
 8.04171087136000E+0002
 11
 3.47154532437500E+0002
 21
 7.95271912312500E+0002
  0
LINE
  8
0
 10
 3.47154532437500E+0002
 20
 7.95271912312500E+0002
 11
 3.51607703924000E+0002
 21
 7.86390858644000E+0002
  0
LINE
  8
0
 10
 3.51607703924000E+0002
 20
 7.86390858644000E+0002
 11
 3.56074588224500E+0002
 21
 7.77524545229500E+0002
  0
LINE
  8
0
 10
 3.56074588224500E+0002
 20
 7.77524545229500E+0002
 11
 3.60551852288000E+0002
 21
 7.68669591168000E+0002
  0
LINE
  8
0
 10
 3.60551852288000E+0002
 20
 7.68669591168000E+0002
 11
 3.65036163063500E+0002
 21
 7.59822615558500E+0002
  0
LINE
  8
0
 10
 3.65036163063500E+0002
 20
 7.59822615558500E+0002
 11
 3.69524187500000E+0002
 21
 7.50980237500000E+0002
  0
LINE
  8
0
 10
 3.69524187500000E+0002
 20
 7.50980237500000E+0002
 11
 3.74012592546500E+0002
 21
 7.42139076091500E+0002
  0
LINE
  8
0
 10
 3.74012592546500E+0002
 20
 7.42139076091500E+0002
 11
 3.78498045152000E+0002
 21
 7.33295750432000E+0002
  0
LINE
  8
0
 10
 3.78498045152000E+0002
 20
 7.33295750432000E+0002
 11
 3.82977212265500E+0002
 21
 7.24446879620500E+0002
  0
LINE
  8
0
 10
 3.82977212265500E+0002
 20
 7.24446879620500E+0002
 11
 3.87446760836000E+0002
 21
 7.15589082756000E+0002
  0
LINE
  8
0
 10
 3.87446760836000E+0002
 20
 7.15589082756000E+0002
 11
 3.91903357812500E+0002
 21
 7.06718978937500E+0002
  0
LINE
  8
0
 10
 3.91903357812500E+0002
 20
 7.06718978937500E+0002
 11
 3.96343670144000E+0002
 21
 6.97833187264000E+0002
  0
LINE
  8
0
 10
 3.96343670144000E+0002
 20
 6.97833187264000E+0002
 11
 4.00764364779500E+0002
 21
 6.88928326834500E+0002
  0
LINE
  8
0
 10
 4.00764364779500E+0002
 20
 6.88928326834500E+0002
 11
 4.05162108668000E+0002
 21
 6.80001016748000E+0002
  0
LINE
  8
0
 10
 4.05162108668000E+0002
 20
 6.80001016748000E+0002
 11
 4.09533568758500E+0002
 21
 6.71047876103500E+0002
  0
LINE
  8
0
 10
 4.09533568758500E+0002
 20
 6.71047876103500E+0002
 11
 4.13875412000000E+0002
 21
 6.62065524000000E+0002
  0
LINE
  8
0
 10
 4.13875412000000E+0002
 20
 6.62065524000000E+0002
 11
 4.18184305341500E+0002
 21
 6.53050579536500E+0002
  0
LINE
  8
0
 10
 4.18184305341500E+0002
 20
 6.53050579536500E+0002
 11
 4.22456915732000E+0002
 21
 6.43999661812000E+0002
  0
LINE
  8
0
 10
 4.22456915732000E+0002
 20
 6.43999661812000E+0002
 11
 4.26689910120500E+0002
 21
 6.34909389925500E+0002
  0
LINE
  8
0
 10
 4.26689910120500E+0002
 20
 6.34909389925500E+0002
 11
 4.30879955456000E+0002
 21
 6.25776382976000E+0002
  0
LINE
  8
0
 10
 4.30879955456000E+0002
 20
 6.25776382976000E+0002
 11
 4.35023718687500E+0002
 21
 6.16597260062500E+0002
  0
LINE
  8
0
 10
 4.35023718687500E+0002
 20
 6.16597260062500E+0002
 11
 4.39117866764000E+0002
 21
 6.07368640284000E+0002
  0
LINE
  8
0
 10
 4.39117866764000E+0002
 20
 6.07368640284000E+0002
 11
 4.43159066634500E+0002
 21
 5.98087142739500E+0002
  0
LINE
  8
0
 10
 4.43159066634500E+0002
 20
 5.98087142739500E+0002
 11
 4.47143985248000E+0002
 21
 5.88749386528000E+0002
  0
LINE
  8
0
 10
 4.47143985248000E+0002
 20
 5.88749386528000E+0002
 11
 4.51069289553500E+0002
 21
 5.79351990748500E+0002
  0
LINE
  8
0
 10
 4.51069289553500E+0002
 20
 5.79351990748500E+0002
 11
 4.54931646500000E+0002
 21
 5.69891574500000E+0002
  0
LINE
  8
0
 10
 4.54931646500000E+0002
 20
 5.69891574500000E+0002
 11
 4.58727723036500E+0002
 21
 5.60364756881500E+0002
  0
LINE
  8
0
 10
 4.58727723036500E+0002
 20
 5.60364756881500E+0002
 11
 4.62454186112000E+0002
 21
 5.50768156992000E+0002
  0
LINE
  8
0
 10
 4.62454186112000E+0002
 20
 5.50768156992000E+0002
 11
 4.66107702675500E+0002
 21
 5.41098393930500E+0002
  0
LINE
  8
0
 10
 4.66107702675500E+0002
 20
 5.41098393930500E+0002
 11
 4.69684939676000E+0002
 21
 5.31352086796000E+0002
  0
LINE
  8
0
 10
 4.69684939676000E+0002
 20
 5.31352086796000E+0002
 11
 4.73182564062500E+0002
 21
 5.21525854687500E+0002
  0
LINE
  8
0
 10
 4.73182564062500E+0002
 20
 5.21525854687500E+0002
 11
 4.76597242784000E+0002
 21
 5.11616316704000E+0002
  0
LINE
  8
0
 10
 4.76597242784000E+0002
 20
 5.11616316704000E+0002
 11
 4.79925642789500E+0002
 21
 5.01620091944500E+0002
  0
LINE
  8
0
 10
 4.79925642789500E+0002
 20
 5.01620091944500E+0002
 11
 4.83164431028000E+0002
 21
 4.91533799508000E+0002
  0
LINE
  8
0
 10
 4.83164431028000E+0002
 20
 4.91533799508000E+0002
 11
 4.86310274448500E+0002
 21
 4.81354058493500E+0002
  0
LINE
  8
0
 10
 4.86310274448500E+0002
 20
 4.81354058493500E+0002
 11
 4.89359840000000E+0002
 21
 4.71077488000000E+0002
  0
LINE
  8
0
 10
 4.89359840000000E+0002
 20
 4.71077488000000E+0002
 11
 4.92309794631500E+0002
 21
 4.60700707126500E+0002
  0
LINE
  8
0
 10
 4.92309794631500E+0002
 20
 4.60700707126500E+0002
 11
 4.95156805292000E+0002
 21
 4.50220334972000E+0002
  0
LINE
  8
0
 10
 4.95156805292000E+0002
 20
 4.50220334972000E+0002
 11
 4.97897538930500E+0002
 21
 4.39632990635500E+0002
  0
LINE
  8
0
 10
 4.97897538930500E+0002
 20
 4.39632990635500E+0002
 11
 5.00528662496000E+0002
 21
 4.28935293216000E+0002
  0
LINE
  8
0
 10
 5.00528662496000E+0002
 20
 4.28935293216000E+0002
 11
 5.03046842937500E+0002
 21
 4.18123861812500E+0002
  0
LINE
  8
0
 10
 5.03046842937500E+0002
 20
 4.18123861812500E+0002
 11
 5.05448747204000E+0002
 21
 4.07195315524000E+0002
  0
LINE
  8
0
 10
 5.05448747204000E+0002
 20
 4.07195315524000E+0002
 11
 5.07731042244500E+0002
 21
 3.96146273449500E+0002
  0
LINE
  8
0
 10
 5.07731042244500E+0002
 20
 3.96146273449500E+0002
 11
 5.09890395008000E+0002
 21
 3.84973354688000E+0002
  0
LINE
  8
0
 10
 5.09890395008000E+0002
 20
 3.84973354688000E+0002
 11
 5.11923472443500E+0002
 21
 3.73673178338500E+0002
  0
LINE
  8
0
 10
 5.11923472443500E+0002
 20
 3.73673178338500E+0002
 11
 5.13826941500000E+0002
 21
 3.62242363500000E+0002
  0
LINE
  8
0
 10
 5.13826941500000E+0002
 20
 3.62242363500000E+0002
 11
 5.15597469126500E+0002
 21
 3.50677529271500E+0002
  0
LINE
  8
0
 10
 5.15597469126500E+0002
 20
 3.50677529271500E+0002
 11
 5.17231722272000E+0002
 21
 3.38975294752000E+0002
  0
LINE
  8
0
 10
 5.17231722272000E+0002
 20
 3.38975294752000E+0002
 11
 5.18726367885500E+0002
 21
 3.27132279040500E+0002
  0
LINE
  8
0
 10
 5.18726367885500E+0002
 20
 3.27132279040500E+0002
 11
 5.20078072916000E+0002
 21
 3.15145101236000E+0002
  0
LINE
  8
0
 10
 5.20078072916000E+0002
 20
 3.15145101236000E+0002
 11
 5.21283504312500E+0002
 21
 3.03010380437500E+0002
  0
LINE
  8
0
 10
 5.21283504312500E+0002
 20
 3.03010380437500E+0002
 11
 5.22339329024000E+0002
 21
 2.90724735744000E+0002
  0
LINE
  8
0
 10
 5.22339329024000E+0002
 20
 2.90724735744000E+0002
 11
 5.23242213999500E+0002
 21
 2.78284786254500E+0002
  0
LINE
  8
0
 10
 5.23242213999500E+0002
 20
 2.78284786254500E+0002
 11
 5.23988826188000E+0002
 21
 2.65687151068000E+0002
  0
LINE
  8
0
 10
 5.23988826188000E+0002
 20
 2.65687151068000E+0002
 11
 5.24575832538500E+0002
 21
 2.52928449283500E+0002
  0
LINE
  8
0
 10
 5.24575832538500E+0002
 20
 2.52928449283500E+0002
 11
 5.24999900000000E+0002
 21
 2.40005300000000E+0002
  0
LINE
  8
0
 10
 5.24999900000000E+0002
 20
 2.40005300000000E+0002
 11
 5.25000000000000E+0002
 21
 1.55000000000000E+0002
  0
LINE
  8
0
 10
 5.25000000000000E+0002
 20
 1.55000000000000E+0002
 11
 4.65000000000000E+0002
 21
 1.55000000000000E+0002
  0
LINE
  8
0
 10
 4.65000000000000E+0002
 20
 1.55000000000000E+0002
 11
 4.65000000000000E+0002
 21
 2.40005300000000E+0002
  0
LINE
  8
0
 10
 4.65000000000000E+0002
 20
 2.40005300000000E+0002
 11
 4.64575967434900E+0002
 21
 2.52928449294400E+0002
  0
LINE
  8
0
 10
 4.64575967434900E+0002
 20
 2.52928449294400E+0002
 11
 4.63988993799200E+0002
 21
 2.65687151155200E+0002
  0
LINE
  8
0
 10
 4.63988993799200E+0002
 20
 2.65687151155200E+0002
 11
 4.63242412182300E+0002
 21
 2.78284786548800E+0002
  0
LINE
  8
0
 10
 4.63242412182300E+0002
 20
 2.78284786548800E+0002
 11
 4.62339555673600E+0002
 21
 2.90724736441600E+0002
  0
LINE
  8
0
 10
 4.62339555673600E+0002
 20
 2.90724736441600E+0002
 11
 4.61283757362500E+0002
 21
 3.03010381800000E+0002
  0
LINE
  8
0
 10
 4.61283757362500E+0002
 20
 3.03010381800000E+0002
 11
 4.60078350338400E+0002
 21
 3.15145103590400E+0002
  0
LINE
  8
0
 10
 4.60078350338400E+0002
 20
 3.15145103590400E+0002
 11
 4.58726667690700E+0002
 21
 3.27132282779200E+0002
  0
LINE
  8
0
 10
 4.58726667690700E+0002
 20
 3.27132282779200E+0002
 11
 4.57232042508800E+0002
 21
 3.38975300332800E+0002
  0
LINE
  8
0
 10
 4.57232042508800E+0002
 20
 3.38975300332800E+0002
 11
 4.55597807882100E+0002
 21
 3.50677537217600E+0002
  0
LINE
  8
0
 10
 4.55597807882100E+0002
 20
 3.50677537217600E+0002
 11
 4.53827296900000E+0002
 21
 3.62242374400000E+0002
  0
LINE
  8
0
 10
 4.53827296900000E+0002
 20
 3.62242374400000E+0002
 11
 4.51923842651900E+0002
 21
 3.73673192846400E+0002
  0
LINE
  8
0
 10
 4.51923842651900E+0002
 20
 3.73673192846400E+0002
 11
 4.49890778227200E+0002
 21
 3.84973373523200E+0002
  0
LINE
  8
0
 10
 4.49890778227200E+0002
 20
 3.84973373523200E+0002
 11
 4.47731436715300E+0002
 21
 3.96146297396800E+0002
  0
LINE
  8
0
 10
 4.47731436715300E+0002
 20
 3.96146297396800E+0002
 11
 4.45449151205600E+0002
 21
 4.07195345433600E+0002
  0
LINE
  8
0
 10
 4.45449151205600E+0002
 20
 4.07195345433600E+0002
 11
 4.43047254787500E+0002
 21
 4.18123898600000E+0002
  0
LINE
  8
0
 10
 4.43047254787500E+0002
 20
 4.18123898600000E+0002
 11
 4.40529080550400E+0002
 21
 4.28935337862400E+0002
  0
LINE
  8
0
 10
 4.40529080550400E+0002
 20
 4.28935337862400E+0002
 11
 4.37897961583700E+0002
 21
 4.39633044187200E+0002
  0
LINE
  8
0
 10
 4.37897961583700E+0002
 20
 4.39633044187200E+0002
 11
 4.35157230976800E+0002
 21
 4.50220398540800E+0002
  0
LINE
  8
0
 10
 4.35157230976800E+0002
 20
 4.50220398540800E+0002
 11
 4.32310221819100E+0002
 21
 4.60700781889600E+0002
  0
LINE
  8
0
 10
 4.32310221819100E+0002
 20
 4.60700781889600E+0002
 11
 4.29360267200000E+0002
 21
 4.71077575200000E+0002
  0
LINE
  8
0
 10
 4.29360267200000E+0002
 20
 4.71077575200000E+0002
 11
 4.26310700208900E+0002
 21
 4.81354159438400E+0002
  0
LINE
  8
0
 10
 4.26310700208900E+0002
 20
 4.81354159438400E+0002
 11
 4.23164853935200E+0002
 21
 4.91533915571200E+0002
  0
LINE
  8
0
 10
 4.23164853935200E+0002
 20
 4.91533915571200E+0002
 11
 4.19926061468300E+0002
 21
 5.01620224564800E+0002
  0
LINE
  8
0
 10
 4.19926061468300E+0002
 20
 5.01620224564800E+0002
 11
 4.16597655897600E+0002
 21
 5.11616467385600E+0002
  0
LINE
  8
0
 10
 4.16597655897600E+0002
 20
 5.11616467385600E+0002
 11
 4.13182970312500E+0002
 21
 5.21526025000000E+0002
  0
LINE
  8
0
 10
 4.13182970312500E+0002
 20
 5.21526025000000E+0002
 11
 4.09685337802400E+0002
 21
 5.31352278374400E+0002
  0
LINE
  8
0
 10
 4.09685337802400E+0002
 20
 5.31352278374400E+0002
 11
 4.06108091456700E+0002
 21
 5.41098608475200E+0002
  0
LINE
  8
0
 10
 4.06108091456700E+0002
 20
 5.41098608475200E+0002
 11
 4.02454564364800E+0002
 21
 5.50768396268800E+0002
  0
LINE
  8
0
 10
 4.02454564364800E+0002
 20
 5.50768396268800E+0002
 11
 3.98728089616100E+0002
 21
 5.60365022721600E+0002
  0
LINE
  8
0
 10
 3.98728089616100E+0002
 20
 5.60365022721600E+0002
 11
 3.94932000300000E+0002
 21
 5.69891868800000E+0002
  0
LINE
  8
0
 10
 3.94932000300000E+0002
 20
 5.69891868800000E+0002
 11
 3.91069629505900E+0002
 21
 5.79352315470400E+0002
  0
LINE
  8
0
 10
 3.91069629505900E+0002
 20
 5.79352315470400E+0002
 11
 3.87144310323200E+0002
 21
 5.88749743699200E+0002
  0
LINE
  8
0
 10
 3.87144310323200E+0002
 20
 5.88749743699200E+0002
 11
 3.83159375841300E+0002
 21
 5.98087534452800E+0002
  0
LINE
  8
0
 10
 3.83159375841300E+0002
 20
 5.98087534452800E+0002
 11
 3.79118159149600E+0002
 21
 6.07369068697600E+0002
  0
LINE
  8
0
 10
 3.79118159149600E+0002
 20
 6.07369068697600E+0002
 11
 3.75023993337500E+0002
 21
 6.16597727400000E+0002
  0
LINE
  8
0
 10
 3.75023993337500E+0002
 20
 6.16597727400000E+0002
 11
 3.70880211494400E+0002
 21
 6.25776891526400E+0002
  0
LINE
  8
0
 10
 3.70880211494400E+0002
 20
 6.25776891526400E+0002
 11
 3.66690146709700E+0002
 21
 6.34909942043200E+0002
  0
LINE
  8
0
 10
 3.66690146709700E+0002
 20
 6.34909942043200E+0002
 11
 3.62457132072800E+0002
 21
 6.44000259916800E+0002
  0
LINE
  8
0
 10
 3.62457132072800E+0002
 20
 6.44000259916800E+0002
 11
 3.58184500673100E+0002
 21
 6.53051226113600E+0002
  0
LINE
  8
0
 10
 3.58184500673100E+0002
 20
 6.53051226113600E+0002
 11
 3.53875585600000E+0002
 21
 6.62066221600000E+0002
  0
LINE
  8
0
 10
 3.53875585600000E+0002
 20
 6.62066221600000E+0002
 11
 3.49533719942900E+0002
 21
 6.71048627342400E+0002
  0
LINE
  8
0
 10
 3.49533719942900E+0002
 20
 6.71048627342400E+0002
 11
 3.45162236791200E+0002
 21
 6.80001824307200E+0002
  0
LINE
  8
0
 10
 3.45162236791200E+0002
 20
 6.80001824307200E+0002
 11
 3.40764469234300E+0002
 21
 6.88929193460800E+0002
  0
LINE
  8
0
 10
 3.40764469234300E+0002
 20
 6.88929193460800E+0002
 11
 3.36343750361600E+0002
 21
 6.97834115769600E+0002
  0
LINE
  8
0
 10
 3.36343750361600E+0002
 20
 6.97834115769600E+0002
 11
 3.31903413262500E+0002
 21
 7.06719972200000E+0002
  0
LINE
  8
0
 10
 3.31903413262500E+0002
 20
 7.06719972200000E+0002
 11
 3.27446791026400E+0002
 21
 7.15590143718400E+0002
  0
LINE
  8
0
 10
 3.27446791026400E+0002
 20
 7.15590143718400E+0002
 11
 3.22977216742700E+0002
 21
 7.24448011291200E+0002
  0
LINE
  8
0
 10
 3.22977216742700E+0002
 20
 7.24448011291200E+0002
 11
 3.18498023500800E+0002
 21
 7.33296955884800E+0002
  0
LINE
  8
0
 10
 3.18498023500800E+0002
 20
 7.33296955884800E+0002
 11
 3.14012544390100E+0002
 21
 7.42140358465600E+0002
  0
LINE
  8
0
 10
 3.14012544390100E+0002
 20
 7.42140358465600E+0002
 11
 3.09524112500000E+0002
 21
 7.50981600000000E+0002
  0
LINE
  8
0
 10
 3.09524112500000E+0002
 20
 7.50981600000000E+0002
 11
 3.05036060919900E+0002
 21
 7.59824061454400E+0002
  0
LINE
  8
0
 10
 3.05036060919900E+0002
 20
 7.59824061454400E+0002
 11
 3.00551722739200E+0002
 21
 7.68671123795200E+0002
  0
LINE
  8
0
 10
 3.00551722739200E+0002
 20
 7.68671123795200E+0002
 11
 2.96074431047300E+0002
 21
 7.77526167988800E+0002
  0
LINE
  8
0
 10
 2.96074431047300E+0002
 20
 7.77526167988800E+0002
 11
 2.91607518933600E+0002
 21
 7.86392575001600E+0002
  0
LINE
  8
0
 10
 2.91607518933600E+0002
 20
 7.86392575001600E+0002
 11
 2.87154319487500E+0002
 21
 7.95273725800000E+0002
  0
LINE
  8
0
 10
 2.87154319487500E+0002
 20
 7.95273725800000E+0002
 11
 2.82718165798400E+0002
 21
 8.04173001350400E+0002
  0
LINE
  8
0
 10
 2.82718165798400E+0002
 20
 8.04173001350400E+0002
 11
 2.78302390955700E+0002
 21
 8.13093782619200E+0002
  0
LINE
  8
0
 10
 2.78302390955700E+0002
 20
 8.13093782619200E+0002
 11
 2.73910328048800E+0002
 21
 8.22039450572800E+0002
  0
LINE
  8
0
 10
 2.73910328048800E+0002
 20
 8.22039450572800E+0002
 11
 2.69545310167100E+0002
 21
 8.31013386177600E+0002
  0
LINE
  8
0
 10
 2.69545310167100E+0002
 20
 8.31013386177600E+0002
 11
 2.65210670400000E+0002
 21
 8.40018970400000E+0002
  0
LINE
  8
0
 10
 2.65210670400000E+0002
 20
 8.40018970400000E+0002
 11
 2.60909741836900E+0002
 21
 8.49059584206400E+0002
  0
LINE
  8
0
 10
 2.60909741836900E+0002
 20
 8.49059584206400E+0002
 11
 2.56645857567200E+0002
 21
 8.58138608563200E+0002
  0
LINE
  8
0
 10
 2.56645857567200E+0002
 20
 8.58138608563200E+0002
 11
 2.52422350680300E+0002
 21
 8.67259424436800E+0002
  0
LINE
  8
0
 10
 2.52422350680300E+0002
 20
 8.67259424436800E+0002
 11
 2.48242554265600E+0002
 21
 8.76425412793600E+0002
  0
LINE
  8
0
 10
 2.48242554265600E+0002
 20
 8.76425412793600E+0002
 11
 2.44109801412500E+0002
 21
 8.85639954600000E+0002
  0
LINE
  8
0
 10
 2.44109801412500E+0002
 20
 8.85639954600000E+0002
 11
 2.40027425210400E+0002
 21
 8.94906430822400E+0002
  0
LINE
  8
0
 10
 2.40027425210400E+0002
 20
 8.94906430822400E+0002
 11
 2.35998758748700E+0002
 21
 9.04228222427200E+0002
  0
LINE
  8
0
 10
 2.35998758748700E+0002
 20
 9.04228222427200E+0002
 11
 2.32027135116800E+0002
 21
 9.13608710380800E+0002
  0
LINE
  8
0
 10
 2.32027135116800E+0002
 20
 9.13608710380800E+0002
 11
 2.28115887404100E+0002
 21
 9.23051275649600E+0002
  0
LINE
  8
0
 10
 2.28115887404100E+0002
 20
 9.23051275649600E+0002
 11
 2.24268348700000E+0002
 21
 9.32559299200000E+0002
  0
LINE
  8
0
 10
 2.24268348700000E+0002
 20
 9.32559299200000E+0002
 11
 2.20487852093900E+0002
 21
 9.42136161998400E+0002
  0
LINE
  8
0
 10
 2.20487852093900E+0002
 20
 9.42136161998400E+0002
 11
 2.16777730675200E+0002
 21
 9.51785245011200E+0002
  0
LINE
  8
0
 10
 2.16777730675200E+0002
 20
 9.51785245011200E+0002
 11
 2.13141317533300E+0002
 21
 9.61509929204800E+0002
  0
LINE
  8
0
 10
 2.13141317533300E+0002
 20
 9.61509929204800E+0002
 11
 2.09581945757600E+0002
 21
 9.71313595545600E+0002
  0
LINE
  8
0
 10
 2.09581945757600E+0002
 20
 9.71313595545600E+0002
 11
 2.06102948437500E+0002
 21
 9.81199625000000E+0002
  0
LINE
  8
0
 10
 2.06102948437500E+0002
 20
 9.81199625000000E+0002
 11
 2.02707658662400E+0002
 21
 9.91171398534400E+0002
  0
LINE
  8
0
 10
 2.02707658662400E+0002
 20
 9.91171398534400E+0002
 11
 1.99399409521700E+0002
 21
 1.00123229711520E+0003
  0
LINE
  8
0
 10
 1.99399409521700E+0002
 20
 1.00123229711520E+0003
 11
 1.96181534104800E+0002
 21
 1.01138570170880E+0003
  0
LINE
  8
0
 10
 1.96181534104800E+0002
 20
 1.01138570170880E+0003
 11
 1.93057365501100E+0002
 21
 1.02163499328160E+0003
  0
LINE
  8
0
 10
 1.93057365501100E+0002
 20
 1.02163499328160E+0003
 11
 1.90030236800000E+0002
 21
 1.03198355280000E+0003
  0
LINE
  8
0
 10
 1.90030236800000E+0002
 20
 1.03198355280000E+0003
 11
 1.87103481090900E+0002
 21
 1.04243476123040E+0003
  0
LINE
  8
0
 10
 1.87103481090900E+0002
 20
 1.04243476123040E+0003
 11
 1.84280431463200E+0002
 21
 1.05299199953920E+0003
  0
LINE
  8
0
 10
 1.84280431463200E+0002
 20
 1.05299199953920E+0003
 11
 1.81564421006300E+0002
 21
 1.06365864869280E+0003
  0
LINE
  8
0
 10
 1.81564421006300E+0002
 20
 1.06365864869280E+0003
 11
 1.78958782809600E+0002
 21
 1.07443808965760E+0003
  0
LINE
  8
0
 10
 1.78958782809600E+0002
 20
 1.07443808965760E+0003
 11
 1.76466849962500E+0002
 21
 1.08533370340000E+0003
  0
LINE
  8
0
 10
 1.76466849962500E+0002
 20
 1.08533370340000E+0003
 11
 1.74091955554400E+0002
 21
 1.09634887088640E+0003
  0
LINE
  8
0
 10
 1.74091955554400E+0002
 20
 1.09634887088640E+0003
 11
 1.71837432674700E+0002
 21
 1.10748697308320E+0003
  0
LINE
  8
0
 10
 1.71837432674700E+0002
 20
 1.10748697308320E+0003
 11
 1.69706614412800E+0002
 21
 1.11875139095680E+0003
  0
LINE
  8
0
 10
 1.69706614412800E+0002
 20
 1.11875139095680E+0003
 11
 1.67702833858100E+0002
 21
 1.13014550547360E+0003
  0
LINE
  8
0
 10
 1.67702833858100E+0002
 20
 1.13014550547360E+0003
 11
 1.65829424100000E+0002
 21
 1.14167269760000E+0003
  0
LINE
  8
0
 10
 1.65829424100000E+0002
 20
 1.14167269760000E+0003
 11
 1.64089718227900E+0002
 21
 1.15333634830240E+0003
  0
LINE
  8
0
 10
 1.64089718227900E+0002
 20
 1.15333634830240E+0003
 11
 1.62487049331200E+0002
 21
 1.16513983854720E+0003
  0
LINE
  8
0
 10
 1.62487049331200E+0002
 20
 1.16513983854720E+0003
 11
 1.61024750499300E+0002
 21
 1.17708654930080E+0003
  0
LINE
  8
0
 10
 1.61024750499300E+0002
 20
 1.17708654930080E+0003
 11
 1.59706154821600E+0002
 21
 1.18917986152960E+0003
  0
LINE
  8
0
 10
 1.59706154821600E+0002
 20
 1.18917986152960E+0003
 11
 1.58534595387500E+0002
 21
 1.20142315620000E+0003
  0
LINE
  8
0
 10
 1.58534595387500E+0002
 20
 1.20142315620000E+0003
 11
 1.57513405286400E+0002
 21
 1.21381981427840E+0003
  0
LINE
  8
0
 10
 1.57513405286400E+0002
 20
 1.21381981427840E+0003
 11
 1.56645917607700E+0002
 21
 1.22637321673120E+0003
  0
LINE
  8
0
 10
 1.56645917607700E+0002
 20
 1.22637321673120E+0003
 11
 1.55935465440800E+0002
 21
 1.23908674452480E+0003
  0
LINE
  8
0
 10
 1.55935465440800E+0002
 20
 1.23908674452480E+0003
 11
 1.55385381875100E+0002
 21
 1.25196377862560E+0003
  0
LINE
  8
0
 10
 1.55385381875100E+0002
 20
 1.25196377862560E+0003
 11
 1.54999000000000E+0002
 21
 1.26500770000000E+0003
  0
LINE
  8
0
 10
 1.54999000000000E+0002
 20
 1.26500770000000E+0003
 11
 1.55000000000000E+0002
 21
 1.30700000000000E+0003
  0
LINE
  8
0
 10
 1.55000000000000E+0002
 20
 1.30700000000000E+0003
 11
 1.10002532319225E+0002
 21
 1.29538170409776E+0003
  0
ARC
  8
0
 10
 1.07000000000000E+0002
 20
 1.30700000000000E+0003
 40
 1.20000000000000E+0001
 50
 1.46400000000000E+0002
 51
 2.84490000000000E+0002
  0
LINE
  8
0
 10
 9.70049451114788E+0001
 20
 1.31364069859092E+0003
 11
 1.85000000000000E+0002
 21
 1.44500000000000E+0003
  0
LINE
  8
0
 10
 1.85000000000000E+0002
 20
 1.44500000000000E+0003
 11
 2.72988095286088E+0002
 21
 1.31365116174484E+0003
  0
ARC
  8
0
 10
 2.63000000000000E+0002
 20
 1.30700000000000E+0003
 40
 1.20000000000000E+0001
 50
 2.55635000000000E+0002
 51
 3.93660000000000E+0002
  0
LINE
  8
0
 10
 2.60022821995783E+0002
 20
 1.29537518124308E+0003
 11
 2.60000000000000E+0002
 21
 1.29537550000000E+0003
  0
LINE
  8
0
 10
 4.70000000000000E+0002
 20
 1.29537550000000E+0003
 11
 4.25000000000000E+0002
 21
 1.30700000000000E+0003
  0
LINE
  8
0
 10
 4.25000000000000E+0002
 20
 1.30700000000000E+0003
 11
 4.25000000000000E+0002
 21
 1.26499680000000E+0003
  0
LINE
  8
0
 10
 4.25000000000000E+0002
 20
 1.26499680000000E+0003
 11
 4.25386387071500E+0002
 21
 1.25195320236650E+0003
  0
LINE
  8
0
 10
 4.25386387071500E+0002
 20
 1.25195320236650E+0003
 11
 4.25936474252000E+0002
 21
 1.23907648553200E+0003
  0
LINE
  8
0
 10
 4.25936474252000E+0002
 20
 1.23907648553200E+0003
 11
 4.26646928490500E+0002
 21
 1.22636326859550E+0003
  0
LINE
  8
0
 10
 4.26646928490500E+0002
 20
 1.22636326859550E+0003
 11
 4.27514416736000E+0002
 21
 1.21381017065600E+0003
  0
LINE
  8
0
 10
 4.27514416736000E+0002
 20
 1.21381017065600E+0003
 11
 4.28535605937500E+0002
 21
 1.20141381081250E+0003
  0
LINE
  8
0
 10
 4.28535605937500E+0002
 20
 1.20141381081250E+0003
 11
 4.29707163044000E+0002
 21
 1.18917080816400E+0003
  0
LINE
  8
0
 10
 4.29707163044000E+0002
 20
 1.18917080816400E+0003
 11
 4.31025755004500E+0002
 21
 1.17707778180950E+0003
  0
LINE
  8
0
 10
 4.31025755004500E+0002
 20
 1.17707778180950E+0003
 11
 4.32488048768000E+0002
 21
 1.16513135084800E+0003
  0
LINE
  8
0
 10
 4.32488048768000E+0002
 20
 1.16513135084800E+0003
 11
 4.34090711283500E+0002
 21
 1.15332813437850E+0003
  0
LINE
  8
0
 10
 4.34090711283500E+0002
 20
 1.15332813437850E+0003
 11
 4.35830409500000E+0002
 21
 1.14166475150000E+0003
  0
LINE
  8
0
 10
 4.35830409500000E+0002
 20
 1.14166475150000E+0003
 11
 4.37703810366500E+0002
 21
 1.13013782131150E+0003
  0
LINE
  8
0
 10
 4.37703810366500E+0002
 20
 1.13013782131150E+0003
 11
 4.39707580832000E+0002
 21
 1.11874396291200E+0003
  0
LINE
  8
0
 10
 4.39707580832000E+0002
 20
 1.11874396291200E+0003
 11
 4.41838387845500E+0002
 21
 1.10747979540050E+0003
  0
LINE
  8
0
 10
 4.41838387845500E+0002
 20
 1.10747979540050E+0003
 11
 4.44092898356000E+0002
 21
 1.09634193787600E+0003
  0
LINE
  8
0
 10
 4.44092898356000E+0002
 20
 1.09634193787600E+0003
 11
 4.46467779312500E+0002
 21
 1.08532700943750E+0003
  0
LINE
  8
0
 10
 4.46467779312500E+0002
 20
 1.08532700943750E+0003
 11
 4.48959697664000E+0002
 21
 1.07443162918400E+0003
  0
LINE
  8
0
 10
 4.48959697664000E+0002
 20
 1.07443162918400E+0003
 11
 4.51565320359500E+0002
 21
 1.06365241621450E+0003
  0
LINE
  8
0
 10
 4.51565320359500E+0002
 20
 1.06365241621450E+0003
 11
 4.54281314348000E+0002
 21
 1.05298598962800E+0003
  0
LINE
  8
0
 10
 4.54281314348000E+0002
 20
 1.05298598962800E+0003
 11
 4.57104346578500E+0002
 21
 1.04242896852350E+0003
  0
LINE
  8
0
 10
 4.57104346578500E+0002
 20
 1.04242896852350E+0003
 11
 4.60031084000000E+0002
 21
 1.03197797200000E+0003
  0
LINE
  8
0
 10
 4.60031084000000E+0002
 20
 1.03197797200000E+0003
 11
 4.63058193561500E+0002
 21
 1.02162961915650E+0003
  0
LINE
  8
0
 10
 4.63058193561500E+0002
 20
 1.02162961915650E+0003
 11
 4.66182342212000E+0002
 21
 1.01138052909200E+0003
  0
LINE
  8
0
 10
 4.66182342212000E+0002
 20
 1.01138052909200E+0003
 11
 4.69400196900500E+0002
 21
 1.00122732090550E+0003
  0
LINE
  8
0
 10
 4.69400196900500E+0002
 20
 1.00122732090550E+0003
 11
 4.72708424576000E+0002
 21
 9.91166613696000E+0002
  0
LINE
  8
0
 10
 4.72708424576000E+0002
 20
 9.91166613696000E+0002
 11
 4.76103692187500E+0002
 21
 9.81195026562500E+0002
  0
LINE
  8
0
 10
 4.76103692187500E+0002
 20
 9.81195026562500E+0002
 11
 4.79582666684000E+0002
 21
 9.71309178604000E+0002
  0
LINE
  8
0
 10
 4.79582666684000E+0002
 20
 9.71309178604000E+0002
 11
 4.83142015014500E+0002
 21
 9.61505688919500E+0002
  0
LINE
  8
0
 10
 4.83142015014500E+0002
 20
 9.61505688919500E+0002
 11
 4.86778404128000E+0002
 21
 9.51781176608000E+0002
  0
LINE
  8
0
 10
 4.86778404128000E+0002
 20
 9.51781176608000E+0002
 11
 4.90488500973500E+0002
 21
 9.42132260768500E+0002
  0
LINE
  8
0
 10
 4.90488500973500E+0002
 20
 9.42132260768500E+0002
 11
 4.94268972500000E+0002
 21
 9.32555560500000E+0002
  0
LINE
  8
0
 10
 4.94268972500000E+0002
 20
 9.32555560500000E+0002
 11
 4.98116485656500E+0002
 21
 9.23047694901500E+0002
  0
LINE
  8
0
 10
 4.98116485656500E+0002
 20
 9.23047694901500E+0002
 11
 5.02027707392000E+0002
 21
 9.13605283072000E+0002
  0
LINE
  8
0
 10
 5.02027707392000E+0002
 20
 9.13605283072000E+0002
 11
 5.05999304655500E+0002
 21
 9.04224944110500E+0002
  0
LINE
  8
0
 10
 5.05999304655500E+0002
 20
 9.04224944110500E+0002
 11
 5.10027944396000E+0002
 21
 8.94903297116000E+0002
  0
LINE
  8
0
 10
 5.10027944396000E+0002
 20
 8.94903297116000E+0002
 11
 5.14110293562500E+0002
 21
 8.85636961187500E+0002
  0
LINE
  8
0
 10
 5.14110293562500E+0002
 20
 8.85636961187500E+0002
 11
 5.18243019104000E+0002
 21
 8.76422555424000E+0002
  0
LINE
  8
0
 10
 5.18243019104000E+0002
 20
 8.76422555424000E+0002
 11
 5.22422787969500E+0002
 21
 8.67256698924500E+0002
  0
LINE
  8
0
 10
 5.22422787969500E+0002
 20
 8.67256698924500E+0002
 11
 5.26646267108000E+0002
 21
 8.58136010788000E+0002
  0
LINE
  8
0
 10
 5.26646267108000E+0002
 20
 8.58136010788000E+0002
 11
 5.30910123468500E+0002
 21
 8.49057110113500E+0002
  0
LINE
  8
0
 10
 5.30910123468500E+0002
 20
 8.49057110113500E+0002
 11
 5.35211024000000E+0002
 21
 8.40016616000000E+0002
  0
LINE
  8
0
 10
 5.35211024000000E+0002
 20
 8.40016616000000E+0002
 11
 5.39545635651500E+0002
 21
 8.31011147546500E+0002
  0
LINE
  8
0
 10
 5.39545635651500E+0002
 20
 8.31011147546500E+0002
 11
 5.43910625372000E+0002
 21
 8.22037323852000E+0002
  0
LINE
  8
0
 10
 5.43910625372000E+0002
 20
 8.22037323852000E+0002
 11
 5.48302660110500E+0002
 21
 8.13091764015500E+0002
  0
LINE
  8
0
 10
 5.48302660110500E+0002
 20
 8.13091764015500E+0002
 11
 5.52718406816000E+0002
 21
 8.04171087136000E+0002
  0
LINE
  8
0
 10
 5.52718406816000E+0002
 20
 8.04171087136000E+0002
 11
 5.57154532437500E+0002
 21
 7.95271912312500E+0002
  0
LINE
  8
0
 10
 5.57154532437500E+0002
 20
 7.95271912312500E+0002
 11
 5.61607703924000E+0002
 21
 7.86390858644000E+0002
  0
LINE
  8
0
 10
 5.61607703924000E+0002
 20
 7.86390858644000E+0002
 11
 5.66074588224500E+0002
 21
 7.77524545229500E+0002
  0
LINE
  8
0
 10
 5.66074588224500E+0002
 20
 7.77524545229500E+0002
 11
 5.70551852288000E+0002
 21
 7.68669591168000E+0002
  0
LINE
  8
0
 10
 5.70551852288000E+0002
 20
 7.68669591168000E+0002
 11
 5.75036163063500E+0002
 21
 7.59822615558500E+0002
  0
LINE
  8
0
 10
 5.75036163063500E+0002
 20
 7.59822615558500E+0002
 11
 5.79524187500000E+0002
 21
 7.50980237500000E+0002
  0
LINE
  8
0
 10
 5.79524187500000E+0002
 20
 7.50980237500000E+0002
 11
 5.84012592546500E+0002
 21
 7.42139076091500E+0002
  0
LINE
  8
0
 10
 5.84012592546500E+0002
 20
 7.42139076091500E+0002
 11
 5.88498045152000E+0002
 21
 7.33295750432000E+0002
  0
LINE
  8
0
 10
 5.88498045152000E+0002
 20
 7.33295750432000E+0002
 11
 5.92977212265500E+0002
 21
 7.24446879620500E+0002
  0
LINE
  8
0
 10
 5.92977212265500E+0002
 20
 7.24446879620500E+0002
 11
 5.97446760836000E+0002
 21
 7.15589082756000E+0002
  0
LINE
  8
0
 10
 5.97446760836000E+0002
 20
 7.15589082756000E+0002
 11
 6.01903357812500E+0002
 21
 7.06718978937500E+0002
  0
LINE
  8
0
 10
 6.01903357812500E+0002
 20
 7.06718978937500E+0002
 11
 6.06343670144000E+0002
 21
 6.97833187264000E+0002
  0
LINE
  8
0
 10
 6.06343670144000E+0002
 20
 6.97833187264000E+0002
 11
 6.10764364779500E+0002
 21
 6.88928326834500E+0002
  0
LINE
  8
0
 10
 6.10764364779500E+0002
 20
 6.88928326834500E+0002
 11
 6.15162108668000E+0002
 21
 6.80001016748000E+0002
  0
LINE
  8
0
 10
 6.15162108668000E+0002
 20
 6.80001016748000E+0002
 11
 6.19533568758500E+0002
 21
 6.71047876103500E+0002
  0
LINE
  8
0
 10
 6.19533568758500E+0002
 20
 6.71047876103500E+0002
 11
 6.23875412000000E+0002
 21
 6.62065524000000E+0002
  0
LINE
  8
0
 10
 6.23875412000000E+0002
 20
 6.62065524000000E+0002
 11
 6.28184305341500E+0002
 21
 6.53050579536500E+0002
  0
LINE
  8
0
 10
 6.28184305341500E+0002
 20
 6.53050579536500E+0002
 11
 6.32456915732000E+0002
 21
 6.43999661812000E+0002
  0
LINE
  8
0
 10
 6.32456915732000E+0002
 20
 6.43999661812000E+0002
 11
 6.36689910120500E+0002
 21
 6.34909389925500E+0002
  0
LINE
  8
0
 10
 6.36689910120500E+0002
 20
 6.34909389925500E+0002
 11
 6.40879955456000E+0002
 21
 6.25776382976000E+0002
  0
LINE
  8
0
 10
 6.40879955456000E+0002
 20
 6.25776382976000E+0002
 11
 6.45023718687500E+0002
 21
 6.16597260062500E+0002
  0
LINE
  8
0
 10
 6.45023718687500E+0002
 20
 6.16597260062500E+0002
 11
 6.49117866764000E+0002
 21
 6.07368640284000E+0002
  0
LINE
  8
0
 10
 6.49117866764000E+0002
 20
 6.07368640284000E+0002
 11
 6.53159066634500E+0002
 21
 5.98087142739500E+0002
  0
LINE
  8
0
 10
 6.53159066634500E+0002
 20
 5.98087142739500E+0002
 11
 6.57143985248000E+0002
 21
 5.88749386528000E+0002
  0
LINE
  8
0
 10
 6.57143985248000E+0002
 20
 5.88749386528000E+0002
 11
 6.61069289553500E+0002
 21
 5.79351990748500E+0002
  0
LINE
  8
0
 10
 6.61069289553500E+0002
 20
 5.79351990748500E+0002
 11
 6.64931646500000E+0002
 21
 5.69891574500000E+0002
  0
LINE
  8
0
 10
 6.64931646500000E+0002
 20
 5.69891574500000E+0002
 11
 6.68727723036500E+0002
 21
 5.60364756881500E+0002
  0
LINE
  8
0
 10
 6.68727723036500E+0002
 20
 5.60364756881500E+0002
 11
 6.72454186112000E+0002
 21
 5.50768156992000E+0002
  0
LINE
  8
0
 10
 6.72454186112000E+0002
 20
 5.50768156992000E+0002
 11
 6.76107702675500E+0002
 21
 5.41098393930500E+0002
  0
LINE
  8
0
 10
 6.76107702675500E+0002
 20
 5.41098393930500E+0002
 11
 6.79684939676000E+0002
 21
 5.31352086796000E+0002
  0
LINE
  8
0
 10
 6.79684939676000E+0002
 20
 5.31352086796000E+0002
 11
 6.83182564062500E+0002
 21
 5.21525854687500E+0002
  0
LINE
  8
0
 10
 6.83182564062500E+0002
 20
 5.21525854687500E+0002
 11
 6.86597242784000E+0002
 21
 5.11616316704000E+0002
  0
LINE
  8
0
 10
 6.86597242784000E+0002
 20
 5.11616316704000E+0002
 11
 6.89925642789500E+0002
 21
 5.01620091944500E+0002
  0
LINE
  8
0
 10
 6.89925642789500E+0002
 20
 5.01620091944500E+0002
 11
 6.93164431028000E+0002
 21
 4.91533799508000E+0002
  0
LINE
  8
0
 10
 6.93164431028000E+0002
 20
 4.91533799508000E+0002
 11
 6.96310274448500E+0002
 21
 4.81354058493500E+0002
  0
LINE
  8
0
 10
 6.96310274448500E+0002
 20
 4.81354058493500E+0002
 11
 6.99359840000000E+0002
 21
 4.71077488000000E+0002
  0
LINE
  8
0
 10
 6.99359840000000E+0002
 20
 4.71077488000000E+0002
 11
 7.02309794631500E+0002
 21
 4.60700707126500E+0002
  0
LINE
  8
0
 10
 7.02309794631500E+0002
 20
 4.60700707126500E+0002
 11
 7.05156805292000E+0002
 21
 4.50220334972000E+0002
  0
LINE
  8
0
 10
 7.05156805292000E+0002
 20
 4.50220334972000E+0002
 11
 7.07897538930500E+0002
 21
 4.39632990635500E+0002
  0
LINE
  8
0
 10
 7.07897538930500E+0002
 20
 4.39632990635500E+0002
 11
 7.10528662496000E+0002
 21
 4.28935293216000E+0002
  0
LINE
  8
0
 10
 7.10528662496000E+0002
 20
 4.28935293216000E+0002
 11
 7.13046842937500E+0002
 21
 4.18123861812500E+0002
  0
LINE
  8
0
 10
 7.13046842937500E+0002
 20
 4.18123861812500E+0002
 11
 7.15448747204000E+0002
 21
 4.07195315524000E+0002
  0
LINE
  8
0
 10
 7.15448747204000E+0002
 20
 4.07195315524000E+0002
 11
 7.17731042244500E+0002
 21
 3.96146273449500E+0002
  0
LINE
  8
0
 10
 7.17731042244500E+0002
 20
 3.96146273449500E+0002
 11
 7.19890395008000E+0002
 21
 3.84973354688000E+0002
  0
LINE
  8
0
 10
 7.19890395008000E+0002
 20
 3.84973354688000E+0002
 11
 7.21923472443500E+0002
 21
 3.73673178338500E+0002
  0
LINE
  8
0
 10
 7.21923472443500E+0002
 20
 3.73673178338500E+0002
 11
 7.23826941500000E+0002
 21
 3.62242363500000E+0002
  0
LINE
  8
0
 10
 7.23826941500000E+0002
 20
 3.62242363500000E+0002
 11
 7.25597469126500E+0002
 21
 3.50677529271500E+0002
  0
LINE
  8
0
 10
 7.25597469126500E+0002
 20
 3.50677529271500E+0002
 11
 7.27231722272000E+0002
 21
 3.38975294752000E+0002
  0
LINE
  8
0
 10
 7.27231722272000E+0002
 20
 3.38975294752000E+0002
 11
 7.28726367885500E+0002
 21
 3.27132279040500E+0002
  0
LINE
  8
0
 10
 7.28726367885500E+0002
 20
 3.27132279040500E+0002
 11
 7.30078072916000E+0002
 21
 3.15145101236000E+0002
  0
LINE
  8
0
 10
 7.30078072916000E+0002
 20
 3.15145101236000E+0002
 11
 7.31283504312500E+0002
 21
 3.03010380437500E+0002
  0
LINE
  8
0
 10
 7.31283504312500E+0002
 20
 3.03010380437500E+0002
 11
 7.32339329024000E+0002
 21
 2.90724735744000E+0002
  0
LINE
  8
0
 10
 7.32339329024000E+0002
 20
 2.90724735744000E+0002
 11
 7.33242213999500E+0002
 21
 2.78284786254500E+0002
  0
LINE
  8
0
 10
 7.33242213999500E+0002
 20
 2.78284786254500E+0002
 11
 7.33988826188000E+0002
 21
 2.65687151068000E+0002
  0
LINE
  8
0
 10
 7.33988826188000E+0002
 20
 2.65687151068000E+0002
 11
 7.34575832538500E+0002
 21
 2.52928449283500E+0002
  0
LINE
  8
0
 10
 7.34575832538500E+0002
 20
 2.52928449283500E+0002
 11
 7.34999900000000E+0002
 21
 2.40005300000000E+0002
  0
LINE
  8
0
 10
 7.34999900000000E+0002
 20
 2.40005300000000E+0002
 11
 7.35000000000000E+0002
 21
 1.55000000000000E+0002
  0
LINE
  8
0
 10
 7.35000000000000E+0002
 20
 1.55000000000000E+0002
 11
 6.75000000000000E+0002
 21
 1.55000000000000E+0002
  0
LINE
  8
0
 10
 6.75000000000000E+0002
 20
 1.55000000000000E+0002
 11
 6.75000000000000E+0002
 21
 2.40005300000000E+0002
  0
LINE
  8
0
 10
 6.75000000000000E+0002
 20
 2.40005300000000E+0002
 11
 6.74575967434900E+0002
 21
 2.52928449294400E+0002
  0
LINE
  8
0
 10
 6.74575967434900E+0002
 20
 2.52928449294400E+0002
 11
 6.73988993799200E+0002
 21
 2.65687151155200E+0002
  0
LINE
  8
0
 10
 6.73988993799200E+0002
 20
 2.65687151155200E+0002
 11
 6.73242412182300E+0002
 21
 2.78284786548800E+0002
  0
LINE
  8
0
 10
 6.73242412182300E+0002
 20
 2.78284786548800E+0002
 11
 6.72339555673600E+0002
 21
 2.90724736441600E+0002
  0
LINE
  8
0
 10
 6.72339555673600E+0002
 20
 2.90724736441600E+0002
 11
 6.71283757362500E+0002
 21
 3.03010381800000E+0002
  0
LINE
  8
0
 10
 6.71283757362500E+0002
 20
 3.03010381800000E+0002
 11
 6.70078350338400E+0002
 21
 3.15145103590400E+0002
  0
LINE
  8
0
 10
 6.70078350338400E+0002
 20
 3.15145103590400E+0002
 11
 6.68726667690700E+0002
 21
 3.27132282779200E+0002
  0
LINE
  8
0
 10
 6.68726667690700E+0002
 20
 3.27132282779200E+0002
 11
 6.67232042508800E+0002
 21
 3.38975300332800E+0002
  0
LINE
  8
0
 10
 6.67232042508800E+0002
 20
 3.38975300332800E+0002
 11
 6.65597807882100E+0002
 21
 3.50677537217600E+0002
  0
LINE
  8
0
 10
 6.65597807882100E+0002
 20
 3.50677537217600E+0002
 11
 6.63827296900000E+0002
 21
 3.62242374400000E+0002
  0
LINE
  8
0
 10
 6.63827296900000E+0002
 20
 3.62242374400000E+0002
 11
 6.61923842651900E+0002
 21
 3.73673192846400E+0002
  0
LINE
  8
0
 10
 6.61923842651900E+0002
 20
 3.73673192846400E+0002
 11
 6.59890778227200E+0002
 21
 3.84973373523200E+0002
  0
LINE
  8
0
 10
 6.59890778227200E+0002
 20
 3.84973373523200E+0002
 11
 6.57731436715300E+0002
 21
 3.96146297396800E+0002
  0
LINE
  8
0
 10
 6.57731436715300E+0002
 20
 3.96146297396800E+0002
 11
 6.55449151205600E+0002
 21
 4.07195345433600E+0002
  0
LINE
  8
0
 10
 6.55449151205600E+0002
 20
 4.07195345433600E+0002
 11
 6.53047254787500E+0002
 21
 4.18123898600000E+0002
  0
LINE
  8
0
 10
 6.53047254787500E+0002
 20
 4.18123898600000E+0002
 11
 6.50529080550400E+0002
 21
 4.28935337862400E+0002
  0
LINE
  8
0
 10
 6.50529080550400E+0002
 20
 4.28935337862400E+0002
 11
 6.47897961583700E+0002
 21
 4.39633044187200E+0002
  0
LINE
  8
0
 10
 6.47897961583700E+0002
 20
 4.39633044187200E+0002
 11
 6.45157230976800E+0002
 21
 4.50220398540800E+0002
  0
LINE
  8
0
 10
 6.45157230976800E+0002
 20
 4.50220398540800E+0002
 11
 6.42310221819100E+0002
 21
 4.60700781889600E+0002
  0
LINE
  8
0
 10
 6.42310221819100E+0002
 20
 4.60700781889600E+0002
 11
 6.39360267200000E+0002
 21
 4.71077575200000E+0002
  0
LINE
  8
0
 10
 6.39360267200000E+0002
 20
 4.71077575200000E+0002
 11
 6.36310700208900E+0002
 21
 4.81354159438400E+0002
  0
LINE
  8
0
 10
 6.36310700208900E+0002
 20
 4.81354159438400E+0002
 11
 6.33164853935200E+0002
 21
 4.91533915571200E+0002
  0
LINE
  8
0
 10
 6.33164853935200E+0002
 20
 4.91533915571200E+0002
 11
 6.29926061468300E+0002
 21
 5.01620224564800E+0002
  0
LINE
  8
0
 10
 6.29926061468300E+0002
 20
 5.01620224564800E+0002
 11
 6.26597655897600E+0002
 21
 5.11616467385600E+0002
  0
LINE
  8
0
 10
 6.26597655897600E+0002
 20
 5.11616467385600E+0002
 11
 6.23182970312500E+0002
 21
 5.21526025000000E+0002
  0
LINE
  8
0
 10
 6.23182970312500E+0002
 20
 5.21526025000000E+0002
 11
 6.19685337802400E+0002
 21
 5.31352278374400E+0002
  0
LINE
  8
0
 10
 6.19685337802400E+0002
 20
 5.31352278374400E+0002
 11
 6.16108091456700E+0002
 21
 5.41098608475200E+0002
  0
LINE
  8
0
 10
 6.16108091456700E+0002
 20
 5.41098608475200E+0002
 11
 6.12454564364800E+0002
 21
 5.50768396268800E+0002
  0
LINE
  8
0
 10
 6.12454564364800E+0002
 20
 5.50768396268800E+0002
 11
 6.08728089616100E+0002
 21
 5.60365022721600E+0002
  0
LINE
  8
0
 10
 6.08728089616100E+0002
 20
 5.60365022721600E+0002
 11
 6.04932000300000E+0002
 21
 5.69891868800000E+0002
  0
LINE
  8
0
 10
 6.04932000300000E+0002
 20
 5.69891868800000E+0002
 11
 6.01069629505900E+0002
 21
 5.79352315470400E+0002
  0
LINE
  8
0
 10
 6.01069629505900E+0002
 20
 5.79352315470400E+0002
 11
 5.97144310323200E+0002
 21
 5.88749743699200E+0002
  0
LINE
  8
0
 10
 5.97144310323200E+0002
 20
 5.88749743699200E+0002
 11
 5.93159375841300E+0002
 21
 5.98087534452800E+0002
  0
LINE
  8
0
 10
 5.93159375841300E+0002
 20
 5.98087534452800E+0002
 11
 5.89118159149600E+0002
 21
 6.07369068697600E+0002
  0
LINE
  8
0
 10
 5.89118159149600E+0002
 20
 6.07369068697600E+0002
 11
 5.85023993337500E+0002
 21
 6.16597727400000E+0002
  0
LINE
  8
0
 10
 5.85023993337500E+0002
 20
 6.16597727400000E+0002
 11
 5.80880211494400E+0002
 21
 6.25776891526400E+0002
  0
LINE
  8
0
 10
 5.80880211494400E+0002
 20
 6.25776891526400E+0002
 11
 5.76690146709700E+0002
 21
 6.34909942043200E+0002
  0
LINE
  8
0
 10
 5.76690146709700E+0002
 20
 6.34909942043200E+0002
 11
 5.72457132072800E+0002
 21
 6.44000259916800E+0002
  0
LINE
  8
0
 10
 5.72457132072800E+0002
 20
 6.44000259916800E+0002
 11
 5.68184500673100E+0002
 21
 6.53051226113600E+0002
  0
LINE
  8
0
 10
 5.68184500673100E+0002
 20
 6.53051226113600E+0002
 11
 5.63875585600000E+0002
 21
 6.62066221600000E+0002
  0
LINE
  8
0
 10
 5.63875585600000E+0002
 20
 6.62066221600000E+0002
 11
 5.59533719942900E+0002
 21
 6.71048627342400E+0002
  0
LINE
  8
0
 10
 5.59533719942900E+0002
 20
 6.71048627342400E+0002
 11
 5.55162236791200E+0002
 21
 6.80001824307200E+0002
  0
LINE
  8
0
 10
 5.55162236791200E+0002
 20
 6.80001824307200E+0002
 11
 5.50764469234300E+0002
 21
 6.88929193460800E+0002
  0
LINE
  8
0
 10
 5.50764469234300E+0002
 20
 6.88929193460800E+0002
 11
 5.46343750361600E+0002
 21
 6.97834115769600E+0002
  0
LINE
  8
0
 10
 5.46343750361600E+0002
 20
 6.97834115769600E+0002
 11
 5.41903413262500E+0002
 21
 7.06719972200000E+0002
  0
LINE
  8
0
 10
 5.41903413262500E+0002
 20
 7.06719972200000E+0002
 11
 5.37446791026400E+0002
 21
 7.15590143718400E+0002
  0
LINE
  8
0
 10
 5.37446791026400E+0002
 20
 7.15590143718400E+0002
 11
 5.32977216742700E+0002
 21
 7.24448011291200E+0002
  0
LINE
  8
0
 10
 5.32977216742700E+0002
 20
 7.24448011291200E+0002
 11
 5.28498023500800E+0002
 21
 7.33296955884800E+0002
  0
LINE
  8
0
 10
 5.28498023500800E+0002
 20
 7.33296955884800E+0002
 11
 5.24012544390100E+0002
 21
 7.42140358465600E+0002
  0
LINE
  8
0
 10
 5.24012544390100E+0002
 20
 7.42140358465600E+0002
 11
 5.19524112500000E+0002
 21
 7.50981600000000E+0002
  0
LINE
  8
0
 10
 5.19524112500000E+0002
 20
 7.50981600000000E+0002
 11
 5.15036060919900E+0002
 21
 7.59824061454400E+0002
  0
LINE
  8
0
 10
 5.15036060919900E+0002
 20
 7.59824061454400E+0002
 11
 5.10551722739200E+0002
 21
 7.68671123795200E+0002
  0
LINE
  8
0
 10
 5.10551722739200E+0002
 20
 7.68671123795200E+0002
 11
 5.06074431047300E+0002
 21
 7.77526167988800E+0002
  0
LINE
  8
0
 10
 5.06074431047300E+0002
 20
 7.77526167988800E+0002
 11
 5.01607518933600E+0002
 21
 7.86392575001600E+0002
  0
LINE
  8
0
 10
 5.01607518933600E+0002
 20
 7.86392575001600E+0002
 11
 4.97154319487500E+0002
 21
 7.95273725800000E+0002
  0
LINE
  8
0
 10
 4.97154319487500E+0002
 20
 7.95273725800000E+0002
 11
 4.92718165798400E+0002
 21
 8.04173001350400E+0002
  0
LINE
  8
0
 10
 4.92718165798400E+0002
 20
 8.04173001350400E+0002
 11
 4.88302390955700E+0002
 21
 8.13093782619200E+0002
  0
LINE
  8
0
 10
 4.88302390955700E+0002
 20
 8.13093782619200E+0002
 11
 4.83910328048800E+0002
 21
 8.22039450572800E+0002
  0
LINE
  8
0
 10
 4.83910328048800E+0002
 20
 8.22039450572800E+0002
 11
 4.79545310167100E+0002
 21
 8.31013386177600E+0002
  0
LINE
  8
0
 10
 4.79545310167100E+0002
 20
 8.31013386177600E+0002
 11
 4.75210670400000E+0002
 21
 8.40018970400000E+0002
  0
LINE
  8
0
 10
 4.75210670400000E+0002
 20
 8.40018970400000E+0002
 11
 4.70909741836900E+0002
 21
 8.49059584206400E+0002
  0
LINE
  8
0
 10
 4.70909741836900E+0002
 20
 8.49059584206400E+0002
 11
 4.66645857567200E+0002
 21
 8.58138608563200E+0002
  0
LINE
  8
0
 10
 4.66645857567200E+0002
 20
 8.58138608563200E+0002
 11
 4.62422350680300E+0002
 21
 8.67259424436800E+0002
  0
LINE
  8
0
 10
 4.62422350680300E+0002
 20
 8.67259424436800E+0002
 11
 4.58242554265600E+0002
 21
 8.76425412793600E+0002
  0
LINE
  8
0
 10
 4.58242554265600E+0002
 20
 8.76425412793600E+0002
 11
 4.54109801412500E+0002
 21
 8.85639954600000E+0002
  0
LINE
  8
0
 10
 4.54109801412500E+0002
 20
 8.85639954600000E+0002
 11
 4.50027425210400E+0002
 21
 8.94906430822400E+0002
  0
LINE
  8
0
 10
 4.50027425210400E+0002
 20
 8.94906430822400E+0002
 11
 4.45998758748700E+0002
 21
 9.04228222427200E+0002
  0
LINE
  8
0
 10
 4.45998758748700E+0002
 20
 9.04228222427200E+0002
 11
 4.42027135116800E+0002
 21
 9.13608710380800E+0002
  0
LINE
  8
0
 10
 4.42027135116800E+0002
 20
 9.13608710380800E+0002
 11
 4.38115887404100E+0002
 21
 9.23051275649600E+0002
  0
LINE
  8
0
 10
 4.38115887404100E+0002
 20
 9.23051275649600E+0002
 11
 4.34268348700000E+0002
 21
 9.32559299200000E+0002
  0
LINE
  8
0
 10
 4.34268348700000E+0002
 20
 9.32559299200000E+0002
 11
 4.30487852093900E+0002
 21
 9.42136161998400E+0002
  0
LINE
  8
0
 10
 4.30487852093900E+0002
 20
 9.42136161998400E+0002
 11
 4.26777730675200E+0002
 21
 9.51785245011200E+0002
  0
LINE
  8
0
 10
 4.26777730675200E+0002
 20
 9.51785245011200E+0002
 11
 4.23141317533300E+0002
 21
 9.61509929204800E+0002
  0
LINE
  8
0
 10
 4.23141317533300E+0002
 20
 9.61509929204800E+0002
 11
 4.19581945757600E+0002
 21
 9.71313595545600E+0002
  0
LINE
  8
0
 10
 4.19581945757600E+0002
 20
 9.71313595545600E+0002
 11
 4.16102948437500E+0002
 21
 9.81199625000000E+0002
  0
LINE
  8
0
 10
 4.16102948437500E+0002
 20
 9.81199625000000E+0002
 11
 4.12707658662400E+0002
 21
 9.91171398534400E+0002
  0
LINE
  8
0
 10
 4.12707658662400E+0002
 20
 9.91171398534400E+0002
 11
 4.09399409521700E+0002
 21
 1.00123229711520E+0003
  0
LINE
  8
0
 10
 4.09399409521700E+0002
 20
 1.00123229711520E+0003
 11
 4.06181534104800E+0002
 21
 1.01138570170880E+0003
  0
LINE
  8
0
 10
 4.06181534104800E+0002
 20
 1.01138570170880E+0003
 11
 4.03057365501100E+0002
 21
 1.02163499328160E+0003
  0
LINE
  8
0
 10
 4.03057365501100E+0002
 20
 1.02163499328160E+0003
 11
 4.00030236800000E+0002
 21
 1.03198355280000E+0003
  0
LINE
  8
0
 10
 4.00030236800000E+0002
 20
 1.03198355280000E+0003
 11
 3.97103481090900E+0002
 21
 1.04243476123040E+0003
  0
LINE
  8
0
 10
 3.97103481090900E+0002
 20
 1.04243476123040E+0003
 11
 3.94280431463200E+0002
 21
 1.05299199953920E+0003
  0
LINE
  8
0
 10
 3.94280431463200E+0002
 20
 1.05299199953920E+0003
 11
 3.91564421006300E+0002
 21
 1.06365864869280E+0003
  0
LINE
  8
0
 10
 3.91564421006300E+0002
 20
 1.06365864869280E+0003
 11
 3.88958782809600E+0002
 21
 1.07443808965760E+0003
  0
LINE
  8
0
 10
 3.88958782809600E+0002
 20
 1.07443808965760E+0003
 11
 3.86466849962500E+0002
 21
 1.08533370340000E+0003
  0
LINE
  8
0
 10
 3.86466849962500E+0002
 20
 1.08533370340000E+0003
 11
 3.84091955554400E+0002
 21
 1.09634887088640E+0003
  0
LINE
  8
0
 10
 3.84091955554400E+0002
 20
 1.09634887088640E+0003
 11
 3.81837432674700E+0002
 21
 1.10748697308320E+0003
  0
LINE
  8
0
 10
 3.81837432674700E+0002
 20
 1.10748697308320E+0003
 11
 3.79706614412800E+0002
 21
 1.11875139095680E+0003
  0
LINE
  8
0
 10
 3.79706614412800E+0002
 20
 1.11875139095680E+0003
 11
 3.77702833858100E+0002
 21
 1.13014550547360E+0003
  0
LINE
  8
0
 10
 3.77702833858100E+0002
 20
 1.13014550547360E+0003
 11
 3.75829424100000E+0002
 21
 1.14167269760000E+0003
  0
LINE
  8
0
 10
 3.75829424100000E+0002
 20
 1.14167269760000E+0003
 11
 3.74089718227900E+0002
 21
 1.15333634830240E+0003
  0
LINE
  8
0
 10
 3.74089718227900E+0002
 20
 1.15333634830240E+0003
 11
 3.72487049331200E+0002
 21
 1.16513983854720E+0003
  0
LINE
  8
0
 10
 3.72487049331200E+0002
 20
 1.16513983854720E+0003
 11
 3.71024750499300E+0002
 21
 1.17708654930080E+0003
  0
LINE
  8
0
 10
 3.71024750499300E+0002
 20
 1.17708654930080E+0003
 11
 3.69706154821600E+0002
 21
 1.18917986152960E+0003
  0
LINE
  8
0
 10
 3.69706154821600E+0002
 20
 1.18917986152960E+0003
 11
 3.68534595387500E+0002
 21
 1.20142315620000E+0003
  0
LINE
  8
0
 10
 3.68534595387500E+0002
 20
 1.20142315620000E+0003
 11
 3.67513405286400E+0002
 21
 1.21381981427840E+0003
  0
LINE
  8
0
 10
 3.67513405286400E+0002
 20
 1.21381981427840E+0003
 11
 3.66645917607700E+0002
 21
 1.22637321673120E+0003
  0
LINE
  8
0
 10
 3.66645917607700E+0002
 20
 1.22637321673120E+0003
 11
 3.65935465440800E+0002
 21
 1.23908674452480E+0003
  0
LINE
  8
0
 10
 3.65935465440800E+0002
 20
 1.23908674452480E+0003
 11
 3.65385381875100E+0002
 21
 1.25196377862560E+0003
  0
LINE
  8
0
 10
 3.65385381875100E+0002
 20
 1.25196377862560E+0003
 11
 3.64999000000000E+0002
 21
 1.26500770000000E+0003
  0
LINE
  8
0
 10
 3.64999000000000E+0002
 20
 1.26500770000000E+0003
 11
 3.65000000000000E+0002
 21
 1.30700000000000E+0003
  0
LINE
  8
0
 10
 3.65000000000000E+0002
 20
 1.30700000000000E+0003
 11
 3.20002532319225E+0002
 21
 1.29538170409776E+0003
  0
ARC
  8
0
 10
 3.17000000000000E+0002
 20
 1.30700000000000E+0003
 40
 1.20000000000000E+0001
 50
 1.46400000000000E+0002
 51
 2.84490000000000E+0002
  0
LINE
  8
0
 10
 3.07004945111479E+0002
 20
 1.31364069859092E+0003
 11
 3.95000000000000E+0002
 21
 1.44500000000000E+0003
  0
LINE
  8
0
 10
 3.95000000000000E+0002
 20
 1.44500000000000E+0003
 11
 4.82988095286088E+0002
 21
 1.31365116174484E+0003
  0
ARC
  8
0
 10
 4.73000000000000E+0002
 20
 1.30700000000000E+0003
 40
 1.20000000000000E+0001
 50
 2.55635000000000E+0002
 51
 3.93660000000000E+0002
  0
LINE
  8
0
 10
 4.70022821995783E+0002
 20
 1.29537518124308E+0003
 11
 4.70000000000000E+0002
 21
 1.29537550000000E+0003
  0
LINE
  8
0
 10
 6.80000000000000E+0002
 20
 1.29537550000000E+0003
 11
 6.35000000000000E+0002
 21
 1.30700000000000E+0003
  0
LINE
  8
0
 10
 6.35000000000000E+0002
 20
 1.30700000000000E+0003
 11
 6.35000000000000E+0002
 21
 1.26499680000000E+0003
  0
LINE
  8
0
 10
 6.35000000000000E+0002
 20
 1.26499680000000E+0003
 11
 6.35386387071500E+0002
 21
 1.25195320236650E+0003
  0
LINE
  8
0
 10
 6.35386387071500E+0002
 20
 1.25195320236650E+0003
 11
 6.35936474252000E+0002
 21
 1.23907648553200E+0003
  0
LINE
  8
0
 10
 6.35936474252000E+0002
 20
 1.23907648553200E+0003
 11
 6.36646928490500E+0002
 21
 1.22636326859550E+0003
  0
LINE
  8
0
 10
 6.36646928490500E+0002
 20
 1.22636326859550E+0003
 11
 6.37514416736000E+0002
 21
 1.21381017065600E+0003
  0
LINE
  8
0
 10
 6.37514416736000E+0002
 20
 1.21381017065600E+0003
 11
 6.38535605937500E+0002
 21
 1.20141381081250E+0003
  0
LINE
  8
0
 10
 6.38535605937500E+0002
 20
 1.20141381081250E+0003
 11
 6.39707163044000E+0002
 21
 1.18917080816400E+0003
  0
LINE
  8
0
 10
 6.39707163044000E+0002
 20
 1.18917080816400E+0003
 11
 6.41025755004500E+0002
 21
 1.17707778180950E+0003
  0
LINE
  8
0
 10
 6.41025755004500E+0002
 20
 1.17707778180950E+0003
 11
 6.42488048768000E+0002
 21
 1.16513135084800E+0003
  0
LINE
  8
0
 10
 6.42488048768000E+0002
 20
 1.16513135084800E+0003
 11
 6.44090711283500E+0002
 21
 1.15332813437850E+0003
  0
LINE
  8
0
 10
 6.44090711283500E+0002
 20
 1.15332813437850E+0003
 11
 6.45830409500000E+0002
 21
 1.14166475150000E+0003
  0
LINE
  8
0
 10
 6.45830409500000E+0002
 20
 1.14166475150000E+0003
 11
 6.47703810366500E+0002
 21
 1.13013782131150E+0003
  0
LINE
  8
0
 10
 6.47703810366500E+0002
 20
 1.13013782131150E+0003
 11
 6.49707580832000E+0002
 21
 1.11874396291200E+0003
  0
LINE
  8
0
 10
 6.49707580832000E+0002
 20
 1.11874396291200E+0003
 11
 6.51838387845500E+0002
 21
 1.10747979540050E+0003
  0
LINE
  8
0
 10
 6.51838387845500E+0002
 20
 1.10747979540050E+0003
 11
 6.54092898356000E+0002
 21
 1.09634193787600E+0003
  0
LINE
  8
0
 10
 6.54092898356000E+0002
 20
 1.09634193787600E+0003
 11
 6.56467779312500E+0002
 21
 1.08532700943750E+0003
  0
LINE
  8
0
 10
 6.56467779312500E+0002
 20
 1.08532700943750E+0003
 11
 6.58959697664000E+0002
 21
 1.07443162918400E+0003
  0
LINE
  8
0
 10
 6.58959697664000E+0002
 20
 1.07443162918400E+0003
 11
 6.61565320359500E+0002
 21
 1.06365241621450E+0003
  0
LINE
  8
0
 10
 6.61565320359500E+0002
 20
 1.06365241621450E+0003
 11
 6.64281314348000E+0002
 21
 1.05298598962800E+0003
  0
LINE
  8
0
 10
 6.64281314348000E+0002
 20
 1.05298598962800E+0003
 11
 6.67104346578500E+0002
 21
 1.04242896852350E+0003
  0
LINE
  8
0
 10
 6.67104346578500E+0002
 20
 1.04242896852350E+0003
 11
 6.70031084000000E+0002
 21
 1.03197797200000E+0003
  0
LINE
  8
0
 10
 6.70031084000000E+0002
 20
 1.03197797200000E+0003
 11
 6.73058193561500E+0002
 21
 1.02162961915650E+0003
  0
LINE
  8
0
 10
 6.73058193561500E+0002
 20
 1.02162961915650E+0003
 11
 6.76182342212000E+0002
 21
 1.01138052909200E+0003
  0
LINE
  8
0
 10
 6.76182342212000E+0002
 20
 1.01138052909200E+0003
 11
 6.79400196900500E+0002
 21
 1.00122732090550E+0003
  0
LINE
  8
0
 10
 6.79400196900500E+0002
 20
 1.00122732090550E+0003
 11
 6.82708424576000E+0002
 21
 9.91166613696000E+0002
  0
LINE
  8
0
 10
 6.82708424576000E+0002
 20
 9.91166613696000E+0002
 11
 6.86103692187500E+0002
 21
 9.81195026562500E+0002
  0
LINE
  8
0
 10
 6.86103692187500E+0002
 20
 9.81195026562500E+0002
 11
 6.89582666684000E+0002
 21
 9.71309178604000E+0002
  0
LINE
  8
0
 10
 6.89582666684000E+0002
 20
 9.71309178604000E+0002
 11
 6.93142015014500E+0002
 21
 9.61505688919500E+0002
  0
LINE
  8
0
 10
 6.93142015014500E+0002
 20
 9.61505688919500E+0002
 11
 6.96778404128000E+0002
 21
 9.51781176608000E+0002
  0
LINE
  8
0
 10
 6.96778404128000E+0002
 20
 9.51781176608000E+0002
 11
 7.00488500973500E+0002
 21
 9.42132260768500E+0002
  0
LINE
  8
0
 10
 7.00488500973500E+0002
 20
 9.42132260768500E+0002
 11
 7.04268972500000E+0002
 21
 9.32555560500000E+0002
  0
LINE
  8
0
 10
 7.04268972500000E+0002
 20
 9.32555560500000E+0002
 11
 7.08116485656500E+0002
 21
 9.23047694901500E+0002
  0
LINE
  8
0
 10
 7.08116485656500E+0002
 20
 9.23047694901500E+0002
 11
 7.12027707392000E+0002
 21
 9.13605283072000E+0002
  0
LINE
  8
0
 10
 7.12027707392000E+0002
 20
 9.13605283072000E+0002
 11
 7.15999304655500E+0002
 21
 9.04224944110500E+0002
  0
LINE
  8
0
 10
 7.15999304655500E+0002
 20
 9.04224944110500E+0002
 11
 7.20027944396000E+0002
 21
 8.94903297116000E+0002
  0
LINE
  8
0
 10
 7.20027944396000E+0002
 20
 8.94903297116000E+0002
 11
 7.24110293562500E+0002
 21
 8.85636961187500E+0002
  0
LINE
  8
0
 10
 7.24110293562500E+0002
 20
 8.85636961187500E+0002
 11
 7.28243019104000E+0002
 21
 8.76422555424000E+0002
  0
LINE
  8
0
 10
 7.28243019104000E+0002
 20
 8.76422555424000E+0002
 11
 7.32422787969500E+0002
 21
 8.67256698924500E+0002
  0
LINE
  8
0
 10
 7.32422787969500E+0002
 20
 8.67256698924500E+0002
 11
 7.36646267108000E+0002
 21
 8.58136010788000E+0002
  0
LINE
  8
0
 10
 7.36646267108000E+0002
 20
 8.58136010788000E+0002
 11
 7.40910123468500E+0002
 21
 8.49057110113500E+0002
  0
LINE
  8
0
 10
 7.40910123468500E+0002
 20
 8.49057110113500E+0002
 11
 7.45211024000000E+0002
 21
 8.40016616000000E+0002
  0
LINE
  8
0
 10
 7.45211024000000E+0002
 20
 8.40016616000000E+0002
 11
 7.49545635651500E+0002
 21
 8.31011147546500E+0002
  0
LINE
  8
0
 10
 7.49545635651500E+0002
 20
 8.31011147546500E+0002
 11
 7.53910625372000E+0002
 21
 8.22037323852000E+0002
  0
LINE
  8
0
 10
 7.53910625372000E+0002
 20
 8.22037323852000E+0002
 11
 7.58302660110500E+0002
 21
 8.13091764015500E+0002
  0
LINE
  8
0
 10
 7.58302660110500E+0002
 20
 8.13091764015500E+0002
 11
 7.62718406816000E+0002
 21
 8.04171087136000E+0002
  0
LINE
  8
0
 10
 7.62718406816000E+0002
 20
 8.04171087136000E+0002
 11
 7.67154532437500E+0002
 21
 7.95271912312500E+0002
  0
LINE
  8
0
 10
 7.67154532437500E+0002
 20
 7.95271912312500E+0002
 11
 7.71607703924000E+0002
 21
 7.86390858644000E+0002
  0
LINE
  8
0
 10
 7.71607703924000E+0002
 20
 7.86390858644000E+0002
 11
 7.76074588224500E+0002
 21
 7.77524545229500E+0002
  0
LINE
  8
0
 10
 7.76074588224500E+0002
 20
 7.77524545229500E+0002
 11
 7.80551852288000E+0002
 21
 7.68669591168000E+0002
  0
LINE
  8
0
 10
 7.80551852288000E+0002
 20
 7.68669591168000E+0002
 11
 7.85036163063500E+0002
 21
 7.59822615558500E+0002
  0
LINE
  8
0
 10
 7.85036163063500E+0002
 20
 7.59822615558500E+0002
 11
 7.89524187500000E+0002
 21
 7.50980237500000E+0002
  0
LINE
  8
0
 10
 7.89524187500000E+0002
 20
 7.50980237500000E+0002
 11
 7.94012592546500E+0002
 21
 7.42139076091500E+0002
  0
LINE
  8
0
 10
 7.94012592546500E+0002
 20
 7.42139076091500E+0002
 11
 7.98498045152000E+0002
 21
 7.33295750432000E+0002
  0
LINE
  8
0
 10
 7.98498045152000E+0002
 20
 7.33295750432000E+0002
 11
 8.02977212265500E+0002
 21
 7.24446879620500E+0002
  0
LINE
  8
0
 10
 8.02977212265500E+0002
 20
 7.24446879620500E+0002
 11
 8.07446760836000E+0002
 21
 7.15589082756000E+0002
  0
LINE
  8
0
 10
 8.07446760836000E+0002
 20
 7.15589082756000E+0002
 11
 8.11903357812500E+0002
 21
 7.06718978937500E+0002
  0
LINE
  8
0
 10
 8.11903357812500E+0002
 20
 7.06718978937500E+0002
 11
 8.16343670144000E+0002
 21
 6.97833187264000E+0002
  0
LINE
  8
0
 10
 8.16343670144000E+0002
 20
 6.97833187264000E+0002
 11
 8.20764364779500E+0002
 21
 6.88928326834500E+0002
  0
LINE
  8
0
 10
 8.20764364779500E+0002
 20
 6.88928326834500E+0002
 11
 8.25162108668000E+0002
 21
 6.80001016748000E+0002
  0
LINE
  8
0
 10
 8.25162108668000E+0002
 20
 6.80001016748000E+0002
 11
 8.29533568758500E+0002
 21
 6.71047876103500E+0002
  0
LINE
  8
0
 10
 8.29533568758500E+0002
 20
 6.71047876103500E+0002
 11
 8.33875412000000E+0002
 21
 6.62065524000000E+0002
  0
LINE
  8
0
 10
 8.33875412000000E+0002
 20
 6.62065524000000E+0002
 11
 8.38184305341500E+0002
 21
 6.53050579536500E+0002
  0
LINE
  8
0
 10
 8.38184305341500E+0002
 20
 6.53050579536500E+0002
 11
 8.42456915732000E+0002
 21
 6.43999661812000E+0002
  0
LINE
  8
0
 10
 8.42456915732000E+0002
 20
 6.43999661812000E+0002
 11
 8.46689910120500E+0002
 21
 6.34909389925500E+0002
  0
LINE
  8
0
 10
 8.46689910120500E+0002
 20
 6.34909389925500E+0002
 11
 8.50879955456000E+0002
 21
 6.25776382976000E+0002
  0
LINE
  8
0
 10
 8.50879955456000E+0002
 20
 6.25776382976000E+0002
 11
 8.55023718687500E+0002
 21
 6.16597260062500E+0002
  0
LINE
  8
0
 10
 8.55023718687500E+0002
 20
 6.16597260062500E+0002
 11
 8.59117866764000E+0002
 21
 6.07368640284000E+0002
  0
LINE
  8
0
 10
 8.59117866764000E+0002
 20
 6.07368640284000E+0002
 11
 8.63159066634500E+0002
 21
 5.98087142739500E+0002
  0
LINE
  8
0
 10
 8.63159066634500E+0002
 20
 5.98087142739500E+0002
 11
 8.67143985248000E+0002
 21
 5.88749386528000E+0002
  0
LINE
  8
0
 10
 8.67143985248000E+0002
 20
 5.88749386528000E+0002
 11
 8.71069289553500E+0002
 21
 5.79351990748500E+0002
  0
LINE
  8
0
 10
 8.71069289553500E+0002
 20
 5.79351990748500E+0002
 11
 8.74931646500000E+0002
 21
 5.69891574500000E+0002
  0
LINE
  8
0
 10
 8.74931646500000E+0002
 20
 5.69891574500000E+0002
 11
 8.78727723036500E+0002
 21
 5.60364756881500E+0002
  0
LINE
  8
0
 10
 8.78727723036500E+0002
 20
 5.60364756881500E+0002
 11
 8.82454186112000E+0002
 21
 5.50768156992000E+0002
  0
LINE
  8
0
 10
 8.82454186112000E+0002
 20
 5.50768156992000E+0002
 11
 8.86107702675500E+0002
 21
 5.41098393930500E+0002
  0
LINE
  8
0
 10
 8.86107702675500E+0002
 20
 5.41098393930500E+0002
 11
 8.89684939676000E+0002
 21
 5.31352086796000E+0002
  0
LINE
  8
0
 10
 8.89684939676000E+0002
 20
 5.31352086796000E+0002
 11
 8.93182564062500E+0002
 21
 5.21525854687500E+0002
  0
LINE
  8
0
 10
 8.93182564062500E+0002
 20
 5.21525854687500E+0002
 11
 8.96597242784000E+0002
 21
 5.11616316704000E+0002
  0
LINE
  8
0
 10
 8.96597242784000E+0002
 20
 5.11616316704000E+0002
 11
 8.99925642789500E+0002
 21
 5.01620091944500E+0002
  0
LINE
  8
0
 10
 8.99925642789500E+0002
 20
 5.01620091944500E+0002
 11
 9.03164431028000E+0002
 21
 4.91533799508000E+0002
  0
LINE
  8
0
 10
 9.03164431028000E+0002
 20
 4.91533799508000E+0002
 11
 9.06310274448500E+0002
 21
 4.81354058493500E+0002
  0
LINE
  8
0
 10
 9.06310274448500E+0002
 20
 4.81354058493500E+0002
 11
 9.09359840000000E+0002
 21
 4.71077488000000E+0002
  0
LINE
  8
0
 10
 9.09359840000000E+0002
 20
 4.71077488000000E+0002
 11
 9.12309794631500E+0002
 21
 4.60700707126500E+0002
  0
LINE
  8
0
 10
 9.12309794631500E+0002
 20
 4.60700707126500E+0002
 11
 9.15156805292000E+0002
 21
 4.50220334972000E+0002
  0
LINE
  8
0
 10
 9.15156805292000E+0002
 20
 4.50220334972000E+0002
 11
 9.17897538930500E+0002
 21
 4.39632990635500E+0002
  0
LINE
  8
0
 10
 9.17897538930500E+0002
 20
 4.39632990635500E+0002
 11
 9.20528662496000E+0002
 21
 4.28935293216000E+0002
  0
LINE
  8
0
 10
 9.20528662496000E+0002
 20
 4.28935293216000E+0002
 11
 9.23046842937500E+0002
 21
 4.18123861812500E+0002
  0
LINE
  8
0
 10
 9.23046842937500E+0002
 20
 4.18123861812500E+0002
 11
 9.25448747204000E+0002
 21
 4.07195315524000E+0002
  0
LINE
  8
0
 10
 9.25448747204000E+0002
 20
 4.07195315524000E+0002
 11
 9.27731042244500E+0002
 21
 3.96146273449500E+0002
  0
LINE
  8
0
 10
 9.27731042244500E+0002
 20
 3.96146273449500E+0002
 11
 9.29890395008000E+0002
 21
 3.84973354688000E+0002
  0
LINE
  8
0
 10
 9.29890395008000E+0002
 20
 3.84973354688000E+0002
 11
 9.31923472443500E+0002
 21
 3.73673178338500E+0002
  0
LINE
  8
0
 10
 9.31923472443500E+0002
 20
 3.73673178338500E+0002
 11
 9.33826941500000E+0002
 21
 3.62242363500000E+0002
  0
LINE
  8
0
 10
 9.33826941500000E+0002
 20
 3.62242363500000E+0002
 11
 9.35597469126500E+0002
 21
 3.50677529271500E+0002
  0
LINE
  8
0
 10
 9.35597469126500E+0002
 20
 3.50677529271500E+0002
 11
 9.37231722272000E+0002
 21
 3.38975294752000E+0002
  0
LINE
  8
0
 10
 9.37231722272000E+0002
 20
 3.38975294752000E+0002
 11
 9.38726367885500E+0002
 21
 3.27132279040500E+0002
  0
LINE
  8
0
 10
 9.38726367885500E+0002
 20
 3.27132279040500E+0002
 11
 9.40078072916000E+0002
 21
 3.15145101236000E+0002
  0
LINE
  8
0
 10
 9.40078072916000E+0002
 20
 3.15145101236000E+0002
 11
 9.41283504312500E+0002
 21
 3.03010380437500E+0002
  0
LINE
  8
0
 10
 9.41283504312500E+0002
 20
 3.03010380437500E+0002
 11
 9.42339329024000E+0002
 21
 2.90724735744000E+0002
  0
LINE
  8
0
 10
 9.42339329024000E+0002
 20
 2.90724735744000E+0002
 11
 9.43242213999500E+0002
 21
 2.78284786254500E+0002
  0
LINE
  8
0
 10
 9.43242213999500E+0002
 20
 2.78284786254500E+0002
 11
 9.43988826188000E+0002
 21
 2.65687151068000E+0002
  0
LINE
  8
0
 10
 9.43988826188000E+0002
 20
 2.65687151068000E+0002
 11
 9.44575832538500E+0002
 21
 2.52928449283500E+0002
  0
LINE
  8
0
 10
 9.44575832538500E+0002
 20
 2.52928449283500E+0002
 11
 9.44999900000000E+0002
 21
 2.40005300000000E+0002
  0
LINE
  8
0
 10
 9.44999900000000E+0002
 20
 2.40005300000000E+0002
 11
 9.45000000000000E+0002
 21
 1.55000000000000E+0002
  0
LINE
  8
0
 10
 9.45000000000000E+0002
 20
 1.55000000000000E+0002
 11
 8.85000000000000E+0002
 21
 1.55000000000000E+0002
  0
LINE
  8
0
 10
 8.85000000000000E+0002
 20
 1.55000000000000E+0002
 11
 8.85000000000000E+0002
 21
 2.40005300000000E+0002
  0
LINE
  8
0
 10
 8.85000000000000E+0002
 20
 2.40005300000000E+0002
 11
 8.84575967434900E+0002
 21
 2.52928449294400E+0002
  0
LINE
  8
0
 10
 8.84575967434900E+0002
 20
 2.52928449294400E+0002
 11
 8.83988993799200E+0002
 21
 2.65687151155200E+0002
  0
LINE
  8
0
 10
 8.83988993799200E+0002
 20
 2.65687151155200E+0002
 11
 8.83242412182300E+0002
 21
 2.78284786548800E+0002
  0
LINE
  8
0
 10
 8.83242412182300E+0002
 20
 2.78284786548800E+0002
 11
 8.82339555673600E+0002
 21
 2.90724736441600E+0002
  0
LINE
  8
0
 10
 8.82339555673600E+0002
 20
 2.90724736441600E+0002
 11
 8.81283757362500E+0002
 21
 3.03010381800000E+0002
  0
LINE
  8
0
 10
 8.81283757362500E+0002
 20
 3.03010381800000E+0002
 11
 8.80078350338400E+0002
 21
 3.15145103590400E+0002
  0
LINE
  8
0
 10
 8.80078350338400E+0002
 20
 3.15145103590400E+0002
 11
 8.78726667690700E+0002
 21
 3.27132282779200E+0002
  0
LINE
  8
0
 10
 8.78726667690700E+0002
 20
 3.27132282779200E+0002
 11
 8.77232042508800E+0002
 21
 3.38975300332800E+0002
  0
LINE
  8
0
 10
 8.77232042508800E+0002
 20
 3.38975300332800E+0002
 11
 8.75597807882100E+0002
 21
 3.50677537217600E+0002
  0
LINE
  8
0
 10
 8.75597807882100E+0002
 20
 3.50677537217600E+0002
 11
 8.73827296900000E+0002
 21
 3.62242374400000E+0002
  0
LINE
  8
0
 10
 8.73827296900000E+0002
 20
 3.62242374400000E+0002
 11
 8.71923842651900E+0002
 21
 3.73673192846400E+0002
  0
LINE
  8
0
 10
 8.71923842651900E+0002
 20
 3.73673192846400E+0002
 11
 8.69890778227200E+0002
 21
 3.84973373523200E+0002
  0
LINE
  8
0
 10
 8.69890778227200E+0002
 20
 3.84973373523200E+0002
 11
 8.67731436715300E+0002
 21
 3.96146297396800E+0002
  0
LINE
  8
0
 10
 8.67731436715300E+0002
 20
 3.96146297396800E+0002
 11
 8.65449151205600E+0002
 21
 4.07195345433600E+0002
  0
LINE
  8
0
 10
 8.65449151205600E+0002
 20
 4.07195345433600E+0002
 11
 8.63047254787500E+0002
 21
 4.18123898600000E+0002
  0
LINE
  8
0
 10
 8.63047254787500E+0002
 20
 4.18123898600000E+0002
 11
 8.60529080550400E+0002
 21
 4.28935337862400E+0002
  0
LINE
  8
0
 10
 8.60529080550400E+0002
 20
 4.28935337862400E+0002
 11
 8.57897961583700E+0002
 21
 4.39633044187200E+0002
  0
LINE
  8
0
 10
 8.57897961583700E+0002
 20
 4.39633044187200E+0002
 11
 8.55157230976800E+0002
 21
 4.50220398540800E+0002
  0
LINE
  8
0
 10
 8.55157230976800E+0002
 20
 4.50220398540800E+0002
 11
 8.52310221819100E+0002
 21
 4.60700781889600E+0002
  0
LINE
  8
0
 10
 8.52310221819100E+0002
 20
 4.60700781889600E+0002
 11
 8.49360267200000E+0002
 21
 4.71077575200000E+0002
  0
LINE
  8
0
 10
 8.49360267200000E+0002
 20
 4.71077575200000E+0002
 11
 8.46310700208900E+0002
 21
 4.81354159438400E+0002
  0
LINE
  8
0
 10
 8.46310700208900E+0002
 20
 4.81354159438400E+0002
 11
 8.43164853935200E+0002
 21
 4.91533915571200E+0002
  0
LINE
  8
0
 10
 8.43164853935200E+0002
 20
 4.91533915571200E+0002
 11
 8.39926061468300E+0002
 21
 5.01620224564800E+0002
  0
LINE
  8
0
 10
 8.39926061468300E+0002
 20
 5.01620224564800E+0002
 11
 8.36597655897600E+0002
 21
 5.11616467385600E+0002
  0
LINE
  8
0
 10
 8.36597655897600E+0002
 20
 5.11616467385600E+0002
 11
 8.33182970312500E+0002
 21
 5.21526025000000E+0002
  0
LINE
  8
0
 10
 8.33182970312500E+0002
 20
 5.21526025000000E+0002
 11
 8.29685337802400E+0002
 21
 5.31352278374400E+0002
  0
LINE
  8
0
 10
 8.29685337802400E+0002
 20
 5.31352278374400E+0002
 11
 8.26108091456700E+0002
 21
 5.41098608475200E+0002
  0
LINE
  8
0
 10
 8.26108091456700E+0002
 20
 5.41098608475200E+0002
 11
 8.22454564364800E+0002
 21
 5.50768396268800E+0002
  0
LINE
  8
0
 10
 8.22454564364800E+0002
 20
 5.50768396268800E+0002
 11
 8.18728089616100E+0002
 21
 5.60365022721600E+0002
  0
LINE
  8
0
 10
 8.18728089616100E+0002
 20
 5.60365022721600E+0002
 11
 8.14932000300000E+0002
 21
 5.69891868800000E+0002
  0
LINE
  8
0
 10
 8.14932000300000E+0002
 20
 5.69891868800000E+0002
 11
 8.11069629505900E+0002
 21
 5.79352315470400E+0002
  0
LINE
  8
0
 10
 8.11069629505900E+0002
 20
 5.79352315470400E+0002
 11
 8.07144310323200E+0002
 21
 5.88749743699200E+0002
  0
LINE
  8
0
 10
 8.07144310323200E+0002
 20
 5.88749743699200E+0002
 11
 8.03159375841300E+0002
 21
 5.98087534452800E+0002
  0
LINE
  8
0
 10
 8.03159375841300E+0002
 20
 5.98087534452800E+0002
 11
 7.99118159149600E+0002
 21
 6.07369068697600E+0002
  0
LINE
  8
0
 10
 7.99118159149600E+0002
 20
 6.07369068697600E+0002
 11
 7.95023993337500E+0002
 21
 6.16597727400000E+0002
  0
LINE
  8
0
 10
 7.95023993337500E+0002
 20
 6.16597727400000E+0002
 11
 7.90880211494400E+0002
 21
 6.25776891526400E+0002
  0
LINE
  8
0
 10
 7.90880211494400E+0002
 20
 6.25776891526400E+0002
 11
 7.86690146709700E+0002
 21
 6.34909942043200E+0002
  0
LINE
  8
0
 10
 7.86690146709700E+0002
 20
 6.34909942043200E+0002
 11
 7.82457132072800E+0002
 21
 6.44000259916800E+0002
  0
LINE
  8
0
 10
 7.82457132072800E+0002
 20
 6.44000259916800E+0002
 11
 7.78184500673100E+0002
 21
 6.53051226113600E+0002
  0
LINE
  8
0
 10
 7.78184500673100E+0002
 20
 6.53051226113600E+0002
 11
 7.73875585600000E+0002
 21
 6.62066221600000E+0002
  0
LINE
  8
0
 10
 7.73875585600000E+0002
 20
 6.62066221600000E+0002
 11
 7.69533719942900E+0002
 21
 6.71048627342400E+0002
  0
LINE
  8
0
 10
 7.69533719942900E+0002
 20
 6.71048627342400E+0002
 11
 7.65162236791200E+0002
 21
 6.80001824307200E+0002
  0
LINE
  8
0
 10
 7.65162236791200E+0002
 20
 6.80001824307200E+0002
 11
 7.60764469234300E+0002
 21
 6.88929193460800E+0002
  0
LINE
  8
0
 10
 7.60764469234300E+0002
 20
 6.88929193460800E+0002
 11
 7.56343750361600E+0002
 21
 6.97834115769600E+0002
  0
LINE
  8
0
 10
 7.56343750361600E+0002
 20
 6.97834115769600E+0002
 11
 7.51903413262500E+0002
 21
 7.06719972200000E+0002
  0
LINE
  8
0
 10
 7.51903413262500E+0002
 20
 7.06719972200000E+0002
 11
 7.47446791026400E+0002
 21
 7.15590143718400E+0002
  0
LINE
  8
0
 10
 7.47446791026400E+0002
 20
 7.15590143718400E+0002
 11
 7.42977216742700E+0002
 21
 7.24448011291200E+0002
  0
LINE
  8
0
 10
 7.42977216742700E+0002
 20
 7.24448011291200E+0002
 11
 7.38498023500800E+0002
 21
 7.33296955884800E+0002
  0
LINE
  8
0
 10
 7.38498023500800E+0002
 20
 7.33296955884800E+0002
 11
 7.34012544390100E+0002
 21
 7.42140358465600E+0002
  0
LINE
  8
0
 10
 7.34012544390100E+0002
 20
 7.42140358465600E+0002
 11
 7.29524112500000E+0002
 21
 7.50981600000000E+0002
  0
LINE
  8
0
 10
 7.29524112500000E+0002
 20
 7.50981600000000E+0002
 11
 7.25036060919900E+0002
 21
 7.59824061454400E+0002
  0
LINE
  8
0
 10
 7.25036060919900E+0002
 20
 7.59824061454400E+0002
 11
 7.20551722739200E+0002
 21
 7.68671123795200E+0002
  0
LINE
  8
0
 10
 7.20551722739200E+0002
 20
 7.68671123795200E+0002
 11
 7.16074431047300E+0002
 21
 7.77526167988800E+0002
  0
LINE
  8
0
 10
 7.16074431047300E+0002
 20
 7.77526167988800E+0002
 11
 7.11607518933600E+0002
 21
 7.86392575001600E+0002
  0
LINE
  8
0
 10
 7.11607518933600E+0002
 20
 7.86392575001600E+0002
 11
 7.07154319487500E+0002
 21
 7.95273725800000E+0002
  0
LINE
  8
0
 10
 7.07154319487500E+0002
 20
 7.95273725800000E+0002
 11
 7.02718165798400E+0002
 21
 8.04173001350400E+0002
  0
LINE
  8
0
 10
 7.02718165798400E+0002
 20
 8.04173001350400E+0002
 11
 6.98302390955700E+0002
 21
 8.13093782619200E+0002
  0
LINE
  8
0
 10
 6.98302390955700E+0002
 20
 8.13093782619200E+0002
 11
 6.93910328048800E+0002
 21
 8.22039450572800E+0002
  0
LINE
  8
0
 10
 6.93910328048800E+0002
 20
 8.22039450572800E+0002
 11
 6.89545310167100E+0002
 21
 8.31013386177600E+0002
  0
LINE
  8
0
 10
 6.89545310167100E+0002
 20
 8.31013386177600E+0002
 11
 6.85210670400000E+0002
 21
 8.40018970400000E+0002
  0
LINE
  8
0
 10
 6.85210670400000E+0002
 20
 8.40018970400000E+0002
 11
 6.80909741836900E+0002
 21
 8.49059584206400E+0002
  0
LINE
  8
0
 10
 6.80909741836900E+0002
 20
 8.49059584206400E+0002
 11
 6.76645857567200E+0002
 21
 8.58138608563200E+0002
  0
LINE
  8
0
 10
 6.76645857567200E+0002
 20
 8.58138608563200E+0002
 11
 6.72422350680300E+0002
 21
 8.67259424436800E+0002
  0
LINE
  8
0
 10
 6.72422350680300E+0002
 20
 8.67259424436800E+0002
 11
 6.68242554265600E+0002
 21
 8.76425412793600E+0002
  0
LINE
  8
0
 10
 6.68242554265600E+0002
 20
 8.76425412793600E+0002
 11
 6.64109801412500E+0002
 21
 8.85639954600000E+0002
  0
LINE
  8
0
 10
 6.64109801412500E+0002
 20
 8.85639954600000E+0002
 11
 6.60027425210400E+0002
 21
 8.94906430822400E+0002
  0
LINE
  8
0
 10
 6.60027425210400E+0002
 20
 8.94906430822400E+0002
 11
 6.55998758748700E+0002
 21
 9.04228222427200E+0002
  0
LINE
  8
0
 10
 6.55998758748700E+0002
 20
 9.04228222427200E+0002
 11
 6.52027135116800E+0002
 21
 9.13608710380800E+0002
  0
LINE
  8
0
 10
 6.52027135116800E+0002
 20
 9.13608710380800E+0002
 11
 6.48115887404100E+0002
 21
 9.23051275649600E+0002
  0
LINE
  8
0
 10
 6.48115887404100E+0002
 20
 9.23051275649600E+0002
 11
 6.44268348700000E+0002
 21
 9.32559299200000E+0002
  0
LINE
  8
0
 10
 6.44268348700000E+0002
 20
 9.32559299200000E+0002
 11
 6.40487852093900E+0002
 21
 9.42136161998400E+0002
  0
LINE
  8
0
 10
 6.40487852093900E+0002
 20
 9.42136161998400E+0002
 11
 6.36777730675200E+0002
 21
 9.51785245011200E+0002
  0
LINE
  8
0
 10
 6.36777730675200E+0002
 20
 9.51785245011200E+0002
 11
 6.33141317533300E+0002
 21
 9.61509929204800E+0002
  0
LINE
  8
0
 10
 6.33141317533300E+0002
 20
 9.61509929204800E+0002
 11
 6.29581945757600E+0002
 21
 9.71313595545600E+0002
  0
LINE
  8
0
 10
 6.29581945757600E+0002
 20
 9.71313595545600E+0002
 11
 6.26102948437500E+0002
 21
 9.81199625000000E+0002
  0
LINE
  8
0
 10
 6.26102948437500E+0002
 20
 9.81199625000000E+0002
 11
 6.22707658662400E+0002
 21
 9.91171398534400E+0002
  0
LINE
  8
0
 10
 6.22707658662400E+0002
 20
 9.91171398534400E+0002
 11
 6.19399409521700E+0002
 21
 1.00123229711520E+0003
  0
LINE
  8
0
 10
 6.19399409521700E+0002
 20
 1.00123229711520E+0003
 11
 6.16181534104800E+0002
 21
 1.01138570170880E+0003
  0
LINE
  8
0
 10
 6.16181534104800E+0002
 20
 1.01138570170880E+0003
 11
 6.13057365501100E+0002
 21
 1.02163499328160E+0003
  0
LINE
  8
0
 10
 6.13057365501100E+0002
 20
 1.02163499328160E+0003
 11
 6.10030236800000E+0002
 21
 1.03198355280000E+0003
  0
LINE
  8
0
 10
 6.10030236800000E+0002
 20
 1.03198355280000E+0003
 11
 6.07103481090900E+0002
 21
 1.04243476123040E+0003
  0
LINE
  8
0
 10
 6.07103481090900E+0002
 20
 1.04243476123040E+0003
 11
 6.04280431463200E+0002
 21
 1.05299199953920E+0003
  0
LINE
  8
0
 10
 6.04280431463200E+0002
 20
 1.05299199953920E+0003
 11
 6.01564421006300E+0002
 21
 1.06365864869280E+0003
  0
LINE
  8
0
 10
 6.01564421006300E+0002
 20
 1.06365864869280E+0003
 11
 5.98958782809600E+0002
 21
 1.07443808965760E+0003
  0
LINE
  8
0
 10
 5.98958782809600E+0002
 20
 1.07443808965760E+0003
 11
 5.96466849962500E+0002
 21
 1.08533370340000E+0003
  0
LINE
  8
0
 10
 5.96466849962500E+0002
 20
 1.08533370340000E+0003
 11
 5.94091955554400E+0002
 21
 1.09634887088640E+0003
  0
LINE
  8
0
 10
 5.94091955554400E+0002
 20
 1.09634887088640E+0003
 11
 5.91837432674700E+0002
 21
 1.10748697308320E+0003
  0
LINE
  8
0
 10
 5.91837432674700E+0002
 20
 1.10748697308320E+0003
 11
 5.89706614412800E+0002
 21
 1.11875139095680E+0003
  0
LINE
  8
0
 10
 5.89706614412800E+0002
 20
 1.11875139095680E+0003
 11
 5.87702833858100E+0002
 21
 1.13014550547360E+0003
  0
LINE
  8
0
 10
 5.87702833858100E+0002
 20
 1.13014550547360E+0003
 11
 5.85829424100000E+0002
 21
 1.14167269760000E+0003
  0
LINE
  8
0
 10
 5.85829424100000E+0002
 20
 1.14167269760000E+0003
 11
 5.84089718227900E+0002
 21
 1.15333634830240E+0003
  0
LINE
  8
0
 10
 5.84089718227900E+0002
 20
 1.15333634830240E+0003
 11
 5.82487049331200E+0002
 21
 1.16513983854720E+0003
  0
LINE
  8
0
 10
 5.82487049331200E+0002
 20
 1.16513983854720E+0003
 11
 5.81024750499300E+0002
 21
 1.17708654930080E+0003
  0
LINE
  8
0
 10
 5.81024750499300E+0002
 20
 1.17708654930080E+0003
 11
 5.79706154821600E+0002
 21
 1.18917986152960E+0003
  0
LINE
  8
0
 10
 5.79706154821600E+0002
 20
 1.18917986152960E+0003
 11
 5.78534595387500E+0002
 21
 1.20142315620000E+0003
  0
LINE
  8
0
 10
 5.78534595387500E+0002
 20
 1.20142315620000E+0003
 11
 5.77513405286400E+0002
 21
 1.21381981427840E+0003
  0
LINE
  8
0
 10
 5.77513405286400E+0002
 20
 1.21381981427840E+0003
 11
 5.76645917607700E+0002
 21
 1.22637321673120E+0003
  0
LINE
  8
0
 10
 5.76645917607700E+0002
 20
 1.22637321673120E+0003
 11
 5.75935465440800E+0002
 21
 1.23908674452480E+0003
  0
LINE
  8
0
 10
 5.75935465440800E+0002
 20
 1.23908674452480E+0003
 11
 5.75385381875100E+0002
 21
 1.25196377862560E+0003
  0
LINE
  8
0
 10
 5.75385381875100E+0002
 20
 1.25196377862560E+0003
 11
 5.74999000000000E+0002
 21
 1.26500770000000E+0003
  0
LINE
  8
0
 10
 5.74999000000000E+0002
 20
 1.26500770000000E+0003
 11
 5.75000000000000E+0002
 21
 1.30700000000000E+0003
  0
LINE
  8
0
 10
 5.75000000000000E+0002
 20
 1.30700000000000E+0003
 11
 5.30002532319225E+0002
 21
 1.29538170409776E+0003
  0
ARC
  8
0
 10
 5.27000000000000E+0002
 20
 1.30700000000000E+0003
 40
 1.20000000000000E+0001
 50
 1.46400000000000E+0002
 51
 2.84490000000000E+0002
  0
LINE
  8
0
 10
 5.17004945111479E+0002
 20
 1.31364069859092E+0003
 11
 6.05000000000000E+0002
 21
 1.44500000000000E+0003
  0
LINE
  8
0
 10
 6.05000000000000E+0002
 20
 1.44500000000000E+0003
 11
 6.92988095286088E+0002
 21
 1.31365116174484E+0003
  0
ARC
  8
0
 10
 6.83000000000000E+0002
 20
 1.30700000000000E+0003
 40
 1.20000000000000E+0001
 50
 2.55635000000000E+0002
 51
 3.93660000000000E+0002
  0
LINE
  8
0
 10
 6.80022821995783E+0002
 20
 1.29537518124308E+0003
 11
 6.80000000000000E+0002
 21
 1.29537550000000E+0003
  0
LINE
  8
0
 10
 8.90000000000000E+0002
 20
 1.29537550000000E+0003
 11
 8.45000000000000E+0002
 21
 1.30700000000000E+0003
  0
LINE
  8
0
 10
 8.45000000000000E+0002
 20
 1.30700000000000E+0003
 11
 8.45000000000000E+0002
 21
 1.26499680000000E+0003
  0
LINE
  8
0
 10
 8.45000000000000E+0002
 20
 1.26499680000000E+0003
 11
 8.45386387071500E+0002
 21
 1.25195320236650E+0003
  0
LINE
  8
0
 10
 8.45386387071500E+0002
 20
 1.25195320236650E+0003
 11
 8.45936474252000E+0002
 21
 1.23907648553200E+0003
  0
LINE
  8
0
 10
 8.45936474252000E+0002
 20
 1.23907648553200E+0003
 11
 8.46646928490500E+0002
 21
 1.22636326859550E+0003
  0
LINE
  8
0
 10
 8.46646928490500E+0002
 20
 1.22636326859550E+0003
 11
 8.47514416736000E+0002
 21
 1.21381017065600E+0003
  0
LINE
  8
0
 10
 8.47514416736000E+0002
 20
 1.21381017065600E+0003
 11
 8.48535605937500E+0002
 21
 1.20141381081250E+0003
  0
LINE
  8
0
 10
 8.48535605937500E+0002
 20
 1.20141381081250E+0003
 11
 8.49707163044000E+0002
 21
 1.18917080816400E+0003
  0
LINE
  8
0
 10
 8.49707163044000E+0002
 20
 1.18917080816400E+0003
 11
 8.51025755004500E+0002
 21
 1.17707778180950E+0003
  0
LINE
  8
0
 10
 8.51025755004500E+0002
 20
 1.17707778180950E+0003
 11
 8.52488048768000E+0002
 21
 1.16513135084800E+0003
  0
LINE
  8
0
 10
 8.52488048768000E+0002
 20
 1.16513135084800E+0003
 11
 8.54090711283500E+0002
 21
 1.15332813437850E+0003
  0
LINE
  8
0
 10
 8.54090711283500E+0002
 20
 1.15332813437850E+0003
 11
 8.55830409500000E+0002
 21
 1.14166475150000E+0003
  0
LINE
  8
0
 10
 8.55830409500000E+0002
 20
 1.14166475150000E+0003
 11
 8.57703810366500E+0002
 21
 1.13013782131150E+0003
  0
LINE
  8
0
 10
 8.57703810366500E+0002
 20
 1.13013782131150E+0003
 11
 8.59707580832000E+0002
 21
 1.11874396291200E+0003
  0
LINE
  8
0
 10
 8.59707580832000E+0002
 20
 1.11874396291200E+0003
 11
 8.61838387845500E+0002
 21
 1.10747979540050E+0003
  0
LINE
  8
0
 10
 8.61838387845500E+0002
 20
 1.10747979540050E+0003
 11
 8.64092898356000E+0002
 21
 1.09634193787600E+0003
  0
LINE
  8
0
 10
 8.64092898356000E+0002
 20
 1.09634193787600E+0003
 11
 8.66467779312500E+0002
 21
 1.08532700943750E+0003
  0
LINE
  8
0
 10
 8.66467779312500E+0002
 20
 1.08532700943750E+0003
 11
 8.68959697664000E+0002
 21
 1.07443162918400E+0003
  0
LINE
  8
0
 10
 8.68959697664000E+0002
 20
 1.07443162918400E+0003
 11
 8.71565320359500E+0002
 21
 1.06365241621450E+0003
  0
LINE
  8
0
 10
 8.71565320359500E+0002
 20
 1.06365241621450E+0003
 11
 8.74281314348000E+0002
 21
 1.05298598962800E+0003
  0
LINE
  8
0
 10
 8.74281314348000E+0002
 20
 1.05298598962800E+0003
 11
 8.77104346578500E+0002
 21
 1.04242896852350E+0003
  0
LINE
  8
0
 10
 8.77104346578500E+0002
 20
 1.04242896852350E+0003
 11
 8.80031084000000E+0002
 21
 1.03197797200000E+0003
  0
LINE
  8
0
 10
 8.80031084000000E+0002
 20
 1.03197797200000E+0003
 11
 8.83058193561500E+0002
 21
 1.02162961915650E+0003
  0
LINE
  8
0
 10
 8.83058193561500E+0002
 20
 1.02162961915650E+0003
 11
 8.86182342212000E+0002
 21
 1.01138052909200E+0003
  0
LINE
  8
0
 10
 8.86182342212000E+0002
 20
 1.01138052909200E+0003
 11
 8.89400196900500E+0002
 21
 1.00122732090550E+0003
  0
LINE
  8
0
 10
 8.89400196900500E+0002
 20
 1.00122732090550E+0003
 11
 8.92708424576000E+0002
 21
 9.91166613696000E+0002
  0
LINE
  8
0
 10
 8.92708424576000E+0002
 20
 9.91166613696000E+0002
 11
 8.96103692187500E+0002
 21
 9.81195026562500E+0002
  0
LINE
  8
0
 10
 8.96103692187500E+0002
 20
 9.81195026562500E+0002
 11
 8.99582666684000E+0002
 21
 9.71309178604000E+0002
  0
LINE
  8
0
 10
 8.99582666684000E+0002
 20
 9.71309178604000E+0002
 11
 9.03142015014500E+0002
 21
 9.61505688919500E+0002
  0
LINE
  8
0
 10
 9.03142015014500E+0002
 20
 9.61505688919500E+0002
 11
 9.06778404128000E+0002
 21
 9.51781176608000E+0002
  0
LINE
  8
0
 10
 9.06778404128000E+0002
 20
 9.51781176608000E+0002
 11
 9.10488500973500E+0002
 21
 9.42132260768500E+0002
  0
LINE
  8
0
 10
 9.10488500973500E+0002
 20
 9.42132260768500E+0002
 11
 9.14268972500000E+0002
 21
 9.32555560500000E+0002
  0
LINE
  8
0
 10
 9.14268972500000E+0002
 20
 9.32555560500000E+0002
 11
 9.18116485656500E+0002
 21
 9.23047694901500E+0002
  0
LINE
  8
0
 10
 9.18116485656500E+0002
 20
 9.23047694901500E+0002
 11
 9.22027707392000E+0002
 21
 9.13605283072000E+0002
  0
LINE
  8
0
 10
 9.22027707392000E+0002
 20
 9.13605283072000E+0002
 11
 9.25999304655500E+0002
 21
 9.04224944110500E+0002
  0
LINE
  8
0
 10
 9.25999304655500E+0002
 20
 9.04224944110500E+0002
 11
 9.30027944396000E+0002
 21
 8.94903297116000E+0002
  0
LINE
  8
0
 10
 9.30027944396000E+0002
 20
 8.94903297116000E+0002
 11
 9.34110293562500E+0002
 21
 8.85636961187500E+0002
  0
LINE
  8
0
 10
 9.34110293562500E+0002
 20
 8.85636961187500E+0002
 11
 9.38243019104000E+0002
 21
 8.76422555424000E+0002
  0
LINE
  8
0
 10
 9.38243019104000E+0002
 20
 8.76422555424000E+0002
 11
 9.42422787969500E+0002
 21
 8.67256698924500E+0002
  0
LINE
  8
0
 10
 9.42422787969500E+0002
 20
 8.67256698924500E+0002
 11
 9.46646267108000E+0002
 21
 8.58136010788000E+0002
  0
LINE
  8
0
 10
 9.46646267108000E+0002
 20
 8.58136010788000E+0002
 11
 9.50910123468500E+0002
 21
 8.49057110113500E+0002
  0
LINE
  8
0
 10
 9.50910123468500E+0002
 20
 8.49057110113500E+0002
 11
 9.55211024000000E+0002
 21
 8.40016616000000E+0002
  0
LINE
  8
0
 10
 9.55211024000000E+0002
 20
 8.40016616000000E+0002
 11
 9.59545635651500E+0002
 21
 8.31011147546500E+0002
  0
LINE
  8
0
 10
 9.59545635651500E+0002
 20
 8.31011147546500E+0002
 11
 9.63910625372000E+0002
 21
 8.22037323852000E+0002
  0
LINE
  8
0
 10
 9.63910625372000E+0002
 20
 8.22037323852000E+0002
 11
 9.68302660110500E+0002
 21
 8.13091764015500E+0002
  0
LINE
  8
0
 10
 9.68302660110500E+0002
 20
 8.13091764015500E+0002
 11
 9.72718406816000E+0002
 21
 8.04171087136000E+0002
  0
LINE
  8
0
 10
 9.72718406816000E+0002
 20
 8.04171087136000E+0002
 11
 9.77154532437500E+0002
 21
 7.95271912312500E+0002
  0
LINE
  8
0
 10
 9.77154532437500E+0002
 20
 7.95271912312500E+0002
 11
 9.81607703924000E+0002
 21
 7.86390858644000E+0002
  0
LINE
  8
0
 10
 9.81607703924000E+0002
 20
 7.86390858644000E+0002
 11
 9.86074588224500E+0002
 21
 7.77524545229500E+0002
  0
LINE
  8
0
 10
 9.86074588224500E+0002
 20
 7.77524545229500E+0002
 11
 9.90551852288000E+0002
 21
 7.68669591168000E+0002
  0
LINE
  8
0
 10
 9.90551852288000E+0002
 20
 7.68669591168000E+0002
 11
 9.95036163063500E+0002
 21
 7.59822615558500E+0002
  0
LINE
  8
0
 10
 9.95036163063500E+0002
 20
 7.59822615558500E+0002
 11
 9.99524187500000E+0002
 21
 7.50980237500000E+0002
  0
LINE
  8
0
 10
 9.99524187500000E+0002
 20
 7.50980237500000E+0002
 11
 1.00401259254650E+0003
 21
 7.42139076091500E+0002
  0
LINE
  8
0
 10
 1.00401259254650E+0003
 20
 7.42139076091500E+0002
 11
 1.00849804515200E+0003
 21
 7.33295750432000E+0002
  0
LINE
  8
0
 10
 1.00849804515200E+0003
 20
 7.33295750432000E+0002
 11
 1.01297721226550E+0003
 21
 7.24446879620500E+0002
  0
LINE
  8
0
 10
 1.01297721226550E+0003
 20
 7.24446879620500E+0002
 11
 1.01744676083600E+0003
 21
 7.15589082756000E+0002
  0
LINE
  8
0
 10
 1.01744676083600E+0003
 20
 7.15589082756000E+0002
 11
 1.02190335781250E+0003
 21
 7.06718978937500E+0002
  0
LINE
  8
0
 10
 1.02190335781250E+0003
 20
 7.06718978937500E+0002
 11
 1.02634367014400E+0003
 21
 6.97833187264000E+0002
  0
LINE
  8
0
 10
 1.02634367014400E+0003
 20
 6.97833187264000E+0002
 11
 1.03076436477950E+0003
 21
 6.88928326834500E+0002
  0
LINE
  8
0
 10
 1.03076436477950E+0003
 20
 6.88928326834500E+0002
 11
 1.03516210866800E+0003
 21
 6.80001016748000E+0002
  0
LINE
  8
0
 10
 1.03516210866800E+0003
 20
 6.80001016748000E+0002
 11
 1.03953356875850E+0003
 21
 6.71047876103500E+0002
  0
LINE
  8
0
 10
 1.03953356875850E+0003
 20
 6.71047876103500E+0002
 11
 1.04387541200000E+0003
 21
 6.62065524000000E+0002
  0
LINE
  8
0
 10
 1.04387541200000E+0003
 20
 6.62065524000000E+0002
 11
 1.04818430534150E+0003
 21
 6.53050579536500E+0002
  0
LINE
  8
0
 10
 1.04818430534150E+0003
 20
 6.53050579536500E+0002
 11
 1.05245691573200E+0003
 21
 6.43999661812000E+0002
  0
LINE
  8
0
 10
 1.05245691573200E+0003
 20
 6.43999661812000E+0002
 11
 1.05668991012050E+0003
 21
 6.34909389925500E+0002
  0
LINE
  8
0
 10
 1.05668991012050E+0003
 20
 6.34909389925500E+0002
 11
 1.06087995545600E+0003
 21
 6.25776382976000E+0002
  0
LINE
  8
0
 10
 1.06087995545600E+0003
 20
 6.25776382976000E+0002
 11
 1.06502371868750E+0003
 21
 6.16597260062500E+0002
  0
LINE
  8
0
 10
 1.06502371868750E+0003
 20
 6.16597260062500E+0002
 11
 1.06911786676400E+0003
 21
 6.07368640284000E+0002
  0
LINE
  8
0
 10
 1.06911786676400E+0003
 20
 6.07368640284000E+0002
 11
 1.07315906663450E+0003
 21
 5.98087142739500E+0002
  0
LINE
  8
0
 10
 1.07315906663450E+0003
 20
 5.98087142739500E+0002
 11
 1.07714398524800E+0003
 21
 5.88749386528000E+0002
  0
LINE
  8
0
 10
 1.07714398524800E+0003
 20
 5.88749386528000E+0002
 11
 1.08106928955350E+0003
 21
 5.79351990748500E+0002
  0
LINE
  8
0
 10
 1.08106928955350E+0003
 20
 5.79351990748500E+0002
 11
 1.08493164650000E+0003
 21
 5.69891574500000E+0002
  0
LINE
  8
0
 10
 1.08493164650000E+0003
 20
 5.69891574500000E+0002
 11
 1.08872772303650E+0003
 21
 5.60364756881500E+0002
  0
LINE
  8
0
 10
 1.08872772303650E+0003
 20
 5.60364756881500E+0002
 11
 1.09245418611200E+0003
 21
 5.50768156992000E+0002
  0
LINE
  8
0
 10
 1.09245418611200E+0003
 20
 5.50768156992000E+0002
 11
 1.09610770267550E+0003
 21
 5.41098393930500E+0002
  0
LINE
  8
0
 10
 1.09610770267550E+0003
 20
 5.41098393930500E+0002
 11
 1.09968493967600E+0003
 21
 5.31352086796000E+0002
  0
LINE
  8
0
 10
 1.09968493967600E+0003
 20
 5.31352086796000E+0002
 11
 1.10318256406250E+0003
 21
 5.21525854687500E+0002
  0
LINE
  8
0
 10
 1.10318256406250E+0003
 20
 5.21525854687500E+0002
 11
 1.10659724278400E+0003
 21
 5.11616316704000E+0002
  0
LINE
  8
0
 10
 1.10659724278400E+0003
 20
 5.11616316704000E+0002
 11
 1.10992564278950E+0003
 21
 5.01620091944500E+0002
  0
LINE
  8
0
 10
 1.10992564278950E+0003
 20
 5.01620091944500E+0002
 11
 1.11316443102800E+0003
 21
 4.91533799508000E+0002
  0
LINE
  8
0
 10
 1.11316443102800E+0003
 20
 4.91533799508000E+0002
 11
 1.11631027444850E+0003
 21
 4.81354058493500E+0002
  0
LINE
  8
0
 10
 1.11631027444850E+0003
 20
 4.81354058493500E+0002
 11
 1.11935984000000E+0003
 21
 4.71077488000000E+0002
  0
LINE
  8
0
 10
 1.11935984000000E+0003
 20
 4.71077488000000E+0002
 11
 1.12230979463150E+0003
 21
 4.60700707126500E+0002
  0
LINE
  8
0
 10
 1.12230979463150E+0003
 20
 4.60700707126500E+0002
 11
 1.12515680529200E+0003
 21
 4.50220334972000E+0002
  0
LINE
  8
0
 10
 1.12515680529200E+0003
 20
 4.50220334972000E+0002
 11
 1.12789753893050E+0003
 21
 4.39632990635500E+0002
  0
LINE
  8
0
 10
 1.12789753893050E+0003
 20
 4.39632990635500E+0002
 11
 1.13052866249600E+0003
 21
 4.28935293216000E+0002
  0
LINE
  8
0
 10
 1.13052866249600E+0003
 20
 4.28935293216000E+0002
 11
 1.13304684293750E+0003
 21
 4.18123861812500E+0002
  0
LINE
  8
0
 10
 1.13304684293750E+0003
 20
 4.18123861812500E+0002
 11
 1.13544874720400E+0003
 21
 4.07195315524000E+0002
  0
LINE
  8
0
 10
 1.13544874720400E+0003
 20
 4.07195315524000E+0002
 11
 1.13773104224450E+0003
 21
 3.96146273449500E+0002
  0
LINE
  8
0
 10
 1.13773104224450E+0003
 20
 3.96146273449500E+0002
 11
 1.13989039500800E+0003
 21
 3.84973354688000E+0002
  0
LINE
  8
0
 10
 1.13989039500800E+0003
 20
 3.84973354688000E+0002
 11
 1.14192347244350E+0003
 21
 3.73673178338500E+0002
  0
LINE
  8
0
 10
 1.14192347244350E+0003
 20
 3.73673178338500E+0002
 11
 1.14382694150000E+0003
 21
 3.62242363500000E+0002
  0
LINE
  8
0
 10
 1.14382694150000E+0003
 20
 3.62242363500000E+0002
 11
 1.14559746912650E+0003
 21
 3.50677529271500E+0002
  0
LINE
  8
0
 10
 1.14559746912650E+0003
 20
 3.50677529271500E+0002
 11
 1.14723172227200E+0003
 21
 3.38975294752000E+0002
  0
LINE
  8
0
 10
 1.14723172227200E+0003
 20
 3.38975294752000E+0002
 11
 1.14872636788550E+0003
 21
 3.27132279040500E+0002
  0
LINE
  8
0
 10
 1.14872636788550E+0003
 20
 3.27132279040500E+0002
 11
 1.15007807291600E+0003
 21
 3.15145101236000E+0002
  0
LINE
  8
0
 10
 1.15007807291600E+0003
 20
 3.15145101236000E+0002
 11
 1.15128350431250E+0003
 21
 3.03010380437500E+0002
  0
LINE
  8
0
 10
 1.15128350431250E+0003
 20
 3.03010380437500E+0002
 11
 1.15233932902400E+0003
 21
 2.90724735744000E+0002
  0
LINE
  8
0
 10
 1.15233932902400E+0003
 20
 2.90724735744000E+0002
 11
 1.15324221399950E+0003
 21
 2.78284786254500E+0002
  0
LINE
  8
0
 10
 1.15324221399950E+0003
 20
 2.78284786254500E+0002
 11
 1.15398882618800E+0003
 21
 2.65687151068000E+0002
  0
LINE
  8
0
 10
 1.15398882618800E+0003
 20
 2.65687151068000E+0002
 11
 1.15457583253850E+0003
 21
 2.52928449283500E+0002
  0
LINE
  8
0
 10
 1.15457583253850E+0003
 20
 2.52928449283500E+0002
 11
 1.15499990000000E+0003
 21
 2.40005300000000E+0002
  0
LINE
  8
0
 10
 1.15499990000000E+0003
 20
 2.40005300000000E+0002
 11
 1.15500000000000E+0003
 21
 1.55000000000000E+0002
  0
LINE
  8
0
 10
 1.15500000000000E+0003
 20
 1.55000000000000E+0002
 11
 1.09500000000000E+0003
 21
 1.55000000000000E+0002
  0
LINE
  8
0
 10
 1.09500000000000E+0003
 20
 1.55000000000000E+0002
 11
 1.09500000000000E+0003
 21
 2.40005300000000E+0002
  0
LINE
  8
0
 10
 1.09500000000000E+0003
 20
 2.40005300000000E+0002
 11
 1.09457596743490E+0003
 21
 2.52928449294400E+0002
  0
LINE
  8
0
 10
 1.09457596743490E+0003
 20
 2.52928449294400E+0002
 11
 1.09398899379920E+0003
 21
 2.65687151155200E+0002
  0
LINE
  8
0
 10
 1.09398899379920E+0003
 20
 2.65687151155200E+0002
 11
 1.09324241218230E+0003
 21
 2.78284786548800E+0002
  0
LINE
  8
0
 10
 1.09324241218230E+0003
 20
 2.78284786548800E+0002
 11
 1.09233955567360E+0003
 21
 2.90724736441600E+0002
  0
LINE
  8
0
 10
 1.09233955567360E+0003
 20
 2.90724736441600E+0002
 11
 1.09128375736250E+0003
 21
 3.03010381800000E+0002
  0
LINE
  8
0
 10
 1.09128375736250E+0003
 20
 3.03010381800000E+0002
 11
 1.09007835033840E+0003
 21
 3.15145103590400E+0002
  0
LINE
  8
0
 10
 1.09007835033840E+0003
 20
 3.15145103590400E+0002
 11
 1.08872666769070E+0003
 21
 3.27132282779200E+0002
  0
LINE
  8
0
 10
 1.08872666769070E+0003
 20
 3.27132282779200E+0002
 11
 1.08723204250880E+0003
 21
 3.38975300332800E+0002
  0
LINE
  8
0
 10
 1.08723204250880E+0003
 20
 3.38975300332800E+0002
 11
 1.08559780788210E+0003
 21
 3.50677537217600E+0002
  0
LINE
  8
0
 10
 1.08559780788210E+0003
 20
 3.50677537217600E+0002
 11
 1.08382729690000E+0003
 21
 3.62242374400000E+0002
  0
LINE
  8
0
 10
 1.08382729690000E+0003
 20
 3.62242374400000E+0002
 11
 1.08192384265190E+0003
 21
 3.73673192846400E+0002
  0
LINE
  8
0
 10
 1.08192384265190E+0003
 20
 3.73673192846400E+0002
 11
 1.07989077822720E+0003
 21
 3.84973373523200E+0002
  0
LINE
  8
0
 10
 1.07989077822720E+0003
 20
 3.84973373523200E+0002
 11
 1.07773143671530E+0003
 21
 3.96146297396800E+0002
  0
LINE
  8
0
 10
 1.07773143671530E+0003
 20
 3.96146297396800E+0002
 11
 1.07544915120560E+0003
 21
 4.07195345433600E+0002
  0
LINE
  8
0
 10
 1.07544915120560E+0003
 20
 4.07195345433600E+0002
 11
 1.07304725478750E+0003
 21
 4.18123898600000E+0002
  0
LINE
  8
0
 10
 1.07304725478750E+0003
 20
 4.18123898600000E+0002
 11
 1.07052908055040E+0003
 21
 4.28935337862400E+0002
  0
LINE
  8
0
 10
 1.07052908055040E+0003
 20
 4.28935337862400E+0002
 11
 1.06789796158370E+0003
 21
 4.39633044187200E+0002
  0
LINE
  8
0
 10
 1.06789796158370E+0003
 20
 4.39633044187200E+0002
 11
 1.06515723097680E+0003
 21
 4.50220398540800E+0002
  0
LINE
  8
0
 10
 1.06515723097680E+0003
 20
 4.50220398540800E+0002
 11
 1.06231022181910E+0003
 21
 4.60700781889600E+0002
  0
LINE
  8
0
 10
 1.06231022181910E+0003
 20
 4.60700781889600E+0002
 11
 1.05936026720000E+0003
 21
 4.71077575200000E+0002
  0
LINE
  8
0
 10
 1.05936026720000E+0003
 20
 4.71077575200000E+0002
 11
 1.05631070020890E+0003
 21
 4.81354159438400E+0002
  0
LINE
  8
0
 10
 1.05631070020890E+0003
 20
 4.81354159438400E+0002
 11
 1.05316485393520E+0003
 21
 4.91533915571200E+0002
  0
LINE
  8
0
 10
 1.05316485393520E+0003
 20
 4.91533915571200E+0002
 11
 1.04992606146830E+0003
 21
 5.01620224564800E+0002
  0
LINE
  8
0
 10
 1.04992606146830E+0003
 20
 5.01620224564800E+0002
 11
 1.04659765589760E+0003
 21
 5.11616467385600E+0002
  0
LINE
  8
0
 10
 1.04659765589760E+0003
 20
 5.11616467385600E+0002
 11
 1.04318297031250E+0003
 21
 5.21526025000000E+0002
  0
LINE
  8
0
 10
 1.04318297031250E+0003
 20
 5.21526025000000E+0002
 11
 1.03968533780240E+0003
 21
 5.31352278374400E+0002
  0
LINE
  8
0
 10
 1.03968533780240E+0003
 20
 5.31352278374400E+0002
 11
 1.03610809145670E+0003
 21
 5.41098608475200E+0002
  0
LINE
  8
0
 10
 1.03610809145670E+0003
 20
 5.41098608475200E+0002
 11
 1.03245456436480E+0003
 21
 5.50768396268800E+0002
  0
LINE
  8
0
 10
 1.03245456436480E+0003
 20
 5.50768396268800E+0002
 11
 1.02872808961610E+0003
 21
 5.60365022721600E+0002
  0
LINE
  8
0
 10
 1.02872808961610E+0003
 20
 5.60365022721600E+0002
 11
 1.02493200030000E+0003
 21
 5.69891868800000E+0002
  0
LINE
  8
0
 10
 1.02493200030000E+0003
 20
 5.69891868800000E+0002
 11
 1.02106962950590E+0003
 21
 5.79352315470400E+0002
  0
LINE
  8
0
 10
 1.02106962950590E+0003
 20
 5.79352315470400E+0002
 11
 1.01714431032320E+0003
 21
 5.88749743699200E+0002
  0
LINE
  8
0
 10
 1.01714431032320E+0003
 20
 5.88749743699200E+0002
 11
 1.01315937584130E+0003
 21
 5.98087534452800E+0002
  0
LINE
  8
0
 10
 1.01315937584130E+0003
 20
 5.98087534452800E+0002
 11
 1.00911815914960E+0003
 21
 6.07369068697600E+0002
  0
LINE
  8
0
 10
 1.00911815914960E+0003
 20
 6.07369068697600E+0002
 11
 1.00502399333750E+0003
 21
 6.16597727400000E+0002
  0
LINE
  8
0
 10
 1.00502399333750E+0003
 20
 6.16597727400000E+0002
 11
 1.00088021149440E+0003
 21
 6.25776891526400E+0002
  0
LINE
  8
0
 10
 1.00088021149440E+0003
 20
 6.25776891526400E+0002
 11
 9.96690146709700E+0002
 21
 6.34909942043200E+0002
  0
LINE
  8
0
 10
 9.96690146709700E+0002
 20
 6.34909942043200E+0002
 11
 9.92457132072800E+0002
 21
 6.44000259916800E+0002
  0
LINE
  8
0
 10
 9.92457132072800E+0002
 20
 6.44000259916800E+0002
 11
 9.88184500673100E+0002
 21
 6.53051226113600E+0002
  0
LINE
  8
0
 10
 9.88184500673100E+0002
 20
 6.53051226113600E+0002
 11
 9.83875585600000E+0002
 21
 6.62066221600000E+0002
  0
LINE
  8
0
 10
 9.83875585600000E+0002
 20
 6.62066221600000E+0002
 11
 9.79533719942900E+0002
 21
 6.71048627342400E+0002
  0
LINE
  8
0
 10
 9.79533719942900E+0002
 20
 6.71048627342400E+0002
 11
 9.75162236791200E+0002
 21
 6.80001824307200E+0002
  0
LINE
  8
0
 10
 9.75162236791200E+0002
 20
 6.80001824307200E+0002
 11
 9.70764469234300E+0002
 21
 6.88929193460800E+0002
  0
LINE
  8
0
 10
 9.70764469234300E+0002
 20
 6.88929193460800E+0002
 11
 9.66343750361600E+0002
 21
 6.97834115769600E+0002
  0
LINE
  8
0
 10
 9.66343750361600E+0002
 20
 6.97834115769600E+0002
 11
 9.61903413262500E+0002
 21
 7.06719972200000E+0002
  0
LINE
  8
0
 10
 9.61903413262500E+0002
 20
 7.06719972200000E+0002
 11
 9.57446791026400E+0002
 21
 7.15590143718400E+0002
  0
LINE
  8
0
 10
 9.57446791026400E+0002
 20
 7.15590143718400E+0002
 11
 9.52977216742700E+0002
 21
 7.24448011291200E+0002
  0
LINE
  8
0
 10
 9.52977216742700E+0002
 20
 7.24448011291200E+0002
 11
 9.48498023500800E+0002
 21
 7.33296955884800E+0002
  0
LINE
  8
0
 10
 9.48498023500800E+0002
 20
 7.33296955884800E+0002
 11
 9.44012544390100E+0002
 21
 7.42140358465600E+0002
  0
LINE
  8
0
 10
 9.44012544390100E+0002
 20
 7.42140358465600E+0002
 11
 9.39524112500000E+0002
 21
 7.50981600000000E+0002
  0
LINE
  8
0
 10
 9.39524112500000E+0002
 20
 7.50981600000000E+0002
 11
 9.35036060919900E+0002
 21
 7.59824061454400E+0002
  0
LINE
  8
0
 10
 9.35036060919900E+0002
 20
 7.59824061454400E+0002
 11
 9.30551722739200E+0002
 21
 7.68671123795200E+0002
  0
LINE
  8
0
 10
 9.30551722739200E+0002
 20
 7.68671123795200E+0002
 11
 9.26074431047300E+0002
 21
 7.77526167988800E+0002
  0
LINE
  8
0
 10
 9.26074431047300E+0002
 20
 7.77526167988800E+0002
 11
 9.21607518933600E+0002
 21
 7.86392575001600E+0002
  0
LINE
  8
0
 10
 9.21607518933600E+0002
 20
 7.86392575001600E+0002
 11
 9.17154319487500E+0002
 21
 7.95273725800000E+0002
  0
LINE
  8
0
 10
 9.17154319487500E+0002
 20
 7.95273725800000E+0002
 11
 9.12718165798400E+0002
 21
 8.04173001350400E+0002
  0
LINE
  8
0
 10
 9.12718165798400E+0002
 20
 8.04173001350400E+0002
 11
 9.08302390955700E+0002
 21
 8.13093782619200E+0002
  0
LINE
  8
0
 10
 9.08302390955700E+0002
 20
 8.13093782619200E+0002
 11
 9.03910328048800E+0002
 21
 8.22039450572800E+0002
  0
LINE
  8
0
 10
 9.03910328048800E+0002
 20
 8.22039450572800E+0002
 11
 8.99545310167100E+0002
 21
 8.31013386177600E+0002
  0
LINE
  8
0
 10
 8.99545310167100E+0002
 20
 8.31013386177600E+0002
 11
 8.95210670400000E+0002
 21
 8.40018970400000E+0002
  0
LINE
  8
0
 10
 8.95210670400000E+0002
 20
 8.40018970400000E+0002
 11
 8.90909741836900E+0002
 21
 8.49059584206400E+0002
  0
LINE
  8
0
 10
 8.90909741836900E+0002
 20
 8.49059584206400E+0002
 11
 8.86645857567200E+0002
 21
 8.58138608563200E+0002
  0
LINE
  8
0
 10
 8.86645857567200E+0002
 20
 8.58138608563200E+0002
 11
 8.82422350680300E+0002
 21
 8.67259424436800E+0002
  0
LINE
  8
0
 10
 8.82422350680300E+0002
 20
 8.67259424436800E+0002
 11
 8.78242554265600E+0002
 21
 8.76425412793600E+0002
  0
LINE
  8
0
 10
 8.78242554265600E+0002
 20
 8.76425412793600E+0002
 11
 8.74109801412500E+0002
 21
 8.85639954600000E+0002
  0
LINE
  8
0
 10
 8.74109801412500E+0002
 20
 8.85639954600000E+0002
 11
 8.70027425210400E+0002
 21
 8.94906430822400E+0002
  0
LINE
  8
0
 10
 8.70027425210400E+0002
 20
 8.94906430822400E+0002
 11
 8.65998758748700E+0002
 21
 9.04228222427200E+0002
  0
LINE
  8
0
 10
 8.65998758748700E+0002
 20
 9.04228222427200E+0002
 11
 8.62027135116800E+0002
 21
 9.13608710380800E+0002
  0
LINE
  8
0
 10
 8.62027135116800E+0002
 20
 9.13608710380800E+0002
 11
 8.58115887404100E+0002
 21
 9.23051275649600E+0002
  0
LINE
  8
0
 10
 8.58115887404100E+0002
 20
 9.23051275649600E+0002
 11
 8.54268348700000E+0002
 21
 9.32559299200000E+0002
  0
LINE
  8
0
 10
 8.54268348700000E+0002
 20
 9.32559299200000E+0002
 11
 8.50487852093900E+0002
 21
 9.42136161998400E+0002
  0
LINE
  8
0
 10
 8.50487852093900E+0002
 20
 9.42136161998400E+0002
 11
 8.46777730675200E+0002
 21
 9.51785245011200E+0002
  0
LINE
  8
0
 10
 8.46777730675200E+0002
 20
 9.51785245011200E+0002
 11
 8.43141317533300E+0002
 21
 9.61509929204800E+0002
  0
LINE
  8
0
 10
 8.43141317533300E+0002
 20
 9.61509929204800E+0002
 11
 8.39581945757600E+0002
 21
 9.71313595545600E+0002
  0
LINE
  8
0
 10
 8.39581945757600E+0002
 20
 9.71313595545600E+0002
 11
 8.36102948437500E+0002
 21
 9.81199625000000E+0002
  0
LINE
  8
0
 10
 8.36102948437500E+0002
 20
 9.81199625000000E+0002
 11
 8.32707658662400E+0002
 21
 9.91171398534400E+0002
  0
LINE
  8
0
 10
 8.32707658662400E+0002
 20
 9.91171398534400E+0002
 11
 8.29399409521700E+0002
 21
 1.00123229711520E+0003
  0
LINE
  8
0
 10
 8.29399409521700E+0002
 20
 1.00123229711520E+0003
 11
 8.26181534104800E+0002
 21
 1.01138570170880E+0003
  0
LINE
  8
0
 10
 8.26181534104800E+0002
 20
 1.01138570170880E+0003
 11
 8.23057365501100E+0002
 21
 1.02163499328160E+0003
  0
LINE
  8
0
 10
 8.23057365501100E+0002
 20
 1.02163499328160E+0003
 11
 8.20030236800000E+0002
 21
 1.03198355280000E+0003
  0
LINE
  8
0
 10
 8.20030236800000E+0002
 20
 1.03198355280000E+0003
 11
 8.17103481090900E+0002
 21
 1.04243476123040E+0003
  0
LINE
  8
0
 10
 8.17103481090900E+0002
 20
 1.04243476123040E+0003
 11
 8.14280431463200E+0002
 21
 1.05299199953920E+0003
  0
LINE
  8
0
 10
 8.14280431463200E+0002
 20
 1.05299199953920E+0003
 11
 8.11564421006300E+0002
 21
 1.06365864869280E+0003
  0
LINE
  8
0
 10
 8.11564421006300E+0002
 20
 1.06365864869280E+0003
 11
 8.08958782809600E+0002
 21
 1.07443808965760E+0003
  0
LINE
  8
0
 10
 8.08958782809600E+0002
 20
 1.07443808965760E+0003
 11
 8.06466849962500E+0002
 21
 1.08533370340000E+0003
  0
LINE
  8
0
 10
 8.06466849962500E+0002
 20
 1.08533370340000E+0003
 11
 8.04091955554400E+0002
 21
 1.09634887088640E+0003
  0
LINE
  8
0
 10
 8.04091955554400E+0002
 20
 1.09634887088640E+0003
 11
 8.01837432674700E+0002
 21
 1.10748697308320E+0003
  0
LINE
  8
0
 10
 8.01837432674700E+0002
 20
 1.10748697308320E+0003
 11
 7.99706614412800E+0002
 21
 1.11875139095680E+0003
  0
LINE
  8
0
 10
 7.99706614412800E+0002
 20
 1.11875139095680E+0003
 11
 7.97702833858100E+0002
 21
 1.13014550547360E+0003
  0
LINE
  8
0
 10
 7.97702833858100E+0002
 20
 1.13014550547360E+0003
 11
 7.95829424100000E+0002
 21
 1.14167269760000E+0003
  0
LINE
  8
0
 10
 7.95829424100000E+0002
 20
 1.14167269760000E+0003
 11
 7.94089718227900E+0002
 21
 1.15333634830240E+0003
  0
LINE
  8
0
 10
 7.94089718227900E+0002
 20
 1.15333634830240E+0003
 11
 7.92487049331200E+0002
 21
 1.16513983854720E+0003
  0
LINE
  8
0
 10
 7.92487049331200E+0002
 20
 1.16513983854720E+0003
 11
 7.91024750499300E+0002
 21
 1.17708654930080E+0003
  0
LINE
  8
0
 10
 7.91024750499300E+0002
 20
 1.17708654930080E+0003
 11
 7.89706154821600E+0002
 21
 1.18917986152960E+0003
  0
LINE
  8
0
 10
 7.89706154821600E+0002
 20
 1.18917986152960E+0003
 11
 7.88534595387500E+0002
 21
 1.20142315620000E+0003
  0
LINE
  8
0
 10
 7.88534595387500E+0002
 20
 1.20142315620000E+0003
 11
 7.87513405286400E+0002
 21
 1.21381981427840E+0003
  0
LINE
  8
0
 10
 7.87513405286400E+0002
 20
 1.21381981427840E+0003
 11
 7.86645917607700E+0002
 21
 1.22637321673120E+0003
  0
LINE
  8
0
 10
 7.86645917607700E+0002
 20
 1.22637321673120E+0003
 11
 7.85935465440800E+0002
 21
 1.23908674452480E+0003
  0
LINE
  8
0
 10
 7.85935465440800E+0002
 20
 1.23908674452480E+0003
 11
 7.85385381875100E+0002
 21
 1.25196377862560E+0003
  0
LINE
  8
0
 10
 7.85385381875100E+0002
 20
 1.25196377862560E+0003
 11
 7.84999000000000E+0002
 21
 1.26500770000000E+0003
  0
LINE
  8
0
 10
 7.84999000000000E+0002
 20
 1.26500770000000E+0003
 11
 7.85000000000000E+0002
 21
 1.30700000000000E+0003
  0
LINE
  8
0
 10
 7.85000000000000E+0002
 20
 1.30700000000000E+0003
 11
 7.40002532319225E+0002
 21
 1.29538170409776E+0003
  0
ARC
  8
0
 10
 7.37000000000000E+0002
 20
 1.30700000000000E+0003
 40
 1.20000000000000E+0001
 50
 1.46400000000000E+0002
 51
 2.84490000000000E+0002
  0
LINE
  8
0
 10
 7.27004945111479E+0002
 20
 1.31364069859092E+0003
 11
 8.15000000000000E+0002
 21
 1.44500000000000E+0003
  0
LINE
  8
0
 10
 8.15000000000000E+0002
 20
 1.44500000000000E+0003
 11
 9.02988095286088E+0002
 21
 1.31365116174484E+0003
  0
ARC
  8
0
 10
 8.93000000000000E+0002
 20
 1.30700000000000E+0003
 40
 1.20000000000000E+0001
 50
 2.55635000000000E+0002
 51
 3.93660000000000E+0002
  0
LINE
  8
0
 10
 8.90022821995783E+0002
 20
 1.29537518124308E+0003
 11
 8.90000000000000E+0002
 21
 1.29537550000000E+0003
  0
ENDSEC
  0
EOF
