  0
SECTION
  2
HEADER
  9
$ACADVER
  1
AC1003
  9
$INSBASE
 10
0.0
 20
0.0
  9
$EXTMIN
 10
 0.00000000000000E+0000
 20
 0.00000000000000E+0000
  9
$EXTMAX
 10
 1.60000000000000E+0003
 20
 1.60000000000000E+0003
  9
$LIMMIN
 10
0.0
 20
0.0
  9
$LIMMAX
 10
410.0
 20
287.0
  9
$VIEWCTR
 10
227.0059616
 20
165.058879 
  9
$VIEWSIZE
 40
 1.60000000000000E+0003
9
$SNAPMODE
70
0
9
$SNAPUNIT
10
1
20
1
9
$GRIDMODE
70
0
9
$GRIDUNIT
10
1
20
1
9
$ORTHOMODE
70
0
9
$rEGENMODE
70
1
9
$FILLMODE
70
1
9
$DRAGMODE
70
2
9
$LTSCALE
40
25.0
9
$OSMODE
70
0
9
$ATTMODE
70
1
9
$TRACEWID
40
1.0
9
$TEXTSTYLE
7
STANDARD
9
$CLAYER
8
0
9
$CELTYPE
6
VONLAYER
9
$CECOLOR
62
256
9
$LUNITS
70
2
9
$LUPREC
70
2
9
$AXISMODE
70
0
9
$AXISUNIT
10
0
20
0
9
$SKETCHINC
40
1.0
9
$FILLETRAD
40
0.0
9
$AUNITS
70
0
9
$AUPREC
70
0
9
$MENU
1
ACAD
9
$ELEVATION
40
0.0
9
$THICKNESS
40
0.0
9
$VIEWDIR
10
0.0
20
0.0
30
1.0
9
$LIMCHECK
70
0
9
$BLIPMODE
70
1
9
$CHAMFERA
40
0.0
9
$CHAMFERB
40
0.0
9
$USRTIMER
70
1
9
$ANGBASE
50
0.0
9
$ANGDIR
70
0
9
$PDMODE
70
0
9
$PDSIZE
40
0.0
9
$PLINEWID
40
0.0
9
$COORDS
70
0
0
ENDSEC
0
SECTION
2
TABLES
0
TABLE
2
LTYPE
70
1
0
LTYPE
2
AUSGEZOGEN
70
64
3
Ausgezogene Linie
72
65
73
0
40
0.0
0
ENDTAB
0
TABLE
2
LAYER
70
1
0
LAYER
2
0
70
0
62
7
6
AUSGEZOGEN
0
ENDTAB
0
TABLE
2
STYLE
70
1
0
STYLE
2
STANDARD
70
0
40
0.0
41
1.0
50
0.0
71
0
42
3.5
3
txt
4

0
ENDTAB
0
TABLE
2
VIEW
70
0
0
ENDTAB
0
ENDSEC
0
SECTION
2
BLOCKS
0
ENDSEC
0
SECTION
2
ENTITIES
  0
LINE
  8
0
 10
 6.00000000000000E+0001
 20
 1.60000000000000E+0003
 11
 1.54000000000000E+0003
 21
 1.60000000000000E+0003
  0
ARC
  8
0
 10
 1.54000000000000E+0003
 20
 1.54000000000000E+0003
 40
 6.00000000000000E+0001
 50
 0.00000000000000E+0000
 51
 9.00000000000000E+0001
  0
LINE
  8
0
 10
 1.60000000000000E+0003
 20
 1.54000000000000E+0003
 11
 1.60000000000000E+0003
 21
 6.00000000000000E+0001
  0
ARC
  8
0
 10
 1.54000000000000E+0003
 20
 6.00000000000000E+0001
 40
 6.00000000000000E+0001
 50
 2.70000000000000E+0002
 51
 3.60000000000000E+0002
  0
LINE
  8
0
 10
 1.54000000000000E+0003
 20
 0.00000000000000E+0000
 11
 6.00000000000000E+0001
 21
 0.00000000000000E+0000
  0
ARC
  8
0
 10
 6.00000000000000E+0001
 20
 6.00000000000000E+0001
 40
 6.00000000000000E+0001
 50
 1.80000000000000E+0002
 51
 2.70000000000000E+0002
  0
LINE
  8
0
 10
 0.00000000000000E+0000
 20
 6.00000000000000E+0001
 11
 0.00000000000000E+0000
 21
 1.54000000000000E+0003
  0
ARC
  8
0
 10
 6.00000000000000E+0001
 20
 1.54000000000000E+0003
 40
 6.00000000000000E+0001
 50
 9.00000000000000E+0001
 51
 1.80000000000000E+0002
  0
LINE
  8
0
 10
 6.00000000000000E+0001
 20
 1.58500000000000E+0003
 11
 1.54000000000000E+0003
 21
 1.58500000000000E+0003
  0
ARC
  8
0
 10
 1.54000000000000E+0003
 20
 1.54000000000000E+0003
 40
 4.50000000000000E+0001
 50
 0.00000000000000E+0000
 51
 9.00000000000000E+0001
  0
LINE
  8
0
 10
 1.58500000000000E+0003
 20
 1.54000000000000E+0003
 11
 1.58500000000000E+0003
 21
 6.00000000000000E+0001
  0
ARC
  8
0
 10
 1.54000000000000E+0003
 20
 6.00000000000000E+0001
 40
 4.50000000000000E+0001
 50
 2.70000000000000E+0002
 51
 3.60000000000000E+0002
  0
LINE
  8
0
 10
 1.54000000000000E+0003
 20
 1.50000000000000E+0001
 11
 6.00000000000000E+0001
 21
 1.50000000000000E+0001
  0
ARC
  8
0
 10
 6.00000000000000E+0001
 20
 6.00000000000000E+0001
 40
 4.50000000000000E+0001
 50
 1.80000000000000E+0002
 51
 2.70000000000000E+0002
  0
LINE
  8
0
 10
 1.50000000000000E+0001
 20
 6.00000000000000E+0001
 11
 1.50000000000000E+0001
 21
 1.54000000000000E+0003
  0
ARC
  8
0
 10
 6.00000000000000E+0001
 20
 1.54000000000000E+0003
 40
 4.50000000000000E+0001
 50
 9.00000000000000E+0001
 51
 1.80000000000000E+0002
  0
LINE
  8
0
 10
 6.00000000000000E+0001
 20
 1.56500000000000E+0003
 11
 1.54000000000000E+0003
 21
 1.56500000000000E+0003
  0
ARC
  8
0
 10
 1.54000000000000E+0003
 20
 1.54000000000000E+0003
 40
 2.50000000000000E+0001
 50
 0.00000000000000E+0000
 51
 9.00000000000000E+0001
  0
LINE
  8
0
 10
 1.56500000000000E+0003
 20
 1.54000000000000E+0003
 11
 1.56500000000000E+0003
 21
 6.00000000000000E+0001
  0
ARC
  8
0
 10
 1.54000000000000E+0003
 20
 6.00000000000000E+0001
 40
 2.50000000000000E+0001
 50
 2.70000000000000E+0002
 51
 3.60000000000000E+0002
  0
LINE
  8
0
 10
 1.54000000000000E+0003
 20
 3.50000000000000E+0001
 11
 6.00000000000000E+0001
 21
 3.50000000000000E+0001
  0
ARC
  8
0
 10
 6.00000000000000E+0001
 20
 6.00000000000000E+0001
 40
 2.50000000000000E+0001
 50
 1.80000000000000E+0002
 51
 2.70000000000000E+0002
  0
LINE
  8
0
 10
 3.50000000000000E+0001
 20
 6.00000000000000E+0001
 11
 3.50000000000000E+0001
 21
 1.54000000000000E+0003
  0
ARC
  8
0
 10
 6.00000000000000E+0001
 20
 1.54000000000000E+0003
 40
 2.50000000000000E+0001
 50
 9.00000000000000E+0001
 51
 1.80000000000000E+0002
  0
LINE
  8
0
 10
 3.75002000000000E+0002
 20
 1.29537550000000E+0003
 11
 4.20000000000000E+0002
 21
 1.30699250000000E+0003
  0
LINE
  8
0
 10
 4.20000000000000E+0002
 20
 1.30699250000000E+0003
 11
 4.20000000000000E+0002
 21
 1.26499680000000E+0003
  0
LINE
  8
0
 10
 4.20000000000000E+0002
 20
 1.26499680000000E+0003
 11
 4.19628506750700E+0002
 21
 1.25195320236650E+0003
  0
LINE
  8
0
 10
 4.19628506750700E+0002
 20
 1.25195320236650E+0003
 11
 4.19122713045600E+0002
 21
 1.23907648553200E+0003
  0
LINE
  8
0
 10
 4.19122713045600E+0002
 20
 1.23907648553200E+0003
 11
 4.18485351948900E+0002
 21
 1.22636326859550E+0003
  0
LINE
  8
0
 10
 4.18485351948900E+0002
 20
 1.22636326859550E+0003
 11
 4.17719156524800E+0002
 21
 1.21381017065600E+0003
  0
LINE
  8
0
 10
 4.17719156524800E+0002
 20
 1.21381017065600E+0003
 11
 4.16826859837500E+0002
 21
 1.20141381081250E+0003
  0
LINE
  8
0
 10
 4.16826859837500E+0002
 20
 1.20141381081250E+0003
 11
 4.15811194951200E+0002
 21
 1.18917080816400E+0003
  0
LINE
  8
0
 10
 4.15811194951200E+0002
 20
 1.18917080816400E+0003
 11
 4.14674894930100E+0002
 21
 1.17707778180950E+0003
  0
LINE
  8
0
 10
 4.14674894930100E+0002
 20
 1.17707778180950E+0003
 11
 4.13420692838400E+0002
 21
 1.16513135084800E+0003
  0
LINE
  8
0
 10
 4.13420692838400E+0002
 20
 1.16513135084800E+0003
 11
 4.12051321740300E+0002
 21
 1.15332813437850E+0003
  0
LINE
  8
0
 10
 4.12051321740300E+0002
 20
 1.15332813437850E+0003
 11
 4.10569514700000E+0002
 21
 1.14166475150000E+0003
  0
LINE
  8
0
 10
 4.10569514700000E+0002
 20
 1.14166475150000E+0003
 11
 4.08978004781700E+0002
 21
 1.13013782131150E+0003
  0
LINE
  8
0
 10
 4.08978004781700E+0002
 20
 1.13013782131150E+0003
 11
 4.07279525049600E+0002
 21
 1.11874396291200E+0003
  0
LINE
  8
0
 10
 4.07279525049600E+0002
 20
 1.11874396291200E+0003
 11
 4.05476808567900E+0002
 21
 1.10747979540050E+0003
  0
LINE
  8
0
 10
 4.05476808567900E+0002
 20
 1.10747979540050E+0003
 11
 4.03572588400800E+0002
 21
 1.09634193787600E+0003
  0
LINE
  8
0
 10
 4.03572588400800E+0002
 20
 1.09634193787600E+0003
 11
 4.01569597612500E+0002
 21
 1.08532700943750E+0003
  0
LINE
  8
0
 10
 4.01569597612500E+0002
 20
 1.08532700943750E+0003
 11
 3.99470569267200E+0002
 21
 1.07443162918400E+0003
  0
LINE
  8
0
 10
 3.99470569267200E+0002
 20
 1.07443162918400E+0003
 11
 3.97278236429100E+0002
 21
 1.06365241621450E+0003
  0
LINE
  8
0
 10
 3.97278236429100E+0002
 20
 1.06365241621450E+0003
 11
 3.94995332162400E+0002
 21
 1.05298598962800E+0003
  0
LINE
  8
0
 10
 3.94995332162400E+0002
 20
 1.05298598962800E+0003
 11
 3.92624589531300E+0002
 21
 1.04242896852350E+0003
  0
LINE
  8
0
 10
 3.92624589531300E+0002
 20
 1.04242896852350E+0003
 11
 3.90168741600000E+0002
 21
 1.03197797200000E+0003
  0
LINE
  8
0
 10
 3.90168741600000E+0002
 20
 1.03197797200000E+0003
 11
 3.87630521432700E+0002
 21
 1.02162961915650E+0003
  0
LINE
  8
0
 10
 3.87630521432700E+0002
 20
 1.02162961915650E+0003
 11
 3.85012662093600E+0002
 21
 1.01138052909200E+0003
  0
LINE
  8
0
 10
 3.85012662093600E+0002
 20
 1.01138052909200E+0003
 11
 3.82317896646900E+0002
 21
 1.00122732090550E+0003
  0
LINE
  8
0
 10
 3.82317896646900E+0002
 20
 1.00122732090550E+0003
 11
 3.79548958156800E+0002
 21
 9.91166613696000E+0002
  0
LINE
  8
0
 10
 3.79548958156800E+0002
 20
 9.91166613696000E+0002
 11
 3.76708579687500E+0002
 21
 9.81195026562500E+0002
  0
LINE
  8
0
 10
 3.76708579687500E+0002
 20
 9.81195026562500E+0002
 11
 3.73799494303200E+0002
 21
 9.71309178604000E+0002
  0
LINE
  8
0
 10
 3.73799494303200E+0002
 20
 9.71309178604000E+0002
 11
 3.70824435068100E+0002
 21
 9.61505688919500E+0002
  0
LINE
  8
0
 10
 3.70824435068100E+0002
 20
 9.61505688919500E+0002
 11
 3.67786135046400E+0002
 21
 9.51781176608000E+0002
  0
LINE
  8
0
 10
 3.67786135046400E+0002
 20
 9.51781176608000E+0002
 11
 3.64687327302300E+0002
 21
 9.42132260768500E+0002
  0
LINE
  8
0
 10
 3.64687327302300E+0002
 20
 9.42132260768500E+0002
 11
 3.61530744900000E+0002
 21
 9.32555560500000E+0002
  0
LINE
  8
0
 10
 3.61530744900000E+0002
 20
 9.32555560500000E+0002
 11
 3.58319120903700E+0002
 21
 9.23047694901500E+0002
  0
LINE
  8
0
 10
 3.58319120903700E+0002
 20
 9.23047694901500E+0002
 11
 3.55055188377600E+0002
 21
 9.13605283072000E+0002
  0
LINE
  8
0
 10
 3.55055188377600E+0002
 20
 9.13605283072000E+0002
 11
 3.51741680385900E+0002
 21
 9.04224944110500E+0002
  0
LINE
  8
0
 10
 3.51741680385900E+0002
 20
 9.04224944110500E+0002
 11
 3.48381329992800E+0002
 21
 8.94903297116000E+0002
  0
LINE
  8
0
 10
 3.48381329992800E+0002
 20
 8.94903297116000E+0002
 11
 3.44976870262500E+0002
 21
 8.85636961187500E+0002
  0
LINE
  8
0
 10
 3.44976870262500E+0002
 20
 8.85636961187500E+0002
 11
 3.41531034259200E+0002
 21
 8.76422555424000E+0002
  0
LINE
  8
0
 10
 3.41531034259200E+0002
 20
 8.76422555424000E+0002
 11
 3.38046555047100E+0002
 21
 8.67256698924500E+0002
  0
LINE
  8
0
 10
 3.38046555047100E+0002
 20
 8.67256698924500E+0002
 11
 3.34526165690400E+0002
 21
 8.58136010788000E+0002
  0
LINE
  8
0
 10
 3.34526165690400E+0002
 20
 8.58136010788000E+0002
 11
 3.30972599253300E+0002
 21
 8.49057110113500E+0002
  0
LINE
  8
0
 10
 3.30972599253300E+0002
 20
 8.49057110113500E+0002
 11
 3.27388588800000E+0002
 21
 8.40016616000000E+0002
  0
LINE
  8
0
 10
 3.27388588800000E+0002
 20
 8.40016616000000E+0002
 11
 3.23776867394700E+0002
 21
 8.31011147546500E+0002
  0
LINE
  8
0
 10
 3.23776867394700E+0002
 20
 8.31011147546500E+0002
 11
 3.20140168101600E+0002
 21
 8.22037323852000E+0002
  0
LINE
  8
0
 10
 3.20140168101600E+0002
 20
 8.22037323852000E+0002
 11
 3.16481223984900E+0002
 21
 8.13091764015500E+0002
  0
LINE
  8
0
 10
 3.16481223984900E+0002
 20
 8.13091764015500E+0002
 11
 3.12802768108800E+0002
 21
 8.04171087136000E+0002
  0
LINE
  8
0
 10
 3.12802768108800E+0002
 20
 8.04171087136000E+0002
 11
 3.09107533537500E+0002
 21
 7.95271912312500E+0002
  0
LINE
  8
0
 10
 3.09107533537500E+0002
 20
 7.95271912312500E+0002
 11
 3.05398253335200E+0002
 21
 7.86390858644000E+0002
  0
LINE
  8
0
 10
 3.05398253335200E+0002
 20
 7.86390858644000E+0002
 11
 3.01677660566100E+0002
 21
 7.77524545229500E+0002
  0
LINE
  8
0
 10
 3.01677660566100E+0002
 20
 7.77524545229500E+0002
 11
 2.97948488294400E+0002
 21
 7.68669591168000E+0002
  0
LINE
  8
0
 10
 2.97948488294400E+0002
 20
 7.68669591168000E+0002
 11
 2.94213469584300E+0002
 21
 7.59822615558500E+0002
  0
LINE
  8
0
 10
 2.94213469584300E+0002
 20
 7.59822615558500E+0002
 11
 2.90475337500000E+0002
 21
 7.50980237500000E+0002
  0
LINE
  8
0
 10
 2.90475337500000E+0002
 20
 7.50980237500000E+0002
 11
 2.86736825105700E+0002
 21
 7.42139076091500E+0002
  0
LINE
  8
0
 10
 2.86736825105700E+0002
 20
 7.42139076091500E+0002
 11
 2.83000665465600E+0002
 21
 7.33295750432000E+0002
  0
LINE
  8
0
 10
 2.83000665465600E+0002
 20
 7.33295750432000E+0002
 11
 2.79269591643900E+0002
 21
 7.24446879620500E+0002
  0
LINE
  8
0
 10
 2.79269591643900E+0002
 20
 7.24446879620500E+0002
 11
 2.75546336704800E+0002
 21
 7.15589082756000E+0002
  0
LINE
  8
0
 10
 2.75546336704800E+0002
 20
 7.15589082756000E+0002
 11
 2.71833633712500E+0002
 21
 7.06718978937500E+0002
  0
LINE
  8
0
 10
 2.71833633712500E+0002
 20
 7.06718978937500E+0002
 11
 2.68134215731200E+0002
 21
 6.97833187264000E+0002
  0
LINE
  8
0
 10
 2.68134215731200E+0002
 20
 6.97833187264000E+0002
 11
 2.64450815825100E+0002
 21
 6.88928326834500E+0002
  0
LINE
  8
0
 10
 2.64450815825100E+0002
 20
 6.88928326834500E+0002
 11
 2.60786167058400E+0002
 21
 6.80001016748000E+0002
  0
LINE
  8
0
 10
 2.60786167058400E+0002
 20
 6.80001016748000E+0002
 11
 2.57143002495300E+0002
 21
 6.71047876103500E+0002
  0
LINE
  8
0
 10
 2.57143002495300E+0002
 20
 6.71047876103500E+0002
 11
 2.53524055200000E+0002
 21
 6.62065524000000E+0002
  0
LINE
  8
0
 10
 2.53524055200000E+0002
 20
 6.62065524000000E+0002
 11
 2.49932058236700E+0002
 21
 6.53050579536500E+0002
  0
LINE
  8
0
 10
 2.49932058236700E+0002
 20
 6.53050579536500E+0002
 11
 2.46369744669600E+0002
 21
 6.43999661812000E+0002
  0
LINE
  8
0
 10
 2.46369744669600E+0002
 20
 6.43999661812000E+0002
 11
 2.42839847562900E+0002
 21
 6.34909389925500E+0002
  0
LINE
  8
0
 10
 2.42839847562900E+0002
 20
 6.34909389925500E+0002
 11
 2.39345099980800E+0002
 21
 6.25776382976000E+0002
  0
LINE
  8
0
 10
 2.39345099980800E+0002
 20
 6.25776382976000E+0002
 11
 2.35888234987500E+0002
 21
 6.16597260062500E+0002
  0
LINE
  8
0
 10
 2.35888234987500E+0002
 20
 6.16597260062500E+0002
 11
 2.32471985647200E+0002
 21
 6.07368640284000E+0002
  0
LINE
  8
0
 10
 2.32471985647200E+0002
 20
 6.07368640284000E+0002
 11
 2.29099085024100E+0002
 21
 5.98087142739500E+0002
  0
LINE
  8
0
 10
 2.29099085024100E+0002
 20
 5.98087142739500E+0002
 11
 2.25772266182400E+0002
 21
 5.88749386528000E+0002
  0
LINE
  8
0
 10
 2.25772266182400E+0002
 20
 5.88749386528000E+0002
 11
 2.22494262186300E+0002
 21
 5.79351990748500E+0002
  0
LINE
  8
0
 10
 2.22494262186300E+0002
 20
 5.79351990748500E+0002
 11
 2.19267806100000E+0002
 21
 5.69891574500000E+0002
  0
LINE
  8
0
 10
 2.19267806100000E+0002
 20
 5.69891574500000E+0002
 11
 2.16095630987700E+0002
 21
 5.60364756881500E+0002
  0
LINE
  8
0
 10
 2.16095630987700E+0002
 20
 5.60364756881500E+0002
 11
 2.12980469913600E+0002
 21
 5.50768156992000E+0002
  0
LINE
  8
0
 10
 2.12980469913600E+0002
 20
 5.50768156992000E+0002
 11
 2.09925055941900E+0002
 21
 5.41098393930500E+0002
  0
LINE
  8
0
 10
 2.09925055941900E+0002
 20
 5.41098393930500E+0002
 11
 2.06932122136800E+0002
 21
 5.31352086796000E+0002
  0
LINE
  8
0
 10
 2.06932122136800E+0002
 20
 5.31352086796000E+0002
 11
 2.04004401562500E+0002
 21
 5.21525854687500E+0002
  0
LINE
  8
0
 10
 2.04004401562500E+0002
 20
 5.21525854687500E+0002
 11
 2.01144627283200E+0002
 21
 5.11616316704000E+0002
  0
LINE
  8
0
 10
 2.01144627283200E+0002
 20
 5.11616316704000E+0002
 11
 1.98355532363100E+0002
 21
 5.01620091944500E+0002
  0
LINE
  8
0
 10
 1.98355532363100E+0002
 20
 5.01620091944500E+0002
 11
 1.95639849866400E+0002
 21
 4.91533799508000E+0002
  0
LINE
  8
0
 10
 1.95639849866400E+0002
 20
 4.91533799508000E+0002
 11
 1.93000312857300E+0002
 21
 4.81354058493500E+0002
  0
LINE
  8
0
 10
 1.93000312857300E+0002
 20
 4.81354058493500E+0002
 11
 1.90439654400000E+0002
 21
 4.71077488000000E+0002
  0
LINE
  8
0
 10
 1.90439654400000E+0002
 20
 4.71077488000000E+0002
 11
 1.87960607558700E+0002
 21
 4.60700707126500E+0002
  0
LINE
  8
0
 10
 1.87960607558700E+0002
 20
 4.60700707126500E+0002
 11
 1.85565905397600E+0002
 21
 4.50220334972000E+0002
  0
LINE
  8
0
 10
 1.85565905397600E+0002
 20
 4.50220334972000E+0002
 11
 1.83258280980900E+0002
 21
 4.39632990635500E+0002
  0
LINE
  8
0
 10
 1.83258280980900E+0002
 20
 4.39632990635500E+0002
 11
 1.81040467372800E+0002
 21
 4.28935293216000E+0002
  0
LINE
  8
0
 10
 1.81040467372800E+0002
 20
 4.28935293216000E+0002
 11
 1.78915197637500E+0002
 21
 4.18123861812500E+0002
  0
LINE
  8
0
 10
 1.78915197637500E+0002
 20
 4.18123861812500E+0002
 11
 1.76885204839200E+0002
 21
 4.07195315524000E+0002
  0
LINE
  8
0
 10
 1.76885204839200E+0002
 20
 4.07195315524000E+0002
 11
 1.74953222042100E+0002
 21
 3.96146273449500E+0002
  0
LINE
  8
0
 10
 1.74953222042100E+0002
 20
 3.96146273449500E+0002
 11
 1.73121982310400E+0002
 21
 3.84973354688000E+0002
  0
LINE
  8
0
 10
 1.73121982310400E+0002
 20
 3.84973354688000E+0002
 11
 1.71394218708300E+0002
 21
 3.73673178338500E+0002
  0
LINE
  8
0
 10
 1.71394218708300E+0002
 20
 3.73673178338500E+0002
 11
 1.69772664300000E+0002
 21
 3.62242363500000E+0002
  0
LINE
  8
0
 10
 1.69772664300000E+0002
 20
 3.62242363500000E+0002
 11
 1.68260052149700E+0002
 21
 3.50677529271500E+0002
  0
LINE
  8
0
 10
 1.68260052149700E+0002
 20
 3.50677529271500E+0002
 11
 1.66859115321600E+0002
 21
 3.38975294752000E+0002
  0
LINE
  8
0
 10
 1.66859115321600E+0002
 20
 3.38975294752000E+0002
 11
 1.65572586879900E+0002
 21
 3.27132279040500E+0002
  0
LINE
  8
0
 10
 1.65572586879900E+0002
 20
 3.27132279040500E+0002
 11
 1.64403199888800E+0002
 21
 3.15145101236000E+0002
  0
LINE
  8
0
 10
 1.64403199888800E+0002
 20
 3.15145101236000E+0002
 11
 1.63353687412500E+0002
 21
 3.03010380437500E+0002
  0
LINE
  8
0
 10
 1.63353687412500E+0002
 20
 3.03010380437500E+0002
 11
 1.62426782515200E+0002
 21
 2.90724735744000E+0002
  0
LINE
  8
0
 10
 1.62426782515200E+0002
 20
 2.90724735744000E+0002
 11
 1.61625218261100E+0002
 21
 2.78284786254500E+0002
  0
LINE
  8
0
 10
 1.61625218261100E+0002
 20
 2.78284786254500E+0002
 11
 1.60951727714400E+0002
 21
 2.65687151068000E+0002
  0
LINE
  8
0
 10
 1.60951727714400E+0002
 20
 2.65687151068000E+0002
 11
 1.60409043939300E+0002
 21
 2.52928449283500E+0002
  0
LINE
  8
0
 10
 1.60409043939300E+0002
 20
 2.52928449283500E+0002
 11
 1.59999900000000E+0002
 21
 2.40005300000000E+0002
  0
LINE
  8
0
 10
 1.59999900000000E+0002
 20
 2.40005300000000E+0002
 11
 1.60000000000000E+0002
 21
 1.55000000000000E+0002
  0
LINE
  8
0
 10
 1.60000000000000E+0002
 20
 1.55000000000000E+0002
 11
 2.20000000000000E+0002
 21
 1.55000000000000E+0002
  0
LINE
  8
0
 10
 2.20000000000000E+0002
 20
 1.55000000000000E+0002
 11
 2.20000000000000E+0002
 21
 2.40005300000000E+0002
  0
LINE
  8
0
 10
 2.20000000000000E+0002
 20
 2.40005300000000E+0002
 11
 2.20409126387300E+0002
 21
 2.52928449294400E+0002
  0
LINE
  8
0
 10
 2.20409126387300E+0002
 20
 2.52928449294400E+0002
 11
 2.20951793498400E+0002
 21
 2.65687151155200E+0002
  0
LINE
  8
0
 10
 2.20951793498400E+0002
 20
 2.65687151155200E+0002
 11
 2.21625268257100E+0002
 21
 2.78284786548800E+0002
  0
LINE
  8
0
 10
 2.21625268257100E+0002
 20
 2.78284786548800E+0002
 11
 2.22426817587200E+0002
 21
 2.90724736441600E+0002
  0
LINE
  8
0
 10
 2.22426817587200E+0002
 20
 2.90724736441600E+0002
 11
 2.23353708412500E+0002
 21
 3.03010381800000E+0002
  0
LINE
  8
0
 10
 2.23353708412500E+0002
 20
 3.03010381800000E+0002
 11
 2.24403207656800E+0002
 21
 3.15145103590400E+0002
  0
LINE
  8
0
 10
 2.24403207656800E+0002
 20
 3.15145103590400E+0002
 11
 2.25572582243900E+0002
 21
 3.27132282779200E+0002
  0
LINE
  8
0
 10
 2.25572582243900E+0002
 20
 3.27132282779200E+0002
 11
 2.26859099097600E+0002
 21
 3.38975300332800E+0002
  0
LINE
  8
0
 10
 2.26859099097600E+0002
 20
 3.38975300332800E+0002
 11
 2.28260025141700E+0002
 21
 3.50677537217600E+0002
  0
LINE
  8
0
 10
 2.28260025141700E+0002
 20
 3.50677537217600E+0002
 11
 2.29772627300000E+0002
 21
 3.62242374400000E+0002
  0
LINE
  8
0
 10
 2.29772627300000E+0002
 20
 3.62242374400000E+0002
 11
 2.31394172496300E+0002
 21
 3.73673192846400E+0002
  0
LINE
  8
0
 10
 2.31394172496300E+0002
 20
 3.73673192846400E+0002
 11
 2.33121927654400E+0002
 21
 3.84973373523200E+0002
  0
LINE
  8
0
 10
 2.33121927654400E+0002
 20
 3.84973373523200E+0002
 11
 2.34953159698100E+0002
 21
 3.96146297396800E+0002
  0
LINE
  8
0
 10
 2.34953159698100E+0002
 20
 3.96146297396800E+0002
 11
 2.36885135551200E+0002
 21
 4.07195345433600E+0002
  0
LINE
  8
0
 10
 2.36885135551200E+0002
 20
 4.07195345433600E+0002
 11
 2.38915122137500E+0002
 21
 4.18123898600000E+0002
  0
LINE
  8
0
 10
 2.38915122137500E+0002
 20
 4.18123898600000E+0002
 11
 2.41040386380800E+0002
 21
 4.28935337862400E+0002
  0
LINE
  8
0
 10
 2.41040386380800E+0002
 20
 4.28935337862400E+0002
 11
 2.43258195204900E+0002
 21
 4.39633044187200E+0002
  0
LINE
  8
0
 10
 2.43258195204900E+0002
 20
 4.39633044187200E+0002
 11
 2.45565815533600E+0002
 21
 4.50220398540800E+0002
  0
LINE
  8
0
 10
 2.45565815533600E+0002
 20
 4.50220398540800E+0002
 11
 2.47960514290700E+0002
 21
 4.60700781889600E+0002
  0
LINE
  8
0
 10
 2.47960514290700E+0002
 20
 4.60700781889600E+0002
 11
 2.50439558400000E+0002
 21
 4.71077575200000E+0002
  0
LINE
  8
0
 10
 2.50439558400000E+0002
 20
 4.71077575200000E+0002
 11
 2.53000214785300E+0002
 21
 4.81354159438400E+0002
  0
LINE
  8
0
 10
 2.53000214785300E+0002
 20
 4.81354159438400E+0002
 11
 2.55639750370400E+0002
 21
 4.91533915571200E+0002
  0
LINE
  8
0
 10
 2.55639750370400E+0002
 20
 4.91533915571200E+0002
 11
 2.58355432079100E+0002
 21
 5.01620224564800E+0002
  0
LINE
  8
0
 10
 2.58355432079100E+0002
 20
 5.01620224564800E+0002
 11
 2.61144526835200E+0002
 21
 5.11616467385600E+0002
  0
LINE
  8
0
 10
 2.61144526835200E+0002
 20
 5.11616467385600E+0002
 11
 2.64004301562500E+0002
 21
 5.21526025000000E+0002
  0
LINE
  8
0
 10
 2.64004301562500E+0002
 20
 5.21526025000000E+0002
 11
 2.66932023184800E+0002
 21
 5.31352278374400E+0002
  0
LINE
  8
0
 10
 2.66932023184800E+0002
 20
 5.31352278374400E+0002
 11
 2.69924958625900E+0002
 21
 5.41098608475200E+0002
  0
LINE
  8
0
 10
 2.69924958625900E+0002
 20
 5.41098608475200E+0002
 11
 2.72980374809600E+0002
 21
 5.50768396268800E+0002
  0
LINE
  8
0
 10
 2.72980374809600E+0002
 20
 5.50768396268800E+0002
 11
 2.76095538659700E+0002
 21
 5.60365022721600E+0002
  0
LINE
  8
0
 10
 2.76095538659700E+0002
 20
 5.60365022721600E+0002
 11
 2.79267717100000E+0002
 21
 5.69891868800000E+0002
  0
LINE
  8
0
 10
 2.79267717100000E+0002
 20
 5.69891868800000E+0002
 11
 2.82494177054300E+0002
 21
 5.79352315470400E+0002
  0
LINE
  8
0
 10
 2.82494177054300E+0002
 20
 5.79352315470400E+0002
 11
 2.85772185446400E+0002
 21
 5.88749743699200E+0002
  0
LINE
  8
0
 10
 2.85772185446400E+0002
 20
 5.88749743699200E+0002
 11
 2.89099009200100E+0002
 21
 5.98087534452800E+0002
  0
LINE
  8
0
 10
 2.89099009200100E+0002
 20
 5.98087534452800E+0002
 11
 2.92471915239200E+0002
 21
 6.07369068697600E+0002
  0
LINE
  8
0
 10
 2.92471915239200E+0002
 20
 6.07369068697600E+0002
 11
 2.95888170487500E+0002
 21
 6.16597727400000E+0002
  0
LINE
  8
0
 10
 2.95888170487500E+0002
 20
 6.16597727400000E+0002
 11
 2.99345041868800E+0002
 21
 6.25776891526400E+0002
  0
LINE
  8
0
 10
 2.99345041868800E+0002
 20
 6.25776891526400E+0002
 11
 3.02839796306900E+0002
 21
 6.34909942043200E+0002
  0
LINE
  8
0
 10
 3.02839796306900E+0002
 20
 6.34909942043200E+0002
 11
 3.06369700725600E+0002
 21
 6.44000259916800E+0002
  0
LINE
  8
0
 10
 3.06369700725600E+0002
 20
 6.44000259916800E+0002
 11
 3.09932022048700E+0002
 21
 6.53051226113600E+0002
  0
LINE
  8
0
 10
 3.09932022048700E+0002
 20
 6.53051226113600E+0002
 11
 3.13524027200000E+0002
 21
 6.62066221600000E+0002
  0
LINE
  8
0
 10
 3.13524027200000E+0002
 20
 6.62066221600000E+0002
 11
 3.17142983103300E+0002
 21
 6.71048627342400E+0002
  0
LINE
  8
0
 10
 3.17142983103300E+0002
 20
 6.71048627342400E+0002
 11
 3.20786156682400E+0002
 21
 6.80001824307200E+0002
  0
LINE
  8
0
 10
 3.20786156682400E+0002
 20
 6.80001824307200E+0002
 11
 3.24450814861100E+0002
 21
 6.88929193460800E+0002
  0
LINE
  8
0
 10
 3.24450814861100E+0002
 20
 6.88929193460800E+0002
 11
 3.28134224563200E+0002
 21
 6.97834115769600E+0002
  0
LINE
  8
0
 10
 3.28134224563200E+0002
 20
 6.97834115769600E+0002
 11
 3.31833652712500E+0002
 21
 7.06719972200000E+0002
  0
LINE
  8
0
 10
 3.31833652712500E+0002
 20
 7.06719972200000E+0002
 11
 3.35546366232800E+0002
 21
 7.15590143718400E+0002
  0
LINE
  8
0
 10
 3.35546366232800E+0002
 20
 7.15590143718400E+0002
 11
 3.39269632047900E+0002
 21
 7.24448011291200E+0002
  0
LINE
  8
0
 10
 3.39269632047900E+0002
 20
 7.24448011291200E+0002
 11
 3.43000717081600E+0002
 21
 7.33296955884800E+0002
  0
LINE
  8
0
 10
 3.43000717081600E+0002
 20
 7.33296955884800E+0002
 11
 3.46736888257700E+0002
 21
 7.42140358465600E+0002
  0
LINE
  8
0
 10
 3.46736888257700E+0002
 20
 7.42140358465600E+0002
 11
 3.50475412500000E+0002
 21
 7.50981600000000E+0002
  0
LINE
  8
0
 10
 3.50475412500000E+0002
 20
 7.50981600000000E+0002
 11
 3.54213556732300E+0002
 21
 7.59824061454400E+0002
  0
LINE
  8
0
 10
 3.54213556732300E+0002
 20
 7.59824061454400E+0002
 11
 3.57948587878400E+0002
 21
 7.68671123795200E+0002
  0
LINE
  8
0
 10
 3.57948587878400E+0002
 20
 7.68671123795200E+0002
 11
 3.61677772862100E+0002
 21
 7.77526167988800E+0002
  0
LINE
  8
0
 10
 3.61677772862100E+0002
 20
 7.77526167988800E+0002
 11
 3.65398378607200E+0002
 21
 7.86392575001600E+0002
  0
LINE
  8
0
 10
 3.65398378607200E+0002
 20
 7.86392575001600E+0002
 11
 3.69107672037500E+0002
 21
 7.95273725800000E+0002
  0
LINE
  8
0
 10
 3.69107672037500E+0002
 20
 7.95273725800000E+0002
 11
 3.72802920076800E+0002
 21
 8.04173001350400E+0002
  0
LINE
  8
0
 10
 3.72802920076800E+0002
 20
 8.04173001350400E+0002
 11
 3.76481389648900E+0002
 21
 8.13093782619200E+0002
  0
LINE
  8
0
 10
 3.76481389648900E+0002
 20
 8.13093782619200E+0002
 11
 3.80140347677600E+0002
 21
 8.22039450572800E+0002
  0
LINE
  8
0
 10
 3.80140347677600E+0002
 20
 8.22039450572800E+0002
 11
 3.83777061086700E+0002
 21
 8.31013386177600E+0002
  0
LINE
  8
0
 10
 3.83777061086700E+0002
 20
 8.31013386177600E+0002
 11
 3.87388796800000E+0002
 21
 8.40018970400000E+0002
  0
LINE
  8
0
 10
 3.87388796800000E+0002
 20
 8.40018970400000E+0002
 11
 3.90972821741300E+0002
 21
 8.49059584206400E+0002
  0
LINE
  8
0
 10
 3.90972821741300E+0002
 20
 8.49059584206400E+0002
 11
 3.94526402834400E+0002
 21
 8.58138608563200E+0002
  0
LINE
  8
0
 10
 3.94526402834400E+0002
 20
 8.58138608563200E+0002
 11
 3.98046807003100E+0002
 21
 8.67259424436800E+0002
  0
LINE
  8
0
 10
 3.98046807003100E+0002
 20
 8.67259424436800E+0002
 11
 4.01531301171200E+0002
 21
 8.76425412793600E+0002
  0
LINE
  8
0
 10
 4.01531301171200E+0002
 20
 8.76425412793600E+0002
 11
 4.04977152262500E+0002
 21
 8.85639954600000E+0002
  0
LINE
  8
0
 10
 4.04977152262500E+0002
 20
 8.85639954600000E+0002
 11
 4.08381627200800E+0002
 21
 8.94906430822400E+0002
  0
LINE
  8
0
 10
 4.08381627200800E+0002
 20
 8.94906430822400E+0002
 11
 4.11741992909900E+0002
 21
 9.04228222427200E+0002
  0
LINE
  8
0
 10
 4.11741992909900E+0002
 20
 9.04228222427200E+0002
 11
 4.15055516313600E+0002
 21
 9.13608710380800E+0002
  0
LINE
  8
0
 10
 4.15055516313600E+0002
 20
 9.13608710380800E+0002
 11
 4.18319464335700E+0002
 21
 9.23051275649600E+0002
  0
LINE
  8
0
 10
 4.18319464335700E+0002
 20
 9.23051275649600E+0002
 11
 4.21531103900000E+0002
 21
 9.32559299200000E+0002
  0
LINE
  8
0
 10
 4.21531103900000E+0002
 20
 9.32559299200000E+0002
 11
 4.24687701930300E+0002
 21
 9.42136161998400E+0002
  0
LINE
  8
0
 10
 4.24687701930300E+0002
 20
 9.42136161998400E+0002
 11
 4.27786525350400E+0002
 21
 9.51785245011200E+0002
  0
LINE
  8
0
 10
 4.27786525350400E+0002
 20
 9.51785245011200E+0002
 11
 4.30824841084100E+0002
 21
 9.61509929204800E+0002
  0
LINE
  8
0
 10
 4.30824841084100E+0002
 20
 9.61509929204800E+0002
 11
 4.33799916055200E+0002
 21
 9.71313595545600E+0002
  0
LINE
  8
0
 10
 4.33799916055200E+0002
 20
 9.71313595545600E+0002
 11
 4.36709017187500E+0002
 21
 9.81199625000000E+0002
  0
LINE
  8
0
 10
 4.36709017187500E+0002
 20
 9.81199625000000E+0002
 11
 4.39549411404800E+0002
 21
 9.91171398534400E+0002
  0
LINE
  8
0
 10
 4.39549411404800E+0002
 20
 9.91171398534400E+0002
 11
 4.42318365630900E+0002
 21
 1.00123229711520E+0003
  0
LINE
  8
0
 10
 4.42318365630900E+0002
 20
 1.00123229711520E+0003
 11
 4.45013146789600E+0002
 21
 1.01138570170880E+0003
  0
LINE
  8
0
 10
 4.45013146789600E+0002
 20
 1.01138570170880E+0003
 11
 4.47631021804700E+0002
 21
 1.02163499328160E+0003
  0
LINE
  8
0
 10
 4.47631021804700E+0002
 20
 1.02163499328160E+0003
 11
 4.50169257600000E+0002
 21
 1.03198355280000E+0003
  0
LINE
  8
0
 10
 4.50169257600000E+0002
 20
 1.03198355280000E+0003
 11
 4.52625121099300E+0002
 21
 1.04243476123040E+0003
  0
LINE
  8
0
 10
 4.52625121099300E+0002
 20
 1.04243476123040E+0003
 11
 4.54995879226400E+0002
 21
 1.05299199953920E+0003
  0
LINE
  8
0
 10
 4.54995879226400E+0002
 20
 1.05299199953920E+0003
 11
 4.57278798905100E+0002
 21
 1.06365864869280E+0003
  0
LINE
  8
0
 10
 4.57278798905100E+0002
 20
 1.06365864869280E+0003
 11
 4.59471147059200E+0002
 21
 1.07443808965760E+0003
  0
LINE
  8
0
 10
 4.59471147059200E+0002
 20
 1.07443808965760E+0003
 11
 4.61570190612500E+0002
 21
 1.08533370340000E+0003
  0
LINE
  8
0
 10
 4.61570190612500E+0002
 20
 1.08533370340000E+0003
 11
 4.63573196488800E+0002
 21
 1.09634887088640E+0003
  0
LINE
  8
0
 10
 4.63573196488800E+0002
 20
 1.09634887088640E+0003
 11
 4.65477431611900E+0002
 21
 1.10748697308320E+0003
  0
LINE
  8
0
 10
 4.65477431611900E+0002
 20
 1.10748697308320E+0003
 11
 4.67280162905600E+0002
 21
 1.11875139095680E+0003
  0
LINE
  8
0
 10
 4.67280162905600E+0002
 20
 1.11875139095680E+0003
 11
 4.68978657293700E+0002
 21
 1.13014550547360E+0003
  0
LINE
  8
0
 10
 4.68978657293700E+0002
 20
 1.13014550547360E+0003
 11
 4.70570181700000E+0002
 21
 1.14167269760000E+0003
  0
LINE
  8
0
 10
 4.70570181700000E+0002
 20
 1.14167269760000E+0003
 11
 4.72052003048300E+0002
 21
 1.15333634830240E+0003
  0
LINE
  8
0
 10
 4.72052003048300E+0002
 20
 1.15333634830240E+0003
 11
 4.73421388262400E+0002
 21
 1.16513983854720E+0003
  0
LINE
  8
0
 10
 4.73421388262400E+0002
 20
 1.16513983854720E+0003
 11
 4.74675604266100E+0002
 21
 1.17708654930080E+0003
  0
LINE
  8
0
 10
 4.74675604266100E+0002
 20
 1.17708654930080E+0003
 11
 4.75811917983200E+0002
 21
 1.18917986152960E+0003
  0
LINE
  8
0
 10
 4.75811917983200E+0002
 20
 1.18917986152960E+0003
 11
 4.76827596337500E+0002
 21
 1.20142315620000E+0003
  0
LINE
  8
0
 10
 4.76827596337500E+0002
 20
 1.20142315620000E+0003
 11
 4.77719906252800E+0002
 21
 1.21381981427840E+0003
  0
LINE
  8
0
 10
 4.77719906252800E+0002
 20
 1.21381981427840E+0003
 11
 4.78486114652900E+0002
 21
 1.22637321673120E+0003
  0
LINE
  8
0
 10
 4.78486114652900E+0002
 20
 1.22637321673120E+0003
 11
 4.79123488461600E+0002
 21
 1.23908674452480E+0003
  0
LINE
  8
0
 10
 4.79123488461600E+0002
 20
 1.23908674452480E+0003
 11
 4.79629294602700E+0002
 21
 1.25196377862560E+0003
  0
LINE
  8
0
 10
 4.79629294602700E+0002
 20
 1.25196377862560E+0003
 11
 4.80000800000000E+0002
 21
 1.26500770000000E+0003
  0
LINE
  8
0
 10
 4.80000800000000E+0002
 20
 1.26500770000000E+0003
 11
 4.80001000000000E+0002
 21
 1.30699250000000E+0003
  0
LINE
  8
0
 10
 4.80001000000000E+0002
 20
 1.30699250000000E+0003
 11
 5.24997467680775E+0002
 21
 1.29538170409776E+0003
  0
ARC
  8
0
 10
 5.28000000000000E+0002
 20
 1.30700000000000E+0003
 40
 1.20000000000000E+0001
 50
 2.55510000000000E+0002
 51
 3.93600000000000E+0002
  0
LINE
  8
0
 10
 5.37995054888521E+0002
 20
 1.31364069859092E+0003
 11
 4.50001000000000E+0002
 21
 1.44500000000000E+0003
  0
LINE
  8
0
 10
 4.50001000000000E+0002
 20
 1.44500000000000E+0003
 11
 3.62011904713912E+0002
 21
 1.31365116174484E+0003
  0
ARC
  8
0
 10
 3.72000000000000E+0002
 20
 1.30700000000000E+0003
 40
 1.20000000000000E+0001
 50
 1.46340000000000E+0002
 51
 2.84365000000000E+0002
  0
LINE
  8
0
 10
 3.74977178004217E+0002
 20
 1.29537518124308E+0003
 11
 3.75002000000000E+0002
 21
 1.29537550000000E+0003
  0
LINE
  8
0
 10
 6.35002000000000E+0002
 20
 1.29537550000000E+0003
 11
 6.80000000000000E+0002
 21
 1.30699250000000E+0003
  0
LINE
  8
0
 10
 6.80000000000000E+0002
 20
 1.30699250000000E+0003
 11
 6.80000000000000E+0002
 21
 1.26499680000000E+0003
  0
LINE
  8
0
 10
 6.80000000000000E+0002
 20
 1.26499680000000E+0003
 11
 6.79628506750700E+0002
 21
 1.25195320236650E+0003
  0
LINE
  8
0
 10
 6.79628506750700E+0002
 20
 1.25195320236650E+0003
 11
 6.79122713045600E+0002
 21
 1.23907648553200E+0003
  0
LINE
  8
0
 10
 6.79122713045600E+0002
 20
 1.23907648553200E+0003
 11
 6.78485351948900E+0002
 21
 1.22636326859550E+0003
  0
LINE
  8
0
 10
 6.78485351948900E+0002
 20
 1.22636326859550E+0003
 11
 6.77719156524800E+0002
 21
 1.21381017065600E+0003
  0
LINE
  8
0
 10
 6.77719156524800E+0002
 20
 1.21381017065600E+0003
 11
 6.76826859837500E+0002
 21
 1.20141381081250E+0003
  0
LINE
  8
0
 10
 6.76826859837500E+0002
 20
 1.20141381081250E+0003
 11
 6.75811194951200E+0002
 21
 1.18917080816400E+0003
  0
LINE
  8
0
 10
 6.75811194951200E+0002
 20
 1.18917080816400E+0003
 11
 6.74674894930100E+0002
 21
 1.17707778180950E+0003
  0
LINE
  8
0
 10
 6.74674894930100E+0002
 20
 1.17707778180950E+0003
 11
 6.73420692838400E+0002
 21
 1.16513135084800E+0003
  0
LINE
  8
0
 10
 6.73420692838400E+0002
 20
 1.16513135084800E+0003
 11
 6.72051321740300E+0002
 21
 1.15332813437850E+0003
  0
LINE
  8
0
 10
 6.72051321740300E+0002
 20
 1.15332813437850E+0003
 11
 6.70569514700000E+0002
 21
 1.14166475150000E+0003
  0
LINE
  8
0
 10
 6.70569514700000E+0002
 20
 1.14166475150000E+0003
 11
 6.68978004781700E+0002
 21
 1.13013782131150E+0003
  0
LINE
  8
0
 10
 6.68978004781700E+0002
 20
 1.13013782131150E+0003
 11
 6.67279525049600E+0002
 21
 1.11874396291200E+0003
  0
LINE
  8
0
 10
 6.67279525049600E+0002
 20
 1.11874396291200E+0003
 11
 6.65476808567900E+0002
 21
 1.10747979540050E+0003
  0
LINE
  8
0
 10
 6.65476808567900E+0002
 20
 1.10747979540050E+0003
 11
 6.63572588400800E+0002
 21
 1.09634193787600E+0003
  0
LINE
  8
0
 10
 6.63572588400800E+0002
 20
 1.09634193787600E+0003
 11
 6.61569597612500E+0002
 21
 1.08532700943750E+0003
  0
LINE
  8
0
 10
 6.61569597612500E+0002
 20
 1.08532700943750E+0003
 11
 6.59470569267200E+0002
 21
 1.07443162918400E+0003
  0
LINE
  8
0
 10
 6.59470569267200E+0002
 20
 1.07443162918400E+0003
 11
 6.57278236429100E+0002
 21
 1.06365241621450E+0003
  0
LINE
  8
0
 10
 6.57278236429100E+0002
 20
 1.06365241621450E+0003
 11
 6.54995332162400E+0002
 21
 1.05298598962800E+0003
  0
LINE
  8
0
 10
 6.54995332162400E+0002
 20
 1.05298598962800E+0003
 11
 6.52624589531300E+0002
 21
 1.04242896852350E+0003
  0
LINE
  8
0
 10
 6.52624589531300E+0002
 20
 1.04242896852350E+0003
 11
 6.50168741600000E+0002
 21
 1.03197797200000E+0003
  0
LINE
  8
0
 10
 6.50168741600000E+0002
 20
 1.03197797200000E+0003
 11
 6.47630521432700E+0002
 21
 1.02162961915650E+0003
  0
LINE
  8
0
 10
 6.47630521432700E+0002
 20
 1.02162961915650E+0003
 11
 6.45012662093600E+0002
 21
 1.01138052909200E+0003
  0
LINE
  8
0
 10
 6.45012662093600E+0002
 20
 1.01138052909200E+0003
 11
 6.42317896646900E+0002
 21
 1.00122732090550E+0003
  0
LINE
  8
0
 10
 6.42317896646900E+0002
 20
 1.00122732090550E+0003
 11
 6.39548958156800E+0002
 21
 9.91166613696000E+0002
  0
LINE
  8
0
 10
 6.39548958156800E+0002
 20
 9.91166613696000E+0002
 11
 6.36708579687500E+0002
 21
 9.81195026562500E+0002
  0
LINE
  8
0
 10
 6.36708579687500E+0002
 20
 9.81195026562500E+0002
 11
 6.33799494303200E+0002
 21
 9.71309178604000E+0002
  0
LINE
  8
0
 10
 6.33799494303200E+0002
 20
 9.71309178604000E+0002
 11
 6.30824435068100E+0002
 21
 9.61505688919500E+0002
  0
LINE
  8
0
 10
 6.30824435068100E+0002
 20
 9.61505688919500E+0002
 11
 6.27786135046400E+0002
 21
 9.51781176608000E+0002
  0
LINE
  8
0
 10
 6.27786135046400E+0002
 20
 9.51781176608000E+0002
 11
 6.24687327302300E+0002
 21
 9.42132260768500E+0002
  0
LINE
  8
0
 10
 6.24687327302300E+0002
 20
 9.42132260768500E+0002
 11
 6.21530744900000E+0002
 21
 9.32555560500000E+0002
  0
LINE
  8
0
 10
 6.21530744900000E+0002
 20
 9.32555560500000E+0002
 11
 6.18319120903700E+0002
 21
 9.23047694901500E+0002
  0
LINE
  8
0
 10
 6.18319120903700E+0002
 20
 9.23047694901500E+0002
 11
 6.15055188377600E+0002
 21
 9.13605283072000E+0002
  0
LINE
  8
0
 10
 6.15055188377600E+0002
 20
 9.13605283072000E+0002
 11
 6.11741680385900E+0002
 21
 9.04224944110500E+0002
  0
LINE
  8
0
 10
 6.11741680385900E+0002
 20
 9.04224944110500E+0002
 11
 6.08381329992800E+0002
 21
 8.94903297116000E+0002
  0
LINE
  8
0
 10
 6.08381329992800E+0002
 20
 8.94903297116000E+0002
 11
 6.04976870262500E+0002
 21
 8.85636961187500E+0002
  0
LINE
  8
0
 10
 6.04976870262500E+0002
 20
 8.85636961187500E+0002
 11
 6.01531034259200E+0002
 21
 8.76422555424000E+0002
  0
LINE
  8
0
 10
 6.01531034259200E+0002
 20
 8.76422555424000E+0002
 11
 5.98046555047100E+0002
 21
 8.67256698924500E+0002
  0
LINE
  8
0
 10
 5.98046555047100E+0002
 20
 8.67256698924500E+0002
 11
 5.94526165690400E+0002
 21
 8.58136010788000E+0002
  0
LINE
  8
0
 10
 5.94526165690400E+0002
 20
 8.58136010788000E+0002
 11
 5.90972599253300E+0002
 21
 8.49057110113500E+0002
  0
LINE
  8
0
 10
 5.90972599253300E+0002
 20
 8.49057110113500E+0002
 11
 5.87388588800000E+0002
 21
 8.40016616000000E+0002
  0
LINE
  8
0
 10
 5.87388588800000E+0002
 20
 8.40016616000000E+0002
 11
 5.83776867394700E+0002
 21
 8.31011147546500E+0002
  0
LINE
  8
0
 10
 5.83776867394700E+0002
 20
 8.31011147546500E+0002
 11
 5.80140168101600E+0002
 21
 8.22037323852000E+0002
  0
LINE
  8
0
 10
 5.80140168101600E+0002
 20
 8.22037323852000E+0002
 11
 5.76481223984900E+0002
 21
 8.13091764015500E+0002
  0
LINE
  8
0
 10
 5.76481223984900E+0002
 20
 8.13091764015500E+0002
 11
 5.72802768108800E+0002
 21
 8.04171087136000E+0002
  0
LINE
  8
0
 10
 5.72802768108800E+0002
 20
 8.04171087136000E+0002
 11
 5.69107533537500E+0002
 21
 7.95271912312500E+0002
  0
LINE
  8
0
 10
 5.69107533537500E+0002
 20
 7.95271912312500E+0002
 11
 5.65398253335200E+0002
 21
 7.86390858644000E+0002
  0
LINE
  8
0
 10
 5.65398253335200E+0002
 20
 7.86390858644000E+0002
 11
 5.61677660566100E+0002
 21
 7.77524545229500E+0002
  0
LINE
  8
0
 10
 5.61677660566100E+0002
 20
 7.77524545229500E+0002
 11
 5.57948488294400E+0002
 21
 7.68669591168000E+0002
  0
LINE
  8
0
 10
 5.57948488294400E+0002
 20
 7.68669591168000E+0002
 11
 5.54213469584300E+0002
 21
 7.59822615558500E+0002
  0
LINE
  8
0
 10
 5.54213469584300E+0002
 20
 7.59822615558500E+0002
 11
 5.50475337500000E+0002
 21
 7.50980237500000E+0002
  0
LINE
  8
0
 10
 5.50475337500000E+0002
 20
 7.50980237500000E+0002
 11
 5.46736825105700E+0002
 21
 7.42139076091500E+0002
  0
LINE
  8
0
 10
 5.46736825105700E+0002
 20
 7.42139076091500E+0002
 11
 5.43000665465600E+0002
 21
 7.33295750432000E+0002
  0
LINE
  8
0
 10
 5.43000665465600E+0002
 20
 7.33295750432000E+0002
 11
 5.39269591643900E+0002
 21
 7.24446879620500E+0002
  0
LINE
  8
0
 10
 5.39269591643900E+0002
 20
 7.24446879620500E+0002
 11
 5.35546336704800E+0002
 21
 7.15589082756000E+0002
  0
LINE
  8
0
 10
 5.35546336704800E+0002
 20
 7.15589082756000E+0002
 11
 5.31833633712500E+0002
 21
 7.06718978937500E+0002
  0
LINE
  8
0
 10
 5.31833633712500E+0002
 20
 7.06718978937500E+0002
 11
 5.28134215731200E+0002
 21
 6.97833187264000E+0002
  0
LINE
  8
0
 10
 5.28134215731200E+0002
 20
 6.97833187264000E+0002
 11
 5.24450815825100E+0002
 21
 6.88928326834500E+0002
  0
LINE
  8
0
 10
 5.24450815825100E+0002
 20
 6.88928326834500E+0002
 11
 5.20786167058400E+0002
 21
 6.80001016748000E+0002
  0
LINE
  8
0
 10
 5.20786167058400E+0002
 20
 6.80001016748000E+0002
 11
 5.17143002495300E+0002
 21
 6.71047876103500E+0002
  0
LINE
  8
0
 10
 5.17143002495300E+0002
 20
 6.71047876103500E+0002
 11
 5.13524055200000E+0002
 21
 6.62065524000000E+0002
  0
LINE
  8
0
 10
 5.13524055200000E+0002
 20
 6.62065524000000E+0002
 11
 5.09932058236700E+0002
 21
 6.53050579536500E+0002
  0
LINE
  8
0
 10
 5.09932058236700E+0002
 20
 6.53050579536500E+0002
 11
 5.06369744669600E+0002
 21
 6.43999661812000E+0002
  0
LINE
  8
0
 10
 5.06369744669600E+0002
 20
 6.43999661812000E+0002
 11
 5.02839847562900E+0002
 21
 6.34909389925500E+0002
  0
LINE
  8
0
 10
 5.02839847562900E+0002
 20
 6.34909389925500E+0002
 11
 4.99345099980800E+0002
 21
 6.25776382976000E+0002
  0
LINE
  8
0
 10
 4.99345099980800E+0002
 20
 6.25776382976000E+0002
 11
 4.95888234987500E+0002
 21
 6.16597260062500E+0002
  0
LINE
  8
0
 10
 4.95888234987500E+0002
 20
 6.16597260062500E+0002
 11
 4.92471985647200E+0002
 21
 6.07368640284000E+0002
  0
LINE
  8
0
 10
 4.92471985647200E+0002
 20
 6.07368640284000E+0002
 11
 4.89099085024100E+0002
 21
 5.98087142739500E+0002
  0
LINE
  8
0
 10
 4.89099085024100E+0002
 20
 5.98087142739500E+0002
 11
 4.85772266182400E+0002
 21
 5.88749386528000E+0002
  0
LINE
  8
0
 10
 4.85772266182400E+0002
 20
 5.88749386528000E+0002
 11
 4.82494262186300E+0002
 21
 5.79351990748500E+0002
  0
LINE
  8
0
 10
 4.82494262186300E+0002
 20
 5.79351990748500E+0002
 11
 4.79267806100000E+0002
 21
 5.69891574500000E+0002
  0
LINE
  8
0
 10
 4.79267806100000E+0002
 20
 5.69891574500000E+0002
 11
 4.76095630987700E+0002
 21
 5.60364756881500E+0002
  0
LINE
  8
0
 10
 4.76095630987700E+0002
 20
 5.60364756881500E+0002
 11
 4.72980469913600E+0002
 21
 5.50768156992000E+0002
  0
LINE
  8
0
 10
 4.72980469913600E+0002
 20
 5.50768156992000E+0002
 11
 4.69925055941900E+0002
 21
 5.41098393930500E+0002
  0
LINE
  8
0
 10
 4.69925055941900E+0002
 20
 5.41098393930500E+0002
 11
 4.66932122136800E+0002
 21
 5.31352086796000E+0002
  0
LINE
  8
0
 10
 4.66932122136800E+0002
 20
 5.31352086796000E+0002
 11
 4.64004401562500E+0002
 21
 5.21525854687500E+0002
  0
LINE
  8
0
 10
 4.64004401562500E+0002
 20
 5.21525854687500E+0002
 11
 4.61144627283200E+0002
 21
 5.11616316704000E+0002
  0
LINE
  8
0
 10
 4.61144627283200E+0002
 20
 5.11616316704000E+0002
 11
 4.58355532363100E+0002
 21
 5.01620091944500E+0002
  0
LINE
  8
0
 10
 4.58355532363100E+0002
 20
 5.01620091944500E+0002
 11
 4.55639849866400E+0002
 21
 4.91533799508000E+0002
  0
LINE
  8
0
 10
 4.55639849866400E+0002
 20
 4.91533799508000E+0002
 11
 4.53000312857300E+0002
 21
 4.81354058493500E+0002
  0
LINE
  8
0
 10
 4.53000312857300E+0002
 20
 4.81354058493500E+0002
 11
 4.50439654400000E+0002
 21
 4.71077488000000E+0002
  0
LINE
  8
0
 10
 4.50439654400000E+0002
 20
 4.71077488000000E+0002
 11
 4.47960607558700E+0002
 21
 4.60700707126500E+0002
  0
LINE
  8
0
 10
 4.47960607558700E+0002
 20
 4.60700707126500E+0002
 11
 4.45565905397600E+0002
 21
 4.50220334972000E+0002
  0
LINE
  8
0
 10
 4.45565905397600E+0002
 20
 4.50220334972000E+0002
 11
 4.43258280980900E+0002
 21
 4.39632990635500E+0002
  0
LINE
  8
0
 10
 4.43258280980900E+0002
 20
 4.39632990635500E+0002
 11
 4.41040467372800E+0002
 21
 4.28935293216000E+0002
  0
LINE
  8
0
 10
 4.41040467372800E+0002
 20
 4.28935293216000E+0002
 11
 4.38915197637500E+0002
 21
 4.18123861812500E+0002
  0
LINE
  8
0
 10
 4.38915197637500E+0002
 20
 4.18123861812500E+0002
 11
 4.36885204839200E+0002
 21
 4.07195315524000E+0002
  0
LINE
  8
0
 10
 4.36885204839200E+0002
 20
 4.07195315524000E+0002
 11
 4.34953222042100E+0002
 21
 3.96146273449500E+0002
  0
LINE
  8
0
 10
 4.34953222042100E+0002
 20
 3.96146273449500E+0002
 11
 4.33121982310400E+0002
 21
 3.84973354688000E+0002
  0
LINE
  8
0
 10
 4.33121982310400E+0002
 20
 3.84973354688000E+0002
 11
 4.31394218708300E+0002
 21
 3.73673178338500E+0002
  0
LINE
  8
0
 10
 4.31394218708300E+0002
 20
 3.73673178338500E+0002
 11
 4.29772664300000E+0002
 21
 3.62242363500000E+0002
  0
LINE
  8
0
 10
 4.29772664300000E+0002
 20
 3.62242363500000E+0002
 11
 4.28260052149700E+0002
 21
 3.50677529271500E+0002
  0
LINE
  8
0
 10
 4.28260052149700E+0002
 20
 3.50677529271500E+0002
 11
 4.26859115321600E+0002
 21
 3.38975294752000E+0002
  0
LINE
  8
0
 10
 4.26859115321600E+0002
 20
 3.38975294752000E+0002
 11
 4.25572586879900E+0002
 21
 3.27132279040500E+0002
  0
LINE
  8
0
 10
 4.25572586879900E+0002
 20
 3.27132279040500E+0002
 11
 4.24403199888800E+0002
 21
 3.15145101236000E+0002
  0
LINE
  8
0
 10
 4.24403199888800E+0002
 20
 3.15145101236000E+0002
 11
 4.23353687412500E+0002
 21
 3.03010380437500E+0002
  0
LINE
  8
0
 10
 4.23353687412500E+0002
 20
 3.03010380437500E+0002
 11
 4.22426782515200E+0002
 21
 2.90724735744000E+0002
  0
LINE
  8
0
 10
 4.22426782515200E+0002
 20
 2.90724735744000E+0002
 11
 4.21625218261100E+0002
 21
 2.78284786254500E+0002
  0
LINE
  8
0
 10
 4.21625218261100E+0002
 20
 2.78284786254500E+0002
 11
 4.20951727714400E+0002
 21
 2.65687151068000E+0002
  0
LINE
  8
0
 10
 4.20951727714400E+0002
 20
 2.65687151068000E+0002
 11
 4.20409043939300E+0002
 21
 2.52928449283500E+0002
  0
LINE
  8
0
 10
 4.20409043939300E+0002
 20
 2.52928449283500E+0002
 11
 4.19999900000000E+0002
 21
 2.40005300000000E+0002
  0
LINE
  8
0
 10
 4.19999900000000E+0002
 20
 2.40005300000000E+0002
 11
 4.20000000000000E+0002
 21
 1.55000100000000E+0002
  0
LINE
  8
0
 10
 4.20000000000000E+0002
 20
 1.55000100000000E+0002
 11
 4.80000000000000E+0002
 21
 1.55000100000000E+0002
  0
LINE
  8
0
 10
 4.80000000000000E+0002
 20
 1.55000100000000E+0002
 11
 4.80000000000000E+0002
 21
 2.40005300000000E+0002
  0
LINE
  8
0
 10
 4.80000000000000E+0002
 20
 2.40005300000000E+0002
 11
 4.80409126387300E+0002
 21
 2.52928449294400E+0002
  0
LINE
  8
0
 10
 4.80409126387300E+0002
 20
 2.52928449294400E+0002
 11
 4.80951793498400E+0002
 21
 2.65687151155200E+0002
  0
LINE
  8
0
 10
 4.80951793498400E+0002
 20
 2.65687151155200E+0002
 11
 4.81625268257100E+0002
 21
 2.78284786548800E+0002
  0
LINE
  8
0
 10
 4.81625268257100E+0002
 20
 2.78284786548800E+0002
 11
 4.82426817587200E+0002
 21
 2.90724736441600E+0002
  0
LINE
  8
0
 10
 4.82426817587200E+0002
 20
 2.90724736441600E+0002
 11
 4.83353708412500E+0002
 21
 3.03010381800000E+0002
  0
LINE
  8
0
 10
 4.83353708412500E+0002
 20
 3.03010381800000E+0002
 11
 4.84403207656800E+0002
 21
 3.15145103590400E+0002
  0
LINE
  8
0
 10
 4.84403207656800E+0002
 20
 3.15145103590400E+0002
 11
 4.85572582243900E+0002
 21
 3.27132282779200E+0002
  0
LINE
  8
0
 10
 4.85572582243900E+0002
 20
 3.27132282779200E+0002
 11
 4.86859099097600E+0002
 21
 3.38975300332800E+0002
  0
LINE
  8
0
 10
 4.86859099097600E+0002
 20
 3.38975300332800E+0002
 11
 4.88260025141700E+0002
 21
 3.50677537217600E+0002
  0
LINE
  8
0
 10
 4.88260025141700E+0002
 20
 3.50677537217600E+0002
 11
 4.89772627300000E+0002
 21
 3.62242374400000E+0002
  0
LINE
  8
0
 10
 4.89772627300000E+0002
 20
 3.62242374400000E+0002
 11
 4.91394172496300E+0002
 21
 3.73673192846400E+0002
  0
LINE
  8
0
 10
 4.91394172496300E+0002
 20
 3.73673192846400E+0002
 11
 4.93121927654400E+0002
 21
 3.84973373523200E+0002
  0
LINE
  8
0
 10
 4.93121927654400E+0002
 20
 3.84973373523200E+0002
 11
 4.94953159698100E+0002
 21
 3.96146297396800E+0002
  0
LINE
  8
0
 10
 4.94953159698100E+0002
 20
 3.96146297396800E+0002
 11
 4.96885135551200E+0002
 21
 4.07195345433600E+0002
  0
LINE
  8
0
 10
 4.96885135551200E+0002
 20
 4.07195345433600E+0002
 11
 4.98915122137500E+0002
 21
 4.18123898600000E+0002
  0
LINE
  8
0
 10
 4.98915122137500E+0002
 20
 4.18123898600000E+0002
 11
 5.01040386380800E+0002
 21
 4.28935337862400E+0002
  0
LINE
  8
0
 10
 5.01040386380800E+0002
 20
 4.28935337862400E+0002
 11
 5.03258195204900E+0002
 21
 4.39633044187200E+0002
  0
LINE
  8
0
 10
 5.03258195204900E+0002
 20
 4.39633044187200E+0002
 11
 5.05565815533600E+0002
 21
 4.50220398540800E+0002
  0
LINE
  8
0
 10
 5.05565815533600E+0002
 20
 4.50220398540800E+0002
 11
 5.07960514290700E+0002
 21
 4.60700781889600E+0002
  0
LINE
  8
0
 10
 5.07960514290700E+0002
 20
 4.60700781889600E+0002
 11
 5.10439558400000E+0002
 21
 4.71077575200000E+0002
  0
LINE
  8
0
 10
 5.10439558400000E+0002
 20
 4.71077575200000E+0002
 11
 5.13000214785300E+0002
 21
 4.81354159438400E+0002
  0
LINE
  8
0
 10
 5.13000214785300E+0002
 20
 4.81354159438400E+0002
 11
 5.15639750370400E+0002
 21
 4.91533915571200E+0002
  0
LINE
  8
0
 10
 5.15639750370400E+0002
 20
 4.91533915571200E+0002
 11
 5.18355432079100E+0002
 21
 5.01620224564800E+0002
  0
LINE
  8
0
 10
 5.18355432079100E+0002
 20
 5.01620224564800E+0002
 11
 5.21144526835200E+0002
 21
 5.11616467385600E+0002
  0
LINE
  8
0
 10
 5.21144526835200E+0002
 20
 5.11616467385600E+0002
 11
 5.24004301562500E+0002
 21
 5.21526025000000E+0002
  0
LINE
  8
0
 10
 5.24004301562500E+0002
 20
 5.21526025000000E+0002
 11
 5.26932023184800E+0002
 21
 5.31352278374400E+0002
  0
LINE
  8
0
 10
 5.26932023184800E+0002
 20
 5.31352278374400E+0002
 11
 5.29924958625900E+0002
 21
 5.41098608475200E+0002
  0
LINE
  8
0
 10
 5.29924958625900E+0002
 20
 5.41098608475200E+0002
 11
 5.32980374809600E+0002
 21
 5.50768396268800E+0002
  0
LINE
  8
0
 10
 5.32980374809600E+0002
 20
 5.50768396268800E+0002
 11
 5.36095538659700E+0002
 21
 5.60365022721600E+0002
  0
LINE
  8
0
 10
 5.36095538659700E+0002
 20
 5.60365022721600E+0002
 11
 5.39267717100000E+0002
 21
 5.69891868800000E+0002
  0
LINE
  8
0
 10
 5.39267717100000E+0002
 20
 5.69891868800000E+0002
 11
 5.42494177054300E+0002
 21
 5.79352315470400E+0002
  0
LINE
  8
0
 10
 5.42494177054300E+0002
 20
 5.79352315470400E+0002
 11
 5.45772185446400E+0002
 21
 5.88749743699200E+0002
  0
LINE
  8
0
 10
 5.45772185446400E+0002
 20
 5.88749743699200E+0002
 11
 5.49099009200100E+0002
 21
 5.98087534452800E+0002
  0
LINE
  8
0
 10
 5.49099009200100E+0002
 20
 5.98087534452800E+0002
 11
 5.52471915239200E+0002
 21
 6.07369068697600E+0002
  0
LINE
  8
0
 10
 5.52471915239200E+0002
 20
 6.07369068697600E+0002
 11
 5.55888170487500E+0002
 21
 6.16597727400000E+0002
  0
LINE
  8
0
 10
 5.55888170487500E+0002
 20
 6.16597727400000E+0002
 11
 5.59345041868800E+0002
 21
 6.25776891526400E+0002
  0
LINE
  8
0
 10
 5.59345041868800E+0002
 20
 6.25776891526400E+0002
 11
 5.62839796306900E+0002
 21
 6.34909942043200E+0002
  0
LINE
  8
0
 10
 5.62839796306900E+0002
 20
 6.34909942043200E+0002
 11
 5.66369700725600E+0002
 21
 6.44000259916800E+0002
  0
LINE
  8
0
 10
 5.66369700725600E+0002
 20
 6.44000259916800E+0002
 11
 5.69932022048700E+0002
 21
 6.53051226113600E+0002
  0
LINE
  8
0
 10
 5.69932022048700E+0002
 20
 6.53051226113600E+0002
 11
 5.73524027200000E+0002
 21
 6.62066221600000E+0002
  0
LINE
  8
0
 10
 5.73524027200000E+0002
 20
 6.62066221600000E+0002
 11
 5.77142983103300E+0002
 21
 6.71048627342400E+0002
  0
LINE
  8
0
 10
 5.77142983103300E+0002
 20
 6.71048627342400E+0002
 11
 5.80786156682400E+0002
 21
 6.80001824307200E+0002
  0
LINE
  8
0
 10
 5.80786156682400E+0002
 20
 6.80001824307200E+0002
 11
 5.84450814861100E+0002
 21
 6.88929193460800E+0002
  0
LINE
  8
0
 10
 5.84450814861100E+0002
 20
 6.88929193460800E+0002
 11
 5.88134224563200E+0002
 21
 6.97834115769600E+0002
  0
LINE
  8
0
 10
 5.88134224563200E+0002
 20
 6.97834115769600E+0002
 11
 5.91833652712500E+0002
 21
 7.06719972200000E+0002
  0
LINE
  8
0
 10
 5.91833652712500E+0002
 20
 7.06719972200000E+0002
 11
 5.95546366232800E+0002
 21
 7.15590143718400E+0002
  0
LINE
  8
0
 10
 5.95546366232800E+0002
 20
 7.15590143718400E+0002
 11
 5.99269632047900E+0002
 21
 7.24448011291200E+0002
  0
LINE
  8
0
 10
 5.99269632047900E+0002
 20
 7.24448011291200E+0002
 11
 6.03000717081600E+0002
 21
 7.33296955884800E+0002
  0
LINE
  8
0
 10
 6.03000717081600E+0002
 20
 7.33296955884800E+0002
 11
 6.06736888257700E+0002
 21
 7.42140358465600E+0002
  0
LINE
  8
0
 10
 6.06736888257700E+0002
 20
 7.42140358465600E+0002
 11
 6.10475412500000E+0002
 21
 7.50981600000000E+0002
  0
LINE
  8
0
 10
 6.10475412500000E+0002
 20
 7.50981600000000E+0002
 11
 6.14213556732300E+0002
 21
 7.59824061454400E+0002
  0
LINE
  8
0
 10
 6.14213556732300E+0002
 20
 7.59824061454400E+0002
 11
 6.17948587878400E+0002
 21
 7.68671123795200E+0002
  0
LINE
  8
0
 10
 6.17948587878400E+0002
 20
 7.68671123795200E+0002
 11
 6.21677772862100E+0002
 21
 7.77526167988800E+0002
  0
LINE
  8
0
 10
 6.21677772862100E+0002
 20
 7.77526167988800E+0002
 11
 6.25398378607200E+0002
 21
 7.86392575001600E+0002
  0
LINE
  8
0
 10
 6.25398378607200E+0002
 20
 7.86392575001600E+0002
 11
 6.29107672037500E+0002
 21
 7.95273725800000E+0002
  0
LINE
  8
0
 10
 6.29107672037500E+0002
 20
 7.95273725800000E+0002
 11
 6.32802920076800E+0002
 21
 8.04173001350400E+0002
  0
LINE
  8
0
 10
 6.32802920076800E+0002
 20
 8.04173001350400E+0002
 11
 6.36481389648900E+0002
 21
 8.13093782619200E+0002
  0
LINE
  8
0
 10
 6.36481389648900E+0002
 20
 8.13093782619200E+0002
 11
 6.40140347677600E+0002
 21
 8.22039450572800E+0002
  0
LINE
  8
0
 10
 6.40140347677600E+0002
 20
 8.22039450572800E+0002
 11
 6.43777061086700E+0002
 21
 8.31013386177600E+0002
  0
LINE
  8
0
 10
 6.43777061086700E+0002
 20
 8.31013386177600E+0002
 11
 6.47388796800000E+0002
 21
 8.40018970400000E+0002
  0
LINE
  8
0
 10
 6.47388796800000E+0002
 20
 8.40018970400000E+0002
 11
 6.50972821741300E+0002
 21
 8.49059584206400E+0002
  0
LINE
  8
0
 10
 6.50972821741300E+0002
 20
 8.49059584206400E+0002
 11
 6.54526402834400E+0002
 21
 8.58138608563200E+0002
  0
LINE
  8
0
 10
 6.54526402834400E+0002
 20
 8.58138608563200E+0002
 11
 6.58046807003100E+0002
 21
 8.67259424436800E+0002
  0
LINE
  8
0
 10
 6.58046807003100E+0002
 20
 8.67259424436800E+0002
 11
 6.61531301171200E+0002
 21
 8.76425412793600E+0002
  0
LINE
  8
0
 10
 6.61531301171200E+0002
 20
 8.76425412793600E+0002
 11
 6.64977152262500E+0002
 21
 8.85639954600000E+0002
  0
LINE
  8
0
 10
 6.64977152262500E+0002
 20
 8.85639954600000E+0002
 11
 6.68381627200800E+0002
 21
 8.94906430822400E+0002
  0
LINE
  8
0
 10
 6.68381627200800E+0002
 20
 8.94906430822400E+0002
 11
 6.71741992909900E+0002
 21
 9.04228222427200E+0002
  0
LINE
  8
0
 10
 6.71741992909900E+0002
 20
 9.04228222427200E+0002
 11
 6.75055516313600E+0002
 21
 9.13608710380800E+0002
  0
LINE
  8
0
 10
 6.75055516313600E+0002
 20
 9.13608710380800E+0002
 11
 6.78319464335700E+0002
 21
 9.23051275649600E+0002
  0
LINE
  8
0
 10
 6.78319464335700E+0002
 20
 9.23051275649600E+0002
 11
 6.81531103900000E+0002
 21
 9.32559299200000E+0002
  0
LINE
  8
0
 10
 6.81531103900000E+0002
 20
 9.32559299200000E+0002
 11
 6.84687701930300E+0002
 21
 9.42136161998400E+0002
  0
LINE
  8
0
 10
 6.84687701930300E+0002
 20
 9.42136161998400E+0002
 11
 6.87786525350400E+0002
 21
 9.51785245011200E+0002
  0
LINE
  8
0
 10
 6.87786525350400E+0002
 20
 9.51785245011200E+0002
 11
 6.90824841084100E+0002
 21
 9.61509929204800E+0002
  0
LINE
  8
0
 10
 6.90824841084100E+0002
 20
 9.61509929204800E+0002
 11
 6.93799916055200E+0002
 21
 9.71313595545600E+0002
  0
LINE
  8
0
 10
 6.93799916055200E+0002
 20
 9.71313595545600E+0002
 11
 6.96709017187500E+0002
 21
 9.81199625000000E+0002
  0
LINE
  8
0
 10
 6.96709017187500E+0002
 20
 9.81199625000000E+0002
 11
 6.99549411404800E+0002
 21
 9.91171398534400E+0002
  0
LINE
  8
0
 10
 6.99549411404800E+0002
 20
 9.91171398534400E+0002
 11
 7.02318365630900E+0002
 21
 1.00123229711520E+0003
  0
LINE
  8
0
 10
 7.02318365630900E+0002
 20
 1.00123229711520E+0003
 11
 7.05013146789600E+0002
 21
 1.01138570170880E+0003
  0
LINE
  8
0
 10
 7.05013146789600E+0002
 20
 1.01138570170880E+0003
 11
 7.07631021804700E+0002
 21
 1.02163499328160E+0003
  0
LINE
  8
0
 10
 7.07631021804700E+0002
 20
 1.02163499328160E+0003
 11
 7.10169257600000E+0002
 21
 1.03198355280000E+0003
  0
LINE
  8
0
 10
 7.10169257600000E+0002
 20
 1.03198355280000E+0003
 11
 7.12625121099300E+0002
 21
 1.04243476123040E+0003
  0
LINE
  8
0
 10
 7.12625121099300E+0002
 20
 1.04243476123040E+0003
 11
 7.14995879226400E+0002
 21
 1.05299199953920E+0003
  0
LINE
  8
0
 10
 7.14995879226400E+0002
 20
 1.05299199953920E+0003
 11
 7.17278798905100E+0002
 21
 1.06365864869280E+0003
  0
LINE
  8
0
 10
 7.17278798905100E+0002
 20
 1.06365864869280E+0003
 11
 7.19471147059200E+0002
 21
 1.07443808965760E+0003
  0
LINE
  8
0
 10
 7.19471147059200E+0002
 20
 1.07443808965760E+0003
 11
 7.21570190612500E+0002
 21
 1.08533370340000E+0003
  0
LINE
  8
0
 10
 7.21570190612500E+0002
 20
 1.08533370340000E+0003
 11
 7.23573196488800E+0002
 21
 1.09634887088640E+0003
  0
LINE
  8
0
 10
 7.23573196488800E+0002
 20
 1.09634887088640E+0003
 11
 7.25477431611900E+0002
 21
 1.10748697308320E+0003
  0
LINE
  8
0
 10
 7.25477431611900E+0002
 20
 1.10748697308320E+0003
 11
 7.27280162905600E+0002
 21
 1.11875139095680E+0003
  0
LINE
  8
0
 10
 7.27280162905600E+0002
 20
 1.11875139095680E+0003
 11
 7.28978657293700E+0002
 21
 1.13014550547360E+0003
  0
LINE
  8
0
 10
 7.28978657293700E+0002
 20
 1.13014550547360E+0003
 11
 7.30570181700000E+0002
 21
 1.14167269760000E+0003
  0
LINE
  8
0
 10
 7.30570181700000E+0002
 20
 1.14167269760000E+0003
 11
 7.32052003048300E+0002
 21
 1.15333634830240E+0003
  0
LINE
  8
0
 10
 7.32052003048300E+0002
 20
 1.15333634830240E+0003
 11
 7.33421388262400E+0002
 21
 1.16513983854720E+0003
  0
LINE
  8
0
 10
 7.33421388262400E+0002
 20
 1.16513983854720E+0003
 11
 7.34675604266100E+0002
 21
 1.17708654930080E+0003
  0
LINE
  8
0
 10
 7.34675604266100E+0002
 20
 1.17708654930080E+0003
 11
 7.35811917983200E+0002
 21
 1.18917986152960E+0003
  0
LINE
  8
0
 10
 7.35811917983200E+0002
 20
 1.18917986152960E+0003
 11
 7.36827596337500E+0002
 21
 1.20142315620000E+0003
  0
LINE
  8
0
 10
 7.36827596337500E+0002
 20
 1.20142315620000E+0003
 11
 7.37719906252800E+0002
 21
 1.21381981427840E+0003
  0
LINE
  8
0
 10
 7.37719906252800E+0002
 20
 1.21381981427840E+0003
 11
 7.38486114652900E+0002
 21
 1.22637321673120E+0003
  0
LINE
  8
0
 10
 7.38486114652900E+0002
 20
 1.22637321673120E+0003
 11
 7.39123488461600E+0002
 21
 1.23908674452480E+0003
  0
LINE
  8
0
 10
 7.39123488461600E+0002
 20
 1.23908674452480E+0003
 11
 7.39629294602700E+0002
 21
 1.25196377862560E+0003
  0
LINE
  8
0
 10
 7.39629294602700E+0002
 20
 1.25196377862560E+0003
 11
 7.40000800000000E+0002
 21
 1.26500770000000E+0003
  0
LINE
  8
0
 10
 7.40000800000000E+0002
 20
 1.26500770000000E+0003
 11
 7.40001000000000E+0002
 21
 1.30699250000000E+0003
  0
LINE
  8
0
 10
 7.40001000000000E+0002
 20
 1.30699250000000E+0003
 11
 7.84997467680775E+0002
 21
 1.29538170409776E+0003
  0
ARC
  8
0
 10
 7.88000000000000E+0002
 20
 1.30700000000000E+0003
 40
 1.20000000000000E+0001
 50
 2.55510000000000E+0002
 51
 3.93600000000000E+0002
  0
LINE
  8
0
 10
 7.97995054888521E+0002
 20
 1.31364069859092E+0003
 11
 7.10001000000000E+0002
 21
 1.44500000000000E+0003
  0
LINE
  8
0
 10
 7.10001000000000E+0002
 20
 1.44500000000000E+0003
 11
 6.22011904713912E+0002
 21
 1.31375116174484E+0003
  0
ARC
  8
0
 10
 6.32000000000000E+0002
 20
 1.30710000000000E+0003
 40
 1.20000000000000E+0001
 50
 1.46340000000000E+0002
 51
 2.84365000000000E+0002
  0
LINE
  8
0
 10
 6.34977178004217E+0002
 20
 1.29547518124308E+0003
 11
 6.35002000000000E+0002
 21
 1.29537550000000E+0003
  0
LINE
  8
0
 10
 8.95002000000000E+0002
 20
 1.29537550000000E+0003
 11
 9.40000000000000E+0002
 21
 1.30699250000000E+0003
  0
LINE
  8
0
 10
 9.40000000000000E+0002
 20
 1.30699250000000E+0003
 11
 9.40000000000000E+0002
 21
 1.26499680000000E+0003
  0
LINE
  8
0
 10
 9.40000000000000E+0002
 20
 1.26499680000000E+0003
 11
 9.39628506750700E+0002
 21
 1.25195320236650E+0003
  0
LINE
  8
0
 10
 9.39628506750700E+0002
 20
 1.25195320236650E+0003
 11
 9.39122713045600E+0002
 21
 1.23907648553200E+0003
  0
LINE
  8
0
 10
 9.39122713045600E+0002
 20
 1.23907648553200E+0003
 11
 9.38485351948900E+0002
 21
 1.22636326859550E+0003
  0
LINE
  8
0
 10
 9.38485351948900E+0002
 20
 1.22636326859550E+0003
 11
 9.37719156524800E+0002
 21
 1.21381017065600E+0003
  0
LINE
  8
0
 10
 9.37719156524800E+0002
 20
 1.21381017065600E+0003
 11
 9.36826859837500E+0002
 21
 1.20141381081250E+0003
  0
LINE
  8
0
 10
 9.36826859837500E+0002
 20
 1.20141381081250E+0003
 11
 9.35811194951200E+0002
 21
 1.18917080816400E+0003
  0
LINE
  8
0
 10
 9.35811194951200E+0002
 20
 1.18917080816400E+0003
 11
 9.34674894930100E+0002
 21
 1.17707778180950E+0003
  0
LINE
  8
0
 10
 9.34674894930100E+0002
 20
 1.17707778180950E+0003
 11
 9.33420692838400E+0002
 21
 1.16513135084800E+0003
  0
LINE
  8
0
 10
 9.33420692838400E+0002
 20
 1.16513135084800E+0003
 11
 9.32051321740300E+0002
 21
 1.15332813437850E+0003
  0
LINE
  8
0
 10
 9.32051321740300E+0002
 20
 1.15332813437850E+0003
 11
 9.30569514700000E+0002
 21
 1.14166475150000E+0003
  0
LINE
  8
0
 10
 9.30569514700000E+0002
 20
 1.14166475150000E+0003
 11
 9.28978004781700E+0002
 21
 1.13013782131150E+0003
  0
LINE
  8
0
 10
 9.28978004781700E+0002
 20
 1.13013782131150E+0003
 11
 9.27279525049600E+0002
 21
 1.11874396291200E+0003
  0
LINE
  8
0
 10
 9.27279525049600E+0002
 20
 1.11874396291200E+0003
 11
 9.25476808567900E+0002
 21
 1.10747979540050E+0003
  0
LINE
  8
0
 10
 9.25476808567900E+0002
 20
 1.10747979540050E+0003
 11
 9.23572588400800E+0002
 21
 1.09634193787600E+0003
  0
LINE
  8
0
 10
 9.23572588400800E+0002
 20
 1.09634193787600E+0003
 11
 9.21569597612500E+0002
 21
 1.08532700943750E+0003
  0
LINE
  8
0
 10
 9.21569597612500E+0002
 20
 1.08532700943750E+0003
 11
 9.19470569267200E+0002
 21
 1.07443162918400E+0003
  0
LINE
  8
0
 10
 9.19470569267200E+0002
 20
 1.07443162918400E+0003
 11
 9.17278236429100E+0002
 21
 1.06365241621450E+0003
  0
LINE
  8
0
 10
 9.17278236429100E+0002
 20
 1.06365241621450E+0003
 11
 9.14995332162400E+0002
 21
 1.05298598962800E+0003
  0
LINE
  8
0
 10
 9.14995332162400E+0002
 20
 1.05298598962800E+0003
 11
 9.12624589531300E+0002
 21
 1.04242896852350E+0003
  0
LINE
  8
0
 10
 9.12624589531300E+0002
 20
 1.04242896852350E+0003
 11
 9.10168741600000E+0002
 21
 1.03197797200000E+0003
  0
LINE
  8
0
 10
 9.10168741600000E+0002
 20
 1.03197797200000E+0003
 11
 9.07630521432700E+0002
 21
 1.02162961915650E+0003
  0
LINE
  8
0
 10
 9.07630521432700E+0002
 20
 1.02162961915650E+0003
 11
 9.05012662093600E+0002
 21
 1.01138052909200E+0003
  0
LINE
  8
0
 10
 9.05012662093600E+0002
 20
 1.01138052909200E+0003
 11
 9.02317896646900E+0002
 21
 1.00122732090550E+0003
  0
LINE
  8
0
 10
 9.02317896646900E+0002
 20
 1.00122732090550E+0003
 11
 8.99548958156800E+0002
 21
 9.91166613696000E+0002
  0
LINE
  8
0
 10
 8.99548958156800E+0002
 20
 9.91166613696000E+0002
 11
 8.96708579687500E+0002
 21
 9.81195026562500E+0002
  0
LINE
  8
0
 10
 8.96708579687500E+0002
 20
 9.81195026562500E+0002
 11
 8.93799494303200E+0002
 21
 9.71309178604000E+0002
  0
LINE
  8
0
 10
 8.93799494303200E+0002
 20
 9.71309178604000E+0002
 11
 8.90824435068100E+0002
 21
 9.61505688919500E+0002
  0
LINE
  8
0
 10
 8.90824435068100E+0002
 20
 9.61505688919500E+0002
 11
 8.87786135046400E+0002
 21
 9.51781176608000E+0002
  0
LINE
  8
0
 10
 8.87786135046400E+0002
 20
 9.51781176608000E+0002
 11
 8.84687327302300E+0002
 21
 9.42132260768500E+0002
  0
LINE
  8
0
 10
 8.84687327302300E+0002
 20
 9.42132260768500E+0002
 11
 8.81530744900000E+0002
 21
 9.32555560500000E+0002
  0
LINE
  8
0
 10
 8.81530744900000E+0002
 20
 9.32555560500000E+0002
 11
 8.78319120903700E+0002
 21
 9.23047694901500E+0002
  0
LINE
  8
0
 10
 8.78319120903700E+0002
 20
 9.23047694901500E+0002
 11
 8.75055188377600E+0002
 21
 9.13605283072000E+0002
  0
LINE
  8
0
 10
 8.75055188377600E+0002
 20
 9.13605283072000E+0002
 11
 8.71741680385900E+0002
 21
 9.04224944110500E+0002
  0
LINE
  8
0
 10
 8.71741680385900E+0002
 20
 9.04224944110500E+0002
 11
 8.68381329992800E+0002
 21
 8.94903297116000E+0002
  0
LINE
  8
0
 10
 8.68381329992800E+0002
 20
 8.94903297116000E+0002
 11
 8.64976870262500E+0002
 21
 8.85636961187500E+0002
  0
LINE
  8
0
 10
 8.64976870262500E+0002
 20
 8.85636961187500E+0002
 11
 8.61531034259200E+0002
 21
 8.76422555424000E+0002
  0
LINE
  8
0
 10
 8.61531034259200E+0002
 20
 8.76422555424000E+0002
 11
 8.58046555047100E+0002
 21
 8.67256698924500E+0002
  0
LINE
  8
0
 10
 8.58046555047100E+0002
 20
 8.67256698924500E+0002
 11
 8.54526165690400E+0002
 21
 8.58136010788000E+0002
  0
LINE
  8
0
 10
 8.54526165690400E+0002
 20
 8.58136010788000E+0002
 11
 8.50972599253300E+0002
 21
 8.49057110113500E+0002
  0
LINE
  8
0
 10
 8.50972599253300E+0002
 20
 8.49057110113500E+0002
 11
 8.47388588800000E+0002
 21
 8.40016616000000E+0002
  0
LINE
  8
0
 10
 8.47388588800000E+0002
 20
 8.40016616000000E+0002
 11
 8.43776867394700E+0002
 21
 8.31011147546500E+0002
  0
LINE
  8
0
 10
 8.43776867394700E+0002
 20
 8.31011147546500E+0002
 11
 8.40140168101600E+0002
 21
 8.22037323852000E+0002
  0
LINE
  8
0
 10
 8.40140168101600E+0002
 20
 8.22037323852000E+0002
 11
 8.36481223984900E+0002
 21
 8.13091764015500E+0002
  0
LINE
  8
0
 10
 8.36481223984900E+0002
 20
 8.13091764015500E+0002
 11
 8.32802768108800E+0002
 21
 8.04171087136000E+0002
  0
LINE
  8
0
 10
 8.32802768108800E+0002
 20
 8.04171087136000E+0002
 11
 8.29107533537500E+0002
 21
 7.95271912312500E+0002
  0
LINE
  8
0
 10
 8.29107533537500E+0002
 20
 7.95271912312500E+0002
 11
 8.25398253335200E+0002
 21
 7.86390858644000E+0002
  0
LINE
  8
0
 10
 8.25398253335200E+0002
 20
 7.86390858644000E+0002
 11
 8.21677660566100E+0002
 21
 7.77524545229500E+0002
  0
LINE
  8
0
 10
 8.21677660566100E+0002
 20
 7.77524545229500E+0002
 11
 8.17948488294400E+0002
 21
 7.68669591168000E+0002
  0
LINE
  8
0
 10
 8.17948488294400E+0002
 20
 7.68669591168000E+0002
 11
 8.14213469584300E+0002
 21
 7.59822615558500E+0002
  0
LINE
  8
0
 10
 8.14213469584300E+0002
 20
 7.59822615558500E+0002
 11
 8.10475337500000E+0002
 21
 7.50980237500000E+0002
  0
LINE
  8
0
 10
 8.10475337500000E+0002
 20
 7.50980237500000E+0002
 11
 8.06736825105700E+0002
 21
 7.42139076091500E+0002
  0
LINE
  8
0
 10
 8.06736825105700E+0002
 20
 7.42139076091500E+0002
 11
 8.03000665465600E+0002
 21
 7.33295750432000E+0002
  0
LINE
  8
0
 10
 8.03000665465600E+0002
 20
 7.33295750432000E+0002
 11
 7.99269591643900E+0002
 21
 7.24446879620500E+0002
  0
LINE
  8
0
 10
 7.99269591643900E+0002
 20
 7.24446879620500E+0002
 11
 7.95546336704800E+0002
 21
 7.15589082756000E+0002
  0
LINE
  8
0
 10
 7.95546336704800E+0002
 20
 7.15589082756000E+0002
 11
 7.91833633712500E+0002
 21
 7.06718978937500E+0002
  0
LINE
  8
0
 10
 7.91833633712500E+0002
 20
 7.06718978937500E+0002
 11
 7.88134215731200E+0002
 21
 6.97833187264000E+0002
  0
LINE
  8
0
 10
 7.88134215731200E+0002
 20
 6.97833187264000E+0002
 11
 7.84450815825100E+0002
 21
 6.88928326834500E+0002
  0
LINE
  8
0
 10
 7.84450815825100E+0002
 20
 6.88928326834500E+0002
 11
 7.80786167058400E+0002
 21
 6.80001016748000E+0002
  0
LINE
  8
0
 10
 7.80786167058400E+0002
 20
 6.80001016748000E+0002
 11
 7.77143002495300E+0002
 21
 6.71047876103500E+0002
  0
LINE
  8
0
 10
 7.77143002495300E+0002
 20
 6.71047876103500E+0002
 11
 7.73524055200000E+0002
 21
 6.62065524000000E+0002
  0
LINE
  8
0
 10
 7.73524055200000E+0002
 20
 6.62065524000000E+0002
 11
 7.69932058236700E+0002
 21
 6.53050579536500E+0002
  0
LINE
  8
0
 10
 7.69932058236700E+0002
 20
 6.53050579536500E+0002
 11
 7.66369744669600E+0002
 21
 6.43999661812000E+0002
  0
LINE
  8
0
 10
 7.66369744669600E+0002
 20
 6.43999661812000E+0002
 11
 7.62839847562900E+0002
 21
 6.34909389925500E+0002
  0
LINE
  8
0
 10
 7.62839847562900E+0002
 20
 6.34909389925500E+0002
 11
 7.59345099980800E+0002
 21
 6.25776382976000E+0002
  0
LINE
  8
0
 10
 7.59345099980800E+0002
 20
 6.25776382976000E+0002
 11
 7.55888234987500E+0002
 21
 6.16597260062500E+0002
  0
LINE
  8
0
 10
 7.55888234987500E+0002
 20
 6.16597260062500E+0002
 11
 7.52471985647200E+0002
 21
 6.07368640284000E+0002
  0
LINE
  8
0
 10
 7.52471985647200E+0002
 20
 6.07368640284000E+0002
 11
 7.49099085024100E+0002
 21
 5.98087142739500E+0002
  0
LINE
  8
0
 10
 7.49099085024100E+0002
 20
 5.98087142739500E+0002
 11
 7.45772266182400E+0002
 21
 5.88749386528000E+0002
  0
LINE
  8
0
 10
 7.45772266182400E+0002
 20
 5.88749386528000E+0002
 11
 7.42494262186300E+0002
 21
 5.79351990748500E+0002
  0
LINE
  8
0
 10
 7.42494262186300E+0002
 20
 5.79351990748500E+0002
 11
 7.39267806100000E+0002
 21
 5.69891574500000E+0002
  0
LINE
  8
0
 10
 7.39267806100000E+0002
 20
 5.69891574500000E+0002
 11
 7.36095630987700E+0002
 21
 5.60364756881500E+0002
  0
LINE
  8
0
 10
 7.36095630987700E+0002
 20
 5.60364756881500E+0002
 11
 7.32980469913600E+0002
 21
 5.50768156992000E+0002
  0
LINE
  8
0
 10
 7.32980469913600E+0002
 20
 5.50768156992000E+0002
 11
 7.29925055941900E+0002
 21
 5.41098393930500E+0002
  0
LINE
  8
0
 10
 7.29925055941900E+0002
 20
 5.41098393930500E+0002
 11
 7.26932122136800E+0002
 21
 5.31352086796000E+0002
  0
LINE
  8
0
 10
 7.26932122136800E+0002
 20
 5.31352086796000E+0002
 11
 7.24004401562500E+0002
 21
 5.21525854687500E+0002
  0
LINE
  8
0
 10
 7.24004401562500E+0002
 20
 5.21525854687500E+0002
 11
 7.21144627283200E+0002
 21
 5.11616316704000E+0002
  0
LINE
  8
0
 10
 7.21144627283200E+0002
 20
 5.11616316704000E+0002
 11
 7.18355532363100E+0002
 21
 5.01620091944500E+0002
  0
LINE
  8
0
 10
 7.18355532363100E+0002
 20
 5.01620091944500E+0002
 11
 7.15639849866400E+0002
 21
 4.91533799508000E+0002
  0
LINE
  8
0
 10
 7.15639849866400E+0002
 20
 4.91533799508000E+0002
 11
 7.13000312857300E+0002
 21
 4.81354058493500E+0002
  0
LINE
  8
0
 10
 7.13000312857300E+0002
 20
 4.81354058493500E+0002
 11
 7.10439654400000E+0002
 21
 4.71077488000000E+0002
  0
LINE
  8
0
 10
 7.10439654400000E+0002
 20
 4.71077488000000E+0002
 11
 7.07960607558700E+0002
 21
 4.60700707126500E+0002
  0
LINE
  8
0
 10
 7.07960607558700E+0002
 20
 4.60700707126500E+0002
 11
 7.05565905397600E+0002
 21
 4.50220334972000E+0002
  0
LINE
  8
0
 10
 7.05565905397600E+0002
 20
 4.50220334972000E+0002
 11
 7.03258280980900E+0002
 21
 4.39632990635500E+0002
  0
LINE
  8
0
 10
 7.03258280980900E+0002
 20
 4.39632990635500E+0002
 11
 7.01040467372800E+0002
 21
 4.28935293216000E+0002
  0
LINE
  8
0
 10
 7.01040467372800E+0002
 20
 4.28935293216000E+0002
 11
 6.98915197637500E+0002
 21
 4.18123861812500E+0002
  0
LINE
  8
0
 10
 6.98915197637500E+0002
 20
 4.18123861812500E+0002
 11
 6.96885204839200E+0002
 21
 4.07195315524000E+0002
  0
LINE
  8
0
 10
 6.96885204839200E+0002
 20
 4.07195315524000E+0002
 11
 6.94953222042100E+0002
 21
 3.96146273449500E+0002
  0
LINE
  8
0
 10
 6.94953222042100E+0002
 20
 3.96146273449500E+0002
 11
 6.93121982310400E+0002
 21
 3.84973354688000E+0002
  0
LINE
  8
0
 10
 6.93121982310400E+0002
 20
 3.84973354688000E+0002
 11
 6.91394218708300E+0002
 21
 3.73673178338500E+0002
  0
LINE
  8
0
 10
 6.91394218708300E+0002
 20
 3.73673178338500E+0002
 11
 6.89772664300000E+0002
 21
 3.62242363500000E+0002
  0
LINE
  8
0
 10
 6.89772664300000E+0002
 20
 3.62242363500000E+0002
 11
 6.88260052149700E+0002
 21
 3.50677529271500E+0002
  0
LINE
  8
0
 10
 6.88260052149700E+0002
 20
 3.50677529271500E+0002
 11
 6.86859115321600E+0002
 21
 3.38975294752000E+0002
  0
LINE
  8
0
 10
 6.86859115321600E+0002
 20
 3.38975294752000E+0002
 11
 6.85572586879900E+0002
 21
 3.27132279040500E+0002
  0
LINE
  8
0
 10
 6.85572586879900E+0002
 20
 3.27132279040500E+0002
 11
 6.84403199888800E+0002
 21
 3.15145101236000E+0002
  0
LINE
  8
0
 10
 6.84403199888800E+0002
 20
 3.15145101236000E+0002
 11
 6.83353687412500E+0002
 21
 3.03010380437500E+0002
  0
LINE
  8
0
 10
 6.83353687412500E+0002
 20
 3.03010380437500E+0002
 11
 6.82426782515200E+0002
 21
 2.90724735744000E+0002
  0
LINE
  8
0
 10
 6.82426782515200E+0002
 20
 2.90724735744000E+0002
 11
 6.81625218261100E+0002
 21
 2.78284786254500E+0002
  0
LINE
  8
0
 10
 6.81625218261100E+0002
 20
 2.78284786254500E+0002
 11
 6.80951727714400E+0002
 21
 2.65687151068000E+0002
  0
LINE
  8
0
 10
 6.80951727714400E+0002
 20
 2.65687151068000E+0002
 11
 6.80409043939300E+0002
 21
 2.52928449283500E+0002
  0
LINE
  8
0
 10
 6.80409043939300E+0002
 20
 2.52928449283500E+0002
 11
 6.79999900000000E+0002
 21
 2.40005300000000E+0002
  0
LINE
  8
0
 10
 6.79999900000000E+0002
 20
 2.40005300000000E+0002
 11
 6.80000000000000E+0002
 21
 1.55000100000000E+0002
  0
LINE
  8
0
 10
 6.80000000000000E+0002
 20
 1.55000100000000E+0002
 11
 7.40000000000000E+0002
 21
 1.55000100000000E+0002
  0
LINE
  8
0
 10
 7.40000000000000E+0002
 20
 1.55000100000000E+0002
 11
 7.40000000000000E+0002
 21
 2.40005300000000E+0002
  0
LINE
  8
0
 10
 7.40000000000000E+0002
 20
 2.40005300000000E+0002
 11
 7.40409126387300E+0002
 21
 2.52928449294400E+0002
  0
LINE
  8
0
 10
 7.40409126387300E+0002
 20
 2.52928449294400E+0002
 11
 7.40951793498400E+0002
 21
 2.65687151155200E+0002
  0
LINE
  8
0
 10
 7.40951793498400E+0002
 20
 2.65687151155200E+0002
 11
 7.41625268257100E+0002
 21
 2.78284786548800E+0002
  0
LINE
  8
0
 10
 7.41625268257100E+0002
 20
 2.78284786548800E+0002
 11
 7.42426817587200E+0002
 21
 2.90724736441600E+0002
  0
LINE
  8
0
 10
 7.42426817587200E+0002
 20
 2.90724736441600E+0002
 11
 7.43353708412500E+0002
 21
 3.03010381800000E+0002
  0
LINE
  8
0
 10
 7.43353708412500E+0002
 20
 3.03010381800000E+0002
 11
 7.44403207656800E+0002
 21
 3.15145103590400E+0002
  0
LINE
  8
0
 10
 7.44403207656800E+0002
 20
 3.15145103590400E+0002
 11
 7.45572582243900E+0002
 21
 3.27132282779200E+0002
  0
LINE
  8
0
 10
 7.45572582243900E+0002
 20
 3.27132282779200E+0002
 11
 7.46859099097600E+0002
 21
 3.38975300332800E+0002
  0
LINE
  8
0
 10
 7.46859099097600E+0002
 20
 3.38975300332800E+0002
 11
 7.48260025141700E+0002
 21
 3.50677537217600E+0002
  0
LINE
  8
0
 10
 7.48260025141700E+0002
 20
 3.50677537217600E+0002
 11
 7.49772627300000E+0002
 21
 3.62242374400000E+0002
  0
LINE
  8
0
 10
 7.49772627300000E+0002
 20
 3.62242374400000E+0002
 11
 7.51394172496300E+0002
 21
 3.73673192846400E+0002
  0
LINE
  8
0
 10
 7.51394172496300E+0002
 20
 3.73673192846400E+0002
 11
 7.53121927654400E+0002
 21
 3.84973373523200E+0002
  0
LINE
  8
0
 10
 7.53121927654400E+0002
 20
 3.84973373523200E+0002
 11
 7.54953159698100E+0002
 21
 3.96146297396800E+0002
  0
LINE
  8
0
 10
 7.54953159698100E+0002
 20
 3.96146297396800E+0002
 11
 7.56885135551200E+0002
 21
 4.07195345433600E+0002
  0
LINE
  8
0
 10
 7.56885135551200E+0002
 20
 4.07195345433600E+0002
 11
 7.58915122137500E+0002
 21
 4.18123898600000E+0002
  0
LINE
  8
0
 10
 7.58915122137500E+0002
 20
 4.18123898600000E+0002
 11
 7.61040386380800E+0002
 21
 4.28935337862400E+0002
  0
LINE
  8
0
 10
 7.61040386380800E+0002
 20
 4.28935337862400E+0002
 11
 7.63258195204900E+0002
 21
 4.39633044187200E+0002
  0
LINE
  8
0
 10
 7.63258195204900E+0002
 20
 4.39633044187200E+0002
 11
 7.65565815533600E+0002
 21
 4.50220398540800E+0002
  0
LINE
  8
0
 10
 7.65565815533600E+0002
 20
 4.50220398540800E+0002
 11
 7.67960514290700E+0002
 21
 4.60700781889600E+0002
  0
LINE
  8
0
 10
 7.67960514290700E+0002
 20
 4.60700781889600E+0002
 11
 7.70439558400000E+0002
 21
 4.71077575200000E+0002
  0
LINE
  8
0
 10
 7.70439558400000E+0002
 20
 4.71077575200000E+0002
 11
 7.73000214785300E+0002
 21
 4.81354159438400E+0002
  0
LINE
  8
0
 10
 7.73000214785300E+0002
 20
 4.81354159438400E+0002
 11
 7.75639750370400E+0002
 21
 4.91533915571200E+0002
  0
LINE
  8
0
 10
 7.75639750370400E+0002
 20
 4.91533915571200E+0002
 11
 7.78355432079100E+0002
 21
 5.01620224564800E+0002
  0
LINE
  8
0
 10
 7.78355432079100E+0002
 20
 5.01620224564800E+0002
 11
 7.81144526835200E+0002
 21
 5.11616467385600E+0002
  0
LINE
  8
0
 10
 7.81144526835200E+0002
 20
 5.11616467385600E+0002
 11
 7.84004301562500E+0002
 21
 5.21526025000000E+0002
  0
LINE
  8
0
 10
 7.84004301562500E+0002
 20
 5.21526025000000E+0002
 11
 7.86932023184800E+0002
 21
 5.31352278374400E+0002
  0
LINE
  8
0
 10
 7.86932023184800E+0002
 20
 5.31352278374400E+0002
 11
 7.89924958625900E+0002
 21
 5.41098608475200E+0002
  0
LINE
  8
0
 10
 7.89924958625900E+0002
 20
 5.41098608475200E+0002
 11
 7.92980374809600E+0002
 21
 5.50768396268800E+0002
  0
LINE
  8
0
 10
 7.92980374809600E+0002
 20
 5.50768396268800E+0002
 11
 7.96095538659700E+0002
 21
 5.60365022721600E+0002
  0
LINE
  8
0
 10
 7.96095538659700E+0002
 20
 5.60365022721600E+0002
 11
 7.99267717100000E+0002
 21
 5.69891868800000E+0002
  0
LINE
  8
0
 10
 7.99267717100000E+0002
 20
 5.69891868800000E+0002
 11
 8.02494177054300E+0002
 21
 5.79352315470400E+0002
  0
LINE
  8
0
 10
 8.02494177054300E+0002
 20
 5.79352315470400E+0002
 11
 8.05772185446400E+0002
 21
 5.88749743699200E+0002
  0
LINE
  8
0
 10
 8.05772185446400E+0002
 20
 5.88749743699200E+0002
 11
 8.09099009200100E+0002
 21
 5.98087534452800E+0002
  0
LINE
  8
0
 10
 8.09099009200100E+0002
 20
 5.98087534452800E+0002
 11
 8.12471915239200E+0002
 21
 6.07369068697600E+0002
  0
LINE
  8
0
 10
 8.12471915239200E+0002
 20
 6.07369068697600E+0002
 11
 8.15888170487500E+0002
 21
 6.16597727400000E+0002
  0
LINE
  8
0
 10
 8.15888170487500E+0002
 20
 6.16597727400000E+0002
 11
 8.19345041868800E+0002
 21
 6.25776891526400E+0002
  0
LINE
  8
0
 10
 8.19345041868800E+0002
 20
 6.25776891526400E+0002
 11
 8.22839796306900E+0002
 21
 6.34909942043200E+0002
  0
LINE
  8
0
 10
 8.22839796306900E+0002
 20
 6.34909942043200E+0002
 11
 8.26369700725600E+0002
 21
 6.44000259916800E+0002
  0
LINE
  8
0
 10
 8.26369700725600E+0002
 20
 6.44000259916800E+0002
 11
 8.29932022048700E+0002
 21
 6.53051226113600E+0002
  0
LINE
  8
0
 10
 8.29932022048700E+0002
 20
 6.53051226113600E+0002
 11
 8.33524027200000E+0002
 21
 6.62066221600000E+0002
  0
LINE
  8
0
 10
 8.33524027200000E+0002
 20
 6.62066221600000E+0002
 11
 8.37142983103300E+0002
 21
 6.71048627342400E+0002
  0
LINE
  8
0
 10
 8.37142983103300E+0002
 20
 6.71048627342400E+0002
 11
 8.40786156682400E+0002
 21
 6.80001824307200E+0002
  0
LINE
  8
0
 10
 8.40786156682400E+0002
 20
 6.80001824307200E+0002
 11
 8.44450814861100E+0002
 21
 6.88929193460800E+0002
  0
LINE
  8
0
 10
 8.44450814861100E+0002
 20
 6.88929193460800E+0002
 11
 8.48134224563200E+0002
 21
 6.97834115769600E+0002
  0
LINE
  8
0
 10
 8.48134224563200E+0002
 20
 6.97834115769600E+0002
 11
 8.51833652712500E+0002
 21
 7.06719972200000E+0002
  0
LINE
  8
0
 10
 8.51833652712500E+0002
 20
 7.06719972200000E+0002
 11
 8.55546366232800E+0002
 21
 7.15590143718400E+0002
  0
LINE
  8
0
 10
 8.55546366232800E+0002
 20
 7.15590143718400E+0002
 11
 8.59269632047900E+0002
 21
 7.24448011291200E+0002
  0
LINE
  8
0
 10
 8.59269632047900E+0002
 20
 7.24448011291200E+0002
 11
 8.63000717081600E+0002
 21
 7.33296955884800E+0002
  0
LINE
  8
0
 10
 8.63000717081600E+0002
 20
 7.33296955884800E+0002
 11
 8.66736888257700E+0002
 21
 7.42140358465600E+0002
  0
LINE
  8
0
 10
 8.66736888257700E+0002
 20
 7.42140358465600E+0002
 11
 8.70475412500000E+0002
 21
 7.50981600000000E+0002
  0
LINE
  8
0
 10
 8.70475412500000E+0002
 20
 7.50981600000000E+0002
 11
 8.74213556732300E+0002
 21
 7.59824061454400E+0002
  0
LINE
  8
0
 10
 8.74213556732300E+0002
 20
 7.59824061454400E+0002
 11
 8.77948587878400E+0002
 21
 7.68671123795200E+0002
  0
LINE
  8
0
 10
 8.77948587878400E+0002
 20
 7.68671123795200E+0002
 11
 8.81677772862100E+0002
 21
 7.77526167988800E+0002
  0
LINE
  8
0
 10
 8.81677772862100E+0002
 20
 7.77526167988800E+0002
 11
 8.85398378607200E+0002
 21
 7.86392575001600E+0002
  0
LINE
  8
0
 10
 8.85398378607200E+0002
 20
 7.86392575001600E+0002
 11
 8.89107672037500E+0002
 21
 7.95273725800000E+0002
  0
LINE
  8
0
 10
 8.89107672037500E+0002
 20
 7.95273725800000E+0002
 11
 8.92802920076800E+0002
 21
 8.04173001350400E+0002
  0
LINE
  8
0
 10
 8.92802920076800E+0002
 20
 8.04173001350400E+0002
 11
 8.96481389648900E+0002
 21
 8.13093782619200E+0002
  0
LINE
  8
0
 10
 8.96481389648900E+0002
 20
 8.13093782619200E+0002
 11
 9.00140347677600E+0002
 21
 8.22039450572800E+0002
  0
LINE
  8
0
 10
 9.00140347677600E+0002
 20
 8.22039450572800E+0002
 11
 9.03777061086700E+0002
 21
 8.31013386177600E+0002
  0
LINE
  8
0
 10
 9.03777061086700E+0002
 20
 8.31013386177600E+0002
 11
 9.07388796800000E+0002
 21
 8.40018970400000E+0002
  0
LINE
  8
0
 10
 9.07388796800000E+0002
 20
 8.40018970400000E+0002
 11
 9.10972821741300E+0002
 21
 8.49059584206400E+0002
  0
LINE
  8
0
 10
 9.10972821741300E+0002
 20
 8.49059584206400E+0002
 11
 9.14526402834400E+0002
 21
 8.58138608563200E+0002
  0
LINE
  8
0
 10
 9.14526402834400E+0002
 20
 8.58138608563200E+0002
 11
 9.18046807003100E+0002
 21
 8.67259424436800E+0002
  0
LINE
  8
0
 10
 9.18046807003100E+0002
 20
 8.67259424436800E+0002
 11
 9.21531301171200E+0002
 21
 8.76425412793600E+0002
  0
LINE
  8
0
 10
 9.21531301171200E+0002
 20
 8.76425412793600E+0002
 11
 9.24977152262500E+0002
 21
 8.85639954600000E+0002
  0
LINE
  8
0
 10
 9.24977152262500E+0002
 20
 8.85639954600000E+0002
 11
 9.28381627200800E+0002
 21
 8.94906430822400E+0002
  0
LINE
  8
0
 10
 9.28381627200800E+0002
 20
 8.94906430822400E+0002
 11
 9.31741992909900E+0002
 21
 9.04228222427200E+0002
  0
LINE
  8
0
 10
 9.31741992909900E+0002
 20
 9.04228222427200E+0002
 11
 9.35055516313600E+0002
 21
 9.13608710380800E+0002
  0
LINE
  8
0
 10
 9.35055516313600E+0002
 20
 9.13608710380800E+0002
 11
 9.38319464335700E+0002
 21
 9.23051275649600E+0002
  0
LINE
  8
0
 10
 9.38319464335700E+0002
 20
 9.23051275649600E+0002
 11
 9.41531103900000E+0002
 21
 9.32559299200000E+0002
  0
LINE
  8
0
 10
 9.41531103900000E+0002
 20
 9.32559299200000E+0002
 11
 9.44687701930300E+0002
 21
 9.42136161998400E+0002
  0
LINE
  8
0
 10
 9.44687701930300E+0002
 20
 9.42136161998400E+0002
 11
 9.47786525350400E+0002
 21
 9.51785245011200E+0002
  0
LINE
  8
0
 10
 9.47786525350400E+0002
 20
 9.51785245011200E+0002
 11
 9.50824841084100E+0002
 21
 9.61509929204800E+0002
  0
LINE
  8
0
 10
 9.50824841084100E+0002
 20
 9.61509929204800E+0002
 11
 9.53799916055200E+0002
 21
 9.71313595545600E+0002
  0
LINE
  8
0
 10
 9.53799916055200E+0002
 20
 9.71313595545600E+0002
 11
 9.56709017187500E+0002
 21
 9.81199625000000E+0002
  0
LINE
  8
0
 10
 9.56709017187500E+0002
 20
 9.81199625000000E+0002
 11
 9.59549411404800E+0002
 21
 9.91171398534400E+0002
  0
LINE
  8
0
 10
 9.59549411404800E+0002
 20
 9.91171398534400E+0002
 11
 9.62318365630900E+0002
 21
 1.00123229711520E+0003
  0
LINE
  8
0
 10
 9.62318365630900E+0002
 20
 1.00123229711520E+0003
 11
 9.65013146789600E+0002
 21
 1.01138570170880E+0003
  0
LINE
  8
0
 10
 9.65013146789600E+0002
 20
 1.01138570170880E+0003
 11
 9.67631021804700E+0002
 21
 1.02163499328160E+0003
  0
LINE
  8
0
 10
 9.67631021804700E+0002
 20
 1.02163499328160E+0003
 11
 9.70169257600000E+0002
 21
 1.03198355280000E+0003
  0
LINE
  8
0
 10
 9.70169257600000E+0002
 20
 1.03198355280000E+0003
 11
 9.72625121099300E+0002
 21
 1.04243476123040E+0003
  0
LINE
  8
0
 10
 9.72625121099300E+0002
 20
 1.04243476123040E+0003
 11
 9.74995879226400E+0002
 21
 1.05299199953920E+0003
  0
LINE
  8
0
 10
 9.74995879226400E+0002
 20
 1.05299199953920E+0003
 11
 9.77278798905100E+0002
 21
 1.06365864869280E+0003
  0
LINE
  8
0
 10
 9.77278798905100E+0002
 20
 1.06365864869280E+0003
 11
 9.79471147059200E+0002
 21
 1.07443808965760E+0003
  0
LINE
  8
0
 10
 9.79471147059200E+0002
 20
 1.07443808965760E+0003
 11
 9.81570190612500E+0002
 21
 1.08533370340000E+0003
  0
LINE
  8
0
 10
 9.81570190612500E+0002
 20
 1.08533370340000E+0003
 11
 9.83573196488800E+0002
 21
 1.09634887088640E+0003
  0
LINE
  8
0
 10
 9.83573196488800E+0002
 20
 1.09634887088640E+0003
 11
 9.85477431611900E+0002
 21
 1.10748697308320E+0003
  0
LINE
  8
0
 10
 9.85477431611900E+0002
 20
 1.10748697308320E+0003
 11
 9.87280162905600E+0002
 21
 1.11875139095680E+0003
  0
LINE
  8
0
 10
 9.87280162905600E+0002
 20
 1.11875139095680E+0003
 11
 9.88978657293700E+0002
 21
 1.13014550547360E+0003
  0
LINE
  8
0
 10
 9.88978657293700E+0002
 20
 1.13014550547360E+0003
 11
 9.90570181700000E+0002
 21
 1.14167269760000E+0003
  0
LINE
  8
0
 10
 9.90570181700000E+0002
 20
 1.14167269760000E+0003
 11
 9.92052003048300E+0002
 21
 1.15333634830240E+0003
  0
LINE
  8
0
 10
 9.92052003048300E+0002
 20
 1.15333634830240E+0003
 11
 9.93421388262400E+0002
 21
 1.16513983854720E+0003
  0
LINE
  8
0
 10
 9.93421388262400E+0002
 20
 1.16513983854720E+0003
 11
 9.94675604266100E+0002
 21
 1.17708654930080E+0003
  0
LINE
  8
0
 10
 9.94675604266100E+0002
 20
 1.17708654930080E+0003
 11
 9.95811917983200E+0002
 21
 1.18917986152960E+0003
  0
LINE
  8
0
 10
 9.95811917983200E+0002
 20
 1.18917986152960E+0003
 11
 9.96827596337500E+0002
 21
 1.20142315620000E+0003
  0
LINE
  8
0
 10
 9.96827596337500E+0002
 20
 1.20142315620000E+0003
 11
 9.97719906252800E+0002
 21
 1.21381981427840E+0003
  0
LINE
  8
0
 10
 9.97719906252800E+0002
 20
 1.21381981427840E+0003
 11
 9.98486114652900E+0002
 21
 1.22637321673120E+0003
  0
LINE
  8
0
 10
 9.98486114652900E+0002
 20
 1.22637321673120E+0003
 11
 9.99123488461600E+0002
 21
 1.23908674452480E+0003
  0
LINE
  8
0
 10
 9.99123488461600E+0002
 20
 1.23908674452480E+0003
 11
 9.99629294602700E+0002
 21
 1.25196377862560E+0003
  0
LINE
  8
0
 10
 9.99629294602700E+0002
 20
 1.25196377862560E+0003
 11
 1.00000080000000E+0003
 21
 1.26500770000000E+0003
  0
LINE
  8
0
 10
 1.00000080000000E+0003
 20
 1.26500770000000E+0003
 11
 1.00000100000000E+0003
 21
 1.30699250000000E+0003
  0
LINE
  8
0
 10
 1.00000100000000E+0003
 20
 1.30699250000000E+0003
 11
 1.04499746768077E+0003
 21
 1.29538170409776E+0003
  0
ARC
  8
0
 10
 1.04800000000000E+0003
 20
 1.30700000000000E+0003
 40
 1.20000000000000E+0001
 50
 2.55510000000000E+0002
 51
 3.93600000000000E+0002
  0
LINE
  8
0
 10
 1.05799505488852E+0003
 20
 1.31364069859092E+0003
 11
 9.70001000000000E+0002
 21
 1.44500000000000E+0003
  0
LINE
  8
0
 10
 9.70001000000000E+0002
 20
 1.44500000000000E+0003
 11
 8.82011904713912E+0002
 21
 1.31375116174484E+0003
  0
ARC
  8
0
 10
 8.92000000000000E+0002
 20
 1.30710000000000E+0003
 40
 1.20000000000000E+0001
 50
 1.46340000000000E+0002
 51
 2.84365000000000E+0002
  0
LINE
  8
0
 10
 8.94977178004217E+0002
 20
 1.29547518124308E+0003
 11
 8.95002000000000E+0002
 21
 1.29537550000000E+0003
  0
LINE
  8
0
 10
 1.38000000000000E+0003
 20
 1.30700000000000E+0003
 11
 1.42500050944639E+0003
 21
 1.29538091843480E+0003
  0
ARC
  8
0
 10
 1.42800000000000E+0003
 20
 1.30700000000000E+0003
 40
 1.20000000000000E+0001
 50
 2.55525000000000E+0002
 51
 3.93805000000000E+0002
  0
LINE
  8
0
 10
 1.43797123104192E+0003
 20
 1.31367641756549E+0003
 11
 1.35000000000000E+0003
 21
 1.44500000000000E+0003
  0
LINE
  8
0
 10
 1.35000000000000E+0003
 20
 1.44500000000000E+0003
 11
 1.26202876895808E+0003
 21
 1.31367641756549E+0003
  0
ARC
  8
0
 10
 1.27200000000000E+0003
 20
 1.30700000000000E+0003
 40
 1.20000000000000E+0001
 50
 1.46195000000000E+0002
 51
 2.84475000000000E+0002
  0
LINE
  8
0
 10
 1.27499949055361E+0003
 20
 1.29538091843480E+0003
 11
 1.32000000000000E+0003
 21
 1.30700000000000E+0003
  0
LINE
  8
0
 10
 1.32000000000000E+0003
 20
 1.30700000000000E+0003
 11
 1.32000000000000E+0003
 21
 1.21500000000000E+0003
  0
LINE
  8
0
 10
 1.32000000000000E+0003
 20
 1.21500000000000E+0003
 11
 1.31998232116580E+0003
 21
 1.20877370290090E+0003
  0
LINE
  8
0
 10
 1.31998232116580E+0003
 20
 1.20877370290090E+0003
 11
 1.31992918008640E+0003
 21
 1.20256469660720E+0003
  0
LINE
  8
0
 10
 1.31992918008640E+0003
 20
 1.20256469660720E+0003
 11
 1.31984042889660E+0003
 21
 1.19637297362430E+0003
  0
LINE
  8
0
 10
 1.31984042889660E+0003
 20
 1.19637297362430E+0003
 11
 1.31971591973120E+0003
 21
 1.19019852645760E+0003
  0
LINE
  8
0
 10
 1.31971591973120E+0003
 20
 1.19019852645760E+0003
 11
 1.31955550472500E+0003
 21
 1.18404134761250E+0003
  0
LINE
  8
0
 10
 1.31955550472500E+0003
 20
 1.18404134761250E+0003
 11
 1.31935903601280E+0003
 21
 1.17790142959440E+0003
  0
LINE
  8
0
 10
 1.31935903601280E+0003
 20
 1.17790142959440E+0003
 11
 1.31912636572940E+0003
 21
 1.17177876490870E+0003
  0
LINE
  8
0
 10
 1.31912636572940E+0003
 20
 1.17177876490870E+0003
 11
 1.31885734600960E+0003
 21
 1.16567334606080E+0003
  0
LINE
  8
0
 10
 1.31885734600960E+0003
 20
 1.16567334606080E+0003
 11
 1.31855182898820E+0003
 21
 1.15958516555610E+0003
  0
LINE
  8
0
 10
 1.31855182898820E+0003
 20
 1.15958516555610E+0003
 11
 1.31820966680000E+0003
 21
 1.15351421590000E+0003
  0
LINE
  8
0
 10
 1.31820966680000E+0003
 20
 1.15351421590000E+0003
 11
 1.31783071157980E+0003
 21
 1.14746048959790E+0003
  0
LINE
  8
0
 10
 1.31783071157980E+0003
 20
 1.14746048959790E+0003
 11
 1.31741481546240E+0003
 21
 1.14142397915520E+0003
  0
LINE
  8
0
 10
 1.31741481546240E+0003
 20
 1.14142397915520E+0003
 11
 1.31696183058260E+0003
 21
 1.13540467707730E+0003
  0
LINE
  8
0
 10
 1.31696183058260E+0003
 20
 1.13540467707730E+0003
 11
 1.31647160907520E+0003
 21
 1.12940257586960E+0003
  0
LINE
  8
0
 10
 1.31647160907520E+0003
 20
 1.12940257586960E+0003
 11
 1.31594400307500E+0003
 21
 1.12341766803750E+0003
  0
LINE
  8
0
 10
 1.31594400307500E+0003
 20
 1.12341766803750E+0003
 11
 1.31537886471680E+0003
 21
 1.11744994608640E+0003
  0
LINE
  8
0
 10
 1.31537886471680E+0003
 20
 1.11744994608640E+0003
 11
 1.31477604613540E+0003
 21
 1.11149940252170E+0003
  0
LINE
  8
0
 10
 1.31477604613540E+0003
 20
 1.11149940252170E+0003
 11
 1.31413539946560E+0003
 21
 1.10556602984880E+0003
  0
LINE
  8
0
 10
 1.31413539946560E+0003
 20
 1.10556602984880E+0003
 11
 1.31345677684220E+0003
 21
 1.09964982057310E+0003
  0
LINE
  8
0
 10
 1.31345677684220E+0003
 20
 1.09964982057310E+0003
 11
 1.31274003040000E+0003
 21
 1.09375076720000E+0003
  0
LINE
  8
0
 10
 1.31274003040000E+0003
 20
 1.09375076720000E+0003
 11
 1.31198501227380E+0003
 21
 1.08786886223490E+0003
  0
LINE
  8
0
 10
 1.31198501227380E+0003
 20
 1.08786886223490E+0003
 11
 1.31119157459840E+0003
 21
 1.08200409818320E+0003
  0
LINE
  8
0
 10
 1.31119157459840E+0003
 20
 1.08200409818320E+0003
 11
 1.31035956950860E+0003
 21
 1.07615646755030E+0003
  0
LINE
  8
0
 10
 1.31035956950860E+0003
 20
 1.07615646755030E+0003
 11
 1.30948884913920E+0003
 21
 1.07032596284160E+0003
  0
LINE
  8
0
 10
 1.30948884913920E+0003
 20
 1.07032596284160E+0003
 11
 1.30857926562500E+0003
 21
 1.06451257656250E+0003
  0
LINE
  8
0
 10
 1.30857926562500E+0003
 20
 1.06451257656250E+0003
 11
 1.30763067110080E+0003
 21
 1.05871630121840E+0003
  0
LINE
  8
0
 10
 1.30763067110080E+0003
 20
 1.05871630121840E+0003
 11
 1.30664291770140E+0003
 21
 1.05293712931470E+0003
  0
LINE
  8
0
 10
 1.30664291770140E+0003
 20
 1.05293712931470E+0003
 11
 1.30561585756160E+0003
 21
 1.04717505335680E+0003
  0
LINE
  8
0
 10
 1.30561585756160E+0003
 20
 1.04717505335680E+0003
 11
 1.30454934281620E+0003
 21
 1.04143006585010E+0003
  0
LINE
  8
0
 10
 1.30454934281620E+0003
 20
 1.04143006585010E+0003
 11
 1.30344322560000E+0003
 21
 1.03570215930000E+0003
  0
LINE
  8
0
 10
 1.30344322560000E+0003
 20
 1.03570215930000E+0003
 11
 1.30229735804780E+0003
 21
 1.02999132621190E+0003
  0
LINE
  8
0
 10
 1.30229735804780E+0003
 20
 1.02999132621190E+0003
 11
 1.30111159229440E+0003
 21
 1.02429755909120E+0003
  0
LINE
  8
0
 10
 1.30111159229440E+0003
 20
 1.02429755909120E+0003
 11
 1.29988578047460E+0003
 21
 1.01862085044330E+0003
  0
LINE
  8
0
 10
 1.29988578047460E+0003
 20
 1.01862085044330E+0003
 11
 1.29861977472320E+0003
 21
 1.01296119277360E+0003
  0
LINE
  8
0
 10
 1.29861977472320E+0003
 20
 1.01296119277360E+0003
 11
 1.29731342717500E+0003
 21
 1.00731857858750E+0003
  0
LINE
  8
0
 10
 1.29731342717500E+0003
 20
 1.00731857858750E+0003
 11
 1.29596658996480E+0003
 21
 1.00169300039040E+0003
  0
LINE
  8
0
 10
 1.29596658996480E+0003
 20
 1.00169300039040E+0003
 11
 1.29457911522740E+0003
 21
 9.96084450687700E+0002
  0
LINE
  8
0
 10
 1.29457911522740E+0003
 20
 9.96084450687700E+0002
 11
 1.29315085509760E+0003
 21
 9.90492921984800E+0002
  0
LINE
  8
0
 10
 1.29315085509760E+0003
 20
 9.90492921984800E+0002
 11
 1.29168166171020E+0003
 21
 9.84918406787100E+0002
  0
LINE
  8
0
 10
 1.29168166171020E+0003
 20
 9.84918406787100E+0002
 11
 1.29017138720000E+0003
 21
 9.79360897600000E+0002
  0
LINE
  8
0
 10
 1.29017138720000E+0003
 20
 9.79360897600000E+0002
 11
 1.28861988370180E+0003
 21
 9.73820386928900E+0002
  0
LINE
  8
0
 10
 1.28861988370180E+0003
 20
 9.73820386928900E+0002
 11
 1.28702700335040E+0003
 21
 9.68296867279200E+0002
  0
LINE
  8
0
 10
 1.28702700335040E+0003
 20
 9.68296867279200E+0002
 11
 1.28539259828060E+0003
 21
 9.62790331156300E+0002
  0
LINE
  8
0
 10
 1.28539259828060E+0003
 20
 9.62790331156300E+0002
 11
 1.28371652062720E+0003
 21
 9.57300771065600E+0002
  0
LINE
  8
0
 10
 1.28371652062720E+0003
 20
 9.57300771065600E+0002
 11
 1.28199862252500E+0003
 21
 9.51828179512500E+0002
  0
LINE
  8
0
 10
 1.28199862252500E+0003
 20
 9.51828179512500E+0002
 11
 1.28023875610880E+0003
 21
 9.46372549002400E+0002
  0
LINE
  8
0
 10
 1.28023875610880E+0003
 20
 9.46372549002400E+0002
 11
 1.27843677351340E+0003
 21
 9.40933872040700E+0002
  0
LINE
  8
0
 10
 1.27843677351340E+0003
 20
 9.40933872040700E+0002
 11
 1.27659252687360E+0003
 21
 9.35512141132800E+0002
  0
LINE
  8
0
 10
 1.27659252687360E+0003
 20
 9.35512141132800E+0002
 11
 1.27470586832420E+0003
 21
 9.30107348784100E+0002
  0
LINE
  8
0
 10
 1.27470586832420E+0003
 20
 9.30107348784100E+0002
 11
 1.27277665000000E+0003
 21
 9.24719487500000E+0002
  0
LINE
  8
0
 10
 1.27277665000000E+0003
 20
 9.24719487500000E+0002
 11
 1.27080472403580E+0003
 21
 9.19348549785900E+0002
  0
LINE
  8
0
 10
 1.27080472403580E+0003
 20
 9.19348549785900E+0002
 11
 1.26878994256640E+0003
 21
 9.13994528147200E+0002
  0
LINE
  8
0
 10
 1.26878994256640E+0003
 20
 9.13994528147200E+0002
 11
 1.26673215772660E+0003
 21
 9.08657415089300E+0002
  0
LINE
  8
0
 10
 1.26673215772660E+0003
 20
 9.08657415089300E+0002
 11
 1.26463122165120E+0003
 21
 9.03337203117600E+0002
  0
LINE
  8
0
 10
 1.26463122165120E+0003
 20
 9.03337203117600E+0002
 11
 1.26248698647500E+0003
 21
 8.98033884737500E+0002
  0
LINE
  8
0
 10
 1.26248698647500E+0003
 20
 8.98033884737500E+0002
 11
 1.26029930433280E+0003
 21
 8.92747452454400E+0002
  0
LINE
  8
0
 10
 1.26029930433280E+0003
 20
 8.92747452454400E+0002
 11
 1.25806802735940E+0003
 21
 8.87477898773700E+0002
  0
LINE
  8
0
 10
 1.25806802735940E+0003
 20
 8.87477898773700E+0002
 11
 1.25579300768960E+0003
 21
 8.82225216200800E+0002
  0
LINE
  8
0
 10
 1.25579300768960E+0003
 20
 8.82225216200800E+0002
 11
 1.25347409745820E+0003
 21
 8.76989397241100E+0002
  0
LINE
  8
0
 10
 1.25347409745820E+0003
 20
 8.76989397241100E+0002
 11
 1.25111114880000E+0003
 21
 8.71770434400000E+0002
  0
LINE
  8
0
 10
 1.25111114880000E+0003
 20
 8.71770434400000E+0002
 11
 1.24870401384980E+0003
 21
 8.66568320182900E+0002
  0
LINE
  8
0
 10
 1.24870401384980E+0003
 20
 8.66568320182900E+0002
 11
 1.24625254474240E+0003
 21
 8.61383047095200E+0002
  0
LINE
  8
0
 10
 1.24625254474240E+0003
 20
 8.61383047095200E+0002
 11
 1.24375659361260E+0003
 21
 8.56214607642300E+0002
  0
LINE
  8
0
 10
 1.24375659361260E+0003
 20
 8.56214607642300E+0002
 11
 1.24121601259520E+0003
 21
 8.51062994329600E+0002
  0
LINE
  8
0
 10
 1.24121601259520E+0003
 20
 8.51062994329600E+0002
 11
 1.23863065382500E+0003
 21
 8.45928199662500E+0002
  0
LINE
  8
0
 10
 1.23863065382500E+0003
 20
 8.45928199662500E+0002
 11
 1.23600036943680E+0003
 21
 8.40810216146400E+0002
  0
LINE
  8
0
 10
 1.23600036943680E+0003
 20
 8.40810216146400E+0002
 11
 1.23332501156540E+0003
 21
 8.35709036286700E+0002
  0
LINE
  8
0
 10
 1.23332501156540E+0003
 20
 8.35709036286700E+0002
 11
 1.23060443234560E+0003
 21
 8.30624652588800E+0002
  0
LINE
  8
0
 10
 1.23060443234560E+0003
 20
 8.30624652588800E+0002
 11
 1.22783848391220E+0003
 21
 8.25557057558100E+0002
  0
LINE
  8
0
 10
 1.22783848391220E+0003
 20
 8.25557057558100E+0002
 11
 1.22502701840000E+0003
 21
 8.20506243700000E+0002
  0
LINE
  8
0
 10
 1.22502701840000E+0003
 20
 8.20506243700000E+0002
 11
 1.22216988794380E+0003
 21
 8.15472203519900E+0002
  0
LINE
  8
0
 10
 1.22216988794380E+0003
 20
 8.15472203519900E+0002
 11
 1.21926694467840E+0003
 21
 8.10454929523200E+0002
  0
LINE
  8
0
 10
 1.21926694467840E+0003
 20
 8.10454929523200E+0002
 11
 1.21631804073860E+0003
 21
 8.05454414215300E+0002
  0
LINE
  8
0
 10
 1.21631804073860E+0003
 20
 8.05454414215300E+0002
 11
 1.21332302825920E+0003
 21
 8.00470650101600E+0002
  0
LINE
  8
0
 10
 1.21332302825920E+0003
 20
 8.00470650101600E+0002
 11
 1.21028175937500E+0003
 21
 7.95503629687500E+0002
  0
LINE
  8
0
 10
 1.21028175937500E+0003
 20
 7.95503629687500E+0002
 11
 1.20719408622080E+0003
 21
 7.90553345478400E+0002
  0
LINE
  8
0
 10
 1.20719408622080E+0003
 20
 7.90553345478400E+0002
 11
 1.20405986093140E+0003
 21
 7.85619789979700E+0002
  0
LINE
  8
0
 10
 1.20405986093140E+0003
 20
 7.85619789979700E+0002
 11
 1.20087893564160E+0003
 21
 7.80702955696800E+0002
  0
LINE
  8
0
 10
 1.20087893564160E+0003
 20
 7.80702955696800E+0002
 11
 1.19765116248620E+0003
 21
 7.75802835135100E+0002
  0
LINE
  8
0
 10
 1.19765116248620E+0003
 20
 7.75802835135100E+0002
 11
 1.19437639360000E+0003
 21
 7.70919420800000E+0002
  0
LINE
  8
0
 10
 1.19437639360000E+0003
 20
 7.70919420800000E+0002
 11
 1.19105448111780E+0003
 21
 7.66052705196900E+0002
  0
LINE
  8
0
 10
 1.19105448111780E+0003
 20
 7.66052705196900E+0002
 11
 1.18768527717440E+0003
 21
 7.61202680831200E+0002
  0
LINE
  8
0
 10
 1.18768527717440E+0003
 20
 7.61202680831200E+0002
 11
 1.18426863390460E+0003
 21
 7.56369340208300E+0002
  0
LINE
  8
0
 10
 1.18426863390460E+0003
 20
 7.56369340208300E+0002
 11
 1.18080440344320E+0003
 21
 7.51552675833600E+0002
  0
LINE
  8
0
 10
 1.18080440344320E+0003
 20
 7.51552675833600E+0002
 11
 1.17729243792500E+0003
 21
 7.46752680212500E+0002
  0
LINE
  8
0
 10
 1.17729243792500E+0003
 20
 7.46752680212500E+0002
 11
 1.17373258948480E+0003
 21
 7.41969345850400E+0002
  0
LINE
  8
0
 10
 1.17373258948480E+0003
 20
 7.41969345850400E+0002
 11
 1.17012471025740E+0003
 21
 7.37202665252700E+0002
  0
LINE
  8
0
 10
 1.17012471025740E+0003
 20
 7.37202665252700E+0002
 11
 1.16646865237760E+0003
 21
 7.32452630924800E+0002
  0
LINE
  8
0
 10
 1.16646865237760E+0003
 20
 7.32452630924800E+0002
 11
 1.16276426798020E+0003
 21
 7.27719235372100E+0002
  0
LINE
  8
0
 10
 1.16276426798020E+0003
 20
 7.27719235372100E+0002
 11
 1.15901140920000E+0003
 21
 7.23002471100000E+0002
  0
LINE
  8
0
 10
 1.15901140920000E+0003
 20
 7.23002471100000E+0002
 11
 1.15520992817180E+0003
 21
 7.18302330613900E+0002
  0
LINE
  8
0
 10
 1.15520992817180E+0003
 20
 7.18302330613900E+0002
 11
 1.15135967703040E+0003
 21
 7.13618806419200E+0002
  0
LINE
  8
0
 10
 1.15135967703040E+0003
 20
 7.13618806419200E+0002
 11
 1.14746050791060E+0003
 21
 7.08951891021300E+0002
  0
LINE
  8
0
 10
 1.14746050791060E+0003
 20
 7.08951891021300E+0002
 11
 1.14351227294720E+0003
 21
 7.04301576925600E+0002
  0
LINE
  8
0
 10
 1.14351227294720E+0003
 20
 7.04301576925600E+0002
 11
 1.13951482427500E+0003
 21
 6.99667856637500E+0002
  0
LINE
  8
0
 10
 1.13951482427500E+0003
 20
 6.99667856637500E+0002
 11
 1.13546801402880E+0003
 21
 6.95050722662400E+0002
  0
LINE
  8
0
 10
 1.13546801402880E+0003
 20
 6.95050722662400E+0002
 11
 1.13137169434340E+0003
 21
 6.90450167505700E+0002
  0
LINE
  8
0
 10
 1.13137169434340E+0003
 20
 6.90450167505700E+0002
 11
 1.12722571735360E+0003
 21
 6.85866183672800E+0002
  0
LINE
  8
0
 10
 1.12722571735360E+0003
 20
 6.85866183672800E+0002
 11
 1.12302993519420E+0003
 21
 6.81298763669100E+0002
  0
LINE
  8
0
 10
 1.12302993519420E+0003
 20
 6.81298763669100E+0002
 11
 1.11878420000000E+0003
 21
 6.76747900000000E+0002
  0
LINE
  8
0
 10
 1.11878420000000E+0003
 20
 6.76747900000000E+0002
 11
 1.05943785682098E+0003
 21
 6.13196603100420E+0002
  0
ARC
  8
0
 10
 1.38000000000000E+0003
 20
 3.11800000000000E+0002
 40
 4.40000000000000E+0002
 50
 1.36765000000000E+0002
 51
 1.80000000000000E+0002
  0
LINE
  8
0
 10
 9.40000000000000E+0002
 20
 3.11800000000000E+0002
 11
 9.40000000000000E+0002
 21
 1.55000000000000E+0002
  0
LINE
  8
0
 10
 9.40000000000000E+0002
 20
 1.55000000000000E+0002
 11
 1.00000010000000E+0003
 21
 1.55000000000000E+0002
  0
LINE
  8
0
 10
 1.00000010000000E+0003
 20
 1.55000000000000E+0002
 11
 1.00000000000000E+0003
 21
 3.11800000000000E+0002
  0
ARC
  8
0
 10
 1.38000000000000E+0003
 20
 3.11800000000000E+0002
 40
 3.80000000000000E+0002
 50
 1.36765000000000E+0002
 51
 1.80000000000000E+0002
  0
LINE
  8
0
 10
 1.10315087634539E+0003
 20
 5.72097066313999E+0002
 11
 1.16249840000000E+0003
 21
 6.35649600000000E+0002
  0
LINE
  8
0
 10
 1.16249840000000E+0003
 20
 6.35649600000000E+0002
 11
 1.16705714353420E+0003
 21
 6.40535936656500E+0002
  0
LINE
  8
0
 10
 1.16705714353420E+0003
 20
 6.40535936656500E+0002
 11
 1.17156312219360E+0003
 21
 6.45440914212000E+0002
  0
LINE
  8
0
 10
 1.17156312219360E+0003
 20
 6.45440914212000E+0002
 11
 1.17601647706340E+0003
 21
 6.50364523045500E+0002
  0
LINE
  8
0
 10
 1.17601647706340E+0003
 20
 6.50364523045500E+0002
 11
 1.18041734922880E+0003
 21
 6.55306753536000E+0002
  0
LINE
  8
0
 10
 1.18041734922880E+0003
 20
 6.55306753536000E+0002
 11
 1.18476587977500E+0003
 21
 6.60267596062500E+0002
  0
LINE
  8
0
 10
 1.18476587977500E+0003
 20
 6.60267596062500E+0002
 11
 1.18906220978720E+0003
 21
 6.65247041004000E+0002
  0
LINE
  8
0
 10
 1.18906220978720E+0003
 20
 6.65247041004000E+0002
 11
 1.19330648035060E+0003
 21
 6.70245078739500E+0002
  0
LINE
  8
0
 10
 1.19330648035060E+0003
 20
 6.70245078739500E+0002
 11
 1.19749883255040E+0003
 21
 6.75261699648000E+0002
  0
LINE
  8
0
 10
 1.19749883255040E+0003
 20
 6.75261699648000E+0002
 11
 1.20163940747180E+0003
 21
 6.80296894108500E+0002
  0
LINE
  8
0
 10
 1.20163940747180E+0003
 20
 6.80296894108500E+0002
 11
 1.20572834620000E+0003
 21
 6.85350652500000E+0002
  0
LINE
  8
0
 10
 1.20572834620000E+0003
 20
 6.85350652500000E+0002
 11
 1.20976578982020E+0003
 21
 6.90422965201500E+0002
  0
LINE
  8
0
 10
 1.20976578982020E+0003
 20
 6.90422965201500E+0002
 11
 1.21375187941760E+0003
 21
 6.95513822592000E+0002
  0
LINE
  8
0
 10
 1.21375187941760E+0003
 20
 6.95513822592000E+0002
 11
 1.21768675607740E+0003
 21
 7.00623215050500E+0002
  0
LINE
  8
0
 10
 1.21768675607740E+0003
 20
 7.00623215050500E+0002
 11
 1.22157056088480E+0003
 21
 7.05751132956000E+0002
  0
LINE
  8
0
 10
 1.22157056088480E+0003
 20
 7.05751132956000E+0002
 11
 1.22540343492500E+0003
 21
 7.10897566687500E+0002
  0
LINE
  8
0
 10
 1.22540343492500E+0003
 20
 7.10897566687500E+0002
 11
 1.22918551928320E+0003
 21
 7.16062506624000E+0002
  0
LINE
  8
0
 10
 1.22918551928320E+0003
 20
 7.16062506624000E+0002
 11
 1.23291695504460E+0003
 21
 7.21245943144500E+0002
  0
LINE
  8
0
 10
 1.23291695504460E+0003
 20
 7.21245943144500E+0002
 11
 1.23659788329440E+0003
 21
 7.26447866628000E+0002
  0
LINE
  8
0
 10
 1.23659788329440E+0003
 20
 7.26447866628000E+0002
 11
 1.24022844511780E+0003
 21
 7.31668267453500E+0002
  0
LINE
  8
0
 10
 1.24022844511780E+0003
 20
 7.31668267453500E+0002
 11
 1.24380878160000E+0003
 21
 7.36907136000000E+0002
  0
LINE
  8
0
 10
 1.24380878160000E+0003
 20
 7.36907136000000E+0002
 11
 1.24733903382620E+0003
 21
 7.42164462646500E+0002
  0
LINE
  8
0
 10
 1.24733903382620E+0003
 20
 7.42164462646500E+0002
 11
 1.25081934288160E+0003
 21
 7.47440237772000E+0002
  0
LINE
  8
0
 10
 1.25081934288160E+0003
 20
 7.47440237772000E+0002
 11
 1.25424984985140E+0003
 21
 7.52734451755500E+0002
  0
LINE
  8
0
 10
 1.25424984985140E+0003
 20
 7.52734451755500E+0002
 11
 1.25763069582080E+0003
 21
 7.58047094976000E+0002
  0
LINE
  8
0
 10
 1.25763069582080E+0003
 20
 7.58047094976000E+0002
 11
 1.26096202187500E+0003
 21
 7.63378157812500E+0002
  0
LINE
  8
0
 10
 1.26096202187500E+0003
 20
 7.63378157812500E+0002
 11
 1.26424396909920E+0003
 21
 7.68727630644000E+0002
  0
LINE
  8
0
 10
 1.26424396909920E+0003
 20
 7.68727630644000E+0002
 11
 1.26747667857860E+0003
 21
 7.74095503849500E+0002
  0
LINE
  8
0
 10
 1.26747667857860E+0003
 20
 7.74095503849500E+0002
 11
 1.27066029139840E+0003
 21
 7.79481767808000E+0002
  0
LINE
  8
0
 10
 1.27066029139840E+0003
 20
 7.79481767808000E+0002
 11
 1.27379494864380E+0003
 21
 7.84886412898500E+0002
  0
LINE
  8
0
 10
 1.27379494864380E+0003
 20
 7.84886412898500E+0002
 11
 1.27688079140000E+0003
 21
 7.90309429500000E+0002
  0
LINE
  8
0
 10
 1.27688079140000E+0003
 20
 7.90309429500000E+0002
 11
 1.27991796075220E+0003
 21
 7.95750807991500E+0002
  0
LINE
  8
0
 10
 1.27991796075220E+0003
 20
 7.95750807991500E+0002
 11
 1.28290659778560E+0003
 21
 8.01210538752000E+0002
  0
LINE
  8
0
 10
 1.28290659778560E+0003
 20
 8.01210538752000E+0002
 11
 1.28584684358540E+0003
 21
 8.06688612160500E+0002
  0
LINE
  8
0
 10
 1.28584684358540E+0003
 20
 8.06688612160500E+0002
 11
 1.28873883923680E+0003
 21
 8.12185018596000E+0002
  0
LINE
  8
0
 10
 1.28873883923680E+0003
 20
 8.12185018596000E+0002
 11
 1.29158272582500E+0003
 21
 8.17699748437500E+0002
  0
LINE
  8
0
 10
 1.29158272582500E+0003
 20
 8.17699748437500E+0002
 11
 1.29437864443520E+0003
 21
 8.23232792064000E+0002
  0
LINE
  8
0
 10
 1.29437864443520E+0003
 20
 8.23232792064000E+0002
 11
 1.29712673615260E+0003
 21
 8.28784139854500E+0002
  0
LINE
  8
0
 10
 1.29712673615260E+0003
 20
 8.28784139854500E+0002
 11
 1.29982714206240E+0003
 21
 8.34353782188000E+0002
  0
LINE
  8
0
 10
 1.29982714206240E+0003
 20
 8.34353782188000E+0002
 11
 1.30248000324980E+0003
 21
 8.39941709443500E+0002
  0
LINE
  8
0
 10
 1.30248000324980E+0003
 20
 8.39941709443500E+0002
 11
 1.30508546080000E+0003
 21
 8.45547912000000E+0002
  0
LINE
  8
0
 10
 1.30508546080000E+0003
 20
 8.45547912000000E+0002
 11
 1.30764365579820E+0003
 21
 8.51172380236500E+0002
  0
LINE
  8
0
 10
 1.30764365579820E+0003
 20
 8.51172380236500E+0002
 11
 1.31015472932960E+0003
 21
 8.56815104532000E+0002
  0
LINE
  8
0
 10
 1.31015472932960E+0003
 20
 8.56815104532000E+0002
 11
 1.31261882247940E+0003
 21
 8.62476075265500E+0002
  0
LINE
  8
0
 10
 1.31261882247940E+0003
 20
 8.62476075265500E+0002
 11
 1.31503607633280E+0003
 21
 8.68155282816000E+0002
  0
LINE
  8
0
 10
 1.31503607633280E+0003
 20
 8.68155282816000E+0002
 11
 1.31740663197500E+0003
 21
 8.73852717562500E+0002
  0
LINE
  8
0
 10
 1.31740663197500E+0003
 20
 8.73852717562500E+0002
 11
 1.31973063049120E+0003
 21
 8.79568369884000E+0002
  0
LINE
  8
0
 10
 1.31973063049120E+0003
 20
 8.79568369884000E+0002
 11
 1.32200821296660E+0003
 21
 8.85302230159500E+0002
  0
LINE
  8
0
 10
 1.32200821296660E+0003
 20
 8.85302230159500E+0002
 11
 1.32423952048640E+0003
 21
 8.91054288768000E+0002
  0
LINE
  8
0
 10
 1.32423952048640E+0003
 20
 8.91054288768000E+0002
 11
 1.32642469413580E+0003
 21
 8.96824536088500E+0002
  0
LINE
  8
0
 10
 1.32642469413580E+0003
 20
 8.96824536088500E+0002
 11
 1.32856387500000E+0003
 21
 9.02612962500000E+0002
  0
LINE
  8
0
 10
 1.32856387500000E+0003
 20
 9.02612962500000E+0002
 11
 1.33065720416420E+0003
 21
 9.08419558381500E+0002
  0
LINE
  8
0
 10
 1.33065720416420E+0003
 20
 9.08419558381500E+0002
 11
 1.33270482271360E+0003
 21
 9.14244314112000E+0002
  0
LINE
  8
0
 10
 1.33270482271360E+0003
 20
 9.14244314112000E+0002
 11
 1.33470687173340E+0003
 21
 9.20087220070500E+0002
  0
LINE
  8
0
 10
 1.33470687173340E+0003
 20
 9.20087220070500E+0002
 11
 1.33666349230880E+0003
 21
 9.25948266636000E+0002
  0
LINE
  8
0
 10
 1.33666349230880E+0003
 20
 9.25948266636000E+0002
 11
 1.33857482552500E+0003
 21
 9.31827444187500E+0002
  0
LINE
  8
0
 10
 1.33857482552500E+0003
 20
 9.31827444187500E+0002
 11
 1.34044101246720E+0003
 21
 9.37724743104000E+0002
  0
LINE
  8
0
 10
 1.34044101246720E+0003
 20
 9.37724743104000E+0002
 11
 1.34226219422060E+0003
 21
 9.43640153764500E+0002
  0
LINE
  8
0
 10
 1.34226219422060E+0003
 20
 9.43640153764500E+0002
 11
 1.34403851187040E+0003
 21
 9.49573666548000E+0002
  0
LINE
  8
0
 10
 1.34403851187040E+0003
 20
 9.49573666548000E+0002
 11
 1.34577010650180E+0003
 21
 9.55525271833500E+0002
  0
LINE
  8
0
 10
 1.34577010650180E+0003
 20
 9.55525271833500E+0002
 11
 1.34745711920000E+0003
 21
 9.61494960000000E+0002
  0
LINE
  8
0
 10
 1.34745711920000E+0003
 20
 9.61494960000000E+0002
 11
 1.34909969105020E+0003
 21
 9.67482721426500E+0002
  0
LINE
  8
0
 10
 1.34909969105020E+0003
 20
 9.67482721426500E+0002
 11
 1.35069796313760E+0003
 21
 9.73488546492000E+0002
  0
LINE
  8
0
 10
 1.35069796313760E+0003
 20
 9.73488546492000E+0002
 11
 1.35225207654740E+0003
 21
 9.79512425575500E+0002
  0
LINE
  8
0
 10
 1.35225207654740E+0003
 20
 9.79512425575500E+0002
 11
 1.35376217236480E+0003
 21
 9.85554349056000E+0002
  0
LINE
  8
0
 10
 1.35376217236480E+0003
 20
 9.85554349056000E+0002
 11
 1.35522839167500E+0003
 21
 9.91614307312500E+0002
  0
LINE
  8
0
 10
 1.35522839167500E+0003
 20
 9.91614307312500E+0002
 11
 1.35665087556320E+0003
 21
 9.97692290724000E+0002
  0
LINE
  8
0
 10
 1.35665087556320E+0003
 20
 9.97692290724000E+0002
 11
 1.35802976511460E+0003
 21
 1.00378828966950E+0003
  0
LINE
  8
0
 10
 1.35802976511460E+0003
 20
 1.00378828966950E+0003
 11
 1.35936520141440E+0003
 21
 1.00990229452800E+0003
  0
LINE
  8
0
 10
 1.35936520141440E+0003
 20
 1.00990229452800E+0003
 11
 1.36065732554780E+0003
 21
 1.01603429567850E+0003
  0
LINE
  8
0
 10
 1.36065732554780E+0003
 20
 1.01603429567850E+0003
 11
 1.36190627860000E+0003
 21
 1.02218428350000E+0003
  0
LINE
  8
0
 10
 1.36190627860000E+0003
 20
 1.02218428350000E+0003
 11
 1.36311220165620E+0003
 21
 1.02835224837150E+0003
  0
LINE
  8
0
 10
 1.36311220165620E+0003
 20
 1.02835224837150E+0003
 11
 1.36427523580160E+0003
 21
 1.03453818067200E+0003
  0
LINE
  8
0
 10
 1.36427523580160E+0003
 20
 1.03453818067200E+0003
 11
 1.36539552212140E+0003
 21
 1.04074207078050E+0003
  0
LINE
  8
0
 10
 1.36539552212140E+0003
 20
 1.04074207078050E+0003
 11
 1.36647320170080E+0003
 21
 1.04696390907600E+0003
  0
LINE
  8
0
 10
 1.36647320170080E+0003
 20
 1.04696390907600E+0003
 11
 1.36750841562500E+0003
 21
 1.05320368593750E+0003
  0
LINE
  8
0
 10
 1.36750841562500E+0003
 20
 1.05320368593750E+0003
 11
 1.36850130497920E+0003
 21
 1.05946139174400E+0003
  0
LINE
  8
0
 10
 1.36850130497920E+0003
 20
 1.05946139174400E+0003
 11
 1.36945201084860E+0003
 21
 1.06573701687450E+0003
  0
LINE
  8
0
 10
 1.36945201084860E+0003
 20
 1.06573701687450E+0003
 11
 1.37036067431840E+0003
 21
 1.07203055170800E+0003
  0
LINE
  8
0
 10
 1.37036067431840E+0003
 20
 1.07203055170800E+0003
 11
 1.37122743647380E+0003
 21
 1.07834198662350E+0003
  0
LINE
  8
0
 10
 1.37122743647380E+0003
 20
 1.07834198662350E+0003
 11
 1.37205243840000E+0003
 21
 1.08467131200000E+0003
  0
LINE
  8
0
 10
 1.37205243840000E+0003
 20
 1.08467131200000E+0003
 11
 1.37283582118220E+0003
 21
 1.09101851821650E+0003
  0
LINE
  8
0
 10
 1.37283582118220E+0003
 20
 1.09101851821650E+0003
 11
 1.37357772590560E+0003
 21
 1.09738359565200E+0003
  0
LINE
  8
0
 10
 1.37357772590560E+0003
 20
 1.09738359565200E+0003
 11
 1.37427829365540E+0003
 21
 1.10376653468550E+0003
  0
LINE
  8
0
 10
 1.37427829365540E+0003
 20
 1.10376653468550E+0003
 11
 1.37493766551680E+0003
 21
 1.11016732569600E+0003
  0
LINE
  8
0
 10
 1.37493766551680E+0003
 20
 1.11016732569600E+0003
 11
 1.37555598257500E+0003
 21
 1.11658595906250E+0003
  0
LINE
  8
0
 10
 1.37555598257500E+0003
 20
 1.11658595906250E+0003
 11
 1.37613338591520E+0003
 21
 1.12302242516400E+0003
  0
LINE
  8
0
 10
 1.37613338591520E+0003
 20
 1.12302242516400E+0003
 11
 1.37667001662260E+0003
 21
 1.12947671437950E+0003
  0
LINE
  8
0
 10
 1.37667001662260E+0003
 20
 1.12947671437950E+0003
 11
 1.37716601578240E+0003
 21
 1.13594881708800E+0003
  0
LINE
  8
0
 10
 1.37716601578240E+0003
 20
 1.13594881708800E+0003
 11
 1.37762152447980E+0003
 21
 1.14243872366850E+0003
  0
LINE
  8
0
 10
 1.37762152447980E+0003
 20
 1.14243872366850E+0003
 11
 1.37803668380000E+0003
 21
 1.14894642450000E+0003
  0
LINE
  8
0
 10
 1.37803668380000E+0003
 20
 1.14894642450000E+0003
 11
 1.37841163482820E+0003
 21
 1.15547190996150E+0003
  0
LINE
  8
0
 10
 1.37841163482820E+0003
 20
 1.15547190996150E+0003
 11
 1.37874651864960E+0003
 21
 1.16201517043200E+0003
  0
LINE
  8
0
 10
 1.37874651864960E+0003
 20
 1.16201517043200E+0003
 11
 1.37904147634940E+0003
 21
 1.16857619629050E+0003
  0
LINE
  8
0
 10
 1.37904147634940E+0003
 20
 1.16857619629050E+0003
 11
 1.37929664901280E+0003
 21
 1.17515497791600E+0003
  0
LINE
  8
0
 10
 1.37929664901280E+0003
 20
 1.17515497791600E+0003
 11
 1.37951217772500E+0003
 21
 1.18175150568750E+0003
  0
LINE
  8
0
 10
 1.37951217772500E+0003
 20
 1.18175150568750E+0003
 11
 1.37968820357120E+0003
 21
 1.18836576998400E+0003
  0
LINE
  8
0
 10
 1.37968820357120E+0003
 20
 1.18836576998400E+0003
 11
 1.37982486763660E+0003
 21
 1.19499776118450E+0003
  0
LINE
  8
0
 10
 1.37982486763660E+0003
 20
 1.19499776118450E+0003
 11
 1.37992231100640E+0003
 21
 1.20164746966800E+0003
  0
LINE
  8
0
 10
 1.37992231100640E+0003
 20
 1.20164746966800E+0003
 11
 1.37998067476580E+0003
 21
 1.20831488581350E+0003
  0
LINE
  8
0
 10
 1.37998067476580E+0003
 20
 1.20831488581350E+0003
 11
 1.38000010000000E+0003
 21
 1.21500000000000E+0003
  0
LINE
  8
0
 10
 1.38000010000000E+0003
 20
 1.21500000000000E+0003
 11
 1.38000000000000E+0003
 21
 1.30700000000000E+0003
  0
LINE
  8
0
 10
 1.14500000000000E+0003
 20
 1.25000000000000E+0002
 11
 1.17500000000000E+0003
 21
 1.25000000000000E+0002
  0
LINE
  8
0
 10
 1.17500000000000E+0003
 20
 1.25000000000000E+0002
 11
 1.17500000000000E+0003
 21
 5.98134800000000E+0002
  0
LINE
  8
0
 10
 1.17500000000000E+0003
 20
 5.98134800000000E+0002
 11
 1.14500000000000E+0003
 21
 5.66225400000000E+0002
  0
LINE
  8
0
 10
 1.14500000000000E+0003
 20
 5.66225400000000E+0002
 11
 1.14500000000000E+0003
 21
 1.25000000000000E+0002
  0
LINE
  8
0
 10
 1.14500000000000E+0003
 20
 1.47500000000000E+0003
 11
 1.17500000000000E+0003
 21
 1.47500000000000E+0003
  0
LINE
  8
0
 10
 1.17500000000000E+0003
 20
 1.47500000000000E+0003
 11
 1.17497876793197E+0003
 21
 7.85219027639517E+0002
  0
ARC
  8
0
 10
 5.31550000000000E+0002
 20
 1.23500000000000E+0003
 40
 7.85050000000000E+0002
 50
 3.21390000000000E+0002
 51
 3.25045000000000E+0002
  0
LINE
  8
0
 10
 1.14499715537199E+0003
 20
 7.45116248416001E+0002
 11
 1.14500000000000E+0003
 21
 1.47500000000000E+0003
  0
ENDSEC
  0
EOF
