  0
SECTION
  2
HEADER
  9
$ACADVER
  1
AC1003
  9
$INSBASE
 10
0.0
 20
0.0
  9
$EXTMIN
 10
 0.00000000000000E+0000
 20
 0.00000000000000E+0000
  9
$EXTMAX
 10
 1.25000000000000E+0003
 20
 1.60000000000000E+0003
  9
$LIMMIN
 10
0.0
 20
0.0
  9
$LIMMAX
 10
410.0
 20
287.0
  9
$VIEWCTR
 10
227.0059616
 20
165.058879 
  9
$VIEWSIZE
 40
 1.60000000000000E+0003
9
$SNAPMODE
70
0
9
$SNAPUNIT
10
1
20
1
9
$GRIDMODE
70
0
9
$GRIDUNIT
10
1
20
1
9
$ORTHOMODE
70
0
9
$rEGENMODE
70
1
9
$FILLMODE
70
1
9
$DRAGMODE
70
2
9
$LTSCALE
40
25.0
9
$OSMODE
70
0
9
$ATTMODE
70
1
9
$TRACEWID
40
1.0
9
$TEXTSTYLE
7
STANDARD
9
$CLAYER
8
0
9
$CELTYPE
6
VONLAYER
9
$CECOLOR
62
256
9
$LUNITS
70
2
9
$LUPREC
70
2
9
$AXISMODE
70
0
9
$AXISUNIT
10
0
20
0
9
$SKETCHINC
40
1.0
9
$FILLETRAD
40
0.0
9
$AUNITS
70
0
9
$AUPREC
70
0
9
$MENU
1
ACAD
9
$ELEVATION
40
0.0
9
$THICKNESS
40
0.0
9
$VIEWDIR
10
0.0
20
0.0
30
1.0
9
$LIMCHECK
70
0
9
$BLIPMODE
70
1
9
$CHAMFERA
40
0.0
9
$CHAMFERB
40
0.0
9
$USRTIMER
70
1
9
$ANGBASE
50
0.0
9
$ANGDIR
70
0
9
$PDMODE
70
0
9
$PDSIZE
40
0.0
9
$PLINEWID
40
0.0
9
$COORDS
70
0
0
ENDSEC
0
SECTION
2
TABLES
0
TABLE
2
LTYPE
70
1
0
LTYPE
2
AUSGEZOGEN
70
64
3
Ausgezogene Linie
72
65
73
0
40
0.0
0
ENDTAB
0
TABLE
2
LAYER
70
1
0
LAYER
2
0
70
0
62
7
6
AUSGEZOGEN
0
ENDTAB
0
TABLE
2
STYLE
70
1
0
STYLE
2
STANDARD
70
0
40
0.0
41
1.0
50
0.0
71
0
42
3.5
3
txt
4

0
ENDTAB
0
TABLE
2
VIEW
70
0
0
ENDTAB
0
ENDSEC
0
SECTION
2
BLOCKS
0
ENDSEC
0
SECTION
2
ENTITIES
  0
ARC
  8
0
 10
 1.19000000000000E+0003
 20
 6.00000000000000E+0001
 40
 6.00000000000000E+0001
 50
 2.70000000000000E+0002
 51
 3.60000000000000E+0002
  0
LINE
  8
0
 10
 1.25000000000000E+0003
 20
 6.00000000000000E+0001
 11
 1.25000000000000E+0003
 21
 1.54000000000000E+0003
  0
ARC
  8
0
 10
 1.19000000000000E+0003
 20
 1.54000000000000E+0003
 40
 6.00000000000000E+0001
 50
 0.00000000000000E+0000
 51
 9.00000000000000E+0001
  0
LINE
  8
0
 10
 1.19000000000000E+0003
 20
 1.60000000000000E+0003
 11
 6.00000000000000E+0001
 21
 1.60000000000000E+0003
  0
ARC
  8
0
 10
 6.00000000000000E+0001
 20
 1.54000000000000E+0003
 40
 6.00000000000000E+0001
 50
 9.00000000000000E+0001
 51
 1.80000000000000E+0002
  0
LINE
  8
0
 10
 0.00000000000000E+0000
 20
 1.54000000000000E+0003
 11
 0.00000000000000E+0000
 21
 6.00000000000000E+0001
  0
ARC
  8
0
 10
 6.00000000000000E+0001
 20
 6.00000000000000E+0001
 40
 6.00000000000000E+0001
 50
 1.80000000000000E+0002
 51
 2.70000000000000E+0002
  0
LINE
  8
0
 10
 6.00000000000000E+0001
 20
 0.00000000000000E+0000
 11
 1.19000000000000E+0003
 21
 0.00000000000000E+0000
  0
ARC
  8
0
 10
 1.19000000000000E+0003
 20
 6.00000000000000E+0001
 40
 4.50000000000000E+0001
 50
 2.70000000000000E+0002
 51
 3.60000000000000E+0002
  0
LINE
  8
0
 10
 1.23500000000000E+0003
 20
 6.00000000000000E+0001
 11
 1.23500000000000E+0003
 21
 1.54000000000000E+0003
  0
ARC
  8
0
 10
 1.19000000000000E+0003
 20
 1.54000000000000E+0003
 40
 4.50000000000000E+0001
 50
 0.00000000000000E+0000
 51
 9.00000000000000E+0001
  0
LINE
  8
0
 10
 1.19000000000000E+0003
 20
 1.58500000000000E+0003
 11
 6.00000000000000E+0001
 21
 1.58500000000000E+0003
  0
ARC
  8
0
 10
 6.00000000000000E+0001
 20
 1.54000000000000E+0003
 40
 4.50000000000000E+0001
 50
 9.00000000000000E+0001
 51
 1.80000000000000E+0002
  0
LINE
  8
0
 10
 1.50000000000000E+0001
 20
 1.54000000000000E+0003
 11
 1.50000000000000E+0001
 21
 6.00000000000000E+0001
  0
ARC
  8
0
 10
 6.00000000000000E+0001
 20
 6.00000000000000E+0001
 40
 4.50000000000000E+0001
 50
 1.80000000000000E+0002
 51
 2.70000000000000E+0002
  0
LINE
  8
0
 10
 6.00000000000000E+0001
 20
 1.50000000000000E+0001
 11
 1.19000000000000E+0003
 21
 1.50000000000000E+0001
  0
ARC
  8
0
 10
 1.19000000000000E+0003
 20
 6.00000000000000E+0001
 40
 2.50000000000000E+0001
 50
 2.70000000000000E+0002
 51
 3.60000000000000E+0002
  0
LINE
  8
0
 10
 1.21500000000000E+0003
 20
 6.00000000000000E+0001
 11
 1.21500000000000E+0003
 21
 1.54000000000000E+0003
  0
ARC
  8
0
 10
 1.19000000000000E+0003
 20
 1.54000000000000E+0003
 40
 2.50000000000000E+0001
 50
 0.00000000000000E+0000
 51
 9.00000000000000E+0001
  0
LINE
  8
0
 10
 1.19000000000000E+0003
 20
 1.56500000000000E+0003
 11
 6.00000000000000E+0001
 21
 1.56500000000000E+0003
  0
ARC
  8
0
 10
 6.00000000000000E+0001
 20
 1.54000000000000E+0003
 40
 2.50000000000000E+0001
 50
 9.00000000000000E+0001
 51
 1.80000000000000E+0002
  0
LINE
  8
0
 10
 3.50000000000000E+0001
 20
 1.54000000000000E+0003
 11
 3.50000000000000E+0001
 21
 6.00000000000000E+0001
  0
ARC
  8
0
 10
 6.00000000000000E+0001
 20
 6.00000000000000E+0001
 40
 2.50000000000000E+0001
 50
 1.80000000000000E+0002
 51
 2.70000000000000E+0002
  0
LINE
  8
0
 10
 6.00000000000000E+0001
 20
 3.50000000000000E+0001
 11
 1.19000000000000E+0003
 21
 3.50000000000000E+0001
  0
LINE
  8
0
 10
 3.30002000000000E+0002
 20
 1.29537550000000E+0003
 11
 3.75000000000000E+0002
 21
 1.30699250000000E+0003
  0
LINE
  8
0
 10
 3.75000000000000E+0002
 20
 1.30699250000000E+0003
 11
 3.75000000000000E+0002
 21
 1.26499680000000E+0003
  0
LINE
  8
0
 10
 3.75000000000000E+0002
 20
 1.26499680000000E+0003
 11
 3.74628506750700E+0002
 21
 1.25195320236650E+0003
  0
LINE
  8
0
 10
 3.74628506750700E+0002
 20
 1.25195320236650E+0003
 11
 3.74122713045600E+0002
 21
 1.23907648553200E+0003
  0
LINE
  8
0
 10
 3.74122713045600E+0002
 20
 1.23907648553200E+0003
 11
 3.73485351948900E+0002
 21
 1.22636326859550E+0003
  0
LINE
  8
0
 10
 3.73485351948900E+0002
 20
 1.22636326859550E+0003
 11
 3.72719156524800E+0002
 21
 1.21381017065600E+0003
  0
LINE
  8
0
 10
 3.72719156524800E+0002
 20
 1.21381017065600E+0003
 11
 3.71826859837500E+0002
 21
 1.20141381081250E+0003
  0
LINE
  8
0
 10
 3.71826859837500E+0002
 20
 1.20141381081250E+0003
 11
 3.70811194951200E+0002
 21
 1.18917080816400E+0003
  0
LINE
  8
0
 10
 3.70811194951200E+0002
 20
 1.18917080816400E+0003
 11
 3.69674894930100E+0002
 21
 1.17707778180950E+0003
  0
LINE
  8
0
 10
 3.69674894930100E+0002
 20
 1.17707778180950E+0003
 11
 3.68420692838400E+0002
 21
 1.16513135084800E+0003
  0
LINE
  8
0
 10
 3.68420692838400E+0002
 20
 1.16513135084800E+0003
 11
 3.67051321740300E+0002
 21
 1.15332813437850E+0003
  0
LINE
  8
0
 10
 3.67051321740300E+0002
 20
 1.15332813437850E+0003
 11
 3.65569514700000E+0002
 21
 1.14166475150000E+0003
  0
LINE
  8
0
 10
 3.65569514700000E+0002
 20
 1.14166475150000E+0003
 11
 3.63978004781700E+0002
 21
 1.13013782131150E+0003
  0
LINE
  8
0
 10
 3.63978004781700E+0002
 20
 1.13013782131150E+0003
 11
 3.62279525049600E+0002
 21
 1.11874396291200E+0003
  0
LINE
  8
0
 10
 3.62279525049600E+0002
 20
 1.11874396291200E+0003
 11
 3.60476808567900E+0002
 21
 1.10747979540050E+0003
  0
LINE
  8
0
 10
 3.60476808567900E+0002
 20
 1.10747979540050E+0003
 11
 3.58572588400800E+0002
 21
 1.09634193787600E+0003
  0
LINE
  8
0
 10
 3.58572588400800E+0002
 20
 1.09634193787600E+0003
 11
 3.56569597612500E+0002
 21
 1.08532700943750E+0003
  0
LINE
  8
0
 10
 3.56569597612500E+0002
 20
 1.08532700943750E+0003
 11
 3.54470569267200E+0002
 21
 1.07443162918400E+0003
  0
LINE
  8
0
 10
 3.54470569267200E+0002
 20
 1.07443162918400E+0003
 11
 3.52278236429100E+0002
 21
 1.06365241621450E+0003
  0
LINE
  8
0
 10
 3.52278236429100E+0002
 20
 1.06365241621450E+0003
 11
 3.49995332162400E+0002
 21
 1.05298598962800E+0003
  0
LINE
  8
0
 10
 3.49995332162400E+0002
 20
 1.05298598962800E+0003
 11
 3.47624589531300E+0002
 21
 1.04242896852350E+0003
  0
LINE
  8
0
 10
 3.47624589531300E+0002
 20
 1.04242896852350E+0003
 11
 3.45168741600000E+0002
 21
 1.03197797200000E+0003
  0
LINE
  8
0
 10
 3.45168741600000E+0002
 20
 1.03197797200000E+0003
 11
 3.42630521432700E+0002
 21
 1.02162961915650E+0003
  0
LINE
  8
0
 10
 3.42630521432700E+0002
 20
 1.02162961915650E+0003
 11
 3.40012662093600E+0002
 21
 1.01138052909200E+0003
  0
LINE
  8
0
 10
 3.40012662093600E+0002
 20
 1.01138052909200E+0003
 11
 3.37317896646900E+0002
 21
 1.00122732090550E+0003
  0
LINE
  8
0
 10
 3.37317896646900E+0002
 20
 1.00122732090550E+0003
 11
 3.34548958156800E+0002
 21
 9.91166613696000E+0002
  0
LINE
  8
0
 10
 3.34548958156800E+0002
 20
 9.91166613696000E+0002
 11
 3.31708579687500E+0002
 21
 9.81195026562500E+0002
  0
LINE
  8
0
 10
 3.31708579687500E+0002
 20
 9.81195026562500E+0002
 11
 3.28799494303200E+0002
 21
 9.71309178604000E+0002
  0
LINE
  8
0
 10
 3.28799494303200E+0002
 20
 9.71309178604000E+0002
 11
 3.25824435068100E+0002
 21
 9.61505688919500E+0002
  0
LINE
  8
0
 10
 3.25824435068100E+0002
 20
 9.61505688919500E+0002
 11
 3.22786135046400E+0002
 21
 9.51781176608000E+0002
  0
LINE
  8
0
 10
 3.22786135046400E+0002
 20
 9.51781176608000E+0002
 11
 3.19687327302300E+0002
 21
 9.42132260768500E+0002
  0
LINE
  8
0
 10
 3.19687327302300E+0002
 20
 9.42132260768500E+0002
 11
 3.16530744900000E+0002
 21
 9.32555560500000E+0002
  0
LINE
  8
0
 10
 3.16530744900000E+0002
 20
 9.32555560500000E+0002
 11
 3.13319120903700E+0002
 21
 9.23047694901500E+0002
  0
LINE
  8
0
 10
 3.13319120903700E+0002
 20
 9.23047694901500E+0002
 11
 3.10055188377600E+0002
 21
 9.13605283072000E+0002
  0
LINE
  8
0
 10
 3.10055188377600E+0002
 20
 9.13605283072000E+0002
 11
 3.06741680385900E+0002
 21
 9.04224944110500E+0002
  0
LINE
  8
0
 10
 3.06741680385900E+0002
 20
 9.04224944110500E+0002
 11
 3.03381329992800E+0002
 21
 8.94903297116000E+0002
  0
LINE
  8
0
 10
 3.03381329992800E+0002
 20
 8.94903297116000E+0002
 11
 2.99976870262500E+0002
 21
 8.85636961187500E+0002
  0
LINE
  8
0
 10
 2.99976870262500E+0002
 20
 8.85636961187500E+0002
 11
 2.96531034259200E+0002
 21
 8.76422555424000E+0002
  0
LINE
  8
0
 10
 2.96531034259200E+0002
 20
 8.76422555424000E+0002
 11
 2.93046555047100E+0002
 21
 8.67256698924500E+0002
  0
LINE
  8
0
 10
 2.93046555047100E+0002
 20
 8.67256698924500E+0002
 11
 2.89526165690400E+0002
 21
 8.58136010788000E+0002
  0
LINE
  8
0
 10
 2.89526165690400E+0002
 20
 8.58136010788000E+0002
 11
 2.85972599253300E+0002
 21
 8.49057110113500E+0002
  0
LINE
  8
0
 10
 2.85972599253300E+0002
 20
 8.49057110113500E+0002
 11
 2.82388588800000E+0002
 21
 8.40016616000000E+0002
  0
LINE
  8
0
 10
 2.82388588800000E+0002
 20
 8.40016616000000E+0002
 11
 2.78776867394700E+0002
 21
 8.31011147546500E+0002
  0
LINE
  8
0
 10
 2.78776867394700E+0002
 20
 8.31011147546500E+0002
 11
 2.75140168101600E+0002
 21
 8.22037323852000E+0002
  0
LINE
  8
0
 10
 2.75140168101600E+0002
 20
 8.22037323852000E+0002
 11
 2.71481223984900E+0002
 21
 8.13091764015500E+0002
  0
LINE
  8
0
 10
 2.71481223984900E+0002
 20
 8.13091764015500E+0002
 11
 2.67802768108800E+0002
 21
 8.04171087136000E+0002
  0
LINE
  8
0
 10
 2.67802768108800E+0002
 20
 8.04171087136000E+0002
 11
 2.64107533537500E+0002
 21
 7.95271912312500E+0002
  0
LINE
  8
0
 10
 2.64107533537500E+0002
 20
 7.95271912312500E+0002
 11
 2.60398253335200E+0002
 21
 7.86390858644000E+0002
  0
LINE
  8
0
 10
 2.60398253335200E+0002
 20
 7.86390858644000E+0002
 11
 2.56677660566100E+0002
 21
 7.77524545229500E+0002
  0
LINE
  8
0
 10
 2.56677660566100E+0002
 20
 7.77524545229500E+0002
 11
 2.52948488294400E+0002
 21
 7.68669591168000E+0002
  0
LINE
  8
0
 10
 2.52948488294400E+0002
 20
 7.68669591168000E+0002
 11
 2.49213469584300E+0002
 21
 7.59822615558500E+0002
  0
LINE
  8
0
 10
 2.49213469584300E+0002
 20
 7.59822615558500E+0002
 11
 2.45475337500000E+0002
 21
 7.50980237500000E+0002
  0
LINE
  8
0
 10
 2.45475337500000E+0002
 20
 7.50980237500000E+0002
 11
 2.41736825105700E+0002
 21
 7.42139076091500E+0002
  0
LINE
  8
0
 10
 2.41736825105700E+0002
 20
 7.42139076091500E+0002
 11
 2.38000665465600E+0002
 21
 7.33295750432000E+0002
  0
LINE
  8
0
 10
 2.38000665465600E+0002
 20
 7.33295750432000E+0002
 11
 2.34269591643900E+0002
 21
 7.24446879620500E+0002
  0
LINE
  8
0
 10
 2.34269591643900E+0002
 20
 7.24446879620500E+0002
 11
 2.30546336704800E+0002
 21
 7.15589082756000E+0002
  0
LINE
  8
0
 10
 2.30546336704800E+0002
 20
 7.15589082756000E+0002
 11
 2.26833633712500E+0002
 21
 7.06718978937500E+0002
  0
LINE
  8
0
 10
 2.26833633712500E+0002
 20
 7.06718978937500E+0002
 11
 2.23134215731200E+0002
 21
 6.97833187264000E+0002
  0
LINE
  8
0
 10
 2.23134215731200E+0002
 20
 6.97833187264000E+0002
 11
 2.19450815825100E+0002
 21
 6.88928326834500E+0002
  0
LINE
  8
0
 10
 2.19450815825100E+0002
 20
 6.88928326834500E+0002
 11
 2.15786167058400E+0002
 21
 6.80001016748000E+0002
  0
LINE
  8
0
 10
 2.15786167058400E+0002
 20
 6.80001016748000E+0002
 11
 2.12143002495300E+0002
 21
 6.71047876103500E+0002
  0
LINE
  8
0
 10
 2.12143002495300E+0002
 20
 6.71047876103500E+0002
 11
 2.08524055200000E+0002
 21
 6.62065524000000E+0002
  0
LINE
  8
0
 10
 2.08524055200000E+0002
 20
 6.62065524000000E+0002
 11
 2.04932058236700E+0002
 21
 6.53050579536500E+0002
  0
LINE
  8
0
 10
 2.04932058236700E+0002
 20
 6.53050579536500E+0002
 11
 2.01369744669600E+0002
 21
 6.43999661812000E+0002
  0
LINE
  8
0
 10
 2.01369744669600E+0002
 20
 6.43999661812000E+0002
 11
 1.97839847562900E+0002
 21
 6.34909389925500E+0002
  0
LINE
  8
0
 10
 1.97839847562900E+0002
 20
 6.34909389925500E+0002
 11
 1.94345099980800E+0002
 21
 6.25776382976000E+0002
  0
LINE
  8
0
 10
 1.94345099980800E+0002
 20
 6.25776382976000E+0002
 11
 1.90888234987500E+0002
 21
 6.16597260062500E+0002
  0
LINE
  8
0
 10
 1.90888234987500E+0002
 20
 6.16597260062500E+0002
 11
 1.87471985647200E+0002
 21
 6.07368640284000E+0002
  0
LINE
  8
0
 10
 1.87471985647200E+0002
 20
 6.07368640284000E+0002
 11
 1.84099085024100E+0002
 21
 5.98087142739500E+0002
  0
LINE
  8
0
 10
 1.84099085024100E+0002
 20
 5.98087142739500E+0002
 11
 1.80772266182400E+0002
 21
 5.88749386528000E+0002
  0
LINE
  8
0
 10
 1.80772266182400E+0002
 20
 5.88749386528000E+0002
 11
 1.77494262186300E+0002
 21
 5.79351990748500E+0002
  0
LINE
  8
0
 10
 1.77494262186300E+0002
 20
 5.79351990748500E+0002
 11
 1.74267806100000E+0002
 21
 5.69891574500000E+0002
  0
LINE
  8
0
 10
 1.74267806100000E+0002
 20
 5.69891574500000E+0002
 11
 1.71095630987700E+0002
 21
 5.60364756881500E+0002
  0
LINE
  8
0
 10
 1.71095630987700E+0002
 20
 5.60364756881500E+0002
 11
 1.67980469913600E+0002
 21
 5.50768156992000E+0002
  0
LINE
  8
0
 10
 1.67980469913600E+0002
 20
 5.50768156992000E+0002
 11
 1.64925055941900E+0002
 21
 5.41098393930500E+0002
  0
LINE
  8
0
 10
 1.64925055941900E+0002
 20
 5.41098393930500E+0002
 11
 1.61932122136800E+0002
 21
 5.31352086796000E+0002
  0
LINE
  8
0
 10
 1.61932122136800E+0002
 20
 5.31352086796000E+0002
 11
 1.59004401562500E+0002
 21
 5.21525854687500E+0002
  0
LINE
  8
0
 10
 1.59004401562500E+0002
 20
 5.21525854687500E+0002
 11
 1.56144627283200E+0002
 21
 5.11616316704000E+0002
  0
LINE
  8
0
 10
 1.56144627283200E+0002
 20
 5.11616316704000E+0002
 11
 1.53355532363100E+0002
 21
 5.01620091944500E+0002
  0
LINE
  8
0
 10
 1.53355532363100E+0002
 20
 5.01620091944500E+0002
 11
 1.50639849866400E+0002
 21
 4.91533799508000E+0002
  0
LINE
  8
0
 10
 1.50639849866400E+0002
 20
 4.91533799508000E+0002
 11
 1.48000312857300E+0002
 21
 4.81354058493500E+0002
  0
LINE
  8
0
 10
 1.48000312857300E+0002
 20
 4.81354058493500E+0002
 11
 1.45439654400000E+0002
 21
 4.71077488000000E+0002
  0
LINE
  8
0
 10
 1.45439654400000E+0002
 20
 4.71077488000000E+0002
 11
 1.42960607558700E+0002
 21
 4.60700707126500E+0002
  0
LINE
  8
0
 10
 1.42960607558700E+0002
 20
 4.60700707126500E+0002
 11
 1.40565905397600E+0002
 21
 4.50220334972000E+0002
  0
LINE
  8
0
 10
 1.40565905397600E+0002
 20
 4.50220334972000E+0002
 11
 1.38258280980900E+0002
 21
 4.39632990635500E+0002
  0
LINE
  8
0
 10
 1.38258280980900E+0002
 20
 4.39632990635500E+0002
 11
 1.36040467372800E+0002
 21
 4.28935293216000E+0002
  0
LINE
  8
0
 10
 1.36040467372800E+0002
 20
 4.28935293216000E+0002
 11
 1.33915197637500E+0002
 21
 4.18123861812500E+0002
  0
LINE
  8
0
 10
 1.33915197637500E+0002
 20
 4.18123861812500E+0002
 11
 1.31885204839200E+0002
 21
 4.07195315524000E+0002
  0
LINE
  8
0
 10
 1.31885204839200E+0002
 20
 4.07195315524000E+0002
 11
 1.29953222042100E+0002
 21
 3.96146273449500E+0002
  0
LINE
  8
0
 10
 1.29953222042100E+0002
 20
 3.96146273449500E+0002
 11
 1.28121982310400E+0002
 21
 3.84973354688000E+0002
  0
LINE
  8
0
 10
 1.28121982310400E+0002
 20
 3.84973354688000E+0002
 11
 1.26394218708300E+0002
 21
 3.73673178338500E+0002
  0
LINE
  8
0
 10
 1.26394218708300E+0002
 20
 3.73673178338500E+0002
 11
 1.24772664300000E+0002
 21
 3.62242363500000E+0002
  0
LINE
  8
0
 10
 1.24772664300000E+0002
 20
 3.62242363500000E+0002
 11
 1.23260052149700E+0002
 21
 3.50677529271500E+0002
  0
LINE
  8
0
 10
 1.23260052149700E+0002
 20
 3.50677529271500E+0002
 11
 1.21859115321600E+0002
 21
 3.38975294752000E+0002
  0
LINE
  8
0
 10
 1.21859115321600E+0002
 20
 3.38975294752000E+0002
 11
 1.20572586879900E+0002
 21
 3.27132279040500E+0002
  0
LINE
  8
0
 10
 1.20572586879900E+0002
 20
 3.27132279040500E+0002
 11
 1.19403199888800E+0002
 21
 3.15145101236000E+0002
  0
LINE
  8
0
 10
 1.19403199888800E+0002
 20
 3.15145101236000E+0002
 11
 1.18353687412500E+0002
 21
 3.03010380437500E+0002
  0
LINE
  8
0
 10
 1.18353687412500E+0002
 20
 3.03010380437500E+0002
 11
 1.17426782515200E+0002
 21
 2.90724735744000E+0002
  0
LINE
  8
0
 10
 1.17426782515200E+0002
 20
 2.90724735744000E+0002
 11
 1.16625218261100E+0002
 21
 2.78284786254500E+0002
  0
LINE
  8
0
 10
 1.16625218261100E+0002
 20
 2.78284786254500E+0002
 11
 1.15951727714400E+0002
 21
 2.65687151068000E+0002
  0
LINE
  8
0
 10
 1.15951727714400E+0002
 20
 2.65687151068000E+0002
 11
 1.15409043939300E+0002
 21
 2.52928449283500E+0002
  0
LINE
  8
0
 10
 1.15409043939300E+0002
 20
 2.52928449283500E+0002
 11
 1.14999900000000E+0002
 21
 2.40005300000000E+0002
  0
LINE
  8
0
 10
 1.14999900000000E+0002
 20
 2.40005300000000E+0002
 11
 1.15000000000000E+0002
 21
 1.55000100000000E+0002
  0
LINE
  8
0
 10
 1.15000000000000E+0002
 20
 1.55000100000000E+0002
 11
 1.75000000000000E+0002
 21
 1.55000100000000E+0002
  0
LINE
  8
0
 10
 1.75000000000000E+0002
 20
 1.55000100000000E+0002
 11
 1.75000000000000E+0002
 21
 2.40005300000000E+0002
  0
LINE
  8
0
 10
 1.75000000000000E+0002
 20
 2.40005300000000E+0002
 11
 1.75409126387300E+0002
 21
 2.52928449294400E+0002
  0
LINE
  8
0
 10
 1.75409126387300E+0002
 20
 2.52928449294400E+0002
 11
 1.75951793498400E+0002
 21
 2.65687151155200E+0002
  0
LINE
  8
0
 10
 1.75951793498400E+0002
 20
 2.65687151155200E+0002
 11
 1.76625268257100E+0002
 21
 2.78284786548800E+0002
  0
LINE
  8
0
 10
 1.76625268257100E+0002
 20
 2.78284786548800E+0002
 11
 1.77426817587200E+0002
 21
 2.90724736441600E+0002
  0
LINE
  8
0
 10
 1.77426817587200E+0002
 20
 2.90724736441600E+0002
 11
 1.78353708412500E+0002
 21
 3.03010381800000E+0002
  0
LINE
  8
0
 10
 1.78353708412500E+0002
 20
 3.03010381800000E+0002
 11
 1.79403207656800E+0002
 21
 3.15145103590400E+0002
  0
LINE
  8
0
 10
 1.79403207656800E+0002
 20
 3.15145103590400E+0002
 11
 1.80572582243900E+0002
 21
 3.27132282779200E+0002
  0
LINE
  8
0
 10
 1.80572582243900E+0002
 20
 3.27132282779200E+0002
 11
 1.81859099097600E+0002
 21
 3.38975300332800E+0002
  0
LINE
  8
0
 10
 1.81859099097600E+0002
 20
 3.38975300332800E+0002
 11
 1.83260025141700E+0002
 21
 3.50677537217600E+0002
  0
LINE
  8
0
 10
 1.83260025141700E+0002
 20
 3.50677537217600E+0002
 11
 1.84772627300000E+0002
 21
 3.62242374400000E+0002
  0
LINE
  8
0
 10
 1.84772627300000E+0002
 20
 3.62242374400000E+0002
 11
 1.86394172496300E+0002
 21
 3.73673192846400E+0002
  0
LINE
  8
0
 10
 1.86394172496300E+0002
 20
 3.73673192846400E+0002
 11
 1.88121927654400E+0002
 21
 3.84973373523200E+0002
  0
LINE
  8
0
 10
 1.88121927654400E+0002
 20
 3.84973373523200E+0002
 11
 1.89953159698100E+0002
 21
 3.96146297396800E+0002
  0
LINE
  8
0
 10
 1.89953159698100E+0002
 20
 3.96146297396800E+0002
 11
 1.91885135551200E+0002
 21
 4.07195345433600E+0002
  0
LINE
  8
0
 10
 1.91885135551200E+0002
 20
 4.07195345433600E+0002
 11
 1.93915122137500E+0002
 21
 4.18123898600000E+0002
  0
LINE
  8
0
 10
 1.93915122137500E+0002
 20
 4.18123898600000E+0002
 11
 1.96040386380800E+0002
 21
 4.28935337862400E+0002
  0
LINE
  8
0
 10
 1.96040386380800E+0002
 20
 4.28935337862400E+0002
 11
 1.98258195204900E+0002
 21
 4.39633044187200E+0002
  0
LINE
  8
0
 10
 1.98258195204900E+0002
 20
 4.39633044187200E+0002
 11
 2.00565815533600E+0002
 21
 4.50220398540800E+0002
  0
LINE
  8
0
 10
 2.00565815533600E+0002
 20
 4.50220398540800E+0002
 11
 2.02960514290700E+0002
 21
 4.60700781889600E+0002
  0
LINE
  8
0
 10
 2.02960514290700E+0002
 20
 4.60700781889600E+0002
 11
 2.05439558400000E+0002
 21
 4.71077575200000E+0002
  0
LINE
  8
0
 10
 2.05439558400000E+0002
 20
 4.71077575200000E+0002
 11
 2.08000214785300E+0002
 21
 4.81354159438400E+0002
  0
LINE
  8
0
 10
 2.08000214785300E+0002
 20
 4.81354159438400E+0002
 11
 2.10639750370400E+0002
 21
 4.91533915571200E+0002
  0
LINE
  8
0
 10
 2.10639750370400E+0002
 20
 4.91533915571200E+0002
 11
 2.13355432079100E+0002
 21
 5.01620224564800E+0002
  0
LINE
  8
0
 10
 2.13355432079100E+0002
 20
 5.01620224564800E+0002
 11
 2.16144526835200E+0002
 21
 5.11616467385600E+0002
  0
LINE
  8
0
 10
 2.16144526835200E+0002
 20
 5.11616467385600E+0002
 11
 2.19004301562500E+0002
 21
 5.21526025000000E+0002
  0
LINE
  8
0
 10
 2.19004301562500E+0002
 20
 5.21526025000000E+0002
 11
 2.21932023184800E+0002
 21
 5.31352278374400E+0002
  0
LINE
  8
0
 10
 2.21932023184800E+0002
 20
 5.31352278374400E+0002
 11
 2.24924958625900E+0002
 21
 5.41098608475200E+0002
  0
LINE
  8
0
 10
 2.24924958625900E+0002
 20
 5.41098608475200E+0002
 11
 2.27980374809600E+0002
 21
 5.50768396268800E+0002
  0
LINE
  8
0
 10
 2.27980374809600E+0002
 20
 5.50768396268800E+0002
 11
 2.31095538659700E+0002
 21
 5.60365022721600E+0002
  0
LINE
  8
0
 10
 2.31095538659700E+0002
 20
 5.60365022721600E+0002
 11
 2.34267717100000E+0002
 21
 5.69891868800000E+0002
  0
LINE
  8
0
 10
 2.34267717100000E+0002
 20
 5.69891868800000E+0002
 11
 2.37494177054300E+0002
 21
 5.79352315470400E+0002
  0
LINE
  8
0
 10
 2.37494177054300E+0002
 20
 5.79352315470400E+0002
 11
 2.40772185446400E+0002
 21
 5.88749743699200E+0002
  0
LINE
  8
0
 10
 2.40772185446400E+0002
 20
 5.88749743699200E+0002
 11
 2.44099009200100E+0002
 21
 5.98087534452800E+0002
  0
LINE
  8
0
 10
 2.44099009200100E+0002
 20
 5.98087534452800E+0002
 11
 2.47471915239200E+0002
 21
 6.07369068697600E+0002
  0
LINE
  8
0
 10
 2.47471915239200E+0002
 20
 6.07369068697600E+0002
 11
 2.50888170487500E+0002
 21
 6.16597727400000E+0002
  0
LINE
  8
0
 10
 2.50888170487500E+0002
 20
 6.16597727400000E+0002
 11
 2.54345041868800E+0002
 21
 6.25776891526400E+0002
  0
LINE
  8
0
 10
 2.54345041868800E+0002
 20
 6.25776891526400E+0002
 11
 2.57839796306900E+0002
 21
 6.34909942043200E+0002
  0
LINE
  8
0
 10
 2.57839796306900E+0002
 20
 6.34909942043200E+0002
 11
 2.61369700725600E+0002
 21
 6.44000259916800E+0002
  0
LINE
  8
0
 10
 2.61369700725600E+0002
 20
 6.44000259916800E+0002
 11
 2.64932022048700E+0002
 21
 6.53051226113600E+0002
  0
LINE
  8
0
 10
 2.64932022048700E+0002
 20
 6.53051226113600E+0002
 11
 2.68524027200000E+0002
 21
 6.62066221600000E+0002
  0
LINE
  8
0
 10
 2.68524027200000E+0002
 20
 6.62066221600000E+0002
 11
 2.72142983103300E+0002
 21
 6.71048627342400E+0002
  0
LINE
  8
0
 10
 2.72142983103300E+0002
 20
 6.71048627342400E+0002
 11
 2.75786156682400E+0002
 21
 6.80001824307200E+0002
  0
LINE
  8
0
 10
 2.75786156682400E+0002
 20
 6.80001824307200E+0002
 11
 2.79450814861100E+0002
 21
 6.88929193460800E+0002
  0
LINE
  8
0
 10
 2.79450814861100E+0002
 20
 6.88929193460800E+0002
 11
 2.83134224563200E+0002
 21
 6.97834115769600E+0002
  0
LINE
  8
0
 10
 2.83134224563200E+0002
 20
 6.97834115769600E+0002
 11
 2.86833652712500E+0002
 21
 7.06719972200000E+0002
  0
LINE
  8
0
 10
 2.86833652712500E+0002
 20
 7.06719972200000E+0002
 11
 2.90546366232800E+0002
 21
 7.15590143718400E+0002
  0
LINE
  8
0
 10
 2.90546366232800E+0002
 20
 7.15590143718400E+0002
 11
 2.94269632047900E+0002
 21
 7.24448011291200E+0002
  0
LINE
  8
0
 10
 2.94269632047900E+0002
 20
 7.24448011291200E+0002
 11
 2.98000717081600E+0002
 21
 7.33296955884800E+0002
  0
LINE
  8
0
 10
 2.98000717081600E+0002
 20
 7.33296955884800E+0002
 11
 3.01736888257700E+0002
 21
 7.42140358465600E+0002
  0
LINE
  8
0
 10
 3.01736888257700E+0002
 20
 7.42140358465600E+0002
 11
 3.05475412500000E+0002
 21
 7.50981600000000E+0002
  0
LINE
  8
0
 10
 3.05475412500000E+0002
 20
 7.50981600000000E+0002
 11
 3.09213556732300E+0002
 21
 7.59824061454400E+0002
  0
LINE
  8
0
 10
 3.09213556732300E+0002
 20
 7.59824061454400E+0002
 11
 3.12948587878400E+0002
 21
 7.68671123795200E+0002
  0
LINE
  8
0
 10
 3.12948587878400E+0002
 20
 7.68671123795200E+0002
 11
 3.16677772862100E+0002
 21
 7.77526167988800E+0002
  0
LINE
  8
0
 10
 3.16677772862100E+0002
 20
 7.77526167988800E+0002
 11
 3.20398378607200E+0002
 21
 7.86392575001600E+0002
  0
LINE
  8
0
 10
 3.20398378607200E+0002
 20
 7.86392575001600E+0002
 11
 3.24107672037500E+0002
 21
 7.95273725800000E+0002
  0
LINE
  8
0
 10
 3.24107672037500E+0002
 20
 7.95273725800000E+0002
 11
 3.27802920076800E+0002
 21
 8.04173001350400E+0002
  0
LINE
  8
0
 10
 3.27802920076800E+0002
 20
 8.04173001350400E+0002
 11
 3.31481389648900E+0002
 21
 8.13093782619200E+0002
  0
LINE
  8
0
 10
 3.31481389648900E+0002
 20
 8.13093782619200E+0002
 11
 3.35140347677600E+0002
 21
 8.22039450572800E+0002
  0
LINE
  8
0
 10
 3.35140347677600E+0002
 20
 8.22039450572800E+0002
 11
 3.38777061086700E+0002
 21
 8.31013386177600E+0002
  0
LINE
  8
0
 10
 3.38777061086700E+0002
 20
 8.31013386177600E+0002
 11
 3.42388796800000E+0002
 21
 8.40018970400000E+0002
  0
LINE
  8
0
 10
 3.42388796800000E+0002
 20
 8.40018970400000E+0002
 11
 3.45972821741300E+0002
 21
 8.49059584206400E+0002
  0
LINE
  8
0
 10
 3.45972821741300E+0002
 20
 8.49059584206400E+0002
 11
 3.49526402834400E+0002
 21
 8.58138608563200E+0002
  0
LINE
  8
0
 10
 3.49526402834400E+0002
 20
 8.58138608563200E+0002
 11
 3.53046807003100E+0002
 21
 8.67259424436800E+0002
  0
LINE
  8
0
 10
 3.53046807003100E+0002
 20
 8.67259424436800E+0002
 11
 3.56531301171200E+0002
 21
 8.76425412793600E+0002
  0
LINE
  8
0
 10
 3.56531301171200E+0002
 20
 8.76425412793600E+0002
 11
 3.59977152262500E+0002
 21
 8.85639954600000E+0002
  0
LINE
  8
0
 10
 3.59977152262500E+0002
 20
 8.85639954600000E+0002
 11
 3.63381627200800E+0002
 21
 8.94906430822400E+0002
  0
LINE
  8
0
 10
 3.63381627200800E+0002
 20
 8.94906430822400E+0002
 11
 3.66741992909900E+0002
 21
 9.04228222427200E+0002
  0
LINE
  8
0
 10
 3.66741992909900E+0002
 20
 9.04228222427200E+0002
 11
 3.70055516313600E+0002
 21
 9.13608710380800E+0002
  0
LINE
  8
0
 10
 3.70055516313600E+0002
 20
 9.13608710380800E+0002
 11
 3.73319464335700E+0002
 21
 9.23051275649600E+0002
  0
LINE
  8
0
 10
 3.73319464335700E+0002
 20
 9.23051275649600E+0002
 11
 3.76531103900000E+0002
 21
 9.32559299200000E+0002
  0
LINE
  8
0
 10
 3.76531103900000E+0002
 20
 9.32559299200000E+0002
 11
 3.79687701930300E+0002
 21
 9.42136161998400E+0002
  0
LINE
  8
0
 10
 3.79687701930300E+0002
 20
 9.42136161998400E+0002
 11
 3.82786525350400E+0002
 21
 9.51785245011200E+0002
  0
LINE
  8
0
 10
 3.82786525350400E+0002
 20
 9.51785245011200E+0002
 11
 3.85824841084100E+0002
 21
 9.61509929204800E+0002
  0
LINE
  8
0
 10
 3.85824841084100E+0002
 20
 9.61509929204800E+0002
 11
 3.88799916055200E+0002
 21
 9.71313595545600E+0002
  0
LINE
  8
0
 10
 3.88799916055200E+0002
 20
 9.71313595545600E+0002
 11
 3.91709017187500E+0002
 21
 9.81199625000000E+0002
  0
LINE
  8
0
 10
 3.91709017187500E+0002
 20
 9.81199625000000E+0002
 11
 3.94549411404800E+0002
 21
 9.91171398534400E+0002
  0
LINE
  8
0
 10
 3.94549411404800E+0002
 20
 9.91171398534400E+0002
 11
 3.97318365630900E+0002
 21
 1.00123229711520E+0003
  0
LINE
  8
0
 10
 3.97318365630900E+0002
 20
 1.00123229711520E+0003
 11
 4.00013146789600E+0002
 21
 1.01138570170880E+0003
  0
LINE
  8
0
 10
 4.00013146789600E+0002
 20
 1.01138570170880E+0003
 11
 4.02631021804700E+0002
 21
 1.02163499328160E+0003
  0
LINE
  8
0
 10
 4.02631021804700E+0002
 20
 1.02163499328160E+0003
 11
 4.05169257600000E+0002
 21
 1.03198355280000E+0003
  0
LINE
  8
0
 10
 4.05169257600000E+0002
 20
 1.03198355280000E+0003
 11
 4.07625121099300E+0002
 21
 1.04243476123040E+0003
  0
LINE
  8
0
 10
 4.07625121099300E+0002
 20
 1.04243476123040E+0003
 11
 4.09995879226400E+0002
 21
 1.05299199953920E+0003
  0
LINE
  8
0
 10
 4.09995879226400E+0002
 20
 1.05299199953920E+0003
 11
 4.12278798905100E+0002
 21
 1.06365864869280E+0003
  0
LINE
  8
0
 10
 4.12278798905100E+0002
 20
 1.06365864869280E+0003
 11
 4.14471147059200E+0002
 21
 1.07443808965760E+0003
  0
LINE
  8
0
 10
 4.14471147059200E+0002
 20
 1.07443808965760E+0003
 11
 4.16570190612500E+0002
 21
 1.08533370340000E+0003
  0
LINE
  8
0
 10
 4.16570190612500E+0002
 20
 1.08533370340000E+0003
 11
 4.18573196488800E+0002
 21
 1.09634887088640E+0003
  0
LINE
  8
0
 10
 4.18573196488800E+0002
 20
 1.09634887088640E+0003
 11
 4.20477431611900E+0002
 21
 1.10748697308320E+0003
  0
LINE
  8
0
 10
 4.20477431611900E+0002
 20
 1.10748697308320E+0003
 11
 4.22280162905600E+0002
 21
 1.11875139095680E+0003
  0
LINE
  8
0
 10
 4.22280162905600E+0002
 20
 1.11875139095680E+0003
 11
 4.23978657293700E+0002
 21
 1.13014550547360E+0003
  0
LINE
  8
0
 10
 4.23978657293700E+0002
 20
 1.13014550547360E+0003
 11
 4.25570181700000E+0002
 21
 1.14167269760000E+0003
  0
LINE
  8
0
 10
 4.25570181700000E+0002
 20
 1.14167269760000E+0003
 11
 4.27052003048300E+0002
 21
 1.15333634830240E+0003
  0
LINE
  8
0
 10
 4.27052003048300E+0002
 20
 1.15333634830240E+0003
 11
 4.28421388262400E+0002
 21
 1.16513983854720E+0003
  0
LINE
  8
0
 10
 4.28421388262400E+0002
 20
 1.16513983854720E+0003
 11
 4.29675604266100E+0002
 21
 1.17708654930080E+0003
  0
LINE
  8
0
 10
 4.29675604266100E+0002
 20
 1.17708654930080E+0003
 11
 4.30811917983200E+0002
 21
 1.18917986152960E+0003
  0
LINE
  8
0
 10
 4.30811917983200E+0002
 20
 1.18917986152960E+0003
 11
 4.31827596337500E+0002
 21
 1.20142315620000E+0003
  0
LINE
  8
0
 10
 4.31827596337500E+0002
 20
 1.20142315620000E+0003
 11
 4.32719906252800E+0002
 21
 1.21381981427840E+0003
  0
LINE
  8
0
 10
 4.32719906252800E+0002
 20
 1.21381981427840E+0003
 11
 4.33486114652900E+0002
 21
 1.22637321673120E+0003
  0
LINE
  8
0
 10
 4.33486114652900E+0002
 20
 1.22637321673120E+0003
 11
 4.34123488461600E+0002
 21
 1.23908674452480E+0003
  0
LINE
  8
0
 10
 4.34123488461600E+0002
 20
 1.23908674452480E+0003
 11
 4.34629294602700E+0002
 21
 1.25196377862560E+0003
  0
LINE
  8
0
 10
 4.34629294602700E+0002
 20
 1.25196377862560E+0003
 11
 4.35000800000000E+0002
 21
 1.26500770000000E+0003
  0
LINE
  8
0
 10
 4.35000800000000E+0002
 20
 1.26500770000000E+0003
 11
 4.35001000000000E+0002
 21
 1.30699250000000E+0003
  0
LINE
  8
0
 10
 4.35001000000000E+0002
 20
 1.30699250000000E+0003
 11
 4.79997467680775E+0002
 21
 1.29538170409776E+0003
  0
ARC
  8
0
 10
 4.83000000000000E+0002
 20
 1.30700000000000E+0003
 40
 1.20000000000000E+0001
 50
 2.55510000000000E+0002
 51
 3.93600000000000E+0002
  0
LINE
  8
0
 10
 4.92995054888521E+0002
 20
 1.31364069859092E+0003
 11
 4.05001000000000E+0002
 21
 1.44500000000000E+0003
  0
LINE
  8
0
 10
 4.05001000000000E+0002
 20
 1.44500000000000E+0003
 11
 3.17011904713912E+0002
 21
 1.31375116174484E+0003
  0
ARC
  8
0
 10
 3.27000000000000E+0002
 20
 1.30710000000000E+0003
 40
 1.20000000000000E+0001
 50
 1.46340000000000E+0002
 51
 2.84365000000000E+0002
  0
LINE
  8
0
 10
 3.29977178004217E+0002
 20
 1.29547518124308E+0003
 11
 3.30002000000000E+0002
 21
 1.29537550000000E+0003
  0
LINE
  8
0
 10
 5.90002000000000E+0002
 20
 1.29537550000000E+0003
 11
 6.35000000000000E+0002
 21
 1.30699250000000E+0003
  0
LINE
  8
0
 10
 6.35000000000000E+0002
 20
 1.30699250000000E+0003
 11
 6.35000000000000E+0002
 21
 1.26499680000000E+0003
  0
LINE
  8
0
 10
 6.35000000000000E+0002
 20
 1.26499680000000E+0003
 11
 6.34628506750700E+0002
 21
 1.25195320236650E+0003
  0
LINE
  8
0
 10
 6.34628506750700E+0002
 20
 1.25195320236650E+0003
 11
 6.34122713045600E+0002
 21
 1.23907648553200E+0003
  0
LINE
  8
0
 10
 6.34122713045600E+0002
 20
 1.23907648553200E+0003
 11
 6.33485351948900E+0002
 21
 1.22636326859550E+0003
  0
LINE
  8
0
 10
 6.33485351948900E+0002
 20
 1.22636326859550E+0003
 11
 6.32719156524800E+0002
 21
 1.21381017065600E+0003
  0
LINE
  8
0
 10
 6.32719156524800E+0002
 20
 1.21381017065600E+0003
 11
 6.31826859837500E+0002
 21
 1.20141381081250E+0003
  0
LINE
  8
0
 10
 6.31826859837500E+0002
 20
 1.20141381081250E+0003
 11
 6.30811194951200E+0002
 21
 1.18917080816400E+0003
  0
LINE
  8
0
 10
 6.30811194951200E+0002
 20
 1.18917080816400E+0003
 11
 6.29674894930100E+0002
 21
 1.17707778180950E+0003
  0
LINE
  8
0
 10
 6.29674894930100E+0002
 20
 1.17707778180950E+0003
 11
 6.28420692838400E+0002
 21
 1.16513135084800E+0003
  0
LINE
  8
0
 10
 6.28420692838400E+0002
 20
 1.16513135084800E+0003
 11
 6.27051321740300E+0002
 21
 1.15332813437850E+0003
  0
LINE
  8
0
 10
 6.27051321740300E+0002
 20
 1.15332813437850E+0003
 11
 6.25569514700000E+0002
 21
 1.14166475150000E+0003
  0
LINE
  8
0
 10
 6.25569514700000E+0002
 20
 1.14166475150000E+0003
 11
 6.23978004781700E+0002
 21
 1.13013782131150E+0003
  0
LINE
  8
0
 10
 6.23978004781700E+0002
 20
 1.13013782131150E+0003
 11
 6.22279525049600E+0002
 21
 1.11874396291200E+0003
  0
LINE
  8
0
 10
 6.22279525049600E+0002
 20
 1.11874396291200E+0003
 11
 6.20476808567900E+0002
 21
 1.10747979540050E+0003
  0
LINE
  8
0
 10
 6.20476808567900E+0002
 20
 1.10747979540050E+0003
 11
 6.18572588400800E+0002
 21
 1.09634193787600E+0003
  0
LINE
  8
0
 10
 6.18572588400800E+0002
 20
 1.09634193787600E+0003
 11
 6.16569597612500E+0002
 21
 1.08532700943750E+0003
  0
LINE
  8
0
 10
 6.16569597612500E+0002
 20
 1.08532700943750E+0003
 11
 6.14470569267200E+0002
 21
 1.07443162918400E+0003
  0
LINE
  8
0
 10
 6.14470569267200E+0002
 20
 1.07443162918400E+0003
 11
 6.12278236429100E+0002
 21
 1.06365241621450E+0003
  0
LINE
  8
0
 10
 6.12278236429100E+0002
 20
 1.06365241621450E+0003
 11
 6.09995332162400E+0002
 21
 1.05298598962800E+0003
  0
LINE
  8
0
 10
 6.09995332162400E+0002
 20
 1.05298598962800E+0003
 11
 6.07624589531300E+0002
 21
 1.04242896852350E+0003
  0
LINE
  8
0
 10
 6.07624589531300E+0002
 20
 1.04242896852350E+0003
 11
 6.05168741600000E+0002
 21
 1.03197797200000E+0003
  0
LINE
  8
0
 10
 6.05168741600000E+0002
 20
 1.03197797200000E+0003
 11
 6.02630521432700E+0002
 21
 1.02162961915650E+0003
  0
LINE
  8
0
 10
 6.02630521432700E+0002
 20
 1.02162961915650E+0003
 11
 6.00012662093600E+0002
 21
 1.01138052909200E+0003
  0
LINE
  8
0
 10
 6.00012662093600E+0002
 20
 1.01138052909200E+0003
 11
 5.97317896646900E+0002
 21
 1.00122732090550E+0003
  0
LINE
  8
0
 10
 5.97317896646900E+0002
 20
 1.00122732090550E+0003
 11
 5.94548958156800E+0002
 21
 9.91166613696000E+0002
  0
LINE
  8
0
 10
 5.94548958156800E+0002
 20
 9.91166613696000E+0002
 11
 5.91708579687500E+0002
 21
 9.81195026562500E+0002
  0
LINE
  8
0
 10
 5.91708579687500E+0002
 20
 9.81195026562500E+0002
 11
 5.88799494303200E+0002
 21
 9.71309178604000E+0002
  0
LINE
  8
0
 10
 5.88799494303200E+0002
 20
 9.71309178604000E+0002
 11
 5.85824435068100E+0002
 21
 9.61505688919500E+0002
  0
LINE
  8
0
 10
 5.85824435068100E+0002
 20
 9.61505688919500E+0002
 11
 5.82786135046400E+0002
 21
 9.51781176608000E+0002
  0
LINE
  8
0
 10
 5.82786135046400E+0002
 20
 9.51781176608000E+0002
 11
 5.79687327302300E+0002
 21
 9.42132260768500E+0002
  0
LINE
  8
0
 10
 5.79687327302300E+0002
 20
 9.42132260768500E+0002
 11
 5.76530744900000E+0002
 21
 9.32555560500000E+0002
  0
LINE
  8
0
 10
 5.76530744900000E+0002
 20
 9.32555560500000E+0002
 11
 5.73319120903700E+0002
 21
 9.23047694901500E+0002
  0
LINE
  8
0
 10
 5.73319120903700E+0002
 20
 9.23047694901500E+0002
 11
 5.70055188377600E+0002
 21
 9.13605283072000E+0002
  0
LINE
  8
0
 10
 5.70055188377600E+0002
 20
 9.13605283072000E+0002
 11
 5.66741680385900E+0002
 21
 9.04224944110500E+0002
  0
LINE
  8
0
 10
 5.66741680385900E+0002
 20
 9.04224944110500E+0002
 11
 5.63381329992800E+0002
 21
 8.94903297116000E+0002
  0
LINE
  8
0
 10
 5.63381329992800E+0002
 20
 8.94903297116000E+0002
 11
 5.59976870262500E+0002
 21
 8.85636961187500E+0002
  0
LINE
  8
0
 10
 5.59976870262500E+0002
 20
 8.85636961187500E+0002
 11
 5.56531034259200E+0002
 21
 8.76422555424000E+0002
  0
LINE
  8
0
 10
 5.56531034259200E+0002
 20
 8.76422555424000E+0002
 11
 5.53046555047100E+0002
 21
 8.67256698924500E+0002
  0
LINE
  8
0
 10
 5.53046555047100E+0002
 20
 8.67256698924500E+0002
 11
 5.49526165690400E+0002
 21
 8.58136010788000E+0002
  0
LINE
  8
0
 10
 5.49526165690400E+0002
 20
 8.58136010788000E+0002
 11
 5.45972599253300E+0002
 21
 8.49057110113500E+0002
  0
LINE
  8
0
 10
 5.45972599253300E+0002
 20
 8.49057110113500E+0002
 11
 5.42388588800000E+0002
 21
 8.40016616000000E+0002
  0
LINE
  8
0
 10
 5.42388588800000E+0002
 20
 8.40016616000000E+0002
 11
 5.38776867394700E+0002
 21
 8.31011147546500E+0002
  0
LINE
  8
0
 10
 5.38776867394700E+0002
 20
 8.31011147546500E+0002
 11
 5.35140168101600E+0002
 21
 8.22037323852000E+0002
  0
LINE
  8
0
 10
 5.35140168101600E+0002
 20
 8.22037323852000E+0002
 11
 5.31481223984900E+0002
 21
 8.13091764015500E+0002
  0
LINE
  8
0
 10
 5.31481223984900E+0002
 20
 8.13091764015500E+0002
 11
 5.27802768108800E+0002
 21
 8.04171087136000E+0002
  0
LINE
  8
0
 10
 5.27802768108800E+0002
 20
 8.04171087136000E+0002
 11
 5.24107533537500E+0002
 21
 7.95271912312500E+0002
  0
LINE
  8
0
 10
 5.24107533537500E+0002
 20
 7.95271912312500E+0002
 11
 5.20398253335200E+0002
 21
 7.86390858644000E+0002
  0
LINE
  8
0
 10
 5.20398253335200E+0002
 20
 7.86390858644000E+0002
 11
 5.16677660566100E+0002
 21
 7.77524545229500E+0002
  0
LINE
  8
0
 10
 5.16677660566100E+0002
 20
 7.77524545229500E+0002
 11
 5.12948488294400E+0002
 21
 7.68669591168000E+0002
  0
LINE
  8
0
 10
 5.12948488294400E+0002
 20
 7.68669591168000E+0002
 11
 5.09213469584300E+0002
 21
 7.59822615558500E+0002
  0
LINE
  8
0
 10
 5.09213469584300E+0002
 20
 7.59822615558500E+0002
 11
 5.05475337500000E+0002
 21
 7.50980237500000E+0002
  0
LINE
  8
0
 10
 5.05475337500000E+0002
 20
 7.50980237500000E+0002
 11
 5.01736825105700E+0002
 21
 7.42139076091500E+0002
  0
LINE
  8
0
 10
 5.01736825105700E+0002
 20
 7.42139076091500E+0002
 11
 4.98000665465600E+0002
 21
 7.33295750432000E+0002
  0
LINE
  8
0
 10
 4.98000665465600E+0002
 20
 7.33295750432000E+0002
 11
 4.94269591643900E+0002
 21
 7.24446879620500E+0002
  0
LINE
  8
0
 10
 4.94269591643900E+0002
 20
 7.24446879620500E+0002
 11
 4.90546336704800E+0002
 21
 7.15589082756000E+0002
  0
LINE
  8
0
 10
 4.90546336704800E+0002
 20
 7.15589082756000E+0002
 11
 4.86833633712500E+0002
 21
 7.06718978937500E+0002
  0
LINE
  8
0
 10
 4.86833633712500E+0002
 20
 7.06718978937500E+0002
 11
 4.83134215731200E+0002
 21
 6.97833187264000E+0002
  0
LINE
  8
0
 10
 4.83134215731200E+0002
 20
 6.97833187264000E+0002
 11
 4.79450815825100E+0002
 21
 6.88928326834500E+0002
  0
LINE
  8
0
 10
 4.79450815825100E+0002
 20
 6.88928326834500E+0002
 11
 4.75786167058400E+0002
 21
 6.80001016748000E+0002
  0
LINE
  8
0
 10
 4.75786167058400E+0002
 20
 6.80001016748000E+0002
 11
 4.72143002495300E+0002
 21
 6.71047876103500E+0002
  0
LINE
  8
0
 10
 4.72143002495300E+0002
 20
 6.71047876103500E+0002
 11
 4.68524055200000E+0002
 21
 6.62065524000000E+0002
  0
LINE
  8
0
 10
 4.68524055200000E+0002
 20
 6.62065524000000E+0002
 11
 4.64932058236700E+0002
 21
 6.53050579536500E+0002
  0
LINE
  8
0
 10
 4.64932058236700E+0002
 20
 6.53050579536500E+0002
 11
 4.61369744669600E+0002
 21
 6.43999661812000E+0002
  0
LINE
  8
0
 10
 4.61369744669600E+0002
 20
 6.43999661812000E+0002
 11
 4.57839847562900E+0002
 21
 6.34909389925500E+0002
  0
LINE
  8
0
 10
 4.57839847562900E+0002
 20
 6.34909389925500E+0002
 11
 4.54345099980800E+0002
 21
 6.25776382976000E+0002
  0
LINE
  8
0
 10
 4.54345099980800E+0002
 20
 6.25776382976000E+0002
 11
 4.50888234987500E+0002
 21
 6.16597260062500E+0002
  0
LINE
  8
0
 10
 4.50888234987500E+0002
 20
 6.16597260062500E+0002
 11
 4.47471985647200E+0002
 21
 6.07368640284000E+0002
  0
LINE
  8
0
 10
 4.47471985647200E+0002
 20
 6.07368640284000E+0002
 11
 4.44099085024100E+0002
 21
 5.98087142739500E+0002
  0
LINE
  8
0
 10
 4.44099085024100E+0002
 20
 5.98087142739500E+0002
 11
 4.40772266182400E+0002
 21
 5.88749386528000E+0002
  0
LINE
  8
0
 10
 4.40772266182400E+0002
 20
 5.88749386528000E+0002
 11
 4.37494262186300E+0002
 21
 5.79351990748500E+0002
  0
LINE
  8
0
 10
 4.37494262186300E+0002
 20
 5.79351990748500E+0002
 11
 4.34267806100000E+0002
 21
 5.69891574500000E+0002
  0
LINE
  8
0
 10
 4.34267806100000E+0002
 20
 5.69891574500000E+0002
 11
 4.31095630987700E+0002
 21
 5.60364756881500E+0002
  0
LINE
  8
0
 10
 4.31095630987700E+0002
 20
 5.60364756881500E+0002
 11
 4.27980469913600E+0002
 21
 5.50768156992000E+0002
  0
LINE
  8
0
 10
 4.27980469913600E+0002
 20
 5.50768156992000E+0002
 11
 4.24925055941900E+0002
 21
 5.41098393930500E+0002
  0
LINE
  8
0
 10
 4.24925055941900E+0002
 20
 5.41098393930500E+0002
 11
 4.21932122136800E+0002
 21
 5.31352086796000E+0002
  0
LINE
  8
0
 10
 4.21932122136800E+0002
 20
 5.31352086796000E+0002
 11
 4.19004401562500E+0002
 21
 5.21525854687500E+0002
  0
LINE
  8
0
 10
 4.19004401562500E+0002
 20
 5.21525854687500E+0002
 11
 4.16144627283200E+0002
 21
 5.11616316704000E+0002
  0
LINE
  8
0
 10
 4.16144627283200E+0002
 20
 5.11616316704000E+0002
 11
 4.13355532363100E+0002
 21
 5.01620091944500E+0002
  0
LINE
  8
0
 10
 4.13355532363100E+0002
 20
 5.01620091944500E+0002
 11
 4.10639849866400E+0002
 21
 4.91533799508000E+0002
  0
LINE
  8
0
 10
 4.10639849866400E+0002
 20
 4.91533799508000E+0002
 11
 4.08000312857300E+0002
 21
 4.81354058493500E+0002
  0
LINE
  8
0
 10
 4.08000312857300E+0002
 20
 4.81354058493500E+0002
 11
 4.05439654400000E+0002
 21
 4.71077488000000E+0002
  0
LINE
  8
0
 10
 4.05439654400000E+0002
 20
 4.71077488000000E+0002
 11
 4.02960607558700E+0002
 21
 4.60700707126500E+0002
  0
LINE
  8
0
 10
 4.02960607558700E+0002
 20
 4.60700707126500E+0002
 11
 4.00565905397600E+0002
 21
 4.50220334972000E+0002
  0
LINE
  8
0
 10
 4.00565905397600E+0002
 20
 4.50220334972000E+0002
 11
 3.98258280980900E+0002
 21
 4.39632990635500E+0002
  0
LINE
  8
0
 10
 3.98258280980900E+0002
 20
 4.39632990635500E+0002
 11
 3.96040467372800E+0002
 21
 4.28935293216000E+0002
  0
LINE
  8
0
 10
 3.96040467372800E+0002
 20
 4.28935293216000E+0002
 11
 3.93915197637500E+0002
 21
 4.18123861812500E+0002
  0
LINE
  8
0
 10
 3.93915197637500E+0002
 20
 4.18123861812500E+0002
 11
 3.91885204839200E+0002
 21
 4.07195315524000E+0002
  0
LINE
  8
0
 10
 3.91885204839200E+0002
 20
 4.07195315524000E+0002
 11
 3.89953222042100E+0002
 21
 3.96146273449500E+0002
  0
LINE
  8
0
 10
 3.89953222042100E+0002
 20
 3.96146273449500E+0002
 11
 3.88121982310400E+0002
 21
 3.84973354688000E+0002
  0
LINE
  8
0
 10
 3.88121982310400E+0002
 20
 3.84973354688000E+0002
 11
 3.86394218708300E+0002
 21
 3.73673178338500E+0002
  0
LINE
  8
0
 10
 3.86394218708300E+0002
 20
 3.73673178338500E+0002
 11
 3.84772664300000E+0002
 21
 3.62242363500000E+0002
  0
LINE
  8
0
 10
 3.84772664300000E+0002
 20
 3.62242363500000E+0002
 11
 3.83260052149700E+0002
 21
 3.50677529271500E+0002
  0
LINE
  8
0
 10
 3.83260052149700E+0002
 20
 3.50677529271500E+0002
 11
 3.81859115321600E+0002
 21
 3.38975294752000E+0002
  0
LINE
  8
0
 10
 3.81859115321600E+0002
 20
 3.38975294752000E+0002
 11
 3.80572586879900E+0002
 21
 3.27132279040500E+0002
  0
LINE
  8
0
 10
 3.80572586879900E+0002
 20
 3.27132279040500E+0002
 11
 3.79403199888800E+0002
 21
 3.15145101236000E+0002
  0
LINE
  8
0
 10
 3.79403199888800E+0002
 20
 3.15145101236000E+0002
 11
 3.78353687412500E+0002
 21
 3.03010380437500E+0002
  0
LINE
  8
0
 10
 3.78353687412500E+0002
 20
 3.03010380437500E+0002
 11
 3.77426782515200E+0002
 21
 2.90724735744000E+0002
  0
LINE
  8
0
 10
 3.77426782515200E+0002
 20
 2.90724735744000E+0002
 11
 3.76625218261100E+0002
 21
 2.78284786254500E+0002
  0
LINE
  8
0
 10
 3.76625218261100E+0002
 20
 2.78284786254500E+0002
 11
 3.75951727714400E+0002
 21
 2.65687151068000E+0002
  0
LINE
  8
0
 10
 3.75951727714400E+0002
 20
 2.65687151068000E+0002
 11
 3.75409043939300E+0002
 21
 2.52928449283500E+0002
  0
LINE
  8
0
 10
 3.75409043939300E+0002
 20
 2.52928449283500E+0002
 11
 3.74999900000000E+0002
 21
 2.40005300000000E+0002
  0
LINE
  8
0
 10
 3.74999900000000E+0002
 20
 2.40005300000000E+0002
 11
 3.75000000000000E+0002
 21
 1.55000100000000E+0002
  0
LINE
  8
0
 10
 3.75000000000000E+0002
 20
 1.55000100000000E+0002
 11
 4.35000000000000E+0002
 21
 1.55000100000000E+0002
  0
LINE
  8
0
 10
 4.35000000000000E+0002
 20
 1.55000100000000E+0002
 11
 4.35000000000000E+0002
 21
 2.40005300000000E+0002
  0
LINE
  8
0
 10
 4.35000000000000E+0002
 20
 2.40005300000000E+0002
 11
 4.35409126387300E+0002
 21
 2.52928449294400E+0002
  0
LINE
  8
0
 10
 4.35409126387300E+0002
 20
 2.52928449294400E+0002
 11
 4.35951793498400E+0002
 21
 2.65687151155200E+0002
  0
LINE
  8
0
 10
 4.35951793498400E+0002
 20
 2.65687151155200E+0002
 11
 4.36625268257100E+0002
 21
 2.78284786548800E+0002
  0
LINE
  8
0
 10
 4.36625268257100E+0002
 20
 2.78284786548800E+0002
 11
 4.37426817587200E+0002
 21
 2.90724736441600E+0002
  0
LINE
  8
0
 10
 4.37426817587200E+0002
 20
 2.90724736441600E+0002
 11
 4.38353708412500E+0002
 21
 3.03010381800000E+0002
  0
LINE
  8
0
 10
 4.38353708412500E+0002
 20
 3.03010381800000E+0002
 11
 4.39403207656800E+0002
 21
 3.15145103590400E+0002
  0
LINE
  8
0
 10
 4.39403207656800E+0002
 20
 3.15145103590400E+0002
 11
 4.40572582243900E+0002
 21
 3.27132282779200E+0002
  0
LINE
  8
0
 10
 4.40572582243900E+0002
 20
 3.27132282779200E+0002
 11
 4.41859099097600E+0002
 21
 3.38975300332800E+0002
  0
LINE
  8
0
 10
 4.41859099097600E+0002
 20
 3.38975300332800E+0002
 11
 4.43260025141700E+0002
 21
 3.50677537217600E+0002
  0
LINE
  8
0
 10
 4.43260025141700E+0002
 20
 3.50677537217600E+0002
 11
 4.44772627300000E+0002
 21
 3.62242374400000E+0002
  0
LINE
  8
0
 10
 4.44772627300000E+0002
 20
 3.62242374400000E+0002
 11
 4.46394172496300E+0002
 21
 3.73673192846400E+0002
  0
LINE
  8
0
 10
 4.46394172496300E+0002
 20
 3.73673192846400E+0002
 11
 4.48121927654400E+0002
 21
 3.84973373523200E+0002
  0
LINE
  8
0
 10
 4.48121927654400E+0002
 20
 3.84973373523200E+0002
 11
 4.49953159698100E+0002
 21
 3.96146297396800E+0002
  0
LINE
  8
0
 10
 4.49953159698100E+0002
 20
 3.96146297396800E+0002
 11
 4.51885135551200E+0002
 21
 4.07195345433600E+0002
  0
LINE
  8
0
 10
 4.51885135551200E+0002
 20
 4.07195345433600E+0002
 11
 4.53915122137500E+0002
 21
 4.18123898600000E+0002
  0
LINE
  8
0
 10
 4.53915122137500E+0002
 20
 4.18123898600000E+0002
 11
 4.56040386380800E+0002
 21
 4.28935337862400E+0002
  0
LINE
  8
0
 10
 4.56040386380800E+0002
 20
 4.28935337862400E+0002
 11
 4.58258195204900E+0002
 21
 4.39633044187200E+0002
  0
LINE
  8
0
 10
 4.58258195204900E+0002
 20
 4.39633044187200E+0002
 11
 4.60565815533600E+0002
 21
 4.50220398540800E+0002
  0
LINE
  8
0
 10
 4.60565815533600E+0002
 20
 4.50220398540800E+0002
 11
 4.62960514290700E+0002
 21
 4.60700781889600E+0002
  0
LINE
  8
0
 10
 4.62960514290700E+0002
 20
 4.60700781889600E+0002
 11
 4.65439558400000E+0002
 21
 4.71077575200000E+0002
  0
LINE
  8
0
 10
 4.65439558400000E+0002
 20
 4.71077575200000E+0002
 11
 4.68000214785300E+0002
 21
 4.81354159438400E+0002
  0
LINE
  8
0
 10
 4.68000214785300E+0002
 20
 4.81354159438400E+0002
 11
 4.70639750370400E+0002
 21
 4.91533915571200E+0002
  0
LINE
  8
0
 10
 4.70639750370400E+0002
 20
 4.91533915571200E+0002
 11
 4.73355432079100E+0002
 21
 5.01620224564800E+0002
  0
LINE
  8
0
 10
 4.73355432079100E+0002
 20
 5.01620224564800E+0002
 11
 4.76144526835200E+0002
 21
 5.11616467385600E+0002
  0
LINE
  8
0
 10
 4.76144526835200E+0002
 20
 5.11616467385600E+0002
 11
 4.79004301562500E+0002
 21
 5.21526025000000E+0002
  0
LINE
  8
0
 10
 4.79004301562500E+0002
 20
 5.21526025000000E+0002
 11
 4.81932023184800E+0002
 21
 5.31352278374400E+0002
  0
LINE
  8
0
 10
 4.81932023184800E+0002
 20
 5.31352278374400E+0002
 11
 4.84924958625900E+0002
 21
 5.41098608475200E+0002
  0
LINE
  8
0
 10
 4.84924958625900E+0002
 20
 5.41098608475200E+0002
 11
 4.87980374809600E+0002
 21
 5.50768396268800E+0002
  0
LINE
  8
0
 10
 4.87980374809600E+0002
 20
 5.50768396268800E+0002
 11
 4.91095538659700E+0002
 21
 5.60365022721600E+0002
  0
LINE
  8
0
 10
 4.91095538659700E+0002
 20
 5.60365022721600E+0002
 11
 4.94267717100000E+0002
 21
 5.69891868800000E+0002
  0
LINE
  8
0
 10
 4.94267717100000E+0002
 20
 5.69891868800000E+0002
 11
 4.97494177054300E+0002
 21
 5.79352315470400E+0002
  0
LINE
  8
0
 10
 4.97494177054300E+0002
 20
 5.79352315470400E+0002
 11
 5.00772185446400E+0002
 21
 5.88749743699200E+0002
  0
LINE
  8
0
 10
 5.00772185446400E+0002
 20
 5.88749743699200E+0002
 11
 5.04099009200100E+0002
 21
 5.98087534452800E+0002
  0
LINE
  8
0
 10
 5.04099009200100E+0002
 20
 5.98087534452800E+0002
 11
 5.07471915239200E+0002
 21
 6.07369068697600E+0002
  0
LINE
  8
0
 10
 5.07471915239200E+0002
 20
 6.07369068697600E+0002
 11
 5.10888170487500E+0002
 21
 6.16597727400000E+0002
  0
LINE
  8
0
 10
 5.10888170487500E+0002
 20
 6.16597727400000E+0002
 11
 5.14345041868800E+0002
 21
 6.25776891526400E+0002
  0
LINE
  8
0
 10
 5.14345041868800E+0002
 20
 6.25776891526400E+0002
 11
 5.17839796306900E+0002
 21
 6.34909942043200E+0002
  0
LINE
  8
0
 10
 5.17839796306900E+0002
 20
 6.34909942043200E+0002
 11
 5.21369700725600E+0002
 21
 6.44000259916800E+0002
  0
LINE
  8
0
 10
 5.21369700725600E+0002
 20
 6.44000259916800E+0002
 11
 5.24932022048700E+0002
 21
 6.53051226113600E+0002
  0
LINE
  8
0
 10
 5.24932022048700E+0002
 20
 6.53051226113600E+0002
 11
 5.28524027200000E+0002
 21
 6.62066221600000E+0002
  0
LINE
  8
0
 10
 5.28524027200000E+0002
 20
 6.62066221600000E+0002
 11
 5.32142983103300E+0002
 21
 6.71048627342400E+0002
  0
LINE
  8
0
 10
 5.32142983103300E+0002
 20
 6.71048627342400E+0002
 11
 5.35786156682400E+0002
 21
 6.80001824307200E+0002
  0
LINE
  8
0
 10
 5.35786156682400E+0002
 20
 6.80001824307200E+0002
 11
 5.39450814861100E+0002
 21
 6.88929193460800E+0002
  0
LINE
  8
0
 10
 5.39450814861100E+0002
 20
 6.88929193460800E+0002
 11
 5.43134224563200E+0002
 21
 6.97834115769600E+0002
  0
LINE
  8
0
 10
 5.43134224563200E+0002
 20
 6.97834115769600E+0002
 11
 5.46833652712500E+0002
 21
 7.06719972200000E+0002
  0
LINE
  8
0
 10
 5.46833652712500E+0002
 20
 7.06719972200000E+0002
 11
 5.50546366232800E+0002
 21
 7.15590143718400E+0002
  0
LINE
  8
0
 10
 5.50546366232800E+0002
 20
 7.15590143718400E+0002
 11
 5.54269632047900E+0002
 21
 7.24448011291200E+0002
  0
LINE
  8
0
 10
 5.54269632047900E+0002
 20
 7.24448011291200E+0002
 11
 5.58000717081600E+0002
 21
 7.33296955884800E+0002
  0
LINE
  8
0
 10
 5.58000717081600E+0002
 20
 7.33296955884800E+0002
 11
 5.61736888257700E+0002
 21
 7.42140358465600E+0002
  0
LINE
  8
0
 10
 5.61736888257700E+0002
 20
 7.42140358465600E+0002
 11
 5.65475412500000E+0002
 21
 7.50981600000000E+0002
  0
LINE
  8
0
 10
 5.65475412500000E+0002
 20
 7.50981600000000E+0002
 11
 5.69213556732300E+0002
 21
 7.59824061454400E+0002
  0
LINE
  8
0
 10
 5.69213556732300E+0002
 20
 7.59824061454400E+0002
 11
 5.72948587878400E+0002
 21
 7.68671123795200E+0002
  0
LINE
  8
0
 10
 5.72948587878400E+0002
 20
 7.68671123795200E+0002
 11
 5.76677772862100E+0002
 21
 7.77526167988800E+0002
  0
LINE
  8
0
 10
 5.76677772862100E+0002
 20
 7.77526167988800E+0002
 11
 5.80398378607200E+0002
 21
 7.86392575001600E+0002
  0
LINE
  8
0
 10
 5.80398378607200E+0002
 20
 7.86392575001600E+0002
 11
 5.84107672037500E+0002
 21
 7.95273725800000E+0002
  0
LINE
  8
0
 10
 5.84107672037500E+0002
 20
 7.95273725800000E+0002
 11
 5.87802920076800E+0002
 21
 8.04173001350400E+0002
  0
LINE
  8
0
 10
 5.87802920076800E+0002
 20
 8.04173001350400E+0002
 11
 5.91481389648900E+0002
 21
 8.13093782619200E+0002
  0
LINE
  8
0
 10
 5.91481389648900E+0002
 20
 8.13093782619200E+0002
 11
 5.95140347677600E+0002
 21
 8.22039450572800E+0002
  0
LINE
  8
0
 10
 5.95140347677600E+0002
 20
 8.22039450572800E+0002
 11
 5.98777061086700E+0002
 21
 8.31013386177600E+0002
  0
LINE
  8
0
 10
 5.98777061086700E+0002
 20
 8.31013386177600E+0002
 11
 6.02388796800000E+0002
 21
 8.40018970400000E+0002
  0
LINE
  8
0
 10
 6.02388796800000E+0002
 20
 8.40018970400000E+0002
 11
 6.05972821741300E+0002
 21
 8.49059584206400E+0002
  0
LINE
  8
0
 10
 6.05972821741300E+0002
 20
 8.49059584206400E+0002
 11
 6.09526402834400E+0002
 21
 8.58138608563200E+0002
  0
LINE
  8
0
 10
 6.09526402834400E+0002
 20
 8.58138608563200E+0002
 11
 6.13046807003100E+0002
 21
 8.67259424436800E+0002
  0
LINE
  8
0
 10
 6.13046807003100E+0002
 20
 8.67259424436800E+0002
 11
 6.16531301171200E+0002
 21
 8.76425412793600E+0002
  0
LINE
  8
0
 10
 6.16531301171200E+0002
 20
 8.76425412793600E+0002
 11
 6.19977152262500E+0002
 21
 8.85639954600000E+0002
  0
LINE
  8
0
 10
 6.19977152262500E+0002
 20
 8.85639954600000E+0002
 11
 6.23381627200800E+0002
 21
 8.94906430822400E+0002
  0
LINE
  8
0
 10
 6.23381627200800E+0002
 20
 8.94906430822400E+0002
 11
 6.26741992909900E+0002
 21
 9.04228222427200E+0002
  0
LINE
  8
0
 10
 6.26741992909900E+0002
 20
 9.04228222427200E+0002
 11
 6.30055516313600E+0002
 21
 9.13608710380800E+0002
  0
LINE
  8
0
 10
 6.30055516313600E+0002
 20
 9.13608710380800E+0002
 11
 6.33319464335700E+0002
 21
 9.23051275649600E+0002
  0
LINE
  8
0
 10
 6.33319464335700E+0002
 20
 9.23051275649600E+0002
 11
 6.36531103900000E+0002
 21
 9.32559299200000E+0002
  0
LINE
  8
0
 10
 6.36531103900000E+0002
 20
 9.32559299200000E+0002
 11
 6.39687701930300E+0002
 21
 9.42136161998400E+0002
  0
LINE
  8
0
 10
 6.39687701930300E+0002
 20
 9.42136161998400E+0002
 11
 6.42786525350400E+0002
 21
 9.51785245011200E+0002
  0
LINE
  8
0
 10
 6.42786525350400E+0002
 20
 9.51785245011200E+0002
 11
 6.45824841084100E+0002
 21
 9.61509929204800E+0002
  0
LINE
  8
0
 10
 6.45824841084100E+0002
 20
 9.61509929204800E+0002
 11
 6.48799916055200E+0002
 21
 9.71313595545600E+0002
  0
LINE
  8
0
 10
 6.48799916055200E+0002
 20
 9.71313595545600E+0002
 11
 6.51709017187500E+0002
 21
 9.81199625000000E+0002
  0
LINE
  8
0
 10
 6.51709017187500E+0002
 20
 9.81199625000000E+0002
 11
 6.54549411404800E+0002
 21
 9.91171398534400E+0002
  0
LINE
  8
0
 10
 6.54549411404800E+0002
 20
 9.91171398534400E+0002
 11
 6.57318365630900E+0002
 21
 1.00123229711520E+0003
  0
LINE
  8
0
 10
 6.57318365630900E+0002
 20
 1.00123229711520E+0003
 11
 6.60013146789600E+0002
 21
 1.01138570170880E+0003
  0
LINE
  8
0
 10
 6.60013146789600E+0002
 20
 1.01138570170880E+0003
 11
 6.62631021804700E+0002
 21
 1.02163499328160E+0003
  0
LINE
  8
0
 10
 6.62631021804700E+0002
 20
 1.02163499328160E+0003
 11
 6.65169257600000E+0002
 21
 1.03198355280000E+0003
  0
LINE
  8
0
 10
 6.65169257600000E+0002
 20
 1.03198355280000E+0003
 11
 6.67625121099300E+0002
 21
 1.04243476123040E+0003
  0
LINE
  8
0
 10
 6.67625121099300E+0002
 20
 1.04243476123040E+0003
 11
 6.69995879226400E+0002
 21
 1.05299199953920E+0003
  0
LINE
  8
0
 10
 6.69995879226400E+0002
 20
 1.05299199953920E+0003
 11
 6.72278798905100E+0002
 21
 1.06365864869280E+0003
  0
LINE
  8
0
 10
 6.72278798905100E+0002
 20
 1.06365864869280E+0003
 11
 6.74471147059200E+0002
 21
 1.07443808965760E+0003
  0
LINE
  8
0
 10
 6.74471147059200E+0002
 20
 1.07443808965760E+0003
 11
 6.76570190612500E+0002
 21
 1.08533370340000E+0003
  0
LINE
  8
0
 10
 6.76570190612500E+0002
 20
 1.08533370340000E+0003
 11
 6.78573196488800E+0002
 21
 1.09634887088640E+0003
  0
LINE
  8
0
 10
 6.78573196488800E+0002
 20
 1.09634887088640E+0003
 11
 6.80477431611900E+0002
 21
 1.10748697308320E+0003
  0
LINE
  8
0
 10
 6.80477431611900E+0002
 20
 1.10748697308320E+0003
 11
 6.82280162905600E+0002
 21
 1.11875139095680E+0003
  0
LINE
  8
0
 10
 6.82280162905600E+0002
 20
 1.11875139095680E+0003
 11
 6.83978657293700E+0002
 21
 1.13014550547360E+0003
  0
LINE
  8
0
 10
 6.83978657293700E+0002
 20
 1.13014550547360E+0003
 11
 6.85570181700000E+0002
 21
 1.14167269760000E+0003
  0
LINE
  8
0
 10
 6.85570181700000E+0002
 20
 1.14167269760000E+0003
 11
 6.87052003048300E+0002
 21
 1.15333634830240E+0003
  0
LINE
  8
0
 10
 6.87052003048300E+0002
 20
 1.15333634830240E+0003
 11
 6.88421388262400E+0002
 21
 1.16513983854720E+0003
  0
LINE
  8
0
 10
 6.88421388262400E+0002
 20
 1.16513983854720E+0003
 11
 6.89675604266100E+0002
 21
 1.17708654930080E+0003
  0
LINE
  8
0
 10
 6.89675604266100E+0002
 20
 1.17708654930080E+0003
 11
 6.90811917983200E+0002
 21
 1.18917986152960E+0003
  0
LINE
  8
0
 10
 6.90811917983200E+0002
 20
 1.18917986152960E+0003
 11
 6.91827596337500E+0002
 21
 1.20142315620000E+0003
  0
LINE
  8
0
 10
 6.91827596337500E+0002
 20
 1.20142315620000E+0003
 11
 6.92719906252800E+0002
 21
 1.21381981427840E+0003
  0
LINE
  8
0
 10
 6.92719906252800E+0002
 20
 1.21381981427840E+0003
 11
 6.93486114652900E+0002
 21
 1.22637321673120E+0003
  0
LINE
  8
0
 10
 6.93486114652900E+0002
 20
 1.22637321673120E+0003
 11
 6.94123488461600E+0002
 21
 1.23908674452480E+0003
  0
LINE
  8
0
 10
 6.94123488461600E+0002
 20
 1.23908674452480E+0003
 11
 6.94629294602700E+0002
 21
 1.25196377862560E+0003
  0
LINE
  8
0
 10
 6.94629294602700E+0002
 20
 1.25196377862560E+0003
 11
 6.95000800000000E+0002
 21
 1.26500770000000E+0003
  0
LINE
  8
0
 10
 6.95000800000000E+0002
 20
 1.26500770000000E+0003
 11
 6.95001000000000E+0002
 21
 1.30699250000000E+0003
  0
LINE
  8
0
 10
 6.95001000000000E+0002
 20
 1.30699250000000E+0003
 11
 7.39997467680775E+0002
 21
 1.29538170409776E+0003
  0
ARC
  8
0
 10
 7.43000000000000E+0002
 20
 1.30700000000000E+0003
 40
 1.20000000000000E+0001
 50
 2.55510000000000E+0002
 51
 3.93600000000000E+0002
  0
LINE
  8
0
 10
 7.52995054888521E+0002
 20
 1.31364069859092E+0003
 11
 6.65001000000000E+0002
 21
 1.44500000000000E+0003
  0
LINE
  8
0
 10
 6.65001000000000E+0002
 20
 1.44500000000000E+0003
 11
 5.77011904713912E+0002
 21
 1.31375116174484E+0003
  0
ARC
  8
0
 10
 5.87000000000000E+0002
 20
 1.30710000000000E+0003
 40
 1.20000000000000E+0001
 50
 1.46340000000000E+0002
 51
 2.84365000000000E+0002
  0
LINE
  8
0
 10
 5.89977178004217E+0002
 20
 1.29547518124308E+0003
 11
 5.90002000000000E+0002
 21
 1.29537550000000E+0003
  0
LINE
  8
0
 10
 1.07500000000000E+0003
 20
 1.30700000000000E+0003
 11
 1.11999746768077E+0003
 21
 1.29538170409776E+0003
  0
ARC
  8
0
 10
 1.12300000000000E+0003
 20
 1.30700000000000E+0003
 40
 1.20000000000000E+0001
 50
 2.55510000000000E+0002
 51
 3.93600000000000E+0002
  0
LINE
  8
0
 10
 1.13299505488852E+0003
 20
 1.31364069859092E+0003
 11
 1.04500000000000E+0003
 21
 1.44500000000000E+0003
  0
LINE
  8
0
 10
 1.04500000000000E+0003
 20
 1.44500000000000E+0003
 11
 9.57011904713912E+0002
 21
 1.31365116174484E+0003
  0
ARC
  8
0
 10
 9.67000000000000E+0002
 20
 1.30700000000000E+0003
 40
 1.20000000000000E+0001
 50
 1.46340000000000E+0002
 51
 2.84365000000000E+0002
  0
LINE
  8
0
 10
 9.69977178004217E+0002
 20
 1.29537518124308E+0003
 11
 1.01500000000000E+0003
 21
 1.30700000000000E+0003
  0
LINE
  8
0
 10
 1.01500000000000E+0003
 20
 1.30700000000000E+0003
 11
 1.01500000000000E+0003
 21
 1.21500000000000E+0003
  0
LINE
  8
0
 10
 1.01500000000000E+0003
 20
 1.21500000000000E+0003
 11
 1.01498232116580E+0003
 21
 1.20877370290090E+0003
  0
LINE
  8
0
 10
 1.01498232116580E+0003
 20
 1.20877370290090E+0003
 11
 1.01492918008640E+0003
 21
 1.20256469660720E+0003
  0
LINE
  8
0
 10
 1.01492918008640E+0003
 20
 1.20256469660720E+0003
 11
 1.01484042889660E+0003
 21
 1.19637297362430E+0003
  0
LINE
  8
0
 10
 1.01484042889660E+0003
 20
 1.19637297362430E+0003
 11
 1.01471591973120E+0003
 21
 1.19019852645760E+0003
  0
LINE
  8
0
 10
 1.01471591973120E+0003
 20
 1.19019852645760E+0003
 11
 1.01455550472500E+0003
 21
 1.18404134761250E+0003
  0
LINE
  8
0
 10
 1.01455550472500E+0003
 20
 1.18404134761250E+0003
 11
 1.01435903601280E+0003
 21
 1.17790142959440E+0003
  0
LINE
  8
0
 10
 1.01435903601280E+0003
 20
 1.17790142959440E+0003
 11
 1.01412636572940E+0003
 21
 1.17177876490870E+0003
  0
LINE
  8
0
 10
 1.01412636572940E+0003
 20
 1.17177876490870E+0003
 11
 1.01385734600960E+0003
 21
 1.16567334606080E+0003
  0
LINE
  8
0
 10
 1.01385734600960E+0003
 20
 1.16567334606080E+0003
 11
 1.01355182898820E+0003
 21
 1.15958516555610E+0003
  0
LINE
  8
0
 10
 1.01355182898820E+0003
 20
 1.15958516555610E+0003
 11
 1.01320966680000E+0003
 21
 1.15351421590000E+0003
  0
LINE
  8
0
 10
 1.01320966680000E+0003
 20
 1.15351421590000E+0003
 11
 1.01283071157980E+0003
 21
 1.14746048959790E+0003
  0
LINE
  8
0
 10
 1.01283071157980E+0003
 20
 1.14746048959790E+0003
 11
 1.01241481546240E+0003
 21
 1.14142397915520E+0003
  0
LINE
  8
0
 10
 1.01241481546240E+0003
 20
 1.14142397915520E+0003
 11
 1.01196183058260E+0003
 21
 1.13540467707730E+0003
  0
LINE
  8
0
 10
 1.01196183058260E+0003
 20
 1.13540467707730E+0003
 11
 1.01147160907520E+0003
 21
 1.12940257586960E+0003
  0
LINE
  8
0
 10
 1.01147160907520E+0003
 20
 1.12940257586960E+0003
 11
 1.01094400307500E+0003
 21
 1.12341766803750E+0003
  0
LINE
  8
0
 10
 1.01094400307500E+0003
 20
 1.12341766803750E+0003
 11
 1.01037886471680E+0003
 21
 1.11744994608640E+0003
  0
LINE
  8
0
 10
 1.01037886471680E+0003
 20
 1.11744994608640E+0003
 11
 1.00977604613540E+0003
 21
 1.11149940252170E+0003
  0
LINE
  8
0
 10
 1.00977604613540E+0003
 20
 1.11149940252170E+0003
 11
 1.00913539946560E+0003
 21
 1.10556602984880E+0003
  0
LINE
  8
0
 10
 1.00913539946560E+0003
 20
 1.10556602984880E+0003
 11
 1.00845677684220E+0003
 21
 1.09964982057310E+0003
  0
LINE
  8
0
 10
 1.00845677684220E+0003
 20
 1.09964982057310E+0003
 11
 1.00774003040000E+0003
 21
 1.09375076720000E+0003
  0
LINE
  8
0
 10
 1.00774003040000E+0003
 20
 1.09375076720000E+0003
 11
 1.00698501227380E+0003
 21
 1.08786886223490E+0003
  0
LINE
  8
0
 10
 1.00698501227380E+0003
 20
 1.08786886223490E+0003
 11
 1.00619157459840E+0003
 21
 1.08200409818320E+0003
  0
LINE
  8
0
 10
 1.00619157459840E+0003
 20
 1.08200409818320E+0003
 11
 1.00535956950860E+0003
 21
 1.07615646755030E+0003
  0
LINE
  8
0
 10
 1.00535956950860E+0003
 20
 1.07615646755030E+0003
 11
 1.00448884913920E+0003
 21
 1.07032596284160E+0003
  0
LINE
  8
0
 10
 1.00448884913920E+0003
 20
 1.07032596284160E+0003
 11
 1.00357926562500E+0003
 21
 1.06451257656250E+0003
  0
LINE
  8
0
 10
 1.00357926562500E+0003
 20
 1.06451257656250E+0003
 11
 1.00263067110080E+0003
 21
 1.05871630121840E+0003
  0
LINE
  8
0
 10
 1.00263067110080E+0003
 20
 1.05871630121840E+0003
 11
 1.00164291770140E+0003
 21
 1.05293712931470E+0003
  0
LINE
  8
0
 10
 1.00164291770140E+0003
 20
 1.05293712931470E+0003
 11
 1.00061585756160E+0003
 21
 1.04717505335680E+0003
  0
LINE
  8
0
 10
 1.00061585756160E+0003
 20
 1.04717505335680E+0003
 11
 9.99549342816200E+0002
 21
 1.04143006585010E+0003
  0
LINE
  8
0
 10
 9.99549342816200E+0002
 20
 1.04143006585010E+0003
 11
 9.98443225600000E+0002
 21
 1.03570215930000E+0003
  0
LINE
  8
0
 10
 9.98443225600000E+0002
 20
 1.03570215930000E+0003
 11
 9.97297358047800E+0002
 21
 1.02999132621190E+0003
  0
LINE
  8
0
 10
 9.97297358047800E+0002
 20
 1.02999132621190E+0003
 11
 9.96111592294400E+0002
 21
 1.02429755909120E+0003
  0
LINE
  8
0
 10
 9.96111592294400E+0002
 20
 1.02429755909120E+0003
 11
 9.94885780474600E+0002
 21
 1.01862085044330E+0003
  0
LINE
  8
0
 10
 9.94885780474600E+0002
 20
 1.01862085044330E+0003
 11
 9.93619774723200E+0002
 21
 1.01296119277360E+0003
  0
LINE
  8
0
 10
 9.93619774723200E+0002
 20
 1.01296119277360E+0003
 11
 9.92313427175000E+0002
 21
 1.00731857858750E+0003
  0
LINE
  8
0
 10
 9.92313427175000E+0002
 20
 1.00731857858750E+0003
 11
 9.90966589964800E+0002
 21
 1.00169300039040E+0003
  0
LINE
  8
0
 10
 9.90966589964800E+0002
 20
 1.00169300039040E+0003
 11
 9.89579115227400E+0002
 21
 9.96084450687700E+0002
  0
LINE
  8
0
 10
 9.89579115227400E+0002
 20
 9.96084450687700E+0002
 11
 9.88150855097600E+0002
 21
 9.90492921984800E+0002
  0
LINE
  8
0
 10
 9.88150855097600E+0002
 20
 9.90492921984800E+0002
 11
 9.86681661710200E+0002
 21
 9.84918406787100E+0002
  0
LINE
  8
0
 10
 9.86681661710200E+0002
 20
 9.84918406787100E+0002
 11
 9.85171387200000E+0002
 21
 9.79360897600000E+0002
  0
LINE
  8
0
 10
 9.85171387200000E+0002
 20
 9.79360897600000E+0002
 11
 9.83619883701800E+0002
 21
 9.73820386928900E+0002
  0
LINE
  8
0
 10
 9.83619883701800E+0002
 20
 9.73820386928900E+0002
 11
 9.82027003350400E+0002
 21
 9.68296867279200E+0002
  0
LINE
  8
0
 10
 9.82027003350400E+0002
 20
 9.68296867279200E+0002
 11
 9.80392598280600E+0002
 21
 9.62790331156300E+0002
  0
LINE
  8
0
 10
 9.80392598280600E+0002
 20
 9.62790331156300E+0002
 11
 9.78716520627200E+0002
 21
 9.57300771065600E+0002
  0
LINE
  8
0
 10
 9.78716520627200E+0002
 20
 9.57300771065600E+0002
 11
 9.76998622525000E+0002
 21
 9.51828179512500E+0002
  0
LINE
  8
0
 10
 9.76998622525000E+0002
 20
 9.51828179512500E+0002
 11
 9.75238756108800E+0002
 21
 9.46372549002400E+0002
  0
LINE
  8
0
 10
 9.75238756108800E+0002
 20
 9.46372549002400E+0002
 11
 9.73436773513400E+0002
 21
 9.40933872040700E+0002
  0
LINE
  8
0
 10
 9.73436773513400E+0002
 20
 9.40933872040700E+0002
 11
 9.71592526873600E+0002
 21
 9.35512141132800E+0002
  0
LINE
  8
0
 10
 9.71592526873600E+0002
 20
 9.35512141132800E+0002
 11
 9.69705868324200E+0002
 21
 9.30107348784100E+0002
  0
LINE
  8
0
 10
 9.69705868324200E+0002
 20
 9.30107348784100E+0002
 11
 9.67776650000000E+0002
 21
 9.24719487500000E+0002
  0
LINE
  8
0
 10
 9.67776650000000E+0002
 20
 9.24719487500000E+0002
 11
 9.65804724035800E+0002
 21
 9.19348549785900E+0002
  0
LINE
  8
0
 10
 9.65804724035800E+0002
 20
 9.19348549785900E+0002
 11
 9.63789942566400E+0002
 21
 9.13994528147200E+0002
  0
LINE
  8
0
 10
 9.63789942566400E+0002
 20
 9.13994528147200E+0002
 11
 9.61732157726600E+0002
 21
 9.08657415089300E+0002
  0
LINE
  8
0
 10
 9.61732157726600E+0002
 20
 9.08657415089300E+0002
 11
 9.59631221651200E+0002
 21
 9.03337203117600E+0002
  0
LINE
  8
0
 10
 9.59631221651200E+0002
 20
 9.03337203117600E+0002
 11
 9.57486986475000E+0002
 21
 8.98033884737500E+0002
  0
LINE
  8
0
 10
 9.57486986475000E+0002
 20
 8.98033884737500E+0002
 11
 9.55299304332800E+0002
 21
 8.92747452454400E+0002
  0
LINE
  8
0
 10
 9.55299304332800E+0002
 20
 8.92747452454400E+0002
 11
 9.53068027359400E+0002
 21
 8.87477898773700E+0002
  0
LINE
  8
0
 10
 9.53068027359400E+0002
 20
 8.87477898773700E+0002
 11
 9.50793007689600E+0002
 21
 8.82225216200800E+0002
  0
LINE
  8
0
 10
 9.50793007689600E+0002
 20
 8.82225216200800E+0002
 11
 9.48474097458200E+0002
 21
 8.76989397241100E+0002
  0
LINE
  8
0
 10
 9.48474097458200E+0002
 20
 8.76989397241100E+0002
 11
 9.46111148800000E+0002
 21
 8.71770434400000E+0002
  0
LINE
  8
0
 10
 9.46111148800000E+0002
 20
 8.71770434400000E+0002
 11
 9.43704013849800E+0002
 21
 8.66568320182900E+0002
  0
LINE
  8
0
 10
 9.43704013849800E+0002
 20
 8.66568320182900E+0002
 11
 9.41252544742400E+0002
 21
 8.61383047095200E+0002
  0
LINE
  8
0
 10
 9.41252544742400E+0002
 20
 8.61383047095200E+0002
 11
 9.38756593612600E+0002
 21
 8.56214607642300E+0002
  0
LINE
  8
0
 10
 9.38756593612600E+0002
 20
 8.56214607642300E+0002
 11
 9.36216012595200E+0002
 21
 8.51062994329600E+0002
  0
LINE
  8
0
 10
 9.36216012595200E+0002
 20
 8.51062994329600E+0002
 11
 9.33630653825000E+0002
 21
 8.45928199662500E+0002
  0
LINE
  8
0
 10
 9.33630653825000E+0002
 20
 8.45928199662500E+0002
 11
 9.31000369436800E+0002
 21
 8.40810216146400E+0002
  0
LINE
  8
0
 10
 9.31000369436800E+0002
 20
 8.40810216146400E+0002
 11
 9.28325011565400E+0002
 21
 8.35709036286700E+0002
  0
LINE
  8
0
 10
 9.28325011565400E+0002
 20
 8.35709036286700E+0002
 11
 9.25604432345600E+0002
 21
 8.30624652588800E+0002
  0
LINE
  8
0
 10
 9.25604432345600E+0002
 20
 8.30624652588800E+0002
 11
 9.22838483912200E+0002
 21
 8.25557057558100E+0002
  0
LINE
  8
0
 10
 9.22838483912200E+0002
 20
 8.25557057558100E+0002
 11
 9.20027018400000E+0002
 21
 8.20506243700000E+0002
  0
LINE
  8
0
 10
 9.20027018400000E+0002
 20
 8.20506243700000E+0002
 11
 9.17169887943800E+0002
 21
 8.15472203519900E+0002
  0
LINE
  8
0
 10
 9.17169887943800E+0002
 20
 8.15472203519900E+0002
 11
 9.14266944678400E+0002
 21
 8.10454929523200E+0002
  0
LINE
  8
0
 10
 9.14266944678400E+0002
 20
 8.10454929523200E+0002
 11
 9.11318040738600E+0002
 21
 8.05454414215300E+0002
  0
LINE
  8
0
 10
 9.11318040738600E+0002
 20
 8.05454414215300E+0002
 11
 9.08323028259200E+0002
 21
 8.00470650101600E+0002
  0
LINE
  8
0
 10
 9.08323028259200E+0002
 20
 8.00470650101600E+0002
 11
 9.05281759375000E+0002
 21
 7.95503629687500E+0002
  0
LINE
  8
0
 10
 9.05281759375000E+0002
 20
 7.95503629687500E+0002
 11
 9.02194086220800E+0002
 21
 7.90553345478400E+0002
  0
LINE
  8
0
 10
 9.02194086220800E+0002
 20
 7.90553345478400E+0002
 11
 8.99059860931400E+0002
 21
 7.85619789979700E+0002
  0
LINE
  8
0
 10
 8.99059860931400E+0002
 20
 7.85619789979700E+0002
 11
 8.95878935641600E+0002
 21
 7.80702955696800E+0002
  0
LINE
  8
0
 10
 8.95878935641600E+0002
 20
 7.80702955696800E+0002
 11
 8.92651162486200E+0002
 21
 7.75802835135100E+0002
  0
LINE
  8
0
 10
 8.92651162486200E+0002
 20
 7.75802835135100E+0002
 11
 8.89376393600000E+0002
 21
 7.70919420800000E+0002
  0
LINE
  8
0
 10
 8.89376393600000E+0002
 20
 7.70919420800000E+0002
 11
 8.86054481117800E+0002
 21
 7.66052705196900E+0002
  0
LINE
  8
0
 10
 8.86054481117800E+0002
 20
 7.66052705196900E+0002
 11
 8.82685277174400E+0002
 21
 7.61202680831200E+0002
  0
LINE
  8
0
 10
 8.82685277174400E+0002
 20
 7.61202680831200E+0002
 11
 8.79268633904600E+0002
 21
 7.56369340208300E+0002
  0
LINE
  8
0
 10
 8.79268633904600E+0002
 20
 7.56369340208300E+0002
 11
 8.75804403443200E+0002
 21
 7.51552675833600E+0002
  0
LINE
  8
0
 10
 8.75804403443200E+0002
 20
 7.51552675833600E+0002
 11
 8.72292437925000E+0002
 21
 7.46752680212500E+0002
  0
LINE
  8
0
 10
 8.72292437925000E+0002
 20
 7.46752680212500E+0002
 11
 8.68732589484800E+0002
 21
 7.41969345850400E+0002
  0
LINE
  8
0
 10
 8.68732589484800E+0002
 20
 7.41969345850400E+0002
 11
 8.65124710257400E+0002
 21
 7.37202665252700E+0002
  0
LINE
  8
0
 10
 8.65124710257400E+0002
 20
 7.37202665252700E+0002
 11
 8.61468652377600E+0002
 21
 7.32452630924800E+0002
  0
LINE
  8
0
 10
 8.61468652377600E+0002
 20
 7.32452630924800E+0002
 11
 8.57764267980200E+0002
 21
 7.27719235372100E+0002
  0
LINE
  8
0
 10
 8.57764267980200E+0002
 20
 7.27719235372100E+0002
 11
 8.54011409200000E+0002
 21
 7.23002471100000E+0002
  0
LINE
  8
0
 10
 8.54011409200000E+0002
 20
 7.23002471100000E+0002
 11
 8.50209928171800E+0002
 21
 7.18302330613900E+0002
  0
LINE
  8
0
 10
 8.50209928171800E+0002
 20
 7.18302330613900E+0002
 11
 8.46359677030400E+0002
 21
 7.13618806419200E+0002
  0
LINE
  8
0
 10
 8.46359677030400E+0002
 20
 7.13618806419200E+0002
 11
 8.42460507910600E+0002
 21
 7.08951891021300E+0002
  0
LINE
  8
0
 10
 8.42460507910600E+0002
 20
 7.08951891021300E+0002
 11
 8.38512272947200E+0002
 21
 7.04301576925600E+0002
  0
LINE
  8
0
 10
 8.38512272947200E+0002
 20
 7.04301576925600E+0002
 11
 8.34514824275000E+0002
 21
 6.99667856637500E+0002
  0
LINE
  8
0
 10
 8.34514824275000E+0002
 20
 6.99667856637500E+0002
 11
 8.30468014028800E+0002
 21
 6.95050722662400E+0002
  0
LINE
  8
0
 10
 8.30468014028800E+0002
 20
 6.95050722662400E+0002
 11
 8.26371694343400E+0002
 21
 6.90450167505700E+0002
  0
LINE
  8
0
 10
 8.26371694343400E+0002
 20
 6.90450167505700E+0002
 11
 8.22225717353600E+0002
 21
 6.85866183672800E+0002
  0
LINE
  8
0
 10
 8.22225717353600E+0002
 20
 6.85866183672800E+0002
 11
 8.18029935194200E+0002
 21
 6.81298763669100E+0002
  0
LINE
  8
0
 10
 8.18029935194200E+0002
 20
 6.81298763669100E+0002
 11
 8.13784200000000E+0002
 21
 6.76747900000000E+0002
  0
LINE
  8
0
 10
 8.13784200000000E+0002
 20
 6.76747900000000E+0002
 11
 7.54437856820978E+0002
 21
 6.13196603100420E+0002
  0
ARC
  8
0
 10
 1.07500000000000E+0003
 20
 3.11800000000000E+0002
 40
 4.40000000000000E+0002
 50
 1.36765000000000E+0002
 51
 1.80000000000000E+0002
  0
LINE
  8
0
 10
 6.35000000000000E+0002
 20
 3.11800000000000E+0002
 11
 6.35000000000000E+0002
 21
 1.55000000000000E+0002
  0
LINE
  8
0
 10
 6.35000000000000E+0002
 20
 1.55000000000000E+0002
 11
 6.95000000000000E+0002
 21
 1.55000000000000E+0002
  0
LINE
  8
0
 10
 6.95000000000000E+0002
 20
 1.55000000000000E+0002
 11
 6.95000000000000E+0002
 21
 3.11800000000000E+0002
  0
ARC
  8
0
 10
 1.07500000000000E+0003
 20
 3.11800000000000E+0002
 40
 3.80000000000000E+0002
 50
 1.36765000000000E+0002
 51
 1.80000000000000E+0002
  0
LINE
  8
0
 10
 7.98150876345390E+0002
 20
 5.72097066313999E+0002
 11
 8.57498400000000E+0002
 21
 6.35649600000000E+0002
  0
LINE
  8
0
 10
 8.57498400000000E+0002
 20
 6.35649600000000E+0002
 11
 8.62057143534200E+0002
 21
 6.40535936656500E+0002
  0
LINE
  8
0
 10
 8.62057143534200E+0002
 20
 6.40535936656500E+0002
 11
 8.66563122193600E+0002
 21
 6.45440914212000E+0002
  0
LINE
  8
0
 10
 8.66563122193600E+0002
 20
 6.45440914212000E+0002
 11
 8.71016477063400E+0002
 21
 6.50364523045500E+0002
  0
LINE
  8
0
 10
 8.71016477063400E+0002
 20
 6.50364523045500E+0002
 11
 8.75417349228800E+0002
 21
 6.55306753536000E+0002
  0
LINE
  8
0
 10
 8.75417349228800E+0002
 20
 6.55306753536000E+0002
 11
 8.79765879775000E+0002
 21
 6.60267596062500E+0002
  0
LINE
  8
0
 10
 8.79765879775000E+0002
 20
 6.60267596062500E+0002
 11
 8.84062209787200E+0002
 21
 6.65247041004000E+0002
  0
LINE
  8
0
 10
 8.84062209787200E+0002
 20
 6.65247041004000E+0002
 11
 8.88306480350600E+0002
 21
 6.70245078739500E+0002
  0
LINE
  8
0
 10
 8.88306480350600E+0002
 20
 6.70245078739500E+0002
 11
 8.92498832550400E+0002
 21
 6.75261699648000E+0002
  0
LINE
  8
0
 10
 8.92498832550400E+0002
 20
 6.75261699648000E+0002
 11
 8.96639407471800E+0002
 21
 6.80296894108500E+0002
  0
LINE
  8
0
 10
 8.96639407471800E+0002
 20
 6.80296894108500E+0002
 11
 9.00728346200000E+0002
 21
 6.85350652500000E+0002
  0
LINE
  8
0
 10
 9.00728346200000E+0002
 20
 6.85350652500000E+0002
 11
 9.04765789820200E+0002
 21
 6.90422965201500E+0002
  0
LINE
  8
0
 10
 9.04765789820200E+0002
 20
 6.90422965201500E+0002
 11
 9.08751879417600E+0002
 21
 6.95513822592000E+0002
  0
LINE
  8
0
 10
 9.08751879417600E+0002
 20
 6.95513822592000E+0002
 11
 9.12686756077400E+0002
 21
 7.00623215050500E+0002
  0
LINE
  8
0
 10
 9.12686756077400E+0002
 20
 7.00623215050500E+0002
 11
 9.16570560884800E+0002
 21
 7.05751132956000E+0002
  0
LINE
  8
0
 10
 9.16570560884800E+0002
 20
 7.05751132956000E+0002
 11
 9.20403434925000E+0002
 21
 7.10897566687500E+0002
  0
LINE
  8
0
 10
 9.20403434925000E+0002
 20
 7.10897566687500E+0002
 11
 9.24185519283200E+0002
 21
 7.16062506624000E+0002
  0
LINE
  8
0
 10
 9.24185519283200E+0002
 20
 7.16062506624000E+0002
 11
 9.27916955044600E+0002
 21
 7.21245943144500E+0002
  0
LINE
  8
0
 10
 9.27916955044600E+0002
 20
 7.21245943144500E+0002
 11
 9.31597883294400E+0002
 21
 7.26447866628000E+0002
  0
LINE
  8
0
 10
 9.31597883294400E+0002
 20
 7.26447866628000E+0002
 11
 9.35228445117800E+0002
 21
 7.31668267453500E+0002
  0
LINE
  8
0
 10
 9.35228445117800E+0002
 20
 7.31668267453500E+0002
 11
 9.38808781600000E+0002
 21
 7.36907136000000E+0002
  0
LINE
  8
0
 10
 9.38808781600000E+0002
 20
 7.36907136000000E+0002
 11
 9.42339033826200E+0002
 21
 7.42164462646500E+0002
  0
LINE
  8
0
 10
 9.42339033826200E+0002
 20
 7.42164462646500E+0002
 11
 9.45819342881600E+0002
 21
 7.47440237772000E+0002
  0
LINE
  8
0
 10
 9.45819342881600E+0002
 20
 7.47440237772000E+0002
 11
 9.49249849851400E+0002
 21
 7.52734451755500E+0002
  0
LINE
  8
0
 10
 9.49249849851400E+0002
 20
 7.52734451755500E+0002
 11
 9.52630695820800E+0002
 21
 7.58047094976000E+0002
  0
LINE
  8
0
 10
 9.52630695820800E+0002
 20
 7.58047094976000E+0002
 11
 9.55962021875000E+0002
 21
 7.63378157812500E+0002
  0
LINE
  8
0
 10
 9.55962021875000E+0002
 20
 7.63378157812500E+0002
 11
 9.59243969099200E+0002
 21
 7.68727630644000E+0002
  0
LINE
  8
0
 10
 9.59243969099200E+0002
 20
 7.68727630644000E+0002
 11
 9.62476678578600E+0002
 21
 7.74095503849500E+0002
  0
LINE
  8
0
 10
 9.62476678578600E+0002
 20
 7.74095503849500E+0002
 11
 9.65660291398400E+0002
 21
 7.79481767808000E+0002
  0
LINE
  8
0
 10
 9.65660291398400E+0002
 20
 7.79481767808000E+0002
 11
 9.68794948643800E+0002
 21
 7.84886412898500E+0002
  0
LINE
  8
0
 10
 9.68794948643800E+0002
 20
 7.84886412898500E+0002
 11
 9.71880791400000E+0002
 21
 7.90309429500000E+0002
  0
LINE
  8
0
 10
 9.71880791400000E+0002
 20
 7.90309429500000E+0002
 11
 9.74917960752200E+0002
 21
 7.95750807991500E+0002
  0
LINE
  8
0
 10
 9.74917960752200E+0002
 20
 7.95750807991500E+0002
 11
 9.77906597785600E+0002
 21
 8.01210538752000E+0002
  0
LINE
  8
0
 10
 9.77906597785600E+0002
 20
 8.01210538752000E+0002
 11
 9.80846843585400E+0002
 21
 8.06688612160500E+0002
  0
LINE
  8
0
 10
 9.80846843585400E+0002
 20
 8.06688612160500E+0002
 11
 9.83738839236800E+0002
 21
 8.12185018596000E+0002
  0
LINE
  8
0
 10
 9.83738839236800E+0002
 20
 8.12185018596000E+0002
 11
 9.86582725825000E+0002
 21
 8.17699748437500E+0002
  0
LINE
  8
0
 10
 9.86582725825000E+0002
 20
 8.17699748437500E+0002
 11
 9.89378644435200E+0002
 21
 8.23232792064000E+0002
  0
LINE
  8
0
 10
 9.89378644435200E+0002
 20
 8.23232792064000E+0002
 11
 9.92126736152600E+0002
 21
 8.28784139854500E+0002
  0
LINE
  8
0
 10
 9.92126736152600E+0002
 20
 8.28784139854500E+0002
 11
 9.94827142062400E+0002
 21
 8.34353782188000E+0002
  0
LINE
  8
0
 10
 9.94827142062400E+0002
 20
 8.34353782188000E+0002
 11
 9.97480003249800E+0002
 21
 8.39941709443500E+0002
  0
LINE
  8
0
 10
 9.97480003249800E+0002
 20
 8.39941709443500E+0002
 11
 1.00008546080000E+0003
 21
 8.45547912000000E+0002
  0
LINE
  8
0
 10
 1.00008546080000E+0003
 20
 8.45547912000000E+0002
 11
 1.00264365579820E+0003
 21
 8.51172380236500E+0002
  0
LINE
  8
0
 10
 1.00264365579820E+0003
 20
 8.51172380236500E+0002
 11
 1.00515472932960E+0003
 21
 8.56815104532000E+0002
  0
LINE
  8
0
 10
 1.00515472932960E+0003
 20
 8.56815104532000E+0002
 11
 1.00761882247940E+0003
 21
 8.62476075265500E+0002
  0
LINE
  8
0
 10
 1.00761882247940E+0003
 20
 8.62476075265500E+0002
 11
 1.01003607633280E+0003
 21
 8.68155282816000E+0002
  0
LINE
  8
0
 10
 1.01003607633280E+0003
 20
 8.68155282816000E+0002
 11
 1.01240663197500E+0003
 21
 8.73852717562500E+0002
  0
LINE
  8
0
 10
 1.01240663197500E+0003
 20
 8.73852717562500E+0002
 11
 1.01473063049120E+0003
 21
 8.79568369884000E+0002
  0
LINE
  8
0
 10
 1.01473063049120E+0003
 20
 8.79568369884000E+0002
 11
 1.01700821296660E+0003
 21
 8.85302230159500E+0002
  0
LINE
  8
0
 10
 1.01700821296660E+0003
 20
 8.85302230159500E+0002
 11
 1.01923952048640E+0003
 21
 8.91054288768000E+0002
  0
LINE
  8
0
 10
 1.01923952048640E+0003
 20
 8.91054288768000E+0002
 11
 1.02142469413580E+0003
 21
 8.96824536088500E+0002
  0
LINE
  8
0
 10
 1.02142469413580E+0003
 20
 8.96824536088500E+0002
 11
 1.02356387500000E+0003
 21
 9.02612962500000E+0002
  0
LINE
  8
0
 10
 1.02356387500000E+0003
 20
 9.02612962500000E+0002
 11
 1.02565720416420E+0003
 21
 9.08419558381500E+0002
  0
LINE
  8
0
 10
 1.02565720416420E+0003
 20
 9.08419558381500E+0002
 11
 1.02770482271360E+0003
 21
 9.14244314112000E+0002
  0
LINE
  8
0
 10
 1.02770482271360E+0003
 20
 9.14244314112000E+0002
 11
 1.02970687173340E+0003
 21
 9.20087220070500E+0002
  0
LINE
  8
0
 10
 1.02970687173340E+0003
 20
 9.20087220070500E+0002
 11
 1.03166349230880E+0003
 21
 9.25948266636000E+0002
  0
LINE
  8
0
 10
 1.03166349230880E+0003
 20
 9.25948266636000E+0002
 11
 1.03357482552500E+0003
 21
 9.31827444187500E+0002
  0
LINE
  8
0
 10
 1.03357482552500E+0003
 20
 9.31827444187500E+0002
 11
 1.03544101246720E+0003
 21
 9.37724743104000E+0002
  0
LINE
  8
0
 10
 1.03544101246720E+0003
 20
 9.37724743104000E+0002
 11
 1.03726219422060E+0003
 21
 9.43640153764500E+0002
  0
LINE
  8
0
 10
 1.03726219422060E+0003
 20
 9.43640153764500E+0002
 11
 1.03903851187040E+0003
 21
 9.49573666548000E+0002
  0
LINE
  8
0
 10
 1.03903851187040E+0003
 20
 9.49573666548000E+0002
 11
 1.04077010650180E+0003
 21
 9.55525271833500E+0002
  0
LINE
  8
0
 10
 1.04077010650180E+0003
 20
 9.55525271833500E+0002
 11
 1.04245711920000E+0003
 21
 9.61494960000000E+0002
  0
LINE
  8
0
 10
 1.04245711920000E+0003
 20
 9.61494960000000E+0002
 11
 1.04409969105020E+0003
 21
 9.67482721426500E+0002
  0
LINE
  8
0
 10
 1.04409969105020E+0003
 20
 9.67482721426500E+0002
 11
 1.04569796313760E+0003
 21
 9.73488546492000E+0002
  0
LINE
  8
0
 10
 1.04569796313760E+0003
 20
 9.73488546492000E+0002
 11
 1.04725207654740E+0003
 21
 9.79512425575500E+0002
  0
LINE
  8
0
 10
 1.04725207654740E+0003
 20
 9.79512425575500E+0002
 11
 1.04876217236480E+0003
 21
 9.85554349056000E+0002
  0
LINE
  8
0
 10
 1.04876217236480E+0003
 20
 9.85554349056000E+0002
 11
 1.05022839167500E+0003
 21
 9.91614307312500E+0002
  0
LINE
  8
0
 10
 1.05022839167500E+0003
 20
 9.91614307312500E+0002
 11
 1.05165087556320E+0003
 21
 9.97692290724000E+0002
  0
LINE
  8
0
 10
 1.05165087556320E+0003
 20
 9.97692290724000E+0002
 11
 1.05302976511460E+0003
 21
 1.00378828966950E+0003
  0
LINE
  8
0
 10
 1.05302976511460E+0003
 20
 1.00378828966950E+0003
 11
 1.05436520141440E+0003
 21
 1.00990229452800E+0003
  0
LINE
  8
0
 10
 1.05436520141440E+0003
 20
 1.00990229452800E+0003
 11
 1.05565732554780E+0003
 21
 1.01603429567850E+0003
  0
LINE
  8
0
 10
 1.05565732554780E+0003
 20
 1.01603429567850E+0003
 11
 1.05690627860000E+0003
 21
 1.02218428350000E+0003
  0
LINE
  8
0
 10
 1.05690627860000E+0003
 20
 1.02218428350000E+0003
 11
 1.05811220165620E+0003
 21
 1.02835224837150E+0003
  0
LINE
  8
0
 10
 1.05811220165620E+0003
 20
 1.02835224837150E+0003
 11
 1.05927523580160E+0003
 21
 1.03453818067200E+0003
  0
LINE
  8
0
 10
 1.05927523580160E+0003
 20
 1.03453818067200E+0003
 11
 1.06039552212140E+0003
 21
 1.04074207078050E+0003
  0
LINE
  8
0
 10
 1.06039552212140E+0003
 20
 1.04074207078050E+0003
 11
 1.06147320170080E+0003
 21
 1.04696390907600E+0003
  0
LINE
  8
0
 10
 1.06147320170080E+0003
 20
 1.04696390907600E+0003
 11
 1.06250841562500E+0003
 21
 1.05320368593750E+0003
  0
LINE
  8
0
 10
 1.06250841562500E+0003
 20
 1.05320368593750E+0003
 11
 1.06350130497920E+0003
 21
 1.05946139174400E+0003
  0
LINE
  8
0
 10
 1.06350130497920E+0003
 20
 1.05946139174400E+0003
 11
 1.06445201084860E+0003
 21
 1.06573701687450E+0003
  0
LINE
  8
0
 10
 1.06445201084860E+0003
 20
 1.06573701687450E+0003
 11
 1.06536067431840E+0003
 21
 1.07203055170800E+0003
  0
LINE
  8
0
 10
 1.06536067431840E+0003
 20
 1.07203055170800E+0003
 11
 1.06622743647380E+0003
 21
 1.07834198662350E+0003
  0
LINE
  8
0
 10
 1.06622743647380E+0003
 20
 1.07834198662350E+0003
 11
 1.06705243840000E+0003
 21
 1.08467131200000E+0003
  0
LINE
  8
0
 10
 1.06705243840000E+0003
 20
 1.08467131200000E+0003
 11
 1.06783582118220E+0003
 21
 1.09101851821650E+0003
  0
LINE
  8
0
 10
 1.06783582118220E+0003
 20
 1.09101851821650E+0003
 11
 1.06857772590560E+0003
 21
 1.09738359565200E+0003
  0
LINE
  8
0
 10
 1.06857772590560E+0003
 20
 1.09738359565200E+0003
 11
 1.06927829365540E+0003
 21
 1.10376653468550E+0003
  0
LINE
  8
0
 10
 1.06927829365540E+0003
 20
 1.10376653468550E+0003
 11
 1.06993766551680E+0003
 21
 1.11016732569600E+0003
  0
LINE
  8
0
 10
 1.06993766551680E+0003
 20
 1.11016732569600E+0003
 11
 1.07055598257500E+0003
 21
 1.11658595906250E+0003
  0
LINE
  8
0
 10
 1.07055598257500E+0003
 20
 1.11658595906250E+0003
 11
 1.07113338591520E+0003
 21
 1.12302242516400E+0003
  0
LINE
  8
0
 10
 1.07113338591520E+0003
 20
 1.12302242516400E+0003
 11
 1.07167001662260E+0003
 21
 1.12947671437950E+0003
  0
LINE
  8
0
 10
 1.07167001662260E+0003
 20
 1.12947671437950E+0003
 11
 1.07216601578240E+0003
 21
 1.13594881708800E+0003
  0
LINE
  8
0
 10
 1.07216601578240E+0003
 20
 1.13594881708800E+0003
 11
 1.07262152447980E+0003
 21
 1.14243872366850E+0003
  0
LINE
  8
0
 10
 1.07262152447980E+0003
 20
 1.14243872366850E+0003
 11
 1.07303668380000E+0003
 21
 1.14894642450000E+0003
  0
LINE
  8
0
 10
 1.07303668380000E+0003
 20
 1.14894642450000E+0003
 11
 1.07341163482820E+0003
 21
 1.15547190996150E+0003
  0
LINE
  8
0
 10
 1.07341163482820E+0003
 20
 1.15547190996150E+0003
 11
 1.07374651864960E+0003
 21
 1.16201517043200E+0003
  0
LINE
  8
0
 10
 1.07374651864960E+0003
 20
 1.16201517043200E+0003
 11
 1.07404147634940E+0003
 21
 1.16857619629050E+0003
  0
LINE
  8
0
 10
 1.07404147634940E+0003
 20
 1.16857619629050E+0003
 11
 1.07429664901280E+0003
 21
 1.17515497791600E+0003
  0
LINE
  8
0
 10
 1.07429664901280E+0003
 20
 1.17515497791600E+0003
 11
 1.07451217772500E+0003
 21
 1.18175150568750E+0003
  0
LINE
  8
0
 10
 1.07451217772500E+0003
 20
 1.18175150568750E+0003
 11
 1.07468820357120E+0003
 21
 1.18836576998400E+0003
  0
LINE
  8
0
 10
 1.07468820357120E+0003
 20
 1.18836576998400E+0003
 11
 1.07482486763660E+0003
 21
 1.19499776118450E+0003
  0
LINE
  8
0
 10
 1.07482486763660E+0003
 20
 1.19499776118450E+0003
 11
 1.07492231100640E+0003
 21
 1.20164746966800E+0003
  0
LINE
  8
0
 10
 1.07492231100640E+0003
 20
 1.20164746966800E+0003
 11
 1.07498067476580E+0003
 21
 1.20831488581350E+0003
  0
LINE
  8
0
 10
 1.07498067476580E+0003
 20
 1.20831488581350E+0003
 11
 1.07500010000000E+0003
 21
 1.21500000000000E+0003
  0
LINE
  8
0
 10
 1.07500010000000E+0003
 20
 1.21500000000000E+0003
 11
 1.07500000000000E+0003
 21
 1.30700000000000E+0003
  0
LINE
  8
0
 10
 8.40000000000000E+0002
 20
 1.25000000000000E+0002
 11
 8.70000000000000E+0002
 21
 1.25000000000000E+0002
  0
LINE
  8
0
 10
 8.70000000000000E+0002
 20
 1.25000000000000E+0002
 11
 8.70000000000000E+0002
 21
 5.98134800000000E+0002
  0
LINE
  8
0
 10
 8.70000000000000E+0002
 20
 5.98134800000000E+0002
 11
 8.40000000000000E+0002
 21
 5.66225400000000E+0002
  0
LINE
  8
0
 10
 8.40000000000000E+0002
 20
 5.66225400000000E+0002
 11
 8.40000000000000E+0002
 21
 1.25000000000000E+0002
  0
LINE
  8
0
 10
 8.40000000000000E+0002
 20
 1.47500000000000E+0003
 11
 8.70000000000000E+0002
 21
 1.47500000000000E+0003
  0
LINE
  8
0
 10
 8.70000000000000E+0002
 20
 1.47500000000000E+0003
 11
 8.69978767931974E+0002
 21
 7.85219027639517E+0002
  0
ARC
  8
0
 10
 2.26550000000000E+0002
 20
 1.23500000000000E+0003
 40
 7.85050000000000E+0002
 50
 3.21390000000000E+0002
 51
 3.25045000000000E+0002
  0
LINE
  8
0
 10
 8.39997155371990E+0002
 20
 7.45116248416001E+0002
 11
 8.40000000000000E+0002
 21
 1.47500000000000E+0003
  0
ENDSEC
  0
EOF
