  0
SECTION
  2
HEADER
  9
$ACADVER
  1
AC1003
  9
$INSBASE
 10
0.0
 20
0.0
  9
$EXTMIN
 10
 0.00000000000000E+0000
 20
 0.00000000000000E+0000
  9
$EXTMAX
 10
 1.25000000000000E+0003
 20
 1.60000000000000E+0003
  9
$LIMMIN
 10
0.0
 20
0.0
  9
$LIMMAX
 10
410.0
 20
287.0
  9
$VIEWCTR
 10
227.0059616
 20
165.058879 
  9
$VIEWSIZE
 40
 1.60000000000000E+0003
9
$SNAPMODE
70
0
9
$SNAPUNIT
10
1
20
1
9
$GRIDMODE
70
0
9
$GRIDUNIT
10
1
20
1
9
$ORTHOMODE
70
0
9
$rEGENMODE
70
1
9
$FILLMODE
70
1
9
$DRAGMODE
70
2
9
$LTSCALE
40
25.0
9
$OSMODE
70
0
9
$ATTMODE
70
1
9
$TRACEWID
40
1.0
9
$TEXTSTYLE
7
STANDARD
9
$CLAYER
8
0
9
$CELTYPE
6
VONLAYER
9
$CECOLOR
62
256
9
$LUNITS
70
2
9
$LUPREC
70
2
9
$AXISMODE
70
0
9
$AXISUNIT
10
0
20
0
9
$SKETCHINC
40
1.0
9
$FILLETRAD
40
0.0
9
$AUNITS
70
0
9
$AUPREC
70
0
9
$MENU
1
ACAD
9
$ELEVATION
40
0.0
9
$THICKNESS
40
0.0
9
$VIEWDIR
10
0.0
20
0.0
30
1.0
9
$LIMCHECK
70
0
9
$BLIPMODE
70
1
9
$CHAMFERA
40
0.0
9
$CHAMFERB
40
0.0
9
$USRTIMER
70
1
9
$ANGBASE
50
0.0
9
$ANGDIR
70
0
9
$PDMODE
70
0
9
$PDSIZE
40
0.0
9
$PLINEWID
40
0.0
9
$COORDS
70
0
0
ENDSEC
0
SECTION
2
TABLES
0
TABLE
2
LTYPE
70
1
0
LTYPE
2
AUSGEZOGEN
70
64
3
Ausgezogene Linie
72
65
73
0
40
0.0
0
ENDTAB
0
TABLE
2
LAYER
70
1
0
LAYER
2
0
70
0
62
7
6
AUSGEZOGEN
0
ENDTAB
0
TABLE
2
STYLE
70
1
0
STYLE
2
STANDARD
70
0
40
0.0
41
1.0
50
0.0
71
0
42
3.5
3
txt
4

0
ENDTAB
0
TABLE
2
VIEW
70
0
0
ENDTAB
0
ENDSEC
0
SECTION
2
BLOCKS
0
ENDSEC
0
SECTION
2
ENTITIES
  0
ARC
  8
0
 10
 6.00000000000000E+0001
 20
 6.00000000000000E+0001
 40
 6.00000000000000E+0001
 50
 1.80000000000000E+0002
 51
 2.70000000000000E+0002
  0
LINE
  8
0
 10
 0.00000000000000E+0000
 20
 6.00000000000000E+0001
 11
 0.00000000000000E+0000
 21
 1.54000000000000E+0003
  0
ARC
  8
0
 10
 6.00000000000000E+0001
 20
 1.54000000000000E+0003
 40
 6.00000000000000E+0001
 50
 9.00000000000000E+0001
 51
 1.80000000000000E+0002
  0
LINE
  8
0
 10
 6.00000000000000E+0001
 20
 1.60000000000000E+0003
 11
 1.19000000000000E+0003
 21
 1.60000000000000E+0003
  0
ARC
  8
0
 10
 1.19000000000000E+0003
 20
 1.54000000000000E+0003
 40
 6.00000000000000E+0001
 50
 0.00000000000000E+0000
 51
 9.00000000000000E+0001
  0
LINE
  8
0
 10
 1.25000000000000E+0003
 20
 1.54000000000000E+0003
 11
 1.25000000000000E+0003
 21
 6.00000000000000E+0001
  0
ARC
  8
0
 10
 1.19000000000000E+0003
 20
 6.00000000000000E+0001
 40
 6.00000000000000E+0001
 50
 2.70000000000000E+0002
 51
 3.60000000000000E+0002
  0
LINE
  8
0
 10
 1.19000000000000E+0003
 20
 0.00000000000000E+0000
 11
 6.00000000000000E+0001
 21
 0.00000000000000E+0000
  0
ARC
  8
0
 10
 6.00000000000000E+0001
 20
 6.00000000000000E+0001
 40
 4.50000000000000E+0001
 50
 1.80000000000000E+0002
 51
 2.70000000000000E+0002
  0
LINE
  8
0
 10
 1.50000000000000E+0001
 20
 6.00000000000000E+0001
 11
 1.50000000000000E+0001
 21
 1.54000000000000E+0003
  0
ARC
  8
0
 10
 6.00000000000000E+0001
 20
 1.54000000000000E+0003
 40
 4.50000000000000E+0001
 50
 9.00000000000000E+0001
 51
 1.80000000000000E+0002
  0
LINE
  8
0
 10
 6.00000000000000E+0001
 20
 1.58500000000000E+0003
 11
 1.19000000000000E+0003
 21
 1.58500000000000E+0003
  0
ARC
  8
0
 10
 1.19000000000000E+0003
 20
 1.54000000000000E+0003
 40
 4.50000000000000E+0001
 50
 0.00000000000000E+0000
 51
 9.00000000000000E+0001
  0
LINE
  8
0
 10
 1.23500000000000E+0003
 20
 1.54000000000000E+0003
 11
 1.23500000000000E+0003
 21
 6.00000000000000E+0001
  0
ARC
  8
0
 10
 1.19000000000000E+0003
 20
 6.00000000000000E+0001
 40
 4.50000000000000E+0001
 50
 2.70000000000000E+0002
 51
 3.60000000000000E+0002
  0
LINE
  8
0
 10
 1.19000000000000E+0003
 20
 1.50000000000000E+0001
 11
 6.00000000000000E+0001
 21
 1.50000000000000E+0001
  0
ARC
  8
0
 10
 6.00000000000000E+0001
 20
 6.00000000000000E+0001
 40
 2.50000000000000E+0001
 50
 1.80000000000000E+0002
 51
 2.70000000000000E+0002
  0
LINE
  8
0
 10
 3.50000000000000E+0001
 20
 6.00000000000000E+0001
 11
 3.50000000000000E+0001
 21
 1.54000000000000E+0003
  0
ARC
  8
0
 10
 6.00000000000000E+0001
 20
 1.54000000000000E+0003
 40
 2.50000000000000E+0001
 50
 9.00000000000000E+0001
 51
 1.80000000000000E+0002
  0
LINE
  8
0
 10
 6.00000000000000E+0001
 20
 1.56500000000000E+0003
 11
 1.19000000000000E+0003
 21
 1.56500000000000E+0003
  0
ARC
  8
0
 10
 1.19000000000000E+0003
 20
 1.54000000000000E+0003
 40
 2.50000000000000E+0001
 50
 0.00000000000000E+0000
 51
 9.00000000000000E+0001
  0
LINE
  8
0
 10
 1.21500000000000E+0003
 20
 1.54000000000000E+0003
 11
 1.21500000000000E+0003
 21
 6.00000000000000E+0001
  0
ARC
  8
0
 10
 1.19000000000000E+0003
 20
 6.00000000000000E+0001
 40
 2.50000000000000E+0001
 50
 2.70000000000000E+0002
 51
 3.60000000000000E+0002
  0
LINE
  8
0
 10
 1.19000000000000E+0003
 20
 3.50000000000000E+0001
 11
 6.00000000000000E+0001
 21
 3.50000000000000E+0001
  0
LINE
  8
0
 10
 3.60000000000000E+0002
 20
 1.29537550000000E+0003
 11
 4.05000000000000E+0002
 21
 1.30700000000000E+0003
  0
LINE
  8
0
 10
 4.05000000000000E+0002
 20
 1.30700000000000E+0003
 11
 4.05000000000000E+0002
 21
 1.26499680000000E+0003
  0
LINE
  8
0
 10
 4.05000000000000E+0002
 20
 1.26499680000000E+0003
 11
 4.04613612928500E+0002
 21
 1.25195320236650E+0003
  0
LINE
  8
0
 10
 4.04613612928500E+0002
 20
 1.25195320236650E+0003
 11
 4.04063525748000E+0002
 21
 1.23907648553200E+0003
  0
LINE
  8
0
 10
 4.04063525748000E+0002
 20
 1.23907648553200E+0003
 11
 4.03353071509500E+0002
 21
 1.22636326859550E+0003
  0
LINE
  8
0
 10
 4.03353071509500E+0002
 20
 1.22636326859550E+0003
 11
 4.02485583264000E+0002
 21
 1.21381017065600E+0003
  0
LINE
  8
0
 10
 4.02485583264000E+0002
 20
 1.21381017065600E+0003
 11
 4.01464394062500E+0002
 21
 1.20141381081250E+0003
  0
LINE
  8
0
 10
 4.01464394062500E+0002
 20
 1.20141381081250E+0003
 11
 4.00292836956000E+0002
 21
 1.18917080816400E+0003
  0
LINE
  8
0
 10
 4.00292836956000E+0002
 20
 1.18917080816400E+0003
 11
 3.98974244995500E+0002
 21
 1.17707778180950E+0003
  0
LINE
  8
0
 10
 3.98974244995500E+0002
 20
 1.17707778180950E+0003
 11
 3.97511951232000E+0002
 21
 1.16513135084800E+0003
  0
LINE
  8
0
 10
 3.97511951232000E+0002
 20
 1.16513135084800E+0003
 11
 3.95909288716500E+0002
 21
 1.15332813437850E+0003
  0
LINE
  8
0
 10
 3.95909288716500E+0002
 20
 1.15332813437850E+0003
 11
 3.94169590500000E+0002
 21
 1.14166475150000E+0003
  0
LINE
  8
0
 10
 3.94169590500000E+0002
 20
 1.14166475150000E+0003
 11
 3.92296189633500E+0002
 21
 1.13013782131150E+0003
  0
LINE
  8
0
 10
 3.92296189633500E+0002
 20
 1.13013782131150E+0003
 11
 3.90292419168000E+0002
 21
 1.11874396291200E+0003
  0
LINE
  8
0
 10
 3.90292419168000E+0002
 20
 1.11874396291200E+0003
 11
 3.88161612154500E+0002
 21
 1.10747979540050E+0003
  0
LINE
  8
0
 10
 3.88161612154500E+0002
 20
 1.10747979540050E+0003
 11
 3.85907101644000E+0002
 21
 1.09634193787600E+0003
  0
LINE
  8
0
 10
 3.85907101644000E+0002
 20
 1.09634193787600E+0003
 11
 3.83532220687500E+0002
 21
 1.08532700943750E+0003
  0
LINE
  8
0
 10
 3.83532220687500E+0002
 20
 1.08532700943750E+0003
 11
 3.81040302336000E+0002
 21
 1.07443162918400E+0003
  0
LINE
  8
0
 10
 3.81040302336000E+0002
 20
 1.07443162918400E+0003
 11
 3.78434679640500E+0002
 21
 1.06365241621450E+0003
  0
LINE
  8
0
 10
 3.78434679640500E+0002
 20
 1.06365241621450E+0003
 11
 3.75718685652000E+0002
 21
 1.05298598962800E+0003
  0
LINE
  8
0
 10
 3.75718685652000E+0002
 20
 1.05298598962800E+0003
 11
 3.72895653421500E+0002
 21
 1.04242896852350E+0003
  0
LINE
  8
0
 10
 3.72895653421500E+0002
 20
 1.04242896852350E+0003
 11
 3.69968916000000E+0002
 21
 1.03197797200000E+0003
  0
LINE
  8
0
 10
 3.69968916000000E+0002
 20
 1.03197797200000E+0003
 11
 3.66941806438500E+0002
 21
 1.02162961915650E+0003
  0
LINE
  8
0
 10
 3.66941806438500E+0002
 20
 1.02162961915650E+0003
 11
 3.63817657788000E+0002
 21
 1.01138052909200E+0003
  0
LINE
  8
0
 10
 3.63817657788000E+0002
 20
 1.01138052909200E+0003
 11
 3.60599803099500E+0002
 21
 1.00122732090550E+0003
  0
LINE
  8
0
 10
 3.60599803099500E+0002
 20
 1.00122732090550E+0003
 11
 3.57291575424000E+0002
 21
 9.91166613696000E+0002
  0
LINE
  8
0
 10
 3.57291575424000E+0002
 20
 9.91166613696000E+0002
 11
 3.53896307812500E+0002
 21
 9.81195026562500E+0002
  0
LINE
  8
0
 10
 3.53896307812500E+0002
 20
 9.81195026562500E+0002
 11
 3.50417333316000E+0002
 21
 9.71309178604000E+0002
  0
LINE
  8
0
 10
 3.50417333316000E+0002
 20
 9.71309178604000E+0002
 11
 3.46857984985500E+0002
 21
 9.61505688919500E+0002
  0
LINE
  8
0
 10
 3.46857984985500E+0002
 20
 9.61505688919500E+0002
 11
 3.43221595872000E+0002
 21
 9.51781176608000E+0002
  0
LINE
  8
0
 10
 3.43221595872000E+0002
 20
 9.51781176608000E+0002
 11
 3.39511499026500E+0002
 21
 9.42132260768500E+0002
  0
LINE
  8
0
 10
 3.39511499026500E+0002
 20
 9.42132260768500E+0002
 11
 3.35731027500000E+0002
 21
 9.32555560500000E+0002
  0
LINE
  8
0
 10
 3.35731027500000E+0002
 20
 9.32555560500000E+0002
 11
 3.31883514343500E+0002
 21
 9.23047694901500E+0002
  0
LINE
  8
0
 10
 3.31883514343500E+0002
 20
 9.23047694901500E+0002
 11
 3.27972292608000E+0002
 21
 9.13605283072000E+0002
  0
LINE
  8
0
 10
 3.27972292608000E+0002
 20
 9.13605283072000E+0002
 11
 3.24000695344500E+0002
 21
 9.04224944110500E+0002
  0
LINE
  8
0
 10
 3.24000695344500E+0002
 20
 9.04224944110500E+0002
 11
 3.19972055604000E+0002
 21
 8.94903297116000E+0002
  0
LINE
  8
0
 10
 3.19972055604000E+0002
 20
 8.94903297116000E+0002
 11
 3.15889706437500E+0002
 21
 8.85636961187500E+0002
  0
LINE
  8
0
 10
 3.15889706437500E+0002
 20
 8.85636961187500E+0002
 11
 3.11756980896000E+0002
 21
 8.76422555424000E+0002
  0
LINE
  8
0
 10
 3.11756980896000E+0002
 20
 8.76422555424000E+0002
 11
 3.07577212030500E+0002
 21
 8.67256698924500E+0002
  0
LINE
  8
0
 10
 3.07577212030500E+0002
 20
 8.67256698924500E+0002
 11
 3.03353732892000E+0002
 21
 8.58136010788000E+0002
  0
LINE
  8
0
 10
 3.03353732892000E+0002
 20
 8.58136010788000E+0002
 11
 2.99089876531500E+0002
 21
 8.49057110113500E+0002
  0
LINE
  8
0
 10
 2.99089876531500E+0002
 20
 8.49057110113500E+0002
 11
 2.94788976000000E+0002
 21
 8.40016616000000E+0002
  0
LINE
  8
0
 10
 2.94788976000000E+0002
 20
 8.40016616000000E+0002
 11
 2.90454364348500E+0002
 21
 8.31011147546500E+0002
  0
LINE
  8
0
 10
 2.90454364348500E+0002
 20
 8.31011147546500E+0002
 11
 2.86089374628000E+0002
 21
 8.22037323852000E+0002
  0
LINE
  8
0
 10
 2.86089374628000E+0002
 20
 8.22037323852000E+0002
 11
 2.81697339889500E+0002
 21
 8.13091764015500E+0002
  0
LINE
  8
0
 10
 2.81697339889500E+0002
 20
 8.13091764015500E+0002
 11
 2.77281593184000E+0002
 21
 8.04171087136000E+0002
  0
LINE
  8
0
 10
 2.77281593184000E+0002
 20
 8.04171087136000E+0002
 11
 2.72845467562500E+0002
 21
 7.95271912312500E+0002
  0
LINE
  8
0
 10
 2.72845467562500E+0002
 20
 7.95271912312500E+0002
 11
 2.68392296076000E+0002
 21
 7.86390858644000E+0002
  0
LINE
  8
0
 10
 2.68392296076000E+0002
 20
 7.86390858644000E+0002
 11
 2.63925411775500E+0002
 21
 7.77524545229500E+0002
  0
LINE
  8
0
 10
 2.63925411775500E+0002
 20
 7.77524545229500E+0002
 11
 2.59448147712000E+0002
 21
 7.68669591168000E+0002
  0
LINE
  8
0
 10
 2.59448147712000E+0002
 20
 7.68669591168000E+0002
 11
 2.54963836936500E+0002
 21
 7.59822615558500E+0002
  0
LINE
  8
0
 10
 2.54963836936500E+0002
 20
 7.59822615558500E+0002
 11
 2.50475812500000E+0002
 21
 7.50980237500000E+0002
  0
LINE
  8
0
 10
 2.50475812500000E+0002
 20
 7.50980237500000E+0002
 11
 2.45987407453500E+0002
 21
 7.42139076091500E+0002
  0
LINE
  8
0
 10
 2.45987407453500E+0002
 20
 7.42139076091500E+0002
 11
 2.41501954848000E+0002
 21
 7.33295750432000E+0002
  0
LINE
  8
0
 10
 2.41501954848000E+0002
 20
 7.33295750432000E+0002
 11
 2.37022787734500E+0002
 21
 7.24446879620500E+0002
  0
LINE
  8
0
 10
 2.37022787734500E+0002
 20
 7.24446879620500E+0002
 11
 2.32553239164000E+0002
 21
 7.15589082756000E+0002
  0
LINE
  8
0
 10
 2.32553239164000E+0002
 20
 7.15589082756000E+0002
 11
 2.28096642187500E+0002
 21
 7.06718978937500E+0002
  0
LINE
  8
0
 10
 2.28096642187500E+0002
 20
 7.06718978937500E+0002
 11
 2.23656329856000E+0002
 21
 6.97833187264000E+0002
  0
LINE
  8
0
 10
 2.23656329856000E+0002
 20
 6.97833187264000E+0002
 11
 2.19235635220500E+0002
 21
 6.88928326834500E+0002
  0
LINE
  8
0
 10
 2.19235635220500E+0002
 20
 6.88928326834500E+0002
 11
 2.14837891332000E+0002
 21
 6.80001016748000E+0002
  0
LINE
  8
0
 10
 2.14837891332000E+0002
 20
 6.80001016748000E+0002
 11
 2.10466431241500E+0002
 21
 6.71047876103500E+0002
  0
LINE
  8
0
 10
 2.10466431241500E+0002
 20
 6.71047876103500E+0002
 11
 2.06124588000000E+0002
 21
 6.62065524000000E+0002
  0
LINE
  8
0
 10
 2.06124588000000E+0002
 20
 6.62065524000000E+0002
 11
 2.01815694658500E+0002
 21
 6.53050579536500E+0002
  0
LINE
  8
0
 10
 2.01815694658500E+0002
 20
 6.53050579536500E+0002
 11
 1.97543084268000E+0002
 21
 6.43999661812000E+0002
  0
LINE
  8
0
 10
 1.97543084268000E+0002
 20
 6.43999661812000E+0002
 11
 1.93310089879500E+0002
 21
 6.34909389925500E+0002
  0
LINE
  8
0
 10
 1.93310089879500E+0002
 20
 6.34909389925500E+0002
 11
 1.89120044544000E+0002
 21
 6.25776382976000E+0002
  0
LINE
  8
0
 10
 1.89120044544000E+0002
 20
 6.25776382976000E+0002
 11
 1.84976281312500E+0002
 21
 6.16597260062500E+0002
  0
LINE
  8
0
 10
 1.84976281312500E+0002
 20
 6.16597260062500E+0002
 11
 1.80882133236000E+0002
 21
 6.07368640284000E+0002
  0
LINE
  8
0
 10
 1.80882133236000E+0002
 20
 6.07368640284000E+0002
 11
 1.76840933365500E+0002
 21
 5.98087142739500E+0002
  0
LINE
  8
0
 10
 1.76840933365500E+0002
 20
 5.98087142739500E+0002
 11
 1.72856014752000E+0002
 21
 5.88749386528000E+0002
  0
LINE
  8
0
 10
 1.72856014752000E+0002
 20
 5.88749386528000E+0002
 11
 1.68930710446500E+0002
 21
 5.79351990748500E+0002
  0
LINE
  8
0
 10
 1.68930710446500E+0002
 20
 5.79351990748500E+0002
 11
 1.65068353500000E+0002
 21
 5.69891574500000E+0002
  0
LINE
  8
0
 10
 1.65068353500000E+0002
 20
 5.69891574500000E+0002
 11
 1.61272276963500E+0002
 21
 5.60364756881500E+0002
  0
LINE
  8
0
 10
 1.61272276963500E+0002
 20
 5.60364756881500E+0002
 11
 1.57545813888000E+0002
 21
 5.50768156992000E+0002
  0
LINE
  8
0
 10
 1.57545813888000E+0002
 20
 5.50768156992000E+0002
 11
 1.53892297324500E+0002
 21
 5.41098393930500E+0002
  0
LINE
  8
0
 10
 1.53892297324500E+0002
 20
 5.41098393930500E+0002
 11
 1.50315060324000E+0002
 21
 5.31352086796000E+0002
  0
LINE
  8
0
 10
 1.50315060324000E+0002
 20
 5.31352086796000E+0002
 11
 1.46817435937500E+0002
 21
 5.21525854687500E+0002
  0
LINE
  8
0
 10
 1.46817435937500E+0002
 20
 5.21525854687500E+0002
 11
 1.43402757216000E+0002
 21
 5.11616316704000E+0002
  0
LINE
  8
0
 10
 1.43402757216000E+0002
 20
 5.11616316704000E+0002
 11
 1.40074357210500E+0002
 21
 5.01620091944500E+0002
  0
LINE
  8
0
 10
 1.40074357210500E+0002
 20
 5.01620091944500E+0002
 11
 1.36835568972000E+0002
 21
 4.91533799508000E+0002
  0
LINE
  8
0
 10
 1.36835568972000E+0002
 20
 4.91533799508000E+0002
 11
 1.33689725551500E+0002
 21
 4.81354058493500E+0002
  0
LINE
  8
0
 10
 1.33689725551500E+0002
 20
 4.81354058493500E+0002
 11
 1.30640160000000E+0002
 21
 4.71077488000000E+0002
  0
LINE
  8
0
 10
 1.30640160000000E+0002
 20
 4.71077488000000E+0002
 11
 1.27690205368499E+0002
 21
 4.60700707126500E+0002
  0
LINE
  8
0
 10
 1.27690205368499E+0002
 20
 4.60700707126500E+0002
 11
 1.24843194708000E+0002
 21
 4.50220334972000E+0002
  0
LINE
  8
0
 10
 1.24843194708000E+0002
 20
 4.50220334972000E+0002
 11
 1.22102461069500E+0002
 21
 4.39632990635500E+0002
  0
LINE
  8
0
 10
 1.22102461069500E+0002
 20
 4.39632990635500E+0002
 11
 1.19471337504000E+0002
 21
 4.28935293216000E+0002
  0
LINE
  8
0
 10
 1.19471337504000E+0002
 20
 4.28935293216000E+0002
 11
 1.16953157062500E+0002
 21
 4.18123861812500E+0002
  0
LINE
  8
0
 10
 1.16953157062500E+0002
 20
 4.18123861812500E+0002
 11
 1.14551252796000E+0002
 21
 4.07195315524000E+0002
  0
LINE
  8
0
 10
 1.14551252796000E+0002
 20
 4.07195315524000E+0002
 11
 1.12268957755500E+0002
 21
 3.96146273449500E+0002
  0
LINE
  8
0
 10
 1.12268957755500E+0002
 20
 3.96146273449500E+0002
 11
 1.10109604992000E+0002
 21
 3.84973354688000E+0002
  0
LINE
  8
0
 10
 1.10109604992000E+0002
 20
 3.84973354688000E+0002
 11
 1.08076527556500E+0002
 21
 3.73673178338500E+0002
  0
LINE
  8
0
 10
 1.08076527556500E+0002
 20
 3.73673178338500E+0002
 11
 1.06173058500000E+0002
 21
 3.62242363500000E+0002
  0
LINE
  8
0
 10
 1.06173058500000E+0002
 20
 3.62242363500000E+0002
 11
 1.04402530873500E+0002
 21
 3.50677529271500E+0002
  0
LINE
  8
0
 10
 1.04402530873500E+0002
 20
 3.50677529271500E+0002
 11
 1.02768277728000E+0002
 21
 3.38975294752000E+0002
  0
LINE
  8
0
 10
 1.02768277728000E+0002
 20
 3.38975294752000E+0002
 11
 1.01273632114500E+0002
 21
 3.27132279040500E+0002
  0
LINE
  8
0
 10
 1.01273632114500E+0002
 20
 3.27132279040500E+0002
 11
 9.99219270840000E+0001
 21
 3.15145101236000E+0002
  0
LINE
  8
0
 10
 9.99219270840000E+0001
 20
 3.15145101236000E+0002
 11
 9.87164956875000E+0001
 21
 3.03010380437500E+0002
  0
LINE
  8
0
 10
 9.87164956875000E+0001
 20
 3.03010380437500E+0002
 11
 9.76606709760000E+0001
 21
 2.90724735744000E+0002
  0
LINE
  8
0
 10
 9.76606709760000E+0001
 20
 2.90724735744000E+0002
 11
 9.67577860005000E+0001
 21
 2.78284786254500E+0002
  0
LINE
  8
0
 10
 9.67577860005000E+0001
 20
 2.78284786254500E+0002
 11
 9.60111738120001E+0001
 21
 2.65687151068000E+0002
  0
LINE
  8
0
 10
 9.60111738120001E+0001
 20
 2.65687151068000E+0002
 11
 9.54241674615001E+0001
 21
 2.52928449283500E+0002
  0
LINE
  8
0
 10
 9.54241674615001E+0001
 20
 2.52928449283500E+0002
 11
 9.50001000000000E+0001
 21
 2.40005300000000E+0002
  0
LINE
  8
0
 10
 9.50001000000000E+0001
 20
 2.40005300000000E+0002
 11
 9.50000000000000E+0001
 21
 1.55000000000000E+0002
  0
LINE
  8
0
 10
 9.50000000000000E+0001
 20
 1.55000000000000E+0002
 11
 1.55000000000000E+0002
 21
 1.55000000000000E+0002
  0
LINE
  8
0
 10
 1.55000000000000E+0002
 20
 1.55000000000000E+0002
 11
 1.55000000000000E+0002
 21
 2.40005300000000E+0002
  0
LINE
  8
0
 10
 1.55000000000000E+0002
 20
 2.40005300000000E+0002
 11
 1.55424032565100E+0002
 21
 2.52928449294400E+0002
  0
LINE
  8
0
 10
 1.55424032565100E+0002
 20
 2.52928449294400E+0002
 11
 1.56011006200800E+0002
 21
 2.65687151155200E+0002
  0
LINE
  8
0
 10
 1.56011006200800E+0002
 20
 2.65687151155200E+0002
 11
 1.56757587817700E+0002
 21
 2.78284786548800E+0002
  0
LINE
  8
0
 10
 1.56757587817700E+0002
 20
 2.78284786548800E+0002
 11
 1.57660444326400E+0002
 21
 2.90724736441600E+0002
  0
LINE
  8
0
 10
 1.57660444326400E+0002
 20
 2.90724736441600E+0002
 11
 1.58716242637500E+0002
 21
 3.03010381800000E+0002
  0
LINE
  8
0
 10
 1.58716242637500E+0002
 20
 3.03010381800000E+0002
 11
 1.59921649661600E+0002
 21
 3.15145103590400E+0002
  0
LINE
  8
0
 10
 1.59921649661600E+0002
 20
 3.15145103590400E+0002
 11
 1.61273332309300E+0002
 21
 3.27132282779200E+0002
  0
LINE
  8
0
 10
 1.61273332309300E+0002
 20
 3.27132282779200E+0002
 11
 1.62767957491200E+0002
 21
 3.38975300332800E+0002
  0
LINE
  8
0
 10
 1.62767957491200E+0002
 20
 3.38975300332800E+0002
 11
 1.64402192117900E+0002
 21
 3.50677537217600E+0002
  0
LINE
  8
0
 10
 1.64402192117900E+0002
 20
 3.50677537217600E+0002
 11
 1.66172703100000E+0002
 21
 3.62242374400000E+0002
  0
LINE
  8
0
 10
 1.66172703100000E+0002
 20
 3.62242374400000E+0002
 11
 1.68076157348100E+0002
 21
 3.73673192846400E+0002
  0
LINE
  8
0
 10
 1.68076157348100E+0002
 20
 3.73673192846400E+0002
 11
 1.70109221772800E+0002
 21
 3.84973373523200E+0002
  0
LINE
  8
0
 10
 1.70109221772800E+0002
 20
 3.84973373523200E+0002
 11
 1.72268563284700E+0002
 21
 3.96146297396800E+0002
  0
LINE
  8
0
 10
 1.72268563284700E+0002
 20
 3.96146297396800E+0002
 11
 1.74550848794400E+0002
 21
 4.07195345433600E+0002
  0
LINE
  8
0
 10
 1.74550848794400E+0002
 20
 4.07195345433600E+0002
 11
 1.76952745212500E+0002
 21
 4.18123898600000E+0002
  0
LINE
  8
0
 10
 1.76952745212500E+0002
 20
 4.18123898600000E+0002
 11
 1.79470919449600E+0002
 21
 4.28935337862400E+0002
  0
LINE
  8
0
 10
 1.79470919449600E+0002
 20
 4.28935337862400E+0002
 11
 1.82102038416300E+0002
 21
 4.39633044187200E+0002
  0
LINE
  8
0
 10
 1.82102038416300E+0002
 20
 4.39633044187200E+0002
 11
 1.84842769023200E+0002
 21
 4.50220398540800E+0002
  0
LINE
  8
0
 10
 1.84842769023200E+0002
 20
 4.50220398540800E+0002
 11
 1.87689778180900E+0002
 21
 4.60700781889600E+0002
  0
LINE
  8
0
 10
 1.87689778180900E+0002
 20
 4.60700781889600E+0002
 11
 1.90639732800000E+0002
 21
 4.71077575200000E+0002
  0
LINE
  8
0
 10
 1.90639732800000E+0002
 20
 4.71077575200000E+0002
 11
 1.93689299791100E+0002
 21
 4.81354159438400E+0002
  0
LINE
  8
0
 10
 1.93689299791100E+0002
 20
 4.81354159438400E+0002
 11
 1.96835146064800E+0002
 21
 4.91533915571200E+0002
  0
LINE
  8
0
 10
 1.96835146064800E+0002
 20
 4.91533915571200E+0002
 11
 2.00073938531700E+0002
 21
 5.01620224564800E+0002
  0
LINE
  8
0
 10
 2.00073938531700E+0002
 20
 5.01620224564800E+0002
 11
 2.03402344102400E+0002
 21
 5.11616467385600E+0002
  0
LINE
  8
0
 10
 2.03402344102400E+0002
 20
 5.11616467385600E+0002
 11
 2.06817029687500E+0002
 21
 5.21526025000000E+0002
  0
LINE
  8
0
 10
 2.06817029687500E+0002
 20
 5.21526025000000E+0002
 11
 2.10314662197600E+0002
 21
 5.31352278374400E+0002
  0
LINE
  8
0
 10
 2.10314662197600E+0002
 20
 5.31352278374400E+0002
 11
 2.13891908543300E+0002
 21
 5.41098608475200E+0002
  0
LINE
  8
0
 10
 2.13891908543300E+0002
 20
 5.41098608475200E+0002
 11
 2.17545435635200E+0002
 21
 5.50768396268800E+0002
  0
LINE
  8
0
 10
 2.17545435635200E+0002
 20
 5.50768396268800E+0002
 11
 2.21271910383900E+0002
 21
 5.60365022721600E+0002
  0
LINE
  8
0
 10
 2.21271910383900E+0002
 20
 5.60365022721600E+0002
 11
 2.25067999700000E+0002
 21
 5.69891868800000E+0002
  0
LINE
  8
0
 10
 2.25067999700000E+0002
 20
 5.69891868800000E+0002
 11
 2.28930370494100E+0002
 21
 5.79352315470400E+0002
  0
LINE
  8
0
 10
 2.28930370494100E+0002
 20
 5.79352315470400E+0002
 11
 2.32855689676800E+0002
 21
 5.88749743699200E+0002
  0
LINE
  8
0
 10
 2.32855689676800E+0002
 20
 5.88749743699200E+0002
 11
 2.36840624158700E+0002
 21
 5.98087534452800E+0002
  0
LINE
  8
0
 10
 2.36840624158700E+0002
 20
 5.98087534452800E+0002
 11
 2.40881840850400E+0002
 21
 6.07369068697600E+0002
  0
LINE
  8
0
 10
 2.40881840850400E+0002
 20
 6.07369068697600E+0002
 11
 2.44976006662500E+0002
 21
 6.16597727400000E+0002
  0
LINE
  8
0
 10
 2.44976006662500E+0002
 20
 6.16597727400000E+0002
 11
 2.49119788505600E+0002
 21
 6.25776891526400E+0002
  0
LINE
  8
0
 10
 2.49119788505600E+0002
 20
 6.25776891526400E+0002
 11
 2.53309853290300E+0002
 21
 6.34909942043200E+0002
  0
LINE
  8
0
 10
 2.53309853290300E+0002
 20
 6.34909942043200E+0002
 11
 2.57542867927200E+0002
 21
 6.44000259916800E+0002
  0
LINE
  8
0
 10
 2.57542867927200E+0002
 20
 6.44000259916800E+0002
 11
 2.61815499326900E+0002
 21
 6.53051226113600E+0002
  0
LINE
  8
0
 10
 2.61815499326900E+0002
 20
 6.53051226113600E+0002
 11
 2.66124414400000E+0002
 21
 6.62066221600000E+0002
  0
LINE
  8
0
 10
 2.66124414400000E+0002
 20
 6.62066221600000E+0002
 11
 2.70466280057100E+0002
 21
 6.71048627342400E+0002
  0
LINE
  8
0
 10
 2.70466280057100E+0002
 20
 6.71048627342400E+0002
 11
 2.74837763208800E+0002
 21
 6.80001824307200E+0002
  0
LINE
  8
0
 10
 2.74837763208800E+0002
 20
 6.80001824307200E+0002
 11
 2.79235530765700E+0002
 21
 6.88929193460800E+0002
  0
LINE
  8
0
 10
 2.79235530765700E+0002
 20
 6.88929193460800E+0002
 11
 2.83656249638400E+0002
 21
 6.97834115769600E+0002
  0
LINE
  8
0
 10
 2.83656249638400E+0002
 20
 6.97834115769600E+0002
 11
 2.88096586737500E+0002
 21
 7.06719972200000E+0002
  0
LINE
  8
0
 10
 2.88096586737500E+0002
 20
 7.06719972200000E+0002
 11
 2.92553208973600E+0002
 21
 7.15590143718400E+0002
  0
LINE
  8
0
 10
 2.92553208973600E+0002
 20
 7.15590143718400E+0002
 11
 2.97022783257300E+0002
 21
 7.24448011291200E+0002
  0
LINE
  8
0
 10
 2.97022783257300E+0002
 20
 7.24448011291200E+0002
 11
 3.01501976499200E+0002
 21
 7.33296955884800E+0002
  0
LINE
  8
0
 10
 3.01501976499200E+0002
 20
 7.33296955884800E+0002
 11
 3.05987455609900E+0002
 21
 7.42140358465600E+0002
  0
LINE
  8
0
 10
 3.05987455609900E+0002
 20
 7.42140358465600E+0002
 11
 3.10475887500000E+0002
 21
 7.50981600000000E+0002
  0
LINE
  8
0
 10
 3.10475887500000E+0002
 20
 7.50981600000000E+0002
 11
 3.14963939080100E+0002
 21
 7.59824061454400E+0002
  0
LINE
  8
0
 10
 3.14963939080100E+0002
 20
 7.59824061454400E+0002
 11
 3.19448277260800E+0002
 21
 7.68671123795200E+0002
  0
LINE
  8
0
 10
 3.19448277260800E+0002
 20
 7.68671123795200E+0002
 11
 3.23925568952700E+0002
 21
 7.77526167988800E+0002
  0
LINE
  8
0
 10
 3.23925568952700E+0002
 20
 7.77526167988800E+0002
 11
 3.28392481066400E+0002
 21
 7.86392575001600E+0002
  0
LINE
  8
0
 10
 3.28392481066400E+0002
 20
 7.86392575001600E+0002
 11
 3.32845680512500E+0002
 21
 7.95273725800000E+0002
  0
LINE
  8
0
 10
 3.32845680512500E+0002
 20
 7.95273725800000E+0002
 11
 3.37281834201600E+0002
 21
 8.04173001350400E+0002
  0
LINE
  8
0
 10
 3.37281834201600E+0002
 20
 8.04173001350400E+0002
 11
 3.41697609044300E+0002
 21
 8.13093782619200E+0002
  0
LINE
  8
0
 10
 3.41697609044300E+0002
 20
 8.13093782619200E+0002
 11
 3.46089671951200E+0002
 21
 8.22039450572800E+0002
  0
LINE
  8
0
 10
 3.46089671951200E+0002
 20
 8.22039450572800E+0002
 11
 3.50454689832900E+0002
 21
 8.31013386177600E+0002
  0
LINE
  8
0
 10
 3.50454689832900E+0002
 20
 8.31013386177600E+0002
 11
 3.54789329600000E+0002
 21
 8.40018970400000E+0002
  0
LINE
  8
0
 10
 3.54789329600000E+0002
 20
 8.40018970400000E+0002
 11
 3.59090258163100E+0002
 21
 8.49059584206400E+0002
  0
LINE
  8
0
 10
 3.59090258163100E+0002
 20
 8.49059584206400E+0002
 11
 3.63354142432800E+0002
 21
 8.58138608563200E+0002
  0
LINE
  8
0
 10
 3.63354142432800E+0002
 20
 8.58138608563200E+0002
 11
 3.67577649319700E+0002
 21
 8.67259424436800E+0002
  0
LINE
  8
0
 10
 3.67577649319700E+0002
 20
 8.67259424436800E+0002
 11
 3.71757445734400E+0002
 21
 8.76425412793600E+0002
  0
LINE
  8
0
 10
 3.71757445734400E+0002
 20
 8.76425412793600E+0002
 11
 3.75890198587500E+0002
 21
 8.85639954600000E+0002
  0
LINE
  8
0
 10
 3.75890198587500E+0002
 20
 8.85639954600000E+0002
 11
 3.79972574789600E+0002
 21
 8.94906430822400E+0002
  0
LINE
  8
0
 10
 3.79972574789600E+0002
 20
 8.94906430822400E+0002
 11
 3.84001241251300E+0002
 21
 9.04228222427200E+0002
  0
LINE
  8
0
 10
 3.84001241251300E+0002
 20
 9.04228222427200E+0002
 11
 3.87972864883200E+0002
 21
 9.13608710380800E+0002
  0
LINE
  8
0
 10
 3.87972864883200E+0002
 20
 9.13608710380800E+0002
 11
 3.91884112595900E+0002
 21
 9.23051275649600E+0002
  0
LINE
  8
0
 10
 3.91884112595900E+0002
 20
 9.23051275649600E+0002
 11
 3.95731651300000E+0002
 21
 9.32559299200000E+0002
  0
LINE
  8
0
 10
 3.95731651300000E+0002
 20
 9.32559299200000E+0002
 11
 3.99512147906100E+0002
 21
 9.42136161998400E+0002
  0
LINE
  8
0
 10
 3.99512147906100E+0002
 20
 9.42136161998400E+0002
 11
 4.03222269324800E+0002
 21
 9.51785245011200E+0002
  0
LINE
  8
0
 10
 4.03222269324800E+0002
 20
 9.51785245011200E+0002
 11
 4.06858682466700E+0002
 21
 9.61509929204800E+0002
  0
LINE
  8
0
 10
 4.06858682466700E+0002
 20
 9.61509929204800E+0002
 11
 4.10418054242400E+0002
 21
 9.71313595545600E+0002
  0
LINE
  8
0
 10
 4.10418054242400E+0002
 20
 9.71313595545600E+0002
 11
 4.13897051562500E+0002
 21
 9.81199625000000E+0002
  0
LINE
  8
0
 10
 4.13897051562500E+0002
 20
 9.81199625000000E+0002
 11
 4.17292341337600E+0002
 21
 9.91171398534400E+0002
  0
LINE
  8
0
 10
 4.17292341337600E+0002
 20
 9.91171398534400E+0002
 11
 4.20600590478300E+0002
 21
 1.00123229711520E+0003
  0
LINE
  8
0
 10
 4.20600590478300E+0002
 20
 1.00123229711520E+0003
 11
 4.23818465895200E+0002
 21
 1.01138570170880E+0003
  0
LINE
  8
0
 10
 4.23818465895200E+0002
 20
 1.01138570170880E+0003
 11
 4.26942634498900E+0002
 21
 1.02163499328160E+0003
  0
LINE
  8
0
 10
 4.26942634498900E+0002
 20
 1.02163499328160E+0003
 11
 4.29969763200000E+0002
 21
 1.03198355280000E+0003
  0
LINE
  8
0
 10
 4.29969763200000E+0002
 20
 1.03198355280000E+0003
 11
 4.32896518909100E+0002
 21
 1.04243476123040E+0003
  0
LINE
  8
0
 10
 4.32896518909100E+0002
 20
 1.04243476123040E+0003
 11
 4.35719568536800E+0002
 21
 1.05299199953920E+0003
  0
LINE
  8
0
 10
 4.35719568536800E+0002
 20
 1.05299199953920E+0003
 11
 4.38435578993700E+0002
 21
 1.06365864869280E+0003
  0
LINE
  8
0
 10
 4.38435578993700E+0002
 20
 1.06365864869280E+0003
 11
 4.41041217190400E+0002
 21
 1.07443808965760E+0003
  0
LINE
  8
0
 10
 4.41041217190400E+0002
 20
 1.07443808965760E+0003
 11
 4.43533150037500E+0002
 21
 1.08533370340000E+0003
  0
LINE
  8
0
 10
 4.43533150037500E+0002
 20
 1.08533370340000E+0003
 11
 4.45908044445600E+0002
 21
 1.09634887088640E+0003
  0
LINE
  8
0
 10
 4.45908044445600E+0002
 20
 1.09634887088640E+0003
 11
 4.48162567325300E+0002
 21
 1.10748697308320E+0003
  0
LINE
  8
0
 10
 4.48162567325300E+0002
 20
 1.10748697308320E+0003
 11
 4.50293385587200E+0002
 21
 1.11875139095680E+0003
  0
LINE
  8
0
 10
 4.50293385587200E+0002
 20
 1.11875139095680E+0003
 11
 4.52297166141900E+0002
 21
 1.13014550547360E+0003
  0
LINE
  8
0
 10
 4.52297166141900E+0002
 20
 1.13014550547360E+0003
 11
 4.54170575900000E+0002
 21
 1.14167269760000E+0003
  0
LINE
  8
0
 10
 4.54170575900000E+0002
 20
 1.14167269760000E+0003
 11
 4.55910281772100E+0002
 21
 1.15333634830240E+0003
  0
LINE
  8
0
 10
 4.55910281772100E+0002
 20
 1.15333634830240E+0003
 11
 4.57512950668800E+0002
 21
 1.16513983854720E+0003
  0
LINE
  8
0
 10
 4.57512950668800E+0002
 20
 1.16513983854720E+0003
 11
 4.58975249500700E+0002
 21
 1.17708654930080E+0003
  0
LINE
  8
0
 10
 4.58975249500700E+0002
 20
 1.17708654930080E+0003
 11
 4.60293845178400E+0002
 21
 1.18917986152960E+0003
  0
LINE
  8
0
 10
 4.60293845178400E+0002
 20
 1.18917986152960E+0003
 11
 4.61465404612500E+0002
 21
 1.20142315620000E+0003
  0
LINE
  8
0
 10
 4.61465404612500E+0002
 20
 1.20142315620000E+0003
 11
 4.62486594713600E+0002
 21
 1.21381981427840E+0003
  0
LINE
  8
0
 10
 4.62486594713600E+0002
 20
 1.21381981427840E+0003
 11
 4.63354082392300E+0002
 21
 1.22637321673120E+0003
  0
LINE
  8
0
 10
 4.63354082392300E+0002
 20
 1.22637321673120E+0003
 11
 4.64064534559200E+0002
 21
 1.23908674452480E+0003
  0
LINE
  8
0
 10
 4.64064534559200E+0002
 20
 1.23908674452480E+0003
 11
 4.64614618124900E+0002
 21
 1.25196377862560E+0003
  0
LINE
  8
0
 10
 4.64614618124900E+0002
 20
 1.25196377862560E+0003
 11
 4.65001000000000E+0002
 21
 1.26500770000000E+0003
  0
LINE
  8
0
 10
 4.65001000000000E+0002
 20
 1.26500770000000E+0003
 11
 4.65000000000000E+0002
 21
 1.30700000000000E+0003
  0
LINE
  8
0
 10
 4.65000000000000E+0002
 20
 1.30700000000000E+0003
 11
 5.09997467680775E+0002
 21
 1.29538170409776E+0003
  0
ARC
  8
0
 10
 5.13000000000000E+0002
 20
 1.30700000000000E+0003
 40
 1.20000000000000E+0001
 50
 2.55510000000000E+0002
 51
 3.93600000000000E+0002
  0
LINE
  8
0
 10
 5.22995054888521E+0002
 20
 1.31364069859092E+0003
 11
 4.35000000000000E+0002
 21
 1.44500000000000E+0003
  0
LINE
  8
0
 10
 4.35000000000000E+0002
 20
 1.44500000000000E+0003
 11
 3.47011904713912E+0002
 21
 1.31365116174484E+0003
  0
ARC
  8
0
 10
 3.57000000000000E+0002
 20
 1.30700000000000E+0003
 40
 1.20000000000000E+0001
 50
 1.46340000000000E+0002
 51
 2.84365000000000E+0002
  0
LINE
  8
0
 10
 3.59977178004217E+0002
 20
 1.29537518124308E+0003
 11
 3.60000000000000E+0002
 21
 1.29537550000000E+0003
  0
LINE
  8
0
 10
 5.70000000000000E+0002
 20
 1.29537550000000E+0003
 11
 6.15000000000000E+0002
 21
 1.30700000000000E+0003
  0
LINE
  8
0
 10
 6.15000000000000E+0002
 20
 1.30700000000000E+0003
 11
 6.15000000000000E+0002
 21
 1.26499680000000E+0003
  0
LINE
  8
0
 10
 6.15000000000000E+0002
 20
 1.26499680000000E+0003
 11
 6.14613612928500E+0002
 21
 1.25195320236650E+0003
  0
LINE
  8
0
 10
 6.14613612928500E+0002
 20
 1.25195320236650E+0003
 11
 6.14063525748000E+0002
 21
 1.23907648553200E+0003
  0
LINE
  8
0
 10
 6.14063525748000E+0002
 20
 1.23907648553200E+0003
 11
 6.13353071509500E+0002
 21
 1.22636326859550E+0003
  0
LINE
  8
0
 10
 6.13353071509500E+0002
 20
 1.22636326859550E+0003
 11
 6.12485583264000E+0002
 21
 1.21381017065600E+0003
  0
LINE
  8
0
 10
 6.12485583264000E+0002
 20
 1.21381017065600E+0003
 11
 6.11464394062500E+0002
 21
 1.20141381081250E+0003
  0
LINE
  8
0
 10
 6.11464394062500E+0002
 20
 1.20141381081250E+0003
 11
 6.10292836956000E+0002
 21
 1.18917080816400E+0003
  0
LINE
  8
0
 10
 6.10292836956000E+0002
 20
 1.18917080816400E+0003
 11
 6.08974244995500E+0002
 21
 1.17707778180950E+0003
  0
LINE
  8
0
 10
 6.08974244995500E+0002
 20
 1.17707778180950E+0003
 11
 6.07511951232000E+0002
 21
 1.16513135084800E+0003
  0
LINE
  8
0
 10
 6.07511951232000E+0002
 20
 1.16513135084800E+0003
 11
 6.05909288716500E+0002
 21
 1.15332813437850E+0003
  0
LINE
  8
0
 10
 6.05909288716500E+0002
 20
 1.15332813437850E+0003
 11
 6.04169590500000E+0002
 21
 1.14166475150000E+0003
  0
LINE
  8
0
 10
 6.04169590500000E+0002
 20
 1.14166475150000E+0003
 11
 6.02296189633500E+0002
 21
 1.13013782131150E+0003
  0
LINE
  8
0
 10
 6.02296189633500E+0002
 20
 1.13013782131150E+0003
 11
 6.00292419168000E+0002
 21
 1.11874396291200E+0003
  0
LINE
  8
0
 10
 6.00292419168000E+0002
 20
 1.11874396291200E+0003
 11
 5.98161612154500E+0002
 21
 1.10747979540050E+0003
  0
LINE
  8
0
 10
 5.98161612154500E+0002
 20
 1.10747979540050E+0003
 11
 5.95907101644000E+0002
 21
 1.09634193787600E+0003
  0
LINE
  8
0
 10
 5.95907101644000E+0002
 20
 1.09634193787600E+0003
 11
 5.93532220687500E+0002
 21
 1.08532700943750E+0003
  0
LINE
  8
0
 10
 5.93532220687500E+0002
 20
 1.08532700943750E+0003
 11
 5.91040302336000E+0002
 21
 1.07443162918400E+0003
  0
LINE
  8
0
 10
 5.91040302336000E+0002
 20
 1.07443162918400E+0003
 11
 5.88434679640500E+0002
 21
 1.06365241621450E+0003
  0
LINE
  8
0
 10
 5.88434679640500E+0002
 20
 1.06365241621450E+0003
 11
 5.85718685652000E+0002
 21
 1.05298598962800E+0003
  0
LINE
  8
0
 10
 5.85718685652000E+0002
 20
 1.05298598962800E+0003
 11
 5.82895653421500E+0002
 21
 1.04242896852350E+0003
  0
LINE
  8
0
 10
 5.82895653421500E+0002
 20
 1.04242896852350E+0003
 11
 5.79968916000000E+0002
 21
 1.03197797200000E+0003
  0
LINE
  8
0
 10
 5.79968916000000E+0002
 20
 1.03197797200000E+0003
 11
 5.76941806438500E+0002
 21
 1.02162961915650E+0003
  0
LINE
  8
0
 10
 5.76941806438500E+0002
 20
 1.02162961915650E+0003
 11
 5.73817657788000E+0002
 21
 1.01138052909200E+0003
  0
LINE
  8
0
 10
 5.73817657788000E+0002
 20
 1.01138052909200E+0003
 11
 5.70599803099500E+0002
 21
 1.00122732090550E+0003
  0
LINE
  8
0
 10
 5.70599803099500E+0002
 20
 1.00122732090550E+0003
 11
 5.67291575424000E+0002
 21
 9.91166613696000E+0002
  0
LINE
  8
0
 10
 5.67291575424000E+0002
 20
 9.91166613696000E+0002
 11
 5.63896307812500E+0002
 21
 9.81195026562500E+0002
  0
LINE
  8
0
 10
 5.63896307812500E+0002
 20
 9.81195026562500E+0002
 11
 5.60417333316000E+0002
 21
 9.71309178604000E+0002
  0
LINE
  8
0
 10
 5.60417333316000E+0002
 20
 9.71309178604000E+0002
 11
 5.56857984985500E+0002
 21
 9.61505688919500E+0002
  0
LINE
  8
0
 10
 5.56857984985500E+0002
 20
 9.61505688919500E+0002
 11
 5.53221595872000E+0002
 21
 9.51781176608000E+0002
  0
LINE
  8
0
 10
 5.53221595872000E+0002
 20
 9.51781176608000E+0002
 11
 5.49511499026500E+0002
 21
 9.42132260768500E+0002
  0
LINE
  8
0
 10
 5.49511499026500E+0002
 20
 9.42132260768500E+0002
 11
 5.45731027500000E+0002
 21
 9.32555560500000E+0002
  0
LINE
  8
0
 10
 5.45731027500000E+0002
 20
 9.32555560500000E+0002
 11
 5.41883514343500E+0002
 21
 9.23047694901500E+0002
  0
LINE
  8
0
 10
 5.41883514343500E+0002
 20
 9.23047694901500E+0002
 11
 5.37972292608000E+0002
 21
 9.13605283072000E+0002
  0
LINE
  8
0
 10
 5.37972292608000E+0002
 20
 9.13605283072000E+0002
 11
 5.34000695344500E+0002
 21
 9.04224944110500E+0002
  0
LINE
  8
0
 10
 5.34000695344500E+0002
 20
 9.04224944110500E+0002
 11
 5.29972055604000E+0002
 21
 8.94903297116000E+0002
  0
LINE
  8
0
 10
 5.29972055604000E+0002
 20
 8.94903297116000E+0002
 11
 5.25889706437500E+0002
 21
 8.85636961187500E+0002
  0
LINE
  8
0
 10
 5.25889706437500E+0002
 20
 8.85636961187500E+0002
 11
 5.21756980896000E+0002
 21
 8.76422555424000E+0002
  0
LINE
  8
0
 10
 5.21756980896000E+0002
 20
 8.76422555424000E+0002
 11
 5.17577212030500E+0002
 21
 8.67256698924500E+0002
  0
LINE
  8
0
 10
 5.17577212030500E+0002
 20
 8.67256698924500E+0002
 11
 5.13353732892000E+0002
 21
 8.58136010788000E+0002
  0
LINE
  8
0
 10
 5.13353732892000E+0002
 20
 8.58136010788000E+0002
 11
 5.09089876531500E+0002
 21
 8.49057110113500E+0002
  0
LINE
  8
0
 10
 5.09089876531500E+0002
 20
 8.49057110113500E+0002
 11
 5.04788976000000E+0002
 21
 8.40016616000000E+0002
  0
LINE
  8
0
 10
 5.04788976000000E+0002
 20
 8.40016616000000E+0002
 11
 5.00454364348500E+0002
 21
 8.31011147546500E+0002
  0
LINE
  8
0
 10
 5.00454364348500E+0002
 20
 8.31011147546500E+0002
 11
 4.96089374628000E+0002
 21
 8.22037323852000E+0002
  0
LINE
  8
0
 10
 4.96089374628000E+0002
 20
 8.22037323852000E+0002
 11
 4.91697339889500E+0002
 21
 8.13091764015500E+0002
  0
LINE
  8
0
 10
 4.91697339889500E+0002
 20
 8.13091764015500E+0002
 11
 4.87281593184000E+0002
 21
 8.04171087136000E+0002
  0
LINE
  8
0
 10
 4.87281593184000E+0002
 20
 8.04171087136000E+0002
 11
 4.82845467562500E+0002
 21
 7.95271912312500E+0002
  0
LINE
  8
0
 10
 4.82845467562500E+0002
 20
 7.95271912312500E+0002
 11
 4.78392296076000E+0002
 21
 7.86390858644000E+0002
  0
LINE
  8
0
 10
 4.78392296076000E+0002
 20
 7.86390858644000E+0002
 11
 4.73925411775500E+0002
 21
 7.77524545229500E+0002
  0
LINE
  8
0
 10
 4.73925411775500E+0002
 20
 7.77524545229500E+0002
 11
 4.69448147712000E+0002
 21
 7.68669591168000E+0002
  0
LINE
  8
0
 10
 4.69448147712000E+0002
 20
 7.68669591168000E+0002
 11
 4.64963836936500E+0002
 21
 7.59822615558500E+0002
  0
LINE
  8
0
 10
 4.64963836936500E+0002
 20
 7.59822615558500E+0002
 11
 4.60475812500000E+0002
 21
 7.50980237500000E+0002
  0
LINE
  8
0
 10
 4.60475812500000E+0002
 20
 7.50980237500000E+0002
 11
 4.55987407453500E+0002
 21
 7.42139076091500E+0002
  0
LINE
  8
0
 10
 4.55987407453500E+0002
 20
 7.42139076091500E+0002
 11
 4.51501954848000E+0002
 21
 7.33295750432000E+0002
  0
LINE
  8
0
 10
 4.51501954848000E+0002
 20
 7.33295750432000E+0002
 11
 4.47022787734500E+0002
 21
 7.24446879620500E+0002
  0
LINE
  8
0
 10
 4.47022787734500E+0002
 20
 7.24446879620500E+0002
 11
 4.42553239164000E+0002
 21
 7.15589082756000E+0002
  0
LINE
  8
0
 10
 4.42553239164000E+0002
 20
 7.15589082756000E+0002
 11
 4.38096642187500E+0002
 21
 7.06718978937500E+0002
  0
LINE
  8
0
 10
 4.38096642187500E+0002
 20
 7.06718978937500E+0002
 11
 4.33656329856000E+0002
 21
 6.97833187264000E+0002
  0
LINE
  8
0
 10
 4.33656329856000E+0002
 20
 6.97833187264000E+0002
 11
 4.29235635220500E+0002
 21
 6.88928326834500E+0002
  0
LINE
  8
0
 10
 4.29235635220500E+0002
 20
 6.88928326834500E+0002
 11
 4.24837891332000E+0002
 21
 6.80001016748000E+0002
  0
LINE
  8
0
 10
 4.24837891332000E+0002
 20
 6.80001016748000E+0002
 11
 4.20466431241500E+0002
 21
 6.71047876103500E+0002
  0
LINE
  8
0
 10
 4.20466431241500E+0002
 20
 6.71047876103500E+0002
 11
 4.16124588000000E+0002
 21
 6.62065524000000E+0002
  0
LINE
  8
0
 10
 4.16124588000000E+0002
 20
 6.62065524000000E+0002
 11
 4.11815694658500E+0002
 21
 6.53050579536500E+0002
  0
LINE
  8
0
 10
 4.11815694658500E+0002
 20
 6.53050579536500E+0002
 11
 4.07543084268000E+0002
 21
 6.43999661812000E+0002
  0
LINE
  8
0
 10
 4.07543084268000E+0002
 20
 6.43999661812000E+0002
 11
 4.03310089879500E+0002
 21
 6.34909389925500E+0002
  0
LINE
  8
0
 10
 4.03310089879500E+0002
 20
 6.34909389925500E+0002
 11
 3.99120044544000E+0002
 21
 6.25776382976000E+0002
  0
LINE
  8
0
 10
 3.99120044544000E+0002
 20
 6.25776382976000E+0002
 11
 3.94976281312500E+0002
 21
 6.16597260062500E+0002
  0
LINE
  8
0
 10
 3.94976281312500E+0002
 20
 6.16597260062500E+0002
 11
 3.90882133236000E+0002
 21
 6.07368640284000E+0002
  0
LINE
  8
0
 10
 3.90882133236000E+0002
 20
 6.07368640284000E+0002
 11
 3.86840933365500E+0002
 21
 5.98087142739500E+0002
  0
LINE
  8
0
 10
 3.86840933365500E+0002
 20
 5.98087142739500E+0002
 11
 3.82856014752000E+0002
 21
 5.88749386528000E+0002
  0
LINE
  8
0
 10
 3.82856014752000E+0002
 20
 5.88749386528000E+0002
 11
 3.78930710446500E+0002
 21
 5.79351990748500E+0002
  0
LINE
  8
0
 10
 3.78930710446500E+0002
 20
 5.79351990748500E+0002
 11
 3.75068353500000E+0002
 21
 5.69891574500000E+0002
  0
LINE
  8
0
 10
 3.75068353500000E+0002
 20
 5.69891574500000E+0002
 11
 3.71272276963500E+0002
 21
 5.60364756881500E+0002
  0
LINE
  8
0
 10
 3.71272276963500E+0002
 20
 5.60364756881500E+0002
 11
 3.67545813888000E+0002
 21
 5.50768156992000E+0002
  0
LINE
  8
0
 10
 3.67545813888000E+0002
 20
 5.50768156992000E+0002
 11
 3.63892297324500E+0002
 21
 5.41098393930500E+0002
  0
LINE
  8
0
 10
 3.63892297324500E+0002
 20
 5.41098393930500E+0002
 11
 3.60315060324000E+0002
 21
 5.31352086796000E+0002
  0
LINE
  8
0
 10
 3.60315060324000E+0002
 20
 5.31352086796000E+0002
 11
 3.56817435937500E+0002
 21
 5.21525854687500E+0002
  0
LINE
  8
0
 10
 3.56817435937500E+0002
 20
 5.21525854687500E+0002
 11
 3.53402757216000E+0002
 21
 5.11616316704000E+0002
  0
LINE
  8
0
 10
 3.53402757216000E+0002
 20
 5.11616316704000E+0002
 11
 3.50074357210500E+0002
 21
 5.01620091944500E+0002
  0
LINE
  8
0
 10
 3.50074357210500E+0002
 20
 5.01620091944500E+0002
 11
 3.46835568972000E+0002
 21
 4.91533799508000E+0002
  0
LINE
  8
0
 10
 3.46835568972000E+0002
 20
 4.91533799508000E+0002
 11
 3.43689725551500E+0002
 21
 4.81354058493500E+0002
  0
LINE
  8
0
 10
 3.43689725551500E+0002
 20
 4.81354058493500E+0002
 11
 3.40640160000000E+0002
 21
 4.71077488000000E+0002
  0
LINE
  8
0
 10
 3.40640160000000E+0002
 20
 4.71077488000000E+0002
 11
 3.37690205368500E+0002
 21
 4.60700707126500E+0002
  0
LINE
  8
0
 10
 3.37690205368500E+0002
 20
 4.60700707126500E+0002
 11
 3.34843194708000E+0002
 21
 4.50220334972000E+0002
  0
LINE
  8
0
 10
 3.34843194708000E+0002
 20
 4.50220334972000E+0002
 11
 3.32102461069500E+0002
 21
 4.39632990635500E+0002
  0
LINE
  8
0
 10
 3.32102461069500E+0002
 20
 4.39632990635500E+0002
 11
 3.29471337504000E+0002
 21
 4.28935293216000E+0002
  0
LINE
  8
0
 10
 3.29471337504000E+0002
 20
 4.28935293216000E+0002
 11
 3.26953157062500E+0002
 21
 4.18123861812500E+0002
  0
LINE
  8
0
 10
 3.26953157062500E+0002
 20
 4.18123861812500E+0002
 11
 3.24551252796000E+0002
 21
 4.07195315524000E+0002
  0
LINE
  8
0
 10
 3.24551252796000E+0002
 20
 4.07195315524000E+0002
 11
 3.22268957755500E+0002
 21
 3.96146273449500E+0002
  0
LINE
  8
0
 10
 3.22268957755500E+0002
 20
 3.96146273449500E+0002
 11
 3.20109604992000E+0002
 21
 3.84973354688000E+0002
  0
LINE
  8
0
 10
 3.20109604992000E+0002
 20
 3.84973354688000E+0002
 11
 3.18076527556500E+0002
 21
 3.73673178338500E+0002
  0
LINE
  8
0
 10
 3.18076527556500E+0002
 20
 3.73673178338500E+0002
 11
 3.16173058500000E+0002
 21
 3.62242363500000E+0002
  0
LINE
  8
0
 10
 3.16173058500000E+0002
 20
 3.62242363500000E+0002
 11
 3.14402530873500E+0002
 21
 3.50677529271500E+0002
  0
LINE
  8
0
 10
 3.14402530873500E+0002
 20
 3.50677529271500E+0002
 11
 3.12768277728000E+0002
 21
 3.38975294752000E+0002
  0
LINE
  8
0
 10
 3.12768277728000E+0002
 20
 3.38975294752000E+0002
 11
 3.11273632114500E+0002
 21
 3.27132279040500E+0002
  0
LINE
  8
0
 10
 3.11273632114500E+0002
 20
 3.27132279040500E+0002
 11
 3.09921927084000E+0002
 21
 3.15145101236000E+0002
  0
LINE
  8
0
 10
 3.09921927084000E+0002
 20
 3.15145101236000E+0002
 11
 3.08716495687500E+0002
 21
 3.03010380437500E+0002
  0
LINE
  8
0
 10
 3.08716495687500E+0002
 20
 3.03010380437500E+0002
 11
 3.07660670976000E+0002
 21
 2.90724735744000E+0002
  0
LINE
  8
0
 10
 3.07660670976000E+0002
 20
 2.90724735744000E+0002
 11
 3.06757786000500E+0002
 21
 2.78284786254500E+0002
  0
LINE
  8
0
 10
 3.06757786000500E+0002
 20
 2.78284786254500E+0002
 11
 3.06011173812000E+0002
 21
 2.65687151068000E+0002
  0
LINE
  8
0
 10
 3.06011173812000E+0002
 20
 2.65687151068000E+0002
 11
 3.05424167461500E+0002
 21
 2.52928449283500E+0002
  0
LINE
  8
0
 10
 3.05424167461500E+0002
 20
 2.52928449283500E+0002
 11
 3.05000100000000E+0002
 21
 2.40005300000000E+0002
  0
LINE
  8
0
 10
 3.05000100000000E+0002
 20
 2.40005300000000E+0002
 11
 3.05000000000000E+0002
 21
 1.55000000000000E+0002
  0
LINE
  8
0
 10
 3.05000000000000E+0002
 20
 1.55000000000000E+0002
 11
 3.65000000000000E+0002
 21
 1.55000000000000E+0002
  0
LINE
  8
0
 10
 3.65000000000000E+0002
 20
 1.55000000000000E+0002
 11
 3.65000000000000E+0002
 21
 2.40005300000000E+0002
  0
LINE
  8
0
 10
 3.65000000000000E+0002
 20
 2.40005300000000E+0002
 11
 3.65424032565100E+0002
 21
 2.52928449294400E+0002
  0
LINE
  8
0
 10
 3.65424032565100E+0002
 20
 2.52928449294400E+0002
 11
 3.66011006200800E+0002
 21
 2.65687151155200E+0002
  0
LINE
  8
0
 10
 3.66011006200800E+0002
 20
 2.65687151155200E+0002
 11
 3.66757587817700E+0002
 21
 2.78284786548800E+0002
  0
LINE
  8
0
 10
 3.66757587817700E+0002
 20
 2.78284786548800E+0002
 11
 3.67660444326400E+0002
 21
 2.90724736441600E+0002
  0
LINE
  8
0
 10
 3.67660444326400E+0002
 20
 2.90724736441600E+0002
 11
 3.68716242637500E+0002
 21
 3.03010381800000E+0002
  0
LINE
  8
0
 10
 3.68716242637500E+0002
 20
 3.03010381800000E+0002
 11
 3.69921649661600E+0002
 21
 3.15145103590400E+0002
  0
LINE
  8
0
 10
 3.69921649661600E+0002
 20
 3.15145103590400E+0002
 11
 3.71273332309300E+0002
 21
 3.27132282779200E+0002
  0
LINE
  8
0
 10
 3.71273332309300E+0002
 20
 3.27132282779200E+0002
 11
 3.72767957491200E+0002
 21
 3.38975300332800E+0002
  0
LINE
  8
0
 10
 3.72767957491200E+0002
 20
 3.38975300332800E+0002
 11
 3.74402192117900E+0002
 21
 3.50677537217600E+0002
  0
LINE
  8
0
 10
 3.74402192117900E+0002
 20
 3.50677537217600E+0002
 11
 3.76172703100000E+0002
 21
 3.62242374400000E+0002
  0
LINE
  8
0
 10
 3.76172703100000E+0002
 20
 3.62242374400000E+0002
 11
 3.78076157348100E+0002
 21
 3.73673192846400E+0002
  0
LINE
  8
0
 10
 3.78076157348100E+0002
 20
 3.73673192846400E+0002
 11
 3.80109221772800E+0002
 21
 3.84973373523200E+0002
  0
LINE
  8
0
 10
 3.80109221772800E+0002
 20
 3.84973373523200E+0002
 11
 3.82268563284700E+0002
 21
 3.96146297396800E+0002
  0
LINE
  8
0
 10
 3.82268563284700E+0002
 20
 3.96146297396800E+0002
 11
 3.84550848794400E+0002
 21
 4.07195345433600E+0002
  0
LINE
  8
0
 10
 3.84550848794400E+0002
 20
 4.07195345433600E+0002
 11
 3.86952745212500E+0002
 21
 4.18123898600000E+0002
  0
LINE
  8
0
 10
 3.86952745212500E+0002
 20
 4.18123898600000E+0002
 11
 3.89470919449600E+0002
 21
 4.28935337862400E+0002
  0
LINE
  8
0
 10
 3.89470919449600E+0002
 20
 4.28935337862400E+0002
 11
 3.92102038416300E+0002
 21
 4.39633044187200E+0002
  0
LINE
  8
0
 10
 3.92102038416300E+0002
 20
 4.39633044187200E+0002
 11
 3.94842769023200E+0002
 21
 4.50220398540800E+0002
  0
LINE
  8
0
 10
 3.94842769023200E+0002
 20
 4.50220398540800E+0002
 11
 3.97689778180900E+0002
 21
 4.60700781889600E+0002
  0
LINE
  8
0
 10
 3.97689778180900E+0002
 20
 4.60700781889600E+0002
 11
 4.00639732800000E+0002
 21
 4.71077575200000E+0002
  0
LINE
  8
0
 10
 4.00639732800000E+0002
 20
 4.71077575200000E+0002
 11
 4.03689299791100E+0002
 21
 4.81354159438400E+0002
  0
LINE
  8
0
 10
 4.03689299791100E+0002
 20
 4.81354159438400E+0002
 11
 4.06835146064800E+0002
 21
 4.91533915571200E+0002
  0
LINE
  8
0
 10
 4.06835146064800E+0002
 20
 4.91533915571200E+0002
 11
 4.10073938531700E+0002
 21
 5.01620224564800E+0002
  0
LINE
  8
0
 10
 4.10073938531700E+0002
 20
 5.01620224564800E+0002
 11
 4.13402344102400E+0002
 21
 5.11616467385600E+0002
  0
LINE
  8
0
 10
 4.13402344102400E+0002
 20
 5.11616467385600E+0002
 11
 4.16817029687500E+0002
 21
 5.21526025000000E+0002
  0
LINE
  8
0
 10
 4.16817029687500E+0002
 20
 5.21526025000000E+0002
 11
 4.20314662197600E+0002
 21
 5.31352278374400E+0002
  0
LINE
  8
0
 10
 4.20314662197600E+0002
 20
 5.31352278374400E+0002
 11
 4.23891908543300E+0002
 21
 5.41098608475200E+0002
  0
LINE
  8
0
 10
 4.23891908543300E+0002
 20
 5.41098608475200E+0002
 11
 4.27545435635200E+0002
 21
 5.50768396268800E+0002
  0
LINE
  8
0
 10
 4.27545435635200E+0002
 20
 5.50768396268800E+0002
 11
 4.31271910383900E+0002
 21
 5.60365022721600E+0002
  0
LINE
  8
0
 10
 4.31271910383900E+0002
 20
 5.60365022721600E+0002
 11
 4.35067999700000E+0002
 21
 5.69891868800000E+0002
  0
LINE
  8
0
 10
 4.35067999700000E+0002
 20
 5.69891868800000E+0002
 11
 4.38930370494100E+0002
 21
 5.79352315470400E+0002
  0
LINE
  8
0
 10
 4.38930370494100E+0002
 20
 5.79352315470400E+0002
 11
 4.42855689676800E+0002
 21
 5.88749743699200E+0002
  0
LINE
  8
0
 10
 4.42855689676800E+0002
 20
 5.88749743699200E+0002
 11
 4.46840624158700E+0002
 21
 5.98087534452800E+0002
  0
LINE
  8
0
 10
 4.46840624158700E+0002
 20
 5.98087534452800E+0002
 11
 4.50881840850400E+0002
 21
 6.07369068697600E+0002
  0
LINE
  8
0
 10
 4.50881840850400E+0002
 20
 6.07369068697600E+0002
 11
 4.54976006662500E+0002
 21
 6.16597727400000E+0002
  0
LINE
  8
0
 10
 4.54976006662500E+0002
 20
 6.16597727400000E+0002
 11
 4.59119788505600E+0002
 21
 6.25776891526400E+0002
  0
LINE
  8
0
 10
 4.59119788505600E+0002
 20
 6.25776891526400E+0002
 11
 4.63309853290300E+0002
 21
 6.34909942043200E+0002
  0
LINE
  8
0
 10
 4.63309853290300E+0002
 20
 6.34909942043200E+0002
 11
 4.67542867927200E+0002
 21
 6.44000259916800E+0002
  0
LINE
  8
0
 10
 4.67542867927200E+0002
 20
 6.44000259916800E+0002
 11
 4.71815499326900E+0002
 21
 6.53051226113600E+0002
  0
LINE
  8
0
 10
 4.71815499326900E+0002
 20
 6.53051226113600E+0002
 11
 4.76124414400000E+0002
 21
 6.62066221600000E+0002
  0
LINE
  8
0
 10
 4.76124414400000E+0002
 20
 6.62066221600000E+0002
 11
 4.80466280057100E+0002
 21
 6.71048627342400E+0002
  0
LINE
  8
0
 10
 4.80466280057100E+0002
 20
 6.71048627342400E+0002
 11
 4.84837763208800E+0002
 21
 6.80001824307200E+0002
  0
LINE
  8
0
 10
 4.84837763208800E+0002
 20
 6.80001824307200E+0002
 11
 4.89235530765700E+0002
 21
 6.88929193460800E+0002
  0
LINE
  8
0
 10
 4.89235530765700E+0002
 20
 6.88929193460800E+0002
 11
 4.93656249638400E+0002
 21
 6.97834115769600E+0002
  0
LINE
  8
0
 10
 4.93656249638400E+0002
 20
 6.97834115769600E+0002
 11
 4.98096586737500E+0002
 21
 7.06719972200000E+0002
  0
LINE
  8
0
 10
 4.98096586737500E+0002
 20
 7.06719972200000E+0002
 11
 5.02553208973600E+0002
 21
 7.15590143718400E+0002
  0
LINE
  8
0
 10
 5.02553208973600E+0002
 20
 7.15590143718400E+0002
 11
 5.07022783257300E+0002
 21
 7.24448011291200E+0002
  0
LINE
  8
0
 10
 5.07022783257300E+0002
 20
 7.24448011291200E+0002
 11
 5.11501976499200E+0002
 21
 7.33296955884800E+0002
  0
LINE
  8
0
 10
 5.11501976499200E+0002
 20
 7.33296955884800E+0002
 11
 5.15987455609900E+0002
 21
 7.42140358465600E+0002
  0
LINE
  8
0
 10
 5.15987455609900E+0002
 20
 7.42140358465600E+0002
 11
 5.20475887500000E+0002
 21
 7.50981600000000E+0002
  0
LINE
  8
0
 10
 5.20475887500000E+0002
 20
 7.50981600000000E+0002
 11
 5.24963939080100E+0002
 21
 7.59824061454400E+0002
  0
LINE
  8
0
 10
 5.24963939080100E+0002
 20
 7.59824061454400E+0002
 11
 5.29448277260800E+0002
 21
 7.68671123795200E+0002
  0
LINE
  8
0
 10
 5.29448277260800E+0002
 20
 7.68671123795200E+0002
 11
 5.33925568952700E+0002
 21
 7.77526167988800E+0002
  0
LINE
  8
0
 10
 5.33925568952700E+0002
 20
 7.77526167988800E+0002
 11
 5.38392481066400E+0002
 21
 7.86392575001600E+0002
  0
LINE
  8
0
 10
 5.38392481066400E+0002
 20
 7.86392575001600E+0002
 11
 5.42845680512500E+0002
 21
 7.95273725800000E+0002
  0
LINE
  8
0
 10
 5.42845680512500E+0002
 20
 7.95273725800000E+0002
 11
 5.47281834201600E+0002
 21
 8.04173001350400E+0002
  0
LINE
  8
0
 10
 5.47281834201600E+0002
 20
 8.04173001350400E+0002
 11
 5.51697609044300E+0002
 21
 8.13093782619200E+0002
  0
LINE
  8
0
 10
 5.51697609044300E+0002
 20
 8.13093782619200E+0002
 11
 5.56089671951200E+0002
 21
 8.22039450572800E+0002
  0
LINE
  8
0
 10
 5.56089671951200E+0002
 20
 8.22039450572800E+0002
 11
 5.60454689832900E+0002
 21
 8.31013386177600E+0002
  0
LINE
  8
0
 10
 5.60454689832900E+0002
 20
 8.31013386177600E+0002
 11
 5.64789329600000E+0002
 21
 8.40018970400000E+0002
  0
LINE
  8
0
 10
 5.64789329600000E+0002
 20
 8.40018970400000E+0002
 11
 5.69090258163100E+0002
 21
 8.49059584206400E+0002
  0
LINE
  8
0
 10
 5.69090258163100E+0002
 20
 8.49059584206400E+0002
 11
 5.73354142432800E+0002
 21
 8.58138608563200E+0002
  0
LINE
  8
0
 10
 5.73354142432800E+0002
 20
 8.58138608563200E+0002
 11
 5.77577649319700E+0002
 21
 8.67259424436800E+0002
  0
LINE
  8
0
 10
 5.77577649319700E+0002
 20
 8.67259424436800E+0002
 11
 5.81757445734400E+0002
 21
 8.76425412793600E+0002
  0
LINE
  8
0
 10
 5.81757445734400E+0002
 20
 8.76425412793600E+0002
 11
 5.85890198587500E+0002
 21
 8.85639954600000E+0002
  0
LINE
  8
0
 10
 5.85890198587500E+0002
 20
 8.85639954600000E+0002
 11
 5.89972574789600E+0002
 21
 8.94906430822400E+0002
  0
LINE
  8
0
 10
 5.89972574789600E+0002
 20
 8.94906430822400E+0002
 11
 5.94001241251300E+0002
 21
 9.04228222427200E+0002
  0
LINE
  8
0
 10
 5.94001241251300E+0002
 20
 9.04228222427200E+0002
 11
 5.97972864883200E+0002
 21
 9.13608710380800E+0002
  0
LINE
  8
0
 10
 5.97972864883200E+0002
 20
 9.13608710380800E+0002
 11
 6.01884112595900E+0002
 21
 9.23051275649600E+0002
  0
LINE
  8
0
 10
 6.01884112595900E+0002
 20
 9.23051275649600E+0002
 11
 6.05731651300000E+0002
 21
 9.32559299200000E+0002
  0
LINE
  8
0
 10
 6.05731651300000E+0002
 20
 9.32559299200000E+0002
 11
 6.09512147906100E+0002
 21
 9.42136161998400E+0002
  0
LINE
  8
0
 10
 6.09512147906100E+0002
 20
 9.42136161998400E+0002
 11
 6.13222269324800E+0002
 21
 9.51785245011200E+0002
  0
LINE
  8
0
 10
 6.13222269324800E+0002
 20
 9.51785245011200E+0002
 11
 6.16858682466700E+0002
 21
 9.61509929204800E+0002
  0
LINE
  8
0
 10
 6.16858682466700E+0002
 20
 9.61509929204800E+0002
 11
 6.20418054242400E+0002
 21
 9.71313595545600E+0002
  0
LINE
  8
0
 10
 6.20418054242400E+0002
 20
 9.71313595545600E+0002
 11
 6.23897051562500E+0002
 21
 9.81199625000000E+0002
  0
LINE
  8
0
 10
 6.23897051562500E+0002
 20
 9.81199625000000E+0002
 11
 6.27292341337600E+0002
 21
 9.91171398534400E+0002
  0
LINE
  8
0
 10
 6.27292341337600E+0002
 20
 9.91171398534400E+0002
 11
 6.30600590478300E+0002
 21
 1.00123229711520E+0003
  0
LINE
  8
0
 10
 6.30600590478300E+0002
 20
 1.00123229711520E+0003
 11
 6.33818465895200E+0002
 21
 1.01138570170880E+0003
  0
LINE
  8
0
 10
 6.33818465895200E+0002
 20
 1.01138570170880E+0003
 11
 6.36942634498900E+0002
 21
 1.02163499328160E+0003
  0
LINE
  8
0
 10
 6.36942634498900E+0002
 20
 1.02163499328160E+0003
 11
 6.39969763200000E+0002
 21
 1.03198355280000E+0003
  0
LINE
  8
0
 10
 6.39969763200000E+0002
 20
 1.03198355280000E+0003
 11
 6.42896518909100E+0002
 21
 1.04243476123040E+0003
  0
LINE
  8
0
 10
 6.42896518909100E+0002
 20
 1.04243476123040E+0003
 11
 6.45719568536800E+0002
 21
 1.05299199953920E+0003
  0
LINE
  8
0
 10
 6.45719568536800E+0002
 20
 1.05299199953920E+0003
 11
 6.48435578993700E+0002
 21
 1.06365864869280E+0003
  0
LINE
  8
0
 10
 6.48435578993700E+0002
 20
 1.06365864869280E+0003
 11
 6.51041217190400E+0002
 21
 1.07443808965760E+0003
  0
LINE
  8
0
 10
 6.51041217190400E+0002
 20
 1.07443808965760E+0003
 11
 6.53533150037500E+0002
 21
 1.08533370340000E+0003
  0
LINE
  8
0
 10
 6.53533150037500E+0002
 20
 1.08533370340000E+0003
 11
 6.55908044445600E+0002
 21
 1.09634887088640E+0003
  0
LINE
  8
0
 10
 6.55908044445600E+0002
 20
 1.09634887088640E+0003
 11
 6.58162567325300E+0002
 21
 1.10748697308320E+0003
  0
LINE
  8
0
 10
 6.58162567325300E+0002
 20
 1.10748697308320E+0003
 11
 6.60293385587200E+0002
 21
 1.11875139095680E+0003
  0
LINE
  8
0
 10
 6.60293385587200E+0002
 20
 1.11875139095680E+0003
 11
 6.62297166141900E+0002
 21
 1.13014550547360E+0003
  0
LINE
  8
0
 10
 6.62297166141900E+0002
 20
 1.13014550547360E+0003
 11
 6.64170575900000E+0002
 21
 1.14167269760000E+0003
  0
LINE
  8
0
 10
 6.64170575900000E+0002
 20
 1.14167269760000E+0003
 11
 6.65910281772100E+0002
 21
 1.15333634830240E+0003
  0
LINE
  8
0
 10
 6.65910281772100E+0002
 20
 1.15333634830240E+0003
 11
 6.67512950668800E+0002
 21
 1.16513983854720E+0003
  0
LINE
  8
0
 10
 6.67512950668800E+0002
 20
 1.16513983854720E+0003
 11
 6.68975249500700E+0002
 21
 1.17708654930080E+0003
  0
LINE
  8
0
 10
 6.68975249500700E+0002
 20
 1.17708654930080E+0003
 11
 6.70293845178400E+0002
 21
 1.18917986152960E+0003
  0
LINE
  8
0
 10
 6.70293845178400E+0002
 20
 1.18917986152960E+0003
 11
 6.71465404612500E+0002
 21
 1.20142315620000E+0003
  0
LINE
  8
0
 10
 6.71465404612500E+0002
 20
 1.20142315620000E+0003
 11
 6.72486594713600E+0002
 21
 1.21381981427840E+0003
  0
LINE
  8
0
 10
 6.72486594713600E+0002
 20
 1.21381981427840E+0003
 11
 6.73354082392300E+0002
 21
 1.22637321673120E+0003
  0
LINE
  8
0
 10
 6.73354082392300E+0002
 20
 1.22637321673120E+0003
 11
 6.74064534559200E+0002
 21
 1.23908674452480E+0003
  0
LINE
  8
0
 10
 6.74064534559200E+0002
 20
 1.23908674452480E+0003
 11
 6.74614618124900E+0002
 21
 1.25196377862560E+0003
  0
LINE
  8
0
 10
 6.74614618124900E+0002
 20
 1.25196377862560E+0003
 11
 6.75001000000000E+0002
 21
 1.26500770000000E+0003
  0
LINE
  8
0
 10
 6.75001000000000E+0002
 20
 1.26500770000000E+0003
 11
 6.75000000000000E+0002
 21
 1.30700000000000E+0003
  0
LINE
  8
0
 10
 6.75000000000000E+0002
 20
 1.30700000000000E+0003
 11
 7.19997467680775E+0002
 21
 1.29538170409776E+0003
  0
ARC
  8
0
 10
 7.23000000000000E+0002
 20
 1.30700000000000E+0003
 40
 1.20000000000000E+0001
 50
 2.55510000000000E+0002
 51
 3.93600000000000E+0002
  0
LINE
  8
0
 10
 7.32995054888521E+0002
 20
 1.31364069859092E+0003
 11
 6.45000000000000E+0002
 21
 1.44500000000000E+0003
  0
LINE
  8
0
 10
 6.45000000000000E+0002
 20
 1.44500000000000E+0003
 11
 5.57011904713912E+0002
 21
 1.31365116174484E+0003
  0
ARC
  8
0
 10
 5.67000000000000E+0002
 20
 1.30700000000000E+0003
 40
 1.20000000000000E+0001
 50
 1.46340000000000E+0002
 51
 2.84365000000000E+0002
  0
LINE
  8
0
 10
 5.69977178004217E+0002
 20
 1.29537518124308E+0003
 11
 5.70000000000000E+0002
 21
 1.29537550000000E+0003
  0
LINE
  8
0
 10
 7.80000000000000E+0002
 20
 1.29537550000000E+0003
 11
 8.25000000000000E+0002
 21
 1.30700000000000E+0003
  0
LINE
  8
0
 10
 8.25000000000000E+0002
 20
 1.30700000000000E+0003
 11
 8.25000000000000E+0002
 21
 1.26499680000000E+0003
  0
LINE
  8
0
 10
 8.25000000000000E+0002
 20
 1.26499680000000E+0003
 11
 8.24613612928500E+0002
 21
 1.25195320236650E+0003
  0
LINE
  8
0
 10
 8.24613612928500E+0002
 20
 1.25195320236650E+0003
 11
 8.24063525748000E+0002
 21
 1.23907648553200E+0003
  0
LINE
  8
0
 10
 8.24063525748000E+0002
 20
 1.23907648553200E+0003
 11
 8.23353071509500E+0002
 21
 1.22636326859550E+0003
  0
LINE
  8
0
 10
 8.23353071509500E+0002
 20
 1.22636326859550E+0003
 11
 8.22485583264000E+0002
 21
 1.21381017065600E+0003
  0
LINE
  8
0
 10
 8.22485583264000E+0002
 20
 1.21381017065600E+0003
 11
 8.21464394062500E+0002
 21
 1.20141381081250E+0003
  0
LINE
  8
0
 10
 8.21464394062500E+0002
 20
 1.20141381081250E+0003
 11
 8.20292836956000E+0002
 21
 1.18917080816400E+0003
  0
LINE
  8
0
 10
 8.20292836956000E+0002
 20
 1.18917080816400E+0003
 11
 8.18974244995500E+0002
 21
 1.17707778180950E+0003
  0
LINE
  8
0
 10
 8.18974244995500E+0002
 20
 1.17707778180950E+0003
 11
 8.17511951232000E+0002
 21
 1.16513135084800E+0003
  0
LINE
  8
0
 10
 8.17511951232000E+0002
 20
 1.16513135084800E+0003
 11
 8.15909288716500E+0002
 21
 1.15332813437850E+0003
  0
LINE
  8
0
 10
 8.15909288716500E+0002
 20
 1.15332813437850E+0003
 11
 8.14169590500000E+0002
 21
 1.14166475150000E+0003
  0
LINE
  8
0
 10
 8.14169590500000E+0002
 20
 1.14166475150000E+0003
 11
 8.12296189633500E+0002
 21
 1.13013782131150E+0003
  0
LINE
  8
0
 10
 8.12296189633500E+0002
 20
 1.13013782131150E+0003
 11
 8.10292419168000E+0002
 21
 1.11874396291200E+0003
  0
LINE
  8
0
 10
 8.10292419168000E+0002
 20
 1.11874396291200E+0003
 11
 8.08161612154500E+0002
 21
 1.10747979540050E+0003
  0
LINE
  8
0
 10
 8.08161612154500E+0002
 20
 1.10747979540050E+0003
 11
 8.05907101644000E+0002
 21
 1.09634193787600E+0003
  0
LINE
  8
0
 10
 8.05907101644000E+0002
 20
 1.09634193787600E+0003
 11
 8.03532220687500E+0002
 21
 1.08532700943750E+0003
  0
LINE
  8
0
 10
 8.03532220687500E+0002
 20
 1.08532700943750E+0003
 11
 8.01040302336000E+0002
 21
 1.07443162918400E+0003
  0
LINE
  8
0
 10
 8.01040302336000E+0002
 20
 1.07443162918400E+0003
 11
 7.98434679640500E+0002
 21
 1.06365241621450E+0003
  0
LINE
  8
0
 10
 7.98434679640500E+0002
 20
 1.06365241621450E+0003
 11
 7.95718685652000E+0002
 21
 1.05298598962800E+0003
  0
LINE
  8
0
 10
 7.95718685652000E+0002
 20
 1.05298598962800E+0003
 11
 7.92895653421500E+0002
 21
 1.04242896852350E+0003
  0
LINE
  8
0
 10
 7.92895653421500E+0002
 20
 1.04242896852350E+0003
 11
 7.89968916000000E+0002
 21
 1.03197797200000E+0003
  0
LINE
  8
0
 10
 7.89968916000000E+0002
 20
 1.03197797200000E+0003
 11
 7.86941806438500E+0002
 21
 1.02162961915650E+0003
  0
LINE
  8
0
 10
 7.86941806438500E+0002
 20
 1.02162961915650E+0003
 11
 7.83817657788000E+0002
 21
 1.01138052909200E+0003
  0
LINE
  8
0
 10
 7.83817657788000E+0002
 20
 1.01138052909200E+0003
 11
 7.80599803099500E+0002
 21
 1.00122732090550E+0003
  0
LINE
  8
0
 10
 7.80599803099500E+0002
 20
 1.00122732090550E+0003
 11
 7.77291575424000E+0002
 21
 9.91166613696000E+0002
  0
LINE
  8
0
 10
 7.77291575424000E+0002
 20
 9.91166613696000E+0002
 11
 7.73896307812500E+0002
 21
 9.81195026562500E+0002
  0
LINE
  8
0
 10
 7.73896307812500E+0002
 20
 9.81195026562500E+0002
 11
 7.70417333316000E+0002
 21
 9.71309178604000E+0002
  0
LINE
  8
0
 10
 7.70417333316000E+0002
 20
 9.71309178604000E+0002
 11
 7.66857984985500E+0002
 21
 9.61505688919500E+0002
  0
LINE
  8
0
 10
 7.66857984985500E+0002
 20
 9.61505688919500E+0002
 11
 7.63221595872000E+0002
 21
 9.51781176608000E+0002
  0
LINE
  8
0
 10
 7.63221595872000E+0002
 20
 9.51781176608000E+0002
 11
 7.59511499026500E+0002
 21
 9.42132260768500E+0002
  0
LINE
  8
0
 10
 7.59511499026500E+0002
 20
 9.42132260768500E+0002
 11
 7.55731027500000E+0002
 21
 9.32555560500000E+0002
  0
LINE
  8
0
 10
 7.55731027500000E+0002
 20
 9.32555560500000E+0002
 11
 7.51883514343500E+0002
 21
 9.23047694901500E+0002
  0
LINE
  8
0
 10
 7.51883514343500E+0002
 20
 9.23047694901500E+0002
 11
 7.47972292608000E+0002
 21
 9.13605283072000E+0002
  0
LINE
  8
0
 10
 7.47972292608000E+0002
 20
 9.13605283072000E+0002
 11
 7.44000695344500E+0002
 21
 9.04224944110500E+0002
  0
LINE
  8
0
 10
 7.44000695344500E+0002
 20
 9.04224944110500E+0002
 11
 7.39972055604000E+0002
 21
 8.94903297116000E+0002
  0
LINE
  8
0
 10
 7.39972055604000E+0002
 20
 8.94903297116000E+0002
 11
 7.35889706437500E+0002
 21
 8.85636961187500E+0002
  0
LINE
  8
0
 10
 7.35889706437500E+0002
 20
 8.85636961187500E+0002
 11
 7.31756980896000E+0002
 21
 8.76422555424000E+0002
  0
LINE
  8
0
 10
 7.31756980896000E+0002
 20
 8.76422555424000E+0002
 11
 7.27577212030500E+0002
 21
 8.67256698924500E+0002
  0
LINE
  8
0
 10
 7.27577212030500E+0002
 20
 8.67256698924500E+0002
 11
 7.23353732892000E+0002
 21
 8.58136010788000E+0002
  0
LINE
  8
0
 10
 7.23353732892000E+0002
 20
 8.58136010788000E+0002
 11
 7.19089876531500E+0002
 21
 8.49057110113500E+0002
  0
LINE
  8
0
 10
 7.19089876531500E+0002
 20
 8.49057110113500E+0002
 11
 7.14788976000000E+0002
 21
 8.40016616000000E+0002
  0
LINE
  8
0
 10
 7.14788976000000E+0002
 20
 8.40016616000000E+0002
 11
 7.10454364348500E+0002
 21
 8.31011147546500E+0002
  0
LINE
  8
0
 10
 7.10454364348500E+0002
 20
 8.31011147546500E+0002
 11
 7.06089374628000E+0002
 21
 8.22037323852000E+0002
  0
LINE
  8
0
 10
 7.06089374628000E+0002
 20
 8.22037323852000E+0002
 11
 7.01697339889500E+0002
 21
 8.13091764015500E+0002
  0
LINE
  8
0
 10
 7.01697339889500E+0002
 20
 8.13091764015500E+0002
 11
 6.97281593184000E+0002
 21
 8.04171087136000E+0002
  0
LINE
  8
0
 10
 6.97281593184000E+0002
 20
 8.04171087136000E+0002
 11
 6.92845467562500E+0002
 21
 7.95271912312500E+0002
  0
LINE
  8
0
 10
 6.92845467562500E+0002
 20
 7.95271912312500E+0002
 11
 6.88392296076000E+0002
 21
 7.86390858644000E+0002
  0
LINE
  8
0
 10
 6.88392296076000E+0002
 20
 7.86390858644000E+0002
 11
 6.83925411775500E+0002
 21
 7.77524545229500E+0002
  0
LINE
  8
0
 10
 6.83925411775500E+0002
 20
 7.77524545229500E+0002
 11
 6.79448147712000E+0002
 21
 7.68669591168000E+0002
  0
LINE
  8
0
 10
 6.79448147712000E+0002
 20
 7.68669591168000E+0002
 11
 6.74963836936500E+0002
 21
 7.59822615558500E+0002
  0
LINE
  8
0
 10
 6.74963836936500E+0002
 20
 7.59822615558500E+0002
 11
 6.70475812500000E+0002
 21
 7.50980237500000E+0002
  0
LINE
  8
0
 10
 6.70475812500000E+0002
 20
 7.50980237500000E+0002
 11
 6.65987407453500E+0002
 21
 7.42139076091500E+0002
  0
LINE
  8
0
 10
 6.65987407453500E+0002
 20
 7.42139076091500E+0002
 11
 6.61501954848000E+0002
 21
 7.33295750432000E+0002
  0
LINE
  8
0
 10
 6.61501954848000E+0002
 20
 7.33295750432000E+0002
 11
 6.57022787734500E+0002
 21
 7.24446879620500E+0002
  0
LINE
  8
0
 10
 6.57022787734500E+0002
 20
 7.24446879620500E+0002
 11
 6.52553239164000E+0002
 21
 7.15589082756000E+0002
  0
LINE
  8
0
 10
 6.52553239164000E+0002
 20
 7.15589082756000E+0002
 11
 6.48096642187500E+0002
 21
 7.06718978937500E+0002
  0
LINE
  8
0
 10
 6.48096642187500E+0002
 20
 7.06718978937500E+0002
 11
 6.43656329856000E+0002
 21
 6.97833187264000E+0002
  0
LINE
  8
0
 10
 6.43656329856000E+0002
 20
 6.97833187264000E+0002
 11
 6.39235635220500E+0002
 21
 6.88928326834500E+0002
  0
LINE
  8
0
 10
 6.39235635220500E+0002
 20
 6.88928326834500E+0002
 11
 6.34837891332000E+0002
 21
 6.80001016748000E+0002
  0
LINE
  8
0
 10
 6.34837891332000E+0002
 20
 6.80001016748000E+0002
 11
 6.30466431241500E+0002
 21
 6.71047876103500E+0002
  0
LINE
  8
0
 10
 6.30466431241500E+0002
 20
 6.71047876103500E+0002
 11
 6.26124588000000E+0002
 21
 6.62065524000000E+0002
  0
LINE
  8
0
 10
 6.26124588000000E+0002
 20
 6.62065524000000E+0002
 11
 6.21815694658500E+0002
 21
 6.53050579536500E+0002
  0
LINE
  8
0
 10
 6.21815694658500E+0002
 20
 6.53050579536500E+0002
 11
 6.17543084268000E+0002
 21
 6.43999661812000E+0002
  0
LINE
  8
0
 10
 6.17543084268000E+0002
 20
 6.43999661812000E+0002
 11
 6.13310089879500E+0002
 21
 6.34909389925500E+0002
  0
LINE
  8
0
 10
 6.13310089879500E+0002
 20
 6.34909389925500E+0002
 11
 6.09120044544000E+0002
 21
 6.25776382976000E+0002
  0
LINE
  8
0
 10
 6.09120044544000E+0002
 20
 6.25776382976000E+0002
 11
 6.04976281312500E+0002
 21
 6.16597260062500E+0002
  0
LINE
  8
0
 10
 6.04976281312500E+0002
 20
 6.16597260062500E+0002
 11
 6.00882133236000E+0002
 21
 6.07368640284000E+0002
  0
LINE
  8
0
 10
 6.00882133236000E+0002
 20
 6.07368640284000E+0002
 11
 5.96840933365500E+0002
 21
 5.98087142739500E+0002
  0
LINE
  8
0
 10
 5.96840933365500E+0002
 20
 5.98087142739500E+0002
 11
 5.92856014752000E+0002
 21
 5.88749386528000E+0002
  0
LINE
  8
0
 10
 5.92856014752000E+0002
 20
 5.88749386528000E+0002
 11
 5.88930710446500E+0002
 21
 5.79351990748500E+0002
  0
LINE
  8
0
 10
 5.88930710446500E+0002
 20
 5.79351990748500E+0002
 11
 5.85068353500000E+0002
 21
 5.69891574500000E+0002
  0
LINE
  8
0
 10
 5.85068353500000E+0002
 20
 5.69891574500000E+0002
 11
 5.81272276963500E+0002
 21
 5.60364756881500E+0002
  0
LINE
  8
0
 10
 5.81272276963500E+0002
 20
 5.60364756881500E+0002
 11
 5.77545813888000E+0002
 21
 5.50768156992000E+0002
  0
LINE
  8
0
 10
 5.77545813888000E+0002
 20
 5.50768156992000E+0002
 11
 5.73892297324500E+0002
 21
 5.41098393930500E+0002
  0
LINE
  8
0
 10
 5.73892297324500E+0002
 20
 5.41098393930500E+0002
 11
 5.70315060324000E+0002
 21
 5.31352086796000E+0002
  0
LINE
  8
0
 10
 5.70315060324000E+0002
 20
 5.31352086796000E+0002
 11
 5.66817435937500E+0002
 21
 5.21525854687500E+0002
  0
LINE
  8
0
 10
 5.66817435937500E+0002
 20
 5.21525854687500E+0002
 11
 5.63402757216000E+0002
 21
 5.11616316704000E+0002
  0
LINE
  8
0
 10
 5.63402757216000E+0002
 20
 5.11616316704000E+0002
 11
 5.60074357210500E+0002
 21
 5.01620091944500E+0002
  0
LINE
  8
0
 10
 5.60074357210500E+0002
 20
 5.01620091944500E+0002
 11
 5.56835568972000E+0002
 21
 4.91533799508000E+0002
  0
LINE
  8
0
 10
 5.56835568972000E+0002
 20
 4.91533799508000E+0002
 11
 5.53689725551500E+0002
 21
 4.81354058493500E+0002
  0
LINE
  8
0
 10
 5.53689725551500E+0002
 20
 4.81354058493500E+0002
 11
 5.50640160000000E+0002
 21
 4.71077488000000E+0002
  0
LINE
  8
0
 10
 5.50640160000000E+0002
 20
 4.71077488000000E+0002
 11
 5.47690205368500E+0002
 21
 4.60700707126500E+0002
  0
LINE
  8
0
 10
 5.47690205368500E+0002
 20
 4.60700707126500E+0002
 11
 5.44843194708000E+0002
 21
 4.50220334972000E+0002
  0
LINE
  8
0
 10
 5.44843194708000E+0002
 20
 4.50220334972000E+0002
 11
 5.42102461069500E+0002
 21
 4.39632990635500E+0002
  0
LINE
  8
0
 10
 5.42102461069500E+0002
 20
 4.39632990635500E+0002
 11
 5.39471337504000E+0002
 21
 4.28935293216000E+0002
  0
LINE
  8
0
 10
 5.39471337504000E+0002
 20
 4.28935293216000E+0002
 11
 5.36953157062500E+0002
 21
 4.18123861812500E+0002
  0
LINE
  8
0
 10
 5.36953157062500E+0002
 20
 4.18123861812500E+0002
 11
 5.34551252796000E+0002
 21
 4.07195315524000E+0002
  0
LINE
  8
0
 10
 5.34551252796000E+0002
 20
 4.07195315524000E+0002
 11
 5.32268957755500E+0002
 21
 3.96146273449500E+0002
  0
LINE
  8
0
 10
 5.32268957755500E+0002
 20
 3.96146273449500E+0002
 11
 5.30109604992000E+0002
 21
 3.84973354688000E+0002
  0
LINE
  8
0
 10
 5.30109604992000E+0002
 20
 3.84973354688000E+0002
 11
 5.28076527556500E+0002
 21
 3.73673178338500E+0002
  0
LINE
  8
0
 10
 5.28076527556500E+0002
 20
 3.73673178338500E+0002
 11
 5.26173058500000E+0002
 21
 3.62242363500000E+0002
  0
LINE
  8
0
 10
 5.26173058500000E+0002
 20
 3.62242363500000E+0002
 11
 5.24402530873500E+0002
 21
 3.50677529271500E+0002
  0
LINE
  8
0
 10
 5.24402530873500E+0002
 20
 3.50677529271500E+0002
 11
 5.22768277728000E+0002
 21
 3.38975294752000E+0002
  0
LINE
  8
0
 10
 5.22768277728000E+0002
 20
 3.38975294752000E+0002
 11
 5.21273632114500E+0002
 21
 3.27132279040500E+0002
  0
LINE
  8
0
 10
 5.21273632114500E+0002
 20
 3.27132279040500E+0002
 11
 5.19921927084000E+0002
 21
 3.15145101236000E+0002
  0
LINE
  8
0
 10
 5.19921927084000E+0002
 20
 3.15145101236000E+0002
 11
 5.18716495687500E+0002
 21
 3.03010380437500E+0002
  0
LINE
  8
0
 10
 5.18716495687500E+0002
 20
 3.03010380437500E+0002
 11
 5.17660670976000E+0002
 21
 2.90724735744000E+0002
  0
LINE
  8
0
 10
 5.17660670976000E+0002
 20
 2.90724735744000E+0002
 11
 5.16757786000500E+0002
 21
 2.78284786254500E+0002
  0
LINE
  8
0
 10
 5.16757786000500E+0002
 20
 2.78284786254500E+0002
 11
 5.16011173812000E+0002
 21
 2.65687151068000E+0002
  0
LINE
  8
0
 10
 5.16011173812000E+0002
 20
 2.65687151068000E+0002
 11
 5.15424167461500E+0002
 21
 2.52928449283500E+0002
  0
LINE
  8
0
 10
 5.15424167461500E+0002
 20
 2.52928449283500E+0002
 11
 5.15000100000000E+0002
 21
 2.40005300000000E+0002
  0
LINE
  8
0
 10
 5.15000100000000E+0002
 20
 2.40005300000000E+0002
 11
 5.15000000000000E+0002
 21
 1.55000000000000E+0002
  0
LINE
  8
0
 10
 5.15000000000000E+0002
 20
 1.55000000000000E+0002
 11
 5.75000000000000E+0002
 21
 1.55000000000000E+0002
  0
LINE
  8
0
 10
 5.75000000000000E+0002
 20
 1.55000000000000E+0002
 11
 5.75000000000000E+0002
 21
 2.40005300000000E+0002
  0
LINE
  8
0
 10
 5.75000000000000E+0002
 20
 2.40005300000000E+0002
 11
 5.75424032565100E+0002
 21
 2.52928449294400E+0002
  0
LINE
  8
0
 10
 5.75424032565100E+0002
 20
 2.52928449294400E+0002
 11
 5.76011006200800E+0002
 21
 2.65687151155200E+0002
  0
LINE
  8
0
 10
 5.76011006200800E+0002
 20
 2.65687151155200E+0002
 11
 5.76757587817700E+0002
 21
 2.78284786548800E+0002
  0
LINE
  8
0
 10
 5.76757587817700E+0002
 20
 2.78284786548800E+0002
 11
 5.77660444326400E+0002
 21
 2.90724736441600E+0002
  0
LINE
  8
0
 10
 5.77660444326400E+0002
 20
 2.90724736441600E+0002
 11
 5.78716242637500E+0002
 21
 3.03010381800000E+0002
  0
LINE
  8
0
 10
 5.78716242637500E+0002
 20
 3.03010381800000E+0002
 11
 5.79921649661600E+0002
 21
 3.15145103590400E+0002
  0
LINE
  8
0
 10
 5.79921649661600E+0002
 20
 3.15145103590400E+0002
 11
 5.81273332309300E+0002
 21
 3.27132282779200E+0002
  0
LINE
  8
0
 10
 5.81273332309300E+0002
 20
 3.27132282779200E+0002
 11
 5.82767957491200E+0002
 21
 3.38975300332800E+0002
  0
LINE
  8
0
 10
 5.82767957491200E+0002
 20
 3.38975300332800E+0002
 11
 5.84402192117900E+0002
 21
 3.50677537217600E+0002
  0
LINE
  8
0
 10
 5.84402192117900E+0002
 20
 3.50677537217600E+0002
 11
 5.86172703100000E+0002
 21
 3.62242374400000E+0002
  0
LINE
  8
0
 10
 5.86172703100000E+0002
 20
 3.62242374400000E+0002
 11
 5.88076157348100E+0002
 21
 3.73673192846400E+0002
  0
LINE
  8
0
 10
 5.88076157348100E+0002
 20
 3.73673192846400E+0002
 11
 5.90109221772800E+0002
 21
 3.84973373523200E+0002
  0
LINE
  8
0
 10
 5.90109221772800E+0002
 20
 3.84973373523200E+0002
 11
 5.92268563284700E+0002
 21
 3.96146297396800E+0002
  0
LINE
  8
0
 10
 5.92268563284700E+0002
 20
 3.96146297396800E+0002
 11
 5.94550848794400E+0002
 21
 4.07195345433600E+0002
  0
LINE
  8
0
 10
 5.94550848794400E+0002
 20
 4.07195345433600E+0002
 11
 5.96952745212500E+0002
 21
 4.18123898600000E+0002
  0
LINE
  8
0
 10
 5.96952745212500E+0002
 20
 4.18123898600000E+0002
 11
 5.99470919449600E+0002
 21
 4.28935337862400E+0002
  0
LINE
  8
0
 10
 5.99470919449600E+0002
 20
 4.28935337862400E+0002
 11
 6.02102038416300E+0002
 21
 4.39633044187200E+0002
  0
LINE
  8
0
 10
 6.02102038416300E+0002
 20
 4.39633044187200E+0002
 11
 6.04842769023200E+0002
 21
 4.50220398540800E+0002
  0
LINE
  8
0
 10
 6.04842769023200E+0002
 20
 4.50220398540800E+0002
 11
 6.07689778180900E+0002
 21
 4.60700781889600E+0002
  0
LINE
  8
0
 10
 6.07689778180900E+0002
 20
 4.60700781889600E+0002
 11
 6.10639732800000E+0002
 21
 4.71077575200000E+0002
  0
LINE
  8
0
 10
 6.10639732800000E+0002
 20
 4.71077575200000E+0002
 11
 6.13689299791100E+0002
 21
 4.81354159438400E+0002
  0
LINE
  8
0
 10
 6.13689299791100E+0002
 20
 4.81354159438400E+0002
 11
 6.16835146064800E+0002
 21
 4.91533915571200E+0002
  0
LINE
  8
0
 10
 6.16835146064800E+0002
 20
 4.91533915571200E+0002
 11
 6.20073938531700E+0002
 21
 5.01620224564800E+0002
  0
LINE
  8
0
 10
 6.20073938531700E+0002
 20
 5.01620224564800E+0002
 11
 6.23402344102400E+0002
 21
 5.11616467385600E+0002
  0
LINE
  8
0
 10
 6.23402344102400E+0002
 20
 5.11616467385600E+0002
 11
 6.26817029687500E+0002
 21
 5.21526025000000E+0002
  0
LINE
  8
0
 10
 6.26817029687500E+0002
 20
 5.21526025000000E+0002
 11
 6.30314662197600E+0002
 21
 5.31352278374400E+0002
  0
LINE
  8
0
 10
 6.30314662197600E+0002
 20
 5.31352278374400E+0002
 11
 6.33891908543300E+0002
 21
 5.41098608475200E+0002
  0
LINE
  8
0
 10
 6.33891908543300E+0002
 20
 5.41098608475200E+0002
 11
 6.37545435635200E+0002
 21
 5.50768396268800E+0002
  0
LINE
  8
0
 10
 6.37545435635200E+0002
 20
 5.50768396268800E+0002
 11
 6.41271910383900E+0002
 21
 5.60365022721600E+0002
  0
LINE
  8
0
 10
 6.41271910383900E+0002
 20
 5.60365022721600E+0002
 11
 6.45067999700000E+0002
 21
 5.69891868800000E+0002
  0
LINE
  8
0
 10
 6.45067999700000E+0002
 20
 5.69891868800000E+0002
 11
 6.48930370494100E+0002
 21
 5.79352315470400E+0002
  0
LINE
  8
0
 10
 6.48930370494100E+0002
 20
 5.79352315470400E+0002
 11
 6.52855689676800E+0002
 21
 5.88749743699200E+0002
  0
LINE
  8
0
 10
 6.52855689676800E+0002
 20
 5.88749743699200E+0002
 11
 6.56840624158700E+0002
 21
 5.98087534452800E+0002
  0
LINE
  8
0
 10
 6.56840624158700E+0002
 20
 5.98087534452800E+0002
 11
 6.60881840850400E+0002
 21
 6.07369068697600E+0002
  0
LINE
  8
0
 10
 6.60881840850400E+0002
 20
 6.07369068697600E+0002
 11
 6.64976006662500E+0002
 21
 6.16597727400000E+0002
  0
LINE
  8
0
 10
 6.64976006662500E+0002
 20
 6.16597727400000E+0002
 11
 6.69119788505600E+0002
 21
 6.25776891526400E+0002
  0
LINE
  8
0
 10
 6.69119788505600E+0002
 20
 6.25776891526400E+0002
 11
 6.73309853290300E+0002
 21
 6.34909942043200E+0002
  0
LINE
  8
0
 10
 6.73309853290300E+0002
 20
 6.34909942043200E+0002
 11
 6.77542867927200E+0002
 21
 6.44000259916800E+0002
  0
LINE
  8
0
 10
 6.77542867927200E+0002
 20
 6.44000259916800E+0002
 11
 6.81815499326900E+0002
 21
 6.53051226113600E+0002
  0
LINE
  8
0
 10
 6.81815499326900E+0002
 20
 6.53051226113600E+0002
 11
 6.86124414400000E+0002
 21
 6.62066221600000E+0002
  0
LINE
  8
0
 10
 6.86124414400000E+0002
 20
 6.62066221600000E+0002
 11
 6.90466280057100E+0002
 21
 6.71048627342400E+0002
  0
LINE
  8
0
 10
 6.90466280057100E+0002
 20
 6.71048627342400E+0002
 11
 6.94837763208800E+0002
 21
 6.80001824307200E+0002
  0
LINE
  8
0
 10
 6.94837763208800E+0002
 20
 6.80001824307200E+0002
 11
 6.99235530765700E+0002
 21
 6.88929193460800E+0002
  0
LINE
  8
0
 10
 6.99235530765700E+0002
 20
 6.88929193460800E+0002
 11
 7.03656249638400E+0002
 21
 6.97834115769600E+0002
  0
LINE
  8
0
 10
 7.03656249638400E+0002
 20
 6.97834115769600E+0002
 11
 7.08096586737500E+0002
 21
 7.06719972200000E+0002
  0
LINE
  8
0
 10
 7.08096586737500E+0002
 20
 7.06719972200000E+0002
 11
 7.12553208973600E+0002
 21
 7.15590143718400E+0002
  0
LINE
  8
0
 10
 7.12553208973600E+0002
 20
 7.15590143718400E+0002
 11
 7.17022783257300E+0002
 21
 7.24448011291200E+0002
  0
LINE
  8
0
 10
 7.17022783257300E+0002
 20
 7.24448011291200E+0002
 11
 7.21501976499200E+0002
 21
 7.33296955884800E+0002
  0
LINE
  8
0
 10
 7.21501976499200E+0002
 20
 7.33296955884800E+0002
 11
 7.25987455609900E+0002
 21
 7.42140358465600E+0002
  0
LINE
  8
0
 10
 7.25987455609900E+0002
 20
 7.42140358465600E+0002
 11
 7.30475887500000E+0002
 21
 7.50981600000000E+0002
  0
LINE
  8
0
 10
 7.30475887500000E+0002
 20
 7.50981600000000E+0002
 11
 7.34963939080100E+0002
 21
 7.59824061454400E+0002
  0
LINE
  8
0
 10
 7.34963939080100E+0002
 20
 7.59824061454400E+0002
 11
 7.39448277260800E+0002
 21
 7.68671123795200E+0002
  0
LINE
  8
0
 10
 7.39448277260800E+0002
 20
 7.68671123795200E+0002
 11
 7.43925568952700E+0002
 21
 7.77526167988800E+0002
  0
LINE
  8
0
 10
 7.43925568952700E+0002
 20
 7.77526167988800E+0002
 11
 7.48392481066400E+0002
 21
 7.86392575001600E+0002
  0
LINE
  8
0
 10
 7.48392481066400E+0002
 20
 7.86392575001600E+0002
 11
 7.52845680512500E+0002
 21
 7.95273725800000E+0002
  0
LINE
  8
0
 10
 7.52845680512500E+0002
 20
 7.95273725800000E+0002
 11
 7.57281834201600E+0002
 21
 8.04173001350400E+0002
  0
LINE
  8
0
 10
 7.57281834201600E+0002
 20
 8.04173001350400E+0002
 11
 7.61697609044300E+0002
 21
 8.13093782619200E+0002
  0
LINE
  8
0
 10
 7.61697609044300E+0002
 20
 8.13093782619200E+0002
 11
 7.66089671951200E+0002
 21
 8.22039450572800E+0002
  0
LINE
  8
0
 10
 7.66089671951200E+0002
 20
 8.22039450572800E+0002
 11
 7.70454689832900E+0002
 21
 8.31013386177600E+0002
  0
LINE
  8
0
 10
 7.70454689832900E+0002
 20
 8.31013386177600E+0002
 11
 7.74789329600000E+0002
 21
 8.40018970400000E+0002
  0
LINE
  8
0
 10
 7.74789329600000E+0002
 20
 8.40018970400000E+0002
 11
 7.79090258163100E+0002
 21
 8.49059584206400E+0002
  0
LINE
  8
0
 10
 7.79090258163100E+0002
 20
 8.49059584206400E+0002
 11
 7.83354142432800E+0002
 21
 8.58138608563200E+0002
  0
LINE
  8
0
 10
 7.83354142432800E+0002
 20
 8.58138608563200E+0002
 11
 7.87577649319700E+0002
 21
 8.67259424436800E+0002
  0
LINE
  8
0
 10
 7.87577649319700E+0002
 20
 8.67259424436800E+0002
 11
 7.91757445734400E+0002
 21
 8.76425412793600E+0002
  0
LINE
  8
0
 10
 7.91757445734400E+0002
 20
 8.76425412793600E+0002
 11
 7.95890198587500E+0002
 21
 8.85639954600000E+0002
  0
LINE
  8
0
 10
 7.95890198587500E+0002
 20
 8.85639954600000E+0002
 11
 7.99972574789600E+0002
 21
 8.94906430822400E+0002
  0
LINE
  8
0
 10
 7.99972574789600E+0002
 20
 8.94906430822400E+0002
 11
 8.04001241251300E+0002
 21
 9.04228222427200E+0002
  0
LINE
  8
0
 10
 8.04001241251300E+0002
 20
 9.04228222427200E+0002
 11
 8.07972864883200E+0002
 21
 9.13608710380800E+0002
  0
LINE
  8
0
 10
 8.07972864883200E+0002
 20
 9.13608710380800E+0002
 11
 8.11884112595900E+0002
 21
 9.23051275649600E+0002
  0
LINE
  8
0
 10
 8.11884112595900E+0002
 20
 9.23051275649600E+0002
 11
 8.15731651300000E+0002
 21
 9.32559299200000E+0002
  0
LINE
  8
0
 10
 8.15731651300000E+0002
 20
 9.32559299200000E+0002
 11
 8.19512147906100E+0002
 21
 9.42136161998400E+0002
  0
LINE
  8
0
 10
 8.19512147906100E+0002
 20
 9.42136161998400E+0002
 11
 8.23222269324800E+0002
 21
 9.51785245011200E+0002
  0
LINE
  8
0
 10
 8.23222269324800E+0002
 20
 9.51785245011200E+0002
 11
 8.26858682466700E+0002
 21
 9.61509929204800E+0002
  0
LINE
  8
0
 10
 8.26858682466700E+0002
 20
 9.61509929204800E+0002
 11
 8.30418054242400E+0002
 21
 9.71313595545600E+0002
  0
LINE
  8
0
 10
 8.30418054242400E+0002
 20
 9.71313595545600E+0002
 11
 8.33897051562500E+0002
 21
 9.81199625000000E+0002
  0
LINE
  8
0
 10
 8.33897051562500E+0002
 20
 9.81199625000000E+0002
 11
 8.37292341337600E+0002
 21
 9.91171398534400E+0002
  0
LINE
  8
0
 10
 8.37292341337600E+0002
 20
 9.91171398534400E+0002
 11
 8.40600590478300E+0002
 21
 1.00123229711520E+0003
  0
LINE
  8
0
 10
 8.40600590478300E+0002
 20
 1.00123229711520E+0003
 11
 8.43818465895200E+0002
 21
 1.01138570170880E+0003
  0
LINE
  8
0
 10
 8.43818465895200E+0002
 20
 1.01138570170880E+0003
 11
 8.46942634498900E+0002
 21
 1.02163499328160E+0003
  0
LINE
  8
0
 10
 8.46942634498900E+0002
 20
 1.02163499328160E+0003
 11
 8.49969763200000E+0002
 21
 1.03198355280000E+0003
  0
LINE
  8
0
 10
 8.49969763200000E+0002
 20
 1.03198355280000E+0003
 11
 8.52896518909100E+0002
 21
 1.04243476123040E+0003
  0
LINE
  8
0
 10
 8.52896518909100E+0002
 20
 1.04243476123040E+0003
 11
 8.55719568536800E+0002
 21
 1.05299199953920E+0003
  0
LINE
  8
0
 10
 8.55719568536800E+0002
 20
 1.05299199953920E+0003
 11
 8.58435578993700E+0002
 21
 1.06365864869280E+0003
  0
LINE
  8
0
 10
 8.58435578993700E+0002
 20
 1.06365864869280E+0003
 11
 8.61041217190400E+0002
 21
 1.07443808965760E+0003
  0
LINE
  8
0
 10
 8.61041217190400E+0002
 20
 1.07443808965760E+0003
 11
 8.63533150037500E+0002
 21
 1.08533370340000E+0003
  0
LINE
  8
0
 10
 8.63533150037500E+0002
 20
 1.08533370340000E+0003
 11
 8.65908044445600E+0002
 21
 1.09634887088640E+0003
  0
LINE
  8
0
 10
 8.65908044445600E+0002
 20
 1.09634887088640E+0003
 11
 8.68162567325300E+0002
 21
 1.10748697308320E+0003
  0
LINE
  8
0
 10
 8.68162567325300E+0002
 20
 1.10748697308320E+0003
 11
 8.70293385587200E+0002
 21
 1.11875139095680E+0003
  0
LINE
  8
0
 10
 8.70293385587200E+0002
 20
 1.11875139095680E+0003
 11
 8.72297166141900E+0002
 21
 1.13014550547360E+0003
  0
LINE
  8
0
 10
 8.72297166141900E+0002
 20
 1.13014550547360E+0003
 11
 8.74170575900000E+0002
 21
 1.14167269760000E+0003
  0
LINE
  8
0
 10
 8.74170575900000E+0002
 20
 1.14167269760000E+0003
 11
 8.75910281772100E+0002
 21
 1.15333634830240E+0003
  0
LINE
  8
0
 10
 8.75910281772100E+0002
 20
 1.15333634830240E+0003
 11
 8.77512950668800E+0002
 21
 1.16513983854720E+0003
  0
LINE
  8
0
 10
 8.77512950668800E+0002
 20
 1.16513983854720E+0003
 11
 8.78975249500700E+0002
 21
 1.17708654930080E+0003
  0
LINE
  8
0
 10
 8.78975249500700E+0002
 20
 1.17708654930080E+0003
 11
 8.80293845178400E+0002
 21
 1.18917986152960E+0003
  0
LINE
  8
0
 10
 8.80293845178400E+0002
 20
 1.18917986152960E+0003
 11
 8.81465404612500E+0002
 21
 1.20142315620000E+0003
  0
LINE
  8
0
 10
 8.81465404612500E+0002
 20
 1.20142315620000E+0003
 11
 8.82486594713600E+0002
 21
 1.21381981427840E+0003
  0
LINE
  8
0
 10
 8.82486594713600E+0002
 20
 1.21381981427840E+0003
 11
 8.83354082392300E+0002
 21
 1.22637321673120E+0003
  0
LINE
  8
0
 10
 8.83354082392300E+0002
 20
 1.22637321673120E+0003
 11
 8.84064534559200E+0002
 21
 1.23908674452480E+0003
  0
LINE
  8
0
 10
 8.84064534559200E+0002
 20
 1.23908674452480E+0003
 11
 8.84614618124900E+0002
 21
 1.25196377862560E+0003
  0
LINE
  8
0
 10
 8.84614618124900E+0002
 20
 1.25196377862560E+0003
 11
 8.85001000000000E+0002
 21
 1.26500770000000E+0003
  0
LINE
  8
0
 10
 8.85001000000000E+0002
 20
 1.26500770000000E+0003
 11
 8.85000000000000E+0002
 21
 1.30700000000000E+0003
  0
LINE
  8
0
 10
 8.85000000000000E+0002
 20
 1.30700000000000E+0003
 11
 9.29997467680775E+0002
 21
 1.29538170409776E+0003
  0
ARC
  8
0
 10
 9.33000000000000E+0002
 20
 1.30700000000000E+0003
 40
 1.20000000000000E+0001
 50
 2.55510000000000E+0002
 51
 3.93600000000000E+0002
  0
LINE
  8
0
 10
 9.42995054888521E+0002
 20
 1.31364069859092E+0003
 11
 8.55000000000000E+0002
 21
 1.44500000000000E+0003
  0
LINE
  8
0
 10
 8.55000000000000E+0002
 20
 1.44500000000000E+0003
 11
 7.67011904713912E+0002
 21
 1.31365116174484E+0003
  0
ARC
  8
0
 10
 7.77000000000000E+0002
 20
 1.30700000000000E+0003
 40
 1.20000000000000E+0001
 50
 1.46340000000000E+0002
 51
 2.84365000000000E+0002
  0
LINE
  8
0
 10
 7.79977178004217E+0002
 20
 1.29537518124308E+0003
 11
 7.80000000000000E+0002
 21
 1.29537550000000E+0003
  0
LINE
  8
0
 10
 9.90000000000000E+0002
 20
 1.29537550000000E+0003
 11
 1.03500000000000E+0003
 21
 1.30700000000000E+0003
  0
LINE
  8
0
 10
 1.03500000000000E+0003
 20
 1.30700000000000E+0003
 11
 1.03500000000000E+0003
 21
 1.26499680000000E+0003
  0
LINE
  8
0
 10
 1.03500000000000E+0003
 20
 1.26499680000000E+0003
 11
 1.03461361292850E+0003
 21
 1.25195320236650E+0003
  0
LINE
  8
0
 10
 1.03461361292850E+0003
 20
 1.25195320236650E+0003
 11
 1.03406352574800E+0003
 21
 1.23907648553200E+0003
  0
LINE
  8
0
 10
 1.03406352574800E+0003
 20
 1.23907648553200E+0003
 11
 1.03335307150950E+0003
 21
 1.22636326859550E+0003
  0
LINE
  8
0
 10
 1.03335307150950E+0003
 20
 1.22636326859550E+0003
 11
 1.03248558326400E+0003
 21
 1.21381017065600E+0003
  0
LINE
  8
0
 10
 1.03248558326400E+0003
 20
 1.21381017065600E+0003
 11
 1.03146439406250E+0003
 21
 1.20141381081250E+0003
  0
LINE
  8
0
 10
 1.03146439406250E+0003
 20
 1.20141381081250E+0003
 11
 1.03029283695600E+0003
 21
 1.18917080816400E+0003
  0
LINE
  8
0
 10
 1.03029283695600E+0003
 20
 1.18917080816400E+0003
 11
 1.02897424499550E+0003
 21
 1.17707778180950E+0003
  0
LINE
  8
0
 10
 1.02897424499550E+0003
 20
 1.17707778180950E+0003
 11
 1.02751195123200E+0003
 21
 1.16513135084800E+0003
  0
LINE
  8
0
 10
 1.02751195123200E+0003
 20
 1.16513135084800E+0003
 11
 1.02590928871650E+0003
 21
 1.15332813437850E+0003
  0
LINE
  8
0
 10
 1.02590928871650E+0003
 20
 1.15332813437850E+0003
 11
 1.02416959050000E+0003
 21
 1.14166475150000E+0003
  0
LINE
  8
0
 10
 1.02416959050000E+0003
 20
 1.14166475150000E+0003
 11
 1.02229618963350E+0003
 21
 1.13013782131150E+0003
  0
LINE
  8
0
 10
 1.02229618963350E+0003
 20
 1.13013782131150E+0003
 11
 1.02029241916800E+0003
 21
 1.11874396291200E+0003
  0
LINE
  8
0
 10
 1.02029241916800E+0003
 20
 1.11874396291200E+0003
 11
 1.01816161215450E+0003
 21
 1.10747979540050E+0003
  0
LINE
  8
0
 10
 1.01816161215450E+0003
 20
 1.10747979540050E+0003
 11
 1.01590710164400E+0003
 21
 1.09634193787600E+0003
  0
LINE
  8
0
 10
 1.01590710164400E+0003
 20
 1.09634193787600E+0003
 11
 1.01353222068750E+0003
 21
 1.08532700943750E+0003
  0
LINE
  8
0
 10
 1.01353222068750E+0003
 20
 1.08532700943750E+0003
 11
 1.01104030233600E+0003
 21
 1.07443162918400E+0003
  0
LINE
  8
0
 10
 1.01104030233600E+0003
 20
 1.07443162918400E+0003
 11
 1.00843467964050E+0003
 21
 1.06365241621450E+0003
  0
LINE
  8
0
 10
 1.00843467964050E+0003
 20
 1.06365241621450E+0003
 11
 1.00571868565200E+0003
 21
 1.05298598962800E+0003
  0
LINE
  8
0
 10
 1.00571868565200E+0003
 20
 1.05298598962800E+0003
 11
 1.00289565342150E+0003
 21
 1.04242896852350E+0003
  0
LINE
  8
0
 10
 1.00289565342150E+0003
 20
 1.04242896852350E+0003
 11
 9.99968916000000E+0002
 21
 1.03197797200000E+0003
  0
LINE
  8
0
 10
 9.99968916000000E+0002
 20
 1.03197797200000E+0003
 11
 9.96941806438500E+0002
 21
 1.02162961915650E+0003
  0
LINE
  8
0
 10
 9.96941806438500E+0002
 20
 1.02162961915650E+0003
 11
 9.93817657788000E+0002
 21
 1.01138052909200E+0003
  0
LINE
  8
0
 10
 9.93817657788000E+0002
 20
 1.01138052909200E+0003
 11
 9.90599803099500E+0002
 21
 1.00122732090550E+0003
  0
LINE
  8
0
 10
 9.90599803099500E+0002
 20
 1.00122732090550E+0003
 11
 9.87291575424000E+0002
 21
 9.91166613696000E+0002
  0
LINE
  8
0
 10
 9.87291575424000E+0002
 20
 9.91166613696000E+0002
 11
 9.83896307812500E+0002
 21
 9.81195026562500E+0002
  0
LINE
  8
0
 10
 9.83896307812500E+0002
 20
 9.81195026562500E+0002
 11
 9.80417333316000E+0002
 21
 9.71309178604000E+0002
  0
LINE
  8
0
 10
 9.80417333316000E+0002
 20
 9.71309178604000E+0002
 11
 9.76857984985500E+0002
 21
 9.61505688919500E+0002
  0
LINE
  8
0
 10
 9.76857984985500E+0002
 20
 9.61505688919500E+0002
 11
 9.73221595872000E+0002
 21
 9.51781176608000E+0002
  0
LINE
  8
0
 10
 9.73221595872000E+0002
 20
 9.51781176608000E+0002
 11
 9.69511499026500E+0002
 21
 9.42132260768500E+0002
  0
LINE
  8
0
 10
 9.69511499026500E+0002
 20
 9.42132260768500E+0002
 11
 9.65731027500000E+0002
 21
 9.32555560500000E+0002
  0
LINE
  8
0
 10
 9.65731027500000E+0002
 20
 9.32555560500000E+0002
 11
 9.61883514343500E+0002
 21
 9.23047694901500E+0002
  0
LINE
  8
0
 10
 9.61883514343500E+0002
 20
 9.23047694901500E+0002
 11
 9.57972292608000E+0002
 21
 9.13605283072000E+0002
  0
LINE
  8
0
 10
 9.57972292608000E+0002
 20
 9.13605283072000E+0002
 11
 9.54000695344500E+0002
 21
 9.04224944110500E+0002
  0
LINE
  8
0
 10
 9.54000695344500E+0002
 20
 9.04224944110500E+0002
 11
 9.49972055604000E+0002
 21
 8.94903297116000E+0002
  0
LINE
  8
0
 10
 9.49972055604000E+0002
 20
 8.94903297116000E+0002
 11
 9.45889706437500E+0002
 21
 8.85636961187500E+0002
  0
LINE
  8
0
 10
 9.45889706437500E+0002
 20
 8.85636961187500E+0002
 11
 9.41756980896000E+0002
 21
 8.76422555424000E+0002
  0
LINE
  8
0
 10
 9.41756980896000E+0002
 20
 8.76422555424000E+0002
 11
 9.37577212030500E+0002
 21
 8.67256698924500E+0002
  0
LINE
  8
0
 10
 9.37577212030500E+0002
 20
 8.67256698924500E+0002
 11
 9.33353732892000E+0002
 21
 8.58136010788000E+0002
  0
LINE
  8
0
 10
 9.33353732892000E+0002
 20
 8.58136010788000E+0002
 11
 9.29089876531500E+0002
 21
 8.49057110113500E+0002
  0
LINE
  8
0
 10
 9.29089876531500E+0002
 20
 8.49057110113500E+0002
 11
 9.24788976000000E+0002
 21
 8.40016616000000E+0002
  0
LINE
  8
0
 10
 9.24788976000000E+0002
 20
 8.40016616000000E+0002
 11
 9.20454364348500E+0002
 21
 8.31011147546500E+0002
  0
LINE
  8
0
 10
 9.20454364348500E+0002
 20
 8.31011147546500E+0002
 11
 9.16089374628000E+0002
 21
 8.22037323852000E+0002
  0
LINE
  8
0
 10
 9.16089374628000E+0002
 20
 8.22037323852000E+0002
 11
 9.11697339889500E+0002
 21
 8.13091764015500E+0002
  0
LINE
  8
0
 10
 9.11697339889500E+0002
 20
 8.13091764015500E+0002
 11
 9.07281593184000E+0002
 21
 8.04171087136000E+0002
  0
LINE
  8
0
 10
 9.07281593184000E+0002
 20
 8.04171087136000E+0002
 11
 9.02845467562500E+0002
 21
 7.95271912312500E+0002
  0
LINE
  8
0
 10
 9.02845467562500E+0002
 20
 7.95271912312500E+0002
 11
 8.98392296076000E+0002
 21
 7.86390858644000E+0002
  0
LINE
  8
0
 10
 8.98392296076000E+0002
 20
 7.86390858644000E+0002
 11
 8.93925411775500E+0002
 21
 7.77524545229500E+0002
  0
LINE
  8
0
 10
 8.93925411775500E+0002
 20
 7.77524545229500E+0002
 11
 8.89448147712000E+0002
 21
 7.68669591168000E+0002
  0
LINE
  8
0
 10
 8.89448147712000E+0002
 20
 7.68669591168000E+0002
 11
 8.84963836936500E+0002
 21
 7.59822615558500E+0002
  0
LINE
  8
0
 10
 8.84963836936500E+0002
 20
 7.59822615558500E+0002
 11
 8.80475812500000E+0002
 21
 7.50980237500000E+0002
  0
LINE
  8
0
 10
 8.80475812500000E+0002
 20
 7.50980237500000E+0002
 11
 8.75987407453500E+0002
 21
 7.42139076091500E+0002
  0
LINE
  8
0
 10
 8.75987407453500E+0002
 20
 7.42139076091500E+0002
 11
 8.71501954848000E+0002
 21
 7.33295750432000E+0002
  0
LINE
  8
0
 10
 8.71501954848000E+0002
 20
 7.33295750432000E+0002
 11
 8.67022787734500E+0002
 21
 7.24446879620500E+0002
  0
LINE
  8
0
 10
 8.67022787734500E+0002
 20
 7.24446879620500E+0002
 11
 8.62553239164000E+0002
 21
 7.15589082756000E+0002
  0
LINE
  8
0
 10
 8.62553239164000E+0002
 20
 7.15589082756000E+0002
 11
 8.58096642187500E+0002
 21
 7.06718978937500E+0002
  0
LINE
  8
0
 10
 8.58096642187500E+0002
 20
 7.06718978937500E+0002
 11
 8.53656329856000E+0002
 21
 6.97833187264000E+0002
  0
LINE
  8
0
 10
 8.53656329856000E+0002
 20
 6.97833187264000E+0002
 11
 8.49235635220500E+0002
 21
 6.88928326834500E+0002
  0
LINE
  8
0
 10
 8.49235635220500E+0002
 20
 6.88928326834500E+0002
 11
 8.44837891332000E+0002
 21
 6.80001016748000E+0002
  0
LINE
  8
0
 10
 8.44837891332000E+0002
 20
 6.80001016748000E+0002
 11
 8.40466431241500E+0002
 21
 6.71047876103500E+0002
  0
LINE
  8
0
 10
 8.40466431241500E+0002
 20
 6.71047876103500E+0002
 11
 8.36124588000000E+0002
 21
 6.62065524000000E+0002
  0
LINE
  8
0
 10
 8.36124588000000E+0002
 20
 6.62065524000000E+0002
 11
 8.31815694658500E+0002
 21
 6.53050579536500E+0002
  0
LINE
  8
0
 10
 8.31815694658500E+0002
 20
 6.53050579536500E+0002
 11
 8.27543084268000E+0002
 21
 6.43999661812000E+0002
  0
LINE
  8
0
 10
 8.27543084268000E+0002
 20
 6.43999661812000E+0002
 11
 8.23310089879500E+0002
 21
 6.34909389925500E+0002
  0
LINE
  8
0
 10
 8.23310089879500E+0002
 20
 6.34909389925500E+0002
 11
 8.19120044544000E+0002
 21
 6.25776382976000E+0002
  0
LINE
  8
0
 10
 8.19120044544000E+0002
 20
 6.25776382976000E+0002
 11
 8.14976281312500E+0002
 21
 6.16597260062500E+0002
  0
LINE
  8
0
 10
 8.14976281312500E+0002
 20
 6.16597260062500E+0002
 11
 8.10882133236000E+0002
 21
 6.07368640284000E+0002
  0
LINE
  8
0
 10
 8.10882133236000E+0002
 20
 6.07368640284000E+0002
 11
 8.06840933365500E+0002
 21
 5.98087142739500E+0002
  0
LINE
  8
0
 10
 8.06840933365500E+0002
 20
 5.98087142739500E+0002
 11
 8.02856014752000E+0002
 21
 5.88749386528000E+0002
  0
LINE
  8
0
 10
 8.02856014752000E+0002
 20
 5.88749386528000E+0002
 11
 7.98930710446500E+0002
 21
 5.79351990748500E+0002
  0
LINE
  8
0
 10
 7.98930710446500E+0002
 20
 5.79351990748500E+0002
 11
 7.95068353500000E+0002
 21
 5.69891574500000E+0002
  0
LINE
  8
0
 10
 7.95068353500000E+0002
 20
 5.69891574500000E+0002
 11
 7.91272276963500E+0002
 21
 5.60364756881500E+0002
  0
LINE
  8
0
 10
 7.91272276963500E+0002
 20
 5.60364756881500E+0002
 11
 7.87545813888000E+0002
 21
 5.50768156992000E+0002
  0
LINE
  8
0
 10
 7.87545813888000E+0002
 20
 5.50768156992000E+0002
 11
 7.83892297324500E+0002
 21
 5.41098393930500E+0002
  0
LINE
  8
0
 10
 7.83892297324500E+0002
 20
 5.41098393930500E+0002
 11
 7.80315060324000E+0002
 21
 5.31352086796000E+0002
  0
LINE
  8
0
 10
 7.80315060324000E+0002
 20
 5.31352086796000E+0002
 11
 7.76817435937500E+0002
 21
 5.21525854687500E+0002
  0
LINE
  8
0
 10
 7.76817435937500E+0002
 20
 5.21525854687500E+0002
 11
 7.73402757216000E+0002
 21
 5.11616316704000E+0002
  0
LINE
  8
0
 10
 7.73402757216000E+0002
 20
 5.11616316704000E+0002
 11
 7.70074357210500E+0002
 21
 5.01620091944500E+0002
  0
LINE
  8
0
 10
 7.70074357210500E+0002
 20
 5.01620091944500E+0002
 11
 7.66835568972000E+0002
 21
 4.91533799508000E+0002
  0
LINE
  8
0
 10
 7.66835568972000E+0002
 20
 4.91533799508000E+0002
 11
 7.63689725551500E+0002
 21
 4.81354058493500E+0002
  0
LINE
  8
0
 10
 7.63689725551500E+0002
 20
 4.81354058493500E+0002
 11
 7.60640160000000E+0002
 21
 4.71077488000000E+0002
  0
LINE
  8
0
 10
 7.60640160000000E+0002
 20
 4.71077488000000E+0002
 11
 7.57690205368500E+0002
 21
 4.60700707126500E+0002
  0
LINE
  8
0
 10
 7.57690205368500E+0002
 20
 4.60700707126500E+0002
 11
 7.54843194708000E+0002
 21
 4.50220334972000E+0002
  0
LINE
  8
0
 10
 7.54843194708000E+0002
 20
 4.50220334972000E+0002
 11
 7.52102461069500E+0002
 21
 4.39632990635500E+0002
  0
LINE
  8
0
 10
 7.52102461069500E+0002
 20
 4.39632990635500E+0002
 11
 7.49471337504000E+0002
 21
 4.28935293216000E+0002
  0
LINE
  8
0
 10
 7.49471337504000E+0002
 20
 4.28935293216000E+0002
 11
 7.46953157062500E+0002
 21
 4.18123861812500E+0002
  0
LINE
  8
0
 10
 7.46953157062500E+0002
 20
 4.18123861812500E+0002
 11
 7.44551252796000E+0002
 21
 4.07195315524000E+0002
  0
LINE
  8
0
 10
 7.44551252796000E+0002
 20
 4.07195315524000E+0002
 11
 7.42268957755500E+0002
 21
 3.96146273449500E+0002
  0
LINE
  8
0
 10
 7.42268957755500E+0002
 20
 3.96146273449500E+0002
 11
 7.40109604992000E+0002
 21
 3.84973354688000E+0002
  0
LINE
  8
0
 10
 7.40109604992000E+0002
 20
 3.84973354688000E+0002
 11
 7.38076527556500E+0002
 21
 3.73673178338500E+0002
  0
LINE
  8
0
 10
 7.38076527556500E+0002
 20
 3.73673178338500E+0002
 11
 7.36173058500000E+0002
 21
 3.62242363500000E+0002
  0
LINE
  8
0
 10
 7.36173058500000E+0002
 20
 3.62242363500000E+0002
 11
 7.34402530873500E+0002
 21
 3.50677529271500E+0002
  0
LINE
  8
0
 10
 7.34402530873500E+0002
 20
 3.50677529271500E+0002
 11
 7.32768277728000E+0002
 21
 3.38975294752000E+0002
  0
LINE
  8
0
 10
 7.32768277728000E+0002
 20
 3.38975294752000E+0002
 11
 7.31273632114500E+0002
 21
 3.27132279040500E+0002
  0
LINE
  8
0
 10
 7.31273632114500E+0002
 20
 3.27132279040500E+0002
 11
 7.29921927084000E+0002
 21
 3.15145101236000E+0002
  0
LINE
  8
0
 10
 7.29921927084000E+0002
 20
 3.15145101236000E+0002
 11
 7.28716495687500E+0002
 21
 3.03010380437500E+0002
  0
LINE
  8
0
 10
 7.28716495687500E+0002
 20
 3.03010380437500E+0002
 11
 7.27660670976000E+0002
 21
 2.90724735744000E+0002
  0
LINE
  8
0
 10
 7.27660670976000E+0002
 20
 2.90724735744000E+0002
 11
 7.26757786000500E+0002
 21
 2.78284786254500E+0002
  0
LINE
  8
0
 10
 7.26757786000500E+0002
 20
 2.78284786254500E+0002
 11
 7.26011173812000E+0002
 21
 2.65687151068000E+0002
  0
LINE
  8
0
 10
 7.26011173812000E+0002
 20
 2.65687151068000E+0002
 11
 7.25424167461500E+0002
 21
 2.52928449283500E+0002
  0
LINE
  8
0
 10
 7.25424167461500E+0002
 20
 2.52928449283500E+0002
 11
 7.25000100000000E+0002
 21
 2.40005300000000E+0002
  0
LINE
  8
0
 10
 7.25000100000000E+0002
 20
 2.40005300000000E+0002
 11
 7.25000000000000E+0002
 21
 1.55000000000000E+0002
  0
LINE
  8
0
 10
 7.25000000000000E+0002
 20
 1.55000000000000E+0002
 11
 7.85000000000000E+0002
 21
 1.55000000000000E+0002
  0
LINE
  8
0
 10
 7.85000000000000E+0002
 20
 1.55000000000000E+0002
 11
 7.85000000000000E+0002
 21
 2.40005300000000E+0002
  0
LINE
  8
0
 10
 7.85000000000000E+0002
 20
 2.40005300000000E+0002
 11
 7.85424032565100E+0002
 21
 2.52928449294400E+0002
  0
LINE
  8
0
 10
 7.85424032565100E+0002
 20
 2.52928449294400E+0002
 11
 7.86011006200800E+0002
 21
 2.65687151155200E+0002
  0
LINE
  8
0
 10
 7.86011006200800E+0002
 20
 2.65687151155200E+0002
 11
 7.86757587817700E+0002
 21
 2.78284786548800E+0002
  0
LINE
  8
0
 10
 7.86757587817700E+0002
 20
 2.78284786548800E+0002
 11
 7.87660444326400E+0002
 21
 2.90724736441600E+0002
  0
LINE
  8
0
 10
 7.87660444326400E+0002
 20
 2.90724736441600E+0002
 11
 7.88716242637500E+0002
 21
 3.03010381800000E+0002
  0
LINE
  8
0
 10
 7.88716242637500E+0002
 20
 3.03010381800000E+0002
 11
 7.89921649661600E+0002
 21
 3.15145103590400E+0002
  0
LINE
  8
0
 10
 7.89921649661600E+0002
 20
 3.15145103590400E+0002
 11
 7.91273332309300E+0002
 21
 3.27132282779200E+0002
  0
LINE
  8
0
 10
 7.91273332309300E+0002
 20
 3.27132282779200E+0002
 11
 7.92767957491200E+0002
 21
 3.38975300332800E+0002
  0
LINE
  8
0
 10
 7.92767957491200E+0002
 20
 3.38975300332800E+0002
 11
 7.94402192117900E+0002
 21
 3.50677537217600E+0002
  0
LINE
  8
0
 10
 7.94402192117900E+0002
 20
 3.50677537217600E+0002
 11
 7.96172703100000E+0002
 21
 3.62242374400000E+0002
  0
LINE
  8
0
 10
 7.96172703100000E+0002
 20
 3.62242374400000E+0002
 11
 7.98076157348100E+0002
 21
 3.73673192846400E+0002
  0
LINE
  8
0
 10
 7.98076157348100E+0002
 20
 3.73673192846400E+0002
 11
 8.00109221772800E+0002
 21
 3.84973373523200E+0002
  0
LINE
  8
0
 10
 8.00109221772800E+0002
 20
 3.84973373523200E+0002
 11
 8.02268563284700E+0002
 21
 3.96146297396800E+0002
  0
LINE
  8
0
 10
 8.02268563284700E+0002
 20
 3.96146297396800E+0002
 11
 8.04550848794400E+0002
 21
 4.07195345433600E+0002
  0
LINE
  8
0
 10
 8.04550848794400E+0002
 20
 4.07195345433600E+0002
 11
 8.06952745212500E+0002
 21
 4.18123898600000E+0002
  0
LINE
  8
0
 10
 8.06952745212500E+0002
 20
 4.18123898600000E+0002
 11
 8.09470919449600E+0002
 21
 4.28935337862400E+0002
  0
LINE
  8
0
 10
 8.09470919449600E+0002
 20
 4.28935337862400E+0002
 11
 8.12102038416300E+0002
 21
 4.39633044187200E+0002
  0
LINE
  8
0
 10
 8.12102038416300E+0002
 20
 4.39633044187200E+0002
 11
 8.14842769023200E+0002
 21
 4.50220398540800E+0002
  0
LINE
  8
0
 10
 8.14842769023200E+0002
 20
 4.50220398540800E+0002
 11
 8.17689778180900E+0002
 21
 4.60700781889600E+0002
  0
LINE
  8
0
 10
 8.17689778180900E+0002
 20
 4.60700781889600E+0002
 11
 8.20639732800000E+0002
 21
 4.71077575200000E+0002
  0
LINE
  8
0
 10
 8.20639732800000E+0002
 20
 4.71077575200000E+0002
 11
 8.23689299791100E+0002
 21
 4.81354159438400E+0002
  0
LINE
  8
0
 10
 8.23689299791100E+0002
 20
 4.81354159438400E+0002
 11
 8.26835146064800E+0002
 21
 4.91533915571200E+0002
  0
LINE
  8
0
 10
 8.26835146064800E+0002
 20
 4.91533915571200E+0002
 11
 8.30073938531700E+0002
 21
 5.01620224564800E+0002
  0
LINE
  8
0
 10
 8.30073938531700E+0002
 20
 5.01620224564800E+0002
 11
 8.33402344102400E+0002
 21
 5.11616467385600E+0002
  0
LINE
  8
0
 10
 8.33402344102400E+0002
 20
 5.11616467385600E+0002
 11
 8.36817029687500E+0002
 21
 5.21526025000000E+0002
  0
LINE
  8
0
 10
 8.36817029687500E+0002
 20
 5.21526025000000E+0002
 11
 8.40314662197600E+0002
 21
 5.31352278374400E+0002
  0
LINE
  8
0
 10
 8.40314662197600E+0002
 20
 5.31352278374400E+0002
 11
 8.43891908543300E+0002
 21
 5.41098608475200E+0002
  0
LINE
  8
0
 10
 8.43891908543300E+0002
 20
 5.41098608475200E+0002
 11
 8.47545435635200E+0002
 21
 5.50768396268800E+0002
  0
LINE
  8
0
 10
 8.47545435635200E+0002
 20
 5.50768396268800E+0002
 11
 8.51271910383900E+0002
 21
 5.60365022721600E+0002
  0
LINE
  8
0
 10
 8.51271910383900E+0002
 20
 5.60365022721600E+0002
 11
 8.55067999700000E+0002
 21
 5.69891868800000E+0002
  0
LINE
  8
0
 10
 8.55067999700000E+0002
 20
 5.69891868800000E+0002
 11
 8.58930370494100E+0002
 21
 5.79352315470400E+0002
  0
LINE
  8
0
 10
 8.58930370494100E+0002
 20
 5.79352315470400E+0002
 11
 8.62855689676800E+0002
 21
 5.88749743699200E+0002
  0
LINE
  8
0
 10
 8.62855689676800E+0002
 20
 5.88749743699200E+0002
 11
 8.66840624158700E+0002
 21
 5.98087534452800E+0002
  0
LINE
  8
0
 10
 8.66840624158700E+0002
 20
 5.98087534452800E+0002
 11
 8.70881840850400E+0002
 21
 6.07369068697600E+0002
  0
LINE
  8
0
 10
 8.70881840850400E+0002
 20
 6.07369068697600E+0002
 11
 8.74976006662500E+0002
 21
 6.16597727400000E+0002
  0
LINE
  8
0
 10
 8.74976006662500E+0002
 20
 6.16597727400000E+0002
 11
 8.79119788505600E+0002
 21
 6.25776891526400E+0002
  0
LINE
  8
0
 10
 8.79119788505600E+0002
 20
 6.25776891526400E+0002
 11
 8.83309853290300E+0002
 21
 6.34909942043200E+0002
  0
LINE
  8
0
 10
 8.83309853290300E+0002
 20
 6.34909942043200E+0002
 11
 8.87542867927200E+0002
 21
 6.44000259916800E+0002
  0
LINE
  8
0
 10
 8.87542867927200E+0002
 20
 6.44000259916800E+0002
 11
 8.91815499326900E+0002
 21
 6.53051226113600E+0002
  0
LINE
  8
0
 10
 8.91815499326900E+0002
 20
 6.53051226113600E+0002
 11
 8.96124414400000E+0002
 21
 6.62066221600000E+0002
  0
LINE
  8
0
 10
 8.96124414400000E+0002
 20
 6.62066221600000E+0002
 11
 9.00466280057100E+0002
 21
 6.71048627342400E+0002
  0
LINE
  8
0
 10
 9.00466280057100E+0002
 20
 6.71048627342400E+0002
 11
 9.04837763208800E+0002
 21
 6.80001824307200E+0002
  0
LINE
  8
0
 10
 9.04837763208800E+0002
 20
 6.80001824307200E+0002
 11
 9.09235530765700E+0002
 21
 6.88929193460800E+0002
  0
LINE
  8
0
 10
 9.09235530765700E+0002
 20
 6.88929193460800E+0002
 11
 9.13656249638400E+0002
 21
 6.97834115769600E+0002
  0
LINE
  8
0
 10
 9.13656249638400E+0002
 20
 6.97834115769600E+0002
 11
 9.18096586737500E+0002
 21
 7.06719972200000E+0002
  0
LINE
  8
0
 10
 9.18096586737500E+0002
 20
 7.06719972200000E+0002
 11
 9.22553208973600E+0002
 21
 7.15590143718400E+0002
  0
LINE
  8
0
 10
 9.22553208973600E+0002
 20
 7.15590143718400E+0002
 11
 9.27022783257300E+0002
 21
 7.24448011291200E+0002
  0
LINE
  8
0
 10
 9.27022783257300E+0002
 20
 7.24448011291200E+0002
 11
 9.31501976499200E+0002
 21
 7.33296955884800E+0002
  0
LINE
  8
0
 10
 9.31501976499200E+0002
 20
 7.33296955884800E+0002
 11
 9.35987455609900E+0002
 21
 7.42140358465600E+0002
  0
LINE
  8
0
 10
 9.35987455609900E+0002
 20
 7.42140358465600E+0002
 11
 9.40475887500000E+0002
 21
 7.50981600000000E+0002
  0
LINE
  8
0
 10
 9.40475887500000E+0002
 20
 7.50981600000000E+0002
 11
 9.44963939080100E+0002
 21
 7.59824061454400E+0002
  0
LINE
  8
0
 10
 9.44963939080100E+0002
 20
 7.59824061454400E+0002
 11
 9.49448277260800E+0002
 21
 7.68671123795200E+0002
  0
LINE
  8
0
 10
 9.49448277260800E+0002
 20
 7.68671123795200E+0002
 11
 9.53925568952700E+0002
 21
 7.77526167988800E+0002
  0
LINE
  8
0
 10
 9.53925568952700E+0002
 20
 7.77526167988800E+0002
 11
 9.58392481066400E+0002
 21
 7.86392575001600E+0002
  0
LINE
  8
0
 10
 9.58392481066400E+0002
 20
 7.86392575001600E+0002
 11
 9.62845680512500E+0002
 21
 7.95273725800000E+0002
  0
LINE
  8
0
 10
 9.62845680512500E+0002
 20
 7.95273725800000E+0002
 11
 9.67281834201600E+0002
 21
 8.04173001350400E+0002
  0
LINE
  8
0
 10
 9.67281834201600E+0002
 20
 8.04173001350400E+0002
 11
 9.71697609044300E+0002
 21
 8.13093782619200E+0002
  0
LINE
  8
0
 10
 9.71697609044300E+0002
 20
 8.13093782619200E+0002
 11
 9.76089671951200E+0002
 21
 8.22039450572800E+0002
  0
LINE
  8
0
 10
 9.76089671951200E+0002
 20
 8.22039450572800E+0002
 11
 9.80454689832900E+0002
 21
 8.31013386177600E+0002
  0
LINE
  8
0
 10
 9.80454689832900E+0002
 20
 8.31013386177600E+0002
 11
 9.84789329600000E+0002
 21
 8.40018970400000E+0002
  0
LINE
  8
0
 10
 9.84789329600000E+0002
 20
 8.40018970400000E+0002
 11
 9.89090258163100E+0002
 21
 8.49059584206400E+0002
  0
LINE
  8
0
 10
 9.89090258163100E+0002
 20
 8.49059584206400E+0002
 11
 9.93354142432800E+0002
 21
 8.58138608563200E+0002
  0
LINE
  8
0
 10
 9.93354142432800E+0002
 20
 8.58138608563200E+0002
 11
 9.97577649319700E+0002
 21
 8.67259424436800E+0002
  0
LINE
  8
0
 10
 9.97577649319700E+0002
 20
 8.67259424436800E+0002
 11
 1.00175744573440E+0003
 21
 8.76425412793600E+0002
  0
LINE
  8
0
 10
 1.00175744573440E+0003
 20
 8.76425412793600E+0002
 11
 1.00589019858750E+0003
 21
 8.85639954600000E+0002
  0
LINE
  8
0
 10
 1.00589019858750E+0003
 20
 8.85639954600000E+0002
 11
 1.00997257478960E+0003
 21
 8.94906430822400E+0002
  0
LINE
  8
0
 10
 1.00997257478960E+0003
 20
 8.94906430822400E+0002
 11
 1.01400124125130E+0003
 21
 9.04228222427200E+0002
  0
LINE
  8
0
 10
 1.01400124125130E+0003
 20
 9.04228222427200E+0002
 11
 1.01797286488320E+0003
 21
 9.13608710380800E+0002
  0
LINE
  8
0
 10
 1.01797286488320E+0003
 20
 9.13608710380800E+0002
 11
 1.02188411259590E+0003
 21
 9.23051275649600E+0002
  0
LINE
  8
0
 10
 1.02188411259590E+0003
 20
 9.23051275649600E+0002
 11
 1.02573165130000E+0003
 21
 9.32559299200000E+0002
  0
LINE
  8
0
 10
 1.02573165130000E+0003
 20
 9.32559299200000E+0002
 11
 1.02951214790610E+0003
 21
 9.42136161998400E+0002
  0
LINE
  8
0
 10
 1.02951214790610E+0003
 20
 9.42136161998400E+0002
 11
 1.03322226932480E+0003
 21
 9.51785245011200E+0002
  0
LINE
  8
0
 10
 1.03322226932480E+0003
 20
 9.51785245011200E+0002
 11
 1.03685868246670E+0003
 21
 9.61509929204800E+0002
  0
LINE
  8
0
 10
 1.03685868246670E+0003
 20
 9.61509929204800E+0002
 11
 1.04041805424240E+0003
 21
 9.71313595545600E+0002
  0
LINE
  8
0
 10
 1.04041805424240E+0003
 20
 9.71313595545600E+0002
 11
 1.04389705156250E+0003
 21
 9.81199625000000E+0002
  0
LINE
  8
0
 10
 1.04389705156250E+0003
 20
 9.81199625000000E+0002
 11
 1.04729234133760E+0003
 21
 9.91171398534400E+0002
  0
LINE
  8
0
 10
 1.04729234133760E+0003
 20
 9.91171398534400E+0002
 11
 1.05060059047830E+0003
 21
 1.00123229711520E+0003
  0
LINE
  8
0
 10
 1.05060059047830E+0003
 20
 1.00123229711520E+0003
 11
 1.05381846589520E+0003
 21
 1.01138570170880E+0003
  0
LINE
  8
0
 10
 1.05381846589520E+0003
 20
 1.01138570170880E+0003
 11
 1.05694263449890E+0003
 21
 1.02163499328160E+0003
  0
LINE
  8
0
 10
 1.05694263449890E+0003
 20
 1.02163499328160E+0003
 11
 1.05996976320000E+0003
 21
 1.03198355280000E+0003
  0
LINE
  8
0
 10
 1.05996976320000E+0003
 20
 1.03198355280000E+0003
 11
 1.06289651890910E+0003
 21
 1.04243476123040E+0003
  0
LINE
  8
0
 10
 1.06289651890910E+0003
 20
 1.04243476123040E+0003
 11
 1.06571956853680E+0003
 21
 1.05299199953920E+0003
  0
LINE
  8
0
 10
 1.06571956853680E+0003
 20
 1.05299199953920E+0003
 11
 1.06843557899370E+0003
 21
 1.06365864869280E+0003
  0
LINE
  8
0
 10
 1.06843557899370E+0003
 20
 1.06365864869280E+0003
 11
 1.07104121719040E+0003
 21
 1.07443808965760E+0003
  0
LINE
  8
0
 10
 1.07104121719040E+0003
 20
 1.07443808965760E+0003
 11
 1.07353315003750E+0003
 21
 1.08533370340000E+0003
  0
LINE
  8
0
 10
 1.07353315003750E+0003
 20
 1.08533370340000E+0003
 11
 1.07590804444560E+0003
 21
 1.09634887088640E+0003
  0
LINE
  8
0
 10
 1.07590804444560E+0003
 20
 1.09634887088640E+0003
 11
 1.07816256732530E+0003
 21
 1.10748697308320E+0003
  0
LINE
  8
0
 10
 1.07816256732530E+0003
 20
 1.10748697308320E+0003
 11
 1.08029338558720E+0003
 21
 1.11875139095680E+0003
  0
LINE
  8
0
 10
 1.08029338558720E+0003
 20
 1.11875139095680E+0003
 11
 1.08229716614190E+0003
 21
 1.13014550547360E+0003
  0
LINE
  8
0
 10
 1.08229716614190E+0003
 20
 1.13014550547360E+0003
 11
 1.08417057590000E+0003
 21
 1.14167269760000E+0003
  0
LINE
  8
0
 10
 1.08417057590000E+0003
 20
 1.14167269760000E+0003
 11
 1.08591028177210E+0003
 21
 1.15333634830240E+0003
  0
LINE
  8
0
 10
 1.08591028177210E+0003
 20
 1.15333634830240E+0003
 11
 1.08751295066880E+0003
 21
 1.16513983854720E+0003
  0
LINE
  8
0
 10
 1.08751295066880E+0003
 20
 1.16513983854720E+0003
 11
 1.08897524950070E+0003
 21
 1.17708654930080E+0003
  0
LINE
  8
0
 10
 1.08897524950070E+0003
 20
 1.17708654930080E+0003
 11
 1.09029384517840E+0003
 21
 1.18917986152960E+0003
  0
LINE
  8
0
 10
 1.09029384517840E+0003
 20
 1.18917986152960E+0003
 11
 1.09146540461250E+0003
 21
 1.20142315620000E+0003
  0
LINE
  8
0
 10
 1.09146540461250E+0003
 20
 1.20142315620000E+0003
 11
 1.09248659471360E+0003
 21
 1.21381981427840E+0003
  0
LINE
  8
0
 10
 1.09248659471360E+0003
 20
 1.21381981427840E+0003
 11
 1.09335408239230E+0003
 21
 1.22637321673120E+0003
  0
LINE
  8
0
 10
 1.09335408239230E+0003
 20
 1.22637321673120E+0003
 11
 1.09406453455920E+0003
 21
 1.23908674452480E+0003
  0
LINE
  8
0
 10
 1.09406453455920E+0003
 20
 1.23908674452480E+0003
 11
 1.09461461812490E+0003
 21
 1.25196377862560E+0003
  0
LINE
  8
0
 10
 1.09461461812490E+0003
 20
 1.25196377862560E+0003
 11
 1.09500100000000E+0003
 21
 1.26500770000000E+0003
  0
LINE
  8
0
 10
 1.09500100000000E+0003
 20
 1.26500770000000E+0003
 11
 1.09500000000000E+0003
 21
 1.30700000000000E+0003
  0
LINE
  8
0
 10
 1.09500000000000E+0003
 20
 1.30700000000000E+0003
 11
 1.13999746768077E+0003
 21
 1.29538170409776E+0003
  0
ARC
  8
0
 10
 1.14300000000000E+0003
 20
 1.30700000000000E+0003
 40
 1.20000000000000E+0001
 50
 2.55510000000000E+0002
 51
 3.93600000000000E+0002
  0
LINE
  8
0
 10
 1.15299505488852E+0003
 20
 1.31364069859092E+0003
 11
 1.06500000000000E+0003
 21
 1.44500000000000E+0003
  0
LINE
  8
0
 10
 1.06500000000000E+0003
 20
 1.44500000000000E+0003
 11
 9.77011904713912E+0002
 21
 1.31365116174484E+0003
  0
ARC
  8
0
 10
 9.87000000000000E+0002
 20
 1.30700000000000E+0003
 40
 1.20000000000000E+0001
 50
 1.46340000000000E+0002
 51
 2.84365000000000E+0002
  0
LINE
  8
0
 10
 9.89977178004217E+0002
 20
 1.29537518124308E+0003
 11
 9.90000000000000E+0002
 21
 1.29537550000000E+0003
  0
ENDSEC
  0
EOF
