  0
SECTION
  2
HEADER
  9
$ACADVER
  1
AC1003
  9
$INSBASE
 10
0.0
 20
0.0
  9
$EXTMIN
 10
 0.00000000000000E+0000
 20
 0.00000000000000E+0000
  9
$EXTMAX
 10
 6.00000000000000E+0002
 20
 6.00000000000000E+0002
  9
$LIMMIN
 10
0.0
 20
0.0
  9
$LIMMAX
 10
410.0
 20
287.0
  9
$VIEWCTR
 10
227.0059616
 20
165.058879 
  9
$VIEWSIZE
 40
 6.00000000000000E+0002
9
$SNAPMODE
70
0
9
$SNAPUNIT
10
1
20
1
9
$GRIDMODE
70
0
9
$GRIDUNIT
10
1
20
1
9
$ORTHOMODE
70
0
9
$rEGENMODE
70
1
9
$FILLMODE
70
1
9
$DRAGMODE
70
2
9
$LTSCALE
40
25.0
9
$OSMODE
70
0
9
$ATTMODE
70
1
9
$TRACEWID
40
1.0
9
$TEXTSTYLE
7
STANDARD
9
$CLAYER
8
0
9
$CELTYPE
6
VONLAYER
9
$CECOLOR
62
256
9
$LUNITS
70
2
9
$LUPREC
70
2
9
$AXISMODE
70
0
9
$AXISUNIT
10
0
20
0
9
$SKETCHINC
40
1.0
9
$FILLETRAD
40
0.0
9
$AUNITS
70
0
9
$AUPREC
70
0
9
$MENU
1
ACAD
9
$ELEVATION
40
0.0
9
$THICKNESS
40
0.0
9
$VIEWDIR
10
0.0
20
0.0
30
1.0
9
$LIMCHECK
70
0
9
$BLIPMODE
70
1
9
$CHAMFERA
40
0.0
9
$CHAMFERB
40
0.0
9
$USRTIMER
70
1
9
$ANGBASE
50
0.0
9
$ANGDIR
70
0
9
$PDMODE
70
0
9
$PDSIZE
40
0.0
9
$PLINEWID
40
0.0
9
$COORDS
70
0
0
ENDSEC
0
SECTION
2
TABLES
0
TABLE
2
LTYPE
70
1
0
LTYPE
2
AUSGEZOGEN
70
64
3
Ausgezogene Linie
72
65
73
0
40
0.0
0
ENDTAB
0
TABLE
2
LAYER
70
1
0
LAYER
2
0
70
0
62
7
6
AUSGEZOGEN
0
ENDTAB
0
TABLE
2
STYLE
70
1
0
STYLE
2
STANDARD
70
0
40
0.0
41
1.0
50
0.0
71
0
42
3.5
3
txt
4

0
ENDTAB
0
TABLE
2
VIEW
70
0
0
ENDTAB
0
ENDSEC
0
SECTION
2
BLOCKS
0
ENDSEC
0
SECTION
2
ENTITIES
  0
ARC
  8
0
 10
 4.00000000000000E+0001
 20
 4.00000000000000E+0001
 40
 4.00000000000000E+0001
 50
 1.80000000000000E+0002
 51
 2.70000000000000E+0002
  0
LINE
  8
0
 10
 0.00000000000000E+0000
 20
 4.00000000000000E+0001
 11
 0.00000000000000E+0000
 21
 5.60000000000000E+0002
  0
ARC
  8
0
 10
 4.00000000000000E+0001
 20
 5.60000000000000E+0002
 40
 4.00000000000000E+0001
 50
 9.00000000000000E+0001
 51
 1.80000000000000E+0002
  0
LINE
  8
0
 10
 4.00000000000000E+0001
 20
 6.00000000000000E+0002
 11
 5.60000000000000E+0002
 21
 6.00000000000000E+0002
  0
ARC
  8
0
 10
 5.60000000000000E+0002
 20
 5.60000000000000E+0002
 40
 4.00000000000000E+0001
 50
 0.00000000000000E+0000
 51
 9.00000000000000E+0001
  0
LINE
  8
0
 10
 6.00000000000000E+0002
 20
 5.60000000000000E+0002
 11
 6.00000000000000E+0002
 21
 4.00000000000000E+0001
  0
ARC
  8
0
 10
 5.60000000000000E+0002
 20
 4.00000000000000E+0001
 40
 4.00000000000000E+0001
 50
 2.70000000000000E+0002
 51
 3.60000000000000E+0002
  0
LINE
  8
0
 10
 5.60000000000000E+0002
 20
 0.00000000000000E+0000
 11
 4.00000000000000E+0001
 21
 0.00000000000000E+0000
  0
ARC
  8
0
 10
 4.00000000000000E+0001
 20
 4.00000000000000E+0001
 40
 3.00000000000000E+0001
 50
 1.80000000000000E+0002
 51
 2.70000000000000E+0002
  0
LINE
  8
0
 10
 1.00000000000000E+0001
 20
 4.00000000000000E+0001
 11
 1.00000000000000E+0001
 21
 5.60000000000000E+0002
  0
ARC
  8
0
 10
 4.00000000000000E+0001
 20
 5.60000000000000E+0002
 40
 3.00000000000000E+0001
 50
 9.00000000000000E+0001
 51
 1.80000000000000E+0002
  0
LINE
  8
0
 10
 4.00000000000000E+0001
 20
 5.90000000000000E+0002
 11
 5.60000000000000E+0002
 21
 5.90000000000000E+0002
  0
ARC
  8
0
 10
 5.60000000000000E+0002
 20
 5.60000000000000E+0002
 40
 3.00000000000000E+0001
 50
 0.00000000000000E+0000
 51
 9.00000000000000E+0001
  0
LINE
  8
0
 10
 5.90000000000000E+0002
 20
 5.60000000000000E+0002
 11
 5.90000000000000E+0002
 21
 4.00000000000000E+0001
  0
ARC
  8
0
 10
 5.60000000000000E+0002
 20
 4.00000000000000E+0001
 40
 3.00000000000000E+0001
 50
 2.70000000000000E+0002
 51
 3.60000000000000E+0002
  0
LINE
  8
0
 10
 5.60000000000000E+0002
 20
 1.00000000000000E+0001
 11
 4.00000000000000E+0001
 21
 1.00000000000000E+0001
  0
ARC
  8
0
 10
 4.00000000000000E+0001
 20
 4.00000000000000E+0001
 40
 1.50000000000000E+0001
 50
 1.80000000000000E+0002
 51
 2.70000000000000E+0002
  0
LINE
  8
0
 10
 2.50000000000000E+0001
 20
 4.00000000000000E+0001
 11
 2.50000000000000E+0001
 21
 5.60000000000000E+0002
  0
ARC
  8
0
 10
 4.00000000000000E+0001
 20
 5.60000000000000E+0002
 40
 1.50000000000000E+0001
 50
 9.00000000000000E+0001
 51
 1.80000000000000E+0002
  0
LINE
  8
0
 10
 4.00000000000000E+0001
 20
 5.75000000000000E+0002
 11
 5.60000000000000E+0002
 21
 5.75000000000000E+0002
  0
ARC
  8
0
 10
 5.60000000000000E+0002
 20
 5.60000000000000E+0002
 40
 1.50000000000000E+0001
 50
 0.00000000000000E+0000
 51
 9.00000000000000E+0001
  0
LINE
  8
0
 10
 5.75000000000000E+0002
 20
 5.60000000000000E+0002
 11
 5.75000000000000E+0002
 21
 4.00000000000000E+0001
  0
ARC
  8
0
 10
 5.60000000000000E+0002
 20
 4.00000000000000E+0001
 40
 1.50000000000000E+0001
 50
 2.70000000000000E+0002
 51
 3.60000000000000E+0002
  0
LINE
  8
0
 10
 5.60000000000000E+0002
 20
 2.50000000000000E+0001
 11
 4.00000000000000E+0001
 21
 2.50000000000000E+0001
  0
CIRCLE
  8
0
 10
 1.31300000000000E+0002
 20
 5.32000000000000E+0002
 40
 1.30000000000000E+0001
  0
LINE
  8
0
 10
 1.31299600000000E+0002
 20
 4.31815600000000E+0002
 11
 1.00000203396613E+0002
 21
 4.31789114186900E+0002
  0
ARC
  8
0
 10
 1.62600000000000E+0002
 20
 4.22400000000000E+0002
 40
 6.33000000000000E+0001
 50
 1.38780000000000E+0002
 51
 1.71470000000000E+0002
  0
LINE
  8
0
 10
 1.14986693483841E+0002
 20
 4.64111665545724E+0002
 11
 1.14995748740611E+0002
 21
 4.64128734977071E+0002
  0
ARC
  8
0
 10
 1.31300000000000E+0002
 20
 4.78750000000000E+0002
 40
 2.19000000000000E+0001
 50
 1.80000000000000E+0002
 51
 2.21885000000000E+0002
  0
LINE
  8
0
 10
 1.09400000000000E+0002
 20
 4.78750000000000E+0002
 11
 1.09400000000000E+0002
 21
 4.91300000000000E+0002
  0
ARC
  8
0
 10
 1.31300000000000E+0002
 20
 4.91300000000000E+0002
 40
 2.19000000000000E+0001
 50
 0.00000000000000E+0000
 51
 1.80000000000000E+0002
  0
LINE
  8
0
 10
 1.53200000000000E+0002
 20
 4.91300000000000E+0002
 11
 1.53200000000000E+0002
 21
 4.78750000000000E+0002
  0
ARC
  8
0
 10
 1.31300000000000E+0002
 20
 4.78750000000000E+0002
 40
 2.19000000000000E+0001
 50
 3.18115000000000E+0002
 51
 3.60000000000000E+0002
  0
LINE
  8
0
 10
 1.47604251259388E+0002
 20
 4.64128734977071E+0002
 11
 1.47613306516158E+0002
 21
 4.64111665545724E+0002
  0
ARC
  8
0
 10
 1.00000000000000E+0002
 20
 4.22400000000000E+0002
 40
 6.33000000000000E+0001
 50
 8.53500000000000E+0000
 51
 4.12200000000000E+0001
  0
LINE
  8
0
 10
 1.62598977010243E+0002
 20
 4.31794577013951E+0002
 11
 1.31299600000000E+0002
 21
 4.31815600000000E+0002
  0
LINE
  8
0
 10
 1.29734200000000E+0002
 20
 4.28685600000000E+0002
 11
 1.20344300000000E+0002
 21
 4.28685600000000E+0002
  0
LINE
  8
0
 10
 1.20344300000000E+0002
 20
 4.28685600000000E+0002
 11
 1.20350000000000E+0002
 21
 3.86450000000000E+0002
  0
ARC
  8
0
 10
 1.25050000000000E+0002
 20
 3.86450000000000E+0002
 40
 4.70000000000000E+0000
 50
 1.80000000000000E+0002
 51
 3.60000000000000E+0002
  0
LINE
  8
0
 10
 1.29750000000000E+0002
 20
 3.86450000000000E+0002
 11
 1.29734200000000E+0002
 21
 4.28685600000000E+0002
  0
LINE
  8
0
 10
 1.42254900000000E+0002
 20
 4.28685600000000E+0002
 11
 1.32865000000000E+0002
 21
 4.28685600000000E+0002
  0
LINE
  8
0
 10
 1.32865000000000E+0002
 20
 4.28685600000000E+0002
 11
 1.32850000000000E+0002
 21
 3.95800000000000E+0002
  0
ARC
  8
0
 10
 1.37550000000000E+0002
 20
 3.95800000000000E+0002
 40
 4.70000000000000E+0000
 50
 1.80000000000000E+0002
 51
 3.60000000000000E+0002
  0
LINE
  8
0
 10
 1.42250000000000E+0002
 20
 3.95800000000000E+0002
 11
 1.42254900000000E+0002
 21
 4.28685600000000E+0002
  0
LINE
  8
0
 10
 1.18780500000000E+0002
 20
 4.68115300000000E+0002
 11
 1.21009040269586E+0002
 21
 4.70254417428072E+0002
  0
ARC
  8
0
 10
 1.18800000000000E+0002
 20
 4.72500000000000E+0002
 40
 3.15000000000000E+0000
 50
 3.14530000000000E+0002
 51
 3.60000000000000E+0002
  0
LINE
  8
0
 10
 1.21950000000000E+0002
 20
 4.72500000000000E+0002
 11
 1.21900000000000E+0002
 21
 4.96000000000000E+0002
  0
ARC
  8
0
 10
 1.20350000000000E+0002
 20
 4.96000000000000E+0002
 40
 1.55000000000000E+0000
 50
 0.00000000000000E+0000
 51
 1.80000000000000E+0002
  0
LINE
  8
0
 10
 1.18800000000000E+0002
 20
 4.96000000000000E+0002
 11
 1.18780500000000E+0002
 21
 4.68115300000000E+0002
  0
LINE
  8
0
 10
 1.43844200000000E+0002
 20
 4.68115300000000E+0002
 11
 1.41640959730414E+0002
 21
 4.70254417428072E+0002
  0
ARC
  8
0
 10
 1.43850000000000E+0002
 20
 4.72500000000000E+0002
 40
 3.15000000000000E+0000
 50
 1.80000000000000E+0002
 51
 2.25470000000000E+0002
  0
LINE
  8
0
 10
 1.40700000000000E+0002
 20
 4.72500000000000E+0002
 11
 1.40750000000000E+0002
 21
 4.96000000000000E+0002
  0
ARC
  8
0
 10
 1.42300000000000E+0002
 20
 4.96000000000000E+0002
 40
 1.55000000000000E+0000
 50
 0.00000000000000E+0000
 51
 1.80000000000000E+0002
  0
LINE
  8
0
 10
 1.43850000000000E+0002
 20
 4.96000000000000E+0002
 11
 1.43844200000000E+0002
 21
 4.68115300000000E+0002
  0
LINE
  8
0
 10
 4.48703100000000E+0002
 20
 4.56034100000000E+0002
 11
 4.48700000000000E+0002
 21
 3.81750000000000E+0002
  0
ARC
  8
0
 10
 4.48700000000000E+0002
 20
 3.94650000000000E+0002
 40
 1.29000000000000E+0001
 50
 2.70000000000000E+0002
 51
 3.60000000000000E+0002
  0
LINE
  8
0
 10
 4.61600000000000E+0002
 20
 3.94650000000000E+0002
 11
 4.61624100000000E+0002
 21
 4.39882200000000E+0002
  0
LINE
  8
0
 10
 4.61624100000000E+0002
 20
 4.39882200000000E+0002
 11
 4.93935958508608E+0002
 21
 3.88210179559582E+0002
  0
ARC
  8
0
 10
 4.87100000000000E+0002
 20
 3.99150000000000E+0002
 40
 1.29000000000000E+0001
 50
 3.02000000000000E+0002
 51
 3.92000000000000E+0002
  0
LINE
  8
0
 10
 4.98039820440418E+0002
 20
 4.05985958508608E+0002
 11
 4.74545300000000E+0002
 21
 4.43588000000000E+0002
  0
LINE
  8
0
 10
 4.74545300000000E+0002
 20
 4.43588000000000E+0002
 11
 4.74545300000000E+0002
 21
 4.56034100000000E+0002
  0
LINE
  8
0
 10
 4.74545300000000E+0002
 20
 4.56034100000000E+0002
 11
 4.48703100000000E+0002
 21
 4.56034100000000E+0002
  0
LINE
  8
0
 10
 4.48703100000000E+0002
 20
 4.59264700000000E+0002
 11
 4.74545300000000E+0002
 21
 4.59264700000000E+0002
  0
LINE
  8
0
 10
 4.74545300000000E+0002
 20
 4.59264700000000E+0002
 11
 4.74545300000000E+0002
 21
 4.83632900000000E+0002
  0
LINE
  8
0
 10
 4.74545300000000E+0002
 20
 4.83632900000000E+0002
 11
 4.91788923932613E+0002
 21
 4.56017579109151E+0002
  0
ARC
  8
0
 10
 4.85800000000000E+0002
 20
 4.65600000000000E+0002
 40
 1.13000000000000E+0001
 50
 3.02005000000000E+0002
 51
 3.92000000000000E+0002
  0
LINE
  8
0
 10
 4.95382943486568E+0002
 20
 4.71588087685835E+0002
 11
 4.72539223848845E+0002
 21
 5.08086913162009E+0002
  0
ARC
  8
0
 10
 4.61600000000000E+0002
 20
 5.01250000000000E+0002
 40
 1.29000000000000E+0001
 50
 3.20050000000000E+0001
 51
 1.80000000000000E+0002
  0
LINE
  8
0
 10
 4.48700000000000E+0002
 20
 5.01250000000000E+0002
 11
 4.48703100000000E+0002
 21
 4.86723100000000E+0002
  0
LINE
  8
0
 10
 4.48703100000000E+0002
 20
 4.86723100000000E+0002
 11
 4.24460456116405E+0002
 21
 4.72185987673913E+0002
  0
ARC
  8
0
 10
 4.34150000000000E+0002
 20
 4.78000000000000E+0002
 40
 1.13000000000000E+0001
 50
 2.10965000000000E+0002
 51
 3.00960000000000E+0002
  0
LINE
  8
0
 10
 4.39963166731731E+0002
 20
 4.68309948785012E+0002
 11
 4.48703100000000E+0002
 21
 4.73537600000000E+0002
  0
LINE
  8
0
 10
 4.48703100000000E+0002
 20
 4.73537600000000E+0002
 11
 4.48703100000000E+0002
 21
 4.59264700000000E+0002
  0
CIRCLE
  8
0
 10
 4.53550000000000E+0002
 20
 5.31950000000000E+0002
 40
 1.30000000000000E+0001
  0
LINE
  8
0
 10
 1.24227000000000E+0002
 20
 2.19299500000000E+0002
 11
 1.24250000000000E+0002
 21
 1.45000000000000E+0002
  0
ARC
  8
0
 10
 1.24250000000000E+0002
 20
 1.57900000000000E+0002
 40
 1.29000000000000E+0001
 50
 2.70000000000000E+0002
 51
 3.60000000000000E+0002
  0
LINE
  8
0
 10
 1.37150000000000E+0002
 20
 1.57900000000000E+0002
 11
 1.37148000000000E+0002
 21
 2.03147500000000E+0002
  0
LINE
  8
0
 10
 1.37148000000000E+0002
 20
 2.03147500000000E+0002
 11
 1.69435958508608E+0002
 21
 1.51460179559582E+0002
  0
ARC
  8
0
 10
 1.62600000000000E+0002
 20
 1.62400000000000E+0002
 40
 1.29000000000000E+0001
 50
 3.02000000000000E+0002
 51
 3.92000000000000E+0002
  0
LINE
  8
0
 10
 1.73539820440418E+0002
 20
 1.69235958508608E+0002
 11
 1.50069200000000E+0002
 21
 2.06853300000000E+0002
  0
LINE
  8
0
 10
 1.50069200000000E+0002
 20
 2.06853300000000E+0002
 11
 1.50069200000000E+0002
 21
 2.19299500000000E+0002
  0
LINE
  8
0
 10
 1.50069200000000E+0002
 20
 2.19299500000000E+0002
 11
 1.24227000000000E+0002
 21
 2.19299500000000E+0002
  0
LINE
  8
0
 10
 1.24227000000000E+0002
 20
 2.22530000000000E+0002
 11
 1.50069200000000E+0002
 21
 2.22530000000000E+0002
  0
LINE
  8
0
 10
 1.50069200000000E+0002
 20
 2.22530000000000E+0002
 11
 1.50069200000000E+0002
 21
 2.46898300000000E+0002
  0
LINE
  8
0
 10
 1.50069200000000E+0002
 20
 2.46898300000000E+0002
 11
 1.67338087685835E+0002
 21
 2.19317056513432E+0002
  0
ARC
  8
0
 10
 1.61350000000000E+0002
 20
 2.28900000000000E+0002
 40
 1.13000000000000E+0001
 50
 3.02000000000000E+0002
 51
 3.92000000000000E+0002
  0
LINE
  8
0
 10
 1.70932943486568E+0002
 20
 2.34888087685835E+0002
 11
 1.48089820440418E+0002
 21
 2.71385958508608E+0002
  0
ARC
  8
0
 10
 1.37150000000000E+0002
 20
 2.64550000000000E+0002
 40
 1.29000000000000E+0001
 50
 3.20000000000000E+0001
 51
 1.80000000000000E+0002
  0
LINE
  8
0
 10
 1.24250000000000E+0002
 20
 2.64550000000000E+0002
 11
 1.24227000000000E+0002
 21
 2.49988400000000E+0002
  0
LINE
  8
0
 10
 1.24227000000000E+0002
 20
 2.49988400000000E+0002
 11
 1.00010456116405E+0002
 21
 2.35435987673913E+0002
  0
ARC
  8
0
 10
 1.09700000000000E+0002
 20
 2.41250000000000E+0002
 40
 1.13000000000000E+0001
 50
 2.10965000000000E+0002
 51
 3.00960000000000E+0002
  0
LINE
  8
0
 10
 1.15513166731731E+0002
 20
 2.31559948785012E+0002
 11
 1.24227000000000E+0002
 21
 2.36803000000000E+0002
  0
LINE
  8
0
 10
 1.24227000000000E+0002
 20
 2.36803000000000E+0002
 11
 1.24227000000000E+0002
 21
 2.22530000000000E+0002
  0
CIRCLE
  8
0
 10
 1.29050000000000E+0002
 20
 2.95200000000000E+0002
 40
 1.30000000000000E+0001
  0
LINE
  8
0
 10
 4.68700100000000E+0002
 20
 1.95080900000000E+0002
 11
 4.99999796603386E+0002
 21
 1.95089114186900E+0002
  0
ARC
  8
0
 10
 4.37400000000000E+0002
 20
 1.85700000000000E+0002
 40
 6.33000000000000E+0001
 50
 8.53000000000000E+0000
 51
 4.12200000000000E+0001
  0
LINE
  8
0
 10
 4.85013306516158E+0002
 20
 2.27411665545724E+0002
 11
 4.85004251259388E+0002
 21
 2.27428734977071E+0002
  0
ARC
  8
0
 10
 4.68700000000000E+0002
 20
 2.42050000000000E+0002
 40
 2.19000000000000E+0001
 50
 3.18115000000000E+0002
 51
 3.60000000000000E+0002
  0
LINE
  8
0
 10
 4.90600000000000E+0002
 20
 2.42050000000000E+0002
 11
 4.90600000000000E+0002
 21
 2.54550000000000E+0002
  0
ARC
  8
0
 10
 4.68700000000000E+0002
 20
 2.54550000000000E+0002
 40
 2.19000000000000E+0001
 50
 0.00000000000000E+0000
 51
 1.80000000000000E+0002
  0
LINE
  8
0
 10
 4.46800000000000E+0002
 20
 2.54550000000000E+0002
 11
 4.46800000000000E+0002
 21
 2.42050000000000E+0002
  0
ARC
  8
0
 10
 4.68700000000000E+0002
 20
 2.42050000000000E+0002
 40
 2.19000000000000E+0001
 50
 1.80000000000000E+0002
 51
 2.21885000000000E+0002
  0
LINE
  8
0
 10
 4.52395748740612E+0002
 20
 2.27428734977071E+0002
 11
 4.52386693483842E+0002
 21
 2.27411665545724E+0002
  0
ARC
  8
0
 10
 5.00000000000000E+0002
 20
 1.85700000000000E+0002
 40
 6.33000000000000E+0001
 50
 1.38780000000000E+0002
 51
 1.71465000000000E+0002
  0
LINE
  8
0
 10
 4.37401022989757E+0002
 20
 1.95094577013951E+0002
 11
 4.68700100000000E+0002
 21
 1.95080900000000E+0002
  0
LINE
  8
0
 10
 4.70265500000000E+0002
 20
 1.91950900000000E+0002
 11
 4.79655400000000E+0002
 21
 1.91950900000000E+0002
  0
LINE
  8
0
 10
 4.79655400000000E+0002
 20
 1.91950900000000E+0002
 11
 4.79650000000000E+0002
 21
 1.49700000000000E+0002
  0
ARC
  8
0
 10
 4.74950000000000E+0002
 20
 1.49700000000000E+0002
 40
 4.70000000000000E+0000
 50
 1.80000000000000E+0002
 51
 3.60000000000000E+0002
  0
LINE
  8
0
 10
 4.70250000000000E+0002
 20
 1.49700000000000E+0002
 11
 4.70265500000000E+0002
 21
 1.91950900000000E+0002
  0
LINE
  8
0
 10
 4.57744800000000E+0002
 20
 1.91950900000000E+0002
 11
 4.67134700000000E+0002
 21
 1.91950900000000E+0002
  0
LINE
  8
0
 10
 4.67134700000000E+0002
 20
 1.91950900000000E+0002
 11
 4.67150000000000E+0002
 21
 1.59100000000000E+0002
  0
ARC
  8
0
 10
 4.62450000000000E+0002
 20
 1.59100000000000E+0002
 40
 4.70000000000000E+0000
 50
 1.80000000000000E+0002
 51
 3.60000000000000E+0002
  0
LINE
  8
0
 10
 4.57750000000000E+0002
 20
 1.59100000000000E+0002
 11
 4.57744800000000E+0002
 21
 1.91950900000000E+0002
  0
LINE
  8
0
 10
 4.81219200000000E+0002
 20
 2.31380600000000E+0002
 11
 4.78991155702872E+0002
 21
 2.33504224661493E+0002
  0
ARC
  8
0
 10
 4.81200000000000E+0002
 20
 2.35750000000000E+0002
 40
 3.15000000000000E+0000
 50
 1.80000000000000E+0002
 51
 2.25475000000000E+0002
  0
LINE
  8
0
 10
 4.78050000000000E+0002
 20
 2.35750000000000E+0002
 11
 4.78100000000000E+0002
 21
 2.59250000000000E+0002
  0
ARC
  8
0
 10
 4.79650000000000E+0002
 20
 2.59250000000000E+0002
 40
 1.55000000000000E+0000
 50
 0.00000000000000E+0000
 51
 1.80000000000000E+0002
  0
LINE
  8
0
 10
 4.81200000000000E+0002
 20
 2.59250000000000E+0002
 11
 4.81219200000000E+0002
 21
 2.31380600000000E+0002
  0
LINE
  8
0
 10
 4.56155500000000E+0002
 20
 2.31380600000000E+0002
 11
 4.58359040269586E+0002
 21
 2.33504417428072E+0002
  0
ARC
  8
0
 10
 4.56150000000000E+0002
 20
 2.35750000000000E+0002
 40
 3.15000000000000E+0000
 50
 3.14530000000000E+0002
 51
 3.60000000000000E+0002
  0
LINE
  8
0
 10
 4.59300000000000E+0002
 20
 2.35750000000000E+0002
 11
 4.59250000000000E+0002
 21
 2.59250000000000E+0002
  0
ARC
  8
0
 10
 4.57700000000000E+0002
 20
 2.59250000000000E+0002
 40
 1.55000000000000E+0000
 50
 0.00000000000000E+0000
 51
 1.80000000000000E+0002
  0
LINE
  8
0
 10
 4.56150000000000E+0002
 20
 2.59250000000000E+0002
 11
 4.56155500000000E+0002
 21
 2.31380600000000E+0002
  0
CIRCLE
  8
0
 10
 4.68700000000000E+0002
 20
 2.95200000000000E+0002
 40
 1.30000000000000E+0001
  0
ARC
  8
0
 10
 1.97950000000000E+0002
 20
 3.50100000000000E+0002
 40
 1.53000000000000E+0001
 50
 1.43115000000000E+0002
 51
 1.80000000000000E+0002
  0
LINE
  8
0
 10
 1.85712420142862E+0002
 20
 3.59283225971312E+0002
 11
 1.88769950802017E+0002
 21
 3.63359934402811E+0002
  0
ARC
  8
0
 10
 1.52050000000000E+0002
 20
 3.90900000000000E+0002
 40
 4.59000000000000E+0001
 50
 3.23130000000000E+0002
 51
 3.36490000000000E+0002
  0
LINE
  8
0
 10
 1.94139862369958E+0002
 20
 3.72590071390692E+0002
 11
 2.14308815453613E+0002
 21
 4.18987111548051E+0002
  0
ARC
  8
0
 10
 2.26000000000000E+0002
 20
 4.13900000000000E+0002
 40
 1.27500000000000E+0001
 50
 9.00000000000000E+0001
 51
 1.56485000000000E+0002
  0
LINE
  8
0
 10
 2.26000000000000E+0002
 20
 4.26650000000000E+0002
 11
 2.89799600000000E+0002
 21
 4.26633000000000E+0002
  0
LINE
  8
0
 10
 2.89799600000000E+0002
 20
 4.26633000000000E+0002
 11
 2.89799600000000E+0002
 21
 4.13878700000000E+0002
  0
LINE
  8
0
 10
 2.89799600000000E+0002
 20
 4.13878700000000E+0002
 11
 2.29100000000000E+0002
 21
 4.13900000000000E+0002
  0
ARC
  8
0
 10
 2.29100000000000E+0002
 20
 4.08800000000000E+0002
 40
 5.10000000000000E+0000
 50
 9.00000000000000E+0001
 51
 1.56470000000000E+0002
  0
LINE
  8
0
 10
 2.24424059062775E+0002
 20
 4.10836068847456E+0002
 11
 2.06890200000000E+0002
 21
 3.70510500000000E+0002
  0
LINE
  8
0
 10
 2.06890200000000E+0002
 20
 3.70510500000000E+0002
 11
 2.89799600000000E+0002
 21
 3.70510500000000E+0002
  0
LINE
  8
0
 10
 2.89799600000000E+0002
 20
 3.70510500000000E+0002
 11
 2.89799600000000E+0002
 21
 3.04182700000000E+0002
  0
LINE
  8
0
 10
 2.89799600000000E+0002
 20
 3.04182700000000E+0002
 11
 1.95400000000000E+0002
 21
 3.04200000000000E+0002
  0
ARC
  8
0
 10
 1.95400000000000E+0002
 20
 3.16950000000000E+0002
 40
 1.27500000000000E+0001
 50
 1.80000000000000E+0002
 51
 2.70000000000000E+0002
  0
LINE
  8
0
 10
 1.82650000000000E+0002
 20
 3.16950000000000E+0002
 11
 1.82656100000000E+0002
 21
 3.50102000000000E+0002
  0
LINE
  8
0
 10
 1.95409400000000E+0002
 20
 2.99080600000000E+0002
 11
 2.26022100000000E+0002
 21
 2.99080600000000E+0002
  0
LINE
  8
0
 10
 2.26022100000000E+0002
 20
 2.99080600000000E+0002
 11
 2.26000000000000E+0002
 21
 2.71000000000000E+0002
  0
ARC
  8
0
 10
 2.18350000000000E+0002
 20
 2.71000000000000E+0002
 40
 7.65000000000000E+0000
 50
 2.70000000000000E+0002
 51
 3.60000000000000E+0002
  0
LINE
  8
0
 10
 2.18350000000000E+0002
 20
 2.63350000000000E+0002
 11
 2.03050000000000E+0002
 21
 2.63350000000000E+0002
  0
ARC
  8
0
 10
 2.03050000000000E+0002
 20
 2.71000000000000E+0002
 40
 7.65000000000000E+0000
 50
 1.80005000000000E+0002
 51
 2.70000000000000E+0002
  0
LINE
  8
0
 10
 1.95400000029129E+0002
 20
 2.70999332411562E+0002
 11
 1.95409400000000E+0002
 21
 2.99080600000000E+0002
  0
CIRCLE
  8
0
 10
 2.11050000000000E+0002
 20
 3.42750000000000E+0002
 40
 1.53000000000000E+0001
  0
LINE
  8
0
 10
 3.10200000000000E+0002
 20
 4.26633000000000E+0002
 11
 3.11054100000000E+0002
 21
 4.26633000000000E+0002
  0
LINE
  8
0
 10
 3.11054100000000E+0002
 20
 4.26633000000000E+0002
 11
 3.74000000000000E+0002
 21
 4.26650000000000E+0002
  0
ARC
  8
0
 10
 3.74000000000000E+0002
 20
 4.13900000000000E+0002
 40
 1.27500000000000E+0001
 50
 2.35150000000000E+0001
 51
 9.00000000000000E+0001
  0
LINE
  8
0
 10
 3.85691184546387E+0002
 20
 4.18987111548051E+0002
 11
 4.05823244000485E+0002
 21
 3.72589138000698E+0002
  0
ARC
  8
0
 10
 4.48000000000000E+0002
 20
 3.90950000000000E+0002
 40
 4.60000000000000E+0001
 50
 2.03525000000000E+0002
 51
 2.16855000000000E+0002
  0
LINE
  8
0
 10
 4.11192824886052E+0002
 20
 3.63359569410190E+0002
 11
 4.14288381198185E+0002
 21
 3.59282158006041E+0002
  0
ARC
  8
0
 10
 4.02050000000000E+0002
 20
 3.50100000000000E+0002
 40
 1.53000000000000E+0001
 50
 0.00000000000000E+0000
 51
 3.68800000000000E+0001
  0
LINE
  8
0
 10
 4.17350000000000E+0002
 20
 3.50100000000000E+0002
 11
 4.17350000000000E+0002
 21
 3.16950000000000E+0002
  0
ARC
  8
0
 10
 4.04600000000000E+0002
 20
 3.16950000000000E+0002
 40
 1.27500000000000E+0001
 50
 2.69995000000000E+0002
 51
 3.60000000000000E+0002
  0
LINE
  8
0
 10
 4.04598887352603E+0002
 20
 3.04200000048548E+0002
 11
 3.10511100000000E+0002
 21
 3.04182700000000E+0002
  0
LINE
  8
0
 10
 3.10511100000000E+0002
 20
 3.04182700000000E+0002
 11
 3.10200000000000E+0002
 21
 3.04182700000000E+0002
  0
LINE
  8
0
 10
 3.10200000000000E+0002
 20
 3.04182700000000E+0002
 11
 3.10200000000000E+0002
 21
 3.70510500000000E+0002
  0
LINE
  8
0
 10
 3.10200000000000E+0002
 20
 3.70510500000000E+0002
 11
 3.10805100000000E+0002
 21
 3.70510500000000E+0002
  0
LINE
  8
0
 10
 3.10805100000000E+0002
 20
 3.70510500000000E+0002
 11
 3.93109400000000E+0002
 21
 3.70510500000000E+0002
  0
LINE
  8
0
 10
 3.93109400000000E+0002
 20
 3.70510500000000E+0002
 11
 3.75577183828401E+0002
 21
 4.10833212097974E+0002
  0
ARC
  8
0
 10
 3.70900000000000E+0002
 20
 4.08800000000000E+0002
 40
 5.10000000000000E+0000
 50
 2.34950000000000E+0001
 51
 8.99950000000000E+0001
  0
LINE
  8
0
 10
 3.70900445058959E+0002
 20
 4.13899999980581E+0002
 11
 3.10996900000000E+0002
 21
 4.13878700000000E+0002
  0
LINE
  8
0
 10
 3.10996900000000E+0002
 20
 4.13878700000000E+0002
 11
 3.10200000000000E+0002
 21
 4.13878700000000E+0002
  0
LINE
  8
0
 10
 3.10200000000000E+0002
 20
 4.13878700000000E+0002
 11
 3.10200000000000E+0002
 21
 4.26633000000000E+0002
  0
CIRCLE
  8
0
 10
 3.89300000000000E+0002
 20
 3.42450000000000E+0002
 40
 1.53000000000000E+0001
  0
LINE
  8
0
 10
 3.73975400000000E+0002
 20
 2.99080600000000E+0002
 11
 4.04589200000000E+0002
 21
 2.99080600000000E+0002
  0
LINE
  8
0
 10
 4.04589200000000E+0002
 20
 2.99080600000000E+0002
 11
 4.04600000000000E+0002
 21
 2.71000000000000E+0002
  0
ARC
  8
0
 10
 3.96950000000000E+0002
 20
 2.71000000000000E+0002
 40
 7.65000000000000E+0000
 50
 2.70000000000000E+0002
 51
 3.60000000000000E+0002
  0
LINE
  8
0
 10
 3.96950000000000E+0002
 20
 2.63350000000000E+0002
 11
 3.81650000000000E+0002
 21
 2.63350000000000E+0002
  0
ARC
  8
0
 10
 3.81650000000000E+0002
 20
 2.71000000000000E+0002
 40
 7.65000000000000E+0000
 50
 1.79995000000000E+0002
 51
 2.70000000000000E+0002
  0
LINE
  8
0
 10
 3.74000000029129E+0002
 20
 2.71000667588438E+0002
 11
 3.73975400000000E+0002
 21
 2.99080600000000E+0002
  0
LINE
  8
0
 10
 2.22000000000000E+0002
 20
 5.60000000000000E+0001
 11
 2.22000000000000E+0002
 21
 1.06250000000000E+0002
  0
LINE
  8
0
 10
 2.22000000000000E+0002
 20
 1.06250000000000E+0002
 11
 2.16000000000000E+0002
 21
 1.06250000000000E+0002
  0
LINE
  8
0
 10
 2.16000000000000E+0002
 20
 1.06250000000000E+0002
 11
 2.16000000000000E+0002
 21
 1.16000000000000E+0002
  0
LINE
  8
0
 10
 2.16000000000000E+0002
 20
 1.16000000000000E+0002
 11
 2.22000000000000E+0002
 21
 1.16000000000000E+0002
  0
LINE
  8
0
 10
 2.22000000000000E+0002
 20
 1.16000000000000E+0002
 11
 2.22000000000000E+0002
 21
 1.25000000000000E+0002
  0
ARC
  8
0
 10
 2.37000000000000E+0002
 20
 1.25000000000000E+0002
 40
 1.50000000000000E+0001
 50
 9.00000000000000E+0001
 51
 1.80000000000000E+0002
  0
LINE
  8
0
 10
 2.37000000000000E+0002
 20
 1.40000000000000E+0002
 11
 2.46000000000000E+0002
 21
 1.40000000000000E+0002
  0
LINE
  8
0
 10
 2.46000000000000E+0002
 20
 1.40000000000000E+0002
 11
 2.46000000000000E+0002
 21
 1.28750000000000E+0002
  0
LINE
  8
0
 10
 2.46000000000000E+0002
 20
 1.28750000000000E+0002
 11
 2.37750000000000E+0002
 21
 1.28750000000000E+0002
  0
ARC
  8
0
 10
 2.37750000000000E+0002
 20
 1.25000000000000E+0002
 40
 3.75000000000000E+0000
 50
 9.00000000000000E+0001
 51
 1.80000000000000E+0002
  0
LINE
  8
0
 10
 2.34000000000000E+0002
 20
 1.25000000000000E+0002
 11
 2.34000000000000E+0002
 21
 1.16000000000000E+0002
  0
LINE
  8
0
 10
 2.34000000000000E+0002
 20
 1.16000000000000E+0002
 11
 2.46000000000000E+0002
 21
 1.16000000000000E+0002
  0
LINE
  8
0
 10
 2.46000000000000E+0002
 20
 1.16000000000000E+0002
 11
 2.46000000000000E+0002
 21
 1.06250000000000E+0002
  0
LINE
  8
0
 10
 2.46000000000000E+0002
 20
 1.06250000000000E+0002
 11
 2.34000000000000E+0002
 21
 1.06250000000000E+0002
  0
LINE
  8
0
 10
 2.34000000000000E+0002
 20
 1.06250000000000E+0002
 11
 2.34000000000000E+0002
 21
 5.60000000000000E+0001
  0
LINE
  8
0
 10
 2.34000000000000E+0002
 20
 5.60000000000000E+0001
 11
 2.22000000000000E+0002
 21
 5.60000000000000E+0001
  0
LINE
  8
0
 10
 2.59500000000000E+0002
 20
 5.60000000000000E+0001
 11
 2.59500000000000E+0002
 21
 1.16000000000000E+0002
  0
LINE
  8
0
 10
 2.59500000000000E+0002
 20
 1.16000000000000E+0002
 11
 2.71500000000000E+0002
 21
 1.16000000000000E+0002
  0
LINE
  8
0
 10
 2.71500000000000E+0002
 20
 1.16000000000000E+0002
 11
 2.71499999718103E+0002
 21
 1.09227921712528E+0002
  0
ARC
  8
0
 10
 2.87250000000000E+0002
 20
 9.65000000000000E+0001
 40
 2.02500000000000E+0001
 50
 5.09772000000000E+0001
 51
 1.41057560000000E+0002
  0
LINE
  8
0
 10
 2.99999999295645E+0002
 20
 1.12232133293392E+0002
 11
 2.91476585525679E+0002
 21
 1.01715159415845E+0002
  0
ARC
  8
0
 10
 2.83500000000000E+0002
 20
 9.27500000000000E+0001
 40
 1.20000000000000E+0001
 50
 4.83395000000000E+0001
 51
 1.80000000000000E+0002
  0
LINE
  8
0
 10
 2.71500000000000E+0002
 20
 9.27500000000000E+0001
 11
 2.71500000000000E+0002
 21
 5.60000000000000E+0001
  0
LINE
  8
0
 10
 2.71500000000000E+0002
 20
 5.60000000000000E+0001
 11
 2.59500000000000E+0002
 21
 5.60000000000000E+0001
  0
LINE
  8
0
 10
 3.55500000000011E+0002
 20
 8.15000000000000E+0001
 11
 3.18000000000011E+0002
 21
 8.15000000000000E+0001
  0
LINE
  8
0
 10
 3.18000000000011E+0002
 20
 8.15000000000000E+0001
 11
 3.18000000000011E+0002
 21
 8.00000000000000E+0001
  0
ARC
  8
0
 10
 3.30750000000011E+0002
 20
 8.00000000000000E+0001
 40
 1.27500000000000E+0001
 50
 1.80000000000000E+0002
 51
 2.48198600000000E+0002
  0
LINE
  8
0
 10
 3.26014770836504E+0002
 20
 6.81619214072100E+0001
 11
 3.26014761654662E+0002
 21
 6.81618966520399E+0001
  0
ARC
  8
0
 10
 3.32250000000011E+0002
 20
 8.37500000000000E+0001
 40
 1.67889000000000E+0001
 50
 2.48198600000000E+0002
 51
 3.19360800000000E+0002
  0
LINE
  8
0
 10
 3.44989851985943E+0002
 20
 7.28154979726305E+0001
 11
 3.54095762666880E+0002
 21
 6.49999755543401E+0001
  0
ARC
  8
0
 10
 3.32250000000011E+0002
 20
 8.37500000000000E+0001
 40
 2.87889000000000E+0001
 50
 2.48198600000000E+0002
 51
 3.19360800000000E+0002
  0
LINE
  8
0
 10
 3.21558075383126E+0002
 20
 5.70201756235316E+0001
 11
 3.21558084564968E+0002
 21
 5.70202003787018E+0001
  0
ARC
  8
0
 10
 3.30750000000011E+0002
 20
 8.00000000000000E+0001
 40
 2.47500000000000E+0001
 50
 1.80000000000000E+0002
 51
 2.48198600000000E+0002
  0
LINE
  8
0
 10
 3.06000000000011E+0002
 20
 8.00000000000000E+0001
 11
 3.06000000000011E+0002
 21
 9.20000000000000E+0001
  0
ARC
  8
0
 10
 3.30750000000011E+0002
 20
 9.20000000000000E+0001
 40
 2.47500000000000E+0001
 50
 0.00000000000000E+0000
 51
 1.80000000000000E+0002
  0
LINE
  8
0
 10
 3.55500000000011E+0002
 20
 9.20000000000000E+0001
 11
 3.55500000000011E+0002
 21
 8.15000000000000E+0001
  0
ARC
  8
0
 10
 3.30750000000011E+0002
 20
 9.20000000000000E+0001
 40
 1.27500000000000E+0001
 50
 0.00000000000000E+0000
 51
 1.80000000000000E+0002
  0
LINE
  8
0
 10
 3.43500000000011E+0002
 20
 9.20000000000000E+0001
 11
 3.18000000000011E+0002
 21
 9.20000000000000E+0001
  0
LINE
  8
0
 10
 3.72000000000000E+0002
 20
 5.60000000000000E+0001
 11
 3.72000000000000E+0002
 21
 1.16000000000000E+0002
  0
LINE
  8
0
 10
 3.72000000000000E+0002
 20
 1.16000000000000E+0002
 11
 3.84000000000000E+0002
 21
 1.16000000000000E+0002
  0
LINE
  8
0
 10
 3.84000000000000E+0002
 20
 1.16000000000000E+0002
 11
 3.84000000000000E+0002
 21
 5.60000000000000E+0001
  0
LINE
  8
0
 10
 3.84000000000000E+0002
 20
 5.60000000000000E+0001
 11
 3.72000000000000E+0002
 21
 5.60000000000000E+0001
  0
LINE
  8
0
 10
 3.72000000000000E+0002
 20
 1.28000000000000E+0002
 11
 3.72000000000000E+0002
 21
 1.40000000000000E+0002
  0
LINE
  8
0
 10
 3.72000000000000E+0002
 20
 1.40000000000000E+0002
 11
 3.84000000000000E+0002
 21
 1.40000000000000E+0002
  0
LINE
  8
0
 10
 3.84000000000000E+0002
 20
 1.40000000000000E+0002
 11
 3.84000000000000E+0002
 21
 1.28000000000000E+0002
  0
LINE
  8
0
 10
 3.84000000000000E+0002
 20
 1.28000000000000E+0002
 11
 3.72000000000000E+0002
 21
 1.28000000000000E+0002
  0
ENDSEC
  0
EOF
