  0
SECTION
  2
HEADER
  9
$ACADVER
  1
AC1003
  9
$INSBASE
 10
0.0
 20
0.0
  9
$EXTMIN
 10
 0.00000000000000E+0000
 20
 0.00000000000000E+0000
  9
$EXTMAX
 10
 6.00000000000000E+0002
 20
 4.50000000000000E+0002
  9
$LIMMIN
 10
0.0
 20
0.0
  9
$LIMMAX
 10
410.0
 20
287.0
  9
$VIEWCTR
 10
227.0059616
 20
165.058879 
  9
$VIEWSIZE
 40
 6.00000000000000E+0002
9
$SNAPMODE
70
0
9
$SNAPUNIT
10
1
20
1
9
$GRIDMODE
70
0
9
$GRIDUNIT
10
1
20
1
9
$ORTHOMODE
70
0
9
$rEGENMODE
70
1
9
$FILLMODE
70
1
9
$DRAGMODE
70
2
9
$LTSCALE
40
25.0
9
$OSMODE
70
0
9
$ATTMODE
70
1
9
$TRACEWID
40
1.0
9
$TEXTSTYLE
7
STANDARD
9
$CLAYER
8
0
9
$CELTYPE
6
VONLAYER
9
$CECOLOR
62
256
9
$LUNITS
70
2
9
$LUPREC
70
2
9
$AXISMODE
70
0
9
$AXISUNIT
10
0
20
0
9
$SKETCHINC
40
1.0
9
$FILLETRAD
40
0.0
9
$AUNITS
70
0
9
$AUPREC
70
0
9
$MENU
1
ACAD
9
$ELEVATION
40
0.0
9
$THICKNESS
40
0.0
9
$VIEWDIR
10
0.0
20
0.0
30
1.0
9
$LIMCHECK
70
0
9
$BLIPMODE
70
1
9
$CHAMFERA
40
0.0
9
$CHAMFERB
40
0.0
9
$USRTIMER
70
1
9
$ANGBASE
50
0.0
9
$ANGDIR
70
0
9
$PDMODE
70
0
9
$PDSIZE
40
0.0
9
$PLINEWID
40
0.0
9
$COORDS
70
0
0
ENDSEC
0
SECTION
2
TABLES
0
TABLE
2
LTYPE
70
1
0
LTYPE
2
AUSGEZOGEN
70
64
3
Ausgezogene Linie
72
65
73
0
40
0.0
0
ENDTAB
0
TABLE
2
LAYER
70
1
0
LAYER
2
0
70
0
62
7
6
AUSGEZOGEN
0
ENDTAB
0
TABLE
2
STYLE
70
1
0
STYLE
2
STANDARD
70
0
40
0.0
41
1.0
50
0.0
71
0
42
3.5
3
txt
4

0
ENDTAB
0
TABLE
2
VIEW
70
0
0
ENDTAB
0
ENDSEC
0
SECTION
2
BLOCKS
0
ENDSEC
0
SECTION
2
ENTITIES
  0
ARC
  8
0
 10
 4.00000000000000E+0001
 20
 4.00000000000000E+0001
 40
 4.00000000000000E+0001
 50
 1.80000000000000E+0002
 51
 2.70000000000000E+0002
  0
LINE
  8
0
 10
 0.00000000000000E+0000
 20
 4.00000000000000E+0001
 11
 0.00000000000000E+0000
 21
 4.10000000000000E+0002
  0
ARC
  8
0
 10
 4.00000000000000E+0001
 20
 4.10000000000000E+0002
 40
 4.00000000000000E+0001
 50
 9.00000000000000E+0001
 51
 1.80000000000000E+0002
  0
LINE
  8
0
 10
 4.00000000000000E+0001
 20
 4.50000000000000E+0002
 11
 5.60000000000000E+0002
 21
 4.50000000000000E+0002
  0
ARC
  8
0
 10
 5.60000000000000E+0002
 20
 4.10000000000000E+0002
 40
 4.00000000000000E+0001
 50
 0.00000000000000E+0000
 51
 9.00000000000000E+0001
  0
LINE
  8
0
 10
 6.00000000000000E+0002
 20
 4.10000000000000E+0002
 11
 6.00000000000000E+0002
 21
 4.00000000000000E+0001
  0
ARC
  8
0
 10
 5.60000000000000E+0002
 20
 4.00000000000000E+0001
 40
 4.00000000000000E+0001
 50
 2.70000000000000E+0002
 51
 3.60000000000000E+0002
  0
LINE
  8
0
 10
 5.60000000000000E+0002
 20
 0.00000000000000E+0000
 11
 4.00000000000000E+0001
 21
 0.00000000000000E+0000
  0
ARC
  8
0
 10
 4.00000000000000E+0001
 20
 4.00000000000000E+0001
 40
 3.00000000000000E+0001
 50
 1.80000000000000E+0002
 51
 2.70000000000000E+0002
  0
LINE
  8
0
 10
 1.00000000000000E+0001
 20
 4.00000000000000E+0001
 11
 1.00000000000000E+0001
 21
 4.10000000000000E+0002
  0
ARC
  8
0
 10
 4.00000000000000E+0001
 20
 4.10000000000000E+0002
 40
 3.00000000000000E+0001
 50
 9.00000000000000E+0001
 51
 1.80000000000000E+0002
  0
LINE
  8
0
 10
 4.00000000000000E+0001
 20
 4.40000000000000E+0002
 11
 5.60000000000000E+0002
 21
 4.40000000000000E+0002
  0
ARC
  8
0
 10
 5.60000000000000E+0002
 20
 4.10000000000000E+0002
 40
 3.00000000000000E+0001
 50
 0.00000000000000E+0000
 51
 9.00000000000000E+0001
  0
LINE
  8
0
 10
 5.90000000000000E+0002
 20
 4.10000000000000E+0002
 11
 5.90000000000000E+0002
 21
 4.00000000000000E+0001
  0
ARC
  8
0
 10
 5.60000000000000E+0002
 20
 4.00000000000000E+0001
 40
 3.00000000000000E+0001
 50
 2.70000000000000E+0002
 51
 3.60000000000000E+0002
  0
LINE
  8
0
 10
 5.60000000000000E+0002
 20
 1.00000000000000E+0001
 11
 4.00000000000000E+0001
 21
 1.00000000000000E+0001
  0
ARC
  8
0
 10
 4.00000000000000E+0001
 20
 4.00000000000000E+0001
 40
 1.50000000000000E+0001
 50
 1.80000000000000E+0002
 51
 2.70000000000000E+0002
  0
LINE
  8
0
 10
 2.50000000000000E+0001
 20
 4.00000000000000E+0001
 11
 2.50000000000000E+0001
 21
 4.10000000000000E+0002
  0
ARC
  8
0
 10
 4.00000000000000E+0001
 20
 4.10000000000000E+0002
 40
 1.50000000000000E+0001
 50
 9.00000000000000E+0001
 51
 1.80000000000000E+0002
  0
LINE
  8
0
 10
 4.00000000000000E+0001
 20
 4.25000000000000E+0002
 11
 5.60000000000000E+0002
 21
 4.25000000000000E+0002
  0
ARC
  8
0
 10
 5.60000000000000E+0002
 20
 4.10000000000000E+0002
 40
 1.50000000000000E+0001
 50
 0.00000000000000E+0000
 51
 9.00000000000000E+0001
  0
LINE
  8
0
 10
 5.75000000000000E+0002
 20
 4.10000000000000E+0002
 11
 5.75000000000000E+0002
 21
 4.00000000000000E+0001
  0
ARC
  8
0
 10
 5.60000000000000E+0002
 20
 4.00000000000000E+0001
 40
 1.50000000000000E+0001
 50
 2.70000000000000E+0002
 51
 3.60000000000000E+0002
  0
LINE
  8
0
 10
 5.60000000000000E+0002
 20
 2.50000000000000E+0001
 11
 4.00000000000000E+0001
 21
 2.50000000000000E+0001
  0
CIRCLE
  8
0
 10
 1.30450000000000E+0002
 20
 1.05600000000000E+0002
 40
 5.00000000000000E+0001
  0
CIRCLE
  8
0
 10
 1.30450000000000E+0002
 20
 1.05600000000000E+0002
 40
 3.00000000000000E+0001
  0
CIRCLE
  8
0
 10
 4.69550000000000E+0002
 20
 1.05600000000000E+0002
 40
 5.00000000000000E+0001
  0
CIRCLE
  8
0
 10
 4.69550000000000E+0002
 20
 1.05600000000000E+0002
 40
 3.00000000000000E+0001
  0
LINE
  8
0
 10
 1.77804800000000E+0002
 20
 3.75932800000000E+0002
 11
 1.53697800000000E+0002
 21
 2.04621500000000E+0002
  0
LINE
  8
0
 10
 1.53697800000000E+0002
 20
 2.04621500000000E+0002
 11
 2.18422800000000E+0002
 21
 1.21761000000000E+0002
  0
LINE
  8
0
 10
 2.18422800000000E+0002
 20
 1.21761000000000E+0002
 11
 3.01830308763070E+0002
 21
 1.21762960444380E+0002
  0
ARC
  8
0
 10
 3.69400000000000E+0002
 20
 8.33000000000000E+0001
 40
 7.77500000000000E+0001
 50
 9.00000000000000E+0001
 51
 1.50350000000000E+0002
  0
LINE
  8
0
 10
 3.69400000000000E+0002
 20
 1.61050000000000E+0002
 11
 3.69400000000000E+0002
 21
 1.61050000000000E+0002
  0
ARC
  8
0
 10
 3.69400000000000E+0002
 20
 1.81050000000000E+0002
 40
 2.00000000000000E+0001
 50
 2.70000000000000E+0002
 51
 3.26000000000000E+0002
  0
LINE
  8
0
 10
 3.85980751451101E+0002
 20
 1.69866141930585E+0002
 11
 4.08321369596468E+0002
 21
 2.01345967399657E+0002
  0
ARC
  8
0
 10
 4.23850000000000E+0002
 20
 2.13950000000000E+0002
 40
 2.00000000000000E+0001
 50
 1.44660000000000E+0002
 51
 2.19065000000000E+0002
  0
LINE
  8
0
 10
 4.07535320590019E+0002
 20
 2.25518545100814E+0002
 11
 4.21475800000000E+0002
 21
 2.45200700000000E+0002
  0
LINE
  8
0
 10
 4.21475800000000E+0002
 20
 2.45200700000000E+0002
 11
 4.27034800000000E+0002
 21
 2.41261700000000E+0002
  0
LINE
  8
0
 10
 4.27034800000000E+0002
 20
 2.41261700000000E+0002
 11
 4.38476504500303E+0002
 21
 2.57516652667138E+0002
  0
ARC
  8
0
 10
 4.41250000000000E+0002
 20
 2.55550000000000E+0002
 40
 3.40000000000000E+0000
 50
 3.24645000000000E+0002
 51
 5.04660000000000E+0002
  0
LINE
  8
0
 10
 4.44022980536192E+0002
 20
 2.53582621300842E+0002
 11
 4.32494800000000E+0002
 21
 2.37391700000000E+0002
  0
LINE
  8
0
 10
 4.32494800000000E+0002
 20
 2.37391700000000E+0002
 11
 4.43189800000000E+0002
 21
 2.29812300000000E+0002
  0
LINE
  8
0
 10
 4.43189800000000E+0002
 20
 2.29812300000000E+0002
 11
 4.54676504500303E+0002
 21
 2.46166652667138E+0002
  0
ARC
  8
0
 10
 4.57450000000000E+0002
 20
 2.44200000000000E+0002
 40
 3.40000000000000E+0000
 50
 3.24645000000000E+0002
 51
 5.04660000000000E+0002
  0
LINE
  8
0
 10
 4.60222980536192E+0002
 20
 2.42232621300842E+0002
 11
 4.48645800000000E+0002
 21
 2.25941700000000E+0002
  0
LINE
  8
0
 10
 4.48645800000000E+0002
 20
 2.25941700000000E+0002
 11
 4.54204800000000E+0002
 21
 2.22002500000000E+0002
  0
LINE
  8
0
 10
 4.54204800000000E+0002
 20
 2.22002500000000E+0002
 11
 4.40165688893866E+0002
 21
 2.02382878667595E+0002
  0
ARC
  8
0
 10
 4.23850000000000E+0002
 20
 2.13950000000000E+0002
 40
 2.00000000000000E+0001
 50
 2.50270000000000E+0002
 51
 3.24665000000000E+0002
  0
LINE
  8
0
 10
 4.17098236699664E+0002
 20
 1.95124121737984E+0002
 11
 3.94892905356068E+0002
 21
 1.63854818218275E+0002
  0
ARC
  8
0
 10
 3.69400000000000E+0002
 20
 1.81050000000000E+0002
 40
 3.07500000000000E+0001
 50
 2.70000000000000E+0002
 51
 3.26000000000000E+0002
  0
LINE
  8
0
 10
 3.69400000000000E+0002
 20
 1.50300000000000E+0002
 11
 3.69400000000000E+0002
 21
 1.50300000000000E+0002
  0
ARC
  8
0
 10
 3.69400000000000E+0002
 20
 8.33000000000000E+0001
 40
 6.70000000000000E+0001
 50
 9.00000000000000E+0001
 51
 1.44920000000000E+0002
  0
LINE
  8
0
 10
 3.14570524387662E+0002
 20
 1.21806215135689E+0002
 11
 3.99221800000000E+0002
 21
 1.21761000000000E+0002
  0
LINE
  8
0
 10
 3.99221800000000E+0002
 20
 1.21761000000000E+0002
 11
 3.94175800000000E+0002
 21
 1.14840200000000E+0002
  0
LINE
  8
0
 10
 3.94175800000000E+0002
 20
 1.14840200000000E+0002
 11
 4.69550000000000E+0002
 21
 1.14850000000000E+0002
  0
ARC
  8
0
 10
 4.69550000000000E+0002
 20
 1.05600000000000E+0002
 40
 9.25000000000000E+0000
 50
 2.70000000000000E+0002
 51
 4.50000000000000E+0002
  0
LINE
  8
0
 10
 4.69550000000000E+0002
 20
 9.63500000000000E+0001
 11
 3.81252800000000E+0002
 21
 9.63828000000000E+0001
  0
LINE
  8
0
 10
 3.81252800000000E+0002
 20
 9.63828000000000E+0001
 11
 3.74791800000000E+0002
 21
 8.71439000000000E+0001
  0
LINE
  8
0
 10
 3.74791800000000E+0002
 20
 8.71439000000000E+0001
 11
 2.16849800000000E+0002
 21
 8.71439000000000E+0001
  0
LINE
  8
0
 10
 2.16849800000000E+0002
 20
 8.71439000000000E+0001
 11
 2.02209800000000E+0002
 21
 1.01983600000000E+0002
  0
LINE
  8
0
 10
 2.02209800000000E+0002
 20
 1.01983600000000E+0002
 11
 2.02209800000000E+0002
 21
 1.12546500000000E+0002
  0
LINE
  8
0
 10
 2.02209800000000E+0002
 20
 1.12546500000000E+0002
 11
 1.50126800000000E+0002
 21
 1.79210800000000E+0002
  0
LINE
  8
0
 10
 1.50126800000000E+0002
 20
 1.79210800000000E+0002
 11
 1.39609979635860E+0002
 21
 1.04312648816119E+0002
  0
ARC
  8
0
 10
 1.30450000000000E+0002
 20
 1.05600000000000E+0002
 40
 9.25000000000000E+0000
 50
 1.71970000000000E+0002
 51
 3.52000000000000E+0002
  0
LINE
  8
0
 10
 1.21290695675243E+0002
 20
 1.06892147161316E+0002
 11
 1.59166800000000E+0002
 21
 3.75932800000000E+0002
  0
LINE
  8
0
 10
 1.59166800000000E+0002
 20
 3.75932800000000E+0002
 11
 1.19400000000000E+0002
 21
 3.75900000000000E+0002
  0
ARC
  8
0
 10
 1.19400000000000E+0002
 20
 3.85150000000000E+0002
 40
 9.25000000000000E+0000
 50
 9.00000000000000E+0001
 51
 2.70000000000000E+0002
  0
LINE
  8
0
 10
 1.19400000000000E+0002
 20
 3.94400000000000E+0002
 11
 2.24000000000000E+0002
 21
 3.94400000000000E+0002
  0
ARC
  8
0
 10
 2.24000000000000E+0002
 20
 3.85150000000000E+0002
 40
 9.25000000000000E+0000
 50
 2.70000000000000E+0002
 51
 4.50000000000000E+0002
  0
LINE
  8
0
 10
 2.24000000000000E+0002
 20
 3.75900000000000E+0002
 11
 1.77804800000000E+0002
 21
 3.75932800000000E+0002
  0
ENDSEC
  0
EOF
