  0
SECTION
  2
HEADER
  9
$ACADVER
  1
AC1003
  9
$INSBASE
 10
0.0
 20
0.0
  9
$EXTMIN
 10
 0.00000000000000E+0000
 20
 0.00000000000000E+0000
  9
$EXTMAX
 10
 6.00000000000000E+0002
 20
 3.30000000000000E+0002
  9
$LIMMIN
 10
0.0
 20
0.0
  9
$LIMMAX
 10
410.0
 20
287.0
  9
$VIEWCTR
 10
227.0059616
 20
165.058879 
  9
$VIEWSIZE
 40
 6.00000000000000E+0002
9
$SNAPMODE
70
0
9
$SNAPUNIT
10
1
20
1
9
$GRIDMODE
70
0
9
$GRIDUNIT
10
1
20
1
9
$ORTHOMODE
70
0
9
$rEGENMODE
70
1
9
$FILLMODE
70
1
9
$DRAGMODE
70
2
9
$LTSCALE
40
25.0
9
$OSMODE
70
0
9
$ATTMODE
70
1
9
$TRACEWID
40
1.0
9
$TEXTSTYLE
7
STANDARD
9
$CLAYER
8
0
9
$CELTYPE
6
VONLAYER
9
$CECOLOR
62
256
9
$LUNITS
70
2
9
$LUPREC
70
2
9
$AXISMODE
70
0
9
$AXISUNIT
10
0
20
0
9
$SKETCHINC
40
1.0
9
$FILLETRAD
40
0.0
9
$AUNITS
70
0
9
$AUPREC
70
0
9
$MENU
1
ACAD
9
$ELEVATION
40
0.0
9
$THICKNESS
40
0.0
9
$VIEWDIR
10
0.0
20
0.0
30
1.0
9
$LIMCHECK
70
0
9
$BLIPMODE
70
1
9
$CHAMFERA
40
0.0
9
$CHAMFERB
40
0.0
9
$USRTIMER
70
1
9
$ANGBASE
50
0.0
9
$ANGDIR
70
0
9
$PDMODE
70
0
9
$PDSIZE
40
0.0
9
$PLINEWID
40
0.0
9
$COORDS
70
0
0
ENDSEC
0
SECTION
2
TABLES
0
TABLE
2
LTYPE
70
1
0
LTYPE
2
AUSGEZOGEN
70
64
3
Ausgezogene Linie
72
65
73
0
40
0.0
0
ENDTAB
0
TABLE
2
LAYER
70
1
0
LAYER
2
0
70
0
62
7
6
AUSGEZOGEN
0
ENDTAB
0
TABLE
2
STYLE
70
1
0
STYLE
2
STANDARD
70
0
40
0.0
41
1.0
50
0.0
71
0
42
3.5
3
txt
4

0
ENDTAB
0
TABLE
2
VIEW
70
0
0
ENDTAB
0
ENDSEC
0
SECTION
2
BLOCKS
0
ENDSEC
0
SECTION
2
ENTITIES
  0
ARC
  8
0
 10
 4.00000000000000E+0001
 20
 4.00000000000000E+0001
 40
 4.00000000000000E+0001
 50
 1.80000000000000E+0002
 51
 2.70000000000000E+0002
  0
LINE
  8
0
 10
 0.00000000000000E+0000
 20
 4.00000000000000E+0001
 11
 0.00000000000000E+0000
 21
 2.90000000000000E+0002
  0
ARC
  8
0
 10
 4.00000000000000E+0001
 20
 2.90000000000000E+0002
 40
 4.00000000000000E+0001
 50
 9.00000000000000E+0001
 51
 1.80000000000000E+0002
  0
LINE
  8
0
 10
 4.00000000000000E+0001
 20
 3.30000000000000E+0002
 11
 5.60000000000000E+0002
 21
 3.30000000000000E+0002
  0
ARC
  8
0
 10
 5.60000000000000E+0002
 20
 2.90000000000000E+0002
 40
 4.00000000000000E+0001
 50
 0.00000000000000E+0000
 51
 9.00000000000000E+0001
  0
LINE
  8
0
 10
 6.00000000000000E+0002
 20
 2.90000000000000E+0002
 11
 6.00000000000000E+0002
 21
 4.00000000000000E+0001
  0
ARC
  8
0
 10
 5.60000000000000E+0002
 20
 4.00000000000000E+0001
 40
 4.00000000000000E+0001
 50
 2.70000000000000E+0002
 51
 3.60000000000000E+0002
  0
LINE
  8
0
 10
 5.60000000000000E+0002
 20
 0.00000000000000E+0000
 11
 4.00000000000000E+0001
 21
 0.00000000000000E+0000
  0
ARC
  8
0
 10
 4.00000000000000E+0001
 20
 4.00000000000000E+0001
 40
 3.00000000000000E+0001
 50
 1.80000000000000E+0002
 51
 2.70000000000000E+0002
  0
LINE
  8
0
 10
 1.00000000000000E+0001
 20
 4.00000000000000E+0001
 11
 1.00000000000000E+0001
 21
 2.90000000000000E+0002
  0
ARC
  8
0
 10
 4.00000000000000E+0001
 20
 2.90000000000000E+0002
 40
 3.00000000000000E+0001
 50
 9.00000000000000E+0001
 51
 1.80000000000000E+0002
  0
LINE
  8
0
 10
 4.00000000000000E+0001
 20
 3.20000000000000E+0002
 11
 5.60000000000000E+0002
 21
 3.20000000000000E+0002
  0
ARC
  8
0
 10
 5.60000000000000E+0002
 20
 2.90000000000000E+0002
 40
 3.00000000000000E+0001
 50
 0.00000000000000E+0000
 51
 9.00000000000000E+0001
  0
LINE
  8
0
 10
 5.90000000000000E+0002
 20
 2.90000000000000E+0002
 11
 5.90000000000000E+0002
 21
 4.00000000000000E+0001
  0
ARC
  8
0
 10
 5.60000000000000E+0002
 20
 4.00000000000000E+0001
 40
 3.00000000000000E+0001
 50
 2.70000000000000E+0002
 51
 3.60000000000000E+0002
  0
LINE
  8
0
 10
 5.60000000000000E+0002
 20
 1.00000000000000E+0001
 11
 4.00000000000000E+0001
 21
 1.00000000000000E+0001
  0
ARC
  8
0
 10
 4.00000000000000E+0001
 20
 4.00000000000000E+0001
 40
 1.50000000000000E+0001
 50
 1.80000000000000E+0002
 51
 2.70000000000000E+0002
  0
LINE
  8
0
 10
 2.50000000000000E+0001
 20
 4.00000000000000E+0001
 11
 2.50000000000000E+0001
 21
 2.90000000000000E+0002
  0
ARC
  8
0
 10
 4.00000000000000E+0001
 20
 2.90000000000000E+0002
 40
 1.50000000000000E+0001
 50
 9.00000000000000E+0001
 51
 1.80000000000000E+0002
  0
LINE
  8
0
 10
 4.00000000000000E+0001
 20
 3.05000000000000E+0002
 11
 5.60000000000000E+0002
 21
 3.05000000000000E+0002
  0
ARC
  8
0
 10
 5.60000000000000E+0002
 20
 2.90000000000000E+0002
 40
 1.50000000000000E+0001
 50
 5.00000000000000E-0003
 51
 9.00000000000000E+0001
  0
LINE
  8
0
 10
 5.74999999942884E+0002
 20
 2.90001308996937E+0002
 11
 5.75000000000000E+0002
 21
 4.00000000000000E+0001
  0
ARC
  8
0
 10
 5.60000000000000E+0002
 20
 4.00000000000000E+0001
 40
 1.50000000000000E+0001
 50
 2.69995000000000E+0002
 51
 3.60000000000000E+0002
  0
LINE
  8
0
 10
 5.59998691003063E+0002
 20
 2.50000000571158E+0001
 11
 4.00000000000000E+0001
 21
 2.50000000000000E+0001
  0
LINE
  8
0
 10
 1.69508100000000E+0002
 20
 1.14998800000000E+0002
 11
 1.31684400000000E+0002
 21
 1.56413000000000E+0002
  0
LINE
  8
0
 10
 1.31684400000000E+0002
 20
 1.56413000000000E+0002
 11
 1.28427169088119E+0002
 21
 1.45797381625875E+0002
  0
ARC
  8
0
 10
 1.10000000000000E+0002
 20
 1.07500000000000E+0002
 40
 4.25000000000000E+0001
 50
 8.13250000000000E+0001
 51
 4.24305000000000E+0002
  0
LINE
  8
0
 10
 1.16410253496611E+0002
 20
 1.49513791189432E+0002
 11
 1.22724400000000E+0002
 21
 1.69737800000000E+0002
  0
LINE
  8
0
 10
 1.22724400000000E+0002
 20
 1.69737800000000E+0002
 11
 1.22772300000000E+0002
 21
 1.69892500000000E+0002
  0
LINE
  8
0
 10
 1.22772300000000E+0002
 20
 1.69892500000000E+0002
 11
 1.23676400000000E+0002
 21
 1.72813200000000E+0002
  0
LINE
  8
0
 10
 1.23676400000000E+0002
 20
 1.72813200000000E+0002
 11
 1.26191300000000E+0002
 21
 1.80937100000000E+0002
  0
LINE
  8
0
 10
 1.26191300000000E+0002
 20
 1.80937100000000E+0002
 11
 1.74993200000000E+0002
 21
 1.27498800000000E+0002
  0
LINE
  8
0
 10
 1.74993200000000E+0002
 20
 1.27498800000000E+0002
 11
 2.63440800000000E+0002
 21
 1.27498800000000E+0002
  0
LINE
  8
0
 10
 2.63440800000000E+0002
 20
 1.27498800000000E+0002
 11
 2.63802702140000E+0002
 21
 1.28667792442200E+0002
  0
LINE
  8
0
 10
 2.63802702140000E+0002
 20
 1.28667792442200E+0002
 11
 2.64165190480000E+0002
 21
 1.29838650057600E+0002
  0
LINE
  8
0
 10
 2.64165190480000E+0002
 20
 1.29838650057600E+0002
 11
 2.64528252900000E+0002
 21
 1.31011334279400E+0002
  0
LINE
  8
0
 10
 2.64528252900000E+0002
 20
 1.31011334279400E+0002
 11
 2.64891877280000E+0002
 21
 1.32185806540800E+0002
  0
LINE
  8
0
 10
 2.64891877280000E+0002
 20
 1.32185806540800E+0002
 11
 2.65256051500000E+0002
 21
 1.33362028275000E+0002
  0
LINE
  8
0
 10
 2.65256051500000E+0002
 20
 1.33362028275000E+0002
 11
 2.65620763440000E+0002
 21
 1.34539960915200E+0002
  0
LINE
  8
0
 10
 2.65620763440000E+0002
 20
 1.34539960915200E+0002
 11
 2.65986000980000E+0002
 21
 1.35719565894600E+0002
  0
LINE
  8
0
 10
 2.65986000980000E+0002
 20
 1.35719565894600E+0002
 11
 2.66351752000000E+0002
 21
 1.36900804646400E+0002
  0
LINE
  8
0
 10
 2.66351752000000E+0002
 20
 1.36900804646400E+0002
 11
 2.66718004380000E+0002
 21
 1.38083638603800E+0002
  0
LINE
  8
0
 10
 2.66718004380000E+0002
 20
 1.38083638603800E+0002
 11
 2.67084746000000E+0002
 21
 1.39268029200000E+0002
  0
LINE
  8
0
 10
 2.67084746000000E+0002
 20
 1.39268029200000E+0002
 11
 2.67451964740000E+0002
 21
 1.40453937868200E+0002
  0
LINE
  8
0
 10
 2.67451964740000E+0002
 20
 1.40453937868200E+0002
 11
 2.67819648480000E+0002
 21
 1.41641326041600E+0002
  0
LINE
  8
0
 10
 2.67819648480000E+0002
 20
 1.41641326041600E+0002
 11
 2.68187785100000E+0002
 21
 1.42830155153400E+0002
  0
LINE
  8
0
 10
 2.68187785100000E+0002
 20
 1.42830155153400E+0002
 11
 2.68556362480000E+0002
 21
 1.44020386636800E+0002
  0
LINE
  8
0
 10
 2.68556362480000E+0002
 20
 1.44020386636800E+0002
 11
 2.68925368500000E+0002
 21
 1.45211981925000E+0002
  0
LINE
  8
0
 10
 2.68925368500000E+0002
 20
 1.45211981925000E+0002
 11
 2.69294791040000E+0002
 21
 1.46404902451200E+0002
  0
LINE
  8
0
 10
 2.69294791040000E+0002
 20
 1.46404902451200E+0002
 11
 2.69664617980000E+0002
 21
 1.47599109648600E+0002
  0
LINE
  8
0
 10
 2.69664617980000E+0002
 20
 1.47599109648600E+0002
 11
 2.70034837200000E+0002
 21
 1.48794564950400E+0002
  0
LINE
  8
0
 10
 2.70034837200000E+0002
 20
 1.48794564950400E+0002
 11
 2.70405436580000E+0002
 21
 1.49991229789800E+0002
  0
LINE
  8
0
 10
 2.70405436580000E+0002
 20
 1.49991229789800E+0002
 11
 2.70776404000000E+0002
 21
 1.51189065600000E+0002
  0
LINE
  8
0
 10
 2.70776404000000E+0002
 20
 1.51189065600000E+0002
 11
 2.71147727340000E+0002
 21
 1.52388033814200E+0002
  0
LINE
  8
0
 10
 2.71147727340000E+0002
 20
 1.52388033814200E+0002
 11
 2.71519394480000E+0002
 21
 1.53588095865600E+0002
  0
LINE
  8
0
 10
 2.71519394480000E+0002
 20
 1.53588095865600E+0002
 11
 2.71891393300000E+0002
 21
 1.54789213187400E+0002
  0
LINE
  8
0
 10
 2.71891393300000E+0002
 20
 1.54789213187400E+0002
 11
 2.72263711680000E+0002
 21
 1.55991347212800E+0002
  0
LINE
  8
0
 10
 2.72263711680000E+0002
 20
 1.55991347212800E+0002
 11
 2.72636337500000E+0002
 21
 1.57194459375000E+0002
  0
LINE
  8
0
 10
 2.72636337500000E+0002
 20
 1.57194459375000E+0002
 11
 2.73009258640000E+0002
 21
 1.58398511107200E+0002
  0
LINE
  8
0
 10
 2.73009258640000E+0002
 20
 1.58398511107200E+0002
 11
 2.73382462980000E+0002
 21
 1.59603463842600E+0002
  0
LINE
  8
0
 10
 2.73382462980000E+0002
 20
 1.59603463842600E+0002
 11
 2.73755938400000E+0002
 21
 1.60809279014400E+0002
  0
LINE
  8
0
 10
 2.73755938400000E+0002
 20
 1.60809279014400E+0002
 11
 2.74129672780000E+0002
 21
 1.62015918055800E+0002
  0
LINE
  8
0
 10
 2.74129672780000E+0002
 20
 1.62015918055800E+0002
 11
 2.74503654000000E+0002
 21
 1.63223342400000E+0002
  0
LINE
  8
0
 10
 2.74503654000000E+0002
 20
 1.63223342400000E+0002
 11
 2.74877869940000E+0002
 21
 1.64431513480200E+0002
  0
LINE
  8
0
 10
 2.74877869940000E+0002
 20
 1.64431513480200E+0002
 11
 2.75252308480000E+0002
 21
 1.65640392729600E+0002
  0
LINE
  8
0
 10
 2.75252308480000E+0002
 20
 1.65640392729600E+0002
 11
 2.75626957500000E+0002
 21
 1.66849941581400E+0002
  0
LINE
  8
0
 10
 2.75626957500000E+0002
 20
 1.66849941581400E+0002
 11
 2.76001804880000E+0002
 21
 1.68060121468800E+0002
  0
LINE
  8
0
 10
 2.76001804880000E+0002
 20
 1.68060121468800E+0002
 11
 2.76376838500000E+0002
 21
 1.69270893825000E+0002
  0
LINE
  8
0
 10
 2.76376838500000E+0002
 20
 1.69270893825000E+0002
 11
 2.76752046240000E+0002
 21
 1.70482220083200E+0002
  0
LINE
  8
0
 10
 2.76752046240000E+0002
 20
 1.70482220083200E+0002
 11
 2.77127415980000E+0002
 21
 1.71694061676600E+0002
  0
LINE
  8
0
 10
 2.77127415980000E+0002
 20
 1.71694061676600E+0002
 11
 2.77502935600000E+0002
 21
 1.72906380038400E+0002
  0
LINE
  8
0
 10
 2.77502935600000E+0002
 20
 1.72906380038400E+0002
 11
 2.77878592980000E+0002
 21
 1.74119136601800E+0002
  0
LINE
  8
0
 10
 2.77878592980000E+0002
 20
 1.74119136601800E+0002
 11
 2.78254376000000E+0002
 21
 1.75332292800000E+0002
  0
LINE
  8
0
 10
 2.78254376000000E+0002
 20
 1.75332292800000E+0002
 11
 2.78630272540000E+0002
 21
 1.76545810066200E+0002
  0
LINE
  8
0
 10
 2.78630272540000E+0002
 20
 1.76545810066200E+0002
 11
 2.79006270480000E+0002
 21
 1.77759649833600E+0002
  0
LINE
  8
0
 10
 2.79006270480000E+0002
 20
 1.77759649833600E+0002
 11
 2.79382357700000E+0002
 21
 1.78973773535400E+0002
  0
LINE
  8
0
 10
 2.79382357700000E+0002
 20
 1.78973773535400E+0002
 11
 2.79758522080000E+0002
 21
 1.80188142604800E+0002
  0
LINE
  8
0
 10
 2.79758522080000E+0002
 20
 1.80188142604800E+0002
 11
 2.80134751500000E+0002
 21
 1.81402718475000E+0002
  0
LINE
  8
0
 10
 2.80134751500000E+0002
 20
 1.81402718475000E+0002
 11
 2.80511033840000E+0002
 21
 1.82617462579200E+0002
  0
LINE
  8
0
 10
 2.80511033840000E+0002
 20
 1.82617462579200E+0002
 11
 2.80887356980000E+0002
 21
 1.83832336350600E+0002
  0
LINE
  8
0
 10
 2.80887356980000E+0002
 20
 1.83832336350600E+0002
 11
 2.81263708800000E+0002
 21
 1.85047301222400E+0002
  0
LINE
  8
0
 10
 2.81263708800000E+0002
 20
 1.85047301222400E+0002
 11
 2.81640077180000E+0002
 21
 1.86262318627800E+0002
  0
LINE
  8
0
 10
 2.81640077180000E+0002
 20
 1.86262318627800E+0002
 11
 2.82016450000000E+0002
 21
 1.87477350000000E+0002
  0
LINE
  8
0
 10
 2.82016450000000E+0002
 20
 1.87477350000000E+0002
 11
 2.82392815140000E+0002
 21
 1.88692356772200E+0002
  0
LINE
  8
0
 10
 2.82392815140000E+0002
 20
 1.88692356772200E+0002
 11
 2.82769160480000E+0002
 21
 1.89907300377600E+0002
  0
LINE
  8
0
 10
 2.82769160480000E+0002
 20
 1.89907300377600E+0002
 11
 2.83145473900000E+0002
 21
 1.91122142249400E+0002
  0
LINE
  8
0
 10
 2.83145473900000E+0002
 20
 1.91122142249400E+0002
 11
 2.83521743280000E+0002
 21
 1.92336843820800E+0002
  0
LINE
  8
0
 10
 2.83521743280000E+0002
 20
 1.92336843820800E+0002
 11
 2.83897956500000E+0002
 21
 1.93551366525000E+0002
  0
LINE
  8
0
 10
 2.83897956500000E+0002
 20
 1.93551366525000E+0002
 11
 2.84274101440000E+0002
 21
 1.94765671795200E+0002
  0
LINE
  8
0
 10
 2.84274101440000E+0002
 20
 1.94765671795200E+0002
 11
 2.84650165980000E+0002
 21
 1.95979721064600E+0002
  0
LINE
  8
0
 10
 2.84650165980000E+0002
 20
 1.95979721064600E+0002
 11
 2.85026138000000E+0002
 21
 1.97193475766400E+0002
  0
LINE
  8
0
 10
 2.85026138000000E+0002
 20
 1.97193475766400E+0002
 11
 2.85402005380000E+0002
 21
 1.98406897333800E+0002
  0
LINE
  8
0
 10
 2.85402005380000E+0002
 20
 1.98406897333800E+0002
 11
 2.85777756000000E+0002
 21
 1.99619947200000E+0002
  0
LINE
  8
0
 10
 2.85777756000000E+0002
 20
 1.99619947200000E+0002
 11
 2.86153377740000E+0002
 21
 2.00832586798200E+0002
  0
LINE
  8
0
 10
 2.86153377740000E+0002
 20
 2.00832586798200E+0002
 11
 2.86528858480000E+0002
 21
 2.02044777561600E+0002
  0
LINE
  8
0
 10
 2.86528858480000E+0002
 20
 2.02044777561600E+0002
 11
 2.86904186100000E+0002
 21
 2.03256480923400E+0002
  0
LINE
  8
0
 10
 2.86904186100000E+0002
 20
 2.03256480923400E+0002
 11
 2.87279348480000E+0002
 21
 2.04467658316800E+0002
  0
LINE
  8
0
 10
 2.87279348480000E+0002
 20
 2.04467658316800E+0002
 11
 2.87654333500000E+0002
 21
 2.05678271175000E+0002
  0
LINE
  8
0
 10
 2.87654333500000E+0002
 20
 2.05678271175000E+0002
 11
 2.88029129040000E+0002
 21
 2.06888280931200E+0002
  0
LINE
  8
0
 10
 2.88029129040000E+0002
 20
 2.06888280931200E+0002
 11
 2.88403722980000E+0002
 21
 2.08097649018600E+0002
  0
LINE
  8
0
 10
 2.88403722980000E+0002
 20
 2.08097649018600E+0002
 11
 2.88778103200000E+0002
 21
 2.09306336870400E+0002
  0
LINE
  8
0
 10
 2.88778103200000E+0002
 20
 2.09306336870400E+0002
 11
 2.89152257580000E+0002
 21
 2.10514305919800E+0002
  0
LINE
  8
0
 10
 2.89152257580000E+0002
 20
 2.10514305919800E+0002
 11
 2.89526174000000E+0002
 21
 2.11721517600000E+0002
  0
LINE
  8
0
 10
 2.89526174000000E+0002
 20
 2.11721517600000E+0002
 11
 2.89899840340000E+0002
 21
 2.12927933344200E+0002
  0
LINE
  8
0
 10
 2.89899840340000E+0002
 20
 2.12927933344200E+0002
 11
 2.90273244480000E+0002
 21
 2.14133514585600E+0002
  0
LINE
  8
0
 10
 2.90273244480000E+0002
 20
 2.14133514585600E+0002
 11
 2.90646374300000E+0002
 21
 2.15338222757400E+0002
  0
LINE
  8
0
 10
 2.90646374300000E+0002
 20
 2.15338222757400E+0002
 11
 2.91019217680000E+0002
 21
 2.16542019292800E+0002
  0
LINE
  8
0
 10
 2.91019217680000E+0002
 20
 2.16542019292800E+0002
 11
 2.91391762500000E+0002
 21
 2.17744865625000E+0002
  0
LINE
  8
0
 10
 2.91391762500000E+0002
 20
 2.17744865625000E+0002
 11
 2.91763996640000E+0002
 21
 2.18946723187200E+0002
  0
LINE
  8
0
 10
 2.91763996640000E+0002
 20
 2.18946723187200E+0002
 11
 2.92135907980000E+0002
 21
 2.20147553412600E+0002
  0
LINE
  8
0
 10
 2.92135907980000E+0002
 20
 2.20147553412600E+0002
 11
 2.92507484400000E+0002
 21
 2.21347317734400E+0002
  0
LINE
  8
0
 10
 2.92507484400000E+0002
 20
 2.21347317734400E+0002
 11
 2.92878713780000E+0002
 21
 2.22545977585800E+0002
  0
LINE
  8
0
 10
 2.92878713780000E+0002
 20
 2.22545977585800E+0002
 11
 2.93249584000000E+0002
 21
 2.23743494400000E+0002
  0
LINE
  8
0
 10
 2.93249584000000E+0002
 20
 2.23743494400000E+0002
 11
 2.93620082940000E+0002
 21
 2.24939829610200E+0002
  0
LINE
  8
0
 10
 2.93620082940000E+0002
 20
 2.24939829610200E+0002
 11
 2.93990198480000E+0002
 21
 2.26134944649600E+0002
  0
LINE
  8
0
 10
 2.93990198480000E+0002
 20
 2.26134944649600E+0002
 11
 2.94359918500000E+0002
 21
 2.27328800951400E+0002
  0
LINE
  8
0
 10
 2.94359918500000E+0002
 20
 2.27328800951400E+0002
 11
 2.94729230880000E+0002
 21
 2.28521359948800E+0002
  0
LINE
  8
0
 10
 2.94729230880000E+0002
 20
 2.28521359948800E+0002
 11
 2.95098123500000E+0002
 21
 2.29712583075000E+0002
  0
LINE
  8
0
 10
 2.95098123500000E+0002
 20
 2.29712583075000E+0002
 11
 2.95466584240000E+0002
 21
 2.30902431763200E+0002
  0
LINE
  8
0
 10
 2.95466584240000E+0002
 20
 2.30902431763200E+0002
 11
 2.95834600980000E+0002
 21
 2.32090867446600E+0002
  0
LINE
  8
0
 10
 2.95834600980000E+0002
 20
 2.32090867446600E+0002
 11
 2.96202161600000E+0002
 21
 2.33277851558400E+0002
  0
LINE
  8
0
 10
 2.96202161600000E+0002
 20
 2.33277851558400E+0002
 11
 2.96569253980000E+0002
 21
 2.34463345531800E+0002
  0
LINE
  8
0
 10
 2.96569253980000E+0002
 20
 2.34463345531800E+0002
 11
 2.96935866000000E+0002
 21
 2.35647310800000E+0002
  0
LINE
  8
0
 10
 2.96935866000000E+0002
 20
 2.35647310800000E+0002
 11
 2.97301985540000E+0002
 21
 2.36829708796200E+0002
  0
LINE
  8
0
 10
 2.97301985540000E+0002
 20
 2.36829708796200E+0002
 11
 2.97667600480000E+0002
 21
 2.38010500953600E+0002
  0
LINE
  8
0
 10
 2.97667600480000E+0002
 20
 2.38010500953600E+0002
 11
 2.98032698700000E+0002
 21
 2.39189648705400E+0002
  0
LINE
  8
0
 10
 2.98032698700000E+0002
 20
 2.39189648705400E+0002
 11
 2.98397268080000E+0002
 21
 2.40367113484800E+0002
  0
LINE
  8
0
 10
 2.98397268080000E+0002
 20
 2.40367113484800E+0002
 11
 2.98761296500000E+0002
 21
 2.41542856725000E+0002
  0
LINE
  8
0
 10
 2.98761296500000E+0002
 20
 2.41542856725000E+0002
 11
 2.99124771840000E+0002
 21
 2.42716839859200E+0002
  0
LINE
  8
0
 10
 2.99124771840000E+0002
 20
 2.42716839859200E+0002
 11
 2.99487681980000E+0002
 21
 2.43889024320600E+0002
  0
LINE
  8
0
 10
 2.99487681980000E+0002
 20
 2.43889024320600E+0002
 11
 2.99850014800000E+0002
 21
 2.45059371542400E+0002
  0
LINE
  8
0
 10
 2.99850014800000E+0002
 20
 2.45059371542400E+0002
 11
 3.00211758180000E+0002
 21
 2.46227842957800E+0002
  0
LINE
  8
0
 10
 3.00211758180000E+0002
 20
 2.46227842957800E+0002
 11
 3.00572900000000E+0002
 21
 2.47394400000000E+0002
  0
LINE
  8
0
 10
 3.00572900000000E+0002
 20
 2.47394400000000E+0002
 11
 3.00568040946941E+0002
 21
 2.47392701251101E+0002
  0
ARC
  8
0
 10
 3.24450000000000E+0002
 20
 2.40000000000000E+0002
 40
 2.50000000000000E+0001
 50
 9.00000000000000E+0001
 51
 1.62800000000000E+0002
  0
LINE
  8
0
 10
 3.24450000000000E+0002
 20
 2.65000000000000E+0002
 11
 3.44999600000000E+0002
 21
 2.65000900000000E+0002
  0
LINE
  8
0
 10
 3.44999600000000E+0002
 20
 2.65000900000000E+0002
 11
 3.44999600000000E+0002
 21
 2.52501300000000E+0002
  0
LINE
  8
0
 10
 3.44999600000000E+0002
 20
 2.52501300000000E+0002
 11
 3.24450000000000E+0002
 21
 2.52500000000000E+0002
  0
ARC
  8
0
 10
 3.24450000000000E+0002
 20
 2.40000000000000E+0002
 40
 1.25000000000000E+0001
 50
 9.00000000000000E+0001
 51
 1.62795000000000E+0002
  0
LINE
  8
0
 10
 3.12509343086382E+0002
 20
 2.43697392658518E+0002
 11
 3.07499600000000E+0002
 21
 2.27501300000000E+0002
  0
LINE
  8
0
 10
 3.07499600000000E+0002
 20
 2.27501300000000E+0002
 11
 3.03571000000000E+0002
 21
 2.14810800000000E+0002
  0
LINE
  8
0
 10
 3.03571000000000E+0002
 20
 2.14810800000000E+0002
 11
 3.03633800000000E+0002
 21
 2.14999800000000E+0002
  0
LINE
  8
0
 10
 3.03633800000000E+0002
 20
 2.14999800000000E+0002
 11
 3.46350400000000E+0002
 21
 1.67609100000000E+0002
  0
LINE
  8
0
 10
 3.46350400000000E+0002
 20
 1.67609100000000E+0002
 11
 3.96493100000000E+0002
 21
 1.67609100000000E+0002
  0
LINE
  8
0
 10
 3.96493100000000E+0002
 20
 1.67609100000000E+0002
 11
 3.96762226722500E+0002
 21
 1.68336292958500E+0002
  0
LINE
  8
0
 10
 3.96762226722500E+0002
 20
 1.68336292958500E+0002
 11
 3.97031560460000E+0002
 21
 1.69063335548000E+0002
  0
LINE
  8
0
 10
 3.97031560460000E+0002
 20
 1.69063335548000E+0002
 11
 3.97301097567500E+0002
 21
 1.69790230339500E+0002
  0
LINE
  8
0
 10
 3.97301097567500E+0002
 20
 1.69790230339500E+0002
 11
 3.97570834400000E+0002
 21
 1.70516979904000E+0002
  0
LINE
  8
0
 10
 3.97570834400000E+0002
 20
 1.70516979904000E+0002
 11
 3.97840767312500E+0002
 21
 1.71243586812500E+0002
  0
LINE
  8
0
 10
 3.97840767312500E+0002
 20
 1.71243586812500E+0002
 11
 3.98110892660000E+0002
 21
 1.71970053636000E+0002
  0
LINE
  8
0
 10
 3.98110892660000E+0002
 20
 1.71970053636000E+0002
 11
 3.98381206797500E+0002
 21
 1.72696382945500E+0002
  0
LINE
  8
0
 10
 3.98381206797500E+0002
 20
 1.72696382945500E+0002
 11
 3.98651706080000E+0002
 21
 1.73422577312000E+0002
  0
LINE
  8
0
 10
 3.98651706080000E+0002
 20
 1.73422577312000E+0002
 11
 3.98922386862500E+0002
 21
 1.74148639306500E+0002
  0
LINE
  8
0
 10
 3.98922386862500E+0002
 20
 1.74148639306500E+0002
 11
 3.99193245500000E+0002
 21
 1.74874571500000E+0002
  0
LINE
  8
0
 10
 3.99193245500000E+0002
 20
 1.74874571500000E+0002
 11
 3.99464278347500E+0002
 21
 1.75600376463500E+0002
  0
LINE
  8
0
 10
 3.99464278347500E+0002
 20
 1.75600376463500E+0002
 11
 3.99735481760000E+0002
 21
 1.76326056768000E+0002
  0
LINE
  8
0
 10
 3.99735481760000E+0002
 20
 1.76326056768000E+0002
 11
 4.00006852092500E+0002
 21
 1.77051614984500E+0002
  0
LINE
  8
0
 10
 4.00006852092500E+0002
 20
 1.77051614984500E+0002
 11
 4.00278385700000E+0002
 21
 1.77777053684000E+0002
  0
LINE
  8
0
 10
 4.00278385700000E+0002
 20
 1.77777053684000E+0002
 11
 4.00550078937500E+0002
 21
 1.78502375437500E+0002
  0
LINE
  8
0
 10
 4.00550078937500E+0002
 20
 1.78502375437500E+0002
 11
 4.00821928160000E+0002
 21
 1.79227582816000E+0002
  0
LINE
  8
0
 10
 4.00821928160000E+0002
 20
 1.79227582816000E+0002
 11
 4.01093929722500E+0002
 21
 1.79952678390500E+0002
  0
LINE
  8
0
 10
 4.01093929722500E+0002
 20
 1.79952678390500E+0002
 11
 4.01366079980000E+0002
 21
 1.80677664732000E+0002
  0
LINE
  8
0
 10
 4.01366079980000E+0002
 20
 1.80677664732000E+0002
 11
 4.01638375287500E+0002
 21
 1.81402544411500E+0002
  0
LINE
  8
0
 10
 4.01638375287500E+0002
 20
 1.81402544411500E+0002
 11
 4.01910812000000E+0002
 21
 1.82127320000000E+0002
  0
LINE
  8
0
 10
 4.01910812000000E+0002
 20
 1.82127320000000E+0002
 11
 4.02183386472500E+0002
 21
 1.82851994068500E+0002
  0
LINE
  8
0
 10
 4.02183386472500E+0002
 20
 1.82851994068500E+0002
 11
 4.02456095060000E+0002
 21
 1.83576569188000E+0002
  0
LINE
  8
0
 10
 4.02456095060000E+0002
 20
 1.83576569188000E+0002
 11
 4.02728934117500E+0002
 21
 1.84301047929500E+0002
  0
LINE
  8
0
 10
 4.02728934117500E+0002
 20
 1.84301047929500E+0002
 11
 4.03001900000000E+0002
 21
 1.85025432864000E+0002
  0
LINE
  8
0
 10
 4.03001900000000E+0002
 20
 1.85025432864000E+0002
 11
 4.03274989062500E+0002
 21
 1.85749726562500E+0002
  0
LINE
  8
0
 10
 4.03274989062500E+0002
 20
 1.85749726562500E+0002
 11
 4.03548197660000E+0002
 21
 1.86473931596000E+0002
  0
LINE
  8
0
 10
 4.03548197660000E+0002
 20
 1.86473931596000E+0002
 11
 4.03821522147500E+0002
 21
 1.87198050535500E+0002
  0
LINE
  8
0
 10
 4.03821522147500E+0002
 20
 1.87198050535500E+0002
 11
 4.04094958880000E+0002
 21
 1.87922085952000E+0002
  0
LINE
  8
0
 10
 4.04094958880000E+0002
 20
 1.87922085952000E+0002
 11
 4.04368504212500E+0002
 21
 1.88646040416500E+0002
  0
LINE
  8
0
 10
 4.04368504212500E+0002
 20
 1.88646040416500E+0002
 11
 4.04642154500000E+0002
 21
 1.89369916500000E+0002
  0
LINE
  8
0
 10
 4.04642154500000E+0002
 20
 1.89369916500000E+0002
 11
 4.04915906097500E+0002
 21
 1.90093716773500E+0002
  0
LINE
  8
0
 10
 4.04915906097500E+0002
 20
 1.90093716773500E+0002
 11
 4.05189755360000E+0002
 21
 1.90817443808000E+0002
  0
LINE
  8
0
 10
 4.05189755360000E+0002
 20
 1.90817443808000E+0002
 11
 4.05463698642500E+0002
 21
 1.91541100174500E+0002
  0
LINE
  8
0
 10
 4.05463698642500E+0002
 20
 1.91541100174500E+0002
 11
 4.05737732300000E+0002
 21
 1.92264688444000E+0002
  0
LINE
  8
0
 10
 4.05737732300000E+0002
 20
 1.92264688444000E+0002
 11
 4.06011852687500E+0002
 21
 1.92988211187500E+0002
  0
LINE
  8
0
 10
 4.06011852687500E+0002
 20
 1.92988211187500E+0002
 11
 4.06286056160000E+0002
 21
 1.93711670976000E+0002
  0
LINE
  8
0
 10
 4.06286056160000E+0002
 20
 1.93711670976000E+0002
 11
 4.06560339072500E+0002
 21
 1.94435070380500E+0002
  0
LINE
  8
0
 10
 4.06560339072500E+0002
 20
 1.94435070380500E+0002
 11
 4.06834697780000E+0002
 21
 1.95158411972000E+0002
  0
LINE
  8
0
 10
 4.06834697780000E+0002
 20
 1.95158411972000E+0002
 11
 4.07109128637500E+0002
 21
 1.95881698321500E+0002
  0
LINE
  8
0
 10
 4.07109128637500E+0002
 20
 1.95881698321500E+0002
 11
 4.07383628000000E+0002
 21
 1.96604932000000E+0002
  0
LINE
  8
0
 10
 4.07383628000000E+0002
 20
 1.96604932000000E+0002
 11
 4.07658192222500E+0002
 21
 1.97328115578500E+0002
  0
LINE
  8
0
 10
 4.07658192222500E+0002
 20
 1.97328115578500E+0002
 11
 4.07932817660000E+0002
 21
 1.98051251628000E+0002
  0
LINE
  8
0
 10
 4.07932817660000E+0002
 20
 1.98051251628000E+0002
 11
 4.08207500667500E+0002
 21
 1.98774342719500E+0002
  0
LINE
  8
0
 10
 4.08207500667500E+0002
 20
 1.98774342719500E+0002
 11
 4.08482237600000E+0002
 21
 1.99497391424000E+0002
  0
LINE
  8
0
 10
 4.08482237600000E+0002
 20
 1.99497391424000E+0002
 11
 4.08757024812500E+0002
 21
 2.00220400312500E+0002
  0
LINE
  8
0
 10
 4.08757024812500E+0002
 20
 2.00220400312500E+0002
 11
 4.09031858660000E+0002
 21
 2.00943371956000E+0002
  0
LINE
  8
0
 10
 4.09031858660000E+0002
 20
 2.00943371956000E+0002
 11
 4.09306735497500E+0002
 21
 2.01666308925500E+0002
  0
LINE
  8
0
 10
 4.09306735497500E+0002
 20
 2.01666308925500E+0002
 11
 4.09581651680000E+0002
 21
 2.02389213792000E+0002
  0
LINE
  8
0
 10
 4.09581651680000E+0002
 20
 2.02389213792000E+0002
 11
 4.09856603562500E+0002
 21
 2.03112089126500E+0002
  0
LINE
  8
0
 10
 4.09856603562500E+0002
 20
 2.03112089126500E+0002
 11
 4.10131587500000E+0002
 21
 2.03834937500000E+0002
  0
LINE
  8
0
 10
 4.10131587500000E+0002
 20
 2.03834937500000E+0002
 11
 4.10406599847500E+0002
 21
 2.04557761483500E+0002
  0
LINE
  8
0
 10
 4.10406599847500E+0002
 20
 2.04557761483500E+0002
 11
 4.10681636960000E+0002
 21
 2.05280563648000E+0002
  0
LINE
  8
0
 10
 4.10681636960000E+0002
 20
 2.05280563648000E+0002
 11
 4.10956695192500E+0002
 21
 2.06003346564500E+0002
  0
LINE
  8
0
 10
 4.10956695192500E+0002
 20
 2.06003346564500E+0002
 11
 4.11231770900000E+0002
 21
 2.06726112804000E+0002
  0
LINE
  8
0
 10
 4.11231770900000E+0002
 20
 2.06726112804000E+0002
 11
 4.11506860437500E+0002
 21
 2.07448864937500E+0002
  0
LINE
  8
0
 10
 4.11506860437500E+0002
 20
 2.07448864937500E+0002
 11
 4.11781960160000E+0002
 21
 2.08171605536000E+0002
  0
LINE
  8
0
 10
 4.11781960160000E+0002
 20
 2.08171605536000E+0002
 11
 4.12057066422500E+0002
 21
 2.08894337170500E+0002
  0
LINE
  8
0
 10
 4.12057066422500E+0002
 20
 2.08894337170500E+0002
 11
 4.12332175580000E+0002
 21
 2.09617062412000E+0002
  0
LINE
  8
0
 10
 4.12332175580000E+0002
 20
 2.09617062412000E+0002
 11
 4.12607283987500E+0002
 21
 2.10339783831500E+0002
  0
LINE
  8
0
 10
 4.12607283987500E+0002
 20
 2.10339783831500E+0002
 11
 4.12882388000000E+0002
 21
 2.11062504000000E+0002
  0
LINE
  8
0
 10
 4.12882388000000E+0002
 20
 2.11062504000000E+0002
 11
 4.13157483972500E+0002
 21
 2.11785225488500E+0002
  0
LINE
  8
0
 10
 4.13157483972500E+0002
 20
 2.11785225488500E+0002
 11
 4.13432568260000E+0002
 21
 2.12507950868000E+0002
  0
LINE
  8
0
 10
 4.13432568260000E+0002
 20
 2.12507950868000E+0002
 11
 4.13707637217500E+0002
 21
 2.13230682709500E+0002
  0
LINE
  8
0
 10
 4.13707637217500E+0002
 20
 2.13230682709500E+0002
 11
 4.13982687200000E+0002
 21
 2.13953423584000E+0002
  0
LINE
  8
0
 10
 4.13982687200000E+0002
 20
 2.13953423584000E+0002
 11
 4.14257714562500E+0002
 21
 2.14676176062500E+0002
  0
LINE
  8
0
 10
 4.14257714562500E+0002
 20
 2.14676176062500E+0002
 11
 4.14532715660000E+0002
 21
 2.15398942716000E+0002
  0
LINE
  8
0
 10
 4.14532715660000E+0002
 20
 2.15398942716000E+0002
 11
 4.14807686847500E+0002
 21
 2.16121726115500E+0002
  0
LINE
  8
0
 10
 4.14807686847500E+0002
 20
 2.16121726115500E+0002
 11
 4.15082624480000E+0002
 21
 2.16844528832000E+0002
  0
LINE
  8
0
 10
 4.15082624480000E+0002
 20
 2.16844528832000E+0002
 11
 4.15357524912500E+0002
 21
 2.17567353436500E+0002
  0
LINE
  8
0
 10
 4.15357524912500E+0002
 20
 2.17567353436500E+0002
 11
 4.15632384500000E+0002
 21
 2.18290202500000E+0002
  0
LINE
  8
0
 10
 4.15632384500000E+0002
 20
 2.18290202500000E+0002
 11
 4.15907199597500E+0002
 21
 2.19013078593500E+0002
  0
LINE
  8
0
 10
 4.15907199597500E+0002
 20
 2.19013078593500E+0002
 11
 4.16181966560000E+0002
 21
 2.19735984288000E+0002
  0
LINE
  8
0
 10
 4.16181966560000E+0002
 20
 2.19735984288000E+0002
 11
 4.16456681742500E+0002
 21
 2.20458922154500E+0002
  0
LINE
  8
0
 10
 4.16456681742500E+0002
 20
 2.20458922154500E+0002
 11
 4.16731341500000E+0002
 21
 2.21181894764000E+0002
  0
LINE
  8
0
 10
 4.16731341500000E+0002
 20
 2.21181894764000E+0002
 11
 4.17005942187500E+0002
 21
 2.21904904687500E+0002
  0
LINE
  8
0
 10
 4.17005942187500E+0002
 20
 2.21904904687500E+0002
 11
 4.17280480160000E+0002
 21
 2.22627954496000E+0002
  0
LINE
  8
0
 10
 4.17280480160000E+0002
 20
 2.22627954496000E+0002
 11
 4.17554951772500E+0002
 21
 2.23351046760500E+0002
  0
LINE
  8
0
 10
 4.17554951772500E+0002
 20
 2.23351046760500E+0002
 11
 4.17829353380000E+0002
 21
 2.24074184052000E+0002
  0
LINE
  8
0
 10
 4.17829353380000E+0002
 20
 2.24074184052000E+0002
 11
 4.18103681337500E+0002
 21
 2.24797368941500E+0002
  0
LINE
  8
0
 10
 4.18103681337500E+0002
 20
 2.24797368941500E+0002
 11
 4.18377932000000E+0002
 21
 2.25520604000000E+0002
  0
LINE
  8
0
 10
 4.18377932000000E+0002
 20
 2.25520604000000E+0002
 11
 4.18652101722500E+0002
 21
 2.26243891798500E+0002
  0
LINE
  8
0
 10
 4.18652101722500E+0002
 20
 2.26243891798500E+0002
 11
 4.18926186860000E+0002
 21
 2.26967234908000E+0002
  0
LINE
  8
0
 10
 4.18926186860000E+0002
 20
 2.26967234908000E+0002
 11
 4.19200183767500E+0002
 21
 2.27690635899500E+0002
  0
LINE
  8
0
 10
 4.19200183767500E+0002
 20
 2.27690635899500E+0002
 11
 4.19474088800000E+0002
 21
 2.28414097344000E+0002
  0
LINE
  8
0
 10
 4.19474088800000E+0002
 20
 2.28414097344000E+0002
 11
 4.19747898312500E+0002
 21
 2.29137621812500E+0002
  0
LINE
  8
0
 10
 4.19747898312500E+0002
 20
 2.29137621812500E+0002
 11
 4.20021608660000E+0002
 21
 2.29861211876000E+0002
  0
LINE
  8
0
 10
 4.20021608660000E+0002
 20
 2.29861211876000E+0002
 11
 4.20295216197500E+0002
 21
 2.30584870105500E+0002
  0
LINE
  8
0
 10
 4.20295216197500E+0002
 20
 2.30584870105500E+0002
 11
 4.20568717280000E+0002
 21
 2.31308599072000E+0002
  0
LINE
  8
0
 10
 4.20568717280000E+0002
 20
 2.31308599072000E+0002
 11
 4.20842108262500E+0002
 21
 2.32032401346500E+0002
  0
LINE
  8
0
 10
 4.20842108262500E+0002
 20
 2.32032401346500E+0002
 11
 4.21115385500000E+0002
 21
 2.32756279500000E+0002
  0
LINE
  8
0
 10
 4.21115385500000E+0002
 20
 2.32756279500000E+0002
 11
 4.21388545347500E+0002
 21
 2.33480236103500E+0002
  0
LINE
  8
0
 10
 4.21388545347500E+0002
 20
 2.33480236103500E+0002
 11
 4.21661584160000E+0002
 21
 2.34204273728000E+0002
  0
LINE
  8
0
 10
 4.21661584160000E+0002
 20
 2.34204273728000E+0002
 11
 4.21934498292500E+0002
 21
 2.34928394944500E+0002
  0
LINE
  8
0
 10
 4.21934498292500E+0002
 20
 2.34928394944500E+0002
 11
 4.22207284100000E+0002
 21
 2.35652602324000E+0002
  0
LINE
  8
0
 10
 4.22207284100000E+0002
 20
 2.35652602324000E+0002
 11
 4.22479937937500E+0002
 21
 2.36376898437500E+0002
  0
LINE
  8
0
 10
 4.22479937937500E+0002
 20
 2.36376898437500E+0002
 11
 4.22752456160000E+0002
 21
 2.37101285856000E+0002
  0
LINE
  8
0
 10
 4.22752456160000E+0002
 20
 2.37101285856000E+0002
 11
 4.23024835122500E+0002
 21
 2.37825767150500E+0002
  0
LINE
  8
0
 10
 4.23024835122500E+0002
 20
 2.37825767150500E+0002
 11
 4.23297071180000E+0002
 21
 2.38550344892000E+0002
  0
LINE
  8
0
 10
 4.23297071180000E+0002
 20
 2.38550344892000E+0002
 11
 4.23569160687500E+0002
 21
 2.39275021651500E+0002
  0
LINE
  8
0
 10
 4.23569160687500E+0002
 20
 2.39275021651500E+0002
 11
 4.23841100000000E+0002
 21
 2.39999800000000E+0002
  0
LINE
  8
0
 10
 4.23841100000000E+0002
 20
 2.39999800000000E+0002
 11
 3.97427371621627E+0002
 21
 2.46335400818223E+0002
  0
ARC
  8
0
 10
 3.98150000000000E+0002
 20
 2.49350000000000E+0002
 40
 3.10000000000000E+0000
 50
 8.99950000000000E+0001
 51
 2.56520000000000E+0002
  0
LINE
  8
0
 10
 3.98150270526034E+0002
 20
 2.52449999988196E+0002
 11
 4.51251900000000E+0002
 21
 2.52499800000000E+0002
  0
LINE
  8
0
 10
 4.51251900000000E+0002
 20
 2.52499800000000E+0002
 11
 4.51251900000000E+0002
 21
 2.39999800000000E+0002
  0
LINE
  8
0
 10
 4.51251900000000E+0002
 20
 2.39999800000000E+0002
 11
 4.37190200000000E+0002
 21
 2.39999800000000E+0002
  0
LINE
  8
0
 10
 4.37190200000000E+0002
 20
 2.39999800000000E+0002
 11
 4.32501800000000E+0002
 21
 2.27499800000000E+0002
  0
LINE
  8
0
 10
 4.32501800000000E+0002
 20
 2.27499800000000E+0002
 11
 4.50629387463927E+0002
 21
 1.86922465196063E+0002
  0
ARC
  8
0
 10
 4.70000000000000E+0002
 20
 1.27500000000000E+0002
 40
 6.25000000000000E+0001
 50
 1.91540000000000E+0002
 51
 4.68055000000000E+0002
  0
LINE
  8
0
 10
 4.08763419952794E+0002
 20
 1.14996749857652E+0002
 11
 3.90742300000000E+0002
 21
 1.15000400000000E+0002
  0
LINE
  8
0
 10
 3.90742300000000E+0002
 20
 1.15000400000000E+0002
 11
 3.90742300000000E+0002
 21
 1.14998800000000E+0002
  0
LINE
  8
0
 10
 3.90742300000000E+0002
 20
 1.14998800000000E+0002
 11
 1.69508100000000E+0002
 21
 1.14998800000000E+0002
  0
LINE
  8
0
 10
 2.76541700000000E+0002
 20
 1.27498800000000E+0002
 11
 3.65689900000000E+0002
 21
 1.27498800000000E+0002
  0
LINE
  8
0
 10
 3.65689900000000E+0002
 20
 1.27498800000000E+0002
 11
 2.99363200000000E+0002
 21
 2.01218500000000E+0002
  0
LINE
  8
0
 10
 2.99363200000000E+0002
 20
 2.01218500000000E+0002
 11
 2.99327900000000E+0002
 21
 2.01104400000000E+0002
  0
LINE
  8
0
 10
 2.99327900000000E+0002
 20
 2.01104400000000E+0002
 11
 2.76541700000000E+0002
 21
 1.27498800000000E+0002
  0
ARC
  8
0
 10
 1.10000000000000E+0002
 20
 1.07500000000000E+0002
 40
 3.00000000000000E+0001
 50
 8.48800000000000E+0001
 51
 9.00000000000000E+0001
  0
LINE
  8
0
 10
 1.12677259260954E+0002
 20
 1.37380299242973E+0002
 11
 1.04030317223667E+0002
 21
 1.09350780254367E+0002
  0
ARC
  8
0
 10
 1.10000000000000E+0002
 20
 1.07500000000000E+0002
 40
 6.25000000000000E+0000
 50
 1.62775000000000E+0002
 51
 3.42795000000000E+0002
  0
LINE
  8
0
 10
 1.15970328456809E+0002
 20
 1.05651303670741E+0002
 11
 1.24670056795172E+0002
 21
 1.33668481683629E+0002
  0
ARC
  8
0
 10
 1.10000000000000E+0002
 20
 1.07500000000000E+0002
 40
 3.00000000000000E+0001
 50
 9.00000000000000E+0001
 51
 4.20725000000000E+0002
  0
LINE
  8
0
 10
 3.95002900000000E+0002
 20
 1.27500000000000E+0002
 11
 4.26254100000000E+0002
 21
 2.10840000000000E+0002
  0
LINE
  8
0
 10
 4.26254100000000E+0002
 20
 2.10840000000000E+0002
 11
 4.39190303860348E+0002
 21
 1.81878420570869E+0002
  0
ARC
  8
0
 10
 4.70000000000000E+0002
 20
 1.27500000000000E+0002
 40
 6.25000000000000E+0001
 50
 1.19535000000000E+0002
 51
 1.80000000000000E+0002
  0
LINE
  8
0
 10
 4.07500000000000E+0002
 20
 1.27500000000000E+0002
 11
 3.95002900000000E+0002
 21
 1.27500000000000E+0002
  0
LINE
  8
0
 10
 3.57617500000000E+0002
 20
 1.55109100000000E+0002
 11
 3.81902900000000E+0002
 21
 1.28166400000000E+0002
  0
LINE
  8
0
 10
 3.81902900000000E+0002
 20
 1.28166400000000E+0002
 11
 3.91869200000000E+0002
 21
 1.55109100000000E+0002
  0
LINE
  8
0
 10
 3.91869200000000E+0002
 20
 1.55109100000000E+0002
 11
 3.57617500000000E+0002
 21
 1.55109100000000E+0002
  0
ARC
  8
0
 10
 4.70000000000000E+0002
 20
 1.27500000000000E+0002
 40
 5.00000000000000E+0001
 50
 1.20900000000000E+0002
 51
 1.80000000000000E+0002
  0
LINE
  8
0
 10
 4.44322937397092E+0002
 20
 1.70403245286182E+0002
 11
 4.63489800000000E+0002
 21
 1.27500000000000E+0002
  0
LINE
  8
0
 10
 4.63489800000000E+0002
 20
 1.27500000000000E+0002
 11
 4.20002900000000E+0002
 21
 1.27500000000000E+0002
  0
LINE
  8
0
 10
 4.21590700000000E+0002
 20
 1.15000000000000E+0002
 11
 4.73100000000000E+0002
 21
 1.14950000000000E+0002
  0
ARC
  8
0
 10
 4.73100000000000E+0002
 20
 1.21250000000000E+0002
 40
 6.30000000000000E+0000
 50
 2.70000000000000E+0002
 51
 3.83955000000000E+0002
  0
LINE
  8
0
 10
 4.78857347144190E+0002
 20
 1.23807919830896E+0002
 11
 4.55753219271052E+0002
 21
 1.75427332899519E+0002
  0
ARC
  8
0
 10
 4.70000000000000E+0002
 20
 1.27500000000000E+0002
 40
 5.00000000000000E+0001
 50
 1.94480000000000E+0002
 51
 4.66555000000000E+0002
  0
LINE
  8
0
 10
 4.21588250974878E+0002
 20
 1.14997897923605E+0002
 11
 4.21590700000000E+0002
 21
 1.15000000000000E+0002
  0
LINE
  8
0
 10
 2.86834400000000E+0002
 20
 2.20004800000000E+0002
 11
 2.84504389325700E+0002
 21
 2.20062448053700E+0002
  0
LINE
  8
0
 10
 2.84504389325700E+0002
 20
 2.20062448053700E+0002
 11
 2.82179168005600E+0002
 21
 2.20119059749600E+0002
  0
LINE
  8
0
 10
 2.82179168005600E+0002
 20
 2.20119059749600E+0002
 11
 2.79859001093900E+0002
 21
 2.20174475389900E+0002
  0
LINE
  8
0
 10
 2.79859001093900E+0002
 20
 2.20174475389900E+0002
 11
 2.77544153644800E+0002
 21
 2.20228535276800E+0002
  0
LINE
  8
0
 10
 2.77544153644800E+0002
 20
 2.20228535276800E+0002
 11
 2.75234890712500E+0002
 21
 2.20281079712500E+0002
  0
LINE
  8
0
 10
 2.75234890712500E+0002
 20
 2.20281079712500E+0002
 11
 2.72931477351200E+0002
 21
 2.20331948999200E+0002
  0
LINE
  8
0
 10
 2.72931477351200E+0002
 20
 2.20331948999200E+0002
 11
 2.70634178615100E+0002
 21
 2.20380983439100E+0002
  0
LINE
  8
0
 10
 2.70634178615100E+0002
 20
 2.20380983439100E+0002
 11
 2.68343259558400E+0002
 21
 2.20428023334400E+0002
  0
LINE
  8
0
 10
 2.68343259558400E+0002
 20
 2.20428023334400E+0002
 11
 2.66058985235300E+0002
 21
 2.20472908987300E+0002
  0
LINE
  8
0
 10
 2.66058985235300E+0002
 20
 2.20472908987300E+0002
 11
 2.63781620700000E+0002
 21
 2.20515480700000E+0002
  0
LINE
  8
0
 10
 2.63781620700000E+0002
 20
 2.20515480700000E+0002
 11
 2.61511431006700E+0002
 21
 2.20555578774700E+0002
  0
LINE
  8
0
 10
 2.61511431006700E+0002
 20
 2.20555578774700E+0002
 11
 2.59248681209600E+0002
 21
 2.20593043513600E+0002
  0
LINE
  8
0
 10
 2.59248681209600E+0002
 20
 2.20593043513600E+0002
 11
 2.56993636362900E+0002
 21
 2.20627715218900E+0002
  0
LINE
  8
0
 10
 2.56993636362900E+0002
 20
 2.20627715218900E+0002
 11
 2.54746561520800E+0002
 21
 2.20659434192800E+0002
  0
LINE
  8
0
 10
 2.54746561520800E+0002
 20
 2.20659434192800E+0002
 11
 2.52507721737500E+0002
 21
 2.20688040737500E+0002
  0
LINE
  8
0
 10
 2.52507721737500E+0002
 20
 2.20688040737500E+0002
 11
 2.50277382067200E+0002
 21
 2.20713375155200E+0002
  0
LINE
  8
0
 10
 2.50277382067200E+0002
 20
 2.20713375155200E+0002
 11
 2.48055807564100E+0002
 21
 2.20735277748100E+0002
  0
LINE
  8
0
 10
 2.48055807564100E+0002
 20
 2.20735277748100E+0002
 11
 2.45843263282400E+0002
 21
 2.20753588818400E+0002
  0
LINE
  8
0
 10
 2.45843263282400E+0002
 20
 2.20753588818400E+0002
 11
 2.43640014276300E+0002
 21
 2.20768148668300E+0002
  0
LINE
  8
0
 10
 2.43640014276300E+0002
 20
 2.20768148668300E+0002
 11
 2.41446325600000E+0002
 21
 2.20778797600000E+0002
  0
LINE
  8
0
 10
 2.41446325600000E+0002
 20
 2.20778797600000E+0002
 11
 2.39262462307700E+0002
 21
 2.20785375915700E+0002
  0
LINE
  8
0
 10
 2.39262462307700E+0002
 20
 2.20785375915700E+0002
 11
 2.37088689453600E+0002
 21
 2.20787723917600E+0002
  0
LINE
  8
0
 10
 2.37088689453600E+0002
 20
 2.20787723917600E+0002
 11
 2.34925272091900E+0002
 21
 2.20785681907900E+0002
  0
LINE
  8
0
 10
 2.34925272091900E+0002
 20
 2.20785681907900E+0002
 11
 2.32772475276800E+0002
 21
 2.20779090188800E+0002
  0
LINE
  8
0
 10
 2.32772475276800E+0002
 20
 2.20779090188800E+0002
 11
 2.30630564062500E+0002
 21
 2.20767789062500E+0002
  0
LINE
  8
0
 10
 2.30630564062500E+0002
 20
 2.20767789062500E+0002
 11
 2.28499803503200E+0002
 21
 2.20751618831200E+0002
  0
LINE
  8
0
 10
 2.28499803503200E+0002
 20
 2.20751618831200E+0002
 11
 2.26380458653100E+0002
 21
 2.20730419797100E+0002
  0
LINE
  8
0
 10
 2.26380458653100E+0002
 20
 2.20730419797100E+0002
 11
 2.24272794566400E+0002
 21
 2.20704032262400E+0002
  0
LINE
  8
0
 10
 2.24272794566400E+0002
 20
 2.20704032262400E+0002
 11
 2.22177076297300E+0002
 21
 2.20672296529300E+0002
  0
LINE
  8
0
 10
 2.22177076297300E+0002
 20
 2.20672296529300E+0002
 11
 2.20093568900000E+0002
 21
 2.20635052900000E+0002
  0
LINE
  8
0
 10
 2.20093568900000E+0002
 20
 2.20635052900000E+0002
 11
 2.18022537428700E+0002
 21
 2.20592141676700E+0002
  0
LINE
  8
0
 10
 2.18022537428700E+0002
 20
 2.20592141676700E+0002
 11
 2.15964246937600E+0002
 21
 2.20543403161600E+0002
  0
LINE
  8
0
 10
 2.15964246937600E+0002
 20
 2.20543403161600E+0002
 11
 2.13918962480900E+0002
 21
 2.20488677656900E+0002
  0
LINE
  8
0
 10
 2.13918962480900E+0002
 20
 2.20488677656900E+0002
 11
 2.11886949112800E+0002
 21
 2.20427805464800E+0002
  0
LINE
  8
0
 10
 2.11886949112800E+0002
 20
 2.20427805464800E+0002
 11
 2.09868471887500E+0002
 21
 2.20360626887500E+0002
  0
LINE
  8
0
 10
 2.09868471887500E+0002
 20
 2.20360626887500E+0002
 11
 2.07863795859200E+0002
 21
 2.20286982227200E+0002
  0
LINE
  8
0
 10
 2.07863795859200E+0002
 20
 2.20286982227200E+0002
 11
 2.05873186082100E+0002
 21
 2.20206711786100E+0002
  0
LINE
  8
0
 10
 2.05873186082100E+0002
 20
 2.20206711786100E+0002
 11
 2.03896907610400E+0002
 21
 2.20119655866400E+0002
  0
LINE
  8
0
 10
 2.03896907610400E+0002
 20
 2.20119655866400E+0002
 11
 2.01935225498300E+0002
 21
 2.20025654770300E+0002
  0
LINE
  8
0
 10
 2.01935225498300E+0002
 20
 2.20025654770300E+0002
 11
 1.99988404800000E+0002
 21
 2.19924548800000E+0002
  0
LINE
  8
0
 10
 1.99988404800000E+0002
 20
 2.19924548800000E+0002
 11
 1.98056710569700E+0002
 21
 2.19816178257700E+0002
  0
LINE
  8
0
 10
 1.98056710569700E+0002
 20
 2.19816178257700E+0002
 11
 1.96140407861600E+0002
 21
 2.19700383445600E+0002
  0
LINE
  8
0
 10
 1.96140407861600E+0002
 20
 2.19700383445600E+0002
 11
 1.94239761729900E+0002
 21
 2.19577004665900E+0002
  0
LINE
  8
0
 10
 1.94239761729900E+0002
 20
 2.19577004665900E+0002
 11
 1.92355037228800E+0002
 21
 2.19445882220800E+0002
  0
LINE
  8
0
 10
 1.92355037228800E+0002
 20
 2.19445882220800E+0002
 11
 1.90486499412500E+0002
 21
 2.19306856412500E+0002
  0
LINE
  8
0
 10
 1.90486499412500E+0002
 20
 2.19306856412500E+0002
 11
 1.88634413335200E+0002
 21
 2.19159767543200E+0002
  0
LINE
  8
0
 10
 1.88634413335200E+0002
 20
 2.19159767543200E+0002
 11
 1.86799044051100E+0002
 21
 2.19004455915100E+0002
  0
LINE
  8
0
 10
 1.86799044051100E+0002
 20
 2.19004455915100E+0002
 11
 1.84980656614400E+0002
 21
 2.18840761830400E+0002
  0
LINE
  8
0
 10
 1.84980656614400E+0002
 20
 2.18840761830400E+0002
 11
 1.83179516079300E+0002
 21
 2.18668525591300E+0002
  0
LINE
  8
0
 10
 1.83179516079300E+0002
 20
 2.18668525591300E+0002
 11
 1.81395887500000E+0002
 21
 2.18487587500000E+0002
  0
LINE
  8
0
 10
 1.81395887500000E+0002
 20
 2.18487587500000E+0002
 11
 1.79630035930700E+0002
 21
 2.18297787858700E+0002
  0
LINE
  8
0
 10
 1.79630035930700E+0002
 20
 2.18297787858700E+0002
 11
 1.77882226425600E+0002
 21
 2.18098966969600E+0002
  0
LINE
  8
0
 10
 1.77882226425600E+0002
 20
 2.18098966969600E+0002
 11
 1.76152724038900E+0002
 21
 2.17890965134900E+0002
  0
LINE
  8
0
 10
 1.76152724038900E+0002
 20
 2.17890965134900E+0002
 11
 1.74441793824800E+0002
 21
 2.17673622656800E+0002
  0
LINE
  8
0
 10
 1.74441793824800E+0002
 20
 2.17673622656800E+0002
 11
 1.72749700837500E+0002
 21
 2.17446779837500E+0002
  0
LINE
  8
0
 10
 1.72749700837500E+0002
 20
 2.17446779837500E+0002
 11
 1.71076710131200E+0002
 21
 2.17210276979200E+0002
  0
LINE
  8
0
 10
 1.71076710131200E+0002
 20
 2.17210276979200E+0002
 11
 1.69423086760100E+0002
 21
 2.16963954384100E+0002
  0
LINE
  8
0
 10
 1.69423086760100E+0002
 20
 2.16963954384100E+0002
 11
 1.67789095778400E+0002
 21
 2.16707652354400E+0002
  0
LINE
  8
0
 10
 1.67789095778400E+0002
 20
 2.16707652354400E+0002
 11
 1.66175002240300E+0002
 21
 2.16441211192300E+0002
  0
LINE
  8
0
 10
 1.66175002240300E+0002
 20
 2.16441211192300E+0002
 11
 1.64581071200000E+0002
 21
 2.16164471200000E+0002
  0
LINE
  8
0
 10
 1.64581071200000E+0002
 20
 2.16164471200000E+0002
 11
 1.63007567711700E+0002
 21
 2.15877272679700E+0002
  0
LINE
  8
0
 10
 1.63007567711700E+0002
 20
 2.15877272679700E+0002
 11
 1.61454756829600E+0002
 21
 2.15579455933600E+0002
  0
LINE
  8
0
 10
 1.61454756829600E+0002
 20
 2.15579455933600E+0002
 11
 1.59922903607900E+0002
 21
 2.15270861263900E+0002
  0
LINE
  8
0
 10
 1.59922903607900E+0002
 20
 2.15270861263900E+0002
 11
 1.58412273100800E+0002
 21
 2.14951328972800E+0002
  0
LINE
  8
0
 10
 1.58412273100800E+0002
 20
 2.14951328972800E+0002
 11
 1.56923130362500E+0002
 21
 2.14620699362500E+0002
  0
LINE
  8
0
 10
 1.56923130362500E+0002
 20
 2.14620699362500E+0002
 11
 1.55455740447200E+0002
 21
 2.14278812735200E+0002
  0
LINE
  8
0
 10
 1.55455740447200E+0002
 20
 2.14278812735200E+0002
 11
 1.54010368409100E+0002
 21
 2.13925509393100E+0002
  0
LINE
  8
0
 10
 1.54010368409100E+0002
 20
 2.13925509393100E+0002
 11
 1.52587279302400E+0002
 21
 2.13560629638400E+0002
  0
LINE
  8
0
 10
 1.52587279302400E+0002
 20
 2.13560629638400E+0002
 11
 1.51186738181300E+0002
 21
 2.13184013773300E+0002
  0
LINE
  8
0
 10
 1.51186738181300E+0002
 20
 2.13184013773300E+0002
 11
 1.49809010100000E+0002
 21
 2.12795502100000E+0002
  0
LINE
  8
0
 10
 1.49809010100000E+0002
 20
 2.12795502100000E+0002
 11
 1.48454360112700E+0002
 21
 2.12394934920700E+0002
  0
LINE
  8
0
 10
 1.48454360112700E+0002
 20
 2.12394934920700E+0002
 11
 1.47123053273600E+0002
 21
 2.11982152537600E+0002
  0
LINE
  8
0
 10
 1.47123053273600E+0002
 20
 2.11982152537600E+0002
 11
 1.45815354636900E+0002
 21
 2.11556995252900E+0002
  0
LINE
  8
0
 10
 1.45815354636900E+0002
 20
 2.11556995252900E+0002
 11
 1.44531529256800E+0002
 21
 2.11119303368800E+0002
  0
LINE
  8
0
 10
 1.44531529256800E+0002
 20
 2.11119303368800E+0002
 11
 1.43271842187500E+0002
 21
 2.10668917187500E+0002
  0
LINE
  8
0
 10
 1.43271842187500E+0002
 20
 2.10668917187500E+0002
 11
 1.42036558483200E+0002
 21
 2.10205677011200E+0002
  0
LINE
  8
0
 10
 1.42036558483200E+0002
 20
 2.10205677011200E+0002
 11
 1.40825943198100E+0002
 21
 2.09729423142100E+0002
  0
LINE
  8
0
 10
 1.40825943198100E+0002
 20
 2.09729423142100E+0002
 11
 1.39640261386400E+0002
 21
 2.09239995882400E+0002
  0
LINE
  8
0
 10
 1.39640261386400E+0002
 20
 2.09239995882400E+0002
 11
 1.38479778102300E+0002
 21
 2.08737235534300E+0002
  0
LINE
  8
0
 10
 1.38479778102300E+0002
 20
 2.08737235534300E+0002
 11
 1.37344758400000E+0002
 21
 2.08220982400000E+0002
  0
LINE
  8
0
 10
 1.37344758400000E+0002
 20
 2.08220982400000E+0002
 11
 1.36235467333700E+0002
 21
 2.07691076781700E+0002
  0
LINE
  8
0
 10
 1.36235467333700E+0002
 20
 2.07691076781700E+0002
 11
 1.35152169957600E+0002
 21
 2.07147358981600E+0002
  0
LINE
  8
0
 10
 1.35152169957600E+0002
 20
 2.07147358981600E+0002
 11
 1.34095131325900E+0002
 21
 2.06589669301900E+0002
  0
LINE
  8
0
 10
 1.34095131325900E+0002
 20
 2.06589669301900E+0002
 11
 1.33064616492800E+0002
 21
 2.06017848044800E+0002
  0
LINE
  8
0
 10
 1.33064616492800E+0002
 20
 2.06017848044800E+0002
 11
 1.32060890512500E+0002
 21
 2.05431735512500E+0002
  0
LINE
  8
0
 10
 1.32060890512500E+0002
 20
 2.05431735512500E+0002
 11
 1.31084218439200E+0002
 21
 2.04831172007200E+0002
  0
LINE
  8
0
 10
 1.31084218439200E+0002
 20
 2.04831172007200E+0002
 11
 1.30134865327100E+0002
 21
 2.04215997831100E+0002
  0
LINE
  8
0
 10
 1.30134865327100E+0002
 20
 2.04215997831100E+0002
 11
 1.29213096230400E+0002
 21
 2.03586053286400E+0002
  0
LINE
  8
0
 10
 1.29213096230400E+0002
 20
 2.03586053286400E+0002
 11
 1.28319176203300E+0002
 21
 2.02941178675300E+0002
  0
LINE
  8
0
 10
 1.28319176203300E+0002
 20
 2.02941178675300E+0002
 11
 1.27453370300000E+0002
 21
 2.02281214300000E+0002
  0
LINE
  8
0
 10
 1.27453370300000E+0002
 20
 2.02281214300000E+0002
 11
 1.26615943574700E+0002
 21
 2.01606000462700E+0002
  0
LINE
  8
0
 10
 1.26615943574700E+0002
 20
 2.01606000462700E+0002
 11
 1.25807161081600E+0002
 21
 2.00915377465600E+0002
  0
LINE
  8
0
 10
 1.25807161081600E+0002
 20
 2.00915377465600E+0002
 11
 1.25027287874900E+0002
 21
 2.00209185610900E+0002
  0
LINE
  8
0
 10
 1.25027287874900E+0002
 20
 2.00209185610900E+0002
 11
 1.24276589008800E+0002
 21
 1.99487265200800E+0002
  0
LINE
  8
0
 10
 1.24276589008800E+0002
 20
 1.99487265200800E+0002
 11
 1.23555329537500E+0002
 21
 1.98749456537500E+0002
  0
LINE
  8
0
 10
 1.23555329537500E+0002
 20
 1.98749456537500E+0002
 11
 1.22863774515200E+0002
 21
 1.97995599923200E+0002
  0
LINE
  8
0
 10
 1.22863774515200E+0002
 20
 1.97995599923200E+0002
 11
 1.22202188996100E+0002
 21
 1.97225535660100E+0002
  0
LINE
  8
0
 10
 1.22202188996100E+0002
 20
 1.97225535660100E+0002
 11
 1.21570838034400E+0002
 21
 1.96439104050400E+0002
  0
LINE
  8
0
 10
 1.21570838034400E+0002
 20
 1.96439104050400E+0002
 11
 1.20969986684300E+0002
 21
 1.95636145396300E+0002
  0
LINE
  8
0
 10
 1.20969986684300E+0002
 20
 1.95636145396300E+0002
 11
 1.20399900000000E+0002
 21
 1.94816500000000E+0002
  0
LINE
  8
0
 10
 1.20399900000000E+0002
 20
 1.94816500000000E+0002
 11
 1.77293200000000E+0002
 21
 1.32498800000000E+0002
  0
LINE
  8
0
 10
 1.77293200000000E+0002
 20
 1.32498800000000E+0002
 11
 2.59742300000000E+0002
 21
 1.32503800000000E+0002
  0
LINE
  8
0
 10
 2.59742300000000E+0002
 20
 1.32503800000000E+0002
 11
 2.86834400000000E+0002
 21
 2.20004800000000E+0002
  0
ENDSEC
  0
EOF
