  0
SECTION
  2
HEADER
  9
$ACADVER
  1
AC1003
  9
$INSBASE
 10
0.0
 20
0.0
  9
$EXTMIN
 10
 0.00000000000000E+0000
 20
 0.00000000000000E+0000
  9
$EXTMAX
 10
 6.00000000000000E+0002
 20
 6.00000000000000E+0002
  9
$LIMMIN
 10
0.0
 20
0.0
  9
$LIMMAX
 10
410.0
 20
287.0
  9
$VIEWCTR
 10
227.0059616
 20
165.058879 
  9
$VIEWSIZE
 40
 6.00000000000000E+0002
9
$SNAPMODE
70
0
9
$SNAPUNIT
10
1
20
1
9
$GRIDMODE
70
0
9
$GRIDUNIT
10
1
20
1
9
$ORTHOMODE
70
0
9
$rEGENMODE
70
1
9
$FILLMODE
70
1
9
$DRAGMODE
70
2
9
$LTSCALE
40
25.0
9
$OSMODE
70
0
9
$ATTMODE
70
1
9
$TRACEWID
40
1.0
9
$TEXTSTYLE
7
STANDARD
9
$CLAYER
8
0
9
$CELTYPE
6
VONLAYER
9
$CECOLOR
62
256
9
$LUNITS
70
2
9
$LUPREC
70
2
9
$AXISMODE
70
0
9
$AXISUNIT
10
0
20
0
9
$SKETCHINC
40
1.0
9
$FILLETRAD
40
0.0
9
$AUNITS
70
0
9
$AUPREC
70
0
9
$MENU
1
ACAD
9
$ELEVATION
40
0.0
9
$THICKNESS
40
0.0
9
$VIEWDIR
10
0.0
20
0.0
30
1.0
9
$LIMCHECK
70
0
9
$BLIPMODE
70
1
9
$CHAMFERA
40
0.0
9
$CHAMFERB
40
0.0
9
$USRTIMER
70
1
9
$ANGBASE
50
0.0
9
$ANGDIR
70
0
9
$PDMODE
70
0
9
$PDSIZE
40
0.0
9
$PLINEWID
40
0.0
9
$COORDS
70
0
0
ENDSEC
0
SECTION
2
TABLES
0
TABLE
2
LTYPE
70
1
0
LTYPE
2
AUSGEZOGEN
70
64
3
Ausgezogene Linie
72
65
73
0
40
0.0
0
ENDTAB
0
TABLE
2
LAYER
70
1
0
LAYER
2
0
70
0
62
7
6
AUSGEZOGEN
0
ENDTAB
0
TABLE
2
STYLE
70
1
0
STYLE
2
STANDARD
70
0
40
0.0
41
1.0
50
0.0
71
0
42
3.5
3
txt
4

0
ENDTAB
0
TABLE
2
VIEW
70
0
0
ENDTAB
0
ENDSEC
0
SECTION
2
BLOCKS
0
ENDSEC
0
SECTION
2
ENTITIES
  0
CIRCLE
  8
0
 10
 3.00000000000000E+0002
 20
 3.00000000000000E+0002
 40
 3.00000000000000E+0002
  0
CIRCLE
  8
0
 10
 3.00000000000000E+0002
 20
 3.00000000000000E+0002
 40
 2.85000000000000E+0002
  0
CIRCLE
  8
0
 10
 3.00000000000000E+0002
 20
 3.00000000000000E+0002
 40
 2.10000000000000E+0002
  0
ARC
  8
0
 10
 1.31500000000000E+0002
 20
 3.04000000000000E+0002
 40
 1.20000000000000E+0001
 50
 1.43130000000000E+0002
 51
 1.80000000000000E+0002
  0
LINE
  8
0
 10
 1.21900012862217E+0002
 20
 3.11200017149592E+0002
 11
 1.24299961413346E+0002
 21
 3.14399948551224E+0002
  0
ARC
  8
0
 10
 9.55000000000000E+0001
 20
 3.36000000000000E+0002
 40
 3.60000000000000E+0001
 50
 3.23130000000000E+0002
 51
 3.36485000000000E+0002
  0
LINE
  8
0
 10
 1.28510403425093E+0002
 20
 3.21636390923149E+0002
 11
 1.44330443493030E+0002
 21
 3.57989891410236E+0002
  0
ARC
  8
0
 10
 1.53500000000000E+0002
 20
 3.54000000000000E+0002
 40
 1.00000000000000E+0001
 50
 9.00000000000000E+0001
 51
 1.56485000000000E+0002
  0
LINE
  8
0
 10
 1.53500000000000E+0002
 20
 3.64000000000000E+0002
 11
 2.53500000000000E+0002
 21
 3.64000000000000E+0002
  0
ARC
  8
0
 10
 2.53500000000000E+0002
 20
 3.54000000000000E+0002
 40
 1.00000000000000E+0001
 50
 2.35150000000000E+0001
 51
 9.00000000000000E+0001
  0
LINE
  8
0
 10
 2.62669556506970E+0002
 20
 3.57989891410236E+0002
 11
 2.78489596574907E+0002
 21
 3.21636390923149E+0002
  0
ARC
  8
0
 10
 3.11500000000000E+0002
 20
 3.36000000000000E+0002
 40
 3.60000000000000E+0001
 50
 2.03515000000000E+0002
 51
 2.16870000000000E+0002
  0
LINE
  8
0
 10
 2.82700038586654E+0002
 20
 3.14399948551224E+0002
 11
 2.85099987137782E+0002
 21
 3.11200017149592E+0002
  0
ARC
  8
0
 10
 2.75500000000000E+0002
 20
 3.04000000000000E+0002
 40
 1.20000000000000E+0001
 50
 0.00000000000000E+0000
 51
 3.68700000000000E+0001
  0
LINE
  8
0
 10
 2.87500000000000E+0002
 20
 3.04000000000000E+0002
 11
 2.87500000000000E+0002
 21
 2.78000000000000E+0002
  0
ARC
  8
0
 10
 2.77500000000000E+0002
 20
 2.78000000000000E+0002
 40
 1.00000000000000E+0001
 50
 2.70000000000000E+0002
 51
 3.60000000000000E+0002
  0
LINE
  8
0
 10
 2.77500000000000E+0002
 20
 2.68000000000000E+0002
 11
 1.29500000000000E+0002
 21
 2.68000000000000E+0002
  0
ARC
  8
0
 10
 1.29500000000000E+0002
 20
 2.78000000000000E+0002
 40
 1.00000000000000E+0001
 50
 1.80000000000000E+0002
 51
 2.70000000000000E+0002
  0
LINE
  8
0
 10
 1.19500000000000E+0002
 20
 2.78000000000000E+0002
 11
 1.19500000000000E+0002
 21
 3.04000000000000E+0002
  0
LINE
  8
0
 10
 1.38500000000000E+0002
 20
 3.20000000000000E+0002
 11
 1.52232316684662E+0002
 21
 3.51596276635921E+0002
  0
ARC
  8
0
 10
 1.55900000000000E+0002
 20
 3.50000000000000E+0002
 40
 4.00000000000000E+0000
 50
 9.00000000000000E+0001
 51
 1.56480000000000E+0002
  0
LINE
  8
0
 10
 1.55900000000000E+0002
 20
 3.54000000000000E+0002
 11
 2.51100000000000E+0002
 21
 3.54000000000000E+0002
  0
ARC
  8
0
 10
 2.51100000000000E+0002
 20
 3.50000000000000E+0002
 40
 4.00000000000000E+0000
 50
 2.35200000000000E+0001
 51
 9.00000000000000E+0001
  0
LINE
  8
0
 10
 2.54767683315338E+0002
 20
 3.51596276635921E+0002
 11
 2.68500000000000E+0002
 21
 3.20000000000000E+0002
  0
LINE
  8
0
 10
 2.68500000000000E+0002
 20
 3.20000000000000E+0002
 11
 1.38500000000000E+0002
 21
 3.20000000000000E+0002
  0
LINE
  8
0
 10
 1.29500000000000E+0002
 20
 2.64000000000000E+0002
 11
 1.53500000000000E+0002
 21
 2.64000000000000E+0002
  0
LINE
  8
0
 10
 1.53500000000000E+0002
 20
 2.64000000000000E+0002
 11
 1.53500000000000E+0002
 21
 2.42000000000000E+0002
  0
ARC
  8
0
 10
 1.47500000000000E+0002
 20
 2.42000000000000E+0002
 40
 6.00000000000000E+0000
 50
 2.70000000000000E+0002
 51
 3.60000000000000E+0002
  0
LINE
  8
0
 10
 1.47500000000000E+0002
 20
 2.36000000000000E+0002
 11
 1.35500000000000E+0002
 21
 2.36000000000000E+0002
  0
ARC
  8
0
 10
 1.35500000000000E+0002
 20
 2.42000000000000E+0002
 40
 6.00000000000000E+0000
 50
 1.80000000000000E+0002
 51
 2.70000000000000E+0002
  0
LINE
  8
0
 10
 1.29500000000000E+0002
 20
 2.42000000000000E+0002
 11
 1.29500000000000E+0002
 21
 2.64000000000000E+0002
  0
LINE
  8
0
 10
 2.53500000000000E+0002
 20
 2.64000000000000E+0002
 11
 2.77500000000000E+0002
 21
 2.64000000000000E+0002
  0
LINE
  8
0
 10
 2.77500000000000E+0002
 20
 2.64000000000000E+0002
 11
 2.77500000000000E+0002
 21
 2.42000000000000E+0002
  0
ARC
  8
0
 10
 2.71500000000000E+0002
 20
 2.42000000000000E+0002
 40
 6.00000000000000E+0000
 50
 2.70000000000000E+0002
 51
 3.60000000000000E+0002
  0
LINE
  8
0
 10
 2.71500000000000E+0002
 20
 2.36000000000000E+0002
 11
 2.59500000000000E+0002
 21
 2.36000000000000E+0002
  0
ARC
  8
0
 10
 2.59500000000000E+0002
 20
 2.42000000000000E+0002
 40
 6.00000000000000E+0000
 50
 1.80000000000000E+0002
 51
 2.70000000000000E+0002
  0
LINE
  8
0
 10
 2.53500000000000E+0002
 20
 2.42000000000000E+0002
 11
 2.53500000000000E+0002
 21
 2.64000000000000E+0002
  0
LINE
  8
0
 10
 3.17500000000000E+0002
 20
 2.95000000000000E+0002
 11
 3.17500000000000E+0002
 21
 3.05000000000000E+0002
  0
LINE
  8
0
 10
 3.17500000000000E+0002
 20
 3.05000000000000E+0002
 11
 4.77500000000000E+0002
 21
 3.05000000000000E+0002
  0
LINE
  8
0
 10
 4.77500000000000E+0002
 20
 3.05000000000000E+0002
 11
 4.77500000000000E+0002
 21
 2.95000000000000E+0002
  0
LINE
  8
0
 10
 4.77500000000000E+0002
 20
 2.95000000000000E+0002
 11
 3.17500000000000E+0002
 21
 2.95000000000000E+0002
  0
LINE
  8
0
 10
 3.92586200000000E+0002
 20
 2.23595200000000E+0002
 11
 4.02400000000000E+0002
 21
 2.23550000000000E+0002
  0
ARC
  8
0
 10
 4.02400000000000E+0002
 20
 2.18250000000000E+0002
 40
 5.30000000000000E+0000
 50
 0.00000000000000E+0000
 51
 9.00000000000000E+0001
  0
LINE
  8
0
 10
 4.07700000000000E+0002
 20
 2.18250000000000E+0002
 11
 4.07733100000000E+0002
 21
 2.02307600000000E+0002
  0
LINE
  8
0
 10
 4.07733100000000E+0002
 20
 2.02307600000000E+0002
 11
 4.13464300000000E+0002
 21
 2.02307600000000E+0002
  0
LINE
  8
0
 10
 4.13464300000000E+0002
 20
 2.02307600000000E+0002
 11
 4.13464300000000E+0002
 21
 1.75288900000000E+0002
  0
LINE
  8
0
 10
 4.13464300000000E+0002
 20
 1.75288900000000E+0002
 11
 4.07733100000000E+0002
 21
 1.75288900000000E+0002
  0
LINE
  8
0
 10
 4.07733100000000E+0002
 20
 1.75288900000000E+0002
 11
 4.07700000000000E+0002
 21
 1.59300000000000E+0002
  0
ARC
  8
0
 10
 4.02400000000000E+0002
 20
 1.59300000000000E+0002
 40
 5.30000000000000E+0000
 50
 2.70000000000000E+0002
 51
 3.60000000000000E+0002
  0
LINE
  8
0
 10
 4.02400000000000E+0002
 20
 1.54000000000000E+0002
 11
 3.92600000000000E+0002
 21
 1.54000000000000E+0002
  0
ARC
  8
0
 10
 3.92600000000000E+0002
 20
 1.59300000000000E+0002
 40
 5.30000000000000E+0000
 50
 1.80000000000000E+0002
 51
 2.70000000000000E+0002
  0
LINE
  8
0
 10
 3.87300000000000E+0002
 20
 1.59300000000000E+0002
 11
 3.87264300000000E+0002
 21
 1.81429500000000E+0002
  0
LINE
  8
0
 10
 3.87264300000000E+0002
 20
 1.81429500000000E+0002
 11
 3.81533100000000E+0002
 21
 1.81429500000000E+0002
  0
LINE
  8
0
 10
 3.81533100000000E+0002
 20
 1.81429500000000E+0002
 11
 3.81533100000000E+0002
 21
 1.96167000000000E+0002
  0
LINE
  8
0
 10
 3.81533100000000E+0002
 20
 1.96167000000000E+0002
 11
 3.87264300000000E+0002
 21
 1.96167000000000E+0002
  0
LINE
  8
0
 10
 3.87264300000000E+0002
 20
 1.96167000000000E+0002
 11
 3.87300000000000E+0002
 21
 2.18250000000000E+0002
  0
ARC
  8
0
 10
 3.92600000000000E+0002
 20
 2.18250000000000E+0002
 40
 5.30000000000000E+0000
 50
 9.00000000000000E+0001
 51
 1.80000000000000E+0002
  0
LINE
  8
0
 10
 3.71708100000000E+0002
 20
 2.42426400000000E+0002
 11
 4.23300000000000E+0002
 21
 2.42450000000000E+0002
  0
ARC
  8
0
 10
 4.23300000000000E+0002
 20
 2.40400000000000E+0002
 40
 2.05000000000000E+0000
 50
 0.00000000000000E+0000
 51
 9.00000000000000E+0001
  0
LINE
  8
0
 10
 4.25350000000000E+0002
 20
 2.40400000000000E+0002
 11
 4.25336200000000E+0002
 21
 2.24413900000000E+0002
  0
LINE
  8
0
 10
 4.25336200000000E+0002
 20
 2.24413900000000E+0002
 11
 4.16996400000000E+0002
 21
 1.92482600000000E+0002
  0
LINE
  8
0
 10
 4.16996400000000E+0002
 20
 1.92482600000000E+0002
 11
 4.15101800000000E+0002
 21
 1.88798300000000E+0002
  0
LINE
  8
0
 10
 4.15101800000000E+0002
 20
 1.88798300000000E+0002
 11
 4.15101800000000E+0002
 21
 2.28507700000000E+0002
  0
LINE
  8
0
 10
 4.15101800000000E+0002
 20
 2.28507700000000E+0002
 11
 3.79895600000000E+0002
 21
 2.28507700000000E+0002
  0
LINE
  8
0
 10
 3.79895600000000E+0002
 20
 2.28507700000000E+0002
 11
 3.79895600000000E+0002
 21
 1.88798300000000E+0002
  0
LINE
  8
0
 10
 3.79895600000000E+0002
 20
 1.88798300000000E+0002
 11
 3.77999300000000E+0002
 21
 1.92482600000000E+0002
  0
LINE
  8
0
 10
 3.77999300000000E+0002
 20
 1.92482600000000E+0002
 11
 3.69661200000000E+0002
 21
 2.24413900000000E+0002
  0
LINE
  8
0
 10
 3.69661200000000E+0002
 20
 2.24413900000000E+0002
 11
 3.69650000000000E+0002
 21
 2.40400000000000E+0002
  0
ARC
  8
0
 10
 3.71700000000000E+0002
 20
 2.40400000000000E+0002
 40
 2.05000000000000E+0000
 50
 9.00000000000000E+0001
 51
 1.80000000000000E+0002
  0
LINE
  8
0
 10
 3.79281500000000E+0002
 20
 2.60029500000000E+0002
 11
 3.79297100000000E+0002
 21
 2.60029000000000E+0002
  0
LINE
  8
0
 10
 3.79297100000000E+0002
 20
 2.60029000000000E+0002
 11
 3.84800000000000E+0002
 21
 2.60050000000000E+0002
  0
ARC
  8
0
 10
 3.89700000000000E+0002
 20
 2.60050000000000E+0002
 40
 4.90000000000000E+0000
 50
 9.00050000000000E+0001
 51
 1.80000000000000E+0002
  0
LINE
  8
0
 10
 3.89699572394334E+0002
 20
 2.64949999981342E+0002
 11
 4.05300000000000E+0002
 21
 2.64950000000000E+0002
  0
ARC
  8
0
 10
 4.05300000000000E+0002
 20
 2.60050000000000E+0002
 40
 4.90000000000000E+0000
 50
 0.00000000000000E+0000
 51
 9.00000000000000E+0001
  0
LINE
  8
0
 10
 4.10200000000000E+0002
 20
 2.60050000000000E+0002
 11
 4.15700000000000E+0002
 21
 2.60000000000000E+0002
  0
ARC
  8
0
 10
 4.15700000000000E+0002
 20
 2.50400000000000E+0002
 40
 9.60000000000000E+0000
 50
 0.00000000000000E+0000
 51
 9.00000000000000E+0001
  0
LINE
  8
0
 10
 4.25300000000000E+0002
 20
 2.50400000000000E+0002
 11
 4.25300000000000E+0002
 21
 2.50400000000000E+0002
  0
ARC
  8
0
 10
 4.20200000000000E+0002
 20
 2.50400000000000E+0002
 40
 5.10000000000000E+0000
 50
 2.70000000000000E+0002
 51
 3.60000000000000E+0002
  0
LINE
  8
0
 10
 4.20200000000000E+0002
 20
 2.45300000000000E+0002
 11
 3.74800000000000E+0002
 21
 2.45300000000000E+0002
  0
ARC
  8
0
 10
 3.74800000000000E+0002
 20
 2.50400000000000E+0002
 40
 5.10000000000000E+0000
 50
 1.80000000000000E+0002
 51
 2.70000000000000E+0002
  0
LINE
  8
0
 10
 3.69700000000000E+0002
 20
 2.50400000000000E+0002
 11
 3.69700000000000E+0002
 21
 2.50400000000000E+0002
  0
ARC
  8
0
 10
 3.79300000000000E+0002
 20
 2.50400000000000E+0002
 40
 9.60000000000000E+0000
 50
 9.00000000000000E+0001
 51
 1.80000000000000E+0002
  0
ARC
  8
0
 10
 3.87250000000000E+0002
 20
 3.12000000000000E+0002
 40
 3.88500000000000E+0001
 50
 2.45885000000000E+0002
 51
 2.70000000000000E+0002
  0
LINE
  8
0
 10
 3.71377077807120E+0002
 20
 2.76540546520585E+0002
 11
 3.71374000000000E+0002
 21
 2.76479200000000E+0002
  0
LINE
  8
0
 10
 3.71374000000000E+0002
 20
 2.76479200000000E+0002
 11
 3.71355539587400E+0002
 21
 2.76488362488200E+0002
  0
LINE
  8
0
 10
 3.71355539587400E+0002
 20
 2.76488362488200E+0002
 11
 3.71337146179200E+0002
 21
 2.76497478225600E+0002
  0
LINE
  8
0
 10
 3.71337146179200E+0002
 20
 2.76497478225600E+0002
 11
 3.71318816519800E+0002
 21
 2.76506547621400E+0002
  0
LINE
  8
0
 10
 3.71318816519800E+0002
 20
 2.76506547621400E+0002
 11
 3.71300547353600E+0002
 21
 2.76515571084800E+0002
  0
LINE
  8
0
 10
 3.71300547353600E+0002
 20
 2.76515571084800E+0002
 11
 3.71282335425000E+0002
 21
 2.76524549025000E+0002
  0
LINE
  8
0
 10
 3.71282335425000E+0002
 20
 2.76524549025000E+0002
 11
 3.71264177478400E+0002
 21
 2.76533481851200E+0002
  0
LINE
  8
0
 10
 3.71264177478400E+0002
 20
 2.76533481851200E+0002
 11
 3.71246070258200E+0002
 21
 2.76542369972600E+0002
  0
LINE
  8
0
 10
 3.71246070258200E+0002
 20
 2.76542369972600E+0002
 11
 3.71228010508800E+0002
 21
 2.76551213798400E+0002
  0
LINE
  8
0
 10
 3.71228010508800E+0002
 20
 2.76551213798400E+0002
 11
 3.71209994974600E+0002
 21
 2.76560013737800E+0002
  0
LINE
  8
0
 10
 3.71209994974600E+0002
 20
 2.76560013737800E+0002
 11
 3.71192020400000E+0002
 21
 2.76568770200000E+0002
  0
LINE
  8
0
 10
 3.71192020400000E+0002
 20
 2.76568770200000E+0002
 11
 3.71174083529400E+0002
 21
 2.76577483594200E+0002
  0
LINE
  8
0
 10
 3.71174083529400E+0002
 20
 2.76577483594200E+0002
 11
 3.71156181107200E+0002
 21
 2.76586154329600E+0002
  0
LINE
  8
0
 10
 3.71156181107200E+0002
 20
 2.76586154329600E+0002
 11
 3.71138309877800E+0002
 21
 2.76594782815400E+0002
  0
LINE
  8
0
 10
 3.71138309877800E+0002
 20
 2.76594782815400E+0002
 11
 3.71120466585600E+0002
 21
 2.76603369460800E+0002
  0
LINE
  8
0
 10
 3.71120466585600E+0002
 20
 2.76603369460800E+0002
 11
 3.71102647975000E+0002
 21
 2.76611914675000E+0002
  0
LINE
  8
0
 10
 3.71102647975000E+0002
 20
 2.76611914675000E+0002
 11
 3.71084850790400E+0002
 21
 2.76620418867200E+0002
  0
LINE
  8
0
 10
 3.71084850790400E+0002
 20
 2.76620418867200E+0002
 11
 3.71067071776200E+0002
 21
 2.76628882446600E+0002
  0
LINE
  8
0
 10
 3.71067071776200E+0002
 20
 2.76628882446600E+0002
 11
 3.71049307676800E+0002
 21
 2.76637305822400E+0002
  0
LINE
  8
0
 10
 3.71049307676800E+0002
 20
 2.76637305822400E+0002
 11
 3.71031555236600E+0002
 21
 2.76645689403800E+0002
  0
LINE
  8
0
 10
 3.71031555236600E+0002
 20
 2.76645689403800E+0002
 11
 3.71013811200000E+0002
 21
 2.76654033600000E+0002
  0
LINE
  8
0
 10
 3.71013811200000E+0002
 20
 2.76654033600000E+0002
 11
 3.70996072311400E+0002
 21
 2.76662338820200E+0002
  0
LINE
  8
0
 10
 3.70996072311400E+0002
 20
 2.76662338820200E+0002
 11
 3.70978335315200E+0002
 21
 2.76670605473600E+0002
  0
LINE
  8
0
 10
 3.70978335315200E+0002
 20
 2.76670605473600E+0002
 11
 3.70960596955800E+0002
 21
 2.76678833969400E+0002
  0
LINE
  8
0
 10
 3.70960596955800E+0002
 20
 2.76678833969400E+0002
 11
 3.70942853977600E+0002
 21
 2.76687024716800E+0002
  0
LINE
  8
0
 10
 3.70942853977600E+0002
 20
 2.76687024716800E+0002
 11
 3.70925103125000E+0002
 21
 2.76695178125000E+0002
  0
LINE
  8
0
 10
 3.70925103125000E+0002
 20
 2.76695178125000E+0002
 11
 3.70907341142400E+0002
 21
 2.76703294603200E+0002
  0
LINE
  8
0
 10
 3.70907341142400E+0002
 20
 2.76703294603200E+0002
 11
 3.70889564774200E+0002
 21
 2.76711374560600E+0002
  0
LINE
  8
0
 10
 3.70889564774200E+0002
 20
 2.76711374560600E+0002
 11
 3.70871770764800E+0002
 21
 2.76719418406400E+0002
  0
LINE
  8
0
 10
 3.70871770764800E+0002
 20
 2.76719418406400E+0002
 11
 3.70853955858600E+0002
 21
 2.76727426549800E+0002
  0
LINE
  8
0
 10
 3.70853955858600E+0002
 20
 2.76727426549800E+0002
 11
 3.70836116800000E+0002
 21
 2.76735399400000E+0002
  0
LINE
  8
0
 10
 3.70836116800000E+0002
 20
 2.76735399400000E+0002
 11
 3.70818250333400E+0002
 21
 2.76743337366200E+0002
  0
LINE
  8
0
 10
 3.70818250333400E+0002
 20
 2.76743337366200E+0002
 11
 3.70800353203200E+0002
 21
 2.76751240857600E+0002
  0
LINE
  8
0
 10
 3.70800353203200E+0002
 20
 2.76751240857600E+0002
 11
 3.70782422153800E+0002
 21
 2.76759110283400E+0002
  0
LINE
  8
0
 10
 3.70782422153800E+0002
 20
 2.76759110283400E+0002
 11
 3.70764453929600E+0002
 21
 2.76766946052800E+0002
  0
LINE
  8
0
 10
 3.70764453929600E+0002
 20
 2.76766946052800E+0002
 11
 3.70746445275000E+0002
 21
 2.76774748575000E+0002
  0
LINE
  8
0
 10
 3.70746445275000E+0002
 20
 2.76774748575000E+0002
 11
 3.70728392934400E+0002
 21
 2.76782518259200E+0002
  0
LINE
  8
0
 10
 3.70728392934400E+0002
 20
 2.76782518259200E+0002
 11
 3.70710293652200E+0002
 21
 2.76790255514600E+0002
  0
LINE
  8
0
 10
 3.70710293652200E+0002
 20
 2.76790255514600E+0002
 11
 3.70692144172800E+0002
 21
 2.76797960750400E+0002
  0
LINE
  8
0
 10
 3.70692144172800E+0002
 20
 2.76797960750400E+0002
 11
 3.70673941240600E+0002
 21
 2.76805634375800E+0002
  0
LINE
  8
0
 10
 3.70673941240600E+0002
 20
 2.76805634375800E+0002
 11
 3.70655681600000E+0002
 21
 2.76813276800000E+0002
  0
LINE
  8
0
 10
 3.70655681600000E+0002
 20
 2.76813276800000E+0002
 11
 3.70637361995400E+0002
 21
 2.76820888432200E+0002
  0
LINE
  8
0
 10
 3.70637361995400E+0002
 20
 2.76820888432200E+0002
 11
 3.70618979171200E+0002
 21
 2.76828469681600E+0002
  0
LINE
  8
0
 10
 3.70618979171200E+0002
 20
 2.76828469681600E+0002
 11
 3.70600529871800E+0002
 21
 2.76836020957400E+0002
  0
LINE
  8
0
 10
 3.70600529871800E+0002
 20
 2.76836020957400E+0002
 11
 3.70582010841600E+0002
 21
 2.76843542668800E+0002
  0
LINE
  8
0
 10
 3.70582010841600E+0002
 20
 2.76843542668800E+0002
 11
 3.70563418825000E+0002
 21
 2.76851035225000E+0002
  0
LINE
  8
0
 10
 3.70563418825000E+0002
 20
 2.76851035225000E+0002
 11
 3.70544750566400E+0002
 21
 2.76858499035200E+0002
  0
LINE
  8
0
 10
 3.70544750566400E+0002
 20
 2.76858499035200E+0002
 11
 3.70526002810200E+0002
 21
 2.76865934508600E+0002
  0
LINE
  8
0
 10
 3.70526002810200E+0002
 20
 2.76865934508600E+0002
 11
 3.70507172300800E+0002
 21
 2.76873342054400E+0002
  0
LINE
  8
0
 10
 3.70507172300800E+0002
 20
 2.76873342054400E+0002
 11
 3.70488255782600E+0002
 21
 2.76880722081800E+0002
  0
LINE
  8
0
 10
 3.70488255782600E+0002
 20
 2.76880722081800E+0002
 11
 3.70469250000000E+0002
 21
 2.76888075000000E+0002
  0
LINE
  8
0
 10
 3.70469250000000E+0002
 20
 2.76888075000000E+0002
 11
 3.70450151697400E+0002
 21
 2.76895401218200E+0002
  0
LINE
  8
0
 10
 3.70450151697400E+0002
 20
 2.76895401218200E+0002
 11
 3.70430957619200E+0002
 21
 2.76902701145600E+0002
  0
LINE
  8
0
 10
 3.70430957619200E+0002
 20
 2.76902701145600E+0002
 11
 3.70411664509800E+0002
 21
 2.76909975191400E+0002
  0
LINE
  8
0
 10
 3.70411664509800E+0002
 20
 2.76909975191400E+0002
 11
 3.70392269113600E+0002
 21
 2.76917223764800E+0002
  0
LINE
  8
0
 10
 3.70392269113600E+0002
 20
 2.76917223764800E+0002
 11
 3.70372768175000E+0002
 21
 2.76924447275000E+0002
  0
LINE
  8
0
 10
 3.70372768175000E+0002
 20
 2.76924447275000E+0002
 11
 3.70353158438400E+0002
 21
 2.76931646131200E+0002
  0
LINE
  8
0
 10
 3.70353158438400E+0002
 20
 2.76931646131200E+0002
 11
 3.70333436648200E+0002
 21
 2.76938820742600E+0002
  0
LINE
  8
0
 10
 3.70333436648200E+0002
 20
 2.76938820742600E+0002
 11
 3.70313599548800E+0002
 21
 2.76945971518400E+0002
  0
LINE
  8
0
 10
 3.70313599548800E+0002
 20
 2.76945971518400E+0002
 11
 3.70293643884600E+0002
 21
 2.76953098867800E+0002
  0
LINE
  8
0
 10
 3.70293643884600E+0002
 20
 2.76953098867800E+0002
 11
 3.70273566400000E+0002
 21
 2.76960203200000E+0002
  0
LINE
  8
0
 10
 3.70273566400000E+0002
 20
 2.76960203200000E+0002
 11
 3.70253363839400E+0002
 21
 2.76967284924200E+0002
  0
LINE
  8
0
 10
 3.70253363839400E+0002
 20
 2.76967284924200E+0002
 11
 3.70233032947200E+0002
 21
 2.76974344449600E+0002
  0
LINE
  8
0
 10
 3.70233032947200E+0002
 20
 2.76974344449600E+0002
 11
 3.70212570467800E+0002
 21
 2.76981382185400E+0002
  0
LINE
  8
0
 10
 3.70212570467800E+0002
 20
 2.76981382185400E+0002
 11
 3.70191973145600E+0002
 21
 2.76988398540800E+0002
  0
LINE
  8
0
 10
 3.70191973145600E+0002
 20
 2.76988398540800E+0002
 11
 3.70171237725000E+0002
 21
 2.76995393925000E+0002
  0
LINE
  8
0
 10
 3.70171237725000E+0002
 20
 2.76995393925000E+0002
 11
 3.70150360950400E+0002
 21
 2.77002368747200E+0002
  0
LINE
  8
0
 10
 3.70150360950400E+0002
 20
 2.77002368747200E+0002
 11
 3.70129339566200E+0002
 21
 2.77009323416600E+0002
  0
LINE
  8
0
 10
 3.70129339566200E+0002
 20
 2.77009323416600E+0002
 11
 3.70108170316800E+0002
 21
 2.77016258342400E+0002
  0
LINE
  8
0
 10
 3.70108170316800E+0002
 20
 2.77016258342400E+0002
 11
 3.70086849946600E+0002
 21
 2.77023173933800E+0002
  0
LINE
  8
0
 10
 3.70086849946600E+0002
 20
 2.77023173933800E+0002
 11
 3.70065375200000E+0002
 21
 2.77030070600000E+0002
  0
LINE
  8
0
 10
 3.70065375200000E+0002
 20
 2.77030070600000E+0002
 11
 3.70043742821400E+0002
 21
 2.77036948750200E+0002
  0
LINE
  8
0
 10
 3.70043742821400E+0002
 20
 2.77036948750200E+0002
 11
 3.70021949555200E+0002
 21
 2.77043808793600E+0002
  0
LINE
  8
0
 10
 3.70021949555200E+0002
 20
 2.77043808793600E+0002
 11
 3.69999992145800E+0002
 21
 2.77050651139400E+0002
  0
LINE
  8
0
 10
 3.69999992145800E+0002
 20
 2.77050651139400E+0002
 11
 3.69977867337600E+0002
 21
 2.77057476196800E+0002
  0
LINE
  8
0
 10
 3.69977867337600E+0002
 20
 2.77057476196800E+0002
 11
 3.69955571875000E+0002
 21
 2.77064284375000E+0002
  0
LINE
  8
0
 10
 3.69955571875000E+0002
 20
 2.77064284375000E+0002
 11
 3.69933102502400E+0002
 21
 2.77071076083200E+0002
  0
LINE
  8
0
 10
 3.69933102502400E+0002
 20
 2.77071076083200E+0002
 11
 3.69910455964200E+0002
 21
 2.77077851730600E+0002
  0
LINE
  8
0
 10
 3.69910455964200E+0002
 20
 2.77077851730600E+0002
 11
 3.69887629004800E+0002
 21
 2.77084611726400E+0002
  0
LINE
  8
0
 10
 3.69887629004800E+0002
 20
 2.77084611726400E+0002
 11
 3.69864618368600E+0002
 21
 2.77091356479800E+0002
  0
LINE
  8
0
 10
 3.69864618368600E+0002
 20
 2.77091356479800E+0002
 11
 3.69841420800000E+0002
 21
 2.77098086400000E+0002
  0
LINE
  8
0
 10
 3.69841420800000E+0002
 20
 2.77098086400000E+0002
 11
 3.69818033043400E+0002
 21
 2.77104801896200E+0002
  0
LINE
  8
0
 10
 3.69818033043400E+0002
 20
 2.77104801896200E+0002
 11
 3.69794451843200E+0002
 21
 2.77111503377600E+0002
  0
LINE
  8
0
 10
 3.69794451843200E+0002
 20
 2.77111503377600E+0002
 11
 3.69770673943800E+0002
 21
 2.77118191253400E+0002
  0
LINE
  8
0
 10
 3.69770673943800E+0002
 20
 2.77118191253400E+0002
 11
 3.69746696089600E+0002
 21
 2.77124865932800E+0002
  0
LINE
  8
0
 10
 3.69746696089600E+0002
 20
 2.77124865932800E+0002
 11
 3.69722515025000E+0002
 21
 2.77131527825000E+0002
  0
LINE
  8
0
 10
 3.69722515025000E+0002
 20
 2.77131527825000E+0002
 11
 3.69698127494400E+0002
 21
 2.77138177339200E+0002
  0
LINE
  8
0
 10
 3.69698127494400E+0002
 20
 2.77138177339200E+0002
 11
 3.69673530242200E+0002
 21
 2.77144814884600E+0002
  0
LINE
  8
0
 10
 3.69673530242200E+0002
 20
 2.77144814884600E+0002
 11
 3.69648720012800E+0002
 21
 2.77151440870400E+0002
  0
LINE
  8
0
 10
 3.69648720012800E+0002
 20
 2.77151440870400E+0002
 11
 3.69623693550600E+0002
 21
 2.77158055705800E+0002
  0
LINE
  8
0
 10
 3.69623693550600E+0002
 20
 2.77158055705800E+0002
 11
 3.69598447600000E+0002
 21
 2.77164659800000E+0002
  0
LINE
  8
0
 10
 3.69598447600000E+0002
 20
 2.77164659800000E+0002
 11
 3.69572978905400E+0002
 21
 2.77171253562200E+0002
  0
LINE
  8
0
 10
 3.69572978905400E+0002
 20
 2.77171253562200E+0002
 11
 3.69547284211200E+0002
 21
 2.77177837401600E+0002
  0
LINE
  8
0
 10
 3.69547284211200E+0002
 20
 2.77177837401600E+0002
 11
 3.69521360261800E+0002
 21
 2.77184411727400E+0002
  0
LINE
  8
0
 10
 3.69521360261800E+0002
 20
 2.77184411727400E+0002
 11
 3.69495203801600E+0002
 21
 2.77190976948800E+0002
  0
LINE
  8
0
 10
 3.69495203801600E+0002
 20
 2.77190976948800E+0002
 11
 3.69468811575000E+0002
 21
 2.77197533475000E+0002
  0
LINE
  8
0
 10
 3.69468811575000E+0002
 20
 2.77197533475000E+0002
 11
 3.69442180326400E+0002
 21
 2.77204081715200E+0002
  0
LINE
  8
0
 10
 3.69442180326400E+0002
 20
 2.77204081715200E+0002
 11
 3.69415306800200E+0002
 21
 2.77210622078600E+0002
  0
LINE
  8
0
 10
 3.69415306800200E+0002
 20
 2.77210622078600E+0002
 11
 3.69388187740800E+0002
 21
 2.77217154974400E+0002
  0
LINE
  8
0
 10
 3.69388187740800E+0002
 20
 2.77217154974400E+0002
 11
 3.69360819892600E+0002
 21
 2.77223680811800E+0002
  0
LINE
  8
0
 10
 3.69360819892600E+0002
 20
 2.77223680811800E+0002
 11
 3.69333200000000E+0002
 21
 2.77230200000000E+0002
  0
LINE
  8
0
 10
 3.69333200000000E+0002
 20
 2.77230200000000E+0002
 11
 3.56561200000000E+0002
 21
 2.80214600000000E+0002
  0
LINE
  8
0
 10
 3.56561200000000E+0002
 20
 2.80214600000000E+0002
 11
 3.57665700000000E+0002
 21
 2.85001400000000E+0002
  0
LINE
  8
0
 10
 3.57665700000000E+0002
 20
 2.85001400000000E+0002
 11
 3.70438200000000E+0002
 21
 2.82017700000000E+0002
  0
LINE
  8
0
 10
 3.70438200000000E+0002
 20
 2.82017700000000E+0002
 11
 3.70469897447000E+0002
 21
 2.82009588265100E+0002
  0
LINE
  8
0
 10
 3.70469897447000E+0002
 20
 2.82009588265100E+0002
 11
 3.70501504936000E+0002
 21
 2.82001440680800E+0002
  0
LINE
  8
0
 10
 3.70501504936000E+0002
 20
 2.82001440680800E+0002
 11
 3.70533024189000E+0002
 21
 2.81993256677700E+0002
  0
LINE
  8
0
 10
 3.70533024189000E+0002
 20
 2.81993256677700E+0002
 11
 3.70564456928000E+0002
 21
 2.81985035686400E+0002
  0
LINE
  8
0
 10
 3.70564456928000E+0002
 20
 2.81985035686400E+0002
 11
 3.70595804875000E+0002
 21
 2.81976777137500E+0002
  0
LINE
  8
0
 10
 3.70595804875000E+0002
 20
 2.81976777137500E+0002
 11
 3.70627069752000E+0002
 21
 2.81968480461600E+0002
  0
LINE
  8
0
 10
 3.70627069752000E+0002
 20
 2.81968480461600E+0002
 11
 3.70658253281000E+0002
 21
 2.81960145089300E+0002
  0
LINE
  8
0
 10
 3.70658253281000E+0002
 20
 2.81960145089300E+0002
 11
 3.70689357184000E+0002
 21
 2.81951770451200E+0002
  0
LINE
  8
0
 10
 3.70689357184000E+0002
 20
 2.81951770451200E+0002
 11
 3.70720383183000E+0002
 21
 2.81943355977900E+0002
  0
LINE
  8
0
 10
 3.70720383183000E+0002
 20
 2.81943355977900E+0002
 11
 3.70751333000000E+0002
 21
 2.81934901100000E+0002
  0
LINE
  8
0
 10
 3.70751333000000E+0002
 20
 2.81934901100000E+0002
 11
 3.70782208357000E+0002
 21
 2.81926405248100E+0002
  0
LINE
  8
0
 10
 3.70782208357000E+0002
 20
 2.81926405248100E+0002
 11
 3.70813010976000E+0002
 21
 2.81917867852800E+0002
  0
LINE
  8
0
 10
 3.70813010976000E+0002
 20
 2.81917867852800E+0002
 11
 3.70843742579000E+0002
 21
 2.81909288344700E+0002
  0
LINE
  8
0
 10
 3.70843742579000E+0002
 20
 2.81909288344700E+0002
 11
 3.70874404888000E+0002
 21
 2.81900666154400E+0002
  0
LINE
  8
0
 10
 3.70874404888000E+0002
 20
 2.81900666154400E+0002
 11
 3.70904999625000E+0002
 21
 2.81892000712500E+0002
  0
LINE
  8
0
 10
 3.70904999625000E+0002
 20
 2.81892000712500E+0002
 11
 3.70935528512000E+0002
 21
 2.81883291449600E+0002
  0
LINE
  8
0
 10
 3.70935528512000E+0002
 20
 2.81883291449600E+0002
 11
 3.70965993271000E+0002
 21
 2.81874537796300E+0002
  0
LINE
  8
0
 10
 3.70965993271000E+0002
 20
 2.81874537796300E+0002
 11
 3.70996395624000E+0002
 21
 2.81865739183200E+0002
  0
LINE
  8
0
 10
 3.70996395624000E+0002
 20
 2.81865739183200E+0002
 11
 3.71026737293000E+0002
 21
 2.81856895040900E+0002
  0
LINE
  8
0
 10
 3.71026737293000E+0002
 20
 2.81856895040900E+0002
 11
 3.71057020000000E+0002
 21
 2.81848004800000E+0002
  0
LINE
  8
0
 10
 3.71057020000000E+0002
 20
 2.81848004800000E+0002
 11
 3.71087245467000E+0002
 21
 2.81839067891100E+0002
  0
LINE
  8
0
 10
 3.71087245467000E+0002
 20
 2.81839067891100E+0002
 11
 3.71117415416000E+0002
 21
 2.81830083744800E+0002
  0
LINE
  8
0
 10
 3.71117415416000E+0002
 20
 2.81830083744800E+0002
 11
 3.71147531569000E+0002
 21
 2.81821051791700E+0002
  0
LINE
  8
0
 10
 3.71147531569000E+0002
 20
 2.81821051791700E+0002
 11
 3.71177595648000E+0002
 21
 2.81811971462400E+0002
  0
LINE
  8
0
 10
 3.71177595648000E+0002
 20
 2.81811971462400E+0002
 11
 3.71207609375000E+0002
 21
 2.81802842187500E+0002
  0
LINE
  8
0
 10
 3.71207609375000E+0002
 20
 2.81802842187500E+0002
 11
 3.71237574472000E+0002
 21
 2.81793663397600E+0002
  0
LINE
  8
0
 10
 3.71237574472000E+0002
 20
 2.81793663397600E+0002
 11
 3.71267492661000E+0002
 21
 2.81784434523300E+0002
  0
LINE
  8
0
 10
 3.71267492661000E+0002
 20
 2.81784434523300E+0002
 11
 3.71297365664000E+0002
 21
 2.81775154995200E+0002
  0
LINE
  8
0
 10
 3.71297365664000E+0002
 20
 2.81775154995200E+0002
 11
 3.71327195203000E+0002
 21
 2.81765824243900E+0002
  0
LINE
  8
0
 10
 3.71327195203000E+0002
 20
 2.81765824243900E+0002
 11
 3.71356983000000E+0002
 21
 2.81756441700000E+0002
  0
LINE
  8
0
 10
 3.71356983000000E+0002
 20
 2.81756441700000E+0002
 11
 3.71386730777000E+0002
 21
 2.81747006794100E+0002
  0
LINE
  8
0
 10
 3.71386730777000E+0002
 20
 2.81747006794100E+0002
 11
 3.71416440256000E+0002
 21
 2.81737518956800E+0002
  0
LINE
  8
0
 10
 3.71416440256000E+0002
 20
 2.81737518956800E+0002
 11
 3.71446113159000E+0002
 21
 2.81727977618700E+0002
  0
LINE
  8
0
 10
 3.71446113159000E+0002
 20
 2.81727977618700E+0002
 11
 3.71475751208000E+0002
 21
 2.81718382210400E+0002
  0
LINE
  8
0
 10
 3.71475751208000E+0002
 20
 2.81718382210400E+0002
 11
 3.71505356125000E+0002
 21
 2.81708732162500E+0002
  0
LINE
  8
0
 10
 3.71505356125000E+0002
 20
 2.81708732162500E+0002
 11
 3.71534929632000E+0002
 21
 2.81699026905600E+0002
  0
LINE
  8
0
 10
 3.71534929632000E+0002
 20
 2.81699026905600E+0002
 11
 3.71564473451000E+0002
 21
 2.81689265870300E+0002
  0
LINE
  8
0
 10
 3.71564473451000E+0002
 20
 2.81689265870300E+0002
 11
 3.71593989304000E+0002
 21
 2.81679448487200E+0002
  0
LINE
  8
0
 10
 3.71593989304000E+0002
 20
 2.81679448487200E+0002
 11
 3.71623478913000E+0002
 21
 2.81669574186900E+0002
  0
LINE
  8
0
 10
 3.71623478913000E+0002
 20
 2.81669574186900E+0002
 11
 3.71652944000000E+0002
 21
 2.81659642400000E+0002
  0
LINE
  8
0
 10
 3.71652944000000E+0002
 20
 2.81659642400000E+0002
 11
 3.71682386287000E+0002
 21
 2.81649652557100E+0002
  0
LINE
  8
0
 10
 3.71682386287000E+0002
 20
 2.81649652557100E+0002
 11
 3.71711807496000E+0002
 21
 2.81639604088800E+0002
  0
LINE
  8
0
 10
 3.71711807496000E+0002
 20
 2.81639604088800E+0002
 11
 3.71741209349000E+0002
 21
 2.81629496425700E+0002
  0
LINE
  8
0
 10
 3.71741209349000E+0002
 20
 2.81629496425700E+0002
 11
 3.71770593568000E+0002
 21
 2.81619328998400E+0002
  0
LINE
  8
0
 10
 3.71770593568000E+0002
 20
 2.81619328998400E+0002
 11
 3.71799961875000E+0002
 21
 2.81609101237500E+0002
  0
LINE
  8
0
 10
 3.71799961875000E+0002
 20
 2.81609101237500E+0002
 11
 3.71829315992000E+0002
 21
 2.81598812573600E+0002
  0
LINE
  8
0
 10
 3.71829315992000E+0002
 20
 2.81598812573600E+0002
 11
 3.71858657641000E+0002
 21
 2.81588462437300E+0002
  0
LINE
  8
0
 10
 3.71858657641000E+0002
 20
 2.81588462437300E+0002
 11
 3.71887988544000E+0002
 21
 2.81578050259200E+0002
  0
LINE
  8
0
 10
 3.71887988544000E+0002
 20
 2.81578050259200E+0002
 11
 3.71917310423000E+0002
 21
 2.81567575469900E+0002
  0
LINE
  8
0
 10
 3.71917310423000E+0002
 20
 2.81567575469900E+0002
 11
 3.71946625000000E+0002
 21
 2.81557037500000E+0002
  0
LINE
  8
0
 10
 3.71946625000000E+0002
 20
 2.81557037500000E+0002
 11
 3.71975933997000E+0002
 21
 2.81546435780100E+0002
  0
LINE
  8
0
 10
 3.71975933997000E+0002
 20
 2.81546435780100E+0002
 11
 3.72005239136000E+0002
 21
 2.81535769740800E+0002
  0
LINE
  8
0
 10
 3.72005239136000E+0002
 20
 2.81535769740800E+0002
 11
 3.72034542139000E+0002
 21
 2.81525038812700E+0002
  0
LINE
  8
0
 10
 3.72034542139000E+0002
 20
 2.81525038812700E+0002
 11
 3.72063844728000E+0002
 21
 2.81514242426400E+0002
  0
LINE
  8
0
 10
 3.72063844728000E+0002
 20
 2.81514242426400E+0002
 11
 3.72093148625000E+0002
 21
 2.81503380012500E+0002
  0
LINE
  8
0
 10
 3.72093148625000E+0002
 20
 2.81503380012500E+0002
 11
 3.72122455552000E+0002
 21
 2.81492451001600E+0002
  0
LINE
  8
0
 10
 3.72122455552000E+0002
 20
 2.81492451001600E+0002
 11
 3.72151767231000E+0002
 21
 2.81481454824300E+0002
  0
LINE
  8
0
 10
 3.72151767231000E+0002
 20
 2.81481454824300E+0002
 11
 3.72181085384000E+0002
 21
 2.81470390911200E+0002
  0
LINE
  8
0
 10
 3.72181085384000E+0002
 20
 2.81470390911200E+0002
 11
 3.72210411733000E+0002
 21
 2.81459258692900E+0002
  0
LINE
  8
0
 10
 3.72210411733000E+0002
 20
 2.81459258692900E+0002
 11
 3.72239748000000E+0002
 21
 2.81448057600000E+0002
  0
LINE
  8
0
 10
 3.72239748000000E+0002
 20
 2.81448057600000E+0002
 11
 3.72269095907000E+0002
 21
 2.81436787063100E+0002
  0
LINE
  8
0
 10
 3.72269095907000E+0002
 20
 2.81436787063100E+0002
 11
 3.72298457176000E+0002
 21
 2.81425446512800E+0002
  0
LINE
  8
0
 10
 3.72298457176000E+0002
 20
 2.81425446512800E+0002
 11
 3.72327833529000E+0002
 21
 2.81414035379700E+0002
  0
LINE
  8
0
 10
 3.72327833529000E+0002
 20
 2.81414035379700E+0002
 11
 3.72357226688000E+0002
 21
 2.81402553094400E+0002
  0
LINE
  8
0
 10
 3.72357226688000E+0002
 20
 2.81402553094400E+0002
 11
 3.72386638375000E+0002
 21
 2.81390999087500E+0002
  0
LINE
  8
0
 10
 3.72386638375000E+0002
 20
 2.81390999087500E+0002
 11
 3.72416070312000E+0002
 21
 2.81379372789600E+0002
  0
LINE
  8
0
 10
 3.72416070312000E+0002
 20
 2.81379372789600E+0002
 11
 3.72445524221000E+0002
 21
 2.81367673631300E+0002
  0
LINE
  8
0
 10
 3.72445524221000E+0002
 20
 2.81367673631300E+0002
 11
 3.72475001824000E+0002
 21
 2.81355901043200E+0002
  0
LINE
  8
0
 10
 3.72475001824000E+0002
 20
 2.81355901043200E+0002
 11
 3.72504504843000E+0002
 21
 2.81344054455900E+0002
  0
LINE
  8
0
 10
 3.72504504843000E+0002
 20
 2.81344054455900E+0002
 11
 3.72534035000000E+0002
 21
 2.81332133300000E+0002
  0
LINE
  8
0
 10
 3.72534035000000E+0002
 20
 2.81332133300000E+0002
 11
 3.72563594017000E+0002
 21
 2.81320137006100E+0002
  0
LINE
  8
0
 10
 3.72563594017000E+0002
 20
 2.81320137006100E+0002
 11
 3.72593183616000E+0002
 21
 2.81308065004800E+0002
  0
LINE
  8
0
 10
 3.72593183616000E+0002
 20
 2.81308065004800E+0002
 11
 3.72622805519000E+0002
 21
 2.81295916726700E+0002
  0
LINE
  8
0
 10
 3.72622805519000E+0002
 20
 2.81295916726700E+0002
 11
 3.72652461448000E+0002
 21
 2.81283691602400E+0002
  0
LINE
  8
0
 10
 3.72652461448000E+0002
 20
 2.81283691602400E+0002
 11
 3.72682153125000E+0002
 21
 2.81271389062500E+0002
  0
LINE
  8
0
 10
 3.72682153125000E+0002
 20
 2.81271389062500E+0002
 11
 3.72711882272000E+0002
 21
 2.81259008537600E+0002
  0
LINE
  8
0
 10
 3.72711882272000E+0002
 20
 2.81259008537600E+0002
 11
 3.72741650611000E+0002
 21
 2.81246549458300E+0002
  0
LINE
  8
0
 10
 3.72741650611000E+0002
 20
 2.81246549458300E+0002
 11
 3.72771459864000E+0002
 21
 2.81234011255200E+0002
  0
LINE
  8
0
 10
 3.72771459864000E+0002
 20
 2.81234011255200E+0002
 11
 3.72801311753000E+0002
 21
 2.81221393358900E+0002
  0
LINE
  8
0
 10
 3.72801311753000E+0002
 20
 2.81221393358900E+0002
 11
 3.72831208000000E+0002
 21
 2.81208695200000E+0002
  0
LINE
  8
0
 10
 3.72831208000000E+0002
 20
 2.81208695200000E+0002
 11
 3.72861150327000E+0002
 21
 2.81195916209100E+0002
  0
LINE
  8
0
 10
 3.72861150327000E+0002
 20
 2.81195916209100E+0002
 11
 3.72891140456000E+0002
 21
 2.81183055816800E+0002
  0
LINE
  8
0
 10
 3.72891140456000E+0002
 20
 2.81183055816800E+0002
 11
 3.72921180109000E+0002
 21
 2.81170113453700E+0002
  0
LINE
  8
0
 10
 3.72921180109000E+0002
 20
 2.81170113453700E+0002
 11
 3.72951271008000E+0002
 21
 2.81157088550400E+0002
  0
LINE
  8
0
 10
 3.72951271008000E+0002
 20
 2.81157088550400E+0002
 11
 3.72981414875000E+0002
 21
 2.81143980537500E+0002
  0
LINE
  8
0
 10
 3.72981414875000E+0002
 20
 2.81143980537500E+0002
 11
 3.73011613432000E+0002
 21
 2.81130788845600E+0002
  0
LINE
  8
0
 10
 3.73011613432000E+0002
 20
 2.81130788845600E+0002
 11
 3.73041868401000E+0002
 21
 2.81117512905300E+0002
  0
LINE
  8
0
 10
 3.73041868401000E+0002
 20
 2.81117512905300E+0002
 11
 3.73072181504000E+0002
 21
 2.81104152147200E+0002
  0
LINE
  8
0
 10
 3.73072181504000E+0002
 20
 2.81104152147200E+0002
 11
 3.73102554463000E+0002
 21
 2.81090706001900E+0002
  0
LINE
  8
0
 10
 3.73102554463000E+0002
 20
 2.81090706001900E+0002
 11
 3.73132989000000E+0002
 21
 2.81077173900000E+0002
  0
LINE
  8
0
 10
 3.73132989000000E+0002
 20
 2.81077173900000E+0002
 11
 3.73163486837000E+0002
 21
 2.81063555272100E+0002
  0
LINE
  8
0
 10
 3.73163486837000E+0002
 20
 2.81063555272100E+0002
 11
 3.73194049696000E+0002
 21
 2.81049849548800E+0002
  0
LINE
  8
0
 10
 3.73194049696000E+0002
 20
 2.81049849548800E+0002
 11
 3.73224679299000E+0002
 21
 2.81036056160700E+0002
  0
LINE
  8
0
 10
 3.73224679299000E+0002
 20
 2.81036056160700E+0002
 11
 3.73255377368000E+0002
 21
 2.81022174538400E+0002
  0
LINE
  8
0
 10
 3.73255377368000E+0002
 20
 2.81022174538400E+0002
 11
 3.73286145625000E+0002
 21
 2.81008204112500E+0002
  0
LINE
  8
0
 10
 3.73286145625000E+0002
 20
 2.81008204112500E+0002
 11
 3.73316985792000E+0002
 21
 2.80994144313600E+0002
  0
LINE
  8
0
 10
 3.73316985792000E+0002
 20
 2.80994144313600E+0002
 11
 3.73347899591000E+0002
 21
 2.80979994572300E+0002
  0
LINE
  8
0
 10
 3.73347899591000E+0002
 20
 2.80979994572300E+0002
 11
 3.73378888744000E+0002
 21
 2.80965754319200E+0002
  0
LINE
  8
0
 10
 3.73378888744000E+0002
 20
 2.80965754319200E+0002
 11
 3.73409954973000E+0002
 21
 2.80951422984900E+0002
  0
LINE
  8
0
 10
 3.73409954973000E+0002
 20
 2.80951422984900E+0002
 11
 3.73441100000000E+0002
 21
 2.80937000000000E+0002
  0
LINE
  8
0
 10
 3.73441100000000E+0002
 20
 2.80937000000000E+0002
 11
 3.73444200000000E+0002
 21
 2.80938700000000E+0002
  0
LINE
  8
0
 10
 3.73444200000000E+0002
 20
 2.80938700000000E+0002
 11
 3.73441100000000E+0002
 21
 2.80937000000000E+0002
  0
LINE
  8
0
 10
 3.73441100000000E+0002
 20
 2.80937000000000E+0002
 11
 3.73420954135423E+0002
 21
 2.80939454440152E+0002
  0
ARC
  8
0
 10
 3.87250000000000E+0002
 20
 3.12000000000000E+0002
 40
 3.40000000000000E+0001
 50
 2.46000000000000E+0002
 51
 2.67000000000000E+0002
  0
LINE
  8
0
 10
 3.85470577487740E+0002
 20
 2.78046595818344E+0002
 11
 4.07750000000000E+0002
 21
 2.78000000000000E+0002
  0
ARC
  8
0
 10
 4.07750000000000E+0002
 20
 3.12000000000000E+0002
 40
 3.40000000000000E+0001
 50
 2.70000000000000E+0002
 51
 2.94000000000000E+0002
  0
LINE
  8
0
 10
 4.21579045864577E+0002
 20
 2.80939454440152E+0002
 11
 4.21555200000000E+0002
 21
 2.80937000000000E+0002
  0
LINE
  8
0
 10
 4.21555200000000E+0002
 20
 2.80937000000000E+0002
 11
 4.21586351086100E+0002
 21
 2.80951422984900E+0002
  0
LINE
  8
0
 10
 4.21586351086100E+0002
 20
 2.80951422984900E+0002
 11
 4.21617423488800E+0002
 21
 2.80965754319200E+0002
  0
LINE
  8
0
 10
 4.21617423488800E+0002
 20
 2.80965754319200E+0002
 11
 4.21648418924700E+0002
 21
 2.80979994572300E+0002
  0
LINE
  8
0
 10
 4.21648418924700E+0002
 20
 2.80979994572300E+0002
 11
 4.21679339110400E+0002
 21
 2.80994144313600E+0002
  0
LINE
  8
0
 10
 4.21679339110400E+0002
 20
 2.80994144313600E+0002
 11
 4.21710185762500E+0002
 21
 2.81008204112500E+0002
  0
LINE
  8
0
 10
 4.21710185762500E+0002
 20
 2.81008204112500E+0002
 11
 4.21740960597600E+0002
 21
 2.81022174538400E+0002
  0
LINE
  8
0
 10
 4.21740960597600E+0002
 20
 2.81022174538400E+0002
 11
 4.21771665332300E+0002
 21
 2.81036056160700E+0002
  0
LINE
  8
0
 10
 4.21771665332300E+0002
 20
 2.81036056160700E+0002
 11
 4.21802301683200E+0002
 21
 2.81049849548800E+0002
  0
LINE
  8
0
 10
 4.21802301683200E+0002
 20
 2.81049849548800E+0002
 11
 4.21832871366900E+0002
 21
 2.81063555272100E+0002
  0
LINE
  8
0
 10
 4.21832871366900E+0002
 20
 2.81063555272100E+0002
 11
 4.21863376100000E+0002
 21
 2.81077173900000E+0002
  0
LINE
  8
0
 10
 4.21863376100000E+0002
 20
 2.81077173900000E+0002
 11
 4.21893817599100E+0002
 21
 2.81090706001900E+0002
  0
LINE
  8
0
 10
 4.21893817599100E+0002
 20
 2.81090706001900E+0002
 11
 4.21924197580800E+0002
 21
 2.81104152147200E+0002
  0
LINE
  8
0
 10
 4.21924197580800E+0002
 20
 2.81104152147200E+0002
 11
 4.21954517761700E+0002
 21
 2.81117512905300E+0002
  0
LINE
  8
0
 10
 4.21954517761700E+0002
 20
 2.81117512905300E+0002
 11
 4.21984779858400E+0002
 21
 2.81130788845600E+0002
  0
LINE
  8
0
 10
 4.21984779858400E+0002
 20
 2.81130788845600E+0002
 11
 4.22014985587500E+0002
 21
 2.81143980537500E+0002
  0
LINE
  8
0
 10
 4.22014985587500E+0002
 20
 2.81143980537500E+0002
 11
 4.22045136665600E+0002
 21
 2.81157088550400E+0002
  0
LINE
  8
0
 10
 4.22045136665600E+0002
 20
 2.81157088550400E+0002
 11
 4.22075234809300E+0002
 21
 2.81170113453700E+0002
  0
LINE
  8
0
 10
 4.22075234809300E+0002
 20
 2.81170113453700E+0002
 11
 4.22105281735200E+0002
 21
 2.81183055816800E+0002
  0
LINE
  8
0
 10
 4.22105281735200E+0002
 20
 2.81183055816800E+0002
 11
 4.22135279159900E+0002
 21
 2.81195916209100E+0002
  0
LINE
  8
0
 10
 4.22135279159900E+0002
 20
 2.81195916209100E+0002
 11
 4.22165228800000E+0002
 21
 2.81208695200000E+0002
  0
LINE
  8
0
 10
 4.22165228800000E+0002
 20
 2.81208695200000E+0002
 11
 4.22195132372100E+0002
 21
 2.81221393358900E+0002
  0
LINE
  8
0
 10
 4.22195132372100E+0002
 20
 2.81221393358900E+0002
 11
 4.22224991592800E+0002
 21
 2.81234011255200E+0002
  0
LINE
  8
0
 10
 4.22224991592800E+0002
 20
 2.81234011255200E+0002
 11
 4.22254808178700E+0002
 21
 2.81246549458300E+0002
  0
LINE
  8
0
 10
 4.22254808178700E+0002
 20
 2.81246549458300E+0002
 11
 4.22284583846400E+0002
 21
 2.81259008537600E+0002
  0
LINE
  8
0
 10
 4.22284583846400E+0002
 20
 2.81259008537600E+0002
 11
 4.22314320312500E+0002
 21
 2.81271389062500E+0002
  0
LINE
  8
0
 10
 4.22314320312500E+0002
 20
 2.81271389062500E+0002
 11
 4.22344019293600E+0002
 21
 2.81283691602400E+0002
  0
LINE
  8
0
 10
 4.22344019293600E+0002
 20
 2.81283691602400E+0002
 11
 4.22373682506300E+0002
 21
 2.81295916726700E+0002
  0
LINE
  8
0
 10
 4.22373682506300E+0002
 20
 2.81295916726700E+0002
 11
 4.22403311667200E+0002
 21
 2.81308065004800E+0002
  0
LINE
  8
0
 10
 4.22403311667200E+0002
 20
 2.81308065004800E+0002
 11
 4.22432908492900E+0002
 21
 2.81320137006100E+0002
  0
LINE
  8
0
 10
 4.22432908492900E+0002
 20
 2.81320137006100E+0002
 11
 4.22462474700000E+0002
 21
 2.81332133300000E+0002
  0
LINE
  8
0
 10
 4.22462474700000E+0002
 20
 2.81332133300000E+0002
 11
 4.22492012005100E+0002
 21
 2.81344054455900E+0002
  0
LINE
  8
0
 10
 4.22492012005100E+0002
 20
 2.81344054455900E+0002
 11
 4.22521522124800E+0002
 21
 2.81355901043200E+0002
  0
LINE
  8
0
 10
 4.22521522124800E+0002
 20
 2.81355901043200E+0002
 11
 4.22551006775700E+0002
 21
 2.81367673631300E+0002
  0
LINE
  8
0
 10
 4.22551006775700E+0002
 20
 2.81367673631300E+0002
 11
 4.22580467674400E+0002
 21
 2.81379372789600E+0002
  0
LINE
  8
0
 10
 4.22580467674400E+0002
 20
 2.81379372789600E+0002
 11
 4.22609906537500E+0002
 21
 2.81390999087500E+0002
  0
LINE
  8
0
 10
 4.22609906537500E+0002
 20
 2.81390999087500E+0002
 11
 4.22639325081600E+0002
 21
 2.81402553094400E+0002
  0
LINE
  8
0
 10
 4.22639325081600E+0002
 20
 2.81402553094400E+0002
 11
 4.22668725023300E+0002
 21
 2.81414035379700E+0002
  0
LINE
  8
0
 10
 4.22668725023300E+0002
 20
 2.81414035379700E+0002
 11
 4.22698108079200E+0002
 21
 2.81425446512800E+0002
  0
LINE
  8
0
 10
 4.22698108079200E+0002
 20
 2.81425446512800E+0002
 11
 4.22727475965900E+0002
 21
 2.81436787063100E+0002
  0
LINE
  8
0
 10
 4.22727475965900E+0002
 20
 2.81436787063100E+0002
 11
 4.22756830400000E+0002
 21
 2.81448057600000E+0002
  0
LINE
  8
0
 10
 4.22756830400000E+0002
 20
 2.81448057600000E+0002
 11
 4.22786173098100E+0002
 21
 2.81459258692900E+0002
  0
LINE
  8
0
 10
 4.22786173098100E+0002
 20
 2.81459258692900E+0002
 11
 4.22815505776800E+0002
 21
 2.81470390911200E+0002
  0
LINE
  8
0
 10
 4.22815505776800E+0002
 20
 2.81470390911200E+0002
 11
 4.22844830152700E+0002
 21
 2.81481454824300E+0002
  0
LINE
  8
0
 10
 4.22844830152700E+0002
 20
 2.81481454824300E+0002
 11
 4.22874147942400E+0002
 21
 2.81492451001600E+0002
  0
LINE
  8
0
 10
 4.22874147942400E+0002
 20
 2.81492451001600E+0002
 11
 4.22903460862500E+0002
 21
 2.81503380012500E+0002
  0
LINE
  8
0
 10
 4.22903460862500E+0002
 20
 2.81503380012500E+0002
 11
 4.22932770629600E+0002
 21
 2.81514242426400E+0002
  0
LINE
  8
0
 10
 4.22932770629600E+0002
 20
 2.81514242426400E+0002
 11
 4.22962078960300E+0002
 21
 2.81525038812700E+0002
  0
LINE
  8
0
 10
 4.22962078960300E+0002
 20
 2.81525038812700E+0002
 11
 4.22991387571200E+0002
 21
 2.81535769740800E+0002
  0
LINE
  8
0
 10
 4.22991387571200E+0002
 20
 2.81535769740800E+0002
 11
 4.23020698178900E+0002
 21
 2.81546435780100E+0002
  0
LINE
  8
0
 10
 4.23020698178900E+0002
 20
 2.81546435780100E+0002
 11
 4.23050012500000E+0002
 21
 2.81557037500000E+0002
  0
LINE
  8
0
 10
 4.23050012500000E+0002
 20
 2.81557037500000E+0002
 11
 4.23079332251100E+0002
 21
 2.81567575469900E+0002
  0
LINE
  8
0
 10
 4.23079332251100E+0002
 20
 2.81567575469900E+0002
 11
 4.23108659148800E+0002
 21
 2.81578050259200E+0002
  0
LINE
  8
0
 10
 4.23108659148800E+0002
 20
 2.81578050259200E+0002
 11
 4.23137994909700E+0002
 21
 2.81588462437300E+0002
  0
LINE
  8
0
 10
 4.23137994909700E+0002
 20
 2.81588462437300E+0002
 11
 4.23167341250400E+0002
 21
 2.81598812573600E+0002
  0
LINE
  8
0
 10
 4.23167341250400E+0002
 20
 2.81598812573600E+0002
 11
 4.23196699887500E+0002
 21
 2.81609101237500E+0002
  0
LINE
  8
0
 10
 4.23196699887500E+0002
 20
 2.81609101237500E+0002
 11
 4.23226072537600E+0002
 21
 2.81619328998400E+0002
  0
LINE
  8
0
 10
 4.23226072537600E+0002
 20
 2.81619328998400E+0002
 11
 4.23255460917300E+0002
 21
 2.81629496425700E+0002
  0
LINE
  8
0
 10
 4.23255460917300E+0002
 20
 2.81629496425700E+0002
 11
 4.23284866743200E+0002
 21
 2.81639604088800E+0002
  0
LINE
  8
0
 10
 4.23284866743200E+0002
 20
 2.81639604088800E+0002
 11
 4.23314291731900E+0002
 21
 2.81649652557100E+0002
  0
LINE
  8
0
 10
 4.23314291731900E+0002
 20
 2.81649652557100E+0002
 11
 4.23343737600000E+0002
 21
 2.81659642400000E+0002
  0
LINE
  8
0
 10
 4.23343737600000E+0002
 20
 2.81659642400000E+0002
 11
 4.23373206064100E+0002
 21
 2.81669574186900E+0002
  0
LINE
  8
0
 10
 4.23373206064100E+0002
 20
 2.81669574186900E+0002
 11
 4.23402698840800E+0002
 21
 2.81679448487200E+0002
  0
LINE
  8
0
 10
 4.23402698840800E+0002
 20
 2.81679448487200E+0002
 11
 4.23432217646700E+0002
 21
 2.81689265870300E+0002
  0
LINE
  8
0
 10
 4.23432217646700E+0002
 20
 2.81689265870300E+0002
 11
 4.23461764198400E+0002
 21
 2.81699026905600E+0002
  0
LINE
  8
0
 10
 4.23461764198400E+0002
 20
 2.81699026905600E+0002
 11
 4.23491340212500E+0002
 21
 2.81708732162500E+0002
  0
LINE
  8
0
 10
 4.23491340212500E+0002
 20
 2.81708732162500E+0002
 11
 4.23520947405600E+0002
 21
 2.81718382210400E+0002
  0
LINE
  8
0
 10
 4.23520947405600E+0002
 20
 2.81718382210400E+0002
 11
 4.23550587494300E+0002
 21
 2.81727977618700E+0002
  0
LINE
  8
0
 10
 4.23550587494300E+0002
 20
 2.81727977618700E+0002
 11
 4.23580262195200E+0002
 21
 2.81737518956800E+0002
  0
LINE
  8
0
 10
 4.23580262195200E+0002
 20
 2.81737518956800E+0002
 11
 4.23609973224900E+0002
 21
 2.81747006794100E+0002
  0
LINE
  8
0
 10
 4.23609973224900E+0002
 20
 2.81747006794100E+0002
 11
 4.23639722300000E+0002
 21
 2.81756441700000E+0002
  0
LINE
  8
0
 10
 4.23639722300000E+0002
 20
 2.81756441700000E+0002
 11
 4.23669511137100E+0002
 21
 2.81765824243900E+0002
  0
LINE
  8
0
 10
 4.23669511137100E+0002
 20
 2.81765824243900E+0002
 11
 4.23699341452800E+0002
 21
 2.81775154995200E+0002
  0
LINE
  8
0
 10
 4.23699341452800E+0002
 20
 2.81775154995200E+0002
 11
 4.23729214963700E+0002
 21
 2.81784434523300E+0002
  0
LINE
  8
0
 10
 4.23729214963700E+0002
 20
 2.81784434523300E+0002
 11
 4.23759133386400E+0002
 21
 2.81793663397600E+0002
  0
LINE
  8
0
 10
 4.23759133386400E+0002
 20
 2.81793663397600E+0002
 11
 4.23789098437500E+0002
 21
 2.81802842187500E+0002
  0
LINE
  8
0
 10
 4.23789098437500E+0002
 20
 2.81802842187500E+0002
 11
 4.23819111833600E+0002
 21
 2.81811971462400E+0002
  0
LINE
  8
0
 10
 4.23819111833600E+0002
 20
 2.81811971462400E+0002
 11
 4.23849175291300E+0002
 21
 2.81821051791700E+0002
  0
LINE
  8
0
 10
 4.23849175291300E+0002
 20
 2.81821051791700E+0002
 11
 4.23879290527200E+0002
 21
 2.81830083744800E+0002
  0
LINE
  8
0
 10
 4.23879290527200E+0002
 20
 2.81830083744800E+0002
 11
 4.23909459257900E+0002
 21
 2.81839067891100E+0002
  0
LINE
  8
0
 10
 4.23909459257900E+0002
 20
 2.81839067891100E+0002
 11
 4.23939683200000E+0002
 21
 2.81848004800000E+0002
  0
LINE
  8
0
 10
 4.23939683200000E+0002
 20
 2.81848004800000E+0002
 11
 4.23969964070100E+0002
 21
 2.81856895040900E+0002
  0
LINE
  8
0
 10
 4.23969964070100E+0002
 20
 2.81856895040900E+0002
 11
 4.24000303584800E+0002
 21
 2.81865739183200E+0002
  0
LINE
  8
0
 10
 4.24000303584800E+0002
 20
 2.81865739183200E+0002
 11
 4.24030703460700E+0002
 21
 2.81874537796300E+0002
  0
LINE
  8
0
 10
 4.24030703460700E+0002
 20
 2.81874537796300E+0002
 11
 4.24061165414400E+0002
 21
 2.81883291449600E+0002
  0
LINE
  8
0
 10
 4.24061165414400E+0002
 20
 2.81883291449600E+0002
 11
 4.24091691162500E+0002
 21
 2.81892000712500E+0002
  0
LINE
  8
0
 10
 4.24091691162500E+0002
 20
 2.81892000712500E+0002
 11
 4.24122282421600E+0002
 21
 2.81900666154400E+0002
  0
LINE
  8
0
 10
 4.24122282421600E+0002
 20
 2.81900666154400E+0002
 11
 4.24152940908300E+0002
 21
 2.81909288344700E+0002
  0
LINE
  8
0
 10
 4.24152940908300E+0002
 20
 2.81909288344700E+0002
 11
 4.24183668339200E+0002
 21
 2.81917867852800E+0002
  0
LINE
  8
0
 10
 4.24183668339200E+0002
 20
 2.81917867852800E+0002
 11
 4.24214466430900E+0002
 21
 2.81926405248100E+0002
  0
LINE
  8
0
 10
 4.24214466430900E+0002
 20
 2.81926405248100E+0002
 11
 4.24245336900000E+0002
 21
 2.81934901100000E+0002
  0
LINE
  8
0
 10
 4.24245336900000E+0002
 20
 2.81934901100000E+0002
 11
 4.24276281463100E+0002
 21
 2.81943355977900E+0002
  0
LINE
  8
0
 10
 4.24276281463100E+0002
 20
 2.81943355977900E+0002
 11
 4.24307301836800E+0002
 21
 2.81951770451200E+0002
  0
LINE
  8
0
 10
 4.24307301836800E+0002
 20
 2.81951770451200E+0002
 11
 4.24338399737700E+0002
 21
 2.81960145089300E+0002
  0
LINE
  8
0
 10
 4.24338399737700E+0002
 20
 2.81960145089300E+0002
 11
 4.24369576882400E+0002
 21
 2.81968480461600E+0002
  0
LINE
  8
0
 10
 4.24369576882400E+0002
 20
 2.81968480461600E+0002
 11
 4.24400834987500E+0002
 21
 2.81976777137500E+0002
  0
LINE
  8
0
 10
 4.24400834987500E+0002
 20
 2.81976777137500E+0002
 11
 4.24432175769600E+0002
 21
 2.81985035686400E+0002
  0
LINE
  8
0
 10
 4.24432175769600E+0002
 20
 2.81985035686400E+0002
 11
 4.24463600945300E+0002
 21
 2.81993256677700E+0002
  0
LINE
  8
0
 10
 4.24463600945300E+0002
 20
 2.81993256677700E+0002
 11
 4.24495112231200E+0002
 21
 2.82001440680800E+0002
  0
LINE
  8
0
 10
 4.24495112231200E+0002
 20
 2.82001440680800E+0002
 11
 4.24526711343900E+0002
 21
 2.82009588265100E+0002
  0
LINE
  8
0
 10
 4.24526711343900E+0002
 20
 2.82009588265100E+0002
 11
 4.24558400000000E+0002
 21
 2.82017700000000E+0002
  0
LINE
  8
0
 10
 4.24558400000000E+0002
 20
 2.82017700000000E+0002
 11
 4.37330100000000E+0002
 21
 2.85001400000000E+0002
  0
LINE
  8
0
 10
 4.37330100000000E+0002
 20
 2.85001400000000E+0002
 11
 4.38436200000000E+0002
 21
 2.80214600000000E+0002
  0
LINE
  8
0
 10
 4.38436200000000E+0002
 20
 2.80214600000000E+0002
 11
 4.25663700000000E+0002
 21
 2.77230200000000E+0002
  0
LINE
  8
0
 10
 4.25663700000000E+0002
 20
 2.77230200000000E+0002
 11
 4.25636071197100E+0002
 21
 2.77223680811800E+0002
  0
LINE
  8
0
 10
 4.25636071197100E+0002
 20
 2.77223680811800E+0002
 11
 4.25608694616800E+0002
 21
 2.77217154974400E+0002
  0
LINE
  8
0
 10
 4.25608694616800E+0002
 20
 2.77217154974400E+0002
 11
 4.25581567001700E+0002
 21
 2.77210622078600E+0002
  0
LINE
  8
0
 10
 4.25581567001700E+0002
 20
 2.77210622078600E+0002
 11
 4.25554685094400E+0002
 21
 2.77204081715200E+0002
  0
LINE
  8
0
 10
 4.25554685094400E+0002
 20
 2.77204081715200E+0002
 11
 4.25528045637500E+0002
 21
 2.77197533475000E+0002
  0
LINE
  8
0
 10
 4.25528045637500E+0002
 20
 2.77197533475000E+0002
 11
 4.25501645373600E+0002
 21
 2.77190976948800E+0002
  0
LINE
  8
0
 10
 4.25501645373600E+0002
 20
 2.77190976948800E+0002
 11
 4.25475481045300E+0002
 21
 2.77184411727400E+0002
  0
LINE
  8
0
 10
 4.25475481045300E+0002
 20
 2.77184411727400E+0002
 11
 4.25449549395200E+0002
 21
 2.77177837401600E+0002
  0
LINE
  8
0
 10
 4.25449549395200E+0002
 20
 2.77177837401600E+0002
 11
 4.25423847165900E+0002
 21
 2.77171253562200E+0002
  0
LINE
  8
0
 10
 4.25423847165900E+0002
 20
 2.77171253562200E+0002
 11
 4.25398371100000E+0002
 21
 2.77164659800000E+0002
  0
LINE
  8
0
 10
 4.25398371100000E+0002
 20
 2.77164659800000E+0002
 11
 4.25373117940100E+0002
 21
 2.77158055705800E+0002
  0
LINE
  8
0
 10
 4.25373117940100E+0002
 20
 2.77158055705800E+0002
 11
 4.25348084428800E+0002
 21
 2.77151440870400E+0002
  0
LINE
  8
0
 10
 4.25348084428800E+0002
 20
 2.77151440870400E+0002
 11
 4.25323267308700E+0002
 21
 2.77144814884600E+0002
  0
LINE
  8
0
 10
 4.25323267308700E+0002
 20
 2.77144814884600E+0002
 11
 4.25298663322400E+0002
 21
 2.77138177339200E+0002
  0
LINE
  8
0
 10
 4.25298663322400E+0002
 20
 2.77138177339200E+0002
 11
 4.25274269212500E+0002
 21
 2.77131527825000E+0002
  0
LINE
  8
0
 10
 4.25274269212500E+0002
 20
 2.77131527825000E+0002
 11
 4.25250081721600E+0002
 21
 2.77124865932800E+0002
  0
LINE
  8
0
 10
 4.25250081721600E+0002
 20
 2.77124865932800E+0002
 11
 4.25226097592300E+0002
 21
 2.77118191253400E+0002
  0
LINE
  8
0
 10
 4.25226097592300E+0002
 20
 2.77118191253400E+0002
 11
 4.25202313567200E+0002
 21
 2.77111503377600E+0002
  0
LINE
  8
0
 10
 4.25202313567200E+0002
 20
 2.77111503377600E+0002
 11
 4.25178726388900E+0002
 21
 2.77104801896200E+0002
  0
LINE
  8
0
 10
 4.25178726388900E+0002
 20
 2.77104801896200E+0002
 11
 4.25155332800000E+0002
 21
 2.77098086400000E+0002
  0
LINE
  8
0
 10
 4.25155332800000E+0002
 20
 2.77098086400000E+0002
 11
 4.25132129543100E+0002
 21
 2.77091356479800E+0002
  0
LINE
  8
0
 10
 4.25132129543100E+0002
 20
 2.77091356479800E+0002
 11
 4.25109113360800E+0002
 21
 2.77084611726400E+0002
  0
LINE
  8
0
 10
 4.25109113360800E+0002
 20
 2.77084611726400E+0002
 11
 4.25086280995700E+0002
 21
 2.77077851730600E+0002
  0
LINE
  8
0
 10
 4.25086280995700E+0002
 20
 2.77077851730600E+0002
 11
 4.25063629190400E+0002
 21
 2.77071076083200E+0002
  0
LINE
  8
0
 10
 4.25063629190400E+0002
 20
 2.77071076083200E+0002
 11
 4.25041154687500E+0002
 21
 2.77064284375000E+0002
  0
LINE
  8
0
 10
 4.25041154687500E+0002
 20
 2.77064284375000E+0002
 11
 4.25018854229600E+0002
 21
 2.77057476196800E+0002
  0
LINE
  8
0
 10
 4.25018854229600E+0002
 20
 2.77057476196800E+0002
 11
 4.24996724559300E+0002
 21
 2.77050651139400E+0002
  0
LINE
  8
0
 10
 4.24996724559300E+0002
 20
 2.77050651139400E+0002
 11
 4.24974762419200E+0002
 21
 2.77043808793600E+0002
  0
LINE
  8
0
 10
 4.24974762419200E+0002
 20
 2.77043808793600E+0002
 11
 4.24952964551900E+0002
 21
 2.77036948750200E+0002
  0
LINE
  8
0
 10
 4.24952964551900E+0002
 20
 2.77036948750200E+0002
 11
 4.24931327700000E+0002
 21
 2.77030070600000E+0002
  0
LINE
  8
0
 10
 4.24931327700000E+0002
 20
 2.77030070600000E+0002
 11
 4.24909848606100E+0002
 21
 2.77023173933800E+0002
  0
LINE
  8
0
 10
 4.24909848606100E+0002
 20
 2.77023173933800E+0002
 11
 4.24888524012800E+0002
 21
 2.77016258342400E+0002
  0
LINE
  8
0
 10
 4.24888524012800E+0002
 20
 2.77016258342400E+0002
 11
 4.24867350662700E+0002
 21
 2.77009323416600E+0002
  0
LINE
  8
0
 10
 4.24867350662700E+0002
 20
 2.77009323416600E+0002
 11
 4.24846325298400E+0002
 21
 2.77002368747200E+0002
  0
LINE
  8
0
 10
 4.24846325298400E+0002
 20
 2.77002368747200E+0002
 11
 4.24825444662500E+0002
 21
 2.76995393925000E+0002
  0
LINE
  8
0
 10
 4.24825444662500E+0002
 20
 2.76995393925000E+0002
 11
 4.24804705497600E+0002
 21
 2.76988398540800E+0002
  0
LINE
  8
0
 10
 4.24804705497600E+0002
 20
 2.76988398540800E+0002
 11
 4.24784104546300E+0002
 21
 2.76981382185400E+0002
  0
LINE
  8
0
 10
 4.24784104546300E+0002
 20
 2.76981382185400E+0002
 11
 4.24763638551200E+0002
 21
 2.76974344449600E+0002
  0
LINE
  8
0
 10
 4.24763638551200E+0002
 20
 2.76974344449600E+0002
 11
 4.24743304254900E+0002
 21
 2.76967284924200E+0002
  0
LINE
  8
0
 10
 4.24743304254900E+0002
 20
 2.76967284924200E+0002
 11
 4.24723098400000E+0002
 21
 2.76960203200000E+0002
  0
LINE
  8
0
 10
 4.24723098400000E+0002
 20
 2.76960203200000E+0002
 11
 4.24703017729100E+0002
 21
 2.76953098867800E+0002
  0
LINE
  8
0
 10
 4.24703017729100E+0002
 20
 2.76953098867800E+0002
 11
 4.24683058984800E+0002
 21
 2.76945971518400E+0002
  0
LINE
  8
0
 10
 4.24683058984800E+0002
 20
 2.76945971518400E+0002
 11
 4.24663218909700E+0002
 21
 2.76938820742600E+0002
  0
LINE
  8
0
 10
 4.24663218909700E+0002
 20
 2.76938820742600E+0002
 11
 4.24643494246400E+0002
 21
 2.76931646131200E+0002
  0
LINE
  8
0
 10
 4.24643494246400E+0002
 20
 2.76931646131200E+0002
 11
 4.24623881737500E+0002
 21
 2.76924447275000E+0002
  0
LINE
  8
0
 10
 4.24623881737500E+0002
 20
 2.76924447275000E+0002
 11
 4.24604378125600E+0002
 21
 2.76917223764800E+0002
  0
LINE
  8
0
 10
 4.24604378125600E+0002
 20
 2.76917223764800E+0002
 11
 4.24584980153300E+0002
 21
 2.76909975191400E+0002
  0
LINE
  8
0
 10
 4.24584980153300E+0002
 20
 2.76909975191400E+0002
 11
 4.24565684563200E+0002
 21
 2.76902701145600E+0002
  0
LINE
  8
0
 10
 4.24565684563200E+0002
 20
 2.76902701145600E+0002
 11
 4.24546488097900E+0002
 21
 2.76895401218200E+0002
  0
LINE
  8
0
 10
 4.24546488097900E+0002
 20
 2.76895401218200E+0002
 11
 4.24527387500000E+0002
 21
 2.76888075000000E+0002
  0
LINE
  8
0
 10
 4.24527387500000E+0002
 20
 2.76888075000000E+0002
 11
 4.24508379512100E+0002
 21
 2.76880722081800E+0002
  0
LINE
  8
0
 10
 4.24508379512100E+0002
 20
 2.76880722081800E+0002
 11
 4.24489460876800E+0002
 21
 2.76873342054400E+0002
  0
LINE
  8
0
 10
 4.24489460876800E+0002
 20
 2.76873342054400E+0002
 11
 4.24470628336700E+0002
 21
 2.76865934508600E+0002
  0
LINE
  8
0
 10
 4.24470628336700E+0002
 20
 2.76865934508600E+0002
 11
 4.24451878634400E+0002
 21
 2.76858499035200E+0002
  0
LINE
  8
0
 10
 4.24451878634400E+0002
 20
 2.76858499035200E+0002
 11
 4.24433208512500E+0002
 21
 2.76851035225000E+0002
  0
LINE
  8
0
 10
 4.24433208512500E+0002
 20
 2.76851035225000E+0002
 11
 4.24414614713600E+0002
 21
 2.76843542668800E+0002
  0
LINE
  8
0
 10
 4.24414614713600E+0002
 20
 2.76843542668800E+0002
 11
 4.24396093980300E+0002
 21
 2.76836020957400E+0002
  0
LINE
  8
0
 10
 4.24396093980300E+0002
 20
 2.76836020957400E+0002
 11
 4.24377643055200E+0002
 21
 2.76828469681600E+0002
  0
LINE
  8
0
 10
 4.24377643055200E+0002
 20
 2.76828469681600E+0002
 11
 4.24359258680900E+0002
 21
 2.76820888432200E+0002
  0
LINE
  8
0
 10
 4.24359258680900E+0002
 20
 2.76820888432200E+0002
 11
 4.24340937600000E+0002
 21
 2.76813276800000E+0002
  0
LINE
  8
0
 10
 4.24340937600000E+0002
 20
 2.76813276800000E+0002
 11
 4.24322676555100E+0002
 21
 2.76805634375800E+0002
  0
LINE
  8
0
 10
 4.24322676555100E+0002
 20
 2.76805634375800E+0002
 11
 4.24304472288800E+0002
 21
 2.76797960750400E+0002
  0
LINE
  8
0
 10
 4.24304472288800E+0002
 20
 2.76797960750400E+0002
 11
 4.24286321543700E+0002
 21
 2.76790255514600E+0002
  0
LINE
  8
0
 10
 4.24286321543700E+0002
 20
 2.76790255514600E+0002
 11
 4.24268221062400E+0002
 21
 2.76782518259200E+0002
  0
LINE
  8
0
 10
 4.24268221062400E+0002
 20
 2.76782518259200E+0002
 11
 4.24250167587500E+0002
 21
 2.76774748575000E+0002
  0
LINE
  8
0
 10
 4.24250167587500E+0002
 20
 2.76774748575000E+0002
 11
 4.24232157861600E+0002
 21
 2.76766946052800E+0002
  0
LINE
  8
0
 10
 4.24232157861600E+0002
 20
 2.76766946052800E+0002
 11
 4.24214188627300E+0002
 21
 2.76759110283400E+0002
  0
LINE
  8
0
 10
 4.24214188627300E+0002
 20
 2.76759110283400E+0002
 11
 4.24196256627200E+0002
 21
 2.76751240857600E+0002
  0
LINE
  8
0
 10
 4.24196256627200E+0002
 20
 2.76751240857600E+0002
 11
 4.24178358603900E+0002
 21
 2.76743337366200E+0002
  0
LINE
  8
0
 10
 4.24178358603900E+0002
 20
 2.76743337366200E+0002
 11
 4.24160491300000E+0002
 21
 2.76735399400000E+0002
  0
LINE
  8
0
 10
 4.24160491300000E+0002
 20
 2.76735399400000E+0002
 11
 4.24142651458100E+0002
 21
 2.76727426549800E+0002
  0
LINE
  8
0
 10
 4.24142651458100E+0002
 20
 2.76727426549800E+0002
 11
 4.24124835820800E+0002
 21
 2.76719418406400E+0002
  0
LINE
  8
0
 10
 4.24124835820800E+0002
 20
 2.76719418406400E+0002
 11
 4.24107041130700E+0002
 21
 2.76711374560600E+0002
  0
LINE
  8
0
 10
 4.24107041130700E+0002
 20
 2.76711374560600E+0002
 11
 4.24089264130400E+0002
 21
 2.76703294603200E+0002
  0
LINE
  8
0
 10
 4.24089264130400E+0002
 20
 2.76703294603200E+0002
 11
 4.24071501562500E+0002
 21
 2.76695178125000E+0002
  0
LINE
  8
0
 10
 4.24071501562500E+0002
 20
 2.76695178125000E+0002
 11
 4.24053750169600E+0002
 21
 2.76687024716800E+0002
  0
LINE
  8
0
 10
 4.24053750169600E+0002
 20
 2.76687024716800E+0002
 11
 4.24036006694300E+0002
 21
 2.76678833969400E+0002
  0
LINE
  8
0
 10
 4.24036006694300E+0002
 20
 2.76678833969400E+0002
 11
 4.24018267879200E+0002
 21
 2.76670605473600E+0002
  0
LINE
  8
0
 10
 4.24018267879200E+0002
 20
 2.76670605473600E+0002
 11
 4.24000530466900E+0002
 21
 2.76662338820200E+0002
  0
LINE
  8
0
 10
 4.24000530466900E+0002
 20
 2.76662338820200E+0002
 11
 4.23982791200000E+0002
 21
 2.76654033600000E+0002
  0
LINE
  8
0
 10
 4.23982791200000E+0002
 20
 2.76654033600000E+0002
 11
 4.23965046821100E+0002
 21
 2.76645689403800E+0002
  0
LINE
  8
0
 10
 4.23965046821100E+0002
 20
 2.76645689403800E+0002
 11
 4.23947294072800E+0002
 21
 2.76637305822400E+0002
  0
LINE
  8
0
 10
 4.23947294072800E+0002
 20
 2.76637305822400E+0002
 11
 4.23929529697700E+0002
 21
 2.76628882446600E+0002
  0
LINE
  8
0
 10
 4.23929529697700E+0002
 20
 2.76628882446600E+0002
 11
 4.23911750438400E+0002
 21
 2.76620418867200E+0002
  0
LINE
  8
0
 10
 4.23911750438400E+0002
 20
 2.76620418867200E+0002
 11
 4.23893953037500E+0002
 21
 2.76611914675000E+0002
  0
LINE
  8
0
 10
 4.23893953037500E+0002
 20
 2.76611914675000E+0002
 11
 4.23876134237600E+0002
 21
 2.76603369460800E+0002
  0
LINE
  8
0
 10
 4.23876134237600E+0002
 20
 2.76603369460800E+0002
 11
 4.23858290781300E+0002
 21
 2.76594782815400E+0002
  0
LINE
  8
0
 10
 4.23858290781300E+0002
 20
 2.76594782815400E+0002
 11
 4.23840419411200E+0002
 21
 2.76586154329600E+0002
  0
LINE
  8
0
 10
 4.23840419411200E+0002
 20
 2.76586154329600E+0002
 11
 4.23822516869900E+0002
 21
 2.76577483594200E+0002
  0
LINE
  8
0
 10
 4.23822516869900E+0002
 20
 2.76577483594200E+0002
 11
 4.23804579900000E+0002
 21
 2.76568770200000E+0002
  0
LINE
  8
0
 10
 4.23804579900000E+0002
 20
 2.76568770200000E+0002
 11
 4.23786605244100E+0002
 21
 2.76560013737800E+0002
  0
LINE
  8
0
 10
 4.23786605244100E+0002
 20
 2.76560013737800E+0002
 11
 4.23768589644800E+0002
 21
 2.76551213798400E+0002
  0
LINE
  8
0
 10
 4.23768589644800E+0002
 20
 2.76551213798400E+0002
 11
 4.23750529844700E+0002
 21
 2.76542369972600E+0002
  0
LINE
  8
0
 10
 4.23750529844700E+0002
 20
 2.76542369972600E+0002
 11
 4.23732422586400E+0002
 21
 2.76533481851200E+0002
  0
LINE
  8
0
 10
 4.23732422586400E+0002
 20
 2.76533481851200E+0002
 11
 4.23714264612500E+0002
 21
 2.76524549025000E+0002
  0
LINE
  8
0
 10
 4.23714264612500E+0002
 20
 2.76524549025000E+0002
 11
 4.23696052665600E+0002
 21
 2.76515571084800E+0002
  0
LINE
  8
0
 10
 4.23696052665600E+0002
 20
 2.76515571084800E+0002
 11
 4.23677783488300E+0002
 21
 2.76506547621400E+0002
  0
LINE
  8
0
 10
 4.23677783488300E+0002
 20
 2.76506547621400E+0002
 11
 4.23659453823200E+0002
 21
 2.76497478225600E+0002
  0
LINE
  8
0
 10
 4.23659453823200E+0002
 20
 2.76497478225600E+0002
 11
 4.23641060412900E+0002
 21
 2.76488362488200E+0002
  0
LINE
  8
0
 10
 4.23641060412900E+0002
 20
 2.76488362488200E+0002
 11
 4.23622600000000E+0002
 21
 2.76479200000000E+0002
  0
LINE
  8
0
 10
 4.23622600000000E+0002
 20
 2.76479200000000E+0002
 11
 4.23622600000000E+0002
 21
 2.76479200000000E+0002
  0
LINE
  8
0
 10
 4.23622600000000E+0002
 20
 2.76479200000000E+0002
 11
 4.23484165838000E+0002
 21
 2.76413512902600E+0002
  0
LINE
  8
0
 10
 4.23484165838000E+0002
 20
 2.76413512902600E+0002
 11
 4.23345160584000E+0002
 21
 2.76348469740800E+0002
  0
LINE
  8
0
 10
 4.23345160584000E+0002
 20
 2.76348469740800E+0002
 11
 4.23205589086000E+0002
 21
 2.76284070710200E+0002
  0
LINE
  8
0
 10
 4.23205589086000E+0002
 20
 2.76284070710200E+0002
 11
 4.23065456192000E+0002
 21
 2.76220316006400E+0002
  0
LINE
  8
0
 10
 4.23065456192000E+0002
 20
 2.76220316006400E+0002
 11
 4.22924766750000E+0002
 21
 2.76157205825000E+0002
  0
LINE
  8
0
 10
 4.22924766750000E+0002
 20
 2.76157205825000E+0002
 11
 4.22783525608000E+0002
 21
 2.76094740361600E+0002
  0
LINE
  8
0
 10
 4.22783525608000E+0002
 20
 2.76094740361600E+0002
 11
 4.22641737614000E+0002
 21
 2.76032919811800E+0002
  0
LINE
  8
0
 10
 4.22641737614000E+0002
 20
 2.76032919811800E+0002
 11
 4.22499407616000E+0002
 21
 2.75971744371200E+0002
  0
LINE
  8
0
 10
 4.22499407616000E+0002
 20
 2.75971744371200E+0002
 11
 4.22356540462000E+0002
 21
 2.75911214235400E+0002
  0
LINE
  8
0
 10
 4.22356540462000E+0002
 20
 2.75911214235400E+0002
 11
 4.22213141000000E+0002
 21
 2.75851329600000E+0002
  0
LINE
  8
0
 10
 4.22213141000000E+0002
 20
 2.75851329600000E+0002
 11
 4.22069214078000E+0002
 21
 2.75792090660600E+0002
  0
LINE
  8
0
 10
 4.22069214078000E+0002
 20
 2.75792090660600E+0002
 11
 4.21924764544000E+0002
 21
 2.75733497612800E+0002
  0
LINE
  8
0
 10
 4.21924764544000E+0002
 20
 2.75733497612800E+0002
 11
 4.21779797246000E+0002
 21
 2.75675550652200E+0002
  0
LINE
  8
0
 10
 4.21779797246000E+0002
 20
 2.75675550652200E+0002
 11
 4.21634317032000E+0002
 21
 2.75618249974400E+0002
  0
LINE
  8
0
 10
 4.21634317032000E+0002
 20
 2.75618249974400E+0002
 11
 4.21488328750000E+0002
 21
 2.75561595775000E+0002
  0
LINE
  8
0
 10
 4.21488328750000E+0002
 20
 2.75561595775000E+0002
 11
 4.21341837248000E+0002
 21
 2.75505588249600E+0002
  0
LINE
  8
0
 10
 4.21341837248000E+0002
 20
 2.75505588249600E+0002
 11
 4.21194847374000E+0002
 21
 2.75450227593800E+0002
  0
LINE
  8
0
 10
 4.21194847374000E+0002
 20
 2.75450227593800E+0002
 11
 4.21047363976000E+0002
 21
 2.75395514003200E+0002
  0
LINE
  8
0
 10
 4.21047363976000E+0002
 20
 2.75395514003200E+0002
 11
 4.20899391902000E+0002
 21
 2.75341447673400E+0002
  0
LINE
  8
0
 10
 4.20899391902000E+0002
 20
 2.75341447673400E+0002
 11
 4.20750936000000E+0002
 21
 2.75288028800000E+0002
  0
LINE
  8
0
 10
 4.20750936000000E+0002
 20
 2.75288028800000E+0002
 11
 4.20602001118000E+0002
 21
 2.75235257578600E+0002
  0
LINE
  8
0
 10
 4.20602001118000E+0002
 20
 2.75235257578600E+0002
 11
 4.20452592104000E+0002
 21
 2.75183134204800E+0002
  0
LINE
  8
0
 10
 4.20452592104000E+0002
 20
 2.75183134204800E+0002
 11
 4.20302713806000E+0002
 21
 2.75131658874200E+0002
  0
LINE
  8
0
 10
 4.20302713806000E+0002
 20
 2.75131658874200E+0002
 11
 4.20152371072000E+0002
 21
 2.75080831782400E+0002
  0
LINE
  8
0
 10
 4.20152371072000E+0002
 20
 2.75080831782400E+0002
 11
 4.20001568750000E+0002
 21
 2.75030653125000E+0002
  0
LINE
  8
0
 10
 4.20001568750000E+0002
 20
 2.75030653125000E+0002
 11
 4.19850311688000E+0002
 21
 2.74981123097600E+0002
  0
LINE
  8
0
 10
 4.19850311688000E+0002
 20
 2.74981123097600E+0002
 11
 4.19698604734000E+0002
 21
 2.74932241895800E+0002
  0
LINE
  8
0
 10
 4.19698604734000E+0002
 20
 2.74932241895800E+0002
 11
 4.19546452736000E+0002
 21
 2.74884009715200E+0002
  0
LINE
  8
0
 10
 4.19546452736000E+0002
 20
 2.74884009715200E+0002
 11
 4.19393860542000E+0002
 21
 2.74836426751400E+0002
  0
LINE
  8
0
 10
 4.19393860542000E+0002
 20
 2.74836426751400E+0002
 11
 4.19240833000000E+0002
 21
 2.74789493200000E+0002
  0
LINE
  8
0
 10
 4.19240833000000E+0002
 20
 2.74789493200000E+0002
 11
 4.19087374958000E+0002
 21
 2.74743209256600E+0002
  0
LINE
  8
0
 10
 4.19087374958000E+0002
 20
 2.74743209256600E+0002
 11
 4.18933491264000E+0002
 21
 2.74697575116800E+0002
  0
LINE
  8
0
 10
 4.18933491264000E+0002
 20
 2.74697575116800E+0002
 11
 4.18779186766000E+0002
 21
 2.74652590976200E+0002
  0
LINE
  8
0
 10
 4.18779186766000E+0002
 20
 2.74652590976200E+0002
 11
 4.18624466312000E+0002
 21
 2.74608257030400E+0002
  0
LINE
  8
0
 10
 4.18624466312000E+0002
 20
 2.74608257030400E+0002
 11
 4.18469334750000E+0002
 21
 2.74564573475000E+0002
  0
LINE
  8
0
 10
 4.18469334750000E+0002
 20
 2.74564573475000E+0002
 11
 4.18313796928000E+0002
 21
 2.74521540505600E+0002
  0
LINE
  8
0
 10
 4.18313796928000E+0002
 20
 2.74521540505600E+0002
 11
 4.18157857694000E+0002
 21
 2.74479158317800E+0002
  0
LINE
  8
0
 10
 4.18157857694000E+0002
 20
 2.74479158317800E+0002
 11
 4.18001521896000E+0002
 21
 2.74437427107200E+0002
  0
LINE
  8
0
 10
 4.18001521896000E+0002
 20
 2.74437427107200E+0002
 11
 4.17844794382000E+0002
 21
 2.74396347069400E+0002
  0
LINE
  8
0
 10
 4.17844794382000E+0002
 20
 2.74396347069400E+0002
 11
 4.17687680000000E+0002
 21
 2.74355918400000E+0002
  0
LINE
  8
0
 10
 4.17687680000000E+0002
 20
 2.74355918400000E+0002
 11
 4.17530183598000E+0002
 21
 2.74316141294600E+0002
  0
LINE
  8
0
 10
 4.17530183598000E+0002
 20
 2.74316141294600E+0002
 11
 4.17372310024000E+0002
 21
 2.74277015948800E+0002
  0
LINE
  8
0
 10
 4.17372310024000E+0002
 20
 2.74277015948800E+0002
 11
 4.17214064126000E+0002
 21
 2.74238542558200E+0002
  0
LINE
  8
0
 10
 4.17214064126000E+0002
 20
 2.74238542558200E+0002
 11
 4.17055450752000E+0002
 21
 2.74200721318400E+0002
  0
LINE
  8
0
 10
 4.17055450752000E+0002
 20
 2.74200721318400E+0002
 11
 4.16896474750000E+0002
 21
 2.74163552425000E+0002
  0
LINE
  8
0
 10
 4.16896474750000E+0002
 20
 2.74163552425000E+0002
 11
 4.16737140968000E+0002
 21
 2.74127036073600E+0002
  0
LINE
  8
0
 10
 4.16737140968000E+0002
 20
 2.74127036073600E+0002
 11
 4.16577454254000E+0002
 21
 2.74091172459800E+0002
  0
LINE
  8
0
 10
 4.16577454254000E+0002
 20
 2.74091172459800E+0002
 11
 4.16417419456000E+0002
 21
 2.74055961779200E+0002
  0
LINE
  8
0
 10
 4.16417419456000E+0002
 20
 2.74055961779200E+0002
 11
 4.16257041422000E+0002
 21
 2.74021404227400E+0002
  0
LINE
  8
0
 10
 4.16257041422000E+0002
 20
 2.74021404227400E+0002
 11
 4.16096325000000E+0002
 21
 2.73987500000000E+0002
  0
LINE
  8
0
 10
 4.16096325000000E+0002
 20
 2.73987500000000E+0002
 11
 4.15935275038000E+0002
 21
 2.73954249292600E+0002
  0
LINE
  8
0
 10
 4.15935275038000E+0002
 20
 2.73954249292600E+0002
 11
 4.15773896384000E+0002
 21
 2.73921652300800E+0002
  0
LINE
  8
0
 10
 4.15773896384000E+0002
 20
 2.73921652300800E+0002
 11
 4.15612193886000E+0002
 21
 2.73889709220200E+0002
  0
LINE
  8
0
 10
 4.15612193886000E+0002
 20
 2.73889709220200E+0002
 11
 4.15450172392000E+0002
 21
 2.73858420246400E+0002
  0
LINE
  8
0
 10
 4.15450172392000E+0002
 20
 2.73858420246400E+0002
 11
 4.15287836750000E+0002
 21
 2.73827785575000E+0002
  0
LINE
  8
0
 10
 4.15287836750000E+0002
 20
 2.73827785575000E+0002
 11
 4.15125191808000E+0002
 21
 2.73797805401600E+0002
  0
LINE
  8
0
 10
 4.15125191808000E+0002
 20
 2.73797805401600E+0002
 11
 4.14962242414000E+0002
 21
 2.73768479921800E+0002
  0
LINE
  8
0
 10
 4.14962242414000E+0002
 20
 2.73768479921800E+0002
 11
 4.14798993416000E+0002
 21
 2.73739809331200E+0002
  0
LINE
  8
0
 10
 4.14798993416000E+0002
 20
 2.73739809331200E+0002
 11
 4.14635449662000E+0002
 21
 2.73711793825400E+0002
  0
LINE
  8
0
 10
 4.14635449662000E+0002
 20
 2.73711793825400E+0002
 11
 4.14471616000000E+0002
 21
 2.73684433600000E+0002
  0
LINE
  8
0
 10
 4.14471616000000E+0002
 20
 2.73684433600000E+0002
 11
 4.14307497278000E+0002
 21
 2.73657728850600E+0002
  0
LINE
  8
0
 10
 4.14307497278000E+0002
 20
 2.73657728850600E+0002
 11
 4.14143098344000E+0002
 21
 2.73631679772800E+0002
  0
LINE
  8
0
 10
 4.14143098344000E+0002
 20
 2.73631679772800E+0002
 11
 4.13978424046000E+0002
 21
 2.73606286562200E+0002
  0
LINE
  8
0
 10
 4.13978424046000E+0002
 20
 2.73606286562200E+0002
 11
 4.13813479232000E+0002
 21
 2.73581549414400E+0002
  0
LINE
  8
0
 10
 4.13813479232000E+0002
 20
 2.73581549414400E+0002
 11
 4.13648268750000E+0002
 21
 2.73557468525000E+0002
  0
LINE
  8
0
 10
 4.13648268750000E+0002
 20
 2.73557468525000E+0002
 11
 4.13482797448000E+0002
 21
 2.73534044089600E+0002
  0
LINE
  8
0
 10
 4.13482797448000E+0002
 20
 2.73534044089600E+0002
 11
 4.13317070174000E+0002
 21
 2.73511276303800E+0002
  0
LINE
  8
0
 10
 4.13317070174000E+0002
 20
 2.73511276303800E+0002
 11
 4.13151091776000E+0002
 21
 2.73489165363200E+0002
  0
LINE
  8
0
 10
 4.13151091776000E+0002
 20
 2.73489165363200E+0002
 11
 4.12984867102000E+0002
 21
 2.73467711463400E+0002
  0
LINE
  8
0
 10
 4.12984867102000E+0002
 20
 2.73467711463400E+0002
 11
 4.12818401000000E+0002
 21
 2.73446914800000E+0002
  0
LINE
  8
0
 10
 4.12818401000000E+0002
 20
 2.73446914800000E+0002
 11
 4.12651698318000E+0002
 21
 2.73426775568600E+0002
  0
LINE
  8
0
 10
 4.12651698318000E+0002
 20
 2.73426775568600E+0002
 11
 4.12484763904000E+0002
 21
 2.73407293964800E+0002
  0
LINE
  8
0
 10
 4.12484763904000E+0002
 20
 2.73407293964800E+0002
 11
 4.12317602606000E+0002
 21
 2.73388470184200E+0002
  0
LINE
  8
0
 10
 4.12317602606000E+0002
 20
 2.73388470184200E+0002
 11
 4.12150219272000E+0002
 21
 2.73370304422400E+0002
  0
LINE
  8
0
 10
 4.12150219272000E+0002
 20
 2.73370304422400E+0002
 11
 4.11982618750000E+0002
 21
 2.73352796875000E+0002
  0
LINE
  8
0
 10
 4.11982618750000E+0002
 20
 2.73352796875000E+0002
 11
 4.11814805888000E+0002
 21
 2.73335947737600E+0002
  0
LINE
  8
0
 10
 4.11814805888000E+0002
 20
 2.73335947737600E+0002
 11
 4.11646785534000E+0002
 21
 2.73319757205800E+0002
  0
LINE
  8
0
 10
 4.11646785534000E+0002
 20
 2.73319757205800E+0002
 11
 4.11478562536000E+0002
 21
 2.73304225475200E+0002
  0
LINE
  8
0
 10
 4.11478562536000E+0002
 20
 2.73304225475200E+0002
 11
 4.11310141742000E+0002
 21
 2.73289352741400E+0002
  0
LINE
  8
0
 10
 4.11310141742000E+0002
 20
 2.73289352741400E+0002
 11
 4.11141528000000E+0002
 21
 2.73275139200000E+0002
  0
LINE
  8
0
 10
 4.11141528000000E+0002
 20
 2.73275139200000E+0002
 11
 4.10972726158000E+0002
 21
 2.73261585046600E+0002
  0
LINE
  8
0
 10
 4.10972726158000E+0002
 20
 2.73261585046600E+0002
 11
 4.10803741064000E+0002
 21
 2.73248690476800E+0002
  0
LINE
  8
0
 10
 4.10803741064000E+0002
 20
 2.73248690476800E+0002
 11
 4.10634577566000E+0002
 21
 2.73236455686200E+0002
  0
LINE
  8
0
 10
 4.10634577566000E+0002
 20
 2.73236455686200E+0002
 11
 4.10465240512000E+0002
 21
 2.73224880870400E+0002
  0
LINE
  8
0
 10
 4.10465240512000E+0002
 20
 2.73224880870400E+0002
 11
 4.10295734750000E+0002
 21
 2.73213966225000E+0002
  0
LINE
  8
0
 10
 4.10295734750000E+0002
 20
 2.73213966225000E+0002
 11
 4.10126065128000E+0002
 21
 2.73203711945600E+0002
  0
LINE
  8
0
 10
 4.10126065128000E+0002
 20
 2.73203711945600E+0002
 11
 4.09956236494000E+0002
 21
 2.73194118227800E+0002
  0
LINE
  8
0
 10
 4.09956236494000E+0002
 20
 2.73194118227800E+0002
 11
 4.09786253696000E+0002
 21
 2.73185185267200E+0002
  0
LINE
  8
0
 10
 4.09786253696000E+0002
 20
 2.73185185267200E+0002
 11
 4.09616121582000E+0002
 21
 2.73176913259400E+0002
  0
LINE
  8
0
 10
 4.09616121582000E+0002
 20
 2.73176913259400E+0002
 11
 4.09445845000000E+0002
 21
 2.73169302400000E+0002
  0
LINE
  8
0
 10
 4.09445845000000E+0002
 20
 2.73169302400000E+0002
 11
 4.09275428798000E+0002
 21
 2.73162352884600E+0002
  0
LINE
  8
0
 10
 4.09275428798000E+0002
 20
 2.73162352884600E+0002
 11
 4.09104877824000E+0002
 21
 2.73156064908800E+0002
  0
LINE
  8
0
 10
 4.09104877824000E+0002
 20
 2.73156064908800E+0002
 11
 4.08934196926000E+0002
 21
 2.73150438668200E+0002
  0
LINE
  8
0
 10
 4.08934196926000E+0002
 20
 2.73150438668200E+0002
 11
 4.08763390952000E+0002
 21
 2.73145474358400E+0002
  0
LINE
  8
0
 10
 4.08763390952000E+0002
 20
 2.73145474358400E+0002
 11
 4.08592464750000E+0002
 21
 2.73141172175000E+0002
  0
LINE
  8
0
 10
 4.08592464750000E+0002
 20
 2.73141172175000E+0002
 11
 4.08421423168000E+0002
 21
 2.73137532313600E+0002
  0
LINE
  8
0
 10
 4.08421423168000E+0002
 20
 2.73137532313600E+0002
 11
 4.08250271054000E+0002
 21
 2.73134554969800E+0002
  0
LINE
  8
0
 10
 4.08250271054000E+0002
 20
 2.73134554969800E+0002
 11
 4.08079013256000E+0002
 21
 2.73132240339200E+0002
  0
LINE
  8
0
 10
 4.08079013256000E+0002
 20
 2.73132240339200E+0002
 11
 4.07907654622000E+0002
 21
 2.73130588617400E+0002
  0
LINE
  8
0
 10
 4.07907654622000E+0002
 20
 2.73130588617400E+0002
 11
 4.07736200000000E+0002
 21
 2.73129600000000E+0002
  0
LINE
  8
0
 10
 4.07736200000000E+0002
 20
 2.73129600000000E+0002
 11
 4.04867500000000E+0002
 21
 2.73129500000000E+0002
  0
LINE
  8
0
 10
 4.04867500000000E+0002
 20
 2.73129500000000E+0002
 11
 4.04867500000000E+0002
 21
 2.68217000000000E+0002
  0
LINE
  8
0
 10
 4.04867500000000E+0002
 20
 2.68217000000000E+0002
 11
 3.89311200000000E+0002
 21
 2.68217000000000E+0002
  0
LINE
  8
0
 10
 3.89311200000000E+0002
 20
 2.68217000000000E+0002
 11
 3.89311200000000E+0002
 21
 2.73129500000000E+0002
  0
LINE
  8
0
 10
 3.89311200000000E+0002
 20
 2.73129500000000E+0002
 11
 3.87264300000000E+0002
 21
 2.73129500000000E+0002
  0
LINE
  8
0
 10
 3.95559700000000E+0002
 20
 3.92566300000000E+0002
 11
 3.99450000000000E+0002
 21
 3.92600000000000E+0002
  0
ARC
  8
0
 10
 3.99450000000000E+0002
 20
 3.90650000000000E+0002
 40
 1.95000000000000E+0000
 50
 0.00000000000000E+0000
 51
 9.00000000000000E+0001
  0
LINE
  8
0
 10
 4.01400000000000E+0002
 20
 3.90650000000000E+0002
 11
 4.01377100000000E+0002
 21
 3.56799800000000E+0002
  0
LINE
  8
0
 10
 4.01377100000000E+0002
 20
 3.56799800000000E+0002
 11
 4.03962600000000E+0002
 21
 3.56799800000000E+0002
  0
LINE
  8
0
 10
 4.03962600000000E+0002
 20
 3.56799800000000E+0002
 11
 4.03962600000000E+0002
 21
 3.77053100000000E+0002
  0
LINE
  8
0
 10
 4.03962600000000E+0002
 20
 3.77053100000000E+0002
 11
 4.06979100000000E+0002
 21
 3.77053100000000E+0002
  0
LINE
  8
0
 10
 4.06979100000000E+0002
 20
 3.77053100000000E+0002
 11
 4.06979100000000E+0002
 21
 3.75329400000000E+0002
  0
LINE
  8
0
 10
 4.06979100000000E+0002
 20
 3.75329400000000E+0002
 11
 4.19044900000000E+0002
 21
 3.75329400000000E+0002
  0
LINE
  8
0
 10
 4.19044900000000E+0002
 20
 3.75329400000000E+0002
 11
 4.19044900000000E+0002
 21
 3.72313000000000E+0002
  0
LINE
  8
0
 10
 4.19044900000000E+0002
 20
 3.72313000000000E+0002
 11
 4.06979100000000E+0002
 21
 3.72313000000000E+0002
  0
LINE
  8
0
 10
 4.06979100000000E+0002
 20
 3.72313000000000E+0002
 11
 4.06979100000000E+0002
 21
 3.56799800000000E+0002
  0
LINE
  8
0
 10
 4.06979100000000E+0002
 20
 3.56799800000000E+0002
 11
 4.06979100000000E+0002
 21
 3.50766900000000E+0002
  0
LINE
  8
0
 10
 4.06979100000000E+0002
 20
 3.50766900000000E+0002
 11
 4.01377100000000E+0002
 21
 3.50766900000000E+0002
  0
LINE
  8
0
 10
 4.01377100000000E+0002
 20
 3.50766900000000E+0002
 11
 4.01400000000000E+0002
 21
 3.16950000000000E+0002
  0
ARC
  8
0
 10
 3.99450000000000E+0002
 20
 3.16950000000000E+0002
 40
 1.95000000000000E+0000
 50
 2.70005000000000E+0002
 51
 3.60000000000000E+0002
  0
LINE
  8
0
 10
 3.99450170169602E+0002
 20
 3.15000000007425E+0002
 11
 3.95550000000000E+0002
 21
 3.15000000000000E+0002
  0
ARC
  8
0
 10
 3.95550000000000E+0002
 20
 3.16950000000000E+0002
 40
 1.95000000000000E+0000
 50
 1.79995000000000E+0002
 51
 2.70000000000000E+0002
  0
LINE
  8
0
 10
 3.93600000007425E+0002
 20
 3.16950170169602E+0002
 11
 3.93620500000000E+0002
 21
 3.50766900000000E+0002
  0
LINE
  8
0
 10
 3.93620500000000E+0002
 20
 3.50766900000000E+0002
 11
 3.91035000000000E+0002
 21
 3.50766900000000E+0002
  0
LINE
  8
0
 10
 3.91035000000000E+0002
 20
 3.50766900000000E+0002
 11
 3.91035000000000E+0002
 21
 3.30513700000000E+0002
  0
LINE
  8
0
 10
 3.91035000000000E+0002
 20
 3.30513700000000E+0002
 11
 3.88018500000000E+0002
 21
 3.30513700000000E+0002
  0
LINE
  8
0
 10
 3.88018500000000E+0002
 20
 3.30513700000000E+0002
 11
 3.88018500000000E+0002
 21
 3.32237300000000E+0002
  0
LINE
  8
0
 10
 3.88018500000000E+0002
 20
 3.32237300000000E+0002
 11
 3.75952700000000E+0002
 21
 3.32237300000000E+0002
  0
LINE
  8
0
 10
 3.75952700000000E+0002
 20
 3.32237300000000E+0002
 11
 3.75952700000000E+0002
 21
 3.35253800000000E+0002
  0
LINE
  8
0
 10
 3.75952700000000E+0002
 20
 3.35253800000000E+0002
 11
 3.88018500000000E+0002
 21
 3.35253800000000E+0002
  0
LINE
  8
0
 10
 3.88018500000000E+0002
 20
 3.35253800000000E+0002
 11
 3.88018500000000E+0002
 21
 3.53783400000000E+0002
  0
LINE
  8
0
 10
 3.88018500000000E+0002
 20
 3.53783400000000E+0002
 11
 3.88018500000000E+0002
 21
 3.56799800000000E+0002
  0
LINE
  8
0
 10
 3.88018500000000E+0002
 20
 3.56799800000000E+0002
 11
 3.93620500000000E+0002
 21
 3.56799800000000E+0002
  0
LINE
  8
0
 10
 3.93620500000000E+0002
 20
 3.56799800000000E+0002
 11
 3.93600000000000E+0002
 21
 3.90650000000000E+0002
  0
ARC
  8
0
 10
 3.95550000000000E+0002
 20
 3.90650000000000E+0002
 40
 1.95000000000000E+0000
 50
 9.00000000000000E+0001
 51
 1.80000000000000E+0002
  0
LINE
  8
0
 10
 3.83278400000000E+0002
 20
 4.03770200000000E+0002
 11
 4.11700000000000E+0002
 21
 4.03750000000000E+0002
  0
ARC
  8
0
 10
 4.11700000000000E+0002
 20
 4.01600000000000E+0002
 40
 2.15000000000000E+0000
 50
 0.00000000000000E+0000
 51
 9.00000000000000E+0001
  0
LINE
  8
0
 10
 4.13850000000000E+0002
 20
 4.01600000000000E+0002
 11
 4.13873800000000E+0002
 21
 3.97012400000000E+0002
  0
LINE
  8
0
 10
 4.13873800000000E+0002
 20
 3.97012400000000E+0002
 11
 4.13873800000000E+0002
 21
 3.95151800000000E+0002
  0
LINE
  8
0
 10
 4.13873800000000E+0002
 20
 3.95151800000000E+0002
 11
 4.12581000000000E+0002
 21
 3.57230800000000E+0002
  0
LINE
  8
0
 10
 4.12581000000000E+0002
 20
 3.57230800000000E+0002
 11
 4.09564600000000E+0002
 21
 3.53783400000000E+0002
  0
LINE
  8
0
 10
 4.09564600000000E+0002
 20
 3.53783400000000E+0002
 11
 4.09564600000000E+0002
 21
 3.95151800000000E+0002
  0
LINE
  8
0
 10
 4.09564600000000E+0002
 20
 3.95151800000000E+0002
 11
 3.85433000000000E+0002
 21
 3.95151800000000E+0002
  0
LINE
  8
0
 10
 3.85433000000000E+0002
 20
 3.95151800000000E+0002
 11
 3.85433000000000E+0002
 21
 3.53783400000000E+0002
  0
LINE
  8
0
 10
 3.85433000000000E+0002
 20
 3.53783400000000E+0002
 11
 3.82416600000000E+0002
 21
 3.57230800000000E+0002
  0
LINE
  8
0
 10
 3.82416600000000E+0002
 20
 3.57230800000000E+0002
 11
 3.81123800000000E+0002
 21
 3.95151800000000E+0002
  0
LINE
  8
0
 10
 3.81123800000000E+0002
 20
 3.95151800000000E+0002
 11
 3.81123800000000E+0002
 21
 3.97012400000000E+0002
  0
LINE
  8
0
 10
 3.81123800000000E+0002
 20
 3.97012400000000E+0002
 11
 3.81150000000000E+0002
 21
 4.01600000000000E+0002
  0
ARC
  8
0
 10
 3.83300000000000E+0002
 20
 4.01600000000000E+0002
 40
 2.15000000000000E+0000
 50
 9.00000000000000E+0001
 51
 1.80000000000000E+0002
  0
LINE
  8
0
 10
 3.94482400000000E+0002
 20
 4.10665000000000E+0002
 11
 4.00515200000000E+0002
 21
 4.10665000000000E+0002
  0
LINE
  8
0
 10
 4.00515200000000E+0002
 20
 4.10665000000000E+0002
 11
 4.00515200000000E+0002
 21
 4.03770200000000E+0002
  0
LINE
  8
0
 10
 4.00515200000000E+0002
 20
 4.03770200000000E+0002
 11
 3.94482400000000E+0002
 21
 4.03770200000000E+0002
  0
LINE
  8
0
 10
 3.94482400000000E+0002
 20
 4.03770200000000E+0002
 11
 3.94482400000000E+0002
 21
 4.10665000000000E+0002
  0
LINE
  8
0
 10
 3.90776400000000E+0002
 20
 4.20576200000000E+0002
 11
 3.90762600000000E+0002
 21
 4.20575000000000E+0002
  0
LINE
  8
0
 10
 3.90762600000000E+0002
 20
 4.20575000000000E+0002
 11
 4.04200000000000E+0002
 21
 4.20550000000000E+0002
  0
ARC
  8
0
 10
 4.04200000000000E+0002
 20
 4.15650000000000E+0002
 40
 4.90000000000000E+0000
 50
 0.00000000000000E+0000
 51
 9.00000000000000E+0001
  0
LINE
  8
0
 10
 4.09100000000000E+0002
 20
 4.15650000000000E+0002
 11
 4.09150000000000E+0002
 21
 4.15650000000000E+0002
  0
ARC
  8
0
 10
 4.06300000000000E+0002
 20
 4.15650000000000E+0002
 40
 2.85000000000000E+0000
 50
 2.70000000000000E+0002
 51
 3.60000000000000E+0002
  0
LINE
  8
0
 10
 4.06300000000000E+0002
 20
 4.12800000000000E+0002
 11
 3.88700000000000E+0002
 21
 4.12800000000000E+0002
  0
ARC
  8
0
 10
 3.88700000000000E+0002
 20
 4.15650000000000E+0002
 40
 2.85000000000000E+0000
 50
 1.80000000000000E+0002
 51
 2.70000000000000E+0002
  0
LINE
  8
0
 10
 3.85850000000000E+0002
 20
 4.15650000000000E+0002
 11
 3.85900000000000E+0002
 21
 4.15650000000000E+0002
  0
ARC
  8
0
 10
 3.90800000000000E+0002
 20
 4.15650000000000E+0002
 40
 4.90000000000000E+0000
 50
 9.00000000000000E+0001
 51
 1.80000000000000E+0002
  0
LINE
  8
0
 10
 3.92327700000000E+0002
 20
 4.28763700000000E+0002
 11
 4.02669900000000E+0002
 21
 4.28763700000000E+0002
  0
LINE
  8
0
 10
 4.02669900000000E+0002
 20
 4.28763700000000E+0002
 11
 4.02669900000000E+0002
 21
 4.22730800000000E+0002
  0
LINE
  8
0
 10
 4.02669900000000E+0002
 20
 4.22730800000000E+0002
 11
 3.92327700000000E+0002
 21
 4.22730800000000E+0002
  0
LINE
  8
0
 10
 3.92327700000000E+0002
 20
 4.22730800000000E+0002
 11
 3.92327700000000E+0002
 21
 4.28763700000000E+0002
  0
LINE
  8
0
 10
 4.31081300000000E+0002
 20
 4.40423500000000E+0002
 11
 4.31045181966400E+0002
 21
 4.40423405709800E+0002
  0
LINE
  8
0
 10
 4.31045181966400E+0002
 20
 4.40423405709800E+0002
 11
 4.31009098291200E+0002
 21
 4.40423123078400E+0002
  0
LINE
  8
0
 10
 4.31009098291200E+0002
 20
 4.40423123078400E+0002
 11
 4.30973049612800E+0002
 21
 4.40422652464600E+0002
  0
LINE
  8
0
 10
 4.30973049612800E+0002
 20
 4.40422652464600E+0002
 11
 4.30937036569600E+0002
 21
 4.40421994227200E+0002
  0
LINE
  8
0
 10
 4.30937036569600E+0002
 20
 4.40421994227200E+0002
 11
 4.30901059800000E+0002
 21
 4.40421148725000E+0002
  0
LINE
  8
0
 10
 4.30901059800000E+0002
 20
 4.40421148725000E+0002
 11
 4.30865119942400E+0002
 21
 4.40420116316800E+0002
  0
LINE
  8
0
 10
 4.30865119942400E+0002
 20
 4.40420116316800E+0002
 11
 4.30829217635200E+0002
 21
 4.40418897361400E+0002
  0
LINE
  8
0
 10
 4.30829217635200E+0002
 20
 4.40418897361400E+0002
 11
 4.30793353516800E+0002
 21
 4.40417492217600E+0002
  0
LINE
  8
0
 10
 4.30793353516800E+0002
 20
 4.40417492217600E+0002
 11
 4.30757528225600E+0002
 21
 4.40415901244200E+0002
  0
LINE
  8
0
 10
 4.30757528225600E+0002
 20
 4.40415901244200E+0002
 11
 4.30721742400000E+0002
 21
 4.40414124800000E+0002
  0
LINE
  8
0
 10
 4.30721742400000E+0002
 20
 4.40414124800000E+0002
 11
 4.30685996678400E+0002
 21
 4.40412163243800E+0002
  0
LINE
  8
0
 10
 4.30685996678400E+0002
 20
 4.40412163243800E+0002
 11
 4.30650291699200E+0002
 21
 4.40410016934400E+0002
  0
LINE
  8
0
 10
 4.30650291699200E+0002
 20
 4.40410016934400E+0002
 11
 4.30614628100800E+0002
 21
 4.40407686230600E+0002
  0
LINE
  8
0
 10
 4.30614628100800E+0002
 20
 4.40407686230600E+0002
 11
 4.30579006521600E+0002
 21
 4.40405171491200E+0002
  0
LINE
  8
0
 10
 4.30579006521600E+0002
 20
 4.40405171491200E+0002
 11
 4.30543427600000E+0002
 21
 4.40402473075000E+0002
  0
LINE
  8
0
 10
 4.30543427600000E+0002
 20
 4.40402473075000E+0002
 11
 4.30507891974400E+0002
 21
 4.40399591340800E+0002
  0
LINE
  8
0
 10
 4.30507891974400E+0002
 20
 4.40399591340800E+0002
 11
 4.30472400283200E+0002
 21
 4.40396526647400E+0002
  0
LINE
  8
0
 10
 4.30472400283200E+0002
 20
 4.40396526647400E+0002
 11
 4.30436953164800E+0002
 21
 4.40393279353600E+0002
  0
LINE
  8
0
 10
 4.30436953164800E+0002
 20
 4.40393279353600E+0002
 11
 4.30401551257600E+0002
 21
 4.40389849818200E+0002
  0
LINE
  8
0
 10
 4.30401551257600E+0002
 20
 4.40389849818200E+0002
 11
 4.30366195200000E+0002
 21
 4.40386238400000E+0002
  0
LINE
  8
0
 10
 4.30366195200000E+0002
 20
 4.40386238400000E+0002
 11
 4.30330885630400E+0002
 21
 4.40382445457800E+0002
  0
LINE
  8
0
 10
 4.30330885630400E+0002
 20
 4.40382445457800E+0002
 11
 4.30295623187200E+0002
 21
 4.40378471350400E+0002
  0
LINE
  8
0
 10
 4.30295623187200E+0002
 20
 4.40378471350400E+0002
 11
 4.30260408508800E+0002
 21
 4.40374316436600E+0002
  0
LINE
  8
0
 10
 4.30260408508800E+0002
 20
 4.40374316436600E+0002
 11
 4.30225242233600E+0002
 21
 4.40369981075200E+0002
  0
LINE
  8
0
 10
 4.30225242233600E+0002
 20
 4.40369981075200E+0002
 11
 4.30190125000000E+0002
 21
 4.40365465625000E+0002
  0
LINE
  8
0
 10
 4.30190125000000E+0002
 20
 4.40365465625000E+0002
 11
 4.30155057446400E+0002
 21
 4.40360770444800E+0002
  0
LINE
  8
0
 10
 4.30155057446400E+0002
 20
 4.40360770444800E+0002
 11
 4.30120040211200E+0002
 21
 4.40355895893400E+0002
  0
LINE
  8
0
 10
 4.30120040211200E+0002
 20
 4.40355895893400E+0002
 11
 4.30085073932800E+0002
 21
 4.40350842329600E+0002
  0
LINE
  8
0
 10
 4.30085073932800E+0002
 20
 4.40350842329600E+0002
 11
 4.30050159249600E+0002
 21
 4.40345610112200E+0002
  0
LINE
  8
0
 10
 4.30050159249600E+0002
 20
 4.40345610112200E+0002
 11
 4.30015296800000E+0002
 21
 4.40340199600000E+0002
  0
LINE
  8
0
 10
 4.30015296800000E+0002
 20
 4.40340199600000E+0002
 11
 4.29980487222400E+0002
 21
 4.40334611151800E+0002
  0
LINE
  8
0
 10
 4.29980487222400E+0002
 20
 4.40334611151800E+0002
 11
 4.29945731155200E+0002
 21
 4.40328845126400E+0002
  0
LINE
  8
0
 10
 4.29945731155200E+0002
 20
 4.40328845126400E+0002
 11
 4.29911029236800E+0002
 21
 4.40322901882600E+0002
  0
LINE
  8
0
 10
 4.29911029236800E+0002
 20
 4.40322901882600E+0002
 11
 4.29876382105600E+0002
 21
 4.40316781779200E+0002
  0
LINE
  8
0
 10
 4.29876382105600E+0002
 20
 4.40316781779200E+0002
 11
 4.29841790400000E+0002
 21
 4.40310485175000E+0002
  0
LINE
  8
0
 10
 4.29841790400000E+0002
 20
 4.40310485175000E+0002
 11
 4.29807254758400E+0002
 21
 4.40304012428800E+0002
  0
LINE
  8
0
 10
 4.29807254758400E+0002
 20
 4.40304012428800E+0002
 11
 4.29772775819200E+0002
 21
 4.40297363899400E+0002
  0
LINE
  8
0
 10
 4.29772775819200E+0002
 20
 4.40297363899400E+0002
 11
 4.29738354220800E+0002
 21
 4.40290539945600E+0002
  0
LINE
  8
0
 10
 4.29738354220800E+0002
 20
 4.40290539945600E+0002
 11
 4.29703990601600E+0002
 21
 4.40283540926200E+0002
  0
LINE
  8
0
 10
 4.29703990601600E+0002
 20
 4.40283540926200E+0002
 11
 4.29669685600000E+0002
 21
 4.40276367200000E+0002
  0
LINE
  8
0
 10
 4.29669685600000E+0002
 20
 4.40276367200000E+0002
 11
 4.29635439854400E+0002
 21
 4.40269019125800E+0002
  0
LINE
  8
0
 10
 4.29635439854400E+0002
 20
 4.40269019125800E+0002
 11
 4.29601254003200E+0002
 21
 4.40261497062400E+0002
  0
LINE
  8
0
 10
 4.29601254003200E+0002
 20
 4.40261497062400E+0002
 11
 4.29567128684800E+0002
 21
 4.40253801368600E+0002
  0
LINE
  8
0
 10
 4.29567128684800E+0002
 20
 4.40253801368600E+0002
 11
 4.29533064537600E+0002
 21
 4.40245932403200E+0002
  0
LINE
  8
0
 10
 4.29533064537600E+0002
 20
 4.40245932403200E+0002
 11
 4.29499062200000E+0002
 21
 4.40237890525000E+0002
  0
LINE
  8
0
 10
 4.29499062200000E+0002
 20
 4.40237890525000E+0002
 11
 4.29465122310400E+0002
 21
 4.40229676092800E+0002
  0
LINE
  8
0
 10
 4.29465122310400E+0002
 20
 4.40229676092800E+0002
 11
 4.29431245507200E+0002
 21
 4.40221289465400E+0002
  0
LINE
  8
0
 10
 4.29431245507200E+0002
 20
 4.40221289465400E+0002
 11
 4.29397432428800E+0002
 21
 4.40212731001600E+0002
  0
LINE
  8
0
 10
 4.29397432428800E+0002
 20
 4.40212731001600E+0002
 11
 4.29363683713600E+0002
 21
 4.40204001060200E+0002
  0
LINE
  8
0
 10
 4.29363683713600E+0002
 20
 4.40204001060200E+0002
 11
 4.29330000000000E+0002
 21
 4.40195100000000E+0002
  0
LINE
  8
0
 10
 4.29330000000000E+0002
 20
 4.40195100000000E+0002
 11
 4.29296381926400E+0002
 21
 4.40186028179800E+0002
  0
LINE
  8
0
 10
 4.29296381926400E+0002
 20
 4.40186028179800E+0002
 11
 4.29262830131200E+0002
 21
 4.40176785958400E+0002
  0
LINE
  8
0
 10
 4.29262830131200E+0002
 20
 4.40176785958400E+0002
 11
 4.29229345252800E+0002
 21
 4.40167373694600E+0002
  0
LINE
  8
0
 10
 4.29229345252800E+0002
 20
 4.40167373694600E+0002
 11
 4.29195927929600E+0002
 21
 4.40157791747200E+0002
  0
LINE
  8
0
 10
 4.29195927929600E+0002
 20
 4.40157791747200E+0002
 11
 4.29162578800000E+0002
 21
 4.40148040475000E+0002
  0
LINE
  8
0
 10
 4.29162578800000E+0002
 20
 4.40148040475000E+0002
 11
 4.29129298502400E+0002
 21
 4.40138120236800E+0002
  0
LINE
  8
0
 10
 4.29129298502400E+0002
 20
 4.40138120236800E+0002
 11
 4.29096087675200E+0002
 21
 4.40128031391400E+0002
  0
LINE
  8
0
 10
 4.29096087675200E+0002
 20
 4.40128031391400E+0002
 11
 4.29062946956800E+0002
 21
 4.40117774297600E+0002
  0
LINE
  8
0
 10
 4.29062946956800E+0002
 20
 4.40117774297600E+0002
 11
 4.29029876985600E+0002
 21
 4.40107349314200E+0002
  0
LINE
  8
0
 10
 4.29029876985600E+0002
 20
 4.40107349314200E+0002
 11
 4.28996878400000E+0002
 21
 4.40096756800000E+0002
  0
LINE
  8
0
 10
 4.28996878400000E+0002
 20
 4.40096756800000E+0002
 11
 4.28963951838400E+0002
 21
 4.40085997113800E+0002
  0
LINE
  8
0
 10
 4.28963951838400E+0002
 20
 4.40085997113800E+0002
 11
 4.28931097939200E+0002
 21
 4.40075070614400E+0002
  0
LINE
  8
0
 10
 4.28931097939200E+0002
 20
 4.40075070614400E+0002
 11
 4.28898317340800E+0002
 21
 4.40063977660600E+0002
  0
LINE
  8
0
 10
 4.28898317340800E+0002
 20
 4.40063977660600E+0002
 11
 4.28865610681600E+0002
 21
 4.40052718611200E+0002
  0
LINE
  8
0
 10
 4.28865610681600E+0002
 20
 4.40052718611200E+0002
 11
 4.28832978600000E+0002
 21
 4.40041293825000E+0002
  0
LINE
  8
0
 10
 4.28832978600000E+0002
 20
 4.40041293825000E+0002
 11
 4.28800421734400E+0002
 21
 4.40029703660800E+0002
  0
LINE
  8
0
 10
 4.28800421734400E+0002
 20
 4.40029703660800E+0002
 11
 4.28767940723200E+0002
 21
 4.40017948477400E+0002
  0
LINE
  8
0
 10
 4.28767940723200E+0002
 20
 4.40017948477400E+0002
 11
 4.28735536204800E+0002
 21
 4.40006028633600E+0002
  0
LINE
  8
0
 10
 4.28735536204800E+0002
 20
 4.40006028633600E+0002
 11
 4.28703208817600E+0002
 21
 4.39993944488200E+0002
  0
LINE
  8
0
 10
 4.28703208817600E+0002
 20
 4.39993944488200E+0002
 11
 4.28670959200000E+0002
 21
 4.39981696400000E+0002
  0
LINE
  8
0
 10
 4.28670959200000E+0002
 20
 4.39981696400000E+0002
 11
 4.28638787990400E+0002
 21
 4.39969284727800E+0002
  0
LINE
  8
0
 10
 4.28638787990400E+0002
 20
 4.39969284727800E+0002
 11
 4.28606695827200E+0002
 21
 4.39956709830400E+0002
  0
LINE
  8
0
 10
 4.28606695827200E+0002
 20
 4.39956709830400E+0002
 11
 4.28574683348800E+0002
 21
 4.39943972066600E+0002
  0
LINE
  8
0
 10
 4.28574683348800E+0002
 20
 4.39943972066600E+0002
 11
 4.28542751193600E+0002
 21
 4.39931071795200E+0002
  0
LINE
  8
0
 10
 4.28542751193600E+0002
 20
 4.39931071795200E+0002
 11
 4.28510900000000E+0002
 21
 4.39918009375000E+0002
  0
LINE
  8
0
 10
 4.28510900000000E+0002
 20
 4.39918009375000E+0002
 11
 4.28479130406400E+0002
 21
 4.39904785164800E+0002
  0
LINE
  8
0
 10
 4.28479130406400E+0002
 20
 4.39904785164800E+0002
 11
 4.28447443051200E+0002
 21
 4.39891399523400E+0002
  0
LINE
  8
0
 10
 4.28447443051200E+0002
 20
 4.39891399523400E+0002
 11
 4.28415838572800E+0002
 21
 4.39877852809600E+0002
  0
LINE
  8
0
 10
 4.28415838572800E+0002
 20
 4.39877852809600E+0002
 11
 4.28384317609600E+0002
 21
 4.39864145382200E+0002
  0
LINE
  8
0
 10
 4.28384317609600E+0002
 20
 4.39864145382200E+0002
 11
 4.28352880800000E+0002
 21
 4.39850277600000E+0002
  0
LINE
  8
0
 10
 4.28352880800000E+0002
 20
 4.39850277600000E+0002
 11
 4.28321528782400E+0002
 21
 4.39836249821800E+0002
  0
LINE
  8
0
 10
 4.28321528782400E+0002
 20
 4.39836249821800E+0002
 11
 4.28290262195200E+0002
 21
 4.39822062406400E+0002
  0
LINE
  8
0
 10
 4.28290262195200E+0002
 20
 4.39822062406400E+0002
 11
 4.28259081676800E+0002
 21
 4.39807715712600E+0002
  0
LINE
  8
0
 10
 4.28259081676800E+0002
 20
 4.39807715712600E+0002
 11
 4.28227987865600E+0002
 21
 4.39793210099200E+0002
  0
LINE
  8
0
 10
 4.28227987865600E+0002
 20
 4.39793210099200E+0002
 11
 4.28196981400000E+0002
 21
 4.39778545925000E+0002
  0
LINE
  8
0
 10
 4.28196981400000E+0002
 20
 4.39778545925000E+0002
 11
 4.28166062918400E+0002
 21
 4.39763723548800E+0002
  0
LINE
  8
0
 10
 4.28166062918400E+0002
 20
 4.39763723548800E+0002
 11
 4.28135233059200E+0002
 21
 4.39748743329400E+0002
  0
LINE
  8
0
 10
 4.28135233059200E+0002
 20
 4.39748743329400E+0002
 11
 4.28104492460800E+0002
 21
 4.39733605625600E+0002
  0
LINE
  8
0
 10
 4.28104492460800E+0002
 20
 4.39733605625600E+0002
 11
 4.28073841761600E+0002
 21
 4.39718310796200E+0002
  0
LINE
  8
0
 10
 4.28073841761600E+0002
 20
 4.39718310796200E+0002
 11
 4.28043281600000E+0002
 21
 4.39702859200000E+0002
  0
LINE
  8
0
 10
 4.28043281600000E+0002
 20
 4.39702859200000E+0002
 11
 4.28012812614400E+0002
 21
 4.39687251195800E+0002
  0
LINE
  8
0
 10
 4.28012812614400E+0002
 20
 4.39687251195800E+0002
 11
 4.27982435443200E+0002
 21
 4.39671487142400E+0002
  0
LINE
  8
0
 10
 4.27982435443200E+0002
 20
 4.39671487142400E+0002
 11
 4.27952150724800E+0002
 21
 4.39655567398600E+0002
  0
LINE
  8
0
 10
 4.27952150724800E+0002
 20
 4.39655567398600E+0002
 11
 4.27921959097600E+0002
 21
 4.39639492323200E+0002
  0
LINE
  8
0
 10
 4.27921959097600E+0002
 20
 4.39639492323200E+0002
 11
 4.27891861200000E+0002
 21
 4.39623262275000E+0002
  0
LINE
  8
0
 10
 4.27891861200000E+0002
 20
 4.39623262275000E+0002
 11
 4.27861857670400E+0002
 21
 4.39606877612800E+0002
  0
LINE
  8
0
 10
 4.27861857670400E+0002
 20
 4.39606877612800E+0002
 11
 4.27831949147200E+0002
 21
 4.39590338695400E+0002
  0
LINE
  8
0
 10
 4.27831949147200E+0002
 20
 4.39590338695400E+0002
 11
 4.27802136268800E+0002
 21
 4.39573645881600E+0002
  0
LINE
  8
0
 10
 4.27802136268800E+0002
 20
 4.39573645881600E+0002
 11
 4.27772419673600E+0002
 21
 4.39556799530200E+0002
  0
LINE
  8
0
 10
 4.27772419673600E+0002
 20
 4.39556799530200E+0002
 11
 4.27742800000000E+0002
 21
 4.39539800000000E+0002
  0
LINE
  8
0
 10
 4.27742800000000E+0002
 20
 4.39539800000000E+0002
 11
 4.27725000000000E+0002
 21
 4.39559068935167E+0002
  0
ARC
  8
0
 10
 4.31050000000000E+0002
 20
 4.33800000000000E+0002
 40
 6.65000000000000E+0000
 50
 1.20000000000000E+0002
 51
 1.50000000000000E+0002
  0
LINE
  8
0
 10
 4.25290931064833E+0002
 20
 4.37125000000000E+0002
 11
 4.25252112466549E+0002
 21
 4.37150000000000E+0002
  0
ARC
  8
0
 10
 4.14600000000000E+0002
 20
 4.43300000000000E+0002
 40
 1.23000000000000E+0001
 50
 2.70000000000000E+0002
 51
 3.30000000000000E+0002
  0
LINE
  8
0
 10
 4.14600000000000E+0002
 20
 4.31000000000000E+0002
 11
 3.80382600000000E+0002
 21
 4.30927700000000E+0002
  0
LINE
  8
0
 10
 3.80382600000000E+0002
 20
 4.30927700000000E+0002
 11
 3.80400000000000E+0002
 21
 4.31000000000000E+0002
  0
ARC
  8
0
 10
 3.80400000000000E+0002
 20
 4.43300000000000E+0002
 40
 1.23000000000000E+0001
 50
 2.10000000000000E+0002
 51
 2.70000000000000E+0002
  0
LINE
  8
0
 10
 3.69747887533451E+0002
 20
 4.37150000000000E+0002
 11
 3.69709068935167E+0002
 21
 4.37125000000000E+0002
  0
ARC
  8
0
 10
 3.63950000000000E+0002
 20
 4.33800000000000E+0002
 40
 6.65000000000000E+0000
 50
 3.00000000000000E+0001
 51
 6.00000000000000E+0001
  0
LINE
  8
0
 10
 3.67275000000000E+0002
 20
 4.39559068935167E+0002
 11
 3.67254200000000E+0002
 21
 4.39539000000000E+0002
  0
LINE
  8
0
 10
 3.67254200000000E+0002
 20
 4.39539000000000E+0002
 11
 3.67224586236500E+0002
 21
 4.39556002500300E+0002
  0
LINE
  8
0
 10
 3.67224586236500E+0002
 20
 4.39556002500300E+0002
 11
 3.67194875372000E+0002
 21
 4.39572851762400E+0002
  0
LINE
  8
0
 10
 3.67194875372000E+0002
 20
 4.39572851762400E+0002
 11
 3.67165068045500E+0002
 21
 4.39589547428100E+0002
  0
LINE
  8
0
 10
 3.67165068045500E+0002
 20
 4.39589547428100E+0002
 11
 3.67135164896000E+0002
 21
 4.39606089139200E+0002
  0
LINE
  8
0
 10
 3.67135164896000E+0002
 20
 4.39606089139200E+0002
 11
 3.67105166562500E+0002
 21
 4.39622476537500E+0002
  0
LINE
  8
0
 10
 3.67105166562500E+0002
 20
 4.39622476537500E+0002
 11
 3.67075073684000E+0002
 21
 4.39638709264800E+0002
  0
LINE
  8
0
 10
 3.67075073684000E+0002
 20
 4.39638709264800E+0002
 11
 3.67044886899500E+0002
 21
 4.39654786962900E+0002
  0
LINE
  8
0
 10
 3.67044886899500E+0002
 20
 4.39654786962900E+0002
 11
 3.67014606848000E+0002
 21
 4.39670709273600E+0002
  0
LINE
  8
0
 10
 3.67014606848000E+0002
 20
 4.39670709273600E+0002
 11
 3.66984234168500E+0002
 21
 4.39686475838700E+0002
  0
LINE
  8
0
 10
 3.66984234168500E+0002
 20
 4.39686475838700E+0002
 11
 3.66953769500000E+0002
 21
 4.39702086300000E+0002
  0
LINE
  8
0
 10
 3.66953769500000E+0002
 20
 4.39702086300000E+0002
 11
 3.66923213481500E+0002
 21
 4.39717540299300E+0002
  0
LINE
  8
0
 10
 3.66923213481500E+0002
 20
 4.39717540299300E+0002
 11
 3.66892566752000E+0002
 21
 4.39732837478400E+0002
  0
LINE
  8
0
 10
 3.66892566752000E+0002
 20
 4.39732837478400E+0002
 11
 3.66861829950500E+0002
 21
 4.39747977479100E+0002
  0
LINE
  8
0
 10
 3.66861829950500E+0002
 20
 4.39747977479100E+0002
 11
 3.66831003716000E+0002
 21
 4.39762959943200E+0002
  0
LINE
  8
0
 10
 3.66831003716000E+0002
 20
 4.39762959943200E+0002
 11
 3.66800088687500E+0002
 21
 4.39777784512500E+0002
  0
LINE
  8
0
 10
 3.66800088687500E+0002
 20
 4.39777784512500E+0002
 11
 3.66769085504000E+0002
 21
 4.39792450828800E+0002
  0
LINE
  8
0
 10
 3.66769085504000E+0002
 20
 4.39792450828800E+0002
 11
 3.66737994804500E+0002
 21
 4.39806958533900E+0002
  0
LINE
  8
0
 10
 3.66737994804500E+0002
 20
 4.39806958533900E+0002
 11
 3.66706817228000E+0002
 21
 4.39821307269600E+0002
  0
LINE
  8
0
 10
 3.66706817228000E+0002
 20
 4.39821307269600E+0002
 11
 3.66675553413500E+0002
 21
 4.39835496677700E+0002
  0
LINE
  8
0
 10
 3.66675553413500E+0002
 20
 4.39835496677700E+0002
 11
 3.66644204000000E+0002
 21
 4.39849526400000E+0002
  0
LINE
  8
0
 10
 3.66644204000000E+0002
 20
 4.39849526400000E+0002
 11
 3.66612769626500E+0002
 21
 4.39863396078300E+0002
  0
LINE
  8
0
 10
 3.66612769626500E+0002
 20
 4.39863396078300E+0002
 11
 3.66581250932000E+0002
 21
 4.39877105354400E+0002
  0
LINE
  8
0
 10
 3.66581250932000E+0002
 20
 4.39877105354400E+0002
 11
 3.66549648555500E+0002
 21
 4.39890653870100E+0002
  0
LINE
  8
0
 10
 3.66549648555500E+0002
 20
 4.39890653870100E+0002
 11
 3.66517963136000E+0002
 21
 4.39904041267200E+0002
  0
LINE
  8
0
 10
 3.66517963136000E+0002
 20
 4.39904041267200E+0002
 11
 3.66486195312500E+0002
 21
 4.39917267187500E+0002
  0
LINE
  8
0
 10
 3.66486195312500E+0002
 20
 4.39917267187500E+0002
 11
 3.66454345724000E+0002
 21
 4.39930331272800E+0002
  0
LINE
  8
0
 10
 3.66454345724000E+0002
 20
 4.39930331272800E+0002
 11
 3.66422415009500E+0002
 21
 4.39943233164900E+0002
  0
LINE
  8
0
 10
 3.66422415009500E+0002
 20
 4.39943233164900E+0002
 11
 3.66390403808000E+0002
 21
 4.39955972505600E+0002
  0
LINE
  8
0
 10
 3.66390403808000E+0002
 20
 4.39955972505600E+0002
 11
 3.66358312758500E+0002
 21
 4.39968548936700E+0002
  0
LINE
  8
0
 10
 3.66358312758500E+0002
 20
 4.39968548936700E+0002
 11
 3.66326142500000E+0002
 21
 4.39980962100000E+0002
  0
LINE
  8
0
 10
 3.66326142500000E+0002
 20
 4.39980962100000E+0002
 11
 3.66293893671500E+0002
 21
 4.39993211637300E+0002
  0
LINE
  8
0
 10
 3.66293893671500E+0002
 20
 4.39993211637300E+0002
 11
 3.66261566912000E+0002
 21
 4.40005297190400E+0002
  0
LINE
  8
0
 10
 3.66261566912000E+0002
 20
 4.40005297190400E+0002
 11
 3.66229162860500E+0002
 21
 4.40017218401100E+0002
  0
LINE
  8
0
 10
 3.66229162860500E+0002
 20
 4.40017218401100E+0002
 11
 3.66196682156000E+0002
 21
 4.40028974911200E+0002
  0
LINE
  8
0
 10
 3.66196682156000E+0002
 20
 4.40028974911200E+0002
 11
 3.66164125437500E+0002
 21
 4.40040566362500E+0002
  0
LINE
  8
0
 10
 3.66164125437500E+0002
 20
 4.40040566362500E+0002
 11
 3.66131493344000E+0002
 21
 4.40051992396800E+0002
  0
LINE
  8
0
 10
 3.66131493344000E+0002
 20
 4.40051992396800E+0002
 11
 3.66098786514500E+0002
 21
 4.40063252655900E+0002
  0
LINE
  8
0
 10
 3.66098786514500E+0002
 20
 4.40063252655900E+0002
 11
 3.66066005588000E+0002
 21
 4.40074346781600E+0002
  0
LINE
  8
0
 10
 3.66066005588000E+0002
 20
 4.40074346781600E+0002
 11
 3.66033151203500E+0002
 21
 4.40085274415700E+0002
  0
LINE
  8
0
 10
 3.66033151203500E+0002
 20
 4.40085274415700E+0002
 11
 3.66000224000000E+0002
 21
 4.40096035200000E+0002
  0
LINE
  8
0
 10
 3.66000224000000E+0002
 20
 4.40096035200000E+0002
 11
 3.65967224616500E+0002
 21
 4.40106628776300E+0002
  0
LINE
  8
0
 10
 3.65967224616500E+0002
 20
 4.40106628776300E+0002
 11
 3.65934153692000E+0002
 21
 4.40117054786400E+0002
  0
LINE
  8
0
 10
 3.65934153692000E+0002
 20
 4.40117054786400E+0002
 11
 3.65901011865500E+0002
 21
 4.40127312872100E+0002
  0
LINE
  8
0
 10
 3.65901011865500E+0002
 20
 4.40127312872100E+0002
 11
 3.65867799776000E+0002
 21
 4.40137402675200E+0002
  0
LINE
  8
0
 10
 3.65867799776000E+0002
 20
 4.40137402675200E+0002
 11
 3.65834518062500E+0002
 21
 4.40147323837500E+0002
  0
LINE
  8
0
 10
 3.65834518062500E+0002
 20
 4.40147323837500E+0002
 11
 3.65801167364000E+0002
 21
 4.40157076000800E+0002
  0
LINE
  8
0
 10
 3.65801167364000E+0002
 20
 4.40157076000800E+0002
 11
 3.65767748319500E+0002
 21
 4.40166658806900E+0002
  0
LINE
  8
0
 10
 3.65767748319500E+0002
 20
 4.40166658806900E+0002
 11
 3.65734261568000E+0002
 21
 4.40176071897600E+0002
  0
LINE
  8
0
 10
 3.65734261568000E+0002
 20
 4.40176071897600E+0002
 11
 3.65700707748500E+0002
 21
 4.40185314914700E+0002
  0
LINE
  8
0
 10
 3.65700707748500E+0002
 20
 4.40185314914700E+0002
 11
 3.65667087500000E+0002
 21
 4.40194387500000E+0002
  0
LINE
  8
0
 10
 3.65667087500000E+0002
 20
 4.40194387500000E+0002
 11
 3.65633401461500E+0002
 21
 4.40203289295300E+0002
  0
LINE
  8
0
 10
 3.65633401461500E+0002
 20
 4.40203289295300E+0002
 11
 3.65599650272000E+0002
 21
 4.40212019942400E+0002
  0
LINE
  8
0
 10
 3.65599650272000E+0002
 20
 4.40212019942400E+0002
 11
 3.65565834570500E+0002
 21
 4.40220579083100E+0002
  0
LINE
  8
0
 10
 3.65565834570500E+0002
 20
 4.40220579083100E+0002
 11
 3.65531954996000E+0002
 21
 4.40228966359200E+0002
  0
LINE
  8
0
 10
 3.65531954996000E+0002
 20
 4.40228966359200E+0002
 11
 3.65498012187500E+0002
 21
 4.40237181412500E+0002
  0
LINE
  8
0
 10
 3.65498012187500E+0002
 20
 4.40237181412500E+0002
 11
 3.65464006784000E+0002
 21
 4.40245223884800E+0002
  0
LINE
  8
0
 10
 3.65464006784000E+0002
 20
 4.40245223884800E+0002
 11
 3.65429939424500E+0002
 21
 4.40253093417900E+0002
  0
LINE
  8
0
 10
 3.65429939424500E+0002
 20
 4.40253093417900E+0002
 11
 3.65395810748000E+0002
 21
 4.40260789653600E+0002
  0
LINE
  8
0
 10
 3.65395810748000E+0002
 20
 4.40260789653600E+0002
 11
 3.65361621393500E+0002
 21
 4.40268312233700E+0002
  0
LINE
  8
0
 10
 3.65361621393500E+0002
 20
 4.40268312233700E+0002
 11
 3.65327372000000E+0002
 21
 4.40275660800000E+0002
  0
LINE
  8
0
 10
 3.65327372000000E+0002
 20
 4.40275660800000E+0002
 11
 3.65293063206500E+0002
 21
 4.40282834994300E+0002
  0
LINE
  8
0
 10
 3.65293063206500E+0002
 20
 4.40282834994300E+0002
 11
 3.65258695652000E+0002
 21
 4.40289834458400E+0002
  0
LINE
  8
0
 10
 3.65258695652000E+0002
 20
 4.40289834458400E+0002
 11
 3.65224269975500E+0002
 21
 4.40296658834100E+0002
  0
LINE
  8
0
 10
 3.65224269975500E+0002
 20
 4.40296658834100E+0002
 11
 3.65189786816000E+0002
 21
 4.40303307763200E+0002
  0
LINE
  8
0
 10
 3.65189786816000E+0002
 20
 4.40303307763200E+0002
 11
 3.65155246812500E+0002
 21
 4.40309780887500E+0002
  0
LINE
  8
0
 10
 3.65155246812500E+0002
 20
 4.40309780887500E+0002
 11
 3.65120650604000E+0002
 21
 4.40316077848800E+0002
  0
LINE
  8
0
 10
 3.65120650604000E+0002
 20
 4.40316077848800E+0002
 11
 3.65085998829500E+0002
 21
 4.40322198288900E+0002
  0
LINE
  8
0
 10
 3.65085998829500E+0002
 20
 4.40322198288900E+0002
 11
 3.65051292128000E+0002
 21
 4.40328141849600E+0002
  0
LINE
  8
0
 10
 3.65051292128000E+0002
 20
 4.40328141849600E+0002
 11
 3.65016531138500E+0002
 21
 4.40333908172700E+0002
  0
LINE
  8
0
 10
 3.65016531138500E+0002
 20
 4.40333908172700E+0002
 11
 3.64981716500000E+0002
 21
 4.40339496900000E+0002
  0
LINE
  8
0
 10
 3.64981716500000E+0002
 20
 4.40339496900000E+0002
 11
 3.64946848851500E+0002
 21
 4.40344907673300E+0002
  0
LINE
  8
0
 10
 3.64946848851500E+0002
 20
 4.40344907673300E+0002
 11
 3.64911928832000E+0002
 21
 4.40350140134400E+0002
  0
LINE
  8
0
 10
 3.64911928832000E+0002
 20
 4.40350140134400E+0002
 11
 3.64876957080500E+0002
 21
 4.40355193925100E+0002
  0
LINE
  8
0
 10
 3.64876957080500E+0002
 20
 4.40355193925100E+0002
 11
 3.64841934236000E+0002
 21
 4.40360068687200E+0002
  0
LINE
  8
0
 10
 3.64841934236000E+0002
 20
 4.40360068687200E+0002
 11
 3.64806860937500E+0002
 21
 4.40364764062500E+0002
  0
LINE
  8
0
 10
 3.64806860937500E+0002
 20
 4.40364764062500E+0002
 11
 3.64771737824000E+0002
 21
 4.40369279692800E+0002
  0
LINE
  8
0
 10
 3.64771737824000E+0002
 20
 4.40369279692800E+0002
 11
 3.64736565534500E+0002
 21
 4.40373615219900E+0002
  0
LINE
  8
0
 10
 3.64736565534500E+0002
 20
 4.40373615219900E+0002
 11
 3.64701344708000E+0002
 21
 4.40377770285600E+0002
  0
LINE
  8
0
 10
 3.64701344708000E+0002
 20
 4.40377770285600E+0002
 11
 3.64666075983500E+0002
 21
 4.40381744531700E+0002
  0
LINE
  8
0
 10
 3.64666075983500E+0002
 20
 4.40381744531700E+0002
 11
 3.64630760000000E+0002
 21
 4.40385537600000E+0002
  0
LINE
  8
0
 10
 3.64630760000000E+0002
 20
 4.40385537600000E+0002
 11
 3.64595397396500E+0002
 21
 4.40389149132300E+0002
  0
LINE
  8
0
 10
 3.64595397396500E+0002
 20
 4.40389149132300E+0002
 11
 3.64559988812000E+0002
 21
 4.40392578770400E+0002
  0
LINE
  8
0
 10
 3.64559988812000E+0002
 20
 4.40392578770400E+0002
 11
 3.64524534885500E+0002
 21
 4.40395826156100E+0002
  0
LINE
  8
0
 10
 3.64524534885500E+0002
 20
 4.40395826156100E+0002
 11
 3.64489036256000E+0002
 21
 4.40398890931200E+0002
  0
LINE
  8
0
 10
 3.64489036256000E+0002
 20
 4.40398890931200E+0002
 11
 3.64453493562500E+0002
 21
 4.40401772737500E+0002
  0
LINE
  8
0
 10
 3.64453493562500E+0002
 20
 4.40401772737500E+0002
 11
 3.64417907444000E+0002
 21
 4.40404471216800E+0002
  0
LINE
  8
0
 10
 3.64417907444000E+0002
 20
 4.40404471216800E+0002
 11
 3.64382278539500E+0002
 21
 4.40406986010900E+0002
  0
LINE
  8
0
 10
 3.64382278539500E+0002
 20
 4.40406986010900E+0002
 11
 3.64346607488000E+0002
 21
 4.40409316761600E+0002
  0
LINE
  8
0
 10
 3.64346607488000E+0002
 20
 4.40409316761600E+0002
 11
 3.64310894928500E+0002
 21
 4.40411463110700E+0002
  0
LINE
  8
0
 10
 3.64310894928500E+0002
 20
 4.40411463110700E+0002
 11
 3.64275141500000E+0002
 21
 4.40413424700000E+0002
  0
LINE
  8
0
 10
 3.64275141500000E+0002
 20
 4.40413424700000E+0002
 11
 3.64239347841500E+0002
 21
 4.40415201171300E+0002
  0
LINE
  8
0
 10
 3.64239347841500E+0002
 20
 4.40415201171300E+0002
 11
 3.64203514592000E+0002
 21
 4.40416792166400E+0002
  0
LINE
  8
0
 10
 3.64203514592000E+0002
 20
 4.40416792166400E+0002
 11
 3.64167642390500E+0002
 21
 4.40418197327100E+0002
  0
LINE
  8
0
 10
 3.64167642390500E+0002
 20
 4.40418197327100E+0002
 11
 3.64131731876000E+0002
 21
 4.40419416295200E+0002
  0
LINE
  8
0
 10
 3.64131731876000E+0002
 20
 4.40419416295200E+0002
 11
 3.64095783687500E+0002
 21
 4.40420448712500E+0002
  0
LINE
  8
0
 10
 3.64095783687500E+0002
 20
 4.40420448712500E+0002
 11
 3.64059798464000E+0002
 21
 4.40421294220800E+0002
  0
LINE
  8
0
 10
 3.64059798464000E+0002
 20
 4.40421294220800E+0002
 11
 3.64023776844500E+0002
 21
 4.40421952461900E+0002
  0
LINE
  8
0
 10
 3.64023776844500E+0002
 20
 4.40421952461900E+0002
 11
 3.63987719468000E+0002
 21
 4.40422423077600E+0002
  0
LINE
  8
0
 10
 3.63987719468000E+0002
 20
 4.40422423077600E+0002
 11
 3.63951626973500E+0002
 21
 4.40422705709700E+0002
  0
LINE
  8
0
 10
 3.63951626973500E+0002
 20
 4.40422705709700E+0002
 11
 3.63915500000000E+0002
 21
 4.40422800000000E+0002
  0
LINE
  8
0
 10
 3.63915500000000E+0002
 20
 4.40422800000000E+0002
 11
 3.60111200000000E+0002
 21
 4.40422800000000E+0002
  0
LINE
  8
0
 10
 3.60111200000000E+0002
 20
 4.40422800000000E+0002
 11
 3.56300000000000E+0002
 21
 4.40450000000000E+0002
  0
ARC
  8
0
 10
 3.56300000000000E+0002
 20
 4.42350000000000E+0002
 40
 1.90000000000000E+0000
 50
 1.80005000000000E+0002
 51
 2.70000000000000E+0002
  0
LINE
  8
0
 10
 3.54400000007235E+0002
 20
 4.42349834193721E+0002
 11
 3.54400000000000E+0002
 21
 4.44100000000000E+0002
  0
ARC
  8
0
 10
 3.56300000000000E+0002
 20
 4.44100000000000E+0002
 40
 1.90000000000000E+0000
 50
 8.99950000000000E+0001
 51
 1.80000000000000E+0002
  0
LINE
  8
0
 10
 3.56300165806279E+0002
 20
 4.45999999992765E+0002
 11
 3.63915400000000E+0002
 21
 4.46000500000000E+0002
  0
LINE
  8
0
 10
 3.63915400000000E+0002
 20
 4.46000500000000E+0002
 11
 3.63900000000000E+0002
 21
 4.45950000000000E+0002
  0
ARC
  8
0
 10
 3.63900000000000E+0002
 20
 4.33650000000000E+0002
 40
 1.23000000000000E+0001
 50
 3.00000000000000E+0001
 51
 9.00000000000000E+0001
  0
LINE
  8
0
 10
 3.74552112466549E+0002
 20
 4.39800000000000E+0002
 11
 3.74591221247750E+0002
 21
 4.39774497439087E+0002
  0
ARC
  8
0
 10
 3.80350000000000E+0002
 20
 4.43100000000000E+0002
 40
 6.65000000000000E+0000
 50
 2.10005000000000E+0002
 51
 2.39995000000000E+0002
  0
LINE
  8
0
 10
 3.77024497439087E+0002
 20
 4.37341221247750E+0002
 11
 3.77043800000000E+0002
 21
 4.37376900000000E+0002
  0
LINE
  8
0
 10
 3.77043800000000E+0002
 20
 4.37376900000000E+0002
 11
 3.77073434108900E+0002
 21
 4.37359900499600E+0002
  0
LINE
  8
0
 10
 3.77073434108900E+0002
 20
 4.37359900499600E+0002
 11
 3.77103164031200E+0002
 21
 4.37343054236800E+0002
  0
LINE
  8
0
 10
 3.77103164031200E+0002
 20
 4.37343054236800E+0002
 11
 3.77132989160300E+0002
 21
 4.37326361569200E+0002
  0
LINE
  8
0
 10
 3.77132989160300E+0002
 20
 4.37326361569200E+0002
 11
 3.77162908889600E+0002
 21
 4.37309822854400E+0002
  0
LINE
  8
0
 10
 3.77162908889600E+0002
 20
 4.37309822854400E+0002
 11
 3.77192922612500E+0002
 21
 4.37293438450000E+0002
  0
LINE
  8
0
 10
 3.77192922612500E+0002
 20
 4.37293438450000E+0002
 11
 3.77223029722400E+0002
 21
 4.37277208713600E+0002
  0
LINE
  8
0
 10
 3.77223029722400E+0002
 20
 4.37277208713600E+0002
 11
 3.77253229612700E+0002
 21
 4.37261134002800E+0002
  0
LINE
  8
0
 10
 3.77253229612700E+0002
 20
 4.37261134002800E+0002
 11
 3.77283521676800E+0002
 21
 4.37245214675200E+0002
  0
LINE
  8
0
 10
 3.77283521676800E+0002
 20
 4.37245214675200E+0002
 11
 3.77313905308100E+0002
 21
 4.37229451088400E+0002
  0
LINE
  8
0
 10
 3.77313905308100E+0002
 20
 4.37229451088400E+0002
 11
 3.77344379900000E+0002
 21
 4.37213843600000E+0002
  0
LINE
  8
0
 10
 3.77344379900000E+0002
 20
 4.37213843600000E+0002
 11
 3.77374944845900E+0002
 21
 4.37198392567600E+0002
  0
LINE
  8
0
 10
 3.77374944845900E+0002
 20
 4.37198392567600E+0002
 11
 3.77405599539200E+0002
 21
 4.37183098348800E+0002
  0
LINE
  8
0
 10
 3.77405599539200E+0002
 20
 4.37183098348800E+0002
 11
 3.77436343373300E+0002
 21
 4.37167961301200E+0002
  0
LINE
  8
0
 10
 3.77436343373300E+0002
 20
 4.37167961301200E+0002
 11
 3.77467175741600E+0002
 21
 4.37152981782400E+0002
  0
LINE
  8
0
 10
 3.77467175741600E+0002
 20
 4.37152981782400E+0002
 11
 3.77498096037500E+0002
 21
 4.37138160150000E+0002
  0
LINE
  8
0
 10
 3.77498096037500E+0002
 20
 4.37138160150000E+0002
 11
 3.77529103654400E+0002
 21
 4.37123496761600E+0002
  0
LINE
  8
0
 10
 3.77529103654400E+0002
 20
 4.37123496761600E+0002
 11
 3.77560197985700E+0002
 21
 4.37108991974800E+0002
  0
LINE
  8
0
 10
 3.77560197985700E+0002
 20
 4.37108991974800E+0002
 11
 3.77591378424800E+0002
 21
 4.37094646147200E+0002
  0
LINE
  8
0
 10
 3.77591378424800E+0002
 20
 4.37094646147200E+0002
 11
 3.77622644365100E+0002
 21
 4.37080459636400E+0002
  0
LINE
  8
0
 10
 3.77622644365100E+0002
 20
 4.37080459636400E+0002
 11
 3.77653995200000E+0002
 21
 4.37066432800000E+0002
  0
LINE
  8
0
 10
 3.77653995200000E+0002
 20
 4.37066432800000E+0002
 11
 3.77685430322900E+0002
 21
 4.37052565995600E+0002
  0
LINE
  8
0
 10
 3.77685430322900E+0002
 20
 4.37052565995600E+0002
 11
 3.77716949127200E+0002
 21
 4.37038859580800E+0002
  0
LINE
  8
0
 10
 3.77716949127200E+0002
 20
 4.37038859580800E+0002
 11
 3.77748551006300E+0002
 21
 4.37025313913200E+0002
  0
LINE
  8
0
 10
 3.77748551006300E+0002
 20
 4.37025313913200E+0002
 11
 3.77780235353600E+0002
 21
 4.37011929350400E+0002
  0
LINE
  8
0
 10
 3.77780235353600E+0002
 20
 4.37011929350400E+0002
 11
 3.77812001562500E+0002
 21
 4.36998706250000E+0002
  0
LINE
  8
0
 10
 3.77812001562500E+0002
 20
 4.36998706250000E+0002
 11
 3.77843849026400E+0002
 21
 4.36985644969600E+0002
  0
LINE
  8
0
 10
 3.77843849026400E+0002
 20
 4.36985644969600E+0002
 11
 3.77875777138700E+0002
 21
 4.36972745866800E+0002
  0
LINE
  8
0
 10
 3.77875777138700E+0002
 20
 4.36972745866800E+0002
 11
 3.77907785292800E+0002
 21
 4.36960009299200E+0002
  0
LINE
  8
0
 10
 3.77907785292800E+0002
 20
 4.36960009299200E+0002
 11
 3.77939872882100E+0002
 21
 4.36947435624400E+0002
  0
LINE
  8
0
 10
 3.77939872882100E+0002
 20
 4.36947435624400E+0002
 11
 3.77972039300000E+0002
 21
 4.36935025200000E+0002
  0
LINE
  8
0
 10
 3.77972039300000E+0002
 20
 4.36935025200000E+0002
 11
 3.78004283939900E+0002
 21
 4.36922778383600E+0002
  0
LINE
  8
0
 10
 3.78004283939900E+0002
 20
 4.36922778383600E+0002
 11
 3.78036606195200E+0002
 21
 4.36910695532800E+0002
  0
LINE
  8
0
 10
 3.78036606195200E+0002
 20
 4.36910695532800E+0002
 11
 3.78069005459300E+0002
 21
 4.36898777005200E+0002
  0
LINE
  8
0
 10
 3.78069005459300E+0002
 20
 4.36898777005200E+0002
 11
 3.78101481125600E+0002
 21
 4.36887023158400E+0002
  0
LINE
  8
0
 10
 3.78101481125600E+0002
 20
 4.36887023158400E+0002
 11
 3.78134032587500E+0002
 21
 4.36875434350000E+0002
  0
LINE
  8
0
 10
 3.78134032587500E+0002
 20
 4.36875434350000E+0002
 11
 3.78166659238400E+0002
 21
 4.36864010937600E+0002
  0
LINE
  8
0
 10
 3.78166659238400E+0002
 20
 4.36864010937600E+0002
 11
 3.78199360471700E+0002
 21
 4.36852753278800E+0002
  0
LINE
  8
0
 10
 3.78199360471700E+0002
 20
 4.36852753278800E+0002
 11
 3.78232135680800E+0002
 21
 4.36841661731200E+0002
  0
LINE
  8
0
 10
 3.78232135680800E+0002
 20
 4.36841661731200E+0002
 11
 3.78264984259100E+0002
 21
 4.36830736652400E+0002
  0
LINE
  8
0
 10
 3.78264984259100E+0002
 20
 4.36830736652400E+0002
 11
 3.78297905600000E+0002
 21
 4.36819978400000E+0002
  0
LINE
  8
0
 10
 3.78297905600000E+0002
 20
 4.36819978400000E+0002
 11
 3.78330899096900E+0002
 21
 4.36809387331600E+0002
  0
LINE
  8
0
 10
 3.78330899096900E+0002
 20
 4.36809387331600E+0002
 11
 3.78363964143200E+0002
 21
 4.36798963804800E+0002
  0
LINE
  8
0
 10
 3.78363964143200E+0002
 20
 4.36798963804800E+0002
 11
 3.78397100132300E+0002
 21
 4.36788708177200E+0002
  0
LINE
  8
0
 10
 3.78397100132300E+0002
 20
 4.36788708177200E+0002
 11
 3.78430306457600E+0002
 21
 4.36778620806400E+0002
  0
LINE
  8
0
 10
 3.78430306457600E+0002
 20
 4.36778620806400E+0002
 11
 3.78463582512500E+0002
 21
 4.36768702050000E+0002
  0
LINE
  8
0
 10
 3.78463582512500E+0002
 20
 4.36768702050000E+0002
 11
 3.78496927690400E+0002
 21
 4.36758952265600E+0002
  0
LINE
  8
0
 10
 3.78496927690400E+0002
 20
 4.36758952265600E+0002
 11
 3.78530341384700E+0002
 21
 4.36749371810800E+0002
  0
LINE
  8
0
 10
 3.78530341384700E+0002
 20
 4.36749371810800E+0002
 11
 3.78563822988800E+0002
 21
 4.36739961043200E+0002
  0
LINE
  8
0
 10
 3.78563822988800E+0002
 20
 4.36739961043200E+0002
 11
 3.78597371896100E+0002
 21
 4.36730720320400E+0002
  0
LINE
  8
0
 10
 3.78597371896100E+0002
 20
 4.36730720320400E+0002
 11
 3.78630987500000E+0002
 21
 4.36721650000000E+0002
  0
LINE
  8
0
 10
 3.78630987500000E+0002
 20
 4.36721650000000E+0002
 11
 3.78664669193900E+0002
 21
 4.36712750439600E+0002
  0
LINE
  8
0
 10
 3.78664669193900E+0002
 20
 4.36712750439600E+0002
 11
 3.78698416371200E+0002
 21
 4.36704021996800E+0002
  0
LINE
  8
0
 10
 3.78698416371200E+0002
 20
 4.36704021996800E+0002
 11
 3.78732228425300E+0002
 21
 4.36695465029200E+0002
  0
LINE
  8
0
 10
 3.78732228425300E+0002
 20
 4.36695465029200E+0002
 11
 3.78766104749600E+0002
 21
 4.36687079894400E+0002
  0
LINE
  8
0
 10
 3.78766104749600E+0002
 20
 4.36687079894400E+0002
 11
 3.78800044737500E+0002
 21
 4.36678866950000E+0002
  0
LINE
  8
0
 10
 3.78800044737500E+0002
 20
 4.36678866950000E+0002
 11
 3.78834047782400E+0002
 21
 4.36670826553600E+0002
  0
LINE
  8
0
 10
 3.78834047782400E+0002
 20
 4.36670826553600E+0002
 11
 3.78868113277700E+0002
 21
 4.36662959062800E+0002
  0
LINE
  8
0
 10
 3.78868113277700E+0002
 20
 4.36662959062800E+0002
 11
 3.78902240616800E+0002
 21
 4.36655264835200E+0002
  0
LINE
  8
0
 10
 3.78902240616800E+0002
 20
 4.36655264835200E+0002
 11
 3.78936429193100E+0002
 21
 4.36647744228400E+0002
  0
LINE
  8
0
 10
 3.78936429193100E+0002
 20
 4.36647744228400E+0002
 11
 3.78970678400000E+0002
 21
 4.36640397600000E+0002
  0
LINE
  8
0
 10
 3.78970678400000E+0002
 20
 4.36640397600000E+0002
 11
 3.79004987630900E+0002
 21
 4.36633225307600E+0002
  0
LINE
  8
0
 10
 3.79004987630900E+0002
 20
 4.36633225307600E+0002
 11
 3.79039356279200E+0002
 21
 4.36626227708800E+0002
  0
LINE
  8
0
 10
 3.79039356279200E+0002
 20
 4.36626227708800E+0002
 11
 3.79073783738300E+0002
 21
 4.36619405161200E+0002
  0
LINE
  8
0
 10
 3.79073783738300E+0002
 20
 4.36619405161200E+0002
 11
 3.79108269401600E+0002
 21
 4.36612758022400E+0002
  0
LINE
  8
0
 10
 3.79108269401600E+0002
 20
 4.36612758022400E+0002
 11
 3.79142812662500E+0002
 21
 4.36606286650000E+0002
  0
LINE
  8
0
 10
 3.79142812662500E+0002
 20
 4.36606286650000E+0002
 11
 3.79177412914400E+0002
 21
 4.36599991401600E+0002
  0
LINE
  8
0
 10
 3.79177412914400E+0002
 20
 4.36599991401600E+0002
 11
 3.79212069550700E+0002
 21
 4.36593872634800E+0002
  0
LINE
  8
0
 10
 3.79212069550700E+0002
 20
 4.36593872634800E+0002
 11
 3.79246781964800E+0002
 21
 4.36587930707200E+0002
  0
LINE
  8
0
 10
 3.79246781964800E+0002
 20
 4.36587930707200E+0002
 11
 3.79281549550100E+0002
 21
 4.36582165976400E+0002
  0
LINE
  8
0
 10
 3.79281549550100E+0002
 20
 4.36582165976400E+0002
 11
 3.79316371700000E+0002
 21
 4.36576578800000E+0002
  0
LINE
  8
0
 10
 3.79316371700000E+0002
 20
 4.36576578800000E+0002
 11
 3.79351247807900E+0002
 21
 4.36571169535600E+0002
  0
LINE
  8
0
 10
 3.79351247807900E+0002
 20
 4.36571169535600E+0002
 11
 3.79386177267200E+0002
 21
 4.36565938540800E+0002
  0
LINE
  8
0
 10
 3.79386177267200E+0002
 20
 4.36565938540800E+0002
 11
 3.79421159471300E+0002
 21
 4.36560886173200E+0002
  0
LINE
  8
0
 10
 3.79421159471300E+0002
 20
 4.36560886173200E+0002
 11
 3.79456193813600E+0002
 21
 4.36556012790400E+0002
  0
LINE
  8
0
 10
 3.79456193813600E+0002
 20
 4.36556012790400E+0002
 11
 3.79491279687500E+0002
 21
 4.36551318750000E+0002
  0
LINE
  8
0
 10
 3.79491279687500E+0002
 20
 4.36551318750000E+0002
 11
 3.79526416486400E+0002
 21
 4.36546804409600E+0002
  0
LINE
  8
0
 10
 3.79526416486400E+0002
 20
 4.36546804409600E+0002
 11
 3.79561603603700E+0002
 21
 4.36542470126800E+0002
  0
LINE
  8
0
 10
 3.79561603603700E+0002
 20
 4.36542470126800E+0002
 11
 3.79596840432800E+0002
 21
 4.36538316259200E+0002
  0
LINE
  8
0
 10
 3.79596840432800E+0002
 20
 4.36538316259200E+0002
 11
 3.79632126367100E+0002
 21
 4.36534343164400E+0002
  0
LINE
  8
0
 10
 3.79632126367100E+0002
 20
 4.36534343164400E+0002
 11
 3.79667460800000E+0002
 21
 4.36530551200000E+0002
  0
LINE
  8
0
 10
 3.79667460800000E+0002
 20
 4.36530551200000E+0002
 11
 3.79702843124900E+0002
 21
 4.36526940723600E+0002
  0
LINE
  8
0
 10
 3.79702843124900E+0002
 20
 4.36526940723600E+0002
 11
 3.79738272735200E+0002
 21
 4.36523512092800E+0002
  0
LINE
  8
0
 10
 3.79738272735200E+0002
 20
 4.36523512092800E+0002
 11
 3.79773749024300E+0002
 21
 4.36520265665200E+0002
  0
LINE
  8
0
 10
 3.79773749024300E+0002
 20
 4.36520265665200E+0002
 11
 3.79809271385600E+0002
 21
 4.36517201798400E+0002
  0
LINE
  8
0
 10
 3.79809271385600E+0002
 20
 4.36517201798400E+0002
 11
 3.79844839212500E+0002
 21
 4.36514320850000E+0002
  0
LINE
  8
0
 10
 3.79844839212500E+0002
 20
 4.36514320850000E+0002
 11
 3.79880451898400E+0002
 21
 4.36511623177600E+0002
  0
LINE
  8
0
 10
 3.79880451898400E+0002
 20
 4.36511623177600E+0002
 11
 3.79916108836700E+0002
 21
 4.36509109138800E+0002
  0
LINE
  8
0
 10
 3.79916108836700E+0002
 20
 4.36509109138800E+0002
 11
 3.79951809420800E+0002
 21
 4.36506779091200E+0002
  0
LINE
  8
0
 10
 3.79951809420800E+0002
 20
 4.36506779091200E+0002
 11
 3.79987553044100E+0002
 21
 4.36504633392400E+0002
  0
LINE
  8
0
 10
 3.79987553044100E+0002
 20
 4.36504633392400E+0002
 11
 3.80023339100000E+0002
 21
 4.36502672400000E+0002
  0
LINE
  8
0
 10
 3.80023339100000E+0002
 20
 4.36502672400000E+0002
 11
 3.80059166981900E+0002
 21
 4.36500896471600E+0002
  0
LINE
  8
0
 10
 3.80059166981900E+0002
 20
 4.36500896471600E+0002
 11
 3.80095036083200E+0002
 21
 4.36499305964800E+0002
  0
LINE
  8
0
 10
 3.80095036083200E+0002
 20
 4.36499305964800E+0002
 11
 3.80130945797300E+0002
 21
 4.36497901237200E+0002
  0
LINE
  8
0
 10
 3.80130945797300E+0002
 20
 4.36497901237200E+0002
 11
 3.80166895517600E+0002
 21
 4.36496682646400E+0002
  0
LINE
  8
0
 10
 3.80166895517600E+0002
 20
 4.36496682646400E+0002
 11
 3.80202884637500E+0002
 21
 4.36495650550000E+0002
  0
LINE
  8
0
 10
 3.80202884637500E+0002
 20
 4.36495650550000E+0002
 11
 3.80238912550400E+0002
 21
 4.36494805305600E+0002
  0
LINE
  8
0
 10
 3.80238912550400E+0002
 20
 4.36494805305600E+0002
 11
 3.80274978649700E+0002
 21
 4.36494147270800E+0002
  0
LINE
  8
0
 10
 3.80274978649700E+0002
 20
 4.36494147270800E+0002
 11
 3.80311082328800E+0002
 21
 4.36493676803200E+0002
  0
LINE
  8
0
 10
 3.80311082328800E+0002
 20
 4.36493676803200E+0002
 11
 3.80347222981100E+0002
 21
 4.36493394260400E+0002
  0
LINE
  8
0
 10
 3.80347222981100E+0002
 20
 4.36493394260400E+0002
 11
 3.80383400000000E+0002
 21
 4.36493300000000E+0002
  0
LINE
  8
0
 10
 3.80383400000000E+0002
 20
 4.36493300000000E+0002
 11
 3.80382600000000E+0002
 21
 4.36493300000000E+0002
  0
LINE
  8
0
 10
 3.80382600000000E+0002
 20
 4.36493300000000E+0002
 11
 4.14600000000000E+0002
 21
 4.36500000000000E+0002
  0
ARC
  8
0
 10
 4.14600000000000E+0002
 20
 4.43150000000000E+0002
 40
 6.65000000000000E+0000
 50
 2.70000000000000E+0002
 51
 3.30000000000000E+0002
  0
LINE
  8
0
 10
 4.20359068935167E+0002
 20
 4.39825000000000E+0002
 11
 4.20397887533451E+0002
 21
 4.39800000000000E+0002
  0
ARC
  8
0
 10
 4.31050000000000E+0002
 20
 4.33650000000000E+0002
 40
 1.23000000000000E+0001
 50
 9.00000000000000E+0001
 51
 1.50000000000000E+0002
  0
LINE
  8
0
 10
 4.31050000000000E+0002
 20
 4.45950000000000E+0002
 11
 4.34885500000000E+0002
 21
 4.46000500000000E+0002
  0
LINE
  8
0
 10
 4.34885500000000E+0002
 20
 4.46000500000000E+0002
 11
 4.38700000000000E+0002
 21
 4.46000000000000E+0002
  0
ARC
  8
0
 10
 4.38700000000000E+0002
 20
 4.44100000000000E+0002
 40
 1.90000000000000E+0000
 50
 5.00000000000000E-0003
 51
 9.00000000000000E+0001
  0
LINE
  8
0
 10
 4.40599999992765E+0002
 20
 4.44100165806279E+0002
 11
 4.40600000000000E+0002
 21
 4.42350000000000E+0002
  0
ARC
  8
0
 10
 4.38700000000000E+0002
 20
 4.42350000000000E+0002
 40
 1.90000000000000E+0000
 50
 2.69995000000000E+0002
 51
 3.60000000000000E+0002
  0
LINE
  8
0
 10
 4.38699834193721E+0002
 20
 4.40450000007235E+0002
 11
 4.34885500000000E+0002
 21
 4.40423500000000E+0002
  0
LINE
  8
0
 10
 4.34885500000000E+0002
 20
 4.40423500000000E+0002
 11
 4.31081300000000E+0002
 21
 4.40423500000000E+0002
  0
ENDSEC
  0
EOF
