<?xml version="1.0" encoding="UTF-8"?>
<svg xmlns="http://www.w3.org/2000/svg" version="1.1" width="26.33mm" height="14.53mm" viewBox="0 0 74.63 41.19">
<g transform="scale(0.1)">
  <path fill="#1b1918" fill-rule="evenodd" d="M99.5 159.45L99.5 159.45C99.45 159.45 99.45 159.45 99.45 159.45C88.85 159.45 78.4 156.7 69.15 151.45C59.95 146.25 52.3 138.7 46.95 129.65C41.65 120.55 38.85 110.3 38.85 99.85C38.85 99.8 38.85 99.8 38.85 99.75L38.85 99.75C38.85 89.35 41.65 79.05 46.95 70C52.3 60.95 59.95 53.4 69.15 48.2C78.4 42.95 88.85 40.2 99.45 40.2C110.1 40.2 120.55 42.95 129.8 48.2C139 53.4 146.65 60.95 152 70C157.3 79.1 160.1 89.35 160.1 99.85C160.1 110.3 157.3 120.55 152 129.65C146.65 138.7 139 146.25 129.8 151.45C120.55 156.7 110.1 159.45 99.5 159.45Z"/>
  <path fill="#1b1918" d="M99.45 40C88.82 40 78.33 42.76 69.05 48.03C59.82 53.24 52.15 60.82 46.78 69.9L46.78 69.9L46.78 69.9C41.46 78.98 38.65 89.31 38.65 99.75L38.65 99.85C38.65 110.34 41.46 120.62 46.78 129.75L46.78 129.75L46.78 129.75C52.15 138.83 59.82 146.41 69.05 151.62C78.33 156.89 88.82 159.65 99.45 159.65L99.5 159.65C110.13 159.65 120.62 156.89 129.9 151.62L129.9 151.62C139.13 146.41 146.8 138.83 152.17 129.75L152.17 129.75L152.17 129.75C157.49 120.62 160.3 110.34 160.3 99.85C160.3 89.31 157.49 79.03 152.17 69.9L152.17 69.9L152.17 69.9C146.8 60.82 139.13 53.24 129.9 48.03L129.9 48.03C120.62 42.76 110.13 40 99.45 40ZM99.45 40.4C110.07 40.4 120.48 43.14 129.7 48.37L129.7 48.37L129.7 48.37C138.87 53.56 146.49 61.08 151.83 70.1C157.11 79.17 159.9 89.39 159.9 99.85C159.9 110.26 157.11 120.48 151.83 129.55C146.49 138.57 138.87 146.09 129.7 151.28L129.7 151.28L129.7 151.28C120.48 156.51 110.07 159.25 99.5 159.25L99.45 159.25C88.88 159.25 78.47 156.51 69.25 151.28L69.25 151.28L69.25 151.28C60.08 146.09 52.46 138.57 47.12 129.55C41.84 120.48 39.05 110.26 39.05 99.85L39.05 99.75C39.05 89.39 41.84 79.12 47.12 70.1L47.12 70.1C47.12 70.1 47.12 70.1 47.12 70.1C52.45 61.08 60.08 53.56 69.25 48.37L69.25 48.37L69.25 48.37C78.47 43.14 88.88 40.4 99.45 40.4Z"/>
  <path fill="#1b1918" fill-rule="evenodd" d="M164.9 68.25L156.8 72.3C142.05 48.85 125.3 36.85 99.45 37.35C73.65 37.85 55.3 50.85 42.7 72.7L34.55 68.65C46.35 44.5 70.7 28.55 99.45 28.55C128.25 28.55 149.3 40.7 164.9 68.25Z"/>
  <path fill="#ffec00" fill-rule="evenodd" d="M131.5 125.45L172.7 166.45L166.45 172.7L125.25 131.65C118.1 137.45 109.1 140.9 99.35 140.9C89.75 140.9 80.7 137.45 73.55 131.7L32.35 172.7L26.1 166.45L67.25 125.45C62.4 119.45 58.95 111.95 58.15 103.8L0 103.8L0 94.9L58.2 94.9C58.95 86.85 62.35 79.35 67.15 73.35L26 32.25L32.2 26.05L73.4 67.15C80.5 61.4 89.6 57.85 99.35 57.85C109.15 57.85 118.25 61.35 125.4 67.1L166.6 26.05L172.85 32.25L131.6 73.35C136.4 79.45 139.8 86.85 140.5 94.9L198.7 94.9L198.7 103.8L140.5 103.8C139.7 111.95 136.4 119.5 131.5 125.45Z"/>
  <path fill="#ffec00" fill-rule="evenodd" d="M140.55 95.1L198.65 95L198.65 103.8L140.5 103.85C139.55 113 135.55 121.85 128.7 128.75C121.9 135.5 113.05 139.5 103.95 140.5L103.85 198.6L95.05 198.6L95.1 140.5C87.4 139.7 79.65 136.8 73.3 131.65L32.2 172.8L25.95 166.55L67.15 125.35C61.95 119.1 59.05 111.45 58.2 103.75L0.05 103.8L0.05 95L58.25 95C59.2 85.9 63.1 76.95 70 70.05C76.95 63.1 85.85 59.15 95 58.15L95.05 0L103.85 0L103.75 58.2C111.5 59.1 119.1 61.95 125.3 67.2L166.5 26L172.75 32.25L131.55 73.4C136.75 79.7 139.8 87.4 140.55 95.1Z"/>
  <path fill="#1b1918" fill-rule="evenodd" d="M724.35 367.65L22.45 367.65C10.4 367.65 0.55 377.35 0.55 389.6L0.55 389.6L0.55 401.6L746.25 401.6L746.25 389.6C746.25 377.35 736.4 367.65 724.35 367.65Z"/>
  <path fill="#ffec00" fill-rule="evenodd" d="M724.3 375.5L22.45 375.5C14.8 375.5 8.6 381.85 8.6 389.6L8.6 389.6L8.6 401.6C34.7 405.35 58.95 410.05 84.15 405.35C131.3 400.6 178.45 402.55 223.75 405.35C265.9 411 309 411 351.2 406.3C392.75 402.55 427.75 402.55 469.3 406.3C512.1 411.9 552.05 411 592.95 405.35C622.65 401.6 651.4 401.6 680.1 404.4C703.2 407.25 717.9 404.4 738.2 401.6L738.2 389.6C738.2 381.85 731.95 375.5 724.3 375.5Z"/>
  <path fill="#1b1918" fill-rule="evenodd" d="M172.05 360.35L172.05 360.35C165.85 360.35 159.75 358.75 154.4 355.7C149.05 352.65 144.6 348.25 141.5 343C138.4 337.7 136.75 331.7 136.75 325.65L136.75 325.65C136.75 319.55 138.4 313.55 141.5 308.25C144.6 303 149.05 298.6 154.4 295.55C159.75 292.5 165.85 290.9 172.05 290.9C178.25 290.9 184.35 292.5 189.7 295.55C195.05 298.6 199.5 303 202.6 308.25C205.7 313.55 207.35 319.55 207.35 325.6C207.35 331.7 205.7 337.7 202.6 343C199.5 348.25 195.05 352.65 189.7 355.7C184.35 358.75 178.25 360.35 172.05 360.35Z"/>
  <path fill="#1b1918" fill-rule="evenodd" d="M210.15 307.3L205.45 309.7C196.9 296 187.05 288.95 172.05 289.25C157.05 289.55 146.3 297.15 139 309.9L134.25 307.55C141.1 293.45 155.35 284.15 172.05 284.15C188.8 284.15 201.1 291.25 210.15 307.3Z"/>
  <path fill="#ffec00" fill-rule="evenodd" d="M190.7 340.55L214.65 364.5L211 368.1L187.05 344.15C182.9 347.6 177.65 349.6 172 349.6C166.35 349.6 161.1 347.6 156.9 344.2L132.95 368.1L129.35 364.5L153.25 340.55C150.45 337.05 148.45 332.7 147.95 327.95L114.15 327.95L114.15 322.8L148 322.8C148.45 318.15 150.4 313.75 153.2 310.25L129.25 286.3L132.9 282.7L156.85 306.65C160.95 303.25 166.25 301.2 172 301.2C177.7 301.2 183 303.25 187.15 306.65L211.1 282.7L214.75 286.3L190.75 310.25C193.55 313.8 195.5 318.15 195.9 322.8L229.8 322.8L229.8 327.95L195.9 327.95C195.45 332.7 193.55 337.1 190.7 340.55Z"/>
  <path fill="#ffec00" fill-rule="evenodd" d="M195.9 322.85L229.75 322.8L229.75 327.9L195.9 327.95C195.35 333.3 193.05 338.4 189.05 342.45C185.05 346.4 179.95 348.7 174.65 349.25L174.55 383.1L169.45 383.1L169.45 349.3C165 348.8 160.5 347.15 156.8 344.15L132.85 368.1L129.2 364.45L153.2 340.45C150.2 336.85 148.5 332.35 148 327.9L114.15 327.9L114.15 322.8L148.05 322.8C148.6 317.5 150.85 312.3 154.85 308.3C158.9 304.25 164.1 301.95 169.4 301.35L169.45 267.5L174.55 267.5L174.5 301.4C179 301.9 183.45 303.6 187.05 306.6L211.05 282.6L214.7 286.25L190.7 310.25C193.75 313.9 195.5 318.4 195.9 322.85Z"/>
  <path fill="#1b1918" fill-rule="evenodd" d="M565.6 360.35L565.6 360.35C559.4 360.35 553.3 358.75 547.95 355.7C542.6 352.65 538.15 348.25 535.05 343C531.95 337.7 530.3 331.7 530.3 325.65L530.3 325.65C530.3 319.55 531.95 313.55 535.05 308.25C538.15 303 542.6 298.6 547.95 295.55C553.3 292.5 559.4 290.9 565.6 290.9C571.8 290.9 577.9 292.5 583.25 295.55C588.6 298.6 593.05 303 596.15 308.25C599.25 313.55 600.9 319.55 600.9 325.6C600.9 331.7 599.25 337.7 596.15 343C593.05 348.25 588.6 352.65 583.25 355.7C577.9 358.75 571.8 360.35 565.6 360.35Z"/>
  <path fill="#1b1918" fill-rule="evenodd" d="M603.7 307.3L599 309.7C590.45 296 580.6 288.95 565.6 289.25C550.6 289.55 539.85 297.15 532.55 309.9L527.8 307.55C534.65 293.45 548.9 284.15 565.6 284.15C582.35 284.15 594.65 291.25 603.7 307.3Z"/>
  <path fill="#ffec00" fill-rule="evenodd" d="M584.25 340.55L608.2 364.5L604.55 368.1L580.6 344.15C576.45 347.6 571.2 349.6 565.55 349.6C559.9 349.6 554.65 347.6 550.45 344.2L526.5 368.1L522.9 364.5L546.8 340.55C544 337.05 542 332.7 541.5 327.95L507.7 327.95L507.7 322.8L541.55 322.8C542 318.15 543.95 313.75 546.75 310.25L522.8 286.3L526.45 282.7L550.4 306.65C554.5 303.25 559.8 301.2 565.55 301.2C571.25 301.2 576.55 303.25 580.7 306.65L604.65 282.7L608.3 286.3L584.3 310.25C587.1 313.8 589.05 318.15 589.45 322.8L623.35 322.8L623.35 327.95L589.45 327.95C589 332.7 587.1 337.1 584.25 340.55Z"/>
  <path fill="#ffec00" fill-rule="evenodd" d="M589.45 322.85L623.3 322.8L623.3 327.9L589.45 327.95C588.9 333.3 586.6 338.4 582.6 342.45C578.6 346.4 573.5 348.7 568.2 349.25L568.1 383.1L563 383.1L563 349.3C558.55 348.8 554.05 347.15 550.35 344.15L526.4 368.1L522.75 364.45L546.75 340.45C543.75 336.85 542.05 332.35 541.55 327.9L507.7 327.9L507.7 322.8L541.6 322.8C542.15 317.5 544.4 312.3 548.4 308.3C552.45 304.25 557.65 301.95 562.95 301.35L563 267.5L568.1 267.5L568.05 301.4C572.55 301.9 577 303.6 580.6 306.6L604.6 282.6L608.25 286.25L584.25 310.25C587.3 313.9 589.05 318.4 589.45 322.85Z"/>
</g>
</svg>
