  0
SECTION
  2
HEADER
  9
$ACADVER
  1
AC1003
  9
$INSBASE
 10
0.0
 20
0.0
  9
$EXTMIN
 10
-4.20718000000000E+0002
 20
 0.00000000000000E+0000
  9
$EXTMAX
 10
 4.20718000000000E+0002
 20
 7.39422900000000E+0002
  9
$LIMMIN
 10
0.0
 20
0.0
  9
$LIMMAX
 10
410.0
 20
287.0
  9
$VIEWCTR
 10
227.0059616
 20
165.058879 
  9
$VIEWSIZE
 40
 8.41436000000000E+0002
9
$SNAPMODE
70
0
9
$SNAPUNIT
10
1
20
1
9
$GRIDMODE
70
0
9
$GRIDUNIT
10
1
20
1
9
$ORTHOMODE
70
0
9
$rEGENMODE
70
1
9
$FILLMODE
70
1
9
$DRAGMODE
70
2
9
$LTSCALE
40
25.0
9
$OSMODE
70
0
9
$ATTMODE
70
1
9
$TRACEWID
40
1.0
9
$TEXTSTYLE
7
STANDARD
9
$CLAYER
8
0
9
$CELTYPE
6
VONLAYER
9
$CECOLOR
62
256
9
$LUNITS
70
2
9
$LUPREC
70
2
9
$AXISMODE
70
0
9
$AXISUNIT
10
0
20
0
9
$SKETCHINC
40
1.0
9
$FILLETRAD
40
0.0
9
$AUNITS
70
0
9
$AUPREC
70
0
9
$MENU
1
ACAD
9
$ELEVATION
40
0.0
9
$THICKNESS
40
0.0
9
$VIEWDIR
10
0.0
20
0.0
30
1.0
9
$LIMCHECK
70
0
9
$BLIPMODE
70
1
9
$CHAMFERA
40
0.0
9
$CHAMFERB
40
0.0
9
$USRTIMER
70
1
9
$ANGBASE
50
0.0
9
$ANGDIR
70
0
9
$PDMODE
70
0
9
$PDSIZE
40
0.0
9
$PLINEWID
40
0.0
9
$COORDS
70
0
0
ENDSEC
0
SECTION
2
TABLES
0
TABLE
2
LTYPE
70
1
0
LTYPE
2
AUSGEZOGEN
70
64
3
Ausgezogene Linie
72
65
73
0
40
0.0
0
ENDTAB
0
TABLE
2
LAYER
70
1
0
LAYER
2
0
70
0
62
7
6
AUSGEZOGEN
0
ENDTAB
0
TABLE
2
STYLE
70
1
0
STYLE
2
STANDARD
70
0
40
0.0
41
1.0
50
0.0
71
0
42
3.5
3
txt
4

0
ENDTAB
0
TABLE
2
VIEW
70
0
0
ENDTAB
0
ENDSEC
0
SECTION
2
BLOCKS
0
ENDSEC
0
SECTION
2
ENTITIES
  0
ARC
  8
0
 10
-3.80718000000000E+0002
 20
 4.00000000000000E+0001
 40
 4.00000000000000E+0001
 50
 1.50000000000000E+0002
 51
 2.70000000000000E+0002
  0
LINE
  8
0
 10
-4.15359016151378E+0002
 20
 6.00000000000000E+0001
 11
-3.46410161513775E+0001
 21
 7.19422900000000E+0002
  0
ARC
  8
0
 10
 0.00000000000000E+0000
 20
 6.99422900000000E+0002
 40
 4.00000000000000E+0001
 50
 3.00000000000000E+0001
 51
 1.50000000000000E+0002
  0
LINE
  8
0
 10
 3.46410161513775E+0001
 20
 7.19422900000000E+0002
 11
 4.15359016151378E+0002
 21
 6.00000000000000E+0001
  0
ARC
  8
0
 10
 3.80718000000000E+0002
 20
 4.00000000000000E+0001
 40
 4.00000000000000E+0001
 50
 2.70000000000000E+0002
 51
 3.90000000000000E+0002
  0
LINE
  8
0
 10
 3.80718000000000E+0002
 20
 0.00000000000000E+0000
 11
-3.80718000000000E+0002
 21
 0.00000000000000E+0000
  0
ARC
  8
0
 10
-3.80718000000000E+0002
 20
 4.00000000000000E+0001
 40
 2.50000000000000E+0001
 50
 1.50000000000000E+0002
 51
 2.70000000000000E+0002
  0
LINE
  8
0
 10
-4.02368635094611E+0002
 20
 5.25000000000000E+0001
 11
-2.16506350946110E+0001
 21
 7.11922900000000E+0002
  0
ARC
  8
0
 10
 0.00000000000000E+0000
 20
 6.99422900000000E+0002
 40
 2.50000000000000E+0001
 50
 3.00000000000000E+0001
 51
 1.50000000000000E+0002
  0
LINE
  8
0
 10
 2.16506350946110E+0001
 20
 7.11922900000000E+0002
 11
 4.02368635094611E+0002
 21
 5.25000000000000E+0001
  0
ARC
  8
0
 10
 3.80718000000000E+0002
 20
 4.00000000000000E+0001
 40
 2.50000000000000E+0001
 50
 2.70000000000000E+0002
 51
 3.90000000000000E+0002
  0
LINE
  8
0
 10
 3.80718000000000E+0002
 20
 1.50000000000000E+0001
 11
-3.80718000000000E+0002
 21
 1.50000000000000E+0001
  0
LINE
  8
0
 10
-2.94115400000000E+0002
 20
 9.00000000000000E+0001
 11
 0.00000000000000E+0000
 21
 5.99422900000000E+0002
  0
LINE
  8
0
 10
 0.00000000000000E+0000
 20
 5.99422900000000E+0002
 11
 2.94115400000000E+0002
 21
 9.00000000000000E+0001
  0
LINE
  8
0
 10
 2.94115400000000E+0002
 20
 9.00000000000000E+0001
 11
-2.94115400000000E+0002
 21
 9.00000000000000E+0001
  0
CIRCLE
  8
0
 10
 0.00000000000000E+0000
 20
 1.55000000000000E+0002
 40
 4.00000000000000E+0001
  0
ARC
  8
0
 10
 0.00000000000000E+0000
 20
 2.35000000000000E+0002
 40
 2.00000000000000E+0001
 50
 1.85099690000000E+0002
 51
 3.54900310000000E+0002
  0
LINE
  8
0
 10
-1.99208309272124E+0001
 20
 2.33222221844713E+0002
 11
-3.98416618544249E+0001
 21
 4.56444443689426E+0002
  0
ARC
  8
0
 10
 0.00000000000000E+0000
 20
 4.60000000000000E+0002
 40
 4.00000000000000E+0001
 50
 3.54900690000000E+0002
 51
 5.45099690000000E+0002
  0
LINE
  8
0
 10
 3.98416854348911E+0001
 20
 4.56444707929412E+0002
 11
 1.99208000000000E+0001
 21
 2.33222200000000E+0002
  0
ENDSEC
  0
EOF
