  0
SECTION
  2
HEADER
  9
$ACADVER
  1
AC1003
  9
$INSBASE
 10
0.0
 20
0.0
  9
$EXTMIN
 10
-3.00000000000000E+0002
 20
-1.65000000000000E+0002
  9
$EXTMAX
 10
 3.00000000000000E+0002
 20
 1.65000000000000E+0002
  9
$LIMMIN
 10
0.0
 20
0.0
  9
$LIMMAX
 10
410.0
 20
287.0
  9
$VIEWCTR
 10
227.0059616
 20
165.058879 
  9
$VIEWSIZE
 40
 6.00000000000000E+0002
9
$SNAPMODE
70
0
9
$SNAPUNIT
10
1
20
1
9
$GRIDMODE
70
0
9
$GRIDUNIT
10
1
20
1
9
$ORTHOMODE
70
0
9
$rEGENMODE
70
1
9
$FILLMODE
70
1
9
$DRAGMODE
70
2
9
$LTSCALE
40
25.0
9
$OSMODE
70
0
9
$ATTMODE
70
1
9
$TRACEWID
40
1.0
9
$TEXTSTYLE
7
STANDARD
9
$CLAYER
8
0
9
$CELTYPE
6
VONLAYER
9
$CECOLOR
62
256
9
$LUNITS
70
2
9
$LUPREC
70
2
9
$AXISMODE
70
0
9
$AXISUNIT
10
0
20
0
9
$SKETCHINC
40
1.0
9
$FILLETRAD
40
0.0
9
$AUNITS
70
0
9
$AUPREC
70
0
9
$MENU
1
ACAD
9
$ELEVATION
40
0.0
9
$THICKNESS
40
0.0
9
$VIEWDIR
10
0.0
20
0.0
30
1.0
9
$LIMCHECK
70
0
9
$BLIPMODE
70
1
9
$CHAMFERA
40
0.0
9
$CHAMFERB
40
0.0
9
$USRTIMER
70
1
9
$ANGBASE
50
0.0
9
$ANGDIR
70
0
9
$PDMODE
70
0
9
$PDSIZE
40
0.0
9
$PLINEWID
40
0.0
9
$COORDS
70
0
0
ENDSEC
0
SECTION
2
TABLES
0
TABLE
2
LTYPE
70
1
0
LTYPE
2
AUSGEZOGEN
70
64
3
Ausgezogene Linie
72
65
73
0
40
0.0
0
ENDTAB
0
TABLE
2
LAYER
70
1
0
LAYER
2
0
70
0
62
7
6
AUSGEZOGEN
0
ENDTAB
0
TABLE
2
STYLE
70
1
0
STYLE
2
STANDARD
70
0
40
0.0
41
1.0
50
0.0
71
0
42
3.5
3
txt
4

0
ENDTAB
0
TABLE
2
VIEW
70
0
0
ENDTAB
0
ENDSEC
0
SECTION
2
BLOCKS
0
ENDSEC
0
SECTION
2
ENTITIES
  0
ARC
  8
0
 10
-2.60000000000000E+0002
 20
-1.25000000000000E+0002
 40
 4.00000000000000E+0001
 50
 1.80000000000000E+0002
 51
 2.70000000000000E+0002
  0
LINE
  8
0
 10
-3.00000000000000E+0002
 20
-1.25000000000000E+0002
 11
-3.00000000000000E+0002
 21
 1.25000000000000E+0002
  0
ARC
  8
0
 10
-2.60000000000000E+0002
 20
 1.25000000000000E+0002
 40
 4.00000000000000E+0001
 50
 9.00000000000000E+0001
 51
 1.80000000000000E+0002
  0
LINE
  8
0
 10
-2.60000000000000E+0002
 20
 1.65000000000000E+0002
 11
 2.60000000000000E+0002
 21
 1.65000000000000E+0002
  0
ARC
  8
0
 10
 2.60000000000000E+0002
 20
 1.25000000000000E+0002
 40
 4.00000000000000E+0001
 50
 0.00000000000000E+0000
 51
 9.00000000000000E+0001
  0
LINE
  8
0
 10
 3.00000000000000E+0002
 20
 1.25000000000000E+0002
 11
 3.00000000000000E+0002
 21
-1.25000000000000E+0002
  0
ARC
  8
0
 10
 2.60000000000000E+0002
 20
-1.25000000000000E+0002
 40
 4.00000000000000E+0001
 50
 2.70000000000000E+0002
 51
 3.60000000000000E+0002
  0
LINE
  8
0
 10
 2.60000000000000E+0002
 20
-1.65000000000000E+0002
 11
-2.60000000000000E+0002
 21
-1.65000000000000E+0002
  0
ARC
  8
0
 10
-2.60000000000000E+0002
 20
-1.25000000000000E+0002
 40
 3.00000000000000E+0001
 50
 1.80000000000000E+0002
 51
 2.70000000000000E+0002
  0
LINE
  8
0
 10
-2.90000000000000E+0002
 20
-1.25000000000000E+0002
 11
-2.90000000000000E+0002
 21
 1.25000000000000E+0002
  0
ARC
  8
0
 10
-2.60000000000000E+0002
 20
 1.25000000000000E+0002
 40
 3.00000000000000E+0001
 50
 9.00000000000000E+0001
 51
 1.80000000000000E+0002
  0
LINE
  8
0
 10
-2.60000000000000E+0002
 20
 1.55000000000000E+0002
 11
 2.60000000000000E+0002
 21
 1.55000000000000E+0002
  0
ARC
  8
0
 10
 2.60000000000000E+0002
 20
 1.25000000000000E+0002
 40
 3.00000000000000E+0001
 50
 0.00000000000000E+0000
 51
 9.00000000000000E+0001
  0
LINE
  8
0
 10
 2.90000000000000E+0002
 20
 1.25000000000000E+0002
 11
 2.90000000000000E+0002
 21
-1.25000000000000E+0002
  0
ARC
  8
0
 10
 2.60000000000000E+0002
 20
-1.25000000000000E+0002
 40
 3.00000000000000E+0001
 50
 2.70000000000000E+0002
 51
 3.60000000000000E+0002
  0
LINE
  8
0
 10
 2.60000000000000E+0002
 20
-1.55000000000000E+0002
 11
-2.60000000000000E+0002
 21
-1.55000000000000E+0002
  0
ARC
  8
0
 10
-2.60000000000000E+0002
 20
-1.25000000000000E+0002
 40
 1.50000000000000E+0001
 50
 1.80000000000000E+0002
 51
 2.70000000000000E+0002
  0
LINE
  8
0
 10
-2.75000000000000E+0002
 20
-1.25000000000000E+0002
 11
-2.75000000000000E+0002
 21
 1.25000000000000E+0002
  0
ARC
  8
0
 10
-2.60000000000000E+0002
 20
 1.25000000000000E+0002
 40
 1.50000000000000E+0001
 50
 9.00000000000000E+0001
 51
 1.80000000000000E+0002
  0
LINE
  8
0
 10
-2.60000000000000E+0002
 20
 1.40000000000000E+0002
 11
 2.60000000000000E+0002
 21
 1.40000000000000E+0002
  0
ARC
  8
0
 10
 2.60000000000000E+0002
 20
 1.25000000000000E+0002
 40
 1.50000000000000E+0001
 50
 0.00000000000000E+0000
 51
 9.00000000000000E+0001
  0
LINE
  8
0
 10
 2.75000000000000E+0002
 20
 1.25000000000000E+0002
 11
 2.75000000000000E+0002
 21
-1.25000000000000E+0002
  0
ARC
  8
0
 10
 2.60000000000000E+0002
 20
-1.25000000000000E+0002
 40
 1.50000000000000E+0001
 50
 2.70000000000000E+0002
 51
 3.60000000000000E+0002
  0
LINE
  8
0
 10
 2.60000000000000E+0002
 20
-1.40000000000000E+0002
 11
-2.60000000000000E+0002
 21
-1.40000000000000E+0002
  0
LINE
  8
0
 10
 1.02206700000000E+0002
 20
-2.82047000000000E+0001
 11
 1.02200000000000E+0002
 21
-2.82000000000000E+0001
  0
ARC
  8
0
 10
 1.02200000000000E+0002
 20
-4.61000000000000E+0001
 40
 1.79000000000000E+0001
 50
 2.70000000000000E+0002
 51
 4.50000000000000E+0002
  0
LINE
  8
0
 10
 1.02200000000000E+0002
 20
-6.40000000000000E+0001
 11
 1.02200000000000E+0002
 21
-6.40000000000000E+0001
  0
ARC
  8
0
 10
 1.02200000000000E+0002
 20
-4.61000000000000E+0001
 40
 1.79000000000000E+0001
 50
 2.25579930000000E+0002
 51
 2.70000000000000E+0002
  0
LINE
  8
0
 10
 8.96715471240296E+0001
 20
-5.88846731884155E+0001
 11
 1.05400000000000E+0002
 21
-5.89000000000000E+0001
  0
ARC
  8
0
 10
 1.05400000000000E+0002
 20
-5.25000000000000E+0001
 40
 6.40000000000000E+0000
 50
 2.70000000000000E+0002
 51
 3.84069670000000E+0002
  0
LINE
  8
0
 10
 1.11243521295803E+0002
 20
-4.98897780045583E+0001
 11
 1.01557700000000E+0002
 21
-2.82177000000000E+0001
  0
LINE
  8
0
 10
 1.01557700000000E+0002
 20
-2.82177000000000E+0001
 11
 1.01564161557300E+0002
 21
-2.82174726632000E+0001
  0
LINE
  8
0
 10
 1.01564161557300E+0002
 20
-2.82174726632000E+0001
 11
 1.01570622258400E+0002
 21
-2.82172466656000E+0001
  0
LINE
  8
0
 10
 1.01570622258400E+0002
 20
-2.82172466656000E+0001
 11
 1.01577082147100E+0002
 21
-2.82170220264000E+0001
  0
LINE
  8
0
 10
 1.01577082147100E+0002
 20
-2.82170220264000E+0001
 11
 1.01583541267200E+0002
 21
-2.82167987648000E+0001
  0
LINE
  8
0
 10
 1.01583541267200E+0002
 20
-2.82167987648000E+0001
 11
 1.01589999662500E+0002
 21
-2.82165769000000E+0001
  0
LINE
  8
0
 10
 1.01589999662500E+0002
 20
-2.82165769000000E+0001
 11
 1.01596457376800E+0002
 21
-2.82163564512000E+0001
  0
LINE
  8
0
 10
 1.01596457376800E+0002
 20
-2.82163564512000E+0001
 11
 1.01602914453900E+0002
 21
-2.82161374376000E+0001
  0
LINE
  8
0
 10
 1.01602914453900E+0002
 20
-2.82161374376000E+0001
 11
 1.01609370937600E+0002
 21
-2.82159198784000E+0001
  0
LINE
  8
0
 10
 1.01609370937600E+0002
 20
-2.82159198784000E+0001
 11
 1.01615826871700E+0002
 21
-2.82157037928000E+0001
  0
LINE
  8
0
 10
 1.01615826871700E+0002
 20
-2.82157037928000E+0001
 11
 1.01622282300000E+0002
 21
-2.82154892000000E+0001
  0
LINE
  8
0
 10
 1.01622282300000E+0002
 20
-2.82154892000000E+0001
 11
 1.01628737266300E+0002
 21
-2.82152761192000E+0001
  0
LINE
  8
0
 10
 1.01628737266300E+0002
 20
-2.82152761192000E+0001
 11
 1.01635191814400E+0002
 21
-2.82150645696000E+0001
  0
LINE
  8
0
 10
 1.01635191814400E+0002
 20
-2.82150645696000E+0001
 11
 1.01641645988100E+0002
 21
-2.82148545704000E+0001
  0
LINE
  8
0
 10
 1.01641645988100E+0002
 20
-2.82148545704000E+0001
 11
 1.01648099831200E+0002
 21
-2.82146461408000E+0001
  0
LINE
  8
0
 10
 1.01648099831200E+0002
 20
-2.82146461408000E+0001
 11
 1.01654553387500E+0002
 21
-2.82144393000000E+0001
  0
LINE
  8
0
 10
 1.01654553387500E+0002
 20
-2.82144393000000E+0001
 11
 1.01661006700800E+0002
 21
-2.82142340672000E+0001
  0
LINE
  8
0
 10
 1.01661006700800E+0002
 20
-2.82142340672000E+0001
 11
 1.01667459814900E+0002
 21
-2.82140304616000E+0001
  0
LINE
  8
0
 10
 1.01667459814900E+0002
 20
-2.82140304616000E+0001
 11
 1.01673912773600E+0002
 21
-2.82138285024000E+0001
  0
LINE
  8
0
 10
 1.01673912773600E+0002
 20
-2.82138285024000E+0001
 11
 1.01680365620700E+0002
 21
-2.82136282088000E+0001
  0
LINE
  8
0
 10
 1.01680365620700E+0002
 20
-2.82136282088000E+0001
 11
 1.01686818400000E+0002
 21
-2.82134296000000E+0001
  0
LINE
  8
0
 10
 1.01686818400000E+0002
 20
-2.82134296000000E+0001
 11
 1.01693271155300E+0002
 21
-2.82132326952000E+0001
  0
LINE
  8
0
 10
 1.01693271155300E+0002
 20
-2.82132326952000E+0001
 11
 1.01699723930400E+0002
 21
-2.82130375136000E+0001
  0
LINE
  8
0
 10
 1.01699723930400E+0002
 20
-2.82130375136000E+0001
 11
 1.01706176769100E+0002
 21
-2.82128440744000E+0001
  0
LINE
  8
0
 10
 1.01706176769100E+0002
 20
-2.82128440744000E+0001
 11
 1.01712629715200E+0002
 21
-2.82126523968000E+0001
  0
LINE
  8
0
 10
 1.01712629715200E+0002
 20
-2.82126523968000E+0001
 11
 1.01719082812500E+0002
 21
-2.82124625000000E+0001
  0
LINE
  8
0
 10
 1.01719082812500E+0002
 20
-2.82124625000000E+0001
 11
 1.01725536104800E+0002
 21
-2.82122744032000E+0001
  0
LINE
  8
0
 10
 1.01725536104800E+0002
 20
-2.82122744032000E+0001
 11
 1.01731989635900E+0002
 21
-2.82120881256000E+0001
  0
LINE
  8
0
 10
 1.01731989635900E+0002
 20
-2.82120881256000E+0001
 11
 1.01738443449600E+0002
 21
-2.82119036864000E+0001
  0
LINE
  8
0
 10
 1.01738443449600E+0002
 20
-2.82119036864000E+0001
 11
 1.01744897589700E+0002
 21
-2.82117211048000E+0001
  0
LINE
  8
0
 10
 1.01744897589700E+0002
 20
-2.82117211048000E+0001
 11
 1.01751352100000E+0002
 21
-2.82115404000000E+0001
  0
LINE
  8
0
 10
 1.01751352100000E+0002
 20
-2.82115404000000E+0001
 11
 1.01757807024300E+0002
 21
-2.82113615912000E+0001
  0
LINE
  8
0
 10
 1.01757807024300E+0002
 20
-2.82113615912000E+0001
 11
 1.01764262406400E+0002
 21
-2.82111846976000E+0001
  0
LINE
  8
0
 10
 1.01764262406400E+0002
 20
-2.82111846976000E+0001
 11
 1.01770718290100E+0002
 21
-2.82110097384000E+0001
  0
LINE
  8
0
 10
 1.01770718290100E+0002
 20
-2.82110097384000E+0001
 11
 1.01777174719200E+0002
 21
-2.82108367328000E+0001
  0
LINE
  8
0
 10
 1.01777174719200E+0002
 20
-2.82108367328000E+0001
 11
 1.01783631737500E+0002
 21
-2.82106657000000E+0001
  0
LINE
  8
0
 10
 1.01783631737500E+0002
 20
-2.82106657000000E+0001
 11
 1.01790089388800E+0002
 21
-2.82104966592000E+0001
  0
LINE
  8
0
 10
 1.01790089388800E+0002
 20
-2.82104966592000E+0001
 11
 1.01796547716900E+0002
 21
-2.82103296296000E+0001
  0
LINE
  8
0
 10
 1.01796547716900E+0002
 20
-2.82103296296000E+0001
 11
 1.01803006765600E+0002
 21
-2.82101646304000E+0001
  0
LINE
  8
0
 10
 1.01803006765600E+0002
 20
-2.82101646304000E+0001
 11
 1.01809466578700E+0002
 21
-2.82100016808000E+0001
  0
LINE
  8
0
 10
 1.01809466578700E+0002
 20
-2.82100016808000E+0001
 11
 1.01815927200000E+0002
 21
-2.82098408000000E+0001
  0
LINE
  8
0
 10
 1.01815927200000E+0002
 20
-2.82098408000000E+0001
 11
 1.01822388673300E+0002
 21
-2.82096820072000E+0001
  0
LINE
  8
0
 10
 1.01822388673300E+0002
 20
-2.82096820072000E+0001
 11
 1.01828851042400E+0002
 21
-2.82095253216000E+0001
  0
LINE
  8
0
 10
 1.01828851042400E+0002
 20
-2.82095253216000E+0001
 11
 1.01835314351100E+0002
 21
-2.82093707624000E+0001
  0
LINE
  8
0
 10
 1.01835314351100E+0002
 20
-2.82093707624000E+0001
 11
 1.01841778643200E+0002
 21
-2.82092183488000E+0001
  0
LINE
  8
0
 10
 1.01841778643200E+0002
 20
-2.82092183488000E+0001
 11
 1.01848243962500E+0002
 21
-2.82090681000000E+0001
  0
LINE
  8
0
 10
 1.01848243962500E+0002
 20
-2.82090681000000E+0001
 11
 1.01854710352800E+0002
 21
-2.82089200352000E+0001
  0
LINE
  8
0
 10
 1.01854710352800E+0002
 20
-2.82089200352000E+0001
 11
 1.01861177857900E+0002
 21
-2.82087741736000E+0001
  0
LINE
  8
0
 10
 1.01861177857900E+0002
 20
-2.82087741736000E+0001
 11
 1.01867646521600E+0002
 21
-2.82086305344000E+0001
  0
LINE
  8
0
 10
 1.01867646521600E+0002
 20
-2.82086305344000E+0001
 11
 1.01874116387700E+0002
 21
-2.82084891368000E+0001
  0
LINE
  8
0
 10
 1.01874116387700E+0002
 20
-2.82084891368000E+0001
 11
 1.01880587500000E+0002
 21
-2.82083500000000E+0001
  0
LINE
  8
0
 10
 1.01880587500000E+0002
 20
-2.82083500000000E+0001
 11
 1.01887059902300E+0002
 21
-2.82082131432000E+0001
  0
LINE
  8
0
 10
 1.01887059902300E+0002
 20
-2.82082131432000E+0001
 11
 1.01893533638400E+0002
 21
-2.82080785856000E+0001
  0
LINE
  8
0
 10
 1.01893533638400E+0002
 20
-2.82080785856000E+0001
 11
 1.01900008752100E+0002
 21
-2.82079463464000E+0001
  0
LINE
  8
0
 10
 1.01900008752100E+0002
 20
-2.82079463464000E+0001
 11
 1.01906485287200E+0002
 21
-2.82078164448000E+0001
  0
LINE
  8
0
 10
 1.01906485287200E+0002
 20
-2.82078164448000E+0001
 11
 1.01912963287500E+0002
 21
-2.82076889000000E+0001
  0
LINE
  8
0
 10
 1.01912963287500E+0002
 20
-2.82076889000000E+0001
 11
 1.01919442796800E+0002
 21
-2.82075637312000E+0001
  0
LINE
  8
0
 10
 1.01919442796800E+0002
 20
-2.82075637312000E+0001
 11
 1.01925923858900E+0002
 21
-2.82074409576000E+0001
  0
LINE
  8
0
 10
 1.01925923858900E+0002
 20
-2.82074409576000E+0001
 11
 1.01932406517600E+0002
 21
-2.82073205984000E+0001
  0
LINE
  8
0
 10
 1.01932406517600E+0002
 20
-2.82073205984000E+0001
 11
 1.01938890816700E+0002
 21
-2.82072026728000E+0001
  0
LINE
  8
0
 10
 1.01938890816700E+0002
 20
-2.82072026728000E+0001
 11
 1.01945376800000E+0002
 21
-2.82070872000000E+0001
  0
LINE
  8
0
 10
 1.01945376800000E+0002
 20
-2.82070872000000E+0001
 11
 1.01951864511300E+0002
 21
-2.82069741992000E+0001
  0
LINE
  8
0
 10
 1.01951864511300E+0002
 20
-2.82069741992000E+0001
 11
 1.01958353994400E+0002
 21
-2.82068636896000E+0001
  0
LINE
  8
0
 10
 1.01958353994400E+0002
 20
-2.82068636896000E+0001
 11
 1.01964845293100E+0002
 21
-2.82067556904000E+0001
  0
LINE
  8
0
 10
 1.01964845293100E+0002
 20
-2.82067556904000E+0001
 11
 1.01971338451200E+0002
 21
-2.82066502208000E+0001
  0
LINE
  8
0
 10
 1.01971338451200E+0002
 20
-2.82066502208000E+0001
 11
 1.01977833512500E+0002
 21
-2.82065473000000E+0001
  0
LINE
  8
0
 10
 1.01977833512500E+0002
 20
-2.82065473000000E+0001
 11
 1.01984330520800E+0002
 21
-2.82064469472000E+0001
  0
LINE
  8
0
 10
 1.01984330520800E+0002
 20
-2.82064469472000E+0001
 11
 1.01990829519900E+0002
 21
-2.82063491816000E+0001
  0
LINE
  8
0
 10
 1.01990829519900E+0002
 20
-2.82063491816000E+0001
 11
 1.01997330553600E+0002
 21
-2.82062540224000E+0001
  0
LINE
  8
0
 10
 1.01997330553600E+0002
 20
-2.82062540224000E+0001
 11
 1.02003833665700E+0002
 21
-2.82061614888000E+0001
  0
LINE
  8
0
 10
 1.02003833665700E+0002
 20
-2.82061614888000E+0001
 11
 1.02010338900000E+0002
 21
-2.82060716000000E+0001
  0
LINE
  8
0
 10
 1.02010338900000E+0002
 20
-2.82060716000000E+0001
 11
 1.02016846300300E+0002
 21
-2.82059843752000E+0001
  0
LINE
  8
0
 10
 1.02016846300300E+0002
 20
-2.82059843752000E+0001
 11
 1.02023355910400E+0002
 21
-2.82058998336000E+0001
  0
LINE
  8
0
 10
 1.02023355910400E+0002
 20
-2.82058998336000E+0001
 11
 1.02029867774100E+0002
 21
-2.82058179944000E+0001
  0
LINE
  8
0
 10
 1.02029867774100E+0002
 20
-2.82058179944000E+0001
 11
 1.02036381935200E+0002
 21
-2.82057388768000E+0001
  0
LINE
  8
0
 10
 1.02036381935200E+0002
 20
-2.82057388768000E+0001
 11
 1.02042898437500E+0002
 21
-2.82056625000000E+0001
  0
LINE
  8
0
 10
 1.02042898437500E+0002
 20
-2.82056625000000E+0001
 11
 1.02049417324800E+0002
 21
-2.82055888832000E+0001
  0
LINE
  8
0
 10
 1.02049417324800E+0002
 20
-2.82055888832000E+0001
 11
 1.02055938640900E+0002
 21
-2.82055180456000E+0001
  0
LINE
  8
0
 10
 1.02055938640900E+0002
 20
-2.82055180456000E+0001
 11
 1.02062462429600E+0002
 21
-2.82054500064000E+0001
  0
LINE
  8
0
 10
 1.02062462429600E+0002
 20
-2.82054500064000E+0001
 11
 1.02068988734700E+0002
 21
-2.82053847848000E+0001
  0
LINE
  8
0
 10
 1.02068988734700E+0002
 20
-2.82053847848000E+0001
 11
 1.02075517600000E+0002
 21
-2.82053224000000E+0001
  0
LINE
  8
0
 10
 1.02075517600000E+0002
 20
-2.82053224000000E+0001
 11
 1.02082049069300E+0002
 21
-2.82052628712000E+0001
  0
LINE
  8
0
 10
 1.02082049069300E+0002
 20
-2.82052628712000E+0001
 11
 1.02088583186400E+0002
 21
-2.82052062176000E+0001
  0
LINE
  8
0
 10
 1.02088583186400E+0002
 20
-2.82052062176000E+0001
 11
 1.02095119995100E+0002
 21
-2.82051524584000E+0001
  0
LINE
  8
0
 10
 1.02095119995100E+0002
 20
-2.82051524584000E+0001
 11
 1.02101659539200E+0002
 21
-2.82051016128000E+0001
  0
LINE
  8
0
 10
 1.02101659539200E+0002
 20
-2.82051016128000E+0001
 11
 1.02108201862500E+0002
 21
-2.82050537000000E+0001
  0
LINE
  8
0
 10
 1.02108201862500E+0002
 20
-2.82050537000000E+0001
 11
 1.02114747008800E+0002
 21
-2.82050087392000E+0001
  0
LINE
  8
0
 10
 1.02114747008800E+0002
 20
-2.82050087392000E+0001
 11
 1.02121295021900E+0002
 21
-2.82049667496000E+0001
  0
LINE
  8
0
 10
 1.02121295021900E+0002
 20
-2.82049667496000E+0001
 11
 1.02127845945600E+0002
 21
-2.82049277504000E+0001
  0
LINE
  8
0
 10
 1.02127845945600E+0002
 20
-2.82049277504000E+0001
 11
 1.02134399823700E+0002
 21
-2.82048917608000E+0001
  0
LINE
  8
0
 10
 1.02134399823700E+0002
 20
-2.82048917608000E+0001
 11
 1.02140956700000E+0002
 21
-2.82048588000000E+0001
  0
LINE
  8
0
 10
 1.02140956700000E+0002
 20
-2.82048588000000E+0001
 11
 1.02147516618300E+0002
 21
-2.82048288872000E+0001
  0
LINE
  8
0
 10
 1.02147516618300E+0002
 20
-2.82048288872000E+0001
 11
 1.02154079622400E+0002
 21
-2.82048020416000E+0001
  0
LINE
  8
0
 10
 1.02154079622400E+0002
 20
-2.82048020416000E+0001
 11
 1.02160645756100E+0002
 21
-2.82047782824000E+0001
  0
LINE
  8
0
 10
 1.02160645756100E+0002
 20
-2.82047782824000E+0001
 11
 1.02167215063200E+0002
 21
-2.82047576288000E+0001
  0
LINE
  8
0
 10
 1.02167215063200E+0002
 20
-2.82047576288000E+0001
 11
 1.02173787587500E+0002
 21
-2.82047401000000E+0001
  0
LINE
  8
0
 10
 1.02173787587500E+0002
 20
-2.82047401000000E+0001
 11
 1.02180363372800E+0002
 21
-2.82047257152000E+0001
  0
LINE
  8
0
 10
 1.02180363372800E+0002
 20
-2.82047257152000E+0001
 11
 1.02186942462900E+0002
 21
-2.82047144936000E+0001
  0
LINE
  8
0
 10
 1.02186942462900E+0002
 20
-2.82047144936000E+0001
 11
 1.02193524901600E+0002
 21
-2.82047064544000E+0001
  0
LINE
  8
0
 10
 1.02193524901600E+0002
 20
-2.82047064544000E+0001
 11
 1.02200110732700E+0002
 21
-2.82047016168000E+0001
  0
LINE
  8
0
 10
 1.02200110732700E+0002
 20
-2.82047016168000E+0001
 11
 1.02206700000000E+0002
 21
-2.82047000000000E+0001
  0
ARC
  8
0
 10
 1.02200000000000E+0002
 20
-4.61000000000000E+0001
 40
 1.79000000000000E+0001
 50
 1.33933420000000E+0002
 51
 1.80000000000000E+0002
  0
LINE
  8
0
 10
 8.97805862025308E+0001
 20
-3.32093770155500E+0001
 11
 9.55479000000000E+0001
 21
-4.60909000000000E+0001
  0
LINE
  8
0
 10
 9.55479000000000E+0001
 20
-4.60909000000000E+0001
 11
 8.43205000000000E+0001
 21
-4.60909000000000E+0001
  0
LINE
  8
0
 10
 7.45879000000000E+0001
 20
 3.21463000000000E+0001
 11
 7.45918172128123E+0001
 21
 3.21823336467605E+0001
  0
ARC
  8
0
 10
 8.19000000000000E+0001
 20
 5.52000000000000E+0001
 40
 2.41500000000000E+0001
 50
 2.52385190000000E+0002
 51
 3.21659900000000E+0002
  0
LINE
  8
0
 10
 1.00841869183575E+0002
 20
 4.02190757350450E+0001
 11
 1.18860613440672E+0002
 21
 6.29747867301522E+0001
  0
ARC
  8
0
 10
 1.24700000000000E+0002
 20
 7.69000000000000E+0001
 40
 1.51000000000000E+0001
 50
 2.47249790000000E+0002
 51
 3.21657000000000E+0002
  0
LINE
  8
0
 10
 1.36543096260440E+0002
 20
 6.75324458386433E+0001
 11
 1.47801100000000E+0002
 21
 8.17248000000000E+0001
  0
LINE
  8
0
 10
 1.47801100000000E+0002
 20
 8.17248000000000E+0001
 11
 1.43779300000000E+0002
 21
 8.49044000000000E+0001
  0
LINE
  8
0
 10
 1.43779300000000E+0002
 20
 8.49044000000000E+0001
 11
 1.53149603991359E+0002
 21
 9.66675702613568E+0001
  0
ARC
  8
0
 10
 1.51150000000000E+0002
 20
 9.82500000000000E+0001
 40
 2.55000000000000E+0000
 50
 3.21642910000000E+0002
 51
 5.01673890000000E+0002
  0
LINE
  8
0
 10
 1.49149540676474E+0002
 20
 9.98313483154950E+0001
 11
 1.39831600000000E+0002
 21
 8.80286000000000E+0001
  0
LINE
  8
0
 10
 1.39831600000000E+0002
 20
 8.80286000000000E+0001
 11
 1.32094500000000E+0002
 21
 9.41472000000000E+0001
  0
LINE
  8
0
 10
 1.32094500000000E+0002
 20
 9.41472000000000E+0001
 11
 1.41399603991359E+0002
 21
 1.05867570261356E+0002
  0
ARC
  8
0
 10
 1.39400000000000E+0002
 20
 1.07450000000000E+0002
 40
 2.55000000000000E+0000
 50
 3.21642910000000E+0002
 51
 5.01658110000000E+0002
  0
LINE
  8
0
 10
 1.37399976276152E+0002
 20
 1.09031899207929E+0002
 11
 1.28144200000000E+0002
 21
 9.72712000000000E+0001
  0
LINE
  8
0
 10
 1.28144200000000E+0002
 20
 9.72712000000000E+0001
 11
 1.24122400000000E+0002
 21
 1.00450800000000E+0002
  0
LINE
  8
0
 10
 1.24122400000000E+0002
 20
 1.00450800000000E+0002
 11
 1.12856902104613E+0002
 21
 8.62675520943463E+0001
  0
ARC
  8
0
 10
 1.24700000000000E+0002
 20
 7.69000000000000E+0001
 40
 1.51000000000000E+0001
 50
 1.41657010000000E+0002
 51
 2.16061240000000E+0002
  0
LINE
  8
0
 10
 1.12493336908536E+0002
 20
 6.80113906503039E+0001
 11
 9.45275310388038E+0001
 21
 4.52122344909361E+0001
  0
ARC
  8
0
 10
 8.19000000000000E+0001
 20
 5.52000000000000E+0001
 40
 1.61000000000000E+0001
 50
 2.31657430000000E+0002
 51
 3.21657710000000E+0002
  0
LINE
  8
0
 10
 7.19121727812973E+0001
 20
 4.25725177707770E+0001
 11
 7.19490952012440E+0001
 21
 4.25299255143700E+0001
  0
ARC
  8
0
 10
 8.17500000000000E+0001
 20
 5.50500000000000E+0001
 40
 1.59000000000000E+0001
 50
 2.07122680000000E+0002
 51
 2.31945620000000E+0002
  0
LINE
  8
0
 10
 6.75984846544644E+0001
 20
 4.78012336618519E+0001
 11
 6.38792000000000E+0001
 21
 5.61158000000000E+0001
  0
LINE
  8
0
 10
 6.38792000000000E+0001
 20
 5.61158000000000E+0001
 11
 6.86701000000000E+0001
 21
 6.88917000000000E+0001
  0
LINE
  8
0
 10
 6.86701000000000E+0001
 20
 6.88917000000000E+0001
 11
 8.30429000000000E+0001
 21
 6.88917000000000E+0001
  0
LINE
  8
0
 10
 8.30429000000000E+0001
 20
 6.88917000000000E+0001
 11
 8.30429000000000E+0001
 21
 8.16675000000000E+0001
  0
LINE
  8
0
 10
 8.30429000000000E+0001
 20
 8.16675000000000E+0001
 11
 2.87500000000000E+0001
 21
 8.16500000000000E+0001
  0
ARC
  8
0
 10
 2.87500000000000E+0001
 20
 7.84500000000000E+0001
 40
 3.20000000000000E+0000
 50
 9.00000000000000E+0001
 51
 2.56527250000000E+0002
  0
LINE
  8
0
 10
 2.80044547962335E+0001
 20
 7.53380613198296E+0001
 11
 5.50255000000000E+0001
 21
 6.88917000000000E+0001
  0
LINE
  8
0
 10
 5.50255000000000E+0001
 20
 6.88917000000000E+0001
 11
 5.02346000000000E+0001
 21
 5.61158000000000E+0001
  0
LINE
  8
0
 10
 5.02346000000000E+0001
 20
 5.61158000000000E+0001
 11
-6.38792000000000E+0001
 21
 5.61158000000000E+0001
  0
LINE
  8
0
 10
-6.38792000000000E+0001
 20
 5.61158000000000E+0001
 11
-5.87273489753434E+0001
 21
 7.26357544869112E+0001
  0
ARC
  8
0
 10
-4.65000000000000E+0001
 20
 6.88500000000000E+0001
 40
 1.28000000000000E+0001
 50
 9.00006600000000E+0001
 51
 1.62796760000000E+0002
  0
LINE
  8
0
 10
-4.65001474454152E+0001
 20
 8.16499999991508E+0001
 11
-2.55517000000000E+0001
 21
 8.16675000000000E+0001
  0
LINE
  8
0
 10
-2.55517000000000E+0001
 20
 8.16675000000000E+0001
 11
-2.55517000000000E+0001
 21
 9.44434000000000E+0001
  0
LINE
  8
0
 10
-2.55517000000000E+0001
 20
 9.44434000000000E+0001
 11
-4.65000000000000E+0001
 21
 9.44000000000000E+0001
  0
ARC
  8
0
 10
-4.65000000000000E+0001
 20
 6.88500000000000E+0001
 40
 2.55500000000000E+0001
 50
 9.00000000000000E+0001
 51
 1.62798880000000E+0002
  0
LINE
  8
0
 10
-7.09072144581232E+0001
 20
 7.64058177846729E+0001
 11
-8.94997022523392E+0001
 21
 1.65251741484266E+0001
  0
ARC
  8
0
 10
-1.02200000000000E+0002
 20
-4.61000000000000E+0001
 40
 6.39000000000000E+0001
 50
 7.85359700000000E+0001
 51
 4.27059930000000E+0002
  0
LINE
  8
0
 10
-7.72938191063449E+0001
 20
 1.27463435847336E+0001
 11
-7.22320000000000E+0001
 21
 2.91363000000000E+0001
  0
LINE
  8
0
 10
-7.22320000000000E+0001
 20
 2.91363000000000E+0001
 11
 3.29238914629325E+0000
 21
-5.46700254290450E+0001
  0
ARC
  8
0
 10
 1.28000000000000E+0001
 20
-4.61000000000000E+0001
 40
 1.28000000000000E+0001
 50
 2.22031050000000E+0002
 51
 2.70000010000000E+0002
  0
LINE
  8
0
 10
 1.28000022340214E+0001
 20
-5.88999999999998E+0001
 11
 3.95910446207274E+0001
 21
-5.88800119841982E+0001
  0
ARC
  8
0
 10
 1.02200000000000E+0002
 20
-4.61000000000000E+0001
 40
 6.39000000000000E+0001
 50
 1.91536970000000E+0002
 51
 4.68055050000000E+0002
  0
LINE
  8
0
 10
 8.23954327256715E+0001
 20
 1.46535111337328E+0001
 11
 7.45879000000000E+0001
 21
 3.21463000000000E+0001
  0
LINE
  8
0
 10
-9.33147000000000E+0001
 20
 4.23290000000000E+0000
 11
-9.33090650809443E+0001
 21
 4.22058501513188E+0000
  0
ARC
  8
0
 10
-1.02200000000000E+0002
 20
-4.61000000000000E+0001
 40
 5.11000000000000E+0001
 50
 7.99800600000000E+0001
 51
 4.25618260000000E+0002
  0
LINE
  8
0
 10
-8.11051955762933E+0001
 20
 4.42660284147554E-0001
 11
-9.60863132887879E+0001
 21
-4.79928377630289E+0001
  0
ARC
  8
0
 10
-1.02200000000000E+0002
 20
-4.61000000000000E+0001
 40
 6.40000000000000E+0000
 50
 1.62801620000000E+0002
 51
 3.42797130000000E+0002
  0
LINE
  8
0
 10
-1.08313835025207E+0002
 20
-4.42076413435745E+0001
 11
-9.33147000000000E+0001
 21
 4.23290000000000E+0000
  0
LINE
  8
0
 10
-6.78346000000000E+0001
 20
 4.33400000000000E+0001
 11
 1.21600000000000E+0001
 21
-4.54102000000000E+0001
  0
LINE
  8
0
 10
 1.21600000000000E+0001
 20
-4.54102000000000E+0001
 11
 4.54437000000000E+0001
 21
 4.33400000000000E+0001
  0
LINE
  8
0
 10
 4.54437000000000E+0001
 20
 4.33400000000000E+0001
 11
-6.78346000000000E+0001
 21
 4.33400000000000E+0001
  0
LINE
  8
0
 10
 5.11034000000000E+0001
 20
-4.61208000000000E+0001
 11
 5.11034000000000E+0001
 21
-4.60909000000000E+0001
  0
LINE
  8
0
 10
 5.11034000000000E+0001
 20
-4.60909000000000E+0001
 11
 9.55479000000000E+0001
 21
-4.60909000000000E+0001
  0
LINE
  8
0
 10
 9.55479000000000E+0001
 20
-4.60909000000000E+0001
 11
 7.59551110692592E+0001
 21
-2.25463758830272E+0000
  0
ARC
  8
0
 10
 1.02200000000000E+0002
 20
-4.61000000000000E+0001
 40
 5.11000000000000E+0001
 50
 1.20903830000000E+0002
 51
 1.79999870000000E+0002
  0
LINE
  8
0
 10
 5.27259000000000E+0001
 20
-5.88667000000000E+0001
 11
 5.27226840879586E+0001
 21
-5.88751794562758E+0001
  0
ARC
  8
0
 10
 1.02200000000000E+0002
 20
-4.61000000000000E+0001
 40
 5.11000000000000E+0001
 50
 1.94477720000000E+0002
 51
 4.66542150000000E+0002
  0
LINE
  8
0
 10
 8.76507758301882E+0001
 20
 2.88499847970360E+0000
 11
 1.11243508084208E+0002
 21
-4.98897484278727E+0001
  0
ARC
  8
0
 10
 1.05400000000000E+0002
 20
-5.25000000000000E+0001
 40
 6.40000000000000E+0000
 50
 2.70000000000000E+0002
 51
 3.84069960000000E+0002
  0
LINE
  8
0
 10
 1.05400000000000E+0002
 20
-5.89000000000000E+0001
 11
 5.27259000000000E+0001
 21
-5.88667000000000E+0001
  0
ENDSEC
  0
EOF
