  0
SECTION
  2
HEADER
  9
$ACADVER
  1
AC1003
  9
$INSBASE
 10
0.0
 20
0.0
  9
$EXTMIN
 10
-3.00000000000000E+0002
 20
-3.00000000000000E+0002
  9
$EXTMAX
 10
 3.00000000000000E+0002
 20
 3.00000000000000E+0002
  9
$LIMMIN
 10
0.0
 20
0.0
  9
$LIMMAX
 10
410.0
 20
287.0
  9
$VIEWCTR
 10
227.0059616
 20
165.058879 
  9
$VIEWSIZE
 40
 6.00000000000000E+0002
9
$SNAPMODE
70
0
9
$SNAPUNIT
10
1
20
1
9
$GRIDMODE
70
0
9
$GRIDUNIT
10
1
20
1
9
$ORTHOMODE
70
0
9
$rEGENMODE
70
1
9
$FILLMODE
70
1
9
$DRAGMODE
70
2
9
$LTSCALE
40
25.0
9
$OSMODE
70
0
9
$ATTMODE
70
1
9
$TRACEWID
40
1.0
9
$TEXTSTYLE
7
STANDARD
9
$CLAYER
8
0
9
$CELTYPE
6
VONLAYER
9
$CECOLOR
62
256
9
$LUNITS
70
2
9
$LUPREC
70
2
9
$AXISMODE
70
0
9
$AXISUNIT
10
0
20
0
9
$SKETCHINC
40
1.0
9
$FILLETRAD
40
0.0
9
$AUNITS
70
0
9
$AUPREC
70
0
9
$MENU
1
ACAD
9
$ELEVATION
40
0.0
9
$THICKNESS
40
0.0
9
$VIEWDIR
10
0.0
20
0.0
30
1.0
9
$LIMCHECK
70
0
9
$BLIPMODE
70
1
9
$CHAMFERA
40
0.0
9
$CHAMFERB
40
0.0
9
$USRTIMER
70
1
9
$ANGBASE
50
0.0
9
$ANGDIR
70
0
9
$PDMODE
70
0
9
$PDSIZE
40
0.0
9
$PLINEWID
40
0.0
9
$COORDS
70
0
0
ENDSEC
0
SECTION
2
TABLES
0
TABLE
2
LTYPE
70
1
0
LTYPE
2
AUSGEZOGEN
70
64
3
Ausgezogene Linie
72
65
73
0
40
0.0
0
ENDTAB
0
TABLE
2
LAYER
70
1
0
LAYER
2
0
70
0
62
7
6
AUSGEZOGEN
0
ENDTAB
0
TABLE
2
STYLE
70
1
0
STYLE
2
STANDARD
70
0
40
0.0
41
1.0
50
0.0
71
0
42
3.5
3
txt
4

0
ENDTAB
0
TABLE
2
VIEW
70
0
0
ENDTAB
0
ENDSEC
0
SECTION
2
BLOCKS
0
ENDSEC
0
SECTION
2
ENTITIES
  0
CIRCLE
  8
0
 10
 0.00000000000000E+0000
 20
 0.00000000000000E+0000
 40
 3.00000000000000E+0002
  0
CIRCLE
  8
0
 10
 0.00000000000000E+0000
 20
 0.00000000000000E+0000
 40
 2.85000000000000E+0002
  0
CIRCLE
  8
0
 10
 0.00000000000000E+0000
 20
 0.00000000000000E+0000
 40
 2.10000000000000E+0002
  0
LINE
  8
0
 10
-1.51127700000000E+0002
 20
 0.00000000000000E+0000
 11
-1.93251148284921E+0002
 21
 7.41821655558772E+0001
  0
ARC
  8
0
 10
 0.00000000000000E+0000
 20
 0.00000000000000E+0000
 40
 2.07000000000000E+0002
 50
 1.59000000000000E+0002
 51
 2.01000000000000E+0002
  0
LINE
  8
0
 10
-1.93251148284921E+0002
 20
-7.41821655558772E+0001
 11
-1.51127700000000E+0002
 21
 0.00000000000000E+0000
  0
LINE
  8
0
 10
 1.51127700000000E+0002
 20
 0.00000000000000E+0000
 11
 1.93251148284921E+0002
 21
 7.41821655558772E+0001
  0
ARC
  8
0
 10
 0.00000000000000E+0000
 20
 0.00000000000000E+0000
 40
 2.07000000000000E+0002
 50
 3.39000000000000E+0002
 51
 3.81000000000000E+0002
  0
LINE
  8
0
 10
 1.93251148284921E+0002
 20
-7.41821655558772E+0001
 11
 1.51127700000000E+0002
 21
 0.00000000000000E+0000
  0
LINE
  8
0
 10
-1.39500000000000E+0002
 20
-9.84255000000000E+0001
 11
-1.39500000000000E+0002
 21
-7.03005000000000E+0001
  0
LINE
  8
0
 10
-1.39500000000000E+0002
 20
-7.03005000000000E+0001
 11
-8.29278058206221E+0001
 21
 3.76490378355533E+0001
  0
ARC
  8
0
 10
-1.09500000000000E+0002
 20
 5.15745000000000E+0001
 40
 3.00000000000000E+0001
 50
 3.32342700000000E+0002
 51
 3.60000000000000E+0002
  0
LINE
  8
0
 10
-7.95000000000000E+0001
 20
 5.15745000000000E+0001
 11
-7.95000000000000E+0001
 21
 6.84495000000000E+0001
  0
ARC
  8
0
 10
-9.45000000000000E+0001
 20
 6.84495000000000E+0001
 40
 1.50000000000000E+0001
 50
 0.00000000000000E+0000
 51
 1.80000000000000E+0002
  0
LINE
  8
0
 10
-1.09500000000000E+0002
 20
 6.84495000000000E+0001
 11
-1.09500000000000E+0002
 21
 5.15745000000000E+0001
  0
LINE
  8
0
 10
-1.09500000000000E+0002
 20
 5.15745000000000E+0001
 11
-1.39500000000000E+0002
 21
 5.15745000000000E+0001
  0
LINE
  8
0
 10
-1.39500000000000E+0002
 20
 5.15745000000000E+0001
 11
-1.39500000000000E+0002
 21
 6.84495000000000E+0001
  0
ARC
  8
0
 10
-9.45000000000000E+0001
 20
 6.84495000000000E+0001
 40
 4.50000000000000E+0001
 50
 0.00000000000000E+0000
 51
 1.80000000000000E+0002
  0
LINE
  8
0
 10
-4.95000000000000E+0001
 20
 6.84495000000000E+0001
 11
-4.95000000000000E+0001
 21
 5.15745000000000E+0001
  0
ARC
  8
0
 10
-1.09500000000000E+0002
 20
 5.15745000000000E+0001
 40
 6.00000000000000E+0001
 50
 3.32720100000000E+0002
 51
 3.60000000000000E+0002
  0
LINE
  8
0
 10
-5.61733153582490E+0001
 20
 2.40742326354953E+0001
 11
-1.03875000000000E+0002
 21
-6.84255000000000E+0001
  0
LINE
  8
0
 10
-1.03875000000000E+0002
 20
-6.84255000000000E+0001
 11
-4.95000000000000E+0001
 21
-6.84255000000000E+0001
  0
LINE
  8
0
 10
-4.95000000000000E+0001
 20
-6.84255000000000E+0001
 11
-4.95000000000000E+0001
 21
-9.84255000000000E+0001
  0
LINE
  8
0
 10
-4.95000000000000E+0001
 20
-9.84255000000000E+0001
 11
-1.39500000000000E+0002
 21
-9.84255000000000E+0001
  0
LINE
  8
0
 10
-3.55000000000000E+0001
 20
-1.13425500000000E+0002
 11
-3.55000000000000E+0001
 21
-7.84255000000000E+0001
  0
LINE
  8
0
 10
-3.55000000000000E+0001
 20
-7.84255000000000E+0001
 11
-1.55000000000000E+0001
 21
-7.84255000000000E+0001
  0
LINE
  8
0
 10
-1.55000000000000E+0001
 20
-7.84255000000000E+0001
 11
-1.55000000000000E+0001
 21
-9.84255000000000E+0001
  0
LINE
  8
0
 10
-1.55000000000000E+0001
 20
-9.84255000000000E+0001
 11
-3.55000000000000E+0001
 21
-1.13425500000000E+0002
  0
LINE
  8
0
 10
-1.50000000000000E+0000
 20
-5.84255000000000E+0001
 11
 1.85000000000000E+0001
 21
-5.84255000000000E+0001
  0
LINE
  8
0
 10
 1.85000000000000E+0001
 20
-5.84255000000000E+0001
 11
 1.85000000000000E+0001
 21
-6.96755000000000E+0001
  0
ARC
  8
0
 10
 2.85000000000000E+0001
 20
-6.96755000000000E+0001
 40
 1.00000000000000E+0001
 50
 1.80000000000000E+0002
 51
 3.60000000000000E+0002
  0
LINE
  8
0
 10
 3.85000000000000E+0001
 20
-6.96755000000000E+0001
 11
 3.85000000000000E+0001
 21
-4.46755000000000E+0001
  0
ARC
  8
0
 10
 2.85000000000000E+0001
 20
-4.46755000000000E+0001
 40
 1.00000000000000E+0001
 50
 0.00000000000000E+0000
 51
 9.00000000000000E+0001
  0
LINE
  8
0
 10
 2.85000000000000E+0001
 20
-3.46755000000000E+0001
 11
 2.22500000000000E+0001
 21
-3.46755000000000E+0001
  0
LINE
  8
0
 10
 2.22500000000000E+0001
 20
-3.46755000000000E+0001
 11
 2.22500000000000E+0001
 21
-1.71755000000000E+0001
  0
LINE
  8
0
 10
 2.22500000000000E+0001
 20
-1.71755000000000E+0001
 11
 2.85000000000000E+0001
 21
-1.71755000000000E+0001
  0
ARC
  8
0
 10
 2.85000000000000E+0001
 20
-7.17549999999999E+0000
 40
 1.00000000000000E+0001
 50
 2.70000000000000E+0002
 51
 3.60000000000000E+0002
  0
LINE
  8
0
 10
 3.85000000000000E+0001
 20
-7.17549999999999E+0000
 11
 3.85000000000000E+0001
 21
 1.28245000000000E+0001
  0
ARC
  8
0
 10
 2.85000000000000E+0001
 20
 1.28245000000000E+0001
 40
 1.00000000000000E+0001
 50
 0.00000000000000E+0000
 51
 1.80000000000000E+0002
  0
LINE
  8
0
 10
 1.85000000000000E+0001
 20
 1.28245000000000E+0001
 11
 1.85000000000000E+0001
 21
 1.57450000000001E+0000
  0
LINE
  8
0
 10
 1.85000000000000E+0001
 20
 1.57450000000001E+0000
 11
-1.50000000000000E+0000
 21
 1.57450000000001E+0000
  0
LINE
  8
0
 10
-1.50000000000000E+0000
 20
 1.57450000000001E+0000
 11
-1.50000000000000E+0000
 21
 1.28245000000000E+0001
  0
ARC
  8
0
 10
 2.85000000000000E+0001
 20
 1.28245000000000E+0001
 40
 3.00000000000000E+0001
 50
 0.00000000000000E+0000
 51
 1.80000000000000E+0002
  0
LINE
  8
0
 10
 5.85000000000000E+0001
 20
 1.28245000000000E+0001
 11
 5.85000000000000E+0001
 21
-5.92549999999999E+0000
  0
ARC
  8
0
 10
 3.60000000000000E+0001
 20
-5.92549999999999E+0000
 40
 2.25000000000000E+0001
 50
 2.97266000000000E+0002
 51
 3.60000000000000E+0002
  0
LINE
  8
0
 10
 4.63077485478082E+0001
 20
-2.59255079968773E+0001
 11
 4.63077485478082E+0001
 21
-2.59254920031226E+0001
  0
ARC
  8
0
 10
 3.60000000000000E+0001
 20
-4.59255000000000E+0001
 40
 2.25000000000000E+0001
 50
 0.00000000000000E+0000
 51
 6.27340000000000E+0001
  0
LINE
  8
0
 10
 5.85000000000000E+0001
 20
-4.59255000000000E+0001
 11
 5.85000000000000E+0001
 21
-6.96755000000000E+0001
  0
ARC
  8
0
 10
 2.85000000000000E+0001
 20
-6.96755000000000E+0001
 40
 3.00000000000000E+0001
 50
 1.80000000000000E+0002
 51
 3.60000000000000E+0002
  0
LINE
  8
0
 10
-1.50000000000000E+0000
 20
-6.96755000000000E+0001
 11
-1.50000000000000E+0000
 21
-5.84255000000000E+0001
  0
LINE
  8
0
 10
 7.25000000000000E+0001
 20
-9.84255000000000E+0001
 11
 7.25000000000000E+0001
 21
-2.34255000000000E+0001
  0
LINE
  8
0
 10
 7.25000000000000E+0001
 20
-2.34255000000000E+0001
 11
 8.75000000000000E+0001
 21
-2.34255000000000E+0001
  0
LINE
  8
0
 10
 8.75000000000000E+0001
 20
-2.34255000000000E+0001
 11
 8.75000004010959E+0001
 21
-3.09254992479452E+0001
  0
ARC
  8
0
 10
 1.01562500000000E+0002
 20
-3.84255000000000E+0001
 40
 1.59375000000000E+0001
 50
 3.17091900000000E+0001
 51
 1.51927510000000E+0002
  0
LINE
  8
0
 10
 1.15120958614957E+0002
 20
-3.00486207340395E+0001
 11
 1.15120957779367E+0002
 21
-3.00486219289088E+0001
  0
ARC
  8
0
 10
 1.29687500000000E+0002
 20
-4.03005000000000E+0001
 40
 1.78125000000000E+0001
 50
 0.00000000000000E+0000
 51
 1.44862260000000E+0002
  0
LINE
  8
0
 10
 1.47500000000000E+0002
 20
-4.03005000000000E+0001
 11
 1.47500000000000E+0002
 21
-9.84255000000000E+0001
  0
LINE
  8
0
 10
 1.47500000000000E+0002
 20
-9.84255000000000E+0001
 11
 1.32500000000000E+0002
 21
-9.84255000000000E+0001
  0
LINE
  8
0
 10
 1.32500000000000E+0002
 20
-9.84255000000000E+0001
 11
 1.32500000000000E+0002
 21
-4.49880000000000E+0001
  0
ARC
  8
0
 10
 1.25000000000000E+0002
 20
-4.49880000000000E+0001
 40
 7.50000000000000E+0000
 50
 0.00000000000000E+0000
 51
 1.80000000000000E+0002
  0
LINE
  8
0
 10
 1.17500000000000E+0002
 20
-4.49880000000000E+0001
 11
 1.17500000000000E+0002
 21
-9.84255000000000E+0001
  0
LINE
  8
0
 10
 1.17500000000000E+0002
 20
-9.84255000000000E+0001
 11
 1.02500000000000E+0002
 21
-9.84255000000000E+0001
  0
LINE
  8
0
 10
 1.02500000000000E+0002
 20
-9.84255000000000E+0001
 11
 1.02500000000000E+0002
 21
-4.49880000000000E+0001
  0
ARC
  8
0
 10
 9.50000000000000E+0001
 20
-4.49880000000000E+0001
 40
 7.50000000000000E+0000
 50
 0.00000000000000E+0000
 51
 1.80000000000000E+0002
  0
LINE
  8
0
 10
 8.75000000000000E+0001
 20
-4.49880000000000E+0001
 11
 8.75000000000000E+0001
 21
-9.84255000000000E+0001
  0
LINE
  8
0
 10
 8.75000000000000E+0001
 20
-9.84255000000000E+0001
 11
 7.25000000000000E+0001
 21
-9.84255000000000E+0001
  0
ENDSEC
  0
EOF
