  0
SECTION
  2
HEADER
  9
$ACADVER
  1
AC1003
  9
$INSBASE
 10
0.0
 20
0.0
  9
$EXTMIN
 10
 0.00000000000000E+0000
 20
 0.00000000000000E+0000
  9
$EXTMAX
 10
 1.25000000000000E+0003
 20
 1.60000000000000E+0003
  9
$LIMMIN
 10
0.0
 20
0.0
  9
$LIMMAX
 10
410.0
 20
287.0
  9
$VIEWCTR
 10
227.0059616
 20
165.058879 
  9
$VIEWSIZE
 40
 1.60000000000000E+0003
9
$SNAPMODE
70
0
9
$SNAPUNIT
10
1
20
1
9
$GRIDMODE
70
0
9
$GRIDUNIT
10
1
20
1
9
$ORTHOMODE
70
0
9
$rEGENMODE
70
1
9
$FILLMODE
70
1
9
$DRAGMODE
70
2
9
$LTSCALE
40
25.0
9
$OSMODE
70
0
9
$ATTMODE
70
1
9
$TRACEWID
40
1.0
9
$TEXTSTYLE
7
STANDARD
9
$CLAYER
8
0
9
$CELTYPE
6
VONLAYER
9
$CECOLOR
62
256
9
$LUNITS
70
2
9
$LUPREC
70
2
9
$AXISMODE
70
0
9
$AXISUNIT
10
0
20
0
9
$SKETCHINC
40
1.0
9
$FILLETRAD
40
0.0
9
$AUNITS
70
0
9
$AUPREC
70
0
9
$MENU
1
ACAD
9
$ELEVATION
40
0.0
9
$THICKNESS
40
0.0
9
$VIEWDIR
10
0.0
20
0.0
30
1.0
9
$LIMCHECK
70
0
9
$BLIPMODE
70
1
9
$CHAMFERA
40
0.0
9
$CHAMFERB
40
0.0
9
$USRTIMER
70
1
9
$ANGBASE
50
0.0
9
$ANGDIR
70
0
9
$PDMODE
70
0
9
$PDSIZE
40
0.0
9
$PLINEWID
40
0.0
9
$COORDS
70
0
0
ENDSEC
0
SECTION
2
TABLES
0
TABLE
2
LTYPE
70
1
0
LTYPE
2
AUSGEZOGEN
70
64
3
Ausgezogene Linie
72
65
73
0
40
0.0
0
ENDTAB
0
TABLE
2
LAYER
70
1
0
LAYER
2
0
70
0
62
7
6
AUSGEZOGEN
0
ENDTAB
0
TABLE
2
STYLE
70
1
0
STYLE
2
STANDARD
70
0
40
0.0
41
1.0
50
0.0
71
0
42
3.5
3
txt
4

0
ENDTAB
0
TABLE
2
VIEW
70
0
0
ENDTAB
0
ENDSEC
0
SECTION
2
BLOCKS
0
ENDSEC
0
SECTION
2
ENTITIES
  0
ARC
  8
0
 10
 6.00000000000000E+0001
 20
 6.00000000000000E+0001
 40
 6.00000000000000E+0001
 50
 1.80000000000000E+0002
 51
 2.70000000000000E+0002
  0
LINE
  8
0
 10
 0.00000000000000E+0000
 20
 6.00000000000000E+0001
 11
 0.00000000000000E+0000
 21
 1.54000000000000E+0003
  0
ARC
  8
0
 10
 6.00000000000000E+0001
 20
 1.54000000000000E+0003
 40
 6.00000000000000E+0001
 50
 9.00000000000000E+0001
 51
 1.80000000000000E+0002
  0
LINE
  8
0
 10
 6.00000000000000E+0001
 20
 1.60000000000000E+0003
 11
 1.19000000000000E+0003
 21
 1.60000000000000E+0003
  0
ARC
  8
0
 10
 1.19000000000000E+0003
 20
 1.54000000000000E+0003
 40
 6.00000000000000E+0001
 50
 0.00000000000000E+0000
 51
 9.00000000000000E+0001
  0
LINE
  8
0
 10
 1.25000000000000E+0003
 20
 1.54000000000000E+0003
 11
 1.25000000000000E+0003
 21
 6.00000000000000E+0001
  0
ARC
  8
0
 10
 1.19000000000000E+0003
 20
 6.00000000000000E+0001
 40
 6.00000000000000E+0001
 50
 2.70000000000000E+0002
 51
 3.60000000000000E+0002
  0
LINE
  8
0
 10
 1.19000000000000E+0003
 20
 0.00000000000000E+0000
 11
 6.00000000000000E+0001
 21
 0.00000000000000E+0000
  0
ARC
  8
0
 10
 6.00000000000000E+0001
 20
 6.00000000000000E+0001
 40
 4.50000000000000E+0001
 50
 1.80000000000000E+0002
 51
 2.70000000000000E+0002
  0
LINE
  8
0
 10
 1.50000000000000E+0001
 20
 6.00000000000000E+0001
 11
 1.50000000000000E+0001
 21
 1.54000000000000E+0003
  0
ARC
  8
0
 10
 6.00000000000000E+0001
 20
 1.54000000000000E+0003
 40
 4.50000000000000E+0001
 50
 9.00000000000000E+0001
 51
 1.80000000000000E+0002
  0
LINE
  8
0
 10
 6.00000000000000E+0001
 20
 1.58500000000000E+0003
 11
 1.19000000000000E+0003
 21
 1.58500000000000E+0003
  0
ARC
  8
0
 10
 1.19000000000000E+0003
 20
 1.54000000000000E+0003
 40
 4.50000000000000E+0001
 50
 0.00000000000000E+0000
 51
 9.00000000000000E+0001
  0
LINE
  8
0
 10
 1.23500000000000E+0003
 20
 1.54000000000000E+0003
 11
 1.23500000000000E+0003
 21
 6.00000000000000E+0001
  0
ARC
  8
0
 10
 1.19000000000000E+0003
 20
 6.00000000000000E+0001
 40
 4.50000000000000E+0001
 50
 2.70000000000000E+0002
 51
 3.60000000000000E+0002
  0
LINE
  8
0
 10
 1.19000000000000E+0003
 20
 1.50000000000000E+0001
 11
 6.00000000000000E+0001
 21
 1.50000000000000E+0001
  0
ARC
  8
0
 10
 6.00000000000000E+0001
 20
 6.00000000000000E+0001
 40
 2.50000000000000E+0001
 50
 1.80000000000000E+0002
 51
 2.70000000000000E+0002
  0
LINE
  8
0
 10
 3.50000000000000E+0001
 20
 6.00000000000000E+0001
 11
 3.50000000000000E+0001
 21
 1.54000000000000E+0003
  0
ARC
  8
0
 10
 6.00000000000000E+0001
 20
 1.54000000000000E+0003
 40
 2.50000000000000E+0001
 50
 9.00000000000000E+0001
 51
 1.80000000000000E+0002
  0
LINE
  8
0
 10
 6.00000000000000E+0001
 20
 1.56500000000000E+0003
 11
 1.19000000000000E+0003
 21
 1.56500000000000E+0003
  0
ARC
  8
0
 10
 1.19000000000000E+0003
 20
 1.54000000000000E+0003
 40
 2.50000000000000E+0001
 50
 0.00000000000000E+0000
 51
 9.00000000000000E+0001
  0
LINE
  8
0
 10
 1.21500000000000E+0003
 20
 1.54000000000000E+0003
 11
 1.21500000000000E+0003
 21
 6.00000000000000E+0001
  0
ARC
  8
0
 10
 1.19000000000000E+0003
 20
 6.00000000000000E+0001
 40
 2.50000000000000E+0001
 50
 2.70000000000000E+0002
 51
 3.60000000000000E+0002
  0
LINE
  8
0
 10
 1.19000000000000E+0003
 20
 3.50000000000000E+0001
 11
 6.00000000000000E+0001
 21
 3.50000000000000E+0001
  0
LINE
  8
0
 10
 1.57942000000000E+0002
 20
 1.30700000000000E+0003
 11
 1.12941999556717E+0002
 21
 1.29538104984692E+0003
  0
ARC
  8
0
 10
 1.09942000000000E+0002
 20
 1.30700000000000E+0003
 40
 1.20000000000000E+0001
 50
 1.46195010000000E+0002
 51
 2.84477510000000E+0002
  0
LINE
  8
0
 10
 9.99707677928289E+0001
 20
 1.31367641582518E+0003
 11
 1.87942000000000E+0002
 21
 1.44500000000000E+0003
  0
LINE
  8
0
 10
 1.87942000000000E+0002
 20
 1.44500000000000E+0003
 11
 2.75913232207171E+0002
 21
 1.31367641582518E+0003
  0
ARC
  8
0
 10
 2.65942000000000E+0002
 20
 1.30700000000000E+0003
 40
 1.20000000000000E+0001
 50
 2.55522490000000E+0002
 51
 3.93804990000000E+0002
  0
LINE
  8
0
 10
 2.62942000443282E+0002
 20
 1.29538104984692E+0003
 11
 2.17942000000000E+0002
 21
 1.30700000000000E+0003
  0
LINE
  8
0
 10
 2.17942000000000E+0002
 20
 1.30700000000000E+0003
 11
 2.17942000000000E+0002
 21
 1.23500000000000E+0003
  0
ARC
  8
0
 10
 8.17942000000000E+0002
 20
 1.23500000000000E+0003
 40
 6.00000000000000E+0002
 50
 1.80000000000000E+0002
 51
 2.01022530000000E+0002
  0
LINE
  8
0
 10
 2.57878338449133E+0002
 20
 1.01975898390354E+0003
 11
 2.57878360616819E+0002
 21
 1.01975895467835E+0003
  0
ARC
  8
0
 10
 3.42942000000000E+0002
 20
 7.90000000000000E+0002
 40
 2.45000000000000E+0002
 50
 1.10316060000000E+0002
 51
 1.24462690000000E+0002
  0
LINE
  8
0
 10
 2.04303982189612E+0002
 20
 9.92001237663551E+0002
 11
 2.04303980472932E+0002
 21
 9.92001273684619E+0002
  0
ARC
  8
0
 10
 8.17942000000000E+0002
 20
 1.23500000000000E+0003
 40
 6.60000000000000E+0002
 50
 1.80000000000000E+0002
 51
 2.01603410000000E+0002
  0
LINE
  8
0
 10
 1.57942000000000E+0002
 20
 1.23500000000000E+0003
 11
 1.57942000000000E+0002
 21
 1.30700000000000E+0003
  0
LINE
  8
0
 10
 8.37942000000000E+0002
 20
 1.55000000000000E+0002
 11
 7.77942000000000E+0002
 21
 1.55000000000000E+0002
  0
LINE
  8
0
 10
 7.77942000000000E+0002
 20
 1.55000000000000E+0002
 11
 7.77942000000000E+0002
 21
 2.75000000000000E+0002
  0
ARC
  8
0
 10
 4.27942000000000E+0002
 20
 2.75000000000000E+0002
 40
 3.50000000000000E+0002
 50
 0.00000000000000E+0000
 51
 5.49800000000000E+0001
  0
LINE
  8
0
 10
 6.28793818792069E+0002
 20
 5.61633122454328E+0002
 11
 5.29512039821494E+0002
 21
 6.31202581126121E+0002
  0
ARC
  8
0
 10
 3.42942000000000E+0002
 20
 7.90000000000000E+0002
 40
 2.45000000000000E+0002
 50
 3.19597530000000E+0002
 51
 3.33670350000000E+0002
  0
LINE
  8
0
 10
 5.62524971220744E+0002
 20
 6.81333911684141E+0002
 11
 6.63225559156423E+0002
 21
 6.10770229160785E+0002
  0
ARC
  8
0
 10
 4.27942000000000E+0002
 20
 2.75000000000000E+0002
 40
 4.10000000000000E+0002
 50
 0.00000000000000E+0000
 51
 5.49800000000000E+0001
  0
LINE
  8
0
 10
 8.37942000000000E+0002
 20
 2.75000000000000E+0002
 11
 8.37942000000000E+0002
 21
 1.55000000000000E+0002
  0
LINE
  8
0
 10
 4.12058000000000E+0002
 20
 1.30700000000000E+0003
 11
 3.67057999556718E+0002
 21
 1.29538104984692E+0003
  0
ARC
  8
0
 10
 3.64058000000000E+0002
 20
 1.30700000000000E+0003
 40
 1.20000000000000E+0001
 50
 1.46195010000000E+0002
 51
 2.84477510000000E+0002
  0
LINE
  8
0
 10
 3.54086767792829E+0002
 20
 1.31367641582518E+0003
 11
 4.42058000000000E+0002
 21
 1.44500000000000E+0003
  0
LINE
  8
0
 10
 4.42058000000000E+0002
 20
 1.44500000000000E+0003
 11
 5.30029232207171E+0002
 21
 1.31367641582518E+0003
  0
ARC
  8
0
 10
 5.20058000000000E+0002
 20
 1.30700000000000E+0003
 40
 1.20000000000000E+0001
 50
 2.55522490000000E+0002
 51
 3.93804990000000E+0002
  0
LINE
  8
0
 10
 5.17058000443282E+0002
 20
 1.29538104984692E+0003
 11
 4.72058000000000E+0002
 21
 1.30700000000000E+0003
  0
LINE
  8
0
 10
 4.72058000000000E+0002
 20
 1.30700000000000E+0003
 11
 4.72058000000000E+0002
 21
 1.23500000000000E+0003
  0
ARC
  8
0
 10
 8.17942000000000E+0002
 20
 1.23500000000000E+0003
 40
 3.45884000000000E+0002
 50
 1.80000000000000E+0002
 51
 2.34980000000000E+0002
  0
LINE
  8
0
 10
 6.19452198596926E+0002
 20
 9.51737683065734E+0002
 11
 8.09053161396896E+0002
 21
 8.18878979291082E+0002
  0
ARC
  8
0
 10
 4.27942000000000E+0002
 20
 2.75000000000000E+0002
 40
 6.64116000000000E+0002
 50
 0.00000000000000E+0000
 51
 5.49800000000000E+0001
  0
LINE
  8
0
 10
 1.09205800000000E+0003
 20
 2.75000000000000E+0002
 11
 1.09205800000000E+0003
 21
 1.55000000000000E+0002
  0
LINE
  8
0
 10
 1.09205800000000E+0003
 20
 1.55000000000000E+0002
 11
 1.03205800000000E+0003
 21
 1.55000000000000E+0002
  0
LINE
  8
0
 10
 1.03205800000000E+0003
 20
 1.55000000000000E+0002
 11
 1.03205800000000E+0003
 21
 2.75000000000000E+0002
  0
ARC
  8
0
 10
 4.27942000000000E+0002
 20
 2.75000000000000E+0002
 40
 6.04116000000000E+0002
 50
 0.00000000000000E+0000
 51
 5.49800000000000E+0001
  0
LINE
  8
0
 10
 7.74621421032541E+0002
 20
 7.69741872584626E+0002
 11
 5.85020458232571E+0002
 21
 9.02600576359278E+0002
  0
ARC
  8
0
 10
 8.17942000000000E+0002
 20
 1.23500000000000E+0003
 40
 4.05884000000000E+0002
 50
 1.80000000000000E+0002
 51
 2.34980000000000E+0002
  0
LINE
  8
0
 10
 4.12058000000000E+0002
 20
 1.23500000000000E+0003
 11
 4.12058000000000E+0002
 21
 1.30700000000000E+0003
  0
CIRCLE
  8
0
 10
 3.42942000000000E+0002
 20
 7.90000000000000E+0002
 40
 2.32750000000000E+0002
  0
CIRCLE
  8
0
 10
 3.42942000000000E+0002
 20
 7.90000000000000E+0002
 40
 1.71500000000000E+0002
  0
LINE
  8
0
 10
 2.19521000000000E+0002
 20
 7.90000000000000E+0002
 11
 1.85120228900648E+0002
 21
 8.50582101870633E+0002
  0
ARC
  8
0
 10
 3.42942000000000E+0002
 20
 7.90000000000000E+0002
 40
 1.69050000000000E+0002
 50
 1.59000000000000E+0002
 51
 2.01000000000000E+0002
  0
LINE
  8
0
 10
 1.85120228900648E+0002
 20
 7.29417898129367E+0002
 11
 2.19521000000000E+0002
 21
 7.90000000000000E+0002
  0
LINE
  8
0
 10
 4.66363000000000E+0002
 20
 7.90000000000000E+0002
 11
 5.00763771099352E+0002
 21
 8.50582101870633E+0002
  0
ARC
  8
0
 10
 3.42942000000000E+0002
 20
 7.90000000000000E+0002
 40
 1.69050000000000E+0002
 50
 3.39000000000000E+0002
 51
 3.81000000000000E+0002
  0
LINE
  8
0
 10
 5.00763771099352E+0002
 20
 7.29417898129367E+0002
 11
 4.66363000000000E+0002
 21
 7.90000000000000E+0002
  0
LINE
  8
0
 10
 2.50376300000000E+0002
 20
 6.72750100000000E+0002
 11
 2.50376300000000E+0002
 21
 7.04156300000000E+0002
  0
LINE
  8
0
 10
 2.50376300000000E+0002
 20
 7.04156300000000E+0002
 11
 3.13548583500305E+0002
 21
 8.24700000583034E+0002
  0
ARC
  8
0
 10
 2.83876300000000E+0002
 20
 8.40250100000000E+0002
 40
 3.35000000000000E+0001
 50
 3.32342700000000E+0002
 51
 3.60000000000000E+0002
  0
LINE
  8
0
 10
 3.17376300000000E+0002
 20
 8.40250100000000E+0002
 11
 3.17376300000000E+0002
 21
 8.59093900000000E+0002
  0
ARC
  8
0
 10
 3.00626300000000E+0002
 20
 8.59093900000000E+0002
 40
 1.67500000000000E+0001
 50
 0.00000000000000E+0000
 51
 1.80000000000000E+0002
  0
LINE
  8
0
 10
 2.83876300000000E+0002
 20
 8.59093900000000E+0002
 11
 2.83876300000000E+0002
 21
 8.40250100000000E+0002
  0
LINE
  8
0
 10
 2.83876300000000E+0002
 20
 8.40250100000000E+0002
 11
 2.50376300000000E+0002
 21
 8.40250100000000E+0002
  0
LINE
  8
0
 10
 2.50376300000000E+0002
 20
 8.40250100000000E+0002
 11
 2.50376300000000E+0002
 21
 8.59093900000000E+0002
  0
ARC
  8
0
 10
 3.00626300000000E+0002
 20
 8.59093900000000E+0002
 40
 5.02500000000000E+0001
 50
 0.00000000000000E+0000
 51
 1.80000000000000E+0002
  0
LINE
  8
0
 10
 3.50876300000000E+0002
 20
 8.59093900000000E+0002
 11
 3.50876300000000E+0002
 21
 8.40250100000000E+0002
  0
ARC
  8
0
 10
 2.83876300000000E+0002
 20
 8.40250100000000E+0002
 40
 6.70000000000000E+0001
 50
 3.32720100000000E+0002
 51
 3.60000000000000E+0002
  0
LINE
  8
0
 10
 3.43424431183289E+0002
 20
 8.09541468109636E+0002
 11
 2.90157500000000E+0002
 21
 7.06250100000000E+0002
  0
LINE
  8
0
 10
 2.90157500000000E+0002
 20
 7.06250100000000E+0002
 11
 3.50876300000000E+0002
 21
 7.06250100000000E+0002
  0
LINE
  8
0
 10
 3.50876300000000E+0002
 20
 7.06250100000000E+0002
 11
 3.50876300000000E+0002
 21
 6.72750100000000E+0002
  0
LINE
  8
0
 10
 3.50876300000000E+0002
 20
 6.72750100000000E+0002
 11
 2.50376300000000E+0002
 21
 6.72750100000000E+0002
  0
LINE
  8
0
 10
 3.73529000000000E+0002
 20
 6.72750100000000E+0002
 11
 3.73529000000000E+0002
 21
 7.44119700000000E+0002
  0
LINE
  8
0
 10
 3.73529000000000E+0002
 20
 7.44119700000000E+0002
 11
 3.87802900000000E+0002
 21
 7.44119700000000E+0002
  0
LINE
  8
0
 10
 3.87802900000000E+0002
 20
 7.44119700000000E+0002
 11
 3.87802935675797E+0002
 21
 7.36982741892120E+0002
  0
ARC
  8
0
 10
 4.01184700000000E+0002
 20
 7.29845800000000E+0002
 40
 1.51660000000000E+0001
 50
 3.17091900000000E+0001
 51
 1.51927510000000E+0002
  0
LINE
  8
0
 10
 4.14086822877142E+0002
 20
 7.37817172608474E+0002
 11
 4.14086839755655E+0002
 21
 7.37817144006648E+0002
  0
ARC
  8
0
 10
 4.27948300000000E+0002
 20
 7.28061500000000E+0002
 40
 1.69503000000000E+0001
 50
 0.00000000000000E+0000
 51
 1.44862260000000E+0002
  0
LINE
  8
0
 10
 4.44898600000000E+0002
 20
 7.28061500000000E+0002
 11
 4.44898600000000E+0002
 21
 6.72750100000000E+0002
  0
LINE
  8
0
 10
 4.44898600000000E+0002
 20
 6.72750100000000E+0002
 11
 4.30624700000000E+0002
 21
 6.72750100000000E+0002
  0
LINE
  8
0
 10
 4.30624700000000E+0002
 20
 6.72750100000000E+0002
 11
 4.30624700000000E+0002
 21
 7.23600900000000E+0002
  0
ARC
  8
0
 10
 4.23487700000000E+0002
 20
 7.23600900000000E+0002
 40
 7.13700000000000E+0000
 50
 0.00000000000000E+0000
 51
 1.80000000000000E+0002
  0
LINE
  8
0
 10
 4.16350700000000E+0002
 20
 7.23600900000000E+0002
 11
 4.16350700000000E+0002
 21
 6.72750100000000E+0002
  0
LINE
  8
0
 10
 4.16350700000000E+0002
 20
 6.72750100000000E+0002
 11
 4.02076800000000E+0002
 21
 6.72750100000000E+0002
  0
LINE
  8
0
 10
 4.02076800000000E+0002
 20
 6.72750100000000E+0002
 11
 4.02076900000000E+0002
 21
 7.23600900000000E+0002
  0
ARC
  8
0
 10
 3.94939900000000E+0002
 20
 7.23600900000000E+0002
 40
 7.13700000000000E+0000
 50
 0.00000000000000E+0000
 51
 1.80000000000000E+0002
  0
LINE
  8
0
 10
 3.87802900000000E+0002
 20
 7.23600900000000E+0002
 11
 3.87802900000000E+0002
 21
 6.72750100000000E+0002
  0
LINE
  8
0
 10
 3.87802900000000E+0002
 20
 6.72750100000000E+0002
 11
 3.73529000000000E+0002
 21
 6.72750100000000E+0002
  0
ENDSEC
  0
EOF
