  0
SECTION
  2
HEADER
  9
$ACADVER
  1
AC1003
  9
$INSBASE
 10
0.0
 20
0.0
  9
$EXTMIN
 10
 0.00000000000000E+0000
 20
 0.00000000000000E+0000
  9
$EXTMAX
 10
 3.15000000000000E+0002
 20
 4.20000000000000E+0002
  9
$LIMMIN
 10
0.0
 20
0.0
  9
$LIMMAX
 10
410.0
 20
287.0
  9
$VIEWCTR
 10
227.0059616
 20
165.058879 
  9
$VIEWSIZE
 40
 4.20000000000000E+0002
9
$SNAPMODE
70
0
9
$SNAPUNIT
10
1
20
1
9
$GRIDMODE
70
0
9
$GRIDUNIT
10
1
20
1
9
$ORTHOMODE
70
0
9
$rEGENMODE
70
1
9
$FILLMODE
70
1
9
$DRAGMODE
70
2
9
$LTSCALE
40
25.0
9
$OSMODE
70
0
9
$ATTMODE
70
1
9
$TRACEWID
40
1.0
9
$TEXTSTYLE
7
STANDARD
9
$CLAYER
8
0
9
$CELTYPE
6
VONLAYER
9
$CECOLOR
62
256
9
$LUNITS
70
2
9
$LUPREC
70
2
9
$AXISMODE
70
0
9
$AXISUNIT
10
0
20
0
9
$SKETCHINC
40
1.0
9
$FILLETRAD
40
0.0
9
$AUNITS
70
0
9
$AUPREC
70
0
9
$MENU
1
ACAD
9
$ELEVATION
40
0.0
9
$THICKNESS
40
0.0
9
$VIEWDIR
10
0.0
20
0.0
30
1.0
9
$LIMCHECK
70
0
9
$BLIPMODE
70
1
9
$CHAMFERA
40
0.0
9
$CHAMFERB
40
0.0
9
$USRTIMER
70
1
9
$ANGBASE
50
0.0
9
$ANGDIR
70
0
9
$PDMODE
70
0
9
$PDSIZE
40
0.0
9
$PLINEWID
40
0.0
9
$COORDS
70
0
0
ENDSEC
0
SECTION
2
TABLES
0
TABLE
2
LTYPE
70
1
0
LTYPE
2
AUSGEZOGEN
70
64
3
Ausgezogene Linie
72
65
73
0
40
0.0
0
ENDTAB
0
TABLE
2
LAYER
70
1
0
LAYER
2
0
70
0
62
7
6
AUSGEZOGEN
0
ENDTAB
0
TABLE
2
STYLE
70
1
0
STYLE
2
STANDARD
70
0
40
0.0
41
1.0
50
0.0
71
0
42
3.5
3
txt
4

0
ENDTAB
0
TABLE
2
VIEW
70
0
0
ENDTAB
0
ENDSEC
0
SECTION
2
BLOCKS
0
ENDSEC
0
SECTION
2
ENTITIES
  0
ARC
  8
0
 10
 2.87000000000000E+0002
 20
 2.80000000000000E+0001
 40
 2.80000000000000E+0001
 50
 2.70000000000000E+0002
 51
 3.60000000000000E+0002
  0
LINE
  8
0
 10
 2.87000000000000E+0002
 20
 0.00000000000000E+0000
 11
 2.80000000000000E+0001
 21
 0.00000000000000E+0000
  0
ARC
  8
0
 10
 2.80000000000000E+0001
 20
 2.80000000000000E+0001
 40
 2.80000000000000E+0001
 50
 1.80000000000000E+0002
 51
 2.70000000000000E+0002
  0
LINE
  8
0
 10
 0.00000000000000E+0000
 20
 2.80000000000000E+0001
 11
 0.00000000000000E+0000
 21
 3.92000000000000E+0002
  0
ARC
  8
0
 10
 2.80000000000000E+0001
 20
 3.92000000000000E+0002
 40
 2.80000000000000E+0001
 50
 9.00000000000000E+0001
 51
 1.80000000000000E+0002
  0
LINE
  8
0
 10
 2.80000000000000E+0001
 20
 4.20000000000000E+0002
 11
 2.87000000000000E+0002
 21
 4.20000000000000E+0002
  0
ARC
  8
0
 10
 2.87000000000000E+0002
 20
 3.92000000000000E+0002
 40
 2.80000000000000E+0001
 50
 0.00000000000000E+0000
 51
 9.00000000000000E+0001
  0
LINE
  8
0
 10
 3.15000000000000E+0002
 20
 3.92000000000000E+0002
 11
 3.15000000000000E+0002
 21
 2.80000000000000E+0001
  0
ARC
  8
0
 10
 2.87000000000000E+0002
 20
 2.80000000000000E+0001
 40
 2.10000000000000E+0001
 50
 2.70000000000000E+0002
 51
 3.60000000000000E+0002
  0
LINE
  8
0
 10
 2.87000000000000E+0002
 20
 7.00000000000000E+0000
 11
 2.80000000000000E+0001
 21
 7.00000000000000E+0000
  0
ARC
  8
0
 10
 2.80000000000000E+0001
 20
 2.80000000000000E+0001
 40
 2.10000000000000E+0001
 50
 1.80000000000000E+0002
 51
 2.70000000000000E+0002
  0
LINE
  8
0
 10
 7.00000000000000E+0000
 20
 2.80000000000000E+0001
 11
 7.00000000000000E+0000
 21
 3.92000000000000E+0002
  0
ARC
  8
0
 10
 2.80000000000000E+0001
 20
 3.92000000000000E+0002
 40
 2.10000000000000E+0001
 50
 9.00000000000000E+0001
 51
 1.80000000000000E+0002
  0
LINE
  8
0
 10
 2.80000000000000E+0001
 20
 4.13000000000000E+0002
 11
 2.87000000000000E+0002
 21
 4.13000000000000E+0002
  0
ARC
  8
0
 10
 2.87000000000000E+0002
 20
 3.92000000000000E+0002
 40
 2.10000000000000E+0001
 50
 0.00000000000000E+0000
 51
 9.00000000000000E+0001
  0
LINE
  8
0
 10
 3.08000000000000E+0002
 20
 3.92000000000000E+0002
 11
 3.08000000000000E+0002
 21
 2.80000000000000E+0001
  0
ARC
  8
0
 10
 2.87000000000000E+0002
 20
 2.80000000000000E+0001
 40
 1.05000000000000E+0001
 50
 2.70000000000000E+0002
 51
 3.60000000000000E+0002
  0
LINE
  8
0
 10
 2.87000000000000E+0002
 20
 1.75000000000000E+0001
 11
 2.80000000000000E+0001
 21
 1.75000000000000E+0001
  0
ARC
  8
0
 10
 2.80000000000000E+0001
 20
 2.80000000000000E+0001
 40
 1.05000000000000E+0001
 50
 1.80000000000000E+0002
 51
 2.70000000000000E+0002
  0
LINE
  8
0
 10
 1.75000000000000E+0001
 20
 2.80000000000000E+0001
 11
 1.75000000000000E+0001
 21
 3.92000000000000E+0002
  0
ARC
  8
0
 10
 2.80000000000000E+0001
 20
 3.92000000000000E+0002
 40
 1.05000000000000E+0001
 50
 9.00000000000000E+0001
 51
 1.80000000000000E+0002
  0
LINE
  8
0
 10
 2.80000000000000E+0001
 20
 4.02500000000000E+0002
 11
 2.87000000000000E+0002
 21
 4.02500000000000E+0002
  0
ARC
  8
0
 10
 2.87000000000000E+0002
 20
 3.92000000000000E+0002
 40
 1.05000000000000E+0001
 50
 0.00000000000000E+0000
 51
 9.00000000000000E+0001
  0
LINE
  8
0
 10
 2.97500000000000E+0002
 20
 3.92000000000000E+0002
 11
 2.97500000000000E+0002
 21
 2.80000000000000E+0001
  0
ARC
  8
0
 10
 1.00000000000000E+0002
 20
 2.55000000000000E+0002
 40
 5.00000000000000E+0000
 50
 1.80000000000000E+0002
 51
 2.70000000000000E+0002
  0
LINE
  8
0
 10
 9.50000000000000E+0001
 20
 2.55000000000000E+0002
 11
 9.50000000000000E+0001
 21
 3.70000000000000E+0002
  0
ARC
  8
0
 10
 1.00000000000000E+0002
 20
 3.70000000000000E+0002
 40
 5.00000000000000E+0000
 50
 9.00000000000000E+0001
 51
 1.80000000000000E+0002
  0
LINE
  8
0
 10
 1.00000000000000E+0002
 20
 3.75000000000000E+0002
 11
 2.15000000000000E+0002
 21
 3.75000000000000E+0002
  0
ARC
  8
0
 10
 2.15000000000000E+0002
 20
 3.70000000000000E+0002
 40
 5.00000000000000E+0000
 50
 0.00000000000000E+0000
 51
 9.00000000000000E+0001
  0
LINE
  8
0
 10
 2.20000000000000E+0002
 20
 3.70000000000000E+0002
 11
 2.20000000000000E+0002
 21
 2.55000000000000E+0002
  0
ARC
  8
0
 10
 2.15000000000000E+0002
 20
 2.55000000000000E+0002
 40
 5.00000000000000E+0000
 50
 2.70000000000000E+0002
 51
 3.60000000000000E+0002
  0
LINE
  8
0
 10
 2.15000000000000E+0002
 20
 2.50000000000000E+0002
 11
 1.00000000000000E+0002
 21
 2.50000000000000E+0002
  0
LINE
  8
0
 10
 1.01250000000000E+0002
 20
 2.97500000000000E+0002
 11
 1.62577500000000E+0002
 21
 2.97500000000000E+0002
  0
LINE
  8
0
 10
 1.62577500000000E+0002
 20
 2.97500000000000E+0002
 11
 1.44327000000000E+0002
 21
 2.75303100000000E+0002
  0
LINE
  8
0
 10
 1.44327000000000E+0002
 20
 2.75303100000000E+0002
 11
 1.67500000000000E+0002
 21
 2.56250000000000E+0002
  0
LINE
  8
0
 10
 1.67500000000000E+0002
 20
 2.56250000000000E+0002
 11
 2.15000000000000E+0002
 21
 3.12500000000000E+0002
  0
LINE
  8
0
 10
 2.15000000000000E+0002
 20
 3.12500000000000E+0002
 11
 1.67500000000000E+0002
 21
 3.68750000000000E+0002
  0
LINE
  8
0
 10
 1.67500000000000E+0002
 20
 3.68750000000000E+0002
 11
 1.44327000000000E+0002
 21
 3.49696800000000E+0002
  0
LINE
  8
0
 10
 1.44327000000000E+0002
 20
 3.49696800000000E+0002
 11
 1.62577500000000E+0002
 21
 3.27500000000000E+0002
  0
LINE
  8
0
 10
 1.62577500000000E+0002
 20
 3.27500000000000E+0002
 11
 1.01250000000000E+0002
 21
 3.27500000000000E+0002
  0
LINE
  8
0
 10
 1.01250000000000E+0002
 20
 3.27500000000000E+0002
 11
 1.01250000000000E+0002
 21
 2.97500000000000E+0002
  0
LINE
  8
0
 10
 1.06250000000000E+0002
 20
 3.02500000000000E+0002
 11
 1.73162000000000E+0002
 21
 3.02500000000000E+0002
  0
LINE
  8
0
 10
 1.73162000000000E+0002
 20
 3.02500000000000E+0002
 11
 1.51364500000000E+0002
 21
 2.75989700000000E+0002
  0
LINE
  8
0
 10
 1.51364500000000E+0002
 20
 2.75989700000000E+0002
 11
 1.66813000000000E+0002
 21
 2.63287600000000E+0002
  0
LINE
  8
0
 10
 1.66813000000000E+0002
 20
 2.63287600000000E+0002
 11
 2.07276500000000E+0002
 21
 3.12500000000000E+0002
  0
LINE
  8
0
 10
 2.07276500000000E+0002
 20
 3.12500000000000E+0002
 11
 1.66813000000000E+0002
 21
 3.61712300000000E+0002
  0
LINE
  8
0
 10
 1.66813000000000E+0002
 20
 3.61712300000000E+0002
 11
 1.51364500000000E+0002
 21
 3.49010200000000E+0002
  0
LINE
  8
0
 10
 1.51364500000000E+0002
 20
 3.49010200000000E+0002
 11
 1.73162000000000E+0002
 21
 3.22500000000000E+0002
  0
LINE
  8
0
 10
 1.73162000000000E+0002
 20
 3.22500000000000E+0002
 11
 1.06250000000000E+0002
 21
 3.22500000000000E+0002
  0
LINE
  8
0
 10
 1.06250000000000E+0002
 20
 3.22500000000000E+0002
 11
 1.06250000000000E+0002
 21
 3.02500000000000E+0002
  0
LINE
  8
0
 10
 1.70047000000000E+0002
 20
 1.44854300000000E+0002
 11
 1.80300000000000E+0002
 21
 1.44850000000000E+0002
  0
ARC
  8
0
 10
 1.80300000000000E+0002
 20
 1.32350000000000E+0002
 40
 1.25000000000000E+0001
 50
 1.72050000000000E+0001
 51
 9.00000000000000E+0001
  0
LINE
  8
0
 10
 1.92240656913618E+0002
 20
 1.36047392658518E+0002
 11
 2.01339688842904E+0002
 21
 1.06724654548938E+0002
  0
ARC
  8
0
 10
 2.07550000000000E+0002
 20
 7.62000000000000E+0001
 40
 3.11500000000000E+0001
 50
 1.12930000000000E+0002
 51
 4.61500000000000E+0002
  0
LINE
  8
0
 10
 1.95413765987572E+0002
 20
 1.04888574798961E+0002
 11
 1.92878000000000E+0002
 21
 1.12913400000000E+0002
  0
LINE
  8
0
 10
 1.92878000000000E+0002
 20
 1.12913400000000E+0002
 11
 1.55940273163740E+0002
 21
 7.19130721327114E+0001
  0
ARC
  8
0
 10
 1.51300000000000E+0002
 20
 7.61000000000000E+0001
 40
 6.25000000000000E+0000
 50
 2.70000000000000E+0002
 51
 3.17940000000000E+0002
  0
LINE
  8
0
 10
 1.51300000000000E+0002
 20
 6.98500000000000E+0001
 11
 1.38168290023603E+0002
 21
 6.98483749288262E+0001
  0
ARC
  8
0
 10
 1.07550000000000E+0002
 20
 7.61000000000000E+0001
 40
 3.12500000000000E+0001
 50
 7.19500000000000E+0001
 51
 3.48460000000000E+0002
  0
LINE
  8
0
 10
 1.17232713436992E+0002
 20
 1.05812077687315E+0002
 11
 1.26307000000000E+0002
 21
 1.26110200000000E+0002
  0
LINE
  8
0
 10
 1.26307000000000E+0002
 20
 1.26110200000000E+0002
 11
 1.23964000000000E+0002
 21
 1.32358200000000E+0002
  0
LINE
  8
0
 10
 1.23964000000000E+0002
 20
 1.32358200000000E+0002
 11
 1.16934000000000E+0002
 21
 1.32358200000000E+0002
  0
LINE
  8
0
 10
 1.16934000000000E+0002
 20
 1.32358200000000E+0002
 11
 1.16934000000000E+0002
 21
 1.38606200000000E+0002
  0
LINE
  8
0
 10
 1.16934000000000E+0002
 20
 1.38606200000000E+0002
 11
 1.43499000000000E+0002
 21
 1.38601400000000E+0002
  0
LINE
  8
0
 10
 1.43499000000000E+0002
 20
 1.38601400000000E+0002
 11
 1.43499020583100E+0002
 21
 1.38601399970200E+0002
  0
LINE
  8
0
 10
 1.43499020583100E+0002
 20
 1.38601399970200E+0002
 11
 1.43499040344800E+0002
 21
 1.38601399881600E+0002
  0
LINE
  8
0
 10
 1.43499040344800E+0002
 20
 1.38601399881600E+0002
 11
 1.43499059303700E+0002
 21
 1.38601399735400E+0002
  0
LINE
  8
0
 10
 1.43499059303700E+0002
 20
 1.38601399735400E+0002
 11
 1.43499077478400E+0002
 21
 1.38601399532800E+0002
  0
LINE
  8
0
 10
 1.43499077478400E+0002
 20
 1.38601399532800E+0002
 11
 1.43499094887500E+0002
 21
 1.38601399275000E+0002
  0
LINE
  8
0
 10
 1.43499094887500E+0002
 20
 1.38601399275000E+0002
 11
 1.43499111549600E+0002
 21
 1.38601398963200E+0002
  0
LINE
  8
0
 10
 1.43499111549600E+0002
 20
 1.38601398963200E+0002
 11
 1.43499127483300E+0002
 21
 1.38601398598600E+0002
  0
LINE
  8
0
 10
 1.43499127483300E+0002
 20
 1.38601398598600E+0002
 11
 1.43499142707200E+0002
 21
 1.38601398182400E+0002
  0
LINE
  8
0
 10
 1.43499142707200E+0002
 20
 1.38601398182400E+0002
 11
 1.43499157239900E+0002
 21
 1.38601397715800E+0002
  0
LINE
  8
0
 10
 1.43499157239900E+0002
 20
 1.38601397715800E+0002
 11
 1.43499171100000E+0002
 21
 1.38601397200000E+0002
  0
LINE
  8
0
 10
 1.43499171100000E+0002
 20
 1.38601397200000E+0002
 11
 1.43499184306100E+0002
 21
 1.38601396636200E+0002
  0
LINE
  8
0
 10
 1.43499184306100E+0002
 20
 1.38601396636200E+0002
 11
 1.43499196876800E+0002
 21
 1.38601396025600E+0002
  0
LINE
  8
0
 10
 1.43499196876800E+0002
 20
 1.38601396025600E+0002
 11
 1.43499208830700E+0002
 21
 1.38601395369400E+0002
  0
LINE
  8
0
 10
 1.43499208830700E+0002
 20
 1.38601395369400E+0002
 11
 1.43499220186400E+0002
 21
 1.38601394668800E+0002
  0
LINE
  8
0
 10
 1.43499220186400E+0002
 20
 1.38601394668800E+0002
 11
 1.43499230962500E+0002
 21
 1.38601393925000E+0002
  0
LINE
  8
0
 10
 1.43499230962500E+0002
 20
 1.38601393925000E+0002
 11
 1.43499241177600E+0002
 21
 1.38601393139200E+0002
  0
LINE
  8
0
 10
 1.43499241177600E+0002
 20
 1.38601393139200E+0002
 11
 1.43499250850300E+0002
 21
 1.38601392312600E+0002
  0
LINE
  8
0
 10
 1.43499250850300E+0002
 20
 1.38601392312600E+0002
 11
 1.43499259999200E+0002
 21
 1.38601391446400E+0002
  0
LINE
  8
0
 10
 1.43499259999200E+0002
 20
 1.38601391446400E+0002
 11
 1.43499268642900E+0002
 21
 1.38601390541800E+0002
  0
LINE
  8
0
 10
 1.43499268642900E+0002
 20
 1.38601390541800E+0002
 11
 1.43499276800000E+0002
 21
 1.38601389600000E+0002
  0
LINE
  8
0
 10
 1.43499276800000E+0002
 20
 1.38601389600000E+0002
 11
 1.43499284489100E+0002
 21
 1.38601388622200E+0002
  0
LINE
  8
0
 10
 1.43499284489100E+0002
 20
 1.38601388622200E+0002
 11
 1.43499291728800E+0002
 21
 1.38601387609600E+0002
  0
LINE
  8
0
 10
 1.43499291728800E+0002
 20
 1.38601387609600E+0002
 11
 1.43499298537700E+0002
 21
 1.38601386563400E+0002
  0
LINE
  8
0
 10
 1.43499298537700E+0002
 20
 1.38601386563400E+0002
 11
 1.43499304934400E+0002
 21
 1.38601385484800E+0002
  0
LINE
  8
0
 10
 1.43499304934400E+0002
 20
 1.38601385484800E+0002
 11
 1.43499310937500E+0002
 21
 1.38601384375000E+0002
  0
LINE
  8
0
 10
 1.43499310937500E+0002
 20
 1.38601384375000E+0002
 11
 1.43499316565600E+0002
 21
 1.38601383235200E+0002
  0
LINE
  8
0
 10
 1.43499316565600E+0002
 20
 1.38601383235200E+0002
 11
 1.43499321837300E+0002
 21
 1.38601382066600E+0002
  0
LINE
  8
0
 10
 1.43499321837300E+0002
 20
 1.38601382066600E+0002
 11
 1.43499326771200E+0002
 21
 1.38601380870400E+0002
  0
LINE
  8
0
 10
 1.43499326771200E+0002
 20
 1.38601380870400E+0002
 11
 1.43499331385900E+0002
 21
 1.38601379647800E+0002
  0
LINE
  8
0
 10
 1.43499331385900E+0002
 20
 1.38601379647800E+0002
 11
 1.43499335700000E+0002
 21
 1.38601378400000E+0002
  0
LINE
  8
0
 10
 1.43499335700000E+0002
 20
 1.38601378400000E+0002
 11
 1.43499339732100E+0002
 21
 1.38601377128200E+0002
  0
LINE
  8
0
 10
 1.43499339732100E+0002
 20
 1.38601377128200E+0002
 11
 1.43499343500800E+0002
 21
 1.38601375833600E+0002
  0
LINE
  8
0
 10
 1.43499343500800E+0002
 20
 1.38601375833600E+0002
 11
 1.43499347024700E+0002
 21
 1.38601374517400E+0002
  0
LINE
  8
0
 10
 1.43499347024700E+0002
 20
 1.38601374517400E+0002
 11
 1.43499350322400E+0002
 21
 1.38601373180800E+0002
  0
LINE
  8
0
 10
 1.43499350322400E+0002
 20
 1.38601373180800E+0002
 11
 1.43499353412500E+0002
 21
 1.38601371825000E+0002
  0
LINE
  8
0
 10
 1.43499353412500E+0002
 20
 1.38601371825000E+0002
 11
 1.43499356313600E+0002
 21
 1.38601370451200E+0002
  0
LINE
  8
0
 10
 1.43499356313600E+0002
 20
 1.38601370451200E+0002
 11
 1.43499359044300E+0002
 21
 1.38601369060600E+0002
  0
LINE
  8
0
 10
 1.43499359044300E+0002
 20
 1.38601369060600E+0002
 11
 1.43499361623200E+0002
 21
 1.38601367654400E+0002
  0
LINE
  8
0
 10
 1.43499361623200E+0002
 20
 1.38601367654400E+0002
 11
 1.43499364068900E+0002
 21
 1.38601366233800E+0002
  0
LINE
  8
0
 10
 1.43499364068900E+0002
 20
 1.38601366233800E+0002
 11
 1.43499366400000E+0002
 21
 1.38601364800000E+0002
  0
LINE
  8
0
 10
 1.43499366400000E+0002
 20
 1.38601364800000E+0002
 11
 1.43499368635100E+0002
 21
 1.38601363354200E+0002
  0
LINE
  8
0
 10
 1.43499368635100E+0002
 20
 1.38601363354200E+0002
 11
 1.43499370792800E+0002
 21
 1.38601361897600E+0002
  0
LINE
  8
0
 10
 1.43499370792800E+0002
 20
 1.38601361897600E+0002
 11
 1.43499372891700E+0002
 21
 1.38601360431400E+0002
  0
LINE
  8
0
 10
 1.43499372891700E+0002
 20
 1.38601360431400E+0002
 11
 1.43499374950400E+0002
 21
 1.38601358956800E+0002
  0
LINE
  8
0
 10
 1.43499374950400E+0002
 20
 1.38601358956800E+0002
 11
 1.43499376987500E+0002
 21
 1.38601357475000E+0002
  0
LINE
  8
0
 10
 1.43499376987500E+0002
 20
 1.38601357475000E+0002
 11
 1.43499379021600E+0002
 21
 1.38601355987200E+0002
  0
LINE
  8
0
 10
 1.43499379021600E+0002
 20
 1.38601355987200E+0002
 11
 1.43499381071300E+0002
 21
 1.38601354494600E+0002
  0
LINE
  8
0
 10
 1.43499381071300E+0002
 20
 1.38601354494600E+0002
 11
 1.43499383155200E+0002
 21
 1.38601352998400E+0002
  0
LINE
  8
0
 10
 1.43499383155200E+0002
 20
 1.38601352998400E+0002
 11
 1.43499385291900E+0002
 21
 1.38601351499800E+0002
  0
LINE
  8
0
 10
 1.43499385291900E+0002
 20
 1.38601351499800E+0002
 11
 1.43499387500000E+0002
 21
 1.38601350000000E+0002
  0
LINE
  8
0
 10
 1.43499387500000E+0002
 20
 1.38601350000000E+0002
 11
 1.43499389798100E+0002
 21
 1.38601348500200E+0002
  0
LINE
  8
0
 10
 1.43499389798100E+0002
 20
 1.38601348500200E+0002
 11
 1.43499392204800E+0002
 21
 1.38601347001600E+0002
  0
LINE
  8
0
 10
 1.43499392204800E+0002
 20
 1.38601347001600E+0002
 11
 1.43499394738700E+0002
 21
 1.38601345505400E+0002
  0
LINE
  8
0
 10
 1.43499394738700E+0002
 20
 1.38601345505400E+0002
 11
 1.43499397418400E+0002
 21
 1.38601344012800E+0002
  0
LINE
  8
0
 10
 1.43499397418400E+0002
 20
 1.38601344012800E+0002
 11
 1.43499400262500E+0002
 21
 1.38601342525000E+0002
  0
LINE
  8
0
 10
 1.43499400262500E+0002
 20
 1.38601342525000E+0002
 11
 1.43499403289600E+0002
 21
 1.38601341043200E+0002
  0
LINE
  8
0
 10
 1.43499403289600E+0002
 20
 1.38601341043200E+0002
 11
 1.43499406518300E+0002
 21
 1.38601339568600E+0002
  0
LINE
  8
0
 10
 1.43499406518300E+0002
 20
 1.38601339568600E+0002
 11
 1.43499409967200E+0002
 21
 1.38601338102400E+0002
  0
LINE
  8
0
 10
 1.43499409967200E+0002
 20
 1.38601338102400E+0002
 11
 1.43499413654900E+0002
 21
 1.38601336645800E+0002
  0
LINE
  8
0
 10
 1.43499413654900E+0002
 20
 1.38601336645800E+0002
 11
 1.43499417600000E+0002
 21
 1.38601335200000E+0002
  0
LINE
  8
0
 10
 1.43499417600000E+0002
 20
 1.38601335200000E+0002
 11
 1.43499421821100E+0002
 21
 1.38601333766200E+0002
  0
LINE
  8
0
 10
 1.43499421821100E+0002
 20
 1.38601333766200E+0002
 11
 1.43499426336800E+0002
 21
 1.38601332345600E+0002
  0
LINE
  8
0
 10
 1.43499426336800E+0002
 20
 1.38601332345600E+0002
 11
 1.43499431165700E+0002
 21
 1.38601330939400E+0002
  0
LINE
  8
0
 10
 1.43499431165700E+0002
 20
 1.38601330939400E+0002
 11
 1.43499436326400E+0002
 21
 1.38601329548800E+0002
  0
LINE
  8
0
 10
 1.43499436326400E+0002
 20
 1.38601329548800E+0002
 11
 1.43499441837500E+0002
 21
 1.38601328175000E+0002
  0
LINE
  8
0
 10
 1.43499441837500E+0002
 20
 1.38601328175000E+0002
 11
 1.43499447717600E+0002
 21
 1.38601326819200E+0002
  0
LINE
  8
0
 10
 1.43499447717600E+0002
 20
 1.38601326819200E+0002
 11
 1.43499453985300E+0002
 21
 1.38601325482600E+0002
  0
LINE
  8
0
 10
 1.43499453985300E+0002
 20
 1.38601325482600E+0002
 11
 1.43499460659200E+0002
 21
 1.38601324166400E+0002
  0
LINE
  8
0
 10
 1.43499460659200E+0002
 20
 1.38601324166400E+0002
 11
 1.43499467757900E+0002
 21
 1.38601322871800E+0002
  0
LINE
  8
0
 10
 1.43499467757900E+0002
 20
 1.38601322871800E+0002
 11
 1.43499475300000E+0002
 21
 1.38601321600000E+0002
  0
LINE
  8
0
 10
 1.43499475300000E+0002
 20
 1.38601321600000E+0002
 11
 1.43499483304100E+0002
 21
 1.38601320352200E+0002
  0
LINE
  8
0
 10
 1.43499483304100E+0002
 20
 1.38601320352200E+0002
 11
 1.43499491788800E+0002
 21
 1.38601319129600E+0002
  0
LINE
  8
0
 10
 1.43499491788800E+0002
 20
 1.38601319129600E+0002
 11
 1.43499500772700E+0002
 21
 1.38601317933400E+0002
  0
LINE
  8
0
 10
 1.43499500772700E+0002
 20
 1.38601317933400E+0002
 11
 1.43499510274400E+0002
 21
 1.38601316764800E+0002
  0
LINE
  8
0
 10
 1.43499510274400E+0002
 20
 1.38601316764800E+0002
 11
 1.43499520312500E+0002
 21
 1.38601315625000E+0002
  0
LINE
  8
0
 10
 1.43499520312500E+0002
 20
 1.38601315625000E+0002
 11
 1.43499530905600E+0002
 21
 1.38601314515200E+0002
  0
LINE
  8
0
 10
 1.43499530905600E+0002
 20
 1.38601314515200E+0002
 11
 1.43499542072300E+0002
 21
 1.38601313436600E+0002
  0
LINE
  8
0
 10
 1.43499542072300E+0002
 20
 1.38601313436600E+0002
 11
 1.43499553831200E+0002
 21
 1.38601312390400E+0002
  0
LINE
  8
0
 10
 1.43499553831200E+0002
 20
 1.38601312390400E+0002
 11
 1.43499566200900E+0002
 21
 1.38601311377800E+0002
  0
LINE
  8
0
 10
 1.43499566200900E+0002
 20
 1.38601311377800E+0002
 11
 1.43499579200000E+0002
 21
 1.38601310400000E+0002
  0
LINE
  8
0
 10
 1.43499579200000E+0002
 20
 1.38601310400000E+0002
 11
 1.43499592847100E+0002
 21
 1.38601309458200E+0002
  0
LINE
  8
0
 10
 1.43499592847100E+0002
 20
 1.38601309458200E+0002
 11
 1.43499607160800E+0002
 21
 1.38601308553600E+0002
  0
LINE
  8
0
 10
 1.43499607160800E+0002
 20
 1.38601308553600E+0002
 11
 1.43499622159700E+0002
 21
 1.38601307687400E+0002
  0
LINE
  8
0
 10
 1.43499622159700E+0002
 20
 1.38601307687400E+0002
 11
 1.43499637862400E+0002
 21
 1.38601306860800E+0002
  0
LINE
  8
0
 10
 1.43499637862400E+0002
 20
 1.38601306860800E+0002
 11
 1.43499654287500E+0002
 21
 1.38601306075000E+0002
  0
LINE
  8
0
 10
 1.43499654287500E+0002
 20
 1.38601306075000E+0002
 11
 1.43499671453600E+0002
 21
 1.38601305331200E+0002
  0
LINE
  8
0
 10
 1.43499671453600E+0002
 20
 1.38601305331200E+0002
 11
 1.43499689379300E+0002
 21
 1.38601304630600E+0002
  0
LINE
  8
0
 10
 1.43499689379300E+0002
 20
 1.38601304630600E+0002
 11
 1.43499708083200E+0002
 21
 1.38601303974400E+0002
  0
LINE
  8
0
 10
 1.43499708083200E+0002
 20
 1.38601303974400E+0002
 11
 1.43499727583900E+0002
 21
 1.38601303363800E+0002
  0
LINE
  8
0
 10
 1.43499727583900E+0002
 20
 1.38601303363800E+0002
 11
 1.43499747900000E+0002
 21
 1.38601302800000E+0002
  0
LINE
  8
0
 10
 1.43499747900000E+0002
 20
 1.38601302800000E+0002
 11
 1.43499769050100E+0002
 21
 1.38601302284200E+0002
  0
LINE
  8
0
 10
 1.43499769050100E+0002
 20
 1.38601302284200E+0002
 11
 1.43499791052800E+0002
 21
 1.38601301817600E+0002
  0
LINE
  8
0
 10
 1.43499791052800E+0002
 20
 1.38601301817600E+0002
 11
 1.43499813926700E+0002
 21
 1.38601301401400E+0002
  0
LINE
  8
0
 10
 1.43499813926700E+0002
 20
 1.38601301401400E+0002
 11
 1.43499837690400E+0002
 21
 1.38601301036800E+0002
  0
LINE
  8
0
 10
 1.43499837690400E+0002
 20
 1.38601301036800E+0002
 11
 1.43499862362500E+0002
 21
 1.38601300725000E+0002
  0
LINE
  8
0
 10
 1.43499862362500E+0002
 20
 1.38601300725000E+0002
 11
 1.43499887961600E+0002
 21
 1.38601300467200E+0002
  0
LINE
  8
0
 10
 1.43499887961600E+0002
 20
 1.38601300467200E+0002
 11
 1.43499914506300E+0002
 21
 1.38601300264600E+0002
  0
LINE
  8
0
 10
 1.43499914506300E+0002
 20
 1.38601300264600E+0002
 11
 1.43499942015200E+0002
 21
 1.38601300118400E+0002
  0
LINE
  8
0
 10
 1.43499942015200E+0002
 20
 1.38601300118400E+0002
 11
 1.43499970506900E+0002
 21
 1.38601300029800E+0002
  0
LINE
  8
0
 10
 1.43499970506900E+0002
 20
 1.38601300029800E+0002
 11
 1.43500000000000E+0002
 21
 1.38601300000000E+0002
  0
LINE
  8
0
 10
 1.43500000000000E+0002
 20
 1.38601300000000E+0002
 11
 1.43499900000000E+0002
 21
 1.38600000000000E+0002
  0
LINE
  8
0
 10
 1.43499900000000E+0002
 20
 1.38600000000000E+0002
 11
 1.43500000000000E+0002
 21
 1.38601300000000E+0002
  0
LINE
  8
0
 10
 1.43500000000000E+0002
 20
 1.38601300000000E+0002
 11
 1.43499864736983E+0002
 21
 1.38599999994098E+0002
  0
ARC
  8
0
 10
 1.43500000000000E+0002
 20
 1.37050000000000E+0002
 40
 1.55000000000000E+0000
 50
 2.83645000000000E+0002
 51
 4.50005000000000E+0002
  0
LINE
  8
0
 10
 1.43865653396172E+0002
 20
 1.35543747168013E+0002
 11
 1.30638000000000E+0002
 21
 1.32358200000000E+0002
  0
LINE
  8
0
 10
 1.30638000000000E+0002
 20
 1.32358200000000E+0002
 11
 1.32981000000000E+0002
 21
 1.26110200000000E+0002
  0
LINE
  8
0
 10
 1.32981000000000E+0002
 20
 1.26110200000000E+0002
 11
 1.88792000000000E+0002
 21
 1.26110200000000E+0002
  0
LINE
  8
0
 10
 1.88792000000000E+0002
 20
 1.26110200000000E+0002
 11
 1.86270489763265E+0002
 21
 1.34198175312775E+0002
  0
ARC
  8
0
 10
 1.80300000000000E+0002
 20
 1.32350000000000E+0002
 40
 6.25000000000000E+0000
 50
 1.72000000000000E+0001
 51
 8.99950000000000E+0001
  0
LINE
  8
0
 10
 1.80300545415391E+0002
 20
 1.38599999976202E+0002
 11
 1.70047000000000E+0002
 21
 1.38606200000000E+0002
  0
LINE
  8
0
 10
 1.70047000000000E+0002
 20
 1.38606200000000E+0002
 11
 1.70047000000000E+0002
 21
 1.44854300000000E+0002
  0
LINE
  8
0
 10
 1.90727000000000E+0002
 20
 1.19862100000000E+0002
 11
 1.51602000000000E+0002
 21
 7.64556000000000E+0001
  0
LINE
  8
0
 10
 1.51602000000000E+0002
 20
 7.64556000000000E+0001
 11
 1.35324000000000E+0002
 21
 1.19862100000000E+0002
  0
LINE
  8
0
 10
 1.35324000000000E+0002
 20
 1.19862100000000E+0002
 11
 1.90727000000000E+0002
 21
 1.19862100000000E+0002
  0
LINE
  8
0
 10
 2.03190000000000E+0002
 20
 1.00735500000000E+0002
 11
 2.03200201754088E+0002
 21
 1.00768676959167E+0002
  0
ARC
  8
0
 10
 2.07550000000000E+0002
 20
 7.61500000000000E+0001
 40
 2.50000000000000E+0001
 50
 1.14375000000000E+0002
 51
 4.60020000000000E+0002
  0
LINE
  8
0
 10
 1.97232324254890E+0002
 20
 9.89215956230294E+0001
 11
 2.04540467010796E+0002
 21
 7.51698327102645E+0001
  0
ARC
  8
0
 10
 2.07550000000000E+0002
 20
 7.61000000000000E+0001
 40
 3.15000000000000E+0000
 50
 1.97175000000000E+0002
 51
 3.77305000000000E+0002
  0
LINE
  8
0
 10
 2.10557414761794E+0002
 20
 7.70369933033603E+0001
 11
 2.03190000000000E+0002
 21
 1.00735500000000E+0002
  0
LINE
  8
0
 10
 1.45053000000000E+0002
 20
 7.61208000000000E+0001
 11
 1.38800000000000E+0002
 21
 7.61000000000000E+0001
  0
ARC
  8
0
 10
 1.07550000000000E+0002
 20
 7.61000000000000E+0001
 40
 3.12500000000000E+0001
 50
 0.00000000000000E+0000
 51
 6.04750000000000E+0001
  0
LINE
  8
0
 10
 1.22950102422815E+0002
 20
 1.03291898524501E+0002
 11
 1.29430000000000E+0002
 21
 1.17781800000000E+0002
  0
LINE
  8
0
 10
 1.29430000000000E+0002
 20
 1.17781800000000E+0002
 11
 1.45053000000000E+0002
 21
 7.61208000000000E+0001
  0
LINE
  8
0
 10
 1.32571000000000E+0002
 20
 7.61184000000000E+0001
 11
 1.32556000000000E+0002
 21
 7.61208000000000E+0001
  0
LINE
  8
0
 10
 1.32556000000000E+0002
 20
 7.61208000000000E+0001
 11
 1.10818000000000E+0002
 21
 7.61208000000000E+0001
  0
LINE
  8
0
 10
 1.10818000000000E+0002
 20
 7.61208000000000E+0001
 11
 1.20384787091481E+0002
 21
 9.75538630627761E+0001
  0
ARC
  8
0
 10
 1.07550000000000E+0002
 20
 7.61000000000000E+0001
 40
 2.50000000000000E+0001
 50
 0.00000000000000E+0000
 51
 5.91100000000000E+0001
  0
LINE
  8
0
 10
 1.32550000000000E+0002
 20
 7.61000000000000E+0001
 11
 1.32571000000000E+0002
 21
 7.61184000000000E+0001
  0
LINE
  8
0
 10
 1.31762000000000E+0002
 20
 6.98728000000000E+0001
 11
 1.31755874512561E+0002
 21
 6.98489489618029E+0001
  0
ARC
  8
0
 10
 1.07550000000000E+0002
 20
 7.61000000000000E+0001
 40
 2.50000000000000E+0001
 50
 7.34650000000000E+0001
 51
 3.45520000000000E+0002
  0
LINE
  8
0
 10
 1.14665025033054E+0002
 20
 1.00066151522074E+0002
 11
 1.03124796876905E+0002
 21
 7.42867427874086E+0001
  0
ARC
  8
0
 10
 1.06000000000000E+0002
 20
 7.30000000000000E+0001
 40
 3.15000000000000E+0000
 50
 1.55890000000000E+0002
 51
 2.69990000000000E+0002
  0
LINE
  8
0
 10
 1.05999450221288E+0002
 20
 6.98500000479772E+0001
 11
 1.31762000000000E+0002
 21
 6.98728000000000E+0001
  0
LINE
  8
0
 10
 1.02535000000000E+0002
 20
 1.78139300000000E+0002
 11
 1.02535000000000E+0002
 21
 2.16710728571429E+0002
  0
LINE
  8
0
 10
 1.02535000000000E+0002
 20
 2.16710728571429E+0002
 11
 1.10249285714285E+0002
 21
 2.16710728571429E+0002
  0
LINE
  8
0
 10
 1.10249285714285E+0002
 20
 2.16710728571429E+0002
 11
 1.10249285533066E+0002
 21
 2.12357249672340E+0002
  0
ARC
  8
0
 10
 1.20374285714285E+0002
 20
 2.04175014285714E+0002
 40
 1.30178571428571E+0001
 50
 0.00000000000000E+0000
 51
 1.41057560000000E+0002
  0
LINE
  8
0
 10
 1.33392142857143E+0002
 20
 2.04175014285714E+0002
 11
 1.33392142857143E+0002
 21
 1.78139300000000E+0002
  0
LINE
  8
0
 10
 1.33392142857143E+0002
 20
 1.78139300000000E+0002
 11
 1.25677857142857E+0002
 21
 1.78139300000000E+0002
  0
LINE
  8
0
 10
 1.25677857142857E+0002
 20
 1.78139300000000E+0002
 11
 1.25677857142857E+0002
 21
 2.01764300000000E+0002
  0
ARC
  8
0
 10
 1.17963571428571E+0002
 20
 2.01764300000000E+0002
 40
 7.71428571428571E+0000
 50
 0.00000000000000E+0000
 51
 1.80000000000000E+0002
  0
LINE
  8
0
 10
 1.10249285714285E+0002
 20
 2.01764300000000E+0002
 11
 1.10249285714285E+0002
 21
 1.78139300000000E+0002
  0
LINE
  8
0
 10
 1.10249285714285E+0002
 20
 1.78139300000000E+0002
 11
 1.02535000000000E+0002
 21
 1.78139300000000E+0002
  0
LINE
  8
0
 10
 1.74856428571436E+0002
 20
 1.78139300000000E+0002
 11
 1.67142142857150E+0002
 21
 1.78139300000000E+0002
  0
LINE
  8
0
 10
 1.67142142857150E+0002
 20
 1.78139300000000E+0002
 11
 1.67142143038369E+0002
 21
 1.82492778899089E+0002
  0
ARC
  8
0
 10
 1.57017142857150E+0002
 20
 1.90675014285714E+0002
 40
 1.30178571428571E+0001
 50
 1.80000000000000E+0002
 51
 3.21057560000000E+0002
  0
LINE
  8
0
 10
 1.43999285714293E+0002
 20
 1.90675014285714E+0002
 11
 1.43999285714293E+0002
 21
 2.16710728571429E+0002
  0
LINE
  8
0
 10
 1.43999285714293E+0002
 20
 2.16710728571429E+0002
 11
 1.51713571428578E+0002
 21
 2.16710728571429E+0002
  0
LINE
  8
0
 10
 1.51713571428578E+0002
 20
 2.16710728571429E+0002
 11
 1.51713571428578E+0002
 21
 1.93085728571429E+0002
  0
ARC
  8
0
 10
 1.59427857142864E+0002
 20
 1.93085728571429E+0002
 40
 7.71428571428571E+0000
 50
 1.80000000000000E+0002
 51
 3.60000000000000E+0002
  0
LINE
  8
0
 10
 1.67142142857150E+0002
 20
 1.93085728571429E+0002
 11
 1.67142142857150E+0002
 21
 2.16710728571429E+0002
  0
LINE
  8
0
 10
 1.67142142857150E+0002
 20
 2.16710728571429E+0002
 11
 1.74856428571436E+0002
 21
 2.16710728571429E+0002
  0
LINE
  8
0
 10
 1.74856428571436E+0002
 20
 2.16710728571429E+0002
 11
 1.74856428571436E+0002
 21
 1.78139300000000E+0002
  0
LINE
  8
0
 10
 1.86427857142871E+0002
 20
 1.78139300000000E+0002
 11
 1.86427857142871E+0002
 21
 2.16710728571429E+0002
  0
LINE
  8
0
 10
 1.86427857142871E+0002
 20
 2.16710728571429E+0002
 11
 1.94142142857157E+0002
 21
 2.16710728571429E+0002
  0
LINE
  8
0
 10
 1.94142142857157E+0002
 20
 2.16710728571429E+0002
 11
 1.94142142675938E+0002
 21
 2.12357249672340E+0002
  0
ARC
  8
0
 10
 2.04267142857157E+0002
 20
 2.04175014285714E+0002
 40
 1.30178571428571E+0001
 50
 5.09772000000000E+0001
 51
 1.41057560000000E+0002
  0
LINE
  8
0
 10
 2.12463570975786E+0002
 20
 2.14288528545752E+0002
 11
 2.06984233552236E+0002
 21
 2.07527616767329E+0002
  0
ARC
  8
0
 10
 2.01856428571443E+0002
 20
 2.01764300000000E+0002
 40
 7.71428571428571E+0000
 50
 4.83395000000000E+0001
 51
 1.80000000000000E+0002
  0
LINE
  8
0
 10
 1.94142142857157E+0002
 20
 2.01764300000000E+0002
 11
 1.94142142857157E+0002
 21
 1.78139300000000E+0002
  0
LINE
  8
0
 10
 1.94142142857157E+0002
 20
 1.78139300000000E+0002
 11
 1.86427857142871E+0002
 21
 1.78139300000000E+0002
  0
ENDSEC
  0
EOF
