  0
SECTION
  2
HEADER
  9
$ACADVER
  1
AC1003
  9
$INSBASE
 10
0.0
 20
0.0
  9
$EXTMIN
 10
 0.00000000000000E+0000
 20
 0.00000000000000E+0000
  9
$EXTMAX
 10
 6.00000000000000E+0002
 20
 9.00000000000000E+0002
  9
$LIMMIN
 10
0.0
 20
0.0
  9
$LIMMAX
 10
410.0
 20
287.0
  9
$VIEWCTR
 10
227.0059616
 20
165.058879 
  9
$VIEWSIZE
 40
 9.00000000000000E+0002
9
$SNAPMODE
70
0
9
$SNAPUNIT
10
1
20
1
9
$GRIDMODE
70
0
9
$GRIDUNIT
10
1
20
1
9
$ORTHOMODE
70
0
9
$rEGENMODE
70
1
9
$FILLMODE
70
1
9
$DRAGMODE
70
2
9
$LTSCALE
40
25.0
9
$OSMODE
70
0
9
$ATTMODE
70
1
9
$TRACEWID
40
1.0
9
$TEXTSTYLE
7
STANDARD
9
$CLAYER
8
0
9
$CELTYPE
6
VONLAYER
9
$CECOLOR
62
256
9
$LUNITS
70
2
9
$LUPREC
70
2
9
$AXISMODE
70
0
9
$AXISUNIT
10
0
20
0
9
$SKETCHINC
40
1.0
9
$FILLETRAD
40
0.0
9
$AUNITS
70
0
9
$AUPREC
70
0
9
$MENU
1
ACAD
9
$ELEVATION
40
0.0
9
$THICKNESS
40
0.0
9
$VIEWDIR
10
0.0
20
0.0
30
1.0
9
$LIMCHECK
70
0
9
$BLIPMODE
70
1
9
$CHAMFERA
40
0.0
9
$CHAMFERB
40
0.0
9
$USRTIMER
70
1
9
$ANGBASE
50
0.0
9
$ANGDIR
70
0
9
$PDMODE
70
0
9
$PDSIZE
40
0.0
9
$PLINEWID
40
0.0
9
$COORDS
70
0
0
ENDSEC
0
SECTION
2
TABLES
0
TABLE
2
LTYPE
70
1
0
LTYPE
2
AUSGEZOGEN
70
64
3
Ausgezogene Linie
72
65
73
0
40
0.0
0
ENDTAB
0
TABLE
2
LAYER
70
1
0
LAYER
2
0
70
0
62
7
6
AUSGEZOGEN
0
ENDTAB
0
TABLE
2
STYLE
70
1
0
STYLE
2
STANDARD
70
0
40
0.0
41
1.0
50
0.0
71
0
42
3.5
3
txt
4

0
ENDTAB
0
TABLE
2
VIEW
70
0
0
ENDTAB
0
ENDSEC
0
SECTION
2
BLOCKS
0
ENDSEC
0
SECTION
2
ENTITIES
  0
ARC
  8
0
 10
 4.00000000000000E+0001
 20
 4.00000000000000E+0001
 40
 4.00000000000000E+0001
 50
 1.80000000000000E+0002
 51
 2.70000000000000E+0002
  0
LINE
  8
0
 10
 0.00000000000000E+0000
 20
 4.00000000000000E+0001
 11
 0.00000000000000E+0000
 21
 8.60000000000000E+0002
  0
ARC
  8
0
 10
 4.00000000000000E+0001
 20
 8.60000000000000E+0002
 40
 4.00000000000000E+0001
 50
 9.00000000000000E+0001
 51
 1.80000000000000E+0002
  0
LINE
  8
0
 10
 4.00000000000000E+0001
 20
 9.00000000000000E+0002
 11
 5.60000000000000E+0002
 21
 9.00000000000000E+0002
  0
ARC
  8
0
 10
 5.60000000000000E+0002
 20
 8.60000000000000E+0002
 40
 4.00000000000000E+0001
 50
 0.00000000000000E+0000
 51
 9.00000000000000E+0001
  0
LINE
  8
0
 10
 6.00000000000000E+0002
 20
 8.60000000000000E+0002
 11
 6.00000000000000E+0002
 21
 4.00000000000000E+0001
  0
ARC
  8
0
 10
 5.60000000000000E+0002
 20
 4.00000000000000E+0001
 40
 4.00000000000000E+0001
 50
 2.70000000000000E+0002
 51
 3.60000000000000E+0002
  0
LINE
  8
0
 10
 5.60000000000000E+0002
 20
 0.00000000000000E+0000
 11
 4.00000000000000E+0001
 21
 0.00000000000000E+0000
  0
ARC
  8
0
 10
 4.00000000000000E+0001
 20
 4.00000000000000E+0001
 40
 2.50000000000000E+0001
 50
 1.80000000000000E+0002
 51
 2.70000000000000E+0002
  0
LINE
  8
0
 10
 1.50000000000000E+0001
 20
 4.00000000000000E+0001
 11
 1.50000000000000E+0001
 21
 8.60000000000000E+0002
  0
ARC
  8
0
 10
 4.00000000000000E+0001
 20
 8.60000000000000E+0002
 40
 2.50000000000000E+0001
 50
 9.00000000000000E+0001
 51
 1.80000000000000E+0002
  0
LINE
  8
0
 10
 4.00000000000000E+0001
 20
 8.85000000000000E+0002
 11
 5.60000000000000E+0002
 21
 8.85000000000000E+0002
  0
ARC
  8
0
 10
 5.60000000000000E+0002
 20
 8.60000000000000E+0002
 40
 2.50000000000000E+0001
 50
 0.00000000000000E+0000
 51
 9.00000000000000E+0001
  0
LINE
  8
0
 10
 5.85000000000000E+0002
 20
 8.60000000000000E+0002
 11
 5.85000000000000E+0002
 21
 4.00000000000000E+0001
  0
ARC
  8
0
 10
 5.60000000000000E+0002
 20
 4.00000000000000E+0001
 40
 2.50000000000000E+0001
 50
 2.70000000000000E+0002
 51
 3.60000000000000E+0002
  0
LINE
  8
0
 10
 5.60000000000000E+0002
 20
 1.50000000000000E+0001
 11
 4.00000000000000E+0001
 21
 1.50000000000000E+0001
  0
LINE
  8
0
 10
 9.18750000000000E+0001
 20
 7.50000000000000E+0002
 11
 1.18437500000000E+0002
 21
 7.50000000000000E+0002
  0
LINE
  8
0
 10
 1.18437500000000E+0002
 20
 7.50000000000000E+0002
 11
 1.18437500000000E+0002
 21
 6.35937500000000E+0002
  0
ARC
  8
0
 10
 1.54375000000000E+0002
 20
 6.35937500000000E+0002
 40
 3.59375000000000E+0001
 50
 1.80000000000000E+0002
 51
 3.60000000000000E+0002
  0
LINE
  8
0
 10
 1.90312500000000E+0002
 20
 6.35937500000000E+0002
 11
 1.90312500000000E+0002
 21
 7.50000000000000E+0002
  0
LINE
  8
0
 10
 1.90312500000000E+0002
 20
 7.50000000000000E+0002
 11
 2.16875000000000E+0002
 21
 7.50000000000000E+0002
  0
LINE
  8
0
 10
 2.16875000000000E+0002
 20
 7.50000000000000E+0002
 11
 2.16875000000000E+0002
 21
 6.35937500000000E+0002
  0
ARC
  8
0
 10
 1.54375000000000E+0002
 20
 6.35937500000000E+0002
 40
 6.25000000000000E+0001
 50
 1.80000000000000E+0002
 51
 3.60000000000000E+0002
  0
LINE
  8
0
 10
 9.18750000000000E+0001
 20
 6.35937500000000E+0002
 11
 9.18750000000000E+0001
 21
 7.50000000000000E+0002
  0
LINE
  8
0
 10
 2.76875000000000E+0002
 20
 5.75000000000000E+0002
 11
 2.76875000000000E+0002
 21
 5.98437500000000E+0002
  0
LINE
  8
0
 10
 2.76875000000000E+0002
 20
 5.98437500000000E+0002
 11
 3.46449435666489E+0002
 21
 6.86011247049241E+0002
  0
ARC
  8
0
 10
 3.26875000000000E+0002
 20
 7.01562500000000E+0002
 40
 2.50000000000000E+0001
 50
 3.21534000000000E+0002
 51
 5.40000000000000E+0002
  0
LINE
  8
0
 10
 3.01875000000000E+0002
 20
 7.01562500000000E+0002
 11
 2.76875000000000E+0002
 21
 7.01562500000000E+0002
  0
ARC
  8
0
 10
 3.26875000000000E+0002
 20
 7.01562500000000E+0002
 40
 5.00000000000000E+0001
 50
 3.21355700000000E+0002
 51
 5.40000000000000E+0002
  0
LINE
  8
0
 10
 3.65926893355239E+0002
 20
 6.70338316658061E+0002
 11
 3.09687500000000E+0002
 21
 6.00000000000000E+0002
  0
LINE
  8
0
 10
 3.09687500000000E+0002
 20
 6.00000000000000E+0002
 11
 3.76875000000000E+0002
 21
 6.00000000000000E+0002
  0
LINE
  8
0
 10
 3.76875000000000E+0002
 20
 6.00000000000000E+0002
 11
 3.76875000000000E+0002
 21
 5.75000000000000E+0002
  0
LINE
  8
0
 10
 3.76875000000000E+0002
 20
 5.75000000000000E+0002
 11
 2.76875000000000E+0002
 21
 5.75000000000000E+0002
  0
LINE
  8
0
 10
 4.08125000000023E+0002
 20
 5.75000000000000E+0002
 11
 4.08125000000023E+0002
 21
 5.98437500000000E+0002
  0
LINE
  8
0
 10
 4.08125000000023E+0002
 20
 5.98437500000000E+0002
 11
 4.77699435666511E+0002
 21
 6.86011247049241E+0002
  0
ARC
  8
0
 10
 4.58125000000023E+0002
 20
 7.01562500000000E+0002
 40
 2.50000000000000E+0001
 50
 3.21534000000000E+0002
 51
 5.40000000000000E+0002
  0
LINE
  8
0
 10
 4.33125000000023E+0002
 20
 7.01562500000000E+0002
 11
 4.08125000000023E+0002
 21
 7.01562500000000E+0002
  0
ARC
  8
0
 10
 4.58125000000023E+0002
 20
 7.01562500000000E+0002
 40
 5.00000000000000E+0001
 50
 3.21355700000000E+0002
 51
 5.40000000000000E+0002
  0
LINE
  8
0
 10
 4.97176893355262E+0002
 20
 6.70338316658061E+0002
 11
 4.40937500000023E+0002
 21
 6.00000000000000E+0002
  0
LINE
  8
0
 10
 4.40937500000023E+0002
 20
 6.00000000000000E+0002
 11
 5.08125000000023E+0002
 21
 6.00000000000000E+0002
  0
LINE
  8
0
 10
 5.08125000000023E+0002
 20
 6.00000000000000E+0002
 11
 5.08125000000023E+0002
 21
 5.75000000000000E+0002
  0
LINE
  8
0
 10
 5.08125000000023E+0002
 20
 5.75000000000000E+0002
 11
 4.08125000000023E+0002
 21
 5.75000000000000E+0002
  0
LINE
  8
0
 10
 2.99221500000000E+0002
 20
 2.01058600000000E+0002
 11
 2.71030737921409E+0002
 21
 1.90797985667433E+0002
  0
ARC
  8
0
 10
 3.65000000000000E+0002
 20
 2.25000000000000E+0002
 40
 1.00000000000000E+0002
 50
 1.88625000000000E+0002
 51
 2.00000000000000E+0002
  0
LINE
  8
0
 10
 2.66130896017583E+0002
 20
 2.10003324444595E+0002
 11
 1.87500000000000E+0002
 21
 2.10000000000000E+0002
  0
LINE
  8
0
 10
 1.87500000000000E+0002
 20
 2.10000000000000E+0002
 11
 2.40000000000000E+0002
 21
 1.57500000000000E+0002
  0
LINE
  8
0
 10
 2.40000000000000E+0002
 20
 1.57500000000000E+0002
 11
 2.02500000000000E+0002
 21
 1.57500000000000E+0002
  0
LINE
  8
0
 10
 2.02500000000000E+0002
 20
 1.57500000000000E+0002
 11
 1.35000000000000E+0002
 21
 2.25000000000000E+0002
  0
LINE
  8
0
 10
 1.35000000000000E+0002
 20
 2.25000000000000E+0002
 11
 2.02500000000000E+0002
 21
 2.92500000000000E+0002
  0
LINE
  8
0
 10
 2.02500000000000E+0002
 20
 2.92500000000000E+0002
 11
 2.40000000000000E+0002
 21
 2.92500000000000E+0002
  0
LINE
  8
0
 10
 2.40000000000000E+0002
 20
 2.92500000000000E+0002
 11
 1.87500000000000E+0002
 21
 2.40000000000000E+0002
  0
LINE
  8
0
 10
 1.87500000000000E+0002
 20
 2.40000000000000E+0002
 11
 2.66112647913827E+0002
 21
 2.39875872995737E+0002
  0
ARC
  8
0
 10
 3.65000000000000E+0002
 20
 2.25000000000000E+0002
 40
 1.00000000000000E+0002
 50
 2.78495000000000E+0002
 51
 5.31445000000000E+0002
  0
LINE
  8
0
 10
 3.79772310265105E+0002
 20
 1.26097124159954E+0002
 11
 3.80000000000000E+0002
 21
 6.50000000000000E+0001
  0
LINE
  8
0
 10
 3.80000000000000E+0002
 20
 6.50000000000000E+0001
 11
 3.50000000000000E+0002
 21
 6.50000000000000E+0001
  0
LINE
  8
0
 10
 3.50000000000000E+0002
 20
 6.50000000000000E+0001
 11
 3.49998359285446E+0002
 21
 1.56626388307539E+0002
  0
ARC
  8
0
 10
 3.65000000000000E+0002
 20
 2.25000000000000E+0002
 40
 7.00000000000000E+0001
 50
 2.57625000000000E+0002
 51
 5.60000000000000E+0002
  0
ENDSEC
  0
EOF
