  0
SECTION
  2
HEADER
  9
$ACADVER
  1
AC1003
  9
$INSBASE
 10
0.0
 20
0.0
  9
$EXTMIN
 10
 0.00000000000000E+0000
 20
 0.00000000000000E+0000
  9
$EXTMAX
 10
 6.00000000000000E+0002
 20
 6.00000000000000E+0002
  9
$LIMMIN
 10
0.0
 20
0.0
  9
$LIMMAX
 10
410.0
 20
287.0
  9
$VIEWCTR
 10
227.0059616
 20
165.058879 
  9
$VIEWSIZE
 40
 6.00000000000000E+0002
9
$SNAPMODE
70
0
9
$SNAPUNIT
10
1
20
1
9
$GRIDMODE
70
0
9
$GRIDUNIT
10
1
20
1
9
$ORTHOMODE
70
0
9
$rEGENMODE
70
1
9
$FILLMODE
70
1
9
$DRAGMODE
70
2
9
$LTSCALE
40
25.0
9
$OSMODE
70
0
9
$ATTMODE
70
1
9
$TRACEWID
40
1.0
9
$TEXTSTYLE
7
STANDARD
9
$CLAYER
8
0
9
$CELTYPE
6
VONLAYER
9
$CECOLOR
62
256
9
$LUNITS
70
2
9
$LUPREC
70
2
9
$AXISMODE
70
0
9
$AXISUNIT
10
0
20
0
9
$SKETCHINC
40
1.0
9
$FILLETRAD
40
0.0
9
$AUNITS
70
0
9
$AUPREC
70
0
9
$MENU
1
ACAD
9
$ELEVATION
40
0.0
9
$THICKNESS
40
0.0
9
$VIEWDIR
10
0.0
20
0.0
30
1.0
9
$LIMCHECK
70
0
9
$BLIPMODE
70
1
9
$CHAMFERA
40
0.0
9
$CHAMFERB
40
0.0
9
$USRTIMER
70
1
9
$ANGBASE
50
0.0
9
$ANGDIR
70
0
9
$PDMODE
70
0
9
$PDSIZE
40
0.0
9
$PLINEWID
40
0.0
9
$COORDS
70
0
0
ENDSEC
0
SECTION
2
TABLES
0
TABLE
2
LTYPE
70
1
0
LTYPE
2
AUSGEZOGEN
70
64
3
Ausgezogene Linie
72
65
73
0
40
0.0
0
ENDTAB
0
TABLE
2
LAYER
70
1
0
LAYER
2
0
70
0
62
7
6
AUSGEZOGEN
0
ENDTAB
0
TABLE
2
STYLE
70
1
0
STYLE
2
STANDARD
70
0
40
0.0
41
1.0
50
0.0
71
0
42
3.5
3
txt
4

0
ENDTAB
0
TABLE
2
VIEW
70
0
0
ENDTAB
0
ENDSEC
0
SECTION
2
BLOCKS
0
ENDSEC
0
SECTION
2
ENTITIES
  0
ARC
  8
0
 10
 4.00000000000000E+0001
 20
 4.00000000000000E+0001
 40
 4.00000000000000E+0001
 50
 1.80000000000000E+0002
 51
 2.70000000000000E+0002
  0
LINE
  8
0
 10
 0.00000000000000E+0000
 20
 4.00000000000000E+0001
 11
 0.00000000000000E+0000
 21
 5.60000000000000E+0002
  0
ARC
  8
0
 10
 4.00000000000000E+0001
 20
 5.60000000000000E+0002
 40
 4.00000000000000E+0001
 50
 9.00000000000000E+0001
 51
 1.80000000000000E+0002
  0
LINE
  8
0
 10
 4.00000000000000E+0001
 20
 6.00000000000000E+0002
 11
 5.60000000000000E+0002
 21
 6.00000000000000E+0002
  0
ARC
  8
0
 10
 5.60000000000000E+0002
 20
 5.60000000000000E+0002
 40
 4.00000000000000E+0001
 50
 0.00000000000000E+0000
 51
 9.00000000000000E+0001
  0
LINE
  8
0
 10
 6.00000000000000E+0002
 20
 5.60000000000000E+0002
 11
 6.00000000000000E+0002
 21
 4.00000000000000E+0001
  0
ARC
  8
0
 10
 5.60000000000000E+0002
 20
 4.00000000000000E+0001
 40
 4.00000000000000E+0001
 50
 2.70000000000000E+0002
 51
 3.60000000000000E+0002
  0
LINE
  8
0
 10
 5.60000000000000E+0002
 20
 0.00000000000000E+0000
 11
 4.00000000000000E+0001
 21
 0.00000000000000E+0000
  0
ARC
  8
0
 10
 4.00000000000000E+0001
 20
 4.00000000000000E+0001
 40
 3.00000000000000E+0001
 50
 1.80000000000000E+0002
 51
 2.70000000000000E+0002
  0
LINE
  8
0
 10
 1.00000000000000E+0001
 20
 4.00000000000000E+0001
 11
 1.00000000000000E+0001
 21
 5.60000000000000E+0002
  0
ARC
  8
0
 10
 4.00000000000000E+0001
 20
 5.60000000000000E+0002
 40
 3.00000000000000E+0001
 50
 9.00000000000000E+0001
 51
 1.80000000000000E+0002
  0
LINE
  8
0
 10
 4.00000000000000E+0001
 20
 5.90000000000000E+0002
 11
 5.60000000000000E+0002
 21
 5.90000000000000E+0002
  0
ARC
  8
0
 10
 5.60000000000000E+0002
 20
 5.60000000000000E+0002
 40
 3.00000000000000E+0001
 50
 0.00000000000000E+0000
 51
 9.00000000000000E+0001
  0
LINE
  8
0
 10
 5.90000000000000E+0002
 20
 5.60000000000000E+0002
 11
 5.90000000000000E+0002
 21
 4.00000000000000E+0001
  0
ARC
  8
0
 10
 5.60000000000000E+0002
 20
 4.00000000000000E+0001
 40
 3.00000000000000E+0001
 50
 2.70000000000000E+0002
 51
 3.60000000000000E+0002
  0
LINE
  8
0
 10
 5.60000000000000E+0002
 20
 1.00000000000000E+0001
 11
 4.00000000000000E+0001
 21
 1.00000000000000E+0001
  0
ARC
  8
0
 10
 4.00000000000000E+0001
 20
 4.00000000000000E+0001
 40
 1.50000000000000E+0001
 50
 1.80000000000000E+0002
 51
 2.70000000000000E+0002
  0
LINE
  8
0
 10
 2.50000000000000E+0001
 20
 4.00000000000000E+0001
 11
 2.50000000000000E+0001
 21
 5.60000000000000E+0002
  0
ARC
  8
0
 10
 4.00000000000000E+0001
 20
 5.60000000000000E+0002
 40
 1.50000000000000E+0001
 50
 9.00000000000000E+0001
 51
 1.80000000000000E+0002
  0
LINE
  8
0
 10
 4.00000000000000E+0001
 20
 5.75000000000000E+0002
 11
 5.60000000000000E+0002
 21
 5.75000000000000E+0002
  0
ARC
  8
0
 10
 5.60000000000000E+0002
 20
 5.60000000000000E+0002
 40
 1.50000000000000E+0001
 50
 0.00000000000000E+0000
 51
 9.00000000000000E+0001
  0
LINE
  8
0
 10
 5.75000000000000E+0002
 20
 5.60000000000000E+0002
 11
 5.75000000000000E+0002
 21
 4.00000000000000E+0001
  0
ARC
  8
0
 10
 5.60000000000000E+0002
 20
 4.00000000000000E+0001
 40
 1.50000000000000E+0001
 50
 2.70000000000000E+0002
 51
 3.60000000000000E+0002
  0
LINE
  8
0
 10
 5.60000000000000E+0002
 20
 2.50000000000000E+0001
 11
 4.00000000000000E+0001
 21
 2.50000000000000E+0001
  0
CIRCLE
  8
0
 10
 2.13400000000000E+0002
 20
 3.68000000000000E+0002
 40
 4.67500000000000E+0001
  0
CIRCLE
  8
0
 10
 2.13400000000000E+0002
 20
 3.68000000000000E+0002
 40
 3.02500000000000E+0001
  0
CIRCLE
  8
0
 10
 4.03100000000000E+0002
 20
 3.68000000000000E+0002
 40
 4.67500000000000E+0001
  0
CIRCLE
  8
0
 10
 4.03100000000000E+0002
 20
 3.68000000000000E+0002
 40
 3.02500000000000E+0001
  0
LINE
  8
0
 10
 3.54702800000000E+0002
 20
 3.51496900000000E+0002
 11
 3.54684647258137E+0002
 21
 3.51499208537740E+0002
  0
ARC
  8
0
 10
 4.03100000000000E+0002
 20
 3.68000000000000E+0002
 40
 5.11500000000000E+0001
 50
 9.00000000000000E+0001
 51
 1.98820000000000E+0002
  0
LINE
  8
0
 10
 4.03100000000000E+0002
 20
 4.19150000000000E+0002
 11
 4.19610000000000E+0002
 21
 4.19138800000000E+0002
  0
LINE
  8
0
 10
 4.19610000000000E+0002
 20
 4.19138800000000E+0002
 11
 4.19700985687500E+0002
 21
 4.19139978087900E+0002
  0
LINE
  8
0
 10
 4.19700985687500E+0002
 20
 4.19139978087900E+0002
 11
 4.19791613220000E+0002
 21
 4.19143500303200E+0002
  0
LINE
  8
0
 10
 4.19791613220000E+0002
 20
 4.19143500303200E+0002
 11
 4.19881871302500E+0002
 21
 4.19149348573300E+0002
  0
LINE
  8
0
 10
 4.19881871302500E+0002
 20
 4.19149348573300E+0002
 11
 4.19971748640000E+0002
 21
 4.19157504825600E+0002
  0
LINE
  8
0
 10
 4.19971748640000E+0002
 20
 4.19157504825600E+0002
 11
 4.20061233937500E+0002
 21
 4.19167950987500E+0002
  0
LINE
  8
0
 10
 4.20061233937500E+0002
 20
 4.19167950987500E+0002
 11
 4.20150315900000E+0002
 21
 4.19180668986400E+0002
  0
LINE
  8
0
 10
 4.20150315900000E+0002
 20
 4.19180668986400E+0002
 11
 4.20238983232500E+0002
 21
 4.19195640749700E+0002
  0
LINE
  8
0
 10
 4.20238983232500E+0002
 20
 4.19195640749700E+0002
 11
 4.20327224640000E+0002
 21
 4.19212848204800E+0002
  0
LINE
  8
0
 10
 4.20327224640000E+0002
 20
 4.19212848204800E+0002
 11
 4.20415028827500E+0002
 21
 4.19232273279100E+0002
  0
LINE
  8
0
 10
 4.20415028827500E+0002
 20
 4.19232273279100E+0002
 11
 4.20502384500000E+0002
 21
 4.19253897900000E+0002
  0
LINE
  8
0
 10
 4.20502384500000E+0002
 20
 4.19253897900000E+0002
 11
 4.20589280362500E+0002
 21
 4.19277703994900E+0002
  0
LINE
  8
0
 10
 4.20589280362500E+0002
 20
 4.19277703994900E+0002
 11
 4.20675705120000E+0002
 21
 4.19303673491200E+0002
  0
LINE
  8
0
 10
 4.20675705120000E+0002
 20
 4.19303673491200E+0002
 11
 4.20761647477500E+0002
 21
 4.19331788316300E+0002
  0
LINE
  8
0
 10
 4.20761647477500E+0002
 20
 4.19331788316300E+0002
 11
 4.20847096140000E+0002
 21
 4.19362030397600E+0002
  0
LINE
  8
0
 10
 4.20847096140000E+0002
 20
 4.19362030397600E+0002
 11
 4.20932039812500E+0002
 21
 4.19394381662500E+0002
  0
LINE
  8
0
 10
 4.20932039812500E+0002
 20
 4.19394381662500E+0002
 11
 4.21016467200000E+0002
 21
 4.19428824038400E+0002
  0
LINE
  8
0
 10
 4.21016467200000E+0002
 20
 4.19428824038400E+0002
 11
 4.21100367007500E+0002
 21
 4.19465339452700E+0002
  0
LINE
  8
0
 10
 4.21100367007500E+0002
 20
 4.19465339452700E+0002
 11
 4.21183727940000E+0002
 21
 4.19503909832800E+0002
  0
LINE
  8
0
 10
 4.21183727940000E+0002
 20
 4.19503909832800E+0002
 11
 4.21266538702500E+0002
 21
 4.19544517106100E+0002
  0
LINE
  8
0
 10
 4.21266538702500E+0002
 20
 4.19544517106100E+0002
 11
 4.21348788000000E+0002
 21
 4.19587143200000E+0002
  0
LINE
  8
0
 10
 4.21348788000000E+0002
 20
 4.19587143200000E+0002
 11
 4.21430464537500E+0002
 21
 4.19631770041900E+0002
  0
LINE
  8
0
 10
 4.21430464537500E+0002
 20
 4.19631770041900E+0002
 11
 4.21511557020000E+0002
 21
 4.19678379559200E+0002
  0
LINE
  8
0
 10
 4.21511557020000E+0002
 20
 4.19678379559200E+0002
 11
 4.21592054152500E+0002
 21
 4.19726953679300E+0002
  0
LINE
  8
0
 10
 4.21592054152500E+0002
 20
 4.19726953679300E+0002
 11
 4.21671944640000E+0002
 21
 4.19777474329600E+0002
  0
LINE
  8
0
 10
 4.21671944640000E+0002
 20
 4.19777474329600E+0002
 11
 4.21751217187500E+0002
 21
 4.19829923437500E+0002
  0
LINE
  8
0
 10
 4.21751217187500E+0002
 20
 4.19829923437500E+0002
 11
 4.21829860500000E+0002
 21
 4.19884282930400E+0002
  0
LINE
  8
0
 10
 4.21829860500000E+0002
 20
 4.19884282930400E+0002
 11
 4.21907863282500E+0002
 21
 4.19940534735700E+0002
  0
LINE
  8
0
 10
 4.21907863282500E+0002
 20
 4.19940534735700E+0002
 11
 4.21985214240000E+0002
 21
 4.19998660780800E+0002
  0
LINE
  8
0
 10
 4.21985214240000E+0002
 20
 4.19998660780800E+0002
 11
 4.22061902077500E+0002
 21
 4.20058642993100E+0002
  0
LINE
  8
0
 10
 4.22061902077500E+0002
 20
 4.20058642993100E+0002
 11
 4.22137915500000E+0002
 21
 4.20120463300000E+0002
  0
LINE
  8
0
 10
 4.22137915500000E+0002
 20
 4.20120463300000E+0002
 11
 4.22213243212500E+0002
 21
 4.20184103628900E+0002
  0
LINE
  8
0
 10
 4.22213243212500E+0002
 20
 4.20184103628900E+0002
 11
 4.22287873920000E+0002
 21
 4.20249545907200E+0002
  0
LINE
  8
0
 10
 4.22287873920000E+0002
 20
 4.20249545907200E+0002
 11
 4.22361796327500E+0002
 21
 4.20316772062300E+0002
  0
LINE
  8
0
 10
 4.22361796327500E+0002
 20
 4.20316772062300E+0002
 11
 4.22434999140000E+0002
 21
 4.20385764021600E+0002
  0
LINE
  8
0
 10
 4.22434999140000E+0002
 20
 4.20385764021600E+0002
 11
 4.22507471062500E+0002
 21
 4.20456503712500E+0002
  0
LINE
  8
0
 10
 4.22507471062500E+0002
 20
 4.20456503712500E+0002
 11
 4.22579200800000E+0002
 21
 4.20528973062400E+0002
  0
LINE
  8
0
 10
 4.22579200800000E+0002
 20
 4.20528973062400E+0002
 11
 4.22650177057500E+0002
 21
 4.20603153998700E+0002
  0
LINE
  8
0
 10
 4.22650177057500E+0002
 20
 4.20603153998700E+0002
 11
 4.22720388540000E+0002
 21
 4.20679028448800E+0002
  0
LINE
  8
0
 10
 4.22720388540000E+0002
 20
 4.20679028448800E+0002
 11
 4.22789823952500E+0002
 21
 4.20756578340100E+0002
  0
LINE
  8
0
 10
 4.22789823952500E+0002
 20
 4.20756578340100E+0002
 11
 4.22858472000000E+0002
 21
 4.20835785600000E+0002
  0
LINE
  8
0
 10
 4.22858472000000E+0002
 20
 4.20835785600000E+0002
 11
 4.22926321387500E+0002
 21
 4.20916632155900E+0002
  0
LINE
  8
0
 10
 4.22926321387500E+0002
 20
 4.20916632155900E+0002
 11
 4.22993360820000E+0002
 21
 4.20999099935200E+0002
  0
LINE
  8
0
 10
 4.22993360820000E+0002
 20
 4.20999099935200E+0002
 11
 4.23059579002500E+0002
 21
 4.21083170865300E+0002
  0
LINE
  8
0
 10
 4.23059579002500E+0002
 20
 4.21083170865300E+0002
 11
 4.23124964640000E+0002
 21
 4.21168826873600E+0002
  0
LINE
  8
0
 10
 4.23124964640000E+0002
 20
 4.21168826873600E+0002
 11
 4.23189506437500E+0002
 21
 4.21256049887500E+0002
  0
LINE
  8
0
 10
 4.23189506437500E+0002
 20
 4.21256049887500E+0002
 11
 4.23253193100000E+0002
 21
 4.21344821834400E+0002
  0
LINE
  8
0
 10
 4.23253193100000E+0002
 20
 4.21344821834400E+0002
 11
 4.23316013332500E+0002
 21
 4.21435124641700E+0002
  0
LINE
  8
0
 10
 4.23316013332500E+0002
 20
 4.21435124641700E+0002
 11
 4.23377955840000E+0002
 21
 4.21526940236800E+0002
  0
LINE
  8
0
 10
 4.23377955840000E+0002
 20
 4.21526940236800E+0002
 11
 4.23439009327500E+0002
 21
 4.21620250547100E+0002
  0
LINE
  8
0
 10
 4.23439009327500E+0002
 20
 4.21620250547100E+0002
 11
 4.23499162500000E+0002
 21
 4.21715037500000E+0002
  0
LINE
  8
0
 10
 4.23499162500000E+0002
 20
 4.21715037500000E+0002
 11
 4.23558404062500E+0002
 21
 4.21811283022900E+0002
  0
LINE
  8
0
 10
 4.23558404062500E+0002
 20
 4.21811283022900E+0002
 11
 4.23616722720000E+0002
 21
 4.21908969043200E+0002
  0
LINE
  8
0
 10
 4.23616722720000E+0002
 20
 4.21908969043200E+0002
 11
 4.23674107177500E+0002
 21
 4.22008077488300E+0002
  0
LINE
  8
0
 10
 4.23674107177500E+0002
 20
 4.22008077488300E+0002
 11
 4.23730546140000E+0002
 21
 4.22108590285600E+0002
  0
LINE
  8
0
 10
 4.23730546140000E+0002
 20
 4.22108590285600E+0002
 11
 4.23786028312500E+0002
 21
 4.22210489362500E+0002
  0
LINE
  8
0
 10
 4.23786028312500E+0002
 20
 4.22210489362500E+0002
 11
 4.23840542400000E+0002
 21
 4.22313756646400E+0002
  0
LINE
  8
0
 10
 4.23840542400000E+0002
 20
 4.22313756646400E+0002
 11
 4.23894077107500E+0002
 21
 4.22418374064700E+0002
  0
LINE
  8
0
 10
 4.23894077107500E+0002
 20
 4.22418374064700E+0002
 11
 4.23946621140000E+0002
 21
 4.22524323544800E+0002
  0
LINE
  8
0
 10
 4.23946621140000E+0002
 20
 4.22524323544800E+0002
 11
 4.23998163202500E+0002
 21
 4.22631587014100E+0002
  0
LINE
  8
0
 10
 4.23998163202500E+0002
 20
 4.22631587014100E+0002
 11
 4.24048692000000E+0002
 21
 4.22740146400000E+0002
  0
LINE
  8
0
 10
 4.24048692000000E+0002
 20
 4.22740146400000E+0002
 11
 4.24098196237500E+0002
 21
 4.22849983629900E+0002
  0
LINE
  8
0
 10
 4.24098196237500E+0002
 20
 4.22849983629900E+0002
 11
 4.24146664620000E+0002
 21
 4.22961080631200E+0002
  0
LINE
  8
0
 10
 4.24146664620000E+0002
 20
 4.22961080631200E+0002
 11
 4.24194085852500E+0002
 21
 4.23073419331300E+0002
  0
LINE
  8
0
 10
 4.24194085852500E+0002
 20
 4.23073419331300E+0002
 11
 4.24240448640000E+0002
 21
 4.23186981657600E+0002
  0
LINE
  8
0
 10
 4.24240448640000E+0002
 20
 4.23186981657600E+0002
 11
 4.24285741687500E+0002
 21
 4.23301749537500E+0002
  0
LINE
  8
0
 10
 4.24285741687500E+0002
 20
 4.23301749537500E+0002
 11
 4.24329953700000E+0002
 21
 4.23417704898400E+0002
  0
LINE
  8
0
 10
 4.24329953700000E+0002
 20
 4.23417704898400E+0002
 11
 4.24373073382500E+0002
 21
 4.23534829667700E+0002
  0
LINE
  8
0
 10
 4.24373073382500E+0002
 20
 4.23534829667700E+0002
 11
 4.24415089440000E+0002
 21
 4.23653105772800E+0002
  0
LINE
  8
0
 10
 4.24415089440000E+0002
 20
 4.23653105772800E+0002
 11
 4.24455990577500E+0002
 21
 4.23772515141100E+0002
  0
LINE
  8
0
 10
 4.24455990577500E+0002
 20
 4.23772515141100E+0002
 11
 4.24495765500000E+0002
 21
 4.23893039700000E+0002
  0
LINE
  8
0
 10
 4.24495765500000E+0002
 20
 4.23893039700000E+0002
 11
 4.24534402912500E+0002
 21
 4.24014661376900E+0002
  0
LINE
  8
0
 10
 4.24534402912500E+0002
 20
 4.24014661376900E+0002
 11
 4.24571891520000E+0002
 21
 4.24137362099200E+0002
  0
LINE
  8
0
 10
 4.24571891520000E+0002
 20
 4.24137362099200E+0002
 11
 4.24608220027500E+0002
 21
 4.24261123794300E+0002
  0
LINE
  8
0
 10
 4.24608220027500E+0002
 20
 4.24261123794300E+0002
 11
 4.24643377140000E+0002
 21
 4.24385928389600E+0002
  0
LINE
  8
0
 10
 4.24643377140000E+0002
 20
 4.24385928389600E+0002
 11
 4.24677351562500E+0002
 21
 4.24511757812500E+0002
  0
LINE
  8
0
 10
 4.24677351562500E+0002
 20
 4.24511757812500E+0002
 11
 4.24710132000000E+0002
 21
 4.24638593990400E+0002
  0
LINE
  8
0
 10
 4.24710132000000E+0002
 20
 4.24638593990400E+0002
 11
 4.24741707157500E+0002
 21
 4.24766418850700E+0002
  0
LINE
  8
0
 10
 4.24741707157500E+0002
 20
 4.24766418850700E+0002
 11
 4.24772065740000E+0002
 21
 4.24895214320800E+0002
  0
LINE
  8
0
 10
 4.24772065740000E+0002
 20
 4.24895214320800E+0002
 11
 4.24801196452500E+0002
 21
 4.25024962328100E+0002
  0
LINE
  8
0
 10
 4.24801196452500E+0002
 20
 4.25024962328100E+0002
 11
 4.24829088000000E+0002
 21
 4.25155644800000E+0002
  0
LINE
  8
0
 10
 4.24829088000000E+0002
 20
 4.25155644800000E+0002
 11
 4.24855729087500E+0002
 21
 4.25287243663900E+0002
  0
LINE
  8
0
 10
 4.24855729087500E+0002
 20
 4.25287243663900E+0002
 11
 4.24881108420000E+0002
 21
 4.25419740847200E+0002
  0
LINE
  8
0
 10
 4.24881108420000E+0002
 20
 4.25419740847200E+0002
 11
 4.24905214702500E+0002
 21
 4.25553118277300E+0002
  0
LINE
  8
0
 10
 4.24905214702500E+0002
 20
 4.25553118277300E+0002
 11
 4.24928036640000E+0002
 21
 4.25687357881600E+0002
  0
LINE
  8
0
 10
 4.24928036640000E+0002
 20
 4.25687357881600E+0002
 11
 4.24949562937500E+0002
 21
 4.25822441587500E+0002
  0
LINE
  8
0
 10
 4.24949562937500E+0002
 20
 4.25822441587500E+0002
 11
 4.24969782300000E+0002
 21
 4.25958351322400E+0002
  0
LINE
  8
0
 10
 4.24969782300000E+0002
 20
 4.25958351322400E+0002
 11
 4.24988683432500E+0002
 21
 4.26095069013700E+0002
  0
LINE
  8
0
 10
 4.24988683432500E+0002
 20
 4.26095069013700E+0002
 11
 4.25006255040000E+0002
 21
 4.26232576588800E+0002
  0
LINE
  8
0
 10
 4.25006255040000E+0002
 20
 4.26232576588800E+0002
 11
 4.25022485827500E+0002
 21
 4.26370855975100E+0002
  0
LINE
  8
0
 10
 4.25022485827500E+0002
 20
 4.26370855975100E+0002
 11
 4.25037364500000E+0002
 21
 4.26509889100000E+0002
  0
LINE
  8
0
 10
 4.25037364500000E+0002
 20
 4.26509889100000E+0002
 11
 4.25050879762500E+0002
 21
 4.26649657890900E+0002
  0
LINE
  8
0
 10
 4.25050879762500E+0002
 20
 4.26649657890900E+0002
 11
 4.25063020320000E+0002
 21
 4.26790144275200E+0002
  0
LINE
  8
0
 10
 4.25063020320000E+0002
 20
 4.26790144275200E+0002
 11
 4.25073774877500E+0002
 21
 4.26931330180300E+0002
  0
LINE
  8
0
 10
 4.25073774877500E+0002
 20
 4.26931330180300E+0002
 11
 4.25083132140000E+0002
 21
 4.27073197533600E+0002
  0
LINE
  8
0
 10
 4.25083132140000E+0002
 20
 4.27073197533600E+0002
 11
 4.25091080812500E+0002
 21
 4.27215728262500E+0002
  0
LINE
  8
0
 10
 4.25091080812500E+0002
 20
 4.27215728262500E+0002
 11
 4.25097609600000E+0002
 21
 4.27358904294400E+0002
  0
LINE
  8
0
 10
 4.25097609600000E+0002
 20
 4.27358904294400E+0002
 11
 4.25102707207500E+0002
 21
 4.27502707556700E+0002
  0
LINE
  8
0
 10
 4.25102707207500E+0002
 20
 4.27502707556700E+0002
 11
 4.25106362340000E+0002
 21
 4.27647119976800E+0002
  0
LINE
  8
0
 10
 4.25106362340000E+0002
 20
 4.27647119976800E+0002
 11
 4.25108563702500E+0002
 21
 4.27792123482100E+0002
  0
LINE
  8
0
 10
 4.25108563702500E+0002
 20
 4.27792123482100E+0002
 11
 4.25109300000000E+0002
 21
 4.27937700000000E+0002
  0
LINE
  8
0
 10
 4.25109300000000E+0002
 20
 4.27937700000000E+0002
 11
 4.25109300000000E+0002
 21
 4.27937700000000E+0002
  0
LINE
  8
0
 10
 4.25109300000000E+0002
 20
 4.27937700000000E+0002
 11
 4.25108563702500E+0002
 21
 4.28083276517900E+0002
  0
LINE
  8
0
 10
 4.25108563702500E+0002
 20
 4.28083276517900E+0002
 11
 4.25106362340000E+0002
 21
 4.28228280023200E+0002
  0
LINE
  8
0
 10
 4.25106362340000E+0002
 20
 4.28228280023200E+0002
 11
 4.25102707207500E+0002
 21
 4.28372692443300E+0002
  0
LINE
  8
0
 10
 4.25102707207500E+0002
 20
 4.28372692443300E+0002
 11
 4.25097609600000E+0002
 21
 4.28516495705600E+0002
  0
LINE
  8
0
 10
 4.25097609600000E+0002
 20
 4.28516495705600E+0002
 11
 4.25091080812500E+0002
 21
 4.28659671737500E+0002
  0
LINE
  8
0
 10
 4.25091080812500E+0002
 20
 4.28659671737500E+0002
 11
 4.25083132140000E+0002
 21
 4.28802202466400E+0002
  0
LINE
  8
0
 10
 4.25083132140000E+0002
 20
 4.28802202466400E+0002
 11
 4.25073774877500E+0002
 21
 4.28944069819700E+0002
  0
LINE
  8
0
 10
 4.25073774877500E+0002
 20
 4.28944069819700E+0002
 11
 4.25063020320000E+0002
 21
 4.29085255724800E+0002
  0
LINE
  8
0
 10
 4.25063020320000E+0002
 20
 4.29085255724800E+0002
 11
 4.25050879762500E+0002
 21
 4.29225742109100E+0002
  0
LINE
  8
0
 10
 4.25050879762500E+0002
 20
 4.29225742109100E+0002
 11
 4.25037364500000E+0002
 21
 4.29365510900000E+0002
  0
LINE
  8
0
 10
 4.25037364500000E+0002
 20
 4.29365510900000E+0002
 11
 4.25022485827500E+0002
 21
 4.29504544024900E+0002
  0
LINE
  8
0
 10
 4.25022485827500E+0002
 20
 4.29504544024900E+0002
 11
 4.25006255040000E+0002
 21
 4.29642823411200E+0002
  0
LINE
  8
0
 10
 4.25006255040000E+0002
 20
 4.29642823411200E+0002
 11
 4.24988683432500E+0002
 21
 4.29780330986300E+0002
  0
LINE
  8
0
 10
 4.24988683432500E+0002
 20
 4.29780330986300E+0002
 11
 4.24969782300000E+0002
 21
 4.29917048677600E+0002
  0
LINE
  8
0
 10
 4.24969782300000E+0002
 20
 4.29917048677600E+0002
 11
 4.24949562937500E+0002
 21
 4.30052958412500E+0002
  0
LINE
  8
0
 10
 4.24949562937500E+0002
 20
 4.30052958412500E+0002
 11
 4.24928036640000E+0002
 21
 4.30188042118400E+0002
  0
LINE
  8
0
 10
 4.24928036640000E+0002
 20
 4.30188042118400E+0002
 11
 4.24905214702500E+0002
 21
 4.30322281722700E+0002
  0
LINE
  8
0
 10
 4.24905214702500E+0002
 20
 4.30322281722700E+0002
 11
 4.24881108420000E+0002
 21
 4.30455659152800E+0002
  0
LINE
  8
0
 10
 4.24881108420000E+0002
 20
 4.30455659152800E+0002
 11
 4.24855729087500E+0002
 21
 4.30588156336100E+0002
  0
LINE
  8
0
 10
 4.24855729087500E+0002
 20
 4.30588156336100E+0002
 11
 4.24829088000000E+0002
 21
 4.30719755200000E+0002
  0
LINE
  8
0
 10
 4.24829088000000E+0002
 20
 4.30719755200000E+0002
 11
 4.24801196452500E+0002
 21
 4.30850437671900E+0002
  0
LINE
  8
0
 10
 4.24801196452500E+0002
 20
 4.30850437671900E+0002
 11
 4.24772065740000E+0002
 21
 4.30980185679200E+0002
  0
LINE
  8
0
 10
 4.24772065740000E+0002
 20
 4.30980185679200E+0002
 11
 4.24741707157500E+0002
 21
 4.31108981149300E+0002
  0
LINE
  8
0
 10
 4.24741707157500E+0002
 20
 4.31108981149300E+0002
 11
 4.24710132000000E+0002
 21
 4.31236806009600E+0002
  0
LINE
  8
0
 10
 4.24710132000000E+0002
 20
 4.31236806009600E+0002
 11
 4.24677351562500E+0002
 21
 4.31363642187500E+0002
  0
LINE
  8
0
 10
 4.24677351562500E+0002
 20
 4.31363642187500E+0002
 11
 4.24643377140000E+0002
 21
 4.31489471610400E+0002
  0
LINE
  8
0
 10
 4.24643377140000E+0002
 20
 4.31489471610400E+0002
 11
 4.24608220027500E+0002
 21
 4.31614276205700E+0002
  0
LINE
  8
0
 10
 4.24608220027500E+0002
 20
 4.31614276205700E+0002
 11
 4.24571891520000E+0002
 21
 4.31738037900800E+0002
  0
LINE
  8
0
 10
 4.24571891520000E+0002
 20
 4.31738037900800E+0002
 11
 4.24534402912500E+0002
 21
 4.31860738623100E+0002
  0
LINE
  8
0
 10
 4.24534402912500E+0002
 20
 4.31860738623100E+0002
 11
 4.24495765500000E+0002
 21
 4.31982360300000E+0002
  0
LINE
  8
0
 10
 4.24495765500000E+0002
 20
 4.31982360300000E+0002
 11
 4.24455990577500E+0002
 21
 4.32102884858900E+0002
  0
LINE
  8
0
 10
 4.24455990577500E+0002
 20
 4.32102884858900E+0002
 11
 4.24415089440000E+0002
 21
 4.32222294227200E+0002
  0
LINE
  8
0
 10
 4.24415089440000E+0002
 20
 4.32222294227200E+0002
 11
 4.24373073382500E+0002
 21
 4.32340570332300E+0002
  0
LINE
  8
0
 10
 4.24373073382500E+0002
 20
 4.32340570332300E+0002
 11
 4.24329953700000E+0002
 21
 4.32457695101600E+0002
  0
LINE
  8
0
 10
 4.24329953700000E+0002
 20
 4.32457695101600E+0002
 11
 4.24285741687500E+0002
 21
 4.32573650462500E+0002
  0
LINE
  8
0
 10
 4.24285741687500E+0002
 20
 4.32573650462500E+0002
 11
 4.24240448640000E+0002
 21
 4.32688418342400E+0002
  0
LINE
  8
0
 10
 4.24240448640000E+0002
 20
 4.32688418342400E+0002
 11
 4.24194085852500E+0002
 21
 4.32801980668700E+0002
  0
LINE
  8
0
 10
 4.24194085852500E+0002
 20
 4.32801980668700E+0002
 11
 4.24146664620000E+0002
 21
 4.32914319368800E+0002
  0
LINE
  8
0
 10
 4.24146664620000E+0002
 20
 4.32914319368800E+0002
 11
 4.24098196237500E+0002
 21
 4.33025416370100E+0002
  0
LINE
  8
0
 10
 4.24098196237500E+0002
 20
 4.33025416370100E+0002
 11
 4.24048692000000E+0002
 21
 4.33135253600000E+0002
  0
LINE
  8
0
 10
 4.24048692000000E+0002
 20
 4.33135253600000E+0002
 11
 4.23998163202500E+0002
 21
 4.33243812985900E+0002
  0
LINE
  8
0
 10
 4.23998163202500E+0002
 20
 4.33243812985900E+0002
 11
 4.23946621140000E+0002
 21
 4.33351076455200E+0002
  0
LINE
  8
0
 10
 4.23946621140000E+0002
 20
 4.33351076455200E+0002
 11
 4.23894077107500E+0002
 21
 4.33457025935300E+0002
  0
LINE
  8
0
 10
 4.23894077107500E+0002
 20
 4.33457025935300E+0002
 11
 4.23840542400000E+0002
 21
 4.33561643353600E+0002
  0
LINE
  8
0
 10
 4.23840542400000E+0002
 20
 4.33561643353600E+0002
 11
 4.23786028312500E+0002
 21
 4.33664910637500E+0002
  0
LINE
  8
0
 10
 4.23786028312500E+0002
 20
 4.33664910637500E+0002
 11
 4.23730546140000E+0002
 21
 4.33766809714400E+0002
  0
LINE
  8
0
 10
 4.23730546140000E+0002
 20
 4.33766809714400E+0002
 11
 4.23674107177500E+0002
 21
 4.33867322511700E+0002
  0
LINE
  8
0
 10
 4.23674107177500E+0002
 20
 4.33867322511700E+0002
 11
 4.23616722720000E+0002
 21
 4.33966430956800E+0002
  0
LINE
  8
0
 10
 4.23616722720000E+0002
 20
 4.33966430956800E+0002
 11
 4.23558404062500E+0002
 21
 4.34064116977100E+0002
  0
LINE
  8
0
 10
 4.23558404062500E+0002
 20
 4.34064116977100E+0002
 11
 4.23499162500000E+0002
 21
 4.34160362500000E+0002
  0
LINE
  8
0
 10
 4.23499162500000E+0002
 20
 4.34160362500000E+0002
 11
 4.23439009327500E+0002
 21
 4.34255149452900E+0002
  0
LINE
  8
0
 10
 4.23439009327500E+0002
 20
 4.34255149452900E+0002
 11
 4.23377955840000E+0002
 21
 4.34348459763200E+0002
  0
LINE
  8
0
 10
 4.23377955840000E+0002
 20
 4.34348459763200E+0002
 11
 4.23316013332500E+0002
 21
 4.34440275358300E+0002
  0
LINE
  8
0
 10
 4.23316013332500E+0002
 20
 4.34440275358300E+0002
 11
 4.23253193100000E+0002
 21
 4.34530578165600E+0002
  0
LINE
  8
0
 10
 4.23253193100000E+0002
 20
 4.34530578165600E+0002
 11
 4.23189506437500E+0002
 21
 4.34619350112500E+0002
  0
LINE
  8
0
 10
 4.23189506437500E+0002
 20
 4.34619350112500E+0002
 11
 4.23124964640000E+0002
 21
 4.34706573126400E+0002
  0
LINE
  8
0
 10
 4.23124964640000E+0002
 20
 4.34706573126400E+0002
 11
 4.23059579002500E+0002
 21
 4.34792229134700E+0002
  0
LINE
  8
0
 10
 4.23059579002500E+0002
 20
 4.34792229134700E+0002
 11
 4.22993360820000E+0002
 21
 4.34876300064800E+0002
  0
LINE
  8
0
 10
 4.22993360820000E+0002
 20
 4.34876300064800E+0002
 11
 4.22926321387500E+0002
 21
 4.34958767844100E+0002
  0
LINE
  8
0
 10
 4.22926321387500E+0002
 20
 4.34958767844100E+0002
 11
 4.22858472000000E+0002
 21
 4.35039614400000E+0002
  0
LINE
  8
0
 10
 4.22858472000000E+0002
 20
 4.35039614400000E+0002
 11
 4.22789823952500E+0002
 21
 4.35118821659900E+0002
  0
LINE
  8
0
 10
 4.22789823952500E+0002
 20
 4.35118821659900E+0002
 11
 4.22720388540000E+0002
 21
 4.35196371551200E+0002
  0
LINE
  8
0
 10
 4.22720388540000E+0002
 20
 4.35196371551200E+0002
 11
 4.22650177057500E+0002
 21
 4.35272246001300E+0002
  0
LINE
  8
0
 10
 4.22650177057500E+0002
 20
 4.35272246001300E+0002
 11
 4.22579200800000E+0002
 21
 4.35346426937600E+0002
  0
LINE
  8
0
 10
 4.22579200800000E+0002
 20
 4.35346426937600E+0002
 11
 4.22507471062500E+0002
 21
 4.35418896287500E+0002
  0
LINE
  8
0
 10
 4.22507471062500E+0002
 20
 4.35418896287500E+0002
 11
 4.22434999140000E+0002
 21
 4.35489635978400E+0002
  0
LINE
  8
0
 10
 4.22434999140000E+0002
 20
 4.35489635978400E+0002
 11
 4.22361796327500E+0002
 21
 4.35558627937700E+0002
  0
LINE
  8
0
 10
 4.22361796327500E+0002
 20
 4.35558627937700E+0002
 11
 4.22287873920000E+0002
 21
 4.35625854092800E+0002
  0
LINE
  8
0
 10
 4.22287873920000E+0002
 20
 4.35625854092800E+0002
 11
 4.22213243212500E+0002
 21
 4.35691296371100E+0002
  0
LINE
  8
0
 10
 4.22213243212500E+0002
 20
 4.35691296371100E+0002
 11
 4.22137915500000E+0002
 21
 4.35754936700000E+0002
  0
LINE
  8
0
 10
 4.22137915500000E+0002
 20
 4.35754936700000E+0002
 11
 4.22061902077500E+0002
 21
 4.35816757006900E+0002
  0
LINE
  8
0
 10
 4.22061902077500E+0002
 20
 4.35816757006900E+0002
 11
 4.21985214240000E+0002
 21
 4.35876739219200E+0002
  0
LINE
  8
0
 10
 4.21985214240000E+0002
 20
 4.35876739219200E+0002
 11
 4.21907863282500E+0002
 21
 4.35934865264300E+0002
  0
LINE
  8
0
 10
 4.21907863282500E+0002
 20
 4.35934865264300E+0002
 11
 4.21829860500000E+0002
 21
 4.35991117069600E+0002
  0
LINE
  8
0
 10
 4.21829860500000E+0002
 20
 4.35991117069600E+0002
 11
 4.21751217187500E+0002
 21
 4.36045476562500E+0002
  0
LINE
  8
0
 10
 4.21751217187500E+0002
 20
 4.36045476562500E+0002
 11
 4.21671944640000E+0002
 21
 4.36097925670400E+0002
  0
LINE
  8
0
 10
 4.21671944640000E+0002
 20
 4.36097925670400E+0002
 11
 4.21592054152500E+0002
 21
 4.36148446320700E+0002
  0
LINE
  8
0
 10
 4.21592054152500E+0002
 20
 4.36148446320700E+0002
 11
 4.21511557020000E+0002
 21
 4.36197020440800E+0002
  0
LINE
  8
0
 10
 4.21511557020000E+0002
 20
 4.36197020440800E+0002
 11
 4.21430464537500E+0002
 21
 4.36243629958100E+0002
  0
LINE
  8
0
 10
 4.21430464537500E+0002
 20
 4.36243629958100E+0002
 11
 4.21348788000000E+0002
 21
 4.36288256800000E+0002
  0
LINE
  8
0
 10
 4.21348788000000E+0002
 20
 4.36288256800000E+0002
 11
 4.21266538702500E+0002
 21
 4.36330882893900E+0002
  0
LINE
  8
0
 10
 4.21266538702500E+0002
 20
 4.36330882893900E+0002
 11
 4.21183727940000E+0002
 21
 4.36371490167200E+0002
  0
LINE
  8
0
 10
 4.21183727940000E+0002
 20
 4.36371490167200E+0002
 11
 4.21100367007500E+0002
 21
 4.36410060547300E+0002
  0
LINE
  8
0
 10
 4.21100367007500E+0002
 20
 4.36410060547300E+0002
 11
 4.21016467200000E+0002
 21
 4.36446575961600E+0002
  0
LINE
  8
0
 10
 4.21016467200000E+0002
 20
 4.36446575961600E+0002
 11
 4.20932039812500E+0002
 21
 4.36481018337500E+0002
  0
LINE
  8
0
 10
 4.20932039812500E+0002
 20
 4.36481018337500E+0002
 11
 4.20847096140000E+0002
 21
 4.36513369602400E+0002
  0
LINE
  8
0
 10
 4.20847096140000E+0002
 20
 4.36513369602400E+0002
 11
 4.20761647477500E+0002
 21
 4.36543611683700E+0002
  0
LINE
  8
0
 10
 4.20761647477500E+0002
 20
 4.36543611683700E+0002
 11
 4.20675705120000E+0002
 21
 4.36571726508800E+0002
  0
LINE
  8
0
 10
 4.20675705120000E+0002
 20
 4.36571726508800E+0002
 11
 4.20589280362500E+0002
 21
 4.36597696005100E+0002
  0
LINE
  8
0
 10
 4.20589280362500E+0002
 20
 4.36597696005100E+0002
 11
 4.20502384500000E+0002
 21
 4.36621502100000E+0002
  0
LINE
  8
0
 10
 4.20502384500000E+0002
 20
 4.36621502100000E+0002
 11
 4.20415028827500E+0002
 21
 4.36643126720900E+0002
  0
LINE
  8
0
 10
 4.20415028827500E+0002
 20
 4.36643126720900E+0002
 11
 4.20327224640000E+0002
 21
 4.36662551795200E+0002
  0
LINE
  8
0
 10
 4.20327224640000E+0002
 20
 4.36662551795200E+0002
 11
 4.20238983232500E+0002
 21
 4.36679759250300E+0002
  0
LINE
  8
0
 10
 4.20238983232500E+0002
 20
 4.36679759250300E+0002
 11
 4.20150315900000E+0002
 21
 4.36694731013600E+0002
  0
LINE
  8
0
 10
 4.20150315900000E+0002
 20
 4.36694731013600E+0002
 11
 4.20061233937500E+0002
 21
 4.36707449012500E+0002
  0
LINE
  8
0
 10
 4.20061233937500E+0002
 20
 4.36707449012500E+0002
 11
 4.19971748640000E+0002
 21
 4.36717895174400E+0002
  0
LINE
  8
0
 10
 4.19971748640000E+0002
 20
 4.36717895174400E+0002
 11
 4.19881871302500E+0002
 21
 4.36726051426700E+0002
  0
LINE
  8
0
 10
 4.19881871302500E+0002
 20
 4.36726051426700E+0002
 11
 4.19791613220000E+0002
 21
 4.36731899696800E+0002
  0
LINE
  8
0
 10
 4.19791613220000E+0002
 20
 4.36731899696800E+0002
 11
 4.19700985687500E+0002
 21
 4.36735421912100E+0002
  0
LINE
  8
0
 10
 4.19700985687500E+0002
 20
 4.36735421912100E+0002
 11
 4.19610000000000E+0002
 21
 4.36736600000000E+0002
  0
LINE
  8
0
 10
 4.19610000000000E+0002
 20
 4.36736600000000E+0002
 11
 3.76451169571054E+0002
 21
 4.36750924913613E+0002
  0
ARC
  8
0
 10
 3.55150000000000E+0002
 20
 4.31250000000000E+0002
 40
 2.20000000000000E+0001
 50
 1.44800000000000E+0001
 51
 3.70000000000000E+0001
  0
LINE
  8
0
 10
 3.72719981221040E+0002
 20
 4.44489930509345E+0002
 11
 3.61981000000000E+0002
 21
 4.58734000000000E+0002
  0
LINE
  8
0
 10
 3.61981000000000E+0002
 20
 4.58734000000000E+0002
 11
 3.32790000000000E+0002
 21
 4.36736600000000E+0002
  0
LINE
  8
0
 10
 3.32790000000000E+0002
 20
 4.36736600000000E+0002
 11
 2.90400000000000E+0002
 21
 4.36750000000000E+0002
  0
ARC
  8
0
 10
 2.90400000000000E+0002
 20
 4.25750000000000E+0002
 40
 1.10000000000000E+0001
 50
 9.00000000000000E+0001
 51
 1.75380000000000E+0002
  0
LINE
  8
0
 10
 2.79435740946738E+0002
 20
 4.26636015469929E+0002
 11
 2.79435200078448E+0002
 21
 4.26636610598766E+0002
  0
ARC
  8
0
 10
 2.87650000000000E+0002
 20
 4.64250000000000E+0002
 40
 3.85000000000000E+0001
 50
 2.09010000000000E+0002
 51
 2.57680000000000E+0002
  0
LINE
  8
0
 10
 2.53980399474769E+0002
 20
 4.45578952882300E+0002
 11
 2.99997000000000E+0002
 21
 4.80253800000000E+0002
  0
LINE
  8
0
 10
 2.99997000000000E+0002
 20
 4.80253800000000E+0002
 11
 3.30142000000000E+0002
 21
 4.40250200000000E+0002
  0
LINE
  8
0
 10
 3.30142000000000E+0002
 20
 4.40250200000000E+0002
 11
 3.59333000000000E+0002
 21
 4.62247500000000E+0002
  0
LINE
  8
0
 10
 3.59333000000000E+0002
 20
 4.62247500000000E+0002
 11
 3.31869981221040E+0002
 21
 4.98689930509345E+0002
  0
ARC
  8
0
 10
 3.14300000000000E+0002
 20
 4.85450000000000E+0002
 40
 2.20000000000000E+0001
 50
 3.70000000000000E+0001
 51
 1.27000000000000E+0002
  0
LINE
  8
0
 10
 3.01060069490655E+0002
 20
 5.03019981221040E+0002
 11
 2.49132500000000E+0002
 21
 4.63854200000000E+0002
  0
LINE
  8
0
 10
 2.49132500000000E+0002
 20
 4.63854200000000E+0002
 11
 2.49132417105400E+0002
 21
 4.63862587807600E+0002
  0
LINE
  8
0
 10
 2.49132417105400E+0002
 20
 4.63862587807600E+0002
 11
 2.49132336403200E+0002
 21
 4.63870697020800E+0002
  0
LINE
  8
0
 10
 2.49132336403200E+0002
 20
 4.63870697020800E+0002
 11
 2.49132257865800E+0002
 21
 4.63878533325200E+0002
  0
LINE
  8
0
 10
 2.49132257865800E+0002
 20
 4.63878533325200E+0002
 11
 2.49132181465600E+0002
 21
 4.63886102406400E+0002
  0
LINE
  8
0
 10
 2.49132181465600E+0002
 20
 4.63886102406400E+0002
 11
 2.49132107175000E+0002
 21
 4.63893409950000E+0002
  0
LINE
  8
0
 10
 2.49132107175000E+0002
 20
 4.63893409950000E+0002
 11
 2.49132034966400E+0002
 21
 4.63900461641600E+0002
  0
LINE
  8
0
 10
 2.49132034966400E+0002
 20
 4.63900461641600E+0002
 11
 2.49131964812200E+0002
 21
 4.63907263166800E+0002
  0
LINE
  8
0
 10
 2.49131964812200E+0002
 20
 4.63907263166800E+0002
 11
 2.49131896684800E+0002
 21
 4.63913820211200E+0002
  0
LINE
  8
0
 10
 2.49131896684800E+0002
 20
 4.63913820211200E+0002
 11
 2.49131830556600E+0002
 21
 4.63920138460400E+0002
  0
LINE
  8
0
 10
 2.49131830556600E+0002
 20
 4.63920138460400E+0002
 11
 2.49131766400000E+0002
 21
 4.63926223600000E+0002
  0
LINE
  8
0
 10
 2.49131766400000E+0002
 20
 4.63926223600000E+0002
 11
 2.49131704187400E+0002
 21
 4.63932081315600E+0002
  0
LINE
  8
0
 10
 2.49131704187400E+0002
 20
 4.63932081315600E+0002
 11
 2.49131643891200E+0002
 21
 4.63937717292800E+0002
  0
LINE
  8
0
 10
 2.49131643891200E+0002
 20
 4.63937717292800E+0002
 11
 2.49131585483800E+0002
 21
 4.63943137217200E+0002
  0
LINE
  8
0
 10
 2.49131585483800E+0002
 20
 4.63943137217200E+0002
 11
 2.49131528937600E+0002
 21
 4.63948346774400E+0002
  0
LINE
  8
0
 10
 2.49131528937600E+0002
 20
 4.63948346774400E+0002
 11
 2.49131474225000E+0002
 21
 4.63953351650000E+0002
  0
LINE
  8
0
 10
 2.49131474225000E+0002
 20
 4.63953351650000E+0002
 11
 2.49131421318400E+0002
 21
 4.63958157529600E+0002
  0
LINE
  8
0
 10
 2.49131421318400E+0002
 20
 4.63958157529600E+0002
 11
 2.49131370190200E+0002
 21
 4.63962770098800E+0002
  0
LINE
  8
0
 10
 2.49131370190200E+0002
 20
 4.63962770098800E+0002
 11
 2.49131320812800E+0002
 21
 4.63967195043200E+0002
  0
LINE
  8
0
 10
 2.49131320812800E+0002
 20
 4.63967195043200E+0002
 11
 2.49131273158600E+0002
 21
 4.63971438048400E+0002
  0
LINE
  8
0
 10
 2.49131273158600E+0002
 20
 4.63971438048400E+0002
 11
 2.49131227200000E+0002
 21
 4.63975504800000E+0002
  0
LINE
  8
0
 10
 2.49131227200000E+0002
 20
 4.63975504800000E+0002
 11
 2.49131182909400E+0002
 21
 4.63979400983600E+0002
  0
LINE
  8
0
 10
 2.49131182909400E+0002
 20
 4.63979400983600E+0002
 11
 2.49131140259200E+0002
 21
 4.63983132284800E+0002
  0
LINE
  8
0
 10
 2.49131140259200E+0002
 20
 4.63983132284800E+0002
 11
 2.49131099221800E+0002
 21
 4.63986704389200E+0002
  0
LINE
  8
0
 10
 2.49131099221800E+0002
 20
 4.63986704389200E+0002
 11
 2.49131059769600E+0002
 21
 4.63990122982400E+0002
  0
LINE
  8
0
 10
 2.49131059769600E+0002
 20
 4.63990122982400E+0002
 11
 2.49131021875000E+0002
 21
 4.63993393750000E+0002
  0
LINE
  8
0
 10
 2.49131021875000E+0002
 20
 4.63993393750000E+0002
 11
 2.49130985510400E+0002
 21
 4.63996522377600E+0002
  0
LINE
  8
0
 10
 2.49130985510400E+0002
 20
 4.63996522377600E+0002
 11
 2.49130950648200E+0002
 21
 4.63999514550800E+0002
  0
LINE
  8
0
 10
 2.49130950648200E+0002
 20
 4.63999514550800E+0002
 11
 2.49130917260800E+0002
 21
 4.64002375955200E+0002
  0
LINE
  8
0
 10
 2.49130917260800E+0002
 20
 4.64002375955200E+0002
 11
 2.49130885320600E+0002
 21
 4.64005112276400E+0002
  0
LINE
  8
0
 10
 2.49130885320600E+0002
 20
 4.64005112276400E+0002
 11
 2.49130854800000E+0002
 21
 4.64007729200000E+0002
  0
LINE
  8
0
 10
 2.49130854800000E+0002
 20
 4.64007729200000E+0002
 11
 2.49130825671400E+0002
 21
 4.64010232411600E+0002
  0
LINE
  8
0
 10
 2.49130825671400E+0002
 20
 4.64010232411600E+0002
 11
 2.49130797907200E+0002
 21
 4.64012627596800E+0002
  0
LINE
  8
0
 10
 2.49130797907200E+0002
 20
 4.64012627596800E+0002
 11
 2.49130771479800E+0002
 21
 4.64014920441200E+0002
  0
LINE
  8
0
 10
 2.49130771479800E+0002
 20
 4.64014920441200E+0002
 11
 2.49130746361600E+0002
 21
 4.64017116630400E+0002
  0
LINE
  8
0
 10
 2.49130746361600E+0002
 20
 4.64017116630400E+0002
 11
 2.49130722525000E+0002
 21
 4.64019221850000E+0002
  0
LINE
  8
0
 10
 2.49130722525000E+0002
 20
 4.64019221850000E+0002
 11
 2.49130699942400E+0002
 21
 4.64021241785600E+0002
  0
LINE
  8
0
 10
 2.49130699942400E+0002
 20
 4.64021241785600E+0002
 11
 2.49130678586200E+0002
 21
 4.64023182122800E+0002
  0
LINE
  8
0
 10
 2.49130678586200E+0002
 20
 4.64023182122800E+0002
 11
 2.49130658428800E+0002
 21
 4.64025048547200E+0002
  0
LINE
  8
0
 10
 2.49130658428800E+0002
 20
 4.64025048547200E+0002
 11
 2.49130639442600E+0002
 21
 4.64026846744400E+0002
  0
LINE
  8
0
 10
 2.49130639442600E+0002
 20
 4.64026846744400E+0002
 11
 2.49130621600000E+0002
 21
 4.64028582400000E+0002
  0
LINE
  8
0
 10
 2.49130621600000E+0002
 20
 4.64028582400000E+0002
 11
 2.49130604873400E+0002
 21
 4.64030261199600E+0002
  0
LINE
  8
0
 10
 2.49130604873400E+0002
 20
 4.64030261199600E+0002
 11
 2.49130589235200E+0002
 21
 4.64031888828800E+0002
  0
LINE
  8
0
 10
 2.49130589235200E+0002
 20
 4.64031888828800E+0002
 11
 2.49130574657800E+0002
 21
 4.64033470973200E+0002
  0
LINE
  8
0
 10
 2.49130574657800E+0002
 20
 4.64033470973200E+0002
 11
 2.49130561113600E+0002
 21
 4.64035013318400E+0002
  0
LINE
  8
0
 10
 2.49130561113600E+0002
 20
 4.64035013318400E+0002
 11
 2.49130548575000E+0002
 21
 4.64036521550000E+0002
  0
LINE
  8
0
 10
 2.49130548575000E+0002
 20
 4.64036521550000E+0002
 11
 2.49130537014400E+0002
 21
 4.64038001353600E+0002
  0
LINE
  8
0
 10
 2.49130537014400E+0002
 20
 4.64038001353600E+0002
 11
 2.49130526404200E+0002
 21
 4.64039458414800E+0002
  0
LINE
  8
0
 10
 2.49130526404200E+0002
 20
 4.64039458414800E+0002
 11
 2.49130516716800E+0002
 21
 4.64040898419200E+0002
  0
LINE
  8
0
 10
 2.49130516716800E+0002
 20
 4.64040898419200E+0002
 11
 2.49130507924600E+0002
 21
 4.64042327052400E+0002
  0
LINE
  8
0
 10
 2.49130507924600E+0002
 20
 4.64042327052400E+0002
 11
 2.49130500000000E+0002
 21
 4.64043750000000E+0002
  0
LINE
  8
0
 10
 2.49130500000000E+0002
 20
 4.64043750000000E+0002
 11
 2.49130492915400E+0002
 21
 4.64045172947600E+0002
  0
LINE
  8
0
 10
 2.49130492915400E+0002
 20
 4.64045172947600E+0002
 11
 2.49130486643200E+0002
 21
 4.64046601580800E+0002
  0
LINE
  8
0
 10
 2.49130486643200E+0002
 20
 4.64046601580800E+0002
 11
 2.49130481155800E+0002
 21
 4.64048041585200E+0002
  0
LINE
  8
0
 10
 2.49130481155800E+0002
 20
 4.64048041585200E+0002
 11
 2.49130476425600E+0002
 21
 4.64049498646400E+0002
  0
LINE
  8
0
 10
 2.49130476425600E+0002
 20
 4.64049498646400E+0002
 11
 2.49130472425000E+0002
 21
 4.64050978450000E+0002
  0
LINE
  8
0
 10
 2.49130472425000E+0002
 20
 4.64050978450000E+0002
 11
 2.49130469126400E+0002
 21
 4.64052486681600E+0002
  0
LINE
  8
0
 10
 2.49130469126400E+0002
 20
 4.64052486681600E+0002
 11
 2.49130466502200E+0002
 21
 4.64054029026800E+0002
  0
LINE
  8
0
 10
 2.49130466502200E+0002
 20
 4.64054029026800E+0002
 11
 2.49130464524800E+0002
 21
 4.64055611171200E+0002
  0
LINE
  8
0
 10
 2.49130464524800E+0002
 20
 4.64055611171200E+0002
 11
 2.49130463166600E+0002
 21
 4.64057238800400E+0002
  0
LINE
  8
0
 10
 2.49130463166600E+0002
 20
 4.64057238800400E+0002
 11
 2.49130462400000E+0002
 21
 4.64058917600000E+0002
  0
LINE
  8
0
 10
 2.49130462400000E+0002
 20
 4.64058917600000E+0002
 11
 2.49130462197400E+0002
 21
 4.64060653255600E+0002
  0
LINE
  8
0
 10
 2.49130462197400E+0002
 20
 4.64060653255600E+0002
 11
 2.49130462531200E+0002
 21
 4.64062451452800E+0002
  0
LINE
  8
0
 10
 2.49130462531200E+0002
 20
 4.64062451452800E+0002
 11
 2.49130463373800E+0002
 21
 4.64064317877200E+0002
  0
LINE
  8
0
 10
 2.49130463373800E+0002
 20
 4.64064317877200E+0002
 11
 2.49130464697600E+0002
 21
 4.64066258214400E+0002
  0
LINE
  8
0
 10
 2.49130464697600E+0002
 20
 4.64066258214400E+0002
 11
 2.49130466475000E+0002
 21
 4.64068278150000E+0002
  0
LINE
  8
0
 10
 2.49130466475000E+0002
 20
 4.64068278150000E+0002
 11
 2.49130468678400E+0002
 21
 4.64070383369600E+0002
  0
LINE
  8
0
 10
 2.49130468678400E+0002
 20
 4.64070383369600E+0002
 11
 2.49130471280200E+0002
 21
 4.64072579558800E+0002
  0
LINE
  8
0
 10
 2.49130471280200E+0002
 20
 4.64072579558800E+0002
 11
 2.49130474252800E+0002
 21
 4.64074872403200E+0002
  0
LINE
  8
0
 10
 2.49130474252800E+0002
 20
 4.64074872403200E+0002
 11
 2.49130477568600E+0002
 21
 4.64077267588400E+0002
  0
LINE
  8
0
 10
 2.49130477568600E+0002
 20
 4.64077267588400E+0002
 11
 2.49130481200000E+0002
 21
 4.64079770800000E+0002
  0
LINE
  8
0
 10
 2.49130481200000E+0002
 20
 4.64079770800000E+0002
 11
 2.49130485119400E+0002
 21
 4.64082387723600E+0002
  0
LINE
  8
0
 10
 2.49130485119400E+0002
 20
 4.64082387723600E+0002
 11
 2.49130489299200E+0002
 21
 4.64085124044800E+0002
  0
LINE
  8
0
 10
 2.49130489299200E+0002
 20
 4.64085124044800E+0002
 11
 2.49130493711800E+0002
 21
 4.64087985449200E+0002
  0
LINE
  8
0
 10
 2.49130493711800E+0002
 20
 4.64087985449200E+0002
 11
 2.49130498329600E+0002
 21
 4.64090977622400E+0002
  0
LINE
  8
0
 10
 2.49130498329600E+0002
 20
 4.64090977622400E+0002
 11
 2.49130503125000E+0002
 21
 4.64094106250000E+0002
  0
LINE
  8
0
 10
 2.49130503125000E+0002
 20
 4.64094106250000E+0002
 11
 2.49130508070400E+0002
 21
 4.64097377017600E+0002
  0
LINE
  8
0
 10
 2.49130508070400E+0002
 20
 4.64097377017600E+0002
 11
 2.49130513138200E+0002
 21
 4.64100795610800E+0002
  0
LINE
  8
0
 10
 2.49130513138200E+0002
 20
 4.64100795610800E+0002
 11
 2.49130518300800E+0002
 21
 4.64104367715200E+0002
  0
LINE
  8
0
 10
 2.49130518300800E+0002
 20
 4.64104367715200E+0002
 11
 2.49130523530600E+0002
 21
 4.64108099016400E+0002
  0
LINE
  8
0
 10
 2.49130523530600E+0002
 20
 4.64108099016400E+0002
 11
 2.49130528800000E+0002
 21
 4.64111995200000E+0002
  0
LINE
  8
0
 10
 2.49130528800000E+0002
 20
 4.64111995200000E+0002
 11
 2.49130534081400E+0002
 21
 4.64116061951600E+0002
  0
LINE
  8
0
 10
 2.49130534081400E+0002
 20
 4.64116061951600E+0002
 11
 2.49130539347200E+0002
 21
 4.64120304956800E+0002
  0
LINE
  8
0
 10
 2.49130539347200E+0002
 20
 4.64120304956800E+0002
 11
 2.49130544569800E+0002
 21
 4.64124729901200E+0002
  0
LINE
  8
0
 10
 2.49130544569800E+0002
 20
 4.64124729901200E+0002
 11
 2.49130549721600E+0002
 21
 4.64129342470400E+0002
  0
LINE
  8
0
 10
 2.49130549721600E+0002
 20
 4.64129342470400E+0002
 11
 2.49130554775000E+0002
 21
 4.64134148350000E+0002
  0
LINE
  8
0
 10
 2.49130554775000E+0002
 20
 4.64134148350000E+0002
 11
 2.49130559702400E+0002
 21
 4.64139153225600E+0002
  0
LINE
  8
0
 10
 2.49130559702400E+0002
 20
 4.64139153225600E+0002
 11
 2.49130564476200E+0002
 21
 4.64144362782800E+0002
  0
LINE
  8
0
 10
 2.49130564476200E+0002
 20
 4.64144362782800E+0002
 11
 2.49130569068800E+0002
 21
 4.64149782707200E+0002
  0
LINE
  8
0
 10
 2.49130569068800E+0002
 20
 4.64149782707200E+0002
 11
 2.49130573452600E+0002
 21
 4.64155418684400E+0002
  0
LINE
  8
0
 10
 2.49130573452600E+0002
 20
 4.64155418684400E+0002
 11
 2.49130577600000E+0002
 21
 4.64161276400000E+0002
  0
LINE
  8
0
 10
 2.49130577600000E+0002
 20
 4.64161276400000E+0002
 11
 2.49130581483400E+0002
 21
 4.64167361539600E+0002
  0
LINE
  8
0
 10
 2.49130581483400E+0002
 20
 4.64167361539600E+0002
 11
 2.49130585075200E+0002
 21
 4.64173679788800E+0002
  0
LINE
  8
0
 10
 2.49130585075200E+0002
 20
 4.64173679788800E+0002
 11
 2.49130588347800E+0002
 21
 4.64180236833200E+0002
  0
LINE
  8
0
 10
 2.49130588347800E+0002
 20
 4.64180236833200E+0002
 11
 2.49130591273600E+0002
 21
 4.64187038358400E+0002
  0
LINE
  8
0
 10
 2.49130591273600E+0002
 20
 4.64187038358400E+0002
 11
 2.49130593825000E+0002
 21
 4.64194090050000E+0002
  0
LINE
  8
0
 10
 2.49130593825000E+0002
 20
 4.64194090050000E+0002
 11
 2.49130595974400E+0002
 21
 4.64201397593600E+0002
  0
LINE
  8
0
 10
 2.49130595974400E+0002
 20
 4.64201397593600E+0002
 11
 2.49130597694200E+0002
 21
 4.64208966674800E+0002
  0
LINE
  8
0
 10
 2.49130597694200E+0002
 20
 4.64208966674800E+0002
 11
 2.49130598956800E+0002
 21
 4.64216802979200E+0002
  0
LINE
  8
0
 10
 2.49130598956800E+0002
 20
 4.64216802979200E+0002
 11
 2.49130599734600E+0002
 21
 4.64224912192400E+0002
  0
LINE
  8
0
 10
 2.49130599734600E+0002
 20
 4.64224912192400E+0002
 11
 2.49130600000000E+0002
 21
 4.64233300000000E+0002
  0
LINE
  8
0
 10
 2.49130600000000E+0002
 20
 4.64233300000000E+0002
 11
 2.49100000000000E+0002
 21
 4.64250000000000E+0002
  0
ARC
  8
0
 10
 2.87600000000000E+0002
 20
 4.64250000000000E+0002
 40
 3.85000000000000E+0001
 50
 1.66270000000000E+0002
 51
 1.80000000000000E+0002
  0
LINE
  8
0
 10
 2.50200138321507E+0002
 20
 4.73387852397011E+0002
 11
 2.50231000000000E+0002
 21
 4.73369500000000E+0002
  0
LINE
  8
0
 10
 2.50231000000000E+0002
 20
 4.73369500000000E+0002
 11
 2.48469602348300E+0002
 21
 4.72831219812600E+0002
  0
LINE
  8
0
 10
 2.48469602348300E+0002
 20
 4.72831219812600E+0002
 11
 2.46748710626400E+0002
 21
 4.72292491740800E+0002
  0
LINE
  8
0
 10
 2.46748710626400E+0002
 20
 4.72292491740800E+0002
 11
 2.45067915684100E+0002
 21
 4.71753325520200E+0002
  0
LINE
  8
0
 10
 2.45067915684100E+0002
 20
 4.71753325520200E+0002
 11
 2.43426808371200E+0002
 21
 4.71213730886400E+0002
  0
LINE
  8
0
 10
 2.43426808371200E+0002
 20
 4.71213730886400E+0002
 11
 2.41824979537500E+0002
 21
 4.70673717575000E+0002
  0
LINE
  8
0
 10
 2.41824979537500E+0002
 20
 4.70673717575000E+0002
 11
 2.40262020032800E+0002
 21
 4.70133295321600E+0002
  0
LINE
  8
0
 10
 2.40262020032800E+0002
 20
 4.70133295321600E+0002
 11
 2.38737520706900E+0002
 21
 4.69592473861800E+0002
  0
LINE
  8
0
 10
 2.38737520706900E+0002
 20
 4.69592473861800E+0002
 11
 2.37251072409600E+0002
 21
 4.69051262931200E+0002
  0
LINE
  8
0
 10
 2.37251072409600E+0002
 20
 4.69051262931200E+0002
 11
 2.35802265990700E+0002
 21
 4.68509672265400E+0002
  0
LINE
  8
0
 10
 2.35802265990700E+0002
 20
 4.68509672265400E+0002
 11
 2.34390692300000E+0002
 21
 4.67967711600000E+0002
  0
LINE
  8
0
 10
 2.34390692300000E+0002
 20
 4.67967711600000E+0002
 11
 2.33015942187300E+0002
 21
 4.67425390670600E+0002
  0
LINE
  8
0
 10
 2.33015942187300E+0002
 20
 4.67425390670600E+0002
 11
 2.31677606502400E+0002
 21
 4.66882719212800E+0002
  0
LINE
  8
0
 10
 2.31677606502400E+0002
 20
 4.66882719212800E+0002
 11
 2.30375276095100E+0002
 21
 4.66339706962200E+0002
  0
LINE
  8
0
 10
 2.30375276095100E+0002
 20
 4.66339706962200E+0002
 11
 2.29108541815200E+0002
 21
 4.65796363654400E+0002
  0
LINE
  8
0
 10
 2.29108541815200E+0002
 20
 4.65796363654400E+0002
 11
 2.27876994512500E+0002
 21
 4.65252699025000E+0002
  0
LINE
  8
0
 10
 2.27876994512500E+0002
 20
 4.65252699025000E+0002
 11
 2.26680225036800E+0002
 21
 4.64708722809600E+0002
  0
LINE
  8
0
 10
 2.26680225036800E+0002
 20
 4.64708722809600E+0002
 11
 2.25517824237900E+0002
 21
 4.64164444743800E+0002
  0
LINE
  8
0
 10
 2.25517824237900E+0002
 20
 4.64164444743800E+0002
 11
 2.24389382965600E+0002
 21
 4.63619874563200E+0002
  0
LINE
  8
0
 10
 2.24389382965600E+0002
 20
 4.63619874563200E+0002
 11
 2.23294492069700E+0002
 21
 4.63075022003400E+0002
  0
LINE
  8
0
 10
 2.23294492069700E+0002
 20
 4.63075022003400E+0002
 11
 2.22232742400000E+0002
 21
 4.62529896800000E+0002
  0
LINE
  8
0
 10
 2.22232742400000E+0002
 20
 4.62529896800000E+0002
 11
 2.21203724806300E+0002
 21
 4.61984508688600E+0002
  0
LINE
  8
0
 10
 2.21203724806300E+0002
 20
 4.61984508688600E+0002
 11
 2.20207030138400E+0002
 21
 4.61438867404800E+0002
  0
LINE
  8
0
 10
 2.20207030138400E+0002
 20
 4.61438867404800E+0002
 11
 2.19242249246100E+0002
 21
 4.60892982684200E+0002
  0
LINE
  8
0
 10
 2.19242249246100E+0002
 20
 4.60892982684200E+0002
 11
 2.18308972979200E+0002
 21
 4.60346864262400E+0002
  0
LINE
  8
0
 10
 2.18308972979200E+0002
 20
 4.60346864262400E+0002
 11
 2.17406792187500E+0002
 21
 4.59800521875000E+0002
  0
LINE
  8
0
 10
 2.17406792187500E+0002
 20
 4.59800521875000E+0002
 11
 2.16535297720800E+0002
 21
 4.59253965257600E+0002
  0
LINE
  8
0
 10
 2.16535297720800E+0002
 20
 4.59253965257600E+0002
 11
 2.15694080428900E+0002
 21
 4.58707204145800E+0002
  0
LINE
  8
0
 10
 2.15694080428900E+0002
 20
 4.58707204145800E+0002
 11
 2.14882731161600E+0002
 21
 4.58160248275200E+0002
  0
LINE
  8
0
 10
 2.14882731161600E+0002
 20
 4.58160248275200E+0002
 11
 2.14100840768700E+0002
 21
 4.57613107381400E+0002
  0
LINE
  8
0
 10
 2.14100840768700E+0002
 20
 4.57613107381400E+0002
 11
 2.13348000100000E+0002
 21
 4.57065791200000E+0002
  0
LINE
  8
0
 10
 2.13348000100000E+0002
 20
 4.57065791200000E+0002
 11
 2.12623800005300E+0002
 21
 4.56518309466600E+0002
  0
LINE
  8
0
 10
 2.12623800005300E+0002
 20
 4.56518309466600E+0002
 11
 2.11927831334400E+0002
 21
 4.55970671916800E+0002
  0
LINE
  8
0
 10
 2.11927831334400E+0002
 20
 4.55970671916800E+0002
 11
 2.11259684937100E+0002
 21
 4.55422888286200E+0002
  0
LINE
  8
0
 10
 2.11259684937100E+0002
 20
 4.55422888286200E+0002
 11
 2.10618951663200E+0002
 21
 4.54874968310400E+0002
  0
LINE
  8
0
 10
 2.10618951663200E+0002
 20
 4.54874968310400E+0002
 11
 2.10005222362500E+0002
 21
 4.54326921725000E+0002
  0
LINE
  8
0
 10
 2.10005222362500E+0002
 20
 4.54326921725000E+0002
 11
 2.09418087884800E+0002
 21
 4.53778758265600E+0002
  0
LINE
  8
0
 10
 2.09418087884800E+0002
 20
 4.53778758265600E+0002
 11
 2.08857139079900E+0002
 21
 4.53230487667800E+0002
  0
LINE
  8
0
 10
 2.08857139079900E+0002
 20
 4.53230487667800E+0002
 11
 2.08321966797600E+0002
 21
 4.52682119667200E+0002
  0
LINE
  8
0
 10
 2.08321966797600E+0002
 20
 4.52682119667200E+0002
 11
 2.07812161887700E+0002
 21
 4.52133663999400E+0002
  0
LINE
  8
0
 10
 2.07812161887700E+0002
 20
 4.52133663999400E+0002
 11
 2.07327315200000E+0002
 21
 4.51585130400000E+0002
  0
LINE
  8
0
 10
 2.07327315200000E+0002
 20
 4.51585130400000E+0002
 11
 2.06867017584300E+0002
 21
 4.51036528604600E+0002
  0
LINE
  8
0
 10
 2.06867017584300E+0002
 20
 4.51036528604600E+0002
 11
 2.06430859890400E+0002
 21
 4.50487868348800E+0002
  0
LINE
  8
0
 10
 2.06430859890400E+0002
 20
 4.50487868348800E+0002
 11
 2.06018432968100E+0002
 21
 4.49939159368200E+0002
  0
LINE
  8
0
 10
 2.06018432968100E+0002
 20
 4.49939159368200E+0002
 11
 2.05629327667200E+0002
 21
 4.49390411398400E+0002
  0
LINE
  8
0
 10
 2.05629327667200E+0002
 20
 4.49390411398400E+0002
 11
 2.05263134837500E+0002
 21
 4.48841634175000E+0002
  0
LINE
  8
0
 10
 2.05263134837500E+0002
 20
 4.48841634175000E+0002
 11
 2.04919445328800E+0002
 21
 4.48292837433600E+0002
  0
LINE
  8
0
 10
 2.04919445328800E+0002
 20
 4.48292837433600E+0002
 11
 2.04597849990900E+0002
 21
 4.47744030909800E+0002
  0
LINE
  8
0
 10
 2.04597849990900E+0002
 20
 4.47744030909800E+0002
 11
 2.04297939673600E+0002
 21
 4.47195224339200E+0002
  0
LINE
  8
0
 10
 2.04297939673600E+0002
 20
 4.47195224339200E+0002
 11
 2.04019305226700E+0002
 21
 4.46646427457400E+0002
  0
LINE
  8
0
 10
 2.04019305226700E+0002
 20
 4.46646427457400E+0002
 11
 2.03761537500000E+0002
 21
 4.46097650000000E+0002
  0
LINE
  8
0
 10
 2.03761537500000E+0002
 20
 4.46097650000000E+0002
 11
 2.03524227343300E+0002
 21
 4.45548901702600E+0002
  0
LINE
  8
0
 10
 2.03524227343300E+0002
 20
 4.45548901702600E+0002
 11
 2.03306965606400E+0002
 21
 4.45000192300800E+0002
  0
LINE
  8
0
 10
 2.03306965606400E+0002
 20
 4.45000192300800E+0002
 11
 2.03109343139100E+0002
 21
 4.44451531530200E+0002
  0
LINE
  8
0
 10
 2.03109343139100E+0002
 20
 4.44451531530200E+0002
 11
 2.02930950791200E+0002
 21
 4.43902929126400E+0002
  0
LINE
  8
0
 10
 2.02930950791200E+0002
 20
 4.43902929126400E+0002
 11
 2.02771379412500E+0002
 21
 4.43354394825000E+0002
  0
LINE
  8
0
 10
 2.02771379412500E+0002
 20
 4.43354394825000E+0002
 11
 2.02630219852800E+0002
 21
 4.42805938361600E+0002
  0
LINE
  8
0
 10
 2.02630219852800E+0002
 20
 4.42805938361600E+0002
 11
 2.02507062961900E+0002
 21
 4.42257569471800E+0002
  0
LINE
  8
0
 10
 2.02507062961900E+0002
 20
 4.42257569471800E+0002
 11
 2.02401499589600E+0002
 21
 4.41709297891200E+0002
  0
LINE
  8
0
 10
 2.02401499589600E+0002
 20
 4.41709297891200E+0002
 11
 2.02313120585700E+0002
 21
 4.41161133355400E+0002
  0
LINE
  8
0
 10
 2.02313120585700E+0002
 20
 4.41161133355400E+0002
 11
 2.02241516800000E+0002
 21
 4.40613085600000E+0002
  0
LINE
  8
0
 10
 2.02241516800000E+0002
 20
 4.40613085600000E+0002
 11
 2.02186279082300E+0002
 21
 4.40065164360600E+0002
  0
LINE
  8
0
 10
 2.02186279082300E+0002
 20
 4.40065164360600E+0002
 11
 2.02146998282400E+0002
 21
 4.39517379372800E+0002
  0
LINE
  8
0
 10
 2.02146998282400E+0002
 20
 4.39517379372800E+0002
 11
 2.02123265250100E+0002
 21
 4.38969740372200E+0002
  0
LINE
  8
0
 10
 2.02123265250100E+0002
 20
 4.38969740372200E+0002
 11
 2.02114670835200E+0002
 21
 4.38422257094400E+0002
  0
LINE
  8
0
 10
 2.02114670835200E+0002
 20
 4.38422257094400E+0002
 11
 2.02120805887500E+0002
 21
 4.37874939275000E+0002
  0
LINE
  8
0
 10
 2.02120805887500E+0002
 20
 4.37874939275000E+0002
 11
 2.02141261256800E+0002
 21
 4.37327796649600E+0002
  0
LINE
  8
0
 10
 2.02141261256800E+0002
 20
 4.37327796649600E+0002
 11
 2.02175627792900E+0002
 21
 4.36780838953800E+0002
  0
LINE
  8
0
 10
 2.02175627792900E+0002
 20
 4.36780838953800E+0002
 11
 2.02223496345600E+0002
 21
 4.36234075923200E+0002
  0
LINE
  8
0
 10
 2.02223496345600E+0002
 20
 4.36234075923200E+0002
 11
 2.02284457764700E+0002
 21
 4.35687517293400E+0002
  0
LINE
  8
0
 10
 2.02284457764700E+0002
 20
 4.35687517293400E+0002
 11
 2.02358102900000E+0002
 21
 4.35141172800000E+0002
  0
LINE
  8
0
 10
 2.02358102900000E+0002
 20
 4.35141172800000E+0002
 11
 2.02444022601300E+0002
 21
 4.34595052178600E+0002
  0
LINE
  8
0
 10
 2.02444022601300E+0002
 20
 4.34595052178600E+0002
 11
 2.02541807718400E+0002
 21
 4.34049165164800E+0002
  0
LINE
  8
0
 10
 2.02541807718400E+0002
 20
 4.34049165164800E+0002
 11
 2.02651049101100E+0002
 21
 4.33503521494200E+0002
  0
LINE
  8
0
 10
 2.02651049101100E+0002
 20
 4.33503521494200E+0002
 11
 2.02771337599200E+0002
 21
 4.32958130902400E+0002
  0
LINE
  8
0
 10
 2.02771337599200E+0002
 20
 4.32958130902400E+0002
 11
 2.02902264062500E+0002
 21
 4.32413003125000E+0002
  0
LINE
  8
0
 10
 2.02902264062500E+0002
 20
 4.32413003125000E+0002
 11
 2.03043419340800E+0002
 21
 4.31868147897600E+0002
  0
LINE
  8
0
 10
 2.03043419340800E+0002
 20
 4.31868147897600E+0002
 11
 2.03194394283900E+0002
 21
 4.31323574955800E+0002
  0
LINE
  8
0
 10
 2.03194394283900E+0002
 20
 4.31323574955800E+0002
 11
 2.03354779741600E+0002
 21
 4.30779294035200E+0002
  0
LINE
  8
0
 10
 2.03354779741600E+0002
 20
 4.30779294035200E+0002
 11
 2.03524166563700E+0002
 21
 4.30235314871400E+0002
  0
LINE
  8
0
 10
 2.03524166563700E+0002
 20
 4.30235314871400E+0002
 11
 2.03702145600000E+0002
 21
 4.29691647200000E+0002
  0
LINE
  8
0
 10
 2.03702145600000E+0002
 20
 4.29691647200000E+0002
 11
 2.03888307700300E+0002
 21
 4.29148300756600E+0002
  0
LINE
  8
0
 10
 2.03888307700300E+0002
 20
 4.29148300756600E+0002
 11
 2.04082243714400E+0002
 21
 4.28605285276800E+0002
  0
LINE
  8
0
 10
 2.04082243714400E+0002
 20
 4.28605285276800E+0002
 11
 2.04283544492100E+0002
 21
 4.28062610496200E+0002
  0
LINE
  8
0
 10
 2.04283544492100E+0002
 20
 4.28062610496200E+0002
 11
 2.04491800883200E+0002
 21
 4.27520286150400E+0002
  0
LINE
  8
0
 10
 2.04491800883200E+0002
 20
 4.27520286150400E+0002
 11
 2.04706603737500E+0002
 21
 4.26978321975000E+0002
  0
LINE
  8
0
 10
 2.04706603737500E+0002
 20
 4.26978321975000E+0002
 11
 2.04927543904800E+0002
 21
 4.26436727705600E+0002
  0
LINE
  8
0
 10
 2.04927543904800E+0002
 20
 4.26436727705600E+0002
 11
 2.05154212234900E+0002
 21
 4.25895513077800E+0002
  0
LINE
  8
0
 10
 2.05154212234900E+0002
 20
 4.25895513077800E+0002
 11
 2.05386199577600E+0002
 21
 4.25354687827200E+0002
  0
LINE
  8
0
 10
 2.05386199577600E+0002
 20
 4.25354687827200E+0002
 11
 2.05623096782700E+0002
 21
 4.24814261689400E+0002
  0
LINE
  8
0
 10
 2.05623096782700E+0002
 20
 4.24814261689400E+0002
 11
 2.05864494700000E+0002
 21
 4.24274244400000E+0002
  0
LINE
  8
0
 10
 2.05864494700000E+0002
 20
 4.24274244400000E+0002
 11
 2.06109984179300E+0002
 21
 4.23734645694600E+0002
  0
LINE
  8
0
 10
 2.06109984179300E+0002
 20
 4.23734645694600E+0002
 11
 2.06359156070400E+0002
 21
 4.23195475308800E+0002
  0
LINE
  8
0
 10
 2.06359156070400E+0002
 20
 4.23195475308800E+0002
 11
 2.06611601223100E+0002
 21
 4.22656742978200E+0002
  0
LINE
  8
0
 10
 2.06611601223100E+0002
 20
 4.22656742978200E+0002
 11
 2.06866910487200E+0002
 21
 4.22118458438400E+0002
  0
LINE
  8
0
 10
 2.06866910487200E+0002
 20
 4.22118458438400E+0002
 11
 2.07124674712500E+0002
 21
 4.21580631425000E+0002
  0
LINE
  8
0
 10
 2.07124674712500E+0002
 20
 4.21580631425000E+0002
 11
 2.07384484748800E+0002
 21
 4.21043271673600E+0002
  0
LINE
  8
0
 10
 2.07384484748800E+0002
 20
 4.21043271673600E+0002
 11
 2.07645931445900E+0002
 21
 4.20506388919800E+0002
  0
LINE
  8
0
 10
 2.07645931445900E+0002
 20
 4.20506388919800E+0002
 11
 2.07908605653600E+0002
 21
 4.19969992899200E+0002
  0
LINE
  8
0
 10
 2.07908605653600E+0002
 20
 4.19969992899200E+0002
 11
 2.08172098221700E+0002
 21
 4.19434093347400E+0002
  0
LINE
  8
0
 10
 2.08172098221700E+0002
 20
 4.19434093347400E+0002
 11
 2.08436000000000E+0002
 21
 4.18898700000000E+0002
  0
LINE
  8
0
 10
 2.08436000000000E+0002
 20
 4.18898700000000E+0002
 11
 2.08448617598515E+0002
 21
 4.18909786017172E+0002
  0
ARC
  8
0
 10
 2.13400000000000E+0002
 20
 3.68000000000000E+0002
 40
 5.11500000000000E+0001
 50
 1.53400000000000E+0001
 51
 9.55550000000000E+0001
  0
LINE
  8
0
 10
 2.62727677173807E+0002
 20
 3.81531547015649E+0002
 11
 2.63851000000000E+0002
 21
 3.76295300000000E+0002
  0
LINE
  8
0
 10
 2.63851000000000E+0002
 20
 3.76295300000000E+0002
 11
 2.64026889992900E+0002
 21
 3.75478403283100E+0002
  0
LINE
  8
0
 10
 2.64026889992900E+0002
 20
 3.75478403283100E+0002
 11
 2.64216911623200E+0002
 21
 3.74680447144800E+0002
  0
LINE
  8
0
 10
 2.64216911623200E+0002
 20
 3.74680447144800E+0002
 11
 2.64421085368300E+0002
 21
 3.73901203603700E+0002
  0
LINE
  8
0
 10
 2.64421085368300E+0002
 20
 3.73901203603700E+0002
 11
 2.64639431705600E+0002
 21
 3.73140444678400E+0002
  0
LINE
  8
0
 10
 2.64639431705600E+0002
 20
 3.73140444678400E+0002
 11
 2.64871971112500E+0002
 21
 3.72397942387500E+0002
  0
LINE
  8
0
 10
 2.64871971112500E+0002
 20
 3.72397942387500E+0002
 11
 2.65118724066400E+0002
 21
 3.71673468749600E+0002
  0
LINE
  8
0
 10
 2.65118724066400E+0002
 20
 3.71673468749600E+0002
 11
 2.65379711044700E+0002
 21
 3.70966795783300E+0002
  0
LINE
  8
0
 10
 2.65379711044700E+0002
 20
 3.70966795783300E+0002
 11
 2.65654952524800E+0002
 21
 3.70277695507200E+0002
  0
LINE
  8
0
 10
 2.65654952524800E+0002
 20
 3.70277695507200E+0002
 11
 2.65944468984100E+0002
 21
 3.69605939939900E+0002
  0
LINE
  8
0
 10
 2.65944468984100E+0002
 20
 3.69605939939900E+0002
 11
 2.66248280900000E+0002
 21
 3.68951301100000E+0002
  0
LINE
  8
0
 10
 2.66248280900000E+0002
 20
 3.68951301100000E+0002
 11
 2.66566408749900E+0002
 21
 3.68313551006100E+0002
  0
LINE
  8
0
 10
 2.66566408749900E+0002
 20
 3.68313551006100E+0002
 11
 2.66898873011200E+0002
 21
 3.67692461676800E+0002
  0
LINE
  8
0
 10
 2.66898873011200E+0002
 20
 3.67692461676800E+0002
 11
 2.67245694161300E+0002
 21
 3.67087805130700E+0002
  0
LINE
  8
0
 10
 2.67245694161300E+0002
 20
 3.67087805130700E+0002
 11
 2.67606892677600E+0002
 21
 3.66499353386400E+0002
  0
LINE
  8
0
 10
 2.67606892677600E+0002
 20
 3.66499353386400E+0002
 11
 2.67982489037500E+0002
 21
 3.65926878462500E+0002
  0
LINE
  8
0
 10
 2.67982489037500E+0002
 20
 3.65926878462500E+0002
 11
 2.68372503718400E+0002
 21
 3.65370152377600E+0002
  0
LINE
  8
0
 10
 2.68372503718400E+0002
 20
 3.65370152377600E+0002
 11
 2.68776957197700E+0002
 21
 3.64828947150300E+0002
  0
LINE
  8
0
 10
 2.68776957197700E+0002
 20
 3.64828947150300E+0002
 11
 2.69195869952800E+0002
 21
 3.64303034799200E+0002
  0
LINE
  8
0
 10
 2.69195869952800E+0002
 20
 3.64303034799200E+0002
 11
 2.69629262461100E+0002
 21
 3.63792187342900E+0002
  0
LINE
  8
0
 10
 2.69629262461100E+0002
 20
 3.63792187342900E+0002
 11
 2.70077155200000E+0002
 21
 3.63296176800000E+0002
  0
LINE
  8
0
 10
 2.70077155200000E+0002
 20
 3.63296176800000E+0002
 11
 2.70539568646900E+0002
 21
 3.62814775189100E+0002
  0
LINE
  8
0
 10
 2.70539568646900E+0002
 20
 3.62814775189100E+0002
 11
 2.71016523279200E+0002
 21
 3.62347754528800E+0002
  0
LINE
  8
0
 10
 2.71016523279200E+0002
 20
 3.62347754528800E+0002
 11
 2.71508039574300E+0002
 21
 3.61894886837700E+0002
  0
LINE
  8
0
 10
 2.71508039574300E+0002
 20
 3.61894886837700E+0002
 11
 2.72014138009600E+0002
 21
 3.61455944134400E+0002
  0
LINE
  8
0
 10
 2.72014138009600E+0002
 20
 3.61455944134400E+0002
 11
 2.72534839062500E+0002
 21
 3.61030698437500E+0002
  0
LINE
  8
0
 10
 2.72534839062500E+0002
 20
 3.61030698437500E+0002
 11
 2.73070163210400E+0002
 21
 3.60618921765600E+0002
  0
LINE
  8
0
 10
 2.73070163210400E+0002
 20
 3.60618921765600E+0002
 11
 2.73620130930700E+0002
 21
 3.60220386137300E+0002
  0
LINE
  8
0
 10
 2.73620130930700E+0002
 20
 3.60220386137300E+0002
 11
 2.74184762700800E+0002
 21
 3.59834863571200E+0002
  0
LINE
  8
0
 10
 2.74184762700800E+0002
 20
 3.59834863571200E+0002
 11
 2.74764078998100E+0002
 21
 3.59462126085900E+0002
  0
LINE
  8
0
 10
 2.74764078998100E+0002
 20
 3.59462126085900E+0002
 11
 2.75358100300000E+0002
 21
 3.59101945700000E+0002
  0
LINE
  8
0
 10
 2.75358100300000E+0002
 20
 3.59101945700000E+0002
 11
 2.75966847083900E+0002
 21
 3.58754094432100E+0002
  0
LINE
  8
0
 10
 2.75966847083900E+0002
 20
 3.58754094432100E+0002
 11
 2.76590339827200E+0002
 21
 3.58418344300800E+0002
  0
LINE
  8
0
 10
 2.76590339827200E+0002
 20
 3.58418344300800E+0002
 11
 2.77228599007300E+0002
 21
 3.58094467324700E+0002
  0
LINE
  8
0
 10
 2.77228599007300E+0002
 20
 3.58094467324700E+0002
 11
 2.77881645101600E+0002
 21
 3.57782235522400E+0002
  0
LINE
  8
0
 10
 2.77881645101600E+0002
 20
 3.57782235522400E+0002
 11
 2.78549498587500E+0002
 21
 3.57481420912500E+0002
  0
LINE
  8
0
 10
 2.78549498587500E+0002
 20
 3.57481420912500E+0002
 11
 2.79232179942400E+0002
 21
 3.57191795513600E+0002
  0
LINE
  8
0
 10
 2.79232179942400E+0002
 20
 3.57191795513600E+0002
 11
 2.79929709643700E+0002
 21
 3.56913131344300E+0002
  0
LINE
  8
0
 10
 2.79929709643700E+0002
 20
 3.56913131344300E+0002
 11
 2.80642108168800E+0002
 21
 3.56645200423200E+0002
  0
LINE
  8
0
 10
 2.80642108168800E+0002
 20
 3.56645200423200E+0002
 11
 2.81369395995100E+0002
 21
 3.56387774768900E+0002
  0
LINE
  8
0
 10
 2.81369395995100E+0002
 20
 3.56387774768900E+0002
 11
 2.82111593600000E+0002
 21
 3.56140626400000E+0002
  0
LINE
  8
0
 10
 2.82111593600000E+0002
 20
 3.56140626400000E+0002
 11
 2.82868721460900E+0002
 21
 3.55903527335100E+0002
  0
LINE
  8
0
 10
 2.82868721460900E+0002
 20
 3.55903527335100E+0002
 11
 2.83640800055200E+0002
 21
 3.55676249592800E+0002
  0
LINE
  8
0
 10
 2.83640800055200E+0002
 20
 3.55676249592800E+0002
 11
 2.84427849860300E+0002
 21
 3.55458565191700E+0002
  0
LINE
  8
0
 10
 2.84427849860300E+0002
 20
 3.55458565191700E+0002
 11
 2.85229891353600E+0002
 21
 3.55250246150400E+0002
  0
LINE
  8
0
 10
 2.85229891353600E+0002
 20
 3.55250246150400E+0002
 11
 2.86046945012500E+0002
 21
 3.55051064487500E+0002
  0
LINE
  8
0
 10
 2.86046945012500E+0002
 20
 3.55051064487500E+0002
 11
 2.86879031314400E+0002
 21
 3.54860792221600E+0002
  0
LINE
  8
0
 10
 2.86879031314400E+0002
 20
 3.54860792221600E+0002
 11
 2.87726170736700E+0002
 21
 3.54679201371300E+0002
  0
LINE
  8
0
 10
 2.87726170736700E+0002
 20
 3.54679201371300E+0002
 11
 2.88588383756800E+0002
 21
 3.54506063955200E+0002
  0
LINE
  8
0
 10
 2.88588383756800E+0002
 20
 3.54506063955200E+0002
 11
 2.89465690852100E+0002
 21
 3.54341151991900E+0002
  0
LINE
  8
0
 10
 2.89465690852100E+0002
 20
 3.54341151991900E+0002
 11
 2.90358112500000E+0002
 21
 3.54184237500000E+0002
  0
LINE
  8
0
 10
 2.90358112500000E+0002
 20
 3.54184237500000E+0002
 11
 2.91265669177900E+0002
 21
 3.54035092498100E+0002
  0
LINE
  8
0
 10
 2.91265669177900E+0002
 20
 3.54035092498100E+0002
 11
 2.92188381363200E+0002
 21
 3.53893489004800E+0002
  0
LINE
  8
0
 10
 2.92188381363200E+0002
 20
 3.53893489004800E+0002
 11
 2.93126269533300E+0002
 21
 3.53759199038700E+0002
  0
LINE
  8
0
 10
 2.93126269533300E+0002
 20
 3.53759199038700E+0002
 11
 2.94079354165600E+0002
 21
 3.53631994618400E+0002
  0
LINE
  8
0
 10
 2.94079354165600E+0002
 20
 3.53631994618400E+0002
 11
 2.95047655737500E+0002
 21
 3.53511647762500E+0002
  0
LINE
  8
0
 10
 2.95047655737500E+0002
 20
 3.53511647762500E+0002
 11
 2.96031194726400E+0002
 21
 3.53397930489600E+0002
  0
LINE
  8
0
 10
 2.96031194726400E+0002
 20
 3.53397930489600E+0002
 11
 2.97029991609700E+0002
 21
 3.53290614818300E+0002
  0
LINE
  8
0
 10
 2.97029991609700E+0002
 20
 3.53290614818300E+0002
 11
 2.98044066864800E+0002
 21
 3.53189472767200E+0002
  0
LINE
  8
0
 10
 2.98044066864800E+0002
 20
 3.53189472767200E+0002
 11
 2.99073440969100E+0002
 21
 3.53094276354900E+0002
  0
LINE
  8
0
 10
 2.99073440969100E+0002
 20
 3.53094276354900E+0002
 11
 3.00118134400000E+0002
 21
 3.53004797600000E+0002
  0
LINE
  8
0
 10
 3.00118134400000E+0002
 20
 3.53004797600000E+0002
 11
 3.01178167634900E+0002
 21
 3.52920808521100E+0002
  0
LINE
  8
0
 10
 3.01178167634900E+0002
 20
 3.52920808521100E+0002
 11
 3.02253561151200E+0002
 21
 3.52842081136800E+0002
  0
LINE
  8
0
 10
 3.02253561151200E+0002
 20
 3.52842081136800E+0002
 11
 3.03344335426300E+0002
 21
 3.52768387465700E+0002
  0
LINE
  8
0
 10
 3.03344335426300E+0002
 20
 3.52768387465700E+0002
 11
 3.04450510937600E+0002
 21
 3.52699499526400E+0002
  0
LINE
  8
0
 10
 3.04450510937600E+0002
 20
 3.52699499526400E+0002
 11
 3.05572108162500E+0002
 21
 3.52635189337500E+0002
  0
LINE
  8
0
 10
 3.05572108162500E+0002
 20
 3.52635189337500E+0002
 11
 3.06709147578400E+0002
 21
 3.52575228917600E+0002
  0
LINE
  8
0
 10
 3.06709147578400E+0002
 20
 3.52575228917600E+0002
 11
 3.07861649662700E+0002
 21
 3.52519390285300E+0002
  0
LINE
  8
0
 10
 3.07861649662700E+0002
 20
 3.52519390285300E+0002
 11
 3.09029634892800E+0002
 21
 3.52467445459200E+0002
  0
LINE
  8
0
 10
 3.09029634892800E+0002
 20
 3.52467445459200E+0002
 11
 3.10213123746100E+0002
 21
 3.52419166457900E+0002
  0
LINE
  8
0
 10
 3.10213123746100E+0002
 20
 3.52419166457900E+0002
 11
 3.11412136700000E+0002
 21
 3.52374325300000E+0002
  0
LINE
  8
0
 10
 3.11412136700000E+0002
 20
 3.52374325300000E+0002
 11
 3.12626694231900E+0002
 21
 3.52332694004100E+0002
  0
LINE
  8
0
 10
 3.12626694231900E+0002
 20
 3.52332694004100E+0002
 11
 3.13856816819200E+0002
 21
 3.52294044588800E+0002
  0
LINE
  8
0
 10
 3.13856816819200E+0002
 20
 3.52294044588800E+0002
 11
 3.15102524939300E+0002
 21
 3.52258149072700E+0002
  0
LINE
  8
0
 10
 3.15102524939300E+0002
 20
 3.52258149072700E+0002
 11
 3.16363839069600E+0002
 21
 3.52224779474400E+0002
  0
LINE
  8
0
 10
 3.16363839069600E+0002
 20
 3.52224779474400E+0002
 11
 3.17640779687500E+0002
 21
 3.52193707812500E+0002
  0
LINE
  8
0
 10
 3.17640779687500E+0002
 20
 3.52193707812500E+0002
 11
 3.18933367270400E+0002
 21
 3.52164706105600E+0002
  0
LINE
  8
0
 10
 3.18933367270400E+0002
 20
 3.52164706105600E+0002
 11
 3.20241622295700E+0002
 21
 3.52137546372300E+0002
  0
LINE
  8
0
 10
 3.20241622295700E+0002
 20
 3.52137546372300E+0002
 11
 3.21565565240800E+0002
 21
 3.52112000631200E+0002
  0
LINE
  8
0
 10
 3.21565565240800E+0002
 20
 3.52112000631200E+0002
 11
 3.22905216583100E+0002
 21
 3.52087840900900E+0002
  0
LINE
  8
0
 10
 3.22905216583100E+0002
 20
 3.52087840900900E+0002
 11
 3.24260596800000E+0002
 21
 3.52064839200000E+0002
  0
LINE
  8
0
 10
 3.24260596800000E+0002
 20
 3.52064839200000E+0002
 11
 3.25631726368900E+0002
 21
 3.52042767547100E+0002
  0
LINE
  8
0
 10
 3.25631726368900E+0002
 20
 3.52042767547100E+0002
 11
 3.27018625767200E+0002
 21
 3.52021397960800E+0002
  0
LINE
  8
0
 10
 3.27018625767200E+0002
 20
 3.52021397960800E+0002
 11
 3.28421315472300E+0002
 21
 3.52000502459700E+0002
  0
LINE
  8
0
 10
 3.28421315472300E+0002
 20
 3.52000502459700E+0002
 11
 3.29839815961600E+0002
 21
 3.51979853062400E+0002
  0
LINE
  8
0
 10
 3.29839815961600E+0002
 20
 3.51979853062400E+0002
 11
 3.31274147712500E+0002
 21
 3.51959221787500E+0002
  0
LINE
  8
0
 10
 3.31274147712500E+0002
 20
 3.51959221787500E+0002
 11
 3.32724331202400E+0002
 21
 3.51938380653600E+0002
  0
LINE
  8
0
 10
 3.32724331202400E+0002
 20
 3.51938380653600E+0002
 11
 3.34190386908700E+0002
 21
 3.51917101679300E+0002
  0
LINE
  8
0
 10
 3.34190386908700E+0002
 20
 3.51917101679300E+0002
 11
 3.35672335308800E+0002
 21
 3.51895156883200E+0002
  0
LINE
  8
0
 10
 3.35672335308800E+0002
 20
 3.51895156883200E+0002
 11
 3.37170196880100E+0002
 21
 3.51872318283900E+0002
  0
LINE
  8
0
 10
 3.37170196880100E+0002
 20
 3.51872318283900E+0002
 11
 3.38683992100000E+0002
 21
 3.51848357900000E+0002
  0
LINE
  8
0
 10
 3.38683992100000E+0002
 20
 3.51848357900000E+0002
 11
 3.40213741445900E+0002
 21
 3.51823047750100E+0002
  0
LINE
  8
0
 10
 3.40213741445900E+0002
 20
 3.51823047750100E+0002
 11
 3.41759465395200E+0002
 21
 3.51796159852800E+0002
  0
LINE
  8
0
 10
 3.41759465395200E+0002
 20
 3.51796159852800E+0002
 11
 3.43321184425300E+0002
 21
 3.51767466226700E+0002
  0
LINE
  8
0
 10
 3.43321184425300E+0002
 20
 3.51767466226700E+0002
 11
 3.44898919013600E+0002
 21
 3.51736738890400E+0002
  0
LINE
  8
0
 10
 3.44898919013600E+0002
 20
 3.51736738890400E+0002
 11
 3.46492689637500E+0002
 21
 3.51703749862500E+0002
  0
LINE
  8
0
 10
 3.46492689637500E+0002
 20
 3.51703749862500E+0002
 11
 3.48102516774400E+0002
 21
 3.51668271161600E+0002
  0
LINE
  8
0
 10
 3.48102516774400E+0002
 20
 3.51668271161600E+0002
 11
 3.49728420901700E+0002
 21
 3.51630074806300E+0002
  0
LINE
  8
0
 10
 3.49728420901700E+0002
 20
 3.51630074806300E+0002
 11
 3.51370422496800E+0002
 21
 3.51588932815200E+0002
  0
LINE
  8
0
 10
 3.51370422496800E+0002
 20
 3.51588932815200E+0002
 11
 3.53028542037100E+0002
 21
 3.51544617206900E+0002
  0
LINE
  8
0
 10
 3.53028542037100E+0002
 20
 3.51544617206900E+0002
 11
 3.54702800000000E+0002
 21
 3.51496900000000E+0002
  0
LINE
  8
0
 10
 3.28452800000000E+0002
 20
 5.07726200000000E+0002
 11
 3.28476363157474E+0002
 21
 5.07721279537471E+0002
  0
ARC
  8
0
 10
 3.06500000000000E+0002
 20
 5.22350000000000E+0002
 40
 2.64000000000000E+0001
 50
 3.26350000000000E+0002
 51
 5.28830000000000E+0002
  0
LINE
  8
0
 10
 2.80600102545911E+0002
 20
 5.27464226419279E+0002
 11
 2.98768000000000E+0002
 21
 5.30063700000000E+0002
  0
LINE
  8
0
 10
 2.98768000000000E+0002
 20
 5.30063700000000E+0002
 11
 2.98768000000000E+0002
 21
 5.17212000000000E+0002
  0
LINE
  8
0
 10
 2.98768000000000E+0002
 20
 5.17212000000000E+0002
 11
 2.80775000000000E+0002
 21
 5.14641600000000E+0002
  0
LINE
  8
0
 10
 2.80775000000000E+0002
 20
 5.14641600000000E+0002
 11
 2.80775000000000E+0002
 21
 4.99219400000000E+0002
  0
LINE
  8
0
 10
 2.80775000000000E+0002
 20
 4.99219400000000E+0002
 11
 2.90620000000000E+0002
 21
 5.00625800000000E+0002
  0
LINE
  8
0
 10
 2.90620000000000E+0002
 20
 5.00625800000000E+0002
 11
 2.98412083388786E+0002
 21
 5.06533977465249E+0002
  0
ARC
  8
0
 10
 3.14300000000000E+0002
 20
 4.85450000000000E+0002
 40
 2.64000000000000E+0001
 50
 5.76250000000000E+0001
 51
 1.27000000000000E+0002
  0
LINE
  8
0
 10
 1.55625000000000E+0002
 20
 1.71875200000000E+0002
 11
 1.55600000000000E+0002
 21
 1.71900000000000E+0002
  0
ARC
  8
0
 10
 1.76250000000000E+0002
 20
 1.71900000000000E+0002
 40
 2.06500000000000E+0001
 50
 1.43135000000000E+0002
 51
 1.80000000000000E+0002
  0
LINE
  8
0
 10
 1.59728940962591E+0002
 20
 1.84288587824383E+0002
 11
 1.63879933705985E+0002
 21
 1.89739911608145E+0002
  0
ARC
  8
0
 10
 1.14400000000000E+0002
 20
 2.26850000000000E+0002
 40
 6.18500000000000E+0001
 50
 3.23130000000000E+0002
 51
 3.36485000000000E+0002
  0
LINE
  8
0
 10
 1.71113706995611E+0002
 20
 2.02172521627688E+0002
 11
 1.98278961744045E+0002
 21
 2.64663989534461E+0002
  0
ARC
  8
0
 10
 2.14050000000000E+0002
 20
 2.57800000000000E+0002
 40
 1.72000000000000E+0001
 50
 9.00000000000000E+0001
 51
 1.56480000000000E+0002
  0
LINE
  8
0
 10
 2.14050000000000E+0002
 20
 2.75000000000000E+0002
 11
 3.85950000000000E+0002
 21
 2.75000000000000E+0002
  0
ARC
  8
0
 10
 3.85950000000000E+0002
 20
 2.57800000000000E+0002
 40
 1.72000000000000E+0001
 50
 2.35200000000000E+0001
 51
 9.00000000000000E+0001
  0
LINE
  8
0
 10
 4.01721038255955E+0002
 20
 2.64663989534461E+0002
 11
 4.28886293004389E+0002
 21
 2.02172521627688E+0002
  0
ARC
  8
0
 10
 4.85600000000000E+0002
 20
 2.26850000000000E+0002
 40
 6.18500000000000E+0001
 50
 2.03515000000000E+0002
 51
 2.16870000000000E+0002
  0
LINE
  8
0
 10
 4.36120066294015E+0002
 20
 1.89739911608145E+0002
 11
 4.40229977919859E+0002
 21
 1.84260029440133E+0002
  0
ARC
  8
0
 10
 4.23750000000000E+0002
 20
 1.71900000000000E+0002
 40
 2.06000000000000E+0001
 50
 0.00000000000000E+0000
 51
 3.68700000000000E+0001
  0
LINE
  8
0
 10
 4.44350000000000E+0002
 20
 1.71900000000000E+0002
 11
 4.44400000000000E+0002
 21
 1.27200000000000E+0002
  0
ARC
  8
0
 10
 4.27200000000000E+0002
 20
 1.27200000000000E+0002
 40
 1.72000000000000E+0001
 50
 2.69995000000000E+0002
 51
 3.60000000000000E+0002
  0
LINE
  8
0
 10
 4.27198499016845E+0002
 20
 1.10000000065492E+0002
 11
 1.72800000000000E+0002
 21
 1.10000000000000E+0002
  0
ARC
  8
0
 10
 1.72800000000000E+0002
 20
 1.27200000000000E+0002
 40
 1.72000000000000E+0001
 50
 1.80000000000000E+0002
 51
 2.70000000000000E+0002
  0
LINE
  8
0
 10
 1.55600000000000E+0002
 20
 1.27200000000000E+0002
 11
 1.55625000000000E+0002
 21
 1.71875200000000E+0002
  0
LINE
  8
0
 10
 1.88281000000000E+0002
 20
 1.99375200000000E+0002
 11
 4.11719000000000E+0002
 21
 1.99375200000000E+0002
  0
LINE
  8
0
 10
 4.11719000000000E+0002
 20
 1.99375200000000E+0002
 11
 3.88081384689199E+0002
 21
 2.53682527472195E+0002
  0
ARC
  8
0
 10
 3.81800000000000E+0002
 20
 2.50950000000000E+0002
 40
 6.85000000000000E+0000
 50
 2.35100000000000E+0001
 51
 9.00000000000000E+0001
  0
LINE
  8
0
 10
 3.81800000000000E+0002
 20
 2.57800000000000E+0002
 11
 2.18200000000000E+0002
 21
 2.57850000000000E+0002
  0
ARC
  8
0
 10
 2.18200000000000E+0002
 20
 2.50950000000000E+0002
 40
 6.90000000000000E+0000
 50
 9.00000000000000E+0001
 51
 1.56460000000000E+0002
  0
LINE
  8
0
 10
 2.11874207846235E+0002
 20
 2.53705785482829E+0002
 11
 1.88281000000000E+0002
 21
 1.99375200000000E+0002
  0
CIRCLE
  8
0
 10
 1.93450000000000E+0002
 20
 1.61550000000000E+0002
 40
 2.06500000000000E+0001
  0
LINE
  8
0
 10
 4.27200000000000E+0002
 20
 1.61550400000000E+0002
 11
 4.27200000000000E+0002
 21
 1.61550000000000E+0002
  0
CIRCLE
  8
0
 10
 4.06550000000000E+0002
 20
 1.61550000000000E+0002
 40
 2.06500000000000E+0001
  0
LINE
  8
0
 10
 1.72813000000000E+0002
 20
 1.03124900000000E+0002
 11
 2.14063000000000E+0002
 21
 1.03124900000000E+0002
  0
LINE
  8
0
 10
 2.14063000000000E+0002
 20
 1.03124900000000E+0002
 11
 2.14050000000000E+0002
 21
 6.53000000000000E+0001
  0
ARC
  8
0
 10
 2.03750000000000E+0002
 20
 6.53000000000000E+0001
 40
 1.03000000000000E+0001
 50
 2.70000000000000E+0002
 51
 3.60000000000000E+0002
  0
LINE
  8
0
 10
 2.03750000000000E+0002
 20
 5.50000000000000E+0001
 11
 1.83100000000000E+0002
 21
 5.50000000000000E+0001
  0
ARC
  8
0
 10
 1.83100000000000E+0002
 20
 6.53000000000000E+0001
 40
 1.03000000000000E+0001
 50
 1.80005000000000E+0002
 51
 2.70000000000000E+0002
  0
LINE
  8
0
 10
 1.72800000039219E+0002
 20
 6.52991011554364E+0001
 11
 1.72813000000000E+0002
 21
 1.03124900000000E+0002
  0
LINE
  8
0
 10
 3.85937000000000E+0002
 20
 1.03124900000000E+0002
 11
 4.27188000000000E+0002
 21
 1.03124900000000E+0002
  0
LINE
  8
0
 10
 4.27188000000000E+0002
 20
 1.03124900000000E+0002
 11
 4.27200000000000E+0002
 21
 6.53000000000000E+0001
  0
ARC
  8
0
 10
 4.16900000000000E+0002
 20
 6.53000000000000E+0001
 40
 1.03000000000000E+0001
 50
 2.70000000000000E+0002
 51
 3.60000000000000E+0002
  0
LINE
  8
0
 10
 4.16900000000000E+0002
 20
 5.50000000000000E+0001
 11
 3.96250000000000E+0002
 21
 5.50000000000000E+0001
  0
ARC
  8
0
 10
 3.96250000000000E+0002
 20
 6.53000000000000E+0001
 40
 1.03000000000000E+0001
 50
 1.80000000000000E+0002
 51
 2.70000000000000E+0002
  0
LINE
  8
0
 10
 3.85950000000000E+0002
 20
 6.53000000000000E+0001
 11
 3.85937000000000E+0002
 21
 1.03124900000000E+0002
  0
ENDSEC
  0
EOF
