  0
SECTION
  2
HEADER
  9
$ACADVER
  1
AC1003
  9
$INSBASE
 10
0.0
 20
0.0
  9
$EXTMIN
 10
 0.00000000000000E+0000
 20
 0.00000000000000E+0000
  9
$EXTMAX
 10
 1.25000000000000E+0003
 20
 1.60000000000000E+0003
  9
$LIMMIN
 10
0.0
 20
0.0
  9
$LIMMAX
 10
410.0
 20
287.0
  9
$VIEWCTR
 10
227.0059616
 20
165.058879 
  9
$VIEWSIZE
 40
 1.60000000000000E+0003
9
$SNAPMODE
70
0
9
$SNAPUNIT
10
1
20
1
9
$GRIDMODE
70
0
9
$GRIDUNIT
10
1
20
1
9
$ORTHOMODE
70
0
9
$rEGENMODE
70
1
9
$FILLMODE
70
1
9
$DRAGMODE
70
2
9
$LTSCALE
40
25.0
9
$OSMODE
70
0
9
$ATTMODE
70
1
9
$TRACEWID
40
1.0
9
$TEXTSTYLE
7
STANDARD
9
$CLAYER
8
0
9
$CELTYPE
6
VONLAYER
9
$CECOLOR
62
256
9
$LUNITS
70
2
9
$LUPREC
70
2
9
$AXISMODE
70
0
9
$AXISUNIT
10
0
20
0
9
$SKETCHINC
40
1.0
9
$FILLETRAD
40
0.0
9
$AUNITS
70
0
9
$AUPREC
70
0
9
$MENU
1
ACAD
9
$ELEVATION
40
0.0
9
$THICKNESS
40
0.0
9
$VIEWDIR
10
0.0
20
0.0
30
1.0
9
$LIMCHECK
70
0
9
$BLIPMODE
70
1
9
$CHAMFERA
40
0.0
9
$CHAMFERB
40
0.0
9
$USRTIMER
70
1
9
$ANGBASE
50
0.0
9
$ANGDIR
70
0
9
$PDMODE
70
0
9
$PDSIZE
40
0.0
9
$PLINEWID
40
0.0
9
$COORDS
70
0
0
ENDSEC
0
SECTION
2
TABLES
0
TABLE
2
LTYPE
70
1
0
LTYPE
2
AUSGEZOGEN
70
64
3
Ausgezogene Linie
72
65
73
0
40
0.0
0
ENDTAB
0
TABLE
2
LAYER
70
1
0
LAYER
2
0
70
0
62
7
6
AUSGEZOGEN
0
ENDTAB
0
TABLE
2
STYLE
70
1
0
STYLE
2
STANDARD
70
0
40
0.0
41
1.0
50
0.0
71
0
42
3.5
3
txt
4

0
ENDTAB
0
TABLE
2
VIEW
70
0
0
ENDTAB
0
ENDSEC
0
SECTION
2
BLOCKS
0
ENDSEC
0
SECTION
2
ENTITIES
  0
ARC
  8
0
 10
 6.00000000000000E+0001
 20
 6.00000000000000E+0001
 40
 6.00000000000000E+0001
 50
 1.80000000000000E+0002
 51
 2.70000000000000E+0002
  0
LINE
  8
0
 10
 0.00000000000000E+0000
 20
 6.00000000000000E+0001
 11
 0.00000000000000E+0000
 21
 1.54000000000000E+0003
  0
ARC
  8
0
 10
 6.00000000000000E+0001
 20
 1.54000000000000E+0003
 40
 6.00000000000000E+0001
 50
 9.00000000000000E+0001
 51
 1.80000000000000E+0002
  0
LINE
  8
0
 10
 6.00000000000000E+0001
 20
 1.60000000000000E+0003
 11
 1.19000000000000E+0003
 21
 1.60000000000000E+0003
  0
ARC
  8
0
 10
 1.19000000000000E+0003
 20
 1.54000000000000E+0003
 40
 6.00000000000000E+0001
 50
 0.00000000000000E+0000
 51
 9.00000000000000E+0001
  0
LINE
  8
0
 10
 1.25000000000000E+0003
 20
 1.54000000000000E+0003
 11
 1.25000000000000E+0003
 21
 6.00000000000000E+0001
  0
ARC
  8
0
 10
 1.19000000000000E+0003
 20
 6.00000000000000E+0001
 40
 6.00000000000000E+0001
 50
 2.70000000000000E+0002
 51
 3.60000000000000E+0002
  0
LINE
  8
0
 10
 1.19000000000000E+0003
 20
 0.00000000000000E+0000
 11
 6.00000000000000E+0001
 21
 0.00000000000000E+0000
  0
ARC
  8
0
 10
 6.00000000000000E+0001
 20
 6.00000000000000E+0001
 40
 4.50000000000000E+0001
 50
 1.80000000000000E+0002
 51
 2.70000000000000E+0002
  0
LINE
  8
0
 10
 1.50000000000000E+0001
 20
 6.00000000000000E+0001
 11
 1.50000000000000E+0001
 21
 1.54000000000000E+0003
  0
ARC
  8
0
 10
 6.00000000000000E+0001
 20
 1.54000000000000E+0003
 40
 4.50000000000000E+0001
 50
 9.00000000000000E+0001
 51
 1.80000000000000E+0002
  0
LINE
  8
0
 10
 6.00000000000000E+0001
 20
 1.58500000000000E+0003
 11
 1.19000000000000E+0003
 21
 1.58500000000000E+0003
  0
ARC
  8
0
 10
 1.19000000000000E+0003
 20
 1.54000000000000E+0003
 40
 4.50000000000000E+0001
 50
 0.00000000000000E+0000
 51
 9.00000000000000E+0001
  0
LINE
  8
0
 10
 1.23500000000000E+0003
 20
 1.54000000000000E+0003
 11
 1.23500000000000E+0003
 21
 6.00000000000000E+0001
  0
ARC
  8
0
 10
 1.19000000000000E+0003
 20
 6.00000000000000E+0001
 40
 4.50000000000000E+0001
 50
 2.70000000000000E+0002
 51
 3.60000000000000E+0002
  0
LINE
  8
0
 10
 1.19000000000000E+0003
 20
 1.50000000000000E+0001
 11
 6.00000000000000E+0001
 21
 1.50000000000000E+0001
  0
ARC
  8
0
 10
 6.00000000000000E+0001
 20
 6.00000000000000E+0001
 40
 2.50000000000000E+0001
 50
 1.80000000000000E+0002
 51
 2.70000000000000E+0002
  0
LINE
  8
0
 10
 3.50000000000000E+0001
 20
 6.00000000000000E+0001
 11
 3.50000000000000E+0001
 21
 1.54000000000000E+0003
  0
ARC
  8
0
 10
 6.00000000000000E+0001
 20
 1.54000000000000E+0003
 40
 2.50000000000000E+0001
 50
 9.00000000000000E+0001
 51
 1.80000000000000E+0002
  0
LINE
  8
0
 10
 6.00000000000000E+0001
 20
 1.56500000000000E+0003
 11
 1.19000000000000E+0003
 21
 1.56500000000000E+0003
  0
ARC
  8
0
 10
 1.19000000000000E+0003
 20
 1.54000000000000E+0003
 40
 2.50000000000000E+0001
 50
 0.00000000000000E+0000
 51
 9.00000000000000E+0001
  0
LINE
  8
0
 10
 1.21500000000000E+0003
 20
 1.54000000000000E+0003
 11
 1.21500000000000E+0003
 21
 6.00000000000000E+0001
  0
ARC
  8
0
 10
 1.19000000000000E+0003
 20
 6.00000000000000E+0001
 40
 2.50000000000000E+0001
 50
 2.70000000000000E+0002
 51
 3.60000000000000E+0002
  0
LINE
  8
0
 10
 1.19000000000000E+0003
 20
 3.50000000000000E+0001
 11
 6.00000000000000E+0001
 21
 3.50000000000000E+0001
  0
LINE
  8
0
 10
 1.60000000000000E+0002
 20
 1.37450000000000E+0003
 11
 2.20000000000000E+0002
 21
 1.37450000000000E+0003
  0
LINE
  8
0
 10
 2.20000000000000E+0002
 20
 1.37450000000000E+0003
 11
 2.20000000000000E+0002
 21
 1.24750000000000E+0003
  0
ARC
  8
0
 10
 8.20000000000000E+0002
 20
 1.24750000000000E+0003
 40
 6.00000000000000E+0002
 50
 1.80000000000000E+0002
 51
 2.34980000000000E+0002
  0
LINE
  8
0
 10
 4.75682596356454E+0002
 20
 7.56128932935437E+0002
 11
 6.65283559156423E+0002
 21
 6.23270229160785E+0002
  0
ARC
  8
0
 10
 4.30000000000000E+0002
 20
 2.87500000000000E+0002
 40
 4.10000000000000E+0002
 50
 0.00000000000000E+0000
 51
 5.49800000000000E+0001
  0
LINE
  8
0
 10
 8.40000000000000E+0002
 20
 2.87500000000000E+0002
 11
 8.85000509446390E+0002
 21
 2.99119081565201E+0002
  0
ARC
  8
0
 10
 8.88000000000000E+0002
 20
 2.87500000000000E+0002
 40
 1.20000000000000E+0001
 50
 3.26195000000000E+0002
 51
 4.64475000000000E+0002
  0
LINE
  8
0
 10
 8.97971231041917E+0002
 20
 2.80823582434515E+0002
 11
 8.10000000000000E+0002
 21
 1.49500000000000E+0002
  0
LINE
  8
0
 10
 8.10000000000000E+0002
 20
 1.49500000000000E+0002
 11
 7.22028768958083E+0002
 21
 2.80823582434515E+0002
  0
ARC
  8
0
 10
 7.32000000000000E+0002
 20
 2.87500000000000E+0002
 40
 1.20000000000000E+0001
 50
 7.55250000000000E+0001
 51
 2.13805000000000E+0002
  0
LINE
  8
0
 10
 7.34999490553610E+0002
 20
 2.99119081565201E+0002
 11
 7.80000000000000E+0002
 21
 2.87500000000000E+0002
  0
ARC
  8
0
 10
 4.30000000000000E+0002
 20
 2.87500000000000E+0002
 40
 3.50000000000000E+0002
 50
 0.00000000000000E+0000
 51
 5.49800000000000E+0001
  0
LINE
  8
0
 10
 6.30851818792069E+0002
 20
 5.74133122454328E+0002
 11
 4.41250855992099E+0002
 21
 7.06991826228981E+0002
  0
ARC
  8
0
 10
 8.20000000000000E+0002
 20
 1.24750000000000E+0003
 40
 6.60000000000000E+0002
 50
 1.80000000000000E+0002
 51
 2.34980000000000E+0002
  0
LINE
  8
0
 10
 1.60000000000000E+0002
 20
 1.24750000000000E+0003
 11
 1.60000000000000E+0002
 21
 1.37450000000000E+0003
  0
LINE
  8
0
 10
 4.10000000000000E+0002
 20
 1.31250000000000E+0003
 11
 3.64999490553610E+0002
 21
 1.30088091843480E+0003
  0
ARC
  8
0
 10
 3.62000000000000E+0002
 20
 1.31250000000000E+0003
 40
 1.20000000000000E+0001
 50
 1.46195000000000E+0002
 51
 2.84475000000000E+0002
  0
LINE
  8
0
 10
 3.52028768958084E+0002
 20
 1.31917641756549E+0003
 11
 4.40000000000000E+0002
 21
 1.45050000000000E+0003
  0
LINE
  8
0
 10
 4.40000000000000E+0002
 20
 1.45050000000000E+0003
 11
 5.27971231041916E+0002
 21
 1.31917641756549E+0003
  0
ARC
  8
0
 10
 5.18000000000000E+0002
 20
 1.31250000000000E+0003
 40
 1.20000000000000E+0001
 50
 2.55525000000000E+0002
 51
 3.93805000000000E+0002
  0
LINE
  8
0
 10
 5.15000509446390E+0002
 20
 1.30088091843480E+0003
 11
 4.70000000000000E+0002
 21
 1.31250000000000E+0003
  0
LINE
  8
0
 10
 4.70000000000000E+0002
 20
 1.31250000000000E+0003
 11
 4.70000000000000E+0002
 21
 1.24750000000000E+0003
  0
ARC
  8
0
 10
 8.20000000000000E+0002
 20
 1.24750000000000E+0003
 40
 3.50000000000000E+0002
 50
 1.80000000000000E+0002
 51
 2.34980000000000E+0002
  0
LINE
  8
0
 10
 6.19148181207931E+0002
 20
 9.60866877545672E+0002
 11
 8.08749144007901E+0002
 21
 8.28008173771019E+0002
  0
ARC
  8
0
 10
 4.30000000000000E+0002
 20
 2.87500000000000E+0002
 40
 6.60000000000000E+0002
 50
 0.00000000000000E+0000
 51
 5.49800000000000E+0001
  0
LINE
  8
0
 10
 1.09000000000000E+0003
 20
 2.87500000000000E+0002
 11
 1.09000000000000E+0003
 21
 2.25500000000000E+0002
  0
LINE
  8
0
 10
 1.09000000000000E+0003
 20
 2.25500000000000E+0002
 11
 1.03000000000000E+0003
 21
 2.25500000000000E+0002
  0
LINE
  8
0
 10
 1.03000000000000E+0003
 20
 2.25500000000000E+0002
 11
 1.03000000000000E+0003
 21
 2.87500000000000E+0002
  0
ARC
  8
0
 10
 4.30000000000000E+0002
 20
 2.87500000000000E+0002
 40
 6.00000000000000E+0002
 50
 0.00000000000000E+0000
 51
 5.49800000000000E+0001
  0
LINE
  8
0
 10
 7.74317403643546E+0002
 20
 7.78871067064563E+0002
 11
 5.84716440843577E+0002
 21
 9.11729770839215E+0002
  0
ARC
  8
0
 10
 8.20000000000000E+0002
 20
 1.24750000000000E+0003
 40
 4.10000000000000E+0002
 50
 1.80000000000000E+0002
 51
 2.34980000000000E+0002
  0
LINE
  8
0
 10
 4.10000000000000E+0002
 20
 1.24750000000000E+0003
 11
 4.10000000000000E+0002
 21
 1.31250000000000E+0003
  0
ENDSEC
  0
EOF
