  0
SECTION
  2
HEADER
  9
$ACADVER
  1
AC1003
  9
$INSBASE
 10
0.0
 20
0.0
  9
$EXTMIN
 10
 0.00000000000000E+0000
 20
 0.00000000000000E+0000
  9
$EXTMAX
 10
 1.25000000000000E+0003
 20
 1.60000000000000E+0003
  9
$LIMMIN
 10
0.0
 20
0.0
  9
$LIMMAX
 10
410.0
 20
287.0
  9
$VIEWCTR
 10
227.0059616
 20
165.058879 
  9
$VIEWSIZE
 40
 1.60000000000000E+0003
9
$SNAPMODE
70
0
9
$SNAPUNIT
10
1
20
1
9
$GRIDMODE
70
0
9
$GRIDUNIT
10
1
20
1
9
$ORTHOMODE
70
0
9
$rEGENMODE
70
1
9
$FILLMODE
70
1
9
$DRAGMODE
70
2
9
$LTSCALE
40
25.0
9
$OSMODE
70
0
9
$ATTMODE
70
1
9
$TRACEWID
40
1.0
9
$TEXTSTYLE
7
STANDARD
9
$CLAYER
8
0
9
$CELTYPE
6
VONLAYER
9
$CECOLOR
62
256
9
$LUNITS
70
2
9
$LUPREC
70
2
9
$AXISMODE
70
0
9
$AXISUNIT
10
0
20
0
9
$SKETCHINC
40
1.0
9
$FILLETRAD
40
0.0
9
$AUNITS
70
0
9
$AUPREC
70
0
9
$MENU
1
ACAD
9
$ELEVATION
40
0.0
9
$THICKNESS
40
0.0
9
$VIEWDIR
10
0.0
20
0.0
30
1.0
9
$LIMCHECK
70
0
9
$BLIPMODE
70
1
9
$CHAMFERA
40
0.0
9
$CHAMFERB
40
0.0
9
$USRTIMER
70
1
9
$ANGBASE
50
0.0
9
$ANGDIR
70
0
9
$PDMODE
70
0
9
$PDSIZE
40
0.0
9
$PLINEWID
40
0.0
9
$COORDS
70
0
0
ENDSEC
0
SECTION
2
TABLES
0
TABLE
2
LTYPE
70
1
0
LTYPE
2
AUSGEZOGEN
70
64
3
Ausgezogene Linie
72
65
73
0
40
0.0
0
ENDTAB
0
TABLE
2
LAYER
70
1
0
LAYER
2
0
70
0
62
7
6
AUSGEZOGEN
0
ENDTAB
0
TABLE
2
STYLE
70
1
0
STYLE
2
STANDARD
70
0
40
0.0
41
1.0
50
0.0
71
0
42
3.5
3
txt
4

0
ENDTAB
0
TABLE
2
VIEW
70
0
0
ENDTAB
0
ENDSEC
0
SECTION
2
BLOCKS
0
ENDSEC
0
SECTION
2
ENTITIES
  0
ARC
  8
0
 10
 1.19000000000000E+0003
 20
 6.00000000000000E+0001
 40
 6.00000000000000E+0001
 50
 2.70000000000000E+0002
 51
 3.60000000000000E+0002
  0
LINE
  8
0
 10
 1.25000000000000E+0003
 20
 6.00000000000000E+0001
 11
 1.25000000000000E+0003
 21
 1.54000000000000E+0003
  0
ARC
  8
0
 10
 1.19000000000000E+0003
 20
 1.54000000000000E+0003
 40
 6.00000000000000E+0001
 50
 0.00000000000000E+0000
 51
 9.00000000000000E+0001
  0
LINE
  8
0
 10
 1.19000000000000E+0003
 20
 1.60000000000000E+0003
 11
 6.00000000000000E+0001
 21
 1.60000000000000E+0003
  0
ARC
  8
0
 10
 6.00000000000000E+0001
 20
 1.54000000000000E+0003
 40
 6.00000000000000E+0001
 50
 9.00000000000000E+0001
 51
 1.80000000000000E+0002
  0
LINE
  8
0
 10
 0.00000000000000E+0000
 20
 1.54000000000000E+0003
 11
 0.00000000000000E+0000
 21
 6.00000000000000E+0001
  0
ARC
  8
0
 10
 6.00000000000000E+0001
 20
 6.00000000000000E+0001
 40
 6.00000000000000E+0001
 50
 1.80000000000000E+0002
 51
 2.70000000000000E+0002
  0
LINE
  8
0
 10
 6.00000000000000E+0001
 20
 0.00000000000000E+0000
 11
 1.19000000000000E+0003
 21
 0.00000000000000E+0000
  0
ARC
  8
0
 10
 1.19000000000000E+0003
 20
 6.00000000000000E+0001
 40
 4.50000000000000E+0001
 50
 2.70000000000000E+0002
 51
 3.60000000000000E+0002
  0
LINE
  8
0
 10
 1.23500000000000E+0003
 20
 6.00000000000000E+0001
 11
 1.23500000000000E+0003
 21
 1.54000000000000E+0003
  0
ARC
  8
0
 10
 1.19000000000000E+0003
 20
 1.54000000000000E+0003
 40
 4.50000000000000E+0001
 50
 0.00000000000000E+0000
 51
 9.00000000000000E+0001
  0
LINE
  8
0
 10
 1.19000000000000E+0003
 20
 1.58500000000000E+0003
 11
 6.00000000000000E+0001
 21
 1.58500000000000E+0003
  0
ARC
  8
0
 10
 6.00000000000000E+0001
 20
 1.54000000000000E+0003
 40
 4.50000000000000E+0001
 50
 9.00000000000000E+0001
 51
 1.80000000000000E+0002
  0
LINE
  8
0
 10
 1.50000000000000E+0001
 20
 1.54000000000000E+0003
 11
 1.50000000000000E+0001
 21
 6.00000000000000E+0001
  0
ARC
  8
0
 10
 6.00000000000000E+0001
 20
 6.00000000000000E+0001
 40
 4.50000000000000E+0001
 50
 1.80000000000000E+0002
 51
 2.70000000000000E+0002
  0
LINE
  8
0
 10
 6.00000000000000E+0001
 20
 1.50000000000000E+0001
 11
 1.19000000000000E+0003
 21
 1.50000000000000E+0001
  0
ARC
  8
0
 10
 1.19000000000000E+0003
 20
 6.00000000000000E+0001
 40
 2.50000000000000E+0001
 50
 2.70000000000000E+0002
 51
 3.60000000000000E+0002
  0
LINE
  8
0
 10
 1.21500000000000E+0003
 20
 6.00000000000000E+0001
 11
 1.21500000000000E+0003
 21
 1.54000000000000E+0003
  0
ARC
  8
0
 10
 1.19000000000000E+0003
 20
 1.54000000000000E+0003
 40
 2.50000000000000E+0001
 50
 0.00000000000000E+0000
 51
 9.00000000000000E+0001
  0
LINE
  8
0
 10
 1.19000000000000E+0003
 20
 1.56500000000000E+0003
 11
 6.00000000000000E+0001
 21
 1.56500000000000E+0003
  0
ARC
  8
0
 10
 6.00000000000000E+0001
 20
 1.54000000000000E+0003
 40
 2.50000000000000E+0001
 50
 9.00000000000000E+0001
 51
 1.80000000000000E+0002
  0
LINE
  8
0
 10
 3.50000000000000E+0001
 20
 1.54000000000000E+0003
 11
 3.50000000000000E+0001
 21
 6.00000000000000E+0001
  0
ARC
  8
0
 10
 6.00000000000000E+0001
 20
 6.00000000000000E+0001
 40
 2.50000000000000E+0001
 50
 1.80000000000000E+0002
 51
 2.70000000000000E+0002
  0
LINE
  8
0
 10
 6.00000000000000E+0001
 20
 3.50000000000000E+0001
 11
 1.19000000000000E+0003
 21
 3.50000000000000E+0001
  0
LINE
  8
0
 10
 7.05000000000000E+0002
 20
 1.37450000000000E+0003
 11
 6.45000000000000E+0002
 21
 1.37450000000000E+0003
  0
LINE
  8
0
 10
 6.45000000000000E+0002
 20
 1.37450000000000E+0003
 11
 6.45000000000000E+0002
 21
 1.31250000000000E+0003
  0
ARC
  8
0
 10
 2.45000000000000E+0002
 20
 1.31250000000000E+0003
 40
 4.00000000000000E+0002
 50
 3.06870000000000E+0002
 51
 3.60000000000000E+0002
  0
LINE
  8
0
 10
 4.85000571653065E+0002
 20
 9.92500428740597E+0002
 11
 4.72998756654584E+0002
 21
 9.83499067489202E+0002
  0
ARC
  8
0
 10
 9.95000000000000E+0002
 20
 2.87500000000000E+0002
 40
 8.70000000000000E+0002
 50
 1.26870000000000E+0002
 51
 1.80000000000000E+0002
  0
LINE
  8
0
 10
 1.25000000000000E+0002
 20
 2.87500000000000E+0002
 11
 7.99994905536102E+0001
 21
 2.99119081565201E+0002
  0
ARC
  8
0
 10
 7.70000000000000E+0001
 20
 2.87500000000000E+0002
 40
 1.20000000000000E+0001
 50
 7.55250000000000E+0001
 51
 2.13805000000000E+0002
  0
LINE
  8
0
 10
 6.70287689580835E+0001
 20
 2.80823582434515E+0002
 11
 1.55000000000000E+0002
 21
 1.49500000000000E+0002
  0
LINE
  8
0
 10
 1.55000000000000E+0002
 20
 1.49500000000000E+0002
 11
 2.42971231041917E+0002
 21
 2.80823582434515E+0002
  0
ARC
  8
0
 10
 2.33000000000000E+0002
 20
 2.87500000000000E+0002
 40
 1.20000000000000E+0001
 50
 3.26195000000000E+0002
 51
 4.64475000000000E+0002
  0
LINE
  8
0
 10
 2.30000509446390E+0002
 20
 2.99119081565201E+0002
 11
 1.85000000000000E+0002
 21
 2.87500000000000E+0002
  0
ARC
  8
0
 10
 9.95000000000000E+0002
 20
 2.87500000000000E+0002
 40
 8.10000000000000E+0002
 50
 1.26870000000000E+0002
 51
 1.80000000000000E+0002
  0
LINE
  8
0
 10
 5.08998842402543E+0002
 20
 9.35499131800292E+0002
 11
 5.21000657401025E+0002
 21
 9.44500493051686E+0002
  0
ARC
  8
0
 10
 2.45000000000000E+0002
 20
 1.31250000000000E+0003
 40
 4.60000000000000E+0002
 50
 3.06870000000000E+0002
 51
 3.60000000000000E+0002
  0
LINE
  8
0
 10
 7.05000000000000E+0002
 20
 1.31250000000000E+0003
 11
 7.05000000000000E+0002
 21
 1.37450000000000E+0003
  0
LINE
  8
0
 10
 9.15000000000000E+0002
 20
 1.37450000000000E+0003
 11
 8.55000000000000E+0002
 21
 1.37450000000000E+0003
  0
LINE
  8
0
 10
 8.55000000000000E+0002
 20
 1.37450000000000E+0003
 11
 8.55000000000000E+0002
 21
 1.31250000000000E+0003
  0
ARC
  8
0
 10
 2.45000000000000E+0002
 20
 1.31250000000000E+0003
 40
 6.10000000000000E+0002
 50
 3.06870000000000E+0002
 51
 3.60000000000000E+0002
  0
LINE
  8
0
 10
 6.11000871770924E+0002
 20
 8.24500653829410E+0002
 11
 5.98999056772443E+0002
 21
 8.15499292578016E+0002
  0
ARC
  8
0
 10
 9.95000000000000E+0002
 20
 2.87500000000000E+0002
 40
 6.60000000000000E+0002
 50
 1.26870000000000E+0002
 51
 1.80000000000000E+0002
  0
LINE
  8
0
 10
 3.35000000000000E+0002
 20
 2.87500000000000E+0002
 11
 2.89999490553610E+0002
 21
 2.99119081565201E+0002
  0
ARC
  8
0
 10
 2.87000000000000E+0002
 20
 2.87500000000000E+0002
 40
 1.20000000000000E+0001
 50
 7.55250000000000E+0001
 51
 2.13805000000000E+0002
  0
LINE
  8
0
 10
 2.77028768958083E+0002
 20
 2.80823582434515E+0002
 11
 3.65000000000000E+0002
 21
 1.49500000000000E+0002
  0
LINE
  8
0
 10
 3.65000000000000E+0002
 20
 1.49500000000000E+0002
 11
 4.52971231041916E+0002
 21
 2.80823582434515E+0002
  0
ARC
  8
0
 10
 4.43000000000000E+0002
 20
 2.87500000000000E+0002
 40
 1.20000000000000E+0001
 50
 3.26195000000000E+0002
 51
 4.64475000000000E+0002
  0
LINE
  8
0
 10
 4.40000509446390E+0002
 20
 2.99119081565201E+0002
 11
 3.95000000000000E+0002
 21
 2.87500000000000E+0002
  0
ARC
  8
0
 10
 9.95000000000000E+0002
 20
 2.87500000000000E+0002
 40
 6.00000000000000E+0002
 50
 1.26870000000000E+0002
 51
 1.80000000000000E+0002
  0
LINE
  8
0
 10
 6.34999142520402E+0002
 20
 7.67499356889105E+0002
 11
 6.47000957518884E+0002
 21
 7.76500718140499E+0002
  0
ARC
  8
0
 10
 2.45000000000000E+0002
 20
 1.31250000000000E+0003
 40
 6.70000000000000E+0002
 50
 3.06870000000000E+0002
 51
 3.60000000000000E+0002
  0
LINE
  8
0
 10
 9.15000000000000E+0002
 20
 1.31250000000000E+0003
 11
 9.15000000000000E+0002
 21
 1.37450000000000E+0003
  0
LINE
  8
0
 10
 1.12500000000000E+0003
 20
 1.31250000000000E+0003
 11
 1.17000050944639E+0003
 21
 1.30088091843480E+0003
  0
ARC
  8
0
 10
 1.17300000000000E+0003
 20
 1.31250000000000E+0003
 40
 1.20000000000000E+0001
 50
 2.55525000000000E+0002
 51
 3.93805000000000E+0002
  0
LINE
  8
0
 10
 1.18297123104192E+0003
 20
 1.31917641756549E+0003
 11
 1.09500000000000E+0003
 21
 1.45050000000000E+0003
  0
LINE
  8
0
 10
 1.09500000000000E+0003
 20
 1.45050000000000E+0003
 11
 1.00702876895808E+0003
 21
 1.31917641756549E+0003
  0
ARC
  8
0
 10
 1.01700000000000E+0003
 20
 1.31250000000000E+0003
 40
 1.20000000000000E+0001
 50
 1.46195000000000E+0002
 51
 2.84475000000000E+0002
  0
LINE
  8
0
 10
 1.01999949055361E+0003
 20
 1.30088091843480E+0003
 11
 1.06500000000000E+0003
 21
 1.31250000000000E+0003
  0
ARC
  8
0
 10
 2.45000000000000E+0002
 20
 1.31250000000000E+0003
 40
 8.20000000000000E+0002
 50
 3.06870000000000E+0002
 51
 3.60000000000000E+0002
  0
LINE
  8
0
 10
 7.37001171888783E+0002
 20
 6.56500878918223E+0002
 11
 7.24999356890302E+0002
 21
 6.47499517666829E+0002
  0
ARC
  8
0
 10
 9.95000000000000E+0002
 20
 2.87500000000000E+0002
 40
 4.50000000000000E+0002
 50
 1.26870000000000E+0002
 51
 1.80000000000000E+0002
  0
LINE
  8
0
 10
 5.45000000000000E+0002
 20
 2.87500000000000E+0002
 11
 5.45000000000000E+0002
 21
 2.25500000000000E+0002
  0
LINE
  8
0
 10
 5.45000000000000E+0002
 20
 2.25500000000000E+0002
 11
 6.05000000000000E+0002
 21
 2.25500000000000E+0002
  0
LINE
  8
0
 10
 6.05000000000000E+0002
 20
 2.25500000000000E+0002
 11
 6.05000000000000E+0002
 21
 2.87500000000000E+0002
  0
ARC
  8
0
 10
 9.95000000000000E+0002
 20
 2.87500000000000E+0002
 40
 3.90000000000000E+0002
 50
 1.26870000000000E+0002
 51
 1.80000000000000E+0002
  0
LINE
  8
0
 10
 7.60999442638262E+0002
 20
 5.99499581977918E+0002
 11
 7.73001257636743E+0002
 21
 6.08500943229312E+0002
  0
ARC
  8
0
 10
 2.45000000000000E+0002
 20
 1.31250000000000E+0003
 40
 8.80000000000000E+0002
 50
 3.06870000000000E+0002
 51
 3.60000000000000E+0002
  0
ENDSEC
  0
EOF
