  0
SECTION
  2
HEADER
  9
$ACADVER
  1
AC1003
  9
$INSBASE
 10
0.0
 20
0.0
  9
$EXTMIN
 10
-1.14000200000000E+0002
 20
 1.32500000000000E+0002
  9
$EXTMAX
 10
 1.64000200000000E+0002
 20
 3.51000000000000E+0002
  9
$LIMMIN
 10
0.0
 20
0.0
  9
$LIMMAX
 10
410.0
 20
287.0
  9
$VIEWCTR
 10
227.0059616
 20
165.058879 
  9
$VIEWSIZE
 40
 2.78000400000000E+0002
9
$SNAPMODE
70
0
9
$SNAPUNIT
10
1
20
1
9
$GRIDMODE
70
0
9
$GRIDUNIT
10
1
20
1
9
$ORTHOMODE
70
0
9
$rEGENMODE
70
1
9
$FILLMODE
70
1
9
$DRAGMODE
70
2
9
$LTSCALE
40
25.0
9
$OSMODE
70
0
9
$ATTMODE
70
1
9
$TRACEWID
40
1.0
9
$TEXTSTYLE
7
STANDARD
9
$CLAYER
8
0
9
$CELTYPE
6
VONLAYER
9
$CECOLOR
62
256
9
$LUNITS
70
2
9
$LUPREC
70
2
9
$AXISMODE
70
0
9
$AXISUNIT
10
0
20
0
9
$SKETCHINC
40
1.0
9
$FILLETRAD
40
0.0
9
$AUNITS
70
0
9
$AUPREC
70
0
9
$MENU
1
ACAD
9
$ELEVATION
40
0.0
9
$THICKNESS
40
0.0
9
$VIEWDIR
10
0.0
20
0.0
30
1.0
9
$LIMCHECK
70
0
9
$BLIPMODE
70
1
9
$CHAMFERA
40
0.0
9
$CHAMFERB
40
0.0
9
$USRTIMER
70
1
9
$ANGBASE
50
0.0
9
$ANGDIR
70
0
9
$PDMODE
70
0
9
$PDSIZE
40
0.0
9
$PLINEWID
40
0.0
9
$COORDS
70
0
0
ENDSEC
0
SECTION
2
TABLES
0
TABLE
2
LTYPE
70
1
0
LTYPE
2
AUSGEZOGEN
70
64
3
Ausgezogene Linie
72
65
73
0
40
0.0
0
ENDTAB
0
TABLE
2
LAYER
70
1
0
LAYER
2
0
70
0
62
7
6
AUSGEZOGEN
0
ENDTAB
0
TABLE
2
STYLE
70
1
0
STYLE
2
STANDARD
70
0
40
0.0
41
1.0
50
0.0
71
0
42
3.5
3
txt
4

0
ENDTAB
0
TABLE
2
VIEW
70
0
0
ENDTAB
0
ENDSEC
0
SECTION
2
BLOCKS
0
ENDSEC
0
SECTION
2
ENTITIES
  0
ARC
  8
0
 10
 2.18224200000000E+0002
 20
 6.60517100000000E+0002
 40
 4.83399800000000E+0002
 50
 2.30000000000000E+0002
 51
 2.39000000000000E+0002
  0
LINE
  8
0
 10
-9.24992019649511E+0001
 20
 2.90211369405175E+0002
 11
-1.00709548860072E+0002
 21
 2.97100186418658E+0002
  0
ARC
  8
0
 10
-7.44187000000000E+0001
 20
 3.28432400000000E+0002
 40
 4.09013000000000E+0001
 50
 2.00000000000000E+0002
 51
 2.30000000000000E+0002
  0
LINE
  8
0
 10
-1.12853349790550E+0002
 20
 3.14443331511794E+0002
 11
-1.13167843582825E+0002
 21
 3.15307972183833E+0002
  0
ARC
  8
0
 10
-1.00198300000000E+0002
 20
 3.20028500000000E+0002
 40
 1.38019000000000E+0001
 50
 1.20000000000000E+0002
 51
 2.00000000000000E+0002
  0
LINE
  8
0
 10
-1.07099250000000E+0002
 20
 3.31981296020492E+0002
 11
-1.07099350000000E+0002
 21
 3.31981363406569E+0002
  0
ARC
  8
0
 10
-9.57702000000000E+0001
 20
 3.12358700000000E+0002
 40
 2.26583000000000E+0001
 50
 9.49981400000000E+0001
 51
 1.20000000000000E+0002
  0
LINE
  8
0
 10
-9.77442682046792E+0001
 20
 3.34930842424087E+0002
 11
-9.31412774414515E+0001
 21
 3.35296213108716E+0002
  0
ARC
  8
0
 10
-9.87528000000000E+0001
 20
 3.99460200000000E+0002
 40
 6.44089000000000E+0001
 50
 2.74998140000000E+0002
 51
 2.90000000000000E+0002
  0
LINE
  8
0
 10
-7.67236587905513E+0001
 20
 3.38935631957062E+0002
 11
-6.46190000000000E+0001
 21
 3.43341400000000E+0002
  0
LINE
  8
0
 10
-6.46190000000000E+0001
 20
 3.43341400000000E+0002
 11
-6.46187968417817E+0001
 21
 3.43341455208588E+0002
  0
ARC
  8
0
 10
-3.31486000000000E+0001
 20
 2.56877800000000E+0002
 40
 9.20127000000000E+0001
 50
 1.03500000000000E+0002
 51
 1.10000000000000E+0002
  0
LINE
  8
0
 10
-5.46285382308643E+0001
 20
 3.46348181774575E+0002
 11
-3.67345000000000E+0001
 21
 3.50644100000000E+0002
  0
LINE
  8
0
 10
-3.67345000000000E+0001
 20
 3.50644100000000E+0002
 11
-3.67343964881190E+0001
 21
 3.50644074840579E+0002
  0
ARC
  8
0
 10
-3.37272000000000E+0001
 20
 3.38118200000000E+0002
 40
 1.28818000000000E+0001
 50
 2.90000000000000E+0001
 51
 1.03500000000000E+0002
  0
LINE
  8
0
 10
-2.24605238565717E+0001
 20
 3.44363420566089E+0002
 11
-2.24606000000000E+0001
 21
 3.44363700000000E+0002
  0
LINE
  8
0
 10
-2.24606000000000E+0001
 20
 3.44363700000000E+0002
 11
-2.06763000000000E+0001
 21
 3.41144500000000E+0002
  0
LINE
  8
0
 10
-2.06763000000000E+0001
 20
 3.41144500000000E+0002
 11
-2.06762380717141E+0001
 21
 3.41144489716955E+0002
  0
ARC
  8
0
 10
-1.50429000000000E+0001
 20
 3.44267100000000E+0002
 40
 6.44090000000000E+0000
 50
 2.09000000000000E+0002
 51
 2.44000000000000E+0002
  0
LINE
  8
0
 10
-1.78664047193538E+0001
 20
 3.38478057427192E+0002
 11
-1.78666000000000E+0001
 21
 3.38478100000000E+0002
  0
LINE
  8
0
 10
-1.78666000000000E+0001
 20
 3.38478100000000E+0002
 11
 5.65637000000000E+0001
 21
 3.02175900000000E+0002
  0
LINE
  8
0
 10
 5.65637000000000E+0001
 20
 3.02175900000000E+0002
 11
 5.65638311110705E+0001
 21
 3.02176006733959E+0002
  0
ARC
  8
0
 10
 7.10847000000000E+0001
 20
 3.31948200000000E+0002
 40
 3.31246000000000E+0001
 50
 2.44000000000000E+0002
 51
 2.70000000000000E+0002
  0
LINE
  8
0
 10
 7.10847000000000E+0001
 20
 2.98823600000000E+0002
 11
 7.10847000000000E+0001
 21
 2.98823400000000E+0002
  0
LINE
  8
0
 10
 7.10847000000000E+0001
 20
 2.98823400000000E+0002
 11
 7.10847000000000E+0001
 21
 2.98823400000000E+0002
  0
ARC
  8
0
 10
 7.10847000000000E+0001
 20
 2.80420900000000E+0002
 40
 1.84025000000000E+0001
 50
 3.80000000000000E+0001
 51
 9.00000000000000E+0001
  0
LINE
  8
0
 10
 8.55860678932477E+0001
 20
 2.91750610299680E+0002
 11
 8.72853000000000E+0001
 21
 2.89575500000000E+0002
  0
LINE
  8
0
 10
 8.72853000000000E+0001
 20
 2.89575500000000E+0002
 11
 8.72855004629760E+0001
 21
 2.89575512254044E+0002
  0
ARC
  8
0
 10
 9.59864000000000E+0001
 20
 2.96373400000000E+0002
 40
 1.10416000000000E+0001
 50
 2.18000000000000E+0002
 51
 2.72000000000000E+0002
  0
LINE
  8
0
 10
 9.63717462827903E+0001
 20
 2.85338526244386E+0002
 11
 9.63716000000000E+0001
 21
 2.85338700000000E+0002
  0
LINE
  8
0
 10
 9.63716000000000E+0001
 20
 2.85338700000000E+0002
 11
 9.72910000000000E+0001
 21
 2.85370700000000E+0002
  0
LINE
  8
0
 10
 9.72910000000000E+0001
 20
 2.85370700000000E+0002
 11
 9.72913158316889E+0001
 21
 2.85370676377747E+0002
  0
ARC
  8
0
 10
 9.75161000000000E+0001
 20
 2.78933700000000E+0002
 40
 6.44090000000000E+0000
 50
 5.40000000000000E+0001
 51
 9.20000000000000E+0001
  0
LINE
  8
0
 10
 1.01301966031490E+0002
 20
 2.84144497559070E+0002
 11
 1.01302200000000E+0002
 21
 2.84144500000000E+0002
  0
LINE
  8
0
 10
 1.01302200000000E+0002
 20
 2.84144500000000E+0002
 11
 1.04279500000000E+0002
 21
 2.81980900000000E+0002
  0
LINE
  8
0
 10
 1.04279500000000E+0002
 20
 2.81980900000000E+0002
 11
 1.04279440418058E+0002
 21
 2.81981189991619E+0002
  0
ARC
  8
0
 10
-1.66139100000000E+0002
 20
-9.02180000000000E+0001
 40
 4.60063500000000E+0002
 50
 4.60000000000000E+0001
 51
 5.40000000000000E+0001
  0
LINE
  8
0
 10
 1.53447861217663E+0002
 20
 2.40723986233101E+0002
 11
 1.53448000000000E+0002
 21
 2.40723900000000E+0002
  0
LINE
  8
0
 10
 1.53448000000000E+0002
 20
 2.40723900000000E+0002
 11
 1.60066800000000E+0002
 21
 2.34332100000000E+0002
  0
LINE
  8
0
 10
 1.60066800000000E+0002
 20
 2.34332100000000E+0002
 11
 1.60066850196579E+0002
 21
 2.34332491440002E+0002
  0
ARC
  8
0
 10
 1.51118400000000E+0002
 20
 2.25066100000000E+0002
 40
 1.28818000000000E+0001
 50
 3.36000000000000E+0002
 51
 4.06000000000000E+0002
  0
LINE
  8
0
 10
 1.62886509876260E+0002
 20
 2.19826599911226E+0002
 11
 1.62886400000000E+0002
 21
 2.19826700000000E+0002
  0
LINE
  8
0
 10
 1.62886400000000E+0002
 20
 2.19826700000000E+0002
 11
 1.62138000000000E+0002
 21
 2.18145400000000E+0002
  0
LINE
  8
0
 10
 1.62138000000000E+0002
 20
 2.18145400000000E+0002
 11
 1.62137909876260E+0002
 21
 2.18145499911226E+0002
  0
ARC
  8
0
 10
 1.50369800000000E+0002
 20
 2.23385000000000E+0002
 40
 1.28818000000000E+0001
 50
 2.76500000000000E+0002
 51
 3.36000000000000E+0002
  0
LINE
  8
0
 10
 1.51828061159115E+0002
 20
 2.10586006069545E+0002
 11
 1.51828200000000E+0002
 21
 2.10586000000000E+0002
  0
LINE
  8
0
 10
 1.51828200000000E+0002
 20
 2.10586000000000E+0002
 11
 1.48171600000000E+0002
 21
 2.10169200000000E+0002
  0
LINE
  8
0
 10
 1.48171600000000E+0002
 20
 2.10169200000000E+0002
 11
 1.48171510997909E+0002
 21
 2.10169111496276E+0002
  0
ARC
  8
0
 10
 1.45255000000000E+0002
 20
 2.35767000000000E+0002
 40
 2.57635000000000E+0001
 50
 2.63000000000000E+0002
 51
 2.76500000000000E+0002
  0
LINE
  8
0
 10
 1.42115219171181E+0002
 20
 2.10195537222189E+0002
 11
 1.42115100000000E+0002
 21
 2.10195800000000E+0002
  0
LINE
  8
0
 10
 1.42115100000000E+0002
 20
 2.10195800000000E+0002
 11
 1.38462000000000E+0002
 21
 2.10644300000000E+0002
  0
LINE
  8
0
 10
 1.38462000000000E+0002
 20
 2.10644300000000E+0002
 11
 1.38462104067768E+0002
 21
 2.10644212198495E+0002
  0
ARC
  8
0
 10
 1.38293900000000E+0002
 20
 2.09274300000000E+0002
 40
 1.38020000000000E+0000
 50
 8.30000000000000E+0001
 51
 2.40000000000000E+0002
  0
LINE
  8
0
 10
 1.37603800000000E+0002
 20
 2.08079011737697E+0002
 11
 1.37603800000000E+0002
 21
 2.08079200000000E+0002
  0
LINE
  8
0
 10
 1.37603800000000E+0002
 20
 2.08079200000000E+0002
 11
 1.43181800000000E+0002
 21
 2.04858700000000E+0002
  0
LINE
  8
0
 10
 1.43181800000000E+0002
 20
 2.04858700000000E+0002
 11
 1.43181900000000E+0002
 21
 2.04858572945301E+0002
  0
ARC
  8
0
 10
 1.38581300000000E+0002
 20
 1.96890100000000E+0002
 40
 9.20120000000000E+0000
 50
 2.93000000000000E+0002
 51
 4.20000000000000E+0002
  0
LINE
  8
0
 10
 1.42176495259455E+0002
 20
 1.88420350742413E+0002
 11
 1.42176400000000E+0002
 21
 1.88420500000000E+0002
  0
LINE
  8
0
 10
 1.42176400000000E+0002
 20
 1.88420500000000E+0002
 11
 1.37094600000000E+0002
 21
 1.86263100000000E+0002
  0
LINE
  8
0
 10
 1.37094600000000E+0002
 20
 1.86263100000000E+0002
 11
 1.37094508714197E+0002
 21
 1.86263265909012E+0002
  0
ARC
  8
0
 10
 2.08999000000000E+0002
 20
 1.68669000000000E+0001
 40
 1.84025500000000E+0002
 50
 1.13000000000000E+0002
 51
 1.22000000000000E+0002
  0
LINE
  8
0
 10
 1.11480342439852E+0002
 20
 1.72929374919234E+0002
 11
 1.11480400000000E+0002
 21
 1.72929100000000E+0002
  0
LINE
  8
0
 10
 1.11480400000000E+0002
 20
 1.72929100000000E+0002
 11
 1.05238000000000E+0002
 21
 1.69028600000000E+0002
  0
LINE
  8
0
 10
 1.05238000000000E+0002
 20
 1.69028600000000E+0002
 11
 1.05237965308169E+0002
 21
 1.69028014975094E+0002
  0
ARC
  8
0
 10
 1.74712000000000E+0001
 20
 3.09484200000000E+0002
 40
 1.65622900000000E+0002
 50
 2.90000000000000E+0002
 51
 3.02000000000000E+0002
  0
LINE
  8
0
 10
 7.41175679960129E+0001
 20
 1.53849583036838E+0002
 11
 7.41174000000000E+0001
 21
 1.53850100000000E+0002
  0
LINE
  8
0
 10
 7.41174000000000E+0001
 20
 1.53850100000000E+0002
 11
 4.12613000000000E+0001
 21
 1.41891400000000E+0002
  0
LINE
  8
0
 10
 4.12613000000000E+0001
 20
 1.41891400000000E+0002
 11
 4.12614546426872E+0001
 21
 1.41891409784045E+0002
  0
ARC
  8
0
 10
 4.81849000000000E+0001
 20
 1.22869400000000E+0002
 40
 2.02428000000000E+0001
 50
 1.10000000000000E+0002
 51
 1.37000000000000E+0002
  0
LINE
  8
0
 10
 3.33802532888635E+0001
 20
 1.36674956403073E+0002
 11
 3.33802000000000E+0001
 21
 1.36675000000000E+0002
  0
LINE
  8
0
 10
 3.33802000000000E+0001
 20
 1.36675000000000E+0002
 11
 3.08701000000000E+0001
 21
 1.33983000000000E+0002
  0
LINE
  8
0
 10
 3.08701000000000E+0001
 20
 1.33983000000000E+0002
 11
 3.08702083463970E+0001
 21
 1.33983115619471E+0002
  0
ARC
  8
0
 10
 2.71051000000000E+0001
 20
 1.38020700000000E+0002
 40
 5.52070000000000E+0000
 50
 1.40000000000000E+0002
 51
 3.13000000000000E+0002
  0
LINE
  8
0
 10
 2.28759984428731E+0001
 20
 1.41569337556796E+0002
 11
 2.28759000000000E+0001
 21
 1.41569400000000E+0002
  0
LINE
  8
0
 10
 2.28759000000000E+0001
 20
 1.41569400000000E+0002
 11
 2.46502000000000E+0001
 21
 1.43684000000000E+0002
  0
LINE
  8
0
 10
 2.46502000000000E+0001
 20
 1.43684000000000E+0002
 11
 2.46501253308761E+0001
 21
 1.43683933617324E+0002
  0
ARC
  8
0
 10
 2.11350000000000E+0001
 20
 1.63619200000000E+0002
 40
 2.02428000000000E+0001
 50
 2.60000000000000E+0002
 51
 2.80000000000000E+0002
  0
LINE
  8
0
 10
 1.76198746691239E+0001
 20
 1.43683933617324E+0002
 11
 1.76195000000000E+0001
 21
 1.43684000000000E+0002
  0
LINE
  8
0
 10
 1.76195000000000E+0001
 20
 1.43684000000000E+0002
 11
 1.67136000000000E+0001
 21
 1.43843700000000E+0002
  0
LINE
  8
0
 10
 1.67136000000000E+0001
 20
 1.43843700000000E+0002
 11
 1.67135878820969E+0001
 21
 1.43843715065039E+0002
  0
ARC
  8
0
 10
 1.73527000000000E+0001
 20
 1.47468300000000E+0002
 40
 3.68050000000000E+0000
 50
 1.64000000000000E+0002
 51
 2.60000000000000E+0002
  0
LINE
  8
0
 10
 1.38147763280990E+0001
 20
 1.48482783288084E+0002
 11
 1.38146000000000E+0001
 21
 1.48482600000000E+0002
  0
LINE
  8
0
 10
 1.38146000000000E+0001
 20
 1.48482600000000E+0002
 11
 1.40684000000000E+0001
 21
 1.49367300000000E+0002
  0
LINE
  8
0
 10
 1.40684000000000E+0001
 20
 1.49367300000000E+0002
 11
 1.40684717414598E+0001
 21
 1.49367171866332E+0002
  0
ARC
  8
0
 10
 3.35271000000000E+0001
 20
 1.43787500000000E+0002
 40
 2.02428000000000E+0001
 50
 1.40000000000000E+0002
 51
 1.64000000000000E+0002
  0
LINE
  8
0
 10
 1.80202155468311E+0001
 20
 1.56799321025363E+0002
 11
 1.80200000000000E+0001
 21
 1.56799700000000E+0002
  0
LINE
  8
0
 10
 1.80200000000000E+0001
 20
 1.56799700000000E+0002
 11
 1.80204780556386E+0001
 21
 1.56799514085991E+0002
  0
ARC
  8
0
 10
 2.39389000000000E+0001
 20
 1.76157800000000E+0002
 40
 2.02428000000000E+0001
 50
 2.32000000000000E+0002
 51
 2.53000000000000E+0002
  0
LINE
  8
0
 10
 1.14761878872777E+0001
 20
 1.60206255916890E+0002
 11
 1.14759000000000E+0001
 21
 1.60206300000000E+0002
  0
LINE
  8
0
 10
 1.14759000000000E+0001
 20
 1.60206300000000E+0002
 11
 1.07509000000000E+0001
 21
 1.60773100000000E+0002
  0
LINE
  8
0
 10
 1.07509000000000E+0001
 20
 1.60773100000000E+0002
 11
 1.07507579400639E+0001
 21
 1.60772926421350E+0002
  0
ARC
  8
0
 10
 1.30167000000000E+0001
 20
 1.63673200000000E+0002
 40
 3.68050000000000E+0000
 50
 1.40000000000000E+0002
 51
 2.32000000000000E+0002
  0
LINE
  8
0
 10
 1.01972734271006E+0001
 20
 1.66038979797451E+0002
 11
 1.01973000000000E+0001
 21
 1.66038800000000E+0002
  0
LINE
  8
0
 10
 1.01973000000000E+0001
 20
 1.66038800000000E+0002
 11
 1.07888000000000E+0001
 21
 1.66743400000000E+0002
  0
LINE
  8
0
 10
 1.07888000000000E+0001
 20
 1.66743400000000E+0002
 11
 1.07887327576431E+0001
 21
 1.66743752753336E+0002
  0
ARC
  8
0
 10
 1.71325000000000E+0001
 20
 1.61420700000000E+0002
 40
 8.28120000000000E+0000
 50
 8.00000000000000E+0001
 51
 1.40000000000000E+0002
  0
LINE
  8
0
 10
 1.85705152888954E+0001
 20
 1.69576089964245E+0002
 11
 1.85702000000000E+0001
 21
 1.69576100000000E+0002
  0
LINE
  8
0
 10
 1.85702000000000E+0001
 20
 1.69576100000000E+0002
 11
 1.99295000000000E+0001
 21
 1.69336200000000E+0002
  0
LINE
  8
0
 10
 1.99295000000000E+0001
 20
 1.69336200000000E+0002
 11
 1.99292987388762E+0001
 21
 1.69336215637037E+0002
  0
ARC
  8
0
 10
 2.90832000000000E+0001
 20
 1.75510600000000E+0002
 40
 1.10416000000000E+0001
 50
 1.75000000000000E+0002
 51
 2.14000000000000E+0002
  0
LINE
  8
0
 10
 1.80836166215502E+0001
 20
 1.76472938849123E+0002
 11
 1.80837000000000E+0001
 21
 1.76473200000000E+0002
  0
LINE
  8
0
 10
 1.80837000000000E+0001
 20
 1.76473200000000E+0002
 11
 1.80839000000000E+0001
 21
 1.76473100000000E+0002
  0
ARC
  8
0
 10
 1.80839000000000E+0001
 20
 2.68485800000000E+0002
 40
 9.20127000000000E+0001
 50
 2.59000000000000E+0002
 51
 2.70000000000000E+0002
  0
LINE
  8
0
 10
 5.27049151116596E-0001
 20
 1.78163632457585E+0002
 11
 5.27000000000000E-0001
 21
 1.78163400000000E+0002
  0
LINE
  8
0
 10
 5.27000000000000E-0001
 20
 1.78163400000000E+0002
 11
-3.76100000000000E-0001
 21
 1.78339100000000E+0002
  0
LINE
  8
0
 10
-3.76100000000000E-0001
 20
 1.78339100000000E+0002
 11
-3.76153346575068E-0001
 21
 1.78339059553547E+0002
  0
ARC
  8
0
 10
 4.89090000000000E+0000
 20
 2.05435700000000E+0002
 40
 2.76038000000000E+0001
 50
 2.27000000000000E+0002
 51
 2.59000000000000E+0002
  0
LINE
  8
0
 10
-1.39348463314932E+0001
 20
 1.85247558691245E+0002
 11
-1.39349000000000E+0001
 21
 1.85247800000000E+0002
  0
LINE
  8
0
 10
-1.39349000000000E+0001
 20
 1.85247800000000E+0002
 11
-1.39349790157565E+0001
 21
 1.85247916129644E+0002
  0
ARC
  8
0
 10
-5.90373000000000E+0001
 20
 2.54699400000000E+0002
 40
 8.28114000000000E+0001
 50
 2.57000000000000E+0002
 51
 3.03000000000000E+0002
  0
LINE
  8
0
 10
-7.76658117416916E+0001
 20
 1.74010450817044E+0002
 11
-7.76658000000000E+0001
 21
 1.74010300000000E+0002
  0
LINE
  8
0
 10
-7.76658000000000E+0001
 20
 1.74010300000000E+0002
 11
-7.76658783417978E+0001
 21
 1.74010211083101E+0002
  0
ARC
  8
0
 10
-8.74424000000000E+0001
 20
 1.71390600000000E+0002
 40
 1.01214000000000E+0001
 50
 8.90000000000000E+0001
 51
 3.75000000000000E+0002
  0
LINE
  8
0
 10
-8.72657572134857E+0001
 20
 1.81510458461756E+0002
 11
-8.72657000000000E+0001
 21
 1.81510200000000E+0002
  0
LINE
  8
0
 10
-8.72657000000000E+0001
 20
 1.81510200000000E+0002
 11
-9.01419000000000E+0001
 21
 1.88286200000000E+0002
  0
LINE
  8
0
 10
-9.01419000000000E+0001
 20
 1.88286200000000E+0002
 11
-9.11177000000000E+0001
 21
 1.87310500000000E+0002
  0
LINE
  8
0
 10
-9.11177000000000E+0001
 20
 1.87310500000000E+0002
 11
-9.11175690849463E+0001
 21
 1.87310269084946E+0002
  0
ARC
  8
0
 10
-9.76238000000000E+0001
 20
 1.93816500000000E+0002
 40
 9.20120000000000E+0000
 50
 2.14000000000000E+0002
 51
 3.15000000000000E+0002
  0
LINE
  8
0
 10
-1.05251940512593E+0002
 20
 1.88671254256585E+0002
 11
-1.05252400000000E+0002
 21
 1.88671400000000E+0002
  0
LINE
  8
0
 10
-1.05252400000000E+0002
 20
 1.88671400000000E+0002
 11
-1.05252445571577E+0002
 21
 1.88671481037552E+0002
  0
ARC
  8
0
 10
-9.91499000000000E+0001
 20
 1.92787700000000E+0002
 40
 7.36100000000000E+0000
 50
 7.40000000000000E+0001
 51
 2.14000000000000E+0002
  0
LINE
  8
0
 10
-9.71209334238311E+0001
 20
 1.99863547343802E+0002
 11
-9.71207000000000E+0001
 21
 1.99863600000000E+0002
  0
LINE
  8
0
 10
-9.71207000000000E+0001
 20
 1.99863600000000E+0002
 11
-9.00451000000000E+0001
 21
 1.97834500000000E+0002
  0
LINE
  8
0
 10
-9.00451000000000E+0001
 20
 1.97834500000000E+0002
 11
-8.75384000000000E+0001
 21
 2.02753500000000E+0002
  0
LINE
  8
0
 10
-8.75384000000000E+0001
 20
 2.02753500000000E+0002
 11
-9.39637000000000E+0001
 21
 2.03202900000000E+0002
  0
LINE
  8
0
 10
-9.39637000000000E+0001
 20
 2.03202900000000E+0002
 11
-9.39636432662144E+0001
 21
 2.03203013660749E+0002
  0
ARC
  8
0
 10
-9.33218000000000E+0001
 20
 2.12381800000000E+0002
 40
 9.20120000000000E+0000
 50
 1.80000000000000E+0002
 51
 2.66000000000000E+0002
  0
LINE
  8
0
 10
-1.02523000000000E+0002
 20
 2.12381800000000E+0002
 11
-1.02523100000000E+0002
 21
 2.12381800000000E+0002
  0
ARC
  8
0
 10
-9.42419000000000E+0001
 20
 2.12381800000000E+0002
 40
 8.28120000000000E+0000
 50
 1.35000000000000E+0002
 51
 1.80000000000000E+0002
  0
LINE
  8
0
 10
-1.00097592676362E+0002
 20
 2.18237492676362E+0002
 11
-1.00097390235149E+0002
 21
 2.18237190235149E+0002
  0
ARC
  8
0
 10
-9.22898000000000E+0001
 20
 2.10429600000000E+0002
 40
 1.10416000000000E+0001
 50
 2.70000000000000E+0001
 51
 1.35000000000000E+0002
  0
LINE
  8
0
 10
-8.24516623625217E+0001
 20
 2.15442381501924E+0002
 11
-8.24521000000000E+0001
 21
 2.15442500000000E+0002
  0
LINE
  8
0
 10
-8.24521000000000E+0001
 20
 2.15442500000000E+0002
 11
-7.99456000000000E+0001
 21
 2.10523500000000E+0002
  0
LINE
  8
0
 10
-7.99456000000000E+0001
 20
 2.10523500000000E+0002
 11
-6.09236000000000E+0001
 21
 2.03600100000000E+0002
  0
LINE
  8
0
 10
-6.09236000000000E+0001
 20
 2.03600100000000E+0002
 11
-6.09239656566599E+0001
 21
 2.03600372428580E+0002
  0
ARC
  8
0
 10
 8.01320000000000E+0000
 20
 3.29749000000000E+0001
 40
 1.84025500000000E+0002
 50
 1.06000000000000E+0002
 51
 1.12000000000000E+0002
  0
LINE
  8
0
 10
-4.27111022229012E+0001
 20
 2.09871564225897E+0002
 11
-4.27107830165913E+0001
 21
 2.09871165703307E+0002
  0
ARC
  8
0
 10
-3.56094000000000E+0001
 20
 1.85105700000000E+0002
 40
 2.57635000000000E+0001
 50
 7.80000000000000E+0001
 51
 1.06000000000000E+0002
  0
LINE
  8
0
 10
-3.02528671536167E+0001
 20
 2.10306205711505E+0002
 11
-3.02529597156667E+0001
 21
 2.10306160681467E+0002
  0
ARC
  8
0
 10
-2.99660000000000E+0001
 20
 2.11656200000000E+0002
 40
 1.38020000000000E+0000
 50
 2.58000000000000E+0002
 51
 3.64000000000000E+0002
  0
LINE
  8
0
 10
-2.85891620978314E+0001
 20
 2.11752477885062E+0002
 11
-2.85890000000000E+0001
 21
 2.11752800000000E+0002
  0
LINE
  8
0
 10
-2.85890000000000E+0001
 20
 2.11752800000000E+0002
 11
-2.96801000000000E+0001
 21
 2.27356600000000E+0002
  0
LINE
  8
0
 10
-2.96801000000000E+0001
 20
 2.27356600000000E+0002
 11
-4.45660094617363E+0001
 21
 2.34616968904767E+0002
  0
LINE
  8
0
 10
-4.45660094617363E+0001
 20
 2.34616968904767E+0002
 11
-4.56832403425473E+0001
 21
 2.35165613521463E+0002
  0
LINE
  8
0
 10
-4.56832403425473E+0001
 20
 2.35165613521463E+0002
 11
-4.67935907879520E+0001
 21
 2.35718336275713E+0002
  0
LINE
  8
0
 10
-4.67935907879520E+0001
 20
 2.35718336275713E+0002
 11
-4.78969496513318E+0001
 21
 2.36275029761364E+0002
  0
LINE
  8
0
 10
-4.78969496513318E+0001
 20
 2.36275029761364E+0002
 11
-4.89932057860683E+0001
 21
 2.36835586572259E+0002
  0
LINE
  8
0
 10
-4.89932057860683E+0001
 20
 2.36835586572259E+0002
 11
-5.00822480455430E+0001
 21
 2.37399899302243E+0002
  0
LINE
  8
0
 10
-5.00822480455430E+0001
 20
 2.37399899302243E+0002
 11
-5.11639652831374E+0001
 21
 2.37967860545162E+0002
  0
LINE
  8
0
 10
-5.11639652831374E+0001
 20
 2.37967860545162E+0002
 11
-5.22382463522330E+0001
 21
 2.38539362894859E+0002
  0
LINE
  8
0
 10
-5.22382463522330E+0001
 20
 2.38539362894859E+0002
 11
-5.33049801062113E+0001
 21
 2.39114298945181E+0002
  0
LINE
  8
0
 10
-5.33049801062113E+0001
 20
 2.39114298945181E+0002
 11
-5.43640553984540E+0001
 21
 2.39692561289972E+0002
  0
LINE
  8
0
 10
-5.43640553984540E+0001
 20
 2.39692561289972E+0002
 11
-5.54153610823424E+0001
 21
 2.40274042523076E+0002
  0
LINE
  8
0
 10
-5.54153610823424E+0001
 20
 2.40274042523076E+0002
 11
-5.64587860112581E+0001
 21
 2.40858635238339E+0002
  0
LINE
  8
0
 10
-5.64587860112581E+0001
 20
 2.40858635238339E+0002
 11
-5.74942190385826E+0001
 21
 2.41446232029605E+0002
  0
LINE
  8
0
 10
-5.74942190385826E+0001
 20
 2.41446232029605E+0002
 11
-5.85215490176975E+0001
 21
 2.42036725490719E+0002
  0
LINE
  8
0
 10
-5.85215490176975E+0001
 20
 2.42036725490719E+0002
 11
-5.95406648019842E+0001
 21
 2.42630008215526E+0002
  0
LINE
  8
0
 10
-5.95406648019842E+0001
 20
 2.42630008215526E+0002
 11
-6.05514552448242E+0001
 21
 2.43225972797872E+0002
  0
LINE
  8
0
 10
-6.05514552448242E+0001
 20
 2.43225972797872E+0002
 11
-6.15538091995992E+0001
 21
 2.43824511831600E+0002
  0
LINE
  8
0
 10
-6.15538091995992E+0001
 20
 2.43824511831600E+0002
 11
-6.25476155196905E+0001
 21
 2.44425517910555E+0002
  0
LINE
  8
0
 10
-6.25476155196905E+0001
 20
 2.44425517910555E+0002
 11
-6.35327630584798E+0001
 21
 2.45028883628584E+0002
  0
LINE
  8
0
 10
-6.35327630584798E+0001
 20
 2.45028883628584E+0002
 11
-6.45091406693485E+0001
 21
 2.45634501579529E+0002
  0
LINE
  8
0
 10
-6.45091406693485E+0001
 20
 2.45634501579529E+0002
 11
-6.54766372056782E+0001
 21
 2.46242264357237E+0002
  0
LINE
  8
0
 10
-6.54766372056782E+0001
 20
 2.46242264357237E+0002
 11
-6.64351415208503E+0001
 21
 2.46852064555551E+0002
  0
LINE
  8
0
 10
-6.64351415208503E+0001
 20
 2.46852064555551E+0002
 11
-6.73845424682464E+0001
 21
 2.47463794768318E+0002
  0
LINE
  8
0
 10
-6.73845424682464E+0001
 20
 2.47463794768318E+0002
 11
-6.83247289012480E+0001
 21
 2.48077347589381E+0002
  0
LINE
  8
0
 10
-6.83247289012480E+0001
 20
 2.48077347589381E+0002
 11
-6.92555896732366E+0001
 21
 2.48692615612586E+0002
  0
LINE
  8
0
 10
-6.92555896732366E+0001
 20
 2.48692615612586E+0002
 11
-7.01770136375938E+0001
 21
 2.49309491431777E+0002
  0
LINE
  8
0
 10
-7.01770136375938E+0001
 20
 2.49309491431777E+0002
 11
-7.10888896477010E+0001
 21
 2.49927867640799E+0002
  0
LINE
  8
0
 10
-7.10888896477010E+0001
 20
 2.49927867640799E+0002
 11
-7.19911065569398E+0001
 21
 2.50547636833498E+0002
  0
LINE
  8
0
 10
-7.19911065569398E+0001
 20
 2.50547636833498E+0002
 11
-7.28835532186917E+0001
 21
 2.51168691603717E+0002
  0
LINE
  8
0
 10
-7.28835532186917E+0001
 20
 2.51168691603717E+0002
 11
-7.37661184863382E+0001
 21
 2.51790924545303E+0002
  0
LINE
  8
0
 10
-7.37661184863382E+0001
 20
 2.51790924545303E+0002
 11
-7.46386912132608E+0001
 21
 2.52414228252099E+0002
  0
LINE
  8
0
 10
-7.46386912132608E+0001
 20
 2.52414228252099E+0002
 11
-7.55011602528411E+0001
 21
 2.53038495317950E+0002
  0
LINE
  8
0
 10
-7.55011602528411E+0001
 20
 2.53038495317950E+0002
 11
-7.63534144584605E+0001
 21
 2.53663618336702E+0002
  0
LINE
  8
0
 10
-7.63534144584605E+0001
 20
 2.53663618336702E+0002
 11
-7.71953426835005E+0001
 21
 2.54289489902199E+0002
  0
LINE
  8
0
 10
-7.71953426835005E+0001
 20
 2.54289489902199E+0002
 11
-7.80268337813428E+0001
 21
 2.54916002608286E+0002
  0
LINE
  8
0
 10
-7.80268337813428E+0001
 20
 2.54916002608286E+0002
 11
-7.88477766053688E+0001
 21
 2.55543049048808E+0002
  0
LINE
  8
0
 10
-7.88477766053688E+0001
 20
 2.55543049048808E+0002
 11
-7.96580600089600E+0001
 21
 2.56170521817610E+0002
  0
LINE
  8
0
 10
-7.96580600089600E+0001
 20
 2.56170521817610E+0002
 11
-8.04575728454979E+0001
 21
 2.56798313508536E+0002
  0
LINE
  8
0
 10
-8.04575728454979E+0001
 20
 2.56798313508536E+0002
 11
-8.12462039683641E+0001
 21
 2.57426316715432E+0002
  0
LINE
  8
0
 10
-8.12462039683641E+0001
 20
 2.57426316715432E+0002
 11
-8.20238422309401E+0001
 21
 2.58054424032142E+0002
  0
LINE
  8
0
 10
-8.20238422309401E+0001
 20
 2.58054424032142E+0002
 11
-8.27903764866074E+0001
 21
 2.58682528052512E+0002
  0
LINE
  8
0
 10
-8.27903764866074E+0001
 20
 2.58682528052512E+0002
 11
-8.35456955887474E+0001
 21
 2.59310521370385E+0002
  0
LINE
  8
0
 10
-8.35456955887474E+0001
 20
 2.59310521370385E+0002
 11
-8.42896883907418E+0001
 21
 2.59938296579607E+0002
  0
LINE
  8
0
 10
-8.42896883907418E+0001
 20
 2.59938296579607E+0002
 11
-8.50222437459721E+0001
 21
 2.60565746274023E+0002
  0
LINE
  8
0
 10
-8.50222437459721E+0001
 20
 2.60565746274023E+0002
 11
-8.57432505078197E+0001
 21
 2.61192763047477E+0002
  0
LINE
  8
0
 10
-8.57432505078197E+0001
 20
 2.61192763047477E+0002
 11
-8.64525975296662E+0001
 21
 2.61819239493815E+0002
  0
LINE
  8
0
 10
-8.64525975296662E+0001
 20
 2.61819239493815E+0002
 11
-8.71501736648931E+0001
 21
 2.62445068206881E+0002
  0
LINE
  8
0
 10
-8.71501736648931E+0001
 20
 2.62445068206881E+0002
 11
-8.78358677668819E+0001
 21
 2.63070141780520E+0002
  0
LINE
  8
0
 10
-8.78358677668819E+0001
 20
 2.63070141780520E+0002
 11
-8.85095686890141E+0001
 21
 2.63694352808578E+0002
  0
LINE
  8
0
 10
-8.85095686890141E+0001
 20
 2.63694352808578E+0002
 11
-8.91711652846713E+0001
 21
 2.64317593884898E+0002
  0
LINE
  8
0
 10
-8.91711652846713E+0001
 20
 2.64317593884898E+0002
 11
-8.98205464072349E+0001
 21
 2.64939757603325E+0002
  0
LINE
  8
0
 10
-8.98205464072349E+0001
 20
 2.64939757603325E+0002
 11
-9.04576009100865E+0001
 21
 2.65560736557705E+0002
  0
LINE
  8
0
 10
-9.04576009100865E+0001
 20
 2.65560736557705E+0002
 11
-9.10822176466076E+0001
 21
 2.66180423341883E+0002
  0
LINE
  8
0
 10
-9.10822176466076E+0001
 20
 2.66180423341883E+0002
 11
-9.16942854701798E+0001
 21
 2.66798710549702E+0002
  0
LINE
  8
0
 10
-9.16942854701798E+0001
 20
 2.66798710549702E+0002
 11
-9.22936932341844E+0001
 21
 2.67415490775009E+0002
  0
LINE
  8
0
 10
-9.22936932341844E+0001
 20
 2.67415490775009E+0002
 11
-9.28803297920031E+0001
 21
 2.68030656611647E+0002
  0
LINE
  8
0
 10
-9.28803297920031E+0001
 20
 2.68030656611647E+0002
 11
-9.34540839970174E+0001
 21
 2.68644100653463E+0002
  0
LINE
  8
0
 10
-9.34540839970174E+0001
 20
 2.68644100653463E+0002
 11
-9.40148447026088E+0001
 21
 2.69255715494300E+0002
  0
LINE
  8
0
 10
-9.40148447026088E+0001
 20
 2.69255715494300E+0002
 11
-9.45625007621587E+0001
 21
 2.69865393728003E+0002
  0
LINE
  8
0
 10
-9.45625007621587E+0001
 20
 2.69865393728003E+0002
 11
-9.50969410290488E+0001
 21
 2.70473027948418E+0002
  0
LINE
  8
0
 10
-9.50969410290488E+0001
 20
 2.70473027948418E+0002
 11
-9.56180543566605E+0001
 21
 2.71078510749389E+0002
  0
LINE
  8
0
 10
-9.56180543566605E+0001
 20
 2.71078510749389E+0002
 11
-9.61257295983754E+0001
 21
 2.71681734724760E+0002
  0
LINE
  8
0
 10
-9.61257295983754E+0001
 20
 2.71681734724760E+0002
 11
-9.66198556075749E+0001
 21
 2.72282592468378E+0002
  0
LINE
  8
0
 10
-9.66198556075749E+0001
 20
 2.72282592468378E+0002
 11
-9.71003212376406E+0001
 21
 2.72880976574086E+0002
  0
LINE
  8
0
 10
-9.71003212376406E+0001
 20
 2.72880976574086E+0002
 11
-9.75670153419541E+0001
 21
 2.73476779635730E+0002
  0
LINE
  8
0
 10
-9.75670153419541E+0001
 20
 2.73476779635730E+0002
 11
-9.80198267738967E+0001
 21
 2.74069894247155E+0002
  0
LINE
  8
0
 10
-9.80198267738967E+0001
 20
 2.74069894247155E+0002
 11
-9.84586443868501E+0001
 21
 2.74660213002204E+0002
  0
LINE
  8
0
 10
-9.84586443868501E+0001
 20
 2.74660213002204E+0002
 11
-9.88833570341957E+0001
 21
 2.75247628494724E+0002
  0
LINE
  8
0
 10
-9.88833570341957E+0001
 20
 2.75247628494724E+0002
 11
-9.92938535693151E+0001
 21
 2.75832033318558E+0002
  0
LINE
  8
0
 10
-9.92938535693151E+0001
 20
 2.75832033318558E+0002
 11
-9.96900228455898E+0001
 21
 2.76413320067553E+0002
  0
LINE
  8
0
 10
-9.96900228455898E+0001
 20
 2.76413320067553E+0002
 11
-1.00071753716401E+0002
 21
 2.76991381335552E+0002
  0
LINE
  8
0
 10
-1.00071753716401E+0002
 20
 2.76991381335552E+0002
 11
-1.00438935035131E+0002
 21
 2.77566109716400E+0002
  0
LINE
  8
0
 10
-1.00438935035131E+0002
 20
 2.77566109716400E+0002
 11
-1.00791455655160E+0002
 21
 2.78137397803943E+0002
  0
LINE
  8
0
 10
-1.00791455655160E+0002
 20
 2.78137397803943E+0002
 11
-1.01129204429871E+0002
 21
 2.78705138192025E+0002
  0
LINE
  8
0
 10
-1.01129204429871E+0002
 20
 2.78705138192025E+0002
 11
-1.01452070212645E+0002
 21
 2.79269223474491E+0002
  0
LINE
  8
0
 10
-1.01452070212645E+0002
 20
 2.79269223474491E+0002
 11
-1.01759941856864E+0002
 21
 2.79829546245186E+0002
  0
LINE
  8
0
 10
-1.01759941856864E+0002
 20
 2.79829546245186E+0002
 11
-1.02052708215908E+0002
 21
 2.80385999097955E+0002
  0
LINE
  8
0
 10
-1.02052708215908E+0002
 20
 2.80385999097955E+0002
 11
-1.02330258143159E+0002
 21
 2.80938474626642E+0002
  0
LINE
  8
0
 10
-1.02330258143159E+0002
 20
 2.80938474626642E+0002
 11
-1.02592480492000E+0002
 21
 2.81486865425093E+0002
  0
LINE
  8
0
 10
-1.02592480492000E+0002
 20
 2.81486865425093E+0002
 11
-1.02839264115811E+0002
 21
 2.82031064087152E+0002
  0
LINE
  8
0
 10
-1.02839264115811E+0002
 20
 2.82031064087152E+0002
 11
-1.03070497867974E+0002
 21
 2.82570963206664E+0002
  0
LINE
  8
0
 10
-1.03070497867974E+0002
 20
 2.82570963206664E+0002
 11
-1.03286070601870E+0002
 21
 2.83106455377474E+0002
  0
LINE
  8
0
 10
-1.03286070601870E+0002
 20
 2.83106455377474E+0002
 11
-1.03485871170882E+0002
 21
 2.83637433193427E+0002
  0
LINE
  8
0
 10
-1.03485871170882E+0002
 20
 2.83637433193427E+0002
 11
-1.03669788428390E+0002
 21
 2.84163789248368E+0002
  0
LINE
  8
0
 10
-1.03669788428390E+0002
 20
 2.84163789248368E+0002
 11
-1.03837711227776E+0002
 21
 2.84685416136141E+0002
  0
LINE
  8
0
 10
-1.03837711227776E+0002
 20
 2.84685416136141E+0002
 11
-1.03989528422422E+0002
 21
 2.85202206450592E+0002
  0
LINE
  8
0
 10
-1.03989528422422E+0002
 20
 2.85202206450592E+0002
 11
-1.04125128865708E+0002
 21
 2.85714052785565E+0002
  0
LINE
  8
0
 10
-1.04125128865708E+0002
 20
 2.85714052785565E+0002
 11
-1.04244401411018E+0002
 21
 2.86220847734904E+0002
  0
LINE
  8
0
 10
-1.04244401411018E+0002
 20
 2.86220847734904E+0002
 11
-1.04347234911731E+0002
 21
 2.86722483892456E+0002
  0
LINE
  8
0
 10
-1.04347234911731E+0002
 20
 2.86722483892456E+0002
 11
-1.04433518221230E+0002
 21
 2.87218853852065E+0002
  0
LINE
  8
0
 10
-1.04433518221230E+0002
 20
 2.87218853852065E+0002
 11
-1.04503140192896E+0002
 21
 2.87709850207575E+0002
  0
LINE
  8
0
 10
-1.04503140192896E+0002
 20
 2.87709850207575E+0002
 11
-1.04555989680111E+0002
 21
 2.88195365552832E+0002
  0
LINE
  8
0
 10
-1.04555989680111E+0002
 20
 2.88195365552832E+0002
 11
-1.04591955536256E+0002
 21
 2.88675292481680E+0002
  0
LINE
  8
0
 10
-1.04591955536256E+0002
 20
 2.88675292481680E+0002
 11
-1.04610926614713E+0002
 21
 2.89149523587964E+0002
  0
LINE
  8
0
 10
-1.04610926614713E+0002
 20
 2.89149523587964E+0002
 11
-1.04612791768863E+0002
 21
 2.89617951465530E+0002
  0
LINE
  8
0
 10
-1.04612791768863E+0002
 20
 2.89617951465530E+0002
 11
-1.04597439852087E+0002
 21
 2.90080468708221E+0002
  0
LINE
  8
0
 10
-1.04597439852087E+0002
 20
 2.90080468708221E+0002
 11
-1.04564759717768E+0002
 21
 2.90536967909883E+0002
  0
LINE
  8
0
 10
-1.04564759717768E+0002
 20
 2.90536967909883E+0002
 11
-1.04514640219287E+0002
 21
 2.90987341664360E+0002
  0
LINE
  8
0
 10
-1.04514640219287E+0002
 20
 2.90987341664360E+0002
 11
-1.04446970210025E+0002
 21
 2.91431482565498E+0002
  0
LINE
  8
0
 10
-1.04446970210025E+0002
 20
 2.91431482565498E+0002
 11
-1.04361638543364E+0002
 21
 2.91869283207141E+0002
  0
LINE
  8
0
 10
-1.04361638543364E+0002
 20
 2.91869283207141E+0002
 11
-1.04258534072685E+0002
 21
 2.92300636183135E+0002
  0
LINE
  8
0
 10
-1.04258534072685E+0002
 20
 2.92300636183135E+0002
 11
-1.03771850735792E+0002
 21
 2.93736125844237E+0002
  0
ARC
  8
0
 10
-7.44187000000000E+0001
 20
 3.28432400000000E+0002
 40
 4.54471000000000E+0001
 50
 2.29768680000000E+0002
 51
 2.30000000000000E+0002
  0
LINE
  8
0
 10
-1.03631532776185E+0002
 20
 2.93617901589127E+0002
 11
-8.97224613632817E+0001
 21
 2.82020386256580E+0002
  0
ARC
  8
0
 10
 2.18224200000000E+0002
 20
 6.60517100000000E+0002
 40
 4.87945600000000E+0002
 50
 2.30868040000000E+0002
 51
 2.39000000000000E+0002
  0
LINE
  8
0
 10
-3.30863624848313E+0001
 20
 2.42266087158527E+0002
 11
-3.30864300404631E+0001
 21
 2.42266044442234E+0002
  0
ARC
  8
0
 10
-3.19158000000000E+0001
 20
 2.44214300000000E+0002
 40
 2.27290000000000E+0000
 50
 2.39000000000000E+0002
 51
 4.19000000000000E+0002
  0
LINE
  8
0
 10
-6.04271291916818E+0001
 20
 2.95585015722684E+0002
 11
-6.07324562440393E+0001
 21
 2.95646234368479E+0002
  0
LINE
  8
0
 10
-6.07324562440393E+0001
 20
 2.95646234368479E+0002
 11
-6.10358888992634E+0001
 21
 2.95710803789360E+0002
  0
LINE
  8
0
 10
-6.10358888992634E+0001
 20
 2.95710803789360E+0002
 11
-6.13373944799281E+0001
 21
 2.95778688909452E+0002
  0
LINE
  8
0
 10
-6.13373944799281E+0001
 20
 2.95778688909452E+0002
 11
-6.16369403086075E+0001
 21
 2.95849854652878E+0002
  0
LINE
  8
0
 10
-6.16369403086075E+0001
 20
 2.95849854652878E+0002
 11
-6.19344937078757E+0001
 21
 2.95924265943764E+0002
  0
LINE
  8
0
 10
-6.19344937078757E+0001
 20
 2.95924265943764E+0002
 11
-6.22300220003067E+0001
 21
 2.96001887706233E+0002
  0
LINE
  8
0
 10
-6.22300220003067E+0001
 20
 2.96001887706233E+0002
 11
-6.25234925084745E+0001
 21
 2.96082684864410E+0002
  0
LINE
  8
0
 10
-6.25234925084745E+0001
 20
 2.96082684864410E+0002
 11
-6.28148725549532E+0001
 21
 2.96166622342418E+0002
  0
LINE
  8
0
 10
-6.28148725549532E+0001
 20
 2.96166622342418E+0002
 11
-6.31041294623169E+0001
 21
 2.96253665064383E+0002
  0
LINE
  8
0
 10
-6.31041294623169E+0001
 20
 2.96253665064383E+0002
 11
-6.33912305531395E+0001
 21
 2.96343777954428E+0002
  0
LINE
  8
0
 10
-6.33912305531395E+0001
 20
 2.96343777954428E+0002
 11
-6.36761431499952E+0001
 21
 2.96436925936677E+0002
  0
LINE
  8
0
 10
-6.36761431499952E+0001
 20
 2.96436925936677E+0002
 11
-6.39588345754579E+0001
 21
 2.96533073935255E+0002
  0
LINE
  8
0
 10
-6.39588345754579E+0001
 20
 2.96533073935255E+0002
 11
-6.42392721521018E+0001
 21
 2.96632186874286E+0002
  0
LINE
  8
0
 10
-6.42392721521018E+0001
 20
 2.96632186874286E+0002
 11
-6.45174232025009E+0001
 21
 2.96734229677895E+0002
  0
LINE
  8
0
 10
-6.45174232025009E+0001
 20
 2.96734229677895E+0002
 11
-6.47932550492291E+0001
 21
 2.96839167270204E+0002
  0
LINE
  8
0
 10
-6.47932550492291E+0001
 20
 2.96839167270204E+0002
 11
-6.50667350148607E+0001
 21
 2.96946964575340E+0002
  0
LINE
  8
0
 10
-6.50667350148607E+0001
 20
 2.96946964575340E+0002
 11
-6.53378304219696E+0001
 21
 2.97057586517425E+0002
  0
LINE
  8
0
 10
-6.53378304219696E+0001
 20
 2.97057586517425E+0002
 11
-6.56065085931298E+0001
 21
 2.97170998020585E+0002
  0
LINE
  8
0
 10
-6.56065085931298E+0001
 20
 2.97170998020585E+0002
 11
-6.58727368509154E+0001
 21
 2.97287164008942E+0002
  0
LINE
  8
0
 10
-6.58727368509154E+0001
 20
 2.97287164008942E+0002
 11
-6.61364825179006E+0001
 21
 2.97406049406623E+0002
  0
LINE
  8
0
 10
-6.61364825179006E+0001
 20
 2.97406049406623E+0002
 11
-6.63977129166592E+0001
 21
 2.97527619137750E+0002
  0
LINE
  8
0
 10
-6.63977129166592E+0001
 20
 2.97527619137750E+0002
 11
-6.66563953697654E+0001
 21
 2.97651838126449E+0002
  0
LINE
  8
0
 10
-6.66563953697654E+0001
 20
 2.97651838126449E+0002
 11
-6.69124971997931E+0001
 21
 2.97778671296842E+0002
  0
LINE
  8
0
 10
-6.69124971997931E+0001
 20
 2.97778671296842E+0002
 11
-6.71659857293166E+0001
 21
 2.97908083573055E+0002
  0
LINE
  8
0
 10
-6.71659857293166E+0001
 20
 2.97908083573055E+0002
 11
-6.74168282809097E+0001
 21
 2.98040039879212E+0002
  0
LINE
  8
0
 10
-6.74168282809097E+0001
 20
 2.98040039879212E+0002
 11
-6.76649921771466E+0001
 21
 2.98174505139437E+0002
  0
LINE
  8
0
 10
-6.76649921771466E+0001
 20
 2.98174505139437E+0002
 11
-6.79104447406013E+0001
 21
 2.98311444277855E+0002
  0
LINE
  8
0
 10
-6.79104447406013E+0001
 20
 2.98311444277855E+0002
 11
-6.81531532938478E+0001
 21
 2.98450822218588E+0002
  0
LINE
  8
0
 10
-6.81531532938478E+0001
 20
 2.98450822218588E+0002
 11
-6.83930851594602E+0001
 21
 2.98592603885763E+0002
  0
LINE
  8
0
 10
-6.83930851594602E+0001
 20
 2.98592603885763E+0002
 11
-6.86302076600126E+0001
 21
 2.98736754203502E+0002
  0
LINE
  8
0
 10
-6.86302076600126E+0001
 20
 2.98736754203502E+0002
 11
-6.88644881180789E+0001
 21
 2.98883238095931E+0002
  0
LINE
  8
0
 10
-6.88644881180789E+0001
 20
 2.98883238095931E+0002
 11
-6.90958938562333E+0001
 21
 2.99032020487173E+0002
  0
LINE
  8
0
 10
-6.90958938562333E+0001
 20
 2.99032020487173E+0002
 11
-6.93243921970498E+0001
 21
 2.99183066301352E+0002
  0
LINE
  8
0
 10
-6.93243921970498E+0001
 20
 2.99183066301352E+0002
 11
-6.95499504631023E+0001
 21
 2.99336340462593E+0002
  0
LINE
  8
0
 10
-6.95499504631023E+0001
 20
 2.99336340462593E+0002
 11
-6.97725359769651E+0001
 21
 2.99491807895021E+0002
  0
LINE
  8
0
 10
-6.97725359769651E+0001
 20
 2.99491807895021E+0002
 11
-6.99921160612121E+0001
 21
 2.99649433522759E+0002
  0
LINE
  8
0
 10
-6.99921160612121E+0001
 20
 2.99649433522759E+0002
 11
-7.02086580384174E+0001
 21
 2.99809182269931E+0002
  0
LINE
  8
0
 10
-7.02086580384174E+0001
 20
 2.99809182269931E+0002
 11
-7.04221292311550E+0001
 21
 2.99971019060662E+0002
  0
LINE
  8
0
 10
-7.04221292311550E+0001
 20
 2.99971019060662E+0002
 11
-7.06324969619989E+0001
 21
 3.00134908819076E+0002
  0
LINE
  8
0
 10
-7.06324969619989E+0001
 20
 3.00134908819076E+0002
 11
-7.08397285535233E+0001
 21
 3.00300816469298E+0002
  0
LINE
  8
0
 10
-7.08397285535233E+0001
 20
 3.00300816469298E+0002
 11
-7.10437913283021E+0001
 21
 3.00468706935451E+0002
  0
LINE
  8
0
 10
-7.10437913283021E+0001
 20
 3.00468706935451E+0002
 11
-7.12446526089094E+0001
 21
 3.00638545141660E+0002
  0
LINE
  8
0
 10
-7.12446526089094E+0001
 20
 3.00638545141660E+0002
 11
-7.14422797179193E+0001
 21
 3.00810296012048E+0002
  0
LINE
  8
0
 10
-7.14422797179193E+0001
 20
 3.00810296012048E+0002
 11
-7.16366399779059E+0001
 21
 3.00983924470741E+0002
  0
LINE
  8
0
 10
-7.16366399779059E+0001
 20
 3.00983924470741E+0002
 11
-7.18277007114430E+0001
 21
 3.01159395441862E+0002
  0
LINE
  8
0
 10
-7.18277007114430E+0001
 20
 3.01159395441862E+0002
 11
-7.20154292411049E+0001
 21
 3.01336673849536E+0002
  0
LINE
  8
0
 10
-7.20154292411049E+0001
 20
 3.01336673849536E+0002
 11
-7.21997928894655E+0001
 21
 3.01515724617887E+0002
  0
LINE
  8
0
 10
-7.21997928894655E+0001
 20
 3.01515724617887E+0002
 11
-7.23807589790989E+0001
 21
 3.01696512671039E+0002
  0
LINE
  8
0
 10
-7.23807589790989E+0001
 20
 3.01696512671039E+0002
 11
-7.25582948325792E+0001
 21
 3.01879002933116E+0002
  0
LINE
  8
0
 10
-7.25582948325792E+0001
 20
 3.01879002933116E+0002
 11
-7.27323677724803E+0001
 21
 3.02063160328243E+0002
  0
LINE
  8
0
 10
-7.27323677724803E+0001
 20
 3.02063160328243E+0002
 11
-7.29029451213764E+0001
 21
 3.02248949780543E+0002
  0
LINE
  8
0
 10
-7.29029451213764E+0001
 20
 3.02248949780543E+0002
 11
-7.30699942018415E+0001
 21
 3.02436336214142E+0002
  0
LINE
  8
0
 10
-7.30699942018415E+0001
 20
 3.02436336214142E+0002
 11
-7.32334823364496E+0001
 21
 3.02625284553163E+0002
  0
LINE
  8
0
 10
-7.32334823364496E+0001
 20
 3.02625284553163E+0002
 11
-7.33933768477748E+0001
 21
 3.02815759721731E+0002
  0
LINE
  8
0
 10
-7.33933768477748E+0001
 20
 3.02815759721731E+0002
 11
-7.35496450583911E+0001
 21
 3.03007726643969E+0002
  0
LINE
  8
0
 10
-7.35496450583911E+0001
 20
 3.03007726643969E+0002
 11
-7.37022542908726E+0001
 21
 3.03201150244002E+0002
  0
LINE
  8
0
 10
-7.37022542908726E+0001
 20
 3.03201150244002E+0002
 11
-7.38511718677933E+0001
 21
 3.03395995445954E+0002
  0
LINE
  8
0
 10
-7.38511718677933E+0001
 20
 3.03395995445954E+0002
 11
-7.39963651117274E+0001
 21
 3.03592227173950E+0002
  0
LINE
  8
0
 10
-7.39963651117274E+0001
 20
 3.03592227173950E+0002
 11
-7.41378013452487E+0001
 21
 3.03789810352114E+0002
  0
LINE
  8
0
 10
-7.41378013452487E+0001
 20
 3.03789810352114E+0002
 11
-7.42754478909314E+0001
 21
 3.03988709904569E+0002
  0
LINE
  8
0
 10
-7.42754478909314E+0001
 20
 3.03988709904569E+0002
 11
-7.44092720713495E+0001
 21
 3.04188890755441E+0002
  0
LINE
  8
0
 10
-7.44092720713495E+0001
 20
 3.04188890755441E+0002
 11
-7.45392412090771E+0001
 21
 3.04390317828853E+0002
  0
LINE
  8
0
 10
-7.45392412090771E+0001
 20
 3.04390317828853E+0002
 11
-7.46653226266882E+0001
 21
 3.04592956048929E+0002
  0
LINE
  8
0
 10
-7.46653226266882E+0001
 20
 3.04592956048929E+0002
 11
-7.47874836467568E+0001
 21
 3.04796770339794E+0002
  0
LINE
  8
0
 10
-7.47874836467568E+0001
 20
 3.04796770339794E+0002
 11
-7.49056915918571E+0001
 21
 3.05001725625573E+0002
  0
LINE
  8
0
 10
-7.49056915918571E+0001
 20
 3.05001725625573E+0002
 11
-7.50199137845630E+0001
 21
 3.05207786830389E+0002
  0
LINE
  8
0
 10
-7.50199137845630E+0001
 20
 3.05207786830389E+0002
 11
-7.51301175474486E+0001
 21
 3.05414918878366E+0002
  0
LINE
  8
0
 10
-7.51301175474486E+0001
 20
 3.05414918878366E+0002
 11
-7.52362702030880E+0001
 21
 3.05623086693629E+0002
  0
LINE
  8
0
 10
-7.52362702030880E+0001
 20
 3.05623086693629E+0002
 11
-7.53383390740551E+0001
 21
 3.05832255200302E+0002
  0
LINE
  8
0
 10
-7.53383390740551E+0001
 20
 3.05832255200302E+0002
 11
-7.54362914829241E+0001
 21
 3.06042389322509E+0002
  0
LINE
  8
0
 10
-7.54362914829241E+0001
 20
 3.06042389322509E+0002
 11
-7.55300947522691E+0001
 21
 3.06253453984375E+0002
  0
LINE
  8
0
 10
-7.55300947522691E+0001
 20
 3.06253453984375E+0002
 11
-7.56197162046639E+0001
 21
 3.06465414110023E+0002
  0
LINE
  8
0
 10
-7.56197162046639E+0001
 20
 3.06465414110023E+0002
 11
-7.57051231626828E+0001
 21
 3.06678234623579E+0002
  0
LINE
  8
0
 10
-7.57051231626828E+0001
 20
 3.06678234623579E+0002
 11
-7.57862829488996E+0001
 21
 3.06891880449165E+0002
  0
LINE
  8
0
 10
-7.57862829488996E+0001
 20
 3.06891880449165E+0002
 11
-7.58631628858886E+0001
 21
 3.07106316510907E+0002
  0
LINE
  8
0
 10
-7.58631628858886E+0001
 20
 3.07106316510907E+0002
 11
-7.59357302962237E+0001
 21
 3.07321507732929E+0002
  0
LINE
  8
0
 10
-7.59357302962237E+0001
 20
 3.07321507732929E+0002
 11
-7.60039525024790E+0001
 21
 3.07537419039354E+0002
  0
LINE
  8
0
 10
-7.60039525024790E+0001
 20
 3.07537419039354E+0002
 11
-7.60677968272284E+0001
 21
 3.07754015354308E+0002
  0
LINE
  8
0
 10
-7.60677968272284E+0001
 20
 3.07754015354308E+0002
 11
-7.61272305930462E+0001
 21
 3.07971261601913E+0002
  0
LINE
  8
0
 10
-7.61272305930462E+0001
 20
 3.07971261601913E+0002
 11
-7.61822211225063E+0001
 21
 3.08189122706296E+0002
  0
LINE
  8
0
 10
-7.61822211225063E+0001
 20
 3.08189122706296E+0002
 11
-7.62327357381828E+0001
 21
 3.08407563591579E+0002
  0
LINE
  8
0
 10
-7.62327357381828E+0001
 20
 3.08407563591579E+0002
 11
-7.62787417626497E+0001
 21
 3.08626549181887E+0002
  0
LINE
  8
0
 10
-7.62787417626497E+0001
 20
 3.08626549181887E+0002
 11
-7.63202065184810E+0001
 21
 3.08846044401345E+0002
  0
LINE
  8
0
 10
-7.63202065184810E+0001
 20
 3.08846044401345E+0002
 11
-7.63570973282509E+0001
 21
 3.09066014174075E+0002
  0
LINE
  8
0
 10
-7.63570973282509E+0001
 20
 3.09066014174075E+0002
 11
-7.63893815145333E+0001
 21
 3.09286423424204E+0002
  0
LINE
  8
0
 10
-7.63893815145333E+0001
 20
 3.09286423424204E+0002
 11
-7.64170263999024E+0001
 21
 3.09507237075855E+0002
  0
LINE
  8
0
 10
-7.64170263999024E+0001
 20
 3.09507237075855E+0002
 11
-7.64399993069321E+0001
 21
 3.09728420053151E+0002
  0
LINE
  8
0
 10
-7.64399993069321E+0001
 20
 3.09728420053151E+0002
 11
-7.64582675581965E+0001
 21
 3.09949937280219E+0002
  0
LINE
  8
0
 10
-7.64582675581965E+0001
 20
 3.09949937280219E+0002
 11
-7.64717984762696E+0001
 21
 3.10171753681180E+0002
  0
LINE
  8
0
 10
-7.64717984762696E+0001
 20
 3.10171753681180E+0002
 11
-7.64805593837256E+0001
 21
 3.10393834180161E+0002
  0
LINE
  8
0
 10
-7.64805593837256E+0001
 20
 3.10393834180161E+0002
 11
-7.64845176031384E+0001
 21
 3.10616143701285E+0002
  0
LINE
  8
0
 10
-7.64845176031384E+0001
 20
 3.10616143701285E+0002
 11
-7.64836404570821E+0001
 21
 3.10838647168676E+0002
  0
LINE
  8
0
 10
-7.64836404570821E+0001
 20
 3.10838647168676E+0002
 11
-7.64778952681307E+0001
 21
 3.11061309506459E+0002
  0
LINE
  8
0
 10
-7.64778952681307E+0001
 20
 3.11061309506459E+0002
 11
-7.64672493588583E+0001
 21
 3.11284095638757E+0002
  0
LINE
  8
0
 10
-7.64672493588583E+0001
 20
 3.11284095638757E+0002
 11
-7.64516700518390E+0001
 21
 3.11506970489696E+0002
  0
LINE
  8
0
 10
-7.64516700518390E+0001
 20
 3.11506970489696E+0002
 11
-7.64311246696467E+0001
 21
 3.11729898983399E+0002
  0
LINE
  8
0
 10
-7.64311246696467E+0001
 20
 3.11729898983399E+0002
 11
-7.64055805348556E+0001
 21
 3.11952846043990E+0002
  0
LINE
  8
0
 10
-7.64055805348556E+0001
 20
 3.11952846043990E+0002
 11
-7.63750049700397E+0001
 21
 3.12175776595594E+0002
  0
LINE
  8
0
 10
-7.63750049700397E+0001
 20
 3.12175776595594E+0002
 11
-7.63393652977730E+0001
 21
 3.12398655562335E+0002
  0
LINE
  8
0
 10
-7.63393652977730E+0001
 20
 3.12398655562335E+0002
 11
-7.62986288406296E+0001
 21
 3.12621447868338E+0002
  0
LINE
  8
0
 10
-7.62986288406296E+0001
 20
 3.12621447868338E+0002
 11
-7.62986288406296E+0001
 21
 3.12621447868338E+0002
  0
LINE
  8
0
 10
-7.62986288406296E+0001
 20
 3.12621447868338E+0002
 11
-7.62529395591944E+0001
 21
 3.12843277442823E+0002
  0
LINE
  8
0
 10
-7.62529395591944E+0001
 20
 3.12843277442823E+0002
 11
-7.62024921574272E+0001
 21
 3.13063278078526E+0002
  0
LINE
  8
0
 10
-7.62024921574272E+0001
 20
 3.13063278078526E+0002
 11
-7.61473300729641E+0001
 21
 3.13281429494841E+0002
  0
LINE
  8
0
 10
-7.61473300729641E+0001
 20
 3.13281429494841E+0002
 11
-7.60874967434411E+0001
 21
 3.13497711411160E+0002
  0
LINE
  8
0
 10
-7.60874967434411E+0001
 20
 3.13497711411160E+0002
 11
-7.60230356064942E+0001
 21
 3.13712103546877E+0002
  0
LINE
  8
0
 10
-7.60230356064942E+0001
 20
 3.13712103546877E+0002
 11
-7.59539900997597E+0001
 21
 3.13924585621387E+0002
  0
LINE
  8
0
 10
-7.59539900997597E+0001
 20
 3.13924585621387E+0002
 11
-7.58804036608736E+0001
 21
 3.14135137354082E+0002
  0
LINE
  8
0
 10
-7.58804036608736E+0001
 20
 3.14135137354082E+0002
 11
-7.58023197274719E+0001
 21
 3.14343738464356E+0002
  0
LINE
  8
0
 10
-7.58023197274719E+0001
 20
 3.14343738464356E+0002
 11
-7.57197817371908E+0001
 21
 3.14550368671602E+0002
  0
LINE
  8
0
 10
-7.57197817371908E+0001
 20
 3.14550368671602E+0002
 11
-7.56328331276663E+0001
 21
 3.14755007695214E+0002
  0
LINE
  8
0
 10
-7.56328331276663E+0001
 20
 3.14755007695214E+0002
 11
-7.55415173365345E+0001
 21
 3.14957635254586E+0002
  0
LINE
  8
0
 10
-7.55415173365345E+0001
 20
 3.14957635254586E+0002
 11
-7.54458778014315E+0001
 21
 3.15158231069111E+0002
  0
LINE
  8
0
 10
-7.54458778014315E+0001
 20
 3.15158231069111E+0002
 11
-7.53459579599934E+0001
 21
 3.15356774858182E+0002
  0
LINE
  8
0
 10
-7.53459579599934E+0001
 20
 3.15356774858182E+0002
 11
-7.52418012498563E+0001
 21
 3.15553246341193E+0002
  0
LINE
  8
0
 10
-7.52418012498563E+0001
 20
 3.15553246341193E+0002
 11
-7.51334511086562E+0001
 21
 3.15747625237538E+0002
  0
LINE
  8
0
 10
-7.51334511086562E+0001
 20
 3.15747625237538E+0002
 11
-7.50209509740293E+0001
 21
 3.15939891266610E+0002
  0
LINE
  8
0
 10
-7.50209509740293E+0001
 20
 3.15939891266610E+0002
 11
-7.49043442836116E+0001
 21
 3.16130024147803E+0002
  0
LINE
  8
0
 10
-7.49043442836116E+0001
 20
 3.16130024147803E+0002
 11
-7.47836744750392E+0001
 21
 3.16318003600510E+0002
  0
LINE
  8
0
 10
-7.47836744750392E+0001
 20
 3.16318003600510E+0002
 11
-7.46589849859482E+0001
 21
 3.16503809344124E+0002
  0
LINE
  8
0
 10
-7.46589849859482E+0001
 20
 3.16503809344124E+0002
 11
-7.45303192539746E+0001
 21
 3.16687421098039E+0002
  0
LINE
  8
0
 10
-7.45303192539746E+0001
 20
 3.16687421098039E+0002
 11
-7.43977207167546E+0001
 21
 3.16868818581650E+0002
  0
LINE
  8
0
 10
-7.43977207167546E+0001
 20
 3.16868818581650E+0002
 11
-7.42612328119243E+0001
 21
 3.17047981514348E+0002
  0
LINE
  8
0
 10
-7.42612328119243E+0001
 20
 3.17047981514348E+0002
 11
-7.41208989771197E+0001
 21
 3.17224889615528E+0002
  0
LINE
  8
0
 10
-7.41208989771197E+0001
 20
 3.17224889615528E+0002
 11
-7.39767626499768E+0001
 21
 3.17399522604584E+0002
  0
LINE
  8
0
 10
-7.39767626499768E+0001
 20
 3.17399522604584E+0002
 11
-7.38288672681319E+0001
 21
 3.17571860200908E+0002
  0
LINE
  8
0
 10
-7.38288672681319E+0001
 20
 3.17571860200908E+0002
 11
-7.36772562692210E+0001
 21
 3.17741882123894E+0002
  0
LINE
  8
0
 10
-7.36772562692210E+0001
 20
 3.17741882123894E+0002
 11
-7.35219730908801E+0001
 21
 3.17909568092937E+0002
  0
LINE
  8
0
 10
-7.35219730908801E+0001
 20
 3.17909568092937E+0002
 11
-7.33630611707454E+0001
 21
 3.18074897827428E+0002
  0
LINE
  8
0
 10
-7.33630611707454E+0001
 20
 3.18074897827428E+0002
 11
-7.32005639464529E+0001
 21
 3.18237851046763E+0002
  0
LINE
  8
0
 10
-7.32005639464529E+0001
 20
 3.18237851046763E+0002
 11
-7.30345248556387E+0001
 21
 3.18398407470334E+0002
  0
LINE
  8
0
 10
-7.30345248556387E+0001
 20
 3.18398407470334E+0002
 11
-7.28649873359389E+0001
 21
 3.18556546817535E+0002
  0
LINE
  8
0
 10
-7.28649873359389E+0001
 20
 3.18556546817535E+0002
 11
-7.26919948249896E+0001
 21
 3.18712248807759E+0002
  0
LINE
  8
0
 10
-7.26919948249896E+0001
 20
 3.18712248807759E+0002
 11
-7.25155907604269E+0001
 21
 3.18865493160400E+0002
  0
LINE
  8
0
 10
-7.25155907604269E+0001
 20
 3.18865493160400E+0002
 11
-7.23358185798868E+0001
 21
 3.19016259594852E+0002
  0
LINE
  8
0
 10
-7.23358185798868E+0001
 20
 3.19016259594852E+0002
 11
-7.21527217210055E+0001
 21
 3.19164527830508E+0002
  0
LINE
  8
0
 10
-7.21527217210055E+0001
 20
 3.19164527830508E+0002
 11
-7.19663436214190E+0001
 21
 3.19310277586761E+0002
  0
LINE
  8
0
 10
-7.19663436214190E+0001
 20
 3.19310277586761E+0002
 11
-7.17767277187634E+0001
 21
 3.19453488583005E+0002
  0
LINE
  8
0
 10
-7.17767277187634E+0001
 20
 3.19453488583005E+0002
 11
-7.15839174506747E+0001
 21
 3.19594140538634E+0002
  0
LINE
  8
0
 10
-7.15839174506747E+0001
 20
 3.19594140538634E+0002
 11
-7.13879562547892E+0001
 21
 3.19732213173041E+0002
  0
LINE
  8
0
 10
-7.13879562547892E+0001
 20
 3.19732213173041E+0002
 11
-7.11888875687428E+0001
 21
 3.19867686205619E+0002
  0
LINE
  8
0
 10
-7.11888875687428E+0001
 20
 3.19867686205619E+0002
 11
-7.09867548301716E+0001
 21
 3.20000539355763E+0002
  0
LINE
  8
0
 10
-7.09867548301716E+0001
 20
 3.20000539355763E+0002
 11
-7.07816014767118E+0001
 21
 3.20130752342865E+0002
  0
LINE
  8
0
 10
-7.07816014767118E+0001
 20
 3.20130752342865E+0002
 11
-7.05734709459993E+0001
 21
 3.20258304886319E+0002
  0
LINE
  8
0
 10
-7.05734709459993E+0001
 20
 3.20258304886319E+0002
 11
-7.03624066756704E+0001
 21
 3.20383176705519E+0002
  0
LINE
  8
0
 10
-7.03624066756704E+0001
 20
 3.20383176705519E+0002
 11
-7.01484521033611E+0001
 21
 3.20505347519859E+0002
  0
LINE
  8
0
 10
-7.01484521033611E+0001
 20
 3.20505347519859E+0002
 11
-6.99316506667074E+0001
 21
 3.20624797048731E+0002
  0
LINE
  8
0
 10
-6.99316506667074E+0001
 20
 3.20624797048731E+0002
 11
-6.97120458033454E+0001
 21
 3.20741505011529E+0002
  0
LINE
  8
0
 10
-6.97120458033454E+0001
 20
 3.20741505011529E+0002
 11
-6.94896809509113E+0001
 21
 3.20855451127647E+0002
  0
LINE
  8
0
 10
-6.94896809509113E+0001
 20
 3.20855451127647E+0002
 11
-6.92645995470411E+0001
 21
 3.20966615116478E+0002
  0
LINE
  8
0
 10
-6.92645995470411E+0001
 20
 3.20966615116478E+0002
 11
-6.90368450293709E+0001
 21
 3.21074976697416E+0002
  0
LINE
  8
0
 10
-6.90368450293709E+0001
 20
 3.21074976697416E+0002
 11
-6.88064608355368E+0001
 21
 3.21180515589854E+0002
  0
LINE
  8
0
 10
-6.88064608355368E+0001
 20
 3.21180515589854E+0002
 11
-6.85734904031748E+0001
 21
 3.21283211513187E+0002
  0
LINE
  8
0
 10
-6.85734904031748E+0001
 20
 3.21283211513187E+0002
 11
-6.83379771699211E+0001
 21
 3.21383044186806E+0002
  0
LINE
  8
0
 10
-6.83379771699211E+0001
 20
 3.21383044186806E+0002
 11
-6.80999645734117E+0001
 21
 3.21479993330107E+0002
  0
LINE
  8
0
 10
-6.80999645734117E+0001
 20
 3.21479993330107E+0002
 11
-6.78594960512828E+0001
 21
 3.21574038662482E+0002
  0
LINE
  8
0
 10
-6.78594960512828E+0001
 20
 3.21574038662482E+0002
 11
-6.76166150411703E+0001
 21
 3.21665159903324E+0002
  0
LINE
  8
0
 10
-6.76166150411703E+0001
 20
 3.21665159903324E+0002
 11
-6.73713649807105E+0001
 21
 3.21753336772029E+0002
  0
LINE
  8
0
 10
-6.73713649807105E+0001
 20
 3.21753336772029E+0002
 11
-6.71237893075393E+0001
 21
 3.21838548987988E+0002
  0
LINE
  8
0
 10
-6.71237893075393E+0001
 20
 3.21838548987988E+0002
 11
-6.68739314592929E+0001
 21
 3.21920776270596E+0002
  0
LINE
  8
0
 10
-6.68739314592929E+0001
 20
 3.21920776270596E+0002
 11
-6.66218348736073E+0001
 21
 3.21999998339246E+0002
  0
LINE
  8
0
 10
-6.66218348736073E+0001
 20
 3.21999998339246E+0002
 11
-6.63675429881186E+0001
 21
 3.22076194913331E+0002
  0
LINE
  8
0
 10
-6.63675429881186E+0001
 20
 3.22076194913331E+0002
 11
-6.61110992404629E+0001
 21
 3.22149345712245E+0002
  0
LINE
  8
0
 10
-6.61110992404629E+0001
 20
 3.22149345712245E+0002
 11
-6.58525470682764E+0001
 21
 3.22219430455382E+0002
  0
LINE
  8
0
 10
-6.58525470682764E+0001
 20
 3.22219430455382E+0002
 11
-6.55919299091950E+0001
 21
 3.22286428862135E+0002
  0
LINE
  8
0
 10
-6.55919299091950E+0001
 20
 3.22286428862135E+0002
 11
-6.53292912008548E+0001
 21
 3.22350320651898E+0002
  0
LINE
  8
0
 10
-6.53292912008548E+0001
 20
 3.22350320651898E+0002
 11
-6.50646743808920E+0001
 21
 3.22411085544064E+0002
  0
LINE
  8
0
 10
-6.50646743808920E+0001
 20
 3.22411085544064E+0002
 11
-6.47981228869427E+0001
 21
 3.22468703258027E+0002
  0
LINE
  8
0
 10
-6.47981228869427E+0001
 20
 3.22468703258027E+0002
 11
-6.45296801566428E+0001
 21
 3.22523153513179E+0002
  0
LINE
  8
0
 10
-6.45296801566428E+0001
 20
 3.22523153513179E+0002
 11
-6.42593896276286E+0001
 21
 3.22574416028916E+0002
  0
LINE
  8
0
 10
-6.42593896276286E+0001
 20
 3.22574416028916E+0002
 11
-6.39872947375360E+0001
 21
 3.22622470524629E+0002
  0
LINE
  8
0
 10
-6.39872947375360E+0001
 20
 3.22622470524629E+0002
 11
-6.37134389240012E+0001
 21
 3.22667296719714E+0002
  0
LINE
  8
0
 10
-6.37134389240012E+0001
 20
 3.22667296719714E+0002
 11
-6.34378656246603E+0001
 21
 3.22708874333563E+0002
  0
LINE
  8
0
 10
-6.34378656246603E+0001
 20
 3.22708874333563E+0002
 11
-6.31606182771493E+0001
 21
 3.22747183085569E+0002
  0
LINE
  8
0
 10
-6.31606182771493E+0001
 20
 3.22747183085569E+0002
 11
-6.28817403191043E+0001
 21
 3.22782202695127E+0002
  0
LINE
  8
0
 10
-6.28817403191043E+0001
 20
 3.22782202695127E+0002
 11
-6.26012751881614E+0001
 21
 3.22813912881629E+0002
  0
LINE
  8
0
 10
-6.26012751881614E+0001
 20
 3.22813912881629E+0002
 11
-6.23192663219566E+0001
 21
 3.22842293364470E+0002
  0
LINE
  8
0
 10
-6.23192663219566E+0001
 20
 3.22842293364470E+0002
 11
-6.20357571581262E+0001
 21
 3.22867323863043E+0002
  0
LINE
  8
0
 10
-6.20357571581262E+0001
 20
 3.22867323863043E+0002
 11
-6.17507911343061E+0001
 21
 3.22888984096741E+0002
  0
LINE
  8
0
 10
-6.17507911343061E+0001
 20
 3.22888984096741E+0002
 11
-6.14644116881325E+0001
 21
 3.22907253784959E+0002
  0
LINE
  8
0
 10
-6.14644116881325E+0001
 20
 3.22907253784959E+0002
 11
-6.11766622572413E+0001
 21
 3.22922112647088E+0002
  0
LINE
  8
0
 10
-6.11766622572413E+0001
 20
 3.22922112647088E+0002
 11
-6.08875862792688E+0001
 21
 3.22933540402524E+0002
  0
LINE
  8
0
 10
-6.08875862792688E+0001
 20
 3.22933540402524E+0002
 11
-6.05972271918510E+0001
 21
 3.22941516770659E+0002
  0
LINE
  8
0
 10
-6.05972271918510E+0001
 20
 3.22941516770659E+0002
 11
-6.03056284326239E+0001
 21
 3.22946021470887E+0002
  0
LINE
  8
0
 10
-6.03056284326239E+0001
 20
 3.22946021470887E+0002
 11
-6.00128334392237E+0001
 21
 3.22947034222601E+0002
  0
LINE
  8
0
 10
-6.00128334392237E+0001
 20
 3.22947034222601E+0002
 11
-5.97188856492865E+0001
 21
 3.22944534745196E+0002
  0
LINE
  8
0
 10
-5.97188856492865E+0001
 20
 3.22944534745196E+0002
 11
-5.94238285004483E+0001
 21
 3.22938502758064E+0002
  0
LINE
  8
0
 10
-5.94238285004483E+0001
 20
 3.22938502758064E+0002
 11
-5.91277054303452E+0001
 21
 3.22928917980600E+0002
  0
LINE
  8
0
 10
-5.91277054303452E+0001
 20
 3.22928917980600E+0002
 11
-5.88305598766133E+0001
 21
 3.22915760132196E+0002
  0
LINE
  8
0
 10
-5.88305598766133E+0001
 20
 3.22915760132196E+0002
 11
-5.85324352768886E+0001
 21
 3.22899008932246E+0002
  0
LINE
  8
0
 10
-5.85324352768886E+0001
 20
 3.22899008932246E+0002
 11
-5.82333750688073E+0001
 21
 3.22878644100143E+0002
  0
LINE
  8
0
 10
-5.82333750688073E+0001
 20
 3.22878644100143E+0002
 11
-5.79334226900055E+0001
 21
 3.22854645355282E+0002
  0
LINE
  8
0
 10
-5.79334226900055E+0001
 20
 3.22854645355282E+0002
 11
-5.76326215781192E+0001
 21
 3.22826992417056E+0002
  0
LINE
  8
0
 10
-5.76326215781192E+0001
 20
 3.22826992417056E+0002
 11
-5.73310151707846E+0001
 21
 3.22795665004857E+0002
  0
LINE
  8
0
 10
-5.73310151707846E+0001
 20
 3.22795665004857E+0002
 11
-5.70286469056376E+0001
 21
 3.22760642838081E+0002
  0
LINE
  8
0
 10
-5.70286469056376E+0001
 20
 3.22760642838081E+0002
 11
-5.67255602203144E+0001
 21
 3.22721905636120E+0002
  0
LINE
  8
0
 10
-5.67255602203144E+0001
 20
 3.22721905636120E+0002
 11
-5.64217985524511E+0001
 21
 3.22679433118367E+0002
  0
LINE
  8
0
 10
-5.64217985524511E+0001
 20
 3.22679433118367E+0002
 11
-5.61174053396837E+0001
 21
 3.22633205004217E+0002
  0
LINE
  8
0
 10
-5.61174053396837E+0001
 20
 3.22633205004217E+0002
 11
-5.58124240196484E+0001
 21
 3.22583201013063E+0002
  0
LINE
  8
0
 10
-5.58124240196484E+0001
 20
 3.22583201013063E+0002
 11
-5.55068980299812E+0001
 21
 3.22529400864298E+0002
  0
LINE
  8
0
 10
-5.55068980299812E+0001
 20
 3.22529400864298E+0002
 11
-5.52008708083182E+0001
 21
 3.22471784277316E+0002
  0
LINE
  8
0
 10
-5.52008708083182E+0001
 20
 3.22471784277316E+0002
 11
-5.52007740159323E+0001
 21
 3.22471768305691E+0002
  0
ARC
  8
0
 10
-5.27728000000000E+0001
 20
 3.08048500000000E+0002
 40
 1.46262000000000E+0001
 50
 9.95554300000000E+0001
 51
 2.38444230000000E+0002
  0
LINE
  8
0
 10
-5.87467291916818E+0001
 20
 2.95258315722684E+0002
 11
-5.84407019700188E+0001
 21
 2.95200699135702E+0002
  0
LINE
  8
0
 10
-5.84407019700188E+0001
 20
 2.95200699135702E+0002
 11
-5.81351759803516E+0001
 21
 2.95146898986937E+0002
  0
LINE
  8
0
 10
-5.81351759803516E+0001
 20
 2.95146898986937E+0002
 11
-5.78301946603163E+0001
 21
 2.95096894995783E+0002
  0
LINE
  8
0
 10
-5.78301946603163E+0001
 20
 2.95096894995783E+0002
 11
-5.75258014475489E+0001
 21
 2.95050666881633E+0002
  0
LINE
  8
0
 10
-5.75258014475489E+0001
 20
 2.95050666881633E+0002
 11
-5.72220397796856E+0001
 21
 2.95008194363880E+0002
  0
LINE
  8
0
 10
-5.72220397796856E+0001
 20
 2.95008194363880E+0002
 11
-5.69189530943624E+0001
 21
 2.94969457161919E+0002
  0
LINE
  8
0
 10
-5.69189530943624E+0001
 20
 2.94969457161919E+0002
 11
-5.66165848292154E+0001
 21
 2.94934434995143E+0002
  0
LINE
  8
0
 10
-5.66165848292154E+0001
 20
 2.94934434995143E+0002
 11
-5.63149784218808E+0001
 21
 2.94903107582944E+0002
  0
LINE
  8
0
 10
-5.63149784218808E+0001
 20
 2.94903107582944E+0002
 11
-5.60141773099945E+0001
 21
 2.94875454644718E+0002
  0
LINE
  8
0
 10
-5.60141773099945E+0001
 20
 2.94875454644718E+0002
 11
-5.57142249311926E+0001
 21
 2.94851455899857E+0002
  0
LINE
  8
0
 10
-5.57142249311926E+0001
 20
 2.94851455899857E+0002
 11
-5.54151647231114E+0001
 21
 2.94831091067754E+0002
  0
LINE
  8
0
 10
-5.54151647231114E+0001
 20
 2.94831091067754E+0002
 11
-5.51170401233868E+0001
 21
 2.94814339867804E+0002
  0
LINE
  8
0
 10
-5.51170401233868E+0001
 20
 2.94814339867804E+0002
 11
-5.48198945696548E+0001
 21
 2.94801182019400E+0002
  0
LINE
  8
0
 10
-5.48198945696548E+0001
 20
 2.94801182019400E+0002
 11
-5.45237714995517E+0001
 21
 2.94791597241936E+0002
  0
LINE
  8
0
 10
-5.45237714995517E+0001
 20
 2.94791597241936E+0002
 11
-5.42287143507135E+0001
 21
 2.94785565254804E+0002
  0
LINE
  8
0
 10
-5.42287143507135E+0001
 20
 2.94785565254804E+0002
 11
-5.39347665607763E+0001
 21
 2.94783065777399E+0002
  0
LINE
  8
0
 10
-5.39347665607763E+0001
 20
 2.94783065777399E+0002
 11
-5.36419715673761E+0001
 21
 2.94784078529113E+0002
  0
LINE
  8
0
 10
-5.36419715673761E+0001
 20
 2.94784078529113E+0002
 11
-5.33503728081490E+0001
 21
 2.94788583229341E+0002
  0
LINE
  8
0
 10
-5.33503728081490E+0001
 20
 2.94788583229341E+0002
 11
-5.30600137207312E+0001
 21
 2.94796559597476E+0002
  0
LINE
  8
0
 10
-5.30600137207312E+0001
 20
 2.94796559597476E+0002
 11
-5.27709377427587E+0001
 21
 2.94807987352912E+0002
  0
LINE
  8
0
 10
-5.27709377427587E+0001
 20
 2.94807987352912E+0002
 11
-5.24831883118675E+0001
 21
 2.94822846215041E+0002
  0
LINE
  8
0
 10
-5.24831883118675E+0001
 20
 2.94822846215041E+0002
 11
-5.21968088656939E+0001
 21
 2.94841115903259E+0002
  0
LINE
  8
0
 10
-5.21968088656939E+0001
 20
 2.94841115903259E+0002
 11
-5.19118428418738E+0001
 21
 2.94862776136957E+0002
  0
LINE
  8
0
 10
-5.19118428418738E+0001
 20
 2.94862776136957E+0002
 11
-5.16283336780434E+0001
 21
 2.94887806635530E+0002
  0
LINE
  8
0
 10
-5.16283336780434E+0001
 20
 2.94887806635530E+0002
 11
-5.13463248118386E+0001
 21
 2.94916187118371E+0002
  0
LINE
  8
0
 10
-5.13463248118386E+0001
 20
 2.94916187118371E+0002
 11
-5.10658596808957E+0001
 21
 2.94947897304873E+0002
  0
LINE
  8
0
 10
-5.10658596808957E+0001
 20
 2.94947897304873E+0002
 11
-5.07869817228507E+0001
 21
 2.94982916914431E+0002
  0
LINE
  8
0
 10
-5.07869817228507E+0001
 20
 2.94982916914431E+0002
 11
-5.05097343753397E+0001
 21
 2.95021225666438E+0002
  0
LINE
  8
0
 10
-5.05097343753397E+0001
 20
 2.95021225666438E+0002
 11
-5.02341610759988E+0001
 21
 2.95062803280286E+0002
  0
LINE
  8
0
 10
-5.02341610759988E+0001
 20
 2.95062803280286E+0002
 11
-4.99603052624640E+0001
 21
 2.95107629475371E+0002
  0
LINE
  8
0
 10
-4.99603052624640E+0001
 20
 2.95107629475371E+0002
 11
-4.96882103723714E+0001
 21
 2.95155683971084E+0002
  0
LINE
  8
0
 10
-4.96882103723714E+0001
 20
 2.95155683971084E+0002
 11
-4.94179198433572E+0001
 21
 2.95206946486821E+0002
  0
LINE
  8
0
 10
-4.94179198433572E+0001
 20
 2.95206946486821E+0002
 11
-4.91494771130573E+0001
 21
 2.95261396741973E+0002
  0
LINE
  8
0
 10
-4.91494771130573E+0001
 20
 2.95261396741973E+0002
 11
-4.88829256191080E+0001
 21
 2.95319014455936E+0002
  0
LINE
  8
0
 10
-4.88829256191080E+0001
 20
 2.95319014455936E+0002
 11
-4.86183087991452E+0001
 21
 2.95379779348102E+0002
  0
LINE
  8
0
 10
-4.86183087991452E+0001
 20
 2.95379779348102E+0002
 11
-4.83556700908050E+0001
 21
 2.95443671137865E+0002
  0
LINE
  8
0
 10
-4.83556700908050E+0001
 20
 2.95443671137865E+0002
 11
-4.80950529317236E+0001
 21
 2.95510669544618E+0002
  0
LINE
  8
0
 10
-4.80950529317236E+0001
 20
 2.95510669544618E+0002
 11
-4.78365007595371E+0001
 21
 2.95580754287755E+0002
  0
LINE
  8
0
 10
-4.78365007595371E+0001
 20
 2.95580754287755E+0002
 11
-4.75800570118814E+0001
 21
 2.95653905086669E+0002
  0
LINE
  8
0
 10
-4.75800570118814E+0001
 20
 2.95653905086669E+0002
 11
-4.73257651263927E+0001
 21
 2.95730101660754E+0002
  0
LINE
  8
0
 10
-4.73257651263927E+0001
 20
 2.95730101660754E+0002
 11
-4.70736685407071E+0001
 21
 2.95809323729404E+0002
  0
LINE
  8
0
 10
-4.70736685407071E+0001
 20
 2.95809323729404E+0002
 11
-4.68238106924607E+0001
 21
 2.95891551012012E+0002
  0
LINE
  8
0
 10
-4.68238106924607E+0001
 20
 2.95891551012012E+0002
 11
-4.65762350192895E+0001
 21
 2.95976763227971E+0002
  0
LINE
  8
0
 10
-4.65762350192895E+0001
 20
 2.95976763227971E+0002
 11
-4.63309849588297E+0001
 21
 2.96064940096676E+0002
  0
LINE
  8
0
 10
-4.63309849588297E+0001
 20
 2.96064940096676E+0002
 11
-4.60881039487172E+0001
 21
 2.96156061337518E+0002
  0
LINE
  8
0
 10
-4.60881039487172E+0001
 20
 2.96156061337518E+0002
 11
-4.58476354265883E+0001
 21
 2.96250106669893E+0002
  0
LINE
  8
0
 10
-4.58476354265883E+0001
 20
 2.96250106669893E+0002
 11
-4.56096228300789E+0001
 21
 2.96347055813194E+0002
  0
LINE
  8
0
 10
-4.56096228300789E+0001
 20
 2.96347055813194E+0002
 11
-4.53741095968252E+0001
 21
 2.96446888486813E+0002
  0
LINE
  8
0
 10
-4.53741095968252E+0001
 20
 2.96446888486813E+0002
 11
-4.51411391644632E+0001
 21
 2.96549584410146E+0002
  0
LINE
  8
0
 10
-4.51411391644632E+0001
 20
 2.96549584410146E+0002
 11
-4.49107549706291E+0001
 21
 2.96655123302584E+0002
  0
LINE
  8
0
 10
-4.49107549706291E+0001
 20
 2.96655123302584E+0002
 11
-4.46830004529589E+0001
 21
 2.96763484883522E+0002
  0
LINE
  8
0
 10
-4.46830004529589E+0001
 20
 2.96763484883522E+0002
 11
-4.44579190490887E+0001
 21
 2.96874648872353E+0002
  0
LINE
  8
0
 10
-4.44579190490887E+0001
 20
 2.96874648872353E+0002
 11
-4.42355541966546E+0001
 21
 2.96988594988471E+0002
  0
LINE
  8
0
 10
-4.42355541966546E+0001
 20
 2.96988594988471E+0002
 11
-4.40159493332926E+0001
 21
 2.97105302951270E+0002
  0
LINE
  8
0
 10
-4.40159493332926E+0001
 20
 2.97105302951270E+0002
 11
-4.37991478966389E+0001
 21
 2.97224752480142E+0002
  0
LINE
  8
0
 10
-4.37991478966389E+0001
 20
 2.97224752480142E+0002
 11
-4.35851933243296E+0001
 21
 2.97346923294481E+0002
  0
LINE
  8
0
 10
-4.35851933243296E+0001
 20
 2.97346923294481E+0002
 11
-4.33741290540007E+0001
 21
 2.97471795113681E+0002
  0
LINE
  8
0
 10
-4.33741290540007E+0001
 20
 2.97471795113681E+0002
 11
-4.31659985232882E+0001
 21
 2.97599347657135E+0002
  0
LINE
  8
0
 10
-4.31659985232882E+0001
 20
 2.97599347657135E+0002
 11
-4.29608451698284E+0001
 21
 2.97729560644237E+0002
  0
LINE
  8
0
 10
-4.29608451698284E+0001
 20
 2.97729560644237E+0002
 11
-4.27587124312572E+0001
 21
 2.97862413794381E+0002
  0
LINE
  8
0
 10
-4.27587124312572E+0001
 20
 2.97862413794381E+0002
 11
-4.25596437452108E+0001
 21
 2.97997886826959E+0002
  0
LINE
  8
0
 10
-4.25596437452108E+0001
 20
 2.97997886826959E+0002
 11
-4.23636825493253E+0001
 21
 2.98135959461366E+0002
  0
LINE
  8
0
 10
-4.23636825493253E+0001
 20
 2.98135959461366E+0002
 11
-4.21708722812366E+0001
 21
 2.98276611416995E+0002
  0
LINE
  8
0
 10
-4.21708722812366E+0001
 20
 2.98276611416995E+0002
 11
-4.19812563785810E+0001
 21
 2.98419822413239E+0002
  0
LINE
  8
0
 10
-4.19812563785810E+0001
 20
 2.98419822413239E+0002
 11
-4.17948782789945E+0001
 21
 2.98565572169492E+0002
  0
LINE
  8
0
 10
-4.17948782789945E+0001
 20
 2.98565572169492E+0002
 11
-4.16117814201132E+0001
 21
 2.98713840405148E+0002
  0
LINE
  8
0
 10
-4.16117814201132E+0001
 20
 2.98713840405148E+0002
 11
-4.14320092395731E+0001
 21
 2.98864606839600E+0002
  0
LINE
  8
0
 10
-4.14320092395731E+0001
 20
 2.98864606839600E+0002
 11
-4.12556051750104E+0001
 21
 2.99017851192241E+0002
  0
LINE
  8
0
 10
-4.12556051750104E+0001
 20
 2.99017851192241E+0002
 11
-4.10826126640611E+0001
 21
 2.99173553182465E+0002
  0
LINE
  8
0
 10
-4.10826126640611E+0001
 20
 2.99173553182465E+0002
 11
-4.09130751443613E+0001
 21
 2.99331692529666E+0002
  0
LINE
  8
0
 10
-4.09130751443613E+0001
 20
 2.99331692529666E+0002
 11
-4.07470360535471E+0001
 21
 2.99492248953237E+0002
  0
LINE
  8
0
 10
-4.07470360535471E+0001
 20
 2.99492248953237E+0002
 11
-4.05845388292546E+0001
 21
 2.99655202172572E+0002
  0
LINE
  8
0
 10
-4.05845388292546E+0001
 20
 2.99655202172572E+0002
 11
-4.04256269091199E+0001
 21
 2.99820531907063E+0002
  0
LINE
  8
0
 10
-4.04256269091199E+0001
 20
 2.99820531907063E+0002
 11
-4.02703437307790E+0001
 21
 2.99988217876106E+0002
  0
LINE
  8
0
 10
-4.02703437307790E+0001
 20
 2.99988217876106E+0002
 11
-4.01187327318681E+0001
 21
 3.00158239799092E+0002
  0
LINE
  8
0
 10
-4.01187327318681E+0001
 20
 3.00158239799092E+0002
 11
-3.99708373500231E+0001
 21
 3.00330577395416E+0002
  0
LINE
  8
0
 10
-3.99708373500231E+0001
 20
 3.00330577395416E+0002
 11
-3.98267010228803E+0001
 21
 3.00505210384472E+0002
  0
LINE
  8
0
 10
-3.98267010228803E+0001
 20
 3.00505210384472E+0002
 11
-3.96863671880757E+0001
 21
 3.00682118485652E+0002
  0
LINE
  8
0
 10
-3.96863671880757E+0001
 20
 3.00682118485652E+0002
 11
-3.95498792832454E+0001
 21
 3.00861281418350E+0002
  0
LINE
  8
0
 10
-3.95498792832454E+0001
 20
 3.00861281418350E+0002
 11
-3.94172807460254E+0001
 21
 3.01042678901961E+0002
  0
LINE
  8
0
 10
-3.94172807460254E+0001
 20
 3.01042678901961E+0002
 11
-3.92886150140518E+0001
 21
 3.01226290655876E+0002
  0
LINE
  8
0
 10
-3.92886150140518E+0001
 20
 3.01226290655876E+0002
 11
-3.91639255249608E+0001
 21
 3.01412096399491E+0002
  0
LINE
  8
0
 10
-3.91639255249608E+0001
 20
 3.01412096399491E+0002
 11
-3.90432557163884E+0001
 21
 3.01600075852197E+0002
  0
LINE
  8
0
 10
-3.90432557163884E+0001
 20
 3.01600075852197E+0002
 11
-3.89266490259707E+0001
 21
 3.01790208733390E+0002
  0
LINE
  8
0
 10
-3.89266490259707E+0001
 20
 3.01790208733390E+0002
 11
-3.88141488913438E+0001
 21
 3.01982474762462E+0002
  0
LINE
  8
0
 10
-3.88141488913438E+0001
 20
 3.01982474762462E+0002
 11
-3.87057987501437E+0001
 21
 3.02176853658807E+0002
  0
LINE
  8
0
 10
-3.87057987501437E+0001
 20
 3.02176853658807E+0002
 11
-3.86016420400066E+0001
 21
 3.02373325141818E+0002
  0
LINE
  8
0
 10
-3.86016420400066E+0001
 20
 3.02373325141818E+0002
 11
-3.85017221985685E+0001
 21
 3.02571868930889E+0002
  0
LINE
  8
0
 10
-3.85017221985685E+0001
 20
 3.02571868930889E+0002
 11
-3.84060826634655E+0001
 21
 3.02772464745414E+0002
  0
LINE
  8
0
 10
-3.84060826634655E+0001
 20
 3.02772464745414E+0002
 11
-3.83147668723337E+0001
 21
 3.02975092304786E+0002
  0
LINE
  8
0
 10
-3.83147668723337E+0001
 20
 3.02975092304786E+0002
 11
-3.82278182628092E+0001
 21
 3.03179731328398E+0002
  0
LINE
  8
0
 10
-3.82278182628092E+0001
 20
 3.03179731328398E+0002
 11
-3.81452802725281E+0001
 21
 3.03386361535644E+0002
  0
LINE
  8
0
 10
-3.81452802725281E+0001
 20
 3.03386361535644E+0002
 11
-3.80671963391264E+0001
 21
 3.03594962645918E+0002
  0
LINE
  8
0
 10
-3.80671963391264E+0001
 20
 3.03594962645918E+0002
 11
-3.79936099002403E+0001
 21
 3.03805514378613E+0002
  0
LINE
  8
0
 10
-3.79936099002403E+0001
 20
 3.03805514378613E+0002
 11
-3.79245643935058E+0001
 21
 3.04017996453123E+0002
  0
LINE
  8
0
 10
-3.79245643935058E+0001
 20
 3.04017996453123E+0002
 11
-3.78601032565590E+0001
 21
 3.04232388588840E+0002
  0
LINE
  8
0
 10
-3.78601032565590E+0001
 20
 3.04232388588840E+0002
 11
-3.78002699270359E+0001
 21
 3.04448670505159E+0002
  0
LINE
  8
0
 10
-3.78002699270359E+0001
 20
 3.04448670505159E+0002
 11
-3.77451078425728E+0001
 21
 3.04666821921474E+0002
  0
LINE
  8
0
 10
-3.77451078425728E+0001
 20
 3.04666821921474E+0002
 11
-3.76946604408056E+0001
 21
 3.04886822557177E+0002
  0
LINE
  8
0
 10
-3.76946604408056E+0001
 20
 3.04886822557177E+0002
 11
-3.76489711593704E+0001
 21
 3.05108652131662E+0002
  0
LINE
  8
0
 10
-3.76489711593704E+0001
 20
 3.05108652131662E+0002
 11
-3.76489711593704E+0001
 21
 3.05108652131662E+0002
  0
LINE
  8
0
 10
-3.76489711593704E+0001
 20
 3.05108652131662E+0002
 11
-3.76082347022270E+0001
 21
 3.05331444437665E+0002
  0
LINE
  8
0
 10
-3.76082347022270E+0001
 20
 3.05331444437665E+0002
 11
-3.75725950299603E+0001
 21
 3.05554323404406E+0002
  0
LINE
  8
0
 10
-3.75725950299603E+0001
 20
 3.05554323404406E+0002
 11
-3.75420194651444E+0001
 21
 3.05777253956010E+0002
  0
LINE
  8
0
 10
-3.75420194651444E+0001
 20
 3.05777253956010E+0002
 11
-3.75164753303532E+0001
 21
 3.06000201016601E+0002
  0
LINE
  8
0
 10
-3.75164753303532E+0001
 20
 3.06000201016601E+0002
 11
-3.74959299481610E+0001
 21
 3.06223129510304E+0002
  0
LINE
  8
0
 10
-3.74959299481610E+0001
 20
 3.06223129510304E+0002
 11
-3.74803506411417E+0001
 21
 3.06446004361243E+0002
  0
LINE
  8
0
 10
-3.74803506411417E+0001
 20
 3.06446004361243E+0002
 11
-3.74697047318693E+0001
 21
 3.06668790493541E+0002
  0
LINE
  8
0
 10
-3.74697047318693E+0001
 20
 3.06668790493541E+0002
 11
-3.74639595429179E+0001
 21
 3.06891452831324E+0002
  0
LINE
  8
0
 10
-3.74639595429179E+0001
 20
 3.06891452831324E+0002
 11
-3.74630823968616E+0001
 21
 3.07113956298715E+0002
  0
LINE
  8
0
 10
-3.74630823968616E+0001
 20
 3.07113956298715E+0002
 11
-3.74670406162744E+0001
 21
 3.07336265819839E+0002
  0
LINE
  8
0
 10
-3.74670406162744E+0001
 20
 3.07336265819839E+0002
 11
-3.74758015237304E+0001
 21
 3.07558346318820E+0002
  0
LINE
  8
0
 10
-3.74758015237304E+0001
 20
 3.07558346318820E+0002
 11
-3.74893324418035E+0001
 21
 3.07780162719782E+0002
  0
LINE
  8
0
 10
-3.74893324418035E+0001
 20
 3.07780162719782E+0002
 11
-3.75076006930679E+0001
 21
 3.08001679946849E+0002
  0
LINE
  8
0
 10
-3.75076006930679E+0001
 20
 3.08001679946849E+0002
 11
-3.75305736000976E+0001
 21
 3.08222862924145E+0002
  0
LINE
  8
0
 10
-3.75305736000976E+0001
 20
 3.08222862924145E+0002
 11
-3.75582184854667E+0001
 21
 3.08443676575796E+0002
  0
LINE
  8
0
 10
-3.75582184854667E+0001
 20
 3.08443676575796E+0002
 11
-3.75905026717491E+0001
 21
 3.08664085825925E+0002
  0
LINE
  8
0
 10
-3.75905026717491E+0001
 20
 3.08664085825925E+0002
 11
-3.76273934815190E+0001
 21
 3.08884055598656E+0002
  0
LINE
  8
0
 10
-3.76273934815190E+0001
 20
 3.08884055598656E+0002
 11
-3.76688582373503E+0001
 21
 3.09103550818113E+0002
  0
LINE
  8
0
 10
-3.76688582373503E+0001
 20
 3.09103550818113E+0002
 11
-3.77148642618172E+0001
 21
 3.09322536408421E+0002
  0
LINE
  8
0
 10
-3.77148642618172E+0001
 20
 3.09322536408421E+0002
 11
-3.77653788774937E+0001
 21
 3.09540977293704E+0002
  0
LINE
  8
0
 10
-3.77653788774937E+0001
 20
 3.09540977293704E+0002
 11
-3.78203694069538E+0001
 21
 3.09758838398087E+0002
  0
LINE
  8
0
 10
-3.78203694069538E+0001
 20
 3.09758838398087E+0002
 11
-3.78798031727715E+0001
 21
 3.09976084645692E+0002
  0
LINE
  8
0
 10
-3.78798031727715E+0001
 20
 3.09976084645692E+0002
 11
-3.79436474975210E+0001
 21
 3.10192680960646E+0002
  0
LINE
  8
0
 10
-3.79436474975210E+0001
 20
 3.10192680960646E+0002
 11
-3.80118697037763E+0001
 21
 3.10408592267071E+0002
  0
LINE
  8
0
 10
-3.80118697037763E+0001
 20
 3.10408592267071E+0002
 11
-3.80844371141114E+0001
 21
 3.10623783489093E+0002
  0
LINE
  8
0
 10
-3.80844371141114E+0001
 20
 3.10623783489093E+0002
 11
-3.81613170511004E+0001
 21
 3.10838219550835E+0002
  0
LINE
  8
0
 10
-3.81613170511004E+0001
 20
 3.10838219550835E+0002
 11
-3.82424768373172E+0001
 21
 3.11051865376421E+0002
  0
LINE
  8
0
 10
-3.82424768373172E+0001
 20
 3.11051865376421E+0002
 11
-3.83278837953361E+0001
 21
 3.11264685889977E+0002
  0
LINE
  8
0
 10
-3.83278837953361E+0001
 20
 3.11264685889977E+0002
 11
-3.84175052477309E+0001
 21
 3.11476646015625E+0002
  0
LINE
  8
0
 10
-3.84175052477309E+0001
 20
 3.11476646015625E+0002
 11
-3.85113085170758E+0001
 21
 3.11687710677491E+0002
  0
LINE
  8
0
 10
-3.85113085170758E+0001
 20
 3.11687710677491E+0002
 11
-3.86092609259449E+0001
 21
 3.11897844799698E+0002
  0
LINE
  8
0
 10
-3.86092609259449E+0001
 20
 3.11897844799698E+0002
 11
-3.87113297969120E+0001
 21
 3.12107013306371E+0002
  0
LINE
  8
0
 10
-3.87113297969120E+0001
 20
 3.12107013306371E+0002
 11
-3.88174824525514E+0001
 21
 3.12315181121634E+0002
  0
LINE
  8
0
 10
-3.88174824525514E+0001
 20
 3.12315181121634E+0002
 11
-3.89276862154370E+0001
 21
 3.12522313169611E+0002
  0
LINE
  8
0
 10
-3.89276862154370E+0001
 20
 3.12522313169611E+0002
 11
-3.90419084081429E+0001
 21
 3.12728374374427E+0002
  0
LINE
  8
0
 10
-3.90419084081429E+0001
 20
 3.12728374374427E+0002
 11
-3.91601163532432E+0001
 21
 3.12933329660206E+0002
  0
LINE
  8
0
 10
-3.91601163532432E+0001
 20
 3.12933329660206E+0002
 11
-3.92822773733118E+0001
 21
 3.13137143951071E+0002
  0
LINE
  8
0
 10
-3.92822773733118E+0001
 20
 3.13137143951071E+0002
 11
-3.94083587909229E+0001
 21
 3.13339782171147E+0002
  0
LINE
  8
0
 10
-3.94083587909229E+0001
 20
 3.13339782171147E+0002
 11
-3.95383279286505E+0001
 21
 3.13541209244559E+0002
  0
LINE
  8
0
 10
-3.95383279286505E+0001
 20
 3.13541209244559E+0002
 11
-3.96721521090686E+0001
 21
 3.13741390095431E+0002
  0
LINE
  8
0
 10
-3.96721521090686E+0001
 20
 3.13741390095431E+0002
 11
-3.98097986547513E+0001
 21
 3.13940289647886E+0002
  0
LINE
  8
0
 10
-3.98097986547513E+0001
 20
 3.13940289647886E+0002
 11
-3.99512348882726E+0001
 21
 3.14137872826050E+0002
  0
LINE
  8
0
 10
-3.99512348882726E+0001
 20
 3.14137872826050E+0002
 11
-4.00964281322067E+0001
 21
 3.14334104554046E+0002
  0
LINE
  8
0
 10
-4.00964281322067E+0001
 20
 3.14334104554046E+0002
 11
-4.02453457091274E+0001
 21
 3.14528949755998E+0002
  0
LINE
  8
0
 10
-4.02453457091274E+0001
 20
 3.14528949755998E+0002
 11
-4.03979549416089E+0001
 21
 3.14722373356031E+0002
  0
LINE
  8
0
 10
-4.03979549416089E+0001
 20
 3.14722373356031E+0002
 11
-4.05542231522252E+0001
 21
 3.14914340278269E+0002
  0
LINE
  8
0
 10
-4.05542231522252E+0001
 20
 3.14914340278269E+0002
 11
-4.07141176635504E+0001
 21
 3.15104815446837E+0002
  0
LINE
  8
0
 10
-4.07141176635504E+0001
 20
 3.15104815446837E+0002
 11
-4.08776057981585E+0001
 21
 3.15293763785858E+0002
  0
LINE
  8
0
 10
-4.08776057981585E+0001
 20
 3.15293763785858E+0002
 11
-4.10446548786236E+0001
 21
 3.15481150219457E+0002
  0
LINE
  8
0
 10
-4.10446548786236E+0001
 20
 3.15481150219457E+0002
 11
-4.12152322275197E+0001
 21
 3.15666939671757E+0002
  0
LINE
  8
0
 10
-4.12152322275197E+0001
 20
 3.15666939671757E+0002
 11
-4.13893051674208E+0001
 21
 3.15851097066884E+0002
  0
LINE
  8
0
 10
-4.13893051674208E+0001
 20
 3.15851097066884E+0002
 11
-4.15668410209011E+0001
 21
 3.16033587328961E+0002
  0
LINE
  8
0
 10
-4.15668410209011E+0001
 20
 3.16033587328961E+0002
 11
-4.17478071105345E+0001
 21
 3.16214375382113E+0002
  0
LINE
  8
0
 10
-4.17478071105345E+0001
 20
 3.16214375382113E+0002
 11
-4.19321707588951E+0001
 21
 3.16393426150464E+0002
  0
LINE
  8
0
 10
-4.19321707588951E+0001
 20
 3.16393426150464E+0002
 11
-4.21198992885570E+0001
 21
 3.16570704558138E+0002
  0
LINE
  8
0
 10
-4.21198992885570E+0001
 20
 3.16570704558138E+0002
 11
-4.23109600220941E+0001
 21
 3.16746175529259E+0002
  0
LINE
  8
0
 10
-4.23109600220941E+0001
 20
 3.16746175529259E+0002
 11
-4.25053202820806E+0001
 21
 3.16919803987952E+0002
  0
LINE
  8
0
 10
-4.25053202820806E+0001
 20
 3.16919803987952E+0002
 11
-4.27029473910905E+0001
 21
 3.17091554858340E+0002
  0
LINE
  8
0
 10
-4.27029473910905E+0001
 20
 3.17091554858340E+0002
 11
-4.29038086716979E+0001
 21
 3.17261393064549E+0002
  0
LINE
  8
0
 10
-4.29038086716979E+0001
 20
 3.17261393064549E+0002
 11
-4.31078714464767E+0001
 21
 3.17429283530702E+0002
  0
LINE
  8
0
 10
-4.31078714464767E+0001
 20
 3.17429283530702E+0002
 11
-4.33151030380011E+0001
 21
 3.17595191180924E+0002
  0
LINE
  8
0
 10
-4.33151030380011E+0001
 20
 3.17595191180924E+0002
 11
-4.35254707688450E+0001
 21
 3.17759080939338E+0002
  0
LINE
  8
0
 10
-4.35254707688450E+0001
 20
 3.17759080939338E+0002
 11
-4.37389419615826E+0001
 21
 3.17920917730069E+0002
  0
LINE
  8
0
 10
-4.37389419615826E+0001
 20
 3.17920917730069E+0002
 11
-4.39554839387879E+0001
 21
 3.18080666477241E+0002
  0
LINE
  8
0
 10
-4.39554839387879E+0001
 20
 3.18080666477241E+0002
 11
-4.41750640230349E+0001
 21
 3.18238292104979E+0002
  0
LINE
  8
0
 10
-4.41750640230349E+0001
 20
 3.18238292104979E+0002
 11
-4.43976495368976E+0001
 21
 3.18393759537407E+0002
  0
LINE
  8
0
 10
-4.43976495368976E+0001
 20
 3.18393759537407E+0002
 11
-4.46232078029502E+0001
 21
 3.18547033698648E+0002
  0
LINE
  8
0
 10
-4.46232078029502E+0001
 20
 3.18547033698648E+0002
 11
-4.48517061437667E+0001
 21
 3.18698079512827E+0002
  0
LINE
  8
0
 10
-4.48517061437667E+0001
 20
 3.18698079512827E+0002
 11
-4.50831118819211E+0001
 21
 3.18846861904069E+0002
  0
LINE
  8
0
 10
-4.50831118819211E+0001
 20
 3.18846861904069E+0002
 11
-4.53173923399874E+0001
 21
 3.18993345796498E+0002
  0
LINE
  8
0
 10
-4.53173923399874E+0001
 20
 3.18993345796498E+0002
 11
-4.55545148405398E+0001
 21
 3.19137496114237E+0002
  0
LINE
  8
0
 10
-4.55545148405398E+0001
 20
 3.19137496114237E+0002
 11
-4.57944467061522E+0001
 21
 3.19279277781412E+0002
  0
LINE
  8
0
 10
-4.57944467061522E+0001
 20
 3.19279277781412E+0002
 11
-4.60371552593987E+0001
 21
 3.19418655722145E+0002
  0
LINE
  8
0
 10
-4.60371552593987E+0001
 20
 3.19418655722145E+0002
 11
-4.62826078228534E+0001
 21
 3.19555594860563E+0002
  0
LINE
  8
0
 10
-4.62826078228534E+0001
 20
 3.19555594860563E+0002
 11
-4.65307717190903E+0001
 21
 3.19690060120788E+0002
  0
LINE
  8
0
 10
-4.65307717190903E+0001
 20
 3.19690060120788E+0002
 11
-4.67816142706834E+0001
 21
 3.19822016426945E+0002
  0
LINE
  8
0
 10
-4.67816142706834E+0001
 20
 3.19822016426945E+0002
 11
-4.70351028002069E+0001
 21
 3.19951428703158E+0002
  0
LINE
  8
0
 10
-4.70351028002069E+0001
 20
 3.19951428703158E+0002
 11
-4.72912046302346E+0001
 21
 3.20078261873551E+0002
  0
LINE
  8
0
 10
-4.72912046302346E+0001
 20
 3.20078261873551E+0002
 11
-4.75498870833408E+0001
 21
 3.20202480862250E+0002
  0
LINE
  8
0
 10
-4.75498870833408E+0001
 20
 3.20202480862250E+0002
 11
-4.78111174820994E+0001
 21
 3.20324050593377E+0002
  0
LINE
  8
0
 10
-4.78111174820994E+0001
 20
 3.20324050593377E+0002
 11
-4.80748631490845E+0001
 21
 3.20442935991058E+0002
  0
LINE
  8
0
 10
-4.80748631490845E+0001
 20
 3.20442935991058E+0002
 11
-4.83410914068702E+0001
 21
 3.20559101979416E+0002
  0
LINE
  8
0
 10
-4.83410914068702E+0001
 20
 3.20559101979416E+0002
 11
-4.86097695780304E+0001
 21
 3.20672513482575E+0002
  0
LINE
  8
0
 10
-4.86097695780304E+0001
 20
 3.20672513482575E+0002
 11
-4.88808649851393E+0001
 21
 3.20783135424660E+0002
  0
LINE
  8
0
 10
-4.88808649851393E+0001
 20
 3.20783135424660E+0002
 11
-4.91543449507708E+0001
 21
 3.20890932729796E+0002
  0
LINE
  8
0
 10
-4.91543449507708E+0001
 20
 3.20890932729796E+0002
 11
-4.94301767974991E+0001
 21
 3.20995870322105E+0002
  0
LINE
  8
0
 10
-4.94301767974991E+0001
 20
 3.20995870322105E+0002
 11
-4.97083278478982E+0001
 21
 3.21097913125714E+0002
  0
LINE
  8
0
 10
-4.97083278478982E+0001
 20
 3.21097913125714E+0002
 11
-4.99887654245421E+0001
 21
 3.21197026064745E+0002
  0
LINE
  8
0
 10
-4.99887654245421E+0001
 20
 3.21197026064745E+0002
 11
-5.02714568500048E+0001
 21
 3.21293174063323E+0002
  0
LINE
  8
0
 10
-5.02714568500048E+0001
 20
 3.21293174063323E+0002
 11
-5.05563694468605E+0001
 21
 3.21386322045572E+0002
  0
LINE
  8
0
 10
-5.05563694468605E+0001
 20
 3.21386322045572E+0002
 11
-5.08434705376831E+0001
 21
 3.21476434935617E+0002
  0
LINE
  8
0
 10
-5.08434705376831E+0001
 20
 3.21476434935617E+0002
 11
-5.11327274450468E+0001
 21
 3.21563477657582E+0002
  0
LINE
  8
0
 10
-5.11327274450468E+0001
 20
 3.21563477657582E+0002
 11
-5.14241074915255E+0001
 21
 3.21647415135590E+0002
  0
LINE
  8
0
 10
-5.14241074915255E+0001
 20
 3.21647415135590E+0002
 11
-5.17175779996933E+0001
 21
 3.21728212293767E+0002
  0
LINE
  8
0
 10
-5.17175779996933E+0001
 20
 3.21728212293767E+0002
 11
-5.20131062921243E+0001
 21
 3.21805834056236E+0002
  0
LINE
  8
0
 10
-5.20131062921243E+0001
 20
 3.21805834056236E+0002
 11
-5.23106596913925E+0001
 21
 3.21880245347122E+0002
  0
LINE
  8
0
 10
-5.23106596913925E+0001
 20
 3.21880245347122E+0002
 11
-5.26102055200719E+0001
 21
 3.21951411090548E+0002
  0
LINE
  8
0
 10
-5.26102055200719E+0001
 20
 3.21951411090548E+0002
 11
-5.29117111007366E+0001
 21
 3.22019296210640E+0002
  0
LINE
  8
0
 10
-5.29117111007366E+0001
 20
 3.22019296210640E+0002
 11
-5.32151437559607E+0001
 21
 3.22083865631521E+0002
  0
LINE
  8
0
 10
-5.32151437559607E+0001
 20
 3.22083865631521E+0002
 11
-5.35204708083182E+0001
 21
 3.22145084277316E+0002
  0
LINE
  8
0
 10
-5.35204708083182E+0001
 20
 3.22145084277316E+0002
 11
-5.35204963275186E+0001
 21
 3.22145141006778E+0002
  0
ARC
  8
0
 10
-6.11748000000000E+0001
 20
 3.09681700000000E+0002
 40
 1.46262000000000E+0001
 50
 2.79555430000000E+0002
 51
 4.18444230000000E+0002
  0
ARC
  8
0
 10
-2.46894000000000E+0001
 20
 3.20069900000000E+0002
 40
 2.76040000000000E+0000
 50
 4.95000000000000E+0001
 51
 2.29500000000000E+0002
  0
LINE
  8
0
 10
-2.28966636073894E+0001
 20
 3.22168924627442E+0002
 11
-2.28969124375304E+0001
 21
 3.22168876031676E+0002
  0
ARC
  8
0
 10
 4.55162900000000E+0002
 20
 8.81905000000000E+0002
 40
 7.36101700000000E+0002
 50
 2.29500000000000E+0002
 51
 2.41500000000000E+0002
  0
LINE
  8
0
 10
 1.03925525403009E+0002
 20
 2.35006229380436E+0002
 11
 1.03925600000000E+0002
 21
 2.35006200000000E+0002
  0
LINE
  8
0
 10
 1.03925600000000E+0002
 20
 2.35006200000000E+0002
 11
 1.03925549041820E+0002
 21
 2.35006286757792E+0002
  0
ARC
  8
0
 10
 1.02608400000000E+0002
 20
 2.32580400000000E+0002
 40
 2.76040000000000E+0000
 50
 2.41500000000000E+0002
 51
 4.21500000000000E+0002
  0
LINE
  8
0
 10
 1.01291250958179E+0002
 20
 2.30154513242208E+0002
 11
 1.01291275035244E+0002
 21
 2.30154543746563E+0002
  0
ARC
  8
0
 10
 4.55162900000000E+0002
 20
 8.81905000000000E+0002
 40
 7.41622400000000E+0002
 50
 2.29500000000000E+0002
 51
 2.41500000000000E+0002
  0
LINE
  8
0
 10
-2.64823202779468E+0001
 20
 3.17970902817388E+0002
 11
-2.64823000000000E+0001
 21
 3.17971000000000E+0002
  0
ARC
  8
0
 10
 9.19984000000000E+0001
 20
 2.81571100000000E+0002
 40
 1.84020000000000E+0000
 50
 5.00000000000000E+0000
 51
 1.85000000000000E+0002
  0
LINE
  8
0
 10
 9.38315974834284E+0001
 20
 2.81731483997804E+0002
 11
 9.38317678611817E+0001
 21
 2.81731586752428E+0002
  0
ARC
  8
0
 10
 1.39663000000000E+0002
 20
 2.85741300000000E+0002
 40
 4.60063000000000E+0001
 50
 1.85000000000000E+0002
 51
 2.30000000000000E+0002
  0
LINE
  8
0
 10
 1.10090720392478E+0002
 20
 2.50498429536535E+0002
 11
 1.36875217354248E+0002
 21
 2.28023328130026E+0002
  0
ARC
  8
0
 10
 1.30960800000000E+0002
 20
 2.20974800000000E+0002
 40
 9.20120000000000E+0000
 50
 5.00000000000000E+0000
 51
 5.00000000000000E+0001
  0
LINE
  8
0
 10
 1.40126986656082E+0002
 20
 2.21776737420170E+0002
 11
 1.40127097483428E+0002
 21
 2.21776783997804E+0002
  0
ARC
  8
0
 10
 1.38293900000000E+0002
 20
 2.21616400000000E+0002
 40
 1.84020000000000E+0000
 50
 1.85000000000000E+0002
 51
 3.65000000000000E+0002
  0
LINE
  8
0
 10
 1.36460702516572E+0002
 20
 2.21456016002196E+0002
 11
 1.36460492069755E+0002
 21
 2.21455960708987E+0002
  0
ARC
  8
0
 10
 1.30960800000000E+0002
 20
 2.20974800000000E+0002
 40
 5.52070000000000E+0000
 50
 5.00000000000000E+0000
 51
 5.00000000000000E+0001
  0
LINE
  8
0
 10
 1.34509437556796E+0002
 20
 2.25203901557127E+0002
 11
 1.07724876316265E+0002
 21
 2.47678926359192E+0002
  0
ARC
  8
0
 10
 1.39663000000000E+0002
 20
 2.85741300000000E+0002
 40
 4.96869000000000E+0001
 50
 1.85000000000000E+0002
 51
 2.30000000000000E+0002
  0
ARC
  8
0
 10
 8.29541000000000E+0001
 20
 1.70183800000000E+0002
 40
 1.84020000000000E+0000
 50
 2.63000000000000E+0002
 51
 4.43000000000000E+0002
  0
LINE
  8
0
 10
 8.31783639657341E+0001
 20
 1.72010283428250E+0002
 11
 8.31784668548040E+0001
 21
 1.72010401828870E+0002
  0
ARC
  8
0
 10
 6.07514000000000E+0001
 20
-1.06434000000000E+0001
 40
 1.84025500000000E+0002
 50
 8.30000000000000E+0001
 51
 9.00000000000000E+0001
  0
LINE
  8
0
 10
 6.07514000000000E+0001
 20
 1.73382100000000E+0002
 11
 6.07514500000000E+0001
 21
 1.73381914457644E+0002
  0
ARC
  8
0
 10
 4.87898000000000E+0001
 20
 1.94100100000000E+0002
 40
 2.39233000000000E+0001
 50
 2.70000000000000E+0002
 51
 3.00000000000000E+0002
  0
LINE
  8
0
 10
 4.87898000000000E+0001
 20
 1.70176800000000E+0002
 11
 4.87898000000000E+0001
 21
 1.70176800000000E+0002
  0
ARC
  8
0
 10
 4.87898000000000E+0001
 20
 1.97780600000000E+0002
 40
 2.76038000000000E+0001
 50
 2.35000130000000E+0002
 51
 2.70000000000000E+0002
  0
LINE
  8
0
 10
 3.29569620706345E+0001
 20
 1.75168854876228E+0002
 11
 3.29570255951834E+0001
 21
 1.75169006235632E+0002
  0
ARC
  8
0
 10
 3.82346000000000E+0001
 20
 1.82706200000000E+0002
 40
 9.20120000000000E+0000
 50
 1.05000000000000E+0002
 51
 2.35000130000000E+0002
  0
LINE
  8
0
 10
 3.58531542022027E+0001
 20
 1.91593876712851E+0002
 11
 8.02918783261944E+0001
 21
 2.03501293258304E+0002
  0
ARC
  8
0
 10
 9.93436000000000E+0001
 20
 1.32399300000000E+0002
 40
 7.36102000000000E+0001
 50
 8.50000000000000E+0001
 51
 1.05000000000000E+0002
  0
LINE
  8
0
 10
 1.05759151654803E+0002
 20
 2.05729390965473E+0002
 11
 1.24091616002195E+0002
 21
 2.04125602516572E+0002
  0
ARC
  8
0
 10
 1.24252000000000E+0002
 20
 2.05958800000000E+0002
 40
 1.84020000000000E+0000
 50
 2.65000000000000E+0002
 51
 4.45000000000000E+0002
  0
LINE
  8
0
 10
 1.24412383997804E+0002
 20
 2.07791997483428E+0002
 11
 1.06079928365986E+0002
 21
 2.09395885551800E+0002
  0
ARC
  8
0
 10
 9.93436000000000E+0001
 20
 1.32399300000000E+0002
 40
 7.72907000000000E+0001
 50
 8.50000000000000E+0001
 51
 1.05000000000000E+0002
  0
LINE
  8
0
 10
 7.93392948306946E+0001
 20
 2.07056383261960E+0002
 11
 3.49005448247983E+0001
 21
 1.95149063309091E+0002
  0
ARC
  8
0
 10
 3.82346000000000E+0001
 20
 1.82706200000000E+0002
 40
 1.28818000000000E+0001
 50
 1.05000000000000E+0002
 51
 2.35000130000000E+0002
  0
LINE
  8
0
 10
 3.08459270043074E+0001
 20
 1.72154030431484E+0002
 11
 3.08458634797585E+0001
 21
 1.72153879072079E+0002
  0
ARC
  8
0
 10
 4.87898000000000E+0001
 20
 1.97780600000000E+0002
 40
 3.12844000000000E+0001
 50
 2.35000130000000E+0002
 51
 2.70000000000000E+0002
  0
LINE
  8
0
 10
 4.87898000000000E+0001
 20
 1.66496200000000E+0002
 11
 4.87898000000000E+0001
 21
 1.66496300000000E+0002
  0
ARC
  8
0
 10
 4.87898000000000E+0001
 20
 1.94100100000000E+0002
 40
 2.76038000000000E+0001
 50
 2.70000000000000E+0002
 51
 2.97874210000000E+0002
  0
LINE
  8
0
 10
 6.16954588808454E+0001
 20
 1.69698998727900E+0002
 11
 6.16954275680483E+0001
 21
 1.69699029195020E+0002
  0
ARC
  8
0
 10
 6.07514000000000E+0001
 20
-1.06434000000000E+0001
 40
 1.80344900000000E+0002
 50
 8.30000000000000E+0001
 51
 8.97000800000000E+0001
  0
ARC
  8
0
 10
-3.38906000000000E+0001
 20
 2.66702600000000E+0002
 40
 1.84020000000000E+0000
 50
 7.00000000000000E+0001
 51
 2.50000000000000E+0002
  0
LINE
  8
0
 10
-3.32612145322521E+0001
 20
 2.68431822360770E+0002
 11
-3.32612000000000E+0001
 21
 2.68431900000000E+0002
  0
LINE
  8
0
 10
-3.32612000000000E+0001
 20
 2.68431900000000E+0002
 11
-3.32613464962828E+0001
 21
 2.68431837036838E+0002
  0
ARC
  8
0
 10
-4.42759000000000E+0001
 20
 2.38169600000000E+0002
 40
 3.22044000000000E+0001
 50
 3.50000000000000E+0001
 51
 7.00000000000000E+0001
  0
LINE
  8
0
 10
-1.78955999048996E+0001
 20
 2.56641284986824E+0002
 11
-1.78955000000000E+0001
 21
 2.56641300000000E+0002
  0
LINE
  8
0
 10
-1.78955000000000E+0001
 20
 2.56641300000000E+0002
 11
 3.21500000000000E+0000
 21
 2.26492400000000E+0002
  0
LINE
  8
0
 10
 3.21500000000000E+0000
 20
 2.26492400000000E+0002
 11
 3.21499990489959E+0000
 21
 2.26492515013176E+0002
  0
ARC
  8
0
 10
 2.95953000000000E+0001
 20
 2.44964200000000E+0002
 40
 3.22044000000000E+0001
 50
 2.15000000000000E+0002
 51
 3.05000000000000E+0002
  0
LINE
  8
0
 10
 4.80669849868236E+0001
 20
 2.18583899904900E+0002
 11
 4.80671000000000E+0001
 21
 2.18583800000000E+0002
  0
LINE
  8
0
 10
 4.80671000000000E+0001
 20
 2.18583800000000E+0002
 11
 4.95747000000000E+0001
 21
 2.19639300000000E+0002
  0
LINE
  8
0
 10
 4.95747000000000E+0001
 20
 2.19639300000000E+0002
 11
 4.95746984203863E+0001
 21
 2.19639449212221E+0002
  0
ARC
  8
0
 10
 5.59079000000000E+0001
 20
 2.10594700000000E+0002
 40
 1.10416000000000E+0001
 50
 7.00000000000000E+0001
 51
 1.25000000000000E+0002
  0
LINE
  8
0
 10
 5.96843496145447E+0001
 20
 2.20970410041670E+0002
 11
 5.96843000000000E+0001
 21
 2.20970400000000E+0002
  0
LINE
  8
0
 10
 5.96843000000000E+0001
 20
 2.20970400000000E+0002
 11
 6.48722000000000E+0001
 21
 2.19082100000000E+0002
  0
LINE
  8
0
 10
 6.48722000000000E+0001
 20
 2.19082100000000E+0002
 11
 6.48721854677479E+0001
 21
 2.19082122360770E+0002
  0
ARC
  8
0
 10
 6.42428000000000E+0001
 20
 2.17352900000000E+0002
 40
 1.84020000000000E+0000
 50
 2.50000000000000E+0002
 51
 4.30000000000000E+0002
  0
LINE
  8
0
 10
 6.36134145322521E+0001
 20
 2.15623677639230E+0002
 11
 5.84255102750203E+0001
 21
 2.17511777381605E+0002
  0
ARC
  8
0
 10
 5.59079000000000E+0001
 20
 2.10594700000000E+0002
 40
 7.36100000000000E+0000
 50
 7.00000000000000E+0001
 51
 1.25000000000000E+0002
  0
LINE
  8
0
 10
 5.16858038520200E+0001
 20
 2.16624478198011E+0002
 11
 5.01780330608137E+0001
 21
 2.15569010805894E+0002
  0
ARC
  8
0
 10
 2.95953000000000E+0001
 20
 2.44964200000000E+0002
 40
 3.58849000000000E+0001
 50
 2.15000000000000E+0002
 51
 3.05000000000000E+0002
  0
LINE
  8
0
 10
 2.00110805893957E-0001
 20
 2.24381466939186E+0002
 11
-2.09104890039052E+0001
 21
 2.54530236912834E+0002
  0
ARC
  8
0
 10
-4.42759000000000E+0001
 20
 2.38169600000000E+0002
 40
 2.85239000000000E+0001
 50
 3.50000000000000E+0001
 51
 7.00000000000000E+0001
  0
ENDSEC
  0
EOF
