  0
SECTION
  2
HEADER
  9
$ACADVER
  1
AC1003
  9
$INSBASE
 10
0.0
 20
0.0
  9
$EXTMIN
 10
 0.00000000000000E+0000
 20
 0.00000000000000E+0000
  9
$EXTMAX
 10
 1.25000000000000E+0003
 20
 1.60000000000000E+0003
  9
$LIMMIN
 10
0.0
 20
0.0
  9
$LIMMAX
 10
410.0
 20
287.0
  9
$VIEWCTR
 10
227.0059616
 20
165.058879 
  9
$VIEWSIZE
 40
 1.60000000000000E+0003
9
$SNAPMODE
70
0
9
$SNAPUNIT
10
1
20
1
9
$GRIDMODE
70
0
9
$GRIDUNIT
10
1
20
1
9
$ORTHOMODE
70
0
9
$rEGENMODE
70
1
9
$FILLMODE
70
1
9
$DRAGMODE
70
2
9
$LTSCALE
40
25.0
9
$OSMODE
70
0
9
$ATTMODE
70
1
9
$TRACEWID
40
1.0
9
$TEXTSTYLE
7
STANDARD
9
$CLAYER
8
0
9
$CELTYPE
6
VONLAYER
9
$CECOLOR
62
256
9
$LUNITS
70
2
9
$LUPREC
70
2
9
$AXISMODE
70
0
9
$AXISUNIT
10
0
20
0
9
$SKETCHINC
40
1.0
9
$FILLETRAD
40
0.0
9
$AUNITS
70
0
9
$AUPREC
70
0
9
$MENU
1
ACAD
9
$ELEVATION
40
0.0
9
$THICKNESS
40
0.0
9
$VIEWDIR
10
0.0
20
0.0
30
1.0
9
$LIMCHECK
70
0
9
$BLIPMODE
70
1
9
$CHAMFERA
40
0.0
9
$CHAMFERB
40
0.0
9
$USRTIMER
70
1
9
$ANGBASE
50
0.0
9
$ANGDIR
70
0
9
$PDMODE
70
0
9
$PDSIZE
40
0.0
9
$PLINEWID
40
0.0
9
$COORDS
70
0
0
ENDSEC
0
SECTION
2
TABLES
0
TABLE
2
LTYPE
70
1
0
LTYPE
2
AUSGEZOGEN
70
64
3
Ausgezogene Linie
72
65
73
0
40
0.0
0
ENDTAB
0
TABLE
2
LAYER
70
1
0
LAYER
2
0
70
0
62
7
6
AUSGEZOGEN
0
ENDTAB
0
TABLE
2
STYLE
70
1
0
STYLE
2
STANDARD
70
0
40
0.0
41
1.0
50
0.0
71
0
42
3.5
3
txt
4

0
ENDTAB
0
TABLE
2
VIEW
70
0
0
ENDTAB
0
ENDSEC
0
SECTION
2
BLOCKS
0
ENDSEC
0
SECTION
2
ENTITIES
  0
ARC
  8
0
 10
 6.00000000000000E+0001
 20
 6.00000000000000E+0001
 40
 6.00000000000000E+0001
 50
 1.80000000000000E+0002
 51
 2.70000000000000E+0002
  0
LINE
  8
0
 10
 0.00000000000000E+0000
 20
 6.00000000000000E+0001
 11
 0.00000000000000E+0000
 21
 1.54000000000000E+0003
  0
ARC
  8
0
 10
 6.00000000000000E+0001
 20
 1.54000000000000E+0003
 40
 6.00000000000000E+0001
 50
 9.00000000000000E+0001
 51
 1.80000000000000E+0002
  0
LINE
  8
0
 10
 6.00000000000000E+0001
 20
 1.60000000000000E+0003
 11
 1.19000000000000E+0003
 21
 1.60000000000000E+0003
  0
ARC
  8
0
 10
 1.19000000000000E+0003
 20
 1.54000000000000E+0003
 40
 6.00000000000000E+0001
 50
 0.00000000000000E+0000
 51
 9.00000000000000E+0001
  0
LINE
  8
0
 10
 1.25000000000000E+0003
 20
 1.54000000000000E+0003
 11
 1.25000000000000E+0003
 21
 6.00000000000000E+0001
  0
ARC
  8
0
 10
 1.19000000000000E+0003
 20
 6.00000000000000E+0001
 40
 6.00000000000000E+0001
 50
 2.70000000000000E+0002
 51
 3.60000000000000E+0002
  0
LINE
  8
0
 10
 1.19000000000000E+0003
 20
 0.00000000000000E+0000
 11
 6.00000000000000E+0001
 21
 0.00000000000000E+0000
  0
ARC
  8
0
 10
 6.00000000000000E+0001
 20
 6.00000000000000E+0001
 40
 4.50000000000000E+0001
 50
 1.80000000000000E+0002
 51
 2.70000000000000E+0002
  0
LINE
  8
0
 10
 1.50000000000000E+0001
 20
 6.00000000000000E+0001
 11
 1.50000000000000E+0001
 21
 1.54000000000000E+0003
  0
ARC
  8
0
 10
 6.00000000000000E+0001
 20
 1.54000000000000E+0003
 40
 4.50000000000000E+0001
 50
 9.00000000000000E+0001
 51
 1.80000000000000E+0002
  0
LINE
  8
0
 10
 6.00000000000000E+0001
 20
 1.58500000000000E+0003
 11
 1.19000000000000E+0003
 21
 1.58500000000000E+0003
  0
ARC
  8
0
 10
 1.19000000000000E+0003
 20
 1.54000000000000E+0003
 40
 4.50000000000000E+0001
 50
 0.00000000000000E+0000
 51
 9.00000000000000E+0001
  0
LINE
  8
0
 10
 1.23500000000000E+0003
 20
 1.54000000000000E+0003
 11
 1.23500000000000E+0003
 21
 6.00000000000000E+0001
  0
ARC
  8
0
 10
 1.19000000000000E+0003
 20
 6.00000000000000E+0001
 40
 4.50000000000000E+0001
 50
 2.70000000000000E+0002
 51
 3.60000000000000E+0002
  0
LINE
  8
0
 10
 1.19000000000000E+0003
 20
 1.50000000000000E+0001
 11
 6.00000000000000E+0001
 21
 1.50000000000000E+0001
  0
ARC
  8
0
 10
 6.00000000000000E+0001
 20
 6.00000000000000E+0001
 40
 2.50000000000000E+0001
 50
 1.80000000000000E+0002
 51
 2.70000000000000E+0002
  0
LINE
  8
0
 10
 3.50000000000000E+0001
 20
 6.00000000000000E+0001
 11
 3.50000000000000E+0001
 21
 1.54000000000000E+0003
  0
ARC
  8
0
 10
 6.00000000000000E+0001
 20
 1.54000000000000E+0003
 40
 2.50000000000000E+0001
 50
 9.00000000000000E+0001
 51
 1.80000000000000E+0002
  0
LINE
  8
0
 10
 6.00000000000000E+0001
 20
 1.56500000000000E+0003
 11
 1.19000000000000E+0003
 21
 1.56500000000000E+0003
  0
ARC
  8
0
 10
 1.19000000000000E+0003
 20
 1.54000000000000E+0003
 40
 2.50000000000000E+0001
 50
 0.00000000000000E+0000
 51
 9.00000000000000E+0001
  0
LINE
  8
0
 10
 1.21500000000000E+0003
 20
 1.54000000000000E+0003
 11
 1.21500000000000E+0003
 21
 6.00000000000000E+0001
  0
ARC
  8
0
 10
 1.19000000000000E+0003
 20
 6.00000000000000E+0001
 40
 2.50000000000000E+0001
 50
 2.70000000000000E+0002
 51
 3.60000000000000E+0002
  0
LINE
  8
0
 10
 1.19000000000000E+0003
 20
 3.50000000000000E+0001
 11
 6.00000000000000E+0001
 21
 3.50000000000000E+0001
  0
LINE
  8
0
 10
 4.75000000000000E+0002
 20
 1.26500000000000E+0003
 11
 4.74613609988100E+0002
 21
 1.25195630732330E+0003
  0
LINE
  8
0
 10
 4.74613609988100E+0002
 20
 1.25195630732330E+0003
 11
 4.74063519984800E+0002
 21
 1.23907949734640E+0003
  0
LINE
  8
0
 10
 4.74063519984800E+0002
 20
 1.23907949734640E+0003
 11
 4.73353063038700E+0002
 21
 1.22636618914910E+0003
  0
LINE
  8
0
 10
 4.73353063038700E+0002
 20
 1.22636618914910E+0003
 11
 4.72485572198400E+0002
 21
 1.21381300181120E+0003
  0
LINE
  8
0
 10
 4.72485572198400E+0002
 20
 1.21381300181120E+0003
 11
 4.71464380512500E+0002
 21
 1.20141655441250E+0003
  0
LINE
  8
0
 10
 4.71464380512500E+0002
 20
 1.20141655441250E+0003
 11
 4.70292821029600E+0002
 21
 1.18917346603280E+0003
  0
LINE
  8
0
 10
 4.70292821029600E+0002
 20
 1.18917346603280E+0003
 11
 4.68974226798300E+0002
 21
 1.17708035575190E+0003
  0
LINE
  8
0
 10
 4.68974226798300E+0002
 20
 1.17708035575190E+0003
 11
 4.67511930867200E+0002
 21
 1.16513384264960E+0003
  0
LINE
  8
0
 10
 4.67511930867200E+0002
 20
 1.16513384264960E+0003
 11
 4.65909266284900E+0002
 21
 1.15333054580570E+0003
  0
LINE
  8
0
 10
 4.65909266284900E+0002
 20
 1.15333054580570E+0003
 11
 4.64169566100000E+0002
 21
 1.14166708430000E+0003
  0
LINE
  8
0
 10
 4.64169566100000E+0002
 20
 1.14166708430000E+0003
 11
 4.62296163361100E+0002
 21
 1.13014007721230E+0003
  0
LINE
  8
0
 10
 4.62296163361100E+0002
 20
 1.13014007721230E+0003
 11
 4.60292391116800E+0002
 21
 1.11874614362240E+0003
  0
LINE
  8
0
 10
 4.60292391116800E+0002
 20
 1.11874614362240E+0003
 11
 4.58161582415700E+0002
 21
 1.10748190261010E+0003
  0
LINE
  8
0
 10
 4.58161582415700E+0002
 20
 1.10748190261010E+0003
 11
 4.55907070306400E+0002
 21
 1.09634397325520E+0003
  0
LINE
  8
0
 10
 4.55907070306400E+0002
 20
 1.09634397325520E+0003
 11
 4.53532187837500E+0002
 21
 1.08532897463750E+0003
  0
LINE
  8
0
 10
 4.53532187837500E+0002
 20
 1.08532897463750E+0003
 11
 4.51040268057600E+0002
 21
 1.07443352583680E+0003
  0
LINE
  8
0
 10
 4.51040268057600E+0002
 20
 1.07443352583680E+0003
 11
 4.48434644015300E+0002
 21
 1.06365424593290E+0003
  0
LINE
  8
0
 10
 4.48434644015300E+0002
 20
 1.06365424593290E+0003
 11
 4.45718648759200E+0002
 21
 1.05298775400560E+0003
  0
LINE
  8
0
 10
 4.45718648759200E+0002
 20
 1.05298775400560E+0003
 11
 4.42895615337900E+0002
 21
 1.04243066913470E+0003
  0
LINE
  8
0
 10
 4.42895615337900E+0002
 20
 1.04243066913470E+0003
 11
 4.39968876800000E+0002
 21
 1.03197961040000E+0003
  0
LINE
  8
0
 10
 4.39968876800000E+0002
 20
 1.03197961040000E+0003
 11
 4.36941766194100E+0002
 21
 1.02163119688130E+0003
  0
LINE
  8
0
 10
 4.36941766194100E+0002
 20
 1.02163119688130E+0003
 11
 4.33817616568800E+0002
 21
 1.01138204765840E+0003
  0
LINE
  8
0
 10
 4.33817616568800E+0002
 20
 1.01138204765840E+0003
 11
 4.30599760972700E+0002
 21
 1.00122878181110E+0003
  0
LINE
  8
0
 10
 4.30599760972700E+0002
 20
 1.00122878181110E+0003
 11
 4.27291532454400E+0002
 21
 9.91168018419200E+0002
  0
LINE
  8
0
 10
 4.27291532454400E+0002
 20
 9.91168018419200E+0002
 11
 4.23896264062500E+0002
 21
 9.81196376562500E+0002
  0
LINE
  8
0
 10
 4.23896264062500E+0002
 20
 9.81196376562500E+0002
 11
 4.20417288845600E+0002
 21
 9.71310475320800E+0002
  0
LINE
  8
0
 10
 4.20417288845600E+0002
 20
 9.71310475320800E+0002
 11
 4.16857939852300E+0002
 21
 9.61506933773900E+0002
  0
LINE
  8
0
 10
 4.16857939852300E+0002
 20
 9.61506933773900E+0002
 11
 4.13221550131200E+0002
 21
 9.51782371001600E+0002
  0
LINE
  8
0
 10
 4.13221550131200E+0002
 20
 9.51782371001600E+0002
 11
 4.09511452730900E+0002
 21
 9.42133406083700E+0002
  0
LINE
  8
0
 10
 4.09511452730900E+0002
 20
 9.42133406083700E+0002
 11
 4.05730980700000E+0002
 21
 9.32556658100000E+0002
  0
LINE
  8
0
 10
 4.05730980700000E+0002
 20
 9.32556658100000E+0002
 11
 4.01883467087100E+0002
 21
 9.23048746130300E+0002
  0
LINE
  8
0
 10
 4.01883467087100E+0002
 20
 9.23048746130300E+0002
 11
 3.97972244940800E+0002
 21
 9.13606289254400E+0002
  0
LINE
  8
0
 10
 3.97972244940800E+0002
 20
 9.13606289254400E+0002
 11
 3.94000647309700E+0002
 21
 9.04225906552100E+0002
  0
LINE
  8
0
 10
 3.94000647309700E+0002
 20
 9.04225906552100E+0002
 11
 3.89972007242400E+0002
 21
 8.94904217103200E+0002
  0
LINE
  8
0
 10
 3.89972007242400E+0002
 20
 8.94904217103200E+0002
 11
 3.85889657787500E+0002
 21
 8.85637839987500E+0002
  0
LINE
  8
0
 10
 3.85889657787500E+0002
 20
 8.85637839987500E+0002
 11
 3.81756931993600E+0002
 21
 8.76423394284800E+0002
  0
LINE
  8
0
 10
 3.81756931993600E+0002
 20
 8.76423394284800E+0002
 11
 3.77577162909300E+0002
 21
 8.67257499074900E+0002
  0
LINE
  8
0
 10
 3.77577162909300E+0002
 20
 8.67257499074900E+0002
 11
 3.73353683583200E+0002
 21
 8.58136773437600E+0002
  0
LINE
  8
0
 10
 3.73353683583200E+0002
 20
 8.58136773437600E+0002
 11
 3.69089827063900E+0002
 21
 8.49057836452700E+0002
  0
LINE
  8
0
 10
 3.69089827063900E+0002
 20
 8.49057836452700E+0002
 11
 3.64788926400000E+0002
 21
 8.40017307200000E+0002
  0
LINE
  8
0
 10
 3.64788926400000E+0002
 20
 8.40017307200000E+0002
 11
 3.60454314640100E+0002
 21
 8.31011804759300E+0002
  0
LINE
  8
0
 10
 3.60454314640100E+0002
 20
 8.31011804759300E+0002
 11
 3.56089324832800E+0002
 21
 8.22037948210400E+0002
  0
LINE
  8
0
 10
 3.56089324832800E+0002
 20
 8.22037948210400E+0002
 11
 3.51697290026700E+0002
 21
 8.13092356633100E+0002
  0
LINE
  8
0
 10
 3.51697290026700E+0002
 20
 8.13092356633100E+0002
 11
 3.47281543270400E+0002
 21
 8.04171649107200E+0002
  0
LINE
  8
0
 10
 3.47281543270400E+0002
 20
 8.04171649107200E+0002
 11
 3.42845417612500E+0002
 21
 7.95272444712500E+0002
  0
LINE
  8
0
 10
 3.42845417612500E+0002
 20
 7.95272444712500E+0002
 11
 3.38392246101600E+0002
 21
 7.86391362528800E+0002
  0
LINE
  8
0
 10
 3.38392246101600E+0002
 20
 7.86391362528800E+0002
 11
 3.33925361786300E+0002
 21
 7.77525021635900E+0002
  0
LINE
  8
0
 10
 3.33925361786300E+0002
 20
 7.77525021635900E+0002
 11
 3.29448097715200E+0002
 21
 7.68670041113600E+0002
  0
LINE
  8
0
 10
 3.29448097715200E+0002
 20
 7.68670041113600E+0002
 11
 3.24963786936900E+0002
 21
 7.59823040041700E+0002
  0
LINE
  8
0
 10
 3.24963786936900E+0002
 20
 7.59823040041700E+0002
 11
 3.20475762500000E+0002
 21
 7.50980637500000E+0002
  0
LINE
  8
0
 10
 3.20475762500000E+0002
 20
 7.50980637500000E+0002
 11
 3.15987357453100E+0002
 21
 7.42139452568300E+0002
  0
LINE
  8
0
 10
 3.15987357453100E+0002
 20
 7.42139452568300E+0002
 11
 3.11501904844800E+0002
 21
 7.33296104326400E+0002
  0
LINE
  8
0
 10
 3.11501904844800E+0002
 20
 7.33296104326400E+0002
 11
 3.07022737723700E+0002
 21
 7.24447211854100E+0002
  0
LINE
  8
0
 10
 3.07022737723700E+0002
 20
 7.24447211854100E+0002
 11
 3.02553189138400E+0002
 21
 7.15589394231200E+0002
  0
LINE
  8
0
 10
 3.02553189138400E+0002
 20
 7.15589394231200E+0002
 11
 2.98096592137500E+0002
 21
 7.06719270537500E+0002
  0
LINE
  8
0
 10
 2.98096592137500E+0002
 20
 7.06719270537500E+0002
 11
 2.93656279769600E+0002
 21
 6.97833459852800E+0002
  0
LINE
  8
0
 10
 2.93656279769600E+0002
 20
 6.97833459852800E+0002
 11
 2.89235585083300E+0002
 21
 6.88928581256900E+0002
  0
LINE
  8
0
 10
 2.89235585083300E+0002
 20
 6.88928581256900E+0002
 11
 2.84837841127200E+0002
 21
 6.80001253829600E+0002
  0
LINE
  8
0
 10
 2.84837841127200E+0002
 20
 6.80001253829600E+0002
 11
 2.80466380949900E+0002
 21
 6.71048096650700E+0002
  0
LINE
  8
0
 10
 2.80466380949900E+0002
 20
 6.71048096650700E+0002
 11
 2.76124537600000E+0002
 21
 6.62065728800000E+0002
  0
LINE
  8
0
 10
 2.76124537600000E+0002
 20
 6.62065728800000E+0002
 11
 2.71815644126100E+0002
 21
 6.53050769357300E+0002
  0
LINE
  8
0
 10
 2.71815644126100E+0002
 20
 6.53050769357300E+0002
 11
 2.67543033576800E+0002
 21
 6.43999837402400E+0002
  0
LINE
  8
0
 10
 2.67543033576800E+0002
 20
 6.43999837402400E+0002
 11
 2.63310039000700E+0002
 21
 6.34909552015100E+0002
  0
LINE
  8
0
 10
 2.63310039000700E+0002
 20
 6.34909552015100E+0002
 11
 2.59119993446400E+0002
 21
 6.25776532275200E+0002
  0
LINE
  8
0
 10
 2.59119993446400E+0002
 20
 6.25776532275200E+0002
 11
 2.54976229962500E+0002
 21
 6.16597397262500E+0002
  0
LINE
  8
0
 10
 2.54976229962500E+0002
 20
 6.16597397262500E+0002
 11
 2.50882081597600E+0002
 21
 6.07368766056800E+0002
  0
LINE
  8
0
 10
 2.50882081597600E+0002
 20
 6.07368766056800E+0002
 11
 2.46840881400300E+0002
 21
 5.98087257737900E+0002
  0
LINE
  8
0
 10
 2.46840881400300E+0002
 20
 5.98087257737900E+0002
 11
 2.42855962419200E+0002
 21
 5.88749491385600E+0002
  0
LINE
  8
0
 10
 2.42855962419200E+0002
 20
 5.88749491385600E+0002
 11
 2.38930657702900E+0002
 21
 5.79352086079700E+0002
  0
LINE
  8
0
 10
 2.38930657702900E+0002
 20
 5.79352086079700E+0002
 11
 2.35068300300000E+0002
 21
 5.69891660900000E+0002
  0
LINE
  8
0
 10
 2.35068300300000E+0002
 20
 5.69891660900000E+0002
 11
 2.31272223259100E+0002
 21
 5.60364834926300E+0002
  0
LINE
  8
0
 10
 2.31272223259100E+0002
 20
 5.60364834926300E+0002
 11
 2.27545759628800E+0002
 21
 5.50768227238400E+0002
  0
LINE
  8
0
 10
 2.27545759628800E+0002
 20
 5.50768227238400E+0002
 11
 2.23892242457700E+0002
 21
 5.41098456916100E+0002
  0
LINE
  8
0
 10
 2.23892242457700E+0002
 20
 5.41098456916100E+0002
 11
 2.20315004794400E+0002
 21
 5.31352143039200E+0002
  0
LINE
  8
0
 10
 2.20315004794400E+0002
 20
 5.31352143039200E+0002
 11
 2.16817379687500E+0002
 21
 5.21525904687500E+0002
  0
LINE
  8
0
 10
 2.16817379687500E+0002
 20
 5.21525904687500E+0002
 11
 2.13402700185600E+0002
 21
 5.11616360940800E+0002
  0
LINE
  8
0
 10
 2.13402700185600E+0002
 20
 5.11616360940800E+0002
 11
 2.10074299337300E+0002
 21
 5.01620130878900E+0002
  0
LINE
  8
0
 10
 2.10074299337300E+0002
 20
 5.01620130878900E+0002
 11
 2.06835510191200E+0002
 21
 4.91533833581600E+0002
  0
LINE
  8
0
 10
 2.06835510191200E+0002
 20
 4.91533833581600E+0002
 11
 2.03689665795900E+0002
 21
 4.81354088128700E+0002
  0
LINE
  8
0
 10
 2.03689665795900E+0002
 20
 4.81354088128700E+0002
 11
 2.00640099200000E+0002
 21
 4.71077513600000E+0002
  0
LINE
  8
0
 10
 2.00640099200000E+0002
 20
 4.71077513600000E+0002
 11
 1.97690143452100E+0002
 21
 4.60700729075300E+0002
  0
LINE
  8
0
 10
 1.97690143452100E+0002
 20
 4.60700729075300E+0002
 11
 1.94843131600800E+0002
 21
 4.50220353634400E+0002
  0
LINE
  8
0
 10
 1.94843131600800E+0002
 20
 4.50220353634400E+0002
 11
 1.92102396694700E+0002
 21
 4.39633006357100E+0002
  0
LINE
  8
0
 10
 1.92102396694700E+0002
 20
 4.39633006357100E+0002
 11
 1.89471271782400E+0002
 21
 4.28935306323200E+0002
  0
LINE
  8
0
 10
 1.89471271782400E+0002
 20
 4.28935306323200E+0002
 11
 1.86953089912500E+0002
 21
 4.18123872612500E+0002
  0
LINE
  8
0
 10
 1.86953089912500E+0002
 20
 4.18123872612500E+0002
 11
 1.84551184133600E+0002
 21
 4.07195324304800E+0002
  0
LINE
  8
0
 10
 1.84551184133600E+0002
 20
 4.07195324304800E+0002
 11
 1.82268887494300E+0002
 21
 3.96146280479900E+0002
  0
LINE
  8
0
 10
 1.82268887494300E+0002
 20
 3.96146280479900E+0002
 11
 1.80109533043200E+0002
 21
 3.84973360217600E+0002
  0
LINE
  8
0
 10
 1.80109533043200E+0002
 20
 3.84973360217600E+0002
 11
 1.78076453828900E+0002
 21
 3.73673182597700E+0002
  0
LINE
  8
0
 10
 1.78076453828900E+0002
 20
 3.73673182597700E+0002
 11
 1.76172982900000E+0002
 21
 3.62242366700000E+0002
  0
LINE
  8
0
 10
 1.76172982900000E+0002
 20
 3.62242366700000E+0002
 11
 1.74402453305100E+0002
 21
 3.50677531604300E+0002
  0
LINE
  8
0
 10
 1.74402453305100E+0002
 20
 3.50677531604300E+0002
 11
 1.72768198092800E+0002
 21
 3.38975296390400E+0002
  0
LINE
  8
0
 10
 1.72768198092800E+0002
 20
 3.38975296390400E+0002
 11
 1.71273550311700E+0002
 21
 3.27132280138100E+0002
  0
LINE
  8
0
 10
 1.71273550311700E+0002
 20
 3.27132280138100E+0002
 11
 1.69921843010400E+0002
 21
 3.15145101927200E+0002
  0
LINE
  8
0
 10
 1.69921843010400E+0002
 20
 3.15145101927200E+0002
 11
 1.68716409237500E+0002
 21
 3.03010380837500E+0002
  0
LINE
  8
0
 10
 1.68716409237500E+0002
 20
 3.03010380837500E+0002
 11
 1.67660582041600E+0002
 21
 2.90724735948800E+0002
  0
LINE
  8
0
 10
 1.67660582041600E+0002
 20
 2.90724735948800E+0002
 11
 1.66757694471300E+0002
 21
 2.78284786340900E+0002
  0
LINE
  8
0
 10
 1.66757694471300E+0002
 20
 2.78284786340900E+0002
 11
 1.66011079575200E+0002
 21
 2.65687151093600E+0002
  0
LINE
  8
0
 10
 1.66011079575200E+0002
 20
 2.65687151093600E+0002
 11
 1.65424070401900E+0002
 21
 2.52928449286700E+0002
  0
LINE
  8
0
 10
 1.65424070401900E+0002
 20
 2.52928449286700E+0002
 11
 1.65000000000000E+0002
 21
 2.40005300000000E+0002
  0
LINE
  8
0
 10
 1.65000000000000E+0002
 20
 2.40005300000000E+0002
 11
 1.65000000000000E+0002
 21
 1.55000000000000E+0002
  0
LINE
  8
0
 10
 1.65000000000000E+0002
 20
 1.55000000000000E+0002
 11
 2.25000000000000E+0002
 21
 1.55000000000000E+0002
  0
LINE
  8
0
 10
 2.25000000000000E+0002
 20
 1.55000000000000E+0002
 11
 2.25000000000000E+0002
 21
 2.40005300000000E+0002
  0
LINE
  8
0
 10
 2.25000000000000E+0002
 20
 2.40005300000000E+0002
 11
 2.25424029624700E+0002
 21
 2.52928449294400E+0002
  0
LINE
  8
0
 10
 2.25424029624700E+0002
 20
 2.52928449294400E+0002
 11
 2.26011000437600E+0002
 21
 2.65687151155200E+0002
  0
LINE
  8
0
 10
 2.26011000437600E+0002
 20
 2.65687151155200E+0002
 11
 2.26757579346900E+0002
 21
 2.78284786548800E+0002
  0
LINE
  8
0
 10
 2.26757579346900E+0002
 20
 2.78284786548800E+0002
 11
 2.27660433260800E+0002
 21
 2.90724736441600E+0002
  0
LINE
  8
0
 10
 2.27660433260800E+0002
 20
 2.90724736441600E+0002
 11
 2.28716229087500E+0002
 21
 3.03010381800000E+0002
  0
LINE
  8
0
 10
 2.28716229087500E+0002
 20
 3.03010381800000E+0002
 11
 2.29921633735200E+0002
 21
 3.15145103590400E+0002
  0
LINE
  8
0
 10
 2.29921633735200E+0002
 20
 3.15145103590400E+0002
 11
 2.31273314112100E+0002
 21
 3.27132282779200E+0002
  0
LINE
  8
0
 10
 2.31273314112100E+0002
 20
 3.27132282779200E+0002
 11
 2.32767937126400E+0002
 21
 3.38975300332800E+0002
  0
LINE
  8
0
 10
 2.32767937126400E+0002
 20
 3.38975300332800E+0002
 11
 2.34402169686300E+0002
 21
 3.50677537217600E+0002
  0
LINE
  8
0
 10
 2.34402169686300E+0002
 20
 3.50677537217600E+0002
 11
 2.36172678700000E+0002
 21
 3.62242374400000E+0002
  0
LINE
  8
0
 10
 2.36172678700000E+0002
 20
 3.62242374400000E+0002
 11
 2.38076131075700E+0002
 21
 3.73673192846400E+0002
  0
LINE
  8
0
 10
 2.38076131075700E+0002
 20
 3.73673192846400E+0002
 11
 2.40109193721600E+0002
 21
 3.84973373523200E+0002
  0
LINE
  8
0
 10
 2.40109193721600E+0002
 20
 3.84973373523200E+0002
 11
 2.42268533545900E+0002
 21
 3.96146297396800E+0002
  0
LINE
  8
0
 10
 2.42268533545900E+0002
 20
 3.96146297396800E+0002
 11
 2.44550817456800E+0002
 21
 4.07195345433600E+0002
  0
LINE
  8
0
 10
 2.44550817456800E+0002
 20
 4.07195345433600E+0002
 11
 2.46952712362500E+0002
 21
 4.18123898600000E+0002
  0
LINE
  8
0
 10
 2.46952712362500E+0002
 20
 4.18123898600000E+0002
 11
 2.49470885171200E+0002
 21
 4.28935337862400E+0002
  0
LINE
  8
0
 10
 2.49470885171200E+0002
 20
 4.28935337862400E+0002
 11
 2.52102002791100E+0002
 21
 4.39633044187200E+0002
  0
LINE
  8
0
 10
 2.52102002791100E+0002
 20
 4.39633044187200E+0002
 11
 2.54842732130400E+0002
 21
 4.50220398540800E+0002
  0
LINE
  8
0
 10
 2.54842732130400E+0002
 20
 4.50220398540800E+0002
 11
 2.57689740097300E+0002
 21
 4.60700781889600E+0002
  0
LINE
  8
0
 10
 2.57689740097300E+0002
 20
 4.60700781889600E+0002
 11
 2.60639693600000E+0002
 21
 4.71077575200000E+0002
  0
LINE
  8
0
 10
 2.60639693600000E+0002
 20
 4.71077575200000E+0002
 11
 2.63689259546700E+0002
 21
 4.81354159438400E+0002
  0
LINE
  8
0
 10
 2.63689259546700E+0002
 20
 4.81354159438400E+0002
 11
 2.66835104845600E+0002
 21
 4.91533915571200E+0002
  0
LINE
  8
0
 10
 2.66835104845600E+0002
 20
 4.91533915571200E+0002
 11
 2.70073896404900E+0002
 21
 5.01620224564800E+0002
  0
LINE
  8
0
 10
 2.70073896404900E+0002
 20
 5.01620224564800E+0002
 11
 2.73402301132800E+0002
 21
 5.11616467385600E+0002
  0
LINE
  8
0
 10
 2.73402301132800E+0002
 20
 5.11616467385600E+0002
 11
 2.76816985937500E+0002
 21
 5.21526025000000E+0002
  0
LINE
  8
0
 10
 2.76816985937500E+0002
 20
 5.21526025000000E+0002
 11
 2.80314617727200E+0002
 21
 5.31352278374400E+0002
  0
LINE
  8
0
 10
 2.80314617727200E+0002
 20
 5.31352278374400E+0002
 11
 2.83891863410100E+0002
 21
 5.41098608475200E+0002
  0
LINE
  8
0
 10
 2.83891863410100E+0002
 20
 5.41098608475200E+0002
 11
 2.87545389894400E+0002
 21
 5.50768396268800E+0002
  0
LINE
  8
0
 10
 2.87545389894400E+0002
 20
 5.50768396268800E+0002
 11
 2.91271864088300E+0002
 21
 5.60365022721600E+0002
  0
LINE
  8
0
 10
 2.91271864088300E+0002
 20
 5.60365022721600E+0002
 11
 2.95067952900000E+0002
 21
 5.69891868800000E+0002
  0
LINE
  8
0
 10
 2.95067952900000E+0002
 20
 5.69891868800000E+0002
 11
 2.98930323237700E+0002
 21
 5.79352315470400E+0002
  0
LINE
  8
0
 10
 2.98930323237700E+0002
 20
 5.79352315470400E+0002
 11
 3.02855642009600E+0002
 21
 5.88749743699200E+0002
  0
LINE
  8
0
 10
 3.02855642009600E+0002
 20
 5.88749743699200E+0002
 11
 3.06840576123900E+0002
 21
 5.98087534452800E+0002
  0
LINE
  8
0
 10
 3.06840576123900E+0002
 20
 5.98087534452800E+0002
 11
 3.10881792488800E+0002
 21
 6.07369068697600E+0002
  0
LINE
  8
0
 10
 3.10881792488800E+0002
 20
 6.07369068697600E+0002
 11
 3.14975958012500E+0002
 21
 6.16597727400000E+0002
  0
LINE
  8
0
 10
 3.14975958012500E+0002
 20
 6.16597727400000E+0002
 11
 3.19119739603200E+0002
 21
 6.25776891526400E+0002
  0
LINE
  8
0
 10
 3.19119739603200E+0002
 20
 6.25776891526400E+0002
 11
 3.23309804169100E+0002
 21
 6.34909942043200E+0002
  0
LINE
  8
0
 10
 3.23309804169100E+0002
 20
 6.34909942043200E+0002
 11
 3.27542818618400E+0002
 21
 6.44000259916800E+0002
  0
LINE
  8
0
 10
 3.27542818618400E+0002
 20
 6.44000259916800E+0002
 11
 3.31815449859300E+0002
 21
 6.53051226113600E+0002
  0
LINE
  8
0
 10
 3.31815449859300E+0002
 20
 6.53051226113600E+0002
 11
 3.36124364800000E+0002
 21
 6.62066221600000E+0002
  0
LINE
  8
0
 10
 3.36124364800000E+0002
 20
 6.62066221600000E+0002
 11
 3.40466230348700E+0002
 21
 6.71048627342400E+0002
  0
LINE
  8
0
 10
 3.40466230348700E+0002
 20
 6.71048627342400E+0002
 11
 3.44837713413600E+0002
 21
 6.80001824307200E+0002
  0
LINE
  8
0
 10
 3.44837713413600E+0002
 20
 6.80001824307200E+0002
 11
 3.49235480902900E+0002
 21
 6.88929193460800E+0002
  0
LINE
  8
0
 10
 3.49235480902900E+0002
 20
 6.88929193460800E+0002
 11
 3.53656199724800E+0002
 21
 6.97834115769600E+0002
  0
LINE
  8
0
 10
 3.53656199724800E+0002
 20
 6.97834115769600E+0002
 11
 3.58096536787500E+0002
 21
 7.06719972200000E+0002
  0
LINE
  8
0
 10
 3.58096536787500E+0002
 20
 7.06719972200000E+0002
 11
 3.62553158999200E+0002
 21
 7.15590143718400E+0002
  0
LINE
  8
0
 10
 3.62553158999200E+0002
 20
 7.15590143718400E+0002
 11
 3.67022733268100E+0002
 21
 7.24448011291200E+0002
  0
LINE
  8
0
 10
 3.67022733268100E+0002
 20
 7.24448011291200E+0002
 11
 3.71501926502400E+0002
 21
 7.33296955884800E+0002
  0
LINE
  8
0
 10
 3.71501926502400E+0002
 20
 7.33296955884800E+0002
 11
 3.75987405610300E+0002
 21
 7.42140358465600E+0002
  0
LINE
  8
0
 10
 3.75987405610300E+0002
 20
 7.42140358465600E+0002
 11
 3.80475837500000E+0002
 21
 7.50981600000000E+0002
  0
LINE
  8
0
 10
 3.80475837500000E+0002
 20
 7.50981600000000E+0002
 11
 3.84963889079700E+0002
 21
 7.59824061454400E+0002
  0
LINE
  8
0
 10
 3.84963889079700E+0002
 20
 7.59824061454400E+0002
 11
 3.89448227257600E+0002
 21
 7.68671123795200E+0002
  0
LINE
  8
0
 10
 3.89448227257600E+0002
 20
 7.68671123795200E+0002
 11
 3.93925518941900E+0002
 21
 7.77526167988800E+0002
  0
LINE
  8
0
 10
 3.93925518941900E+0002
 20
 7.77526167988800E+0002
 11
 3.98392431040800E+0002
 21
 7.86392575001600E+0002
  0
LINE
  8
0
 10
 3.98392431040800E+0002
 20
 7.86392575001600E+0002
 11
 4.02845630462500E+0002
 21
 7.95273725800000E+0002
  0
LINE
  8
0
 10
 4.02845630462500E+0002
 20
 7.95273725800000E+0002
 11
 4.07281784115200E+0002
 21
 8.04173001350400E+0002
  0
LINE
  8
0
 10
 4.07281784115200E+0002
 20
 8.04173001350400E+0002
 11
 4.11697558907100E+0002
 21
 8.13093782619200E+0002
  0
LINE
  8
0
 10
 4.11697558907100E+0002
 20
 8.13093782619200E+0002
 11
 4.16089621746400E+0002
 21
 8.22039450572800E+0002
  0
LINE
  8
0
 10
 4.16089621746400E+0002
 20
 8.22039450572800E+0002
 11
 4.20454639541300E+0002
 21
 8.31013386177600E+0002
  0
LINE
  8
0
 10
 4.20454639541300E+0002
 20
 8.31013386177600E+0002
 11
 4.24789279200000E+0002
 21
 8.40018970400000E+0002
  0
LINE
  8
0
 10
 4.24789279200000E+0002
 20
 8.40018970400000E+0002
 11
 4.29090207630700E+0002
 21
 8.49059584206400E+0002
  0
LINE
  8
0
 10
 4.29090207630700E+0002
 20
 8.49059584206400E+0002
 11
 4.33354091741600E+0002
 21
 8.58138608563200E+0002
  0
LINE
  8
0
 10
 4.33354091741600E+0002
 20
 8.58138608563200E+0002
 11
 4.37577598440900E+0002
 21
 8.67259424436800E+0002
  0
LINE
  8
0
 10
 4.37577598440900E+0002
 20
 8.67259424436800E+0002
 11
 4.41757394636800E+0002
 21
 8.76425412793600E+0002
  0
LINE
  8
0
 10
 4.41757394636800E+0002
 20
 8.76425412793600E+0002
 11
 4.45890147237500E+0002
 21
 8.85639954600000E+0002
  0
LINE
  8
0
 10
 4.45890147237500E+0002
 20
 8.85639954600000E+0002
 11
 4.49972523151200E+0002
 21
 8.94906430822400E+0002
  0
LINE
  8
0
 10
 4.49972523151200E+0002
 20
 8.94906430822400E+0002
 11
 4.54001189286100E+0002
 21
 9.04228222427200E+0002
  0
LINE
  8
0
 10
 4.54001189286100E+0002
 20
 9.04228222427200E+0002
 11
 4.57972812550400E+0002
 21
 9.13608710380800E+0002
  0
LINE
  8
0
 10
 4.57972812550400E+0002
 20
 9.13608710380800E+0002
 11
 4.61884059852300E+0002
 21
 9.23051275649600E+0002
  0
LINE
  8
0
 10
 4.61884059852300E+0002
 20
 9.23051275649600E+0002
 11
 4.65731598100000E+0002
 21
 9.32559299200000E+0002
  0
LINE
  8
0
 10
 4.65731598100000E+0002
 20
 9.32559299200000E+0002
 11
 4.69512094201700E+0002
 21
 9.42136161998400E+0002
  0
LINE
  8
0
 10
 4.69512094201700E+0002
 20
 9.42136161998400E+0002
 11
 4.73222215065600E+0002
 21
 9.51785245011200E+0002
  0
LINE
  8
0
 10
 4.73222215065600E+0002
 20
 9.51785245011200E+0002
 11
 4.76858627599900E+0002
 21
 9.61509929204800E+0002
  0
LINE
  8
0
 10
 4.76858627599900E+0002
 20
 9.61509929204800E+0002
 11
 4.80417998712800E+0002
 21
 9.71313595545600E+0002
  0
LINE
  8
0
 10
 4.80417998712800E+0002
 20
 9.71313595545600E+0002
 11
 4.83896995312500E+0002
 21
 9.81199625000000E+0002
  0
LINE
  8
0
 10
 4.83896995312500E+0002
 20
 9.81199625000000E+0002
 11
 4.87292284307200E+0002
 21
 9.91171398534400E+0002
  0
LINE
  8
0
 10
 4.87292284307200E+0002
 20
 9.91171398534400E+0002
 11
 4.90600532605100E+0002
 21
 1.00123229711520E+0003
  0
LINE
  8
0
 10
 4.90600532605100E+0002
 20
 1.00123229711520E+0003
 11
 4.93818407114400E+0002
 21
 1.01138570170880E+0003
  0
LINE
  8
0
 10
 4.93818407114400E+0002
 20
 1.01138570170880E+0003
 11
 4.96942574743300E+0002
 21
 1.02163499328160E+0003
  0
LINE
  8
0
 10
 4.96942574743300E+0002
 20
 1.02163499328160E+0003
 11
 4.99969702400000E+0002
 21
 1.03198355280000E+0003
  0
LINE
  8
0
 10
 4.99969702400000E+0002
 20
 1.03198355280000E+0003
 11
 5.02896456992700E+0002
 21
 1.04243476123040E+0003
  0
LINE
  8
0
 10
 5.02896456992700E+0002
 20
 1.04243476123040E+0003
 11
 5.05719505429600E+0002
 21
 1.05299199953920E+0003
  0
LINE
  8
0
 10
 5.05719505429600E+0002
 20
 1.05299199953920E+0003
 11
 5.08435514618900E+0002
 21
 1.06365864869280E+0003
  0
LINE
  8
0
 10
 5.08435514618900E+0002
 20
 1.06365864869280E+0003
 11
 5.11041151468800E+0002
 21
 1.07443808965760E+0003
  0
LINE
  8
0
 10
 5.11041151468800E+0002
 20
 1.07443808965760E+0003
 11
 5.13533082887500E+0002
 21
 1.08533370340000E+0003
  0
LINE
  8
0
 10
 5.13533082887500E+0002
 20
 1.08533370340000E+0003
 11
 5.15907975783200E+0002
 21
 1.09634887088640E+0003
  0
LINE
  8
0
 10
 5.15907975783200E+0002
 20
 1.09634887088640E+0003
 11
 5.18162497064100E+0002
 21
 1.10748697308320E+0003
  0
LINE
  8
0
 10
 5.18162497064100E+0002
 20
 1.10748697308320E+0003
 11
 5.20293313638400E+0002
 21
 1.11875139095680E+0003
  0
LINE
  8
0
 10
 5.20293313638400E+0002
 20
 1.11875139095680E+0003
 11
 5.22297092414300E+0002
 21
 1.13014550547360E+0003
  0
LINE
  8
0
 10
 5.22297092414300E+0002
 20
 1.13014550547360E+0003
 11
 5.24170500300000E+0002
 21
 1.14167269760000E+0003
  0
LINE
  8
0
 10
 5.24170500300000E+0002
 20
 1.14167269760000E+0003
 11
 5.25910204203700E+0002
 21
 1.15333634830240E+0003
  0
LINE
  8
0
 10
 5.25910204203700E+0002
 20
 1.15333634830240E+0003
 11
 5.27512871033600E+0002
 21
 1.16513983854720E+0003
  0
LINE
  8
0
 10
 5.27512871033600E+0002
 20
 1.16513983854720E+0003
 11
 5.28975167697900E+0002
 21
 1.17708654930080E+0003
  0
LINE
  8
0
 10
 5.28975167697900E+0002
 20
 1.17708654930080E+0003
 11
 5.30293761104800E+0002
 21
 1.18917986152960E+0003
  0
LINE
  8
0
 10
 5.30293761104800E+0002
 20
 1.18917986152960E+0003
 11
 5.31465318162500E+0002
 21
 1.20142315620000E+0003
  0
LINE
  8
0
 10
 5.31465318162500E+0002
 20
 1.20142315620000E+0003
 11
 5.32486505779200E+0002
 21
 1.21381981427840E+0003
  0
LINE
  8
0
 10
 5.32486505779200E+0002
 20
 1.21381981427840E+0003
 11
 5.33353990863100E+0002
 21
 1.22637321673120E+0003
  0
LINE
  8
0
 10
 5.33353990863100E+0002
 20
 1.22637321673120E+0003
 11
 5.34064440322400E+0002
 21
 1.23908674452480E+0003
  0
LINE
  8
0
 10
 5.34064440322400E+0002
 20
 1.23908674452480E+0003
 11
 5.34614521065300E+0002
 21
 1.25196377862560E+0003
  0
LINE
  8
0
 10
 5.34614521065300E+0002
 20
 1.25196377862560E+0003
 11
 5.35000900000000E+0002
 21
 1.26500770000000E+0003
  0
LINE
  8
0
 10
 5.35000900000000E+0002
 20
 1.26500770000000E+0003
 11
 5.35000000000000E+0002
 21
 1.30700000000000E+0003
  0
LINE
  8
0
 10
 5.35000000000000E+0002
 20
 1.30700000000000E+0003
 11
 5.80000509446390E+0002
 21
 1.29538091843480E+0003
  0
ARC
  8
0
 10
 5.83000000000000E+0002
 20
 1.30700000000000E+0003
 40
 1.20000000000000E+0001
 50
 2.55525000000000E+0002
 51
 3.93805000000000E+0002
  0
LINE
  8
0
 10
 5.92971231041916E+0002
 20
 1.31367641756549E+0003
 11
 5.05000000000000E+0002
 21
 1.44500000000000E+0003
  0
LINE
  8
0
 10
 5.05000000000000E+0002
 20
 1.44500000000000E+0003
 11
 4.17028768958084E+0002
 21
 1.31367641756549E+0003
  0
ARC
  8
0
 10
 4.27000000000000E+0002
 20
 1.30700000000000E+0003
 40
 1.20000000000000E+0001
 50
 1.46195000000000E+0002
 51
 2.84475000000000E+0002
  0
LINE
  8
0
 10
 4.29999490553610E+0002
 20
 1.29538091843480E+0003
 11
 4.75000000000000E+0002
 21
 1.30700000000000E+0003
  0
LINE
  8
0
 10
 4.75000000000000E+0002
 20
 1.30700000000000E+0003
 11
 4.75000000000000E+0002
 21
 1.26500000000000E+0003
  0
LINE
  8
0
 10
 7.75000000000000E+0002
 20
 1.26500000000000E+0003
 11
 7.75386390011900E+0002
 21
 1.25195630732330E+0003
  0
LINE
  8
0
 10
 7.75386390011900E+0002
 20
 1.25195630732330E+0003
 11
 7.75936480015200E+0002
 21
 1.23907949734640E+0003
  0
LINE
  8
0
 10
 7.75936480015200E+0002
 20
 1.23907949734640E+0003
 11
 7.76646936961300E+0002
 21
 1.22636618914910E+0003
  0
LINE
  8
0
 10
 7.76646936961300E+0002
 20
 1.22636618914910E+0003
 11
 7.77514427801600E+0002
 21
 1.21381300181120E+0003
  0
LINE
  8
0
 10
 7.77514427801600E+0002
 20
 1.21381300181120E+0003
 11
 7.78535619487500E+0002
 21
 1.20141655441250E+0003
  0
LINE
  8
0
 10
 7.78535619487500E+0002
 20
 1.20141655441250E+0003
 11
 7.79707178970400E+0002
 21
 1.18917346603280E+0003
  0
LINE
  8
0
 10
 7.79707178970400E+0002
 20
 1.18917346603280E+0003
 11
 7.81025773201700E+0002
 21
 1.17708035575190E+0003
  0
LINE
  8
0
 10
 7.81025773201700E+0002
 20
 1.17708035575190E+0003
 11
 7.82488069132800E+0002
 21
 1.16513384264960E+0003
  0
LINE
  8
0
 10
 7.82488069132800E+0002
 20
 1.16513384264960E+0003
 11
 7.84090733715100E+0002
 21
 1.15333054580570E+0003
  0
LINE
  8
0
 10
 7.84090733715100E+0002
 20
 1.15333054580570E+0003
 11
 7.85830433900000E+0002
 21
 1.14166708430000E+0003
  0
LINE
  8
0
 10
 7.85830433900000E+0002
 20
 1.14166708430000E+0003
 11
 7.87703836638900E+0002
 21
 1.13014007721230E+0003
  0
LINE
  8
0
 10
 7.87703836638900E+0002
 20
 1.13014007721230E+0003
 11
 7.89707608883200E+0002
 21
 1.11874614362240E+0003
  0
LINE
  8
0
 10
 7.89707608883200E+0002
 20
 1.11874614362240E+0003
 11
 7.91838417584300E+0002
 21
 1.10748190261010E+0003
  0
LINE
  8
0
 10
 7.91838417584300E+0002
 20
 1.10748190261010E+0003
 11
 7.94092929693600E+0002
 21
 1.09634397325520E+0003
  0
LINE
  8
0
 10
 7.94092929693600E+0002
 20
 1.09634397325520E+0003
 11
 7.96467812162500E+0002
 21
 1.08532897463750E+0003
  0
LINE
  8
0
 10
 7.96467812162500E+0002
 20
 1.08532897463750E+0003
 11
 7.98959731942400E+0002
 21
 1.07443352583680E+0003
  0
LINE
  8
0
 10
 7.98959731942400E+0002
 20
 1.07443352583680E+0003
 11
 8.01565355984700E+0002
 21
 1.06365424593290E+0003
  0
LINE
  8
0
 10
 8.01565355984700E+0002
 20
 1.06365424593290E+0003
 11
 8.04281351240800E+0002
 21
 1.05298775400560E+0003
  0
LINE
  8
0
 10
 8.04281351240800E+0002
 20
 1.05298775400560E+0003
 11
 8.07104384662100E+0002
 21
 1.04243066913470E+0003
  0
LINE
  8
0
 10
 8.07104384662100E+0002
 20
 1.04243066913470E+0003
 11
 8.10031123200000E+0002
 21
 1.03197961040000E+0003
  0
LINE
  8
0
 10
 8.10031123200000E+0002
 20
 1.03197961040000E+0003
 11
 8.13058233805900E+0002
 21
 1.02163119688130E+0003
  0
LINE
  8
0
 10
 8.13058233805900E+0002
 20
 1.02163119688130E+0003
 11
 8.16182383431200E+0002
 21
 1.01138204765840E+0003
  0
LINE
  8
0
 10
 8.16182383431200E+0002
 20
 1.01138204765840E+0003
 11
 8.19400239027300E+0002
 21
 1.00122878181110E+0003
  0
LINE
  8
0
 10
 8.19400239027300E+0002
 20
 1.00122878181110E+0003
 11
 8.22708467545600E+0002
 21
 9.91168018419200E+0002
  0
LINE
  8
0
 10
 8.22708467545600E+0002
 20
 9.91168018419200E+0002
 11
 8.26103735937500E+0002
 21
 9.81196376562500E+0002
  0
LINE
  8
0
 10
 8.26103735937500E+0002
 20
 9.81196376562500E+0002
 11
 8.29582711154400E+0002
 21
 9.71310475320800E+0002
  0
LINE
  8
0
 10
 8.29582711154400E+0002
 20
 9.71310475320800E+0002
 11
 8.33142060147700E+0002
 21
 9.61506933773900E+0002
  0
LINE
  8
0
 10
 8.33142060147700E+0002
 20
 9.61506933773900E+0002
 11
 8.36778449868800E+0002
 21
 9.51782371001600E+0002
  0
LINE
  8
0
 10
 8.36778449868800E+0002
 20
 9.51782371001600E+0002
 11
 8.40488547269100E+0002
 21
 9.42133406083700E+0002
  0
LINE
  8
0
 10
 8.40488547269100E+0002
 20
 9.42133406083700E+0002
 11
 8.44269019300000E+0002
 21
 9.32556658100000E+0002
  0
LINE
  8
0
 10
 8.44269019300000E+0002
 20
 9.32556658100000E+0002
 11
 8.48116532912900E+0002
 21
 9.23048746130300E+0002
  0
LINE
  8
0
 10
 8.48116532912900E+0002
 20
 9.23048746130300E+0002
 11
 8.52027755059200E+0002
 21
 9.13606289254400E+0002
  0
LINE
  8
0
 10
 8.52027755059200E+0002
 20
 9.13606289254400E+0002
 11
 8.55999352690300E+0002
 21
 9.04225906552100E+0002
  0
LINE
  8
0
 10
 8.55999352690300E+0002
 20
 9.04225906552100E+0002
 11
 8.60027992757600E+0002
 21
 8.94904217103200E+0002
  0
LINE
  8
0
 10
 8.60027992757600E+0002
 20
 8.94904217103200E+0002
 11
 8.64110342212500E+0002
 21
 8.85637839987500E+0002
  0
LINE
  8
0
 10
 8.64110342212500E+0002
 20
 8.85637839987500E+0002
 11
 8.68243068006400E+0002
 21
 8.76423394284800E+0002
  0
LINE
  8
0
 10
 8.68243068006400E+0002
 20
 8.76423394284800E+0002
 11
 8.72422837090700E+0002
 21
 8.67257499074900E+0002
  0
LINE
  8
0
 10
 8.72422837090700E+0002
 20
 8.67257499074900E+0002
 11
 8.76646316416800E+0002
 21
 8.58136773437600E+0002
  0
LINE
  8
0
 10
 8.76646316416800E+0002
 20
 8.58136773437600E+0002
 11
 8.80910172936100E+0002
 21
 8.49057836452700E+0002
  0
LINE
  8
0
 10
 8.80910172936100E+0002
 20
 8.49057836452700E+0002
 11
 8.85211073600000E+0002
 21
 8.40017307200000E+0002
  0
LINE
  8
0
 10
 8.85211073600000E+0002
 20
 8.40017307200000E+0002
 11
 8.89545685359900E+0002
 21
 8.31011804759300E+0002
  0
LINE
  8
0
 10
 8.89545685359900E+0002
 20
 8.31011804759300E+0002
 11
 8.93910675167200E+0002
 21
 8.22037948210400E+0002
  0
LINE
  8
0
 10
 8.93910675167200E+0002
 20
 8.22037948210400E+0002
 11
 8.98302709973300E+0002
 21
 8.13092356633100E+0002
  0
LINE
  8
0
 10
 8.98302709973300E+0002
 20
 8.13092356633100E+0002
 11
 9.02718456729600E+0002
 21
 8.04171649107200E+0002
  0
LINE
  8
0
 10
 9.02718456729600E+0002
 20
 8.04171649107200E+0002
 11
 9.07154582387500E+0002
 21
 7.95272444712500E+0002
  0
LINE
  8
0
 10
 9.07154582387500E+0002
 20
 7.95272444712500E+0002
 11
 9.11607753898400E+0002
 21
 7.86391362528800E+0002
  0
LINE
  8
0
 10
 9.11607753898400E+0002
 20
 7.86391362528800E+0002
 11
 9.16074638213700E+0002
 21
 7.77525021635900E+0002
  0
LINE
  8
0
 10
 9.16074638213700E+0002
 20
 7.77525021635900E+0002
 11
 9.20551902284800E+0002
 21
 7.68670041113600E+0002
  0
LINE
  8
0
 10
 9.20551902284800E+0002
 20
 7.68670041113600E+0002
 11
 9.25036213063100E+0002
 21
 7.59823040041700E+0002
  0
LINE
  8
0
 10
 9.25036213063100E+0002
 20
 7.59823040041700E+0002
 11
 9.29524237500000E+0002
 21
 7.50980637500000E+0002
  0
LINE
  8
0
 10
 9.29524237500000E+0002
 20
 7.50980637500000E+0002
 11
 9.34012642546900E+0002
 21
 7.42139452568300E+0002
  0
LINE
  8
0
 10
 9.34012642546900E+0002
 20
 7.42139452568300E+0002
 11
 9.38498095155200E+0002
 21
 7.33296104326400E+0002
  0
LINE
  8
0
 10
 9.38498095155200E+0002
 20
 7.33296104326400E+0002
 11
 9.42977262276300E+0002
 21
 7.24447211854100E+0002
  0
LINE
  8
0
 10
 9.42977262276300E+0002
 20
 7.24447211854100E+0002
 11
 9.47446810861600E+0002
 21
 7.15589394231200E+0002
  0
LINE
  8
0
 10
 9.47446810861600E+0002
 20
 7.15589394231200E+0002
 11
 9.51903407862500E+0002
 21
 7.06719270537500E+0002
  0
LINE
  8
0
 10
 9.51903407862500E+0002
 20
 7.06719270537500E+0002
 11
 9.56343720230400E+0002
 21
 6.97833459852800E+0002
  0
LINE
  8
0
 10
 9.56343720230400E+0002
 20
 6.97833459852800E+0002
 11
 9.60764414916700E+0002
 21
 6.88928581256900E+0002
  0
LINE
  8
0
 10
 9.60764414916700E+0002
 20
 6.88928581256900E+0002
 11
 9.65162158872800E+0002
 21
 6.80001253829600E+0002
  0
LINE
  8
0
 10
 9.65162158872800E+0002
 20
 6.80001253829600E+0002
 11
 9.69533619050100E+0002
 21
 6.71048096650700E+0002
  0
LINE
  8
0
 10
 9.69533619050100E+0002
 20
 6.71048096650700E+0002
 11
 9.73875462400000E+0002
 21
 6.62065728800000E+0002
  0
LINE
  8
0
 10
 9.73875462400000E+0002
 20
 6.62065728800000E+0002
 11
 9.78184355873900E+0002
 21
 6.53050769357300E+0002
  0
LINE
  8
0
 10
 9.78184355873900E+0002
 20
 6.53050769357300E+0002
 11
 9.82456966423200E+0002
 21
 6.43999837402400E+0002
  0
LINE
  8
0
 10
 9.82456966423200E+0002
 20
 6.43999837402400E+0002
 11
 9.86689960999300E+0002
 21
 6.34909552015100E+0002
  0
LINE
  8
0
 10
 9.86689960999300E+0002
 20
 6.34909552015100E+0002
 11
 9.90880006553600E+0002
 21
 6.25776532275200E+0002
  0
LINE
  8
0
 10
 9.90880006553600E+0002
 20
 6.25776532275200E+0002
 11
 9.95023770037500E+0002
 21
 6.16597397262500E+0002
  0
LINE
  8
0
 10
 9.95023770037500E+0002
 20
 6.16597397262500E+0002
 11
 9.99117918402400E+0002
 21
 6.07368766056800E+0002
  0
LINE
  8
0
 10
 9.99117918402400E+0002
 20
 6.07368766056800E+0002
 11
 1.00315911859970E+0003
 21
 5.98087257737900E+0002
  0
LINE
  8
0
 10
 1.00315911859970E+0003
 20
 5.98087257737900E+0002
 11
 1.00714403758080E+0003
 21
 5.88749491385600E+0002
  0
LINE
  8
0
 10
 1.00714403758080E+0003
 20
 5.88749491385600E+0002
 11
 1.01106934229710E+0003
 21
 5.79352086079700E+0002
  0
LINE
  8
0
 10
 1.01106934229710E+0003
 20
 5.79352086079700E+0002
 11
 1.01493169970000E+0003
 21
 5.69891660900000E+0002
  0
LINE
  8
0
 10
 1.01493169970000E+0003
 20
 5.69891660900000E+0002
 11
 1.01872777674090E+0003
 21
 5.60364834926300E+0002
  0
LINE
  8
0
 10
 1.01872777674090E+0003
 20
 5.60364834926300E+0002
 11
 1.02245424037120E+0003
 21
 5.50768227238400E+0002
  0
LINE
  8
0
 10
 1.02245424037120E+0003
 20
 5.50768227238400E+0002
 11
 1.02610775754230E+0003
 21
 5.41098456916100E+0002
  0
LINE
  8
0
 10
 1.02610775754230E+0003
 20
 5.41098456916100E+0002
 11
 1.02968499520560E+0003
 21
 5.31352143039200E+0002
  0
LINE
  8
0
 10
 1.02968499520560E+0003
 20
 5.31352143039200E+0002
 11
 1.03318262031250E+0003
 21
 5.21525904687500E+0002
  0
LINE
  8
0
 10
 1.03318262031250E+0003
 20
 5.21525904687500E+0002
 11
 1.03659729981440E+0003
 21
 5.11616360940800E+0002
  0
LINE
  8
0
 10
 1.03659729981440E+0003
 20
 5.11616360940800E+0002
 11
 1.03992570066270E+0003
 21
 5.01620130878900E+0002
  0
LINE
  8
0
 10
 1.03992570066270E+0003
 20
 5.01620130878900E+0002
 11
 1.04316448980880E+0003
 21
 4.91533833581600E+0002
  0
LINE
  8
0
 10
 1.04316448980880E+0003
 20
 4.91533833581600E+0002
 11
 1.04631033420410E+0003
 21
 4.81354088128700E+0002
  0
LINE
  8
0
 10
 1.04631033420410E+0003
 20
 4.81354088128700E+0002
 11
 1.04935990080000E+0003
 21
 4.71077513600000E+0002
  0
LINE
  8
0
 10
 1.04935990080000E+0003
 20
 4.71077513600000E+0002
 11
 1.05230985654790E+0003
 21
 4.60700729075300E+0002
  0
LINE
  8
0
 10
 1.05230985654790E+0003
 20
 4.60700729075300E+0002
 11
 1.05515686839920E+0003
 21
 4.50220353634400E+0002
  0
LINE
  8
0
 10
 1.05515686839920E+0003
 20
 4.50220353634400E+0002
 11
 1.05789760330530E+0003
 21
 4.39633006357100E+0002
  0
LINE
  8
0
 10
 1.05789760330530E+0003
 20
 4.39633006357100E+0002
 11
 1.06052872821760E+0003
 21
 4.28935306323200E+0002
  0
LINE
  8
0
 10
 1.06052872821760E+0003
 20
 4.28935306323200E+0002
 11
 1.06304691008750E+0003
 21
 4.18123872612500E+0002
  0
LINE
  8
0
 10
 1.06304691008750E+0003
 20
 4.18123872612500E+0002
 11
 1.06544881586640E+0003
 21
 4.07195324304800E+0002
  0
LINE
  8
0
 10
 1.06544881586640E+0003
 20
 4.07195324304800E+0002
 11
 1.06773111250570E+0003
 21
 3.96146280479900E+0002
  0
LINE
  8
0
 10
 1.06773111250570E+0003
 20
 3.96146280479900E+0002
 11
 1.06989046695680E+0003
 21
 3.84973360217600E+0002
  0
LINE
  8
0
 10
 1.06989046695680E+0003
 20
 3.84973360217600E+0002
 11
 1.07192354617110E+0003
 21
 3.73673182597700E+0002
  0
LINE
  8
0
 10
 1.07192354617110E+0003
 20
 3.73673182597700E+0002
 11
 1.07382701710000E+0003
 21
 3.62242366700000E+0002
  0
LINE
  8
0
 10
 1.07382701710000E+0003
 20
 3.62242366700000E+0002
 11
 1.07559754669490E+0003
 21
 3.50677531604300E+0002
  0
LINE
  8
0
 10
 1.07559754669490E+0003
 20
 3.50677531604300E+0002
 11
 1.07723180190720E+0003
 21
 3.38975296390400E+0002
  0
LINE
  8
0
 10
 1.07723180190720E+0003
 20
 3.38975296390400E+0002
 11
 1.07872644968830E+0003
 21
 3.27132280138100E+0002
  0
LINE
  8
0
 10
 1.07872644968830E+0003
 20
 3.27132280138100E+0002
 11
 1.08007815698960E+0003
 21
 3.15145101927200E+0002
  0
LINE
  8
0
 10
 1.08007815698960E+0003
 20
 3.15145101927200E+0002
 11
 1.08128359076250E+0003
 21
 3.03010380837500E+0002
  0
LINE
  8
0
 10
 1.08128359076250E+0003
 20
 3.03010380837500E+0002
 11
 1.08233941795840E+0003
 21
 2.90724735948800E+0002
  0
LINE
  8
0
 10
 1.08233941795840E+0003
 20
 2.90724735948800E+0002
 11
 1.08324230552870E+0003
 21
 2.78284786340900E+0002
  0
LINE
  8
0
 10
 1.08324230552870E+0003
 20
 2.78284786340900E+0002
 11
 1.08398892042480E+0003
 21
 2.65687151093600E+0002
  0
LINE
  8
0
 10
 1.08398892042480E+0003
 20
 2.65687151093600E+0002
 11
 1.08457592959810E+0003
 21
 2.52928449286700E+0002
  0
LINE
  8
0
 10
 1.08457592959810E+0003
 20
 2.52928449286700E+0002
 11
 1.08500000000000E+0003
 21
 2.40005300000000E+0002
  0
LINE
  8
0
 10
 1.08500000000000E+0003
 20
 2.40005300000000E+0002
 11
 1.08500000000000E+0003
 21
 1.55000000000000E+0002
  0
LINE
  8
0
 10
 1.08500000000000E+0003
 20
 1.55000000000000E+0002
 11
 1.02500000000000E+0003
 21
 1.55000000000000E+0002
  0
LINE
  8
0
 10
 1.02500000000000E+0003
 20
 1.55000000000000E+0002
 11
 1.02500000000000E+0003
 21
 2.40005300000000E+0002
  0
LINE
  8
0
 10
 1.02500000000000E+0003
 20
 2.40005300000000E+0002
 11
 1.02457597037530E+0003
 21
 2.52928449294400E+0002
  0
LINE
  8
0
 10
 1.02457597037530E+0003
 20
 2.52928449294400E+0002
 11
 1.02398899956240E+0003
 21
 2.65687151155200E+0002
  0
LINE
  8
0
 10
 1.02398899956240E+0003
 20
 2.65687151155200E+0002
 11
 1.02324242065310E+0003
 21
 2.78284786548800E+0002
  0
LINE
  8
0
 10
 1.02324242065310E+0003
 20
 2.78284786548800E+0002
 11
 1.02233956673920E+0003
 21
 2.90724736441600E+0002
  0
LINE
  8
0
 10
 1.02233956673920E+0003
 20
 2.90724736441600E+0002
 11
 1.02128377091250E+0003
 21
 3.03010381800000E+0002
  0
LINE
  8
0
 10
 1.02128377091250E+0003
 20
 3.03010381800000E+0002
 11
 1.02007836626480E+0003
 21
 3.15145103590400E+0002
  0
LINE
  8
0
 10
 1.02007836626480E+0003
 20
 3.15145103590400E+0002
 11
 1.01872668588790E+0003
 21
 3.27132282779200E+0002
  0
LINE
  8
0
 10
 1.01872668588790E+0003
 20
 3.27132282779200E+0002
 11
 1.01723206287360E+0003
 21
 3.38975300332800E+0002
  0
LINE
  8
0
 10
 1.01723206287360E+0003
 20
 3.38975300332800E+0002
 11
 1.01559783031370E+0003
 21
 3.50677537217600E+0002
  0
LINE
  8
0
 10
 1.01559783031370E+0003
 20
 3.50677537217600E+0002
 11
 1.01382732130000E+0003
 21
 3.62242374400000E+0002
  0
LINE
  8
0
 10
 1.01382732130000E+0003
 20
 3.62242374400000E+0002
 11
 1.01192386892430E+0003
 21
 3.73673192846400E+0002
  0
LINE
  8
0
 10
 1.01192386892430E+0003
 20
 3.73673192846400E+0002
 11
 1.00989080627840E+0003
 21
 3.84973373523200E+0002
  0
LINE
  8
0
 10
 1.00989080627840E+0003
 20
 3.84973373523200E+0002
 11
 1.00773146645410E+0003
 21
 3.96146297396800E+0002
  0
LINE
  8
0
 10
 1.00773146645410E+0003
 20
 3.96146297396800E+0002
 11
 1.00544918254320E+0003
 21
 4.07195345433600E+0002
  0
LINE
  8
0
 10
 1.00544918254320E+0003
 20
 4.07195345433600E+0002
 11
 1.00304728763750E+0003
 21
 4.18123898600000E+0002
  0
LINE
  8
0
 10
 1.00304728763750E+0003
 20
 4.18123898600000E+0002
 11
 1.00052911482880E+0003
 21
 4.28935337862400E+0002
  0
LINE
  8
0
 10
 1.00052911482880E+0003
 20
 4.28935337862400E+0002
 11
 9.97897997208900E+0002
 21
 4.39633044187200E+0002
  0
LINE
  8
0
 10
 9.97897997208900E+0002
 20
 4.39633044187200E+0002
 11
 9.95157267869600E+0002
 21
 4.50220398540800E+0002
  0
LINE
  8
0
 10
 9.95157267869600E+0002
 20
 4.50220398540800E+0002
 11
 9.92310259902700E+0002
 21
 4.60700781889600E+0002
  0
LINE
  8
0
 10
 9.92310259902700E+0002
 20
 4.60700781889600E+0002
 11
 9.89360306400000E+0002
 21
 4.71077575200000E+0002
  0
LINE
  8
0
 10
 9.89360306400000E+0002
 20
 4.71077575200000E+0002
 11
 9.86310740453300E+0002
 21
 4.81354159438400E+0002
  0
LINE
  8
0
 10
 9.86310740453300E+0002
 20
 4.81354159438400E+0002
 11
 9.83164895154400E+0002
 21
 4.91533915571200E+0002
  0
LINE
  8
0
 10
 9.83164895154400E+0002
 20
 4.91533915571200E+0002
 11
 9.79926103595100E+0002
 21
 5.01620224564800E+0002
  0
LINE
  8
0
 10
 9.79926103595100E+0002
 20
 5.01620224564800E+0002
 11
 9.76597698867200E+0002
 21
 5.11616467385600E+0002
  0
LINE
  8
0
 10
 9.76597698867200E+0002
 20
 5.11616467385600E+0002
 11
 9.73183014062500E+0002
 21
 5.21526025000000E+0002
  0
LINE
  8
0
 10
 9.73183014062500E+0002
 20
 5.21526025000000E+0002
 11
 9.69685382272800E+0002
 21
 5.31352278374400E+0002
  0
LINE
  8
0
 10
 9.69685382272800E+0002
 20
 5.31352278374400E+0002
 11
 9.66108136589900E+0002
 21
 5.41098608475200E+0002
  0
LINE
  8
0
 10
 9.66108136589900E+0002
 20
 5.41098608475200E+0002
 11
 9.62454610105600E+0002
 21
 5.50768396268800E+0002
  0
LINE
  8
0
 10
 9.62454610105600E+0002
 20
 5.50768396268800E+0002
 11
 9.58728135911700E+0002
 21
 5.60365022721600E+0002
  0
LINE
  8
0
 10
 9.58728135911700E+0002
 20
 5.60365022721600E+0002
 11
 9.54932047100000E+0002
 21
 5.69891868800000E+0002
  0
LINE
  8
0
 10
 9.54932047100000E+0002
 20
 5.69891868800000E+0002
 11
 9.51069676762300E+0002
 21
 5.79352315470400E+0002
  0
LINE
  8
0
 10
 9.51069676762300E+0002
 20
 5.79352315470400E+0002
 11
 9.47144357990400E+0002
 21
 5.88749743699200E+0002
  0
LINE
  8
0
 10
 9.47144357990400E+0002
 20
 5.88749743699200E+0002
 11
 9.43159423876100E+0002
 21
 5.98087534452800E+0002
  0
LINE
  8
0
 10
 9.43159423876100E+0002
 20
 5.98087534452800E+0002
 11
 9.39118207511200E+0002
 21
 6.07369068697600E+0002
  0
LINE
  8
0
 10
 9.39118207511200E+0002
 20
 6.07369068697600E+0002
 11
 9.35024041987500E+0002
 21
 6.16597727400000E+0002
  0
LINE
  8
0
 10
 9.35024041987500E+0002
 20
 6.16597727400000E+0002
 11
 9.30880260396800E+0002
 21
 6.25776891526400E+0002
  0
LINE
  8
0
 10
 9.30880260396800E+0002
 20
 6.25776891526400E+0002
 11
 9.26690195830900E+0002
 21
 6.34909942043200E+0002
  0
LINE
  8
0
 10
 9.26690195830900E+0002
 20
 6.34909942043200E+0002
 11
 9.22457181381600E+0002
 21
 6.44000259916800E+0002
  0
LINE
  8
0
 10
 9.22457181381600E+0002
 20
 6.44000259916800E+0002
 11
 9.18184550140700E+0002
 21
 6.53051226113600E+0002
  0
LINE
  8
0
 10
 9.18184550140700E+0002
 20
 6.53051226113600E+0002
 11
 9.13875635200000E+0002
 21
 6.62066221600000E+0002
  0
LINE
  8
0
 10
 9.13875635200000E+0002
 20
 6.62066221600000E+0002
 11
 9.09533769651300E+0002
 21
 6.71048627342400E+0002
  0
LINE
  8
0
 10
 9.09533769651300E+0002
 20
 6.71048627342400E+0002
 11
 9.05162286586400E+0002
 21
 6.80001824307200E+0002
  0
LINE
  8
0
 10
 9.05162286586400E+0002
 20
 6.80001824307200E+0002
 11
 9.00764519097100E+0002
 21
 6.88929193460800E+0002
  0
LINE
  8
0
 10
 9.00764519097100E+0002
 20
 6.88929193460800E+0002
 11
 8.96343800275200E+0002
 21
 6.97834115769600E+0002
  0
LINE
  8
0
 10
 8.96343800275200E+0002
 20
 6.97834115769600E+0002
 11
 8.91903463212500E+0002
 21
 7.06719972200000E+0002
  0
LINE
  8
0
 10
 8.91903463212500E+0002
 20
 7.06719972200000E+0002
 11
 8.87446841000800E+0002
 21
 7.15590143718400E+0002
  0
LINE
  8
0
 10
 8.87446841000800E+0002
 20
 7.15590143718400E+0002
 11
 8.82977266731900E+0002
 21
 7.24448011291200E+0002
  0
LINE
  8
0
 10
 8.82977266731900E+0002
 20
 7.24448011291200E+0002
 11
 8.78498073497600E+0002
 21
 7.33296955884800E+0002
  0
LINE
  8
0
 10
 8.78498073497600E+0002
 20
 7.33296955884800E+0002
 11
 8.74012594389700E+0002
 21
 7.42140358465600E+0002
  0
LINE
  8
0
 10
 8.74012594389700E+0002
 20
 7.42140358465600E+0002
 11
 8.69524162500000E+0002
 21
 7.50981600000000E+0002
  0
LINE
  8
0
 10
 8.69524162500000E+0002
 20
 7.50981600000000E+0002
 11
 8.65036110920300E+0002
 21
 7.59824061454400E+0002
  0
LINE
  8
0
 10
 8.65036110920300E+0002
 20
 7.59824061454400E+0002
 11
 8.60551772742400E+0002
 21
 7.68671123795200E+0002
  0
LINE
  8
0
 10
 8.60551772742400E+0002
 20
 7.68671123795200E+0002
 11
 8.56074481058100E+0002
 21
 7.77526167988800E+0002
  0
LINE
  8
0
 10
 8.56074481058100E+0002
 20
 7.77526167988800E+0002
 11
 8.51607568959200E+0002
 21
 7.86392575001600E+0002
  0
LINE
  8
0
 10
 8.51607568959200E+0002
 20
 7.86392575001600E+0002
 11
 8.47154369537500E+0002
 21
 7.95273725800000E+0002
  0
LINE
  8
0
 10
 8.47154369537500E+0002
 20
 7.95273725800000E+0002
 11
 8.42718215884800E+0002
 21
 8.04173001350400E+0002
  0
LINE
  8
0
 10
 8.42718215884800E+0002
 20
 8.04173001350400E+0002
 11
 8.38302441092900E+0002
 21
 8.13093782619200E+0002
  0
LINE
  8
0
 10
 8.38302441092900E+0002
 20
 8.13093782619200E+0002
 11
 8.33910378253600E+0002
 21
 8.22039450572800E+0002
  0
LINE
  8
0
 10
 8.33910378253600E+0002
 20
 8.22039450572800E+0002
 11
 8.29545360458700E+0002
 21
 8.31013386177600E+0002
  0
LINE
  8
0
 10
 8.29545360458700E+0002
 20
 8.31013386177600E+0002
 11
 8.25210720800000E+0002
 21
 8.40018970400000E+0002
  0
LINE
  8
0
 10
 8.25210720800000E+0002
 20
 8.40018970400000E+0002
 11
 8.20909792369300E+0002
 21
 8.49059584206400E+0002
  0
LINE
  8
0
 10
 8.20909792369300E+0002
 20
 8.49059584206400E+0002
 11
 8.16645908258400E+0002
 21
 8.58138608563200E+0002
  0
LINE
  8
0
 10
 8.16645908258400E+0002
 20
 8.58138608563200E+0002
 11
 8.12422401559100E+0002
 21
 8.67259424436800E+0002
  0
LINE
  8
0
 10
 8.12422401559100E+0002
 20
 8.67259424436800E+0002
 11
 8.08242605363200E+0002
 21
 8.76425412793600E+0002
  0
LINE
  8
0
 10
 8.08242605363200E+0002
 20
 8.76425412793600E+0002
 11
 8.04109852762500E+0002
 21
 8.85639954600000E+0002
  0
LINE
  8
0
 10
 8.04109852762500E+0002
 20
 8.85639954600000E+0002
 11
 8.00027476848800E+0002
 21
 8.94906430822400E+0002
  0
LINE
  8
0
 10
 8.00027476848800E+0002
 20
 8.94906430822400E+0002
 11
 7.95998810713900E+0002
 21
 9.04228222427200E+0002
  0
LINE
  8
0
 10
 7.95998810713900E+0002
 20
 9.04228222427200E+0002
 11
 7.92027187449600E+0002
 21
 9.13608710380800E+0002
  0
LINE
  8
0
 10
 7.92027187449600E+0002
 20
 9.13608710380800E+0002
 11
 7.88115940147700E+0002
 21
 9.23051275649600E+0002
  0
LINE
  8
0
 10
 7.88115940147700E+0002
 20
 9.23051275649600E+0002
 11
 7.84268401900000E+0002
 21
 9.32559299200000E+0002
  0
LINE
  8
0
 10
 7.84268401900000E+0002
 20
 9.32559299200000E+0002
 11
 7.80487905798300E+0002
 21
 9.42136161998400E+0002
  0
LINE
  8
0
 10
 7.80487905798300E+0002
 20
 9.42136161998400E+0002
 11
 7.76777784934400E+0002
 21
 9.51785245011200E+0002
  0
LINE
  8
0
 10
 7.76777784934400E+0002
 20
 9.51785245011200E+0002
 11
 7.73141372400100E+0002
 21
 9.61509929204800E+0002
  0
LINE
  8
0
 10
 7.73141372400100E+0002
 20
 9.61509929204800E+0002
 11
 7.69582001287200E+0002
 21
 9.71313595545600E+0002
  0
LINE
  8
0
 10
 7.69582001287200E+0002
 20
 9.71313595545600E+0002
 11
 7.66103004687500E+0002
 21
 9.81199625000000E+0002
  0
LINE
  8
0
 10
 7.66103004687500E+0002
 20
 9.81199625000000E+0002
 11
 7.62707715692800E+0002
 21
 9.91171398534400E+0002
  0
LINE
  8
0
 10
 7.62707715692800E+0002
 20
 9.91171398534400E+0002
 11
 7.59399467394900E+0002
 21
 1.00123229711520E+0003
  0
LINE
  8
0
 10
 7.59399467394900E+0002
 20
 1.00123229711520E+0003
 11
 7.56181592885600E+0002
 21
 1.01138570170880E+0003
  0
LINE
  8
0
 10
 7.56181592885600E+0002
 20
 1.01138570170880E+0003
 11
 7.53057425256700E+0002
 21
 1.02163499328160E+0003
  0
LINE
  8
0
 10
 7.53057425256700E+0002
 20
 1.02163499328160E+0003
 11
 7.50030297600000E+0002
 21
 1.03198355280000E+0003
  0
LINE
  8
0
 10
 7.50030297600000E+0002
 20
 1.03198355280000E+0003
 11
 7.47103543007300E+0002
 21
 1.04243476123040E+0003
  0
LINE
  8
0
 10
 7.47103543007300E+0002
 20
 1.04243476123040E+0003
 11
 7.44280494570400E+0002
 21
 1.05299199953920E+0003
  0
LINE
  8
0
 10
 7.44280494570400E+0002
 20
 1.05299199953920E+0003
 11
 7.41564485381100E+0002
 21
 1.06365864869280E+0003
  0
LINE
  8
0
 10
 7.41564485381100E+0002
 20
 1.06365864869280E+0003
 11
 7.38958848531200E+0002
 21
 1.07443808965760E+0003
  0
LINE
  8
0
 10
 7.38958848531200E+0002
 20
 1.07443808965760E+0003
 11
 7.36466917112500E+0002
 21
 1.08533370340000E+0003
  0
LINE
  8
0
 10
 7.36466917112500E+0002
 20
 1.08533370340000E+0003
 11
 7.34092024216800E+0002
 21
 1.09634887088640E+0003
  0
LINE
  8
0
 10
 7.34092024216800E+0002
 20
 1.09634887088640E+0003
 11
 7.31837502935900E+0002
 21
 1.10748697308320E+0003
  0
LINE
  8
0
 10
 7.31837502935900E+0002
 20
 1.10748697308320E+0003
 11
 7.29706686361600E+0002
 21
 1.11875139095680E+0003
  0
LINE
  8
0
 10
 7.29706686361600E+0002
 20
 1.11875139095680E+0003
 11
 7.27702907585700E+0002
 21
 1.13014550547360E+0003
  0
LINE
  8
0
 10
 7.27702907585700E+0002
 20
 1.13014550547360E+0003
 11
 7.25829499700000E+0002
 21
 1.14167269760000E+0003
  0
LINE
  8
0
 10
 7.25829499700000E+0002
 20
 1.14167269760000E+0003
 11
 7.24089795796300E+0002
 21
 1.15333634830240E+0003
  0
LINE
  8
0
 10
 7.24089795796300E+0002
 20
 1.15333634830240E+0003
 11
 7.22487128966400E+0002
 21
 1.16513983854720E+0003
  0
LINE
  8
0
 10
 7.22487128966400E+0002
 20
 1.16513983854720E+0003
 11
 7.21024832302100E+0002
 21
 1.17708654930080E+0003
  0
LINE
  8
0
 10
 7.21024832302100E+0002
 20
 1.17708654930080E+0003
 11
 7.19706238895200E+0002
 21
 1.18917986152960E+0003
  0
LINE
  8
0
 10
 7.19706238895200E+0002
 20
 1.18917986152960E+0003
 11
 7.18534681837500E+0002
 21
 1.20142315620000E+0003
  0
LINE
  8
0
 10
 7.18534681837500E+0002
 20
 1.20142315620000E+0003
 11
 7.17513494220800E+0002
 21
 1.21381981427840E+0003
  0
LINE
  8
0
 10
 7.17513494220800E+0002
 20
 1.21381981427840E+0003
 11
 7.16646009136900E+0002
 21
 1.22637321673120E+0003
  0
LINE
  8
0
 10
 7.16646009136900E+0002
 20
 1.22637321673120E+0003
 11
 7.15935559677600E+0002
 21
 1.23908674452480E+0003
  0
LINE
  8
0
 10
 7.15935559677600E+0002
 20
 1.23908674452480E+0003
 11
 7.15385478934700E+0002
 21
 1.25196377862560E+0003
  0
LINE
  8
0
 10
 7.15385478934700E+0002
 20
 1.25196377862560E+0003
 11
 7.14999100000000E+0002
 21
 1.26500770000000E+0003
  0
LINE
  8
0
 10
 7.14999100000000E+0002
 20
 1.26500770000000E+0003
 11
 7.15000000000000E+0002
 21
 1.30700000000000E+0003
  0
LINE
  8
0
 10
 7.15000000000000E+0002
 20
 1.30700000000000E+0003
 11
 6.69999490553610E+0002
 21
 1.29538091843480E+0003
  0
ARC
  8
0
 10
 6.67000000000000E+0002
 20
 1.30700000000000E+0003
 40
 1.20000000000000E+0001
 50
 1.46195000000000E+0002
 51
 2.84475000000000E+0002
  0
LINE
  8
0
 10
 6.57028768958083E+0002
 20
 1.31367641756549E+0003
 11
 7.45000000000000E+0002
 21
 1.44500000000000E+0003
  0
LINE
  8
0
 10
 7.45000000000000E+0002
 20
 1.44500000000000E+0003
 11
 8.32971231041917E+0002
 21
 1.31367641756549E+0003
  0
ARC
  8
0
 10
 8.23000000000000E+0002
 20
 1.30700000000000E+0003
 40
 1.20000000000000E+0001
 50
 2.55525000000000E+0002
 51
 3.93805000000000E+0002
  0
LINE
  8
0
 10
 8.20000509446390E+0002
 20
 1.29538091843480E+0003
 11
 7.75000000000000E+0002
 21
 1.30700000000000E+0003
  0
LINE
  8
0
 10
 7.75000000000000E+0002
 20
 1.30700000000000E+0003
 11
 7.75000000000000E+0002
 21
 1.26500000000000E+0003
  0
LINE
  8
0
 10
 2.75000000000000E+0002
 20
 1.53500000000000E+0003
 11
 3.05000000000000E+0002
 21
 1.53500000000000E+0003
  0
ARC
  8
0
 10
-4.45000000000000E+0002
 20
 1.53500000000000E+0003
 40
 7.50000000000000E+0002
 50
 3.40811860000000E+0002
 51
 3.60000000000000E+0002
  0
LINE
  8
0
 10
 2.63333318076195E+0002
 20
 1.28849663186243E+0003
 11
 2.63333332723048E+0002
 21
 1.28849686527450E+0003
  0
ARC
  8
0
 10
 2.35000000000000E+0002
 20
 1.29835700000000E+0003
 40
 3.00000000000000E+0001
 50
 1.99188140000000E+0002
 51
 3.40811860000000E+0002
  0
LINE
  8
0
 10
 2.06666667276952E+0002
 20
 1.28849686527450E+0003
 11
 2.06666681923805E+0002
 21
 1.28849663186243E+0003
  0
ARC
  8
0
 10
 9.15000000000000E+0002
 20
 1.53500000000000E+0003
 40
 7.50000000000000E+0002
 50
 1.80000000000000E+0002
 51
 1.99188140000000E+0002
  0
LINE
  8
0
 10
 1.65000000000000E+0002
 20
 1.53500000000000E+0003
 11
 1.95000000000000E+0002
 21
 1.53500000000000E+0003
  0
ARC
  8
0
 10
 9.15000000000000E+0002
 20
 1.53500000000000E+0003
 40
 7.20000000000000E+0002
 50
 1.80000000000000E+0002
 51
 1.99188140000000E+0002
  0
LINE
  8
0
 10
 2.35000014646853E+0002
 20
 1.29835676658793E+0003
 11
 2.34999985353147E+0002
 21
 1.29835676658793E+0003
  0
ARC
  8
0
 10
-4.45000000000000E+0002
 20
 1.53500000000000E+0003
 40
 7.20000000000000E+0002
 50
 3.40811860000000E+0002
 51
 3.60000000000000E+0002
  0
LINE
  8
0
 10
 5.25000000000000E+0002
 20
 6.50000000000000E+0001
 11
 5.55000000000000E+0002
 21
 6.50000000000000E+0001
  0
ARC
  8
0
 10
-1.95000000000000E+0002
 20
 6.50000000000000E+0001
 40
 7.50000000000000E+0002
 50
 0.00000000000000E+0000
 51
 1.91881400000000E+0001
  0
LINE
  8
0
 10
 5.13333318076195E+0002
 20
 3.11503368137575E+0002
 11
 5.13333332723048E+0002
 21
 3.11503134725503E+0002
  0
ARC
  8
0
 10
 4.85000000000000E+0002
 20
 3.01643000000000E+0002
 40
 3.00000000000000E+0001
 50
 1.91881400000000E+0001
 51
 1.60811860000000E+0002
  0
LINE
  8
0
 10
 4.56666667276952E+0002
 20
 3.11503134725503E+0002
 11
 4.56666681923805E+0002
 21
 3.11503368137575E+0002
  0
ARC
  8
0
 10
 1.16500000000000E+0003
 20
 6.50000000000000E+0001
 40
 7.50000000000000E+0002
 50
 1.60811860000000E+0002
 51
 1.80000000000000E+0002
  0
LINE
  8
0
 10
 4.15000000000000E+0002
 20
 6.50000000000000E+0001
 11
 4.45000000000000E+0002
 21
 6.50000000000000E+0001
  0
ARC
  8
0
 10
 1.16500000000000E+0003
 20
 6.50000000000000E+0001
 40
 7.20000000000000E+0002
 50
 1.60811860000000E+0002
 51
 1.80000000000000E+0002
  0
LINE
  8
0
 10
 4.85000014646853E+0002
 20
 3.01643233412072E+0002
 11
 4.84999985353147E+0002
 21
 3.01643233412072E+0002
  0
ARC
  8
0
 10
-1.95000000000000E+0002
 20
 6.50000000000000E+0001
 40
 7.20000000000000E+0002
 50
 0.00000000000000E+0000
 51
 1.91881400000000E+0001
  0
ENDSEC
  0
EOF
