  0
SECTION
  2
HEADER
  9
$ACADVER
  1
AC1003
  9
$INSBASE
 10
0.0
 20
0.0
  9
$EXTMIN
 10
 0.00000000000000E+0000
 20
 0.00000000000000E+0000
  9
$EXTMAX
 10
 1.60000000000000E+0003
 20
 1.60000000000000E+0003
  9
$LIMMIN
 10
0.0
 20
0.0
  9
$LIMMAX
 10
410.0
 20
287.0
  9
$VIEWCTR
 10
227.0059616
 20
165.058879 
  9
$VIEWSIZE
 40
 1.60000000000000E+0003
9
$SNAPMODE
70
0
9
$SNAPUNIT
10
1
20
1
9
$GRIDMODE
70
0
9
$GRIDUNIT
10
1
20
1
9
$ORTHOMODE
70
0
9
$rEGENMODE
70
1
9
$FILLMODE
70
1
9
$DRAGMODE
70
2
9
$LTSCALE
40
25.0
9
$OSMODE
70
0
9
$ATTMODE
70
1
9
$TRACEWID
40
1.0
9
$TEXTSTYLE
7
STANDARD
9
$CLAYER
8
0
9
$CELTYPE
6
VONLAYER
9
$CECOLOR
62
256
9
$LUNITS
70
2
9
$LUPREC
70
2
9
$AXISMODE
70
0
9
$AXISUNIT
10
0
20
0
9
$SKETCHINC
40
1.0
9
$FILLETRAD
40
0.0
9
$AUNITS
70
0
9
$AUPREC
70
0
9
$MENU
1
ACAD
9
$ELEVATION
40
0.0
9
$THICKNESS
40
0.0
9
$VIEWDIR
10
0.0
20
0.0
30
1.0
9
$LIMCHECK
70
0
9
$BLIPMODE
70
1
9
$CHAMFERA
40
0.0
9
$CHAMFERB
40
0.0
9
$USRTIMER
70
1
9
$ANGBASE
50
0.0
9
$ANGDIR
70
0
9
$PDMODE
70
0
9
$PDSIZE
40
0.0
9
$PLINEWID
40
0.0
9
$COORDS
70
0
0
ENDSEC
0
SECTION
2
TABLES
0
TABLE
2
LTYPE
70
1
0
LTYPE
2
AUSGEZOGEN
70
64
3
Ausgezogene Linie
72
65
73
0
40
0.0
0
ENDTAB
0
TABLE
2
LAYER
70
1
0
LAYER
2
0
70
0
62
7
6
AUSGEZOGEN
0
ENDTAB
0
TABLE
2
STYLE
70
1
0
STYLE
2
STANDARD
70
0
40
0.0
41
1.0
50
0.0
71
0
42
3.5
3
txt
4

0
ENDTAB
0
TABLE
2
VIEW
70
0
0
ENDTAB
0
ENDSEC
0
SECTION
2
BLOCKS
0
ENDSEC
0
SECTION
2
ENTITIES
  0
ARC
  8
0
 10
 6.00000000000000E+0001
 20
 6.00000000000000E+0001
 40
 6.00000000000000E+0001
 50
 1.80000000000000E+0002
 51
 2.70000000000000E+0002
  0
LINE
  8
0
 10
 0.00000000000000E+0000
 20
 6.00000000000000E+0001
 11
 0.00000000000000E+0000
 21
 1.54000000000000E+0003
  0
ARC
  8
0
 10
 6.00000000000000E+0001
 20
 1.54000000000000E+0003
 40
 6.00000000000000E+0001
 50
 9.00000000000000E+0001
 51
 1.80000000000000E+0002
  0
LINE
  8
0
 10
 6.00000000000000E+0001
 20
 1.60000000000000E+0003
 11
 1.54000000000000E+0003
 21
 1.60000000000000E+0003
  0
ARC
  8
0
 10
 1.54000000000000E+0003
 20
 1.54000000000000E+0003
 40
 6.00000000000000E+0001
 50
 0.00000000000000E+0000
 51
 9.00000000000000E+0001
  0
LINE
  8
0
 10
 1.60000000000000E+0003
 20
 1.54000000000000E+0003
 11
 1.60000000000000E+0003
 21
 6.00000000000000E+0001
  0
ARC
  8
0
 10
 1.54000000000000E+0003
 20
 6.00000000000000E+0001
 40
 6.00000000000000E+0001
 50
 2.70000000000000E+0002
 51
 3.60000000000000E+0002
  0
LINE
  8
0
 10
 1.54000000000000E+0003
 20
 0.00000000000000E+0000
 11
 6.00000000000000E+0001
 21
 0.00000000000000E+0000
  0
ARC
  8
0
 10
 6.00000000000000E+0001
 20
 6.00000000000000E+0001
 40
 4.50000000000000E+0001
 50
 1.80000000000000E+0002
 51
 2.70000000000000E+0002
  0
LINE
  8
0
 10
 1.50000000000000E+0001
 20
 6.00000000000000E+0001
 11
 1.50000000000000E+0001
 21
 1.54000000000000E+0003
  0
ARC
  8
0
 10
 6.00000000000000E+0001
 20
 1.54000000000000E+0003
 40
 4.50000000000000E+0001
 50
 9.00000000000000E+0001
 51
 1.80000000000000E+0002
  0
LINE
  8
0
 10
 6.00000000000000E+0001
 20
 1.58500000000000E+0003
 11
 1.54000000000000E+0003
 21
 1.58500000000000E+0003
  0
ARC
  8
0
 10
 1.54000000000000E+0003
 20
 1.54000000000000E+0003
 40
 4.50000000000000E+0001
 50
 0.00000000000000E+0000
 51
 9.00000000000000E+0001
  0
LINE
  8
0
 10
 1.58500000000000E+0003
 20
 1.54000000000000E+0003
 11
 1.58500000000000E+0003
 21
 6.00000000000000E+0001
  0
ARC
  8
0
 10
 1.54000000000000E+0003
 20
 6.00000000000000E+0001
 40
 4.50000000000000E+0001
 50
 2.70000000000000E+0002
 51
 3.60000000000000E+0002
  0
LINE
  8
0
 10
 1.54000000000000E+0003
 20
 1.50000000000000E+0001
 11
 6.00000000000000E+0001
 21
 1.50000000000000E+0001
  0
ARC
  8
0
 10
 6.00000000000000E+0001
 20
 6.00000000000000E+0001
 40
 2.50000000000000E+0001
 50
 1.80000000000000E+0002
 51
 2.70000000000000E+0002
  0
LINE
  8
0
 10
 3.50000000000000E+0001
 20
 6.00000000000000E+0001
 11
 3.50000000000000E+0001
 21
 1.54000000000000E+0003
  0
ARC
  8
0
 10
 6.00000000000000E+0001
 20
 1.54000000000000E+0003
 40
 2.50000000000000E+0001
 50
 9.00000000000000E+0001
 51
 1.80000000000000E+0002
  0
LINE
  8
0
 10
 6.00000000000000E+0001
 20
 1.56500000000000E+0003
 11
 1.54000000000000E+0003
 21
 1.56500000000000E+0003
  0
ARC
  8
0
 10
 1.54000000000000E+0003
 20
 1.54000000000000E+0003
 40
 2.50000000000000E+0001
 50
 0.00000000000000E+0000
 51
 9.00000000000000E+0001
  0
LINE
  8
0
 10
 1.56500000000000E+0003
 20
 1.54000000000000E+0003
 11
 1.56500000000000E+0003
 21
 6.00000000000000E+0001
  0
ARC
  8
0
 10
 1.54000000000000E+0003
 20
 6.00000000000000E+0001
 40
 2.50000000000000E+0001
 50
 2.70000000000000E+0002
 51
 3.60000000000000E+0002
  0
LINE
  8
0
 10
 1.54000000000000E+0003
 20
 3.50000000000000E+0001
 11
 6.00000000000000E+0001
 21
 3.50000000000000E+0001
  0
LINE
  8
0
 10
 4.55000000000000E+0002
 20
 1.26500000000000E+0003
 11
 4.54613610047500E+0002
 21
 1.25195630732330E+0003
  0
LINE
  8
0
 10
 4.54613610047500E+0002
 20
 1.25195630732330E+0003
 11
 4.54063520220000E+0002
 21
 1.23907949734640E+0003
  0
LINE
  8
0
 10
 4.54063520220000E+0002
 20
 1.23907949734640E+0003
 11
 4.53353063562500E+0002
 21
 1.22636618914910E+0003
  0
LINE
  8
0
 10
 4.53353063562500E+0002
 20
 1.22636618914910E+0003
 11
 4.52485573120000E+0002
 21
 1.21381300181120E+0003
  0
LINE
  8
0
 10
 4.52485573120000E+0002
 20
 1.21381300181120E+0003
 11
 4.51464381937500E+0002
 21
 1.20141655441250E+0003
  0
LINE
  8
0
 10
 4.51464381937500E+0002
 20
 1.20141655441250E+0003
 11
 4.50292823060000E+0002
 21
 1.18917346603280E+0003
  0
LINE
  8
0
 10
 4.50292823060000E+0002
 20
 1.18917346603280E+0003
 11
 4.48974229532500E+0002
 21
 1.17708035575190E+0003
  0
LINE
  8
0
 10
 4.48974229532500E+0002
 20
 1.17708035575190E+0003
 11
 4.47511934400000E+0002
 21
 1.16513384264960E+0003
  0
LINE
  8
0
 10
 4.47511934400000E+0002
 20
 1.16513384264960E+0003
 11
 4.45909270707500E+0002
 21
 1.15333054580570E+0003
  0
LINE
  8
0
 10
 4.45909270707500E+0002
 20
 1.15333054580570E+0003
 11
 4.44169571500000E+0002
 21
 1.14166708430000E+0003
  0
LINE
  8
0
 10
 4.44169571500000E+0002
 20
 1.14166708430000E+0003
 11
 4.42296169822500E+0002
 21
 1.13014007721230E+0003
  0
LINE
  8
0
 10
 4.42296169822500E+0002
 20
 1.13014007721230E+0003
 11
 4.40292398720000E+0002
 21
 1.11874614362240E+0003
  0
LINE
  8
0
 10
 4.40292398720000E+0002
 20
 1.11874614362240E+0003
 11
 4.38161591237500E+0002
 21
 1.10748190261010E+0003
  0
LINE
  8
0
 10
 4.38161591237500E+0002
 20
 1.10748190261010E+0003
 11
 4.35907080420000E+0002
 21
 1.09634397325520E+0003
  0
LINE
  8
0
 10
 4.35907080420000E+0002
 20
 1.09634397325520E+0003
 11
 4.33532199312500E+0002
 21
 1.08532897463750E+0003
  0
LINE
  8
0
 10
 4.33532199312500E+0002
 20
 1.08532897463750E+0003
 11
 4.31040280960000E+0002
 21
 1.07443352583680E+0003
  0
LINE
  8
0
 10
 4.31040280960000E+0002
 20
 1.07443352583680E+0003
 11
 4.28434658407500E+0002
 21
 1.06365424593290E+0003
  0
LINE
  8
0
 10
 4.28434658407500E+0002
 20
 1.06365424593290E+0003
 11
 4.25718664700000E+0002
 21
 1.05298775400560E+0003
  0
LINE
  8
0
 10
 4.25718664700000E+0002
 20
 1.05298775400560E+0003
 11
 4.22895632882500E+0002
 21
 1.04243066913470E+0003
  0
LINE
  8
0
 10
 4.22895632882500E+0002
 20
 1.04243066913470E+0003
 11
 4.19968896000000E+0002
 21
 1.03197961040000E+0003
  0
LINE
  8
0
 10
 4.19968896000000E+0002
 20
 1.03197961040000E+0003
 11
 4.16941787097500E+0002
 21
 1.02163119688130E+0003
  0
LINE
  8
0
 10
 4.16941787097500E+0002
 20
 1.02163119688130E+0003
 11
 4.13817639220000E+0002
 21
 1.01138204765840E+0003
  0
LINE
  8
0
 10
 4.13817639220000E+0002
 20
 1.01138204765840E+0003
 11
 4.10599785412500E+0002
 21
 1.00122878181110E+0003
  0
LINE
  8
0
 10
 4.10599785412500E+0002
 20
 1.00122878181110E+0003
 11
 4.07291558720000E+0002
 21
 9.91168018419200E+0002
  0
LINE
  8
0
 10
 4.07291558720000E+0002
 20
 9.91168018419200E+0002
 11
 4.03896292187500E+0002
 21
 9.81196376562500E+0002
  0
LINE
  8
0
 10
 4.03896292187500E+0002
 20
 9.81196376562500E+0002
 11
 4.00417318860000E+0002
 21
 9.71310475320800E+0002
  0
LINE
  8
0
 10
 4.00417318860000E+0002
 20
 9.71310475320800E+0002
 11
 3.96857971782500E+0002
 21
 9.61506933773900E+0002
  0
LINE
  8
0
 10
 3.96857971782500E+0002
 20
 9.61506933773900E+0002
 11
 3.93221584000000E+0002
 21
 9.51782371001600E+0002
  0
LINE
  8
0
 10
 3.93221584000000E+0002
 20
 9.51782371001600E+0002
 11
 3.89511488557500E+0002
 21
 9.42133406083700E+0002
  0
LINE
  8
0
 10
 3.89511488557500E+0002
 20
 9.42133406083700E+0002
 11
 3.85731018500000E+0002
 21
 9.32556658100000E+0002
  0
LINE
  8
0
 10
 3.85731018500000E+0002
 20
 9.32556658100000E+0002
 11
 3.81883506872500E+0002
 21
 9.23048746130300E+0002
  0
LINE
  8
0
 10
 3.81883506872500E+0002
 20
 9.23048746130300E+0002
 11
 3.77972286720000E+0002
 21
 9.13606289254400E+0002
  0
LINE
  8
0
 10
 3.77972286720000E+0002
 20
 9.13606289254400E+0002
 11
 3.74000691087500E+0002
 21
 9.04225906552100E+0002
  0
LINE
  8
0
 10
 3.74000691087500E+0002
 20
 9.04225906552100E+0002
 11
 3.69972053020000E+0002
 21
 8.94904217103200E+0002
  0
LINE
  8
0
 10
 3.69972053020000E+0002
 20
 8.94904217103200E+0002
 11
 3.65889705562500E+0002
 21
 8.85637839987500E+0002
  0
LINE
  8
0
 10
 3.65889705562500E+0002
 20
 8.85637839987500E+0002
 11
 3.61756981760000E+0002
 21
 8.76423394284800E+0002
  0
LINE
  8
0
 10
 3.61756981760000E+0002
 20
 8.76423394284800E+0002
 11
 3.57577214657500E+0002
 21
 8.67257499074900E+0002
  0
LINE
  8
0
 10
 3.57577214657500E+0002
 20
 8.67257499074900E+0002
 11
 3.53353737300000E+0002
 21
 8.58136773437600E+0002
  0
LINE
  8
0
 10
 3.53353737300000E+0002
 20
 8.58136773437600E+0002
 11
 3.49089882732500E+0002
 21
 8.49057836452700E+0002
  0
LINE
  8
0
 10
 3.49089882732500E+0002
 20
 8.49057836452700E+0002
 11
 3.44788984000000E+0002
 21
 8.40017307200000E+0002
  0
LINE
  8
0
 10
 3.44788984000000E+0002
 20
 8.40017307200000E+0002
 11
 3.40454374147500E+0002
 21
 8.31011804759300E+0002
  0
LINE
  8
0
 10
 3.40454374147500E+0002
 20
 8.31011804759300E+0002
 11
 3.36089386220000E+0002
 21
 8.22037948210400E+0002
  0
LINE
  8
0
 10
 3.36089386220000E+0002
 20
 8.22037948210400E+0002
 11
 3.31697353262500E+0002
 21
 8.13092356633100E+0002
  0
LINE
  8
0
 10
 3.31697353262500E+0002
 20
 8.13092356633100E+0002
 11
 3.27281608320000E+0002
 21
 8.04171649107200E+0002
  0
LINE
  8
0
 10
 3.27281608320000E+0002
 20
 8.04171649107200E+0002
 11
 3.22845484437500E+0002
 21
 7.95272444712500E+0002
  0
LINE
  8
0
 10
 3.22845484437500E+0002
 20
 7.95272444712500E+0002
 11
 3.18392314660000E+0002
 21
 7.86391362528800E+0002
  0
LINE
  8
0
 10
 3.18392314660000E+0002
 20
 7.86391362528800E+0002
 11
 3.13925432032500E+0002
 21
 7.77525021635900E+0002
  0
LINE
  8
0
 10
 3.13925432032500E+0002
 20
 7.77525021635900E+0002
 11
 3.09448169600000E+0002
 21
 7.68670041113600E+0002
  0
LINE
  8
0
 10
 3.09448169600000E+0002
 20
 7.68670041113600E+0002
 11
 3.04963860407500E+0002
 21
 7.59823040041700E+0002
  0
LINE
  8
0
 10
 3.04963860407500E+0002
 20
 7.59823040041700E+0002
 11
 3.00475837500000E+0002
 21
 7.50980637500000E+0002
  0
LINE
  8
0
 10
 3.00475837500000E+0002
 20
 7.50980637500000E+0002
 11
 2.95987433922500E+0002
 21
 7.42139452568300E+0002
  0
LINE
  8
0
 10
 2.95987433922500E+0002
 20
 7.42139452568300E+0002
 11
 2.91501982720000E+0002
 21
 7.33296104326400E+0002
  0
LINE
  8
0
 10
 2.91501982720000E+0002
 20
 7.33296104326400E+0002
 11
 2.87022816937500E+0002
 21
 7.24447211854100E+0002
  0
LINE
  8
0
 10
 2.87022816937500E+0002
 20
 7.24447211854100E+0002
 11
 2.82553269620000E+0002
 21
 7.15589394231200E+0002
  0
LINE
  8
0
 10
 2.82553269620000E+0002
 20
 7.15589394231200E+0002
 11
 2.78096673812500E+0002
 21
 7.06719270537500E+0002
  0
LINE
  8
0
 10
 2.78096673812500E+0002
 20
 7.06719270537500E+0002
 11
 2.73656362560000E+0002
 21
 6.97833459852800E+0002
  0
LINE
  8
0
 10
 2.73656362560000E+0002
 20
 6.97833459852800E+0002
 11
 2.69235668907500E+0002
 21
 6.88928581256900E+0002
  0
LINE
  8
0
 10
 2.69235668907500E+0002
 20
 6.88928581256900E+0002
 11
 2.64837925900000E+0002
 21
 6.80001253829600E+0002
  0
LINE
  8
0
 10
 2.64837925900000E+0002
 20
 6.80001253829600E+0002
 11
 2.60466466582500E+0002
 21
 6.71048096650700E+0002
  0
LINE
  8
0
 10
 2.60466466582500E+0002
 20
 6.71048096650700E+0002
 11
 2.56124624000000E+0002
 21
 6.62065728800000E+0002
  0
LINE
  8
0
 10
 2.56124624000000E+0002
 20
 6.62065728800000E+0002
 11
 2.51815731197500E+0002
 21
 6.53050769357300E+0002
  0
LINE
  8
0
 10
 2.51815731197500E+0002
 20
 6.53050769357300E+0002
 11
 2.47543121220000E+0002
 21
 6.43999837402400E+0002
  0
LINE
  8
0
 10
 2.47543121220000E+0002
 20
 6.43999837402400E+0002
 11
 2.43310127112500E+0002
 21
 6.34909552015100E+0002
  0
LINE
  8
0
 10
 2.43310127112500E+0002
 20
 6.34909552015100E+0002
 11
 2.39120081920000E+0002
 21
 6.25776532275200E+0002
  0
LINE
  8
0
 10
 2.39120081920000E+0002
 20
 6.25776532275200E+0002
 11
 2.34976318687500E+0002
 21
 6.16597397262500E+0002
  0
LINE
  8
0
 10
 2.34976318687500E+0002
 20
 6.16597397262500E+0002
 11
 2.30882170460000E+0002
 21
 6.07368766056800E+0002
  0
LINE
  8
0
 10
 2.30882170460000E+0002
 20
 6.07368766056800E+0002
 11
 2.26840970282500E+0002
 21
 5.98087257737900E+0002
  0
LINE
  8
0
 10
 2.26840970282500E+0002
 20
 5.98087257737900E+0002
 11
 2.22856051200000E+0002
 21
 5.88749491385600E+0002
  0
LINE
  8
0
 10
 2.22856051200000E+0002
 20
 5.88749491385600E+0002
 11
 2.18930746257500E+0002
 21
 5.79352086079700E+0002
  0
LINE
  8
0
 10
 2.18930746257500E+0002
 20
 5.79352086079700E+0002
 11
 2.15068388500000E+0002
 21
 5.69891660900000E+0002
  0
LINE
  8
0
 10
 2.15068388500000E+0002
 20
 5.69891660900000E+0002
 11
 2.11272310972500E+0002
 21
 5.60364834926300E+0002
  0
LINE
  8
0
 10
 2.11272310972500E+0002
 20
 5.60364834926300E+0002
 11
 2.07545846720000E+0002
 21
 5.50768227238400E+0002
  0
LINE
  8
0
 10
 2.07545846720000E+0002
 20
 5.50768227238400E+0002
 11
 2.03892328787500E+0002
 21
 5.41098456916100E+0002
  0
LINE
  8
0
 10
 2.03892328787500E+0002
 20
 5.41098456916100E+0002
 11
 2.00315090220000E+0002
 21
 5.31352143039200E+0002
  0
LINE
  8
0
 10
 2.00315090220000E+0002
 20
 5.31352143039200E+0002
 11
 1.96817464062500E+0002
 21
 5.21525904687500E+0002
  0
LINE
  8
0
 10
 1.96817464062500E+0002
 20
 5.21525904687500E+0002
 11
 1.93402783360000E+0002
 21
 5.11616360940800E+0002
  0
LINE
  8
0
 10
 1.93402783360000E+0002
 20
 5.11616360940800E+0002
 11
 1.90074381157500E+0002
 21
 5.01620130878900E+0002
  0
LINE
  8
0
 10
 1.90074381157500E+0002
 20
 5.01620130878900E+0002
 11
 1.86835590500000E+0002
 21
 4.91533833581600E+0002
  0
LINE
  8
0
 10
 1.86835590500000E+0002
 20
 4.91533833581600E+0002
 11
 1.83689744432500E+0002
 21
 4.81354088128700E+0002
  0
LINE
  8
0
 10
 1.83689744432500E+0002
 20
 4.81354088128700E+0002
 11
 1.80640176000000E+0002
 21
 4.71077513600000E+0002
  0
LINE
  8
0
 10
 1.80640176000000E+0002
 20
 4.71077513600000E+0002
 11
 1.77690218247500E+0002
 21
 4.60700729075300E+0002
  0
LINE
  8
0
 10
 1.77690218247500E+0002
 20
 4.60700729075300E+0002
 11
 1.74843204220000E+0002
 21
 4.50220353634400E+0002
  0
LINE
  8
0
 10
 1.74843204220000E+0002
 20
 4.50220353634400E+0002
 11
 1.72102466962500E+0002
 21
 4.39633006357100E+0002
  0
LINE
  8
0
 10
 1.72102466962500E+0002
 20
 4.39633006357100E+0002
 11
 1.69471339520000E+0002
 21
 4.28935306323200E+0002
  0
LINE
  8
0
 10
 1.69471339520000E+0002
 20
 4.28935306323200E+0002
 11
 1.66953154937500E+0002
 21
 4.18123872612500E+0002
  0
LINE
  8
0
 10
 1.66953154937500E+0002
 20
 4.18123872612500E+0002
 11
 1.64551246260000E+0002
 21
 4.07195324304800E+0002
  0
LINE
  8
0
 10
 1.64551246260000E+0002
 20
 4.07195324304800E+0002
 11
 1.62268946532500E+0002
 21
 3.96146280479900E+0002
  0
LINE
  8
0
 10
 1.62268946532500E+0002
 20
 3.96146280479900E+0002
 11
 1.60109588800000E+0002
 21
 3.84973360217600E+0002
  0
LINE
  8
0
 10
 1.60109588800000E+0002
 20
 3.84973360217600E+0002
 11
 1.58076506107500E+0002
 21
 3.73673182597700E+0002
  0
LINE
  8
0
 10
 1.58076506107500E+0002
 20
 3.73673182597700E+0002
 11
 1.56173031500000E+0002
 21
 3.62242366700000E+0002
  0
LINE
  8
0
 10
 1.56173031500000E+0002
 20
 3.62242366700000E+0002
 11
 1.54402498022500E+0002
 21
 3.50677531604300E+0002
  0
LINE
  8
0
 10
 1.54402498022500E+0002
 20
 3.50677531604300E+0002
 11
 1.52768238720000E+0002
 21
 3.38975296390400E+0002
  0
LINE
  8
0
 10
 1.52768238720000E+0002
 20
 3.38975296390400E+0002
 11
 1.51273586637500E+0002
 21
 3.27132280138100E+0002
  0
LINE
  8
0
 10
 1.51273586637500E+0002
 20
 3.27132280138100E+0002
 11
 1.49921874820000E+0002
 21
 3.15145101927200E+0002
  0
LINE
  8
0
 10
 1.49921874820000E+0002
 20
 3.15145101927200E+0002
 11
 1.48716436312500E+0002
 21
 3.03010380837500E+0002
  0
LINE
  8
0
 10
 1.48716436312500E+0002
 20
 3.03010380837500E+0002
 11
 1.47660604160000E+0002
 21
 2.90724735948800E+0002
  0
LINE
  8
0
 10
 1.47660604160000E+0002
 20
 2.90724735948800E+0002
 11
 1.46757711407500E+0002
 21
 2.78284786340900E+0002
  0
LINE
  8
0
 10
 1.46757711407500E+0002
 20
 2.78284786340900E+0002
 11
 1.46011091100000E+0002
 21
 2.65687151093600E+0002
  0
LINE
  8
0
 10
 1.46011091100000E+0002
 20
 2.65687151093600E+0002
 11
 1.45424076282500E+0002
 21
 2.52928449286700E+0002
  0
LINE
  8
0
 10
 1.45424076282500E+0002
 20
 2.52928449286700E+0002
 11
 1.45000000000000E+0002
 21
 2.40005300000000E+0002
  0
LINE
  8
0
 10
 1.45000000000000E+0002
 20
 2.40005300000000E+0002
 11
 1.45000000000000E+0002
 21
 1.55000000000000E+0002
  0
LINE
  8
0
 10
 1.45000000000000E+0002
 20
 1.55000000000000E+0002
 11
 2.05000000000000E+0002
 21
 1.55000000000000E+0002
  0
LINE
  8
0
 10
 2.05000000000000E+0002
 20
 1.55000000000000E+0002
 11
 2.05000000000000E+0002
 21
 2.40005300000000E+0002
  0
LINE
  8
0
 10
 2.05000000000000E+0002
 20
 2.40005300000000E+0002
 11
 2.05424029684100E+0002
 21
 2.52928449294400E+0002
  0
LINE
  8
0
 10
 2.05424029684100E+0002
 20
 2.52928449294400E+0002
 11
 2.06011000672800E+0002
 21
 2.65687151155200E+0002
  0
LINE
  8
0
 10
 2.06011000672800E+0002
 20
 2.65687151155200E+0002
 11
 2.06757579870700E+0002
 21
 2.78284786548800E+0002
  0
LINE
  8
0
 10
 2.06757579870700E+0002
 20
 2.78284786548800E+0002
 11
 2.07660434182400E+0002
 21
 2.90724736441600E+0002
  0
LINE
  8
0
 10
 2.07660434182400E+0002
 20
 2.90724736441600E+0002
 11
 2.08716230512500E+0002
 21
 3.03010381800000E+0002
  0
LINE
  8
0
 10
 2.08716230512500E+0002
 20
 3.03010381800000E+0002
 11
 2.09921635765600E+0002
 21
 3.15145103590400E+0002
  0
LINE
  8
0
 10
 2.09921635765600E+0002
 20
 3.15145103590400E+0002
 11
 2.11273316846300E+0002
 21
 3.27132282779200E+0002
  0
LINE
  8
0
 10
 2.11273316846300E+0002
 20
 3.27132282779200E+0002
 11
 2.12767940659200E+0002
 21
 3.38975300332800E+0002
  0
LINE
  8
0
 10
 2.12767940659200E+0002
 20
 3.38975300332800E+0002
 11
 2.14402174108900E+0002
 21
 3.50677537217600E+0002
  0
LINE
  8
0
 10
 2.14402174108900E+0002
 20
 3.50677537217600E+0002
 11
 2.16172684100000E+0002
 21
 3.62242374400000E+0002
  0
LINE
  8
0
 10
 2.16172684100000E+0002
 20
 3.62242374400000E+0002
 11
 2.18076137537100E+0002
 21
 3.73673192846400E+0002
  0
LINE
  8
0
 10
 2.18076137537100E+0002
 20
 3.73673192846400E+0002
 11
 2.20109201324800E+0002
 21
 3.84973373523200E+0002
  0
LINE
  8
0
 10
 2.20109201324800E+0002
 20
 3.84973373523200E+0002
 11
 2.22268542367700E+0002
 21
 3.96146297396800E+0002
  0
LINE
  8
0
 10
 2.22268542367700E+0002
 20
 3.96146297396800E+0002
 11
 2.24550827570400E+0002
 21
 4.07195345433600E+0002
  0
LINE
  8
0
 10
 2.24550827570400E+0002
 20
 4.07195345433600E+0002
 11
 2.26952723837500E+0002
 21
 4.18123898600000E+0002
  0
LINE
  8
0
 10
 2.26952723837500E+0002
 20
 4.18123898600000E+0002
 11
 2.29470898073600E+0002
 21
 4.28935337862400E+0002
  0
LINE
  8
0
 10
 2.29470898073600E+0002
 20
 4.28935337862400E+0002
 11
 2.32102017183300E+0002
 21
 4.39633044187200E+0002
  0
LINE
  8
0
 10
 2.32102017183300E+0002
 20
 4.39633044187200E+0002
 11
 2.34842748071200E+0002
 21
 4.50220398540800E+0002
  0
LINE
  8
0
 10
 2.34842748071200E+0002
 20
 4.50220398540800E+0002
 11
 2.37689757641900E+0002
 21
 4.60700781889600E+0002
  0
LINE
  8
0
 10
 2.37689757641900E+0002
 20
 4.60700781889600E+0002
 11
 2.40639712800000E+0002
 21
 4.71077575200000E+0002
  0
LINE
  8
0
 10
 2.40639712800000E+0002
 20
 4.71077575200000E+0002
 11
 2.43689280450100E+0002
 21
 4.81354159438400E+0002
  0
LINE
  8
0
 10
 2.43689280450100E+0002
 20
 4.81354159438400E+0002
 11
 2.46835127496800E+0002
 21
 4.91533915571200E+0002
  0
LINE
  8
0
 10
 2.46835127496800E+0002
 20
 4.91533915571200E+0002
 11
 2.50073920844700E+0002
 21
 5.01620224564800E+0002
  0
LINE
  8
0
 10
 2.50073920844700E+0002
 20
 5.01620224564800E+0002
 11
 2.53402327398400E+0002
 21
 5.11616467385600E+0002
  0
LINE
  8
0
 10
 2.53402327398400E+0002
 20
 5.11616467385600E+0002
 11
 2.56817014062500E+0002
 21
 5.21526025000000E+0002
  0
LINE
  8
0
 10
 2.56817014062500E+0002
 20
 5.21526025000000E+0002
 11
 2.60314647741600E+0002
 21
 5.31352278374400E+0002
  0
LINE
  8
0
 10
 2.60314647741600E+0002
 20
 5.31352278374400E+0002
 11
 2.63891895340300E+0002
 21
 5.41098608475200E+0002
  0
LINE
  8
0
 10
 2.63891895340300E+0002
 20
 5.41098608475200E+0002
 11
 2.67545423763200E+0002
 21
 5.50768396268800E+0002
  0
LINE
  8
0
 10
 2.67545423763200E+0002
 20
 5.50768396268800E+0002
 11
 2.71271899914900E+0002
 21
 5.60365022721600E+0002
  0
LINE
  8
0
 10
 2.71271899914900E+0002
 20
 5.60365022721600E+0002
 11
 2.75067990700000E+0002
 21
 5.69891868800000E+0002
  0
LINE
  8
0
 10
 2.75067990700000E+0002
 20
 5.69891868800000E+0002
 11
 2.78930363023100E+0002
 21
 5.79352315470400E+0002
  0
LINE
  8
0
 10
 2.78930363023100E+0002
 20
 5.79352315470400E+0002
 11
 2.82855683788800E+0002
 21
 5.88749743699200E+0002
  0
LINE
  8
0
 10
 2.82855683788800E+0002
 20
 5.88749743699200E+0002
 11
 2.86840619901700E+0002
 21
 5.98087534452800E+0002
  0
LINE
  8
0
 10
 2.86840619901700E+0002
 20
 5.98087534452800E+0002
 11
 2.90881838266400E+0002
 21
 6.07369068697600E+0002
  0
LINE
  8
0
 10
 2.90881838266400E+0002
 20
 6.07369068697600E+0002
 11
 2.94976005787500E+0002
 21
 6.16597727400000E+0002
  0
LINE
  8
0
 10
 2.94976005787500E+0002
 20
 6.16597727400000E+0002
 11
 2.99119789369600E+0002
 21
 6.25776891526400E+0002
  0
LINE
  8
0
 10
 2.99119789369600E+0002
 20
 6.25776891526400E+0002
 11
 3.03309855917300E+0002
 21
 6.34909942043200E+0002
  0
LINE
  8
0
 10
 3.03309855917300E+0002
 20
 6.34909942043200E+0002
 11
 3.07542872335200E+0002
 21
 6.44000259916800E+0002
  0
LINE
  8
0
 10
 3.07542872335200E+0002
 20
 6.44000259916800E+0002
 11
 3.11815505527900E+0002
 21
 6.53051226113600E+0002
  0
LINE
  8
0
 10
 3.11815505527900E+0002
 20
 6.53051226113600E+0002
 11
 3.16124422400000E+0002
 21
 6.62066221600000E+0002
  0
LINE
  8
0
 10
 3.16124422400000E+0002
 20
 6.62066221600000E+0002
 11
 3.20466289856100E+0002
 21
 6.71048627342400E+0002
  0
LINE
  8
0
 10
 3.20466289856100E+0002
 20
 6.71048627342400E+0002
 11
 3.24837774800800E+0002
 21
 6.80001824307200E+0002
  0
LINE
  8
0
 10
 3.24837774800800E+0002
 20
 6.80001824307200E+0002
 11
 3.29235544138700E+0002
 21
 6.88929193460800E+0002
  0
LINE
  8
0
 10
 3.29235544138700E+0002
 20
 6.88929193460800E+0002
 11
 3.33656264774400E+0002
 21
 6.97834115769600E+0002
  0
LINE
  8
0
 10
 3.33656264774400E+0002
 20
 6.97834115769600E+0002
 11
 3.38096603612500E+0002
 21
 7.06719972200000E+0002
  0
LINE
  8
0
 10
 3.38096603612500E+0002
 20
 7.06719972200000E+0002
 11
 3.42553227557600E+0002
 21
 7.15590143718400E+0002
  0
LINE
  8
0
 10
 3.42553227557600E+0002
 20
 7.15590143718400E+0002
 11
 3.47022803514300E+0002
 21
 7.24448011291200E+0002
  0
LINE
  8
0
 10
 3.47022803514300E+0002
 20
 7.24448011291200E+0002
 11
 3.51501998387200E+0002
 21
 7.33296955884800E+0002
  0
LINE
  8
0
 10
 3.51501998387200E+0002
 20
 7.33296955884800E+0002
 11
 3.55987479080900E+0002
 21
 7.42140358465600E+0002
  0
LINE
  8
0
 10
 3.55987479080900E+0002
 20
 7.42140358465600E+0002
 11
 3.60475912500000E+0002
 21
 7.50981600000000E+0002
  0
LINE
  8
0
 10
 3.60475912500000E+0002
 20
 7.50981600000000E+0002
 11
 3.64963965549100E+0002
 21
 7.59824061454400E+0002
  0
LINE
  8
0
 10
 3.64963965549100E+0002
 20
 7.59824061454400E+0002
 11
 3.69448305132800E+0002
 21
 7.68671123795200E+0002
  0
LINE
  8
0
 10
 3.69448305132800E+0002
 20
 7.68671123795200E+0002
 11
 3.73925598155700E+0002
 21
 7.77526167988800E+0002
  0
LINE
  8
0
 10
 3.73925598155700E+0002
 20
 7.77526167988800E+0002
 11
 3.78392511522400E+0002
 21
 7.86392575001600E+0002
  0
LINE
  8
0
 10
 3.78392511522400E+0002
 20
 7.86392575001600E+0002
 11
 3.82845712137500E+0002
 21
 7.95273725800000E+0002
  0
LINE
  8
0
 10
 3.82845712137500E+0002
 20
 7.95273725800000E+0002
 11
 3.87281866905600E+0002
 21
 8.04173001350400E+0002
  0
LINE
  8
0
 10
 3.87281866905600E+0002
 20
 8.04173001350400E+0002
 11
 3.91697642731300E+0002
 21
 8.13093782619200E+0002
  0
LINE
  8
0
 10
 3.91697642731300E+0002
 20
 8.13093782619200E+0002
 11
 3.96089706519200E+0002
 21
 8.22039450572800E+0002
  0
LINE
  8
0
 10
 3.96089706519200E+0002
 20
 8.22039450572800E+0002
 11
 4.00454725173900E+0002
 21
 8.31013386177600E+0002
  0
LINE
  8
0
 10
 4.00454725173900E+0002
 20
 8.31013386177600E+0002
 11
 4.04789365600000E+0002
 21
 8.40018970400000E+0002
  0
LINE
  8
0
 10
 4.04789365600000E+0002
 20
 8.40018970400000E+0002
 11
 4.09090294702100E+0002
 21
 8.49059584206400E+0002
  0
LINE
  8
0
 10
 4.09090294702100E+0002
 20
 8.49059584206400E+0002
 11
 4.13354179384800E+0002
 21
 8.58138608563200E+0002
  0
LINE
  8
0
 10
 4.13354179384800E+0002
 20
 8.58138608563200E+0002
 11
 4.17577686552700E+0002
 21
 8.67259424436800E+0002
  0
LINE
  8
0
 10
 4.17577686552700E+0002
 20
 8.67259424436800E+0002
 11
 4.21757483110400E+0002
 21
 8.76425412793600E+0002
  0
LINE
  8
0
 10
 4.21757483110400E+0002
 20
 8.76425412793600E+0002
 11
 4.25890235962500E+0002
 21
 8.85639954600000E+0002
  0
LINE
  8
0
 10
 4.25890235962500E+0002
 20
 8.85639954600000E+0002
 11
 4.29972612013600E+0002
 21
 8.94906430822400E+0002
  0
LINE
  8
0
 10
 4.29972612013600E+0002
 20
 8.94906430822400E+0002
 11
 4.34001278168300E+0002
 21
 9.04228222427200E+0002
  0
LINE
  8
0
 10
 4.34001278168300E+0002
 20
 9.04228222427200E+0002
 11
 4.37972901331200E+0002
 21
 9.13608710380800E+0002
  0
LINE
  8
0
 10
 4.37972901331200E+0002
 20
 9.13608710380800E+0002
 11
 4.41884148406900E+0002
 21
 9.23051275649600E+0002
  0
LINE
  8
0
 10
 4.41884148406900E+0002
 20
 9.23051275649600E+0002
 11
 4.45731686300000E+0002
 21
 9.32559299200000E+0002
  0
LINE
  8
0
 10
 4.45731686300000E+0002
 20
 9.32559299200000E+0002
 11
 4.49512181915100E+0002
 21
 9.42136161998400E+0002
  0
LINE
  8
0
 10
 4.49512181915100E+0002
 20
 9.42136161998400E+0002
 11
 4.53222302156800E+0002
 21
 9.51785245011200E+0002
  0
LINE
  8
0
 10
 4.53222302156800E+0002
 20
 9.51785245011200E+0002
 11
 4.56858713929700E+0002
 21
 9.61509929204800E+0002
  0
LINE
  8
0
 10
 4.56858713929700E+0002
 20
 9.61509929204800E+0002
 11
 4.60418084138400E+0002
 21
 9.71313595545600E+0002
  0
LINE
  8
0
 10
 4.60418084138400E+0002
 20
 9.71313595545600E+0002
 11
 4.63897079687500E+0002
 21
 9.81199625000000E+0002
  0
LINE
  8
0
 10
 4.63897079687500E+0002
 20
 9.81199625000000E+0002
 11
 4.67292367481600E+0002
 21
 9.91171398534400E+0002
  0
LINE
  8
0
 10
 4.67292367481600E+0002
 20
 9.91171398534400E+0002
 11
 4.70600614425300E+0002
 21
 1.00123229711520E+0003
  0
LINE
  8
0
 10
 4.70600614425300E+0002
 20
 1.00123229711520E+0003
 11
 4.73818487423200E+0002
 21
 1.01138570170880E+0003
  0
LINE
  8
0
 10
 4.73818487423200E+0002
 20
 1.01138570170880E+0003
 11
 4.76942653379900E+0002
 21
 1.02163499328160E+0003
  0
LINE
  8
0
 10
 4.76942653379900E+0002
 20
 1.02163499328160E+0003
 11
 4.79969779200000E+0002
 21
 1.03198355280000E+0003
  0
LINE
  8
0
 10
 4.79969779200000E+0002
 20
 1.03198355280000E+0003
 11
 4.82896531788100E+0002
 21
 1.04243476123040E+0003
  0
LINE
  8
0
 10
 4.82896531788100E+0002
 20
 1.04243476123040E+0003
 11
 4.85719578048800E+0002
 21
 1.05299199953920E+0003
  0
LINE
  8
0
 10
 4.85719578048800E+0002
 20
 1.05299199953920E+0003
 11
 4.88435584886700E+0002
 21
 1.06365864869280E+0003
  0
LINE
  8
0
 10
 4.88435584886700E+0002
 20
 1.06365864869280E+0003
 11
 4.91041219206400E+0002
 21
 1.07443808965760E+0003
  0
LINE
  8
0
 10
 4.91041219206400E+0002
 20
 1.07443808965760E+0003
 11
 4.93533147912500E+0002
 21
 1.08533370340000E+0003
  0
LINE
  8
0
 10
 4.93533147912500E+0002
 20
 1.08533370340000E+0003
 11
 4.95908037909600E+0002
 21
 1.09634887088640E+0003
  0
LINE
  8
0
 10
 4.95908037909600E+0002
 20
 1.09634887088640E+0003
 11
 4.98162556102300E+0002
 21
 1.10748697308320E+0003
  0
LINE
  8
0
 10
 4.98162556102300E+0002
 20
 1.10748697308320E+0003
 11
 5.00293369395200E+0002
 21
 1.11875139095680E+0003
  0
LINE
  8
0
 10
 5.00293369395200E+0002
 20
 1.11875139095680E+0003
 11
 5.02297144692900E+0002
 21
 1.13014550547360E+0003
  0
LINE
  8
0
 10
 5.02297144692900E+0002
 20
 1.13014550547360E+0003
 11
 5.04170548900000E+0002
 21
 1.14167269760000E+0003
  0
LINE
  8
0
 10
 5.04170548900000E+0002
 20
 1.14167269760000E+0003
 11
 5.05910248921100E+0002
 21
 1.15333634830240E+0003
  0
LINE
  8
0
 10
 5.05910248921100E+0002
 20
 1.15333634830240E+0003
 11
 5.07512911660800E+0002
 21
 1.16513983854720E+0003
  0
LINE
  8
0
 10
 5.07512911660800E+0002
 20
 1.16513983854720E+0003
 11
 5.08975204023700E+0002
 21
 1.17708654930080E+0003
  0
LINE
  8
0
 10
 5.08975204023700E+0002
 20
 1.17708654930080E+0003
 11
 5.10293792914400E+0002
 21
 1.18917986152960E+0003
  0
LINE
  8
0
 10
 5.10293792914400E+0002
 20
 1.18917986152960E+0003
 11
 5.11465345237500E+0002
 21
 1.20142315620000E+0003
  0
LINE
  8
0
 10
 5.11465345237500E+0002
 20
 1.20142315620000E+0003
 11
 5.12486527897600E+0002
 21
 1.21381981427840E+0003
  0
LINE
  8
0
 10
 5.12486527897600E+0002
 20
 1.21381981427840E+0003
 11
 5.13354007799300E+0002
 21
 1.22637321673120E+0003
  0
LINE
  8
0
 10
 5.13354007799300E+0002
 20
 1.22637321673120E+0003
 11
 5.14064451847200E+0002
 21
 1.23908674452480E+0003
  0
LINE
  8
0
 10
 5.14064451847200E+0002
 20
 1.23908674452480E+0003
 11
 5.14614526945900E+0002
 21
 1.25196377862560E+0003
  0
LINE
  8
0
 10
 5.14614526945900E+0002
 20
 1.25196377862560E+0003
 11
 5.15000900000000E+0002
 21
 1.26500770000000E+0003
  0
LINE
  8
0
 10
 5.15000900000000E+0002
 20
 1.26500770000000E+0003
 11
 5.15000000000000E+0002
 21
 1.30700000000000E+0003
  0
LINE
  8
0
 10
 5.15000000000000E+0002
 20
 1.30700000000000E+0003
 11
 5.60000509446390E+0002
 21
 1.29538091843480E+0003
  0
ARC
  8
0
 10
 5.63000000000000E+0002
 20
 1.30700000000000E+0003
 40
 1.20000000000000E+0001
 50
 2.55525000000000E+0002
 51
 3.93805000000000E+0002
  0
LINE
  8
0
 10
 5.72971231041916E+0002
 20
 1.31367641756549E+0003
 11
 4.85000000000000E+0002
 21
 1.44500000000000E+0003
  0
LINE
  8
0
 10
 4.85000000000000E+0002
 20
 1.44500000000000E+0003
 11
 3.97028768958084E+0002
 21
 1.31367641756549E+0003
  0
ARC
  8
0
 10
 4.07000000000000E+0002
 20
 1.30700000000000E+0003
 40
 1.20000000000000E+0001
 50
 1.46195000000000E+0002
 51
 2.84475000000000E+0002
  0
LINE
  8
0
 10
 4.09999490553610E+0002
 20
 1.29538091843480E+0003
 11
 4.55000000000000E+0002
 21
 1.30700000000000E+0003
  0
LINE
  8
0
 10
 4.55000000000000E+0002
 20
 1.30700000000000E+0003
 11
 4.55000000000000E+0002
 21
 1.26500000000000E+0003
  0
LINE
  8
0
 10
 7.25000000000000E+0002
 20
 1.26500000000000E+0003
 11
 7.25386389952500E+0002
 21
 1.25195630732330E+0003
  0
LINE
  8
0
 10
 7.25386389952500E+0002
 20
 1.25195630732330E+0003
 11
 7.25936479780000E+0002
 21
 1.23907949734640E+0003
  0
LINE
  8
0
 10
 7.25936479780000E+0002
 20
 1.23907949734640E+0003
 11
 7.26646936437500E+0002
 21
 1.22636618914910E+0003
  0
LINE
  8
0
 10
 7.26646936437500E+0002
 20
 1.22636618914910E+0003
 11
 7.27514426880000E+0002
 21
 1.21381300181120E+0003
  0
LINE
  8
0
 10
 7.27514426880000E+0002
 20
 1.21381300181120E+0003
 11
 7.28535618062500E+0002
 21
 1.20141655441250E+0003
  0
LINE
  8
0
 10
 7.28535618062500E+0002
 20
 1.20141655441250E+0003
 11
 7.29707176940000E+0002
 21
 1.18917346603280E+0003
  0
LINE
  8
0
 10
 7.29707176940000E+0002
 20
 1.18917346603280E+0003
 11
 7.31025770467500E+0002
 21
 1.17708035575190E+0003
  0
LINE
  8
0
 10
 7.31025770467500E+0002
 20
 1.17708035575190E+0003
 11
 7.32488065600000E+0002
 21
 1.16513384264960E+0003
  0
LINE
  8
0
 10
 7.32488065600000E+0002
 20
 1.16513384264960E+0003
 11
 7.34090729292500E+0002
 21
 1.15333054580570E+0003
  0
LINE
  8
0
 10
 7.34090729292500E+0002
 20
 1.15333054580570E+0003
 11
 7.35830428500000E+0002
 21
 1.14166708430000E+0003
  0
LINE
  8
0
 10
 7.35830428500000E+0002
 20
 1.14166708430000E+0003
 11
 7.37703830177500E+0002
 21
 1.13014007721230E+0003
  0
LINE
  8
0
 10
 7.37703830177500E+0002
 20
 1.13014007721230E+0003
 11
 7.39707601280000E+0002
 21
 1.11874614362240E+0003
  0
LINE
  8
0
 10
 7.39707601280000E+0002
 20
 1.11874614362240E+0003
 11
 7.41838408762500E+0002
 21
 1.10748190261010E+0003
  0
LINE
  8
0
 10
 7.41838408762500E+0002
 20
 1.10748190261010E+0003
 11
 7.44092919580000E+0002
 21
 1.09634397325520E+0003
  0
LINE
  8
0
 10
 7.44092919580000E+0002
 20
 1.09634397325520E+0003
 11
 7.46467800687500E+0002
 21
 1.08532897463750E+0003
  0
LINE
  8
0
 10
 7.46467800687500E+0002
 20
 1.08532897463750E+0003
 11
 7.48959719040000E+0002
 21
 1.07443352583680E+0003
  0
LINE
  8
0
 10
 7.48959719040000E+0002
 20
 1.07443352583680E+0003
 11
 7.51565341592500E+0002
 21
 1.06365424593290E+0003
  0
LINE
  8
0
 10
 7.51565341592500E+0002
 20
 1.06365424593290E+0003
 11
 7.54281335300000E+0002
 21
 1.05298775400560E+0003
  0
LINE
  8
0
 10
 7.54281335300000E+0002
 20
 1.05298775400560E+0003
 11
 7.57104367117500E+0002
 21
 1.04243066913470E+0003
  0
LINE
  8
0
 10
 7.57104367117500E+0002
 20
 1.04243066913470E+0003
 11
 7.60031104000000E+0002
 21
 1.03197961040000E+0003
  0
LINE
  8
0
 10
 7.60031104000000E+0002
 20
 1.03197961040000E+0003
 11
 7.63058212902500E+0002
 21
 1.02163119688130E+0003
  0
LINE
  8
0
 10
 7.63058212902500E+0002
 20
 1.02163119688130E+0003
 11
 7.66182360780000E+0002
 21
 1.01138204765840E+0003
  0
LINE
  8
0
 10
 7.66182360780000E+0002
 20
 1.01138204765840E+0003
 11
 7.69400214587500E+0002
 21
 1.00122878181110E+0003
  0
LINE
  8
0
 10
 7.69400214587500E+0002
 20
 1.00122878181110E+0003
 11
 7.72708441280000E+0002
 21
 9.91168018419200E+0002
  0
LINE
  8
0
 10
 7.72708441280000E+0002
 20
 9.91168018419200E+0002
 11
 7.76103707812500E+0002
 21
 9.81196376562500E+0002
  0
LINE
  8
0
 10
 7.76103707812500E+0002
 20
 9.81196376562500E+0002
 11
 7.79582681140000E+0002
 21
 9.71310475320800E+0002
  0
LINE
  8
0
 10
 7.79582681140000E+0002
 20
 9.71310475320800E+0002
 11
 7.83142028217500E+0002
 21
 9.61506933773900E+0002
  0
LINE
  8
0
 10
 7.83142028217500E+0002
 20
 9.61506933773900E+0002
 11
 7.86778416000000E+0002
 21
 9.51782371001600E+0002
  0
LINE
  8
0
 10
 7.86778416000000E+0002
 20
 9.51782371001600E+0002
 11
 7.90488511442500E+0002
 21
 9.42133406083700E+0002
  0
LINE
  8
0
 10
 7.90488511442500E+0002
 20
 9.42133406083700E+0002
 11
 7.94268981500000E+0002
 21
 9.32556658100000E+0002
  0
LINE
  8
0
 10
 7.94268981500000E+0002
 20
 9.32556658100000E+0002
 11
 7.98116493127500E+0002
 21
 9.23048746130300E+0002
  0
LINE
  8
0
 10
 7.98116493127500E+0002
 20
 9.23048746130300E+0002
 11
 8.02027713280000E+0002
 21
 9.13606289254400E+0002
  0
LINE
  8
0
 10
 8.02027713280000E+0002
 20
 9.13606289254400E+0002
 11
 8.05999308912500E+0002
 21
 9.04225906552100E+0002
  0
LINE
  8
0
 10
 8.05999308912500E+0002
 20
 9.04225906552100E+0002
 11
 8.10027946980000E+0002
 21
 8.94904217103200E+0002
  0
LINE
  8
0
 10
 8.10027946980000E+0002
 20
 8.94904217103200E+0002
 11
 8.14110294437500E+0002
 21
 8.85637839987500E+0002
  0
LINE
  8
0
 10
 8.14110294437500E+0002
 20
 8.85637839987500E+0002
 11
 8.18243018240000E+0002
 21
 8.76423394284800E+0002
  0
LINE
  8
0
 10
 8.18243018240000E+0002
 20
 8.76423394284800E+0002
 11
 8.22422785342500E+0002
 21
 8.67257499074900E+0002
  0
LINE
  8
0
 10
 8.22422785342500E+0002
 20
 8.67257499074900E+0002
 11
 8.26646262700000E+0002
 21
 8.58136773437600E+0002
  0
LINE
  8
0
 10
 8.26646262700000E+0002
 20
 8.58136773437600E+0002
 11
 8.30910117267500E+0002
 21
 8.49057836452700E+0002
  0
LINE
  8
0
 10
 8.30910117267500E+0002
 20
 8.49057836452700E+0002
 11
 8.35211016000000E+0002
 21
 8.40017307200000E+0002
  0
LINE
  8
0
 10
 8.35211016000000E+0002
 20
 8.40017307200000E+0002
 11
 8.39545625852500E+0002
 21
 8.31011804759300E+0002
  0
LINE
  8
0
 10
 8.39545625852500E+0002
 20
 8.31011804759300E+0002
 11
 8.43910613780000E+0002
 21
 8.22037948210400E+0002
  0
LINE
  8
0
 10
 8.43910613780000E+0002
 20
 8.22037948210400E+0002
 11
 8.48302646737500E+0002
 21
 8.13092356633100E+0002
  0
LINE
  8
0
 10
 8.48302646737500E+0002
 20
 8.13092356633100E+0002
 11
 8.52718391680000E+0002
 21
 8.04171649107200E+0002
  0
LINE
  8
0
 10
 8.52718391680000E+0002
 20
 8.04171649107200E+0002
 11
 8.57154515562500E+0002
 21
 7.95272444712500E+0002
  0
LINE
  8
0
 10
 8.57154515562500E+0002
 20
 7.95272444712500E+0002
 11
 8.61607685340000E+0002
 21
 7.86391362528800E+0002
  0
LINE
  8
0
 10
 8.61607685340000E+0002
 20
 7.86391362528800E+0002
 11
 8.66074567967500E+0002
 21
 7.77525021635900E+0002
  0
LINE
  8
0
 10
 8.66074567967500E+0002
 20
 7.77525021635900E+0002
 11
 8.70551830400000E+0002
 21
 7.68670041113600E+0002
  0
LINE
  8
0
 10
 8.70551830400000E+0002
 20
 7.68670041113600E+0002
 11
 8.75036139592500E+0002
 21
 7.59823040041700E+0002
  0
LINE
  8
0
 10
 8.75036139592500E+0002
 20
 7.59823040041700E+0002
 11
 8.79524162500000E+0002
 21
 7.50980637500000E+0002
  0
LINE
  8
0
 10
 8.79524162500000E+0002
 20
 7.50980637500000E+0002
 11
 8.84012566077500E+0002
 21
 7.42139452568300E+0002
  0
LINE
  8
0
 10
 8.84012566077500E+0002
 20
 7.42139452568300E+0002
 11
 8.88498017280000E+0002
 21
 7.33296104326400E+0002
  0
LINE
  8
0
 10
 8.88498017280000E+0002
 20
 7.33296104326400E+0002
 11
 8.92977183062500E+0002
 21
 7.24447211854100E+0002
  0
LINE
  8
0
 10
 8.92977183062500E+0002
 20
 7.24447211854100E+0002
 11
 8.97446730380000E+0002
 21
 7.15589394231200E+0002
  0
LINE
  8
0
 10
 8.97446730380000E+0002
 20
 7.15589394231200E+0002
 11
 9.01903326187500E+0002
 21
 7.06719270537500E+0002
  0
LINE
  8
0
 10
 9.01903326187500E+0002
 20
 7.06719270537500E+0002
 11
 9.06343637440000E+0002
 21
 6.97833459852800E+0002
  0
LINE
  8
0
 10
 9.06343637440000E+0002
 20
 6.97833459852800E+0002
 11
 9.10764331092500E+0002
 21
 6.88928581256900E+0002
  0
LINE
  8
0
 10
 9.10764331092500E+0002
 20
 6.88928581256900E+0002
 11
 9.15162074100000E+0002
 21
 6.80001253829600E+0002
  0
LINE
  8
0
 10
 9.15162074100000E+0002
 20
 6.80001253829600E+0002
 11
 9.19533533417500E+0002
 21
 6.71048096650700E+0002
  0
LINE
  8
0
 10
 9.19533533417500E+0002
 20
 6.71048096650700E+0002
 11
 9.23875376000000E+0002
 21
 6.62065728800000E+0002
  0
LINE
  8
0
 10
 9.23875376000000E+0002
 20
 6.62065728800000E+0002
 11
 9.28184268802500E+0002
 21
 6.53050769357300E+0002
  0
LINE
  8
0
 10
 9.28184268802500E+0002
 20
 6.53050769357300E+0002
 11
 9.32456878780000E+0002
 21
 6.43999837402400E+0002
  0
LINE
  8
0
 10
 9.32456878780000E+0002
 20
 6.43999837402400E+0002
 11
 9.36689872887500E+0002
 21
 6.34909552015100E+0002
  0
LINE
  8
0
 10
 9.36689872887500E+0002
 20
 6.34909552015100E+0002
 11
 9.40879918080000E+0002
 21
 6.25776532275200E+0002
  0
LINE
  8
0
 10
 9.40879918080000E+0002
 20
 6.25776532275200E+0002
 11
 9.45023681312500E+0002
 21
 6.16597397262500E+0002
  0
LINE
  8
0
 10
 9.45023681312500E+0002
 20
 6.16597397262500E+0002
 11
 9.49117829540000E+0002
 21
 6.07368766056800E+0002
  0
LINE
  8
0
 10
 9.49117829540000E+0002
 20
 6.07368766056800E+0002
 11
 9.53159029717500E+0002
 21
 5.98087257737900E+0002
  0
LINE
  8
0
 10
 9.53159029717500E+0002
 20
 5.98087257737900E+0002
 11
 9.57143948800000E+0002
 21
 5.88749491385600E+0002
  0
LINE
  8
0
 10
 9.57143948800000E+0002
 20
 5.88749491385600E+0002
 11
 9.61069253742500E+0002
 21
 5.79352086079700E+0002
  0
LINE
  8
0
 10
 9.61069253742500E+0002
 20
 5.79352086079700E+0002
 11
 9.64931611500000E+0002
 21
 5.69891660900000E+0002
  0
LINE
  8
0
 10
 9.64931611500000E+0002
 20
 5.69891660900000E+0002
 11
 9.68727689027500E+0002
 21
 5.60364834926300E+0002
  0
LINE
  8
0
 10
 9.68727689027500E+0002
 20
 5.60364834926300E+0002
 11
 9.72454153280000E+0002
 21
 5.50768227238400E+0002
  0
LINE
  8
0
 10
 9.72454153280000E+0002
 20
 5.50768227238400E+0002
 11
 9.76107671212500E+0002
 21
 5.41098456916100E+0002
  0
LINE
  8
0
 10
 9.76107671212500E+0002
 20
 5.41098456916100E+0002
 11
 9.79684909780000E+0002
 21
 5.31352143039200E+0002
  0
LINE
  8
0
 10
 9.79684909780000E+0002
 20
 5.31352143039200E+0002
 11
 9.83182535937500E+0002
 21
 5.21525904687500E+0002
  0
LINE
  8
0
 10
 9.83182535937500E+0002
 20
 5.21525904687500E+0002
 11
 9.86597216640000E+0002
 21
 5.11616360940800E+0002
  0
LINE
  8
0
 10
 9.86597216640000E+0002
 20
 5.11616360940800E+0002
 11
 9.89925618842500E+0002
 21
 5.01620130878900E+0002
  0
LINE
  8
0
 10
 9.89925618842500E+0002
 20
 5.01620130878900E+0002
 11
 9.93164409500000E+0002
 21
 4.91533833581600E+0002
  0
LINE
  8
0
 10
 9.93164409500000E+0002
 20
 4.91533833581600E+0002
 11
 9.96310255567500E+0002
 21
 4.81354088128700E+0002
  0
LINE
  8
0
 10
 9.96310255567500E+0002
 20
 4.81354088128700E+0002
 11
 9.99359824000000E+0002
 21
 4.71077513600000E+0002
  0
LINE
  8
0
 10
 9.99359824000000E+0002
 20
 4.71077513600000E+0002
 11
 1.00230978175250E+0003
 21
 4.60700729075300E+0002
  0
LINE
  8
0
 10
 1.00230978175250E+0003
 20
 4.60700729075300E+0002
 11
 1.00515679578000E+0003
 21
 4.50220353634400E+0002
  0
LINE
  8
0
 10
 1.00515679578000E+0003
 20
 4.50220353634400E+0002
 11
 1.00789753303750E+0003
 21
 4.39633006357100E+0002
  0
LINE
  8
0
 10
 1.00789753303750E+0003
 20
 4.39633006357100E+0002
 11
 1.01052866048000E+0003
 21
 4.28935306323200E+0002
  0
LINE
  8
0
 10
 1.01052866048000E+0003
 20
 4.28935306323200E+0002
 11
 1.01304684506250E+0003
 21
 4.18123872612500E+0002
  0
LINE
  8
0
 10
 1.01304684506250E+0003
 20
 4.18123872612500E+0002
 11
 1.01544875374000E+0003
 21
 4.07195324304800E+0002
  0
LINE
  8
0
 10
 1.01544875374000E+0003
 20
 4.07195324304800E+0002
 11
 1.01773105346750E+0003
 21
 3.96146280479900E+0002
  0
LINE
  8
0
 10
 1.01773105346750E+0003
 20
 3.96146280479900E+0002
 11
 1.01989041120000E+0003
 21
 3.84973360217600E+0002
  0
LINE
  8
0
 10
 1.01989041120000E+0003
 20
 3.84973360217600E+0002
 11
 1.02192349389250E+0003
 21
 3.73673182597700E+0002
  0
LINE
  8
0
 10
 1.02192349389250E+0003
 20
 3.73673182597700E+0002
 11
 1.02382696850000E+0003
 21
 3.62242366700000E+0002
  0
LINE
  8
0
 10
 1.02382696850000E+0003
 20
 3.62242366700000E+0002
 11
 1.02559750197750E+0003
 21
 3.50677531604300E+0002
  0
LINE
  8
0
 10
 1.02559750197750E+0003
 20
 3.50677531604300E+0002
 11
 1.02723176128000E+0003
 21
 3.38975296390400E+0002
  0
LINE
  8
0
 10
 1.02723176128000E+0003
 20
 3.38975296390400E+0002
 11
 1.02872641336250E+0003
 21
 3.27132280138100E+0002
  0
LINE
  8
0
 10
 1.02872641336250E+0003
 20
 3.27132280138100E+0002
 11
 1.03007812518000E+0003
 21
 3.15145101927200E+0002
  0
LINE
  8
0
 10
 1.03007812518000E+0003
 20
 3.15145101927200E+0002
 11
 1.03128356368750E+0003
 21
 3.03010380837500E+0002
  0
LINE
  8
0
 10
 1.03128356368750E+0003
 20
 3.03010380837500E+0002
 11
 1.03233939584000E+0003
 21
 2.90724735948800E+0002
  0
LINE
  8
0
 10
 1.03233939584000E+0003
 20
 2.90724735948800E+0002
 11
 1.03324228859250E+0003
 21
 2.78284786340900E+0002
  0
LINE
  8
0
 10
 1.03324228859250E+0003
 20
 2.78284786340900E+0002
 11
 1.03398890890000E+0003
 21
 2.65687151093600E+0002
  0
LINE
  8
0
 10
 1.03398890890000E+0003
 20
 2.65687151093600E+0002
 11
 1.03457592371750E+0003
 21
 2.52928449286700E+0002
  0
LINE
  8
0
 10
 1.03457592371750E+0003
 20
 2.52928449286700E+0002
 11
 1.03500000000000E+0003
 21
 2.40005300000000E+0002
  0
LINE
  8
0
 10
 1.03500000000000E+0003
 20
 2.40005300000000E+0002
 11
 1.03500000000000E+0003
 21
 1.55000000000000E+0002
  0
LINE
  8
0
 10
 1.03500000000000E+0003
 20
 1.55000000000000E+0002
 11
 9.75000000000000E+0002
 21
 1.55000000000000E+0002
  0
LINE
  8
0
 10
 9.75000000000000E+0002
 20
 1.55000000000000E+0002
 11
 9.74999800000000E+0002
 21
 2.40005300000000E+0002
  0
LINE
  8
0
 10
 9.74999800000000E+0002
 20
 2.40005300000000E+0002
 11
 9.74575776256100E+0002
 21
 2.52928449294400E+0002
  0
LINE
  8
0
 10
 9.74575776256100E+0002
 20
 2.52928449294400E+0002
 11
 9.73988811088800E+0002
 21
 2.65687151155200E+0002
  0
LINE
  8
0
 10
 9.73988811088800E+0002
 20
 2.65687151155200E+0002
 11
 9.73242237594700E+0002
 21
 2.78284786548800E+0002
  0
LINE
  8
0
 10
 9.73242237594700E+0002
 20
 2.78284786548800E+0002
 11
 9.72339388870400E+0002
 21
 2.90724736441600E+0002
  0
LINE
  8
0
 10
 9.72339388870400E+0002
 20
 2.90724736441600E+0002
 11
 9.71283598012500E+0002
 21
 3.03010381800000E+0002
  0
LINE
  8
0
 10
 9.71283598012500E+0002
 20
 3.03010381800000E+0002
 11
 9.70078198117600E+0002
 21
 3.15145103590400E+0002
  0
LINE
  8
0
 10
 9.70078198117600E+0002
 20
 3.15145103590400E+0002
 11
 9.68726522282300E+0002
 21
 3.27132282779200E+0002
  0
LINE
  8
0
 10
 9.68726522282300E+0002
 20
 3.27132282779200E+0002
 11
 9.67231903603200E+0002
 21
 3.38975300332800E+0002
  0
LINE
  8
0
 10
 9.67231903603200E+0002
 20
 3.38975300332800E+0002
 11
 9.65597675176900E+0002
 21
 3.50677537217600E+0002
  0
LINE
  8
0
 10
 9.65597675176900E+0002
 20
 3.50677537217600E+0002
 11
 9.63827170100000E+0002
 21
 3.62242374400000E+0002
  0
LINE
  8
0
 10
 9.63827170100000E+0002
 20
 3.62242374400000E+0002
 11
 9.61923721469100E+0002
 21
 3.73673192846400E+0002
  0
LINE
  8
0
 10
 9.61923721469100E+0002
 20
 3.73673192846400E+0002
 11
 9.59890662380800E+0002
 21
 3.84973373523200E+0002
  0
LINE
  8
0
 10
 9.59890662380800E+0002
 20
 3.84973373523200E+0002
 11
 9.57731325931700E+0002
 21
 3.96146297396800E+0002
  0
LINE
  8
0
 10
 9.57731325931700E+0002
 20
 3.96146297396800E+0002
 11
 9.55449045218400E+0002
 21
 4.07195345433600E+0002
  0
LINE
  8
0
 10
 9.55449045218400E+0002
 20
 4.07195345433600E+0002
 11
 9.53047153337500E+0002
 21
 4.18123898600000E+0002
  0
LINE
  8
0
 10
 9.53047153337500E+0002
 20
 4.18123898600000E+0002
 11
 9.50528983385600E+0002
 21
 4.28935337862400E+0002
  0
LINE
  8
0
 10
 9.50528983385600E+0002
 20
 4.28935337862400E+0002
 11
 9.47897868459300E+0002
 21
 4.39633044187200E+0002
  0
LINE
  8
0
 10
 9.47897868459300E+0002
 20
 4.39633044187200E+0002
 11
 9.45157141655200E+0002
 21
 4.50220398540800E+0002
  0
LINE
  8
0
 10
 9.45157141655200E+0002
 20
 4.50220398540800E+0002
 11
 9.42310136069900E+0002
 21
 4.60700781889600E+0002
  0
LINE
  8
0
 10
 9.42310136069900E+0002
 20
 4.60700781889600E+0002
 11
 9.39360184800000E+0002
 21
 4.71077575200000E+0002
  0
LINE
  8
0
 10
 9.39360184800000E+0002
 20
 4.71077575200000E+0002
 11
 9.36310620942100E+0002
 21
 4.81354159438400E+0002
  0
LINE
  8
0
 10
 9.36310620942100E+0002
 20
 4.81354159438400E+0002
 11
 9.33164777592800E+0002
 21
 4.91533915571200E+0002
  0
LINE
  8
0
 10
 9.33164777592800E+0002
 20
 4.91533915571200E+0002
 11
 9.29925987848700E+0002
 21
 5.01620224564800E+0002
  0
LINE
  8
0
 10
 9.29925987848700E+0002
 20
 5.01620224564800E+0002
 11
 9.26597584806400E+0002
 21
 5.11616467385600E+0002
  0
LINE
  8
0
 10
 9.26597584806400E+0002
 20
 5.11616467385600E+0002
 11
 9.23182901562500E+0002
 21
 5.21526025000000E+0002
  0
LINE
  8
0
 10
 9.23182901562500E+0002
 20
 5.21526025000000E+0002
 11
 9.19685271213600E+0002
 21
 5.31352278374400E+0002
  0
LINE
  8
0
 10
 9.19685271213600E+0002
 20
 5.31352278374400E+0002
 11
 9.16108026856300E+0002
 21
 5.41098608475200E+0002
  0
LINE
  8
0
 10
 9.16108026856300E+0002
 20
 5.41098608475200E+0002
 11
 9.12454501587200E+0002
 21
 5.50768396268800E+0002
  0
LINE
  8
0
 10
 9.12454501587200E+0002
 20
 5.50768396268800E+0002
 11
 9.08728028502900E+0002
 21
 5.60365022721600E+0002
  0
LINE
  8
0
 10
 9.08728028502900E+0002
 20
 5.60365022721600E+0002
 11
 9.04931940700000E+0002
 21
 5.69891868800000E+0002
  0
LINE
  8
0
 10
 9.04931940700000E+0002
 20
 5.69891868800000E+0002
 11
 9.01069571275100E+0002
 21
 5.79352315470400E+0002
  0
LINE
  8
0
 10
 9.01069571275100E+0002
 20
 5.79352315470400E+0002
 11
 8.97144253324800E+0002
 21
 5.88749743699200E+0002
  0
LINE
  8
0
 10
 8.97144253324800E+0002
 20
 5.88749743699200E+0002
 11
 8.93159319945700E+0002
 21
 5.98087534452800E+0002
  0
LINE
  8
0
 10
 8.93159319945700E+0002
 20
 5.98087534452800E+0002
 11
 8.89118104234400E+0002
 21
 6.07369068697600E+0002
  0
LINE
  8
0
 10
 8.89118104234400E+0002
 20
 6.07369068697600E+0002
 11
 8.85023939287500E+0002
 21
 6.16597727400000E+0002
  0
LINE
  8
0
 10
 8.85023939287500E+0002
 20
 6.16597727400000E+0002
 11
 8.80880158201600E+0002
 21
 6.25776891526400E+0002
  0
LINE
  8
0
 10
 8.80880158201600E+0002
 20
 6.25776891526400E+0002
 11
 8.76690094073300E+0002
 21
 6.34909942043200E+0002
  0
LINE
  8
0
 10
 8.76690094073300E+0002
 20
 6.34909942043200E+0002
 11
 8.72457079999200E+0002
 21
 6.44000259916800E+0002
  0
LINE
  8
0
 10
 8.72457079999200E+0002
 20
 6.44000259916800E+0002
 11
 8.68184449075900E+0002
 21
 6.53051226113600E+0002
  0
LINE
  8
0
 10
 8.68184449075900E+0002
 20
 6.53051226113600E+0002
 11
 8.63875534400000E+0002
 21
 6.62066221600000E+0002
  0
LINE
  8
0
 10
 8.63875534400000E+0002
 20
 6.62066221600000E+0002
 11
 8.59533669068100E+0002
 21
 6.71048627342400E+0002
  0
LINE
  8
0
 10
 8.59533669068100E+0002
 20
 6.71048627342400E+0002
 11
 8.55162186176800E+0002
 21
 6.80001824307200E+0002
  0
LINE
  8
0
 10
 8.55162186176800E+0002
 20
 6.80001824307200E+0002
 11
 8.50764418822700E+0002
 21
 6.88929193460800E+0002
  0
LINE
  8
0
 10
 8.50764418822700E+0002
 20
 6.88929193460800E+0002
 11
 8.46343700102400E+0002
 21
 6.97834115769600E+0002
  0
LINE
  8
0
 10
 8.46343700102400E+0002
 20
 6.97834115769600E+0002
 11
 8.41903363112500E+0002
 21
 7.06719972200000E+0002
  0
LINE
  8
0
 10
 8.41903363112500E+0002
 20
 7.06719972200000E+0002
 11
 8.37446740949600E+0002
 21
 7.15590143718400E+0002
  0
LINE
  8
0
 10
 8.37446740949600E+0002
 20
 7.15590143718400E+0002
 11
 8.32977166710300E+0002
 21
 7.24448011291200E+0002
  0
LINE
  8
0
 10
 8.32977166710300E+0002
 20
 7.24448011291200E+0002
 11
 8.28497973491200E+0002
 21
 7.33296955884800E+0002
  0
LINE
  8
0
 10
 8.28497973491200E+0002
 20
 7.33296955884800E+0002
 11
 8.24012494388900E+0002
 21
 7.42140358465600E+0002
  0
LINE
  8
0
 10
 8.24012494388900E+0002
 20
 7.42140358465600E+0002
 11
 8.19524062500000E+0002
 21
 7.50981600000000E+0002
  0
LINE
  8
0
 10
 8.19524062500000E+0002
 20
 7.50981600000000E+0002
 11
 8.15036010921100E+0002
 21
 7.59824061454400E+0002
  0
LINE
  8
0
 10
 8.15036010921100E+0002
 20
 7.59824061454400E+0002
 11
 8.10551672748800E+0002
 21
 7.68671123795200E+0002
  0
LINE
  8
0
 10
 8.10551672748800E+0002
 20
 7.68671123795200E+0002
 11
 8.06074381079700E+0002
 21
 7.77526167988800E+0002
  0
LINE
  8
0
 10
 8.06074381079700E+0002
 20
 7.77526167988800E+0002
 11
 8.01607469010400E+0002
 21
 7.86392575001600E+0002
  0
LINE
  8
0
 10
 8.01607469010400E+0002
 20
 7.86392575001600E+0002
 11
 7.97154269637500E+0002
 21
 7.95273725800000E+0002
  0
LINE
  8
0
 10
 7.97154269637500E+0002
 20
 7.95273725800000E+0002
 11
 7.92718116057600E+0002
 21
 8.04173001350400E+0002
  0
LINE
  8
0
 10
 7.92718116057600E+0002
 20
 8.04173001350400E+0002
 11
 7.88302341367300E+0002
 21
 8.13093782619200E+0002
  0
LINE
  8
0
 10
 7.88302341367300E+0002
 20
 8.13093782619200E+0002
 11
 7.83910278663200E+0002
 21
 8.22039450572800E+0002
  0
LINE
  8
0
 10
 7.83910278663200E+0002
 20
 8.22039450572800E+0002
 11
 7.79545261041900E+0002
 21
 8.31013386177600E+0002
  0
LINE
  8
0
 10
 7.79545261041900E+0002
 20
 8.31013386177600E+0002
 11
 7.75210621600000E+0002
 21
 8.40018970400000E+0002
  0
LINE
  8
0
 10
 7.75210621600000E+0002
 20
 8.40018970400000E+0002
 11
 7.70909693434100E+0002
 21
 8.49059584206400E+0002
  0
LINE
  8
0
 10
 7.70909693434100E+0002
 20
 8.49059584206400E+0002
 11
 7.66645809640800E+0002
 21
 8.58138608563200E+0002
  0
LINE
  8
0
 10
 7.66645809640800E+0002
 20
 8.58138608563200E+0002
 11
 7.62422303316700E+0002
 21
 8.67259424436800E+0002
  0
LINE
  8
0
 10
 7.62422303316700E+0002
 20
 8.67259424436800E+0002
 11
 7.58242507558400E+0002
 21
 8.76425412793600E+0002
  0
LINE
  8
0
 10
 7.58242507558400E+0002
 20
 8.76425412793600E+0002
 11
 7.54109755462500E+0002
 21
 8.85639954600000E+0002
  0
LINE
  8
0
 10
 7.54109755462500E+0002
 20
 8.85639954600000E+0002
 11
 7.50027380125600E+0002
 21
 8.94906430822400E+0002
  0
LINE
  8
0
 10
 7.50027380125600E+0002
 20
 8.94906430822400E+0002
 11
 7.45998714644300E+0002
 21
 9.04228222427200E+0002
  0
LINE
  8
0
 10
 7.45998714644300E+0002
 20
 9.04228222427200E+0002
 11
 7.42027092115200E+0002
 21
 9.13608710380800E+0002
  0
LINE
  8
0
 10
 7.42027092115200E+0002
 20
 9.13608710380800E+0002
 11
 7.38115845634900E+0002
 21
 9.23051275649600E+0002
  0
LINE
  8
0
 10
 7.38115845634900E+0002
 20
 9.23051275649600E+0002
 11
 7.34268308300000E+0002
 21
 9.32559299200000E+0002
  0
LINE
  8
0
 10
 7.34268308300000E+0002
 20
 9.32559299200000E+0002
 11
 7.30487813207100E+0002
 21
 9.42136161998400E+0002
  0
LINE
  8
0
 10
 7.30487813207100E+0002
 20
 9.42136161998400E+0002
 11
 7.26777693452800E+0002
 21
 9.51785245011200E+0002
  0
LINE
  8
0
 10
 7.26777693452800E+0002
 20
 9.51785245011200E+0002
 11
 7.23141282133700E+0002
 21
 9.61509929204800E+0002
  0
LINE
  8
0
 10
 7.23141282133700E+0002
 20
 9.61509929204800E+0002
 11
 7.19581912346400E+0002
 21
 9.71313595545600E+0002
  0
LINE
  8
0
 10
 7.19581912346400E+0002
 20
 9.71313595545600E+0002
 11
 7.16102917187500E+0002
 21
 9.81199625000000E+0002
  0
LINE
  8
0
 10
 7.16102917187500E+0002
 20
 9.81199625000000E+0002
 11
 7.12707629753600E+0002
 21
 9.91171398534400E+0002
  0
LINE
  8
0
 10
 7.12707629753600E+0002
 20
 9.91171398534400E+0002
 11
 7.09399383141300E+0002
 21
 1.00123229711520E+0003
  0
LINE
  8
0
 10
 7.09399383141300E+0002
 20
 1.00123229711520E+0003
 11
 7.06181510447200E+0002
 21
 1.01138570170880E+0003
  0
LINE
  8
0
 10
 7.06181510447200E+0002
 20
 1.01138570170880E+0003
 11
 7.03057344767900E+0002
 21
 1.02163499328160E+0003
  0
LINE
  8
0
 10
 7.03057344767900E+0002
 20
 1.02163499328160E+0003
 11
 7.00030219200000E+0002
 21
 1.03198355280000E+0003
  0
LINE
  8
0
 10
 7.00030219200000E+0002
 20
 1.03198355280000E+0003
 11
 6.97103466840100E+0002
 21
 1.04243476123040E+0003
  0
LINE
  8
0
 10
 6.97103466840100E+0002
 20
 1.04243476123040E+0003
 11
 6.94280420784800E+0002
 21
 1.05299199953920E+0003
  0
LINE
  8
0
 10
 6.94280420784800E+0002
 20
 1.05299199953920E+0003
 11
 6.91564414130700E+0002
 21
 1.06365864869280E+0003
  0
LINE
  8
0
 10
 6.91564414130700E+0002
 20
 1.06365864869280E+0003
 11
 6.88958779974400E+0002
 21
 1.07443808965760E+0003
  0
LINE
  8
0
 10
 6.88958779974400E+0002
 20
 1.07443808965760E+0003
 11
 6.86466851412500E+0002
 21
 1.08533370340000E+0003
  0
LINE
  8
0
 10
 6.86466851412500E+0002
 20
 1.08533370340000E+0003
 11
 6.84091961541600E+0002
 21
 1.09634887088640E+0003
  0
LINE
  8
0
 10
 6.84091961541600E+0002
 20
 1.09634887088640E+0003
 11
 6.81837443458300E+0002
 21
 1.10748697308320E+0003
  0
LINE
  8
0
 10
 6.81837443458300E+0002
 20
 1.10748697308320E+0003
 11
 6.79706630259200E+0002
 21
 1.11875139095680E+0003
  0
LINE
  8
0
 10
 6.79706630259200E+0002
 20
 1.11875139095680E+0003
 11
 6.77702855040900E+0002
 21
 1.13014550547360E+0003
  0
LINE
  8
0
 10
 6.77702855040900E+0002
 20
 1.13014550547360E+0003
 11
 6.75829450900000E+0002
 21
 1.14167269760000E+0003
  0
LINE
  8
0
 10
 6.75829450900000E+0002
 20
 1.14167269760000E+0003
 11
 6.74089750933100E+0002
 21
 1.15333634830240E+0003
  0
LINE
  8
0
 10
 6.74089750933100E+0002
 20
 1.15333634830240E+0003
 11
 6.72487088236800E+0002
 21
 1.16513983854720E+0003
  0
LINE
  8
0
 10
 6.72487088236800E+0002
 20
 1.16513983854720E+0003
 11
 6.71024795907700E+0002
 21
 1.17708654930080E+0003
  0
LINE
  8
0
 10
 6.71024795907700E+0002
 20
 1.17708654930080E+0003
 11
 6.69706207042400E+0002
 21
 1.18917986152960E+0003
  0
LINE
  8
0
 10
 6.69706207042400E+0002
 20
 1.18917986152960E+0003
 11
 6.68534654737500E+0002
 21
 1.20142315620000E+0003
  0
LINE
  8
0
 10
 6.68534654737500E+0002
 20
 1.20142315620000E+0003
 11
 6.67513472089600E+0002
 21
 1.21381981427840E+0003
  0
LINE
  8
0
 10
 6.67513472089600E+0002
 20
 1.21381981427840E+0003
 11
 6.66645992195300E+0002
 21
 1.22637321673120E+0003
  0
LINE
  8
0
 10
 6.66645992195300E+0002
 20
 1.22637321673120E+0003
 11
 6.65935548151200E+0002
 21
 1.23908674452480E+0003
  0
LINE
  8
0
 10
 6.65935548151200E+0002
 20
 1.23908674452480E+0003
 11
 6.65385473053900E+0002
 21
 1.25196377862560E+0003
  0
LINE
  8
0
 10
 6.65385473053900E+0002
 20
 1.25196377862560E+0003
 11
 6.64999100000000E+0002
 21
 1.26500770000000E+0003
  0
LINE
  8
0
 10
 6.64999100000000E+0002
 20
 1.26500770000000E+0003
 11
 6.65000000000000E+0002
 21
 1.30700000000000E+0003
  0
LINE
  8
0
 10
 6.65000000000000E+0002
 20
 1.30700000000000E+0003
 11
 6.19999490553610E+0002
 21
 1.29538091843480E+0003
  0
ARC
  8
0
 10
 6.17000000000000E+0002
 20
 1.30700000000000E+0003
 40
 1.20000000000000E+0001
 50
 1.46195000000000E+0002
 51
 2.84475000000000E+0002
  0
LINE
  8
0
 10
 6.07028768958084E+0002
 20
 1.31367641756549E+0003
 11
 6.95000000000000E+0002
 21
 1.44500000000000E+0003
  0
LINE
  8
0
 10
 6.95000000000000E+0002
 20
 1.44500000000000E+0003
 11
 7.82971231041917E+0002
 21
 1.31367641756549E+0003
  0
ARC
  8
0
 10
 7.73000000000000E+0002
 20
 1.30700000000000E+0003
 40
 1.20000000000000E+0001
 50
 2.55525000000000E+0002
 51
 3.93805000000000E+0002
  0
LINE
  8
0
 10
 7.70000509446390E+0002
 20
 1.29538091843480E+0003
 11
 7.25000000000000E+0002
 21
 1.30700000000000E+0003
  0
LINE
  8
0
 10
 7.25000000000000E+0002
 20
 1.30700000000000E+0003
 11
 7.25000000000000E+0002
 21
 1.26500000000000E+0003
  0
LINE
  8
0
 10
 9.35000000000000E+0002
 20
 1.26500000000000E+0003
 11
 9.35386389952500E+0002
 21
 1.25195630732330E+0003
  0
LINE
  8
0
 10
 9.35386389952500E+0002
 20
 1.25195630732330E+0003
 11
 9.35936479780000E+0002
 21
 1.23907949734640E+0003
  0
LINE
  8
0
 10
 9.35936479780000E+0002
 20
 1.23907949734640E+0003
 11
 9.36646936437500E+0002
 21
 1.22636618914910E+0003
  0
LINE
  8
0
 10
 9.36646936437500E+0002
 20
 1.22636618914910E+0003
 11
 9.37514426880000E+0002
 21
 1.21381300181120E+0003
  0
LINE
  8
0
 10
 9.37514426880000E+0002
 20
 1.21381300181120E+0003
 11
 9.38535618062500E+0002
 21
 1.20141655441250E+0003
  0
LINE
  8
0
 10
 9.38535618062500E+0002
 20
 1.20141655441250E+0003
 11
 9.39707176940000E+0002
 21
 1.18917346603280E+0003
  0
LINE
  8
0
 10
 9.39707176940000E+0002
 20
 1.18917346603280E+0003
 11
 9.41025770467500E+0002
 21
 1.17708035575190E+0003
  0
LINE
  8
0
 10
 9.41025770467500E+0002
 20
 1.17708035575190E+0003
 11
 9.42488065600000E+0002
 21
 1.16513384264960E+0003
  0
LINE
  8
0
 10
 9.42488065600000E+0002
 20
 1.16513384264960E+0003
 11
 9.44090729292500E+0002
 21
 1.15333054580570E+0003
  0
LINE
  8
0
 10
 9.44090729292500E+0002
 20
 1.15333054580570E+0003
 11
 9.45830428500000E+0002
 21
 1.14166708430000E+0003
  0
LINE
  8
0
 10
 9.45830428500000E+0002
 20
 1.14166708430000E+0003
 11
 9.47703830177500E+0002
 21
 1.13014007721230E+0003
  0
LINE
  8
0
 10
 9.47703830177500E+0002
 20
 1.13014007721230E+0003
 11
 9.49707601280000E+0002
 21
 1.11874614362240E+0003
  0
LINE
  8
0
 10
 9.49707601280000E+0002
 20
 1.11874614362240E+0003
 11
 9.51838408762500E+0002
 21
 1.10748190261010E+0003
  0
LINE
  8
0
 10
 9.51838408762500E+0002
 20
 1.10748190261010E+0003
 11
 9.54092919580000E+0002
 21
 1.09634397325520E+0003
  0
LINE
  8
0
 10
 9.54092919580000E+0002
 20
 1.09634397325520E+0003
 11
 9.56467800687500E+0002
 21
 1.08532897463750E+0003
  0
LINE
  8
0
 10
 9.56467800687500E+0002
 20
 1.08532897463750E+0003
 11
 9.58959719040000E+0002
 21
 1.07443352583680E+0003
  0
LINE
  8
0
 10
 9.58959719040000E+0002
 20
 1.07443352583680E+0003
 11
 9.61565341592500E+0002
 21
 1.06365424593290E+0003
  0
LINE
  8
0
 10
 9.61565341592500E+0002
 20
 1.06365424593290E+0003
 11
 9.64281335300000E+0002
 21
 1.05298775400560E+0003
  0
LINE
  8
0
 10
 9.64281335300000E+0002
 20
 1.05298775400560E+0003
 11
 9.67104367117500E+0002
 21
 1.04243066913470E+0003
  0
LINE
  8
0
 10
 9.67104367117500E+0002
 20
 1.04243066913470E+0003
 11
 9.70031104000000E+0002
 21
 1.03197961040000E+0003
  0
LINE
  8
0
 10
 9.70031104000000E+0002
 20
 1.03197961040000E+0003
 11
 9.73058212902500E+0002
 21
 1.02163119688130E+0003
  0
LINE
  8
0
 10
 9.73058212902500E+0002
 20
 1.02163119688130E+0003
 11
 9.76182360780000E+0002
 21
 1.01138204765840E+0003
  0
LINE
  8
0
 10
 9.76182360780000E+0002
 20
 1.01138204765840E+0003
 11
 9.79400214587500E+0002
 21
 1.00122878181110E+0003
  0
LINE
  8
0
 10
 9.79400214587500E+0002
 20
 1.00122878181110E+0003
 11
 9.82708441280000E+0002
 21
 9.91168018419200E+0002
  0
LINE
  8
0
 10
 9.82708441280000E+0002
 20
 9.91168018419200E+0002
 11
 9.86103707812500E+0002
 21
 9.81196376562500E+0002
  0
LINE
  8
0
 10
 9.86103707812500E+0002
 20
 9.81196376562500E+0002
 11
 9.89582681140000E+0002
 21
 9.71310475320800E+0002
  0
LINE
  8
0
 10
 9.89582681140000E+0002
 20
 9.71310475320800E+0002
 11
 9.93142028217500E+0002
 21
 9.61506933773900E+0002
  0
LINE
  8
0
 10
 9.93142028217500E+0002
 20
 9.61506933773900E+0002
 11
 9.96778416000000E+0002
 21
 9.51782371001600E+0002
  0
LINE
  8
0
 10
 9.96778416000000E+0002
 20
 9.51782371001600E+0002
 11
 1.00048851144250E+0003
 21
 9.42133406083700E+0002
  0
LINE
  8
0
 10
 1.00048851144250E+0003
 20
 9.42133406083700E+0002
 11
 1.00426898150000E+0003
 21
 9.32556658100000E+0002
  0
LINE
  8
0
 10
 1.00426898150000E+0003
 20
 9.32556658100000E+0002
 11
 1.00811649312750E+0003
 21
 9.23048746130300E+0002
  0
LINE
  8
0
 10
 1.00811649312750E+0003
 20
 9.23048746130300E+0002
 11
 1.01202771328000E+0003
 21
 9.13606289254400E+0002
  0
LINE
  8
0
 10
 1.01202771328000E+0003
 20
 9.13606289254400E+0002
 11
 1.01599930891250E+0003
 21
 9.04225906552100E+0002
  0
LINE
  8
0
 10
 1.01599930891250E+0003
 20
 9.04225906552100E+0002
 11
 1.02002794698000E+0003
 21
 8.94904217103200E+0002
  0
LINE
  8
0
 10
 1.02002794698000E+0003
 20
 8.94904217103200E+0002
 11
 1.02411029443750E+0003
 21
 8.85637839987500E+0002
  0
LINE
  8
0
 10
 1.02411029443750E+0003
 20
 8.85637839987500E+0002
 11
 1.02824301824000E+0003
 21
 8.76423394284800E+0002
  0
LINE
  8
0
 10
 1.02824301824000E+0003
 20
 8.76423394284800E+0002
 11
 1.03242278534250E+0003
 21
 8.67257499074900E+0002
  0
LINE
  8
0
 10
 1.03242278534250E+0003
 20
 8.67257499074900E+0002
 11
 1.03664626270000E+0003
 21
 8.58136773437600E+0002
  0
LINE
  8
0
 10
 1.03664626270000E+0003
 20
 8.58136773437600E+0002
 11
 1.04091011726750E+0003
 21
 8.49057836452700E+0002
  0
LINE
  8
0
 10
 1.04091011726750E+0003
 20
 8.49057836452700E+0002
 11
 1.04521101600000E+0003
 21
 8.40017307200000E+0002
  0
LINE
  8
0
 10
 1.04521101600000E+0003
 20
 8.40017307200000E+0002
 11
 1.04954562585250E+0003
 21
 8.31011804759300E+0002
  0
LINE
  8
0
 10
 1.04954562585250E+0003
 20
 8.31011804759300E+0002
 11
 1.05391061378000E+0003
 21
 8.22037948210400E+0002
  0
LINE
  8
0
 10
 1.05391061378000E+0003
 20
 8.22037948210400E+0002
 11
 1.05830264673750E+0003
 21
 8.13092356633100E+0002
  0
LINE
  8
0
 10
 1.05830264673750E+0003
 20
 8.13092356633100E+0002
 11
 1.06271839168000E+0003
 21
 8.04171649107200E+0002
  0
LINE
  8
0
 10
 1.06271839168000E+0003
 20
 8.04171649107200E+0002
 11
 1.06715451556250E+0003
 21
 7.95272444712500E+0002
  0
LINE
  8
0
 10
 1.06715451556250E+0003
 20
 7.95272444712500E+0002
 11
 1.07160768534000E+0003
 21
 7.86391362528800E+0002
  0
LINE
  8
0
 10
 1.07160768534000E+0003
 20
 7.86391362528800E+0002
 11
 1.07607456796750E+0003
 21
 7.77525021635900E+0002
  0
LINE
  8
0
 10
 1.07607456796750E+0003
 20
 7.77525021635900E+0002
 11
 1.08055183040000E+0003
 21
 7.68670041113600E+0002
  0
LINE
  8
0
 10
 1.08055183040000E+0003
 20
 7.68670041113600E+0002
 11
 1.08503613959250E+0003
 21
 7.59823040041700E+0002
  0
LINE
  8
0
 10
 1.08503613959250E+0003
 20
 7.59823040041700E+0002
 11
 1.08952416250000E+0003
 21
 7.50980637500000E+0002
  0
LINE
  8
0
 10
 1.08952416250000E+0003
 20
 7.50980637500000E+0002
 11
 1.09401256607750E+0003
 21
 7.42139452568300E+0002
  0
LINE
  8
0
 10
 1.09401256607750E+0003
 20
 7.42139452568300E+0002
 11
 1.09849801728000E+0003
 21
 7.33296104326400E+0002
  0
LINE
  8
0
 10
 1.09849801728000E+0003
 20
 7.33296104326400E+0002
 11
 1.10297718306250E+0003
 21
 7.24447211854100E+0002
  0
LINE
  8
0
 10
 1.10297718306250E+0003
 20
 7.24447211854100E+0002
 11
 1.10744673038000E+0003
 21
 7.15589394231200E+0002
  0
LINE
  8
0
 10
 1.10744673038000E+0003
 20
 7.15589394231200E+0002
 11
 1.11190332618750E+0003
 21
 7.06719270537500E+0002
  0
LINE
  8
0
 10
 1.11190332618750E+0003
 20
 7.06719270537500E+0002
 11
 1.11634363744000E+0003
 21
 6.97833459852800E+0002
  0
LINE
  8
0
 10
 1.11634363744000E+0003
 20
 6.97833459852800E+0002
 11
 1.12076433109250E+0003
 21
 6.88928581256900E+0002
  0
LINE
  8
0
 10
 1.12076433109250E+0003
 20
 6.88928581256900E+0002
 11
 1.12516207410000E+0003
 21
 6.80001253829600E+0002
  0
LINE
  8
0
 10
 1.12516207410000E+0003
 20
 6.80001253829600E+0002
 11
 1.12953353341750E+0003
 21
 6.71048096650700E+0002
  0
LINE
  8
0
 10
 1.12953353341750E+0003
 20
 6.71048096650700E+0002
 11
 1.13387537600000E+0003
 21
 6.62065728800000E+0002
  0
LINE
  8
0
 10
 1.13387537600000E+0003
 20
 6.62065728800000E+0002
 11
 1.13818426880250E+0003
 21
 6.53050769357300E+0002
  0
LINE
  8
0
 10
 1.13818426880250E+0003
 20
 6.53050769357300E+0002
 11
 1.14245687878000E+0003
 21
 6.43999837402400E+0002
  0
LINE
  8
0
 10
 1.14245687878000E+0003
 20
 6.43999837402400E+0002
 11
 1.14668987288750E+0003
 21
 6.34909552015100E+0002
  0
LINE
  8
0
 10
 1.14668987288750E+0003
 20
 6.34909552015100E+0002
 11
 1.15087991808000E+0003
 21
 6.25776532275200E+0002
  0
LINE
  8
0
 10
 1.15087991808000E+0003
 20
 6.25776532275200E+0002
 11
 1.15502368131250E+0003
 21
 6.16597397262500E+0002
  0
LINE
  8
0
 10
 1.15502368131250E+0003
 20
 6.16597397262500E+0002
 11
 1.15911782954000E+0003
 21
 6.07368766056800E+0002
  0
LINE
  8
0
 10
 1.15911782954000E+0003
 20
 6.07368766056800E+0002
 11
 1.16315902971750E+0003
 21
 5.98087257737900E+0002
  0
LINE
  8
0
 10
 1.16315902971750E+0003
 20
 5.98087257737900E+0002
 11
 1.16714394880000E+0003
 21
 5.88749491385600E+0002
  0
LINE
  8
0
 10
 1.16714394880000E+0003
 20
 5.88749491385600E+0002
 11
 1.17106925374250E+0003
 21
 5.79352086079700E+0002
  0
LINE
  8
0
 10
 1.17106925374250E+0003
 20
 5.79352086079700E+0002
 11
 1.17493161150000E+0003
 21
 5.69891660900000E+0002
  0
LINE
  8
0
 10
 1.17493161150000E+0003
 20
 5.69891660900000E+0002
 11
 1.17872768902750E+0003
 21
 5.60364834926300E+0002
  0
LINE
  8
0
 10
 1.17872768902750E+0003
 20
 5.60364834926300E+0002
 11
 1.18245415328000E+0003
 21
 5.50768227238400E+0002
  0
LINE
  8
0
 10
 1.18245415328000E+0003
 20
 5.50768227238400E+0002
 11
 1.18610767121250E+0003
 21
 5.41098456916100E+0002
  0
LINE
  8
0
 10
 1.18610767121250E+0003
 20
 5.41098456916100E+0002
 11
 1.18968490978000E+0003
 21
 5.31352143039200E+0002
  0
LINE
  8
0
 10
 1.18968490978000E+0003
 20
 5.31352143039200E+0002
 11
 1.19318253593750E+0003
 21
 5.21525904687500E+0002
  0
LINE
  8
0
 10
 1.19318253593750E+0003
 20
 5.21525904687500E+0002
 11
 1.19659721664000E+0003
 21
 5.11616360940800E+0002
  0
LINE
  8
0
 10
 1.19659721664000E+0003
 20
 5.11616360940800E+0002
 11
 1.19992561884250E+0003
 21
 5.01620130878900E+0002
  0
LINE
  8
0
 10
 1.19992561884250E+0003
 20
 5.01620130878900E+0002
 11
 1.20316440950000E+0003
 21
 4.91533833581600E+0002
  0
LINE
  8
0
 10
 1.20316440950000E+0003
 20
 4.91533833581600E+0002
 11
 1.20631025556750E+0003
 21
 4.81354088128700E+0002
  0
LINE
  8
0
 10
 1.20631025556750E+0003
 20
 4.81354088128700E+0002
 11
 1.20935982400000E+0003
 21
 4.71077513600000E+0002
  0
LINE
  8
0
 10
 1.20935982400000E+0003
 20
 4.71077513600000E+0002
 11
 1.21230978175250E+0003
 21
 4.60700729075300E+0002
  0
LINE
  8
0
 10
 1.21230978175250E+0003
 20
 4.60700729075300E+0002
 11
 1.21515679578000E+0003
 21
 4.50220353634400E+0002
  0
LINE
  8
0
 10
 1.21515679578000E+0003
 20
 4.50220353634400E+0002
 11
 1.21789753303750E+0003
 21
 4.39633006357100E+0002
  0
LINE
  8
0
 10
 1.21789753303750E+0003
 20
 4.39633006357100E+0002
 11
 1.22052866048000E+0003
 21
 4.28935306323200E+0002
  0
LINE
  8
0
 10
 1.22052866048000E+0003
 20
 4.28935306323200E+0002
 11
 1.22304684506250E+0003
 21
 4.18123872612500E+0002
  0
LINE
  8
0
 10
 1.22304684506250E+0003
 20
 4.18123872612500E+0002
 11
 1.22544875374000E+0003
 21
 4.07195324304800E+0002
  0
LINE
  8
0
 10
 1.22544875374000E+0003
 20
 4.07195324304800E+0002
 11
 1.22773105346750E+0003
 21
 3.96146280479900E+0002
  0
LINE
  8
0
 10
 1.22773105346750E+0003
 20
 3.96146280479900E+0002
 11
 1.22989041120000E+0003
 21
 3.84973360217600E+0002
  0
LINE
  8
0
 10
 1.22989041120000E+0003
 20
 3.84973360217600E+0002
 11
 1.23192349389250E+0003
 21
 3.73673182597700E+0002
  0
LINE
  8
0
 10
 1.23192349389250E+0003
 20
 3.73673182597700E+0002
 11
 1.23382696850000E+0003
 21
 3.62242366700000E+0002
  0
LINE
  8
0
 10
 1.23382696850000E+0003
 20
 3.62242366700000E+0002
 11
 1.23559750197750E+0003
 21
 3.50677531604300E+0002
  0
LINE
  8
0
 10
 1.23559750197750E+0003
 20
 3.50677531604300E+0002
 11
 1.23723176128000E+0003
 21
 3.38975296390400E+0002
  0
LINE
  8
0
 10
 1.23723176128000E+0003
 20
 3.38975296390400E+0002
 11
 1.23872641336250E+0003
 21
 3.27132280138100E+0002
  0
LINE
  8
0
 10
 1.23872641336250E+0003
 20
 3.27132280138100E+0002
 11
 1.24007812518000E+0003
 21
 3.15145101927200E+0002
  0
LINE
  8
0
 10
 1.24007812518000E+0003
 20
 3.15145101927200E+0002
 11
 1.24128356368750E+0003
 21
 3.03010380837500E+0002
  0
LINE
  8
0
 10
 1.24128356368750E+0003
 20
 3.03010380837500E+0002
 11
 1.24233939584000E+0003
 21
 2.90724735948800E+0002
  0
LINE
  8
0
 10
 1.24233939584000E+0003
 20
 2.90724735948800E+0002
 11
 1.24324228859250E+0003
 21
 2.78284786340900E+0002
  0
LINE
  8
0
 10
 1.24324228859250E+0003
 20
 2.78284786340900E+0002
 11
 1.24398890890000E+0003
 21
 2.65687151093600E+0002
  0
LINE
  8
0
 10
 1.24398890890000E+0003
 20
 2.65687151093600E+0002
 11
 1.24457592371750E+0003
 21
 2.52928449286700E+0002
  0
LINE
  8
0
 10
 1.24457592371750E+0003
 20
 2.52928449286700E+0002
 11
 1.24500000000000E+0003
 21
 2.40005300000000E+0002
  0
LINE
  8
0
 10
 1.24500000000000E+0003
 20
 2.40005300000000E+0002
 11
 1.24500000000000E+0003
 21
 1.55000000000000E+0002
  0
LINE
  8
0
 10
 1.24500000000000E+0003
 20
 1.55000000000000E+0002
 11
 1.18500000000000E+0003
 21
 1.55000000000000E+0002
  0
LINE
  8
0
 10
 1.18500000000000E+0003
 20
 1.55000000000000E+0002
 11
 1.18500000000000E+0003
 21
 2.40005300000000E+0002
  0
LINE
  8
0
 10
 1.18500000000000E+0003
 20
 2.40005300000000E+0002
 11
 1.18457597031590E+0003
 21
 2.52928449294400E+0002
  0
LINE
  8
0
 10
 1.18457597031590E+0003
 20
 2.52928449294400E+0002
 11
 1.18398899932720E+0003
 21
 2.65687151155200E+0002
  0
LINE
  8
0
 10
 1.18398899932720E+0003
 20
 2.65687151155200E+0002
 11
 1.18324242012930E+0003
 21
 2.78284786548800E+0002
  0
LINE
  8
0
 10
 1.18324242012930E+0003
 20
 2.78284786548800E+0002
 11
 1.18233956581760E+0003
 21
 2.90724736441600E+0002
  0
LINE
  8
0
 10
 1.18233956581760E+0003
 20
 2.90724736441600E+0002
 11
 1.18128376948750E+0003
 21
 3.03010381800000E+0002
  0
LINE
  8
0
 10
 1.18128376948750E+0003
 20
 3.03010381800000E+0002
 11
 1.18007836423440E+0003
 21
 3.15145103590400E+0002
  0
LINE
  8
0
 10
 1.18007836423440E+0003
 20
 3.15145103590400E+0002
 11
 1.17872668315370E+0003
 21
 3.27132282779200E+0002
  0
LINE
  8
0
 10
 1.17872668315370E+0003
 20
 3.27132282779200E+0002
 11
 1.17723205934080E+0003
 21
 3.38975300332800E+0002
  0
LINE
  8
0
 10
 1.17723205934080E+0003
 20
 3.38975300332800E+0002
 11
 1.17559782589110E+0003
 21
 3.50677537217600E+0002
  0
LINE
  8
0
 10
 1.17559782589110E+0003
 20
 3.50677537217600E+0002
 11
 1.17382731590000E+0003
 21
 3.62242374400000E+0002
  0
LINE
  8
0
 10
 1.17382731590000E+0003
 20
 3.62242374400000E+0002
 11
 1.17192386246290E+0003
 21
 3.73673192846400E+0002
  0
LINE
  8
0
 10
 1.17192386246290E+0003
 20
 3.73673192846400E+0002
 11
 1.16989079867520E+0003
 21
 3.84973373523200E+0002
  0
LINE
  8
0
 10
 1.16989079867520E+0003
 20
 3.84973373523200E+0002
 11
 1.16773145763230E+0003
 21
 3.96146297396800E+0002
  0
LINE
  8
0
 10
 1.16773145763230E+0003
 20
 3.96146297396800E+0002
 11
 1.16544917242960E+0003
 21
 4.07195345433600E+0002
  0
LINE
  8
0
 10
 1.16544917242960E+0003
 20
 4.07195345433600E+0002
 11
 1.16304727616250E+0003
 21
 4.18123898600000E+0002
  0
LINE
  8
0
 10
 1.16304727616250E+0003
 20
 4.18123898600000E+0002
 11
 1.16052910192640E+0003
 21
 4.28935337862400E+0002
  0
LINE
  8
0
 10
 1.16052910192640E+0003
 20
 4.28935337862400E+0002
 11
 1.15789798281670E+0003
 21
 4.39633044187200E+0002
  0
LINE
  8
0
 10
 1.15789798281670E+0003
 20
 4.39633044187200E+0002
 11
 1.15515725192880E+0003
 21
 4.50220398540800E+0002
  0
LINE
  8
0
 10
 1.15515725192880E+0003
 20
 4.50220398540800E+0002
 11
 1.15231024235810E+0003
 21
 4.60700781889600E+0002
  0
LINE
  8
0
 10
 1.15231024235810E+0003
 20
 4.60700781889600E+0002
 11
 1.14936028720000E+0003
 21
 4.71077575200000E+0002
  0
LINE
  8
0
 10
 1.14936028720000E+0003
 20
 4.71077575200000E+0002
 11
 1.14631071954990E+0003
 21
 4.81354159438400E+0002
  0
LINE
  8
0
 10
 1.14631071954990E+0003
 20
 4.81354159438400E+0002
 11
 1.14316487250320E+0003
 21
 4.91533915571200E+0002
  0
LINE
  8
0
 10
 1.14316487250320E+0003
 20
 4.91533915571200E+0002
 11
 1.13992607915530E+0003
 21
 5.01620224564800E+0002
  0
LINE
  8
0
 10
 1.13992607915530E+0003
 20
 5.01620224564800E+0002
 11
 1.13659767260160E+0003
 21
 5.11616467385600E+0002
  0
LINE
  8
0
 10
 1.13659767260160E+0003
 20
 5.11616467385600E+0002
 11
 1.13318298593750E+0003
 21
 5.21526025000000E+0002
  0
LINE
  8
0
 10
 1.13318298593750E+0003
 20
 5.21526025000000E+0002
 11
 1.12968535225840E+0003
 21
 5.31352278374400E+0002
  0
LINE
  8
0
 10
 1.12968535225840E+0003
 20
 5.31352278374400E+0002
 11
 1.12610810465970E+0003
 21
 5.41098608475200E+0002
  0
LINE
  8
0
 10
 1.12610810465970E+0003
 20
 5.41098608475200E+0002
 11
 1.12245457623680E+0003
 21
 5.50768396268800E+0002
  0
LINE
  8
0
 10
 1.12245457623680E+0003
 20
 5.50768396268800E+0002
 11
 1.11872810008510E+0003
 21
 5.60365022721600E+0002
  0
LINE
  8
0
 10
 1.11872810008510E+0003
 20
 5.60365022721600E+0002
 11
 1.11493200930000E+0003
 21
 5.69891868800000E+0002
  0
LINE
  8
0
 10
 1.11493200930000E+0003
 20
 5.69891868800000E+0002
 11
 1.11106963697690E+0003
 21
 5.79352315470400E+0002
  0
LINE
  8
0
 10
 1.11106963697690E+0003
 20
 5.79352315470400E+0002
 11
 1.10714431621120E+0003
 21
 5.88749743699200E+0002
  0
LINE
  8
0
 10
 1.10714431621120E+0003
 20
 5.88749743699200E+0002
 11
 1.10315938009830E+0003
 21
 5.98087534452800E+0002
  0
LINE
  8
0
 10
 1.10315938009830E+0003
 20
 5.98087534452800E+0002
 11
 1.09911816173360E+0003
 21
 6.07369068697600E+0002
  0
LINE
  8
0
 10
 1.09911816173360E+0003
 20
 6.07369068697600E+0002
 11
 1.09502399421250E+0003
 21
 6.16597727400000E+0002
  0
LINE
  8
0
 10
 1.09502399421250E+0003
 20
 6.16597727400000E+0002
 11
 1.09088021063040E+0003
 21
 6.25776891526400E+0002
  0
LINE
  8
0
 10
 1.09088021063040E+0003
 20
 6.25776891526400E+0002
 11
 1.08669014408270E+0003
 21
 6.34909942043200E+0002
  0
LINE
  8
0
 10
 1.08669014408270E+0003
 20
 6.34909942043200E+0002
 11
 1.08245712766480E+0003
 21
 6.44000259916800E+0002
  0
LINE
  8
0
 10
 1.08245712766480E+0003
 20
 6.44000259916800E+0002
 11
 1.07818449447210E+0003
 21
 6.53051226113600E+0002
  0
LINE
  8
0
 10
 1.07818449447210E+0003
 20
 6.53051226113600E+0002
 11
 1.07387557760000E+0003
 21
 6.62066221600000E+0002
  0
LINE
  8
0
 10
 1.07387557760000E+0003
 20
 6.62066221600000E+0002
 11
 1.06953371014390E+0003
 21
 6.71048627342400E+0002
  0
LINE
  8
0
 10
 1.06953371014390E+0003
 20
 6.71048627342400E+0002
 11
 1.06516222519920E+0003
 21
 6.80001824307200E+0002
  0
LINE
  8
0
 10
 1.06516222519920E+0003
 20
 6.80001824307200E+0002
 11
 1.06076445586130E+0003
 21
 6.88929193460800E+0002
  0
LINE
  8
0
 10
 1.06076445586130E+0003
 20
 6.88929193460800E+0002
 11
 1.05634373522560E+0003
 21
 6.97834115769600E+0002
  0
LINE
  8
0
 10
 1.05634373522560E+0003
 20
 6.97834115769600E+0002
 11
 1.05190339638750E+0003
 21
 7.06719972200000E+0002
  0
LINE
  8
0
 10
 1.05190339638750E+0003
 20
 7.06719972200000E+0002
 11
 1.04744677244240E+0003
 21
 7.15590143718400E+0002
  0
LINE
  8
0
 10
 1.04744677244240E+0003
 20
 7.15590143718400E+0002
 11
 1.04297719648570E+0003
 21
 7.24448011291200E+0002
  0
LINE
  8
0
 10
 1.04297719648570E+0003
 20
 7.24448011291200E+0002
 11
 1.03849800161280E+0003
 21
 7.33296955884800E+0002
  0
LINE
  8
0
 10
 1.03849800161280E+0003
 20
 7.33296955884800E+0002
 11
 1.03401252091910E+0003
 21
 7.42140358465600E+0002
  0
LINE
  8
0
 10
 1.03401252091910E+0003
 20
 7.42140358465600E+0002
 11
 1.02952408750000E+0003
 21
 7.50981600000000E+0002
  0
LINE
  8
0
 10
 1.02952408750000E+0003
 20
 7.50981600000000E+0002
 11
 1.02503603445090E+0003
 21
 7.59824061454400E+0002
  0
LINE
  8
0
 10
 1.02503603445090E+0003
 20
 7.59824061454400E+0002
 11
 1.02055169486720E+0003
 21
 7.68671123795200E+0002
  0
LINE
  8
0
 10
 1.02055169486720E+0003
 20
 7.68671123795200E+0002
 11
 1.01607440184430E+0003
 21
 7.77526167988800E+0002
  0
LINE
  8
0
 10
 1.01607440184430E+0003
 20
 7.77526167988800E+0002
 11
 1.01160748847760E+0003
 21
 7.86392575001600E+0002
  0
LINE
  8
0
 10
 1.01160748847760E+0003
 20
 7.86392575001600E+0002
 11
 1.00715428786250E+0003
 21
 7.95273725800000E+0002
  0
LINE
  8
0
 10
 1.00715428786250E+0003
 20
 7.95273725800000E+0002
 11
 1.00271813309440E+0003
 21
 8.04173001350400E+0002
  0
LINE
  8
0
 10
 1.00271813309440E+0003
 20
 8.04173001350400E+0002
 11
 9.98302357268700E+0002
 21
 8.13093782619200E+0002
  0
LINE
  8
0
 10
 9.98302357268700E+0002
 20
 8.13093782619200E+0002
 11
 9.93910293480800E+0002
 21
 8.22039450572800E+0002
  0
LINE
  8
0
 10
 9.93910293480800E+0002
 20
 8.22039450572800E+0002
 11
 9.89545274826100E+0002
 21
 8.31013386177600E+0002
  0
LINE
  8
0
 10
 9.89545274826100E+0002
 20
 8.31013386177600E+0002
 11
 9.85210634400000E+0002
 21
 8.40018970400000E+0002
  0
LINE
  8
0
 10
 9.85210634400000E+0002
 20
 8.40018970400000E+0002
 11
 9.80909705297900E+0002
 21
 8.49059584206400E+0002
  0
LINE
  8
0
 10
 9.80909705297900E+0002
 20
 8.49059584206400E+0002
 11
 9.76645820615200E+0002
 21
 8.58138608563200E+0002
  0
LINE
  8
0
 10
 9.76645820615200E+0002
 20
 8.58138608563200E+0002
 11
 9.72422313447300E+0002
 21
 8.67259424436800E+0002
  0
LINE
  8
0
 10
 9.72422313447300E+0002
 20
 8.67259424436800E+0002
 11
 9.68242516889600E+0002
 21
 8.76425412793600E+0002
  0
LINE
  8
0
 10
 9.68242516889600E+0002
 20
 8.76425412793600E+0002
 11
 9.64109764037500E+0002
 21
 8.85639954600000E+0002
  0
LINE
  8
0
 10
 9.64109764037500E+0002
 20
 8.85639954600000E+0002
 11
 9.60027387986400E+0002
 21
 8.94906430822400E+0002
  0
LINE
  8
0
 10
 9.60027387986400E+0002
 20
 8.94906430822400E+0002
 11
 9.55998721831700E+0002
 21
 9.04228222427200E+0002
  0
LINE
  8
0
 10
 9.55998721831700E+0002
 20
 9.04228222427200E+0002
 11
 9.52027098668800E+0002
 21
 9.13608710380800E+0002
  0
LINE
  8
0
 10
 9.52027098668800E+0002
 20
 9.13608710380800E+0002
 11
 9.48115851593100E+0002
 21
 9.23051275649600E+0002
  0
LINE
  8
0
 10
 9.48115851593100E+0002
 20
 9.23051275649600E+0002
 11
 9.44268313700000E+0002
 21
 9.32559299200000E+0002
  0
LINE
  8
0
 10
 9.44268313700000E+0002
 20
 9.32559299200000E+0002
 11
 9.40487818084900E+0002
 21
 9.42136161998400E+0002
  0
LINE
  8
0
 10
 9.40487818084900E+0002
 20
 9.42136161998400E+0002
 11
 9.36777697843200E+0002
 21
 9.51785245011200E+0002
  0
LINE
  8
0
 10
 9.36777697843200E+0002
 20
 9.51785245011200E+0002
 11
 9.33141286070300E+0002
 21
 9.61509929204800E+0002
  0
LINE
  8
0
 10
 9.33141286070300E+0002
 20
 9.61509929204800E+0002
 11
 9.29581915861600E+0002
 21
 9.71313595545600E+0002
  0
LINE
  8
0
 10
 9.29581915861600E+0002
 20
 9.71313595545600E+0002
 11
 9.26102920312500E+0002
 21
 9.81199625000000E+0002
  0
LINE
  8
0
 10
 9.26102920312500E+0002
 20
 9.81199625000000E+0002
 11
 9.22707632518400E+0002
 21
 9.91171398534400E+0002
  0
LINE
  8
0
 10
 9.22707632518400E+0002
 20
 9.91171398534400E+0002
 11
 9.19399385574700E+0002
 21
 1.00123229711520E+0003
  0
LINE
  8
0
 10
 9.19399385574700E+0002
 20
 1.00123229711520E+0003
 11
 9.16181512576800E+0002
 21
 1.01138570170880E+0003
  0
LINE
  8
0
 10
 9.16181512576800E+0002
 20
 1.01138570170880E+0003
 11
 9.13057346620100E+0002
 21
 1.02163499328160E+0003
  0
LINE
  8
0
 10
 9.13057346620100E+0002
 20
 1.02163499328160E+0003
 11
 9.10030220800000E+0002
 21
 1.03198355280000E+0003
  0
LINE
  8
0
 10
 9.10030220800000E+0002
 20
 1.03198355280000E+0003
 11
 9.07103468211900E+0002
 21
 1.04243476123040E+0003
  0
LINE
  8
0
 10
 9.07103468211900E+0002
 20
 1.04243476123040E+0003
 11
 9.04280421951200E+0002
 21
 1.05299199953920E+0003
  0
LINE
  8
0
 10
 9.04280421951200E+0002
 20
 1.05299199953920E+0003
 11
 9.01564415113300E+0002
 21
 1.06365864869280E+0003
  0
LINE
  8
0
 10
 9.01564415113300E+0002
 20
 1.06365864869280E+0003
 11
 8.98958780793600E+0002
 21
 1.07443808965760E+0003
  0
LINE
  8
0
 10
 8.98958780793600E+0002
 20
 1.07443808965760E+0003
 11
 8.96466852087500E+0002
 21
 1.08533370340000E+0003
  0
LINE
  8
0
 10
 8.96466852087500E+0002
 20
 1.08533370340000E+0003
 11
 8.94091962090400E+0002
 21
 1.09634887088640E+0003
  0
LINE
  8
0
 10
 8.94091962090400E+0002
 20
 1.09634887088640E+0003
 11
 8.91837443897700E+0002
 21
 1.10748697308320E+0003
  0
LINE
  8
0
 10
 8.91837443897700E+0002
 20
 1.10748697308320E+0003
 11
 8.89706630604800E+0002
 21
 1.11875139095680E+0003
  0
LINE
  8
0
 10
 8.89706630604800E+0002
 20
 1.11875139095680E+0003
 11
 8.87702855307100E+0002
 21
 1.13014550547360E+0003
  0
LINE
  8
0
 10
 8.87702855307100E+0002
 20
 1.13014550547360E+0003
 11
 8.85829451100000E+0002
 21
 1.14167269760000E+0003
  0
LINE
  8
0
 10
 8.85829451100000E+0002
 20
 1.14167269760000E+0003
 11
 8.84089751078900E+0002
 21
 1.15333634830240E+0003
  0
LINE
  8
0
 10
 8.84089751078900E+0002
 20
 1.15333634830240E+0003
 11
 8.82487088339200E+0002
 21
 1.16513983854720E+0003
  0
LINE
  8
0
 10
 8.82487088339200E+0002
 20
 1.16513983854720E+0003
 11
 8.81024795976300E+0002
 21
 1.17708654930080E+0003
  0
LINE
  8
0
 10
 8.81024795976300E+0002
 20
 1.17708654930080E+0003
 11
 8.79706207085600E+0002
 21
 1.18917986152960E+0003
  0
LINE
  8
0
 10
 8.79706207085600E+0002
 20
 1.18917986152960E+0003
 11
 8.78534654762500E+0002
 21
 1.20142315620000E+0003
  0
LINE
  8
0
 10
 8.78534654762500E+0002
 20
 1.20142315620000E+0003
 11
 8.77513472102400E+0002
 21
 1.21381981427840E+0003
  0
LINE
  8
0
 10
 8.77513472102400E+0002
 20
 1.21381981427840E+0003
 11
 8.76645992200700E+0002
 21
 1.22637321673120E+0003
  0
LINE
  8
0
 10
 8.76645992200700E+0002
 20
 1.22637321673120E+0003
 11
 8.75935548152800E+0002
 21
 1.23908674452480E+0003
  0
LINE
  8
0
 10
 8.75935548152800E+0002
 20
 1.23908674452480E+0003
 11
 8.75385473054100E+0002
 21
 1.25196377862560E+0003
  0
LINE
  8
0
 10
 8.75385473054100E+0002
 20
 1.25196377862560E+0003
 11
 8.74999100000000E+0002
 21
 1.26500770000000E+0003
  0
LINE
  8
0
 10
 8.74999100000000E+0002
 20
 1.26500770000000E+0003
 11
 8.75000000000000E+0002
 21
 1.30700000000000E+0003
  0
LINE
  8
0
 10
 8.75000000000000E+0002
 20
 1.30700000000000E+0003
 11
 8.29999490553610E+0002
 21
 1.29538091843480E+0003
  0
ARC
  8
0
 10
 8.27000000000000E+0002
 20
 1.30700000000000E+0003
 40
 1.20000000000000E+0001
 50
 1.46195000000000E+0002
 51
 2.84475000000000E+0002
  0
LINE
  8
0
 10
 8.17028768958083E+0002
 20
 1.31367641756549E+0003
 11
 9.05000000000000E+0002
 21
 1.44500000000000E+0003
  0
LINE
  8
0
 10
 9.05000000000000E+0002
 20
 1.44500000000000E+0003
 11
 9.92971231041917E+0002
 21
 1.31367641756549E+0003
  0
ARC
  8
0
 10
 9.83000000000000E+0002
 20
 1.30700000000000E+0003
 40
 1.20000000000000E+0001
 50
 2.55525000000000E+0002
 51
 3.93805000000000E+0002
  0
LINE
  8
0
 10
 9.80000509446390E+0002
 20
 1.29538091843480E+0003
 11
 9.35000000000000E+0002
 21
 1.30700000000000E+0003
  0
LINE
  8
0
 10
 9.35000000000000E+0002
 20
 1.30700000000000E+0003
 11
 9.35000000000000E+0002
 21
 1.26500000000000E+0003
  0
LINE
  8
0
 10
 1.14500000000000E+0003
 20
 1.26500000000000E+0003
 11
 1.14538638995250E+0003
 21
 1.25195630732330E+0003
  0
LINE
  8
0
 10
 1.14538638995250E+0003
 20
 1.25195630732330E+0003
 11
 1.14593647978000E+0003
 21
 1.23907949734640E+0003
  0
LINE
  8
0
 10
 1.14593647978000E+0003
 20
 1.23907949734640E+0003
 11
 1.14664693643750E+0003
 21
 1.22636618914910E+0003
  0
LINE
  8
0
 10
 1.14664693643750E+0003
 20
 1.22636618914910E+0003
 11
 1.14751442688000E+0003
 21
 1.21381300181120E+0003
  0
LINE
  8
0
 10
 1.14751442688000E+0003
 20
 1.21381300181120E+0003
 11
 1.14853561806250E+0003
 21
 1.20141655441250E+0003
  0
LINE
  8
0
 10
 1.14853561806250E+0003
 20
 1.20141655441250E+0003
 11
 1.14970717694000E+0003
 21
 1.18917346603280E+0003
  0
LINE
  8
0
 10
 1.14970717694000E+0003
 20
 1.18917346603280E+0003
 11
 1.15102577046750E+0003
 21
 1.17708035575190E+0003
  0
LINE
  8
0
 10
 1.15102577046750E+0003
 20
 1.17708035575190E+0003
 11
 1.15248806560000E+0003
 21
 1.16513384264960E+0003
  0
LINE
  8
0
 10
 1.15248806560000E+0003
 20
 1.16513384264960E+0003
 11
 1.15409072929250E+0003
 21
 1.15333054580570E+0003
  0
LINE
  8
0
 10
 1.15409072929250E+0003
 20
 1.15333054580570E+0003
 11
 1.15583042850000E+0003
 21
 1.14166708430000E+0003
  0
LINE
  8
0
 10
 1.15583042850000E+0003
 20
 1.14166708430000E+0003
 11
 1.15770383017750E+0003
 21
 1.13014007721230E+0003
  0
LINE
  8
0
 10
 1.15770383017750E+0003
 20
 1.13014007721230E+0003
 11
 1.15970760128000E+0003
 21
 1.11874614362240E+0003
  0
LINE
  8
0
 10
 1.15970760128000E+0003
 20
 1.11874614362240E+0003
 11
 1.16183840876250E+0003
 21
 1.10748190261010E+0003
  0
LINE
  8
0
 10
 1.16183840876250E+0003
 20
 1.10748190261010E+0003
 11
 1.16409291958000E+0003
 21
 1.09634397325520E+0003
  0
LINE
  8
0
 10
 1.16409291958000E+0003
 20
 1.09634397325520E+0003
 11
 1.16646780068750E+0003
 21
 1.08532897463750E+0003
  0
LINE
  8
0
 10
 1.16646780068750E+0003
 20
 1.08532897463750E+0003
 11
 1.16895971904000E+0003
 21
 1.07443352583680E+0003
  0
LINE
  8
0
 10
 1.16895971904000E+0003
 20
 1.07443352583680E+0003
 11
 1.17156534159250E+0003
 21
 1.06365424593290E+0003
  0
LINE
  8
0
 10
 1.17156534159250E+0003
 20
 1.06365424593290E+0003
 11
 1.17428133530000E+0003
 21
 1.05298775400560E+0003
  0
LINE
  8
0
 10
 1.17428133530000E+0003
 20
 1.05298775400560E+0003
 11
 1.17710436711750E+0003
 21
 1.04243066913470E+0003
  0
LINE
  8
0
 10
 1.17710436711750E+0003
 20
 1.04243066913470E+0003
 11
 1.18003110400000E+0003
 21
 1.03197961040000E+0003
  0
LINE
  8
0
 10
 1.18003110400000E+0003
 20
 1.03197961040000E+0003
 11
 1.18305821290250E+0003
 21
 1.02163119688130E+0003
  0
LINE
  8
0
 10
 1.18305821290250E+0003
 20
 1.02163119688130E+0003
 11
 1.18618236078000E+0003
 21
 1.01138204765840E+0003
  0
LINE
  8
0
 10
 1.18618236078000E+0003
 20
 1.01138204765840E+0003
 11
 1.18940021458750E+0003
 21
 1.00122878181110E+0003
  0
LINE
  8
0
 10
 1.18940021458750E+0003
 20
 1.00122878181110E+0003
 11
 1.19270844128000E+0003
 21
 9.91168018419200E+0002
  0
LINE
  8
0
 10
 1.19270844128000E+0003
 20
 9.91168018419200E+0002
 11
 1.19610370781250E+0003
 21
 9.81196376562500E+0002
  0
LINE
  8
0
 10
 1.19610370781250E+0003
 20
 9.81196376562500E+0002
 11
 1.19958268114000E+0003
 21
 9.71310475320800E+0002
  0
LINE
  8
0
 10
 1.19958268114000E+0003
 20
 9.71310475320800E+0002
 11
 1.20314202821750E+0003
 21
 9.61506933773900E+0002
  0
LINE
  8
0
 10
 1.20314202821750E+0003
 20
 9.61506933773900E+0002
 11
 1.20677841600000E+0003
 21
 9.51782371001600E+0002
  0
LINE
  8
0
 10
 1.20677841600000E+0003
 20
 9.51782371001600E+0002
 11
 1.21048851144250E+0003
 21
 9.42133406083700E+0002
  0
LINE
  8
0
 10
 1.21048851144250E+0003
 20
 9.42133406083700E+0002
 11
 1.21426898150000E+0003
 21
 9.32556658100000E+0002
  0
LINE
  8
0
 10
 1.21426898150000E+0003
 20
 9.32556658100000E+0002
 11
 1.21811649312750E+0003
 21
 9.23048746130300E+0002
  0
LINE
  8
0
 10
 1.21811649312750E+0003
 20
 9.23048746130300E+0002
 11
 1.22202771328000E+0003
 21
 9.13606289254400E+0002
  0
LINE
  8
0
 10
 1.22202771328000E+0003
 20
 9.13606289254400E+0002
 11
 1.22599930891250E+0003
 21
 9.04225906552100E+0002
  0
LINE
  8
0
 10
 1.22599930891250E+0003
 20
 9.04225906552100E+0002
 11
 1.23002794698000E+0003
 21
 8.94904217103200E+0002
  0
LINE
  8
0
 10
 1.23002794698000E+0003
 20
 8.94904217103200E+0002
 11
 1.23411029443750E+0003
 21
 8.85637839987500E+0002
  0
LINE
  8
0
 10
 1.23411029443750E+0003
 20
 8.85637839987500E+0002
 11
 1.23824301824000E+0003
 21
 8.76423394284800E+0002
  0
LINE
  8
0
 10
 1.23824301824000E+0003
 20
 8.76423394284800E+0002
 11
 1.24242278534250E+0003
 21
 8.67257499074900E+0002
  0
LINE
  8
0
 10
 1.24242278534250E+0003
 20
 8.67257499074900E+0002
 11
 1.24664626270000E+0003
 21
 8.58136773437600E+0002
  0
LINE
  8
0
 10
 1.24664626270000E+0003
 20
 8.58136773437600E+0002
 11
 1.25091011726750E+0003
 21
 8.49057836452700E+0002
  0
LINE
  8
0
 10
 1.25091011726750E+0003
 20
 8.49057836452700E+0002
 11
 1.25521101600000E+0003
 21
 8.40017307200000E+0002
  0
LINE
  8
0
 10
 1.25521101600000E+0003
 20
 8.40017307200000E+0002
 11
 1.25954562585250E+0003
 21
 8.31011804759300E+0002
  0
LINE
  8
0
 10
 1.25954562585250E+0003
 20
 8.31011804759300E+0002
 11
 1.26391061378000E+0003
 21
 8.22037948210400E+0002
  0
LINE
  8
0
 10
 1.26391061378000E+0003
 20
 8.22037948210400E+0002
 11
 1.26830264673750E+0003
 21
 8.13092356633100E+0002
  0
LINE
  8
0
 10
 1.26830264673750E+0003
 20
 8.13092356633100E+0002
 11
 1.27271839168000E+0003
 21
 8.04171649107200E+0002
  0
LINE
  8
0
 10
 1.27271839168000E+0003
 20
 8.04171649107200E+0002
 11
 1.27715451556250E+0003
 21
 7.95272444712500E+0002
  0
LINE
  8
0
 10
 1.27715451556250E+0003
 20
 7.95272444712500E+0002
 11
 1.28160768534000E+0003
 21
 7.86391362528800E+0002
  0
LINE
  8
0
 10
 1.28160768534000E+0003
 20
 7.86391362528800E+0002
 11
 1.28607456796750E+0003
 21
 7.77525021635900E+0002
  0
LINE
  8
0
 10
 1.28607456796750E+0003
 20
 7.77525021635900E+0002
 11
 1.29055183040000E+0003
 21
 7.68670041113600E+0002
  0
LINE
  8
0
 10
 1.29055183040000E+0003
 20
 7.68670041113600E+0002
 11
 1.29503613959250E+0003
 21
 7.59823040041700E+0002
  0
LINE
  8
0
 10
 1.29503613959250E+0003
 20
 7.59823040041700E+0002
 11
 1.29952416250000E+0003
 21
 7.50980637500000E+0002
  0
LINE
  8
0
 10
 1.29952416250000E+0003
 20
 7.50980637500000E+0002
 11
 1.30401256607750E+0003
 21
 7.42139452568300E+0002
  0
LINE
  8
0
 10
 1.30401256607750E+0003
 20
 7.42139452568300E+0002
 11
 1.30849801728000E+0003
 21
 7.33296104326400E+0002
  0
LINE
  8
0
 10
 1.30849801728000E+0003
 20
 7.33296104326400E+0002
 11
 1.31297718306250E+0003
 21
 7.24447211854100E+0002
  0
LINE
  8
0
 10
 1.31297718306250E+0003
 20
 7.24447211854100E+0002
 11
 1.31744673038000E+0003
 21
 7.15589394231200E+0002
  0
LINE
  8
0
 10
 1.31744673038000E+0003
 20
 7.15589394231200E+0002
 11
 1.32190332618750E+0003
 21
 7.06719270537500E+0002
  0
LINE
  8
0
 10
 1.32190332618750E+0003
 20
 7.06719270537500E+0002
 11
 1.32634363744000E+0003
 21
 6.97833459852800E+0002
  0
LINE
  8
0
 10
 1.32634363744000E+0003
 20
 6.97833459852800E+0002
 11
 1.33076433109250E+0003
 21
 6.88928581256900E+0002
  0
LINE
  8
0
 10
 1.33076433109250E+0003
 20
 6.88928581256900E+0002
 11
 1.33516207410000E+0003
 21
 6.80001253829600E+0002
  0
LINE
  8
0
 10
 1.33516207410000E+0003
 20
 6.80001253829600E+0002
 11
 1.33953353341750E+0003
 21
 6.71048096650700E+0002
  0
LINE
  8
0
 10
 1.33953353341750E+0003
 20
 6.71048096650700E+0002
 11
 1.34387537600000E+0003
 21
 6.62065728800000E+0002
  0
LINE
  8
0
 10
 1.34387537600000E+0003
 20
 6.62065728800000E+0002
 11
 1.34818426880250E+0003
 21
 6.53050769357300E+0002
  0
LINE
  8
0
 10
 1.34818426880250E+0003
 20
 6.53050769357300E+0002
 11
 1.35245687878000E+0003
 21
 6.43999837402400E+0002
  0
LINE
  8
0
 10
 1.35245687878000E+0003
 20
 6.43999837402400E+0002
 11
 1.35668987288750E+0003
 21
 6.34909552015100E+0002
  0
LINE
  8
0
 10
 1.35668987288750E+0003
 20
 6.34909552015100E+0002
 11
 1.36087991808000E+0003
 21
 6.25776532275200E+0002
  0
LINE
  8
0
 10
 1.36087991808000E+0003
 20
 6.25776532275200E+0002
 11
 1.36502368131250E+0003
 21
 6.16597397262500E+0002
  0
LINE
  8
0
 10
 1.36502368131250E+0003
 20
 6.16597397262500E+0002
 11
 1.36911782954000E+0003
 21
 6.07368766056800E+0002
  0
LINE
  8
0
 10
 1.36911782954000E+0003
 20
 6.07368766056800E+0002
 11
 1.37315902971750E+0003
 21
 5.98087257737900E+0002
  0
LINE
  8
0
 10
 1.37315902971750E+0003
 20
 5.98087257737900E+0002
 11
 1.37714394880000E+0003
 21
 5.88749491385600E+0002
  0
LINE
  8
0
 10
 1.37714394880000E+0003
 20
 5.88749491385600E+0002
 11
 1.38106925374250E+0003
 21
 5.79352086079700E+0002
  0
LINE
  8
0
 10
 1.38106925374250E+0003
 20
 5.79352086079700E+0002
 11
 1.38493161150000E+0003
 21
 5.69891660900000E+0002
  0
LINE
  8
0
 10
 1.38493161150000E+0003
 20
 5.69891660900000E+0002
 11
 1.38872768902750E+0003
 21
 5.60364834926300E+0002
  0
LINE
  8
0
 10
 1.38872768902750E+0003
 20
 5.60364834926300E+0002
 11
 1.39245415328000E+0003
 21
 5.50768227238400E+0002
  0
LINE
  8
0
 10
 1.39245415328000E+0003
 20
 5.50768227238400E+0002
 11
 1.39610767121250E+0003
 21
 5.41098456916100E+0002
  0
LINE
  8
0
 10
 1.39610767121250E+0003
 20
 5.41098456916100E+0002
 11
 1.39968490978000E+0003
 21
 5.31352143039200E+0002
  0
LINE
  8
0
 10
 1.39968490978000E+0003
 20
 5.31352143039200E+0002
 11
 1.40318253593750E+0003
 21
 5.21525904687500E+0002
  0
LINE
  8
0
 10
 1.40318253593750E+0003
 20
 5.21525904687500E+0002
 11
 1.40659721664000E+0003
 21
 5.11616360940800E+0002
  0
LINE
  8
0
 10
 1.40659721664000E+0003
 20
 5.11616360940800E+0002
 11
 1.40992561884250E+0003
 21
 5.01620130878900E+0002
  0
LINE
  8
0
 10
 1.40992561884250E+0003
 20
 5.01620130878900E+0002
 11
 1.41316440950000E+0003
 21
 4.91533833581600E+0002
  0
LINE
  8
0
 10
 1.41316440950000E+0003
 20
 4.91533833581600E+0002
 11
 1.41631025556750E+0003
 21
 4.81354088128700E+0002
  0
LINE
  8
0
 10
 1.41631025556750E+0003
 20
 4.81354088128700E+0002
 11
 1.41935982400000E+0003
 21
 4.71077513600000E+0002
  0
LINE
  8
0
 10
 1.41935982400000E+0003
 20
 4.71077513600000E+0002
 11
 1.42230978175250E+0003
 21
 4.60700729075300E+0002
  0
LINE
  8
0
 10
 1.42230978175250E+0003
 20
 4.60700729075300E+0002
 11
 1.42515679578000E+0003
 21
 4.50220353634400E+0002
  0
LINE
  8
0
 10
 1.42515679578000E+0003
 20
 4.50220353634400E+0002
 11
 1.42789753303750E+0003
 21
 4.39633006357100E+0002
  0
LINE
  8
0
 10
 1.42789753303750E+0003
 20
 4.39633006357100E+0002
 11
 1.43052866048000E+0003
 21
 4.28935306323200E+0002
  0
LINE
  8
0
 10
 1.43052866048000E+0003
 20
 4.28935306323200E+0002
 11
 1.43304684506250E+0003
 21
 4.18123872612500E+0002
  0
LINE
  8
0
 10
 1.43304684506250E+0003
 20
 4.18123872612500E+0002
 11
 1.43544875374000E+0003
 21
 4.07195324304800E+0002
  0
LINE
  8
0
 10
 1.43544875374000E+0003
 20
 4.07195324304800E+0002
 11
 1.43773105346750E+0003
 21
 3.96146280479900E+0002
  0
LINE
  8
0
 10
 1.43773105346750E+0003
 20
 3.96146280479900E+0002
 11
 1.43989041120000E+0003
 21
 3.84973360217600E+0002
  0
LINE
  8
0
 10
 1.43989041120000E+0003
 20
 3.84973360217600E+0002
 11
 1.44192349389250E+0003
 21
 3.73673182597700E+0002
  0
LINE
  8
0
 10
 1.44192349389250E+0003
 20
 3.73673182597700E+0002
 11
 1.44382696850000E+0003
 21
 3.62242366700000E+0002
  0
LINE
  8
0
 10
 1.44382696850000E+0003
 20
 3.62242366700000E+0002
 11
 1.44559750197750E+0003
 21
 3.50677531604300E+0002
  0
LINE
  8
0
 10
 1.44559750197750E+0003
 20
 3.50677531604300E+0002
 11
 1.44723176128000E+0003
 21
 3.38975296390400E+0002
  0
LINE
  8
0
 10
 1.44723176128000E+0003
 20
 3.38975296390400E+0002
 11
 1.44872641336250E+0003
 21
 3.27132280138100E+0002
  0
LINE
  8
0
 10
 1.44872641336250E+0003
 20
 3.27132280138100E+0002
 11
 1.45007812518000E+0003
 21
 3.15145101927200E+0002
  0
LINE
  8
0
 10
 1.45007812518000E+0003
 20
 3.15145101927200E+0002
 11
 1.45128356368750E+0003
 21
 3.03010380837500E+0002
  0
LINE
  8
0
 10
 1.45128356368750E+0003
 20
 3.03010380837500E+0002
 11
 1.45233939584000E+0003
 21
 2.90724735948800E+0002
  0
LINE
  8
0
 10
 1.45233939584000E+0003
 20
 2.90724735948800E+0002
 11
 1.45324228859250E+0003
 21
 2.78284786340900E+0002
  0
LINE
  8
0
 10
 1.45324228859250E+0003
 20
 2.78284786340900E+0002
 11
 1.45398890890000E+0003
 21
 2.65687151093600E+0002
  0
LINE
  8
0
 10
 1.45398890890000E+0003
 20
 2.65687151093600E+0002
 11
 1.45457592371750E+0003
 21
 2.52928449286700E+0002
  0
LINE
  8
0
 10
 1.45457592371750E+0003
 20
 2.52928449286700E+0002
 11
 1.45500000000000E+0003
 21
 2.40005300000000E+0002
  0
LINE
  8
0
 10
 1.45500000000000E+0003
 20
 2.40005300000000E+0002
 11
 1.45500000000000E+0003
 21
 1.55000000000000E+0002
  0
LINE
  8
0
 10
 1.45500000000000E+0003
 20
 1.55000000000000E+0002
 11
 1.39500000000000E+0003
 21
 1.55000000000000E+0002
  0
LINE
  8
0
 10
 1.39500000000000E+0003
 20
 1.55000000000000E+0002
 11
 1.39500000000000E+0003
 21
 2.40005300000000E+0002
  0
LINE
  8
0
 10
 1.39500000000000E+0003
 20
 2.40005300000000E+0002
 11
 1.39457597031590E+0003
 21
 2.52928449294400E+0002
  0
LINE
  8
0
 10
 1.39457597031590E+0003
 20
 2.52928449294400E+0002
 11
 1.39398899932720E+0003
 21
 2.65687151155200E+0002
  0
LINE
  8
0
 10
 1.39398899932720E+0003
 20
 2.65687151155200E+0002
 11
 1.39324242012930E+0003
 21
 2.78284786548800E+0002
  0
LINE
  8
0
 10
 1.39324242012930E+0003
 20
 2.78284786548800E+0002
 11
 1.39233956581760E+0003
 21
 2.90724736441600E+0002
  0
LINE
  8
0
 10
 1.39233956581760E+0003
 20
 2.90724736441600E+0002
 11
 1.39128376948750E+0003
 21
 3.03010381800000E+0002
  0
LINE
  8
0
 10
 1.39128376948750E+0003
 20
 3.03010381800000E+0002
 11
 1.39007836423440E+0003
 21
 3.15145103590400E+0002
  0
LINE
  8
0
 10
 1.39007836423440E+0003
 20
 3.15145103590400E+0002
 11
 1.38872668315370E+0003
 21
 3.27132282779200E+0002
  0
LINE
  8
0
 10
 1.38872668315370E+0003
 20
 3.27132282779200E+0002
 11
 1.38723205934080E+0003
 21
 3.38975300332800E+0002
  0
LINE
  8
0
 10
 1.38723205934080E+0003
 20
 3.38975300332800E+0002
 11
 1.38559782589110E+0003
 21
 3.50677537217600E+0002
  0
LINE
  8
0
 10
 1.38559782589110E+0003
 20
 3.50677537217600E+0002
 11
 1.38382731590000E+0003
 21
 3.62242374400000E+0002
  0
LINE
  8
0
 10
 1.38382731590000E+0003
 20
 3.62242374400000E+0002
 11
 1.38192386246290E+0003
 21
 3.73673192846400E+0002
  0
LINE
  8
0
 10
 1.38192386246290E+0003
 20
 3.73673192846400E+0002
 11
 1.37989079867520E+0003
 21
 3.84973373523200E+0002
  0
LINE
  8
0
 10
 1.37989079867520E+0003
 20
 3.84973373523200E+0002
 11
 1.37773145763230E+0003
 21
 3.96146297396800E+0002
  0
LINE
  8
0
 10
 1.37773145763230E+0003
 20
 3.96146297396800E+0002
 11
 1.37544917242960E+0003
 21
 4.07195345433600E+0002
  0
LINE
  8
0
 10
 1.37544917242960E+0003
 20
 4.07195345433600E+0002
 11
 1.37304727616250E+0003
 21
 4.18123898600000E+0002
  0
LINE
  8
0
 10
 1.37304727616250E+0003
 20
 4.18123898600000E+0002
 11
 1.37052910192640E+0003
 21
 4.28935337862400E+0002
  0
LINE
  8
0
 10
 1.37052910192640E+0003
 20
 4.28935337862400E+0002
 11
 1.36789798281670E+0003
 21
 4.39633044187200E+0002
  0
LINE
  8
0
 10
 1.36789798281670E+0003
 20
 4.39633044187200E+0002
 11
 1.36515725192880E+0003
 21
 4.50220398540800E+0002
  0
LINE
  8
0
 10
 1.36515725192880E+0003
 20
 4.50220398540800E+0002
 11
 1.36231024235810E+0003
 21
 4.60700781889600E+0002
  0
LINE
  8
0
 10
 1.36231024235810E+0003
 20
 4.60700781889600E+0002
 11
 1.35936028720000E+0003
 21
 4.71077575200000E+0002
  0
LINE
  8
0
 10
 1.35936028720000E+0003
 20
 4.71077575200000E+0002
 11
 1.35631071954990E+0003
 21
 4.81354159438400E+0002
  0
LINE
  8
0
 10
 1.35631071954990E+0003
 20
 4.81354159438400E+0002
 11
 1.35316487250320E+0003
 21
 4.91533915571200E+0002
  0
LINE
  8
0
 10
 1.35316487250320E+0003
 20
 4.91533915571200E+0002
 11
 1.34992607915530E+0003
 21
 5.01620224564800E+0002
  0
LINE
  8
0
 10
 1.34992607915530E+0003
 20
 5.01620224564800E+0002
 11
 1.34659767260160E+0003
 21
 5.11616467385600E+0002
  0
LINE
  8
0
 10
 1.34659767260160E+0003
 20
 5.11616467385600E+0002
 11
 1.34318298593750E+0003
 21
 5.21526025000000E+0002
  0
LINE
  8
0
 10
 1.34318298593750E+0003
 20
 5.21526025000000E+0002
 11
 1.33968535225840E+0003
 21
 5.31352278374400E+0002
  0
LINE
  8
0
 10
 1.33968535225840E+0003
 20
 5.31352278374400E+0002
 11
 1.33610810465970E+0003
 21
 5.41098608475200E+0002
  0
LINE
  8
0
 10
 1.33610810465970E+0003
 20
 5.41098608475200E+0002
 11
 1.33245457623680E+0003
 21
 5.50768396268800E+0002
  0
LINE
  8
0
 10
 1.33245457623680E+0003
 20
 5.50768396268800E+0002
 11
 1.32872810008510E+0003
 21
 5.60365022721600E+0002
  0
LINE
  8
0
 10
 1.32872810008510E+0003
 20
 5.60365022721600E+0002
 11
 1.32493200930000E+0003
 21
 5.69891868800000E+0002
  0
LINE
  8
0
 10
 1.32493200930000E+0003
 20
 5.69891868800000E+0002
 11
 1.32106963697690E+0003
 21
 5.79352315470400E+0002
  0
LINE
  8
0
 10
 1.32106963697690E+0003
 20
 5.79352315470400E+0002
 11
 1.31714431621120E+0003
 21
 5.88749743699200E+0002
  0
LINE
  8
0
 10
 1.31714431621120E+0003
 20
 5.88749743699200E+0002
 11
 1.31315938009830E+0003
 21
 5.98087534452800E+0002
  0
LINE
  8
0
 10
 1.31315938009830E+0003
 20
 5.98087534452800E+0002
 11
 1.30911816173360E+0003
 21
 6.07369068697600E+0002
  0
LINE
  8
0
 10
 1.30911816173360E+0003
 20
 6.07369068697600E+0002
 11
 1.30502399421250E+0003
 21
 6.16597727400000E+0002
  0
LINE
  8
0
 10
 1.30502399421250E+0003
 20
 6.16597727400000E+0002
 11
 1.30088021063040E+0003
 21
 6.25776891526400E+0002
  0
LINE
  8
0
 10
 1.30088021063040E+0003
 20
 6.25776891526400E+0002
 11
 1.29669014408270E+0003
 21
 6.34909942043200E+0002
  0
LINE
  8
0
 10
 1.29669014408270E+0003
 20
 6.34909942043200E+0002
 11
 1.29245712766480E+0003
 21
 6.44000259916800E+0002
  0
LINE
  8
0
 10
 1.29245712766480E+0003
 20
 6.44000259916800E+0002
 11
 1.28818449447210E+0003
 21
 6.53051226113600E+0002
  0
LINE
  8
0
 10
 1.28818449447210E+0003
 20
 6.53051226113600E+0002
 11
 1.28387557760000E+0003
 21
 6.62066221600000E+0002
  0
LINE
  8
0
 10
 1.28387557760000E+0003
 20
 6.62066221600000E+0002
 11
 1.27953371014390E+0003
 21
 6.71048627342400E+0002
  0
LINE
  8
0
 10
 1.27953371014390E+0003
 20
 6.71048627342400E+0002
 11
 1.27516222519920E+0003
 21
 6.80001824307200E+0002
  0
LINE
  8
0
 10
 1.27516222519920E+0003
 20
 6.80001824307200E+0002
 11
 1.27076445586130E+0003
 21
 6.88929193460800E+0002
  0
LINE
  8
0
 10
 1.27076445586130E+0003
 20
 6.88929193460800E+0002
 11
 1.26634373522560E+0003
 21
 6.97834115769600E+0002
  0
LINE
  8
0
 10
 1.26634373522560E+0003
 20
 6.97834115769600E+0002
 11
 1.26190339638750E+0003
 21
 7.06719972200000E+0002
  0
LINE
  8
0
 10
 1.26190339638750E+0003
 20
 7.06719972200000E+0002
 11
 1.25744677244240E+0003
 21
 7.15590143718400E+0002
  0
LINE
  8
0
 10
 1.25744677244240E+0003
 20
 7.15590143718400E+0002
 11
 1.25297719648570E+0003
 21
 7.24448011291200E+0002
  0
LINE
  8
0
 10
 1.25297719648570E+0003
 20
 7.24448011291200E+0002
 11
 1.24849800161280E+0003
 21
 7.33296955884800E+0002
  0
LINE
  8
0
 10
 1.24849800161280E+0003
 20
 7.33296955884800E+0002
 11
 1.24401252091910E+0003
 21
 7.42140358465600E+0002
  0
LINE
  8
0
 10
 1.24401252091910E+0003
 20
 7.42140358465600E+0002
 11
 1.23952408750000E+0003
 21
 7.50981600000000E+0002
  0
LINE
  8
0
 10
 1.23952408750000E+0003
 20
 7.50981600000000E+0002
 11
 1.23503603445090E+0003
 21
 7.59824061454400E+0002
  0
LINE
  8
0
 10
 1.23503603445090E+0003
 20
 7.59824061454400E+0002
 11
 1.23055169486720E+0003
 21
 7.68671123795200E+0002
  0
LINE
  8
0
 10
 1.23055169486720E+0003
 20
 7.68671123795200E+0002
 11
 1.22607440184430E+0003
 21
 7.77526167988800E+0002
  0
LINE
  8
0
 10
 1.22607440184430E+0003
 20
 7.77526167988800E+0002
 11
 1.22160748847760E+0003
 21
 7.86392575001600E+0002
  0
LINE
  8
0
 10
 1.22160748847760E+0003
 20
 7.86392575001600E+0002
 11
 1.21715428786250E+0003
 21
 7.95273725800000E+0002
  0
LINE
  8
0
 10
 1.21715428786250E+0003
 20
 7.95273725800000E+0002
 11
 1.21271813309440E+0003
 21
 8.04173001350400E+0002
  0
LINE
  8
0
 10
 1.21271813309440E+0003
 20
 8.04173001350400E+0002
 11
 1.20830235726870E+0003
 21
 8.13093782619200E+0002
  0
LINE
  8
0
 10
 1.20830235726870E+0003
 20
 8.13093782619200E+0002
 11
 1.20391029348080E+0003
 21
 8.22039450572800E+0002
  0
LINE
  8
0
 10
 1.20391029348080E+0003
 20
 8.22039450572800E+0002
 11
 1.19954527482610E+0003
 21
 8.31013386177600E+0002
  0
LINE
  8
0
 10
 1.19954527482610E+0003
 20
 8.31013386177600E+0002
 11
 1.19521063440000E+0003
 21
 8.40018970400000E+0002
  0
LINE
  8
0
 10
 1.19521063440000E+0003
 20
 8.40018970400000E+0002
 11
 1.19090970529790E+0003
 21
 8.49059584206400E+0002
  0
LINE
  8
0
 10
 1.19090970529790E+0003
 20
 8.49059584206400E+0002
 11
 1.18664582061520E+0003
 21
 8.58138608563200E+0002
  0
LINE
  8
0
 10
 1.18664582061520E+0003
 20
 8.58138608563200E+0002
 11
 1.18242231344730E+0003
 21
 8.67259424436800E+0002
  0
LINE
  8
0
 10
 1.18242231344730E+0003
 20
 8.67259424436800E+0002
 11
 1.17824251688960E+0003
 21
 8.76425412793600E+0002
  0
LINE
  8
0
 10
 1.17824251688960E+0003
 20
 8.76425412793600E+0002
 11
 1.17410976403750E+0003
 21
 8.85639954600000E+0002
  0
LINE
  8
0
 10
 1.17410976403750E+0003
 20
 8.85639954600000E+0002
 11
 1.17002738798640E+0003
 21
 8.94906430822400E+0002
  0
LINE
  8
0
 10
 1.17002738798640E+0003
 20
 8.94906430822400E+0002
 11
 1.16599872183170E+0003
 21
 9.04228222427200E+0002
  0
LINE
  8
0
 10
 1.16599872183170E+0003
 20
 9.04228222427200E+0002
 11
 1.16202709866880E+0003
 21
 9.13608710380800E+0002
  0
LINE
  8
0
 10
 1.16202709866880E+0003
 20
 9.13608710380800E+0002
 11
 1.15811585159310E+0003
 21
 9.23051275649600E+0002
  0
LINE
  8
0
 10
 1.15811585159310E+0003
 20
 9.23051275649600E+0002
 11
 1.15426831370000E+0003
 21
 9.32559299200000E+0002
  0
LINE
  8
0
 10
 1.15426831370000E+0003
 20
 9.32559299200000E+0002
 11
 1.15048781808490E+0003
 21
 9.42136161998400E+0002
  0
LINE
  8
0
 10
 1.15048781808490E+0003
 20
 9.42136161998400E+0002
 11
 1.14677769784320E+0003
 21
 9.51785245011200E+0002
  0
LINE
  8
0
 10
 1.14677769784320E+0003
 20
 9.51785245011200E+0002
 11
 1.14314128607030E+0003
 21
 9.61509929204800E+0002
  0
LINE
  8
0
 10
 1.14314128607030E+0003
 20
 9.61509929204800E+0002
 11
 1.13958191586160E+0003
 21
 9.71313595545600E+0002
  0
LINE
  8
0
 10
 1.13958191586160E+0003
 20
 9.71313595545600E+0002
 11
 1.13610292031250E+0003
 21
 9.81199625000000E+0002
  0
LINE
  8
0
 10
 1.13610292031250E+0003
 20
 9.81199625000000E+0002
 11
 1.13270763251840E+0003
 21
 9.91171398534400E+0002
  0
LINE
  8
0
 10
 1.13270763251840E+0003
 20
 9.91171398534400E+0002
 11
 1.12939938557470E+0003
 21
 1.00123229711520E+0003
  0
LINE
  8
0
 10
 1.12939938557470E+0003
 20
 1.00123229711520E+0003
 11
 1.12618151257680E+0003
 21
 1.01138570170880E+0003
  0
LINE
  8
0
 10
 1.12618151257680E+0003
 20
 1.01138570170880E+0003
 11
 1.12305734662010E+0003
 21
 1.02163499328160E+0003
  0
LINE
  8
0
 10
 1.12305734662010E+0003
 20
 1.02163499328160E+0003
 11
 1.12003022080000E+0003
 21
 1.03198355280000E+0003
  0
LINE
  8
0
 10
 1.12003022080000E+0003
 20
 1.03198355280000E+0003
 11
 1.11710346821190E+0003
 21
 1.04243476123040E+0003
  0
LINE
  8
0
 10
 1.11710346821190E+0003
 20
 1.04243476123040E+0003
 11
 1.11428042195120E+0003
 21
 1.05299199953920E+0003
  0
LINE
  8
0
 10
 1.11428042195120E+0003
 20
 1.05299199953920E+0003
 11
 1.11156441511330E+0003
 21
 1.06365864869280E+0003
  0
LINE
  8
0
 10
 1.11156441511330E+0003
 20
 1.06365864869280E+0003
 11
 1.10895878079360E+0003
 21
 1.07443808965760E+0003
  0
LINE
  8
0
 10
 1.10895878079360E+0003
 20
 1.07443808965760E+0003
 11
 1.10646685208750E+0003
 21
 1.08533370340000E+0003
  0
LINE
  8
0
 10
 1.10646685208750E+0003
 20
 1.08533370340000E+0003
 11
 1.10409196209040E+0003
 21
 1.09634887088640E+0003
  0
LINE
  8
0
 10
 1.10409196209040E+0003
 20
 1.09634887088640E+0003
 11
 1.10183744389770E+0003
 21
 1.10748697308320E+0003
  0
LINE
  8
0
 10
 1.10183744389770E+0003
 20
 1.10748697308320E+0003
 11
 1.09970663060480E+0003
 21
 1.11875139095680E+0003
  0
LINE
  8
0
 10
 1.09970663060480E+0003
 20
 1.11875139095680E+0003
 11
 1.09770285530710E+0003
 21
 1.13014550547360E+0003
  0
LINE
  8
0
 10
 1.09770285530710E+0003
 20
 1.13014550547360E+0003
 11
 1.09582945110000E+0003
 21
 1.14167269760000E+0003
  0
LINE
  8
0
 10
 1.09582945110000E+0003
 20
 1.14167269760000E+0003
 11
 1.09408975107890E+0003
 21
 1.15333634830240E+0003
  0
LINE
  8
0
 10
 1.09408975107890E+0003
 20
 1.15333634830240E+0003
 11
 1.09248708833920E+0003
 21
 1.16513983854720E+0003
  0
LINE
  8
0
 10
 1.09248708833920E+0003
 20
 1.16513983854720E+0003
 11
 1.09102479597630E+0003
 21
 1.17708654930080E+0003
  0
LINE
  8
0
 10
 1.09102479597630E+0003
 20
 1.17708654930080E+0003
 11
 1.08970620708560E+0003
 21
 1.18917986152960E+0003
  0
LINE
  8
0
 10
 1.08970620708560E+0003
 20
 1.18917986152960E+0003
 11
 1.08853465476250E+0003
 21
 1.20142315620000E+0003
  0
LINE
  8
0
 10
 1.08853465476250E+0003
 20
 1.20142315620000E+0003
 11
 1.08751347210240E+0003
 21
 1.21381981427840E+0003
  0
LINE
  8
0
 10
 1.08751347210240E+0003
 20
 1.21381981427840E+0003
 11
 1.08664599220070E+0003
 21
 1.22637321673120E+0003
  0
LINE
  8
0
 10
 1.08664599220070E+0003
 20
 1.22637321673120E+0003
 11
 1.08593554815280E+0003
 21
 1.23908674452480E+0003
  0
LINE
  8
0
 10
 1.08593554815280E+0003
 20
 1.23908674452480E+0003
 11
 1.08538547305410E+0003
 21
 1.25196377862560E+0003
  0
LINE
  8
0
 10
 1.08538547305410E+0003
 20
 1.25196377862560E+0003
 11
 1.08499910000000E+0003
 21
 1.26500770000000E+0003
  0
LINE
  8
0
 10
 1.08499910000000E+0003
 20
 1.26500770000000E+0003
 11
 1.08500000000000E+0003
 21
 1.30700000000000E+0003
  0
LINE
  8
0
 10
 1.08500000000000E+0003
 20
 1.30700000000000E+0003
 11
 1.03999949055361E+0003
 21
 1.29538091843480E+0003
  0
ARC
  8
0
 10
 1.03700000000000E+0003
 20
 1.30700000000000E+0003
 40
 1.20000000000000E+0001
 50
 1.46195000000000E+0002
 51
 2.84475000000000E+0002
  0
LINE
  8
0
 10
 1.02702876895808E+0003
 20
 1.31367641756549E+0003
 11
 1.11500000000000E+0003
 21
 1.44500000000000E+0003
  0
LINE
  8
0
 10
 1.11500000000000E+0003
 20
 1.44500000000000E+0003
 11
 1.20297123104192E+0003
 21
 1.31367641756549E+0003
  0
ARC
  8
0
 10
 1.19300000000000E+0003
 20
 1.30700000000000E+0003
 40
 1.20000000000000E+0001
 50
 2.55525000000000E+0002
 51
 3.93805000000000E+0002
  0
LINE
  8
0
 10
 1.19000050944639E+0003
 20
 1.29538091843480E+0003
 11
 1.14500000000000E+0003
 21
 1.30700000000000E+0003
  0
LINE
  8
0
 10
 1.14500000000000E+0003
 20
 1.30700000000000E+0003
 11
 1.14500000000000E+0003
 21
 1.26500000000000E+0003
  0
LINE
  8
0
 10
 2.55000000000000E+0002
 20
 1.53500000000000E+0003
 11
 2.84400000000000E+0002
 21
 1.53500000000000E+0003
  0
ARC
  8
0
 10
-4.65600000000000E+0002
 20
 1.53500000000000E+0003
 40
 7.50000000000000E+0002
 50
 3.40811860000000E+0002
 51
 3.60000000000000E+0002
  0
LINE
  8
0
 10
 2.42733318076195E+0002
 20
 1.28849663186243E+0003
 11
 2.43333332723048E+0002
 21
 1.28849686527450E+0003
  0
ARC
  8
0
 10
 2.15000000000000E+0002
 20
 1.29835700000000E+0003
 40
 3.00000000000000E+0001
 50
 1.99188140000000E+0002
 51
 3.40811860000000E+0002
  0
LINE
  8
0
 10
 1.86666667276952E+0002
 20
 1.28849686527450E+0003
 11
 1.87266681923805E+0002
 21
 1.28849663186243E+0003
  0
ARC
  8
0
 10
 8.95600000000000E+0002
 20
 1.53500000000000E+0003
 40
 7.50000000000000E+0002
 50
 1.80000000000000E+0002
 51
 1.99188140000000E+0002
  0
LINE
  8
0
 10
 1.45600000000000E+0002
 20
 1.53500000000000E+0003
 11
 1.75000000000000E+0002
 21
 1.53500000000000E+0003
  0
ARC
  8
0
 10
 8.95000000000000E+0002
 20
 1.53500000000000E+0003
 40
 7.20000000000000E+0002
 50
 1.80000000000000E+0002
 51
 1.99188140000000E+0002
  0
LINE
  8
0
 10
 2.15000014646853E+0002
 20
 1.29835676658793E+0003
 11
 2.14999985353147E+0002
 21
 1.29835676658793E+0003
  0
ARC
  8
0
 10
-4.65000000000000E+0002
 20
 1.53500000000000E+0003
 40
 7.20000000000000E+0002
 50
 3.40811860000000E+0002
 51
 3.60000000000000E+0002
  0
LINE
  8
0
 10
 5.45000000000000E+0002
 20
 6.50000000000000E+0001
 11
 5.75000000000000E+0002
 21
 6.50000000000000E+0001
  0
ARC
  8
0
 10
-1.75000000000000E+0002
 20
 6.50000000000000E+0001
 40
 7.50000000000000E+0002
 50
 0.00000000000000E+0000
 51
 1.91881400000000E+0001
  0
LINE
  8
0
 10
 5.33333318076195E+0002
 20
 3.11503368137575E+0002
 11
 5.33333332723048E+0002
 21
 3.11503134725503E+0002
  0
ARC
  8
0
 10
 5.05000000000000E+0002
 20
 3.01643000000000E+0002
 40
 3.00000000000000E+0001
 50
 1.91881400000000E+0001
 51
 1.60811860000000E+0002
  0
LINE
  8
0
 10
 4.76666667276952E+0002
 20
 3.11503134725503E+0002
 11
 4.76666681923805E+0002
 21
 3.11503368137575E+0002
  0
ARC
  8
0
 10
 1.18500000000000E+0003
 20
 6.50000000000000E+0001
 40
 7.50000000000000E+0002
 50
 1.60811860000000E+0002
 51
 1.80000000000000E+0002
  0
LINE
  8
0
 10
 4.35000000000000E+0002
 20
 6.50000000000000E+0001
 11
 4.65000000000000E+0002
 21
 6.50000000000000E+0001
  0
ARC
  8
0
 10
 1.18500000000000E+0003
 20
 6.50000000000000E+0001
 40
 7.20000000000000E+0002
 50
 1.60811860000000E+0002
 51
 1.80000000000000E+0002
  0
LINE
  8
0
 10
 5.05000014646853E+0002
 20
 3.01643233412072E+0002
 11
 5.04999985353147E+0002
 21
 3.01643233412072E+0002
  0
ARC
  8
0
 10
-1.75000000000000E+0002
 20
 6.50000000000000E+0001
 40
 7.20000000000000E+0002
 50
 0.00000000000000E+0000
 51
 1.91881400000000E+0001
  0
ENDSEC
  0
EOF
