  0
SECTION
  2
HEADER
  9
$ACADVER
  1
AC1003
  9
$INSBASE
 10
0.0
 20
0.0
  9
$EXTMIN
 10
 0.00000000000000E+0000
 20
 0.00000000000000E+0000
  9
$EXTMAX
 10
 1.60000000000000E+0003
 20
 1.60000000000000E+0003
  9
$LIMMIN
 10
0.0
 20
0.0
  9
$LIMMAX
 10
410.0
 20
287.0
  9
$VIEWCTR
 10
227.0059616
 20
165.058879 
  9
$VIEWSIZE
 40
 1.60000000000000E+0003
9
$SNAPMODE
70
0
9
$SNAPUNIT
10
1
20
1
9
$GRIDMODE
70
0
9
$GRIDUNIT
10
1
20
1
9
$ORTHOMODE
70
0
9
$rEGENMODE
70
1
9
$FILLMODE
70
1
9
$DRAGMODE
70
2
9
$LTSCALE
40
25.0
9
$OSMODE
70
0
9
$ATTMODE
70
1
9
$TRACEWID
40
1.0
9
$TEXTSTYLE
7
STANDARD
9
$CLAYER
8
0
9
$CELTYPE
6
VONLAYER
9
$CECOLOR
62
256
9
$LUNITS
70
2
9
$LUPREC
70
2
9
$AXISMODE
70
0
9
$AXISUNIT
10
0
20
0
9
$SKETCHINC
40
1.0
9
$FILLETRAD
40
0.0
9
$AUNITS
70
0
9
$AUPREC
70
0
9
$MENU
1
ACAD
9
$ELEVATION
40
0.0
9
$THICKNESS
40
0.0
9
$VIEWDIR
10
0.0
20
0.0
30
1.0
9
$LIMCHECK
70
0
9
$BLIPMODE
70
1
9
$CHAMFERA
40
0.0
9
$CHAMFERB
40
0.0
9
$USRTIMER
70
1
9
$ANGBASE
50
0.0
9
$ANGDIR
70
0
9
$PDMODE
70
0
9
$PDSIZE
40
0.0
9
$PLINEWID
40
0.0
9
$COORDS
70
0
0
ENDSEC
0
SECTION
2
TABLES
0
TABLE
2
LTYPE
70
1
0
LTYPE
2
AUSGEZOGEN
70
64
3
Ausgezogene Linie
72
65
73
0
40
0.0
0
ENDTAB
0
TABLE
2
LAYER
70
1
0
LAYER
2
0
70
0
62
7
6
AUSGEZOGEN
0
ENDTAB
0
TABLE
2
STYLE
70
1
0
STYLE
2
STANDARD
70
0
40
0.0
41
1.0
50
0.0
71
0
42
3.5
3
txt
4

0
ENDTAB
0
TABLE
2
VIEW
70
0
0
ENDTAB
0
ENDSEC
0
SECTION
2
BLOCKS
0
ENDSEC
0
SECTION
2
ENTITIES
  0
ARC
  8
0
 10
 6.00000000000000E+0001
 20
 6.00000000000000E+0001
 40
 6.00000000000000E+0001
 50
 1.80000000000000E+0002
 51
 2.70000000000000E+0002
  0
LINE
  8
0
 10
 0.00000000000000E+0000
 20
 6.00000000000000E+0001
 11
 0.00000000000000E+0000
 21
 1.54000000000000E+0003
  0
ARC
  8
0
 10
 6.00000000000000E+0001
 20
 1.54000000000000E+0003
 40
 6.00000000000000E+0001
 50
 9.00000000000000E+0001
 51
 1.80000000000000E+0002
  0
LINE
  8
0
 10
 6.00000000000000E+0001
 20
 1.60000000000000E+0003
 11
 1.54000000000000E+0003
 21
 1.60000000000000E+0003
  0
ARC
  8
0
 10
 1.54000000000000E+0003
 20
 1.54000000000000E+0003
 40
 6.00000000000000E+0001
 50
 0.00000000000000E+0000
 51
 9.00000000000000E+0001
  0
LINE
  8
0
 10
 1.60000000000000E+0003
 20
 1.54000000000000E+0003
 11
 1.60000000000000E+0003
 21
 6.00000000000000E+0001
  0
ARC
  8
0
 10
 1.54000000000000E+0003
 20
 6.00000000000000E+0001
 40
 6.00000000000000E+0001
 50
 2.70000000000000E+0002
 51
 3.60000000000000E+0002
  0
LINE
  8
0
 10
 1.54000000000000E+0003
 20
 0.00000000000000E+0000
 11
 6.00000000000000E+0001
 21
 0.00000000000000E+0000
  0
ARC
  8
0
 10
 6.00000000000000E+0001
 20
 6.00000000000000E+0001
 40
 4.50000000000000E+0001
 50
 1.80000000000000E+0002
 51
 2.70000000000000E+0002
  0
LINE
  8
0
 10
 1.50000000000000E+0001
 20
 6.00000000000000E+0001
 11
 1.50000000000000E+0001
 21
 1.54000000000000E+0003
  0
ARC
  8
0
 10
 6.00000000000000E+0001
 20
 1.54000000000000E+0003
 40
 4.50000000000000E+0001
 50
 9.00000000000000E+0001
 51
 1.80000000000000E+0002
  0
LINE
  8
0
 10
 6.00000000000000E+0001
 20
 1.58500000000000E+0003
 11
 1.54000000000000E+0003
 21
 1.58500000000000E+0003
  0
ARC
  8
0
 10
 1.54000000000000E+0003
 20
 1.54000000000000E+0003
 40
 4.50000000000000E+0001
 50
 0.00000000000000E+0000
 51
 9.00000000000000E+0001
  0
LINE
  8
0
 10
 1.58500000000000E+0003
 20
 1.54000000000000E+0003
 11
 1.58500000000000E+0003
 21
 6.00000000000000E+0001
  0
ARC
  8
0
 10
 1.54000000000000E+0003
 20
 6.00000000000000E+0001
 40
 4.50000000000000E+0001
 50
 2.70000000000000E+0002
 51
 3.60000000000000E+0002
  0
LINE
  8
0
 10
 1.54000000000000E+0003
 20
 1.50000000000000E+0001
 11
 6.00000000000000E+0001
 21
 1.50000000000000E+0001
  0
ARC
  8
0
 10
 6.00000000000000E+0001
 20
 6.00000000000000E+0001
 40
 2.50000000000000E+0001
 50
 1.80000000000000E+0002
 51
 2.70000000000000E+0002
  0
LINE
  8
0
 10
 3.50000000000000E+0001
 20
 6.00000000000000E+0001
 11
 3.50000000000000E+0001
 21
 1.54000000000000E+0003
  0
ARC
  8
0
 10
 6.00000000000000E+0001
 20
 1.54000000000000E+0003
 40
 2.50000000000000E+0001
 50
 9.00000000000000E+0001
 51
 1.80000000000000E+0002
  0
LINE
  8
0
 10
 6.00000000000000E+0001
 20
 1.56500000000000E+0003
 11
 1.54000000000000E+0003
 21
 1.56500000000000E+0003
  0
ARC
  8
0
 10
 1.54000000000000E+0003
 20
 1.54000000000000E+0003
 40
 2.50000000000000E+0001
 50
 0.00000000000000E+0000
 51
 9.00000000000000E+0001
  0
LINE
  8
0
 10
 1.56500000000000E+0003
 20
 1.54000000000000E+0003
 11
 1.56500000000000E+0003
 21
 6.00000000000000E+0001
  0
ARC
  8
0
 10
 1.54000000000000E+0003
 20
 6.00000000000000E+0001
 40
 2.50000000000000E+0001
 50
 2.70000000000000E+0002
 51
 3.60000000000000E+0002
  0
LINE
  8
0
 10
 1.54000000000000E+0003
 20
 3.50000000000000E+0001
 11
 6.00000000000000E+0001
 21
 3.50000000000000E+0001
  0
LINE
  8
0
 10
 7.45000000000000E+0002
 20
 1.30700000000000E+0003
 11
 7.90000509446390E+0002
 21
 1.29538091843480E+0003
  0
ARC
  8
0
 10
 7.93000000000000E+0002
 20
 1.30700000000000E+0003
 40
 1.20000000000000E+0001
 50
 2.55525000000000E+0002
 51
 3.93805000000000E+0002
  0
LINE
  8
0
 10
 8.02971231041917E+0002
 20
 1.31367641756549E+0003
 11
 7.15000000000000E+0002
 21
 1.44500000000000E+0003
  0
LINE
  8
0
 10
 7.15000000000000E+0002
 20
 1.44500000000000E+0003
 11
 6.27028768958084E+0002
 21
 1.31367641756549E+0003
  0
ARC
  8
0
 10
 6.37000000000000E+0002
 20
 1.30700000000000E+0003
 40
 1.20000000000000E+0001
 50
 1.46195000000000E+0002
 51
 2.84475000000000E+0002
  0
LINE
  8
0
 10
 6.39999490553610E+0002
 20
 1.29538091843480E+0003
 11
 6.85000000000000E+0002
 21
 1.30700000000000E+0003
  0
LINE
  8
0
 10
 6.85000000000000E+0002
 20
 1.30700000000000E+0003
 11
 6.85000000000000E+0002
 21
 1.26500000000000E+0003
  0
ARC
  8
0
 10
 7.50000000000000E+0001
 20
 1.26500000000000E+0003
 40
 6.10000000000000E+0002
 50
 3.06870000000000E+0002
 51
 3.60000000000000E+0002
  0
LINE
  8
0
 10
 4.41000871770924E+0002
 20
 7.77000653829410E+0002
 11
 4.28999056772443E+0002
 21
 7.67999292578016E+0002
  0
ARC
  8
0
 10
 8.25000000000000E+0002
 20
 2.40000000000000E+0002
 40
 6.60000000000000E+0002
 50
 1.26870000000000E+0002
 51
 1.80000000000000E+0002
  0
LINE
  8
0
 10
 1.65000000000000E+0002
 20
 2.40000000000000E+0002
 11
 1.65000000000000E+0002
 21
 1.55000000000000E+0002
  0
LINE
  8
0
 10
 1.65000000000000E+0002
 20
 1.55000000000000E+0002
 11
 2.25000000000000E+0002
 21
 1.55000000000000E+0002
  0
LINE
  8
0
 10
 2.25000000000000E+0002
 20
 1.55000000000000E+0002
 11
 2.25000000000000E+0002
 21
 2.40000000000000E+0002
  0
ARC
  8
0
 10
 8.25000000000000E+0002
 20
 2.40000000000000E+0002
 40
 6.00000000000000E+0002
 50
 1.26870000000000E+0002
 51
 1.80000000000000E+0002
  0
LINE
  8
0
 10
 4.64999142520402E+0002
 20
 7.19999356889105E+0002
 11
 4.77000957518884E+0002
 21
 7.29000718140499E+0002
  0
ARC
  8
0
 10
 7.50000000000000E+0001
 20
 1.26500000000000E+0003
 40
 6.70000000000000E+0002
 50
 3.06870000000000E+0002
 51
 3.60000000000000E+0002
  0
LINE
  8
0
 10
 7.45000000000000E+0002
 20
 1.26500000000000E+0003
 11
 7.45000000000000E+0002
 21
 1.30700000000000E+0003
  0
LINE
  8
0
 10
 9.55000000000000E+0002
 20
 1.30700000000000E+0003
 11
 1.00000050944639E+0003
 21
 1.29538091843480E+0003
  0
ARC
  8
0
 10
 1.00300000000000E+0003
 20
 1.30700000000000E+0003
 40
 1.20000000000000E+0001
 50
 2.55525000000000E+0002
 51
 3.93805000000000E+0002
  0
LINE
  8
0
 10
 1.01297123104191E+0003
 20
 1.31367641756549E+0003
 11
 9.25000000000000E+0002
 21
 1.44500000000000E+0003
  0
LINE
  8
0
 10
 9.25000000000000E+0002
 20
 1.44500000000000E+0003
 11
 8.37028768958083E+0002
 21
 1.31367641756549E+0003
  0
ARC
  8
0
 10
 8.47000000000000E+0002
 20
 1.30700000000000E+0003
 40
 1.20000000000000E+0001
 50
 1.46195000000000E+0002
 51
 2.84475000000000E+0002
  0
LINE
  8
0
 10
 8.49999490553610E+0002
 20
 1.29538091843480E+0003
 11
 8.95000000000000E+0002
 21
 1.30700000000000E+0003
  0
LINE
  8
0
 10
 8.95000000000000E+0002
 20
 1.30700000000000E+0003
 11
 8.95000000000000E+0002
 21
 1.26500000000000E+0003
  0
ARC
  8
0
 10
 7.50000000000000E+0001
 20
 1.26500000000000E+0003
 40
 8.20000000000000E+0002
 50
 3.06870000000000E+0002
 51
 3.60000000000000E+0002
  0
LINE
  8
0
 10
 5.67001171888783E+0002
 20
 6.09000878918223E+0002
 11
 5.54999356890302E+0002
 21
 5.99999517666829E+0002
  0
ARC
  8
0
 10
 8.25000000000000E+0002
 20
 2.40000000000000E+0002
 40
 4.50000000000000E+0002
 50
 1.26870000000000E+0002
 51
 1.80000000000000E+0002
  0
LINE
  8
0
 10
 3.75000000000000E+0002
 20
 2.40000000000000E+0002
 11
 3.75000000000000E+0002
 21
 1.55000000000000E+0002
  0
LINE
  8
0
 10
 3.75000000000000E+0002
 20
 1.55000000000000E+0002
 11
 4.35000000000000E+0002
 21
 1.55000000000000E+0002
  0
LINE
  8
0
 10
 4.35000000000000E+0002
 20
 1.55000000000000E+0002
 11
 4.35000000000000E+0002
 21
 2.40000000000000E+0002
  0
ARC
  8
0
 10
 8.25000000000000E+0002
 20
 2.40000000000000E+0002
 40
 3.90000000000000E+0002
 50
 1.26870000000000E+0002
 51
 1.80000000000000E+0002
  0
LINE
  8
0
 10
 5.90999442638262E+0002
 20
 5.51999581977918E+0002
 11
 6.03001257636743E+0002
 21
 5.61000943229312E+0002
  0
ARC
  8
0
 10
 7.50000000000000E+0001
 20
 1.26500000000000E+0003
 40
 8.80000000000000E+0002
 50
 3.06870000000000E+0002
 51
 3.60000000000000E+0002
  0
LINE
  8
0
 10
 9.55000000000000E+0002
 20
 1.26500000000000E+0003
 11
 9.55000000000000E+0002
 21
 1.30700000000000E+0003
  0
LINE
  8
0
 10
 1.10500000000000E+0003
 20
 1.26500000000000E+0003
 11
 1.10461360998810E+0003
 21
 1.25195630732330E+0003
  0
LINE
  8
0
 10
 1.10461360998810E+0003
 20
 1.25195630732330E+0003
 11
 1.10406351998480E+0003
 21
 1.23907949734640E+0003
  0
LINE
  8
0
 10
 1.10406351998480E+0003
 20
 1.23907949734640E+0003
 11
 1.10335306303870E+0003
 21
 1.22636618914910E+0003
  0
LINE
  8
0
 10
 1.10335306303870E+0003
 20
 1.22636618914910E+0003
 11
 1.10248557219840E+0003
 21
 1.21381300181120E+0003
  0
LINE
  8
0
 10
 1.10248557219840E+0003
 20
 1.21381300181120E+0003
 11
 1.10146438051250E+0003
 21
 1.20141655441250E+0003
  0
LINE
  8
0
 10
 1.10146438051250E+0003
 20
 1.20141655441250E+0003
 11
 1.10029282102960E+0003
 21
 1.18917346603280E+0003
  0
LINE
  8
0
 10
 1.10029282102960E+0003
 20
 1.18917346603280E+0003
 11
 1.09897422679830E+0003
 21
 1.17708035575190E+0003
  0
LINE
  8
0
 10
 1.09897422679830E+0003
 20
 1.17708035575190E+0003
 11
 1.09751193086720E+0003
 21
 1.16513384264960E+0003
  0
LINE
  8
0
 10
 1.09751193086720E+0003
 20
 1.16513384264960E+0003
 11
 1.09590926628490E+0003
 21
 1.15333054580570E+0003
  0
LINE
  8
0
 10
 1.09590926628490E+0003
 20
 1.15333054580570E+0003
 11
 1.09416956610000E+0003
 21
 1.14166708430000E+0003
  0
LINE
  8
0
 10
 1.09416956610000E+0003
 20
 1.14166708430000E+0003
 11
 1.09229616336110E+0003
 21
 1.13014007721230E+0003
  0
LINE
  8
0
 10
 1.09229616336110E+0003
 20
 1.13014007721230E+0003
 11
 1.09029239111680E+0003
 21
 1.11874614362240E+0003
  0
LINE
  8
0
 10
 1.09029239111680E+0003
 20
 1.11874614362240E+0003
 11
 1.08816158241570E+0003
 21
 1.10748190261010E+0003
  0
LINE
  8
0
 10
 1.08816158241570E+0003
 20
 1.10748190261010E+0003
 11
 1.08590707030640E+0003
 21
 1.09634397325520E+0003
  0
LINE
  8
0
 10
 1.08590707030640E+0003
 20
 1.09634397325520E+0003
 11
 1.08353218783750E+0003
 21
 1.08532897463750E+0003
  0
LINE
  8
0
 10
 1.08353218783750E+0003
 20
 1.08532897463750E+0003
 11
 1.08104026805760E+0003
 21
 1.07443352583680E+0003
  0
LINE
  8
0
 10
 1.08104026805760E+0003
 20
 1.07443352583680E+0003
 11
 1.07843464401530E+0003
 21
 1.06365424593290E+0003
  0
LINE
  8
0
 10
 1.07843464401530E+0003
 20
 1.06365424593290E+0003
 11
 1.07571864875920E+0003
 21
 1.05298775400560E+0003
  0
LINE
  8
0
 10
 1.07571864875920E+0003
 20
 1.05298775400560E+0003
 11
 1.07289561533790E+0003
 21
 1.04243066913470E+0003
  0
LINE
  8
0
 10
 1.07289561533790E+0003
 20
 1.04243066913470E+0003
 11
 1.06996887680000E+0003
 21
 1.03197961040000E+0003
  0
LINE
  8
0
 10
 1.06996887680000E+0003
 20
 1.03197961040000E+0003
 11
 1.06694176619410E+0003
 21
 1.02163119688130E+0003
  0
LINE
  8
0
 10
 1.06694176619410E+0003
 20
 1.02163119688130E+0003
 11
 1.06381761656880E+0003
 21
 1.01138204765840E+0003
  0
LINE
  8
0
 10
 1.06381761656880E+0003
 20
 1.01138204765840E+0003
 11
 1.06059976097270E+0003
 21
 1.00122878181110E+0003
  0
LINE
  8
0
 10
 1.06059976097270E+0003
 20
 1.00122878181110E+0003
 11
 1.05729153245440E+0003
 21
 9.91168018419200E+0002
  0
LINE
  8
0
 10
 1.05729153245440E+0003
 20
 9.91168018419200E+0002
 11
 1.05389626406250E+0003
 21
 9.81196376562500E+0002
  0
LINE
  8
0
 10
 1.05389626406250E+0003
 20
 9.81196376562500E+0002
 11
 1.05041728884560E+0003
 21
 9.71310475320800E+0002
  0
LINE
  8
0
 10
 1.05041728884560E+0003
 20
 9.71310475320800E+0002
 11
 1.04685793985230E+0003
 21
 9.61506933773900E+0002
  0
LINE
  8
0
 10
 1.04685793985230E+0003
 20
 9.61506933773900E+0002
 11
 1.04322155013120E+0003
 21
 9.51782371001600E+0002
  0
LINE
  8
0
 10
 1.04322155013120E+0003
 20
 9.51782371001600E+0002
 11
 1.03951145273090E+0003
 21
 9.42133406083700E+0002
  0
LINE
  8
0
 10
 1.03951145273090E+0003
 20
 9.42133406083700E+0002
 11
 1.03573098070000E+0003
 21
 9.32556658100000E+0002
  0
LINE
  8
0
 10
 1.03573098070000E+0003
 20
 9.32556658100000E+0002
 11
 1.03188346708710E+0003
 21
 9.23048746130300E+0002
  0
LINE
  8
0
 10
 1.03188346708710E+0003
 20
 9.23048746130300E+0002
 11
 1.02797224494080E+0003
 21
 9.13606289254400E+0002
  0
LINE
  8
0
 10
 1.02797224494080E+0003
 20
 9.13606289254400E+0002
 11
 1.02400064730970E+0003
 21
 9.04225906552100E+0002
  0
LINE
  8
0
 10
 1.02400064730970E+0003
 20
 9.04225906552100E+0002
 11
 1.01997200724240E+0003
 21
 8.94904217103200E+0002
  0
LINE
  8
0
 10
 1.01997200724240E+0003
 20
 8.94904217103200E+0002
 11
 1.01588965778750E+0003
 21
 8.85637839987500E+0002
  0
LINE
  8
0
 10
 1.01588965778750E+0003
 20
 8.85637839987500E+0002
 11
 1.01175693199360E+0003
 21
 8.76423394284800E+0002
  0
LINE
  8
0
 10
 1.01175693199360E+0003
 20
 8.76423394284800E+0002
 11
 1.00757716290930E+0003
 21
 8.67257499074900E+0002
  0
LINE
  8
0
 10
 1.00757716290930E+0003
 20
 8.67257499074900E+0002
 11
 1.00335368358320E+0003
 21
 8.58136773437600E+0002
  0
LINE
  8
0
 10
 1.00335368358320E+0003
 20
 8.58136773437600E+0002
 11
 9.99089827063900E+0002
 21
 8.49057836452700E+0002
  0
LINE
  8
0
 10
 9.99089827063900E+0002
 20
 8.49057836452700E+0002
 11
 9.94788926400000E+0002
 21
 8.40017307200000E+0002
  0
LINE
  8
0
 10
 9.94788926400000E+0002
 20
 8.40017307200000E+0002
 11
 9.90454314640100E+0002
 21
 8.31011804759300E+0002
  0
LINE
  8
0
 10
 9.90454314640100E+0002
 20
 8.31011804759300E+0002
 11
 9.86089324832800E+0002
 21
 8.22037948210400E+0002
  0
LINE
  8
0
 10
 9.86089324832800E+0002
 20
 8.22037948210400E+0002
 11
 9.81697290026700E+0002
 21
 8.13092356633100E+0002
  0
LINE
  8
0
 10
 9.81697290026700E+0002
 20
 8.13092356633100E+0002
 11
 9.77281543270400E+0002
 21
 8.04171649107200E+0002
  0
LINE
  8
0
 10
 9.77281543270400E+0002
 20
 8.04171649107200E+0002
 11
 9.72845417612500E+0002
 21
 7.95272444712500E+0002
  0
LINE
  8
0
 10
 9.72845417612500E+0002
 20
 7.95272444712500E+0002
 11
 9.68392246101600E+0002
 21
 7.86391362528800E+0002
  0
LINE
  8
0
 10
 9.68392246101600E+0002
 20
 7.86391362528800E+0002
 11
 9.63925361786300E+0002
 21
 7.77525021635900E+0002
  0
LINE
  8
0
 10
 9.63925361786300E+0002
 20
 7.77525021635900E+0002
 11
 9.59448097715200E+0002
 21
 7.68670041113600E+0002
  0
LINE
  8
0
 10
 9.59448097715200E+0002
 20
 7.68670041113600E+0002
 11
 9.54963786936900E+0002
 21
 7.59823040041700E+0002
  0
LINE
  8
0
 10
 9.54963786936900E+0002
 20
 7.59823040041700E+0002
 11
 9.50475762500000E+0002
 21
 7.50980637500000E+0002
  0
LINE
  8
0
 10
 9.50475762500000E+0002
 20
 7.50980637500000E+0002
 11
 9.45987357453100E+0002
 21
 7.42139452568300E+0002
  0
LINE
  8
0
 10
 9.45987357453100E+0002
 20
 7.42139452568300E+0002
 11
 9.41501904844800E+0002
 21
 7.33296104326400E+0002
  0
LINE
  8
0
 10
 9.41501904844800E+0002
 20
 7.33296104326400E+0002
 11
 9.37022737723700E+0002
 21
 7.24447211854100E+0002
  0
LINE
  8
0
 10
 9.37022737723700E+0002
 20
 7.24447211854100E+0002
 11
 9.32553189138400E+0002
 21
 7.15589394231200E+0002
  0
LINE
  8
0
 10
 9.32553189138400E+0002
 20
 7.15589394231200E+0002
 11
 9.28096592137500E+0002
 21
 7.06719270537500E+0002
  0
LINE
  8
0
 10
 9.28096592137500E+0002
 20
 7.06719270537500E+0002
 11
 9.23656279769600E+0002
 21
 6.97833459852800E+0002
  0
LINE
  8
0
 10
 9.23656279769600E+0002
 20
 6.97833459852800E+0002
 11
 9.19235585083300E+0002
 21
 6.88928581256900E+0002
  0
LINE
  8
0
 10
 9.19235585083300E+0002
 20
 6.88928581256900E+0002
 11
 9.14837841127200E+0002
 21
 6.80001253829600E+0002
  0
LINE
  8
0
 10
 9.14837841127200E+0002
 20
 6.80001253829600E+0002
 11
 9.10466380949900E+0002
 21
 6.71048096650700E+0002
  0
LINE
  8
0
 10
 9.10466380949900E+0002
 20
 6.71048096650700E+0002
 11
 9.06124537600000E+0002
 21
 6.62065728800000E+0002
  0
LINE
  8
0
 10
 9.06124537600000E+0002
 20
 6.62065728800000E+0002
 11
 9.01815644126100E+0002
 21
 6.53050769357300E+0002
  0
LINE
  8
0
 10
 9.01815644126100E+0002
 20
 6.53050769357300E+0002
 11
 8.97543033576800E+0002
 21
 6.43999837402400E+0002
  0
LINE
  8
0
 10
 8.97543033576800E+0002
 20
 6.43999837402400E+0002
 11
 8.93310039000700E+0002
 21
 6.34909552015100E+0002
  0
LINE
  8
0
 10
 8.93310039000700E+0002
 20
 6.34909552015100E+0002
 11
 8.89119993446400E+0002
 21
 6.25776532275200E+0002
  0
LINE
  8
0
 10
 8.89119993446400E+0002
 20
 6.25776532275200E+0002
 11
 8.84976229962500E+0002
 21
 6.16597397262500E+0002
  0
LINE
  8
0
 10
 8.84976229962500E+0002
 20
 6.16597397262500E+0002
 11
 8.80882081597600E+0002
 21
 6.07368766056800E+0002
  0
LINE
  8
0
 10
 8.80882081597600E+0002
 20
 6.07368766056800E+0002
 11
 8.76840881400300E+0002
 21
 5.98087257737900E+0002
  0
LINE
  8
0
 10
 8.76840881400300E+0002
 20
 5.98087257737900E+0002
 11
 8.72855962419200E+0002
 21
 5.88749491385600E+0002
  0
LINE
  8
0
 10
 8.72855962419200E+0002
 20
 5.88749491385600E+0002
 11
 8.68930657702900E+0002
 21
 5.79352086079700E+0002
  0
LINE
  8
0
 10
 8.68930657702900E+0002
 20
 5.79352086079700E+0002
 11
 8.65068300300000E+0002
 21
 5.69891660900000E+0002
  0
LINE
  8
0
 10
 8.65068300300000E+0002
 20
 5.69891660900000E+0002
 11
 8.61272223259100E+0002
 21
 5.60364834926300E+0002
  0
LINE
  8
0
 10
 8.61272223259100E+0002
 20
 5.60364834926300E+0002
 11
 8.57545759628800E+0002
 21
 5.50768227238400E+0002
  0
LINE
  8
0
 10
 8.57545759628800E+0002
 20
 5.50768227238400E+0002
 11
 8.53892242457700E+0002
 21
 5.41098456916100E+0002
  0
LINE
  8
0
 10
 8.53892242457700E+0002
 20
 5.41098456916100E+0002
 11
 8.50315004794400E+0002
 21
 5.31352143039200E+0002
  0
LINE
  8
0
 10
 8.50315004794400E+0002
 20
 5.31352143039200E+0002
 11
 8.46817379687500E+0002
 21
 5.21525904687500E+0002
  0
LINE
  8
0
 10
 8.46817379687500E+0002
 20
 5.21525904687500E+0002
 11
 8.43402700185600E+0002
 21
 5.11616360940800E+0002
  0
LINE
  8
0
 10
 8.43402700185600E+0002
 20
 5.11616360940800E+0002
 11
 8.40074299337300E+0002
 21
 5.01620130878900E+0002
  0
LINE
  8
0
 10
 8.40074299337300E+0002
 20
 5.01620130878900E+0002
 11
 8.36835510191200E+0002
 21
 4.91533833581600E+0002
  0
LINE
  8
0
 10
 8.36835510191200E+0002
 20
 4.91533833581600E+0002
 11
 8.33689665795900E+0002
 21
 4.81354088128700E+0002
  0
LINE
  8
0
 10
 8.33689665795900E+0002
 20
 4.81354088128700E+0002
 11
 8.30640099200000E+0002
 21
 4.71077513600000E+0002
  0
LINE
  8
0
 10
 8.30640099200000E+0002
 20
 4.71077513600000E+0002
 11
 8.27690143452100E+0002
 21
 4.60700729075300E+0002
  0
LINE
  8
0
 10
 8.27690143452100E+0002
 20
 4.60700729075300E+0002
 11
 8.24843131600800E+0002
 21
 4.50220353634400E+0002
  0
LINE
  8
0
 10
 8.24843131600800E+0002
 20
 4.50220353634400E+0002
 11
 8.22102396694700E+0002
 21
 4.39633006357100E+0002
  0
LINE
  8
0
 10
 8.22102396694700E+0002
 20
 4.39633006357100E+0002
 11
 8.19471271782400E+0002
 21
 4.28935306323200E+0002
  0
LINE
  8
0
 10
 8.19471271782400E+0002
 20
 4.28935306323200E+0002
 11
 8.16953089912500E+0002
 21
 4.18123872612500E+0002
  0
LINE
  8
0
 10
 8.16953089912500E+0002
 20
 4.18123872612500E+0002
 11
 8.14551184133600E+0002
 21
 4.07195324304800E+0002
  0
LINE
  8
0
 10
 8.14551184133600E+0002
 20
 4.07195324304800E+0002
 11
 8.12268887494300E+0002
 21
 3.96146280479900E+0002
  0
LINE
  8
0
 10
 8.12268887494300E+0002
 20
 3.96146280479900E+0002
 11
 8.10109533043200E+0002
 21
 3.84973360217600E+0002
  0
LINE
  8
0
 10
 8.10109533043200E+0002
 20
 3.84973360217600E+0002
 11
 8.08076453828900E+0002
 21
 3.73673182597700E+0002
  0
LINE
  8
0
 10
 8.08076453828900E+0002
 20
 3.73673182597700E+0002
 11
 8.06172982900000E+0002
 21
 3.62242366700000E+0002
  0
LINE
  8
0
 10
 8.06172982900000E+0002
 20
 3.62242366700000E+0002
 11
 8.04402453305100E+0002
 21
 3.50677531604300E+0002
  0
LINE
  8
0
 10
 8.04402453305100E+0002
 20
 3.50677531604300E+0002
 11
 8.02768198092800E+0002
 21
 3.38975296390400E+0002
  0
LINE
  8
0
 10
 8.02768198092800E+0002
 20
 3.38975296390400E+0002
 11
 8.01273550311700E+0002
 21
 3.27132280138100E+0002
  0
LINE
  8
0
 10
 8.01273550311700E+0002
 20
 3.27132280138100E+0002
 11
 7.99921843010400E+0002
 21
 3.15145101927200E+0002
  0
LINE
  8
0
 10
 7.99921843010400E+0002
 20
 3.15145101927200E+0002
 11
 7.98716409237500E+0002
 21
 3.03010380837500E+0002
  0
LINE
  8
0
 10
 7.98716409237500E+0002
 20
 3.03010380837500E+0002
 11
 7.97660582041600E+0002
 21
 2.90724735948800E+0002
  0
LINE
  8
0
 10
 7.97660582041600E+0002
 20
 2.90724735948800E+0002
 11
 7.96757694471300E+0002
 21
 2.78284786340900E+0002
  0
LINE
  8
0
 10
 7.96757694471300E+0002
 20
 2.78284786340900E+0002
 11
 7.96011079575200E+0002
 21
 2.65687151093600E+0002
  0
LINE
  8
0
 10
 7.96011079575200E+0002
 20
 2.65687151093600E+0002
 11
 7.95424070401900E+0002
 21
 2.52928449286700E+0002
  0
LINE
  8
0
 10
 7.95424070401900E+0002
 20
 2.52928449286700E+0002
 11
 7.95000000000000E+0002
 21
 2.40005300000000E+0002
  0
LINE
  8
0
 10
 7.95000000000000E+0002
 20
 2.40005300000000E+0002
 11
 7.95000000000000E+0002
 21
 1.55000000000000E+0002
  0
LINE
  8
0
 10
 7.95000000000000E+0002
 20
 1.55000000000000E+0002
 11
 8.55000000000000E+0002
 21
 1.55000000000000E+0002
  0
LINE
  8
0
 10
 8.55000000000000E+0002
 20
 1.55000000000000E+0002
 11
 8.55000000000000E+0002
 21
 2.40005300000000E+0002
  0
LINE
  8
0
 10
 8.55000000000000E+0002
 20
 2.40005300000000E+0002
 11
 8.55424029624700E+0002
 21
 2.52928449294400E+0002
  0
LINE
  8
0
 10
 8.55424029624700E+0002
 20
 2.52928449294400E+0002
 11
 8.56011000437600E+0002
 21
 2.65687151155200E+0002
  0
LINE
  8
0
 10
 8.56011000437600E+0002
 20
 2.65687151155200E+0002
 11
 8.56757579346900E+0002
 21
 2.78284786548800E+0002
  0
LINE
  8
0
 10
 8.56757579346900E+0002
 20
 2.78284786548800E+0002
 11
 8.57660433260800E+0002
 21
 2.90724736441600E+0002
  0
LINE
  8
0
 10
 8.57660433260800E+0002
 20
 2.90724736441600E+0002
 11
 8.58716229087500E+0002
 21
 3.03010381800000E+0002
  0
LINE
  8
0
 10
 8.58716229087500E+0002
 20
 3.03010381800000E+0002
 11
 8.59921633735200E+0002
 21
 3.15145103590400E+0002
  0
LINE
  8
0
 10
 8.59921633735200E+0002
 20
 3.15145103590400E+0002
 11
 8.61273314112100E+0002
 21
 3.27132282779200E+0002
  0
LINE
  8
0
 10
 8.61273314112100E+0002
 20
 3.27132282779200E+0002
 11
 8.62767937126400E+0002
 21
 3.38975300332800E+0002
  0
LINE
  8
0
 10
 8.62767937126400E+0002
 20
 3.38975300332800E+0002
 11
 8.64402169686300E+0002
 21
 3.50677537217600E+0002
  0
LINE
  8
0
 10
 8.64402169686300E+0002
 20
 3.50677537217600E+0002
 11
 8.66172678700000E+0002
 21
 3.62242374400000E+0002
  0
LINE
  8
0
 10
 8.66172678700000E+0002
 20
 3.62242374400000E+0002
 11
 8.68076131075700E+0002
 21
 3.73673192846400E+0002
  0
LINE
  8
0
 10
 8.68076131075700E+0002
 20
 3.73673192846400E+0002
 11
 8.70109193721600E+0002
 21
 3.84973373523200E+0002
  0
LINE
  8
0
 10
 8.70109193721600E+0002
 20
 3.84973373523200E+0002
 11
 8.72268533545900E+0002
 21
 3.96146297396800E+0002
  0
LINE
  8
0
 10
 8.72268533545900E+0002
 20
 3.96146297396800E+0002
 11
 8.74550817456800E+0002
 21
 4.07195345433600E+0002
  0
LINE
  8
0
 10
 8.74550817456800E+0002
 20
 4.07195345433600E+0002
 11
 8.76952712362500E+0002
 21
 4.18123898600000E+0002
  0
LINE
  8
0
 10
 8.76952712362500E+0002
 20
 4.18123898600000E+0002
 11
 8.79470885171200E+0002
 21
 4.28935337862400E+0002
  0
LINE
  8
0
 10
 8.79470885171200E+0002
 20
 4.28935337862400E+0002
 11
 8.82102002791100E+0002
 21
 4.39633044187200E+0002
  0
LINE
  8
0
 10
 8.82102002791100E+0002
 20
 4.39633044187200E+0002
 11
 8.84842732130400E+0002
 21
 4.50220398540800E+0002
  0
LINE
  8
0
 10
 8.84842732130400E+0002
 20
 4.50220398540800E+0002
 11
 8.87689740097300E+0002
 21
 4.60700781889600E+0002
  0
LINE
  8
0
 10
 8.87689740097300E+0002
 20
 4.60700781889600E+0002
 11
 8.90639693600000E+0002
 21
 4.71077575200000E+0002
  0
LINE
  8
0
 10
 8.90639693600000E+0002
 20
 4.71077575200000E+0002
 11
 8.93689259546700E+0002
 21
 4.81354159438400E+0002
  0
LINE
  8
0
 10
 8.93689259546700E+0002
 20
 4.81354159438400E+0002
 11
 8.96835104845600E+0002
 21
 4.91533915571200E+0002
  0
LINE
  8
0
 10
 8.96835104845600E+0002
 20
 4.91533915571200E+0002
 11
 9.00073896404900E+0002
 21
 5.01620224564800E+0002
  0
LINE
  8
0
 10
 9.00073896404900E+0002
 20
 5.01620224564800E+0002
 11
 9.03402301132800E+0002
 21
 5.11616467385600E+0002
  0
LINE
  8
0
 10
 9.03402301132800E+0002
 20
 5.11616467385600E+0002
 11
 9.06816985937500E+0002
 21
 5.21526025000000E+0002
  0
LINE
  8
0
 10
 9.06816985937500E+0002
 20
 5.21526025000000E+0002
 11
 9.10314617727200E+0002
 21
 5.31352278374400E+0002
  0
LINE
  8
0
 10
 9.10314617727200E+0002
 20
 5.31352278374400E+0002
 11
 9.13891863410100E+0002
 21
 5.41098608475200E+0002
  0
LINE
  8
0
 10
 9.13891863410100E+0002
 20
 5.41098608475200E+0002
 11
 9.17545389894400E+0002
 21
 5.50768396268800E+0002
  0
LINE
  8
0
 10
 9.17545389894400E+0002
 20
 5.50768396268800E+0002
 11
 9.21271864088300E+0002
 21
 5.60365022721600E+0002
  0
LINE
  8
0
 10
 9.21271864088300E+0002
 20
 5.60365022721600E+0002
 11
 9.25067952900000E+0002
 21
 5.69891868800000E+0002
  0
LINE
  8
0
 10
 9.25067952900000E+0002
 20
 5.69891868800000E+0002
 11
 9.28930323237700E+0002
 21
 5.79352315470400E+0002
  0
LINE
  8
0
 10
 9.28930323237700E+0002
 20
 5.79352315470400E+0002
 11
 9.32855642009600E+0002
 21
 5.88749743699200E+0002
  0
LINE
  8
0
 10
 9.32855642009600E+0002
 20
 5.88749743699200E+0002
 11
 9.36840576123900E+0002
 21
 5.98087534452800E+0002
  0
LINE
  8
0
 10
 9.36840576123900E+0002
 20
 5.98087534452800E+0002
 11
 9.40881792488800E+0002
 21
 6.07369068697600E+0002
  0
LINE
  8
0
 10
 9.40881792488800E+0002
 20
 6.07369068697600E+0002
 11
 9.44975958012500E+0002
 21
 6.16597727400000E+0002
  0
LINE
  8
0
 10
 9.44975958012500E+0002
 20
 6.16597727400000E+0002
 11
 9.49119739603200E+0002
 21
 6.25776891526400E+0002
  0
LINE
  8
0
 10
 9.49119739603200E+0002
 20
 6.25776891526400E+0002
 11
 9.53309804169100E+0002
 21
 6.34909942043200E+0002
  0
LINE
  8
0
 10
 9.53309804169100E+0002
 20
 6.34909942043200E+0002
 11
 9.57542818618400E+0002
 21
 6.44000259916800E+0002
  0
LINE
  8
0
 10
 9.57542818618400E+0002
 20
 6.44000259916800E+0002
 11
 9.61815449859300E+0002
 21
 6.53051226113600E+0002
  0
LINE
  8
0
 10
 9.61815449859300E+0002
 20
 6.53051226113600E+0002
 11
 9.66124364800000E+0002
 21
 6.62066221600000E+0002
  0
LINE
  8
0
 10
 9.66124364800000E+0002
 20
 6.62066221600000E+0002
 11
 9.70466230348700E+0002
 21
 6.71048627342400E+0002
  0
LINE
  8
0
 10
 9.70466230348700E+0002
 20
 6.71048627342400E+0002
 11
 9.74837713413600E+0002
 21
 6.80001824307200E+0002
  0
LINE
  8
0
 10
 9.74837713413600E+0002
 20
 6.80001824307200E+0002
 11
 9.79235480902900E+0002
 21
 6.88929193460800E+0002
  0
LINE
  8
0
 10
 9.79235480902900E+0002
 20
 6.88929193460800E+0002
 11
 9.83656199724800E+0002
 21
 6.97834115769600E+0002
  0
LINE
  8
0
 10
 9.83656199724800E+0002
 20
 6.97834115769600E+0002
 11
 9.88096536787500E+0002
 21
 7.06719972200000E+0002
  0
LINE
  8
0
 10
 9.88096536787500E+0002
 20
 7.06719972200000E+0002
 11
 9.92553158999200E+0002
 21
 7.15590143718400E+0002
  0
LINE
  8
0
 10
 9.92553158999200E+0002
 20
 7.15590143718400E+0002
 11
 9.97022733268100E+0002
 21
 7.24448011291200E+0002
  0
LINE
  8
0
 10
 9.97022733268100E+0002
 20
 7.24448011291200E+0002
 11
 1.00150192650240E+0003
 21
 7.33296955884800E+0002
  0
LINE
  8
0
 10
 1.00150192650240E+0003
 20
 7.33296955884800E+0002
 11
 1.00598740561030E+0003
 21
 7.42140358465600E+0002
  0
LINE
  8
0
 10
 1.00598740561030E+0003
 20
 7.42140358465600E+0002
 11
 1.01047583750000E+0003
 21
 7.50981600000000E+0002
  0
LINE
  8
0
 10
 1.01047583750000E+0003
 20
 7.50981600000000E+0002
 11
 1.01496388907970E+0003
 21
 7.59824061454400E+0002
  0
LINE
  8
0
 10
 1.01496388907970E+0003
 20
 7.59824061454400E+0002
 11
 1.01944822725760E+0003
 21
 7.68671123795200E+0002
  0
LINE
  8
0
 10
 1.01944822725760E+0003
 20
 7.68671123795200E+0002
 11
 1.02392551894190E+0003
 21
 7.77526167988800E+0002
  0
LINE
  8
0
 10
 1.02392551894190E+0003
 20
 7.77526167988800E+0002
 11
 1.02839243104080E+0003
 21
 7.86392575001600E+0002
  0
LINE
  8
0
 10
 1.02839243104080E+0003
 20
 7.86392575001600E+0002
 11
 1.03284563046250E+0003
 21
 7.95273725800000E+0002
  0
LINE
  8
0
 10
 1.03284563046250E+0003
 20
 7.95273725800000E+0002
 11
 1.03728178411520E+0003
 21
 8.04173001350400E+0002
  0
LINE
  8
0
 10
 1.03728178411520E+0003
 20
 8.04173001350400E+0002
 11
 1.04169755890710E+0003
 21
 8.13093782619200E+0002
  0
LINE
  8
0
 10
 1.04169755890710E+0003
 20
 8.13093782619200E+0002
 11
 1.04608962174640E+0003
 21
 8.22039450572800E+0002
  0
LINE
  8
0
 10
 1.04608962174640E+0003
 20
 8.22039450572800E+0002
 11
 1.05045463954130E+0003
 21
 8.31013386177600E+0002
  0
LINE
  8
0
 10
 1.05045463954130E+0003
 20
 8.31013386177600E+0002
 11
 1.05478927920000E+0003
 21
 8.40018970400000E+0002
  0
LINE
  8
0
 10
 1.05478927920000E+0003
 20
 8.40018970400000E+0002
 11
 1.05909020763070E+0003
 21
 8.49059584206400E+0002
  0
LINE
  8
0
 10
 1.05909020763070E+0003
 20
 8.49059584206400E+0002
 11
 1.06335409174160E+0003
 21
 8.58138608563200E+0002
  0
LINE
  8
0
 10
 1.06335409174160E+0003
 20
 8.58138608563200E+0002
 11
 1.06757759844090E+0003
 21
 8.67259424436800E+0002
  0
LINE
  8
0
 10
 1.06757759844090E+0003
 20
 8.67259424436800E+0002
 11
 1.07175739463680E+0003
 21
 8.76425412793600E+0002
  0
LINE
  8
0
 10
 1.07175739463680E+0003
 20
 8.76425412793600E+0002
 11
 1.07589014723750E+0003
 21
 8.85639954600000E+0002
  0
LINE
  8
0
 10
 1.07589014723750E+0003
 20
 8.85639954600000E+0002
 11
 1.07997252315120E+0003
 21
 8.94906430822400E+0002
  0
LINE
  8
0
 10
 1.07997252315120E+0003
 20
 8.94906430822400E+0002
 11
 1.08400118928610E+0003
 21
 9.04228222427200E+0002
  0
LINE
  8
0
 10
 1.08400118928610E+0003
 20
 9.04228222427200E+0002
 11
 1.08797281255040E+0003
 21
 9.13608710380800E+0002
  0
LINE
  8
0
 10
 1.08797281255040E+0003
 20
 9.13608710380800E+0002
 11
 1.09188405985230E+0003
 21
 9.23051275649600E+0002
  0
LINE
  8
0
 10
 1.09188405985230E+0003
 20
 9.23051275649600E+0002
 11
 1.09573159810000E+0003
 21
 9.32559299200000E+0002
  0
LINE
  8
0
 10
 1.09573159810000E+0003
 20
 9.32559299200000E+0002
 11
 1.09951209420170E+0003
 21
 9.42136161998400E+0002
  0
LINE
  8
0
 10
 1.09951209420170E+0003
 20
 9.42136161998400E+0002
 11
 1.10322221506560E+0003
 21
 9.51785245011200E+0002
  0
LINE
  8
0
 10
 1.10322221506560E+0003
 20
 9.51785245011200E+0002
 11
 1.10685862759990E+0003
 21
 9.61509929204800E+0002
  0
LINE
  8
0
 10
 1.10685862759990E+0003
 20
 9.61509929204800E+0002
 11
 1.11041799871280E+0003
 21
 9.71313595545600E+0002
  0
LINE
  8
0
 10
 1.11041799871280E+0003
 20
 9.71313595545600E+0002
 11
 1.11389699531250E+0003
 21
 9.81199625000000E+0002
  0
LINE
  8
0
 10
 1.11389699531250E+0003
 20
 9.81199625000000E+0002
 11
 1.11729228430720E+0003
 21
 9.91171398534400E+0002
  0
LINE
  8
0
 10
 1.11729228430720E+0003
 20
 9.91171398534400E+0002
 11
 1.12060053260510E+0003
 21
 1.00123229711520E+0003
  0
LINE
  8
0
 10
 1.12060053260510E+0003
 20
 1.00123229711520E+0003
 11
 1.12381840711440E+0003
 21
 1.01138570170880E+0003
  0
LINE
  8
0
 10
 1.12381840711440E+0003
 20
 1.01138570170880E+0003
 11
 1.12694257474330E+0003
 21
 1.02163499328160E+0003
  0
LINE
  8
0
 10
 1.12694257474330E+0003
 20
 1.02163499328160E+0003
 11
 1.12996970240000E+0003
 21
 1.03198355280000E+0003
  0
LINE
  8
0
 10
 1.12996970240000E+0003
 20
 1.03198355280000E+0003
 11
 1.13289645699270E+0003
 21
 1.04243476123040E+0003
  0
LINE
  8
0
 10
 1.13289645699270E+0003
 20
 1.04243476123040E+0003
 11
 1.13571950542960E+0003
 21
 1.05299199953920E+0003
  0
LINE
  8
0
 10
 1.13571950542960E+0003
 20
 1.05299199953920E+0003
 11
 1.13843551461890E+0003
 21
 1.06365864869280E+0003
  0
LINE
  8
0
 10
 1.13843551461890E+0003
 20
 1.06365864869280E+0003
 11
 1.14104115146880E+0003
 21
 1.07443808965760E+0003
  0
LINE
  8
0
 10
 1.14104115146880E+0003
 20
 1.07443808965760E+0003
 11
 1.14353308288750E+0003
 21
 1.08533370340000E+0003
  0
LINE
  8
0
 10
 1.14353308288750E+0003
 20
 1.08533370340000E+0003
 11
 1.14590797578320E+0003
 21
 1.09634887088640E+0003
  0
LINE
  8
0
 10
 1.14590797578320E+0003
 20
 1.09634887088640E+0003
 11
 1.14816249706410E+0003
 21
 1.10748697308320E+0003
  0
LINE
  8
0
 10
 1.14816249706410E+0003
 20
 1.10748697308320E+0003
 11
 1.15029331363840E+0003
 21
 1.11875139095680E+0003
  0
LINE
  8
0
 10
 1.15029331363840E+0003
 20
 1.11875139095680E+0003
 11
 1.15229709241430E+0003
 21
 1.13014550547360E+0003
  0
LINE
  8
0
 10
 1.15229709241430E+0003
 20
 1.13014550547360E+0003
 11
 1.15417050030000E+0003
 21
 1.14167269760000E+0003
  0
LINE
  8
0
 10
 1.15417050030000E+0003
 20
 1.14167269760000E+0003
 11
 1.15591020420370E+0003
 21
 1.15333634830240E+0003
  0
LINE
  8
0
 10
 1.15591020420370E+0003
 20
 1.15333634830240E+0003
 11
 1.15751287103360E+0003
 21
 1.16513983854720E+0003
  0
LINE
  8
0
 10
 1.15751287103360E+0003
 20
 1.16513983854720E+0003
 11
 1.15897516769790E+0003
 21
 1.17708654930080E+0003
  0
LINE
  8
0
 10
 1.15897516769790E+0003
 20
 1.17708654930080E+0003
 11
 1.16029376110480E+0003
 21
 1.18917986152960E+0003
  0
LINE
  8
0
 10
 1.16029376110480E+0003
 20
 1.18917986152960E+0003
 11
 1.16146531816250E+0003
 21
 1.20142315620000E+0003
  0
LINE
  8
0
 10
 1.16146531816250E+0003
 20
 1.20142315620000E+0003
 11
 1.16248650577920E+0003
 21
 1.21381981427840E+0003
  0
LINE
  8
0
 10
 1.16248650577920E+0003
 20
 1.21381981427840E+0003
 11
 1.16335399086310E+0003
 21
 1.22637321673120E+0003
  0
LINE
  8
0
 10
 1.16335399086310E+0003
 20
 1.22637321673120E+0003
 11
 1.16406444032240E+0003
 21
 1.23908674452480E+0003
  0
LINE
  8
0
 10
 1.16406444032240E+0003
 20
 1.23908674452480E+0003
 11
 1.16461452106530E+0003
 21
 1.25196377862560E+0003
  0
LINE
  8
0
 10
 1.16461452106530E+0003
 20
 1.25196377862560E+0003
 11
 1.16500090000000E+0003
 21
 1.26500770000000E+0003
  0
LINE
  8
0
 10
 1.16500090000000E+0003
 20
 1.26500770000000E+0003
 11
 1.16500000000000E+0003
 21
 1.30700000000000E+0003
  0
LINE
  8
0
 10
 1.16500000000000E+0003
 20
 1.30700000000000E+0003
 11
 1.21000050944639E+0003
 21
 1.29538091843480E+0003
  0
ARC
  8
0
 10
 1.21300000000000E+0003
 20
 1.30700000000000E+0003
 40
 1.20000000000000E+0001
 50
 2.55525000000000E+0002
 51
 3.93805000000000E+0002
  0
LINE
  8
0
 10
 1.22297123104192E+0003
 20
 1.31367641756549E+0003
 11
 1.13500000000000E+0003
 21
 1.44500000000000E+0003
  0
LINE
  8
0
 10
 1.13500000000000E+0003
 20
 1.44500000000000E+0003
 11
 1.04702876895808E+0003
 21
 1.31367641756549E+0003
  0
ARC
  8
0
 10
 1.05700000000000E+0003
 20
 1.30700000000000E+0003
 40
 1.20000000000000E+0001
 50
 1.46195000000000E+0002
 51
 2.84475000000000E+0002
  0
LINE
  8
0
 10
 1.05999949055361E+0003
 20
 1.29538091843480E+0003
 11
 1.10500000000000E+0003
 21
 1.30700000000000E+0003
  0
LINE
  8
0
 10
 1.10500000000000E+0003
 20
 1.30700000000000E+0003
 11
 1.10500000000000E+0003
 21
 1.26500000000000E+0003
  0
LINE
  8
0
 10
 1.31500000000000E+0003
 20
 1.26500000000000E+0003
 11
 1.31461360998810E+0003
 21
 1.25195630732330E+0003
  0
LINE
  8
0
 10
 1.31461360998810E+0003
 20
 1.25195630732330E+0003
 11
 1.31406351998480E+0003
 21
 1.23907949734640E+0003
  0
LINE
  8
0
 10
 1.31406351998480E+0003
 20
 1.23907949734640E+0003
 11
 1.31335306303870E+0003
 21
 1.22636618914910E+0003
  0
LINE
  8
0
 10
 1.31335306303870E+0003
 20
 1.22636618914910E+0003
 11
 1.31248557219840E+0003
 21
 1.21381300181120E+0003
  0
LINE
  8
0
 10
 1.31248557219840E+0003
 20
 1.21381300181120E+0003
 11
 1.31146438051250E+0003
 21
 1.20141655441250E+0003
  0
LINE
  8
0
 10
 1.31146438051250E+0003
 20
 1.20141655441250E+0003
 11
 1.31029282102960E+0003
 21
 1.18917346603280E+0003
  0
LINE
  8
0
 10
 1.31029282102960E+0003
 20
 1.18917346603280E+0003
 11
 1.30897422679830E+0003
 21
 1.17708035575190E+0003
  0
LINE
  8
0
 10
 1.30897422679830E+0003
 20
 1.17708035575190E+0003
 11
 1.30751193086720E+0003
 21
 1.16513384264960E+0003
  0
LINE
  8
0
 10
 1.30751193086720E+0003
 20
 1.16513384264960E+0003
 11
 1.30590926628490E+0003
 21
 1.15333054580570E+0003
  0
LINE
  8
0
 10
 1.30590926628490E+0003
 20
 1.15333054580570E+0003
 11
 1.30416956610000E+0003
 21
 1.14166708430000E+0003
  0
LINE
  8
0
 10
 1.30416956610000E+0003
 20
 1.14166708430000E+0003
 11
 1.30229616336110E+0003
 21
 1.13014007721230E+0003
  0
LINE
  8
0
 10
 1.30229616336110E+0003
 20
 1.13014007721230E+0003
 11
 1.30029239111680E+0003
 21
 1.11874614362240E+0003
  0
LINE
  8
0
 10
 1.30029239111680E+0003
 20
 1.11874614362240E+0003
 11
 1.29816158241570E+0003
 21
 1.10748190261010E+0003
  0
LINE
  8
0
 10
 1.29816158241570E+0003
 20
 1.10748190261010E+0003
 11
 1.29590707030640E+0003
 21
 1.09634397325520E+0003
  0
LINE
  8
0
 10
 1.29590707030640E+0003
 20
 1.09634397325520E+0003
 11
 1.29353218783750E+0003
 21
 1.08532897463750E+0003
  0
LINE
  8
0
 10
 1.29353218783750E+0003
 20
 1.08532897463750E+0003
 11
 1.29104026805760E+0003
 21
 1.07443352583680E+0003
  0
LINE
  8
0
 10
 1.29104026805760E+0003
 20
 1.07443352583680E+0003
 11
 1.28843464401530E+0003
 21
 1.06365424593290E+0003
  0
LINE
  8
0
 10
 1.28843464401530E+0003
 20
 1.06365424593290E+0003
 11
 1.28571864875920E+0003
 21
 1.05298775400560E+0003
  0
LINE
  8
0
 10
 1.28571864875920E+0003
 20
 1.05298775400560E+0003
 11
 1.28289561533790E+0003
 21
 1.04243066913470E+0003
  0
LINE
  8
0
 10
 1.28289561533790E+0003
 20
 1.04243066913470E+0003
 11
 1.27996887680000E+0003
 21
 1.03197961040000E+0003
  0
LINE
  8
0
 10
 1.27996887680000E+0003
 20
 1.03197961040000E+0003
 11
 1.27694176619410E+0003
 21
 1.02163119688130E+0003
  0
LINE
  8
0
 10
 1.27694176619410E+0003
 20
 1.02163119688130E+0003
 11
 1.27381761656880E+0003
 21
 1.01138204765840E+0003
  0
LINE
  8
0
 10
 1.27381761656880E+0003
 20
 1.01138204765840E+0003
 11
 1.27059976097270E+0003
 21
 1.00122878181110E+0003
  0
LINE
  8
0
 10
 1.27059976097270E+0003
 20
 1.00122878181110E+0003
 11
 1.26729153245440E+0003
 21
 9.91168018419200E+0002
  0
LINE
  8
0
 10
 1.26729153245440E+0003
 20
 9.91168018419200E+0002
 11
 1.26389626406250E+0003
 21
 9.81196376562500E+0002
  0
LINE
  8
0
 10
 1.26389626406250E+0003
 20
 9.81196376562500E+0002
 11
 1.26041728884560E+0003
 21
 9.71310475320800E+0002
  0
LINE
  8
0
 10
 1.26041728884560E+0003
 20
 9.71310475320800E+0002
 11
 1.25685793985230E+0003
 21
 9.61506933773900E+0002
  0
LINE
  8
0
 10
 1.25685793985230E+0003
 20
 9.61506933773900E+0002
 11
 1.25322155013120E+0003
 21
 9.51782371001600E+0002
  0
LINE
  8
0
 10
 1.25322155013120E+0003
 20
 9.51782371001600E+0002
 11
 1.24951145273090E+0003
 21
 9.42133406083700E+0002
  0
LINE
  8
0
 10
 1.24951145273090E+0003
 20
 9.42133406083700E+0002
 11
 1.24573098070000E+0003
 21
 9.32556658100000E+0002
  0
LINE
  8
0
 10
 1.24573098070000E+0003
 20
 9.32556658100000E+0002
 11
 1.24188346708710E+0003
 21
 9.23048746130300E+0002
  0
LINE
  8
0
 10
 1.24188346708710E+0003
 20
 9.23048746130300E+0002
 11
 1.23797224494080E+0003
 21
 9.13606289254400E+0002
  0
LINE
  8
0
 10
 1.23797224494080E+0003
 20
 9.13606289254400E+0002
 11
 1.23400064730970E+0003
 21
 9.04225906552100E+0002
  0
LINE
  8
0
 10
 1.23400064730970E+0003
 20
 9.04225906552100E+0002
 11
 1.22997200724240E+0003
 21
 8.94904217103200E+0002
  0
LINE
  8
0
 10
 1.22997200724240E+0003
 20
 8.94904217103200E+0002
 11
 1.22588965778750E+0003
 21
 8.85637839987500E+0002
  0
LINE
  8
0
 10
 1.22588965778750E+0003
 20
 8.85637839987500E+0002
 11
 1.22175693199360E+0003
 21
 8.76423394284800E+0002
  0
LINE
  8
0
 10
 1.22175693199360E+0003
 20
 8.76423394284800E+0002
 11
 1.21757716290930E+0003
 21
 8.67257499074900E+0002
  0
LINE
  8
0
 10
 1.21757716290930E+0003
 20
 8.67257499074900E+0002
 11
 1.21335368358320E+0003
 21
 8.58136773437600E+0002
  0
LINE
  8
0
 10
 1.21335368358320E+0003
 20
 8.58136773437600E+0002
 11
 1.20908982706390E+0003
 21
 8.49057836452700E+0002
  0
LINE
  8
0
 10
 1.20908982706390E+0003
 20
 8.49057836452700E+0002
 11
 1.20478892640000E+0003
 21
 8.40017307200000E+0002
  0
LINE
  8
0
 10
 1.20478892640000E+0003
 20
 8.40017307200000E+0002
 11
 1.20045431464010E+0003
 21
 8.31011804759300E+0002
  0
LINE
  8
0
 10
 1.20045431464010E+0003
 20
 8.31011804759300E+0002
 11
 1.19608932483280E+0003
 21
 8.22037948210400E+0002
  0
LINE
  8
0
 10
 1.19608932483280E+0003
 20
 8.22037948210400E+0002
 11
 1.19169729002670E+0003
 21
 8.13092356633100E+0002
  0
LINE
  8
0
 10
 1.19169729002670E+0003
 20
 8.13092356633100E+0002
 11
 1.18728154327040E+0003
 21
 8.04171649107200E+0002
  0
LINE
  8
0
 10
 1.18728154327040E+0003
 20
 8.04171649107200E+0002
 11
 1.18284541761250E+0003
 21
 7.95272444712500E+0002
  0
LINE
  8
0
 10
 1.18284541761250E+0003
 20
 7.95272444712500E+0002
 11
 1.17839224610160E+0003
 21
 7.86391362528800E+0002
  0
LINE
  8
0
 10
 1.17839224610160E+0003
 20
 7.86391362528800E+0002
 11
 1.17392536178630E+0003
 21
 7.77525021635900E+0002
  0
LINE
  8
0
 10
 1.17392536178630E+0003
 20
 7.77525021635900E+0002
 11
 1.16944809771520E+0003
 21
 7.68670041113600E+0002
  0
LINE
  8
0
 10
 1.16944809771520E+0003
 20
 7.68670041113600E+0002
 11
 1.16496378693690E+0003
 21
 7.59823040041700E+0002
  0
LINE
  8
0
 10
 1.16496378693690E+0003
 20
 7.59823040041700E+0002
 11
 1.16047576250000E+0003
 21
 7.50980637500000E+0002
  0
LINE
  8
0
 10
 1.16047576250000E+0003
 20
 7.50980637500000E+0002
 11
 1.15598735745310E+0003
 21
 7.42139452568300E+0002
  0
LINE
  8
0
 10
 1.15598735745310E+0003
 20
 7.42139452568300E+0002
 11
 1.15150190484480E+0003
 21
 7.33296104326400E+0002
  0
LINE
  8
0
 10
 1.15150190484480E+0003
 20
 7.33296104326400E+0002
 11
 1.14702273772370E+0003
 21
 7.24447211854100E+0002
  0
LINE
  8
0
 10
 1.14702273772370E+0003
 20
 7.24447211854100E+0002
 11
 1.14255318913840E+0003
 21
 7.15589394231200E+0002
  0
LINE
  8
0
 10
 1.14255318913840E+0003
 20
 7.15589394231200E+0002
 11
 1.13809659213750E+0003
 21
 7.06719270537500E+0002
  0
LINE
  8
0
 10
 1.13809659213750E+0003
 20
 7.06719270537500E+0002
 11
 1.13365627976960E+0003
 21
 6.97833459852800E+0002
  0
LINE
  8
0
 10
 1.13365627976960E+0003
 20
 6.97833459852800E+0002
 11
 1.12923558508330E+0003
 21
 6.88928581256900E+0002
  0
LINE
  8
0
 10
 1.12923558508330E+0003
 20
 6.88928581256900E+0002
 11
 1.12483784112720E+0003
 21
 6.80001253829600E+0002
  0
LINE
  8
0
 10
 1.12483784112720E+0003
 20
 6.80001253829600E+0002
 11
 1.12046638094990E+0003
 21
 6.71048096650700E+0002
  0
LINE
  8
0
 10
 1.12046638094990E+0003
 20
 6.71048096650700E+0002
 11
 1.11612453760000E+0003
 21
 6.62065728800000E+0002
  0
LINE
  8
0
 10
 1.11612453760000E+0003
 20
 6.62065728800000E+0002
 11
 1.11181564412610E+0003
 21
 6.53050769357300E+0002
  0
LINE
  8
0
 10
 1.11181564412610E+0003
 20
 6.53050769357300E+0002
 11
 1.10754303357680E+0003
 21
 6.43999837402400E+0002
  0
LINE
  8
0
 10
 1.10754303357680E+0003
 20
 6.43999837402400E+0002
 11
 1.10331003900070E+0003
 21
 6.34909552015100E+0002
  0
LINE
  8
0
 10
 1.10331003900070E+0003
 20
 6.34909552015100E+0002
 11
 1.09911999344640E+0003
 21
 6.25776532275200E+0002
  0
LINE
  8
0
 10
 1.09911999344640E+0003
 20
 6.25776532275200E+0002
 11
 1.09497622996250E+0003
 21
 6.16597397262500E+0002
  0
LINE
  8
0
 10
 1.09497622996250E+0003
 20
 6.16597397262500E+0002
 11
 1.09088208159760E+0003
 21
 6.07368766056800E+0002
  0
LINE
  8
0
 10
 1.09088208159760E+0003
 20
 6.07368766056800E+0002
 11
 1.08684088140030E+0003
 21
 5.98087257737900E+0002
  0
LINE
  8
0
 10
 1.08684088140030E+0003
 20
 5.98087257737900E+0002
 11
 1.08285596241920E+0003
 21
 5.88749491385600E+0002
  0
LINE
  8
0
 10
 1.08285596241920E+0003
 20
 5.88749491385600E+0002
 11
 1.07893065770290E+0003
 21
 5.79352086079700E+0002
  0
LINE
  8
0
 10
 1.07893065770290E+0003
 20
 5.79352086079700E+0002
 11
 1.07506830030000E+0003
 21
 5.69891660900000E+0002
  0
LINE
  8
0
 10
 1.07506830030000E+0003
 20
 5.69891660900000E+0002
 11
 1.07127222325910E+0003
 21
 5.60364834926300E+0002
  0
LINE
  8
0
 10
 1.07127222325910E+0003
 20
 5.60364834926300E+0002
 11
 1.06754575962880E+0003
 21
 5.50768227238400E+0002
  0
LINE
  8
0
 10
 1.06754575962880E+0003
 20
 5.50768227238400E+0002
 11
 1.06389224245770E+0003
 21
 5.41098456916100E+0002
  0
LINE
  8
0
 10
 1.06389224245770E+0003
 20
 5.41098456916100E+0002
 11
 1.06031500479440E+0003
 21
 5.31352143039200E+0002
  0
LINE
  8
0
 10
 1.06031500479440E+0003
 20
 5.31352143039200E+0002
 11
 1.05681737968750E+0003
 21
 5.21525904687500E+0002
  0
LINE
  8
0
 10
 1.05681737968750E+0003
 20
 5.21525904687500E+0002
 11
 1.05340270018560E+0003
 21
 5.11616360940800E+0002
  0
LINE
  8
0
 10
 1.05340270018560E+0003
 20
 5.11616360940800E+0002
 11
 1.05007429933730E+0003
 21
 5.01620130878900E+0002
  0
LINE
  8
0
 10
 1.05007429933730E+0003
 20
 5.01620130878900E+0002
 11
 1.04683551019120E+0003
 21
 4.91533833581600E+0002
  0
LINE
  8
0
 10
 1.04683551019120E+0003
 20
 4.91533833581600E+0002
 11
 1.04368966579590E+0003
 21
 4.81354088128700E+0002
  0
LINE
  8
0
 10
 1.04368966579590E+0003
 20
 4.81354088128700E+0002
 11
 1.04064009920000E+0003
 21
 4.71077513600000E+0002
  0
LINE
  8
0
 10
 1.04064009920000E+0003
 20
 4.71077513600000E+0002
 11
 1.03769014345210E+0003
 21
 4.60700729075300E+0002
  0
LINE
  8
0
 10
 1.03769014345210E+0003
 20
 4.60700729075300E+0002
 11
 1.03484313160080E+0003
 21
 4.50220353634400E+0002
  0
LINE
  8
0
 10
 1.03484313160080E+0003
 20
 4.50220353634400E+0002
 11
 1.03210239669470E+0003
 21
 4.39633006357100E+0002
  0
LINE
  8
0
 10
 1.03210239669470E+0003
 20
 4.39633006357100E+0002
 11
 1.02947127178240E+0003
 21
 4.28935306323200E+0002
  0
LINE
  8
0
 10
 1.02947127178240E+0003
 20
 4.28935306323200E+0002
 11
 1.02695308991250E+0003
 21
 4.18123872612500E+0002
  0
LINE
  8
0
 10
 1.02695308991250E+0003
 20
 4.18123872612500E+0002
 11
 1.02455118413360E+0003
 21
 4.07195324304800E+0002
  0
LINE
  8
0
 10
 1.02455118413360E+0003
 20
 4.07195324304800E+0002
 11
 1.02226888749430E+0003
 21
 3.96146280479900E+0002
  0
LINE
  8
0
 10
 1.02226888749430E+0003
 20
 3.96146280479900E+0002
 11
 1.02010953304320E+0003
 21
 3.84973360217600E+0002
  0
LINE
  8
0
 10
 1.02010953304320E+0003
 20
 3.84973360217600E+0002
 11
 1.01807645382890E+0003
 21
 3.73673182597700E+0002
  0
LINE
  8
0
 10
 1.01807645382890E+0003
 20
 3.73673182597700E+0002
 11
 1.01617298290000E+0003
 21
 3.62242366700000E+0002
  0
LINE
  8
0
 10
 1.01617298290000E+0003
 20
 3.62242366700000E+0002
 11
 1.01440245330510E+0003
 21
 3.50677531604300E+0002
  0
LINE
  8
0
 10
 1.01440245330510E+0003
 20
 3.50677531604300E+0002
 11
 1.01276819809280E+0003
 21
 3.38975296390400E+0002
  0
LINE
  8
0
 10
 1.01276819809280E+0003
 20
 3.38975296390400E+0002
 11
 1.01127355031170E+0003
 21
 3.27132280138100E+0002
  0
LINE
  8
0
 10
 1.01127355031170E+0003
 20
 3.27132280138100E+0002
 11
 1.00992184301040E+0003
 21
 3.15145101927200E+0002
  0
LINE
  8
0
 10
 1.00992184301040E+0003
 20
 3.15145101927200E+0002
 11
 1.00871640923750E+0003
 21
 3.03010380837500E+0002
  0
LINE
  8
0
 10
 1.00871640923750E+0003
 20
 3.03010380837500E+0002
 11
 1.00766058204160E+0003
 21
 2.90724735948800E+0002
  0
LINE
  8
0
 10
 1.00766058204160E+0003
 20
 2.90724735948800E+0002
 11
 1.00675769447130E+0003
 21
 2.78284786340900E+0002
  0
LINE
  8
0
 10
 1.00675769447130E+0003
 20
 2.78284786340900E+0002
 11
 1.00601107957520E+0003
 21
 2.65687151093600E+0002
  0
LINE
  8
0
 10
 1.00601107957520E+0003
 20
 2.65687151093600E+0002
 11
 1.00542407040190E+0003
 21
 2.52928449286700E+0002
  0
LINE
  8
0
 10
 1.00542407040190E+0003
 20
 2.52928449286700E+0002
 11
 1.00500000000000E+0003
 21
 2.40005300000000E+0002
  0
LINE
  8
0
 10
 1.00500000000000E+0003
 20
 2.40005300000000E+0002
 11
 1.00500000000000E+0003
 21
 1.55000000000000E+0002
  0
LINE
  8
0
 10
 1.00500000000000E+0003
 20
 1.55000000000000E+0002
 11
 1.06500000000000E+0003
 21
 1.55000000000000E+0002
  0
LINE
  8
0
 10
 1.06500000000000E+0003
 20
 1.55000000000000E+0002
 11
 1.06500000000000E+0003
 21
 2.40005300000000E+0002
  0
LINE
  8
0
 10
 1.06500000000000E+0003
 20
 2.40005300000000E+0002
 11
 1.06542402962470E+0003
 21
 2.52928449294400E+0002
  0
LINE
  8
0
 10
 1.06542402962470E+0003
 20
 2.52928449294400E+0002
 11
 1.06601100043760E+0003
 21
 2.65687151155200E+0002
  0
LINE
  8
0
 10
 1.06601100043760E+0003
 20
 2.65687151155200E+0002
 11
 1.06675757934690E+0003
 21
 2.78284786548800E+0002
  0
LINE
  8
0
 10
 1.06675757934690E+0003
 20
 2.78284786548800E+0002
 11
 1.06766043326080E+0003
 21
 2.90724736441600E+0002
  0
LINE
  8
0
 10
 1.06766043326080E+0003
 20
 2.90724736441600E+0002
 11
 1.06871622908750E+0003
 21
 3.03010381800000E+0002
  0
LINE
  8
0
 10
 1.06871622908750E+0003
 20
 3.03010381800000E+0002
 11
 1.06992163373520E+0003
 21
 3.15145103590400E+0002
  0
LINE
  8
0
 10
 1.06992163373520E+0003
 20
 3.15145103590400E+0002
 11
 1.07127331411210E+0003
 21
 3.27132282779200E+0002
  0
LINE
  8
0
 10
 1.07127331411210E+0003
 20
 3.27132282779200E+0002
 11
 1.07276793712640E+0003
 21
 3.38975300332800E+0002
  0
LINE
  8
0
 10
 1.07276793712640E+0003
 20
 3.38975300332800E+0002
 11
 1.07440216968630E+0003
 21
 3.50677537217600E+0002
  0
LINE
  8
0
 10
 1.07440216968630E+0003
 20
 3.50677537217600E+0002
 11
 1.07617267870000E+0003
 21
 3.62242374400000E+0002
  0
LINE
  8
0
 10
 1.07617267870000E+0003
 20
 3.62242374400000E+0002
 11
 1.07807613107570E+0003
 21
 3.73673192846400E+0002
  0
LINE
  8
0
 10
 1.07807613107570E+0003
 20
 3.73673192846400E+0002
 11
 1.08010919372160E+0003
 21
 3.84973373523200E+0002
  0
LINE
  8
0
 10
 1.08010919372160E+0003
 20
 3.84973373523200E+0002
 11
 1.08226853354590E+0003
 21
 3.96146297396800E+0002
  0
LINE
  8
0
 10
 1.08226853354590E+0003
 20
 3.96146297396800E+0002
 11
 1.08455081745680E+0003
 21
 4.07195345433600E+0002
  0
LINE
  8
0
 10
 1.08455081745680E+0003
 20
 4.07195345433600E+0002
 11
 1.08695271236250E+0003
 21
 4.18123898600000E+0002
  0
LINE
  8
0
 10
 1.08695271236250E+0003
 20
 4.18123898600000E+0002
 11
 1.08947088517120E+0003
 21
 4.28935337862400E+0002
  0
LINE
  8
0
 10
 1.08947088517120E+0003
 20
 4.28935337862400E+0002
 11
 1.09210200279110E+0003
 21
 4.39633044187200E+0002
  0
LINE
  8
0
 10
 1.09210200279110E+0003
 20
 4.39633044187200E+0002
 11
 1.09484273213040E+0003
 21
 4.50220398540800E+0002
  0
LINE
  8
0
 10
 1.09484273213040E+0003
 20
 4.50220398540800E+0002
 11
 1.09768974009730E+0003
 21
 4.60700781889600E+0002
  0
LINE
  8
0
 10
 1.09768974009730E+0003
 20
 4.60700781889600E+0002
 11
 1.10063969360000E+0003
 21
 4.71077575200000E+0002
  0
LINE
  8
0
 10
 1.10063969360000E+0003
 20
 4.71077575200000E+0002
 11
 1.10368925954670E+0003
 21
 4.81354159438400E+0002
  0
LINE
  8
0
 10
 1.10368925954670E+0003
 20
 4.81354159438400E+0002
 11
 1.10683510484560E+0003
 21
 4.91533915571200E+0002
  0
LINE
  8
0
 10
 1.10683510484560E+0003
 20
 4.91533915571200E+0002
 11
 1.11007389640490E+0003
 21
 5.01620224564800E+0002
  0
LINE
  8
0
 10
 1.11007389640490E+0003
 20
 5.01620224564800E+0002
 11
 1.11340230113280E+0003
 21
 5.11616467385600E+0002
  0
LINE
  8
0
 10
 1.11340230113280E+0003
 20
 5.11616467385600E+0002
 11
 1.11681698593750E+0003
 21
 5.21526025000000E+0002
  0
LINE
  8
0
 10
 1.11681698593750E+0003
 20
 5.21526025000000E+0002
 11
 1.12031461772720E+0003
 21
 5.31352278374400E+0002
  0
LINE
  8
0
 10
 1.12031461772720E+0003
 20
 5.31352278374400E+0002
 11
 1.12389186341010E+0003
 21
 5.41098608475200E+0002
  0
LINE
  8
0
 10
 1.12389186341010E+0003
 20
 5.41098608475200E+0002
 11
 1.12754538989440E+0003
 21
 5.50768396268800E+0002
  0
LINE
  8
0
 10
 1.12754538989440E+0003
 20
 5.50768396268800E+0002
 11
 1.13127186408830E+0003
 21
 5.60365022721600E+0002
  0
LINE
  8
0
 10
 1.13127186408830E+0003
 20
 5.60365022721600E+0002
 11
 1.13506795290000E+0003
 21
 5.69891868800000E+0002
  0
LINE
  8
0
 10
 1.13506795290000E+0003
 20
 5.69891868800000E+0002
 11
 1.13893032323770E+0003
 21
 5.79352315470400E+0002
  0
LINE
  8
0
 10
 1.13893032323770E+0003
 20
 5.79352315470400E+0002
 11
 1.14285564200960E+0003
 21
 5.88749743699200E+0002
  0
LINE
  8
0
 10
 1.14285564200960E+0003
 20
 5.88749743699200E+0002
 11
 1.14684057612390E+0003
 21
 5.98087534452800E+0002
  0
LINE
  8
0
 10
 1.14684057612390E+0003
 20
 5.98087534452800E+0002
 11
 1.15088179248880E+0003
 21
 6.07369068697600E+0002
  0
LINE
  8
0
 10
 1.15088179248880E+0003
 20
 6.07369068697600E+0002
 11
 1.15497595801250E+0003
 21
 6.16597727400000E+0002
  0
LINE
  8
0
 10
 1.15497595801250E+0003
 20
 6.16597727400000E+0002
 11
 1.15911973960320E+0003
 21
 6.25776891526400E+0002
  0
LINE
  8
0
 10
 1.15911973960320E+0003
 20
 6.25776891526400E+0002
 11
 1.16330980416910E+0003
 21
 6.34909942043200E+0002
  0
LINE
  8
0
 10
 1.16330980416910E+0003
 20
 6.34909942043200E+0002
 11
 1.16754281861840E+0003
 21
 6.44000259916800E+0002
  0
LINE
  8
0
 10
 1.16754281861840E+0003
 20
 6.44000259916800E+0002
 11
 1.17181544985930E+0003
 21
 6.53051226113600E+0002
  0
LINE
  8
0
 10
 1.17181544985930E+0003
 20
 6.53051226113600E+0002
 11
 1.17612436480000E+0003
 21
 6.62066221600000E+0002
  0
LINE
  8
0
 10
 1.17612436480000E+0003
 20
 6.62066221600000E+0002
 11
 1.18046623034870E+0003
 21
 6.71048627342400E+0002
  0
LINE
  8
0
 10
 1.18046623034870E+0003
 20
 6.71048627342400E+0002
 11
 1.18483771341360E+0003
 21
 6.80001824307200E+0002
  0
LINE
  8
0
 10
 1.18483771341360E+0003
 20
 6.80001824307200E+0002
 11
 1.18923548090290E+0003
 21
 6.88929193460800E+0002
  0
LINE
  8
0
 10
 1.18923548090290E+0003
 20
 6.88929193460800E+0002
 11
 1.19365619972480E+0003
 21
 6.97834115769600E+0002
  0
LINE
  8
0
 10
 1.19365619972480E+0003
 20
 6.97834115769600E+0002
 11
 1.19809653678750E+0003
 21
 7.06719972200000E+0002
  0
LINE
  8
0
 10
 1.19809653678750E+0003
 20
 7.06719972200000E+0002
 11
 1.20255315899920E+0003
 21
 7.15590143718400E+0002
  0
LINE
  8
0
 10
 1.20255315899920E+0003
 20
 7.15590143718400E+0002
 11
 1.20702273326810E+0003
 21
 7.24448011291200E+0002
  0
LINE
  8
0
 10
 1.20702273326810E+0003
 20
 7.24448011291200E+0002
 11
 1.21150192650240E+0003
 21
 7.33296955884800E+0002
  0
LINE
  8
0
 10
 1.21150192650240E+0003
 20
 7.33296955884800E+0002
 11
 1.21598740561030E+0003
 21
 7.42140358465600E+0002
  0
LINE
  8
0
 10
 1.21598740561030E+0003
 20
 7.42140358465600E+0002
 11
 1.22047583750000E+0003
 21
 7.50981600000000E+0002
  0
LINE
  8
0
 10
 1.22047583750000E+0003
 20
 7.50981600000000E+0002
 11
 1.22496388907970E+0003
 21
 7.59824061454400E+0002
  0
LINE
  8
0
 10
 1.22496388907970E+0003
 20
 7.59824061454400E+0002
 11
 1.22944822725760E+0003
 21
 7.68671123795200E+0002
  0
LINE
  8
0
 10
 1.22944822725760E+0003
 20
 7.68671123795200E+0002
 11
 1.23392551894190E+0003
 21
 7.77526167988800E+0002
  0
LINE
  8
0
 10
 1.23392551894190E+0003
 20
 7.77526167988800E+0002
 11
 1.23839243104080E+0003
 21
 7.86392575001600E+0002
  0
LINE
  8
0
 10
 1.23839243104080E+0003
 20
 7.86392575001600E+0002
 11
 1.24284563046250E+0003
 21
 7.95273725800000E+0002
  0
LINE
  8
0
 10
 1.24284563046250E+0003
 20
 7.95273725800000E+0002
 11
 1.24728178411520E+0003
 21
 8.04173001350400E+0002
  0
LINE
  8
0
 10
 1.24728178411520E+0003
 20
 8.04173001350400E+0002
 11
 1.25169755890710E+0003
 21
 8.13093782619200E+0002
  0
LINE
  8
0
 10
 1.25169755890710E+0003
 20
 8.13093782619200E+0002
 11
 1.25608962174640E+0003
 21
 8.22039450572800E+0002
  0
LINE
  8
0
 10
 1.25608962174640E+0003
 20
 8.22039450572800E+0002
 11
 1.26045463954130E+0003
 21
 8.31013386177600E+0002
  0
LINE
  8
0
 10
 1.26045463954130E+0003
 20
 8.31013386177600E+0002
 11
 1.26478927920000E+0003
 21
 8.40018970400000E+0002
  0
LINE
  8
0
 10
 1.26478927920000E+0003
 20
 8.40018970400000E+0002
 11
 1.26909020763070E+0003
 21
 8.49059584206400E+0002
  0
LINE
  8
0
 10
 1.26909020763070E+0003
 20
 8.49059584206400E+0002
 11
 1.27335409174160E+0003
 21
 8.58138608563200E+0002
  0
LINE
  8
0
 10
 1.27335409174160E+0003
 20
 8.58138608563200E+0002
 11
 1.27757759844090E+0003
 21
 8.67259424436800E+0002
  0
LINE
  8
0
 10
 1.27757759844090E+0003
 20
 8.67259424436800E+0002
 11
 1.28175739463680E+0003
 21
 8.76425412793600E+0002
  0
LINE
  8
0
 10
 1.28175739463680E+0003
 20
 8.76425412793600E+0002
 11
 1.28589014723750E+0003
 21
 8.85639954600000E+0002
  0
LINE
  8
0
 10
 1.28589014723750E+0003
 20
 8.85639954600000E+0002
 11
 1.28997252315120E+0003
 21
 8.94906430822400E+0002
  0
LINE
  8
0
 10
 1.28997252315120E+0003
 20
 8.94906430822400E+0002
 11
 1.29400118928610E+0003
 21
 9.04228222427200E+0002
  0
LINE
  8
0
 10
 1.29400118928610E+0003
 20
 9.04228222427200E+0002
 11
 1.29797281255040E+0003
 21
 9.13608710380800E+0002
  0
LINE
  8
0
 10
 1.29797281255040E+0003
 20
 9.13608710380800E+0002
 11
 1.30188405985230E+0003
 21
 9.23051275649600E+0002
  0
LINE
  8
0
 10
 1.30188405985230E+0003
 20
 9.23051275649600E+0002
 11
 1.30573159810000E+0003
 21
 9.32559299200000E+0002
  0
LINE
  8
0
 10
 1.30573159810000E+0003
 20
 9.32559299200000E+0002
 11
 1.30951209420170E+0003
 21
 9.42136161998400E+0002
  0
LINE
  8
0
 10
 1.30951209420170E+0003
 20
 9.42136161998400E+0002
 11
 1.31322221506560E+0003
 21
 9.51785245011200E+0002
  0
LINE
  8
0
 10
 1.31322221506560E+0003
 20
 9.51785245011200E+0002
 11
 1.31685862759990E+0003
 21
 9.61509929204800E+0002
  0
LINE
  8
0
 10
 1.31685862759990E+0003
 20
 9.61509929204800E+0002
 11
 1.32041799871280E+0003
 21
 9.71313595545600E+0002
  0
LINE
  8
0
 10
 1.32041799871280E+0003
 20
 9.71313595545600E+0002
 11
 1.32389699531250E+0003
 21
 9.81199625000000E+0002
  0
LINE
  8
0
 10
 1.32389699531250E+0003
 20
 9.81199625000000E+0002
 11
 1.32729228430720E+0003
 21
 9.91171398534400E+0002
  0
LINE
  8
0
 10
 1.32729228430720E+0003
 20
 9.91171398534400E+0002
 11
 1.33060053260510E+0003
 21
 1.00123229711520E+0003
  0
LINE
  8
0
 10
 1.33060053260510E+0003
 20
 1.00123229711520E+0003
 11
 1.33381840711440E+0003
 21
 1.01138570170880E+0003
  0
LINE
  8
0
 10
 1.33381840711440E+0003
 20
 1.01138570170880E+0003
 11
 1.33694257474330E+0003
 21
 1.02163499328160E+0003
  0
LINE
  8
0
 10
 1.33694257474330E+0003
 20
 1.02163499328160E+0003
 11
 1.33996970240000E+0003
 21
 1.03198355280000E+0003
  0
LINE
  8
0
 10
 1.33996970240000E+0003
 20
 1.03198355280000E+0003
 11
 1.34289645699270E+0003
 21
 1.04243476123040E+0003
  0
LINE
  8
0
 10
 1.34289645699270E+0003
 20
 1.04243476123040E+0003
 11
 1.34571950542960E+0003
 21
 1.05299199953920E+0003
  0
LINE
  8
0
 10
 1.34571950542960E+0003
 20
 1.05299199953920E+0003
 11
 1.34843551461890E+0003
 21
 1.06365864869280E+0003
  0
LINE
  8
0
 10
 1.34843551461890E+0003
 20
 1.06365864869280E+0003
 11
 1.35104115146880E+0003
 21
 1.07443808965760E+0003
  0
LINE
  8
0
 10
 1.35104115146880E+0003
 20
 1.07443808965760E+0003
 11
 1.35353308288750E+0003
 21
 1.08533370340000E+0003
  0
LINE
  8
0
 10
 1.35353308288750E+0003
 20
 1.08533370340000E+0003
 11
 1.35590797578320E+0003
 21
 1.09634887088640E+0003
  0
LINE
  8
0
 10
 1.35590797578320E+0003
 20
 1.09634887088640E+0003
 11
 1.35816249706410E+0003
 21
 1.10748697308320E+0003
  0
LINE
  8
0
 10
 1.35816249706410E+0003
 20
 1.10748697308320E+0003
 11
 1.36029331363840E+0003
 21
 1.11875139095680E+0003
  0
LINE
  8
0
 10
 1.36029331363840E+0003
 20
 1.11875139095680E+0003
 11
 1.36229709241430E+0003
 21
 1.13014550547360E+0003
  0
LINE
  8
0
 10
 1.36229709241430E+0003
 20
 1.13014550547360E+0003
 11
 1.36417050030000E+0003
 21
 1.14167269760000E+0003
  0
LINE
  8
0
 10
 1.36417050030000E+0003
 20
 1.14167269760000E+0003
 11
 1.36591020420370E+0003
 21
 1.15333634830240E+0003
  0
LINE
  8
0
 10
 1.36591020420370E+0003
 20
 1.15333634830240E+0003
 11
 1.36751287103360E+0003
 21
 1.16513983854720E+0003
  0
LINE
  8
0
 10
 1.36751287103360E+0003
 20
 1.16513983854720E+0003
 11
 1.36897516769790E+0003
 21
 1.17708654930080E+0003
  0
LINE
  8
0
 10
 1.36897516769790E+0003
 20
 1.17708654930080E+0003
 11
 1.37029376110480E+0003
 21
 1.18917986152960E+0003
  0
LINE
  8
0
 10
 1.37029376110480E+0003
 20
 1.18917986152960E+0003
 11
 1.37146531816250E+0003
 21
 1.20142315620000E+0003
  0
LINE
  8
0
 10
 1.37146531816250E+0003
 20
 1.20142315620000E+0003
 11
 1.37248650577920E+0003
 21
 1.21381981427840E+0003
  0
LINE
  8
0
 10
 1.37248650577920E+0003
 20
 1.21381981427840E+0003
 11
 1.37335399086310E+0003
 21
 1.22637321673120E+0003
  0
LINE
  8
0
 10
 1.37335399086310E+0003
 20
 1.22637321673120E+0003
 11
 1.37406444032240E+0003
 21
 1.23908674452480E+0003
  0
LINE
  8
0
 10
 1.37406444032240E+0003
 20
 1.23908674452480E+0003
 11
 1.37461452106530E+0003
 21
 1.25196377862560E+0003
  0
LINE
  8
0
 10
 1.37461452106530E+0003
 20
 1.25196377862560E+0003
 11
 1.37500090000000E+0003
 21
 1.26500770000000E+0003
  0
LINE
  8
0
 10
 1.37500090000000E+0003
 20
 1.26500770000000E+0003
 11
 1.37500000000000E+0003
 21
 1.30700000000000E+0003
  0
LINE
  8
0
 10
 1.37500000000000E+0003
 20
 1.30700000000000E+0003
 11
 1.42000050944639E+0003
 21
 1.29538091843480E+0003
  0
ARC
  8
0
 10
 1.42300000000000E+0003
 20
 1.30700000000000E+0003
 40
 1.20000000000000E+0001
 50
 2.55525000000000E+0002
 51
 3.93805000000000E+0002
  0
LINE
  8
0
 10
 1.43297123104192E+0003
 20
 1.31367641756549E+0003
 11
 1.34500000000000E+0003
 21
 1.44500000000000E+0003
  0
LINE
  8
0
 10
 1.34500000000000E+0003
 20
 1.44500000000000E+0003
 11
 1.25702876895808E+0003
 21
 1.31367641756549E+0003
  0
ARC
  8
0
 10
 1.26700000000000E+0003
 20
 1.30700000000000E+0003
 40
 1.20000000000000E+0001
 50
 1.46195000000000E+0002
 51
 2.84475000000000E+0002
  0
LINE
  8
0
 10
 1.26999949055361E+0003
 20
 1.29538091843480E+0003
 11
 1.31500000000000E+0003
 21
 1.30700000000000E+0003
  0
LINE
  8
0
 10
 1.31500000000000E+0003
 20
 1.30700000000000E+0003
 11
 1.31500000000000E+0003
 21
 1.26500000000000E+0003
  0
LINE
  8
0
 10
 5.25000000000000E+0002
 20
 1.53500000000000E+0003
 11
 5.55000000000000E+0002
 21
 1.53500000000000E+0003
  0
ARC
  8
0
 10
-1.95000000000000E+0002
 20
 1.53500000000000E+0003
 40
 7.50000000000000E+0002
 50
 3.40811860000000E+0002
 51
 3.60000000000000E+0002
  0
LINE
  8
0
 10
 5.13333318076195E+0002
 20
 1.28849663186243E+0003
 11
 5.13333332723048E+0002
 21
 1.28849686527450E+0003
  0
ARC
  8
0
 10
 4.85000000000000E+0002
 20
 1.29835700000000E+0003
 40
 3.00000000000000E+0001
 50
 1.99188140000000E+0002
 51
 3.40811860000000E+0002
  0
LINE
  8
0
 10
 4.56666667276952E+0002
 20
 1.28849686527450E+0003
 11
 4.56666681923805E+0002
 21
 1.28849663186243E+0003
  0
ARC
  8
0
 10
 1.16500000000000E+0003
 20
 1.53500000000000E+0003
 40
 7.50000000000000E+0002
 50
 1.80000000000000E+0002
 51
 1.99188140000000E+0002
  0
LINE
  8
0
 10
 4.15000000000000E+0002
 20
 1.53500000000000E+0003
 11
 4.45000000000000E+0002
 21
 1.53500000000000E+0003
  0
ARC
  8
0
 10
 1.16500000000000E+0003
 20
 1.53500000000000E+0003
 40
 7.20000000000000E+0002
 50
 1.80000000000000E+0002
 51
 1.99188140000000E+0002
  0
LINE
  8
0
 10
 4.85000014646853E+0002
 20
 1.29835676658793E+0003
 11
 4.84999985353147E+0002
 21
 1.29835676658793E+0003
  0
ARC
  8
0
 10
-1.95000000000000E+0002
 20
 1.53500000000000E+0003
 40
 7.20000000000000E+0002
 50
 3.40811860000000E+0002
 51
 3.60000000000000E+0002
  0
LINE
  8
0
 10
 6.55000000000000E+0002
 20
 6.50000000000000E+0001
 11
 6.85000000000000E+0002
 21
 6.50000000000000E+0001
  0
ARC
  8
0
 10
-6.50000000000000E+0001
 20
 6.50000000000000E+0001
 40
 7.50000000000000E+0002
 50
 0.00000000000000E+0000
 51
 1.91881400000000E+0001
  0
LINE
  8
0
 10
 6.43333318076195E+0002
 20
 3.11503368137575E+0002
 11
 6.43333332723048E+0002
 21
 3.11503134725503E+0002
  0
ARC
  8
0
 10
 6.15000000000000E+0002
 20
 3.01643000000000E+0002
 40
 3.00000000000000E+0001
 50
 1.91881400000000E+0001
 51
 1.60811860000000E+0002
  0
LINE
  8
0
 10
 5.86666667276952E+0002
 20
 3.11503134725503E+0002
 11
 5.86666681923806E+0002
 21
 3.11503368137575E+0002
  0
ARC
  8
0
 10
 1.29500000000000E+0003
 20
 6.50000000000000E+0001
 40
 7.50000000000000E+0002
 50
 1.60811860000000E+0002
 51
 1.80000000000000E+0002
  0
LINE
  8
0
 10
 5.45000000000000E+0002
 20
 6.50000000000000E+0001
 11
 5.75000000000000E+0002
 21
 6.50000000000000E+0001
  0
ARC
  8
0
 10
 1.29500000000000E+0003
 20
 6.50000000000000E+0001
 40
 7.20000000000000E+0002
 50
 1.60811860000000E+0002
 51
 1.80000000000000E+0002
  0
LINE
  8
0
 10
 6.15000014646853E+0002
 20
 3.01643233412072E+0002
 11
 6.14999985353147E+0002
 21
 3.01643233412072E+0002
  0
ARC
  8
0
 10
-6.50000000000000E+0001
 20
 6.50000000000000E+0001
 40
 7.20000000000000E+0002
 50
 0.00000000000000E+0000
 51
 1.91881400000000E+0001
  0
ENDSEC
  0
EOF
