  0
SECTION
  2
HEADER
  9
$ACADVER
  1
AC1003
  9
$INSBASE
 10
0.0
 20
0.0
  9
$EXTMIN
 10
 0.00000000000000E+0000
 20
 0.00000000000000E+0000
  9
$EXTMAX
 10
 1.25000000000000E+0003
 20
 1.60000000000000E+0003
  9
$LIMMIN
 10
0.0
 20
0.0
  9
$LIMMAX
 10
410.0
 20
287.0
  9
$VIEWCTR
 10
227.0059616
 20
165.058879 
  9
$VIEWSIZE
 40
 1.60000000000000E+0003
9
$SNAPMODE
70
0
9
$SNAPUNIT
10
1
20
1
9
$GRIDMODE
70
0
9
$GRIDUNIT
10
1
20
1
9
$ORTHOMODE
70
0
9
$rEGENMODE
70
1
9
$FILLMODE
70
1
9
$DRAGMODE
70
2
9
$LTSCALE
40
25.0
9
$OSMODE
70
0
9
$ATTMODE
70
1
9
$TRACEWID
40
1.0
9
$TEXTSTYLE
7
STANDARD
9
$CLAYER
8
0
9
$CELTYPE
6
VONLAYER
9
$CECOLOR
62
256
9
$LUNITS
70
2
9
$LUPREC
70
2
9
$AXISMODE
70
0
9
$AXISUNIT
10
0
20
0
9
$SKETCHINC
40
1.0
9
$FILLETRAD
40
0.0
9
$AUNITS
70
0
9
$AUPREC
70
0
9
$MENU
1
ACAD
9
$ELEVATION
40
0.0
9
$THICKNESS
40
0.0
9
$VIEWDIR
10
0.0
20
0.0
30
1.0
9
$LIMCHECK
70
0
9
$BLIPMODE
70
1
9
$CHAMFERA
40
0.0
9
$CHAMFERB
40
0.0
9
$USRTIMER
70
1
9
$ANGBASE
50
0.0
9
$ANGDIR
70
0
9
$PDMODE
70
0
9
$PDSIZE
40
0.0
9
$PLINEWID
40
0.0
9
$COORDS
70
0
0
ENDSEC
0
SECTION
2
TABLES
0
TABLE
2
LTYPE
70
1
0
LTYPE
2
AUSGEZOGEN
70
64
3
Ausgezogene Linie
72
65
73
0
40
0.0
0
ENDTAB
0
TABLE
2
LAYER
70
1
0
LAYER
2
0
70
0
62
7
6
AUSGEZOGEN
0
ENDTAB
0
TABLE
2
STYLE
70
1
0
STYLE
2
STANDARD
70
0
40
0.0
41
1.0
50
0.0
71
0
42
3.5
3
txt
4

0
ENDTAB
0
TABLE
2
VIEW
70
0
0
ENDTAB
0
ENDSEC
0
SECTION
2
BLOCKS
0
ENDSEC
0
SECTION
2
ENTITIES
  0
ARC
  8
0
 10
 6.00000000000000E+0001
 20
 6.00000000000000E+0001
 40
 6.00000000000000E+0001
 50
 1.80000000000000E+0002
 51
 2.70000000000000E+0002
  0
LINE
  8
0
 10
 0.00000000000000E+0000
 20
 6.00000000000000E+0001
 11
 0.00000000000000E+0000
 21
 1.54000000000000E+0003
  0
ARC
  8
0
 10
 6.00000000000000E+0001
 20
 1.54000000000000E+0003
 40
 6.00000000000000E+0001
 50
 9.00000000000000E+0001
 51
 1.80000000000000E+0002
  0
LINE
  8
0
 10
 6.00000000000000E+0001
 20
 1.60000000000000E+0003
 11
 1.19000000000000E+0003
 21
 1.60000000000000E+0003
  0
ARC
  8
0
 10
 1.19000000000000E+0003
 20
 1.54000000000000E+0003
 40
 6.00000000000000E+0001
 50
 0.00000000000000E+0000
 51
 9.00000000000000E+0001
  0
LINE
  8
0
 10
 1.25000000000000E+0003
 20
 1.54000000000000E+0003
 11
 1.25000000000000E+0003
 21
 6.00000000000000E+0001
  0
ARC
  8
0
 10
 1.19000000000000E+0003
 20
 6.00000000000000E+0001
 40
 6.00000000000000E+0001
 50
 2.70000000000000E+0002
 51
 3.60000000000000E+0002
  0
LINE
  8
0
 10
 1.19000000000000E+0003
 20
 0.00000000000000E+0000
 11
 6.00000000000000E+0001
 21
 0.00000000000000E+0000
  0
ARC
  8
0
 10
 6.00000000000000E+0001
 20
 6.00000000000000E+0001
 40
 4.50000000000000E+0001
 50
 1.80000000000000E+0002
 51
 2.70000000000000E+0002
  0
LINE
  8
0
 10
 1.50000000000000E+0001
 20
 6.00000000000000E+0001
 11
 1.50000000000000E+0001
 21
 1.54000000000000E+0003
  0
ARC
  8
0
 10
 6.00000000000000E+0001
 20
 1.54000000000000E+0003
 40
 4.50000000000000E+0001
 50
 9.00000000000000E+0001
 51
 1.80000000000000E+0002
  0
LINE
  8
0
 10
 6.00000000000000E+0001
 20
 1.58500000000000E+0003
 11
 1.19000000000000E+0003
 21
 1.58500000000000E+0003
  0
ARC
  8
0
 10
 1.19000000000000E+0003
 20
 1.54000000000000E+0003
 40
 4.50000000000000E+0001
 50
 0.00000000000000E+0000
 51
 9.00000000000000E+0001
  0
LINE
  8
0
 10
 1.23500000000000E+0003
 20
 1.54000000000000E+0003
 11
 1.23500000000000E+0003
 21
 6.00000000000000E+0001
  0
ARC
  8
0
 10
 1.19000000000000E+0003
 20
 6.00000000000000E+0001
 40
 4.50000000000000E+0001
 50
 2.70000000000000E+0002
 51
 3.60000000000000E+0002
  0
LINE
  8
0
 10
 1.19000000000000E+0003
 20
 1.50000000000000E+0001
 11
 6.00000000000000E+0001
 21
 1.50000000000000E+0001
  0
ARC
  8
0
 10
 6.00000000000000E+0001
 20
 6.00000000000000E+0001
 40
 2.50000000000000E+0001
 50
 1.80000000000000E+0002
 51
 2.70000000000000E+0002
  0
LINE
  8
0
 10
 3.50000000000000E+0001
 20
 6.00000000000000E+0001
 11
 3.50000000000000E+0001
 21
 1.54000000000000E+0003
  0
ARC
  8
0
 10
 6.00000000000000E+0001
 20
 1.54000000000000E+0003
 40
 2.50000000000000E+0001
 50
 9.00000000000000E+0001
 51
 1.80000000000000E+0002
  0
LINE
  8
0
 10
 6.00000000000000E+0001
 20
 1.56500000000000E+0003
 11
 1.19000000000000E+0003
 21
 1.56500000000000E+0003
  0
ARC
  8
0
 10
 1.19000000000000E+0003
 20
 1.54000000000000E+0003
 40
 2.50000000000000E+0001
 50
 0.00000000000000E+0000
 51
 9.00000000000000E+0001
  0
LINE
  8
0
 10
 1.21500000000000E+0003
 20
 1.54000000000000E+0003
 11
 1.21500000000000E+0003
 21
 6.00000000000000E+0001
  0
ARC
  8
0
 10
 1.19000000000000E+0003
 20
 6.00000000000000E+0001
 40
 2.50000000000000E+0001
 50
 2.70000000000000E+0002
 51
 3.60000000000000E+0002
  0
LINE
  8
0
 10
 1.19000000000000E+0003
 20
 3.50000000000000E+0001
 11
 6.00000000000000E+0001
 21
 3.50000000000000E+0001
  0
LINE
  8
0
 10
 2.25000000000000E+0002
 20
 1.26500000000000E+0003
 11
 2.25386390011900E+0002
 21
 1.25195630732330E+0003
  0
LINE
  8
0
 10
 2.25386390011900E+0002
 20
 1.25195630732330E+0003
 11
 2.25936480015200E+0002
 21
 1.23907949734640E+0003
  0
LINE
  8
0
 10
 2.25936480015200E+0002
 20
 1.23907949734640E+0003
 11
 2.26646936961300E+0002
 21
 1.22636618914910E+0003
  0
LINE
  8
0
 10
 2.26646936961300E+0002
 20
 1.22636618914910E+0003
 11
 2.27514427801600E+0002
 21
 1.21381300181120E+0003
  0
LINE
  8
0
 10
 2.27514427801600E+0002
 20
 1.21381300181120E+0003
 11
 2.28535619487500E+0002
 21
 1.20141655441250E+0003
  0
LINE
  8
0
 10
 2.28535619487500E+0002
 20
 1.20141655441250E+0003
 11
 2.29707178970400E+0002
 21
 1.18917346603280E+0003
  0
LINE
  8
0
 10
 2.29707178970400E+0002
 20
 1.18917346603280E+0003
 11
 2.31025773201700E+0002
 21
 1.17708035575190E+0003
  0
LINE
  8
0
 10
 2.31025773201700E+0002
 20
 1.17708035575190E+0003
 11
 2.32488069132800E+0002
 21
 1.16513384264960E+0003
  0
LINE
  8
0
 10
 2.32488069132800E+0002
 20
 1.16513384264960E+0003
 11
 2.34090733715100E+0002
 21
 1.15333054580570E+0003
  0
LINE
  8
0
 10
 2.34090733715100E+0002
 20
 1.15333054580570E+0003
 11
 2.35830433900000E+0002
 21
 1.14166708430000E+0003
  0
LINE
  8
0
 10
 2.35830433900000E+0002
 20
 1.14166708430000E+0003
 11
 2.37703836638900E+0002
 21
 1.13014007721230E+0003
  0
LINE
  8
0
 10
 2.37703836638900E+0002
 20
 1.13014007721230E+0003
 11
 2.39707608883200E+0002
 21
 1.11874614362240E+0003
  0
LINE
  8
0
 10
 2.39707608883200E+0002
 20
 1.11874614362240E+0003
 11
 2.41838417584300E+0002
 21
 1.10748190261010E+0003
  0
LINE
  8
0
 10
 2.41838417584300E+0002
 20
 1.10748190261010E+0003
 11
 2.44092929693600E+0002
 21
 1.09634397325520E+0003
  0
LINE
  8
0
 10
 2.44092929693600E+0002
 20
 1.09634397325520E+0003
 11
 2.46467812162500E+0002
 21
 1.08532897463750E+0003
  0
LINE
  8
0
 10
 2.46467812162500E+0002
 20
 1.08532897463750E+0003
 11
 2.48959731942400E+0002
 21
 1.07443352583680E+0003
  0
LINE
  8
0
 10
 2.48959731942400E+0002
 20
 1.07443352583680E+0003
 11
 2.51565355984700E+0002
 21
 1.06365424593290E+0003
  0
LINE
  8
0
 10
 2.51565355984700E+0002
 20
 1.06365424593290E+0003
 11
 2.54281351240800E+0002
 21
 1.05298775400560E+0003
  0
LINE
  8
0
 10
 2.54281351240800E+0002
 20
 1.05298775400560E+0003
 11
 2.57104384662100E+0002
 21
 1.04243066913470E+0003
  0
LINE
  8
0
 10
 2.57104384662100E+0002
 20
 1.04243066913470E+0003
 11
 2.60031123200000E+0002
 21
 1.03197961040000E+0003
  0
LINE
  8
0
 10
 2.60031123200000E+0002
 20
 1.03197961040000E+0003
 11
 2.63058233805900E+0002
 21
 1.02163119688130E+0003
  0
LINE
  8
0
 10
 2.63058233805900E+0002
 20
 1.02163119688130E+0003
 11
 2.66182383431200E+0002
 21
 1.01138204765840E+0003
  0
LINE
  8
0
 10
 2.66182383431200E+0002
 20
 1.01138204765840E+0003
 11
 2.69400239027300E+0002
 21
 1.00122878181110E+0003
  0
LINE
  8
0
 10
 2.69400239027300E+0002
 20
 1.00122878181110E+0003
 11
 2.72708467545600E+0002
 21
 9.91168018419200E+0002
  0
LINE
  8
0
 10
 2.72708467545600E+0002
 20
 9.91168018419200E+0002
 11
 2.76103735937500E+0002
 21
 9.81196376562500E+0002
  0
LINE
  8
0
 10
 2.76103735937500E+0002
 20
 9.81196376562500E+0002
 11
 2.79582711154400E+0002
 21
 9.71310475320800E+0002
  0
LINE
  8
0
 10
 2.79582711154400E+0002
 20
 9.71310475320800E+0002
 11
 2.83142060147700E+0002
 21
 9.61506933773900E+0002
  0
LINE
  8
0
 10
 2.83142060147700E+0002
 20
 9.61506933773900E+0002
 11
 2.86778449868800E+0002
 21
 9.51782371001600E+0002
  0
LINE
  8
0
 10
 2.86778449868800E+0002
 20
 9.51782371001600E+0002
 11
 2.90488547269100E+0002
 21
 9.42133406083700E+0002
  0
LINE
  8
0
 10
 2.90488547269100E+0002
 20
 9.42133406083700E+0002
 11
 2.94269019300000E+0002
 21
 9.32556658100000E+0002
  0
LINE
  8
0
 10
 2.94269019300000E+0002
 20
 9.32556658100000E+0002
 11
 2.98116532912900E+0002
 21
 9.23048746130300E+0002
  0
LINE
  8
0
 10
 2.98116532912900E+0002
 20
 9.23048746130300E+0002
 11
 3.02027755059200E+0002
 21
 9.13606289254400E+0002
  0
LINE
  8
0
 10
 3.02027755059200E+0002
 20
 9.13606289254400E+0002
 11
 3.05999352690300E+0002
 21
 9.04225906552100E+0002
  0
LINE
  8
0
 10
 3.05999352690300E+0002
 20
 9.04225906552100E+0002
 11
 3.10027992757600E+0002
 21
 8.94904217103200E+0002
  0
LINE
  8
0
 10
 3.10027992757600E+0002
 20
 8.94904217103200E+0002
 11
 3.14110342212500E+0002
 21
 8.85637839987500E+0002
  0
LINE
  8
0
 10
 3.14110342212500E+0002
 20
 8.85637839987500E+0002
 11
 3.18243068006400E+0002
 21
 8.76423394284800E+0002
  0
LINE
  8
0
 10
 3.18243068006400E+0002
 20
 8.76423394284800E+0002
 11
 3.22422837090700E+0002
 21
 8.67257499074900E+0002
  0
LINE
  8
0
 10
 3.22422837090700E+0002
 20
 8.67257499074900E+0002
 11
 3.26646316416800E+0002
 21
 8.58136773437600E+0002
  0
LINE
  8
0
 10
 3.26646316416800E+0002
 20
 8.58136773437600E+0002
 11
 3.30910172936100E+0002
 21
 8.49057836452700E+0002
  0
LINE
  8
0
 10
 3.30910172936100E+0002
 20
 8.49057836452700E+0002
 11
 3.35211073600000E+0002
 21
 8.40017307200000E+0002
  0
LINE
  8
0
 10
 3.35211073600000E+0002
 20
 8.40017307200000E+0002
 11
 3.39545685359900E+0002
 21
 8.31011804759300E+0002
  0
LINE
  8
0
 10
 3.39545685359900E+0002
 20
 8.31011804759300E+0002
 11
 3.43910675167200E+0002
 21
 8.22037948210400E+0002
  0
LINE
  8
0
 10
 3.43910675167200E+0002
 20
 8.22037948210400E+0002
 11
 3.48302709973300E+0002
 21
 8.13092356633100E+0002
  0
LINE
  8
0
 10
 3.48302709973300E+0002
 20
 8.13092356633100E+0002
 11
 3.52718456729600E+0002
 21
 8.04171649107200E+0002
  0
LINE
  8
0
 10
 3.52718456729600E+0002
 20
 8.04171649107200E+0002
 11
 3.57154582387500E+0002
 21
 7.95272444712500E+0002
  0
LINE
  8
0
 10
 3.57154582387500E+0002
 20
 7.95272444712500E+0002
 11
 3.61607753898400E+0002
 21
 7.86391362528800E+0002
  0
LINE
  8
0
 10
 3.61607753898400E+0002
 20
 7.86391362528800E+0002
 11
 3.66074638213700E+0002
 21
 7.77525021635900E+0002
  0
LINE
  8
0
 10
 3.66074638213700E+0002
 20
 7.77525021635900E+0002
 11
 3.70551902284800E+0002
 21
 7.68670041113600E+0002
  0
LINE
  8
0
 10
 3.70551902284800E+0002
 20
 7.68670041113600E+0002
 11
 3.75036213063100E+0002
 21
 7.59823040041700E+0002
  0
LINE
  8
0
 10
 3.75036213063100E+0002
 20
 7.59823040041700E+0002
 11
 3.79524237500000E+0002
 21
 7.50980637500000E+0002
  0
LINE
  8
0
 10
 3.79524237500000E+0002
 20
 7.50980637500000E+0002
 11
 3.84012642546900E+0002
 21
 7.42139452568300E+0002
  0
LINE
  8
0
 10
 3.84012642546900E+0002
 20
 7.42139452568300E+0002
 11
 3.88498095155200E+0002
 21
 7.33296104326400E+0002
  0
LINE
  8
0
 10
 3.88498095155200E+0002
 20
 7.33296104326400E+0002
 11
 3.92977262276300E+0002
 21
 7.24447211854100E+0002
  0
LINE
  8
0
 10
 3.92977262276300E+0002
 20
 7.24447211854100E+0002
 11
 3.97446810861600E+0002
 21
 7.15589394231200E+0002
  0
LINE
  8
0
 10
 3.97446810861600E+0002
 20
 7.15589394231200E+0002
 11
 4.01903407862500E+0002
 21
 7.06719270537500E+0002
  0
LINE
  8
0
 10
 4.01903407862500E+0002
 20
 7.06719270537500E+0002
 11
 4.06343720230400E+0002
 21
 6.97833459852800E+0002
  0
LINE
  8
0
 10
 4.06343720230400E+0002
 20
 6.97833459852800E+0002
 11
 4.10764414916700E+0002
 21
 6.88928581256900E+0002
  0
LINE
  8
0
 10
 4.10764414916700E+0002
 20
 6.88928581256900E+0002
 11
 4.15162158872800E+0002
 21
 6.80001253829600E+0002
  0
LINE
  8
0
 10
 4.15162158872800E+0002
 20
 6.80001253829600E+0002
 11
 4.19533619050100E+0002
 21
 6.71048096650700E+0002
  0
LINE
  8
0
 10
 4.19533619050100E+0002
 20
 6.71048096650700E+0002
 11
 4.23875462400000E+0002
 21
 6.62065728800000E+0002
  0
LINE
  8
0
 10
 4.23875462400000E+0002
 20
 6.62065728800000E+0002
 11
 4.28184355873900E+0002
 21
 6.53050769357300E+0002
  0
LINE
  8
0
 10
 4.28184355873900E+0002
 20
 6.53050769357300E+0002
 11
 4.32456966423200E+0002
 21
 6.43999837402400E+0002
  0
LINE
  8
0
 10
 4.32456966423200E+0002
 20
 6.43999837402400E+0002
 11
 4.36689960999300E+0002
 21
 6.34909552015100E+0002
  0
LINE
  8
0
 10
 4.36689960999300E+0002
 20
 6.34909552015100E+0002
 11
 4.40880006553600E+0002
 21
 6.25776532275200E+0002
  0
LINE
  8
0
 10
 4.40880006553600E+0002
 20
 6.25776532275200E+0002
 11
 4.45023770037500E+0002
 21
 6.16597397262500E+0002
  0
LINE
  8
0
 10
 4.45023770037500E+0002
 20
 6.16597397262500E+0002
 11
 4.49117918402400E+0002
 21
 6.07368766056800E+0002
  0
LINE
  8
0
 10
 4.49117918402400E+0002
 20
 6.07368766056800E+0002
 11
 4.53159118599700E+0002
 21
 5.98087257737900E+0002
  0
LINE
  8
0
 10
 4.53159118599700E+0002
 20
 5.98087257737900E+0002
 11
 4.57144037580800E+0002
 21
 5.88749491385600E+0002
  0
LINE
  8
0
 10
 4.57144037580800E+0002
 20
 5.88749491385600E+0002
 11
 4.61069342297100E+0002
 21
 5.79352086079700E+0002
  0
LINE
  8
0
 10
 4.61069342297100E+0002
 20
 5.79352086079700E+0002
 11
 4.64931699700000E+0002
 21
 5.69891660900000E+0002
  0
LINE
  8
0
 10
 4.64931699700000E+0002
 20
 5.69891660900000E+0002
 11
 4.68727776740900E+0002
 21
 5.60364834926300E+0002
  0
LINE
  8
0
 10
 4.68727776740900E+0002
 20
 5.60364834926300E+0002
 11
 4.72454240371200E+0002
 21
 5.50768227238400E+0002
  0
LINE
  8
0
 10
 4.72454240371200E+0002
 20
 5.50768227238400E+0002
 11
 4.76107757542300E+0002
 21
 5.41098456916100E+0002
  0
LINE
  8
0
 10
 4.76107757542300E+0002
 20
 5.41098456916100E+0002
 11
 4.79684995205600E+0002
 21
 5.31352143039200E+0002
  0
LINE
  8
0
 10
 4.79684995205600E+0002
 20
 5.31352143039200E+0002
 11
 4.83182620312500E+0002
 21
 5.21525904687500E+0002
  0
LINE
  8
0
 10
 4.83182620312500E+0002
 20
 5.21525904687500E+0002
 11
 4.86597299814400E+0002
 21
 5.11616360940800E+0002
  0
LINE
  8
0
 10
 4.86597299814400E+0002
 20
 5.11616360940800E+0002
 11
 4.89925700662700E+0002
 21
 5.01620130878900E+0002
  0
LINE
  8
0
 10
 4.89925700662700E+0002
 20
 5.01620130878900E+0002
 11
 4.93164489808800E+0002
 21
 4.91533833581600E+0002
  0
LINE
  8
0
 10
 4.93164489808800E+0002
 20
 4.91533833581600E+0002
 11
 4.96310334204100E+0002
 21
 4.81354088128700E+0002
  0
LINE
  8
0
 10
 4.96310334204100E+0002
 20
 4.81354088128700E+0002
 11
 4.99359900800000E+0002
 21
 4.71077513600000E+0002
  0
LINE
  8
0
 10
 4.99359900800000E+0002
 20
 4.71077513600000E+0002
 11
 5.02309856547900E+0002
 21
 4.60700729075300E+0002
  0
LINE
  8
0
 10
 5.02309856547900E+0002
 20
 4.60700729075300E+0002
 11
 5.05156868399200E+0002
 21
 4.50220353634400E+0002
  0
LINE
  8
0
 10
 5.05156868399200E+0002
 20
 4.50220353634400E+0002
 11
 5.07897603305300E+0002
 21
 4.39633006357100E+0002
  0
LINE
  8
0
 10
 5.07897603305300E+0002
 20
 4.39633006357100E+0002
 11
 5.10528728217600E+0002
 21
 4.28935306323200E+0002
  0
LINE
  8
0
 10
 5.10528728217600E+0002
 20
 4.28935306323200E+0002
 11
 5.13046910087500E+0002
 21
 4.18123872612500E+0002
  0
LINE
  8
0
 10
 5.13046910087500E+0002
 20
 4.18123872612500E+0002
 11
 5.15448815866400E+0002
 21
 4.07195324304800E+0002
  0
LINE
  8
0
 10
 5.15448815866400E+0002
 20
 4.07195324304800E+0002
 11
 5.17731112505700E+0002
 21
 3.96146280479900E+0002
  0
LINE
  8
0
 10
 5.17731112505700E+0002
 20
 3.96146280479900E+0002
 11
 5.19890466956800E+0002
 21
 3.84973360217600E+0002
  0
LINE
  8
0
 10
 5.19890466956800E+0002
 20
 3.84973360217600E+0002
 11
 5.21923546171100E+0002
 21
 3.73673182597700E+0002
  0
LINE
  8
0
 10
 5.21923546171100E+0002
 20
 3.73673182597700E+0002
 11
 5.23827017100000E+0002
 21
 3.62242366700000E+0002
  0
LINE
  8
0
 10
 5.23827017100000E+0002
 20
 3.62242366700000E+0002
 11
 5.25597546694900E+0002
 21
 3.50677531604300E+0002
  0
LINE
  8
0
 10
 5.25597546694900E+0002
 20
 3.50677531604300E+0002
 11
 5.27231801907200E+0002
 21
 3.38975296390400E+0002
  0
LINE
  8
0
 10
 5.27231801907200E+0002
 20
 3.38975296390400E+0002
 11
 5.28726449688300E+0002
 21
 3.27132280138100E+0002
  0
LINE
  8
0
 10
 5.28726449688300E+0002
 20
 3.27132280138100E+0002
 11
 5.30078156989600E+0002
 21
 3.15145101927200E+0002
  0
LINE
  8
0
 10
 5.30078156989600E+0002
 20
 3.15145101927200E+0002
 11
 5.31283590762500E+0002
 21
 3.03010380837500E+0002
  0
LINE
  8
0
 10
 5.31283590762500E+0002
 20
 3.03010380837500E+0002
 11
 5.32339417958400E+0002
 21
 2.90724735948800E+0002
  0
LINE
  8
0
 10
 5.32339417958400E+0002
 20
 2.90724735948800E+0002
 11
 5.33242305528700E+0002
 21
 2.78284786340900E+0002
  0
LINE
  8
0
 10
 5.33242305528700E+0002
 20
 2.78284786340900E+0002
 11
 5.33988920424800E+0002
 21
 2.65687151093600E+0002
  0
LINE
  8
0
 10
 5.33988920424800E+0002
 20
 2.65687151093600E+0002
 11
 5.34575929598100E+0002
 21
 2.52928449286700E+0002
  0
LINE
  8
0
 10
 5.34575929598100E+0002
 20
 2.52928449286700E+0002
 11
 5.35000000000000E+0002
 21
 2.40005300000000E+0002
  0
LINE
  8
0
 10
 5.35000000000000E+0002
 20
 2.40005300000000E+0002
 11
 5.35000000000000E+0002
 21
 1.55000000000000E+0002
  0
LINE
  8
0
 10
 5.35000000000000E+0002
 20
 1.55000000000000E+0002
 11
 4.75000000000000E+0002
 21
 1.55000000000000E+0002
  0
LINE
  8
0
 10
 4.75000000000000E+0002
 20
 1.55000000000000E+0002
 11
 4.75000000000000E+0002
 21
 2.40005300000000E+0002
  0
LINE
  8
0
 10
 4.75000000000000E+0002
 20
 2.40005300000000E+0002
 11
 4.74575970375300E+0002
 21
 2.52928449294400E+0002
  0
LINE
  8
0
 10
 4.74575970375300E+0002
 20
 2.52928449294400E+0002
 11
 4.73988999562400E+0002
 21
 2.65687151155200E+0002
  0
LINE
  8
0
 10
 4.73988999562400E+0002
 20
 2.65687151155200E+0002
 11
 4.73242420653100E+0002
 21
 2.78284786548800E+0002
  0
LINE
  8
0
 10
 4.73242420653100E+0002
 20
 2.78284786548800E+0002
 11
 4.72339566739200E+0002
 21
 2.90724736441600E+0002
  0
LINE
  8
0
 10
 4.72339566739200E+0002
 20
 2.90724736441600E+0002
 11
 4.71283770912500E+0002
 21
 3.03010381800000E+0002
  0
LINE
  8
0
 10
 4.71283770912500E+0002
 20
 3.03010381800000E+0002
 11
 4.70078366264800E+0002
 21
 3.15145103590400E+0002
  0
LINE
  8
0
 10
 4.70078366264800E+0002
 20
 3.15145103590400E+0002
 11
 4.68726685887900E+0002
 21
 3.27132282779200E+0002
  0
LINE
  8
0
 10
 4.68726685887900E+0002
 20
 3.27132282779200E+0002
 11
 4.67232062873600E+0002
 21
 3.38975300332800E+0002
  0
LINE
  8
0
 10
 4.67232062873600E+0002
 20
 3.38975300332800E+0002
 11
 4.65597830313700E+0002
 21
 3.50677537217600E+0002
  0
LINE
  8
0
 10
 4.65597830313700E+0002
 20
 3.50677537217600E+0002
 11
 4.63827321300000E+0002
 21
 3.62242374400000E+0002
  0
LINE
  8
0
 10
 4.63827321300000E+0002
 20
 3.62242374400000E+0002
 11
 4.61923868924300E+0002
 21
 3.73673192846400E+0002
  0
LINE
  8
0
 10
 4.61923868924300E+0002
 20
 3.73673192846400E+0002
 11
 4.59890806278400E+0002
 21
 3.84973373523200E+0002
  0
LINE
  8
0
 10
 4.59890806278400E+0002
 20
 3.84973373523200E+0002
 11
 4.57731466454100E+0002
 21
 3.96146297396800E+0002
  0
LINE
  8
0
 10
 4.57731466454100E+0002
 20
 3.96146297396800E+0002
 11
 4.55449182543200E+0002
 21
 4.07195345433600E+0002
  0
LINE
  8
0
 10
 4.55449182543200E+0002
 20
 4.07195345433600E+0002
 11
 4.53047287637500E+0002
 21
 4.18123898600000E+0002
  0
LINE
  8
0
 10
 4.53047287637500E+0002
 20
 4.18123898600000E+0002
 11
 4.50529114828800E+0002
 21
 4.28935337862400E+0002
  0
LINE
  8
0
 10
 4.50529114828800E+0002
 20
 4.28935337862400E+0002
 11
 4.47897997208900E+0002
 21
 4.39633044187200E+0002
  0
LINE
  8
0
 10
 4.47897997208900E+0002
 20
 4.39633044187200E+0002
 11
 4.45157267869600E+0002
 21
 4.50220398540800E+0002
  0
LINE
  8
0
 10
 4.45157267869600E+0002
 20
 4.50220398540800E+0002
 11
 4.42310259902700E+0002
 21
 4.60700781889600E+0002
  0
LINE
  8
0
 10
 4.42310259902700E+0002
 20
 4.60700781889600E+0002
 11
 4.39360306400000E+0002
 21
 4.71077575200000E+0002
  0
LINE
  8
0
 10
 4.39360306400000E+0002
 20
 4.71077575200000E+0002
 11
 4.36310740453300E+0002
 21
 4.81354159438400E+0002
  0
LINE
  8
0
 10
 4.36310740453300E+0002
 20
 4.81354159438400E+0002
 11
 4.33164895154400E+0002
 21
 4.91533915571200E+0002
  0
LINE
  8
0
 10
 4.33164895154400E+0002
 20
 4.91533915571200E+0002
 11
 4.29926103595100E+0002
 21
 5.01620224564800E+0002
  0
LINE
  8
0
 10
 4.29926103595100E+0002
 20
 5.01620224564800E+0002
 11
 4.26597698867200E+0002
 21
 5.11616467385600E+0002
  0
LINE
  8
0
 10
 4.26597698867200E+0002
 20
 5.11616467385600E+0002
 11
 4.23183014062500E+0002
 21
 5.21526025000000E+0002
  0
LINE
  8
0
 10
 4.23183014062500E+0002
 20
 5.21526025000000E+0002
 11
 4.19685382272800E+0002
 21
 5.31352278374400E+0002
  0
LINE
  8
0
 10
 4.19685382272800E+0002
 20
 5.31352278374400E+0002
 11
 4.16108136589900E+0002
 21
 5.41098608475200E+0002
  0
LINE
  8
0
 10
 4.16108136589900E+0002
 20
 5.41098608475200E+0002
 11
 4.12454610105600E+0002
 21
 5.50768396268800E+0002
  0
LINE
  8
0
 10
 4.12454610105600E+0002
 20
 5.50768396268800E+0002
 11
 4.08728135911700E+0002
 21
 5.60365022721600E+0002
  0
LINE
  8
0
 10
 4.08728135911700E+0002
 20
 5.60365022721600E+0002
 11
 4.04932047100000E+0002
 21
 5.69891868800000E+0002
  0
LINE
  8
0
 10
 4.04932047100000E+0002
 20
 5.69891868800000E+0002
 11
 4.01069676762300E+0002
 21
 5.79352315470400E+0002
  0
LINE
  8
0
 10
 4.01069676762300E+0002
 20
 5.79352315470400E+0002
 11
 3.97144357990400E+0002
 21
 5.88749743699200E+0002
  0
LINE
  8
0
 10
 3.97144357990400E+0002
 20
 5.88749743699200E+0002
 11
 3.93159423876100E+0002
 21
 5.98087534452800E+0002
  0
LINE
  8
0
 10
 3.93159423876100E+0002
 20
 5.98087534452800E+0002
 11
 3.89118207511200E+0002
 21
 6.07369068697600E+0002
  0
LINE
  8
0
 10
 3.89118207511200E+0002
 20
 6.07369068697600E+0002
 11
 3.85024041987500E+0002
 21
 6.16597727400000E+0002
  0
LINE
  8
0
 10
 3.85024041987500E+0002
 20
 6.16597727400000E+0002
 11
 3.80880260396800E+0002
 21
 6.25776891526400E+0002
  0
LINE
  8
0
 10
 3.80880260396800E+0002
 20
 6.25776891526400E+0002
 11
 3.76690195830900E+0002
 21
 6.34909942043200E+0002
  0
LINE
  8
0
 10
 3.76690195830900E+0002
 20
 6.34909942043200E+0002
 11
 3.72457181381600E+0002
 21
 6.44000259916800E+0002
  0
LINE
  8
0
 10
 3.72457181381600E+0002
 20
 6.44000259916800E+0002
 11
 3.68184550140700E+0002
 21
 6.53051226113600E+0002
  0
LINE
  8
0
 10
 3.68184550140700E+0002
 20
 6.53051226113600E+0002
 11
 3.63875635200000E+0002
 21
 6.62066221600000E+0002
  0
LINE
  8
0
 10
 3.63875635200000E+0002
 20
 6.62066221600000E+0002
 11
 3.59533769651300E+0002
 21
 6.71048627342400E+0002
  0
LINE
  8
0
 10
 3.59533769651300E+0002
 20
 6.71048627342400E+0002
 11
 3.55162286586400E+0002
 21
 6.80001824307200E+0002
  0
LINE
  8
0
 10
 3.55162286586400E+0002
 20
 6.80001824307200E+0002
 11
 3.50764519097100E+0002
 21
 6.88929193460800E+0002
  0
LINE
  8
0
 10
 3.50764519097100E+0002
 20
 6.88929193460800E+0002
 11
 3.46343800275200E+0002
 21
 6.97834115769600E+0002
  0
LINE
  8
0
 10
 3.46343800275200E+0002
 20
 6.97834115769600E+0002
 11
 3.41903463212500E+0002
 21
 7.06719972200000E+0002
  0
LINE
  8
0
 10
 3.41903463212500E+0002
 20
 7.06719972200000E+0002
 11
 3.37446841000800E+0002
 21
 7.15590143718400E+0002
  0
LINE
  8
0
 10
 3.37446841000800E+0002
 20
 7.15590143718400E+0002
 11
 3.32977266731900E+0002
 21
 7.24448011291200E+0002
  0
LINE
  8
0
 10
 3.32977266731900E+0002
 20
 7.24448011291200E+0002
 11
 3.28498073497600E+0002
 21
 7.33296955884800E+0002
  0
LINE
  8
0
 10
 3.28498073497600E+0002
 20
 7.33296955884800E+0002
 11
 3.24012594389700E+0002
 21
 7.42140358465600E+0002
  0
LINE
  8
0
 10
 3.24012594389700E+0002
 20
 7.42140358465600E+0002
 11
 3.19524162500000E+0002
 21
 7.50981600000000E+0002
  0
LINE
  8
0
 10
 3.19524162500000E+0002
 20
 7.50981600000000E+0002
 11
 3.15036110920300E+0002
 21
 7.59824061454400E+0002
  0
LINE
  8
0
 10
 3.15036110920300E+0002
 20
 7.59824061454400E+0002
 11
 3.10551772742400E+0002
 21
 7.68671123795200E+0002
  0
LINE
  8
0
 10
 3.10551772742400E+0002
 20
 7.68671123795200E+0002
 11
 3.06074481058100E+0002
 21
 7.77526167988800E+0002
  0
LINE
  8
0
 10
 3.06074481058100E+0002
 20
 7.77526167988800E+0002
 11
 3.01607568959200E+0002
 21
 7.86392575001600E+0002
  0
LINE
  8
0
 10
 3.01607568959200E+0002
 20
 7.86392575001600E+0002
 11
 2.97154369537500E+0002
 21
 7.95273725800000E+0002
  0
LINE
  8
0
 10
 2.97154369537500E+0002
 20
 7.95273725800000E+0002
 11
 2.92718215884800E+0002
 21
 8.04173001350400E+0002
  0
LINE
  8
0
 10
 2.92718215884800E+0002
 20
 8.04173001350400E+0002
 11
 2.88302441092900E+0002
 21
 8.13093782619200E+0002
  0
LINE
  8
0
 10
 2.88302441092900E+0002
 20
 8.13093782619200E+0002
 11
 2.83910378253600E+0002
 21
 8.22039450572800E+0002
  0
LINE
  8
0
 10
 2.83910378253600E+0002
 20
 8.22039450572800E+0002
 11
 2.79545360458700E+0002
 21
 8.31013386177600E+0002
  0
LINE
  8
0
 10
 2.79545360458700E+0002
 20
 8.31013386177600E+0002
 11
 2.75210720800000E+0002
 21
 8.40018970400000E+0002
  0
LINE
  8
0
 10
 2.75210720800000E+0002
 20
 8.40018970400000E+0002
 11
 2.70909792369300E+0002
 21
 8.49059584206400E+0002
  0
LINE
  8
0
 10
 2.70909792369300E+0002
 20
 8.49059584206400E+0002
 11
 2.66645908258400E+0002
 21
 8.58138608563200E+0002
  0
LINE
  8
0
 10
 2.66645908258400E+0002
 20
 8.58138608563200E+0002
 11
 2.62422401559100E+0002
 21
 8.67259424436800E+0002
  0
LINE
  8
0
 10
 2.62422401559100E+0002
 20
 8.67259424436800E+0002
 11
 2.58242605363200E+0002
 21
 8.76425412793600E+0002
  0
LINE
  8
0
 10
 2.58242605363200E+0002
 20
 8.76425412793600E+0002
 11
 2.54109852762500E+0002
 21
 8.85639954600000E+0002
  0
LINE
  8
0
 10
 2.54109852762500E+0002
 20
 8.85639954600000E+0002
 11
 2.50027476848800E+0002
 21
 8.94906430822400E+0002
  0
LINE
  8
0
 10
 2.50027476848800E+0002
 20
 8.94906430822400E+0002
 11
 2.45998810713900E+0002
 21
 9.04228222427200E+0002
  0
LINE
  8
0
 10
 2.45998810713900E+0002
 20
 9.04228222427200E+0002
 11
 2.42027187449600E+0002
 21
 9.13608710380800E+0002
  0
LINE
  8
0
 10
 2.42027187449600E+0002
 20
 9.13608710380800E+0002
 11
 2.38115940147700E+0002
 21
 9.23051275649600E+0002
  0
LINE
  8
0
 10
 2.38115940147700E+0002
 20
 9.23051275649600E+0002
 11
 2.34268401900000E+0002
 21
 9.32559299200000E+0002
  0
LINE
  8
0
 10
 2.34268401900000E+0002
 20
 9.32559299200000E+0002
 11
 2.30487905798300E+0002
 21
 9.42136161998400E+0002
  0
LINE
  8
0
 10
 2.30487905798300E+0002
 20
 9.42136161998400E+0002
 11
 2.26777784934400E+0002
 21
 9.51785245011200E+0002
  0
LINE
  8
0
 10
 2.26777784934400E+0002
 20
 9.51785245011200E+0002
 11
 2.23141372400100E+0002
 21
 9.61509929204800E+0002
  0
LINE
  8
0
 10
 2.23141372400100E+0002
 20
 9.61509929204800E+0002
 11
 2.19582001287200E+0002
 21
 9.71313595545600E+0002
  0
LINE
  8
0
 10
 2.19582001287200E+0002
 20
 9.71313595545600E+0002
 11
 2.16103004687500E+0002
 21
 9.81199625000000E+0002
  0
LINE
  8
0
 10
 2.16103004687500E+0002
 20
 9.81199625000000E+0002
 11
 2.12707715692800E+0002
 21
 9.91171398534400E+0002
  0
LINE
  8
0
 10
 2.12707715692800E+0002
 20
 9.91171398534400E+0002
 11
 2.09399467394900E+0002
 21
 1.00123229711520E+0003
  0
LINE
  8
0
 10
 2.09399467394900E+0002
 20
 1.00123229711520E+0003
 11
 2.06181592885600E+0002
 21
 1.01138570170880E+0003
  0
LINE
  8
0
 10
 2.06181592885600E+0002
 20
 1.01138570170880E+0003
 11
 2.03057425256700E+0002
 21
 1.02163499328160E+0003
  0
LINE
  8
0
 10
 2.03057425256700E+0002
 20
 1.02163499328160E+0003
 11
 2.00030297600000E+0002
 21
 1.03198355280000E+0003
  0
LINE
  8
0
 10
 2.00030297600000E+0002
 20
 1.03198355280000E+0003
 11
 1.97103543007300E+0002
 21
 1.04243476123040E+0003
  0
LINE
  8
0
 10
 1.97103543007300E+0002
 20
 1.04243476123040E+0003
 11
 1.94280494570400E+0002
 21
 1.05299199953920E+0003
  0
LINE
  8
0
 10
 1.94280494570400E+0002
 20
 1.05299199953920E+0003
 11
 1.91564485381100E+0002
 21
 1.06365864869280E+0003
  0
LINE
  8
0
 10
 1.91564485381100E+0002
 20
 1.06365864869280E+0003
 11
 1.88958848531200E+0002
 21
 1.07443808965760E+0003
  0
LINE
  8
0
 10
 1.88958848531200E+0002
 20
 1.07443808965760E+0003
 11
 1.86466917112500E+0002
 21
 1.08533370340000E+0003
  0
LINE
  8
0
 10
 1.86466917112500E+0002
 20
 1.08533370340000E+0003
 11
 1.84092024216800E+0002
 21
 1.09634887088640E+0003
  0
LINE
  8
0
 10
 1.84092024216800E+0002
 20
 1.09634887088640E+0003
 11
 1.81837502935900E+0002
 21
 1.10748697308320E+0003
  0
LINE
  8
0
 10
 1.81837502935900E+0002
 20
 1.10748697308320E+0003
 11
 1.79706686361600E+0002
 21
 1.11875139095680E+0003
  0
LINE
  8
0
 10
 1.79706686361600E+0002
 20
 1.11875139095680E+0003
 11
 1.77702907585700E+0002
 21
 1.13014550547360E+0003
  0
LINE
  8
0
 10
 1.77702907585700E+0002
 20
 1.13014550547360E+0003
 11
 1.75829499700000E+0002
 21
 1.14167269760000E+0003
  0
LINE
  8
0
 10
 1.75829499700000E+0002
 20
 1.14167269760000E+0003
 11
 1.74089795796300E+0002
 21
 1.15333634830240E+0003
  0
LINE
  8
0
 10
 1.74089795796300E+0002
 20
 1.15333634830240E+0003
 11
 1.72487128966400E+0002
 21
 1.16513983854720E+0003
  0
LINE
  8
0
 10
 1.72487128966400E+0002
 20
 1.16513983854720E+0003
 11
 1.71024832302100E+0002
 21
 1.17708654930080E+0003
  0
LINE
  8
0
 10
 1.71024832302100E+0002
 20
 1.17708654930080E+0003
 11
 1.69706238895200E+0002
 21
 1.18917986152960E+0003
  0
LINE
  8
0
 10
 1.69706238895200E+0002
 20
 1.18917986152960E+0003
 11
 1.68534681837500E+0002
 21
 1.20142315620000E+0003
  0
LINE
  8
0
 10
 1.68534681837500E+0002
 20
 1.20142315620000E+0003
 11
 1.67513494220800E+0002
 21
 1.21381981427840E+0003
  0
LINE
  8
0
 10
 1.67513494220800E+0002
 20
 1.21381981427840E+0003
 11
 1.66646009136900E+0002
 21
 1.22637321673120E+0003
  0
LINE
  8
0
 10
 1.66646009136900E+0002
 20
 1.22637321673120E+0003
 11
 1.65935559677600E+0002
 21
 1.23908674452480E+0003
  0
LINE
  8
0
 10
 1.65935559677600E+0002
 20
 1.23908674452480E+0003
 11
 1.65385478934700E+0002
 21
 1.25196377862560E+0003
  0
LINE
  8
0
 10
 1.65385478934700E+0002
 20
 1.25196377862560E+0003
 11
 1.64999100000000E+0002
 21
 1.26500770000000E+0003
  0
LINE
  8
0
 10
 1.64999100000000E+0002
 20
 1.26500770000000E+0003
 11
 1.65000000000000E+0002
 21
 1.30700000000000E+0003
  0
LINE
  8
0
 10
 1.65000000000000E+0002
 20
 1.30700000000000E+0003
 11
 1.19999490553610E+0002
 21
 1.29538091843480E+0003
  0
ARC
  8
0
 10
 1.17000000000000E+0002
 20
 1.30700000000000E+0003
 40
 1.20000000000000E+0001
 50
 1.46195000000000E+0002
 51
 2.84475000000000E+0002
  0
LINE
  8
0
 10
 1.07028768958083E+0002
 20
 1.31367641756549E+0003
 11
 1.95000000000000E+0002
 21
 1.44500000000000E+0003
  0
LINE
  8
0
 10
 1.95000000000000E+0002
 20
 1.44500000000000E+0003
 11
 2.82971231041917E+0002
 21
 1.31367641756549E+0003
  0
ARC
  8
0
 10
 2.73000000000000E+0002
 20
 1.30700000000000E+0003
 40
 1.20000000000000E+0001
 50
 2.55525000000000E+0002
 51
 3.93805000000000E+0002
  0
LINE
  8
0
 10
 2.70000509446390E+0002
 20
 1.29538091843480E+0003
 11
 2.25000000000000E+0002
 21
 1.30700000000000E+0003
  0
LINE
  8
0
 10
 2.25000000000000E+0002
 20
 1.30700000000000E+0003
 11
 2.25000000000000E+0002
 21
 1.26500000000000E+0003
  0
LINE
  8
0
 10
 1.02500000000000E+0003
 20
 1.26500000000000E+0003
 11
 1.02461360998810E+0003
 21
 1.25195630732330E+0003
  0
LINE
  8
0
 10
 1.02461360998810E+0003
 20
 1.25195630732330E+0003
 11
 1.02406351998480E+0003
 21
 1.23907949734640E+0003
  0
LINE
  8
0
 10
 1.02406351998480E+0003
 20
 1.23907949734640E+0003
 11
 1.02335306303870E+0003
 21
 1.22636618914910E+0003
  0
LINE
  8
0
 10
 1.02335306303870E+0003
 20
 1.22636618914910E+0003
 11
 1.02248557219840E+0003
 21
 1.21381300181120E+0003
  0
LINE
  8
0
 10
 1.02248557219840E+0003
 20
 1.21381300181120E+0003
 11
 1.02146438051250E+0003
 21
 1.20141655441250E+0003
  0
LINE
  8
0
 10
 1.02146438051250E+0003
 20
 1.20141655441250E+0003
 11
 1.02029282102960E+0003
 21
 1.18917346603280E+0003
  0
LINE
  8
0
 10
 1.02029282102960E+0003
 20
 1.18917346603280E+0003
 11
 1.01897422679830E+0003
 21
 1.17708035575190E+0003
  0
LINE
  8
0
 10
 1.01897422679830E+0003
 20
 1.17708035575190E+0003
 11
 1.01751193086720E+0003
 21
 1.16513384264960E+0003
  0
LINE
  8
0
 10
 1.01751193086720E+0003
 20
 1.16513384264960E+0003
 11
 1.01590926628490E+0003
 21
 1.15333054580570E+0003
  0
LINE
  8
0
 10
 1.01590926628490E+0003
 20
 1.15333054580570E+0003
 11
 1.01416956610000E+0003
 21
 1.14166708430000E+0003
  0
LINE
  8
0
 10
 1.01416956610000E+0003
 20
 1.14166708430000E+0003
 11
 1.01229616336110E+0003
 21
 1.13014007721230E+0003
  0
LINE
  8
0
 10
 1.01229616336110E+0003
 20
 1.13014007721230E+0003
 11
 1.01029239111680E+0003
 21
 1.11874614362240E+0003
  0
LINE
  8
0
 10
 1.01029239111680E+0003
 20
 1.11874614362240E+0003
 11
 1.00816158241570E+0003
 21
 1.10748190261010E+0003
  0
LINE
  8
0
 10
 1.00816158241570E+0003
 20
 1.10748190261010E+0003
 11
 1.00590707030640E+0003
 21
 1.09634397325520E+0003
  0
LINE
  8
0
 10
 1.00590707030640E+0003
 20
 1.09634397325520E+0003
 11
 1.00353218783750E+0003
 21
 1.08532897463750E+0003
  0
LINE
  8
0
 10
 1.00353218783750E+0003
 20
 1.08532897463750E+0003
 11
 1.00104026805760E+0003
 21
 1.07443352583680E+0003
  0
LINE
  8
0
 10
 1.00104026805760E+0003
 20
 1.07443352583680E+0003
 11
 9.98434644015300E+0002
 21
 1.06365424593290E+0003
  0
LINE
  8
0
 10
 9.98434644015300E+0002
 20
 1.06365424593290E+0003
 11
 9.95718648759200E+0002
 21
 1.05298775400560E+0003
  0
LINE
  8
0
 10
 9.95718648759200E+0002
 20
 1.05298775400560E+0003
 11
 9.92895615337900E+0002
 21
 1.04243066913470E+0003
  0
LINE
  8
0
 10
 9.92895615337900E+0002
 20
 1.04243066913470E+0003
 11
 9.89968876800000E+0002
 21
 1.03197961040000E+0003
  0
LINE
  8
0
 10
 9.89968876800000E+0002
 20
 1.03197961040000E+0003
 11
 9.86941766194100E+0002
 21
 1.02163119688130E+0003
  0
LINE
  8
0
 10
 9.86941766194100E+0002
 20
 1.02163119688130E+0003
 11
 9.83817616568800E+0002
 21
 1.01138204765840E+0003
  0
LINE
  8
0
 10
 9.83817616568800E+0002
 20
 1.01138204765840E+0003
 11
 9.80599760972700E+0002
 21
 1.00122878181110E+0003
  0
LINE
  8
0
 10
 9.80599760972700E+0002
 20
 1.00122878181110E+0003
 11
 9.77291532454400E+0002
 21
 9.91168018419200E+0002
  0
LINE
  8
0
 10
 9.77291532454400E+0002
 20
 9.91168018419200E+0002
 11
 9.73896264062500E+0002
 21
 9.81196376562500E+0002
  0
LINE
  8
0
 10
 9.73896264062500E+0002
 20
 9.81196376562500E+0002
 11
 9.70417288845600E+0002
 21
 9.71310475320800E+0002
  0
LINE
  8
0
 10
 9.70417288845600E+0002
 20
 9.71310475320800E+0002
 11
 9.66857939852300E+0002
 21
 9.61506933773900E+0002
  0
LINE
  8
0
 10
 9.66857939852300E+0002
 20
 9.61506933773900E+0002
 11
 9.63221550131200E+0002
 21
 9.51782371001600E+0002
  0
LINE
  8
0
 10
 9.63221550131200E+0002
 20
 9.51782371001600E+0002
 11
 9.59511452730900E+0002
 21
 9.42133406083700E+0002
  0
LINE
  8
0
 10
 9.59511452730900E+0002
 20
 9.42133406083700E+0002
 11
 9.55730980700000E+0002
 21
 9.32556658100000E+0002
  0
LINE
  8
0
 10
 9.55730980700000E+0002
 20
 9.32556658100000E+0002
 11
 9.51883467087100E+0002
 21
 9.23048746130300E+0002
  0
LINE
  8
0
 10
 9.51883467087100E+0002
 20
 9.23048746130300E+0002
 11
 9.47972244940800E+0002
 21
 9.13606289254400E+0002
  0
LINE
  8
0
 10
 9.47972244940800E+0002
 20
 9.13606289254400E+0002
 11
 9.44000647309700E+0002
 21
 9.04225906552100E+0002
  0
LINE
  8
0
 10
 9.44000647309700E+0002
 20
 9.04225906552100E+0002
 11
 9.39972007242400E+0002
 21
 8.94904217103200E+0002
  0
LINE
  8
0
 10
 9.39972007242400E+0002
 20
 8.94904217103200E+0002
 11
 9.35889657787500E+0002
 21
 8.85637839987500E+0002
  0
LINE
  8
0
 10
 9.35889657787500E+0002
 20
 8.85637839987500E+0002
 11
 9.31756931993600E+0002
 21
 8.76423394284800E+0002
  0
LINE
  8
0
 10
 9.31756931993600E+0002
 20
 8.76423394284800E+0002
 11
 9.27577162909300E+0002
 21
 8.67257499074900E+0002
  0
LINE
  8
0
 10
 9.27577162909300E+0002
 20
 8.67257499074900E+0002
 11
 9.23353683583200E+0002
 21
 8.58136773437600E+0002
  0
LINE
  8
0
 10
 9.23353683583200E+0002
 20
 8.58136773437600E+0002
 11
 9.19089827063900E+0002
 21
 8.49057836452700E+0002
  0
LINE
  8
0
 10
 9.19089827063900E+0002
 20
 8.49057836452700E+0002
 11
 9.14788926400000E+0002
 21
 8.40017307200000E+0002
  0
LINE
  8
0
 10
 9.14788926400000E+0002
 20
 8.40017307200000E+0002
 11
 9.10454314640100E+0002
 21
 8.31011804759300E+0002
  0
LINE
  8
0
 10
 9.10454314640100E+0002
 20
 8.31011804759300E+0002
 11
 9.06089324832800E+0002
 21
 8.22037948210400E+0002
  0
LINE
  8
0
 10
 9.06089324832800E+0002
 20
 8.22037948210400E+0002
 11
 9.01697290026700E+0002
 21
 8.13092356633100E+0002
  0
LINE
  8
0
 10
 9.01697290026700E+0002
 20
 8.13092356633100E+0002
 11
 8.97281543270400E+0002
 21
 8.04171649107200E+0002
  0
LINE
  8
0
 10
 8.97281543270400E+0002
 20
 8.04171649107200E+0002
 11
 8.92845417612500E+0002
 21
 7.95272444712500E+0002
  0
LINE
  8
0
 10
 8.92845417612500E+0002
 20
 7.95272444712500E+0002
 11
 8.88392246101600E+0002
 21
 7.86391362528800E+0002
  0
LINE
  8
0
 10
 8.88392246101600E+0002
 20
 7.86391362528800E+0002
 11
 8.83925361786300E+0002
 21
 7.77525021635900E+0002
  0
LINE
  8
0
 10
 8.83925361786300E+0002
 20
 7.77525021635900E+0002
 11
 8.79448097715200E+0002
 21
 7.68670041113600E+0002
  0
LINE
  8
0
 10
 8.79448097715200E+0002
 20
 7.68670041113600E+0002
 11
 8.74963786936900E+0002
 21
 7.59823040041700E+0002
  0
LINE
  8
0
 10
 8.74963786936900E+0002
 20
 7.59823040041700E+0002
 11
 8.70475762500000E+0002
 21
 7.50980637500000E+0002
  0
LINE
  8
0
 10
 8.70475762500000E+0002
 20
 7.50980637500000E+0002
 11
 8.65987357453100E+0002
 21
 7.42139452568300E+0002
  0
LINE
  8
0
 10
 8.65987357453100E+0002
 20
 7.42139452568300E+0002
 11
 8.61501904844800E+0002
 21
 7.33296104326400E+0002
  0
LINE
  8
0
 10
 8.61501904844800E+0002
 20
 7.33296104326400E+0002
 11
 8.57022737723700E+0002
 21
 7.24447211854100E+0002
  0
LINE
  8
0
 10
 8.57022737723700E+0002
 20
 7.24447211854100E+0002
 11
 8.52553189138400E+0002
 21
 7.15589394231200E+0002
  0
LINE
  8
0
 10
 8.52553189138400E+0002
 20
 7.15589394231200E+0002
 11
 8.48096592137500E+0002
 21
 7.06719270537500E+0002
  0
LINE
  8
0
 10
 8.48096592137500E+0002
 20
 7.06719270537500E+0002
 11
 8.43656279769600E+0002
 21
 6.97833459852800E+0002
  0
LINE
  8
0
 10
 8.43656279769600E+0002
 20
 6.97833459852800E+0002
 11
 8.39235585083300E+0002
 21
 6.88928581256900E+0002
  0
LINE
  8
0
 10
 8.39235585083300E+0002
 20
 6.88928581256900E+0002
 11
 8.34837841127200E+0002
 21
 6.80001253829600E+0002
  0
LINE
  8
0
 10
 8.34837841127200E+0002
 20
 6.80001253829600E+0002
 11
 8.30466380949900E+0002
 21
 6.71048096650700E+0002
  0
LINE
  8
0
 10
 8.30466380949900E+0002
 20
 6.71048096650700E+0002
 11
 8.26124537600000E+0002
 21
 6.62065728800000E+0002
  0
LINE
  8
0
 10
 8.26124537600000E+0002
 20
 6.62065728800000E+0002
 11
 8.21815644126100E+0002
 21
 6.53050769357300E+0002
  0
LINE
  8
0
 10
 8.21815644126100E+0002
 20
 6.53050769357300E+0002
 11
 8.17543033576800E+0002
 21
 6.43999837402400E+0002
  0
LINE
  8
0
 10
 8.17543033576800E+0002
 20
 6.43999837402400E+0002
 11
 8.13310039000700E+0002
 21
 6.34909552015100E+0002
  0
LINE
  8
0
 10
 8.13310039000700E+0002
 20
 6.34909552015100E+0002
 11
 8.09119993446400E+0002
 21
 6.25776532275200E+0002
  0
LINE
  8
0
 10
 8.09119993446400E+0002
 20
 6.25776532275200E+0002
 11
 8.04976229962500E+0002
 21
 6.16597397262500E+0002
  0
LINE
  8
0
 10
 8.04976229962500E+0002
 20
 6.16597397262500E+0002
 11
 8.00882081597600E+0002
 21
 6.07368766056800E+0002
  0
LINE
  8
0
 10
 8.00882081597600E+0002
 20
 6.07368766056800E+0002
 11
 7.96840881400300E+0002
 21
 5.98087257737900E+0002
  0
LINE
  8
0
 10
 7.96840881400300E+0002
 20
 5.98087257737900E+0002
 11
 7.92855962419200E+0002
 21
 5.88749491385600E+0002
  0
LINE
  8
0
 10
 7.92855962419200E+0002
 20
 5.88749491385600E+0002
 11
 7.88930657702900E+0002
 21
 5.79352086079700E+0002
  0
LINE
  8
0
 10
 7.88930657702900E+0002
 20
 5.79352086079700E+0002
 11
 7.85068300300000E+0002
 21
 5.69891660900000E+0002
  0
LINE
  8
0
 10
 7.85068300300000E+0002
 20
 5.69891660900000E+0002
 11
 7.81272223259100E+0002
 21
 5.60364834926300E+0002
  0
LINE
  8
0
 10
 7.81272223259100E+0002
 20
 5.60364834926300E+0002
 11
 7.77545759628800E+0002
 21
 5.50768227238400E+0002
  0
LINE
  8
0
 10
 7.77545759628800E+0002
 20
 5.50768227238400E+0002
 11
 7.73892242457700E+0002
 21
 5.41098456916100E+0002
  0
LINE
  8
0
 10
 7.73892242457700E+0002
 20
 5.41098456916100E+0002
 11
 7.70315004794400E+0002
 21
 5.31352143039200E+0002
  0
LINE
  8
0
 10
 7.70315004794400E+0002
 20
 5.31352143039200E+0002
 11
 7.66817379687500E+0002
 21
 5.21525904687500E+0002
  0
LINE
  8
0
 10
 7.66817379687500E+0002
 20
 5.21525904687500E+0002
 11
 7.63402700185600E+0002
 21
 5.11616360940800E+0002
  0
LINE
  8
0
 10
 7.63402700185600E+0002
 20
 5.11616360940800E+0002
 11
 7.60074299337300E+0002
 21
 5.01620130878900E+0002
  0
LINE
  8
0
 10
 7.60074299337300E+0002
 20
 5.01620130878900E+0002
 11
 7.56835510191200E+0002
 21
 4.91533833581600E+0002
  0
LINE
  8
0
 10
 7.56835510191200E+0002
 20
 4.91533833581600E+0002
 11
 7.53689665795900E+0002
 21
 4.81354088128700E+0002
  0
LINE
  8
0
 10
 7.53689665795900E+0002
 20
 4.81354088128700E+0002
 11
 7.50640099200000E+0002
 21
 4.71077513600000E+0002
  0
LINE
  8
0
 10
 7.50640099200000E+0002
 20
 4.71077513600000E+0002
 11
 7.47690143452100E+0002
 21
 4.60700729075300E+0002
  0
LINE
  8
0
 10
 7.47690143452100E+0002
 20
 4.60700729075300E+0002
 11
 7.44843131600800E+0002
 21
 4.50220353634400E+0002
  0
LINE
  8
0
 10
 7.44843131600800E+0002
 20
 4.50220353634400E+0002
 11
 7.42102396694700E+0002
 21
 4.39633006357100E+0002
  0
LINE
  8
0
 10
 7.42102396694700E+0002
 20
 4.39633006357100E+0002
 11
 7.39471271782400E+0002
 21
 4.28935306323200E+0002
  0
LINE
  8
0
 10
 7.39471271782400E+0002
 20
 4.28935306323200E+0002
 11
 7.36953089912500E+0002
 21
 4.18123872612500E+0002
  0
LINE
  8
0
 10
 7.36953089912500E+0002
 20
 4.18123872612500E+0002
 11
 7.34551184133600E+0002
 21
 4.07195324304800E+0002
  0
LINE
  8
0
 10
 7.34551184133600E+0002
 20
 4.07195324304800E+0002
 11
 7.32268887494300E+0002
 21
 3.96146280479900E+0002
  0
LINE
  8
0
 10
 7.32268887494300E+0002
 20
 3.96146280479900E+0002
 11
 7.30109533043200E+0002
 21
 3.84973360217600E+0002
  0
LINE
  8
0
 10
 7.30109533043200E+0002
 20
 3.84973360217600E+0002
 11
 7.28076453828900E+0002
 21
 3.73673182597700E+0002
  0
LINE
  8
0
 10
 7.28076453828900E+0002
 20
 3.73673182597700E+0002
 11
 7.26172982900000E+0002
 21
 3.62242366700000E+0002
  0
LINE
  8
0
 10
 7.26172982900000E+0002
 20
 3.62242366700000E+0002
 11
 7.24402453305100E+0002
 21
 3.50677531604300E+0002
  0
LINE
  8
0
 10
 7.24402453305100E+0002
 20
 3.50677531604300E+0002
 11
 7.22768198092800E+0002
 21
 3.38975296390400E+0002
  0
LINE
  8
0
 10
 7.22768198092800E+0002
 20
 3.38975296390400E+0002
 11
 7.21273550311700E+0002
 21
 3.27132280138100E+0002
  0
LINE
  8
0
 10
 7.21273550311700E+0002
 20
 3.27132280138100E+0002
 11
 7.19921843010400E+0002
 21
 3.15145101927200E+0002
  0
LINE
  8
0
 10
 7.19921843010400E+0002
 20
 3.15145101927200E+0002
 11
 7.18716409237500E+0002
 21
 3.03010380837500E+0002
  0
LINE
  8
0
 10
 7.18716409237500E+0002
 20
 3.03010380837500E+0002
 11
 7.17660582041600E+0002
 21
 2.90724735948800E+0002
  0
LINE
  8
0
 10
 7.17660582041600E+0002
 20
 2.90724735948800E+0002
 11
 7.16757694471300E+0002
 21
 2.78284786340900E+0002
  0
LINE
  8
0
 10
 7.16757694471300E+0002
 20
 2.78284786340900E+0002
 11
 7.16011079575200E+0002
 21
 2.65687151093600E+0002
  0
LINE
  8
0
 10
 7.16011079575200E+0002
 20
 2.65687151093600E+0002
 11
 7.15424070401900E+0002
 21
 2.52928449286700E+0002
  0
LINE
  8
0
 10
 7.15424070401900E+0002
 20
 2.52928449286700E+0002
 11
 7.15000000000000E+0002
 21
 2.40005300000000E+0002
  0
LINE
  8
0
 10
 7.15000000000000E+0002
 20
 2.40005300000000E+0002
 11
 7.15000000000000E+0002
 21
 1.55000000000000E+0002
  0
LINE
  8
0
 10
 7.15000000000000E+0002
 20
 1.55000000000000E+0002
 11
 7.75000000000000E+0002
 21
 1.55000000000000E+0002
  0
LINE
  8
0
 10
 7.75000000000000E+0002
 20
 1.55000000000000E+0002
 11
 7.75000000000000E+0002
 21
 2.40005300000000E+0002
  0
LINE
  8
0
 10
 7.75000000000000E+0002
 20
 2.40005300000000E+0002
 11
 7.75424029624700E+0002
 21
 2.52928449294400E+0002
  0
LINE
  8
0
 10
 7.75424029624700E+0002
 20
 2.52928449294400E+0002
 11
 7.76011000437600E+0002
 21
 2.65687151155200E+0002
  0
LINE
  8
0
 10
 7.76011000437600E+0002
 20
 2.65687151155200E+0002
 11
 7.76757579346900E+0002
 21
 2.78284786548800E+0002
  0
LINE
  8
0
 10
 7.76757579346900E+0002
 20
 2.78284786548800E+0002
 11
 7.77660433260800E+0002
 21
 2.90724736441600E+0002
  0
LINE
  8
0
 10
 7.77660433260800E+0002
 20
 2.90724736441600E+0002
 11
 7.78716229087500E+0002
 21
 3.03010381800000E+0002
  0
LINE
  8
0
 10
 7.78716229087500E+0002
 20
 3.03010381800000E+0002
 11
 7.79921633735200E+0002
 21
 3.15145103590400E+0002
  0
LINE
  8
0
 10
 7.79921633735200E+0002
 20
 3.15145103590400E+0002
 11
 7.81273314112100E+0002
 21
 3.27132282779200E+0002
  0
LINE
  8
0
 10
 7.81273314112100E+0002
 20
 3.27132282779200E+0002
 11
 7.82767937126400E+0002
 21
 3.38975300332800E+0002
  0
LINE
  8
0
 10
 7.82767937126400E+0002
 20
 3.38975300332800E+0002
 11
 7.84402169686300E+0002
 21
 3.50677537217600E+0002
  0
LINE
  8
0
 10
 7.84402169686300E+0002
 20
 3.50677537217600E+0002
 11
 7.86172678700000E+0002
 21
 3.62242374400000E+0002
  0
LINE
  8
0
 10
 7.86172678700000E+0002
 20
 3.62242374400000E+0002
 11
 7.88076131075700E+0002
 21
 3.73673192846400E+0002
  0
LINE
  8
0
 10
 7.88076131075700E+0002
 20
 3.73673192846400E+0002
 11
 7.90109193721600E+0002
 21
 3.84973373523200E+0002
  0
LINE
  8
0
 10
 7.90109193721600E+0002
 20
 3.84973373523200E+0002
 11
 7.92268533545900E+0002
 21
 3.96146297396800E+0002
  0
LINE
  8
0
 10
 7.92268533545900E+0002
 20
 3.96146297396800E+0002
 11
 7.94550817456800E+0002
 21
 4.07195345433600E+0002
  0
LINE
  8
0
 10
 7.94550817456800E+0002
 20
 4.07195345433600E+0002
 11
 7.96952712362500E+0002
 21
 4.18123898600000E+0002
  0
LINE
  8
0
 10
 7.96952712362500E+0002
 20
 4.18123898600000E+0002
 11
 7.99470885171200E+0002
 21
 4.28935337862400E+0002
  0
LINE
  8
0
 10
 7.99470885171200E+0002
 20
 4.28935337862400E+0002
 11
 8.02102002791100E+0002
 21
 4.39633044187200E+0002
  0
LINE
  8
0
 10
 8.02102002791100E+0002
 20
 4.39633044187200E+0002
 11
 8.04842732130400E+0002
 21
 4.50220398540800E+0002
  0
LINE
  8
0
 10
 8.04842732130400E+0002
 20
 4.50220398540800E+0002
 11
 8.07689740097300E+0002
 21
 4.60700781889600E+0002
  0
LINE
  8
0
 10
 8.07689740097300E+0002
 20
 4.60700781889600E+0002
 11
 8.10639693600000E+0002
 21
 4.71077575200000E+0002
  0
LINE
  8
0
 10
 8.10639693600000E+0002
 20
 4.71077575200000E+0002
 11
 8.13689259546700E+0002
 21
 4.81354159438400E+0002
  0
LINE
  8
0
 10
 8.13689259546700E+0002
 20
 4.81354159438400E+0002
 11
 8.16835104845600E+0002
 21
 4.91533915571200E+0002
  0
LINE
  8
0
 10
 8.16835104845600E+0002
 20
 4.91533915571200E+0002
 11
 8.20073896404900E+0002
 21
 5.01620224564800E+0002
  0
LINE
  8
0
 10
 8.20073896404900E+0002
 20
 5.01620224564800E+0002
 11
 8.23402301132800E+0002
 21
 5.11616467385600E+0002
  0
LINE
  8
0
 10
 8.23402301132800E+0002
 20
 5.11616467385600E+0002
 11
 8.26816985937500E+0002
 21
 5.21526025000000E+0002
  0
LINE
  8
0
 10
 8.26816985937500E+0002
 20
 5.21526025000000E+0002
 11
 8.30314617727200E+0002
 21
 5.31352278374400E+0002
  0
LINE
  8
0
 10
 8.30314617727200E+0002
 20
 5.31352278374400E+0002
 11
 8.33891863410100E+0002
 21
 5.41098608475200E+0002
  0
LINE
  8
0
 10
 8.33891863410100E+0002
 20
 5.41098608475200E+0002
 11
 8.37545389894400E+0002
 21
 5.50768396268800E+0002
  0
LINE
  8
0
 10
 8.37545389894400E+0002
 20
 5.50768396268800E+0002
 11
 8.41271864088300E+0002
 21
 5.60365022721600E+0002
  0
LINE
  8
0
 10
 8.41271864088300E+0002
 20
 5.60365022721600E+0002
 11
 8.45067952900000E+0002
 21
 5.69891868800000E+0002
  0
LINE
  8
0
 10
 8.45067952900000E+0002
 20
 5.69891868800000E+0002
 11
 8.48930323237700E+0002
 21
 5.79352315470400E+0002
  0
LINE
  8
0
 10
 8.48930323237700E+0002
 20
 5.79352315470400E+0002
 11
 8.52855642009600E+0002
 21
 5.88749743699200E+0002
  0
LINE
  8
0
 10
 8.52855642009600E+0002
 20
 5.88749743699200E+0002
 11
 8.56840576123900E+0002
 21
 5.98087534452800E+0002
  0
LINE
  8
0
 10
 8.56840576123900E+0002
 20
 5.98087534452800E+0002
 11
 8.60881792488800E+0002
 21
 6.07369068697600E+0002
  0
LINE
  8
0
 10
 8.60881792488800E+0002
 20
 6.07369068697600E+0002
 11
 8.64975958012500E+0002
 21
 6.16597727400000E+0002
  0
LINE
  8
0
 10
 8.64975958012500E+0002
 20
 6.16597727400000E+0002
 11
 8.69119739603200E+0002
 21
 6.25776891526400E+0002
  0
LINE
  8
0
 10
 8.69119739603200E+0002
 20
 6.25776891526400E+0002
 11
 8.73309804169100E+0002
 21
 6.34909942043200E+0002
  0
LINE
  8
0
 10
 8.73309804169100E+0002
 20
 6.34909942043200E+0002
 11
 8.77542818618400E+0002
 21
 6.44000259916800E+0002
  0
LINE
  8
0
 10
 8.77542818618400E+0002
 20
 6.44000259916800E+0002
 11
 8.81815449859300E+0002
 21
 6.53051226113600E+0002
  0
LINE
  8
0
 10
 8.81815449859300E+0002
 20
 6.53051226113600E+0002
 11
 8.86124364800000E+0002
 21
 6.62066221600000E+0002
  0
LINE
  8
0
 10
 8.86124364800000E+0002
 20
 6.62066221600000E+0002
 11
 8.90466230348700E+0002
 21
 6.71048627342400E+0002
  0
LINE
  8
0
 10
 8.90466230348700E+0002
 20
 6.71048627342400E+0002
 11
 8.94837713413600E+0002
 21
 6.80001824307200E+0002
  0
LINE
  8
0
 10
 8.94837713413600E+0002
 20
 6.80001824307200E+0002
 11
 8.99235480902900E+0002
 21
 6.88929193460800E+0002
  0
LINE
  8
0
 10
 8.99235480902900E+0002
 20
 6.88929193460800E+0002
 11
 9.03656199724800E+0002
 21
 6.97834115769600E+0002
  0
LINE
  8
0
 10
 9.03656199724800E+0002
 20
 6.97834115769600E+0002
 11
 9.08096536787500E+0002
 21
 7.06719972200000E+0002
  0
LINE
  8
0
 10
 9.08096536787500E+0002
 20
 7.06719972200000E+0002
 11
 9.12553158999200E+0002
 21
 7.15590143718400E+0002
  0
LINE
  8
0
 10
 9.12553158999200E+0002
 20
 7.15590143718400E+0002
 11
 9.17022733268100E+0002
 21
 7.24448011291200E+0002
  0
LINE
  8
0
 10
 9.17022733268100E+0002
 20
 7.24448011291200E+0002
 11
 9.21501926502400E+0002
 21
 7.33296955884800E+0002
  0
LINE
  8
0
 10
 9.21501926502400E+0002
 20
 7.33296955884800E+0002
 11
 9.25987405610300E+0002
 21
 7.42140358465600E+0002
  0
LINE
  8
0
 10
 9.25987405610300E+0002
 20
 7.42140358465600E+0002
 11
 9.30475837500000E+0002
 21
 7.50981600000000E+0002
  0
LINE
  8
0
 10
 9.30475837500000E+0002
 20
 7.50981600000000E+0002
 11
 9.34963889079700E+0002
 21
 7.59824061454400E+0002
  0
LINE
  8
0
 10
 9.34963889079700E+0002
 20
 7.59824061454400E+0002
 11
 9.39448227257600E+0002
 21
 7.68671123795200E+0002
  0
LINE
  8
0
 10
 9.39448227257600E+0002
 20
 7.68671123795200E+0002
 11
 9.43925518941900E+0002
 21
 7.77526167988800E+0002
  0
LINE
  8
0
 10
 9.43925518941900E+0002
 20
 7.77526167988800E+0002
 11
 9.48392431040800E+0002
 21
 7.86392575001600E+0002
  0
LINE
  8
0
 10
 9.48392431040800E+0002
 20
 7.86392575001600E+0002
 11
 9.52845630462500E+0002
 21
 7.95273725800000E+0002
  0
LINE
  8
0
 10
 9.52845630462500E+0002
 20
 7.95273725800000E+0002
 11
 9.57281784115200E+0002
 21
 8.04173001350400E+0002
  0
LINE
  8
0
 10
 9.57281784115200E+0002
 20
 8.04173001350400E+0002
 11
 9.61697558907100E+0002
 21
 8.13093782619200E+0002
  0
LINE
  8
0
 10
 9.61697558907100E+0002
 20
 8.13093782619200E+0002
 11
 9.66089621746400E+0002
 21
 8.22039450572800E+0002
  0
LINE
  8
0
 10
 9.66089621746400E+0002
 20
 8.22039450572800E+0002
 11
 9.70454639541300E+0002
 21
 8.31013386177600E+0002
  0
LINE
  8
0
 10
 9.70454639541300E+0002
 20
 8.31013386177600E+0002
 11
 9.74789279200000E+0002
 21
 8.40018970400000E+0002
  0
LINE
  8
0
 10
 9.74789279200000E+0002
 20
 8.40018970400000E+0002
 11
 9.79090207630700E+0002
 21
 8.49059584206400E+0002
  0
LINE
  8
0
 10
 9.79090207630700E+0002
 20
 8.49059584206400E+0002
 11
 9.83354091741600E+0002
 21
 8.58138608563200E+0002
  0
LINE
  8
0
 10
 9.83354091741600E+0002
 20
 8.58138608563200E+0002
 11
 9.87577598440900E+0002
 21
 8.67259424436800E+0002
  0
LINE
  8
0
 10
 9.87577598440900E+0002
 20
 8.67259424436800E+0002
 11
 9.91757394636800E+0002
 21
 8.76425412793600E+0002
  0
LINE
  8
0
 10
 9.91757394636800E+0002
 20
 8.76425412793600E+0002
 11
 9.95890147237500E+0002
 21
 8.85639954600000E+0002
  0
LINE
  8
0
 10
 9.95890147237500E+0002
 20
 8.85639954600000E+0002
 11
 9.99972523151200E+0002
 21
 8.94906430822400E+0002
  0
LINE
  8
0
 10
 9.99972523151200E+0002
 20
 8.94906430822400E+0002
 11
 1.00400118928610E+0003
 21
 9.04228222427200E+0002
  0
LINE
  8
0
 10
 1.00400118928610E+0003
 20
 9.04228222427200E+0002
 11
 1.00797281255040E+0003
 21
 9.13608710380800E+0002
  0
LINE
  8
0
 10
 1.00797281255040E+0003
 20
 9.13608710380800E+0002
 11
 1.01188405985230E+0003
 21
 9.23051275649600E+0002
  0
LINE
  8
0
 10
 1.01188405985230E+0003
 20
 9.23051275649600E+0002
 11
 1.01573159810000E+0003
 21
 9.32559299200000E+0002
  0
LINE
  8
0
 10
 1.01573159810000E+0003
 20
 9.32559299200000E+0002
 11
 1.01951209420170E+0003
 21
 9.42136161998400E+0002
  0
LINE
  8
0
 10
 1.01951209420170E+0003
 20
 9.42136161998400E+0002
 11
 1.02322221506560E+0003
 21
 9.51785245011200E+0002
  0
LINE
  8
0
 10
 1.02322221506560E+0003
 20
 9.51785245011200E+0002
 11
 1.02685862759990E+0003
 21
 9.61509929204800E+0002
  0
LINE
  8
0
 10
 1.02685862759990E+0003
 20
 9.61509929204800E+0002
 11
 1.03041799871280E+0003
 21
 9.71313595545600E+0002
  0
LINE
  8
0
 10
 1.03041799871280E+0003
 20
 9.71313595545600E+0002
 11
 1.03389699531250E+0003
 21
 9.81199625000000E+0002
  0
LINE
  8
0
 10
 1.03389699531250E+0003
 20
 9.81199625000000E+0002
 11
 1.03729228430720E+0003
 21
 9.91171398534400E+0002
  0
LINE
  8
0
 10
 1.03729228430720E+0003
 20
 9.91171398534400E+0002
 11
 1.04060053260510E+0003
 21
 1.00123229711520E+0003
  0
LINE
  8
0
 10
 1.04060053260510E+0003
 20
 1.00123229711520E+0003
 11
 1.04381840711440E+0003
 21
 1.01138570170880E+0003
  0
LINE
  8
0
 10
 1.04381840711440E+0003
 20
 1.01138570170880E+0003
 11
 1.04694257474330E+0003
 21
 1.02163499328160E+0003
  0
LINE
  8
0
 10
 1.04694257474330E+0003
 20
 1.02163499328160E+0003
 11
 1.04996970240000E+0003
 21
 1.03198355280000E+0003
  0
LINE
  8
0
 10
 1.04996970240000E+0003
 20
 1.03198355280000E+0003
 11
 1.05289645699270E+0003
 21
 1.04243476123040E+0003
  0
LINE
  8
0
 10
 1.05289645699270E+0003
 20
 1.04243476123040E+0003
 11
 1.05571950542960E+0003
 21
 1.05299199953920E+0003
  0
LINE
  8
0
 10
 1.05571950542960E+0003
 20
 1.05299199953920E+0003
 11
 1.05843551461890E+0003
 21
 1.06365864869280E+0003
  0
LINE
  8
0
 10
 1.05843551461890E+0003
 20
 1.06365864869280E+0003
 11
 1.06104115146880E+0003
 21
 1.07443808965760E+0003
  0
LINE
  8
0
 10
 1.06104115146880E+0003
 20
 1.07443808965760E+0003
 11
 1.06353308288750E+0003
 21
 1.08533370340000E+0003
  0
LINE
  8
0
 10
 1.06353308288750E+0003
 20
 1.08533370340000E+0003
 11
 1.06590797578320E+0003
 21
 1.09634887088640E+0003
  0
LINE
  8
0
 10
 1.06590797578320E+0003
 20
 1.09634887088640E+0003
 11
 1.06816249706410E+0003
 21
 1.10748697308320E+0003
  0
LINE
  8
0
 10
 1.06816249706410E+0003
 20
 1.10748697308320E+0003
 11
 1.07029331363840E+0003
 21
 1.11875139095680E+0003
  0
LINE
  8
0
 10
 1.07029331363840E+0003
 20
 1.11875139095680E+0003
 11
 1.07229709241430E+0003
 21
 1.13014550547360E+0003
  0
LINE
  8
0
 10
 1.07229709241430E+0003
 20
 1.13014550547360E+0003
 11
 1.07417050030000E+0003
 21
 1.14167269760000E+0003
  0
LINE
  8
0
 10
 1.07417050030000E+0003
 20
 1.14167269760000E+0003
 11
 1.07591020420370E+0003
 21
 1.15333634830240E+0003
  0
LINE
  8
0
 10
 1.07591020420370E+0003
 20
 1.15333634830240E+0003
 11
 1.07751287103360E+0003
 21
 1.16513983854720E+0003
  0
LINE
  8
0
 10
 1.07751287103360E+0003
 20
 1.16513983854720E+0003
 11
 1.07897516769790E+0003
 21
 1.17708654930080E+0003
  0
LINE
  8
0
 10
 1.07897516769790E+0003
 20
 1.17708654930080E+0003
 11
 1.08029376110480E+0003
 21
 1.18917986152960E+0003
  0
LINE
  8
0
 10
 1.08029376110480E+0003
 20
 1.18917986152960E+0003
 11
 1.08146531816250E+0003
 21
 1.20142315620000E+0003
  0
LINE
  8
0
 10
 1.08146531816250E+0003
 20
 1.20142315620000E+0003
 11
 1.08248650577920E+0003
 21
 1.21381981427840E+0003
  0
LINE
  8
0
 10
 1.08248650577920E+0003
 20
 1.21381981427840E+0003
 11
 1.08335399086310E+0003
 21
 1.22637321673120E+0003
  0
LINE
  8
0
 10
 1.08335399086310E+0003
 20
 1.22637321673120E+0003
 11
 1.08406444032240E+0003
 21
 1.23908674452480E+0003
  0
LINE
  8
0
 10
 1.08406444032240E+0003
 20
 1.23908674452480E+0003
 11
 1.08461452106530E+0003
 21
 1.25196377862560E+0003
  0
LINE
  8
0
 10
 1.08461452106530E+0003
 20
 1.25196377862560E+0003
 11
 1.08500090000000E+0003
 21
 1.26500770000000E+0003
  0
LINE
  8
0
 10
 1.08500090000000E+0003
 20
 1.26500770000000E+0003
 11
 1.08500000000000E+0003
 21
 1.30700000000000E+0003
  0
LINE
  8
0
 10
 1.08500000000000E+0003
 20
 1.30700000000000E+0003
 11
 1.13000050944639E+0003
 21
 1.29538091843480E+0003
  0
ARC
  8
0
 10
 1.13300000000000E+0003
 20
 1.30700000000000E+0003
 40
 1.20000000000000E+0001
 50
 2.55525000000000E+0002
 51
 3.93805000000000E+0002
  0
LINE
  8
0
 10
 1.14297123104192E+0003
 20
 1.31367641756549E+0003
 11
 1.05500000000000E+0003
 21
 1.44500000000000E+0003
  0
LINE
  8
0
 10
 1.05500000000000E+0003
 20
 1.44500000000000E+0003
 11
 9.67028768958083E+0002
 21
 1.31367641756549E+0003
  0
ARC
  8
0
 10
 9.77000000000000E+0002
 20
 1.30700000000000E+0003
 40
 1.20000000000000E+0001
 50
 1.46195000000000E+0002
 51
 2.84475000000000E+0002
  0
LINE
  8
0
 10
 9.79999490553610E+0002
 20
 1.29538091843480E+0003
 11
 1.02500000000000E+0003
 21
 1.30700000000000E+0003
  0
LINE
  8
0
 10
 1.02500000000000E+0003
 20
 1.30700000000000E+0003
 11
 1.02500000000000E+0003
 21
 1.26500000000000E+0003
  0
LINE
  8
0
 10
 5.05000000000000E+0002
 20
 1.53500000000000E+0003
 11
 5.35000000000000E+0002
 21
 1.53500000000000E+0003
  0
ARC
  8
0
 10
-2.15000000000000E+0002
 20
 1.53500000000000E+0003
 40
 7.50000000000000E+0002
 50
 3.40811860000000E+0002
 51
 3.60000000000000E+0002
  0
LINE
  8
0
 10
 4.93333318076195E+0002
 20
 1.28849663186243E+0003
 11
 4.93333332723048E+0002
 21
 1.28849686527450E+0003
  0
ARC
  8
0
 10
 4.65000000000000E+0002
 20
 1.29835700000000E+0003
 40
 3.00000000000000E+0001
 50
 1.99188140000000E+0002
 51
 3.40811860000000E+0002
  0
LINE
  8
0
 10
 4.36666667276952E+0002
 20
 1.28849686527450E+0003
 11
 4.36666681923805E+0002
 21
 1.28849663186243E+0003
  0
ARC
  8
0
 10
 1.14500000000000E+0003
 20
 1.53500000000000E+0003
 40
 7.50000000000000E+0002
 50
 1.80000000000000E+0002
 51
 1.99188140000000E+0002
  0
LINE
  8
0
 10
 3.95000000000000E+0002
 20
 1.53500000000000E+0003
 11
 4.25000000000000E+0002
 21
 1.53500000000000E+0003
  0
ARC
  8
0
 10
 1.14500000000000E+0003
 20
 1.53500000000000E+0003
 40
 7.20000000000000E+0002
 50
 1.80000000000000E+0002
 51
 1.99188140000000E+0002
  0
LINE
  8
0
 10
 4.65000014646853E+0002
 20
 1.29835676658793E+0003
 11
 4.64999985353147E+0002
 21
 1.29835676658793E+0003
  0
ARC
  8
0
 10
-2.15000000000000E+0002
 20
 1.53500000000000E+0003
 40
 7.20000000000000E+0002
 50
 3.40811860000000E+0002
 51
 3.60000000000000E+0002
  0
ENDSEC
  0
EOF
