  0
SECTION
  2
HEADER
  9
$ACADVER
  1
AC1003
  9
$INSBASE
 10
0.0
 20
0.0
  9
$EXTMIN
 10
 0.00000000000000E+0000
 20
 0.00000000000000E+0000
  9
$EXTMAX
 10
 1.60000000000000E+0003
 20
 1.60000000000000E+0003
  9
$LIMMIN
 10
0.0
 20
0.0
  9
$LIMMAX
 10
410.0
 20
287.0
  9
$VIEWCTR
 10
227.0059616
 20
165.058879 
  9
$VIEWSIZE
 40
 1.60000000000000E+0003
9
$SNAPMODE
70
0
9
$SNAPUNIT
10
1
20
1
9
$GRIDMODE
70
0
9
$GRIDUNIT
10
1
20
1
9
$ORTHOMODE
70
0
9
$rEGENMODE
70
1
9
$FILLMODE
70
1
9
$DRAGMODE
70
2
9
$LTSCALE
40
25.0
9
$OSMODE
70
0
9
$ATTMODE
70
1
9
$TRACEWID
40
1.0
9
$TEXTSTYLE
7
STANDARD
9
$CLAYER
8
0
9
$CELTYPE
6
VONLAYER
9
$CECOLOR
62
256
9
$LUNITS
70
2
9
$LUPREC
70
2
9
$AXISMODE
70
0
9
$AXISUNIT
10
0
20
0
9
$SKETCHINC
40
1.0
9
$FILLETRAD
40
0.0
9
$AUNITS
70
0
9
$AUPREC
70
0
9
$MENU
1
ACAD
9
$ELEVATION
40
0.0
9
$THICKNESS
40
0.0
9
$VIEWDIR
10
0.0
20
0.0
30
1.0
9
$LIMCHECK
70
0
9
$BLIPMODE
70
1
9
$CHAMFERA
40
0.0
9
$CHAMFERB
40
0.0
9
$USRTIMER
70
1
9
$ANGBASE
50
0.0
9
$ANGDIR
70
0
9
$PDMODE
70
0
9
$PDSIZE
40
0.0
9
$PLINEWID
40
0.0
9
$COORDS
70
0
0
ENDSEC
0
SECTION
2
TABLES
0
TABLE
2
LTYPE
70
1
0
LTYPE
2
AUSGEZOGEN
70
64
3
Ausgezogene Linie
72
65
73
0
40
0.0
0
ENDTAB
0
TABLE
2
LAYER
70
1
0
LAYER
2
0
70
0
62
7
6
AUSGEZOGEN
0
ENDTAB
0
TABLE
2
STYLE
70
1
0
STYLE
2
STANDARD
70
0
40
0.0
41
1.0
50
0.0
71
0
42
3.5
3
txt
4

0
ENDTAB
0
TABLE
2
VIEW
70
0
0
ENDTAB
0
ENDSEC
0
SECTION
2
BLOCKS
0
ENDSEC
0
SECTION
2
ENTITIES
  0
ARC
  8
0
 10
 6.00000000000000E+0001
 20
 6.00000000000000E+0001
 40
 6.00000000000000E+0001
 50
 1.80000000000000E+0002
 51
 2.70000000000000E+0002
  0
LINE
  8
0
 10
 0.00000000000000E+0000
 20
 6.00000000000000E+0001
 11
 0.00000000000000E+0000
 21
 1.54000000000000E+0003
  0
ARC
  8
0
 10
 6.00000000000000E+0001
 20
 1.54000000000000E+0003
 40
 6.00000000000000E+0001
 50
 9.00000000000000E+0001
 51
 1.80000000000000E+0002
  0
LINE
  8
0
 10
 6.00000000000000E+0001
 20
 1.60000000000000E+0003
 11
 1.54000000000000E+0003
 21
 1.60000000000000E+0003
  0
ARC
  8
0
 10
 1.54000000000000E+0003
 20
 1.54000000000000E+0003
 40
 6.00000000000000E+0001
 50
 0.00000000000000E+0000
 51
 9.00000000000000E+0001
  0
LINE
  8
0
 10
 1.60000000000000E+0003
 20
 1.54000000000000E+0003
 11
 1.60000000000000E+0003
 21
 6.00000000000000E+0001
  0
ARC
  8
0
 10
 1.54000000000000E+0003
 20
 6.00000000000000E+0001
 40
 6.00000000000000E+0001
 50
 2.70000000000000E+0002
 51
 3.60000000000000E+0002
  0
LINE
  8
0
 10
 1.54000000000000E+0003
 20
 0.00000000000000E+0000
 11
 6.00000000000000E+0001
 21
 0.00000000000000E+0000
  0
ARC
  8
0
 10
 6.00000000000000E+0001
 20
 6.00000000000000E+0001
 40
 4.50000000000000E+0001
 50
 1.80000000000000E+0002
 51
 2.70000000000000E+0002
  0
LINE
  8
0
 10
 1.50000000000000E+0001
 20
 6.00000000000000E+0001
 11
 1.50000000000000E+0001
 21
 1.54000000000000E+0003
  0
ARC
  8
0
 10
 6.00000000000000E+0001
 20
 1.54000000000000E+0003
 40
 4.50000000000000E+0001
 50
 9.00000000000000E+0001
 51
 1.80000000000000E+0002
  0
LINE
  8
0
 10
 6.00000000000000E+0001
 20
 1.58500000000000E+0003
 11
 1.54000000000000E+0003
 21
 1.58500000000000E+0003
  0
ARC
  8
0
 10
 1.54000000000000E+0003
 20
 1.54000000000000E+0003
 40
 4.50000000000000E+0001
 50
 0.00000000000000E+0000
 51
 9.00000000000000E+0001
  0
LINE
  8
0
 10
 1.58500000000000E+0003
 20
 1.54000000000000E+0003
 11
 1.58500000000000E+0003
 21
 6.00000000000000E+0001
  0
ARC
  8
0
 10
 1.54000000000000E+0003
 20
 6.00000000000000E+0001
 40
 4.50000000000000E+0001
 50
 2.70000000000000E+0002
 51
 3.60000000000000E+0002
  0
LINE
  8
0
 10
 1.54000000000000E+0003
 20
 1.50000000000000E+0001
 11
 6.00000000000000E+0001
 21
 1.50000000000000E+0001
  0
ARC
  8
0
 10
 6.00000000000000E+0001
 20
 6.00000000000000E+0001
 40
 2.50000000000000E+0001
 50
 1.80000000000000E+0002
 51
 2.70000000000000E+0002
  0
LINE
  8
0
 10
 3.50000000000000E+0001
 20
 6.00000000000000E+0001
 11
 3.50000000000000E+0001
 21
 1.54000000000000E+0003
  0
ARC
  8
0
 10
 6.00000000000000E+0001
 20
 1.54000000000000E+0003
 40
 2.50000000000000E+0001
 50
 9.00000000000000E+0001
 51
 1.80000000000000E+0002
  0
LINE
  8
0
 10
 6.00000000000000E+0001
 20
 1.56500000000000E+0003
 11
 1.54000000000000E+0003
 21
 1.56500000000000E+0003
  0
ARC
  8
0
 10
 1.54000000000000E+0003
 20
 1.54000000000000E+0003
 40
 2.50000000000000E+0001
 50
 0.00000000000000E+0000
 51
 9.00000000000000E+0001
  0
LINE
  8
0
 10
 1.56500000000000E+0003
 20
 1.54000000000000E+0003
 11
 1.56500000000000E+0003
 21
 6.00000000000000E+0001
  0
ARC
  8
0
 10
 1.54000000000000E+0003
 20
 6.00000000000000E+0001
 40
 2.50000000000000E+0001
 50
 2.70000000000000E+0002
 51
 3.60000000000000E+0002
  0
LINE
  8
0
 10
 1.54000000000000E+0003
 20
 3.50000000000000E+0001
 11
 6.00000000000000E+0001
 21
 3.50000000000000E+0001
  0
LINE
  8
0
 10
 5.65000000000000E+0002
 20
 1.26500000000000E+0003
 11
 5.64613609988100E+0002
 21
 1.25195630732330E+0003
  0
LINE
  8
0
 10
 5.64613609988100E+0002
 20
 1.25195630732330E+0003
 11
 5.64063519984800E+0002
 21
 1.23907949734640E+0003
  0
LINE
  8
0
 10
 5.64063519984800E+0002
 20
 1.23907949734640E+0003
 11
 5.63353063038700E+0002
 21
 1.22636618914910E+0003
  0
LINE
  8
0
 10
 5.63353063038700E+0002
 20
 1.22636618914910E+0003
 11
 5.62485572198400E+0002
 21
 1.21381300181120E+0003
  0
LINE
  8
0
 10
 5.62485572198400E+0002
 20
 1.21381300181120E+0003
 11
 5.61464380512500E+0002
 21
 1.20141655441250E+0003
  0
LINE
  8
0
 10
 5.61464380512500E+0002
 20
 1.20141655441250E+0003
 11
 5.60292821029600E+0002
 21
 1.18917346603280E+0003
  0
LINE
  8
0
 10
 5.60292821029600E+0002
 20
 1.18917346603280E+0003
 11
 5.58974226798300E+0002
 21
 1.17708035575190E+0003
  0
LINE
  8
0
 10
 5.58974226798300E+0002
 20
 1.17708035575190E+0003
 11
 5.57511930867200E+0002
 21
 1.16513384264960E+0003
  0
LINE
  8
0
 10
 5.57511930867200E+0002
 20
 1.16513384264960E+0003
 11
 5.55909266284900E+0002
 21
 1.15333054580570E+0003
  0
LINE
  8
0
 10
 5.55909266284900E+0002
 20
 1.15333054580570E+0003
 11
 5.54169566100000E+0002
 21
 1.14166708430000E+0003
  0
LINE
  8
0
 10
 5.54169566100000E+0002
 20
 1.14166708430000E+0003
 11
 5.52296163361100E+0002
 21
 1.13014007721230E+0003
  0
LINE
  8
0
 10
 5.52296163361100E+0002
 20
 1.13014007721230E+0003
 11
 5.50292391116800E+0002
 21
 1.11874614362240E+0003
  0
LINE
  8
0
 10
 5.50292391116800E+0002
 20
 1.11874614362240E+0003
 11
 5.48161582415700E+0002
 21
 1.10748190261010E+0003
  0
LINE
  8
0
 10
 5.48161582415700E+0002
 20
 1.10748190261010E+0003
 11
 5.45907070306400E+0002
 21
 1.09634397325520E+0003
  0
LINE
  8
0
 10
 5.45907070306400E+0002
 20
 1.09634397325520E+0003
 11
 5.43532187837500E+0002
 21
 1.08532897463750E+0003
  0
LINE
  8
0
 10
 5.43532187837500E+0002
 20
 1.08532897463750E+0003
 11
 5.41040268057600E+0002
 21
 1.07443352583680E+0003
  0
LINE
  8
0
 10
 5.41040268057600E+0002
 20
 1.07443352583680E+0003
 11
 5.38434644015300E+0002
 21
 1.06365424593290E+0003
  0
LINE
  8
0
 10
 5.38434644015300E+0002
 20
 1.06365424593290E+0003
 11
 5.35718648759200E+0002
 21
 1.05298775400560E+0003
  0
LINE
  8
0
 10
 5.35718648759200E+0002
 20
 1.05298775400560E+0003
 11
 5.32895615337900E+0002
 21
 1.04243066913470E+0003
  0
LINE
  8
0
 10
 5.32895615337900E+0002
 20
 1.04243066913470E+0003
 11
 5.29968876800000E+0002
 21
 1.03197961040000E+0003
  0
LINE
  8
0
 10
 5.29968876800000E+0002
 20
 1.03197961040000E+0003
 11
 5.26941766194100E+0002
 21
 1.02163119688130E+0003
  0
LINE
  8
0
 10
 5.26941766194100E+0002
 20
 1.02163119688130E+0003
 11
 5.23817616568800E+0002
 21
 1.01138204765840E+0003
  0
LINE
  8
0
 10
 5.23817616568800E+0002
 20
 1.01138204765840E+0003
 11
 5.20599760972700E+0002
 21
 1.00122878181110E+0003
  0
LINE
  8
0
 10
 5.20599760972700E+0002
 20
 1.00122878181110E+0003
 11
 5.17291532454400E+0002
 21
 9.91168018419200E+0002
  0
LINE
  8
0
 10
 5.17291532454400E+0002
 20
 9.91168018419200E+0002
 11
 5.13896264062500E+0002
 21
 9.81196376562500E+0002
  0
LINE
  8
0
 10
 5.13896264062500E+0002
 20
 9.81196376562500E+0002
 11
 5.10417288845600E+0002
 21
 9.71310475320800E+0002
  0
LINE
  8
0
 10
 5.10417288845600E+0002
 20
 9.71310475320800E+0002
 11
 5.06857939852300E+0002
 21
 9.61506933773900E+0002
  0
LINE
  8
0
 10
 5.06857939852300E+0002
 20
 9.61506933773900E+0002
 11
 5.03221550131200E+0002
 21
 9.51782371001600E+0002
  0
LINE
  8
0
 10
 5.03221550131200E+0002
 20
 9.51782371001600E+0002
 11
 4.99511452730900E+0002
 21
 9.42133406083700E+0002
  0
LINE
  8
0
 10
 4.99511452730900E+0002
 20
 9.42133406083700E+0002
 11
 4.95730980700000E+0002
 21
 9.32556658100000E+0002
  0
LINE
  8
0
 10
 4.95730980700000E+0002
 20
 9.32556658100000E+0002
 11
 4.91883467087100E+0002
 21
 9.23048746130300E+0002
  0
LINE
  8
0
 10
 4.91883467087100E+0002
 20
 9.23048746130300E+0002
 11
 4.87972244940800E+0002
 21
 9.13606289254400E+0002
  0
LINE
  8
0
 10
 4.87972244940800E+0002
 20
 9.13606289254400E+0002
 11
 4.84000647309700E+0002
 21
 9.04225906552100E+0002
  0
LINE
  8
0
 10
 4.84000647309700E+0002
 20
 9.04225906552100E+0002
 11
 4.79972007242400E+0002
 21
 8.94904217103200E+0002
  0
LINE
  8
0
 10
 4.79972007242400E+0002
 20
 8.94904217103200E+0002
 11
 4.75889657787500E+0002
 21
 8.85637839987500E+0002
  0
LINE
  8
0
 10
 4.75889657787500E+0002
 20
 8.85637839987500E+0002
 11
 4.71756931993600E+0002
 21
 8.76423394284800E+0002
  0
LINE
  8
0
 10
 4.71756931993600E+0002
 20
 8.76423394284800E+0002
 11
 4.67577162909300E+0002
 21
 8.67257499074900E+0002
  0
LINE
  8
0
 10
 4.67577162909300E+0002
 20
 8.67257499074900E+0002
 11
 4.63353683583200E+0002
 21
 8.58136773437600E+0002
  0
LINE
  8
0
 10
 4.63353683583200E+0002
 20
 8.58136773437600E+0002
 11
 4.59089827063900E+0002
 21
 8.49057836452700E+0002
  0
LINE
  8
0
 10
 4.59089827063900E+0002
 20
 8.49057836452700E+0002
 11
 4.54788926400000E+0002
 21
 8.40017307200000E+0002
  0
LINE
  8
0
 10
 4.54788926400000E+0002
 20
 8.40017307200000E+0002
 11
 4.50454314640100E+0002
 21
 8.31011804759300E+0002
  0
LINE
  8
0
 10
 4.50454314640100E+0002
 20
 8.31011804759300E+0002
 11
 4.46089324832800E+0002
 21
 8.22037948210400E+0002
  0
LINE
  8
0
 10
 4.46089324832800E+0002
 20
 8.22037948210400E+0002
 11
 4.41697290026700E+0002
 21
 8.13092356633100E+0002
  0
LINE
  8
0
 10
 4.41697290026700E+0002
 20
 8.13092356633100E+0002
 11
 4.37281543270400E+0002
 21
 8.04171649107200E+0002
  0
LINE
  8
0
 10
 4.37281543270400E+0002
 20
 8.04171649107200E+0002
 11
 4.32845417612500E+0002
 21
 7.95272444712500E+0002
  0
LINE
  8
0
 10
 4.32845417612500E+0002
 20
 7.95272444712500E+0002
 11
 4.28392246101600E+0002
 21
 7.86391362528800E+0002
  0
LINE
  8
0
 10
 4.28392246101600E+0002
 20
 7.86391362528800E+0002
 11
 4.23925361786300E+0002
 21
 7.77525021635900E+0002
  0
LINE
  8
0
 10
 4.23925361786300E+0002
 20
 7.77525021635900E+0002
 11
 4.19448097715200E+0002
 21
 7.68670041113600E+0002
  0
LINE
  8
0
 10
 4.19448097715200E+0002
 20
 7.68670041113600E+0002
 11
 4.14963786936900E+0002
 21
 7.59823040041700E+0002
  0
LINE
  8
0
 10
 4.14963786936900E+0002
 20
 7.59823040041700E+0002
 11
 4.10475762500000E+0002
 21
 7.50980637500000E+0002
  0
LINE
  8
0
 10
 4.10475762500000E+0002
 20
 7.50980637500000E+0002
 11
 4.05987357453100E+0002
 21
 7.42139452568300E+0002
  0
LINE
  8
0
 10
 4.05987357453100E+0002
 20
 7.42139452568300E+0002
 11
 4.01501904844800E+0002
 21
 7.33296104326400E+0002
  0
LINE
  8
0
 10
 4.01501904844800E+0002
 20
 7.33296104326400E+0002
 11
 3.97022737723700E+0002
 21
 7.24447211854100E+0002
  0
LINE
  8
0
 10
 3.97022737723700E+0002
 20
 7.24447211854100E+0002
 11
 3.92553189138400E+0002
 21
 7.15589394231200E+0002
  0
LINE
  8
0
 10
 3.92553189138400E+0002
 20
 7.15589394231200E+0002
 11
 3.88096592137500E+0002
 21
 7.06719270537500E+0002
  0
LINE
  8
0
 10
 3.88096592137500E+0002
 20
 7.06719270537500E+0002
 11
 3.83656279769600E+0002
 21
 6.97833459852800E+0002
  0
LINE
  8
0
 10
 3.83656279769600E+0002
 20
 6.97833459852800E+0002
 11
 3.79235585083300E+0002
 21
 6.88928581256900E+0002
  0
LINE
  8
0
 10
 3.79235585083300E+0002
 20
 6.88928581256900E+0002
 11
 3.74837841127200E+0002
 21
 6.80001253829600E+0002
  0
LINE
  8
0
 10
 3.74837841127200E+0002
 20
 6.80001253829600E+0002
 11
 3.70466380949900E+0002
 21
 6.71048096650700E+0002
  0
LINE
  8
0
 10
 3.70466380949900E+0002
 20
 6.71048096650700E+0002
 11
 3.66124537600000E+0002
 21
 6.62065728800000E+0002
  0
LINE
  8
0
 10
 3.66124537600000E+0002
 20
 6.62065728800000E+0002
 11
 3.61815644126100E+0002
 21
 6.53050769357300E+0002
  0
LINE
  8
0
 10
 3.61815644126100E+0002
 20
 6.53050769357300E+0002
 11
 3.57543033576800E+0002
 21
 6.43999837402400E+0002
  0
LINE
  8
0
 10
 3.57543033576800E+0002
 20
 6.43999837402400E+0002
 11
 3.53310039000700E+0002
 21
 6.34909552015100E+0002
  0
LINE
  8
0
 10
 3.53310039000700E+0002
 20
 6.34909552015100E+0002
 11
 3.49119993446400E+0002
 21
 6.25776532275200E+0002
  0
LINE
  8
0
 10
 3.49119993446400E+0002
 20
 6.25776532275200E+0002
 11
 3.44976229962500E+0002
 21
 6.16597397262500E+0002
  0
LINE
  8
0
 10
 3.44976229962500E+0002
 20
 6.16597397262500E+0002
 11
 3.40882081597600E+0002
 21
 6.07368766056800E+0002
  0
LINE
  8
0
 10
 3.40882081597600E+0002
 20
 6.07368766056800E+0002
 11
 3.36840881400300E+0002
 21
 5.98087257737900E+0002
  0
LINE
  8
0
 10
 3.36840881400300E+0002
 20
 5.98087257737900E+0002
 11
 3.32855962419200E+0002
 21
 5.88749491385600E+0002
  0
LINE
  8
0
 10
 3.32855962419200E+0002
 20
 5.88749491385600E+0002
 11
 3.28930657702900E+0002
 21
 5.79352086079700E+0002
  0
LINE
  8
0
 10
 3.28930657702900E+0002
 20
 5.79352086079700E+0002
 11
 3.25068300300000E+0002
 21
 5.69891660900000E+0002
  0
LINE
  8
0
 10
 3.25068300300000E+0002
 20
 5.69891660900000E+0002
 11
 3.21272223259100E+0002
 21
 5.60364834926300E+0002
  0
LINE
  8
0
 10
 3.21272223259100E+0002
 20
 5.60364834926300E+0002
 11
 3.17545759628800E+0002
 21
 5.50768227238400E+0002
  0
LINE
  8
0
 10
 3.17545759628800E+0002
 20
 5.50768227238400E+0002
 11
 3.13892242457700E+0002
 21
 5.41098456916100E+0002
  0
LINE
  8
0
 10
 3.13892242457700E+0002
 20
 5.41098456916100E+0002
 11
 3.10315004794400E+0002
 21
 5.31352143039200E+0002
  0
LINE
  8
0
 10
 3.10315004794400E+0002
 20
 5.31352143039200E+0002
 11
 3.06817379687500E+0002
 21
 5.21525904687500E+0002
  0
LINE
  8
0
 10
 3.06817379687500E+0002
 20
 5.21525904687500E+0002
 11
 3.03402700185600E+0002
 21
 5.11616360940800E+0002
  0
LINE
  8
0
 10
 3.03402700185600E+0002
 20
 5.11616360940800E+0002
 11
 3.00074299337300E+0002
 21
 5.01620130878900E+0002
  0
LINE
  8
0
 10
 3.00074299337300E+0002
 20
 5.01620130878900E+0002
 11
 2.96835510191200E+0002
 21
 4.91533833581600E+0002
  0
LINE
  8
0
 10
 2.96835510191200E+0002
 20
 4.91533833581600E+0002
 11
 2.93689665795900E+0002
 21
 4.81354088128700E+0002
  0
LINE
  8
0
 10
 2.93689665795900E+0002
 20
 4.81354088128700E+0002
 11
 2.90640099200000E+0002
 21
 4.71077513600000E+0002
  0
LINE
  8
0
 10
 2.90640099200000E+0002
 20
 4.71077513600000E+0002
 11
 2.87690143452100E+0002
 21
 4.60700729075300E+0002
  0
LINE
  8
0
 10
 2.87690143452100E+0002
 20
 4.60700729075300E+0002
 11
 2.84843131600800E+0002
 21
 4.50220353634400E+0002
  0
LINE
  8
0
 10
 2.84843131600800E+0002
 20
 4.50220353634400E+0002
 11
 2.82102396694700E+0002
 21
 4.39633006357100E+0002
  0
LINE
  8
0
 10
 2.82102396694700E+0002
 20
 4.39633006357100E+0002
 11
 2.79471271782400E+0002
 21
 4.28935306323200E+0002
  0
LINE
  8
0
 10
 2.79471271782400E+0002
 20
 4.28935306323200E+0002
 11
 2.76953089912500E+0002
 21
 4.18123872612500E+0002
  0
LINE
  8
0
 10
 2.76953089912500E+0002
 20
 4.18123872612500E+0002
 11
 2.74551184133600E+0002
 21
 4.07195324304800E+0002
  0
LINE
  8
0
 10
 2.74551184133600E+0002
 20
 4.07195324304800E+0002
 11
 2.72268887494300E+0002
 21
 3.96146280479900E+0002
  0
LINE
  8
0
 10
 2.72268887494300E+0002
 20
 3.96146280479900E+0002
 11
 2.70109533043200E+0002
 21
 3.84973360217600E+0002
  0
LINE
  8
0
 10
 2.70109533043200E+0002
 20
 3.84973360217600E+0002
 11
 2.68076453828900E+0002
 21
 3.73673182597700E+0002
  0
LINE
  8
0
 10
 2.68076453828900E+0002
 20
 3.73673182597700E+0002
 11
 2.66172982900000E+0002
 21
 3.62242366700000E+0002
  0
LINE
  8
0
 10
 2.66172982900000E+0002
 20
 3.62242366700000E+0002
 11
 2.64402453305100E+0002
 21
 3.50677531604300E+0002
  0
LINE
  8
0
 10
 2.64402453305100E+0002
 20
 3.50677531604300E+0002
 11
 2.62768198092800E+0002
 21
 3.38975296390400E+0002
  0
LINE
  8
0
 10
 2.62768198092800E+0002
 20
 3.38975296390400E+0002
 11
 2.61273550311700E+0002
 21
 3.27132280138100E+0002
  0
LINE
  8
0
 10
 2.61273550311700E+0002
 20
 3.27132280138100E+0002
 11
 2.59921843010400E+0002
 21
 3.15145101927200E+0002
  0
LINE
  8
0
 10
 2.59921843010400E+0002
 20
 3.15145101927200E+0002
 11
 2.58716409237500E+0002
 21
 3.03010380837500E+0002
  0
LINE
  8
0
 10
 2.58716409237500E+0002
 20
 3.03010380837500E+0002
 11
 2.57660582041600E+0002
 21
 2.90724735948800E+0002
  0
LINE
  8
0
 10
 2.57660582041600E+0002
 20
 2.90724735948800E+0002
 11
 2.56757694471300E+0002
 21
 2.78284786340900E+0002
  0
LINE
  8
0
 10
 2.56757694471300E+0002
 20
 2.78284786340900E+0002
 11
 2.56011079575200E+0002
 21
 2.65687151093600E+0002
  0
LINE
  8
0
 10
 2.56011079575200E+0002
 20
 2.65687151093600E+0002
 11
 2.55424070401900E+0002
 21
 2.52928449286700E+0002
  0
LINE
  8
0
 10
 2.55424070401900E+0002
 20
 2.52928449286700E+0002
 11
 2.55000000000000E+0002
 21
 2.40005300000000E+0002
  0
LINE
  8
0
 10
 2.55000000000000E+0002
 20
 2.40005300000000E+0002
 11
 2.55000000000000E+0002
 21
 1.55000000000000E+0002
  0
LINE
  8
0
 10
 2.55000000000000E+0002
 20
 1.55000000000000E+0002
 11
 3.15000000000000E+0002
 21
 1.55000000000000E+0002
  0
LINE
  8
0
 10
 3.15000000000000E+0002
 20
 1.55000000000000E+0002
 11
 3.15000000000000E+0002
 21
 2.40005300000000E+0002
  0
LINE
  8
0
 10
 3.15000000000000E+0002
 20
 2.40005300000000E+0002
 11
 3.15424029624700E+0002
 21
 2.52928449294400E+0002
  0
LINE
  8
0
 10
 3.15424029624700E+0002
 20
 2.52928449294400E+0002
 11
 3.16011000437600E+0002
 21
 2.65687151155200E+0002
  0
LINE
  8
0
 10
 3.16011000437600E+0002
 20
 2.65687151155200E+0002
 11
 3.16757579346900E+0002
 21
 2.78284786548800E+0002
  0
LINE
  8
0
 10
 3.16757579346900E+0002
 20
 2.78284786548800E+0002
 11
 3.17660433260800E+0002
 21
 2.90724736441600E+0002
  0
LINE
  8
0
 10
 3.17660433260800E+0002
 20
 2.90724736441600E+0002
 11
 3.18716229087500E+0002
 21
 3.03010381800000E+0002
  0
LINE
  8
0
 10
 3.18716229087500E+0002
 20
 3.03010381800000E+0002
 11
 3.19921633735200E+0002
 21
 3.15145103590400E+0002
  0
LINE
  8
0
 10
 3.19921633735200E+0002
 20
 3.15145103590400E+0002
 11
 3.21273314112100E+0002
 21
 3.27132282779200E+0002
  0
LINE
  8
0
 10
 3.21273314112100E+0002
 20
 3.27132282779200E+0002
 11
 3.22767937126400E+0002
 21
 3.38975300332800E+0002
  0
LINE
  8
0
 10
 3.22767937126400E+0002
 20
 3.38975300332800E+0002
 11
 3.24402169686300E+0002
 21
 3.50677537217600E+0002
  0
LINE
  8
0
 10
 3.24402169686300E+0002
 20
 3.50677537217600E+0002
 11
 3.26172678700000E+0002
 21
 3.62242374400000E+0002
  0
LINE
  8
0
 10
 3.26172678700000E+0002
 20
 3.62242374400000E+0002
 11
 3.28076131075700E+0002
 21
 3.73673192846400E+0002
  0
LINE
  8
0
 10
 3.28076131075700E+0002
 20
 3.73673192846400E+0002
 11
 3.30109193721600E+0002
 21
 3.84973373523200E+0002
  0
LINE
  8
0
 10
 3.30109193721600E+0002
 20
 3.84973373523200E+0002
 11
 3.32268533545900E+0002
 21
 3.96146297396800E+0002
  0
LINE
  8
0
 10
 3.32268533545900E+0002
 20
 3.96146297396800E+0002
 11
 3.34550817456800E+0002
 21
 4.07195345433600E+0002
  0
LINE
  8
0
 10
 3.34550817456800E+0002
 20
 4.07195345433600E+0002
 11
 3.36952712362500E+0002
 21
 4.18123898600000E+0002
  0
LINE
  8
0
 10
 3.36952712362500E+0002
 20
 4.18123898600000E+0002
 11
 3.39470885171200E+0002
 21
 4.28935337862400E+0002
  0
LINE
  8
0
 10
 3.39470885171200E+0002
 20
 4.28935337862400E+0002
 11
 3.42102002791100E+0002
 21
 4.39633044187200E+0002
  0
LINE
  8
0
 10
 3.42102002791100E+0002
 20
 4.39633044187200E+0002
 11
 3.44842732130400E+0002
 21
 4.50220398540800E+0002
  0
LINE
  8
0
 10
 3.44842732130400E+0002
 20
 4.50220398540800E+0002
 11
 3.47689740097300E+0002
 21
 4.60700781889600E+0002
  0
LINE
  8
0
 10
 3.47689740097300E+0002
 20
 4.60700781889600E+0002
 11
 3.50639693600000E+0002
 21
 4.71077575200000E+0002
  0
LINE
  8
0
 10
 3.50639693600000E+0002
 20
 4.71077575200000E+0002
 11
 3.53689259546700E+0002
 21
 4.81354159438400E+0002
  0
LINE
  8
0
 10
 3.53689259546700E+0002
 20
 4.81354159438400E+0002
 11
 3.56835104845600E+0002
 21
 4.91533915571200E+0002
  0
LINE
  8
0
 10
 3.56835104845600E+0002
 20
 4.91533915571200E+0002
 11
 3.60073896404900E+0002
 21
 5.01620224564800E+0002
  0
LINE
  8
0
 10
 3.60073896404900E+0002
 20
 5.01620224564800E+0002
 11
 3.63402301132800E+0002
 21
 5.11616467385600E+0002
  0
LINE
  8
0
 10
 3.63402301132800E+0002
 20
 5.11616467385600E+0002
 11
 3.66816985937500E+0002
 21
 5.21526025000000E+0002
  0
LINE
  8
0
 10
 3.66816985937500E+0002
 20
 5.21526025000000E+0002
 11
 3.70314617727200E+0002
 21
 5.31352278374400E+0002
  0
LINE
  8
0
 10
 3.70314617727200E+0002
 20
 5.31352278374400E+0002
 11
 3.73891863410100E+0002
 21
 5.41098608475200E+0002
  0
LINE
  8
0
 10
 3.73891863410100E+0002
 20
 5.41098608475200E+0002
 11
 3.77545389894400E+0002
 21
 5.50768396268800E+0002
  0
LINE
  8
0
 10
 3.77545389894400E+0002
 20
 5.50768396268800E+0002
 11
 3.81271864088300E+0002
 21
 5.60365022721600E+0002
  0
LINE
  8
0
 10
 3.81271864088300E+0002
 20
 5.60365022721600E+0002
 11
 3.85067952900000E+0002
 21
 5.69891868800000E+0002
  0
LINE
  8
0
 10
 3.85067952900000E+0002
 20
 5.69891868800000E+0002
 11
 3.88930323237700E+0002
 21
 5.79352315470400E+0002
  0
LINE
  8
0
 10
 3.88930323237700E+0002
 20
 5.79352315470400E+0002
 11
 3.92855642009600E+0002
 21
 5.88749743699200E+0002
  0
LINE
  8
0
 10
 3.92855642009600E+0002
 20
 5.88749743699200E+0002
 11
 3.96840576123900E+0002
 21
 5.98087534452800E+0002
  0
LINE
  8
0
 10
 3.96840576123900E+0002
 20
 5.98087534452800E+0002
 11
 4.00881792488800E+0002
 21
 6.07369068697600E+0002
  0
LINE
  8
0
 10
 4.00881792488800E+0002
 20
 6.07369068697600E+0002
 11
 4.04975958012500E+0002
 21
 6.16597727400000E+0002
  0
LINE
  8
0
 10
 4.04975958012500E+0002
 20
 6.16597727400000E+0002
 11
 4.09119739603200E+0002
 21
 6.25776891526400E+0002
  0
LINE
  8
0
 10
 4.09119739603200E+0002
 20
 6.25776891526400E+0002
 11
 4.13309804169100E+0002
 21
 6.34909942043200E+0002
  0
LINE
  8
0
 10
 4.13309804169100E+0002
 20
 6.34909942043200E+0002
 11
 4.17542818618400E+0002
 21
 6.44000259916800E+0002
  0
LINE
  8
0
 10
 4.17542818618400E+0002
 20
 6.44000259916800E+0002
 11
 4.21815449859300E+0002
 21
 6.53051226113600E+0002
  0
LINE
  8
0
 10
 4.21815449859300E+0002
 20
 6.53051226113600E+0002
 11
 4.26124364800000E+0002
 21
 6.62066221600000E+0002
  0
LINE
  8
0
 10
 4.26124364800000E+0002
 20
 6.62066221600000E+0002
 11
 4.30466230348700E+0002
 21
 6.71048627342400E+0002
  0
LINE
  8
0
 10
 4.30466230348700E+0002
 20
 6.71048627342400E+0002
 11
 4.34837713413600E+0002
 21
 6.80001824307200E+0002
  0
LINE
  8
0
 10
 4.34837713413600E+0002
 20
 6.80001824307200E+0002
 11
 4.39235480902900E+0002
 21
 6.88929193460800E+0002
  0
LINE
  8
0
 10
 4.39235480902900E+0002
 20
 6.88929193460800E+0002
 11
 4.43656199724800E+0002
 21
 6.97834115769600E+0002
  0
LINE
  8
0
 10
 4.43656199724800E+0002
 20
 6.97834115769600E+0002
 11
 4.48096536787500E+0002
 21
 7.06719972200000E+0002
  0
LINE
  8
0
 10
 4.48096536787500E+0002
 20
 7.06719972200000E+0002
 11
 4.52553158999200E+0002
 21
 7.15590143718400E+0002
  0
LINE
  8
0
 10
 4.52553158999200E+0002
 20
 7.15590143718400E+0002
 11
 4.57022733268100E+0002
 21
 7.24448011291200E+0002
  0
LINE
  8
0
 10
 4.57022733268100E+0002
 20
 7.24448011291200E+0002
 11
 4.61501926502400E+0002
 21
 7.33296955884800E+0002
  0
LINE
  8
0
 10
 4.61501926502400E+0002
 20
 7.33296955884800E+0002
 11
 4.65987405610300E+0002
 21
 7.42140358465600E+0002
  0
LINE
  8
0
 10
 4.65987405610300E+0002
 20
 7.42140358465600E+0002
 11
 4.70475837500000E+0002
 21
 7.50981600000000E+0002
  0
LINE
  8
0
 10
 4.70475837500000E+0002
 20
 7.50981600000000E+0002
 11
 4.74963889079700E+0002
 21
 7.59824061454400E+0002
  0
LINE
  8
0
 10
 4.74963889079700E+0002
 20
 7.59824061454400E+0002
 11
 4.79448227257600E+0002
 21
 7.68671123795200E+0002
  0
LINE
  8
0
 10
 4.79448227257600E+0002
 20
 7.68671123795200E+0002
 11
 4.83925518941900E+0002
 21
 7.77526167988800E+0002
  0
LINE
  8
0
 10
 4.83925518941900E+0002
 20
 7.77526167988800E+0002
 11
 4.88392431040800E+0002
 21
 7.86392575001600E+0002
  0
LINE
  8
0
 10
 4.88392431040800E+0002
 20
 7.86392575001600E+0002
 11
 4.92845630462500E+0002
 21
 7.95273725800000E+0002
  0
LINE
  8
0
 10
 4.92845630462500E+0002
 20
 7.95273725800000E+0002
 11
 4.97281784115200E+0002
 21
 8.04173001350400E+0002
  0
LINE
  8
0
 10
 4.97281784115200E+0002
 20
 8.04173001350400E+0002
 11
 5.01697558907100E+0002
 21
 8.13093782619200E+0002
  0
LINE
  8
0
 10
 5.01697558907100E+0002
 20
 8.13093782619200E+0002
 11
 5.06089621746400E+0002
 21
 8.22039450572800E+0002
  0
LINE
  8
0
 10
 5.06089621746400E+0002
 20
 8.22039450572800E+0002
 11
 5.10454639541300E+0002
 21
 8.31013386177600E+0002
  0
LINE
  8
0
 10
 5.10454639541300E+0002
 20
 8.31013386177600E+0002
 11
 5.14789279200000E+0002
 21
 8.40018970400000E+0002
  0
LINE
  8
0
 10
 5.14789279200000E+0002
 20
 8.40018970400000E+0002
 11
 5.19090207630700E+0002
 21
 8.49059584206400E+0002
  0
LINE
  8
0
 10
 5.19090207630700E+0002
 20
 8.49059584206400E+0002
 11
 5.23354091741600E+0002
 21
 8.58138608563200E+0002
  0
LINE
  8
0
 10
 5.23354091741600E+0002
 20
 8.58138608563200E+0002
 11
 5.27577598440900E+0002
 21
 8.67259424436800E+0002
  0
LINE
  8
0
 10
 5.27577598440900E+0002
 20
 8.67259424436800E+0002
 11
 5.31757394636800E+0002
 21
 8.76425412793600E+0002
  0
LINE
  8
0
 10
 5.31757394636800E+0002
 20
 8.76425412793600E+0002
 11
 5.35890147237500E+0002
 21
 8.85639954600000E+0002
  0
LINE
  8
0
 10
 5.35890147237500E+0002
 20
 8.85639954600000E+0002
 11
 5.39972523151200E+0002
 21
 8.94906430822400E+0002
  0
LINE
  8
0
 10
 5.39972523151200E+0002
 20
 8.94906430822400E+0002
 11
 5.44001189286100E+0002
 21
 9.04228222427200E+0002
  0
LINE
  8
0
 10
 5.44001189286100E+0002
 20
 9.04228222427200E+0002
 11
 5.47972812550400E+0002
 21
 9.13608710380800E+0002
  0
LINE
  8
0
 10
 5.47972812550400E+0002
 20
 9.13608710380800E+0002
 11
 5.51884059852300E+0002
 21
 9.23051275649600E+0002
  0
LINE
  8
0
 10
 5.51884059852300E+0002
 20
 9.23051275649600E+0002
 11
 5.55731598100000E+0002
 21
 9.32559299200000E+0002
  0
LINE
  8
0
 10
 5.55731598100000E+0002
 20
 9.32559299200000E+0002
 11
 5.59512094201700E+0002
 21
 9.42136161998400E+0002
  0
LINE
  8
0
 10
 5.59512094201700E+0002
 20
 9.42136161998400E+0002
 11
 5.63222215065600E+0002
 21
 9.51785245011200E+0002
  0
LINE
  8
0
 10
 5.63222215065600E+0002
 20
 9.51785245011200E+0002
 11
 5.66858627599900E+0002
 21
 9.61509929204800E+0002
  0
LINE
  8
0
 10
 5.66858627599900E+0002
 20
 9.61509929204800E+0002
 11
 5.70417998712800E+0002
 21
 9.71313595545600E+0002
  0
LINE
  8
0
 10
 5.70417998712800E+0002
 20
 9.71313595545600E+0002
 11
 5.73896995312500E+0002
 21
 9.81199625000000E+0002
  0
LINE
  8
0
 10
 5.73896995312500E+0002
 20
 9.81199625000000E+0002
 11
 5.77292284307200E+0002
 21
 9.91171398534400E+0002
  0
LINE
  8
0
 10
 5.77292284307200E+0002
 20
 9.91171398534400E+0002
 11
 5.80600532605100E+0002
 21
 1.00123229711520E+0003
  0
LINE
  8
0
 10
 5.80600532605100E+0002
 20
 1.00123229711520E+0003
 11
 5.83818407114400E+0002
 21
 1.01138570170880E+0003
  0
LINE
  8
0
 10
 5.83818407114400E+0002
 20
 1.01138570170880E+0003
 11
 5.86942574743300E+0002
 21
 1.02163499328160E+0003
  0
LINE
  8
0
 10
 5.86942574743300E+0002
 20
 1.02163499328160E+0003
 11
 5.89969702400000E+0002
 21
 1.03198355280000E+0003
  0
LINE
  8
0
 10
 5.89969702400000E+0002
 20
 1.03198355280000E+0003
 11
 5.92896456992700E+0002
 21
 1.04243476123040E+0003
  0
LINE
  8
0
 10
 5.92896456992700E+0002
 20
 1.04243476123040E+0003
 11
 5.95719505429600E+0002
 21
 1.05299199953920E+0003
  0
LINE
  8
0
 10
 5.95719505429600E+0002
 20
 1.05299199953920E+0003
 11
 5.98435514618900E+0002
 21
 1.06365864869280E+0003
  0
LINE
  8
0
 10
 5.98435514618900E+0002
 20
 1.06365864869280E+0003
 11
 6.01041151468800E+0002
 21
 1.07443808965760E+0003
  0
LINE
  8
0
 10
 6.01041151468800E+0002
 20
 1.07443808965760E+0003
 11
 6.03533082887500E+0002
 21
 1.08533370340000E+0003
  0
LINE
  8
0
 10
 6.03533082887500E+0002
 20
 1.08533370340000E+0003
 11
 6.05907975783200E+0002
 21
 1.09634887088640E+0003
  0
LINE
  8
0
 10
 6.05907975783200E+0002
 20
 1.09634887088640E+0003
 11
 6.08162497064100E+0002
 21
 1.10748697308320E+0003
  0
LINE
  8
0
 10
 6.08162497064100E+0002
 20
 1.10748697308320E+0003
 11
 6.10293313638400E+0002
 21
 1.11875139095680E+0003
  0
LINE
  8
0
 10
 6.10293313638400E+0002
 20
 1.11875139095680E+0003
 11
 6.12297092414300E+0002
 21
 1.13014550547360E+0003
  0
LINE
  8
0
 10
 6.12297092414300E+0002
 20
 1.13014550547360E+0003
 11
 6.14170500300000E+0002
 21
 1.14167269760000E+0003
  0
LINE
  8
0
 10
 6.14170500300000E+0002
 20
 1.14167269760000E+0003
 11
 6.15910204203700E+0002
 21
 1.15333634830240E+0003
  0
LINE
  8
0
 10
 6.15910204203700E+0002
 20
 1.15333634830240E+0003
 11
 6.17512871033600E+0002
 21
 1.16513983854720E+0003
  0
LINE
  8
0
 10
 6.17512871033600E+0002
 20
 1.16513983854720E+0003
 11
 6.18975167697900E+0002
 21
 1.17708654930080E+0003
  0
LINE
  8
0
 10
 6.18975167697900E+0002
 20
 1.17708654930080E+0003
 11
 6.20293761104800E+0002
 21
 1.18917986152960E+0003
  0
LINE
  8
0
 10
 6.20293761104800E+0002
 20
 1.18917986152960E+0003
 11
 6.21465318162500E+0002
 21
 1.20142315620000E+0003
  0
LINE
  8
0
 10
 6.21465318162500E+0002
 20
 1.20142315620000E+0003
 11
 6.22486505779200E+0002
 21
 1.21381981427840E+0003
  0
LINE
  8
0
 10
 6.22486505779200E+0002
 20
 1.21381981427840E+0003
 11
 6.23353990863100E+0002
 21
 1.22637321673120E+0003
  0
LINE
  8
0
 10
 6.23353990863100E+0002
 20
 1.22637321673120E+0003
 11
 6.24064440322400E+0002
 21
 1.23908674452480E+0003
  0
LINE
  8
0
 10
 6.24064440322400E+0002
 20
 1.23908674452480E+0003
 11
 6.24614521065300E+0002
 21
 1.25196377862560E+0003
  0
LINE
  8
0
 10
 6.24614521065300E+0002
 20
 1.25196377862560E+0003
 11
 6.25000900000000E+0002
 21
 1.26500770000000E+0003
  0
LINE
  8
0
 10
 6.25000900000000E+0002
 20
 1.26500770000000E+0003
 11
 6.25000000000000E+0002
 21
 1.30700000000000E+0003
  0
LINE
  8
0
 10
 6.25000000000000E+0002
 20
 1.30700000000000E+0003
 11
 6.70000509446390E+0002
 21
 1.29538091843480E+0003
  0
ARC
  8
0
 10
 6.73000000000000E+0002
 20
 1.30700000000000E+0003
 40
 1.20000000000000E+0001
 50
 2.55525000000000E+0002
 51
 3.93805000000000E+0002
  0
LINE
  8
0
 10
 6.82971231041917E+0002
 20
 1.31367641756549E+0003
 11
 5.95000000000000E+0002
 21
 1.44500000000000E+0003
  0
LINE
  8
0
 10
 5.95000000000000E+0002
 20
 1.44500000000000E+0003
 11
 5.07028768958084E+0002
 21
 1.31367641756549E+0003
  0
ARC
  8
0
 10
 5.17000000000000E+0002
 20
 1.30700000000000E+0003
 40
 1.20000000000000E+0001
 50
 1.46195000000000E+0002
 51
 2.84475000000000E+0002
  0
LINE
  8
0
 10
 5.19999490553610E+0002
 20
 1.29538091843480E+0003
 11
 5.65000000000000E+0002
 21
 1.30700000000000E+0003
  0
LINE
  8
0
 10
 5.65000000000000E+0002
 20
 1.30700000000000E+0003
 11
 5.65000000000000E+0002
 21
 1.26500000000000E+0003
  0
LINE
  8
0
 10
 8.05000000000000E+0002
 20
 1.26500000000000E+0003
 11
 8.04613609988100E+0002
 21
 1.25195630732330E+0003
  0
LINE
  8
0
 10
 8.04613609988100E+0002
 20
 1.25195630732330E+0003
 11
 8.04063519984800E+0002
 21
 1.23907949734640E+0003
  0
LINE
  8
0
 10
 8.04063519984800E+0002
 20
 1.23907949734640E+0003
 11
 8.03353063038700E+0002
 21
 1.22636618914910E+0003
  0
LINE
  8
0
 10
 8.03353063038700E+0002
 20
 1.22636618914910E+0003
 11
 8.02485572198400E+0002
 21
 1.21381300181120E+0003
  0
LINE
  8
0
 10
 8.02485572198400E+0002
 20
 1.21381300181120E+0003
 11
 8.01464380512500E+0002
 21
 1.20141655441250E+0003
  0
LINE
  8
0
 10
 8.01464380512500E+0002
 20
 1.20141655441250E+0003
 11
 8.00292821029600E+0002
 21
 1.18917346603280E+0003
  0
LINE
  8
0
 10
 8.00292821029600E+0002
 20
 1.18917346603280E+0003
 11
 7.98974226798300E+0002
 21
 1.17708035575190E+0003
  0
LINE
  8
0
 10
 7.98974226798300E+0002
 20
 1.17708035575190E+0003
 11
 7.97511930867200E+0002
 21
 1.16513384264960E+0003
  0
LINE
  8
0
 10
 7.97511930867200E+0002
 20
 1.16513384264960E+0003
 11
 7.95909266284900E+0002
 21
 1.15333054580570E+0003
  0
LINE
  8
0
 10
 7.95909266284900E+0002
 20
 1.15333054580570E+0003
 11
 7.94169566100000E+0002
 21
 1.14166708430000E+0003
  0
LINE
  8
0
 10
 7.94169566100000E+0002
 20
 1.14166708430000E+0003
 11
 7.92296163361100E+0002
 21
 1.13014007721230E+0003
  0
LINE
  8
0
 10
 7.92296163361100E+0002
 20
 1.13014007721230E+0003
 11
 7.90292391116800E+0002
 21
 1.11874614362240E+0003
  0
LINE
  8
0
 10
 7.90292391116800E+0002
 20
 1.11874614362240E+0003
 11
 7.88161582415700E+0002
 21
 1.10748190261010E+0003
  0
LINE
  8
0
 10
 7.88161582415700E+0002
 20
 1.10748190261010E+0003
 11
 7.85907070306400E+0002
 21
 1.09634397325520E+0003
  0
LINE
  8
0
 10
 7.85907070306400E+0002
 20
 1.09634397325520E+0003
 11
 7.83532187837500E+0002
 21
 1.08532897463750E+0003
  0
LINE
  8
0
 10
 7.83532187837500E+0002
 20
 1.08532897463750E+0003
 11
 7.81040268057600E+0002
 21
 1.07443352583680E+0003
  0
LINE
  8
0
 10
 7.81040268057600E+0002
 20
 1.07443352583680E+0003
 11
 7.78434644015300E+0002
 21
 1.06365424593290E+0003
  0
LINE
  8
0
 10
 7.78434644015300E+0002
 20
 1.06365424593290E+0003
 11
 7.75718648759200E+0002
 21
 1.05298775400560E+0003
  0
LINE
  8
0
 10
 7.75718648759200E+0002
 20
 1.05298775400560E+0003
 11
 7.72895615337900E+0002
 21
 1.04243066913470E+0003
  0
LINE
  8
0
 10
 7.72895615337900E+0002
 20
 1.04243066913470E+0003
 11
 7.69968876800000E+0002
 21
 1.03197961040000E+0003
  0
LINE
  8
0
 10
 7.69968876800000E+0002
 20
 1.03197961040000E+0003
 11
 7.66941766194100E+0002
 21
 1.02163119688130E+0003
  0
LINE
  8
0
 10
 7.66941766194100E+0002
 20
 1.02163119688130E+0003
 11
 7.63817616568800E+0002
 21
 1.01138204765840E+0003
  0
LINE
  8
0
 10
 7.63817616568800E+0002
 20
 1.01138204765840E+0003
 11
 7.60599760972700E+0002
 21
 1.00122878181110E+0003
  0
LINE
  8
0
 10
 7.60599760972700E+0002
 20
 1.00122878181110E+0003
 11
 7.57291532454400E+0002
 21
 9.91168018419200E+0002
  0
LINE
  8
0
 10
 7.57291532454400E+0002
 20
 9.91168018419200E+0002
 11
 7.53896264062500E+0002
 21
 9.81196376562500E+0002
  0
LINE
  8
0
 10
 7.53896264062500E+0002
 20
 9.81196376562500E+0002
 11
 7.50417288845600E+0002
 21
 9.71310475320800E+0002
  0
LINE
  8
0
 10
 7.50417288845600E+0002
 20
 9.71310475320800E+0002
 11
 7.46857939852300E+0002
 21
 9.61506933773900E+0002
  0
LINE
  8
0
 10
 7.46857939852300E+0002
 20
 9.61506933773900E+0002
 11
 7.43221550131200E+0002
 21
 9.51782371001600E+0002
  0
LINE
  8
0
 10
 7.43221550131200E+0002
 20
 9.51782371001600E+0002
 11
 7.39511452730900E+0002
 21
 9.42133406083700E+0002
  0
LINE
  8
0
 10
 7.39511452730900E+0002
 20
 9.42133406083700E+0002
 11
 7.35730980700000E+0002
 21
 9.32556658100000E+0002
  0
LINE
  8
0
 10
 7.35730980700000E+0002
 20
 9.32556658100000E+0002
 11
 7.31883467087100E+0002
 21
 9.23048746130300E+0002
  0
LINE
  8
0
 10
 7.31883467087100E+0002
 20
 9.23048746130300E+0002
 11
 7.27972244940800E+0002
 21
 9.13606289254400E+0002
  0
LINE
  8
0
 10
 7.27972244940800E+0002
 20
 9.13606289254400E+0002
 11
 7.24000647309700E+0002
 21
 9.04225906552100E+0002
  0
LINE
  8
0
 10
 7.24000647309700E+0002
 20
 9.04225906552100E+0002
 11
 7.19972007242400E+0002
 21
 8.94904217103200E+0002
  0
LINE
  8
0
 10
 7.19972007242400E+0002
 20
 8.94904217103200E+0002
 11
 7.15889657787500E+0002
 21
 8.85637839987500E+0002
  0
LINE
  8
0
 10
 7.15889657787500E+0002
 20
 8.85637839987500E+0002
 11
 7.11756931993600E+0002
 21
 8.76423394284800E+0002
  0
LINE
  8
0
 10
 7.11756931993600E+0002
 20
 8.76423394284800E+0002
 11
 7.07577162909300E+0002
 21
 8.67257499074900E+0002
  0
LINE
  8
0
 10
 7.07577162909300E+0002
 20
 8.67257499074900E+0002
 11
 7.03353683583200E+0002
 21
 8.58136773437600E+0002
  0
LINE
  8
0
 10
 7.03353683583200E+0002
 20
 8.58136773437600E+0002
 11
 6.99089827063900E+0002
 21
 8.49057836452700E+0002
  0
LINE
  8
0
 10
 6.99089827063900E+0002
 20
 8.49057836452700E+0002
 11
 6.94788926400000E+0002
 21
 8.40017307200000E+0002
  0
LINE
  8
0
 10
 6.94788926400000E+0002
 20
 8.40017307200000E+0002
 11
 6.90454314640100E+0002
 21
 8.31011804759300E+0002
  0
LINE
  8
0
 10
 6.90454314640100E+0002
 20
 8.31011804759300E+0002
 11
 6.86089324832800E+0002
 21
 8.22037948210400E+0002
  0
LINE
  8
0
 10
 6.86089324832800E+0002
 20
 8.22037948210400E+0002
 11
 6.81697290026700E+0002
 21
 8.13092356633100E+0002
  0
LINE
  8
0
 10
 6.81697290026700E+0002
 20
 8.13092356633100E+0002
 11
 6.77281543270400E+0002
 21
 8.04171649107200E+0002
  0
LINE
  8
0
 10
 6.77281543270400E+0002
 20
 8.04171649107200E+0002
 11
 6.72845417612500E+0002
 21
 7.95272444712500E+0002
  0
LINE
  8
0
 10
 6.72845417612500E+0002
 20
 7.95272444712500E+0002
 11
 6.68392246101600E+0002
 21
 7.86391362528800E+0002
  0
LINE
  8
0
 10
 6.68392246101600E+0002
 20
 7.86391362528800E+0002
 11
 6.63925361786300E+0002
 21
 7.77525021635900E+0002
  0
LINE
  8
0
 10
 6.63925361786300E+0002
 20
 7.77525021635900E+0002
 11
 6.59448097715200E+0002
 21
 7.68670041113600E+0002
  0
LINE
  8
0
 10
 6.59448097715200E+0002
 20
 7.68670041113600E+0002
 11
 6.54963786936900E+0002
 21
 7.59823040041700E+0002
  0
LINE
  8
0
 10
 6.54963786936900E+0002
 20
 7.59823040041700E+0002
 11
 6.50475762500000E+0002
 21
 7.50980637500000E+0002
  0
LINE
  8
0
 10
 6.50475762500000E+0002
 20
 7.50980637500000E+0002
 11
 6.45987357453100E+0002
 21
 7.42139452568300E+0002
  0
LINE
  8
0
 10
 6.45987357453100E+0002
 20
 7.42139452568300E+0002
 11
 6.41501904844800E+0002
 21
 7.33296104326400E+0002
  0
LINE
  8
0
 10
 6.41501904844800E+0002
 20
 7.33296104326400E+0002
 11
 6.37022737723700E+0002
 21
 7.24447211854100E+0002
  0
LINE
  8
0
 10
 6.37022737723700E+0002
 20
 7.24447211854100E+0002
 11
 6.32553189138400E+0002
 21
 7.15589394231200E+0002
  0
LINE
  8
0
 10
 6.32553189138400E+0002
 20
 7.15589394231200E+0002
 11
 6.28096592137500E+0002
 21
 7.06719270537500E+0002
  0
LINE
  8
0
 10
 6.28096592137500E+0002
 20
 7.06719270537500E+0002
 11
 6.23656279769600E+0002
 21
 6.97833459852800E+0002
  0
LINE
  8
0
 10
 6.23656279769600E+0002
 20
 6.97833459852800E+0002
 11
 6.19235585083300E+0002
 21
 6.88928581256900E+0002
  0
LINE
  8
0
 10
 6.19235585083300E+0002
 20
 6.88928581256900E+0002
 11
 6.14837841127200E+0002
 21
 6.80001253829600E+0002
  0
LINE
  8
0
 10
 6.14837841127200E+0002
 20
 6.80001253829600E+0002
 11
 6.10466380949900E+0002
 21
 6.71048096650700E+0002
  0
LINE
  8
0
 10
 6.10466380949900E+0002
 20
 6.71048096650700E+0002
 11
 6.06124537600000E+0002
 21
 6.62065728800000E+0002
  0
LINE
  8
0
 10
 6.06124537600000E+0002
 20
 6.62065728800000E+0002
 11
 6.01815644126100E+0002
 21
 6.53050769357300E+0002
  0
LINE
  8
0
 10
 6.01815644126100E+0002
 20
 6.53050769357300E+0002
 11
 5.97543033576800E+0002
 21
 6.43999837402400E+0002
  0
LINE
  8
0
 10
 5.97543033576800E+0002
 20
 6.43999837402400E+0002
 11
 5.93310039000700E+0002
 21
 6.34909552015100E+0002
  0
LINE
  8
0
 10
 5.93310039000700E+0002
 20
 6.34909552015100E+0002
 11
 5.89119993446400E+0002
 21
 6.25776532275200E+0002
  0
LINE
  8
0
 10
 5.89119993446400E+0002
 20
 6.25776532275200E+0002
 11
 5.84976229962500E+0002
 21
 6.16597397262500E+0002
  0
LINE
  8
0
 10
 5.84976229962500E+0002
 20
 6.16597397262500E+0002
 11
 5.80882081597600E+0002
 21
 6.07368766056800E+0002
  0
LINE
  8
0
 10
 5.80882081597600E+0002
 20
 6.07368766056800E+0002
 11
 5.76840881400300E+0002
 21
 5.98087257737900E+0002
  0
LINE
  8
0
 10
 5.76840881400300E+0002
 20
 5.98087257737900E+0002
 11
 5.72855962419200E+0002
 21
 5.88749491385600E+0002
  0
LINE
  8
0
 10
 5.72855962419200E+0002
 20
 5.88749491385600E+0002
 11
 5.68930657702900E+0002
 21
 5.79352086079700E+0002
  0
LINE
  8
0
 10
 5.68930657702900E+0002
 20
 5.79352086079700E+0002
 11
 5.65068300300000E+0002
 21
 5.69891660900000E+0002
  0
LINE
  8
0
 10
 5.65068300300000E+0002
 20
 5.69891660900000E+0002
 11
 5.61272223259100E+0002
 21
 5.60364834926300E+0002
  0
LINE
  8
0
 10
 5.61272223259100E+0002
 20
 5.60364834926300E+0002
 11
 5.57545759628800E+0002
 21
 5.50768227238400E+0002
  0
LINE
  8
0
 10
 5.57545759628800E+0002
 20
 5.50768227238400E+0002
 11
 5.53892242457700E+0002
 21
 5.41098456916100E+0002
  0
LINE
  8
0
 10
 5.53892242457700E+0002
 20
 5.41098456916100E+0002
 11
 5.50315004794400E+0002
 21
 5.31352143039200E+0002
  0
LINE
  8
0
 10
 5.50315004794400E+0002
 20
 5.31352143039200E+0002
 11
 5.46817379687500E+0002
 21
 5.21525904687500E+0002
  0
LINE
  8
0
 10
 5.46817379687500E+0002
 20
 5.21525904687500E+0002
 11
 5.43402700185600E+0002
 21
 5.11616360940800E+0002
  0
LINE
  8
0
 10
 5.43402700185600E+0002
 20
 5.11616360940800E+0002
 11
 5.40074299337300E+0002
 21
 5.01620130878900E+0002
  0
LINE
  8
0
 10
 5.40074299337300E+0002
 20
 5.01620130878900E+0002
 11
 5.36835510191200E+0002
 21
 4.91533833581600E+0002
  0
LINE
  8
0
 10
 5.36835510191200E+0002
 20
 4.91533833581600E+0002
 11
 5.33689665795900E+0002
 21
 4.81354088128700E+0002
  0
LINE
  8
0
 10
 5.33689665795900E+0002
 20
 4.81354088128700E+0002
 11
 5.30640099200000E+0002
 21
 4.71077513600000E+0002
  0
LINE
  8
0
 10
 5.30640099200000E+0002
 20
 4.71077513600000E+0002
 11
 5.27690143452100E+0002
 21
 4.60700729075300E+0002
  0
LINE
  8
0
 10
 5.27690143452100E+0002
 20
 4.60700729075300E+0002
 11
 5.24843131600800E+0002
 21
 4.50220353634400E+0002
  0
LINE
  8
0
 10
 5.24843131600800E+0002
 20
 4.50220353634400E+0002
 11
 5.22102396694700E+0002
 21
 4.39633006357100E+0002
  0
LINE
  8
0
 10
 5.22102396694700E+0002
 20
 4.39633006357100E+0002
 11
 5.19471271782400E+0002
 21
 4.28935306323200E+0002
  0
LINE
  8
0
 10
 5.19471271782400E+0002
 20
 4.28935306323200E+0002
 11
 5.16953089912500E+0002
 21
 4.18123872612500E+0002
  0
LINE
  8
0
 10
 5.16953089912500E+0002
 20
 4.18123872612500E+0002
 11
 5.14551184133600E+0002
 21
 4.07195324304800E+0002
  0
LINE
  8
0
 10
 5.14551184133600E+0002
 20
 4.07195324304800E+0002
 11
 5.12268887494300E+0002
 21
 3.96146280479900E+0002
  0
LINE
  8
0
 10
 5.12268887494300E+0002
 20
 3.96146280479900E+0002
 11
 5.10109533043200E+0002
 21
 3.84973360217600E+0002
  0
LINE
  8
0
 10
 5.10109533043200E+0002
 20
 3.84973360217600E+0002
 11
 5.08076453828900E+0002
 21
 3.73673182597700E+0002
  0
LINE
  8
0
 10
 5.08076453828900E+0002
 20
 3.73673182597700E+0002
 11
 5.06172982900000E+0002
 21
 3.62242366700000E+0002
  0
LINE
  8
0
 10
 5.06172982900000E+0002
 20
 3.62242366700000E+0002
 11
 5.04402453305100E+0002
 21
 3.50677531604300E+0002
  0
LINE
  8
0
 10
 5.04402453305100E+0002
 20
 3.50677531604300E+0002
 11
 5.02768198092800E+0002
 21
 3.38975296390400E+0002
  0
LINE
  8
0
 10
 5.02768198092800E+0002
 20
 3.38975296390400E+0002
 11
 5.01273550311700E+0002
 21
 3.27132280138100E+0002
  0
LINE
  8
0
 10
 5.01273550311700E+0002
 20
 3.27132280138100E+0002
 11
 4.99921843010400E+0002
 21
 3.15145101927200E+0002
  0
LINE
  8
0
 10
 4.99921843010400E+0002
 20
 3.15145101927200E+0002
 11
 4.98716409237500E+0002
 21
 3.03010380837500E+0002
  0
LINE
  8
0
 10
 4.98716409237500E+0002
 20
 3.03010380837500E+0002
 11
 4.97660582041600E+0002
 21
 2.90724735948800E+0002
  0
LINE
  8
0
 10
 4.97660582041600E+0002
 20
 2.90724735948800E+0002
 11
 4.96757694471300E+0002
 21
 2.78284786340900E+0002
  0
LINE
  8
0
 10
 4.96757694471300E+0002
 20
 2.78284786340900E+0002
 11
 4.96011079575200E+0002
 21
 2.65687151093600E+0002
  0
LINE
  8
0
 10
 4.96011079575200E+0002
 20
 2.65687151093600E+0002
 11
 4.95424070401900E+0002
 21
 2.52928449286700E+0002
  0
LINE
  8
0
 10
 4.95424070401900E+0002
 20
 2.52928449286700E+0002
 11
 4.95000000000000E+0002
 21
 2.40005300000000E+0002
  0
LINE
  8
0
 10
 4.95000000000000E+0002
 20
 2.40005300000000E+0002
 11
 4.95000000000000E+0002
 21
 1.55000000000000E+0002
  0
LINE
  8
0
 10
 4.95000000000000E+0002
 20
 1.55000000000000E+0002
 11
 5.55000000000000E+0002
 21
 1.55000000000000E+0002
  0
LINE
  8
0
 10
 5.55000000000000E+0002
 20
 1.55000000000000E+0002
 11
 5.55000000000000E+0002
 21
 2.40005300000000E+0002
  0
LINE
  8
0
 10
 5.55000000000000E+0002
 20
 2.40005300000000E+0002
 11
 5.55424029624700E+0002
 21
 2.52928449294400E+0002
  0
LINE
  8
0
 10
 5.55424029624700E+0002
 20
 2.52928449294400E+0002
 11
 5.56011000437600E+0002
 21
 2.65687151155200E+0002
  0
LINE
  8
0
 10
 5.56011000437600E+0002
 20
 2.65687151155200E+0002
 11
 5.56757579346900E+0002
 21
 2.78284786548800E+0002
  0
LINE
  8
0
 10
 5.56757579346900E+0002
 20
 2.78284786548800E+0002
 11
 5.57660433260800E+0002
 21
 2.90724736441600E+0002
  0
LINE
  8
0
 10
 5.57660433260800E+0002
 20
 2.90724736441600E+0002
 11
 5.58716229087500E+0002
 21
 3.03010381800000E+0002
  0
LINE
  8
0
 10
 5.58716229087500E+0002
 20
 3.03010381800000E+0002
 11
 5.59921633735200E+0002
 21
 3.15145103590400E+0002
  0
LINE
  8
0
 10
 5.59921633735200E+0002
 20
 3.15145103590400E+0002
 11
 5.61273314112100E+0002
 21
 3.27132282779200E+0002
  0
LINE
  8
0
 10
 5.61273314112100E+0002
 20
 3.27132282779200E+0002
 11
 5.62767937126400E+0002
 21
 3.38975300332800E+0002
  0
LINE
  8
0
 10
 5.62767937126400E+0002
 20
 3.38975300332800E+0002
 11
 5.64402169686300E+0002
 21
 3.50677537217600E+0002
  0
LINE
  8
0
 10
 5.64402169686300E+0002
 20
 3.50677537217600E+0002
 11
 5.66172678700000E+0002
 21
 3.62242374400000E+0002
  0
LINE
  8
0
 10
 5.66172678700000E+0002
 20
 3.62242374400000E+0002
 11
 5.68076131075700E+0002
 21
 3.73673192846400E+0002
  0
LINE
  8
0
 10
 5.68076131075700E+0002
 20
 3.73673192846400E+0002
 11
 5.70109193721600E+0002
 21
 3.84973373523200E+0002
  0
LINE
  8
0
 10
 5.70109193721600E+0002
 20
 3.84973373523200E+0002
 11
 5.72268533545900E+0002
 21
 3.96146297396800E+0002
  0
LINE
  8
0
 10
 5.72268533545900E+0002
 20
 3.96146297396800E+0002
 11
 5.74550817456800E+0002
 21
 4.07195345433600E+0002
  0
LINE
  8
0
 10
 5.74550817456800E+0002
 20
 4.07195345433600E+0002
 11
 5.76952712362500E+0002
 21
 4.18123898600000E+0002
  0
LINE
  8
0
 10
 5.76952712362500E+0002
 20
 4.18123898600000E+0002
 11
 5.79470885171200E+0002
 21
 4.28935337862400E+0002
  0
LINE
  8
0
 10
 5.79470885171200E+0002
 20
 4.28935337862400E+0002
 11
 5.82102002791100E+0002
 21
 4.39633044187200E+0002
  0
LINE
  8
0
 10
 5.82102002791100E+0002
 20
 4.39633044187200E+0002
 11
 5.84842732130400E+0002
 21
 4.50220398540800E+0002
  0
LINE
  8
0
 10
 5.84842732130400E+0002
 20
 4.50220398540800E+0002
 11
 5.87689740097300E+0002
 21
 4.60700781889600E+0002
  0
LINE
  8
0
 10
 5.87689740097300E+0002
 20
 4.60700781889600E+0002
 11
 5.90639693600000E+0002
 21
 4.71077575200000E+0002
  0
LINE
  8
0
 10
 5.90639693600000E+0002
 20
 4.71077575200000E+0002
 11
 5.93689259546700E+0002
 21
 4.81354159438400E+0002
  0
LINE
  8
0
 10
 5.93689259546700E+0002
 20
 4.81354159438400E+0002
 11
 5.96835104845600E+0002
 21
 4.91533915571200E+0002
  0
LINE
  8
0
 10
 5.96835104845600E+0002
 20
 4.91533915571200E+0002
 11
 6.00073896404900E+0002
 21
 5.01620224564800E+0002
  0
LINE
  8
0
 10
 6.00073896404900E+0002
 20
 5.01620224564800E+0002
 11
 6.03402301132800E+0002
 21
 5.11616467385600E+0002
  0
LINE
  8
0
 10
 6.03402301132800E+0002
 20
 5.11616467385600E+0002
 11
 6.06816985937500E+0002
 21
 5.21526025000000E+0002
  0
LINE
  8
0
 10
 6.06816985937500E+0002
 20
 5.21526025000000E+0002
 11
 6.10314617727200E+0002
 21
 5.31352278374400E+0002
  0
LINE
  8
0
 10
 6.10314617727200E+0002
 20
 5.31352278374400E+0002
 11
 6.13891863410100E+0002
 21
 5.41098608475200E+0002
  0
LINE
  8
0
 10
 6.13891863410100E+0002
 20
 5.41098608475200E+0002
 11
 6.17545389894400E+0002
 21
 5.50768396268800E+0002
  0
LINE
  8
0
 10
 6.17545389894400E+0002
 20
 5.50768396268800E+0002
 11
 6.21271864088300E+0002
 21
 5.60365022721600E+0002
  0
LINE
  8
0
 10
 6.21271864088300E+0002
 20
 5.60365022721600E+0002
 11
 6.25067952900000E+0002
 21
 5.69891868800000E+0002
  0
LINE
  8
0
 10
 6.25067952900000E+0002
 20
 5.69891868800000E+0002
 11
 6.28930323237700E+0002
 21
 5.79352315470400E+0002
  0
LINE
  8
0
 10
 6.28930323237700E+0002
 20
 5.79352315470400E+0002
 11
 6.32855642009600E+0002
 21
 5.88749743699200E+0002
  0
LINE
  8
0
 10
 6.32855642009600E+0002
 20
 5.88749743699200E+0002
 11
 6.36840576123900E+0002
 21
 5.98087534452800E+0002
  0
LINE
  8
0
 10
 6.36840576123900E+0002
 20
 5.98087534452800E+0002
 11
 6.40881792488800E+0002
 21
 6.07369068697600E+0002
  0
LINE
  8
0
 10
 6.40881792488800E+0002
 20
 6.07369068697600E+0002
 11
 6.44975958012500E+0002
 21
 6.16597727400000E+0002
  0
LINE
  8
0
 10
 6.44975958012500E+0002
 20
 6.16597727400000E+0002
 11
 6.49119739603200E+0002
 21
 6.25776891526400E+0002
  0
LINE
  8
0
 10
 6.49119739603200E+0002
 20
 6.25776891526400E+0002
 11
 6.53309804169100E+0002
 21
 6.34909942043200E+0002
  0
LINE
  8
0
 10
 6.53309804169100E+0002
 20
 6.34909942043200E+0002
 11
 6.57542818618400E+0002
 21
 6.44000259916800E+0002
  0
LINE
  8
0
 10
 6.57542818618400E+0002
 20
 6.44000259916800E+0002
 11
 6.61815449859300E+0002
 21
 6.53051226113600E+0002
  0
LINE
  8
0
 10
 6.61815449859300E+0002
 20
 6.53051226113600E+0002
 11
 6.66124364800000E+0002
 21
 6.62066221600000E+0002
  0
LINE
  8
0
 10
 6.66124364800000E+0002
 20
 6.62066221600000E+0002
 11
 6.70466230348700E+0002
 21
 6.71048627342400E+0002
  0
LINE
  8
0
 10
 6.70466230348700E+0002
 20
 6.71048627342400E+0002
 11
 6.74837713413600E+0002
 21
 6.80001824307200E+0002
  0
LINE
  8
0
 10
 6.74837713413600E+0002
 20
 6.80001824307200E+0002
 11
 6.79235480902900E+0002
 21
 6.88929193460800E+0002
  0
LINE
  8
0
 10
 6.79235480902900E+0002
 20
 6.88929193460800E+0002
 11
 6.83656199724800E+0002
 21
 6.97834115769600E+0002
  0
LINE
  8
0
 10
 6.83656199724800E+0002
 20
 6.97834115769600E+0002
 11
 6.88096536787500E+0002
 21
 7.06719972200000E+0002
  0
LINE
  8
0
 10
 6.88096536787500E+0002
 20
 7.06719972200000E+0002
 11
 6.92553158999200E+0002
 21
 7.15590143718400E+0002
  0
LINE
  8
0
 10
 6.92553158999200E+0002
 20
 7.15590143718400E+0002
 11
 6.97022733268100E+0002
 21
 7.24448011291200E+0002
  0
LINE
  8
0
 10
 6.97022733268100E+0002
 20
 7.24448011291200E+0002
 11
 7.01501926502400E+0002
 21
 7.33296955884800E+0002
  0
LINE
  8
0
 10
 7.01501926502400E+0002
 20
 7.33296955884800E+0002
 11
 7.05987405610300E+0002
 21
 7.42140358465600E+0002
  0
LINE
  8
0
 10
 7.05987405610300E+0002
 20
 7.42140358465600E+0002
 11
 7.10475837500000E+0002
 21
 7.50981600000000E+0002
  0
LINE
  8
0
 10
 7.10475837500000E+0002
 20
 7.50981600000000E+0002
 11
 7.14963889079700E+0002
 21
 7.59824061454400E+0002
  0
LINE
  8
0
 10
 7.14963889079700E+0002
 20
 7.59824061454400E+0002
 11
 7.19448227257600E+0002
 21
 7.68671123795200E+0002
  0
LINE
  8
0
 10
 7.19448227257600E+0002
 20
 7.68671123795200E+0002
 11
 7.23925518941900E+0002
 21
 7.77526167988800E+0002
  0
LINE
  8
0
 10
 7.23925518941900E+0002
 20
 7.77526167988800E+0002
 11
 7.28392431040800E+0002
 21
 7.86392575001600E+0002
  0
LINE
  8
0
 10
 7.28392431040800E+0002
 20
 7.86392575001600E+0002
 11
 7.32845630462500E+0002
 21
 7.95273725800000E+0002
  0
LINE
  8
0
 10
 7.32845630462500E+0002
 20
 7.95273725800000E+0002
 11
 7.37281784115200E+0002
 21
 8.04173001350400E+0002
  0
LINE
  8
0
 10
 7.37281784115200E+0002
 20
 8.04173001350400E+0002
 11
 7.41697558907100E+0002
 21
 8.13093782619200E+0002
  0
LINE
  8
0
 10
 7.41697558907100E+0002
 20
 8.13093782619200E+0002
 11
 7.46089621746400E+0002
 21
 8.22039450572800E+0002
  0
LINE
  8
0
 10
 7.46089621746400E+0002
 20
 8.22039450572800E+0002
 11
 7.50454639541300E+0002
 21
 8.31013386177600E+0002
  0
LINE
  8
0
 10
 7.50454639541300E+0002
 20
 8.31013386177600E+0002
 11
 7.54789279200000E+0002
 21
 8.40018970400000E+0002
  0
LINE
  8
0
 10
 7.54789279200000E+0002
 20
 8.40018970400000E+0002
 11
 7.59090207630700E+0002
 21
 8.49059584206400E+0002
  0
LINE
  8
0
 10
 7.59090207630700E+0002
 20
 8.49059584206400E+0002
 11
 7.63354091741600E+0002
 21
 8.58138608563200E+0002
  0
LINE
  8
0
 10
 7.63354091741600E+0002
 20
 8.58138608563200E+0002
 11
 7.67577598440900E+0002
 21
 8.67259424436800E+0002
  0
LINE
  8
0
 10
 7.67577598440900E+0002
 20
 8.67259424436800E+0002
 11
 7.71757394636800E+0002
 21
 8.76425412793600E+0002
  0
LINE
  8
0
 10
 7.71757394636800E+0002
 20
 8.76425412793600E+0002
 11
 7.75890147237500E+0002
 21
 8.85639954600000E+0002
  0
LINE
  8
0
 10
 7.75890147237500E+0002
 20
 8.85639954600000E+0002
 11
 7.79972523151200E+0002
 21
 8.94906430822400E+0002
  0
LINE
  8
0
 10
 7.79972523151200E+0002
 20
 8.94906430822400E+0002
 11
 7.84001189286100E+0002
 21
 9.04228222427200E+0002
  0
LINE
  8
0
 10
 7.84001189286100E+0002
 20
 9.04228222427200E+0002
 11
 7.87972812550400E+0002
 21
 9.13608710380800E+0002
  0
LINE
  8
0
 10
 7.87972812550400E+0002
 20
 9.13608710380800E+0002
 11
 7.91884059852300E+0002
 21
 9.23051275649600E+0002
  0
LINE
  8
0
 10
 7.91884059852300E+0002
 20
 9.23051275649600E+0002
 11
 7.95731598100000E+0002
 21
 9.32559299200000E+0002
  0
LINE
  8
0
 10
 7.95731598100000E+0002
 20
 9.32559299200000E+0002
 11
 7.99512094201700E+0002
 21
 9.42136161998400E+0002
  0
LINE
  8
0
 10
 7.99512094201700E+0002
 20
 9.42136161998400E+0002
 11
 8.03222215065600E+0002
 21
 9.51785245011200E+0002
  0
LINE
  8
0
 10
 8.03222215065600E+0002
 20
 9.51785245011200E+0002
 11
 8.06858627599900E+0002
 21
 9.61509929204800E+0002
  0
LINE
  8
0
 10
 8.06858627599900E+0002
 20
 9.61509929204800E+0002
 11
 8.10417998712800E+0002
 21
 9.71313595545600E+0002
  0
LINE
  8
0
 10
 8.10417998712800E+0002
 20
 9.71313595545600E+0002
 11
 8.13896995312500E+0002
 21
 9.81199625000000E+0002
  0
LINE
  8
0
 10
 8.13896995312500E+0002
 20
 9.81199625000000E+0002
 11
 8.17292284307200E+0002
 21
 9.91171398534400E+0002
  0
LINE
  8
0
 10
 8.17292284307200E+0002
 20
 9.91171398534400E+0002
 11
 8.20600532605100E+0002
 21
 1.00123229711520E+0003
  0
LINE
  8
0
 10
 8.20600532605100E+0002
 20
 1.00123229711520E+0003
 11
 8.23818407114400E+0002
 21
 1.01138570170880E+0003
  0
LINE
  8
0
 10
 8.23818407114400E+0002
 20
 1.01138570170880E+0003
 11
 8.26942574743300E+0002
 21
 1.02163499328160E+0003
  0
LINE
  8
0
 10
 8.26942574743300E+0002
 20
 1.02163499328160E+0003
 11
 8.29969702400000E+0002
 21
 1.03198355280000E+0003
  0
LINE
  8
0
 10
 8.29969702400000E+0002
 20
 1.03198355280000E+0003
 11
 8.32896456992700E+0002
 21
 1.04243476123040E+0003
  0
LINE
  8
0
 10
 8.32896456992700E+0002
 20
 1.04243476123040E+0003
 11
 8.35719505429600E+0002
 21
 1.05299199953920E+0003
  0
LINE
  8
0
 10
 8.35719505429600E+0002
 20
 1.05299199953920E+0003
 11
 8.38435514618900E+0002
 21
 1.06365864869280E+0003
  0
LINE
  8
0
 10
 8.38435514618900E+0002
 20
 1.06365864869280E+0003
 11
 8.41041151468800E+0002
 21
 1.07443808965760E+0003
  0
LINE
  8
0
 10
 8.41041151468800E+0002
 20
 1.07443808965760E+0003
 11
 8.43533082887500E+0002
 21
 1.08533370340000E+0003
  0
LINE
  8
0
 10
 8.43533082887500E+0002
 20
 1.08533370340000E+0003
 11
 8.45907975783200E+0002
 21
 1.09634887088640E+0003
  0
LINE
  8
0
 10
 8.45907975783200E+0002
 20
 1.09634887088640E+0003
 11
 8.48162497064100E+0002
 21
 1.10748697308320E+0003
  0
LINE
  8
0
 10
 8.48162497064100E+0002
 20
 1.10748697308320E+0003
 11
 8.50293313638400E+0002
 21
 1.11875139095680E+0003
  0
LINE
  8
0
 10
 8.50293313638400E+0002
 20
 1.11875139095680E+0003
 11
 8.52297092414300E+0002
 21
 1.13014550547360E+0003
  0
LINE
  8
0
 10
 8.52297092414300E+0002
 20
 1.13014550547360E+0003
 11
 8.54170500300000E+0002
 21
 1.14167269760000E+0003
  0
LINE
  8
0
 10
 8.54170500300000E+0002
 20
 1.14167269760000E+0003
 11
 8.55910204203700E+0002
 21
 1.15333634830240E+0003
  0
LINE
  8
0
 10
 8.55910204203700E+0002
 20
 1.15333634830240E+0003
 11
 8.57512871033600E+0002
 21
 1.16513983854720E+0003
  0
LINE
  8
0
 10
 8.57512871033600E+0002
 20
 1.16513983854720E+0003
 11
 8.58975167697900E+0002
 21
 1.17708654930080E+0003
  0
LINE
  8
0
 10
 8.58975167697900E+0002
 20
 1.17708654930080E+0003
 11
 8.60293761104800E+0002
 21
 1.18917986152960E+0003
  0
LINE
  8
0
 10
 8.60293761104800E+0002
 20
 1.18917986152960E+0003
 11
 8.61465318162500E+0002
 21
 1.20142315620000E+0003
  0
LINE
  8
0
 10
 8.61465318162500E+0002
 20
 1.20142315620000E+0003
 11
 8.62486505779200E+0002
 21
 1.21381981427840E+0003
  0
LINE
  8
0
 10
 8.62486505779200E+0002
 20
 1.21381981427840E+0003
 11
 8.63353990863100E+0002
 21
 1.22637321673120E+0003
  0
LINE
  8
0
 10
 8.63353990863100E+0002
 20
 1.22637321673120E+0003
 11
 8.64064440322400E+0002
 21
 1.23908674452480E+0003
  0
LINE
  8
0
 10
 8.64064440322400E+0002
 20
 1.23908674452480E+0003
 11
 8.64614521065300E+0002
 21
 1.25196377862560E+0003
  0
LINE
  8
0
 10
 8.64614521065300E+0002
 20
 1.25196377862560E+0003
 11
 8.65000900000000E+0002
 21
 1.26500770000000E+0003
  0
LINE
  8
0
 10
 8.65000900000000E+0002
 20
 1.26500770000000E+0003
 11
 8.65000000000000E+0002
 21
 1.30700000000000E+0003
  0
LINE
  8
0
 10
 8.65000000000000E+0002
 20
 1.30700000000000E+0003
 11
 9.10000509446390E+0002
 21
 1.29538091843480E+0003
  0
ARC
  8
0
 10
 9.13000000000000E+0002
 20
 1.30700000000000E+0003
 40
 1.20000000000000E+0001
 50
 2.55525000000000E+0002
 51
 3.93805000000000E+0002
  0
LINE
  8
0
 10
 9.22971231041917E+0002
 20
 1.31367641756549E+0003
 11
 8.35000000000000E+0002
 21
 1.44500000000000E+0003
  0
LINE
  8
0
 10
 8.35000000000000E+0002
 20
 1.44500000000000E+0003
 11
 7.47028768958083E+0002
 21
 1.31367641756549E+0003
  0
ARC
  8
0
 10
 7.57000000000000E+0002
 20
 1.30700000000000E+0003
 40
 1.20000000000000E+0001
 50
 1.46195000000000E+0002
 51
 2.84475000000000E+0002
  0
LINE
  8
0
 10
 7.59999490553610E+0002
 20
 1.29538091843480E+0003
 11
 8.05000000000000E+0002
 21
 1.30700000000000E+0003
  0
LINE
  8
0
 10
 8.05000000000000E+0002
 20
 1.30700000000000E+0003
 11
 8.05000000000000E+0002
 21
 1.26500000000000E+0003
  0
LINE
  8
0
 10
 1.04500000000000E+0003
 20
 1.30700000000000E+0003
 11
 9.99999490553610E+0002
 21
 1.29538091843480E+0003
  0
ARC
  8
0
 10
 9.97000000000000E+0002
 20
 1.30700000000000E+0003
 40
 1.20000000000000E+0001
 50
 1.46195000000000E+0002
 51
 2.84475000000000E+0002
  0
LINE
  8
0
 10
 9.87028768958083E+0002
 20
 1.31367641756549E+0003
 11
 1.07500000000000E+0003
 21
 1.44500000000000E+0003
  0
LINE
  8
0
 10
 1.07500000000000E+0003
 20
 1.44500000000000E+0003
 11
 1.16297123104192E+0003
 21
 1.31367641756549E+0003
  0
ARC
  8
0
 10
 1.15300000000000E+0003
 20
 1.30700000000000E+0003
 40
 1.20000000000000E+0001
 50
 2.55525000000000E+0002
 51
 3.93805000000000E+0002
  0
LINE
  8
0
 10
 1.15000050944639E+0003
 20
 1.29538091843480E+0003
 11
 1.10500000000000E+0003
 21
 1.30700000000000E+0003
  0
LINE
  8
0
 10
 1.10500000000000E+0003
 20
 1.30700000000000E+0003
 11
 1.10500000000000E+0003
 21
 1.55000000000000E+0002
  0
LINE
  8
0
 10
 1.10500000000000E+0003
 20
 1.55000000000000E+0002
 11
 1.04500000000000E+0003
 21
 1.55000000000000E+0002
  0
LINE
  8
0
 10
 1.04500000000000E+0003
 20
 1.55000000000000E+0002
 11
 1.04500000000000E+0003
 21
 1.30700000000000E+0003
  0
LINE
  8
0
 10
 1.28500000000000E+0003
 20
 1.30700000000000E+0003
 11
 1.23999949055361E+0003
 21
 1.29538091843480E+0003
  0
ARC
  8
0
 10
 1.23700000000000E+0003
 20
 1.30700000000000E+0003
 40
 1.20000000000000E+0001
 50
 1.46195000000000E+0002
 51
 2.84475000000000E+0002
  0
LINE
  8
0
 10
 1.22702876895808E+0003
 20
 1.31367641756549E+0003
 11
 1.31500000000000E+0003
 21
 1.44500000000000E+0003
  0
LINE
  8
0
 10
 1.31500000000000E+0003
 20
 1.44500000000000E+0003
 11
 1.40297123104192E+0003
 21
 1.31367641756549E+0003
  0
ARC
  8
0
 10
 1.39300000000000E+0003
 20
 1.30700000000000E+0003
 40
 1.20000000000000E+0001
 50
 2.55525000000000E+0002
 51
 3.93805000000000E+0002
  0
LINE
  8
0
 10
 1.39000050944639E+0003
 20
 1.29538091843480E+0003
 11
 1.34500000000000E+0003
 21
 1.30700000000000E+0003
  0
LINE
  8
0
 10
 1.34500000000000E+0003
 20
 1.30700000000000E+0003
 11
 1.34500000000000E+0003
 21
 1.55000000000000E+0002
  0
LINE
  8
0
 10
 1.34500000000000E+0003
 20
 1.55000000000000E+0002
 11
 1.28500000000000E+0003
 21
 1.55000000000000E+0002
  0
LINE
  8
0
 10
 1.28500000000000E+0003
 20
 1.55000000000000E+0002
 11
 1.28500000000000E+0003
 21
 1.30700000000000E+0003
  0
LINE
  8
0
 10
 3.55000000000000E+0002
 20
 1.53500000000000E+0003
 11
 3.85000000000000E+0002
 21
 1.53500000000000E+0003
  0
ARC
  8
0
 10
-3.65000000000000E+0002
 20
 1.53500000000000E+0003
 40
 7.50000000000000E+0002
 50
 3.40811860000000E+0002
 51
 3.60000000000000E+0002
  0
LINE
  8
0
 10
 3.43333318076195E+0002
 20
 1.28849663186243E+0003
 11
 3.43333332723048E+0002
 21
 1.28849686527450E+0003
  0
ARC
  8
0
 10
 3.15000000000000E+0002
 20
 1.29835700000000E+0003
 40
 3.00000000000000E+0001
 50
 1.99188140000000E+0002
 51
 3.40811860000000E+0002
  0
LINE
  8
0
 10
 2.86666667276952E+0002
 20
 1.28849686527450E+0003
 11
 2.86666681923805E+0002
 21
 1.28849663186243E+0003
  0
ARC
  8
0
 10
 9.95000000000000E+0002
 20
 1.53500000000000E+0003
 40
 7.50000000000000E+0002
 50
 1.80000000000000E+0002
 51
 1.99188140000000E+0002
  0
LINE
  8
0
 10
 2.45000000000000E+0002
 20
 1.53500000000000E+0003
 11
 2.75000000000000E+0002
 21
 1.53500000000000E+0003
  0
ARC
  8
0
 10
 9.95000000000000E+0002
 20
 1.53500000000000E+0003
 40
 7.20000000000000E+0002
 50
 1.80000000000000E+0002
 51
 1.99188140000000E+0002
  0
LINE
  8
0
 10
 3.15000014646853E+0002
 20
 1.29835676658793E+0003
 11
 3.14999985353147E+0002
 21
 1.29835676658793E+0003
  0
ARC
  8
0
 10
-3.65000000000000E+0002
 20
 1.53500000000000E+0003
 40
 7.20000000000000E+0002
 50
 3.40811860000000E+0002
 51
 3.60000000000000E+0002
  0
LINE
  8
0
 10
 8.40000000000000E+0002
 20
 6.50000000000000E+0001
 11
 8.70000000000000E+0002
 21
 6.50000000000000E+0001
  0
ARC
  8
0
 10
 1.20000000000000E+0002
 20
 6.50000000000000E+0001
 40
 7.50000000000000E+0002
 50
 0.00000000000000E+0000
 51
 1.91881400000000E+0001
  0
LINE
  8
0
 10
 8.28333318076195E+0002
 20
 3.11503368137575E+0002
 11
 8.28333332723048E+0002
 21
 3.11503134725503E+0002
  0
ARC
  8
0
 10
 8.00000000000000E+0002
 20
 3.01643000000000E+0002
 40
 3.00000000000000E+0001
 50
 1.91881400000000E+0001
 51
 1.60811860000000E+0002
  0
LINE
  8
0
 10
 7.71666667276952E+0002
 20
 3.11503134725503E+0002
 11
 7.71666681923805E+0002
 21
 3.11503368137575E+0002
  0
ARC
  8
0
 10
 1.48000000000000E+0003
 20
 6.50000000000000E+0001
 40
 7.50000000000000E+0002
 50
 1.60811860000000E+0002
 51
 1.80000000000000E+0002
  0
LINE
  8
0
 10
 7.30000000000000E+0002
 20
 6.50000000000000E+0001
 11
 7.60000000000000E+0002
 21
 6.50000000000000E+0001
  0
ARC
  8
0
 10
 1.48000000000000E+0003
 20
 6.50000000000000E+0001
 40
 7.20000000000000E+0002
 50
 1.60811860000000E+0002
 51
 1.80000000000000E+0002
  0
LINE
  8
0
 10
 8.00000014646853E+0002
 20
 3.01643233412072E+0002
 11
 7.99999985353147E+0002
 21
 3.01643233412072E+0002
  0
ARC
  8
0
 10
 1.20000000000000E+0002
 20
 6.50000000000000E+0001
 40
 7.20000000000000E+0002
 50
 0.00000000000000E+0000
 51
 1.91881400000000E+0001
  0
ENDSEC
  0
EOF
