  0
SECTION
  2
HEADER
  9
$ACADVER
  1
AC1003
  9
$INSBASE
 10
0.0
 20
0.0
  9
$EXTMIN
 10
 0.00000000000000E+0000
 20
 0.00000000000000E+0000
  9
$EXTMAX
 10
 1.60000000000000E+0003
 20
 1.60000000000000E+0003
  9
$LIMMIN
 10
0.0
 20
0.0
  9
$LIMMAX
 10
410.0
 20
287.0
  9
$VIEWCTR
 10
227.0059616
 20
165.058879 
  9
$VIEWSIZE
 40
 1.60000000000000E+0003
9
$SNAPMODE
70
0
9
$SNAPUNIT
10
1
20
1
9
$GRIDMODE
70
0
9
$GRIDUNIT
10
1
20
1
9
$ORTHOMODE
70
0
9
$rEGENMODE
70
1
9
$FILLMODE
70
1
9
$DRAGMODE
70
2
9
$LTSCALE
40
25.0
9
$OSMODE
70
0
9
$ATTMODE
70
1
9
$TRACEWID
40
1.0
9
$TEXTSTYLE
7
STANDARD
9
$CLAYER
8
0
9
$CELTYPE
6
VONLAYER
9
$CECOLOR
62
256
9
$LUNITS
70
2
9
$LUPREC
70
2
9
$AXISMODE
70
0
9
$AXISUNIT
10
0
20
0
9
$SKETCHINC
40
1.0
9
$FILLETRAD
40
0.0
9
$AUNITS
70
0
9
$AUPREC
70
0
9
$MENU
1
ACAD
9
$ELEVATION
40
0.0
9
$THICKNESS
40
0.0
9
$VIEWDIR
10
0.0
20
0.0
30
1.0
9
$LIMCHECK
70
0
9
$BLIPMODE
70
1
9
$CHAMFERA
40
0.0
9
$CHAMFERB
40
0.0
9
$USRTIMER
70
1
9
$ANGBASE
50
0.0
9
$ANGDIR
70
0
9
$PDMODE
70
0
9
$PDSIZE
40
0.0
9
$PLINEWID
40
0.0
9
$COORDS
70
0
0
ENDSEC
0
SECTION
2
TABLES
0
TABLE
2
LTYPE
70
1
0
LTYPE
2
AUSGEZOGEN
70
64
3
Ausgezogene Linie
72
65
73
0
40
0.0
0
ENDTAB
0
TABLE
2
LAYER
70
1
0
LAYER
2
0
70
0
62
7
6
AUSGEZOGEN
0
ENDTAB
0
TABLE
2
STYLE
70
1
0
STYLE
2
STANDARD
70
0
40
0.0
41
1.0
50
0.0
71
0
42
3.5
3
txt
4

0
ENDTAB
0
TABLE
2
VIEW
70
0
0
ENDTAB
0
ENDSEC
0
SECTION
2
BLOCKS
0
ENDSEC
0
SECTION
2
ENTITIES
  0
ARC
  8
0
 10
 6.00000000000000E+0001
 20
 6.00000000000000E+0001
 40
 6.00000000000000E+0001
 50
 1.80000000000000E+0002
 51
 2.70000000000000E+0002
  0
LINE
  8
0
 10
 0.00000000000000E+0000
 20
 6.00000000000000E+0001
 11
 0.00000000000000E+0000
 21
 1.54000000000000E+0003
  0
ARC
  8
0
 10
 6.00000000000000E+0001
 20
 1.54000000000000E+0003
 40
 6.00000000000000E+0001
 50
 9.00000000000000E+0001
 51
 1.80000000000000E+0002
  0
LINE
  8
0
 10
 6.00000000000000E+0001
 20
 1.60000000000000E+0003
 11
 1.54000000000000E+0003
 21
 1.60000000000000E+0003
  0
ARC
  8
0
 10
 1.54000000000000E+0003
 20
 1.54000000000000E+0003
 40
 6.00000000000000E+0001
 50
 0.00000000000000E+0000
 51
 9.00000000000000E+0001
  0
LINE
  8
0
 10
 1.60000000000000E+0003
 20
 1.54000000000000E+0003
 11
 1.60000000000000E+0003
 21
 6.00000000000000E+0001
  0
ARC
  8
0
 10
 1.54000000000000E+0003
 20
 6.00000000000000E+0001
 40
 6.00000000000000E+0001
 50
 2.70000000000000E+0002
 51
 3.60000000000000E+0002
  0
LINE
  8
0
 10
 1.54000000000000E+0003
 20
 0.00000000000000E+0000
 11
 6.00000000000000E+0001
 21
 0.00000000000000E+0000
  0
ARC
  8
0
 10
 6.00000000000000E+0001
 20
 6.00000000000000E+0001
 40
 4.50000000000000E+0001
 50
 1.80000000000000E+0002
 51
 2.70000000000000E+0002
  0
LINE
  8
0
 10
 1.50000000000000E+0001
 20
 6.00000000000000E+0001
 11
 1.50000000000000E+0001
 21
 1.54000000000000E+0003
  0
ARC
  8
0
 10
 6.00000000000000E+0001
 20
 1.54000000000000E+0003
 40
 4.50000000000000E+0001
 50
 9.00000000000000E+0001
 51
 1.80000000000000E+0002
  0
LINE
  8
0
 10
 6.00000000000000E+0001
 20
 1.58500000000000E+0003
 11
 1.54000000000000E+0003
 21
 1.58500000000000E+0003
  0
ARC
  8
0
 10
 1.54000000000000E+0003
 20
 1.54000000000000E+0003
 40
 4.50000000000000E+0001
 50
 0.00000000000000E+0000
 51
 9.00000000000000E+0001
  0
LINE
  8
0
 10
 1.58500000000000E+0003
 20
 1.54000000000000E+0003
 11
 1.58500000000000E+0003
 21
 6.00000000000000E+0001
  0
ARC
  8
0
 10
 1.54000000000000E+0003
 20
 6.00000000000000E+0001
 40
 4.50000000000000E+0001
 50
 2.70000000000000E+0002
 51
 3.60000000000000E+0002
  0
LINE
  8
0
 10
 1.54000000000000E+0003
 20
 1.50000000000000E+0001
 11
 6.00000000000000E+0001
 21
 1.50000000000000E+0001
  0
ARC
  8
0
 10
 6.00000000000000E+0001
 20
 6.00000000000000E+0001
 40
 2.50000000000000E+0001
 50
 1.80000000000000E+0002
 51
 2.70000000000000E+0002
  0
LINE
  8
0
 10
 3.50000000000000E+0001
 20
 6.00000000000000E+0001
 11
 3.50000000000000E+0001
 21
 1.54000000000000E+0003
  0
ARC
  8
0
 10
 6.00000000000000E+0001
 20
 1.54000000000000E+0003
 40
 2.50000000000000E+0001
 50
 9.00000000000000E+0001
 51
 1.80000000000000E+0002
  0
LINE
  8
0
 10
 6.00000000000000E+0001
 20
 1.56500000000000E+0003
 11
 1.54000000000000E+0003
 21
 1.56500000000000E+0003
  0
ARC
  8
0
 10
 1.54000000000000E+0003
 20
 1.54000000000000E+0003
 40
 2.50000000000000E+0001
 50
 0.00000000000000E+0000
 51
 9.00000000000000E+0001
  0
LINE
  8
0
 10
 1.56500000000000E+0003
 20
 1.54000000000000E+0003
 11
 1.56500000000000E+0003
 21
 6.00000000000000E+0001
  0
ARC
  8
0
 10
 1.54000000000000E+0003
 20
 6.00000000000000E+0001
 40
 2.50000000000000E+0001
 50
 2.70000000000000E+0002
 51
 3.60000000000000E+0002
  0
LINE
  8
0
 10
 1.54000000000000E+0003
 20
 3.50000000000000E+0001
 11
 6.00000000000000E+0001
 21
 3.50000000000000E+0001
  0
LINE
  8
0
 10
 4.55000000000000E+0002
 20
 1.26500000000000E+0003
 11
 4.54613615868900E+0002
 21
 1.25195630732330E+0003
  0
LINE
  8
0
 10
 4.54613615868900E+0002
 20
 1.25195630732330E+0003
 11
 4.54063531511200E+0002
 21
 1.23907949734640E+0003
  0
LINE
  8
0
 10
 4.54063531511200E+0002
 20
 1.23907949734640E+0003
 11
 4.53353079980300E+0002
 21
 1.22636618914910E+0003
  0
LINE
  8
0
 10
 4.53353079980300E+0002
 20
 1.22636618914910E+0003
 11
 4.52485594329600E+0002
 21
 1.21381300181120E+0003
  0
LINE
  8
0
 10
 4.52485594329600E+0002
 20
 1.21381300181120E+0003
 11
 4.51464407612500E+0002
 21
 1.20141655441250E+0003
  0
LINE
  8
0
 10
 4.51464407612500E+0002
 20
 1.20141655441250E+0003
 11
 4.50292852882400E+0002
 21
 1.18917346603280E+0003
  0
LINE
  8
0
 10
 4.50292852882400E+0002
 20
 1.18917346603280E+0003
 11
 4.48974263192700E+0002
 21
 1.17708035575190E+0003
  0
LINE
  8
0
 10
 4.48974263192700E+0002
 20
 1.17708035575190E+0003
 11
 4.47511971596800E+0002
 21
 1.16513384264960E+0003
  0
LINE
  8
0
 10
 4.47511971596800E+0002
 20
 1.16513384264960E+0003
 11
 4.45909311148100E+0002
 21
 1.15333054580570E+0003
  0
LINE
  8
0
 10
 4.45909311148100E+0002
 20
 1.15333054580570E+0003
 11
 4.44169614900000E+0002
 21
 1.14166708430000E+0003
  0
LINE
  8
0
 10
 4.44169614900000E+0002
 20
 1.14166708430000E+0003
 11
 4.42296215905900E+0002
 21
 1.13014007721230E+0003
  0
LINE
  8
0
 10
 4.42296215905900E+0002
 20
 1.13014007721230E+0003
 11
 4.40292447219200E+0002
 21
 1.11874614362240E+0003
  0
LINE
  8
0
 10
 4.40292447219200E+0002
 20
 1.11874614362240E+0003
 11
 4.38161641893300E+0002
 21
 1.10748190261010E+0003
  0
LINE
  8
0
 10
 4.38161641893300E+0002
 20
 1.10748190261010E+0003
 11
 4.35907132981600E+0002
 21
 1.09634397325520E+0003
  0
LINE
  8
0
 10
 4.35907132981600E+0002
 20
 1.09634397325520E+0003
 11
 4.33532253537500E+0002
 21
 1.08532897463750E+0003
  0
LINE
  8
0
 10
 4.33532253537500E+0002
 20
 1.08532897463750E+0003
 11
 4.31040336614400E+0002
 21
 1.07443352583680E+0003
  0
LINE
  8
0
 10
 4.31040336614400E+0002
 20
 1.07443352583680E+0003
 11
 4.28434715265700E+0002
 21
 1.06365424593290E+0003
  0
LINE
  8
0
 10
 4.28434715265700E+0002
 20
 1.06365424593290E+0003
 11
 4.25718722544800E+0002
 21
 1.05298775400560E+0003
  0
LINE
  8
0
 10
 4.25718722544800E+0002
 20
 1.05298775400560E+0003
 11
 4.22895691505100E+0002
 21
 1.04243066913470E+0003
  0
LINE
  8
0
 10
 4.22895691505100E+0002
 20
 1.04243066913470E+0003
 11
 4.19968955200000E+0002
 21
 1.03197961040000E+0003
  0
LINE
  8
0
 10
 4.19968955200000E+0002
 20
 1.03197961040000E+0003
 11
 4.16941846682900E+0002
 21
 1.02163119688130E+0003
  0
LINE
  8
0
 10
 4.16941846682900E+0002
 20
 1.02163119688130E+0003
 11
 4.13817699007200E+0002
 21
 1.01138204765840E+0003
  0
LINE
  8
0
 10
 4.13817699007200E+0002
 20
 1.01138204765840E+0003
 11
 4.10599845226300E+0002
 21
 1.00122878181110E+0003
  0
LINE
  8
0
 10
 4.10599845226300E+0002
 20
 1.00122878181110E+0003
 11
 4.07291618393600E+0002
 21
 9.91168018419200E+0002
  0
LINE
  8
0
 10
 4.07291618393600E+0002
 20
 9.91168018419200E+0002
 11
 4.03896351562500E+0002
 21
 9.81196376562500E+0002
  0
LINE
  8
0
 10
 4.03896351562500E+0002
 20
 9.81196376562500E+0002
 11
 4.00417377786400E+0002
 21
 9.71310475320800E+0002
  0
LINE
  8
0
 10
 4.00417377786400E+0002
 20
 9.71310475320800E+0002
 11
 3.96858030118700E+0002
 21
 9.61506933773900E+0002
  0
LINE
  8
0
 10
 3.96858030118700E+0002
 20
 9.61506933773900E+0002
 11
 3.93221641612800E+0002
 21
 9.51782371001600E+0002
  0
LINE
  8
0
 10
 3.93221641612800E+0002
 20
 9.51782371001600E+0002
 11
 3.89511545322100E+0002
 21
 9.42133406083700E+0002
  0
LINE
  8
0
 10
 3.89511545322100E+0002
 20
 9.42133406083700E+0002
 11
 3.85731074300000E+0002
 21
 9.32556658100000E+0002
  0
LINE
  8
0
 10
 3.85731074300000E+0002
 20
 9.32556658100000E+0002
 11
 3.81883561599900E+0002
 21
 9.23048746130300E+0002
  0
LINE
  8
0
 10
 3.81883561599900E+0002
 20
 9.23048746130300E+0002
 11
 3.77972340275200E+0002
 21
 9.13606289254400E+0002
  0
LINE
  8
0
 10
 3.77972340275200E+0002
 20
 9.13606289254400E+0002
 11
 3.74000743379300E+0002
 21
 9.04225906552100E+0002
  0
LINE
  8
0
 10
 3.74000743379300E+0002
 20
 9.04225906552100E+0002
 11
 3.69972103965600E+0002
 21
 8.94904217103200E+0002
  0
LINE
  8
0
 10
 3.69972103965600E+0002
 20
 8.94904217103200E+0002
 11
 3.65889755087500E+0002
 21
 8.85637839987500E+0002
  0
LINE
  8
0
 10
 3.65889755087500E+0002
 20
 8.85637839987500E+0002
 11
 3.61757029798400E+0002
 21
 8.76423394284800E+0002
  0
LINE
  8
0
 10
 3.61757029798400E+0002
 20
 8.76423394284800E+0002
 11
 3.57577261151700E+0002
 21
 8.67257499074900E+0002
  0
LINE
  8
0
 10
 3.57577261151700E+0002
 20
 8.67257499074900E+0002
 11
 3.53353782200800E+0002
 21
 8.58136773437600E+0002
  0
LINE
  8
0
 10
 3.53353782200800E+0002
 20
 8.58136773437600E+0002
 11
 3.49089925999100E+0002
 21
 8.49057836452700E+0002
  0
LINE
  8
0
 10
 3.49089925999100E+0002
 20
 8.49057836452700E+0002
 11
 3.44789025600000E+0002
 21
 8.40017307200000E+0002
  0
LINE
  8
0
 10
 3.44789025600000E+0002
 20
 8.40017307200000E+0002
 11
 3.40454414056900E+0002
 21
 8.31011804759300E+0002
  0
LINE
  8
0
 10
 3.40454414056900E+0002
 20
 8.31011804759300E+0002
 11
 3.36089424423200E+0002
 21
 8.22037948210400E+0002
  0
LINE
  8
0
 10
 3.36089424423200E+0002
 20
 8.22037948210400E+0002
 11
 3.31697389752300E+0002
 21
 8.13092356633100E+0002
  0
LINE
  8
0
 10
 3.31697389752300E+0002
 20
 8.13092356633100E+0002
 11
 3.27281643097600E+0002
 21
 8.04171649107200E+0002
  0
LINE
  8
0
 10
 3.27281643097600E+0002
 20
 8.04171649107200E+0002
 11
 3.22845517512500E+0002
 21
 7.95272444712500E+0002
  0
LINE
  8
0
 10
 3.22845517512500E+0002
 20
 7.95272444712500E+0002
 11
 3.18392346050400E+0002
 21
 7.86391362528800E+0002
  0
LINE
  8
0
 10
 3.18392346050400E+0002
 20
 7.86391362528800E+0002
 11
 3.13925461764700E+0002
 21
 7.77525021635900E+0002
  0
LINE
  8
0
 10
 3.13925461764700E+0002
 20
 7.77525021635900E+0002
 11
 3.09448197708800E+0002
 21
 7.68670041113600E+0002
  0
LINE
  8
0
 10
 3.09448197708800E+0002
 20
 7.68670041113600E+0002
 11
 3.04963886936100E+0002
 21
 7.59823040041700E+0002
  0
LINE
  8
0
 10
 3.04963886936100E+0002
 20
 7.59823040041700E+0002
 11
 3.00475862500000E+0002
 21
 7.50980637500000E+0002
  0
LINE
  8
0
 10
 3.00475862500000E+0002
 20
 7.50980637500000E+0002
 11
 2.95987457453900E+0002
 21
 7.42139452568300E+0002
  0
LINE
  8
0
 10
 2.95987457453900E+0002
 20
 7.42139452568300E+0002
 11
 2.91502004851200E+0002
 21
 7.33296104326400E+0002
  0
LINE
  8
0
 10
 2.91502004851200E+0002
 20
 7.33296104326400E+0002
 11
 2.87022837745300E+0002
 21
 7.24447211854100E+0002
  0
LINE
  8
0
 10
 2.87022837745300E+0002
 20
 7.24447211854100E+0002
 11
 2.82553289189600E+0002
 21
 7.15589394231200E+0002
  0
LINE
  8
0
 10
 2.82553289189600E+0002
 20
 7.15589394231200E+0002
 11
 2.78096692237500E+0002
 21
 7.06719270537500E+0002
  0
LINE
  8
0
 10
 2.78096692237500E+0002
 20
 7.06719270537500E+0002
 11
 2.73656379942400E+0002
 21
 6.97833459852800E+0002
  0
LINE
  8
0
 10
 2.73656379942400E+0002
 20
 6.97833459852800E+0002
 11
 2.69235685357700E+0002
 21
 6.88928581256900E+0002
  0
LINE
  8
0
 10
 2.69235685357700E+0002
 20
 6.88928581256900E+0002
 11
 2.64837941536800E+0002
 21
 6.80001253829600E+0002
  0
LINE
  8
0
 10
 2.64837941536800E+0002
 20
 6.80001253829600E+0002
 11
 2.60466481533100E+0002
 21
 6.71048096650700E+0002
  0
LINE
  8
0
 10
 2.60466481533100E+0002
 20
 6.71048096650700E+0002
 11
 2.56124638400000E+0002
 21
 6.62065728800000E+0002
  0
LINE
  8
0
 10
 2.56124638400000E+0002
 20
 6.62065728800000E+0002
 11
 2.51815745190900E+0002
 21
 6.53050769357300E+0002
  0
LINE
  8
0
 10
 2.51815745190900E+0002
 20
 6.53050769357300E+0002
 11
 2.47543134959200E+0002
 21
 6.43999837402400E+0002
  0
LINE
  8
0
 10
 2.47543134959200E+0002
 20
 6.43999837402400E+0002
 11
 2.43310140758300E+0002
 21
 6.34909552015100E+0002
  0
LINE
  8
0
 10
 2.43310140758300E+0002
 20
 6.34909552015100E+0002
 11
 2.39120095641600E+0002
 21
 6.25776532275200E+0002
  0
LINE
  8
0
 10
 2.39120095641600E+0002
 20
 6.25776532275200E+0002
 11
 2.34976332662500E+0002
 21
 6.16597397262500E+0002
  0
LINE
  8
0
 10
 2.34976332662500E+0002
 20
 6.16597397262500E+0002
 11
 2.30882184874400E+0002
 21
 6.07368766056800E+0002
  0
LINE
  8
0
 10
 2.30882184874400E+0002
 20
 6.07368766056800E+0002
 11
 2.26840985330700E+0002
 21
 5.98087257737900E+0002
  0
LINE
  8
0
 10
 2.26840985330700E+0002
 20
 5.98087257737900E+0002
 11
 2.22856067084800E+0002
 21
 5.88749491385600E+0002
  0
LINE
  8
0
 10
 2.22856067084800E+0002
 20
 5.88749491385600E+0002
 11
 2.18930763190100E+0002
 21
 5.79352086079700E+0002
  0
LINE
  8
0
 10
 2.18930763190100E+0002
 20
 5.79352086079700E+0002
 11
 2.15068406700000E+0002
 21
 5.69891660900000E+0002
  0
LINE
  8
0
 10
 2.15068406700000E+0002
 20
 5.69891660900000E+0002
 11
 2.11272330667900E+0002
 21
 5.60364834926300E+0002
  0
LINE
  8
0
 10
 2.11272330667900E+0002
 20
 5.60364834926300E+0002
 11
 2.07545868147200E+0002
 21
 5.50768227238400E+0002
  0
LINE
  8
0
 10
 2.07545868147200E+0002
 20
 5.50768227238400E+0002
 11
 2.03892352191300E+0002
 21
 5.41098456916100E+0002
  0
LINE
  8
0
 10
 2.03892352191300E+0002
 20
 5.41098456916100E+0002
 11
 2.00315115853600E+0002
 21
 5.31352143039200E+0002
  0
LINE
  8
0
 10
 2.00315115853600E+0002
 20
 5.31352143039200E+0002
 11
 1.96817492187500E+0002
 21
 5.21525904687500E+0002
  0
LINE
  8
0
 10
 1.96817492187500E+0002
 20
 5.21525904687500E+0002
 11
 1.93402814246400E+0002
 21
 5.11616360940800E+0002
  0
LINE
  8
0
 10
 1.93402814246400E+0002
 20
 5.11616360940800E+0002
 11
 1.90074415083700E+0002
 21
 5.01620130878900E+0002
  0
LINE
  8
0
 10
 1.90074415083700E+0002
 20
 5.01620130878900E+0002
 11
 1.86835627752800E+0002
 21
 4.91533833581600E+0002
  0
LINE
  8
0
 10
 1.86835627752800E+0002
 20
 4.91533833581600E+0002
 11
 1.83689785307100E+0002
 21
 4.81354088128700E+0002
  0
LINE
  8
0
 10
 1.83689785307100E+0002
 20
 4.81354088128700E+0002
 11
 1.80640220800000E+0002
 21
 4.71077513600000E+0002
  0
LINE
  8
0
 10
 1.80640220800000E+0002
 20
 4.71077513600000E+0002
 11
 1.77690267284900E+0002
 21
 4.60700729075300E+0002
  0
LINE
  8
0
 10
 1.77690267284900E+0002
 20
 4.60700729075300E+0002
 11
 1.74843257815200E+0002
 21
 4.50220353634400E+0002
  0
LINE
  8
0
 10
 1.74843257815200E+0002
 20
 4.50220353634400E+0002
 11
 1.72102525444300E+0002
 21
 4.39633006357100E+0002
  0
LINE
  8
0
 10
 1.72102525444300E+0002
 20
 4.39633006357100E+0002
 11
 1.69471403225600E+0002
 21
 4.28935306323200E+0002
  0
LINE
  8
0
 10
 1.69471403225600E+0002
 20
 4.28935306323200E+0002
 11
 1.66953224212500E+0002
 21
 4.18123872612500E+0002
  0
LINE
  8
0
 10
 1.66953224212500E+0002
 20
 4.18123872612500E+0002
 11
 1.64551321458400E+0002
 21
 4.07195324304800E+0002
  0
LINE
  8
0
 10
 1.64551321458400E+0002
 20
 4.07195324304800E+0002
 11
 1.62269028016700E+0002
 21
 3.96146280479900E+0002
  0
LINE
  8
0
 10
 1.62269028016700E+0002
 20
 3.96146280479900E+0002
 11
 1.60109676940800E+0002
 21
 3.84973360217600E+0002
  0
LINE
  8
0
 10
 1.60109676940800E+0002
 20
 3.84973360217600E+0002
 11
 1.58076601284100E+0002
 21
 3.73673182597700E+0002
  0
LINE
  8
0
 10
 1.58076601284100E+0002
 20
 3.73673182597700E+0002
 11
 1.56173134100000E+0002
 21
 3.62242366700000E+0002
  0
LINE
  8
0
 10
 1.56173134100000E+0002
 20
 3.62242366700000E+0002
 11
 1.54402608441900E+0002
 21
 3.50677531604300E+0002
  0
LINE
  8
0
 10
 1.54402608441900E+0002
 20
 3.50677531604300E+0002
 11
 1.52768357363200E+0002
 21
 3.38975296390400E+0002
  0
LINE
  8
0
 10
 1.52768357363200E+0002
 20
 3.38975296390400E+0002
 11
 1.51273713917300E+0002
 21
 3.27132280138100E+0002
  0
LINE
  8
0
 10
 1.51273713917300E+0002
 20
 3.27132280138100E+0002
 11
 1.49922011157600E+0002
 21
 3.15145101927200E+0002
  0
LINE
  8
0
 10
 1.49922011157600E+0002
 20
 3.15145101927200E+0002
 11
 1.48716582137500E+0002
 21
 3.03010380837500E+0002
  0
LINE
  8
0
 10
 1.48716582137500E+0002
 20
 3.03010380837500E+0002
 11
 1.47660759910400E+0002
 21
 2.90724735948800E+0002
  0
LINE
  8
0
 10
 1.47660759910400E+0002
 20
 2.90724735948800E+0002
 11
 1.46757877529700E+0002
 21
 2.78284786340900E+0002
  0
LINE
  8
0
 10
 1.46757877529700E+0002
 20
 2.78284786340900E+0002
 11
 1.46011268048800E+0002
 21
 2.65687151093600E+0002
  0
LINE
  8
0
 10
 1.46011268048800E+0002
 20
 2.65687151093600E+0002
 11
 1.45424264521100E+0002
 21
 2.52928449286700E+0002
  0
LINE
  8
0
 10
 1.45424264521100E+0002
 20
 2.52928449286700E+0002
 11
 1.45000200000000E+0002
 21
 2.40005300000000E+0002
  0
LINE
  8
0
 10
 1.45000200000000E+0002
 20
 2.40005300000000E+0002
 11
 1.45000000000000E+0002
 21
 1.55000000000000E+0002
  0
LINE
  8
0
 10
 1.45000000000000E+0002
 20
 1.55000000000000E+0002
 11
 2.05000000000000E+0002
 21
 1.55000000000000E+0002
  0
LINE
  8
0
 10
 2.05000000000000E+0002
 20
 1.55000000000000E+0002
 11
 2.05000000000000E+0002
 21
 2.40005300000000E+0002
  0
LINE
  8
0
 10
 2.05000000000000E+0002
 20
 2.40005300000000E+0002
 11
 2.05424035505500E+0002
 21
 2.52928449294400E+0002
  0
LINE
  8
0
 10
 2.05424035505500E+0002
 20
 2.52928449294400E+0002
 11
 2.06011011964000E+0002
 21
 2.65687151155200E+0002
  0
LINE
  8
0
 10
 2.06011011964000E+0002
 20
 2.65687151155200E+0002
 11
 2.06757596288500E+0002
 21
 2.78284786548800E+0002
  0
LINE
  8
0
 10
 2.06757596288500E+0002
 20
 2.78284786548800E+0002
 11
 2.07660455392000E+0002
 21
 2.90724736441600E+0002
  0
LINE
  8
0
 10
 2.07660455392000E+0002
 20
 2.90724736441600E+0002
 11
 2.08716256187500E+0002
 21
 3.03010381800000E+0002
  0
LINE
  8
0
 10
 2.08716256187500E+0002
 20
 3.03010381800000E+0002
 11
 2.09921665588000E+0002
 21
 3.15145103590400E+0002
  0
LINE
  8
0
 10
 2.09921665588000E+0002
 20
 3.15145103590400E+0002
 11
 2.11273350506500E+0002
 21
 3.27132282779200E+0002
  0
LINE
  8
0
 10
 2.11273350506500E+0002
 20
 3.27132282779200E+0002
 11
 2.12767977856000E+0002
 21
 3.38975300332800E+0002
  0
LINE
  8
0
 10
 2.12767977856000E+0002
 20
 3.38975300332800E+0002
 11
 2.14402214549500E+0002
 21
 3.50677537217600E+0002
  0
LINE
  8
0
 10
 2.14402214549500E+0002
 20
 3.50677537217600E+0002
 11
 2.16172727500000E+0002
 21
 3.62242374400000E+0002
  0
LINE
  8
0
 10
 2.16172727500000E+0002
 20
 3.62242374400000E+0002
 11
 2.18076183620500E+0002
 21
 3.73673192846400E+0002
  0
LINE
  8
0
 10
 2.18076183620500E+0002
 20
 3.73673192846400E+0002
 11
 2.20109249824000E+0002
 21
 3.84973373523200E+0002
  0
LINE
  8
0
 10
 2.20109249824000E+0002
 20
 3.84973373523200E+0002
 11
 2.22268593023500E+0002
 21
 3.96146297396800E+0002
  0
LINE
  8
0
 10
 2.22268593023500E+0002
 20
 3.96146297396800E+0002
 11
 2.24550880132000E+0002
 21
 4.07195345433600E+0002
  0
LINE
  8
0
 10
 2.24550880132000E+0002
 20
 4.07195345433600E+0002
 11
 2.26952778062500E+0002
 21
 4.18123898600000E+0002
  0
LINE
  8
0
 10
 2.26952778062500E+0002
 20
 4.18123898600000E+0002
 11
 2.29470953728000E+0002
 21
 4.28935337862400E+0002
  0
LINE
  8
0
 10
 2.29470953728000E+0002
 20
 4.28935337862400E+0002
 11
 2.32102074041500E+0002
 21
 4.39633044187200E+0002
  0
LINE
  8
0
 10
 2.32102074041500E+0002
 20
 4.39633044187200E+0002
 11
 2.34842805916000E+0002
 21
 4.50220398540800E+0002
  0
LINE
  8
0
 10
 2.34842805916000E+0002
 20
 4.50220398540800E+0002
 11
 2.37689816264500E+0002
 21
 4.60700781889600E+0002
  0
LINE
  8
0
 10
 2.37689816264500E+0002
 20
 4.60700781889600E+0002
 11
 2.40639772000000E+0002
 21
 4.71077575200000E+0002
  0
LINE
  8
0
 10
 2.40639772000000E+0002
 20
 4.71077575200000E+0002
 11
 2.43689340035500E+0002
 21
 4.81354159438400E+0002
  0
LINE
  8
0
 10
 2.43689340035500E+0002
 20
 4.81354159438400E+0002
 11
 2.46835187284000E+0002
 21
 4.91533915571200E+0002
  0
LINE
  8
0
 10
 2.46835187284000E+0002
 20
 4.91533915571200E+0002
 11
 2.50073980658500E+0002
 21
 5.01620224564800E+0002
  0
LINE
  8
0
 10
 2.50073980658500E+0002
 20
 5.01620224564800E+0002
 11
 2.53402387072000E+0002
 21
 5.11616467385600E+0002
  0
LINE
  8
0
 10
 2.53402387072000E+0002
 20
 5.11616467385600E+0002
 11
 2.56817073437500E+0002
 21
 5.21526025000000E+0002
  0
LINE
  8
0
 10
 2.56817073437500E+0002
 20
 5.21526025000000E+0002
 11
 2.60314706668000E+0002
 21
 5.31352278374400E+0002
  0
LINE
  8
0
 10
 2.60314706668000E+0002
 20
 5.31352278374400E+0002
 11
 2.63891953676500E+0002
 21
 5.41098608475200E+0002
  0
LINE
  8
0
 10
 2.63891953676500E+0002
 20
 5.41098608475200E+0002
 11
 2.67545481376000E+0002
 21
 5.50768396268800E+0002
  0
LINE
  8
0
 10
 2.67545481376000E+0002
 20
 5.50768396268800E+0002
 11
 2.71271956679500E+0002
 21
 5.60365022721600E+0002
  0
LINE
  8
0
 10
 2.71271956679500E+0002
 20
 5.60365022721600E+0002
 11
 2.75068046500000E+0002
 21
 5.69891868800000E+0002
  0
LINE
  8
0
 10
 2.75068046500000E+0002
 20
 5.69891868800000E+0002
 11
 2.78930417750500E+0002
 21
 5.79352315470400E+0002
  0
LINE
  8
0
 10
 2.78930417750500E+0002
 20
 5.79352315470400E+0002
 11
 2.82855737344000E+0002
 21
 5.88749743699200E+0002
  0
LINE
  8
0
 10
 2.82855737344000E+0002
 20
 5.88749743699200E+0002
 11
 2.86840672193500E+0002
 21
 5.98087534452800E+0002
  0
LINE
  8
0
 10
 2.86840672193500E+0002
 20
 5.98087534452800E+0002
 11
 2.90881889212000E+0002
 21
 6.07369068697600E+0002
  0
LINE
  8
0
 10
 2.90881889212000E+0002
 20
 6.07369068697600E+0002
 11
 2.94976055312500E+0002
 21
 6.16597727400000E+0002
  0
LINE
  8
0
 10
 2.94976055312500E+0002
 20
 6.16597727400000E+0002
 11
 2.99119837408000E+0002
 21
 6.25776891526400E+0002
  0
LINE
  8
0
 10
 2.99119837408000E+0002
 20
 6.25776891526400E+0002
 11
 3.03309902411500E+0002
 21
 6.34909942043200E+0002
  0
LINE
  8
0
 10
 3.03309902411500E+0002
 20
 6.34909942043200E+0002
 11
 3.07542917236000E+0002
 21
 6.44000259916800E+0002
  0
LINE
  8
0
 10
 3.07542917236000E+0002
 20
 6.44000259916800E+0002
 11
 3.11815548794500E+0002
 21
 6.53051226113600E+0002
  0
LINE
  8
0
 10
 3.11815548794500E+0002
 20
 6.53051226113600E+0002
 11
 3.16124464000000E+0002
 21
 6.62066221600000E+0002
  0
LINE
  8
0
 10
 3.16124464000000E+0002
 20
 6.62066221600000E+0002
 11
 3.20466329765500E+0002
 21
 6.71048627342400E+0002
  0
LINE
  8
0
 10
 3.20466329765500E+0002
 20
 6.71048627342400E+0002
 11
 3.24837813004000E+0002
 21
 6.80001824307200E+0002
  0
LINE
  8
0
 10
 3.24837813004000E+0002
 20
 6.80001824307200E+0002
 11
 3.29235580628500E+0002
 21
 6.88929193460800E+0002
  0
LINE
  8
0
 10
 3.29235580628500E+0002
 20
 6.88929193460800E+0002
 11
 3.33656299552000E+0002
 21
 6.97834115769600E+0002
  0
LINE
  8
0
 10
 3.33656299552000E+0002
 20
 6.97834115769600E+0002
 11
 3.38096636687500E+0002
 21
 7.06719972200000E+0002
  0
LINE
  8
0
 10
 3.38096636687500E+0002
 20
 7.06719972200000E+0002
 11
 3.42553258948000E+0002
 21
 7.15590143718400E+0002
  0
LINE
  8
0
 10
 3.42553258948000E+0002
 20
 7.15590143718400E+0002
 11
 3.47022833246500E+0002
 21
 7.24448011291200E+0002
  0
LINE
  8
0
 10
 3.47022833246500E+0002
 20
 7.24448011291200E+0002
 11
 3.51502026496000E+0002
 21
 7.33296955884800E+0002
  0
LINE
  8
0
 10
 3.51502026496000E+0002
 20
 7.33296955884800E+0002
 11
 3.55987505609500E+0002
 21
 7.42140358465600E+0002
  0
LINE
  8
0
 10
 3.55987505609500E+0002
 20
 7.42140358465600E+0002
 11
 3.60475937500000E+0002
 21
 7.50981600000000E+0002
  0
LINE
  8
0
 10
 3.60475937500000E+0002
 20
 7.50981600000000E+0002
 11
 3.64963989080500E+0002
 21
 7.59824061454400E+0002
  0
LINE
  8
0
 10
 3.64963989080500E+0002
 20
 7.59824061454400E+0002
 11
 3.69448327264000E+0002
 21
 7.68671123795200E+0002
  0
LINE
  8
0
 10
 3.69448327264000E+0002
 20
 7.68671123795200E+0002
 11
 3.73925618963500E+0002
 21
 7.77526167988800E+0002
  0
LINE
  8
0
 10
 3.73925618963500E+0002
 20
 7.77526167988800E+0002
 11
 3.78392531092000E+0002
 21
 7.86392575001600E+0002
  0
LINE
  8
0
 10
 3.78392531092000E+0002
 20
 7.86392575001600E+0002
 11
 3.82845730562500E+0002
 21
 7.95273725800000E+0002
  0
LINE
  8
0
 10
 3.82845730562500E+0002
 20
 7.95273725800000E+0002
 11
 3.87281884288000E+0002
 21
 8.04173001350400E+0002
  0
LINE
  8
0
 10
 3.87281884288000E+0002
 20
 8.04173001350400E+0002
 11
 3.91697659181500E+0002
 21
 8.13093782619200E+0002
  0
LINE
  8
0
 10
 3.91697659181500E+0002
 20
 8.13093782619200E+0002
 11
 3.96089722156000E+0002
 21
 8.22039450572800E+0002
  0
LINE
  8
0
 10
 3.96089722156000E+0002
 20
 8.22039450572800E+0002
 11
 4.00454740124500E+0002
 21
 8.31013386177600E+0002
  0
LINE
  8
0
 10
 4.00454740124500E+0002
 20
 8.31013386177600E+0002
 11
 4.04789380000000E+0002
 21
 8.40018970400000E+0002
  0
LINE
  8
0
 10
 4.04789380000000E+0002
 20
 8.40018970400000E+0002
 11
 4.09090308695500E+0002
 21
 8.49059584206400E+0002
  0
LINE
  8
0
 10
 4.09090308695500E+0002
 20
 8.49059584206400E+0002
 11
 4.13354193124000E+0002
 21
 8.58138608563200E+0002
  0
LINE
  8
0
 10
 4.13354193124000E+0002
 20
 8.58138608563200E+0002
 11
 4.17577700198500E+0002
 21
 8.67259424436800E+0002
  0
LINE
  8
0
 10
 4.17577700198500E+0002
 20
 8.67259424436800E+0002
 11
 4.21757496832000E+0002
 21
 8.76425412793600E+0002
  0
LINE
  8
0
 10
 4.21757496832000E+0002
 20
 8.76425412793600E+0002
 11
 4.25890249937500E+0002
 21
 8.85639954600000E+0002
  0
LINE
  8
0
 10
 4.25890249937500E+0002
 20
 8.85639954600000E+0002
 11
 4.29972626428000E+0002
 21
 8.94906430822400E+0002
  0
LINE
  8
0
 10
 4.29972626428000E+0002
 20
 8.94906430822400E+0002
 11
 4.34001293216500E+0002
 21
 9.04228222427200E+0002
  0
LINE
  8
0
 10
 4.34001293216500E+0002
 20
 9.04228222427200E+0002
 11
 4.37972917216000E+0002
 21
 9.13608710380800E+0002
  0
LINE
  8
0
 10
 4.37972917216000E+0002
 20
 9.13608710380800E+0002
 11
 4.41884165339500E+0002
 21
 9.23051275649600E+0002
  0
LINE
  8
0
 10
 4.41884165339500E+0002
 20
 9.23051275649600E+0002
 11
 4.45731704500000E+0002
 21
 9.32559299200000E+0002
  0
LINE
  8
0
 10
 4.45731704500000E+0002
 20
 9.32559299200000E+0002
 11
 4.49512201610500E+0002
 21
 9.42136161998400E+0002
  0
LINE
  8
0
 10
 4.49512201610500E+0002
 20
 9.42136161998400E+0002
 11
 4.53222323584000E+0002
 21
 9.51785245011200E+0002
  0
LINE
  8
0
 10
 4.53222323584000E+0002
 20
 9.51785245011200E+0002
 11
 4.56858737333500E+0002
 21
 9.61509929204800E+0002
  0
LINE
  8
0
 10
 4.56858737333500E+0002
 20
 9.61509929204800E+0002
 11
 4.60418109772000E+0002
 21
 9.71313595545600E+0002
  0
LINE
  8
0
 10
 4.60418109772000E+0002
 20
 9.71313595545600E+0002
 11
 4.63897107812500E+0002
 21
 9.81199625000000E+0002
  0
LINE
  8
0
 10
 4.63897107812500E+0002
 20
 9.81199625000000E+0002
 11
 4.67292398368000E+0002
 21
 9.91171398534400E+0002
  0
LINE
  8
0
 10
 4.67292398368000E+0002
 20
 9.91171398534400E+0002
 11
 4.70600648351500E+0002
 21
 1.00123229711520E+0003
  0
LINE
  8
0
 10
 4.70600648351500E+0002
 20
 1.00123229711520E+0003
 11
 4.73818524676000E+0002
 21
 1.01138570170880E+0003
  0
LINE
  8
0
 10
 4.73818524676000E+0002
 20
 1.01138570170880E+0003
 11
 4.76942694254500E+0002
 21
 1.02163499328160E+0003
  0
LINE
  8
0
 10
 4.76942694254500E+0002
 20
 1.02163499328160E+0003
 11
 4.79969824000000E+0002
 21
 1.03198355280000E+0003
  0
LINE
  8
0
 10
 4.79969824000000E+0002
 20
 1.03198355280000E+0003
 11
 4.82896580825500E+0002
 21
 1.04243476123040E+0003
  0
LINE
  8
0
 10
 4.82896580825500E+0002
 20
 1.04243476123040E+0003
 11
 4.85719631644000E+0002
 21
 1.05299199953920E+0003
  0
LINE
  8
0
 10
 4.85719631644000E+0002
 20
 1.05299199953920E+0003
 11
 4.88435643368500E+0002
 21
 1.06365864869280E+0003
  0
LINE
  8
0
 10
 4.88435643368500E+0002
 20
 1.06365864869280E+0003
 11
 4.91041282912000E+0002
 21
 1.07443808965760E+0003
  0
LINE
  8
0
 10
 4.91041282912000E+0002
 20
 1.07443808965760E+0003
 11
 4.93533217187500E+0002
 21
 1.08533370340000E+0003
  0
LINE
  8
0
 10
 4.93533217187500E+0002
 20
 1.08533370340000E+0003
 11
 4.95908113108000E+0002
 21
 1.09634887088640E+0003
  0
LINE
  8
0
 10
 4.95908113108000E+0002
 20
 1.09634887088640E+0003
 11
 4.98162637586500E+0002
 21
 1.10748697308320E+0003
  0
LINE
  8
0
 10
 4.98162637586500E+0002
 20
 1.10748697308320E+0003
 11
 5.00293457536000E+0002
 21
 1.11875139095680E+0003
  0
LINE
  8
0
 10
 5.00293457536000E+0002
 20
 1.11875139095680E+0003
 11
 5.02297239869500E+0002
 21
 1.13014550547360E+0003
  0
LINE
  8
0
 10
 5.02297239869500E+0002
 20
 1.13014550547360E+0003
 11
 5.04170651500000E+0002
 21
 1.14167269760000E+0003
  0
LINE
  8
0
 10
 5.04170651500000E+0002
 20
 1.14167269760000E+0003
 11
 5.05910359340500E+0002
 21
 1.15333634830240E+0003
  0
LINE
  8
0
 10
 5.05910359340500E+0002
 20
 1.15333634830240E+0003
 11
 5.07513030304000E+0002
 21
 1.16513983854720E+0003
  0
LINE
  8
0
 10
 5.07513030304000E+0002
 20
 1.16513983854720E+0003
 11
 5.08975331303500E+0002
 21
 1.17708654930080E+0003
  0
LINE
  8
0
 10
 5.08975331303500E+0002
 20
 1.17708654930080E+0003
 11
 5.10293929252000E+0002
 21
 1.18917986152960E+0003
  0
LINE
  8
0
 10
 5.10293929252000E+0002
 20
 1.18917986152960E+0003
 11
 5.11465491062500E+0002
 21
 1.20142315620000E+0003
  0
LINE
  8
0
 10
 5.11465491062500E+0002
 20
 1.20142315620000E+0003
 11
 5.12486683648000E+0002
 21
 1.21381981427840E+0003
  0
LINE
  8
0
 10
 5.12486683648000E+0002
 20
 1.21381981427840E+0003
 11
 5.13354173921500E+0002
 21
 1.22637321673120E+0003
  0
LINE
  8
0
 10
 5.13354173921500E+0002
 20
 1.22637321673120E+0003
 11
 5.14064628796000E+0002
 21
 1.23908674452480E+0003
  0
LINE
  8
0
 10
 5.14064628796000E+0002
 20
 1.23908674452480E+0003
 11
 5.14614715184500E+0002
 21
 1.25196377862560E+0003
  0
LINE
  8
0
 10
 5.14614715184500E+0002
 20
 1.25196377862560E+0003
 11
 5.15001100000000E+0002
 21
 1.26500770000000E+0003
  0
LINE
  8
0
 10
 5.15001100000000E+0002
 20
 1.26500770000000E+0003
 11
 5.15000000000000E+0002
 21
 1.30700000000000E+0003
  0
LINE
  8
0
 10
 5.15000000000000E+0002
 20
 1.30700000000000E+0003
 11
 5.60000509446390E+0002
 21
 1.29538091843480E+0003
  0
ARC
  8
0
 10
 5.63000000000000E+0002
 20
 1.30700000000000E+0003
 40
 1.20000000000000E+0001
 50
 2.55525000000000E+0002
 51
 3.93805000000000E+0002
  0
LINE
  8
0
 10
 5.72971231041916E+0002
 20
 1.31367641756549E+0003
 11
 4.85000000000000E+0002
 21
 1.44500000000000E+0003
  0
LINE
  8
0
 10
 4.85000000000000E+0002
 20
 1.44500000000000E+0003
 11
 3.97028768958084E+0002
 21
 1.31367641756549E+0003
  0
ARC
  8
0
 10
 4.07000000000000E+0002
 20
 1.30700000000000E+0003
 40
 1.20000000000000E+0001
 50
 1.46195000000000E+0002
 51
 2.84475000000000E+0002
  0
LINE
  8
0
 10
 4.09999490553610E+0002
 20
 1.29538091843480E+0003
 11
 4.55000000000000E+0002
 21
 1.30700000000000E+0003
  0
LINE
  8
0
 10
 4.55000000000000E+0002
 20
 1.30700000000000E+0003
 11
 4.55000000000000E+0002
 21
 1.26500000000000E+0003
  0
LINE
  8
0
 10
 6.65000000000000E+0002
 20
 1.26500000000000E+0003
 11
 6.64613615868900E+0002
 21
 1.25195630732330E+0003
  0
LINE
  8
0
 10
 6.64613615868900E+0002
 20
 1.25195630732330E+0003
 11
 6.64063531511200E+0002
 21
 1.23907949734640E+0003
  0
LINE
  8
0
 10
 6.64063531511200E+0002
 20
 1.23907949734640E+0003
 11
 6.63353079980300E+0002
 21
 1.22636618914910E+0003
  0
LINE
  8
0
 10
 6.63353079980300E+0002
 20
 1.22636618914910E+0003
 11
 6.62485594329600E+0002
 21
 1.21381300181120E+0003
  0
LINE
  8
0
 10
 6.62485594329600E+0002
 20
 1.21381300181120E+0003
 11
 6.61464407612500E+0002
 21
 1.20141655441250E+0003
  0
LINE
  8
0
 10
 6.61464407612500E+0002
 20
 1.20141655441250E+0003
 11
 6.60292852882400E+0002
 21
 1.18917346603280E+0003
  0
LINE
  8
0
 10
 6.60292852882400E+0002
 20
 1.18917346603280E+0003
 11
 6.58974263192700E+0002
 21
 1.17708035575190E+0003
  0
LINE
  8
0
 10
 6.58974263192700E+0002
 20
 1.17708035575190E+0003
 11
 6.57511971596800E+0002
 21
 1.16513384264960E+0003
  0
LINE
  8
0
 10
 6.57511971596800E+0002
 20
 1.16513384264960E+0003
 11
 6.55909311148100E+0002
 21
 1.15333054580570E+0003
  0
LINE
  8
0
 10
 6.55909311148100E+0002
 20
 1.15333054580570E+0003
 11
 6.54169614900000E+0002
 21
 1.14166708430000E+0003
  0
LINE
  8
0
 10
 6.54169614900000E+0002
 20
 1.14166708430000E+0003
 11
 6.52296215905900E+0002
 21
 1.13014007721230E+0003
  0
LINE
  8
0
 10
 6.52296215905900E+0002
 20
 1.13014007721230E+0003
 11
 6.50292447219200E+0002
 21
 1.11874614362240E+0003
  0
LINE
  8
0
 10
 6.50292447219200E+0002
 20
 1.11874614362240E+0003
 11
 6.48161641893300E+0002
 21
 1.10748190261010E+0003
  0
LINE
  8
0
 10
 6.48161641893300E+0002
 20
 1.10748190261010E+0003
 11
 6.45907132981600E+0002
 21
 1.09634397325520E+0003
  0
LINE
  8
0
 10
 6.45907132981600E+0002
 20
 1.09634397325520E+0003
 11
 6.43532253537500E+0002
 21
 1.08532897463750E+0003
  0
LINE
  8
0
 10
 6.43532253537500E+0002
 20
 1.08532897463750E+0003
 11
 6.41040336614400E+0002
 21
 1.07443352583680E+0003
  0
LINE
  8
0
 10
 6.41040336614400E+0002
 20
 1.07443352583680E+0003
 11
 6.38434715265700E+0002
 21
 1.06365424593290E+0003
  0
LINE
  8
0
 10
 6.38434715265700E+0002
 20
 1.06365424593290E+0003
 11
 6.35718722544800E+0002
 21
 1.05298775400560E+0003
  0
LINE
  8
0
 10
 6.35718722544800E+0002
 20
 1.05298775400560E+0003
 11
 6.32895691505100E+0002
 21
 1.04243066913470E+0003
  0
LINE
  8
0
 10
 6.32895691505100E+0002
 20
 1.04243066913470E+0003
 11
 6.29968955200000E+0002
 21
 1.03197961040000E+0003
  0
LINE
  8
0
 10
 6.29968955200000E+0002
 20
 1.03197961040000E+0003
 11
 6.26941846682900E+0002
 21
 1.02163119688130E+0003
  0
LINE
  8
0
 10
 6.26941846682900E+0002
 20
 1.02163119688130E+0003
 11
 6.23817699007200E+0002
 21
 1.01138204765840E+0003
  0
LINE
  8
0
 10
 6.23817699007200E+0002
 20
 1.01138204765840E+0003
 11
 6.20599845226300E+0002
 21
 1.00122878181110E+0003
  0
LINE
  8
0
 10
 6.20599845226300E+0002
 20
 1.00122878181110E+0003
 11
 6.17291618393600E+0002
 21
 9.91168018419200E+0002
  0
LINE
  8
0
 10
 6.17291618393600E+0002
 20
 9.91168018419200E+0002
 11
 6.13896351562500E+0002
 21
 9.81196376562500E+0002
  0
LINE
  8
0
 10
 6.13896351562500E+0002
 20
 9.81196376562500E+0002
 11
 6.10417377786400E+0002
 21
 9.71310475320800E+0002
  0
LINE
  8
0
 10
 6.10417377786400E+0002
 20
 9.71310475320800E+0002
 11
 6.06858030118700E+0002
 21
 9.61506933773900E+0002
  0
LINE
  8
0
 10
 6.06858030118700E+0002
 20
 9.61506933773900E+0002
 11
 6.03221641612800E+0002
 21
 9.51782371001600E+0002
  0
LINE
  8
0
 10
 6.03221641612800E+0002
 20
 9.51782371001600E+0002
 11
 5.99511545322100E+0002
 21
 9.42133406083700E+0002
  0
LINE
  8
0
 10
 5.99511545322100E+0002
 20
 9.42133406083700E+0002
 11
 5.95731074300000E+0002
 21
 9.32556658100000E+0002
  0
LINE
  8
0
 10
 5.95731074300000E+0002
 20
 9.32556658100000E+0002
 11
 5.91883561599900E+0002
 21
 9.23048746130300E+0002
  0
LINE
  8
0
 10
 5.91883561599900E+0002
 20
 9.23048746130300E+0002
 11
 5.87972340275200E+0002
 21
 9.13606289254400E+0002
  0
LINE
  8
0
 10
 5.87972340275200E+0002
 20
 9.13606289254400E+0002
 11
 5.84000743379300E+0002
 21
 9.04225906552100E+0002
  0
LINE
  8
0
 10
 5.84000743379300E+0002
 20
 9.04225906552100E+0002
 11
 5.79972103965600E+0002
 21
 8.94904217103200E+0002
  0
LINE
  8
0
 10
 5.79972103965600E+0002
 20
 8.94904217103200E+0002
 11
 5.75889755087500E+0002
 21
 8.85637839987500E+0002
  0
LINE
  8
0
 10
 5.75889755087500E+0002
 20
 8.85637839987500E+0002
 11
 5.71757029798400E+0002
 21
 8.76423394284800E+0002
  0
LINE
  8
0
 10
 5.71757029798400E+0002
 20
 8.76423394284800E+0002
 11
 5.67577261151700E+0002
 21
 8.67257499074900E+0002
  0
LINE
  8
0
 10
 5.67577261151700E+0002
 20
 8.67257499074900E+0002
 11
 5.63353782200800E+0002
 21
 8.58136773437600E+0002
  0
LINE
  8
0
 10
 5.63353782200800E+0002
 20
 8.58136773437600E+0002
 11
 5.59089925999100E+0002
 21
 8.49057836452700E+0002
  0
LINE
  8
0
 10
 5.59089925999100E+0002
 20
 8.49057836452700E+0002
 11
 5.54789025600000E+0002
 21
 8.40017307200000E+0002
  0
LINE
  8
0
 10
 5.54789025600000E+0002
 20
 8.40017307200000E+0002
 11
 5.50454414056900E+0002
 21
 8.31011804759300E+0002
  0
LINE
  8
0
 10
 5.50454414056900E+0002
 20
 8.31011804759300E+0002
 11
 5.46089424423200E+0002
 21
 8.22037948210400E+0002
  0
LINE
  8
0
 10
 5.46089424423200E+0002
 20
 8.22037948210400E+0002
 11
 5.41697389752300E+0002
 21
 8.13092356633100E+0002
  0
LINE
  8
0
 10
 5.41697389752300E+0002
 20
 8.13092356633100E+0002
 11
 5.37281643097600E+0002
 21
 8.04171649107200E+0002
  0
LINE
  8
0
 10
 5.37281643097600E+0002
 20
 8.04171649107200E+0002
 11
 5.32845517512500E+0002
 21
 7.95272444712500E+0002
  0
LINE
  8
0
 10
 5.32845517512500E+0002
 20
 7.95272444712500E+0002
 11
 5.28392346050400E+0002
 21
 7.86391362528800E+0002
  0
LINE
  8
0
 10
 5.28392346050400E+0002
 20
 7.86391362528800E+0002
 11
 5.23925461764700E+0002
 21
 7.77525021635900E+0002
  0
LINE
  8
0
 10
 5.23925461764700E+0002
 20
 7.77525021635900E+0002
 11
 5.19448197708800E+0002
 21
 7.68670041113600E+0002
  0
LINE
  8
0
 10
 5.19448197708800E+0002
 20
 7.68670041113600E+0002
 11
 5.14963886936100E+0002
 21
 7.59823040041700E+0002
  0
LINE
  8
0
 10
 5.14963886936100E+0002
 20
 7.59823040041700E+0002
 11
 5.10475862500000E+0002
 21
 7.50980637500000E+0002
  0
LINE
  8
0
 10
 5.10475862500000E+0002
 20
 7.50980637500000E+0002
 11
 5.05987457453900E+0002
 21
 7.42139452568300E+0002
  0
LINE
  8
0
 10
 5.05987457453900E+0002
 20
 7.42139452568300E+0002
 11
 5.01502004851200E+0002
 21
 7.33296104326400E+0002
  0
LINE
  8
0
 10
 5.01502004851200E+0002
 20
 7.33296104326400E+0002
 11
 4.97022837745300E+0002
 21
 7.24447211854100E+0002
  0
LINE
  8
0
 10
 4.97022837745300E+0002
 20
 7.24447211854100E+0002
 11
 4.92553289189600E+0002
 21
 7.15589394231200E+0002
  0
LINE
  8
0
 10
 4.92553289189600E+0002
 20
 7.15589394231200E+0002
 11
 4.88096692237500E+0002
 21
 7.06719270537500E+0002
  0
LINE
  8
0
 10
 4.88096692237500E+0002
 20
 7.06719270537500E+0002
 11
 4.83656379942400E+0002
 21
 6.97833459852800E+0002
  0
LINE
  8
0
 10
 4.83656379942400E+0002
 20
 6.97833459852800E+0002
 11
 4.79235685357700E+0002
 21
 6.88928581256900E+0002
  0
LINE
  8
0
 10
 4.79235685357700E+0002
 20
 6.88928581256900E+0002
 11
 4.74837941536800E+0002
 21
 6.80001253829600E+0002
  0
LINE
  8
0
 10
 4.74837941536800E+0002
 20
 6.80001253829600E+0002
 11
 4.70466481533100E+0002
 21
 6.71048096650700E+0002
  0
LINE
  8
0
 10
 4.70466481533100E+0002
 20
 6.71048096650700E+0002
 11
 4.66124638400000E+0002
 21
 6.62065728800000E+0002
  0
LINE
  8
0
 10
 4.66124638400000E+0002
 20
 6.62065728800000E+0002
 11
 4.61815745190900E+0002
 21
 6.53050769357300E+0002
  0
LINE
  8
0
 10
 4.61815745190900E+0002
 20
 6.53050769357300E+0002
 11
 4.57543134959200E+0002
 21
 6.43999837402400E+0002
  0
LINE
  8
0
 10
 4.57543134959200E+0002
 20
 6.43999837402400E+0002
 11
 4.53310140758300E+0002
 21
 6.34909552015100E+0002
  0
LINE
  8
0
 10
 4.53310140758300E+0002
 20
 6.34909552015100E+0002
 11
 4.49120095641600E+0002
 21
 6.25776532275200E+0002
  0
LINE
  8
0
 10
 4.49120095641600E+0002
 20
 6.25776532275200E+0002
 11
 4.44976332662500E+0002
 21
 6.16597397262500E+0002
  0
LINE
  8
0
 10
 4.44976332662500E+0002
 20
 6.16597397262500E+0002
 11
 4.40882184874400E+0002
 21
 6.07368766056800E+0002
  0
LINE
  8
0
 10
 4.40882184874400E+0002
 20
 6.07368766056800E+0002
 11
 4.36840985330700E+0002
 21
 5.98087257737900E+0002
  0
LINE
  8
0
 10
 4.36840985330700E+0002
 20
 5.98087257737900E+0002
 11
 4.32856067084800E+0002
 21
 5.88749491385600E+0002
  0
LINE
  8
0
 10
 4.32856067084800E+0002
 20
 5.88749491385600E+0002
 11
 4.28930763190100E+0002
 21
 5.79352086079700E+0002
  0
LINE
  8
0
 10
 4.28930763190100E+0002
 20
 5.79352086079700E+0002
 11
 4.25068406700000E+0002
 21
 5.69891660900000E+0002
  0
LINE
  8
0
 10
 4.25068406700000E+0002
 20
 5.69891660900000E+0002
 11
 4.21272330667900E+0002
 21
 5.60364834926300E+0002
  0
LINE
  8
0
 10
 4.21272330667900E+0002
 20
 5.60364834926300E+0002
 11
 4.17545868147200E+0002
 21
 5.50768227238400E+0002
  0
LINE
  8
0
 10
 4.17545868147200E+0002
 20
 5.50768227238400E+0002
 11
 4.13892352191300E+0002
 21
 5.41098456916100E+0002
  0
LINE
  8
0
 10
 4.13892352191300E+0002
 20
 5.41098456916100E+0002
 11
 4.10315115853600E+0002
 21
 5.31352143039200E+0002
  0
LINE
  8
0
 10
 4.10315115853600E+0002
 20
 5.31352143039200E+0002
 11
 4.06817492187500E+0002
 21
 5.21525904687500E+0002
  0
LINE
  8
0
 10
 4.06817492187500E+0002
 20
 5.21525904687500E+0002
 11
 4.03402814246400E+0002
 21
 5.11616360940800E+0002
  0
LINE
  8
0
 10
 4.03402814246400E+0002
 20
 5.11616360940800E+0002
 11
 4.00074415083700E+0002
 21
 5.01620130878900E+0002
  0
LINE
  8
0
 10
 4.00074415083700E+0002
 20
 5.01620130878900E+0002
 11
 3.96835627752800E+0002
 21
 4.91533833581600E+0002
  0
LINE
  8
0
 10
 3.96835627752800E+0002
 20
 4.91533833581600E+0002
 11
 3.93689785307100E+0002
 21
 4.81354088128700E+0002
  0
LINE
  8
0
 10
 3.93689785307100E+0002
 20
 4.81354088128700E+0002
 11
 3.90640220800000E+0002
 21
 4.71077513600000E+0002
  0
LINE
  8
0
 10
 3.90640220800000E+0002
 20
 4.71077513600000E+0002
 11
 3.87690267284900E+0002
 21
 4.60700729075300E+0002
  0
LINE
  8
0
 10
 3.87690267284900E+0002
 20
 4.60700729075300E+0002
 11
 3.84843257815200E+0002
 21
 4.50220353634400E+0002
  0
LINE
  8
0
 10
 3.84843257815200E+0002
 20
 4.50220353634400E+0002
 11
 3.82102525444300E+0002
 21
 4.39633006357100E+0002
  0
LINE
  8
0
 10
 3.82102525444300E+0002
 20
 4.39633006357100E+0002
 11
 3.79471403225600E+0002
 21
 4.28935306323200E+0002
  0
LINE
  8
0
 10
 3.79471403225600E+0002
 20
 4.28935306323200E+0002
 11
 3.76953224212500E+0002
 21
 4.18123872612500E+0002
  0
LINE
  8
0
 10
 3.76953224212500E+0002
 20
 4.18123872612500E+0002
 11
 3.74551321458400E+0002
 21
 4.07195324304800E+0002
  0
LINE
  8
0
 10
 3.74551321458400E+0002
 20
 4.07195324304800E+0002
 11
 3.72269028016700E+0002
 21
 3.96146280479900E+0002
  0
LINE
  8
0
 10
 3.72269028016700E+0002
 20
 3.96146280479900E+0002
 11
 3.70109676940800E+0002
 21
 3.84973360217600E+0002
  0
LINE
  8
0
 10
 3.70109676940800E+0002
 20
 3.84973360217600E+0002
 11
 3.68076601284100E+0002
 21
 3.73673182597700E+0002
  0
LINE
  8
0
 10
 3.68076601284100E+0002
 20
 3.73673182597700E+0002
 11
 3.66173134100000E+0002
 21
 3.62242366700000E+0002
  0
LINE
  8
0
 10
 3.66173134100000E+0002
 20
 3.62242366700000E+0002
 11
 3.64402608441900E+0002
 21
 3.50677531604300E+0002
  0
LINE
  8
0
 10
 3.64402608441900E+0002
 20
 3.50677531604300E+0002
 11
 3.62768357363200E+0002
 21
 3.38975296390400E+0002
  0
LINE
  8
0
 10
 3.62768357363200E+0002
 20
 3.38975296390400E+0002
 11
 3.61273713917300E+0002
 21
 3.27132280138100E+0002
  0
LINE
  8
0
 10
 3.61273713917300E+0002
 20
 3.27132280138100E+0002
 11
 3.59922011157600E+0002
 21
 3.15145101927200E+0002
  0
LINE
  8
0
 10
 3.59922011157600E+0002
 20
 3.15145101927200E+0002
 11
 3.58716582137500E+0002
 21
 3.03010380837500E+0002
  0
LINE
  8
0
 10
 3.58716582137500E+0002
 20
 3.03010380837500E+0002
 11
 3.57660759910400E+0002
 21
 2.90724735948800E+0002
  0
LINE
  8
0
 10
 3.57660759910400E+0002
 20
 2.90724735948800E+0002
 11
 3.56757877529700E+0002
 21
 2.78284786340900E+0002
  0
LINE
  8
0
 10
 3.56757877529700E+0002
 20
 2.78284786340900E+0002
 11
 3.56011268048800E+0002
 21
 2.65687151093600E+0002
  0
LINE
  8
0
 10
 3.56011268048800E+0002
 20
 2.65687151093600E+0002
 11
 3.55424264521100E+0002
 21
 2.52928449286700E+0002
  0
LINE
  8
0
 10
 3.55424264521100E+0002
 20
 2.52928449286700E+0002
 11
 3.55000200000000E+0002
 21
 2.40005300000000E+0002
  0
LINE
  8
0
 10
 3.55000200000000E+0002
 20
 2.40005300000000E+0002
 11
 3.55000000000000E+0002
 21
 1.55000000000000E+0002
  0
LINE
  8
0
 10
 3.55000000000000E+0002
 20
 1.55000000000000E+0002
 11
 4.15000000000000E+0002
 21
 1.55000000000000E+0002
  0
LINE
  8
0
 10
 4.15000000000000E+0002
 20
 1.55000000000000E+0002
 11
 4.15000000000000E+0002
 21
 2.40005300000000E+0002
  0
LINE
  8
0
 10
 4.15000000000000E+0002
 20
 2.40005300000000E+0002
 11
 4.15424035505500E+0002
 21
 2.52928449294400E+0002
  0
LINE
  8
0
 10
 4.15424035505500E+0002
 20
 2.52928449294400E+0002
 11
 4.16011011964000E+0002
 21
 2.65687151155200E+0002
  0
LINE
  8
0
 10
 4.16011011964000E+0002
 20
 2.65687151155200E+0002
 11
 4.16757596288500E+0002
 21
 2.78284786548800E+0002
  0
LINE
  8
0
 10
 4.16757596288500E+0002
 20
 2.78284786548800E+0002
 11
 4.17660455392000E+0002
 21
 2.90724736441600E+0002
  0
LINE
  8
0
 10
 4.17660455392000E+0002
 20
 2.90724736441600E+0002
 11
 4.18716256187500E+0002
 21
 3.03010381800000E+0002
  0
LINE
  8
0
 10
 4.18716256187500E+0002
 20
 3.03010381800000E+0002
 11
 4.19921665588000E+0002
 21
 3.15145103590400E+0002
  0
LINE
  8
0
 10
 4.19921665588000E+0002
 20
 3.15145103590400E+0002
 11
 4.21273350506500E+0002
 21
 3.27132282779200E+0002
  0
LINE
  8
0
 10
 4.21273350506500E+0002
 20
 3.27132282779200E+0002
 11
 4.22767977856000E+0002
 21
 3.38975300332800E+0002
  0
LINE
  8
0
 10
 4.22767977856000E+0002
 20
 3.38975300332800E+0002
 11
 4.24402214549500E+0002
 21
 3.50677537217600E+0002
  0
LINE
  8
0
 10
 4.24402214549500E+0002
 20
 3.50677537217600E+0002
 11
 4.26172727500000E+0002
 21
 3.62242374400000E+0002
  0
LINE
  8
0
 10
 4.26172727500000E+0002
 20
 3.62242374400000E+0002
 11
 4.28076183620500E+0002
 21
 3.73673192846400E+0002
  0
LINE
  8
0
 10
 4.28076183620500E+0002
 20
 3.73673192846400E+0002
 11
 4.30109249824000E+0002
 21
 3.84973373523200E+0002
  0
LINE
  8
0
 10
 4.30109249824000E+0002
 20
 3.84973373523200E+0002
 11
 4.32268593023500E+0002
 21
 3.96146297396800E+0002
  0
LINE
  8
0
 10
 4.32268593023500E+0002
 20
 3.96146297396800E+0002
 11
 4.34550880132000E+0002
 21
 4.07195345433600E+0002
  0
LINE
  8
0
 10
 4.34550880132000E+0002
 20
 4.07195345433600E+0002
 11
 4.36952778062500E+0002
 21
 4.18123898600000E+0002
  0
LINE
  8
0
 10
 4.36952778062500E+0002
 20
 4.18123898600000E+0002
 11
 4.39470953728000E+0002
 21
 4.28935337862400E+0002
  0
LINE
  8
0
 10
 4.39470953728000E+0002
 20
 4.28935337862400E+0002
 11
 4.42102074041500E+0002
 21
 4.39633044187200E+0002
  0
LINE
  8
0
 10
 4.42102074041500E+0002
 20
 4.39633044187200E+0002
 11
 4.44842805916000E+0002
 21
 4.50220398540800E+0002
  0
LINE
  8
0
 10
 4.44842805916000E+0002
 20
 4.50220398540800E+0002
 11
 4.47689816264500E+0002
 21
 4.60700781889600E+0002
  0
LINE
  8
0
 10
 4.47689816264500E+0002
 20
 4.60700781889600E+0002
 11
 4.50639772000000E+0002
 21
 4.71077575200000E+0002
  0
LINE
  8
0
 10
 4.50639772000000E+0002
 20
 4.71077575200000E+0002
 11
 4.53689340035500E+0002
 21
 4.81354159438400E+0002
  0
LINE
  8
0
 10
 4.53689340035500E+0002
 20
 4.81354159438400E+0002
 11
 4.56835187284000E+0002
 21
 4.91533915571200E+0002
  0
LINE
  8
0
 10
 4.56835187284000E+0002
 20
 4.91533915571200E+0002
 11
 4.60073980658500E+0002
 21
 5.01620224564800E+0002
  0
LINE
  8
0
 10
 4.60073980658500E+0002
 20
 5.01620224564800E+0002
 11
 4.63402387072000E+0002
 21
 5.11616467385600E+0002
  0
LINE
  8
0
 10
 4.63402387072000E+0002
 20
 5.11616467385600E+0002
 11
 4.66817073437500E+0002
 21
 5.21526025000000E+0002
  0
LINE
  8
0
 10
 4.66817073437500E+0002
 20
 5.21526025000000E+0002
 11
 4.70314706668000E+0002
 21
 5.31352278374400E+0002
  0
LINE
  8
0
 10
 4.70314706668000E+0002
 20
 5.31352278374400E+0002
 11
 4.73891953676500E+0002
 21
 5.41098608475200E+0002
  0
LINE
  8
0
 10
 4.73891953676500E+0002
 20
 5.41098608475200E+0002
 11
 4.77545481376000E+0002
 21
 5.50768396268800E+0002
  0
LINE
  8
0
 10
 4.77545481376000E+0002
 20
 5.50768396268800E+0002
 11
 4.81271956679500E+0002
 21
 5.60365022721600E+0002
  0
LINE
  8
0
 10
 4.81271956679500E+0002
 20
 5.60365022721600E+0002
 11
 4.85068046500000E+0002
 21
 5.69891868800000E+0002
  0
LINE
  8
0
 10
 4.85068046500000E+0002
 20
 5.69891868800000E+0002
 11
 4.88930417750500E+0002
 21
 5.79352315470400E+0002
  0
LINE
  8
0
 10
 4.88930417750500E+0002
 20
 5.79352315470400E+0002
 11
 4.92855737344000E+0002
 21
 5.88749743699200E+0002
  0
LINE
  8
0
 10
 4.92855737344000E+0002
 20
 5.88749743699200E+0002
 11
 4.96840672193500E+0002
 21
 5.98087534452800E+0002
  0
LINE
  8
0
 10
 4.96840672193500E+0002
 20
 5.98087534452800E+0002
 11
 5.00881889212000E+0002
 21
 6.07369068697600E+0002
  0
LINE
  8
0
 10
 5.00881889212000E+0002
 20
 6.07369068697600E+0002
 11
 5.04976055312500E+0002
 21
 6.16597727400000E+0002
  0
LINE
  8
0
 10
 5.04976055312500E+0002
 20
 6.16597727400000E+0002
 11
 5.09119837408000E+0002
 21
 6.25776891526400E+0002
  0
LINE
  8
0
 10
 5.09119837408000E+0002
 20
 6.25776891526400E+0002
 11
 5.13309902411500E+0002
 21
 6.34909942043200E+0002
  0
LINE
  8
0
 10
 5.13309902411500E+0002
 20
 6.34909942043200E+0002
 11
 5.17542917236000E+0002
 21
 6.44000259916800E+0002
  0
LINE
  8
0
 10
 5.17542917236000E+0002
 20
 6.44000259916800E+0002
 11
 5.21815548794500E+0002
 21
 6.53051226113600E+0002
  0
LINE
  8
0
 10
 5.21815548794500E+0002
 20
 6.53051226113600E+0002
 11
 5.26124464000000E+0002
 21
 6.62066221600000E+0002
  0
LINE
  8
0
 10
 5.26124464000000E+0002
 20
 6.62066221600000E+0002
 11
 5.30466329765500E+0002
 21
 6.71048627342400E+0002
  0
LINE
  8
0
 10
 5.30466329765500E+0002
 20
 6.71048627342400E+0002
 11
 5.34837813004000E+0002
 21
 6.80001824307200E+0002
  0
LINE
  8
0
 10
 5.34837813004000E+0002
 20
 6.80001824307200E+0002
 11
 5.39235580628500E+0002
 21
 6.88929193460800E+0002
  0
LINE
  8
0
 10
 5.39235580628500E+0002
 20
 6.88929193460800E+0002
 11
 5.43656299552000E+0002
 21
 6.97834115769600E+0002
  0
LINE
  8
0
 10
 5.43656299552000E+0002
 20
 6.97834115769600E+0002
 11
 5.48096636687500E+0002
 21
 7.06719972200000E+0002
  0
LINE
  8
0
 10
 5.48096636687500E+0002
 20
 7.06719972200000E+0002
 11
 5.52553258948000E+0002
 21
 7.15590143718400E+0002
  0
LINE
  8
0
 10
 5.52553258948000E+0002
 20
 7.15590143718400E+0002
 11
 5.57022833246500E+0002
 21
 7.24448011291200E+0002
  0
LINE
  8
0
 10
 5.57022833246500E+0002
 20
 7.24448011291200E+0002
 11
 5.61502026496000E+0002
 21
 7.33296955884800E+0002
  0
LINE
  8
0
 10
 5.61502026496000E+0002
 20
 7.33296955884800E+0002
 11
 5.65987505609500E+0002
 21
 7.42140358465600E+0002
  0
LINE
  8
0
 10
 5.65987505609500E+0002
 20
 7.42140358465600E+0002
 11
 5.70475937500000E+0002
 21
 7.50981600000000E+0002
  0
LINE
  8
0
 10
 5.70475937500000E+0002
 20
 7.50981600000000E+0002
 11
 5.74963989080500E+0002
 21
 7.59824061454400E+0002
  0
LINE
  8
0
 10
 5.74963989080500E+0002
 20
 7.59824061454400E+0002
 11
 5.79448327264000E+0002
 21
 7.68671123795200E+0002
  0
LINE
  8
0
 10
 5.79448327264000E+0002
 20
 7.68671123795200E+0002
 11
 5.83925618963500E+0002
 21
 7.77526167988800E+0002
  0
LINE
  8
0
 10
 5.83925618963500E+0002
 20
 7.77526167988800E+0002
 11
 5.88392531092000E+0002
 21
 7.86392575001600E+0002
  0
LINE
  8
0
 10
 5.88392531092000E+0002
 20
 7.86392575001600E+0002
 11
 5.92845730562500E+0002
 21
 7.95273725800000E+0002
  0
LINE
  8
0
 10
 5.92845730562500E+0002
 20
 7.95273725800000E+0002
 11
 5.97281884288000E+0002
 21
 8.04173001350400E+0002
  0
LINE
  8
0
 10
 5.97281884288000E+0002
 20
 8.04173001350400E+0002
 11
 6.01697659181500E+0002
 21
 8.13093782619200E+0002
  0
LINE
  8
0
 10
 6.01697659181500E+0002
 20
 8.13093782619200E+0002
 11
 6.06089722156000E+0002
 21
 8.22039450572800E+0002
  0
LINE
  8
0
 10
 6.06089722156000E+0002
 20
 8.22039450572800E+0002
 11
 6.10454740124500E+0002
 21
 8.31013386177600E+0002
  0
LINE
  8
0
 10
 6.10454740124500E+0002
 20
 8.31013386177600E+0002
 11
 6.14789380000000E+0002
 21
 8.40018970400000E+0002
  0
LINE
  8
0
 10
 6.14789380000000E+0002
 20
 8.40018970400000E+0002
 11
 6.19090308695500E+0002
 21
 8.49059584206400E+0002
  0
LINE
  8
0
 10
 6.19090308695500E+0002
 20
 8.49059584206400E+0002
 11
 6.23354193124000E+0002
 21
 8.58138608563200E+0002
  0
LINE
  8
0
 10
 6.23354193124000E+0002
 20
 8.58138608563200E+0002
 11
 6.27577700198500E+0002
 21
 8.67259424436800E+0002
  0
LINE
  8
0
 10
 6.27577700198500E+0002
 20
 8.67259424436800E+0002
 11
 6.31757496832000E+0002
 21
 8.76425412793600E+0002
  0
LINE
  8
0
 10
 6.31757496832000E+0002
 20
 8.76425412793600E+0002
 11
 6.35890249937500E+0002
 21
 8.85639954600000E+0002
  0
LINE
  8
0
 10
 6.35890249937500E+0002
 20
 8.85639954600000E+0002
 11
 6.39972626428000E+0002
 21
 8.94906430822400E+0002
  0
LINE
  8
0
 10
 6.39972626428000E+0002
 20
 8.94906430822400E+0002
 11
 6.44001293216500E+0002
 21
 9.04228222427200E+0002
  0
LINE
  8
0
 10
 6.44001293216500E+0002
 20
 9.04228222427200E+0002
 11
 6.47972917216000E+0002
 21
 9.13608710380800E+0002
  0
LINE
  8
0
 10
 6.47972917216000E+0002
 20
 9.13608710380800E+0002
 11
 6.51884165339500E+0002
 21
 9.23051275649600E+0002
  0
LINE
  8
0
 10
 6.51884165339500E+0002
 20
 9.23051275649600E+0002
 11
 6.55731704500000E+0002
 21
 9.32559299200000E+0002
  0
LINE
  8
0
 10
 6.55731704500000E+0002
 20
 9.32559299200000E+0002
 11
 6.59512201610500E+0002
 21
 9.42136161998400E+0002
  0
LINE
  8
0
 10
 6.59512201610500E+0002
 20
 9.42136161998400E+0002
 11
 6.63222323584000E+0002
 21
 9.51785245011200E+0002
  0
LINE
  8
0
 10
 6.63222323584000E+0002
 20
 9.51785245011200E+0002
 11
 6.66858737333500E+0002
 21
 9.61509929204800E+0002
  0
LINE
  8
0
 10
 6.66858737333500E+0002
 20
 9.61509929204800E+0002
 11
 6.70418109772000E+0002
 21
 9.71313595545600E+0002
  0
LINE
  8
0
 10
 6.70418109772000E+0002
 20
 9.71313595545600E+0002
 11
 6.73897107812500E+0002
 21
 9.81199625000000E+0002
  0
LINE
  8
0
 10
 6.73897107812500E+0002
 20
 9.81199625000000E+0002
 11
 6.77292398368000E+0002
 21
 9.91171398534400E+0002
  0
LINE
  8
0
 10
 6.77292398368000E+0002
 20
 9.91171398534400E+0002
 11
 6.80600648351500E+0002
 21
 1.00123229711520E+0003
  0
LINE
  8
0
 10
 6.80600648351500E+0002
 20
 1.00123229711520E+0003
 11
 6.83818524676000E+0002
 21
 1.01138570170880E+0003
  0
LINE
  8
0
 10
 6.83818524676000E+0002
 20
 1.01138570170880E+0003
 11
 6.86942694254500E+0002
 21
 1.02163499328160E+0003
  0
LINE
  8
0
 10
 6.86942694254500E+0002
 20
 1.02163499328160E+0003
 11
 6.89969824000000E+0002
 21
 1.03198355280000E+0003
  0
LINE
  8
0
 10
 6.89969824000000E+0002
 20
 1.03198355280000E+0003
 11
 6.92896580825500E+0002
 21
 1.04243476123040E+0003
  0
LINE
  8
0
 10
 6.92896580825500E+0002
 20
 1.04243476123040E+0003
 11
 6.95719631644000E+0002
 21
 1.05299199953920E+0003
  0
LINE
  8
0
 10
 6.95719631644000E+0002
 20
 1.05299199953920E+0003
 11
 6.98435643368500E+0002
 21
 1.06365864869280E+0003
  0
LINE
  8
0
 10
 6.98435643368500E+0002
 20
 1.06365864869280E+0003
 11
 7.01041282912000E+0002
 21
 1.07443808965760E+0003
  0
LINE
  8
0
 10
 7.01041282912000E+0002
 20
 1.07443808965760E+0003
 11
 7.03533217187500E+0002
 21
 1.08533370340000E+0003
  0
LINE
  8
0
 10
 7.03533217187500E+0002
 20
 1.08533370340000E+0003
 11
 7.05908113108000E+0002
 21
 1.09634887088640E+0003
  0
LINE
  8
0
 10
 7.05908113108000E+0002
 20
 1.09634887088640E+0003
 11
 7.08162637586500E+0002
 21
 1.10748697308320E+0003
  0
LINE
  8
0
 10
 7.08162637586500E+0002
 20
 1.10748697308320E+0003
 11
 7.10293457536000E+0002
 21
 1.11875139095680E+0003
  0
LINE
  8
0
 10
 7.10293457536000E+0002
 20
 1.11875139095680E+0003
 11
 7.12297239869500E+0002
 21
 1.13014550547360E+0003
  0
LINE
  8
0
 10
 7.12297239869500E+0002
 20
 1.13014550547360E+0003
 11
 7.14170651500000E+0002
 21
 1.14167269760000E+0003
  0
LINE
  8
0
 10
 7.14170651500000E+0002
 20
 1.14167269760000E+0003
 11
 7.15910359340500E+0002
 21
 1.15333634830240E+0003
  0
LINE
  8
0
 10
 7.15910359340500E+0002
 20
 1.15333634830240E+0003
 11
 7.17513030304000E+0002
 21
 1.16513983854720E+0003
  0
LINE
  8
0
 10
 7.17513030304000E+0002
 20
 1.16513983854720E+0003
 11
 7.18975331303500E+0002
 21
 1.17708654930080E+0003
  0
LINE
  8
0
 10
 7.18975331303500E+0002
 20
 1.17708654930080E+0003
 11
 7.20293929252000E+0002
 21
 1.18917986152960E+0003
  0
LINE
  8
0
 10
 7.20293929252000E+0002
 20
 1.18917986152960E+0003
 11
 7.21465491062500E+0002
 21
 1.20142315620000E+0003
  0
LINE
  8
0
 10
 7.21465491062500E+0002
 20
 1.20142315620000E+0003
 11
 7.22486683648000E+0002
 21
 1.21381981427840E+0003
  0
LINE
  8
0
 10
 7.22486683648000E+0002
 20
 1.21381981427840E+0003
 11
 7.23354173921500E+0002
 21
 1.22637321673120E+0003
  0
LINE
  8
0
 10
 7.23354173921500E+0002
 20
 1.22637321673120E+0003
 11
 7.24064628796000E+0002
 21
 1.23908674452480E+0003
  0
LINE
  8
0
 10
 7.24064628796000E+0002
 20
 1.23908674452480E+0003
 11
 7.24614715184500E+0002
 21
 1.25196377862560E+0003
  0
LINE
  8
0
 10
 7.24614715184500E+0002
 20
 1.25196377862560E+0003
 11
 7.25001100000000E+0002
 21
 1.26500770000000E+0003
  0
LINE
  8
0
 10
 7.25001100000000E+0002
 20
 1.26500770000000E+0003
 11
 7.25000000000000E+0002
 21
 1.30700000000000E+0003
  0
LINE
  8
0
 10
 7.25000000000000E+0002
 20
 1.30700000000000E+0003
 11
 7.70000509446390E+0002
 21
 1.29538091843480E+0003
  0
ARC
  8
0
 10
 7.73000000000000E+0002
 20
 1.30700000000000E+0003
 40
 1.20000000000000E+0001
 50
 2.55525000000000E+0002
 51
 3.93805000000000E+0002
  0
LINE
  8
0
 10
 7.82971231041917E+0002
 20
 1.31367641756549E+0003
 11
 6.95000000000000E+0002
 21
 1.44500000000000E+0003
  0
LINE
  8
0
 10
 6.95000000000000E+0002
 20
 1.44500000000000E+0003
 11
 6.07028768958084E+0002
 21
 1.31367641756549E+0003
  0
ARC
  8
0
 10
 6.17000000000000E+0002
 20
 1.30700000000000E+0003
 40
 1.20000000000000E+0001
 50
 1.46195000000000E+0002
 51
 2.84475000000000E+0002
  0
LINE
  8
0
 10
 6.19999490553610E+0002
 20
 1.29538091843480E+0003
 11
 6.65000000000000E+0002
 21
 1.30700000000000E+0003
  0
LINE
  8
0
 10
 6.65000000000000E+0002
 20
 1.30700000000000E+0003
 11
 6.65000000000000E+0002
 21
 1.26500000000000E+0003
  0
LINE
  8
0
 10
 8.75000000000000E+0002
 20
 1.26500000000000E+0003
 11
 8.74613615868900E+0002
 21
 1.25195630732330E+0003
  0
LINE
  8
0
 10
 8.74613615868900E+0002
 20
 1.25195630732330E+0003
 11
 8.74063531511200E+0002
 21
 1.23907949734640E+0003
  0
LINE
  8
0
 10
 8.74063531511200E+0002
 20
 1.23907949734640E+0003
 11
 8.73353079980300E+0002
 21
 1.22636618914910E+0003
  0
LINE
  8
0
 10
 8.73353079980300E+0002
 20
 1.22636618914910E+0003
 11
 8.72485594329600E+0002
 21
 1.21381300181120E+0003
  0
LINE
  8
0
 10
 8.72485594329600E+0002
 20
 1.21381300181120E+0003
 11
 8.71464407612500E+0002
 21
 1.20141655441250E+0003
  0
LINE
  8
0
 10
 8.71464407612500E+0002
 20
 1.20141655441250E+0003
 11
 8.70292852882400E+0002
 21
 1.18917346603280E+0003
  0
LINE
  8
0
 10
 8.70292852882400E+0002
 20
 1.18917346603280E+0003
 11
 8.68974263192700E+0002
 21
 1.17708035575190E+0003
  0
LINE
  8
0
 10
 8.68974263192700E+0002
 20
 1.17708035575190E+0003
 11
 8.67511971596800E+0002
 21
 1.16513384264960E+0003
  0
LINE
  8
0
 10
 8.67511971596800E+0002
 20
 1.16513384264960E+0003
 11
 8.65909311148100E+0002
 21
 1.15333054580570E+0003
  0
LINE
  8
0
 10
 8.65909311148100E+0002
 20
 1.15333054580570E+0003
 11
 8.64169614900000E+0002
 21
 1.14166708430000E+0003
  0
LINE
  8
0
 10
 8.64169614900000E+0002
 20
 1.14166708430000E+0003
 11
 8.62296215905900E+0002
 21
 1.13014007721230E+0003
  0
LINE
  8
0
 10
 8.62296215905900E+0002
 20
 1.13014007721230E+0003
 11
 8.60292447219200E+0002
 21
 1.11874614362240E+0003
  0
LINE
  8
0
 10
 8.60292447219200E+0002
 20
 1.11874614362240E+0003
 11
 8.58161641893300E+0002
 21
 1.10748190261010E+0003
  0
LINE
  8
0
 10
 8.58161641893300E+0002
 20
 1.10748190261010E+0003
 11
 8.55907132981600E+0002
 21
 1.09634397325520E+0003
  0
LINE
  8
0
 10
 8.55907132981600E+0002
 20
 1.09634397325520E+0003
 11
 8.53532253537500E+0002
 21
 1.08532897463750E+0003
  0
LINE
  8
0
 10
 8.53532253537500E+0002
 20
 1.08532897463750E+0003
 11
 8.51040336614400E+0002
 21
 1.07443352583680E+0003
  0
LINE
  8
0
 10
 8.51040336614400E+0002
 20
 1.07443352583680E+0003
 11
 8.48434715265700E+0002
 21
 1.06365424593290E+0003
  0
LINE
  8
0
 10
 8.48434715265700E+0002
 20
 1.06365424593290E+0003
 11
 8.45718722544800E+0002
 21
 1.05298775400560E+0003
  0
LINE
  8
0
 10
 8.45718722544800E+0002
 20
 1.05298775400560E+0003
 11
 8.42895691505100E+0002
 21
 1.04243066913470E+0003
  0
LINE
  8
0
 10
 8.42895691505100E+0002
 20
 1.04243066913470E+0003
 11
 8.39968955200000E+0002
 21
 1.03197961040000E+0003
  0
LINE
  8
0
 10
 8.39968955200000E+0002
 20
 1.03197961040000E+0003
 11
 8.36941846682900E+0002
 21
 1.02163119688130E+0003
  0
LINE
  8
0
 10
 8.36941846682900E+0002
 20
 1.02163119688130E+0003
 11
 8.33817699007200E+0002
 21
 1.01138204765840E+0003
  0
LINE
  8
0
 10
 8.33817699007200E+0002
 20
 1.01138204765840E+0003
 11
 8.30599845226300E+0002
 21
 1.00122878181110E+0003
  0
LINE
  8
0
 10
 8.30599845226300E+0002
 20
 1.00122878181110E+0003
 11
 8.27291618393600E+0002
 21
 9.91168018419200E+0002
  0
LINE
  8
0
 10
 8.27291618393600E+0002
 20
 9.91168018419200E+0002
 11
 8.23896351562500E+0002
 21
 9.81196376562500E+0002
  0
LINE
  8
0
 10
 8.23896351562500E+0002
 20
 9.81196376562500E+0002
 11
 8.20417377786400E+0002
 21
 9.71310475320800E+0002
  0
LINE
  8
0
 10
 8.20417377786400E+0002
 20
 9.71310475320800E+0002
 11
 8.16858030118700E+0002
 21
 9.61506933773900E+0002
  0
LINE
  8
0
 10
 8.16858030118700E+0002
 20
 9.61506933773900E+0002
 11
 8.13221641612800E+0002
 21
 9.51782371001600E+0002
  0
LINE
  8
0
 10
 8.13221641612800E+0002
 20
 9.51782371001600E+0002
 11
 8.09511545322100E+0002
 21
 9.42133406083700E+0002
  0
LINE
  8
0
 10
 8.09511545322100E+0002
 20
 9.42133406083700E+0002
 11
 8.05731074300000E+0002
 21
 9.32556658100000E+0002
  0
LINE
  8
0
 10
 8.05731074300000E+0002
 20
 9.32556658100000E+0002
 11
 8.01883561599900E+0002
 21
 9.23048746130300E+0002
  0
LINE
  8
0
 10
 8.01883561599900E+0002
 20
 9.23048746130300E+0002
 11
 7.97972340275200E+0002
 21
 9.13606289254400E+0002
  0
LINE
  8
0
 10
 7.97972340275200E+0002
 20
 9.13606289254400E+0002
 11
 7.94000743379300E+0002
 21
 9.04225906552100E+0002
  0
LINE
  8
0
 10
 7.94000743379300E+0002
 20
 9.04225906552100E+0002
 11
 7.89972103965600E+0002
 21
 8.94904217103200E+0002
  0
LINE
  8
0
 10
 7.89972103965600E+0002
 20
 8.94904217103200E+0002
 11
 7.85889755087500E+0002
 21
 8.85637839987500E+0002
  0
LINE
  8
0
 10
 7.85889755087500E+0002
 20
 8.85637839987500E+0002
 11
 7.81757029798400E+0002
 21
 8.76423394284800E+0002
  0
LINE
  8
0
 10
 7.81757029798400E+0002
 20
 8.76423394284800E+0002
 11
 7.77577261151700E+0002
 21
 8.67257499074900E+0002
  0
LINE
  8
0
 10
 7.77577261151700E+0002
 20
 8.67257499074900E+0002
 11
 7.73353782200800E+0002
 21
 8.58136773437600E+0002
  0
LINE
  8
0
 10
 7.73353782200800E+0002
 20
 8.58136773437600E+0002
 11
 7.69089925999100E+0002
 21
 8.49057836452700E+0002
  0
LINE
  8
0
 10
 7.69089925999100E+0002
 20
 8.49057836452700E+0002
 11
 7.64789025600000E+0002
 21
 8.40017307200000E+0002
  0
LINE
  8
0
 10
 7.64789025600000E+0002
 20
 8.40017307200000E+0002
 11
 7.60454414056900E+0002
 21
 8.31011804759300E+0002
  0
LINE
  8
0
 10
 7.60454414056900E+0002
 20
 8.31011804759300E+0002
 11
 7.56089424423200E+0002
 21
 8.22037948210400E+0002
  0
LINE
  8
0
 10
 7.56089424423200E+0002
 20
 8.22037948210400E+0002
 11
 7.51697389752300E+0002
 21
 8.13092356633100E+0002
  0
LINE
  8
0
 10
 7.51697389752300E+0002
 20
 8.13092356633100E+0002
 11
 7.47281643097600E+0002
 21
 8.04171649107200E+0002
  0
LINE
  8
0
 10
 7.47281643097600E+0002
 20
 8.04171649107200E+0002
 11
 7.42845517512500E+0002
 21
 7.95272444712500E+0002
  0
LINE
  8
0
 10
 7.42845517512500E+0002
 20
 7.95272444712500E+0002
 11
 7.38392346050400E+0002
 21
 7.86391362528800E+0002
  0
LINE
  8
0
 10
 7.38392346050400E+0002
 20
 7.86391362528800E+0002
 11
 7.33925461764700E+0002
 21
 7.77525021635900E+0002
  0
LINE
  8
0
 10
 7.33925461764700E+0002
 20
 7.77525021635900E+0002
 11
 7.29448197708800E+0002
 21
 7.68670041113600E+0002
  0
LINE
  8
0
 10
 7.29448197708800E+0002
 20
 7.68670041113600E+0002
 11
 7.24963886936100E+0002
 21
 7.59823040041700E+0002
  0
LINE
  8
0
 10
 7.24963886936100E+0002
 20
 7.59823040041700E+0002
 11
 7.20475862500000E+0002
 21
 7.50980637500000E+0002
  0
LINE
  8
0
 10
 7.20475862500000E+0002
 20
 7.50980637500000E+0002
 11
 7.15987457453900E+0002
 21
 7.42139452568300E+0002
  0
LINE
  8
0
 10
 7.15987457453900E+0002
 20
 7.42139452568300E+0002
 11
 7.11502004851200E+0002
 21
 7.33296104326400E+0002
  0
LINE
  8
0
 10
 7.11502004851200E+0002
 20
 7.33296104326400E+0002
 11
 7.07022837745300E+0002
 21
 7.24447211854100E+0002
  0
LINE
  8
0
 10
 7.07022837745300E+0002
 20
 7.24447211854100E+0002
 11
 7.02553289189600E+0002
 21
 7.15589394231200E+0002
  0
LINE
  8
0
 10
 7.02553289189600E+0002
 20
 7.15589394231200E+0002
 11
 6.98096692237500E+0002
 21
 7.06719270537500E+0002
  0
LINE
  8
0
 10
 6.98096692237500E+0002
 20
 7.06719270537500E+0002
 11
 6.93656379942400E+0002
 21
 6.97833459852800E+0002
  0
LINE
  8
0
 10
 6.93656379942400E+0002
 20
 6.97833459852800E+0002
 11
 6.89235685357700E+0002
 21
 6.88928581256900E+0002
  0
LINE
  8
0
 10
 6.89235685357700E+0002
 20
 6.88928581256900E+0002
 11
 6.84837941536800E+0002
 21
 6.80001253829600E+0002
  0
LINE
  8
0
 10
 6.84837941536800E+0002
 20
 6.80001253829600E+0002
 11
 6.80466481533100E+0002
 21
 6.71048096650700E+0002
  0
LINE
  8
0
 10
 6.80466481533100E+0002
 20
 6.71048096650700E+0002
 11
 6.76124638400000E+0002
 21
 6.62065728800000E+0002
  0
LINE
  8
0
 10
 6.76124638400000E+0002
 20
 6.62065728800000E+0002
 11
 6.71815745190900E+0002
 21
 6.53050769357300E+0002
  0
LINE
  8
0
 10
 6.71815745190900E+0002
 20
 6.53050769357300E+0002
 11
 6.67543134959200E+0002
 21
 6.43999837402400E+0002
  0
LINE
  8
0
 10
 6.67543134959200E+0002
 20
 6.43999837402400E+0002
 11
 6.63310140758300E+0002
 21
 6.34909552015100E+0002
  0
LINE
  8
0
 10
 6.63310140758300E+0002
 20
 6.34909552015100E+0002
 11
 6.59120095641600E+0002
 21
 6.25776532275200E+0002
  0
LINE
  8
0
 10
 6.59120095641600E+0002
 20
 6.25776532275200E+0002
 11
 6.54976332662500E+0002
 21
 6.16597397262500E+0002
  0
LINE
  8
0
 10
 6.54976332662500E+0002
 20
 6.16597397262500E+0002
 11
 6.50882184874400E+0002
 21
 6.07368766056800E+0002
  0
LINE
  8
0
 10
 6.50882184874400E+0002
 20
 6.07368766056800E+0002
 11
 6.46840985330700E+0002
 21
 5.98087257737900E+0002
  0
LINE
  8
0
 10
 6.46840985330700E+0002
 20
 5.98087257737900E+0002
 11
 6.42856067084800E+0002
 21
 5.88749491385600E+0002
  0
LINE
  8
0
 10
 6.42856067084800E+0002
 20
 5.88749491385600E+0002
 11
 6.38930763190100E+0002
 21
 5.79352086079700E+0002
  0
LINE
  8
0
 10
 6.38930763190100E+0002
 20
 5.79352086079700E+0002
 11
 6.35068406700000E+0002
 21
 5.69891660900000E+0002
  0
LINE
  8
0
 10
 6.35068406700000E+0002
 20
 5.69891660900000E+0002
 11
 6.31272330667900E+0002
 21
 5.60364834926300E+0002
  0
LINE
  8
0
 10
 6.31272330667900E+0002
 20
 5.60364834926300E+0002
 11
 6.27545868147200E+0002
 21
 5.50768227238400E+0002
  0
LINE
  8
0
 10
 6.27545868147200E+0002
 20
 5.50768227238400E+0002
 11
 6.23892352191300E+0002
 21
 5.41098456916100E+0002
  0
LINE
  8
0
 10
 6.23892352191300E+0002
 20
 5.41098456916100E+0002
 11
 6.20315115853600E+0002
 21
 5.31352143039200E+0002
  0
LINE
  8
0
 10
 6.20315115853600E+0002
 20
 5.31352143039200E+0002
 11
 6.16817492187500E+0002
 21
 5.21525904687500E+0002
  0
LINE
  8
0
 10
 6.16817492187500E+0002
 20
 5.21525904687500E+0002
 11
 6.13402814246400E+0002
 21
 5.11616360940800E+0002
  0
LINE
  8
0
 10
 6.13402814246400E+0002
 20
 5.11616360940800E+0002
 11
 6.10074415083700E+0002
 21
 5.01620130878900E+0002
  0
LINE
  8
0
 10
 6.10074415083700E+0002
 20
 5.01620130878900E+0002
 11
 6.06835627752800E+0002
 21
 4.91533833581600E+0002
  0
LINE
  8
0
 10
 6.06835627752800E+0002
 20
 4.91533833581600E+0002
 11
 6.03689785307100E+0002
 21
 4.81354088128700E+0002
  0
LINE
  8
0
 10
 6.03689785307100E+0002
 20
 4.81354088128700E+0002
 11
 6.00640220800000E+0002
 21
 4.71077513600000E+0002
  0
LINE
  8
0
 10
 6.00640220800000E+0002
 20
 4.71077513600000E+0002
 11
 5.97690267284900E+0002
 21
 4.60700729075300E+0002
  0
LINE
  8
0
 10
 5.97690267284900E+0002
 20
 4.60700729075300E+0002
 11
 5.94843257815200E+0002
 21
 4.50220353634400E+0002
  0
LINE
  8
0
 10
 5.94843257815200E+0002
 20
 4.50220353634400E+0002
 11
 5.92102525444300E+0002
 21
 4.39633006357100E+0002
  0
LINE
  8
0
 10
 5.92102525444300E+0002
 20
 4.39633006357100E+0002
 11
 5.89471403225600E+0002
 21
 4.28935306323200E+0002
  0
LINE
  8
0
 10
 5.89471403225600E+0002
 20
 4.28935306323200E+0002
 11
 5.86953224212500E+0002
 21
 4.18123872612500E+0002
  0
LINE
  8
0
 10
 5.86953224212500E+0002
 20
 4.18123872612500E+0002
 11
 5.84551321458400E+0002
 21
 4.07195324304800E+0002
  0
LINE
  8
0
 10
 5.84551321458400E+0002
 20
 4.07195324304800E+0002
 11
 5.82269028016700E+0002
 21
 3.96146280479900E+0002
  0
LINE
  8
0
 10
 5.82269028016700E+0002
 20
 3.96146280479900E+0002
 11
 5.80109676940800E+0002
 21
 3.84973360217600E+0002
  0
LINE
  8
0
 10
 5.80109676940800E+0002
 20
 3.84973360217600E+0002
 11
 5.78076601284100E+0002
 21
 3.73673182597700E+0002
  0
LINE
  8
0
 10
 5.78076601284100E+0002
 20
 3.73673182597700E+0002
 11
 5.76173134100000E+0002
 21
 3.62242366700000E+0002
  0
LINE
  8
0
 10
 5.76173134100000E+0002
 20
 3.62242366700000E+0002
 11
 5.74402608441900E+0002
 21
 3.50677531604300E+0002
  0
LINE
  8
0
 10
 5.74402608441900E+0002
 20
 3.50677531604300E+0002
 11
 5.72768357363200E+0002
 21
 3.38975296390400E+0002
  0
LINE
  8
0
 10
 5.72768357363200E+0002
 20
 3.38975296390400E+0002
 11
 5.71273713917300E+0002
 21
 3.27132280138100E+0002
  0
LINE
  8
0
 10
 5.71273713917300E+0002
 20
 3.27132280138100E+0002
 11
 5.69922011157600E+0002
 21
 3.15145101927200E+0002
  0
LINE
  8
0
 10
 5.69922011157600E+0002
 20
 3.15145101927200E+0002
 11
 5.68716582137500E+0002
 21
 3.03010380837500E+0002
  0
LINE
  8
0
 10
 5.68716582137500E+0002
 20
 3.03010380837500E+0002
 11
 5.67660759910400E+0002
 21
 2.90724735948800E+0002
  0
LINE
  8
0
 10
 5.67660759910400E+0002
 20
 2.90724735948800E+0002
 11
 5.66757877529700E+0002
 21
 2.78284786340900E+0002
  0
LINE
  8
0
 10
 5.66757877529700E+0002
 20
 2.78284786340900E+0002
 11
 5.66011268048800E+0002
 21
 2.65687151093600E+0002
  0
LINE
  8
0
 10
 5.66011268048800E+0002
 20
 2.65687151093600E+0002
 11
 5.65424264521100E+0002
 21
 2.52928449286700E+0002
  0
LINE
  8
0
 10
 5.65424264521100E+0002
 20
 2.52928449286700E+0002
 11
 5.65000200000000E+0002
 21
 2.40005300000000E+0002
  0
LINE
  8
0
 10
 5.65000200000000E+0002
 20
 2.40005300000000E+0002
 11
 5.65000000000000E+0002
 21
 1.55000000000000E+0002
  0
LINE
  8
0
 10
 5.65000000000000E+0002
 20
 1.55000000000000E+0002
 11
 6.25000000000000E+0002
 21
 1.55000000000000E+0002
  0
LINE
  8
0
 10
 6.25000000000000E+0002
 20
 1.55000000000000E+0002
 11
 6.25000000000000E+0002
 21
 2.40005300000000E+0002
  0
LINE
  8
0
 10
 6.25000000000000E+0002
 20
 2.40005300000000E+0002
 11
 6.25424035505500E+0002
 21
 2.52928449294400E+0002
  0
LINE
  8
0
 10
 6.25424035505500E+0002
 20
 2.52928449294400E+0002
 11
 6.26011011964000E+0002
 21
 2.65687151155200E+0002
  0
LINE
  8
0
 10
 6.26011011964000E+0002
 20
 2.65687151155200E+0002
 11
 6.26757596288500E+0002
 21
 2.78284786548800E+0002
  0
LINE
  8
0
 10
 6.26757596288500E+0002
 20
 2.78284786548800E+0002
 11
 6.27660455392000E+0002
 21
 2.90724736441600E+0002
  0
LINE
  8
0
 10
 6.27660455392000E+0002
 20
 2.90724736441600E+0002
 11
 6.28716256187500E+0002
 21
 3.03010381800000E+0002
  0
LINE
  8
0
 10
 6.28716256187500E+0002
 20
 3.03010381800000E+0002
 11
 6.29921665588000E+0002
 21
 3.15145103590400E+0002
  0
LINE
  8
0
 10
 6.29921665588000E+0002
 20
 3.15145103590400E+0002
 11
 6.31273350506500E+0002
 21
 3.27132282779200E+0002
  0
LINE
  8
0
 10
 6.31273350506500E+0002
 20
 3.27132282779200E+0002
 11
 6.32767977856000E+0002
 21
 3.38975300332800E+0002
  0
LINE
  8
0
 10
 6.32767977856000E+0002
 20
 3.38975300332800E+0002
 11
 6.34402214549500E+0002
 21
 3.50677537217600E+0002
  0
LINE
  8
0
 10
 6.34402214549500E+0002
 20
 3.50677537217600E+0002
 11
 6.36172727500000E+0002
 21
 3.62242374400000E+0002
  0
LINE
  8
0
 10
 6.36172727500000E+0002
 20
 3.62242374400000E+0002
 11
 6.38076183620500E+0002
 21
 3.73673192846400E+0002
  0
LINE
  8
0
 10
 6.38076183620500E+0002
 20
 3.73673192846400E+0002
 11
 6.40109249824000E+0002
 21
 3.84973373523200E+0002
  0
LINE
  8
0
 10
 6.40109249824000E+0002
 20
 3.84973373523200E+0002
 11
 6.42268593023500E+0002
 21
 3.96146297396800E+0002
  0
LINE
  8
0
 10
 6.42268593023500E+0002
 20
 3.96146297396800E+0002
 11
 6.44550880132000E+0002
 21
 4.07195345433600E+0002
  0
LINE
  8
0
 10
 6.44550880132000E+0002
 20
 4.07195345433600E+0002
 11
 6.46952778062500E+0002
 21
 4.18123898600000E+0002
  0
LINE
  8
0
 10
 6.46952778062500E+0002
 20
 4.18123898600000E+0002
 11
 6.49470953728000E+0002
 21
 4.28935337862400E+0002
  0
LINE
  8
0
 10
 6.49470953728000E+0002
 20
 4.28935337862400E+0002
 11
 6.52102074041500E+0002
 21
 4.39633044187200E+0002
  0
LINE
  8
0
 10
 6.52102074041500E+0002
 20
 4.39633044187200E+0002
 11
 6.54842805916000E+0002
 21
 4.50220398540800E+0002
  0
LINE
  8
0
 10
 6.54842805916000E+0002
 20
 4.50220398540800E+0002
 11
 6.57689816264500E+0002
 21
 4.60700781889600E+0002
  0
LINE
  8
0
 10
 6.57689816264500E+0002
 20
 4.60700781889600E+0002
 11
 6.60639772000000E+0002
 21
 4.71077575200000E+0002
  0
LINE
  8
0
 10
 6.60639772000000E+0002
 20
 4.71077575200000E+0002
 11
 6.63689340035500E+0002
 21
 4.81354159438400E+0002
  0
LINE
  8
0
 10
 6.63689340035500E+0002
 20
 4.81354159438400E+0002
 11
 6.66835187284000E+0002
 21
 4.91533915571200E+0002
  0
LINE
  8
0
 10
 6.66835187284000E+0002
 20
 4.91533915571200E+0002
 11
 6.70073980658500E+0002
 21
 5.01620224564800E+0002
  0
LINE
  8
0
 10
 6.70073980658500E+0002
 20
 5.01620224564800E+0002
 11
 6.73402387072000E+0002
 21
 5.11616467385600E+0002
  0
LINE
  8
0
 10
 6.73402387072000E+0002
 20
 5.11616467385600E+0002
 11
 6.76817073437500E+0002
 21
 5.21526025000000E+0002
  0
LINE
  8
0
 10
 6.76817073437500E+0002
 20
 5.21526025000000E+0002
 11
 6.80314706668000E+0002
 21
 5.31352278374400E+0002
  0
LINE
  8
0
 10
 6.80314706668000E+0002
 20
 5.31352278374400E+0002
 11
 6.83891953676500E+0002
 21
 5.41098608475200E+0002
  0
LINE
  8
0
 10
 6.83891953676500E+0002
 20
 5.41098608475200E+0002
 11
 6.87545481376000E+0002
 21
 5.50768396268800E+0002
  0
LINE
  8
0
 10
 6.87545481376000E+0002
 20
 5.50768396268800E+0002
 11
 6.91271956679500E+0002
 21
 5.60365022721600E+0002
  0
LINE
  8
0
 10
 6.91271956679500E+0002
 20
 5.60365022721600E+0002
 11
 6.95068046500000E+0002
 21
 5.69891868800000E+0002
  0
LINE
  8
0
 10
 6.95068046500000E+0002
 20
 5.69891868800000E+0002
 11
 6.98930417750500E+0002
 21
 5.79352315470400E+0002
  0
LINE
  8
0
 10
 6.98930417750500E+0002
 20
 5.79352315470400E+0002
 11
 7.02855737344000E+0002
 21
 5.88749743699200E+0002
  0
LINE
  8
0
 10
 7.02855737344000E+0002
 20
 5.88749743699200E+0002
 11
 7.06840672193500E+0002
 21
 5.98087534452800E+0002
  0
LINE
  8
0
 10
 7.06840672193500E+0002
 20
 5.98087534452800E+0002
 11
 7.10881889212000E+0002
 21
 6.07369068697600E+0002
  0
LINE
  8
0
 10
 7.10881889212000E+0002
 20
 6.07369068697600E+0002
 11
 7.14976055312500E+0002
 21
 6.16597727400000E+0002
  0
LINE
  8
0
 10
 7.14976055312500E+0002
 20
 6.16597727400000E+0002
 11
 7.19119837408000E+0002
 21
 6.25776891526400E+0002
  0
LINE
  8
0
 10
 7.19119837408000E+0002
 20
 6.25776891526400E+0002
 11
 7.23309902411500E+0002
 21
 6.34909942043200E+0002
  0
LINE
  8
0
 10
 7.23309902411500E+0002
 20
 6.34909942043200E+0002
 11
 7.27542917236000E+0002
 21
 6.44000259916800E+0002
  0
LINE
  8
0
 10
 7.27542917236000E+0002
 20
 6.44000259916800E+0002
 11
 7.31815548794500E+0002
 21
 6.53051226113600E+0002
  0
LINE
  8
0
 10
 7.31815548794500E+0002
 20
 6.53051226113600E+0002
 11
 7.36124464000000E+0002
 21
 6.62066221600000E+0002
  0
LINE
  8
0
 10
 7.36124464000000E+0002
 20
 6.62066221600000E+0002
 11
 7.40466329765500E+0002
 21
 6.71048627342400E+0002
  0
LINE
  8
0
 10
 7.40466329765500E+0002
 20
 6.71048627342400E+0002
 11
 7.44837813004000E+0002
 21
 6.80001824307200E+0002
  0
LINE
  8
0
 10
 7.44837813004000E+0002
 20
 6.80001824307200E+0002
 11
 7.49235580628500E+0002
 21
 6.88929193460800E+0002
  0
LINE
  8
0
 10
 7.49235580628500E+0002
 20
 6.88929193460800E+0002
 11
 7.53656299552000E+0002
 21
 6.97834115769600E+0002
  0
LINE
  8
0
 10
 7.53656299552000E+0002
 20
 6.97834115769600E+0002
 11
 7.58096636687500E+0002
 21
 7.06719972200000E+0002
  0
LINE
  8
0
 10
 7.58096636687500E+0002
 20
 7.06719972200000E+0002
 11
 7.62553258948000E+0002
 21
 7.15590143718400E+0002
  0
LINE
  8
0
 10
 7.62553258948000E+0002
 20
 7.15590143718400E+0002
 11
 7.67022833246500E+0002
 21
 7.24448011291200E+0002
  0
LINE
  8
0
 10
 7.67022833246500E+0002
 20
 7.24448011291200E+0002
 11
 7.71502026496000E+0002
 21
 7.33296955884800E+0002
  0
LINE
  8
0
 10
 7.71502026496000E+0002
 20
 7.33296955884800E+0002
 11
 7.75987505609500E+0002
 21
 7.42140358465600E+0002
  0
LINE
  8
0
 10
 7.75987505609500E+0002
 20
 7.42140358465600E+0002
 11
 7.80475937500000E+0002
 21
 7.50981600000000E+0002
  0
LINE
  8
0
 10
 7.80475937500000E+0002
 20
 7.50981600000000E+0002
 11
 7.84963989080500E+0002
 21
 7.59824061454400E+0002
  0
LINE
  8
0
 10
 7.84963989080500E+0002
 20
 7.59824061454400E+0002
 11
 7.89448327264000E+0002
 21
 7.68671123795200E+0002
  0
LINE
  8
0
 10
 7.89448327264000E+0002
 20
 7.68671123795200E+0002
 11
 7.93925618963500E+0002
 21
 7.77526167988800E+0002
  0
LINE
  8
0
 10
 7.93925618963500E+0002
 20
 7.77526167988800E+0002
 11
 7.98392531092000E+0002
 21
 7.86392575001600E+0002
  0
LINE
  8
0
 10
 7.98392531092000E+0002
 20
 7.86392575001600E+0002
 11
 8.02845730562500E+0002
 21
 7.95273725800000E+0002
  0
LINE
  8
0
 10
 8.02845730562500E+0002
 20
 7.95273725800000E+0002
 11
 8.07281884288000E+0002
 21
 8.04173001350400E+0002
  0
LINE
  8
0
 10
 8.07281884288000E+0002
 20
 8.04173001350400E+0002
 11
 8.11697659181500E+0002
 21
 8.13093782619200E+0002
  0
LINE
  8
0
 10
 8.11697659181500E+0002
 20
 8.13093782619200E+0002
 11
 8.16089722156000E+0002
 21
 8.22039450572800E+0002
  0
LINE
  8
0
 10
 8.16089722156000E+0002
 20
 8.22039450572800E+0002
 11
 8.20454740124500E+0002
 21
 8.31013386177600E+0002
  0
LINE
  8
0
 10
 8.20454740124500E+0002
 20
 8.31013386177600E+0002
 11
 8.24789380000000E+0002
 21
 8.40018970400000E+0002
  0
LINE
  8
0
 10
 8.24789380000000E+0002
 20
 8.40018970400000E+0002
 11
 8.29090308695500E+0002
 21
 8.49059584206400E+0002
  0
LINE
  8
0
 10
 8.29090308695500E+0002
 20
 8.49059584206400E+0002
 11
 8.33354193124000E+0002
 21
 8.58138608563200E+0002
  0
LINE
  8
0
 10
 8.33354193124000E+0002
 20
 8.58138608563200E+0002
 11
 8.37577700198500E+0002
 21
 8.67259424436800E+0002
  0
LINE
  8
0
 10
 8.37577700198500E+0002
 20
 8.67259424436800E+0002
 11
 8.41757496832000E+0002
 21
 8.76425412793600E+0002
  0
LINE
  8
0
 10
 8.41757496832000E+0002
 20
 8.76425412793600E+0002
 11
 8.45890249937500E+0002
 21
 8.85639954600000E+0002
  0
LINE
  8
0
 10
 8.45890249937500E+0002
 20
 8.85639954600000E+0002
 11
 8.49972626428000E+0002
 21
 8.94906430822400E+0002
  0
LINE
  8
0
 10
 8.49972626428000E+0002
 20
 8.94906430822400E+0002
 11
 8.54001293216500E+0002
 21
 9.04228222427200E+0002
  0
LINE
  8
0
 10
 8.54001293216500E+0002
 20
 9.04228222427200E+0002
 11
 8.57972917216000E+0002
 21
 9.13608710380800E+0002
  0
LINE
  8
0
 10
 8.57972917216000E+0002
 20
 9.13608710380800E+0002
 11
 8.61884165339500E+0002
 21
 9.23051275649600E+0002
  0
LINE
  8
0
 10
 8.61884165339500E+0002
 20
 9.23051275649600E+0002
 11
 8.65731704500000E+0002
 21
 9.32559299200000E+0002
  0
LINE
  8
0
 10
 8.65731704500000E+0002
 20
 9.32559299200000E+0002
 11
 8.69512201610500E+0002
 21
 9.42136161998400E+0002
  0
LINE
  8
0
 10
 8.69512201610500E+0002
 20
 9.42136161998400E+0002
 11
 8.73222323584000E+0002
 21
 9.51785245011200E+0002
  0
LINE
  8
0
 10
 8.73222323584000E+0002
 20
 9.51785245011200E+0002
 11
 8.76858737333500E+0002
 21
 9.61509929204800E+0002
  0
LINE
  8
0
 10
 8.76858737333500E+0002
 20
 9.61509929204800E+0002
 11
 8.80418109772000E+0002
 21
 9.71313595545600E+0002
  0
LINE
  8
0
 10
 8.80418109772000E+0002
 20
 9.71313595545600E+0002
 11
 8.83897107812500E+0002
 21
 9.81199625000000E+0002
  0
LINE
  8
0
 10
 8.83897107812500E+0002
 20
 9.81199625000000E+0002
 11
 8.87292398368000E+0002
 21
 9.91171398534400E+0002
  0
LINE
  8
0
 10
 8.87292398368000E+0002
 20
 9.91171398534400E+0002
 11
 8.90600648351500E+0002
 21
 1.00123229711520E+0003
  0
LINE
  8
0
 10
 8.90600648351500E+0002
 20
 1.00123229711520E+0003
 11
 8.93818524676000E+0002
 21
 1.01138570170880E+0003
  0
LINE
  8
0
 10
 8.93818524676000E+0002
 20
 1.01138570170880E+0003
 11
 8.96942694254500E+0002
 21
 1.02163499328160E+0003
  0
LINE
  8
0
 10
 8.96942694254500E+0002
 20
 1.02163499328160E+0003
 11
 8.99969824000000E+0002
 21
 1.03198355280000E+0003
  0
LINE
  8
0
 10
 8.99969824000000E+0002
 20
 1.03198355280000E+0003
 11
 9.02896580825500E+0002
 21
 1.04243476123040E+0003
  0
LINE
  8
0
 10
 9.02896580825500E+0002
 20
 1.04243476123040E+0003
 11
 9.05719631644000E+0002
 21
 1.05299199953920E+0003
  0
LINE
  8
0
 10
 9.05719631644000E+0002
 20
 1.05299199953920E+0003
 11
 9.08435643368500E+0002
 21
 1.06365864869280E+0003
  0
LINE
  8
0
 10
 9.08435643368500E+0002
 20
 1.06365864869280E+0003
 11
 9.11041282912000E+0002
 21
 1.07443808965760E+0003
  0
LINE
  8
0
 10
 9.11041282912000E+0002
 20
 1.07443808965760E+0003
 11
 9.13533217187500E+0002
 21
 1.08533370340000E+0003
  0
LINE
  8
0
 10
 9.13533217187500E+0002
 20
 1.08533370340000E+0003
 11
 9.15908113108000E+0002
 21
 1.09634887088640E+0003
  0
LINE
  8
0
 10
 9.15908113108000E+0002
 20
 1.09634887088640E+0003
 11
 9.18162637586500E+0002
 21
 1.10748697308320E+0003
  0
LINE
  8
0
 10
 9.18162637586500E+0002
 20
 1.10748697308320E+0003
 11
 9.20293457536000E+0002
 21
 1.11875139095680E+0003
  0
LINE
  8
0
 10
 9.20293457536000E+0002
 20
 1.11875139095680E+0003
 11
 9.22297239869500E+0002
 21
 1.13014550547360E+0003
  0
LINE
  8
0
 10
 9.22297239869500E+0002
 20
 1.13014550547360E+0003
 11
 9.24170651500000E+0002
 21
 1.14167269760000E+0003
  0
LINE
  8
0
 10
 9.24170651500000E+0002
 20
 1.14167269760000E+0003
 11
 9.25910359340500E+0002
 21
 1.15333634830240E+0003
  0
LINE
  8
0
 10
 9.25910359340500E+0002
 20
 1.15333634830240E+0003
 11
 9.27513030304000E+0002
 21
 1.16513983854720E+0003
  0
LINE
  8
0
 10
 9.27513030304000E+0002
 20
 1.16513983854720E+0003
 11
 9.28975331303500E+0002
 21
 1.17708654930080E+0003
  0
LINE
  8
0
 10
 9.28975331303500E+0002
 20
 1.17708654930080E+0003
 11
 9.30293929252000E+0002
 21
 1.18917986152960E+0003
  0
LINE
  8
0
 10
 9.30293929252000E+0002
 20
 1.18917986152960E+0003
 11
 9.31465491062500E+0002
 21
 1.20142315620000E+0003
  0
LINE
  8
0
 10
 9.31465491062500E+0002
 20
 1.20142315620000E+0003
 11
 9.32486683648000E+0002
 21
 1.21381981427840E+0003
  0
LINE
  8
0
 10
 9.32486683648000E+0002
 20
 1.21381981427840E+0003
 11
 9.33354173921500E+0002
 21
 1.22637321673120E+0003
  0
LINE
  8
0
 10
 9.33354173921500E+0002
 20
 1.22637321673120E+0003
 11
 9.34064628796000E+0002
 21
 1.23908674452480E+0003
  0
LINE
  8
0
 10
 9.34064628796000E+0002
 20
 1.23908674452480E+0003
 11
 9.34614715184500E+0002
 21
 1.25196377862560E+0003
  0
LINE
  8
0
 10
 9.34614715184500E+0002
 20
 1.25196377862560E+0003
 11
 9.35001100000000E+0002
 21
 1.26500770000000E+0003
  0
LINE
  8
0
 10
 9.35001100000000E+0002
 20
 1.26500770000000E+0003
 11
 9.35000000000000E+0002
 21
 1.30700000000000E+0003
  0
LINE
  8
0
 10
 9.35000000000000E+0002
 20
 1.30700000000000E+0003
 11
 9.80000509446390E+0002
 21
 1.29538091843480E+0003
  0
ARC
  8
0
 10
 9.83000000000000E+0002
 20
 1.30700000000000E+0003
 40
 1.20000000000000E+0001
 50
 2.55525000000000E+0002
 51
 3.93805000000000E+0002
  0
LINE
  8
0
 10
 9.92971231041917E+0002
 20
 1.31367641756549E+0003
 11
 9.05000000000000E+0002
 21
 1.44500000000000E+0003
  0
LINE
  8
0
 10
 9.05000000000000E+0002
 20
 1.44500000000000E+0003
 11
 8.17028768958083E+0002
 21
 1.31367641756549E+0003
  0
ARC
  8
0
 10
 8.27000000000000E+0002
 20
 1.30700000000000E+0003
 40
 1.20000000000000E+0001
 50
 1.46195000000000E+0002
 51
 2.84475000000000E+0002
  0
LINE
  8
0
 10
 8.29999490553610E+0002
 20
 1.29538091843480E+0003
 11
 8.75000000000000E+0002
 21
 1.30700000000000E+0003
  0
LINE
  8
0
 10
 8.75000000000000E+0002
 20
 1.30700000000000E+0003
 11
 8.75000000000000E+0002
 21
 1.26500000000000E+0003
  0
LINE
  8
0
 10
 1.14500000000000E+0003
 20
 1.26500000000000E+0003
 11
 1.14538638413110E+0003
 21
 1.25195630732330E+0003
  0
LINE
  8
0
 10
 1.14538638413110E+0003
 20
 1.25195630732330E+0003
 11
 1.14593646848880E+0003
 21
 1.23907949734640E+0003
  0
LINE
  8
0
 10
 1.14593646848880E+0003
 20
 1.23907949734640E+0003
 11
 1.14664692001970E+0003
 21
 1.22636618914910E+0003
  0
LINE
  8
0
 10
 1.14664692001970E+0003
 20
 1.22636618914910E+0003
 11
 1.14751440567040E+0003
 21
 1.21381300181120E+0003
  0
LINE
  8
0
 10
 1.14751440567040E+0003
 20
 1.21381300181120E+0003
 11
 1.14853559238750E+0003
 21
 1.20141655441250E+0003
  0
LINE
  8
0
 10
 1.14853559238750E+0003
 20
 1.20141655441250E+0003
 11
 1.14970714711760E+0003
 21
 1.18917346603280E+0003
  0
LINE
  8
0
 10
 1.14970714711760E+0003
 20
 1.18917346603280E+0003
 11
 1.15102573680730E+0003
 21
 1.17708035575190E+0003
  0
LINE
  8
0
 10
 1.15102573680730E+0003
 20
 1.17708035575190E+0003
 11
 1.15248802840320E+0003
 21
 1.16513384264960E+0003
  0
LINE
  8
0
 10
 1.15248802840320E+0003
 20
 1.16513384264960E+0003
 11
 1.15409068885190E+0003
 21
 1.15333054580570E+0003
  0
LINE
  8
0
 10
 1.15409068885190E+0003
 20
 1.15333054580570E+0003
 11
 1.15583038510000E+0003
 21
 1.14166708430000E+0003
  0
LINE
  8
0
 10
 1.15583038510000E+0003
 20
 1.14166708430000E+0003
 11
 1.15770378409410E+0003
 21
 1.13014007721230E+0003
  0
LINE
  8
0
 10
 1.15770378409410E+0003
 20
 1.13014007721230E+0003
 11
 1.15970755278080E+0003
 21
 1.11874614362240E+0003
  0
LINE
  8
0
 10
 1.15970755278080E+0003
 20
 1.11874614362240E+0003
 11
 1.16183835810670E+0003
 21
 1.10748190261010E+0003
  0
LINE
  8
0
 10
 1.16183835810670E+0003
 20
 1.10748190261010E+0003
 11
 1.16409286701840E+0003
 21
 1.09634397325520E+0003
  0
LINE
  8
0
 10
 1.16409286701840E+0003
 20
 1.09634397325520E+0003
 11
 1.16646774646250E+0003
 21
 1.08532897463750E+0003
  0
LINE
  8
0
 10
 1.16646774646250E+0003
 20
 1.08532897463750E+0003
 11
 1.16895966338560E+0003
 21
 1.07443352583680E+0003
  0
LINE
  8
0
 10
 1.16895966338560E+0003
 20
 1.07443352583680E+0003
 11
 1.17156528473430E+0003
 21
 1.06365424593290E+0003
  0
LINE
  8
0
 10
 1.17156528473430E+0003
 20
 1.06365424593290E+0003
 11
 1.17428127745520E+0003
 21
 1.05298775400560E+0003
  0
LINE
  8
0
 10
 1.17428127745520E+0003
 20
 1.05298775400560E+0003
 11
 1.17710430849490E+0003
 21
 1.04243066913470E+0003
  0
LINE
  8
0
 10
 1.17710430849490E+0003
 20
 1.04243066913470E+0003
 11
 1.18003104480000E+0003
 21
 1.03197961040000E+0003
  0
LINE
  8
0
 10
 1.18003104480000E+0003
 20
 1.03197961040000E+0003
 11
 1.18305815331710E+0003
 21
 1.02163119688130E+0003
  0
LINE
  8
0
 10
 1.18305815331710E+0003
 20
 1.02163119688130E+0003
 11
 1.18618230099280E+0003
 21
 1.01138204765840E+0003
  0
LINE
  8
0
 10
 1.18618230099280E+0003
 20
 1.01138204765840E+0003
 11
 1.18940015477370E+0003
 21
 1.00122878181110E+0003
  0
LINE
  8
0
 10
 1.18940015477370E+0003
 20
 1.00122878181110E+0003
 11
 1.19270838160640E+0003
 21
 9.91168018419200E+0002
  0
LINE
  8
0
 10
 1.19270838160640E+0003
 20
 9.91168018419200E+0002
 11
 1.19610364843750E+0003
 21
 9.81196376562500E+0002
  0
LINE
  8
0
 10
 1.19610364843750E+0003
 20
 9.81196376562500E+0002
 11
 1.19958262221360E+0003
 21
 9.71310475320800E+0002
  0
LINE
  8
0
 10
 1.19958262221360E+0003
 20
 9.71310475320800E+0002
 11
 1.20314196988130E+0003
 21
 9.61506933773900E+0002
  0
LINE
  8
0
 10
 1.20314196988130E+0003
 20
 9.61506933773900E+0002
 11
 1.20677835838720E+0003
 21
 9.51782371001600E+0002
  0
LINE
  8
0
 10
 1.20677835838720E+0003
 20
 9.51782371001600E+0002
 11
 1.21048845467790E+0003
 21
 9.42133406083700E+0002
  0
LINE
  8
0
 10
 1.21048845467790E+0003
 20
 9.42133406083700E+0002
 11
 1.21426892570000E+0003
 21
 9.32556658100000E+0002
  0
LINE
  8
0
 10
 1.21426892570000E+0003
 20
 9.32556658100000E+0002
 11
 1.21811643840010E+0003
 21
 9.23048746130300E+0002
  0
LINE
  8
0
 10
 1.21811643840010E+0003
 20
 9.23048746130300E+0002
 11
 1.22202765972480E+0003
 21
 9.13606289254400E+0002
  0
LINE
  8
0
 10
 1.22202765972480E+0003
 20
 9.13606289254400E+0002
 11
 1.22599925662070E+0003
 21
 9.04225906552100E+0002
  0
LINE
  8
0
 10
 1.22599925662070E+0003
 20
 9.04225906552100E+0002
 11
 1.23002789603440E+0003
 21
 8.94904217103200E+0002
  0
LINE
  8
0
 10
 1.23002789603440E+0003
 20
 8.94904217103200E+0002
 11
 1.23411024491250E+0003
 21
 8.85637839987500E+0002
  0
LINE
  8
0
 10
 1.23411024491250E+0003
 20
 8.85637839987500E+0002
 11
 1.23824297020160E+0003
 21
 8.76423394284800E+0002
  0
LINE
  8
0
 10
 1.23824297020160E+0003
 20
 8.76423394284800E+0002
 11
 1.24242273884830E+0003
 21
 8.67257499074900E+0002
  0
LINE
  8
0
 10
 1.24242273884830E+0003
 20
 8.67257499074900E+0002
 11
 1.24664621779920E+0003
 21
 8.58136773437600E+0002
  0
LINE
  8
0
 10
 1.24664621779920E+0003
 20
 8.58136773437600E+0002
 11
 1.25091007400090E+0003
 21
 8.49057836452700E+0002
  0
LINE
  8
0
 10
 1.25091007400090E+0003
 20
 8.49057836452700E+0002
 11
 1.25521097440000E+0003
 21
 8.40017307200000E+0002
  0
LINE
  8
0
 10
 1.25521097440000E+0003
 20
 8.40017307200000E+0002
 11
 1.25954558594310E+0003
 21
 8.31011804759300E+0002
  0
LINE
  8
0
 10
 1.25954558594310E+0003
 20
 8.31011804759300E+0002
 11
 1.26391057557680E+0003
 21
 8.22037948210400E+0002
  0
LINE
  8
0
 10
 1.26391057557680E+0003
 20
 8.22037948210400E+0002
 11
 1.26830261024770E+0003
 21
 8.13092356633100E+0002
  0
LINE
  8
0
 10
 1.26830261024770E+0003
 20
 8.13092356633100E+0002
 11
 1.27271835690240E+0003
 21
 8.04171649107200E+0002
  0
LINE
  8
0
 10
 1.27271835690240E+0003
 20
 8.04171649107200E+0002
 11
 1.27715448248750E+0003
 21
 7.95272444712500E+0002
  0
LINE
  8
0
 10
 1.27715448248750E+0003
 20
 7.95272444712500E+0002
 11
 1.28160765394960E+0003
 21
 7.86391362528800E+0002
  0
LINE
  8
0
 10
 1.28160765394960E+0003
 20
 7.86391362528800E+0002
 11
 1.28607453823530E+0003
 21
 7.77525021635900E+0002
  0
LINE
  8
0
 10
 1.28607453823530E+0003
 20
 7.77525021635900E+0002
 11
 1.29055180229120E+0003
 21
 7.68670041113600E+0002
  0
LINE
  8
0
 10
 1.29055180229120E+0003
 20
 7.68670041113600E+0002
 11
 1.29503611306390E+0003
 21
 7.59823040041700E+0002
  0
LINE
  8
0
 10
 1.29503611306390E+0003
 20
 7.59823040041700E+0002
 11
 1.29952413750000E+0003
 21
 7.50980637500000E+0002
  0
LINE
  8
0
 10
 1.29952413750000E+0003
 20
 7.50980637500000E+0002
 11
 1.30401254254610E+0003
 21
 7.42139452568300E+0002
  0
LINE
  8
0
 10
 1.30401254254610E+0003
 20
 7.42139452568300E+0002
 11
 1.30849799514880E+0003
 21
 7.33296104326400E+0002
  0
LINE
  8
0
 10
 1.30849799514880E+0003
 20
 7.33296104326400E+0002
 11
 1.31297716225470E+0003
 21
 7.24447211854100E+0002
  0
LINE
  8
0
 10
 1.31297716225470E+0003
 20
 7.24447211854100E+0002
 11
 1.31744671081040E+0003
 21
 7.15589394231200E+0002
  0
LINE
  8
0
 10
 1.31744671081040E+0003
 20
 7.15589394231200E+0002
 11
 1.32190330776250E+0003
 21
 7.06719270537500E+0002
  0
LINE
  8
0
 10
 1.32190330776250E+0003
 20
 7.06719270537500E+0002
 11
 1.32634362005760E+0003
 21
 6.97833459852800E+0002
  0
LINE
  8
0
 10
 1.32634362005760E+0003
 20
 6.97833459852800E+0002
 11
 1.33076431464230E+0003
 21
 6.88928581256900E+0002
  0
LINE
  8
0
 10
 1.33076431464230E+0003
 20
 6.88928581256900E+0002
 11
 1.33516205846320E+0003
 21
 6.80001253829600E+0002
  0
LINE
  8
0
 10
 1.33516205846320E+0003
 20
 6.80001253829600E+0002
 11
 1.33953351846690E+0003
 21
 6.71048096650700E+0002
  0
LINE
  8
0
 10
 1.33953351846690E+0003
 20
 6.71048096650700E+0002
 11
 1.34387536160000E+0003
 21
 6.62065728800000E+0002
  0
LINE
  8
0
 10
 1.34387536160000E+0003
 20
 6.62065728800000E+0002
 11
 1.34818425480910E+0003
 21
 6.53050769357300E+0002
  0
LINE
  8
0
 10
 1.34818425480910E+0003
 20
 6.53050769357300E+0002
 11
 1.35245686504080E+0003
 21
 6.43999837402400E+0002
  0
LINE
  8
0
 10
 1.35245686504080E+0003
 20
 6.43999837402400E+0002
 11
 1.35668985924170E+0003
 21
 6.34909552015100E+0002
  0
LINE
  8
0
 10
 1.35668985924170E+0003
 20
 6.34909552015100E+0002
 11
 1.36087990435840E+0003
 21
 6.25776532275200E+0002
  0
LINE
  8
0
 10
 1.36087990435840E+0003
 20
 6.25776532275200E+0002
 11
 1.36502366733750E+0003
 21
 6.16597397262500E+0002
  0
LINE
  8
0
 10
 1.36502366733750E+0003
 20
 6.16597397262500E+0002
 11
 1.36911781512560E+0003
 21
 6.07368766056800E+0002
  0
LINE
  8
0
 10
 1.36911781512560E+0003
 20
 6.07368766056800E+0002
 11
 1.37315901466930E+0003
 21
 5.98087257737900E+0002
  0
LINE
  8
0
 10
 1.37315901466930E+0003
 20
 5.98087257737900E+0002
 11
 1.37714393291520E+0003
 21
 5.88749491385600E+0002
  0
LINE
  8
0
 10
 1.37714393291520E+0003
 20
 5.88749491385600E+0002
 11
 1.38106923680990E+0003
 21
 5.79352086079700E+0002
  0
LINE
  8
0
 10
 1.38106923680990E+0003
 20
 5.79352086079700E+0002
 11
 1.38493159330000E+0003
 21
 5.69891660900000E+0002
  0
LINE
  8
0
 10
 1.38493159330000E+0003
 20
 5.69891660900000E+0002
 11
 1.38872766933210E+0003
 21
 5.60364834926300E+0002
  0
LINE
  8
0
 10
 1.38872766933210E+0003
 20
 5.60364834926300E+0002
 11
 1.39245413185280E+0003
 21
 5.50768227238400E+0002
  0
LINE
  8
0
 10
 1.39245413185280E+0003
 20
 5.50768227238400E+0002
 11
 1.39610764780870E+0003
 21
 5.41098456916100E+0002
  0
LINE
  8
0
 10
 1.39610764780870E+0003
 20
 5.41098456916100E+0002
 11
 1.39968488414640E+0003
 21
 5.31352143039200E+0002
  0
LINE
  8
0
 10
 1.39968488414640E+0003
 20
 5.31352143039200E+0002
 11
 1.40318250781250E+0003
 21
 5.21525904687500E+0002
  0
LINE
  8
0
 10
 1.40318250781250E+0003
 20
 5.21525904687500E+0002
 11
 1.40659718575360E+0003
 21
 5.11616360940800E+0002
  0
LINE
  8
0
 10
 1.40659718575360E+0003
 20
 5.11616360940800E+0002
 11
 1.40992558491630E+0003
 21
 5.01620130878900E+0002
  0
LINE
  8
0
 10
 1.40992558491630E+0003
 20
 5.01620130878900E+0002
 11
 1.41316437224720E+0003
 21
 4.91533833581600E+0002
  0
LINE
  8
0
 10
 1.41316437224720E+0003
 20
 4.91533833581600E+0002
 11
 1.41631021469290E+0003
 21
 4.81354088128700E+0002
  0
LINE
  8
0
 10
 1.41631021469290E+0003
 20
 4.81354088128700E+0002
 11
 1.41935977920000E+0003
 21
 4.71077513600000E+0002
  0
LINE
  8
0
 10
 1.41935977920000E+0003
 20
 4.71077513600000E+0002
 11
 1.42230973271510E+0003
 21
 4.60700729075300E+0002
  0
LINE
  8
0
 10
 1.42230973271510E+0003
 20
 4.60700729075300E+0002
 11
 1.42515674218480E+0003
 21
 4.50220353634400E+0002
  0
LINE
  8
0
 10
 1.42515674218480E+0003
 20
 4.50220353634400E+0002
 11
 1.42789747455570E+0003
 21
 4.39633006357100E+0002
  0
LINE
  8
0
 10
 1.42789747455570E+0003
 20
 4.39633006357100E+0002
 11
 1.43052859677440E+0003
 21
 4.28935306323200E+0002
  0
LINE
  8
0
 10
 1.43052859677440E+0003
 20
 4.28935306323200E+0002
 11
 1.43304677578750E+0003
 21
 4.18123872612500E+0002
  0
LINE
  8
0
 10
 1.43304677578750E+0003
 20
 4.18123872612500E+0002
 11
 1.43544867854160E+0003
 21
 4.07195324304800E+0002
  0
LINE
  8
0
 10
 1.43544867854160E+0003
 20
 4.07195324304800E+0002
 11
 1.43773097198330E+0003
 21
 3.96146280479900E+0002
  0
LINE
  8
0
 10
 1.43773097198330E+0003
 20
 3.96146280479900E+0002
 11
 1.43989032305920E+0003
 21
 3.84973360217600E+0002
  0
LINE
  8
0
 10
 1.43989032305920E+0003
 20
 3.84973360217600E+0002
 11
 1.44192339871590E+0003
 21
 3.73673182597700E+0002
  0
LINE
  8
0
 10
 1.44192339871590E+0003
 20
 3.73673182597700E+0002
 11
 1.44382686590000E+0003
 21
 3.62242366700000E+0002
  0
LINE
  8
0
 10
 1.44382686590000E+0003
 20
 3.62242366700000E+0002
 11
 1.44559739155810E+0003
 21
 3.50677531604300E+0002
  0
LINE
  8
0
 10
 1.44559739155810E+0003
 20
 3.50677531604300E+0002
 11
 1.44723164263680E+0003
 21
 3.38975296390400E+0002
  0
LINE
  8
0
 10
 1.44723164263680E+0003
 20
 3.38975296390400E+0002
 11
 1.44872628608270E+0003
 21
 3.27132280138100E+0002
  0
LINE
  8
0
 10
 1.44872628608270E+0003
 20
 3.27132280138100E+0002
 11
 1.45007798884240E+0003
 21
 3.15145101927200E+0002
  0
LINE
  8
0
 10
 1.45007798884240E+0003
 20
 3.15145101927200E+0002
 11
 1.45128341786250E+0003
 21
 3.03010380837500E+0002
  0
LINE
  8
0
 10
 1.45128341786250E+0003
 20
 3.03010380837500E+0002
 11
 1.45233924008960E+0003
 21
 2.90724735948800E+0002
  0
LINE
  8
0
 10
 1.45233924008960E+0003
 20
 2.90724735948800E+0002
 11
 1.45324212247030E+0003
 21
 2.78284786340900E+0002
  0
LINE
  8
0
 10
 1.45324212247030E+0003
 20
 2.78284786340900E+0002
 11
 1.45398873195120E+0003
 21
 2.65687151093600E+0002
  0
LINE
  8
0
 10
 1.45398873195120E+0003
 20
 2.65687151093600E+0002
 11
 1.45457573547890E+0003
 21
 2.52928449286700E+0002
  0
LINE
  8
0
 10
 1.45457573547890E+0003
 20
 2.52928449286700E+0002
 11
 1.45499980000000E+0003
 21
 2.40005300000000E+0002
  0
LINE
  8
0
 10
 1.45499980000000E+0003
 20
 2.40005300000000E+0002
 11
 1.45500000000000E+0003
 21
 1.55000000000000E+0002
  0
LINE
  8
0
 10
 1.45500000000000E+0003
 20
 1.55000000000000E+0002
 11
 1.39500000000000E+0003
 21
 1.55000000000000E+0002
  0
LINE
  8
0
 10
 1.39500000000000E+0003
 20
 1.55000000000000E+0002
 11
 1.39500000000000E+0003
 21
 2.40005300000000E+0002
  0
LINE
  8
0
 10
 1.39500000000000E+0003
 20
 2.40005300000000E+0002
 11
 1.39457596449450E+0003
 21
 2.52928449294400E+0002
  0
LINE
  8
0
 10
 1.39457596449450E+0003
 20
 2.52928449294400E+0002
 11
 1.39398898803600E+0003
 21
 2.65687151155200E+0002
  0
LINE
  8
0
 10
 1.39398898803600E+0003
 20
 2.65687151155200E+0002
 11
 1.39324240371150E+0003
 21
 2.78284786548800E+0002
  0
LINE
  8
0
 10
 1.39324240371150E+0003
 20
 2.78284786548800E+0002
 11
 1.39233954460800E+0003
 21
 2.90724736441600E+0002
  0
LINE
  8
0
 10
 1.39233954460800E+0003
 20
 2.90724736441600E+0002
 11
 1.39128374381250E+0003
 21
 3.03010381800000E+0002
  0
LINE
  8
0
 10
 1.39128374381250E+0003
 20
 3.03010381800000E+0002
 11
 1.39007833441200E+0003
 21
 3.15145103590400E+0002
  0
LINE
  8
0
 10
 1.39007833441200E+0003
 20
 3.15145103590400E+0002
 11
 1.38872664949350E+0003
 21
 3.27132282779200E+0002
  0
LINE
  8
0
 10
 1.38872664949350E+0003
 20
 3.27132282779200E+0002
 11
 1.38723202214400E+0003
 21
 3.38975300332800E+0002
  0
LINE
  8
0
 10
 1.38723202214400E+0003
 20
 3.38975300332800E+0002
 11
 1.38559778545050E+0003
 21
 3.50677537217600E+0002
  0
LINE
  8
0
 10
 1.38559778545050E+0003
 20
 3.50677537217600E+0002
 11
 1.38382727250000E+0003
 21
 3.62242374400000E+0002
  0
LINE
  8
0
 10
 1.38382727250000E+0003
 20
 3.62242374400000E+0002
 11
 1.38192381637950E+0003
 21
 3.73673192846400E+0002
  0
LINE
  8
0
 10
 1.38192381637950E+0003
 20
 3.73673192846400E+0002
 11
 1.37989075017600E+0003
 21
 3.84973373523200E+0002
  0
LINE
  8
0
 10
 1.37989075017600E+0003
 20
 3.84973373523200E+0002
 11
 1.37773140697650E+0003
 21
 3.96146297396800E+0002
  0
LINE
  8
0
 10
 1.37773140697650E+0003
 20
 3.96146297396800E+0002
 11
 1.37544911986800E+0003
 21
 4.07195345433600E+0002
  0
LINE
  8
0
 10
 1.37544911986800E+0003
 20
 4.07195345433600E+0002
 11
 1.37304722193750E+0003
 21
 4.18123898600000E+0002
  0
LINE
  8
0
 10
 1.37304722193750E+0003
 20
 4.18123898600000E+0002
 11
 1.37052904627200E+0003
 21
 4.28935337862400E+0002
  0
LINE
  8
0
 10
 1.37052904627200E+0003
 20
 4.28935337862400E+0002
 11
 1.36789792595850E+0003
 21
 4.39633044187200E+0002
  0
LINE
  8
0
 10
 1.36789792595850E+0003
 20
 4.39633044187200E+0002
 11
 1.36515719408400E+0003
 21
 4.50220398540800E+0002
  0
LINE
  8
0
 10
 1.36515719408400E+0003
 20
 4.50220398540800E+0002
 11
 1.36231018373550E+0003
 21
 4.60700781889600E+0002
  0
LINE
  8
0
 10
 1.36231018373550E+0003
 20
 4.60700781889600E+0002
 11
 1.35936022800000E+0003
 21
 4.71077575200000E+0002
  0
LINE
  8
0
 10
 1.35936022800000E+0003
 20
 4.71077575200000E+0002
 11
 1.35631065996450E+0003
 21
 4.81354159438400E+0002
  0
LINE
  8
0
 10
 1.35631065996450E+0003
 20
 4.81354159438400E+0002
 11
 1.35316481271600E+0003
 21
 4.91533915571200E+0002
  0
LINE
  8
0
 10
 1.35316481271600E+0003
 20
 4.91533915571200E+0002
 11
 1.34992601934150E+0003
 21
 5.01620224564800E+0002
  0
LINE
  8
0
 10
 1.34992601934150E+0003
 20
 5.01620224564800E+0002
 11
 1.34659761292800E+0003
 21
 5.11616467385600E+0002
  0
LINE
  8
0
 10
 1.34659761292800E+0003
 20
 5.11616467385600E+0002
 11
 1.34318292656250E+0003
 21
 5.21526025000000E+0002
  0
LINE
  8
0
 10
 1.34318292656250E+0003
 20
 5.21526025000000E+0002
 11
 1.33968529333200E+0003
 21
 5.31352278374400E+0002
  0
LINE
  8
0
 10
 1.33968529333200E+0003
 20
 5.31352278374400E+0002
 11
 1.33610804632350E+0003
 21
 5.41098608475200E+0002
  0
LINE
  8
0
 10
 1.33610804632350E+0003
 20
 5.41098608475200E+0002
 11
 1.33245451862400E+0003
 21
 5.50768396268800E+0002
  0
LINE
  8
0
 10
 1.33245451862400E+0003
 20
 5.50768396268800E+0002
 11
 1.32872804332050E+0003
 21
 5.60365022721600E+0002
  0
LINE
  8
0
 10
 1.32872804332050E+0003
 20
 5.60365022721600E+0002
 11
 1.32493195350000E+0003
 21
 5.69891868800000E+0002
  0
LINE
  8
0
 10
 1.32493195350000E+0003
 20
 5.69891868800000E+0002
 11
 1.32106958224950E+0003
 21
 5.79352315470400E+0002
  0
LINE
  8
0
 10
 1.32106958224950E+0003
 20
 5.79352315470400E+0002
 11
 1.31714426265600E+0003
 21
 5.88749743699200E+0002
  0
LINE
  8
0
 10
 1.31714426265600E+0003
 20
 5.88749743699200E+0002
 11
 1.31315932780650E+0003
 21
 5.98087534452800E+0002
  0
LINE
  8
0
 10
 1.31315932780650E+0003
 20
 5.98087534452800E+0002
 11
 1.30911811078800E+0003
 21
 6.07369068697600E+0002
  0
LINE
  8
0
 10
 1.30911811078800E+0003
 20
 6.07369068697600E+0002
 11
 1.30502394468750E+0003
 21
 6.16597727400000E+0002
  0
LINE
  8
0
 10
 1.30502394468750E+0003
 20
 6.16597727400000E+0002
 11
 1.30088016259200E+0003
 21
 6.25776891526400E+0002
  0
LINE
  8
0
 10
 1.30088016259200E+0003
 20
 6.25776891526400E+0002
 11
 1.29669009758850E+0003
 21
 6.34909942043200E+0002
  0
LINE
  8
0
 10
 1.29669009758850E+0003
 20
 6.34909942043200E+0002
 11
 1.29245708276400E+0003
 21
 6.44000259916800E+0002
  0
LINE
  8
0
 10
 1.29245708276400E+0003
 20
 6.44000259916800E+0002
 11
 1.28818445120550E+0003
 21
 6.53051226113600E+0002
  0
LINE
  8
0
 10
 1.28818445120550E+0003
 20
 6.53051226113600E+0002
 11
 1.28387553600000E+0003
 21
 6.62066221600000E+0002
  0
LINE
  8
0
 10
 1.28387553600000E+0003
 20
 6.62066221600000E+0002
 11
 1.27953367023450E+0003
 21
 6.71048627342400E+0002
  0
LINE
  8
0
 10
 1.27953367023450E+0003
 20
 6.71048627342400E+0002
 11
 1.27516218699600E+0003
 21
 6.80001824307200E+0002
  0
LINE
  8
0
 10
 1.27516218699600E+0003
 20
 6.80001824307200E+0002
 11
 1.27076441937150E+0003
 21
 6.88929193460800E+0002
  0
LINE
  8
0
 10
 1.27076441937150E+0003
 20
 6.88929193460800E+0002
 11
 1.26634370044800E+0003
 21
 6.97834115769600E+0002
  0
LINE
  8
0
 10
 1.26634370044800E+0003
 20
 6.97834115769600E+0002
 11
 1.26190336331250E+0003
 21
 7.06719972200000E+0002
  0
LINE
  8
0
 10
 1.26190336331250E+0003
 20
 7.06719972200000E+0002
 11
 1.25744674105200E+0003
 21
 7.15590143718400E+0002
  0
LINE
  8
0
 10
 1.25744674105200E+0003
 20
 7.15590143718400E+0002
 11
 1.25297716675350E+0003
 21
 7.24448011291200E+0002
  0
LINE
  8
0
 10
 1.25297716675350E+0003
 20
 7.24448011291200E+0002
 11
 1.24849797350400E+0003
 21
 7.33296955884800E+0002
  0
LINE
  8
0
 10
 1.24849797350400E+0003
 20
 7.33296955884800E+0002
 11
 1.24401249439050E+0003
 21
 7.42140358465600E+0002
  0
LINE
  8
0
 10
 1.24401249439050E+0003
 20
 7.42140358465600E+0002
 11
 1.23952406250000E+0003
 21
 7.50981600000000E+0002
  0
LINE
  8
0
 10
 1.23952406250000E+0003
 20
 7.50981600000000E+0002
 11
 1.23503601091950E+0003
 21
 7.59824061454400E+0002
  0
LINE
  8
0
 10
 1.23503601091950E+0003
 20
 7.59824061454400E+0002
 11
 1.23055167273600E+0003
 21
 7.68671123795200E+0002
  0
LINE
  8
0
 10
 1.23055167273600E+0003
 20
 7.68671123795200E+0002
 11
 1.22607438103650E+0003
 21
 7.77526167988800E+0002
  0
LINE
  8
0
 10
 1.22607438103650E+0003
 20
 7.77526167988800E+0002
 11
 1.22160746890800E+0003
 21
 7.86392575001600E+0002
  0
LINE
  8
0
 10
 1.22160746890800E+0003
 20
 7.86392575001600E+0002
 11
 1.21715426943750E+0003
 21
 7.95273725800000E+0002
  0
LINE
  8
0
 10
 1.21715426943750E+0003
 20
 7.95273725800000E+0002
 11
 1.21271811571200E+0003
 21
 8.04173001350400E+0002
  0
LINE
  8
0
 10
 1.21271811571200E+0003
 20
 8.04173001350400E+0002
 11
 1.20830234081850E+0003
 21
 8.13093782619200E+0002
  0
LINE
  8
0
 10
 1.20830234081850E+0003
 20
 8.13093782619200E+0002
 11
 1.20391027784400E+0003
 21
 8.22039450572800E+0002
  0
LINE
  8
0
 10
 1.20391027784400E+0003
 20
 8.22039450572800E+0002
 11
 1.19954525987550E+0003
 21
 8.31013386177600E+0002
  0
LINE
  8
0
 10
 1.19954525987550E+0003
 20
 8.31013386177600E+0002
 11
 1.19521062000000E+0003
 21
 8.40018970400000E+0002
  0
LINE
  8
0
 10
 1.19521062000000E+0003
 20
 8.40018970400000E+0002
 11
 1.19090969130450E+0003
 21
 8.49059584206400E+0002
  0
LINE
  8
0
 10
 1.19090969130450E+0003
 20
 8.49059584206400E+0002
 11
 1.18664580687600E+0003
 21
 8.58138608563200E+0002
  0
LINE
  8
0
 10
 1.18664580687600E+0003
 20
 8.58138608563200E+0002
 11
 1.18242229980150E+0003
 21
 8.67259424436800E+0002
  0
LINE
  8
0
 10
 1.18242229980150E+0003
 20
 8.67259424436800E+0002
 11
 1.17824250316800E+0003
 21
 8.76425412793600E+0002
  0
LINE
  8
0
 10
 1.17824250316800E+0003
 20
 8.76425412793600E+0002
 11
 1.17410975006250E+0003
 21
 8.85639954600000E+0002
  0
LINE
  8
0
 10
 1.17410975006250E+0003
 20
 8.85639954600000E+0002
 11
 1.17002737357200E+0003
 21
 8.94906430822400E+0002
  0
LINE
  8
0
 10
 1.17002737357200E+0003
 20
 8.94906430822400E+0002
 11
 1.16599870678350E+0003
 21
 9.04228222427200E+0002
  0
LINE
  8
0
 10
 1.16599870678350E+0003
 20
 9.04228222427200E+0002
 11
 1.16202708278400E+0003
 21
 9.13608710380800E+0002
  0
LINE
  8
0
 10
 1.16202708278400E+0003
 20
 9.13608710380800E+0002
 11
 1.15811583466050E+0003
 21
 9.23051275649600E+0002
  0
LINE
  8
0
 10
 1.15811583466050E+0003
 20
 9.23051275649600E+0002
 11
 1.15426829550000E+0003
 21
 9.32559299200000E+0002
  0
LINE
  8
0
 10
 1.15426829550000E+0003
 20
 9.32559299200000E+0002
 11
 1.15048779838950E+0003
 21
 9.42136161998400E+0002
  0
LINE
  8
0
 10
 1.15048779838950E+0003
 20
 9.42136161998400E+0002
 11
 1.14677767641600E+0003
 21
 9.51785245011200E+0002
  0
LINE
  8
0
 10
 1.14677767641600E+0003
 20
 9.51785245011200E+0002
 11
 1.14314126266650E+0003
 21
 9.61509929204800E+0002
  0
LINE
  8
0
 10
 1.14314126266650E+0003
 20
 9.61509929204800E+0002
 11
 1.13958189022800E+0003
 21
 9.71313595545600E+0002
  0
LINE
  8
0
 10
 1.13958189022800E+0003
 20
 9.71313595545600E+0002
 11
 1.13610289218750E+0003
 21
 9.81199625000000E+0002
  0
LINE
  8
0
 10
 1.13610289218750E+0003
 20
 9.81199625000000E+0002
 11
 1.13270760163200E+0003
 21
 9.91171398534400E+0002
  0
LINE
  8
0
 10
 1.13270760163200E+0003
 20
 9.91171398534400E+0002
 11
 1.12939935164850E+0003
 21
 1.00123229711520E+0003
  0
LINE
  8
0
 10
 1.12939935164850E+0003
 20
 1.00123229711520E+0003
 11
 1.12618147532400E+0003
 21
 1.01138570170880E+0003
  0
LINE
  8
0
 10
 1.12618147532400E+0003
 20
 1.01138570170880E+0003
 11
 1.12305730574550E+0003
 21
 1.02163499328160E+0003
  0
LINE
  8
0
 10
 1.12305730574550E+0003
 20
 1.02163499328160E+0003
 11
 1.12003017600000E+0003
 21
 1.03198355280000E+0003
  0
LINE
  8
0
 10
 1.12003017600000E+0003
 20
 1.03198355280000E+0003
 11
 1.11710341917450E+0003
 21
 1.04243476123040E+0003
  0
LINE
  8
0
 10
 1.11710341917450E+0003
 20
 1.04243476123040E+0003
 11
 1.11428036835600E+0003
 21
 1.05299199953920E+0003
  0
LINE
  8
0
 10
 1.11428036835600E+0003
 20
 1.05299199953920E+0003
 11
 1.11156435663150E+0003
 21
 1.06365864869280E+0003
  0
LINE
  8
0
 10
 1.11156435663150E+0003
 20
 1.06365864869280E+0003
 11
 1.10895871708800E+0003
 21
 1.07443808965760E+0003
  0
LINE
  8
0
 10
 1.10895871708800E+0003
 20
 1.07443808965760E+0003
 11
 1.10646678281250E+0003
 21
 1.08533370340000E+0003
  0
LINE
  8
0
 10
 1.10646678281250E+0003
 20
 1.08533370340000E+0003
 11
 1.10409188689200E+0003
 21
 1.09634887088640E+0003
  0
LINE
  8
0
 10
 1.10409188689200E+0003
 20
 1.09634887088640E+0003
 11
 1.10183736241350E+0003
 21
 1.10748697308320E+0003
  0
LINE
  8
0
 10
 1.10183736241350E+0003
 20
 1.10748697308320E+0003
 11
 1.09970654246400E+0003
 21
 1.11875139095680E+0003
  0
LINE
  8
0
 10
 1.09970654246400E+0003
 20
 1.11875139095680E+0003
 11
 1.09770276013050E+0003
 21
 1.13014550547360E+0003
  0
LINE
  8
0
 10
 1.09770276013050E+0003
 20
 1.13014550547360E+0003
 11
 1.09582934850000E+0003
 21
 1.14167269760000E+0003
  0
LINE
  8
0
 10
 1.09582934850000E+0003
 20
 1.14167269760000E+0003
 11
 1.09408964065950E+0003
 21
 1.15333634830240E+0003
  0
LINE
  8
0
 10
 1.09408964065950E+0003
 20
 1.15333634830240E+0003
 11
 1.09248696969600E+0003
 21
 1.16513983854720E+0003
  0
LINE
  8
0
 10
 1.09248696969600E+0003
 20
 1.16513983854720E+0003
 11
 1.09102466869650E+0003
 21
 1.17708654930080E+0003
  0
LINE
  8
0
 10
 1.09102466869650E+0003
 20
 1.17708654930080E+0003
 11
 1.08970607074800E+0003
 21
 1.18917986152960E+0003
  0
LINE
  8
0
 10
 1.08970607074800E+0003
 20
 1.18917986152960E+0003
 11
 1.08853450893750E+0003
 21
 1.20142315620000E+0003
  0
LINE
  8
0
 10
 1.08853450893750E+0003
 20
 1.20142315620000E+0003
 11
 1.08751331635200E+0003
 21
 1.21381981427840E+0003
  0
LINE
  8
0
 10
 1.08751331635200E+0003
 20
 1.21381981427840E+0003
 11
 1.08664582607850E+0003
 21
 1.22637321673120E+0003
  0
LINE
  8
0
 10
 1.08664582607850E+0003
 20
 1.22637321673120E+0003
 11
 1.08593537120400E+0003
 21
 1.23908674452480E+0003
  0
LINE
  8
0
 10
 1.08593537120400E+0003
 20
 1.23908674452480E+0003
 11
 1.08538528481550E+0003
 21
 1.25196377862560E+0003
  0
LINE
  8
0
 10
 1.08538528481550E+0003
 20
 1.25196377862560E+0003
 11
 1.08499890000000E+0003
 21
 1.26500770000000E+0003
  0
LINE
  8
0
 10
 1.08499890000000E+0003
 20
 1.26500770000000E+0003
 11
 1.08500000000000E+0003
 21
 1.30700000000000E+0003
  0
LINE
  8
0
 10
 1.08500000000000E+0003
 20
 1.30700000000000E+0003
 11
 1.03999949055361E+0003
 21
 1.29538091843480E+0003
  0
ARC
  8
0
 10
 1.03700000000000E+0003
 20
 1.30700000000000E+0003
 40
 1.20000000000000E+0001
 50
 1.46195000000000E+0002
 51
 2.84475000000000E+0002
  0
LINE
  8
0
 10
 1.02702876895808E+0003
 20
 1.31367641756549E+0003
 11
 1.11500000000000E+0003
 21
 1.44500000000000E+0003
  0
LINE
  8
0
 10
 1.11500000000000E+0003
 20
 1.44500000000000E+0003
 11
 1.20297123104192E+0003
 21
 1.31367641756549E+0003
  0
ARC
  8
0
 10
 1.19300000000000E+0003
 20
 1.30700000000000E+0003
 40
 1.20000000000000E+0001
 50
 2.55525000000000E+0002
 51
 3.93805000000000E+0002
  0
LINE
  8
0
 10
 1.19000050944639E+0003
 20
 1.29538091843480E+0003
 11
 1.14500000000000E+0003
 21
 1.30700000000000E+0003
  0
LINE
  8
0
 10
 1.14500000000000E+0003
 20
 1.30700000000000E+0003
 11
 1.14500000000000E+0003
 21
 1.26500000000000E+0003
  0
LINE
  8
0
 10
 2.55000000000000E+0002
 20
 1.53500000000000E+0003
 11
 2.85000000000000E+0002
 21
 1.53500000000000E+0003
  0
ARC
  8
0
 10
-4.65000000000000E+0002
 20
 1.53500000000000E+0003
 40
 7.50000000000000E+0002
 50
 3.40811860000000E+0002
 51
 3.60000000000000E+0002
  0
LINE
  8
0
 10
 2.43333318076195E+0002
 20
 1.28849663186243E+0003
 11
 2.43333332723048E+0002
 21
 1.28848986527450E+0003
  0
ARC
  8
0
 10
 2.15000000000000E+0002
 20
 1.29835000000000E+0003
 40
 3.00000000000000E+0001
 50
 1.99188140000000E+0002
 51
 3.40811860000000E+0002
  0
LINE
  8
0
 10
 1.86666667276952E+0002
 20
 1.28848986527450E+0003
 11
 1.86637689353907E+0002
 21
 1.28857995849337E+0003
  0
ARC
  8
0
 10
 8.95000000000000E+0002
 20
 1.53500000000000E+0003
 40
 7.50000000000000E+0002
 50
 1.80000000000000E+0002
 51
 1.99181400000000E+0002
  0
LINE
  8
0
 10
 1.45000000000000E+0002
 20
 1.53500000000000E+0003
 11
 1.75000000000000E+0002
 21
 1.53500000000000E+0003
  0
ARC
  8
0
 10
 8.95000000000000E+0002
 20
 1.53500000000000E+0003
 40
 7.20000000000000E+0002
 50
 1.80000000000000E+0002
 51
 1.99188140000000E+0002
  0
LINE
  8
0
 10
 2.15000014646853E+0002
 20
 1.29835676658793E+0003
 11
 2.14999985353147E+0002
 21
 1.29835676658793E+0003
  0
ARC
  8
0
 10
-4.65000000000000E+0002
 20
 1.53500000000000E+0003
 40
 7.20000000000000E+0002
 50
 3.40811860000000E+0002
 51
 3.60000000000000E+0002
  0
LINE
  8
0
 10
 9.65000000000000E+0002
 20
 6.50000000000000E+0001
 11
 9.95000000000000E+0002
 21
 6.50000000000000E+0001
  0
ARC
  8
0
 10
 2.45000000000000E+0002
 20
 6.50000000000000E+0001
 40
 7.50000000000000E+0002
 50
 0.00000000000000E+0000
 51
 1.91881400000000E+0001
  0
LINE
  8
0
 10
 9.53333318076195E+0002
 20
 3.11503368137575E+0002
 11
 9.53333329281210E+0002
 21
 3.11503144615701E+0002
  0
ARC
  8
0
 10
 9.25000000000000E+0002
 20
 3.01643000000000E+0002
 40
 3.00000000000000E+0001
 50
 1.91881600000000E+0001
 51
 1.60811860000000E+0002
  0
LINE
  8
0
 10
 8.96666667276952E+0002
 20
 3.11503134725503E+0002
 11
 8.96666681923805E+0002
 21
 3.11503368137575E+0002
  0
ARC
  8
0
 10
 1.60500000000000E+0003
 20
 6.50000000000000E+0001
 40
 7.50000000000000E+0002
 50
 1.60811860000000E+0002
 51
 1.80000000000000E+0002
  0
LINE
  8
0
 10
 8.55000000000000E+0002
 20
 6.50000000000000E+0001
 11
 8.85000000000000E+0002
 21
 6.50000000000000E+0001
  0
ARC
  8
0
 10
 1.60500000000000E+0003
 20
 6.50000000000000E+0001
 40
 7.20000000000000E+0002
 50
 1.60811860000000E+0002
 51
 1.80000000000000E+0002
  0
LINE
  8
0
 10
 9.25000014646853E+0002
 20
 3.01643233412072E+0002
 11
 9.24999902749034E+0002
 21
 3.01643470776830E+0002
  0
ARC
  8
0
 10
 2.45000000000000E+0002
 20
 6.50000000000000E+0001
 40
 7.20000000000000E+0002
 50
 0.00000000000000E+0000
 51
 1.91881600000000E+0001
  0
ENDSEC
  0
EOF
