  0
SECTION
  2
HEADER
  9
$ACADVER
  1
AC1003
  9
$INSBASE
 10
0.0
 20
0.0
  9
$EXTMIN
 10
 0.00000000000000E+0000
 20
 0.00000000000000E+0000
  9
$EXTMAX
 10
 1.60000000000000E+0003
 20
 1.60000000000000E+0003
  9
$LIMMIN
 10
0.0
 20
0.0
  9
$LIMMAX
 10
410.0
 20
287.0
  9
$VIEWCTR
 10
227.0059616
 20
165.058879 
  9
$VIEWSIZE
 40
 1.60000000000000E+0003
9
$SNAPMODE
70
0
9
$SNAPUNIT
10
1
20
1
9
$GRIDMODE
70
0
9
$GRIDUNIT
10
1
20
1
9
$ORTHOMODE
70
0
9
$rEGENMODE
70
1
9
$FILLMODE
70
1
9
$DRAGMODE
70
2
9
$LTSCALE
40
25.0
9
$OSMODE
70
0
9
$ATTMODE
70
1
9
$TRACEWID
40
1.0
9
$TEXTSTYLE
7
STANDARD
9
$CLAYER
8
0
9
$CELTYPE
6
VONLAYER
9
$CECOLOR
62
256
9
$LUNITS
70
2
9
$LUPREC
70
2
9
$AXISMODE
70
0
9
$AXISUNIT
10
0
20
0
9
$SKETCHINC
40
1.0
9
$FILLETRAD
40
0.0
9
$AUNITS
70
0
9
$AUPREC
70
0
9
$MENU
1
ACAD
9
$ELEVATION
40
0.0
9
$THICKNESS
40
0.0
9
$VIEWDIR
10
0.0
20
0.0
30
1.0
9
$LIMCHECK
70
0
9
$BLIPMODE
70
1
9
$CHAMFERA
40
0.0
9
$CHAMFERB
40
0.0
9
$USRTIMER
70
1
9
$ANGBASE
50
0.0
9
$ANGDIR
70
0
9
$PDMODE
70
0
9
$PDSIZE
40
0.0
9
$PLINEWID
40
0.0
9
$COORDS
70
0
0
ENDSEC
0
SECTION
2
TABLES
0
TABLE
2
LTYPE
70
1
0
LTYPE
2
AUSGEZOGEN
70
64
3
Ausgezogene Linie
72
65
73
0
40
0.0
0
ENDTAB
0
TABLE
2
LAYER
70
1
0
LAYER
2
0
70
0
62
7
6
AUSGEZOGEN
0
ENDTAB
0
TABLE
2
STYLE
70
1
0
STYLE
2
STANDARD
70
0
40
0.0
41
1.0
50
0.0
71
0
42
3.5
3
txt
4

0
ENDTAB
0
TABLE
2
VIEW
70
0
0
ENDTAB
0
ENDSEC
0
SECTION
2
BLOCKS
0
ENDSEC
0
SECTION
2
ENTITIES
  0
ARC
  8
0
 10
 6.00000000000000E+0001
 20
 6.00000000000000E+0001
 40
 6.00000000000000E+0001
 50
 1.80000000000000E+0002
 51
 2.70000000000000E+0002
  0
LINE
  8
0
 10
 0.00000000000000E+0000
 20
 6.00000000000000E+0001
 11
 0.00000000000000E+0000
 21
 1.54000000000000E+0003
  0
ARC
  8
0
 10
 6.00000000000000E+0001
 20
 1.54000000000000E+0003
 40
 6.00000000000000E+0001
 50
 9.00000000000000E+0001
 51
 1.80000000000000E+0002
  0
LINE
  8
0
 10
 6.00000000000000E+0001
 20
 1.60000000000000E+0003
 11
 1.54000000000000E+0003
 21
 1.60000000000000E+0003
  0
ARC
  8
0
 10
 1.54000000000000E+0003
 20
 1.54000000000000E+0003
 40
 6.00000000000000E+0001
 50
 0.00000000000000E+0000
 51
 9.00000000000000E+0001
  0
LINE
  8
0
 10
 1.60000000000000E+0003
 20
 1.54000000000000E+0003
 11
 1.60000000000000E+0003
 21
 6.00000000000000E+0001
  0
ARC
  8
0
 10
 1.54000000000000E+0003
 20
 6.00000000000000E+0001
 40
 6.00000000000000E+0001
 50
 2.70000000000000E+0002
 51
 3.60000000000000E+0002
  0
LINE
  8
0
 10
 1.54000000000000E+0003
 20
 0.00000000000000E+0000
 11
 6.00000000000000E+0001
 21
 0.00000000000000E+0000
  0
ARC
  8
0
 10
 6.00000000000000E+0001
 20
 6.00000000000000E+0001
 40
 4.50000000000000E+0001
 50
 1.80000000000000E+0002
 51
 2.70000000000000E+0002
  0
LINE
  8
0
 10
 1.50000000000000E+0001
 20
 6.00000000000000E+0001
 11
 1.50000000000000E+0001
 21
 1.54000000000000E+0003
  0
ARC
  8
0
 10
 6.00000000000000E+0001
 20
 1.54000000000000E+0003
 40
 4.50000000000000E+0001
 50
 9.00000000000000E+0001
 51
 1.80000000000000E+0002
  0
LINE
  8
0
 10
 6.00000000000000E+0001
 20
 1.58500000000000E+0003
 11
 1.54000000000000E+0003
 21
 1.58500000000000E+0003
  0
ARC
  8
0
 10
 1.54000000000000E+0003
 20
 1.54000000000000E+0003
 40
 4.50000000000000E+0001
 50
 0.00000000000000E+0000
 51
 9.00000000000000E+0001
  0
LINE
  8
0
 10
 1.58500000000000E+0003
 20
 1.54000000000000E+0003
 11
 1.58500000000000E+0003
 21
 6.00000000000000E+0001
  0
ARC
  8
0
 10
 1.54000000000000E+0003
 20
 6.00000000000000E+0001
 40
 4.50000000000000E+0001
 50
 2.70000000000000E+0002
 51
 3.60000000000000E+0002
  0
LINE
  8
0
 10
 1.54000000000000E+0003
 20
 1.50000000000000E+0001
 11
 6.00000000000000E+0001
 21
 1.50000000000000E+0001
  0
ARC
  8
0
 10
 6.00000000000000E+0001
 20
 6.00000000000000E+0001
 40
 2.50000000000000E+0001
 50
 1.80000000000000E+0002
 51
 2.70000000000000E+0002
  0
LINE
  8
0
 10
 3.50000000000000E+0001
 20
 6.00000000000000E+0001
 11
 3.50000000000000E+0001
 21
 1.54000000000000E+0003
  0
ARC
  8
0
 10
 6.00000000000000E+0001
 20
 1.54000000000000E+0003
 40
 2.50000000000000E+0001
 50
 9.00000000000000E+0001
 51
 1.80000000000000E+0002
  0
LINE
  8
0
 10
 6.00000000000000E+0001
 20
 1.56500000000000E+0003
 11
 1.54000000000000E+0003
 21
 1.56500000000000E+0003
  0
ARC
  8
0
 10
 1.54000000000000E+0003
 20
 1.54000000000000E+0003
 40
 2.50000000000000E+0001
 50
 0.00000000000000E+0000
 51
 9.00000000000000E+0001
  0
LINE
  8
0
 10
 1.56500000000000E+0003
 20
 1.54000000000000E+0003
 11
 1.56500000000000E+0003
 21
 6.00000000000000E+0001
  0
ARC
  8
0
 10
 1.54000000000000E+0003
 20
 6.00000000000000E+0001
 40
 2.50000000000000E+0001
 50
 2.70000000000000E+0002
 51
 3.60000000000000E+0002
  0
LINE
  8
0
 10
 1.54000000000000E+0003
 20
 3.50000000000000E+0001
 11
 6.00000000000000E+0001
 21
 3.50000000000000E+0001
  0
LINE
  8
0
 10
 5.30000000000000E+0002
 20
 1.26500000000000E+0003
 11
 5.29613615868900E+0002
 21
 1.25195630732330E+0003
  0
LINE
  8
0
 10
 5.29613615868900E+0002
 20
 1.25195630732330E+0003
 11
 5.29063531511200E+0002
 21
 1.23907949734640E+0003
  0
LINE
  8
0
 10
 5.29063531511200E+0002
 20
 1.23907949734640E+0003
 11
 5.28353079980300E+0002
 21
 1.22636618914910E+0003
  0
LINE
  8
0
 10
 5.28353079980300E+0002
 20
 1.22636618914910E+0003
 11
 5.27485594329600E+0002
 21
 1.21381300181120E+0003
  0
LINE
  8
0
 10
 5.27485594329600E+0002
 20
 1.21381300181120E+0003
 11
 5.26464407612500E+0002
 21
 1.20141655441250E+0003
  0
LINE
  8
0
 10
 5.26464407612500E+0002
 20
 1.20141655441250E+0003
 11
 5.25292852882400E+0002
 21
 1.18917346603280E+0003
  0
LINE
  8
0
 10
 5.25292852882400E+0002
 20
 1.18917346603280E+0003
 11
 5.23974263192700E+0002
 21
 1.17708035575190E+0003
  0
LINE
  8
0
 10
 5.23974263192700E+0002
 20
 1.17708035575190E+0003
 11
 5.22511971596800E+0002
 21
 1.16513384264960E+0003
  0
LINE
  8
0
 10
 5.22511971596800E+0002
 20
 1.16513384264960E+0003
 11
 5.20909311148100E+0002
 21
 1.15333054580570E+0003
  0
LINE
  8
0
 10
 5.20909311148100E+0002
 20
 1.15333054580570E+0003
 11
 5.19169614900000E+0002
 21
 1.14166708430000E+0003
  0
LINE
  8
0
 10
 5.19169614900000E+0002
 20
 1.14166708430000E+0003
 11
 5.17296215905900E+0002
 21
 1.13014007721230E+0003
  0
LINE
  8
0
 10
 5.17296215905900E+0002
 20
 1.13014007721230E+0003
 11
 5.15292447219200E+0002
 21
 1.11874614362240E+0003
  0
LINE
  8
0
 10
 5.15292447219200E+0002
 20
 1.11874614362240E+0003
 11
 5.13161641893300E+0002
 21
 1.10748190261010E+0003
  0
LINE
  8
0
 10
 5.13161641893300E+0002
 20
 1.10748190261010E+0003
 11
 5.10907132981600E+0002
 21
 1.09634397325520E+0003
  0
LINE
  8
0
 10
 5.10907132981600E+0002
 20
 1.09634397325520E+0003
 11
 5.08532253537500E+0002
 21
 1.08532897463750E+0003
  0
LINE
  8
0
 10
 5.08532253537500E+0002
 20
 1.08532897463750E+0003
 11
 5.06040336614400E+0002
 21
 1.07443352583680E+0003
  0
LINE
  8
0
 10
 5.06040336614400E+0002
 20
 1.07443352583680E+0003
 11
 5.03434715265700E+0002
 21
 1.06365424593290E+0003
  0
LINE
  8
0
 10
 5.03434715265700E+0002
 20
 1.06365424593290E+0003
 11
 5.00718722544800E+0002
 21
 1.05298775400560E+0003
  0
LINE
  8
0
 10
 5.00718722544800E+0002
 20
 1.05298775400560E+0003
 11
 4.97895691505100E+0002
 21
 1.04243066913470E+0003
  0
LINE
  8
0
 10
 4.97895691505100E+0002
 20
 1.04243066913470E+0003
 11
 4.94968955200000E+0002
 21
 1.03197961040000E+0003
  0
LINE
  8
0
 10
 4.94968955200000E+0002
 20
 1.03197961040000E+0003
 11
 4.91941846682900E+0002
 21
 1.02163119688130E+0003
  0
LINE
  8
0
 10
 4.91941846682900E+0002
 20
 1.02163119688130E+0003
 11
 4.88817699007200E+0002
 21
 1.01138204765840E+0003
  0
LINE
  8
0
 10
 4.88817699007200E+0002
 20
 1.01138204765840E+0003
 11
 4.85599845226300E+0002
 21
 1.00122878181110E+0003
  0
LINE
  8
0
 10
 4.85599845226300E+0002
 20
 1.00122878181110E+0003
 11
 4.82291618393600E+0002
 21
 9.91168018419200E+0002
  0
LINE
  8
0
 10
 4.82291618393600E+0002
 20
 9.91168018419200E+0002
 11
 4.78896351562500E+0002
 21
 9.81196376562500E+0002
  0
LINE
  8
0
 10
 4.78896351562500E+0002
 20
 9.81196376562500E+0002
 11
 4.75417377786400E+0002
 21
 9.71310475320800E+0002
  0
LINE
  8
0
 10
 4.75417377786400E+0002
 20
 9.71310475320800E+0002
 11
 4.71858030118700E+0002
 21
 9.61506933773900E+0002
  0
LINE
  8
0
 10
 4.71858030118700E+0002
 20
 9.61506933773900E+0002
 11
 4.68221641612800E+0002
 21
 9.51782371001600E+0002
  0
LINE
  8
0
 10
 4.68221641612800E+0002
 20
 9.51782371001600E+0002
 11
 4.64511545322100E+0002
 21
 9.42133406083700E+0002
  0
LINE
  8
0
 10
 4.64511545322100E+0002
 20
 9.42133406083700E+0002
 11
 4.60731074300000E+0002
 21
 9.32556658100000E+0002
  0
LINE
  8
0
 10
 4.60731074300000E+0002
 20
 9.32556658100000E+0002
 11
 4.56883561599900E+0002
 21
 9.23048746130300E+0002
  0
LINE
  8
0
 10
 4.56883561599900E+0002
 20
 9.23048746130300E+0002
 11
 4.52972340275200E+0002
 21
 9.13606289254400E+0002
  0
LINE
  8
0
 10
 4.52972340275200E+0002
 20
 9.13606289254400E+0002
 11
 4.49000743379300E+0002
 21
 9.04225906552100E+0002
  0
LINE
  8
0
 10
 4.49000743379300E+0002
 20
 9.04225906552100E+0002
 11
 4.44972103965600E+0002
 21
 8.94904217103200E+0002
  0
LINE
  8
0
 10
 4.44972103965600E+0002
 20
 8.94904217103200E+0002
 11
 4.40889755087500E+0002
 21
 8.85637839987500E+0002
  0
LINE
  8
0
 10
 4.40889755087500E+0002
 20
 8.85637839987500E+0002
 11
 4.36757029798400E+0002
 21
 8.76423394284800E+0002
  0
LINE
  8
0
 10
 4.36757029798400E+0002
 20
 8.76423394284800E+0002
 11
 4.32577261151700E+0002
 21
 8.67257499074900E+0002
  0
LINE
  8
0
 10
 4.32577261151700E+0002
 20
 8.67257499074900E+0002
 11
 4.28353782200800E+0002
 21
 8.58136773437600E+0002
  0
LINE
  8
0
 10
 4.28353782200800E+0002
 20
 8.58136773437600E+0002
 11
 4.24089925999100E+0002
 21
 8.49057836452700E+0002
  0
LINE
  8
0
 10
 4.24089925999100E+0002
 20
 8.49057836452700E+0002
 11
 4.19789025600000E+0002
 21
 8.40017307200000E+0002
  0
LINE
  8
0
 10
 4.19789025600000E+0002
 20
 8.40017307200000E+0002
 11
 4.15454414056900E+0002
 21
 8.31011804759300E+0002
  0
LINE
  8
0
 10
 4.15454414056900E+0002
 20
 8.31011804759300E+0002
 11
 4.11089424423200E+0002
 21
 8.22037948210400E+0002
  0
LINE
  8
0
 10
 4.11089424423200E+0002
 20
 8.22037948210400E+0002
 11
 4.06697389752300E+0002
 21
 8.13092356633100E+0002
  0
LINE
  8
0
 10
 4.06697389752300E+0002
 20
 8.13092356633100E+0002
 11
 4.02281643097600E+0002
 21
 8.04171649107200E+0002
  0
LINE
  8
0
 10
 4.02281643097600E+0002
 20
 8.04171649107200E+0002
 11
 3.97845517512500E+0002
 21
 7.95272444712500E+0002
  0
LINE
  8
0
 10
 3.97845517512500E+0002
 20
 7.95272444712500E+0002
 11
 3.93392346050400E+0002
 21
 7.86391362528800E+0002
  0
LINE
  8
0
 10
 3.93392346050400E+0002
 20
 7.86391362528800E+0002
 11
 3.88925461764700E+0002
 21
 7.77525021635900E+0002
  0
LINE
  8
0
 10
 3.88925461764700E+0002
 20
 7.77525021635900E+0002
 11
 3.84448197708800E+0002
 21
 7.68670041113600E+0002
  0
LINE
  8
0
 10
 3.84448197708800E+0002
 20
 7.68670041113600E+0002
 11
 3.79963886936100E+0002
 21
 7.59823040041700E+0002
  0
LINE
  8
0
 10
 3.79963886936100E+0002
 20
 7.59823040041700E+0002
 11
 3.75475862500000E+0002
 21
 7.50980637500000E+0002
  0
LINE
  8
0
 10
 3.75475862500000E+0002
 20
 7.50980637500000E+0002
 11
 3.70987457453900E+0002
 21
 7.42139452568300E+0002
  0
LINE
  8
0
 10
 3.70987457453900E+0002
 20
 7.42139452568300E+0002
 11
 3.66502004851200E+0002
 21
 7.33296104326400E+0002
  0
LINE
  8
0
 10
 3.66502004851200E+0002
 20
 7.33296104326400E+0002
 11
 3.62022837745300E+0002
 21
 7.24447211854100E+0002
  0
LINE
  8
0
 10
 3.62022837745300E+0002
 20
 7.24447211854100E+0002
 11
 3.57553289189600E+0002
 21
 7.15589394231200E+0002
  0
LINE
  8
0
 10
 3.57553289189600E+0002
 20
 7.15589394231200E+0002
 11
 3.53096692237500E+0002
 21
 7.06719270537500E+0002
  0
LINE
  8
0
 10
 3.53096692237500E+0002
 20
 7.06719270537500E+0002
 11
 3.48656379942400E+0002
 21
 6.97833459852800E+0002
  0
LINE
  8
0
 10
 3.48656379942400E+0002
 20
 6.97833459852800E+0002
 11
 3.44235685357700E+0002
 21
 6.88928581256900E+0002
  0
LINE
  8
0
 10
 3.44235685357700E+0002
 20
 6.88928581256900E+0002
 11
 3.39837941536800E+0002
 21
 6.80001253829600E+0002
  0
LINE
  8
0
 10
 3.39837941536800E+0002
 20
 6.80001253829600E+0002
 11
 3.35466481533100E+0002
 21
 6.71048096650700E+0002
  0
LINE
  8
0
 10
 3.35466481533100E+0002
 20
 6.71048096650700E+0002
 11
 3.31124638400000E+0002
 21
 6.62065728800000E+0002
  0
LINE
  8
0
 10
 3.31124638400000E+0002
 20
 6.62065728800000E+0002
 11
 3.26815745190900E+0002
 21
 6.53050769357300E+0002
  0
LINE
  8
0
 10
 3.26815745190900E+0002
 20
 6.53050769357300E+0002
 11
 3.22543134959200E+0002
 21
 6.43999837402400E+0002
  0
LINE
  8
0
 10
 3.22543134959200E+0002
 20
 6.43999837402400E+0002
 11
 3.18310140758300E+0002
 21
 6.34909552015100E+0002
  0
LINE
  8
0
 10
 3.18310140758300E+0002
 20
 6.34909552015100E+0002
 11
 3.14120095641600E+0002
 21
 6.25776532275200E+0002
  0
LINE
  8
0
 10
 3.14120095641600E+0002
 20
 6.25776532275200E+0002
 11
 3.09976332662500E+0002
 21
 6.16597397262500E+0002
  0
LINE
  8
0
 10
 3.09976332662500E+0002
 20
 6.16597397262500E+0002
 11
 3.05882184874400E+0002
 21
 6.07368766056800E+0002
  0
LINE
  8
0
 10
 3.05882184874400E+0002
 20
 6.07368766056800E+0002
 11
 3.01840985330700E+0002
 21
 5.98087257737900E+0002
  0
LINE
  8
0
 10
 3.01840985330700E+0002
 20
 5.98087257737900E+0002
 11
 2.97856067084800E+0002
 21
 5.88749491385600E+0002
  0
LINE
  8
0
 10
 2.97856067084800E+0002
 20
 5.88749491385600E+0002
 11
 2.93930763190100E+0002
 21
 5.79352086079700E+0002
  0
LINE
  8
0
 10
 2.93930763190100E+0002
 20
 5.79352086079700E+0002
 11
 2.90068406700000E+0002
 21
 5.69891660900000E+0002
  0
LINE
  8
0
 10
 2.90068406700000E+0002
 20
 5.69891660900000E+0002
 11
 2.86272330667900E+0002
 21
 5.60364834926300E+0002
  0
LINE
  8
0
 10
 2.86272330667900E+0002
 20
 5.60364834926300E+0002
 11
 2.82545868147200E+0002
 21
 5.50768227238400E+0002
  0
LINE
  8
0
 10
 2.82545868147200E+0002
 20
 5.50768227238400E+0002
 11
 2.78892352191300E+0002
 21
 5.41098456916100E+0002
  0
LINE
  8
0
 10
 2.78892352191300E+0002
 20
 5.41098456916100E+0002
 11
 2.75315115853600E+0002
 21
 5.31352143039200E+0002
  0
LINE
  8
0
 10
 2.75315115853600E+0002
 20
 5.31352143039200E+0002
 11
 2.71817492187500E+0002
 21
 5.21525904687500E+0002
  0
LINE
  8
0
 10
 2.71817492187500E+0002
 20
 5.21525904687500E+0002
 11
 2.68402814246400E+0002
 21
 5.11616360940800E+0002
  0
LINE
  8
0
 10
 2.68402814246400E+0002
 20
 5.11616360940800E+0002
 11
 2.65074415083700E+0002
 21
 5.01620130878900E+0002
  0
LINE
  8
0
 10
 2.65074415083700E+0002
 20
 5.01620130878900E+0002
 11
 2.61835627752800E+0002
 21
 4.91533833581600E+0002
  0
LINE
  8
0
 10
 2.61835627752800E+0002
 20
 4.91533833581600E+0002
 11
 2.58689785307100E+0002
 21
 4.81354088128700E+0002
  0
LINE
  8
0
 10
 2.58689785307100E+0002
 20
 4.81354088128700E+0002
 11
 2.55640220800000E+0002
 21
 4.71077513600000E+0002
  0
LINE
  8
0
 10
 2.55640220800000E+0002
 20
 4.71077513600000E+0002
 11
 2.52690267284900E+0002
 21
 4.60700729075300E+0002
  0
LINE
  8
0
 10
 2.52690267284900E+0002
 20
 4.60700729075300E+0002
 11
 2.49843257815200E+0002
 21
 4.50220353634400E+0002
  0
LINE
  8
0
 10
 2.49843257815200E+0002
 20
 4.50220353634400E+0002
 11
 2.47102525444300E+0002
 21
 4.39633006357100E+0002
  0
LINE
  8
0
 10
 2.47102525444300E+0002
 20
 4.39633006357100E+0002
 11
 2.44471403225600E+0002
 21
 4.28935306323200E+0002
  0
LINE
  8
0
 10
 2.44471403225600E+0002
 20
 4.28935306323200E+0002
 11
 2.41953224212500E+0002
 21
 4.18123872612500E+0002
  0
LINE
  8
0
 10
 2.41953224212500E+0002
 20
 4.18123872612500E+0002
 11
 2.39551321458400E+0002
 21
 4.07195324304800E+0002
  0
LINE
  8
0
 10
 2.39551321458400E+0002
 20
 4.07195324304800E+0002
 11
 2.37269028016700E+0002
 21
 3.96146280479900E+0002
  0
LINE
  8
0
 10
 2.37269028016700E+0002
 20
 3.96146280479900E+0002
 11
 2.35109676940800E+0002
 21
 3.84973360217600E+0002
  0
LINE
  8
0
 10
 2.35109676940800E+0002
 20
 3.84973360217600E+0002
 11
 2.33076601284100E+0002
 21
 3.73673182597700E+0002
  0
LINE
  8
0
 10
 2.33076601284100E+0002
 20
 3.73673182597700E+0002
 11
 2.31173134100000E+0002
 21
 3.62242366700000E+0002
  0
LINE
  8
0
 10
 2.31173134100000E+0002
 20
 3.62242366700000E+0002
 11
 2.29402608441900E+0002
 21
 3.50677531604300E+0002
  0
LINE
  8
0
 10
 2.29402608441900E+0002
 20
 3.50677531604300E+0002
 11
 2.27768357363200E+0002
 21
 3.38975296390400E+0002
  0
LINE
  8
0
 10
 2.27768357363200E+0002
 20
 3.38975296390400E+0002
 11
 2.26273713917300E+0002
 21
 3.27132280138100E+0002
  0
LINE
  8
0
 10
 2.26273713917300E+0002
 20
 3.27132280138100E+0002
 11
 2.24922011157600E+0002
 21
 3.15145101927200E+0002
  0
LINE
  8
0
 10
 2.24922011157600E+0002
 20
 3.15145101927200E+0002
 11
 2.23716582137500E+0002
 21
 3.03010380837500E+0002
  0
LINE
  8
0
 10
 2.23716582137500E+0002
 20
 3.03010380837500E+0002
 11
 2.22660759910400E+0002
 21
 2.90724735948800E+0002
  0
LINE
  8
0
 10
 2.22660759910400E+0002
 20
 2.90724735948800E+0002
 11
 2.21757877529700E+0002
 21
 2.78284786340900E+0002
  0
LINE
  8
0
 10
 2.21757877529700E+0002
 20
 2.78284786340900E+0002
 11
 2.21011268048800E+0002
 21
 2.65687151093600E+0002
  0
LINE
  8
0
 10
 2.21011268048800E+0002
 20
 2.65687151093600E+0002
 11
 2.20424264521100E+0002
 21
 2.52928449286700E+0002
  0
LINE
  8
0
 10
 2.20424264521100E+0002
 20
 2.52928449286700E+0002
 11
 2.20000200000000E+0002
 21
 2.40005300000000E+0002
  0
LINE
  8
0
 10
 2.20000200000000E+0002
 20
 2.40005300000000E+0002
 11
 2.20000000000000E+0002
 21
 1.55000000000000E+0002
  0
LINE
  8
0
 10
 2.20000000000000E+0002
 20
 1.55000000000000E+0002
 11
 2.80000000000000E+0002
 21
 1.55000000000000E+0002
  0
LINE
  8
0
 10
 2.80000000000000E+0002
 20
 1.55000000000000E+0002
 11
 2.80000000000000E+0002
 21
 2.40005300000000E+0002
  0
LINE
  8
0
 10
 2.80000000000000E+0002
 20
 2.40005300000000E+0002
 11
 2.80424035505500E+0002
 21
 2.52928449294400E+0002
  0
LINE
  8
0
 10
 2.80424035505500E+0002
 20
 2.52928449294400E+0002
 11
 2.81011011964000E+0002
 21
 2.65687151155200E+0002
  0
LINE
  8
0
 10
 2.81011011964000E+0002
 20
 2.65687151155200E+0002
 11
 2.81757596288500E+0002
 21
 2.78284786548800E+0002
  0
LINE
  8
0
 10
 2.81757596288500E+0002
 20
 2.78284786548800E+0002
 11
 2.82660455392000E+0002
 21
 2.90724736441600E+0002
  0
LINE
  8
0
 10
 2.82660455392000E+0002
 20
 2.90724736441600E+0002
 11
 2.83716256187500E+0002
 21
 3.03010381800000E+0002
  0
LINE
  8
0
 10
 2.83716256187500E+0002
 20
 3.03010381800000E+0002
 11
 2.84921665588000E+0002
 21
 3.15145103590400E+0002
  0
LINE
  8
0
 10
 2.84921665588000E+0002
 20
 3.15145103590400E+0002
 11
 2.86273350506500E+0002
 21
 3.27132282779200E+0002
  0
LINE
  8
0
 10
 2.86273350506500E+0002
 20
 3.27132282779200E+0002
 11
 2.87767977856000E+0002
 21
 3.38975300332800E+0002
  0
LINE
  8
0
 10
 2.87767977856000E+0002
 20
 3.38975300332800E+0002
 11
 2.89402214549500E+0002
 21
 3.50677537217600E+0002
  0
LINE
  8
0
 10
 2.89402214549500E+0002
 20
 3.50677537217600E+0002
 11
 2.91172727500000E+0002
 21
 3.62242374400000E+0002
  0
LINE
  8
0
 10
 2.91172727500000E+0002
 20
 3.62242374400000E+0002
 11
 2.93076183620500E+0002
 21
 3.73673192846400E+0002
  0
LINE
  8
0
 10
 2.93076183620500E+0002
 20
 3.73673192846400E+0002
 11
 2.95109249824000E+0002
 21
 3.84973373523200E+0002
  0
LINE
  8
0
 10
 2.95109249824000E+0002
 20
 3.84973373523200E+0002
 11
 2.97268593023500E+0002
 21
 3.96146297396800E+0002
  0
LINE
  8
0
 10
 2.97268593023500E+0002
 20
 3.96146297396800E+0002
 11
 2.99550880132000E+0002
 21
 4.07195345433600E+0002
  0
LINE
  8
0
 10
 2.99550880132000E+0002
 20
 4.07195345433600E+0002
 11
 3.01952778062500E+0002
 21
 4.18123898600000E+0002
  0
LINE
  8
0
 10
 3.01952778062500E+0002
 20
 4.18123898600000E+0002
 11
 3.04470953728000E+0002
 21
 4.28935337862400E+0002
  0
LINE
  8
0
 10
 3.04470953728000E+0002
 20
 4.28935337862400E+0002
 11
 3.07102074041500E+0002
 21
 4.39633044187200E+0002
  0
LINE
  8
0
 10
 3.07102074041500E+0002
 20
 4.39633044187200E+0002
 11
 3.09842805916000E+0002
 21
 4.50220398540800E+0002
  0
LINE
  8
0
 10
 3.09842805916000E+0002
 20
 4.50220398540800E+0002
 11
 3.12689816264500E+0002
 21
 4.60700781889600E+0002
  0
LINE
  8
0
 10
 3.12689816264500E+0002
 20
 4.60700781889600E+0002
 11
 3.15639772000000E+0002
 21
 4.71077575200000E+0002
  0
LINE
  8
0
 10
 3.15639772000000E+0002
 20
 4.71077575200000E+0002
 11
 3.18689340035500E+0002
 21
 4.81354159438400E+0002
  0
LINE
  8
0
 10
 3.18689340035500E+0002
 20
 4.81354159438400E+0002
 11
 3.21835187284000E+0002
 21
 4.91533915571200E+0002
  0
LINE
  8
0
 10
 3.21835187284000E+0002
 20
 4.91533915571200E+0002
 11
 3.25073980658500E+0002
 21
 5.01620224564800E+0002
  0
LINE
  8
0
 10
 3.25073980658500E+0002
 20
 5.01620224564800E+0002
 11
 3.28402387072000E+0002
 21
 5.11616467385600E+0002
  0
LINE
  8
0
 10
 3.28402387072000E+0002
 20
 5.11616467385600E+0002
 11
 3.31817073437500E+0002
 21
 5.21526025000000E+0002
  0
LINE
  8
0
 10
 3.31817073437500E+0002
 20
 5.21526025000000E+0002
 11
 3.35314706668000E+0002
 21
 5.31352278374400E+0002
  0
LINE
  8
0
 10
 3.35314706668000E+0002
 20
 5.31352278374400E+0002
 11
 3.38891953676500E+0002
 21
 5.41098608475200E+0002
  0
LINE
  8
0
 10
 3.38891953676500E+0002
 20
 5.41098608475200E+0002
 11
 3.42545481376000E+0002
 21
 5.50768396268800E+0002
  0
LINE
  8
0
 10
 3.42545481376000E+0002
 20
 5.50768396268800E+0002
 11
 3.46271956679500E+0002
 21
 5.60365022721600E+0002
  0
LINE
  8
0
 10
 3.46271956679500E+0002
 20
 5.60365022721600E+0002
 11
 3.50068046500000E+0002
 21
 5.69891868800000E+0002
  0
LINE
  8
0
 10
 3.50068046500000E+0002
 20
 5.69891868800000E+0002
 11
 3.53930417750500E+0002
 21
 5.79352315470400E+0002
  0
LINE
  8
0
 10
 3.53930417750500E+0002
 20
 5.79352315470400E+0002
 11
 3.57855737344000E+0002
 21
 5.88749743699200E+0002
  0
LINE
  8
0
 10
 3.57855737344000E+0002
 20
 5.88749743699200E+0002
 11
 3.61840672193500E+0002
 21
 5.98087534452800E+0002
  0
LINE
  8
0
 10
 3.61840672193500E+0002
 20
 5.98087534452800E+0002
 11
 3.65881889212000E+0002
 21
 6.07369068697600E+0002
  0
LINE
  8
0
 10
 3.65881889212000E+0002
 20
 6.07369068697600E+0002
 11
 3.69976055312500E+0002
 21
 6.16597727400000E+0002
  0
LINE
  8
0
 10
 3.69976055312500E+0002
 20
 6.16597727400000E+0002
 11
 3.74119837408000E+0002
 21
 6.25776891526400E+0002
  0
LINE
  8
0
 10
 3.74119837408000E+0002
 20
 6.25776891526400E+0002
 11
 3.78309902411500E+0002
 21
 6.34909942043200E+0002
  0
LINE
  8
0
 10
 3.78309902411500E+0002
 20
 6.34909942043200E+0002
 11
 3.82542917236000E+0002
 21
 6.44000259916800E+0002
  0
LINE
  8
0
 10
 3.82542917236000E+0002
 20
 6.44000259916800E+0002
 11
 3.86815548794500E+0002
 21
 6.53051226113600E+0002
  0
LINE
  8
0
 10
 3.86815548794500E+0002
 20
 6.53051226113600E+0002
 11
 3.91124464000000E+0002
 21
 6.62066221600000E+0002
  0
LINE
  8
0
 10
 3.91124464000000E+0002
 20
 6.62066221600000E+0002
 11
 3.95466329765500E+0002
 21
 6.71048627342400E+0002
  0
LINE
  8
0
 10
 3.95466329765500E+0002
 20
 6.71048627342400E+0002
 11
 3.99837813004000E+0002
 21
 6.80001824307200E+0002
  0
LINE
  8
0
 10
 3.99837813004000E+0002
 20
 6.80001824307200E+0002
 11
 4.04235580628500E+0002
 21
 6.88929193460800E+0002
  0
LINE
  8
0
 10
 4.04235580628500E+0002
 20
 6.88929193460800E+0002
 11
 4.08656299552000E+0002
 21
 6.97834115769600E+0002
  0
LINE
  8
0
 10
 4.08656299552000E+0002
 20
 6.97834115769600E+0002
 11
 4.13096636687500E+0002
 21
 7.06719972200000E+0002
  0
LINE
  8
0
 10
 4.13096636687500E+0002
 20
 7.06719972200000E+0002
 11
 4.17553258948000E+0002
 21
 7.15590143718400E+0002
  0
LINE
  8
0
 10
 4.17553258948000E+0002
 20
 7.15590143718400E+0002
 11
 4.22022833246500E+0002
 21
 7.24448011291200E+0002
  0
LINE
  8
0
 10
 4.22022833246500E+0002
 20
 7.24448011291200E+0002
 11
 4.26502026496000E+0002
 21
 7.33296955884800E+0002
  0
LINE
  8
0
 10
 4.26502026496000E+0002
 20
 7.33296955884800E+0002
 11
 4.30987505609500E+0002
 21
 7.42140358465600E+0002
  0
LINE
  8
0
 10
 4.30987505609500E+0002
 20
 7.42140358465600E+0002
 11
 4.35475937500000E+0002
 21
 7.50981600000000E+0002
  0
LINE
  8
0
 10
 4.35475937500000E+0002
 20
 7.50981600000000E+0002
 11
 4.39963989080500E+0002
 21
 7.59824061454400E+0002
  0
LINE
  8
0
 10
 4.39963989080500E+0002
 20
 7.59824061454400E+0002
 11
 4.44448327264000E+0002
 21
 7.68671123795200E+0002
  0
LINE
  8
0
 10
 4.44448327264000E+0002
 20
 7.68671123795200E+0002
 11
 4.48925618963500E+0002
 21
 7.77526167988800E+0002
  0
LINE
  8
0
 10
 4.48925618963500E+0002
 20
 7.77526167988800E+0002
 11
 4.53392531092000E+0002
 21
 7.86392575001600E+0002
  0
LINE
  8
0
 10
 4.53392531092000E+0002
 20
 7.86392575001600E+0002
 11
 4.57845730562500E+0002
 21
 7.95273725800000E+0002
  0
LINE
  8
0
 10
 4.57845730562500E+0002
 20
 7.95273725800000E+0002
 11
 4.62281884288000E+0002
 21
 8.04173001350400E+0002
  0
LINE
  8
0
 10
 4.62281884288000E+0002
 20
 8.04173001350400E+0002
 11
 4.66697659181500E+0002
 21
 8.13093782619200E+0002
  0
LINE
  8
0
 10
 4.66697659181500E+0002
 20
 8.13093782619200E+0002
 11
 4.71089722156000E+0002
 21
 8.22039450572800E+0002
  0
LINE
  8
0
 10
 4.71089722156000E+0002
 20
 8.22039450572800E+0002
 11
 4.75454740124500E+0002
 21
 8.31013386177600E+0002
  0
LINE
  8
0
 10
 4.75454740124500E+0002
 20
 8.31013386177600E+0002
 11
 4.79789380000000E+0002
 21
 8.40018970400000E+0002
  0
LINE
  8
0
 10
 4.79789380000000E+0002
 20
 8.40018970400000E+0002
 11
 4.84090308695500E+0002
 21
 8.49059584206400E+0002
  0
LINE
  8
0
 10
 4.84090308695500E+0002
 20
 8.49059584206400E+0002
 11
 4.88354193124000E+0002
 21
 8.58138608563200E+0002
  0
LINE
  8
0
 10
 4.88354193124000E+0002
 20
 8.58138608563200E+0002
 11
 4.92577700198500E+0002
 21
 8.67259424436800E+0002
  0
LINE
  8
0
 10
 4.92577700198500E+0002
 20
 8.67259424436800E+0002
 11
 4.96757496832000E+0002
 21
 8.76425412793600E+0002
  0
LINE
  8
0
 10
 4.96757496832000E+0002
 20
 8.76425412793600E+0002
 11
 5.00890249937500E+0002
 21
 8.85639954600000E+0002
  0
LINE
  8
0
 10
 5.00890249937500E+0002
 20
 8.85639954600000E+0002
 11
 5.04972626428000E+0002
 21
 8.94906430822400E+0002
  0
LINE
  8
0
 10
 5.04972626428000E+0002
 20
 8.94906430822400E+0002
 11
 5.09001293216500E+0002
 21
 9.04228222427200E+0002
  0
LINE
  8
0
 10
 5.09001293216500E+0002
 20
 9.04228222427200E+0002
 11
 5.12972917216000E+0002
 21
 9.13608710380800E+0002
  0
LINE
  8
0
 10
 5.12972917216000E+0002
 20
 9.13608710380800E+0002
 11
 5.16884165339500E+0002
 21
 9.23051275649600E+0002
  0
LINE
  8
0
 10
 5.16884165339500E+0002
 20
 9.23051275649600E+0002
 11
 5.20731704500000E+0002
 21
 9.32559299200000E+0002
  0
LINE
  8
0
 10
 5.20731704500000E+0002
 20
 9.32559299200000E+0002
 11
 5.24512201610500E+0002
 21
 9.42136161998400E+0002
  0
LINE
  8
0
 10
 5.24512201610500E+0002
 20
 9.42136161998400E+0002
 11
 5.28222323584000E+0002
 21
 9.51785245011200E+0002
  0
LINE
  8
0
 10
 5.28222323584000E+0002
 20
 9.51785245011200E+0002
 11
 5.31858737333500E+0002
 21
 9.61509929204800E+0002
  0
LINE
  8
0
 10
 5.31858737333500E+0002
 20
 9.61509929204800E+0002
 11
 5.35418109772000E+0002
 21
 9.71313595545600E+0002
  0
LINE
  8
0
 10
 5.35418109772000E+0002
 20
 9.71313595545600E+0002
 11
 5.38897107812500E+0002
 21
 9.81199625000000E+0002
  0
LINE
  8
0
 10
 5.38897107812500E+0002
 20
 9.81199625000000E+0002
 11
 5.42292398368000E+0002
 21
 9.91171398534400E+0002
  0
LINE
  8
0
 10
 5.42292398368000E+0002
 20
 9.91171398534400E+0002
 11
 5.45600648351500E+0002
 21
 1.00123229711520E+0003
  0
LINE
  8
0
 10
 5.45600648351500E+0002
 20
 1.00123229711520E+0003
 11
 5.48818524676000E+0002
 21
 1.01138570170880E+0003
  0
LINE
  8
0
 10
 5.48818524676000E+0002
 20
 1.01138570170880E+0003
 11
 5.51942694254500E+0002
 21
 1.02163499328160E+0003
  0
LINE
  8
0
 10
 5.51942694254500E+0002
 20
 1.02163499328160E+0003
 11
 5.54969824000000E+0002
 21
 1.03198355280000E+0003
  0
LINE
  8
0
 10
 5.54969824000000E+0002
 20
 1.03198355280000E+0003
 11
 5.57896580825500E+0002
 21
 1.04243476123040E+0003
  0
LINE
  8
0
 10
 5.57896580825500E+0002
 20
 1.04243476123040E+0003
 11
 5.60719631644000E+0002
 21
 1.05299199953920E+0003
  0
LINE
  8
0
 10
 5.60719631644000E+0002
 20
 1.05299199953920E+0003
 11
 5.63435643368500E+0002
 21
 1.06365864869280E+0003
  0
LINE
  8
0
 10
 5.63435643368500E+0002
 20
 1.06365864869280E+0003
 11
 5.66041282912000E+0002
 21
 1.07443808965760E+0003
  0
LINE
  8
0
 10
 5.66041282912000E+0002
 20
 1.07443808965760E+0003
 11
 5.68533217187500E+0002
 21
 1.08533370340000E+0003
  0
LINE
  8
0
 10
 5.68533217187500E+0002
 20
 1.08533370340000E+0003
 11
 5.70908113108000E+0002
 21
 1.09634887088640E+0003
  0
LINE
  8
0
 10
 5.70908113108000E+0002
 20
 1.09634887088640E+0003
 11
 5.73162637586500E+0002
 21
 1.10748697308320E+0003
  0
LINE
  8
0
 10
 5.73162637586500E+0002
 20
 1.10748697308320E+0003
 11
 5.75293457536000E+0002
 21
 1.11875139095680E+0003
  0
LINE
  8
0
 10
 5.75293457536000E+0002
 20
 1.11875139095680E+0003
 11
 5.77297239869500E+0002
 21
 1.13014550547360E+0003
  0
LINE
  8
0
 10
 5.77297239869500E+0002
 20
 1.13014550547360E+0003
 11
 5.79170651500000E+0002
 21
 1.14167269760000E+0003
  0
LINE
  8
0
 10
 5.79170651500000E+0002
 20
 1.14167269760000E+0003
 11
 5.80910359340500E+0002
 21
 1.15333634830240E+0003
  0
LINE
  8
0
 10
 5.80910359340500E+0002
 20
 1.15333634830240E+0003
 11
 5.82513030304000E+0002
 21
 1.16513983854720E+0003
  0
LINE
  8
0
 10
 5.82513030304000E+0002
 20
 1.16513983854720E+0003
 11
 5.83975331303500E+0002
 21
 1.17708654930080E+0003
  0
LINE
  8
0
 10
 5.83975331303500E+0002
 20
 1.17708654930080E+0003
 11
 5.85293929252000E+0002
 21
 1.18917986152960E+0003
  0
LINE
  8
0
 10
 5.85293929252000E+0002
 20
 1.18917986152960E+0003
 11
 5.86465491062500E+0002
 21
 1.20142315620000E+0003
  0
LINE
  8
0
 10
 5.86465491062500E+0002
 20
 1.20142315620000E+0003
 11
 5.87486683648000E+0002
 21
 1.21381981427840E+0003
  0
LINE
  8
0
 10
 5.87486683648000E+0002
 20
 1.21381981427840E+0003
 11
 5.88354173921500E+0002
 21
 1.22637321673120E+0003
  0
LINE
  8
0
 10
 5.88354173921500E+0002
 20
 1.22637321673120E+0003
 11
 5.89064628796000E+0002
 21
 1.23908674452480E+0003
  0
LINE
  8
0
 10
 5.89064628796000E+0002
 20
 1.23908674452480E+0003
 11
 5.89614715184500E+0002
 21
 1.25196377862560E+0003
  0
LINE
  8
0
 10
 5.89614715184500E+0002
 20
 1.25196377862560E+0003
 11
 5.90001100000000E+0002
 21
 1.26500770000000E+0003
  0
LINE
  8
0
 10
 5.90001100000000E+0002
 20
 1.26500770000000E+0003
 11
 5.90000000000000E+0002
 21
 1.30700000000000E+0003
  0
LINE
  8
0
 10
 5.90000000000000E+0002
 20
 1.30700000000000E+0003
 11
 6.35000509446390E+0002
 21
 1.29538091843480E+0003
  0
ARC
  8
0
 10
 6.38000000000000E+0002
 20
 1.30700000000000E+0003
 40
 1.20000000000000E+0001
 50
 2.55525000000000E+0002
 51
 3.93805000000000E+0002
  0
LINE
  8
0
 10
 6.47971231041917E+0002
 20
 1.31367641756549E+0003
 11
 5.60000000000000E+0002
 21
 1.44500000000000E+0003
  0
LINE
  8
0
 10
 5.60000000000000E+0002
 20
 1.44500000000000E+0003
 11
 4.72028768958084E+0002
 21
 1.31367641756549E+0003
  0
ARC
  8
0
 10
 4.82000000000000E+0002
 20
 1.30700000000000E+0003
 40
 1.20000000000000E+0001
 50
 1.46195000000000E+0002
 51
 2.84475000000000E+0002
  0
LINE
  8
0
 10
 4.84999490553610E+0002
 20
 1.29538091843480E+0003
 11
 5.30000000000000E+0002
 21
 1.30700000000000E+0003
  0
LINE
  8
0
 10
 5.30000000000000E+0002
 20
 1.30700000000000E+0003
 11
 5.30000000000000E+0002
 21
 1.26500000000000E+0003
  0
LINE
  8
0
 10
 7.70000000000000E+0002
 20
 1.26500000000000E+0003
 11
 7.69613615868900E+0002
 21
 1.25195630732330E+0003
  0
LINE
  8
0
 10
 7.69613615868900E+0002
 20
 1.25195630732330E+0003
 11
 7.69063531511200E+0002
 21
 1.23907949734640E+0003
  0
LINE
  8
0
 10
 7.69063531511200E+0002
 20
 1.23907949734640E+0003
 11
 7.68353079980300E+0002
 21
 1.22636618914910E+0003
  0
LINE
  8
0
 10
 7.68353079980300E+0002
 20
 1.22636618914910E+0003
 11
 7.67485594329600E+0002
 21
 1.21381300181120E+0003
  0
LINE
  8
0
 10
 7.67485594329600E+0002
 20
 1.21381300181120E+0003
 11
 7.66464407612500E+0002
 21
 1.20141655441250E+0003
  0
LINE
  8
0
 10
 7.66464407612500E+0002
 20
 1.20141655441250E+0003
 11
 7.65292852882400E+0002
 21
 1.18917346603280E+0003
  0
LINE
  8
0
 10
 7.65292852882400E+0002
 20
 1.18917346603280E+0003
 11
 7.63974263192700E+0002
 21
 1.17708035575190E+0003
  0
LINE
  8
0
 10
 7.63974263192700E+0002
 20
 1.17708035575190E+0003
 11
 7.62511971596800E+0002
 21
 1.16513384264960E+0003
  0
LINE
  8
0
 10
 7.62511971596800E+0002
 20
 1.16513384264960E+0003
 11
 7.60909311148100E+0002
 21
 1.15333054580570E+0003
  0
LINE
  8
0
 10
 7.60909311148100E+0002
 20
 1.15333054580570E+0003
 11
 7.59169614900000E+0002
 21
 1.14166708430000E+0003
  0
LINE
  8
0
 10
 7.59169614900000E+0002
 20
 1.14166708430000E+0003
 11
 7.57296215905900E+0002
 21
 1.13014007721230E+0003
  0
LINE
  8
0
 10
 7.57296215905900E+0002
 20
 1.13014007721230E+0003
 11
 7.55292447219200E+0002
 21
 1.11874614362240E+0003
  0
LINE
  8
0
 10
 7.55292447219200E+0002
 20
 1.11874614362240E+0003
 11
 7.53161641893300E+0002
 21
 1.10748190261010E+0003
  0
LINE
  8
0
 10
 7.53161641893300E+0002
 20
 1.10748190261010E+0003
 11
 7.50907132981600E+0002
 21
 1.09634397325520E+0003
  0
LINE
  8
0
 10
 7.50907132981600E+0002
 20
 1.09634397325520E+0003
 11
 7.48532253537500E+0002
 21
 1.08532897463750E+0003
  0
LINE
  8
0
 10
 7.48532253537500E+0002
 20
 1.08532897463750E+0003
 11
 7.46040336614400E+0002
 21
 1.07443352583680E+0003
  0
LINE
  8
0
 10
 7.46040336614400E+0002
 20
 1.07443352583680E+0003
 11
 7.43434715265700E+0002
 21
 1.06365424593290E+0003
  0
LINE
  8
0
 10
 7.43434715265700E+0002
 20
 1.06365424593290E+0003
 11
 7.40718722544800E+0002
 21
 1.05298775400560E+0003
  0
LINE
  8
0
 10
 7.40718722544800E+0002
 20
 1.05298775400560E+0003
 11
 7.37895691505100E+0002
 21
 1.04243066913470E+0003
  0
LINE
  8
0
 10
 7.37895691505100E+0002
 20
 1.04243066913470E+0003
 11
 7.34968955200000E+0002
 21
 1.03197961040000E+0003
  0
LINE
  8
0
 10
 7.34968955200000E+0002
 20
 1.03197961040000E+0003
 11
 7.31941846682900E+0002
 21
 1.02163119688130E+0003
  0
LINE
  8
0
 10
 7.31941846682900E+0002
 20
 1.02163119688130E+0003
 11
 7.28817699007200E+0002
 21
 1.01138204765840E+0003
  0
LINE
  8
0
 10
 7.28817699007200E+0002
 20
 1.01138204765840E+0003
 11
 7.25599845226300E+0002
 21
 1.00122878181110E+0003
  0
LINE
  8
0
 10
 7.25599845226300E+0002
 20
 1.00122878181110E+0003
 11
 7.22291618393600E+0002
 21
 9.91168018419200E+0002
  0
LINE
  8
0
 10
 7.22291618393600E+0002
 20
 9.91168018419200E+0002
 11
 7.18896351562500E+0002
 21
 9.81196376562500E+0002
  0
LINE
  8
0
 10
 7.18896351562500E+0002
 20
 9.81196376562500E+0002
 11
 7.15417377786400E+0002
 21
 9.71310475320800E+0002
  0
LINE
  8
0
 10
 7.15417377786400E+0002
 20
 9.71310475320800E+0002
 11
 7.11858030118700E+0002
 21
 9.61506933773900E+0002
  0
LINE
  8
0
 10
 7.11858030118700E+0002
 20
 9.61506933773900E+0002
 11
 7.08221641612800E+0002
 21
 9.51782371001600E+0002
  0
LINE
  8
0
 10
 7.08221641612800E+0002
 20
 9.51782371001600E+0002
 11
 7.04511545322100E+0002
 21
 9.42133406083700E+0002
  0
LINE
  8
0
 10
 7.04511545322100E+0002
 20
 9.42133406083700E+0002
 11
 7.00731074300000E+0002
 21
 9.32556658100000E+0002
  0
LINE
  8
0
 10
 7.00731074300000E+0002
 20
 9.32556658100000E+0002
 11
 6.96883561599900E+0002
 21
 9.23048746130300E+0002
  0
LINE
  8
0
 10
 6.96883561599900E+0002
 20
 9.23048746130300E+0002
 11
 6.92972340275200E+0002
 21
 9.13606289254400E+0002
  0
LINE
  8
0
 10
 6.92972340275200E+0002
 20
 9.13606289254400E+0002
 11
 6.89000743379300E+0002
 21
 9.04225906552100E+0002
  0
LINE
  8
0
 10
 6.89000743379300E+0002
 20
 9.04225906552100E+0002
 11
 6.84972103965600E+0002
 21
 8.94904217103200E+0002
  0
LINE
  8
0
 10
 6.84972103965600E+0002
 20
 8.94904217103200E+0002
 11
 6.80889755087500E+0002
 21
 8.85637839987500E+0002
  0
LINE
  8
0
 10
 6.80889755087500E+0002
 20
 8.85637839987500E+0002
 11
 6.76757029798400E+0002
 21
 8.76423394284800E+0002
  0
LINE
  8
0
 10
 6.76757029798400E+0002
 20
 8.76423394284800E+0002
 11
 6.72577261151700E+0002
 21
 8.67257499074900E+0002
  0
LINE
  8
0
 10
 6.72577261151700E+0002
 20
 8.67257499074900E+0002
 11
 6.68353782200800E+0002
 21
 8.58136773437600E+0002
  0
LINE
  8
0
 10
 6.68353782200800E+0002
 20
 8.58136773437600E+0002
 11
 6.64089925999100E+0002
 21
 8.49057836452700E+0002
  0
LINE
  8
0
 10
 6.64089925999100E+0002
 20
 8.49057836452700E+0002
 11
 6.59789025600000E+0002
 21
 8.40017307200000E+0002
  0
LINE
  8
0
 10
 6.59789025600000E+0002
 20
 8.40017307200000E+0002
 11
 6.55454414056900E+0002
 21
 8.31011804759300E+0002
  0
LINE
  8
0
 10
 6.55454414056900E+0002
 20
 8.31011804759300E+0002
 11
 6.51089424423200E+0002
 21
 8.22037948210400E+0002
  0
LINE
  8
0
 10
 6.51089424423200E+0002
 20
 8.22037948210400E+0002
 11
 6.46697389752300E+0002
 21
 8.13092356633100E+0002
  0
LINE
  8
0
 10
 6.46697389752300E+0002
 20
 8.13092356633100E+0002
 11
 6.42281643097600E+0002
 21
 8.04171649107200E+0002
  0
LINE
  8
0
 10
 6.42281643097600E+0002
 20
 8.04171649107200E+0002
 11
 6.37845517512500E+0002
 21
 7.95272444712500E+0002
  0
LINE
  8
0
 10
 6.37845517512500E+0002
 20
 7.95272444712500E+0002
 11
 6.33392346050400E+0002
 21
 7.86391362528800E+0002
  0
LINE
  8
0
 10
 6.33392346050400E+0002
 20
 7.86391362528800E+0002
 11
 6.28925461764700E+0002
 21
 7.77525021635900E+0002
  0
LINE
  8
0
 10
 6.28925461764700E+0002
 20
 7.77525021635900E+0002
 11
 6.24448197708800E+0002
 21
 7.68670041113600E+0002
  0
LINE
  8
0
 10
 6.24448197708800E+0002
 20
 7.68670041113600E+0002
 11
 6.19963886936100E+0002
 21
 7.59823040041700E+0002
  0
LINE
  8
0
 10
 6.19963886936100E+0002
 20
 7.59823040041700E+0002
 11
 6.15475862500000E+0002
 21
 7.50980637500000E+0002
  0
LINE
  8
0
 10
 6.15475862500000E+0002
 20
 7.50980637500000E+0002
 11
 6.10987457453900E+0002
 21
 7.42139452568300E+0002
  0
LINE
  8
0
 10
 6.10987457453900E+0002
 20
 7.42139452568300E+0002
 11
 6.06502004851200E+0002
 21
 7.33296104326400E+0002
  0
LINE
  8
0
 10
 6.06502004851200E+0002
 20
 7.33296104326400E+0002
 11
 6.02022837745300E+0002
 21
 7.24447211854100E+0002
  0
LINE
  8
0
 10
 6.02022837745300E+0002
 20
 7.24447211854100E+0002
 11
 5.97553289189600E+0002
 21
 7.15589394231200E+0002
  0
LINE
  8
0
 10
 5.97553289189600E+0002
 20
 7.15589394231200E+0002
 11
 5.93096692237500E+0002
 21
 7.06719270537500E+0002
  0
LINE
  8
0
 10
 5.93096692237500E+0002
 20
 7.06719270537500E+0002
 11
 5.88656379942400E+0002
 21
 6.97833459852800E+0002
  0
LINE
  8
0
 10
 5.88656379942400E+0002
 20
 6.97833459852800E+0002
 11
 5.84235685357700E+0002
 21
 6.88928581256900E+0002
  0
LINE
  8
0
 10
 5.84235685357700E+0002
 20
 6.88928581256900E+0002
 11
 5.79837941536800E+0002
 21
 6.80001253829600E+0002
  0
LINE
  8
0
 10
 5.79837941536800E+0002
 20
 6.80001253829600E+0002
 11
 5.75466481533100E+0002
 21
 6.71048096650700E+0002
  0
LINE
  8
0
 10
 5.75466481533100E+0002
 20
 6.71048096650700E+0002
 11
 5.71124638400000E+0002
 21
 6.62065728800000E+0002
  0
LINE
  8
0
 10
 5.71124638400000E+0002
 20
 6.62065728800000E+0002
 11
 5.66815745190900E+0002
 21
 6.53050769357300E+0002
  0
LINE
  8
0
 10
 5.66815745190900E+0002
 20
 6.53050769357300E+0002
 11
 5.62543134959200E+0002
 21
 6.43999837402400E+0002
  0
LINE
  8
0
 10
 5.62543134959200E+0002
 20
 6.43999837402400E+0002
 11
 5.58310140758300E+0002
 21
 6.34909552015100E+0002
  0
LINE
  8
0
 10
 5.58310140758300E+0002
 20
 6.34909552015100E+0002
 11
 5.54120095641600E+0002
 21
 6.25776532275200E+0002
  0
LINE
  8
0
 10
 5.54120095641600E+0002
 20
 6.25776532275200E+0002
 11
 5.49976332662500E+0002
 21
 6.16597397262500E+0002
  0
LINE
  8
0
 10
 5.49976332662500E+0002
 20
 6.16597397262500E+0002
 11
 5.45882184874400E+0002
 21
 6.07368766056800E+0002
  0
LINE
  8
0
 10
 5.45882184874400E+0002
 20
 6.07368766056800E+0002
 11
 5.41840985330700E+0002
 21
 5.98087257737900E+0002
  0
LINE
  8
0
 10
 5.41840985330700E+0002
 20
 5.98087257737900E+0002
 11
 5.37856067084800E+0002
 21
 5.88749491385600E+0002
  0
LINE
  8
0
 10
 5.37856067084800E+0002
 20
 5.88749491385600E+0002
 11
 5.33930763190100E+0002
 21
 5.79352086079700E+0002
  0
LINE
  8
0
 10
 5.33930763190100E+0002
 20
 5.79352086079700E+0002
 11
 5.30068406700000E+0002
 21
 5.69891660900000E+0002
  0
LINE
  8
0
 10
 5.30068406700000E+0002
 20
 5.69891660900000E+0002
 11
 5.26272330667900E+0002
 21
 5.60364834926300E+0002
  0
LINE
  8
0
 10
 5.26272330667900E+0002
 20
 5.60364834926300E+0002
 11
 5.22545868147200E+0002
 21
 5.50768227238400E+0002
  0
LINE
  8
0
 10
 5.22545868147200E+0002
 20
 5.50768227238400E+0002
 11
 5.18892352191300E+0002
 21
 5.41098456916100E+0002
  0
LINE
  8
0
 10
 5.18892352191300E+0002
 20
 5.41098456916100E+0002
 11
 5.15315115853600E+0002
 21
 5.31352143039200E+0002
  0
LINE
  8
0
 10
 5.15315115853600E+0002
 20
 5.31352143039200E+0002
 11
 5.11817492187500E+0002
 21
 5.21525904687500E+0002
  0
LINE
  8
0
 10
 5.11817492187500E+0002
 20
 5.21525904687500E+0002
 11
 5.08402814246400E+0002
 21
 5.11616360940800E+0002
  0
LINE
  8
0
 10
 5.08402814246400E+0002
 20
 5.11616360940800E+0002
 11
 5.05074415083700E+0002
 21
 5.01620130878900E+0002
  0
LINE
  8
0
 10
 5.05074415083700E+0002
 20
 5.01620130878900E+0002
 11
 5.01835627752800E+0002
 21
 4.91533833581600E+0002
  0
LINE
  8
0
 10
 5.01835627752800E+0002
 20
 4.91533833581600E+0002
 11
 4.98689785307100E+0002
 21
 4.81354088128700E+0002
  0
LINE
  8
0
 10
 4.98689785307100E+0002
 20
 4.81354088128700E+0002
 11
 4.95640220800000E+0002
 21
 4.71077513600000E+0002
  0
LINE
  8
0
 10
 4.95640220800000E+0002
 20
 4.71077513600000E+0002
 11
 4.92690267284900E+0002
 21
 4.60700729075300E+0002
  0
LINE
  8
0
 10
 4.92690267284900E+0002
 20
 4.60700729075300E+0002
 11
 4.89843257815200E+0002
 21
 4.50220353634400E+0002
  0
LINE
  8
0
 10
 4.89843257815200E+0002
 20
 4.50220353634400E+0002
 11
 4.87102525444300E+0002
 21
 4.39633006357100E+0002
  0
LINE
  8
0
 10
 4.87102525444300E+0002
 20
 4.39633006357100E+0002
 11
 4.84471403225600E+0002
 21
 4.28935306323200E+0002
  0
LINE
  8
0
 10
 4.84471403225600E+0002
 20
 4.28935306323200E+0002
 11
 4.81953224212500E+0002
 21
 4.18123872612500E+0002
  0
LINE
  8
0
 10
 4.81953224212500E+0002
 20
 4.18123872612500E+0002
 11
 4.79551321458400E+0002
 21
 4.07195324304800E+0002
  0
LINE
  8
0
 10
 4.79551321458400E+0002
 20
 4.07195324304800E+0002
 11
 4.77269028016700E+0002
 21
 3.96146280479900E+0002
  0
LINE
  8
0
 10
 4.77269028016700E+0002
 20
 3.96146280479900E+0002
 11
 4.75109676940800E+0002
 21
 3.84973360217600E+0002
  0
LINE
  8
0
 10
 4.75109676940800E+0002
 20
 3.84973360217600E+0002
 11
 4.73076601284100E+0002
 21
 3.73673182597700E+0002
  0
LINE
  8
0
 10
 4.73076601284100E+0002
 20
 3.73673182597700E+0002
 11
 4.71173134100000E+0002
 21
 3.62242366700000E+0002
  0
LINE
  8
0
 10
 4.71173134100000E+0002
 20
 3.62242366700000E+0002
 11
 4.69402608441900E+0002
 21
 3.50677531604300E+0002
  0
LINE
  8
0
 10
 4.69402608441900E+0002
 20
 3.50677531604300E+0002
 11
 4.67768357363200E+0002
 21
 3.38975296390400E+0002
  0
LINE
  8
0
 10
 4.67768357363200E+0002
 20
 3.38975296390400E+0002
 11
 4.66273713917300E+0002
 21
 3.27132280138100E+0002
  0
LINE
  8
0
 10
 4.66273713917300E+0002
 20
 3.27132280138100E+0002
 11
 4.64922011157600E+0002
 21
 3.15145101927200E+0002
  0
LINE
  8
0
 10
 4.64922011157600E+0002
 20
 3.15145101927200E+0002
 11
 4.63716582137500E+0002
 21
 3.03010380837500E+0002
  0
LINE
  8
0
 10
 4.63716582137500E+0002
 20
 3.03010380837500E+0002
 11
 4.62660759910400E+0002
 21
 2.90724735948800E+0002
  0
LINE
  8
0
 10
 4.62660759910400E+0002
 20
 2.90724735948800E+0002
 11
 4.61757877529700E+0002
 21
 2.78284786340900E+0002
  0
LINE
  8
0
 10
 4.61757877529700E+0002
 20
 2.78284786340900E+0002
 11
 4.61011268048800E+0002
 21
 2.65687151093600E+0002
  0
LINE
  8
0
 10
 4.61011268048800E+0002
 20
 2.65687151093600E+0002
 11
 4.60424264521100E+0002
 21
 2.52928449286700E+0002
  0
LINE
  8
0
 10
 4.60424264521100E+0002
 20
 2.52928449286700E+0002
 11
 4.60000200000000E+0002
 21
 2.40005300000000E+0002
  0
LINE
  8
0
 10
 4.60000200000000E+0002
 20
 2.40005300000000E+0002
 11
 4.60000000000000E+0002
 21
 1.55000000000000E+0002
  0
LINE
  8
0
 10
 4.60000000000000E+0002
 20
 1.55000000000000E+0002
 11
 5.20000000000000E+0002
 21
 1.55000000000000E+0002
  0
LINE
  8
0
 10
 5.20000000000000E+0002
 20
 1.55000000000000E+0002
 11
 5.20000000000000E+0002
 21
 2.40005300000000E+0002
  0
LINE
  8
0
 10
 5.20000000000000E+0002
 20
 2.40005300000000E+0002
 11
 5.20424035505500E+0002
 21
 2.52928449294400E+0002
  0
LINE
  8
0
 10
 5.20424035505500E+0002
 20
 2.52928449294400E+0002
 11
 5.21011011964000E+0002
 21
 2.65687151155200E+0002
  0
LINE
  8
0
 10
 5.21011011964000E+0002
 20
 2.65687151155200E+0002
 11
 5.21757596288500E+0002
 21
 2.78284786548800E+0002
  0
LINE
  8
0
 10
 5.21757596288500E+0002
 20
 2.78284786548800E+0002
 11
 5.22660455392000E+0002
 21
 2.90724736441600E+0002
  0
LINE
  8
0
 10
 5.22660455392000E+0002
 20
 2.90724736441600E+0002
 11
 5.23716256187500E+0002
 21
 3.03010381800000E+0002
  0
LINE
  8
0
 10
 5.23716256187500E+0002
 20
 3.03010381800000E+0002
 11
 5.24921665588000E+0002
 21
 3.15145103590400E+0002
  0
LINE
  8
0
 10
 5.24921665588000E+0002
 20
 3.15145103590400E+0002
 11
 5.26273350506500E+0002
 21
 3.27132282779200E+0002
  0
LINE
  8
0
 10
 5.26273350506500E+0002
 20
 3.27132282779200E+0002
 11
 5.27767977856000E+0002
 21
 3.38975300332800E+0002
  0
LINE
  8
0
 10
 5.27767977856000E+0002
 20
 3.38975300332800E+0002
 11
 5.29402214549500E+0002
 21
 3.50677537217600E+0002
  0
LINE
  8
0
 10
 5.29402214549500E+0002
 20
 3.50677537217600E+0002
 11
 5.31172727500000E+0002
 21
 3.62242374400000E+0002
  0
LINE
  8
0
 10
 5.31172727500000E+0002
 20
 3.62242374400000E+0002
 11
 5.33076183620500E+0002
 21
 3.73673192846400E+0002
  0
LINE
  8
0
 10
 5.33076183620500E+0002
 20
 3.73673192846400E+0002
 11
 5.35109249824000E+0002
 21
 3.84973373523200E+0002
  0
LINE
  8
0
 10
 5.35109249824000E+0002
 20
 3.84973373523200E+0002
 11
 5.37268593023500E+0002
 21
 3.96146297396800E+0002
  0
LINE
  8
0
 10
 5.37268593023500E+0002
 20
 3.96146297396800E+0002
 11
 5.39550880132000E+0002
 21
 4.07195345433600E+0002
  0
LINE
  8
0
 10
 5.39550880132000E+0002
 20
 4.07195345433600E+0002
 11
 5.41952778062500E+0002
 21
 4.18123898600000E+0002
  0
LINE
  8
0
 10
 5.41952778062500E+0002
 20
 4.18123898600000E+0002
 11
 5.44470953728000E+0002
 21
 4.28935337862400E+0002
  0
LINE
  8
0
 10
 5.44470953728000E+0002
 20
 4.28935337862400E+0002
 11
 5.47102074041500E+0002
 21
 4.39633044187200E+0002
  0
LINE
  8
0
 10
 5.47102074041500E+0002
 20
 4.39633044187200E+0002
 11
 5.49842805916000E+0002
 21
 4.50220398540800E+0002
  0
LINE
  8
0
 10
 5.49842805916000E+0002
 20
 4.50220398540800E+0002
 11
 5.52689816264500E+0002
 21
 4.60700781889600E+0002
  0
LINE
  8
0
 10
 5.52689816264500E+0002
 20
 4.60700781889600E+0002
 11
 5.55639772000000E+0002
 21
 4.71077575200000E+0002
  0
LINE
  8
0
 10
 5.55639772000000E+0002
 20
 4.71077575200000E+0002
 11
 5.58689340035500E+0002
 21
 4.81354159438400E+0002
  0
LINE
  8
0
 10
 5.58689340035500E+0002
 20
 4.81354159438400E+0002
 11
 5.61835187284000E+0002
 21
 4.91533915571200E+0002
  0
LINE
  8
0
 10
 5.61835187284000E+0002
 20
 4.91533915571200E+0002
 11
 5.65073980658500E+0002
 21
 5.01620224564800E+0002
  0
LINE
  8
0
 10
 5.65073980658500E+0002
 20
 5.01620224564800E+0002
 11
 5.68402387072000E+0002
 21
 5.11616467385600E+0002
  0
LINE
  8
0
 10
 5.68402387072000E+0002
 20
 5.11616467385600E+0002
 11
 5.71817073437500E+0002
 21
 5.21526025000000E+0002
  0
LINE
  8
0
 10
 5.71817073437500E+0002
 20
 5.21526025000000E+0002
 11
 5.75314706668000E+0002
 21
 5.31352278374400E+0002
  0
LINE
  8
0
 10
 5.75314706668000E+0002
 20
 5.31352278374400E+0002
 11
 5.78891953676500E+0002
 21
 5.41098608475200E+0002
  0
LINE
  8
0
 10
 5.78891953676500E+0002
 20
 5.41098608475200E+0002
 11
 5.82545481376000E+0002
 21
 5.50768396268800E+0002
  0
LINE
  8
0
 10
 5.82545481376000E+0002
 20
 5.50768396268800E+0002
 11
 5.86271956679500E+0002
 21
 5.60365022721600E+0002
  0
LINE
  8
0
 10
 5.86271956679500E+0002
 20
 5.60365022721600E+0002
 11
 5.90068046500000E+0002
 21
 5.69891868800000E+0002
  0
LINE
  8
0
 10
 5.90068046500000E+0002
 20
 5.69891868800000E+0002
 11
 5.93930417750500E+0002
 21
 5.79352315470400E+0002
  0
LINE
  8
0
 10
 5.93930417750500E+0002
 20
 5.79352315470400E+0002
 11
 5.97855737344000E+0002
 21
 5.88749743699200E+0002
  0
LINE
  8
0
 10
 5.97855737344000E+0002
 20
 5.88749743699200E+0002
 11
 6.01840672193500E+0002
 21
 5.98087534452800E+0002
  0
LINE
  8
0
 10
 6.01840672193500E+0002
 20
 5.98087534452800E+0002
 11
 6.05881889212000E+0002
 21
 6.07369068697600E+0002
  0
LINE
  8
0
 10
 6.05881889212000E+0002
 20
 6.07369068697600E+0002
 11
 6.09976055312500E+0002
 21
 6.16597727400000E+0002
  0
LINE
  8
0
 10
 6.09976055312500E+0002
 20
 6.16597727400000E+0002
 11
 6.14119837408000E+0002
 21
 6.25776891526400E+0002
  0
LINE
  8
0
 10
 6.14119837408000E+0002
 20
 6.25776891526400E+0002
 11
 6.18309902411500E+0002
 21
 6.34909942043200E+0002
  0
LINE
  8
0
 10
 6.18309902411500E+0002
 20
 6.34909942043200E+0002
 11
 6.22542917236000E+0002
 21
 6.44000259916800E+0002
  0
LINE
  8
0
 10
 6.22542917236000E+0002
 20
 6.44000259916800E+0002
 11
 6.26815548794500E+0002
 21
 6.53051226113600E+0002
  0
LINE
  8
0
 10
 6.26815548794500E+0002
 20
 6.53051226113600E+0002
 11
 6.31124464000000E+0002
 21
 6.62066221600000E+0002
  0
LINE
  8
0
 10
 6.31124464000000E+0002
 20
 6.62066221600000E+0002
 11
 6.35466329765500E+0002
 21
 6.71048627342400E+0002
  0
LINE
  8
0
 10
 6.35466329765500E+0002
 20
 6.71048627342400E+0002
 11
 6.39837813004000E+0002
 21
 6.80001824307200E+0002
  0
LINE
  8
0
 10
 6.39837813004000E+0002
 20
 6.80001824307200E+0002
 11
 6.44235580628500E+0002
 21
 6.88929193460800E+0002
  0
LINE
  8
0
 10
 6.44235580628500E+0002
 20
 6.88929193460800E+0002
 11
 6.48656299552000E+0002
 21
 6.97834115769600E+0002
  0
LINE
  8
0
 10
 6.48656299552000E+0002
 20
 6.97834115769600E+0002
 11
 6.53096636687500E+0002
 21
 7.06719972200000E+0002
  0
LINE
  8
0
 10
 6.53096636687500E+0002
 20
 7.06719972200000E+0002
 11
 6.57553258948000E+0002
 21
 7.15590143718400E+0002
  0
LINE
  8
0
 10
 6.57553258948000E+0002
 20
 7.15590143718400E+0002
 11
 6.62022833246500E+0002
 21
 7.24448011291200E+0002
  0
LINE
  8
0
 10
 6.62022833246500E+0002
 20
 7.24448011291200E+0002
 11
 6.66502026496000E+0002
 21
 7.33296955884800E+0002
  0
LINE
  8
0
 10
 6.66502026496000E+0002
 20
 7.33296955884800E+0002
 11
 6.70987505609500E+0002
 21
 7.42140358465600E+0002
  0
LINE
  8
0
 10
 6.70987505609500E+0002
 20
 7.42140358465600E+0002
 11
 6.75475937500000E+0002
 21
 7.50981600000000E+0002
  0
LINE
  8
0
 10
 6.75475937500000E+0002
 20
 7.50981600000000E+0002
 11
 6.79963989080500E+0002
 21
 7.59824061454400E+0002
  0
LINE
  8
0
 10
 6.79963989080500E+0002
 20
 7.59824061454400E+0002
 11
 6.84448327264000E+0002
 21
 7.68671123795200E+0002
  0
LINE
  8
0
 10
 6.84448327264000E+0002
 20
 7.68671123795200E+0002
 11
 6.88925618963500E+0002
 21
 7.77526167988800E+0002
  0
LINE
  8
0
 10
 6.88925618963500E+0002
 20
 7.77526167988800E+0002
 11
 6.93392531092000E+0002
 21
 7.86392575001600E+0002
  0
LINE
  8
0
 10
 6.93392531092000E+0002
 20
 7.86392575001600E+0002
 11
 6.97845730562500E+0002
 21
 7.95273725800000E+0002
  0
LINE
  8
0
 10
 6.97845730562500E+0002
 20
 7.95273725800000E+0002
 11
 7.02281884288000E+0002
 21
 8.04173001350400E+0002
  0
LINE
  8
0
 10
 7.02281884288000E+0002
 20
 8.04173001350400E+0002
 11
 7.06697659181500E+0002
 21
 8.13093782619200E+0002
  0
LINE
  8
0
 10
 7.06697659181500E+0002
 20
 8.13093782619200E+0002
 11
 7.11089722156000E+0002
 21
 8.22039450572800E+0002
  0
LINE
  8
0
 10
 7.11089722156000E+0002
 20
 8.22039450572800E+0002
 11
 7.15454740124500E+0002
 21
 8.31013386177600E+0002
  0
LINE
  8
0
 10
 7.15454740124500E+0002
 20
 8.31013386177600E+0002
 11
 7.19789380000000E+0002
 21
 8.40018970400000E+0002
  0
LINE
  8
0
 10
 7.19789380000000E+0002
 20
 8.40018970400000E+0002
 11
 7.24090308695500E+0002
 21
 8.49059584206400E+0002
  0
LINE
  8
0
 10
 7.24090308695500E+0002
 20
 8.49059584206400E+0002
 11
 7.28354193124000E+0002
 21
 8.58138608563200E+0002
  0
LINE
  8
0
 10
 7.28354193124000E+0002
 20
 8.58138608563200E+0002
 11
 7.32577700198500E+0002
 21
 8.67259424436800E+0002
  0
LINE
  8
0
 10
 7.32577700198500E+0002
 20
 8.67259424436800E+0002
 11
 7.36757496832000E+0002
 21
 8.76425412793600E+0002
  0
LINE
  8
0
 10
 7.36757496832000E+0002
 20
 8.76425412793600E+0002
 11
 7.40890249937500E+0002
 21
 8.85639954600000E+0002
  0
LINE
  8
0
 10
 7.40890249937500E+0002
 20
 8.85639954600000E+0002
 11
 7.44972626428000E+0002
 21
 8.94906430822400E+0002
  0
LINE
  8
0
 10
 7.44972626428000E+0002
 20
 8.94906430822400E+0002
 11
 7.49001293216500E+0002
 21
 9.04228222427200E+0002
  0
LINE
  8
0
 10
 7.49001293216500E+0002
 20
 9.04228222427200E+0002
 11
 7.52972917216000E+0002
 21
 9.13608710380800E+0002
  0
LINE
  8
0
 10
 7.52972917216000E+0002
 20
 9.13608710380800E+0002
 11
 7.56884165339500E+0002
 21
 9.23051275649600E+0002
  0
LINE
  8
0
 10
 7.56884165339500E+0002
 20
 9.23051275649600E+0002
 11
 7.60731704500000E+0002
 21
 9.32559299200000E+0002
  0
LINE
  8
0
 10
 7.60731704500000E+0002
 20
 9.32559299200000E+0002
 11
 7.64512201610500E+0002
 21
 9.42136161998400E+0002
  0
LINE
  8
0
 10
 7.64512201610500E+0002
 20
 9.42136161998400E+0002
 11
 7.68222323584000E+0002
 21
 9.51785245011200E+0002
  0
LINE
  8
0
 10
 7.68222323584000E+0002
 20
 9.51785245011200E+0002
 11
 7.71858737333500E+0002
 21
 9.61509929204800E+0002
  0
LINE
  8
0
 10
 7.71858737333500E+0002
 20
 9.61509929204800E+0002
 11
 7.75418109772000E+0002
 21
 9.71313595545600E+0002
  0
LINE
  8
0
 10
 7.75418109772000E+0002
 20
 9.71313595545600E+0002
 11
 7.78897107812500E+0002
 21
 9.81199625000000E+0002
  0
LINE
  8
0
 10
 7.78897107812500E+0002
 20
 9.81199625000000E+0002
 11
 7.82292398368000E+0002
 21
 9.91171398534400E+0002
  0
LINE
  8
0
 10
 7.82292398368000E+0002
 20
 9.91171398534400E+0002
 11
 7.85600648351500E+0002
 21
 1.00123229711520E+0003
  0
LINE
  8
0
 10
 7.85600648351500E+0002
 20
 1.00123229711520E+0003
 11
 7.88818524676000E+0002
 21
 1.01138570170880E+0003
  0
LINE
  8
0
 10
 7.88818524676000E+0002
 20
 1.01138570170880E+0003
 11
 7.91942694254500E+0002
 21
 1.02163499328160E+0003
  0
LINE
  8
0
 10
 7.91942694254500E+0002
 20
 1.02163499328160E+0003
 11
 7.94969824000000E+0002
 21
 1.03198355280000E+0003
  0
LINE
  8
0
 10
 7.94969824000000E+0002
 20
 1.03198355280000E+0003
 11
 7.97896580825500E+0002
 21
 1.04243476123040E+0003
  0
LINE
  8
0
 10
 7.97896580825500E+0002
 20
 1.04243476123040E+0003
 11
 8.00719631644000E+0002
 21
 1.05299199953920E+0003
  0
LINE
  8
0
 10
 8.00719631644000E+0002
 20
 1.05299199953920E+0003
 11
 8.03435643368500E+0002
 21
 1.06365864869280E+0003
  0
LINE
  8
0
 10
 8.03435643368500E+0002
 20
 1.06365864869280E+0003
 11
 8.06041282912000E+0002
 21
 1.07443808965760E+0003
  0
LINE
  8
0
 10
 8.06041282912000E+0002
 20
 1.07443808965760E+0003
 11
 8.08533217187500E+0002
 21
 1.08533370340000E+0003
  0
LINE
  8
0
 10
 8.08533217187500E+0002
 20
 1.08533370340000E+0003
 11
 8.10908113108000E+0002
 21
 1.09634887088640E+0003
  0
LINE
  8
0
 10
 8.10908113108000E+0002
 20
 1.09634887088640E+0003
 11
 8.13162637586500E+0002
 21
 1.10748697308320E+0003
  0
LINE
  8
0
 10
 8.13162637586500E+0002
 20
 1.10748697308320E+0003
 11
 8.15293457536000E+0002
 21
 1.11875139095680E+0003
  0
LINE
  8
0
 10
 8.15293457536000E+0002
 20
 1.11875139095680E+0003
 11
 8.17297239869500E+0002
 21
 1.13014550547360E+0003
  0
LINE
  8
0
 10
 8.17297239869500E+0002
 20
 1.13014550547360E+0003
 11
 8.19170651500000E+0002
 21
 1.14167269760000E+0003
  0
LINE
  8
0
 10
 8.19170651500000E+0002
 20
 1.14167269760000E+0003
 11
 8.20910359340500E+0002
 21
 1.15333634830240E+0003
  0
LINE
  8
0
 10
 8.20910359340500E+0002
 20
 1.15333634830240E+0003
 11
 8.22513030304000E+0002
 21
 1.16513983854720E+0003
  0
LINE
  8
0
 10
 8.22513030304000E+0002
 20
 1.16513983854720E+0003
 11
 8.23975331303500E+0002
 21
 1.17708654930080E+0003
  0
LINE
  8
0
 10
 8.23975331303500E+0002
 20
 1.17708654930080E+0003
 11
 8.25293929252000E+0002
 21
 1.18917986152960E+0003
  0
LINE
  8
0
 10
 8.25293929252000E+0002
 20
 1.18917986152960E+0003
 11
 8.26465491062500E+0002
 21
 1.20142315620000E+0003
  0
LINE
  8
0
 10
 8.26465491062500E+0002
 20
 1.20142315620000E+0003
 11
 8.27486683648000E+0002
 21
 1.21381981427840E+0003
  0
LINE
  8
0
 10
 8.27486683648000E+0002
 20
 1.21381981427840E+0003
 11
 8.28354173921500E+0002
 21
 1.22637321673120E+0003
  0
LINE
  8
0
 10
 8.28354173921500E+0002
 20
 1.22637321673120E+0003
 11
 8.29064628796000E+0002
 21
 1.23908674452480E+0003
  0
LINE
  8
0
 10
 8.29064628796000E+0002
 20
 1.23908674452480E+0003
 11
 8.29614715184500E+0002
 21
 1.25196377862560E+0003
  0
LINE
  8
0
 10
 8.29614715184500E+0002
 20
 1.25196377862560E+0003
 11
 8.30001100000000E+0002
 21
 1.26500770000000E+0003
  0
LINE
  8
0
 10
 8.30001100000000E+0002
 20
 1.26500770000000E+0003
 11
 8.30000000000000E+0002
 21
 1.30700000000000E+0003
  0
LINE
  8
0
 10
 8.30000000000000E+0002
 20
 1.30700000000000E+0003
 11
 8.75000509446390E+0002
 21
 1.29538091843480E+0003
  0
ARC
  8
0
 10
 8.78000000000000E+0002
 20
 1.30700000000000E+0003
 40
 1.20000000000000E+0001
 50
 2.55525000000000E+0002
 51
 3.93805000000000E+0002
  0
LINE
  8
0
 10
 8.87971231041917E+0002
 20
 1.31367641756549E+0003
 11
 8.00000000000000E+0002
 21
 1.44500000000000E+0003
  0
LINE
  8
0
 10
 8.00000000000000E+0002
 20
 1.44500000000000E+0003
 11
 7.12028768958083E+0002
 21
 1.31367641756549E+0003
  0
ARC
  8
0
 10
 7.22000000000000E+0002
 20
 1.30700000000000E+0003
 40
 1.20000000000000E+0001
 50
 1.46195000000000E+0002
 51
 2.84475000000000E+0002
  0
LINE
  8
0
 10
 7.24999490553610E+0002
 20
 1.29538091843480E+0003
 11
 7.70000000000000E+0002
 21
 1.30700000000000E+0003
  0
LINE
  8
0
 10
 7.70000000000000E+0002
 20
 1.30700000000000E+0003
 11
 7.70000000000000E+0002
 21
 1.26500000000000E+0003
  0
LINE
  8
0
 10
 1.07000000000000E+0003
 20
 1.26500000000000E+0003
 11
 1.07038638413110E+0003
 21
 1.25195630732330E+0003
  0
LINE
  8
0
 10
 1.07038638413110E+0003
 20
 1.25195630732330E+0003
 11
 1.07093646848880E+0003
 21
 1.23907949734640E+0003
  0
LINE
  8
0
 10
 1.07093646848880E+0003
 20
 1.23907949734640E+0003
 11
 1.07164692001970E+0003
 21
 1.22636618914910E+0003
  0
LINE
  8
0
 10
 1.07164692001970E+0003
 20
 1.22636618914910E+0003
 11
 1.07251440567040E+0003
 21
 1.21381300181120E+0003
  0
LINE
  8
0
 10
 1.07251440567040E+0003
 20
 1.21381300181120E+0003
 11
 1.07353559238750E+0003
 21
 1.20141655441250E+0003
  0
LINE
  8
0
 10
 1.07353559238750E+0003
 20
 1.20141655441250E+0003
 11
 1.07470714711760E+0003
 21
 1.18917346603280E+0003
  0
LINE
  8
0
 10
 1.07470714711760E+0003
 20
 1.18917346603280E+0003
 11
 1.07602573680730E+0003
 21
 1.17708035575190E+0003
  0
LINE
  8
0
 10
 1.07602573680730E+0003
 20
 1.17708035575190E+0003
 11
 1.07748802840320E+0003
 21
 1.16513384264960E+0003
  0
LINE
  8
0
 10
 1.07748802840320E+0003
 20
 1.16513384264960E+0003
 11
 1.07909068885190E+0003
 21
 1.15333054580570E+0003
  0
LINE
  8
0
 10
 1.07909068885190E+0003
 20
 1.15333054580570E+0003
 11
 1.08083038510000E+0003
 21
 1.14166708430000E+0003
  0
LINE
  8
0
 10
 1.08083038510000E+0003
 20
 1.14166708430000E+0003
 11
 1.08270378409410E+0003
 21
 1.13014007721230E+0003
  0
LINE
  8
0
 10
 1.08270378409410E+0003
 20
 1.13014007721230E+0003
 11
 1.08470755278080E+0003
 21
 1.11874614362240E+0003
  0
LINE
  8
0
 10
 1.08470755278080E+0003
 20
 1.11874614362240E+0003
 11
 1.08683835810670E+0003
 21
 1.10748190261010E+0003
  0
LINE
  8
0
 10
 1.08683835810670E+0003
 20
 1.10748190261010E+0003
 11
 1.08909286701840E+0003
 21
 1.09634397325520E+0003
  0
LINE
  8
0
 10
 1.08909286701840E+0003
 20
 1.09634397325520E+0003
 11
 1.09146774646250E+0003
 21
 1.08532897463750E+0003
  0
LINE
  8
0
 10
 1.09146774646250E+0003
 20
 1.08532897463750E+0003
 11
 1.09395966338560E+0003
 21
 1.07443352583680E+0003
  0
LINE
  8
0
 10
 1.09395966338560E+0003
 20
 1.07443352583680E+0003
 11
 1.09656528473430E+0003
 21
 1.06365424593290E+0003
  0
LINE
  8
0
 10
 1.09656528473430E+0003
 20
 1.06365424593290E+0003
 11
 1.09928127745520E+0003
 21
 1.05298775400560E+0003
  0
LINE
  8
0
 10
 1.09928127745520E+0003
 20
 1.05298775400560E+0003
 11
 1.10210430849490E+0003
 21
 1.04243066913470E+0003
  0
LINE
  8
0
 10
 1.10210430849490E+0003
 20
 1.04243066913470E+0003
 11
 1.10503104480000E+0003
 21
 1.03197961040000E+0003
  0
LINE
  8
0
 10
 1.10503104480000E+0003
 20
 1.03197961040000E+0003
 11
 1.10805815331710E+0003
 21
 1.02163119688130E+0003
  0
LINE
  8
0
 10
 1.10805815331710E+0003
 20
 1.02163119688130E+0003
 11
 1.11118230099280E+0003
 21
 1.01138204765840E+0003
  0
LINE
  8
0
 10
 1.11118230099280E+0003
 20
 1.01138204765840E+0003
 11
 1.11440015477370E+0003
 21
 1.00122878181110E+0003
  0
LINE
  8
0
 10
 1.11440015477370E+0003
 20
 1.00122878181110E+0003
 11
 1.11770838160640E+0003
 21
 9.91168018419200E+0002
  0
LINE
  8
0
 10
 1.11770838160640E+0003
 20
 9.91168018419200E+0002
 11
 1.12110364843750E+0003
 21
 9.81196376562500E+0002
  0
LINE
  8
0
 10
 1.12110364843750E+0003
 20
 9.81196376562500E+0002
 11
 1.12458262221360E+0003
 21
 9.71310475320800E+0002
  0
LINE
  8
0
 10
 1.12458262221360E+0003
 20
 9.71310475320800E+0002
 11
 1.12814196988130E+0003
 21
 9.61506933773900E+0002
  0
LINE
  8
0
 10
 1.12814196988130E+0003
 20
 9.61506933773900E+0002
 11
 1.13177835838720E+0003
 21
 9.51782371001600E+0002
  0
LINE
  8
0
 10
 1.13177835838720E+0003
 20
 9.51782371001600E+0002
 11
 1.13548845467790E+0003
 21
 9.42133406083700E+0002
  0
LINE
  8
0
 10
 1.13548845467790E+0003
 20
 9.42133406083700E+0002
 11
 1.13926892570000E+0003
 21
 9.32556658100000E+0002
  0
LINE
  8
0
 10
 1.13926892570000E+0003
 20
 9.32556658100000E+0002
 11
 1.14311643840010E+0003
 21
 9.23048746130300E+0002
  0
LINE
  8
0
 10
 1.14311643840010E+0003
 20
 9.23048746130300E+0002
 11
 1.14702765972480E+0003
 21
 9.13606289254400E+0002
  0
LINE
  8
0
 10
 1.14702765972480E+0003
 20
 9.13606289254400E+0002
 11
 1.15099925662070E+0003
 21
 9.04225906552100E+0002
  0
LINE
  8
0
 10
 1.15099925662070E+0003
 20
 9.04225906552100E+0002
 11
 1.15502789603440E+0003
 21
 8.94904217103200E+0002
  0
LINE
  8
0
 10
 1.15502789603440E+0003
 20
 8.94904217103200E+0002
 11
 1.15911024491250E+0003
 21
 8.85637839987500E+0002
  0
LINE
  8
0
 10
 1.15911024491250E+0003
 20
 8.85637839987500E+0002
 11
 1.16324297020160E+0003
 21
 8.76423394284800E+0002
  0
LINE
  8
0
 10
 1.16324297020160E+0003
 20
 8.76423394284800E+0002
 11
 1.16742273884830E+0003
 21
 8.67257499074900E+0002
  0
LINE
  8
0
 10
 1.16742273884830E+0003
 20
 8.67257499074900E+0002
 11
 1.17164621779920E+0003
 21
 8.58136773437600E+0002
  0
LINE
  8
0
 10
 1.17164621779920E+0003
 20
 8.58136773437600E+0002
 11
 1.17591007400090E+0003
 21
 8.49057836452700E+0002
  0
LINE
  8
0
 10
 1.17591007400090E+0003
 20
 8.49057836452700E+0002
 11
 1.18021097440000E+0003
 21
 8.40017307200000E+0002
  0
LINE
  8
0
 10
 1.18021097440000E+0003
 20
 8.40017307200000E+0002
 11
 1.18454558594310E+0003
 21
 8.31011804759300E+0002
  0
LINE
  8
0
 10
 1.18454558594310E+0003
 20
 8.31011804759300E+0002
 11
 1.18891057557680E+0003
 21
 8.22037948210400E+0002
  0
LINE
  8
0
 10
 1.18891057557680E+0003
 20
 8.22037948210400E+0002
 11
 1.19330261024770E+0003
 21
 8.13092356633100E+0002
  0
LINE
  8
0
 10
 1.19330261024770E+0003
 20
 8.13092356633100E+0002
 11
 1.19771835690240E+0003
 21
 8.04171649107200E+0002
  0
LINE
  8
0
 10
 1.19771835690240E+0003
 20
 8.04171649107200E+0002
 11
 1.20215448248750E+0003
 21
 7.95272444712500E+0002
  0
LINE
  8
0
 10
 1.20215448248750E+0003
 20
 7.95272444712500E+0002
 11
 1.20660765394960E+0003
 21
 7.86391362528800E+0002
  0
LINE
  8
0
 10
 1.20660765394960E+0003
 20
 7.86391362528800E+0002
 11
 1.21107453823530E+0003
 21
 7.77525021635900E+0002
  0
LINE
  8
0
 10
 1.21107453823530E+0003
 20
 7.77525021635900E+0002
 11
 1.21555180229120E+0003
 21
 7.68670041113600E+0002
  0
LINE
  8
0
 10
 1.21555180229120E+0003
 20
 7.68670041113600E+0002
 11
 1.22003611306390E+0003
 21
 7.59823040041700E+0002
  0
LINE
  8
0
 10
 1.22003611306390E+0003
 20
 7.59823040041700E+0002
 11
 1.22452413750000E+0003
 21
 7.50980637500000E+0002
  0
LINE
  8
0
 10
 1.22452413750000E+0003
 20
 7.50980637500000E+0002
 11
 1.22901254254610E+0003
 21
 7.42139452568300E+0002
  0
LINE
  8
0
 10
 1.22901254254610E+0003
 20
 7.42139452568300E+0002
 11
 1.23349799514880E+0003
 21
 7.33296104326400E+0002
  0
LINE
  8
0
 10
 1.23349799514880E+0003
 20
 7.33296104326400E+0002
 11
 1.23797716225470E+0003
 21
 7.24447211854100E+0002
  0
LINE
  8
0
 10
 1.23797716225470E+0003
 20
 7.24447211854100E+0002
 11
 1.24244671081040E+0003
 21
 7.15589394231200E+0002
  0
LINE
  8
0
 10
 1.24244671081040E+0003
 20
 7.15589394231200E+0002
 11
 1.24690330776250E+0003
 21
 7.06719270537500E+0002
  0
LINE
  8
0
 10
 1.24690330776250E+0003
 20
 7.06719270537500E+0002
 11
 1.25134362005760E+0003
 21
 6.97833459852800E+0002
  0
LINE
  8
0
 10
 1.25134362005760E+0003
 20
 6.97833459852800E+0002
 11
 1.25576431464230E+0003
 21
 6.88928581256900E+0002
  0
LINE
  8
0
 10
 1.25576431464230E+0003
 20
 6.88928581256900E+0002
 11
 1.26016205846320E+0003
 21
 6.80001253829600E+0002
  0
LINE
  8
0
 10
 1.26016205846320E+0003
 20
 6.80001253829600E+0002
 11
 1.26453351846690E+0003
 21
 6.71048096650700E+0002
  0
LINE
  8
0
 10
 1.26453351846690E+0003
 20
 6.71048096650700E+0002
 11
 1.26887536160000E+0003
 21
 6.62065728800000E+0002
  0
LINE
  8
0
 10
 1.26887536160000E+0003
 20
 6.62065728800000E+0002
 11
 1.27318425480910E+0003
 21
 6.53050769357300E+0002
  0
LINE
  8
0
 10
 1.27318425480910E+0003
 20
 6.53050769357300E+0002
 11
 1.27745686504080E+0003
 21
 6.43999837402400E+0002
  0
LINE
  8
0
 10
 1.27745686504080E+0003
 20
 6.43999837402400E+0002
 11
 1.28168985924170E+0003
 21
 6.34909552015100E+0002
  0
LINE
  8
0
 10
 1.28168985924170E+0003
 20
 6.34909552015100E+0002
 11
 1.28587990435840E+0003
 21
 6.25776532275200E+0002
  0
LINE
  8
0
 10
 1.28587990435840E+0003
 20
 6.25776532275200E+0002
 11
 1.29002366733750E+0003
 21
 6.16597397262500E+0002
  0
LINE
  8
0
 10
 1.29002366733750E+0003
 20
 6.16597397262500E+0002
 11
 1.29411781512560E+0003
 21
 6.07368766056800E+0002
  0
LINE
  8
0
 10
 1.29411781512560E+0003
 20
 6.07368766056800E+0002
 11
 1.29815901466930E+0003
 21
 5.98087257737900E+0002
  0
LINE
  8
0
 10
 1.29815901466930E+0003
 20
 5.98087257737900E+0002
 11
 1.30214393291520E+0003
 21
 5.88749491385600E+0002
  0
LINE
  8
0
 10
 1.30214393291520E+0003
 20
 5.88749491385600E+0002
 11
 1.30606923680990E+0003
 21
 5.79352086079700E+0002
  0
LINE
  8
0
 10
 1.30606923680990E+0003
 20
 5.79352086079700E+0002
 11
 1.30993159330000E+0003
 21
 5.69891660900000E+0002
  0
LINE
  8
0
 10
 1.30993159330000E+0003
 20
 5.69891660900000E+0002
 11
 1.31372766933210E+0003
 21
 5.60364834926300E+0002
  0
LINE
  8
0
 10
 1.31372766933210E+0003
 20
 5.60364834926300E+0002
 11
 1.31745413185280E+0003
 21
 5.50768227238400E+0002
  0
LINE
  8
0
 10
 1.31745413185280E+0003
 20
 5.50768227238400E+0002
 11
 1.32110764780870E+0003
 21
 5.41098456916100E+0002
  0
LINE
  8
0
 10
 1.32110764780870E+0003
 20
 5.41098456916100E+0002
 11
 1.32468488414640E+0003
 21
 5.31352143039200E+0002
  0
LINE
  8
0
 10
 1.32468488414640E+0003
 20
 5.31352143039200E+0002
 11
 1.32818250781250E+0003
 21
 5.21525904687500E+0002
  0
LINE
  8
0
 10
 1.32818250781250E+0003
 20
 5.21525904687500E+0002
 11
 1.33159718575360E+0003
 21
 5.11616360940800E+0002
  0
LINE
  8
0
 10
 1.33159718575360E+0003
 20
 5.11616360940800E+0002
 11
 1.33492558491630E+0003
 21
 5.01620130878900E+0002
  0
LINE
  8
0
 10
 1.33492558491630E+0003
 20
 5.01620130878900E+0002
 11
 1.33816437224720E+0003
 21
 4.91533833581600E+0002
  0
LINE
  8
0
 10
 1.33816437224720E+0003
 20
 4.91533833581600E+0002
 11
 1.34131021469290E+0003
 21
 4.81354088128700E+0002
  0
LINE
  8
0
 10
 1.34131021469290E+0003
 20
 4.81354088128700E+0002
 11
 1.34435977920000E+0003
 21
 4.71077513600000E+0002
  0
LINE
  8
0
 10
 1.34435977920000E+0003
 20
 4.71077513600000E+0002
 11
 1.34730973271510E+0003
 21
 4.60700729075300E+0002
  0
LINE
  8
0
 10
 1.34730973271510E+0003
 20
 4.60700729075300E+0002
 11
 1.35015674218480E+0003
 21
 4.50220353634400E+0002
  0
LINE
  8
0
 10
 1.35015674218480E+0003
 20
 4.50220353634400E+0002
 11
 1.35289747455570E+0003
 21
 4.39633006357100E+0002
  0
LINE
  8
0
 10
 1.35289747455570E+0003
 20
 4.39633006357100E+0002
 11
 1.35552859677440E+0003
 21
 4.28935306323200E+0002
  0
LINE
  8
0
 10
 1.35552859677440E+0003
 20
 4.28935306323200E+0002
 11
 1.35804677578750E+0003
 21
 4.18123872612500E+0002
  0
LINE
  8
0
 10
 1.35804677578750E+0003
 20
 4.18123872612500E+0002
 11
 1.36044867854160E+0003
 21
 4.07195324304800E+0002
  0
LINE
  8
0
 10
 1.36044867854160E+0003
 20
 4.07195324304800E+0002
 11
 1.36273097198330E+0003
 21
 3.96146280479900E+0002
  0
LINE
  8
0
 10
 1.36273097198330E+0003
 20
 3.96146280479900E+0002
 11
 1.36489032305920E+0003
 21
 3.84973360217600E+0002
  0
LINE
  8
0
 10
 1.36489032305920E+0003
 20
 3.84973360217600E+0002
 11
 1.36692339871590E+0003
 21
 3.73673182597700E+0002
  0
LINE
  8
0
 10
 1.36692339871590E+0003
 20
 3.73673182597700E+0002
 11
 1.36882686590000E+0003
 21
 3.62242366700000E+0002
  0
LINE
  8
0
 10
 1.36882686590000E+0003
 20
 3.62242366700000E+0002
 11
 1.37059739155810E+0003
 21
 3.50677531604300E+0002
  0
LINE
  8
0
 10
 1.37059739155810E+0003
 20
 3.50677531604300E+0002
 11
 1.37223164263680E+0003
 21
 3.38975296390400E+0002
  0
LINE
  8
0
 10
 1.37223164263680E+0003
 20
 3.38975296390400E+0002
 11
 1.37372628608270E+0003
 21
 3.27132280138100E+0002
  0
LINE
  8
0
 10
 1.37372628608270E+0003
 20
 3.27132280138100E+0002
 11
 1.37507798884240E+0003
 21
 3.15145101927200E+0002
  0
LINE
  8
0
 10
 1.37507798884240E+0003
 20
 3.15145101927200E+0002
 11
 1.37628341786250E+0003
 21
 3.03010380837500E+0002
  0
LINE
  8
0
 10
 1.37628341786250E+0003
 20
 3.03010380837500E+0002
 11
 1.37733924008960E+0003
 21
 2.90724735948800E+0002
  0
LINE
  8
0
 10
 1.37733924008960E+0003
 20
 2.90724735948800E+0002
 11
 1.37824212247030E+0003
 21
 2.78284786340900E+0002
  0
LINE
  8
0
 10
 1.37824212247030E+0003
 20
 2.78284786340900E+0002
 11
 1.37898873195120E+0003
 21
 2.65687151093600E+0002
  0
LINE
  8
0
 10
 1.37898873195120E+0003
 20
 2.65687151093600E+0002
 11
 1.37957573547890E+0003
 21
 2.52928449286700E+0002
  0
LINE
  8
0
 10
 1.37957573547890E+0003
 20
 2.52928449286700E+0002
 11
 1.37999980000000E+0003
 21
 2.40005300000000E+0002
  0
LINE
  8
0
 10
 1.37999980000000E+0003
 20
 2.40005300000000E+0002
 11
 1.38000000000000E+0003
 21
 1.55000000000000E+0002
  0
LINE
  8
0
 10
 1.38000000000000E+0003
 20
 1.55000000000000E+0002
 11
 1.32000000000000E+0003
 21
 1.55000000000000E+0002
  0
LINE
  8
0
 10
 1.32000000000000E+0003
 20
 1.55000000000000E+0002
 11
 1.32000000000000E+0003
 21
 2.40005300000000E+0002
  0
LINE
  8
0
 10
 1.32000000000000E+0003
 20
 2.40005300000000E+0002
 11
 1.31957596449450E+0003
 21
 2.52928449294400E+0002
  0
LINE
  8
0
 10
 1.31957596449450E+0003
 20
 2.52928449294400E+0002
 11
 1.31898898803600E+0003
 21
 2.65687151155200E+0002
  0
LINE
  8
0
 10
 1.31898898803600E+0003
 20
 2.65687151155200E+0002
 11
 1.31824240371150E+0003
 21
 2.78284786548800E+0002
  0
LINE
  8
0
 10
 1.31824240371150E+0003
 20
 2.78284786548800E+0002
 11
 1.31733954460800E+0003
 21
 2.90724736441600E+0002
  0
LINE
  8
0
 10
 1.31733954460800E+0003
 20
 2.90724736441600E+0002
 11
 1.31628374381250E+0003
 21
 3.03010381800000E+0002
  0
LINE
  8
0
 10
 1.31628374381250E+0003
 20
 3.03010381800000E+0002
 11
 1.31507833441200E+0003
 21
 3.15145103590400E+0002
  0
LINE
  8
0
 10
 1.31507833441200E+0003
 20
 3.15145103590400E+0002
 11
 1.31372664949350E+0003
 21
 3.27132282779200E+0002
  0
LINE
  8
0
 10
 1.31372664949350E+0003
 20
 3.27132282779200E+0002
 11
 1.31223202214400E+0003
 21
 3.38975300332800E+0002
  0
LINE
  8
0
 10
 1.31223202214400E+0003
 20
 3.38975300332800E+0002
 11
 1.31059778545050E+0003
 21
 3.50677537217600E+0002
  0
LINE
  8
0
 10
 1.31059778545050E+0003
 20
 3.50677537217600E+0002
 11
 1.30882727250000E+0003
 21
 3.62242374400000E+0002
  0
LINE
  8
0
 10
 1.30882727250000E+0003
 20
 3.62242374400000E+0002
 11
 1.30692381637950E+0003
 21
 3.73673192846400E+0002
  0
LINE
  8
0
 10
 1.30692381637950E+0003
 20
 3.73673192846400E+0002
 11
 1.30489075017600E+0003
 21
 3.84973373523200E+0002
  0
LINE
  8
0
 10
 1.30489075017600E+0003
 20
 3.84973373523200E+0002
 11
 1.30273140697650E+0003
 21
 3.96146297396800E+0002
  0
LINE
  8
0
 10
 1.30273140697650E+0003
 20
 3.96146297396800E+0002
 11
 1.30044911986800E+0003
 21
 4.07195345433600E+0002
  0
LINE
  8
0
 10
 1.30044911986800E+0003
 20
 4.07195345433600E+0002
 11
 1.29804722193750E+0003
 21
 4.18123898600000E+0002
  0
LINE
  8
0
 10
 1.29804722193750E+0003
 20
 4.18123898600000E+0002
 11
 1.29552904627200E+0003
 21
 4.28935337862400E+0002
  0
LINE
  8
0
 10
 1.29552904627200E+0003
 20
 4.28935337862400E+0002
 11
 1.29289792595850E+0003
 21
 4.39633044187200E+0002
  0
LINE
  8
0
 10
 1.29289792595850E+0003
 20
 4.39633044187200E+0002
 11
 1.29015719408400E+0003
 21
 4.50220398540800E+0002
  0
LINE
  8
0
 10
 1.29015719408400E+0003
 20
 4.50220398540800E+0002
 11
 1.28731018373550E+0003
 21
 4.60700781889600E+0002
  0
LINE
  8
0
 10
 1.28731018373550E+0003
 20
 4.60700781889600E+0002
 11
 1.28436022800000E+0003
 21
 4.71077575200000E+0002
  0
LINE
  8
0
 10
 1.28436022800000E+0003
 20
 4.71077575200000E+0002
 11
 1.28131065996450E+0003
 21
 4.81354159438400E+0002
  0
LINE
  8
0
 10
 1.28131065996450E+0003
 20
 4.81354159438400E+0002
 11
 1.27816481271600E+0003
 21
 4.91533915571200E+0002
  0
LINE
  8
0
 10
 1.27816481271600E+0003
 20
 4.91533915571200E+0002
 11
 1.27492601934150E+0003
 21
 5.01620224564800E+0002
  0
LINE
  8
0
 10
 1.27492601934150E+0003
 20
 5.01620224564800E+0002
 11
 1.27159761292800E+0003
 21
 5.11616467385600E+0002
  0
LINE
  8
0
 10
 1.27159761292800E+0003
 20
 5.11616467385600E+0002
 11
 1.26818292656250E+0003
 21
 5.21526025000000E+0002
  0
LINE
  8
0
 10
 1.26818292656250E+0003
 20
 5.21526025000000E+0002
 11
 1.26468529333200E+0003
 21
 5.31352278374400E+0002
  0
LINE
  8
0
 10
 1.26468529333200E+0003
 20
 5.31352278374400E+0002
 11
 1.26110804632350E+0003
 21
 5.41098608475200E+0002
  0
LINE
  8
0
 10
 1.26110804632350E+0003
 20
 5.41098608475200E+0002
 11
 1.25745451862400E+0003
 21
 5.50768396268800E+0002
  0
LINE
  8
0
 10
 1.25745451862400E+0003
 20
 5.50768396268800E+0002
 11
 1.25372804332050E+0003
 21
 5.60365022721600E+0002
  0
LINE
  8
0
 10
 1.25372804332050E+0003
 20
 5.60365022721600E+0002
 11
 1.24993195350000E+0003
 21
 5.69891868800000E+0002
  0
LINE
  8
0
 10
 1.24993195350000E+0003
 20
 5.69891868800000E+0002
 11
 1.24606958224950E+0003
 21
 5.79352315470400E+0002
  0
LINE
  8
0
 10
 1.24606958224950E+0003
 20
 5.79352315470400E+0002
 11
 1.24214426265600E+0003
 21
 5.88749743699200E+0002
  0
LINE
  8
0
 10
 1.24214426265600E+0003
 20
 5.88749743699200E+0002
 11
 1.23815932780650E+0003
 21
 5.98087534452800E+0002
  0
LINE
  8
0
 10
 1.23815932780650E+0003
 20
 5.98087534452800E+0002
 11
 1.23411811078800E+0003
 21
 6.07369068697600E+0002
  0
LINE
  8
0
 10
 1.23411811078800E+0003
 20
 6.07369068697600E+0002
 11
 1.23002394468750E+0003
 21
 6.16597727400000E+0002
  0
LINE
  8
0
 10
 1.23002394468750E+0003
 20
 6.16597727400000E+0002
 11
 1.22588016259200E+0003
 21
 6.25776891526400E+0002
  0
LINE
  8
0
 10
 1.22588016259200E+0003
 20
 6.25776891526400E+0002
 11
 1.22169009758850E+0003
 21
 6.34909942043200E+0002
  0
LINE
  8
0
 10
 1.22169009758850E+0003
 20
 6.34909942043200E+0002
 11
 1.21745708276400E+0003
 21
 6.44000259916800E+0002
  0
LINE
  8
0
 10
 1.21745708276400E+0003
 20
 6.44000259916800E+0002
 11
 1.21318445120550E+0003
 21
 6.53051226113600E+0002
  0
LINE
  8
0
 10
 1.21318445120550E+0003
 20
 6.53051226113600E+0002
 11
 1.20887553600000E+0003
 21
 6.62066221600000E+0002
  0
LINE
  8
0
 10
 1.20887553600000E+0003
 20
 6.62066221600000E+0002
 11
 1.20453367023450E+0003
 21
 6.71048627342400E+0002
  0
LINE
  8
0
 10
 1.20453367023450E+0003
 20
 6.71048627342400E+0002
 11
 1.20016218699600E+0003
 21
 6.80001824307200E+0002
  0
LINE
  8
0
 10
 1.20016218699600E+0003
 20
 6.80001824307200E+0002
 11
 1.19576441937150E+0003
 21
 6.88929193460800E+0002
  0
LINE
  8
0
 10
 1.19576441937150E+0003
 20
 6.88929193460800E+0002
 11
 1.19134370044800E+0003
 21
 6.97834115769600E+0002
  0
LINE
  8
0
 10
 1.19134370044800E+0003
 20
 6.97834115769600E+0002
 11
 1.18690336331250E+0003
 21
 7.06719972200000E+0002
  0
LINE
  8
0
 10
 1.18690336331250E+0003
 20
 7.06719972200000E+0002
 11
 1.18244674105200E+0003
 21
 7.15590143718400E+0002
  0
LINE
  8
0
 10
 1.18244674105200E+0003
 20
 7.15590143718400E+0002
 11
 1.17797716675350E+0003
 21
 7.24448011291200E+0002
  0
LINE
  8
0
 10
 1.17797716675350E+0003
 20
 7.24448011291200E+0002
 11
 1.17349797350400E+0003
 21
 7.33296955884800E+0002
  0
LINE
  8
0
 10
 1.17349797350400E+0003
 20
 7.33296955884800E+0002
 11
 1.16901249439050E+0003
 21
 7.42140358465600E+0002
  0
LINE
  8
0
 10
 1.16901249439050E+0003
 20
 7.42140358465600E+0002
 11
 1.16452406250000E+0003
 21
 7.50981600000000E+0002
  0
LINE
  8
0
 10
 1.16452406250000E+0003
 20
 7.50981600000000E+0002
 11
 1.16003601091950E+0003
 21
 7.59824061454400E+0002
  0
LINE
  8
0
 10
 1.16003601091950E+0003
 20
 7.59824061454400E+0002
 11
 1.15555167273600E+0003
 21
 7.68671123795200E+0002
  0
LINE
  8
0
 10
 1.15555167273600E+0003
 20
 7.68671123795200E+0002
 11
 1.15107438103650E+0003
 21
 7.77526167988800E+0002
  0
LINE
  8
0
 10
 1.15107438103650E+0003
 20
 7.77526167988800E+0002
 11
 1.14660746890800E+0003
 21
 7.86392575001600E+0002
  0
LINE
  8
0
 10
 1.14660746890800E+0003
 20
 7.86392575001600E+0002
 11
 1.14215426943750E+0003
 21
 7.95273725800000E+0002
  0
LINE
  8
0
 10
 1.14215426943750E+0003
 20
 7.95273725800000E+0002
 11
 1.13771811571200E+0003
 21
 8.04173001350400E+0002
  0
LINE
  8
0
 10
 1.13771811571200E+0003
 20
 8.04173001350400E+0002
 11
 1.13330234081850E+0003
 21
 8.13093782619200E+0002
  0
LINE
  8
0
 10
 1.13330234081850E+0003
 20
 8.13093782619200E+0002
 11
 1.12891027784400E+0003
 21
 8.22039450572800E+0002
  0
LINE
  8
0
 10
 1.12891027784400E+0003
 20
 8.22039450572800E+0002
 11
 1.12454525987550E+0003
 21
 8.31013386177600E+0002
  0
LINE
  8
0
 10
 1.12454525987550E+0003
 20
 8.31013386177600E+0002
 11
 1.12021062000000E+0003
 21
 8.40018970400000E+0002
  0
LINE
  8
0
 10
 1.12021062000000E+0003
 20
 8.40018970400000E+0002
 11
 1.11590969130450E+0003
 21
 8.49059584206400E+0002
  0
LINE
  8
0
 10
 1.11590969130450E+0003
 20
 8.49059584206400E+0002
 11
 1.11164580687600E+0003
 21
 8.58138608563200E+0002
  0
LINE
  8
0
 10
 1.11164580687600E+0003
 20
 8.58138608563200E+0002
 11
 1.10742229980150E+0003
 21
 8.67259424436800E+0002
  0
LINE
  8
0
 10
 1.10742229980150E+0003
 20
 8.67259424436800E+0002
 11
 1.10324250316800E+0003
 21
 8.76425412793600E+0002
  0
LINE
  8
0
 10
 1.10324250316800E+0003
 20
 8.76425412793600E+0002
 11
 1.09910975006250E+0003
 21
 8.85639954600000E+0002
  0
LINE
  8
0
 10
 1.09910975006250E+0003
 20
 8.85639954600000E+0002
 11
 1.09502737357200E+0003
 21
 8.94906430822400E+0002
  0
LINE
  8
0
 10
 1.09502737357200E+0003
 20
 8.94906430822400E+0002
 11
 1.09099870678350E+0003
 21
 9.04228222427200E+0002
  0
LINE
  8
0
 10
 1.09099870678350E+0003
 20
 9.04228222427200E+0002
 11
 1.08702708278400E+0003
 21
 9.13608710380800E+0002
  0
LINE
  8
0
 10
 1.08702708278400E+0003
 20
 9.13608710380800E+0002
 11
 1.08311583466050E+0003
 21
 9.23051275649600E+0002
  0
LINE
  8
0
 10
 1.08311583466050E+0003
 20
 9.23051275649600E+0002
 11
 1.07926829550000E+0003
 21
 9.32559299200000E+0002
  0
LINE
  8
0
 10
 1.07926829550000E+0003
 20
 9.32559299200000E+0002
 11
 1.07548779838950E+0003
 21
 9.42136161998400E+0002
  0
LINE
  8
0
 10
 1.07548779838950E+0003
 20
 9.42136161998400E+0002
 11
 1.07177767641600E+0003
 21
 9.51785245011200E+0002
  0
LINE
  8
0
 10
 1.07177767641600E+0003
 20
 9.51785245011200E+0002
 11
 1.06814126266650E+0003
 21
 9.61509929204800E+0002
  0
LINE
  8
0
 10
 1.06814126266650E+0003
 20
 9.61509929204800E+0002
 11
 1.06458189022800E+0003
 21
 9.71313595545600E+0002
  0
LINE
  8
0
 10
 1.06458189022800E+0003
 20
 9.71313595545600E+0002
 11
 1.06110289218750E+0003
 21
 9.81199625000000E+0002
  0
LINE
  8
0
 10
 1.06110289218750E+0003
 20
 9.81199625000000E+0002
 11
 1.05770760163200E+0003
 21
 9.91171398534400E+0002
  0
LINE
  8
0
 10
 1.05770760163200E+0003
 20
 9.91171398534400E+0002
 11
 1.05439935164850E+0003
 21
 1.00123229711520E+0003
  0
LINE
  8
0
 10
 1.05439935164850E+0003
 20
 1.00123229711520E+0003
 11
 1.05118147532400E+0003
 21
 1.01138570170880E+0003
  0
LINE
  8
0
 10
 1.05118147532400E+0003
 20
 1.01138570170880E+0003
 11
 1.04805730574550E+0003
 21
 1.02163499328160E+0003
  0
LINE
  8
0
 10
 1.04805730574550E+0003
 20
 1.02163499328160E+0003
 11
 1.04503017600000E+0003
 21
 1.03198355280000E+0003
  0
LINE
  8
0
 10
 1.04503017600000E+0003
 20
 1.03198355280000E+0003
 11
 1.04210341917450E+0003
 21
 1.04243476123040E+0003
  0
LINE
  8
0
 10
 1.04210341917450E+0003
 20
 1.04243476123040E+0003
 11
 1.03928036835600E+0003
 21
 1.05299199953920E+0003
  0
LINE
  8
0
 10
 1.03928036835600E+0003
 20
 1.05299199953920E+0003
 11
 1.03656435663150E+0003
 21
 1.06365864869280E+0003
  0
LINE
  8
0
 10
 1.03656435663150E+0003
 20
 1.06365864869280E+0003
 11
 1.03395871708800E+0003
 21
 1.07443808965760E+0003
  0
LINE
  8
0
 10
 1.03395871708800E+0003
 20
 1.07443808965760E+0003
 11
 1.03146678281250E+0003
 21
 1.08533370340000E+0003
  0
LINE
  8
0
 10
 1.03146678281250E+0003
 20
 1.08533370340000E+0003
 11
 1.02909188689200E+0003
 21
 1.09634887088640E+0003
  0
LINE
  8
0
 10
 1.02909188689200E+0003
 20
 1.09634887088640E+0003
 11
 1.02683736241350E+0003
 21
 1.10748697308320E+0003
  0
LINE
  8
0
 10
 1.02683736241350E+0003
 20
 1.10748697308320E+0003
 11
 1.02470654246400E+0003
 21
 1.11875139095680E+0003
  0
LINE
  8
0
 10
 1.02470654246400E+0003
 20
 1.11875139095680E+0003
 11
 1.02270276013050E+0003
 21
 1.13014550547360E+0003
  0
LINE
  8
0
 10
 1.02270276013050E+0003
 20
 1.13014550547360E+0003
 11
 1.02082934850000E+0003
 21
 1.14167269760000E+0003
  0
LINE
  8
0
 10
 1.02082934850000E+0003
 20
 1.14167269760000E+0003
 11
 1.01908964065950E+0003
 21
 1.15333634830240E+0003
  0
LINE
  8
0
 10
 1.01908964065950E+0003
 20
 1.15333634830240E+0003
 11
 1.01748696969600E+0003
 21
 1.16513983854720E+0003
  0
LINE
  8
0
 10
 1.01748696969600E+0003
 20
 1.16513983854720E+0003
 11
 1.01602466869650E+0003
 21
 1.17708654930080E+0003
  0
LINE
  8
0
 10
 1.01602466869650E+0003
 20
 1.17708654930080E+0003
 11
 1.01470607074800E+0003
 21
 1.18917986152960E+0003
  0
LINE
  8
0
 10
 1.01470607074800E+0003
 20
 1.18917986152960E+0003
 11
 1.01353450893750E+0003
 21
 1.20142315620000E+0003
  0
LINE
  8
0
 10
 1.01353450893750E+0003
 20
 1.20142315620000E+0003
 11
 1.01251331635200E+0003
 21
 1.21381981427840E+0003
  0
LINE
  8
0
 10
 1.01251331635200E+0003
 20
 1.21381981427840E+0003
 11
 1.01164582607850E+0003
 21
 1.22637321673120E+0003
  0
LINE
  8
0
 10
 1.01164582607850E+0003
 20
 1.22637321673120E+0003
 11
 1.01093537120400E+0003
 21
 1.23908674452480E+0003
  0
LINE
  8
0
 10
 1.01093537120400E+0003
 20
 1.23908674452480E+0003
 11
 1.01038528481550E+0003
 21
 1.25196377862560E+0003
  0
LINE
  8
0
 10
 1.01038528481550E+0003
 20
 1.25196377862560E+0003
 11
 1.00999890000000E+0003
 21
 1.26500770000000E+0003
  0
LINE
  8
0
 10
 1.00999890000000E+0003
 20
 1.26500770000000E+0003
 11
 1.01000000000000E+0003
 21
 1.30700000000000E+0003
  0
LINE
  8
0
 10
 1.01000000000000E+0003
 20
 1.30700000000000E+0003
 11
 9.64999490553610E+0002
 21
 1.29538091843480E+0003
  0
ARC
  8
0
 10
 9.62000000000000E+0002
 20
 1.30700000000000E+0003
 40
 1.20000000000000E+0001
 50
 1.46195000000000E+0002
 51
 2.84475000000000E+0002
  0
LINE
  8
0
 10
 9.52028768958083E+0002
 20
 1.31367641756549E+0003
 11
 1.04000000000000E+0003
 21
 1.44500000000000E+0003
  0
LINE
  8
0
 10
 1.04000000000000E+0003
 20
 1.44500000000000E+0003
 11
 1.12797123104192E+0003
 21
 1.31367641756549E+0003
  0
ARC
  8
0
 10
 1.11800000000000E+0003
 20
 1.30700000000000E+0003
 40
 1.20000000000000E+0001
 50
 2.55525000000000E+0002
 51
 3.93805000000000E+0002
  0
LINE
  8
0
 10
 1.11500050944639E+0003
 20
 1.29538091843480E+0003
 11
 1.07000000000000E+0003
 21
 1.30700000000000E+0003
  0
LINE
  8
0
 10
 1.07000000000000E+0003
 20
 1.30700000000000E+0003
 11
 1.07000000000000E+0003
 21
 1.26500000000000E+0003
  0
LINE
  8
0
 10
 3.30000000000000E+0002
 20
 1.53500000000000E+0003
 11
 3.60000000000000E+0002
 21
 1.53500000000000E+0003
  0
ARC
  8
0
 10
-3.90000000000000E+0002
 20
 1.53500000000000E+0003
 40
 7.50000000000000E+0002
 50
 3.40811860000000E+0002
 51
 3.60000000000000E+0002
  0
LINE
  8
0
 10
 3.18333318076195E+0002
 20
 1.28849663186243E+0003
 11
 3.18333332723048E+0002
 21
 1.28849686527450E+0003
  0
ARC
  8
0
 10
 2.90000000000000E+0002
 20
 1.29835700000000E+0003
 40
 3.00000000000000E+0001
 50
 1.99188140000000E+0002
 51
 3.40811860000000E+0002
  0
LINE
  8
0
 10
 2.61666667276952E+0002
 20
 1.28849686527450E+0003
 11
 2.62266681923805E+0002
 21
 1.28849663186243E+0003
  0
ARC
  8
0
 10
 9.70600000000000E+0002
 20
 1.53500000000000E+0003
 40
 7.50000000000000E+0002
 50
 1.80000000000000E+0002
 51
 1.99188140000000E+0002
  0
LINE
  8
0
 10
 2.20600000000000E+0002
 20
 1.53500000000000E+0003
 11
 2.50000000000000E+0002
 21
 1.53500000000000E+0003
  0
ARC
  8
0
 10
 9.70000000000000E+0002
 20
 1.53500000000000E+0003
 40
 7.20000000000000E+0002
 50
 1.80000000000000E+0002
 51
 1.99188140000000E+0002
  0
LINE
  8
0
 10
 2.90000014646853E+0002
 20
 1.29835676658793E+0003
 11
 2.89999985353147E+0002
 21
 1.29835676658793E+0003
  0
ARC
  8
0
 10
-3.90000000000000E+0002
 20
 1.53500000000000E+0003
 40
 7.20000000000000E+0002
 50
 3.40811860000000E+0002
 51
 3.60000000000000E+0002
  0
LINE
  8
0
 10
 8.60000000000000E+0002
 20
 6.50000000000000E+0001
 11
 8.90000000000000E+0002
 21
 6.50000000000000E+0001
  0
ARC
  8
0
 10
 1.40000000000000E+0002
 20
 6.50000000000000E+0001
 40
 7.50000000000000E+0002
 50
 0.00000000000000E+0000
 51
 1.91881400000000E+0001
  0
LINE
  8
0
 10
 8.48333318076195E+0002
 20
 3.11503368137575E+0002
 11
 8.48333332723048E+0002
 21
 3.11503134725503E+0002
  0
ARC
  8
0
 10
 8.20000000000000E+0002
 20
 3.01643000000000E+0002
 40
 3.00000000000000E+0001
 50
 1.91881400000000E+0001
 51
 1.60811860000000E+0002
  0
LINE
  8
0
 10
 7.91666667276952E+0002
 20
 3.11503134725503E+0002
 11
 7.91666681923805E+0002
 21
 3.11503368137575E+0002
  0
ARC
  8
0
 10
 1.50000000000000E+0003
 20
 6.50000000000000E+0001
 40
 7.50000000000000E+0002
 50
 1.60811860000000E+0002
 51
 1.80000000000000E+0002
  0
LINE
  8
0
 10
 7.50000000000000E+0002
 20
 6.50000000000000E+0001
 11
 7.80000000000000E+0002
 21
 6.50000000000000E+0001
  0
ARC
  8
0
 10
 1.50000000000000E+0003
 20
 6.50000000000000E+0001
 40
 7.20000000000000E+0002
 50
 1.60811860000000E+0002
 51
 1.80000000000000E+0002
  0
LINE
  8
0
 10
 8.20000014646853E+0002
 20
 3.01643233412072E+0002
 11
 8.20028891703178E+0002
 21
 3.01560153975574E+0002
  0
ARC
  8
0
 10
 1.40000000000000E+0002
 20
 6.50000000000000E+0001
 40
 7.20000000000000E+0002
 50
 0.00000000000000E+0000
 51
 1.91811400000000E+0001
  0
ENDSEC
  0
EOF
