  0
SECTION
  2
HEADER
  9
$ACADVER
  1
AC1003
  9
$INSBASE
 10
0.0
 20
0.0
  9
$EXTMIN
 10
 0.00000000000000E+0000
 20
 0.00000000000000E+0000
  9
$EXTMAX
 10
 1.60000000000000E+0003
 20
 1.60000000000000E+0003
  9
$LIMMIN
 10
0.0
 20
0.0
  9
$LIMMAX
 10
410.0
 20
287.0
  9
$VIEWCTR
 10
227.0059616
 20
165.058879 
  9
$VIEWSIZE
 40
 1.60000000000000E+0003
9
$SNAPMODE
70
0
9
$SNAPUNIT
10
1
20
1
9
$GRIDMODE
70
0
9
$GRIDUNIT
10
1
20
1
9
$ORTHOMODE
70
0
9
$rEGENMODE
70
1
9
$FILLMODE
70
1
9
$DRAGMODE
70
2
9
$LTSCALE
40
25.0
9
$OSMODE
70
0
9
$ATTMODE
70
1
9
$TRACEWID
40
1.0
9
$TEXTSTYLE
7
STANDARD
9
$CLAYER
8
0
9
$CELTYPE
6
VONLAYER
9
$CECOLOR
62
256
9
$LUNITS
70
2
9
$LUPREC
70
2
9
$AXISMODE
70
0
9
$AXISUNIT
10
0
20
0
9
$SKETCHINC
40
1.0
9
$FILLETRAD
40
0.0
9
$AUNITS
70
0
9
$AUPREC
70
0
9
$MENU
1
ACAD
9
$ELEVATION
40
0.0
9
$THICKNESS
40
0.0
9
$VIEWDIR
10
0.0
20
0.0
30
1.0
9
$LIMCHECK
70
0
9
$BLIPMODE
70
1
9
$CHAMFERA
40
0.0
9
$CHAMFERB
40
0.0
9
$USRTIMER
70
1
9
$ANGBASE
50
0.0
9
$ANGDIR
70
0
9
$PDMODE
70
0
9
$PDSIZE
40
0.0
9
$PLINEWID
40
0.0
9
$COORDS
70
0
0
ENDSEC
0
SECTION
2
TABLES
0
TABLE
2
LTYPE
70
1
0
LTYPE
2
AUSGEZOGEN
70
64
3
Ausgezogene Linie
72
65
73
0
40
0.0
0
ENDTAB
0
TABLE
2
LAYER
70
1
0
LAYER
2
0
70
0
62
7
6
AUSGEZOGEN
0
ENDTAB
0
TABLE
2
STYLE
70
1
0
STYLE
2
STANDARD
70
0
40
0.0
41
1.0
50
0.0
71
0
42
3.5
3
txt
4

0
ENDTAB
0
TABLE
2
VIEW
70
0
0
ENDTAB
0
ENDSEC
0
SECTION
2
BLOCKS
0
ENDSEC
0
SECTION
2
ENTITIES
  0
ARC
  8
0
 10
 6.00000000000000E+0001
 20
 6.00000000000000E+0001
 40
 6.00000000000000E+0001
 50
 1.80000000000000E+0002
 51
 2.70000000000000E+0002
  0
LINE
  8
0
 10
 0.00000000000000E+0000
 20
 6.00000000000000E+0001
 11
 0.00000000000000E+0000
 21
 1.54000000000000E+0003
  0
ARC
  8
0
 10
 6.00000000000000E+0001
 20
 1.54000000000000E+0003
 40
 6.00000000000000E+0001
 50
 9.00000000000000E+0001
 51
 1.80000000000000E+0002
  0
LINE
  8
0
 10
 6.00000000000000E+0001
 20
 1.60000000000000E+0003
 11
 1.54000000000000E+0003
 21
 1.60000000000000E+0003
  0
ARC
  8
0
 10
 1.54000000000000E+0003
 20
 1.54000000000000E+0003
 40
 6.00000000000000E+0001
 50
 0.00000000000000E+0000
 51
 9.00000000000000E+0001
  0
LINE
  8
0
 10
 1.60000000000000E+0003
 20
 1.54000000000000E+0003
 11
 1.60000000000000E+0003
 21
 6.00000000000000E+0001
  0
ARC
  8
0
 10
 1.54000000000000E+0003
 20
 6.00000000000000E+0001
 40
 6.00000000000000E+0001
 50
 2.70000000000000E+0002
 51
 3.60000000000000E+0002
  0
LINE
  8
0
 10
 1.54000000000000E+0003
 20
 0.00000000000000E+0000
 11
 6.00000000000000E+0001
 21
 0.00000000000000E+0000
  0
ARC
  8
0
 10
 6.00000000000000E+0001
 20
 6.00000000000000E+0001
 40
 4.50000000000000E+0001
 50
 1.80000000000000E+0002
 51
 2.70000000000000E+0002
  0
LINE
  8
0
 10
 1.50000000000000E+0001
 20
 6.00000000000000E+0001
 11
 1.50000000000000E+0001
 21
 1.54000000000000E+0003
  0
ARC
  8
0
 10
 6.00000000000000E+0001
 20
 1.54000000000000E+0003
 40
 4.50000000000000E+0001
 50
 9.00000000000000E+0001
 51
 1.80000000000000E+0002
  0
LINE
  8
0
 10
 6.00000000000000E+0001
 20
 1.58500000000000E+0003
 11
 1.54000000000000E+0003
 21
 1.58500000000000E+0003
  0
ARC
  8
0
 10
 1.54000000000000E+0003
 20
 1.54000000000000E+0003
 40
 4.50000000000000E+0001
 50
 0.00000000000000E+0000
 51
 9.00000000000000E+0001
  0
LINE
  8
0
 10
 1.58500000000000E+0003
 20
 1.54000000000000E+0003
 11
 1.58500000000000E+0003
 21
 6.00000000000000E+0001
  0
ARC
  8
0
 10
 1.54000000000000E+0003
 20
 6.00000000000000E+0001
 40
 4.50000000000000E+0001
 50
 2.70000000000000E+0002
 51
 3.60000000000000E+0002
  0
LINE
  8
0
 10
 1.54000000000000E+0003
 20
 1.50000000000000E+0001
 11
 6.00000000000000E+0001
 21
 1.50000000000000E+0001
  0
ARC
  8
0
 10
 6.00000000000000E+0001
 20
 6.00000000000000E+0001
 40
 2.50000000000000E+0001
 50
 1.80000000000000E+0002
 51
 2.70000000000000E+0002
  0
LINE
  8
0
 10
 3.50000000000000E+0001
 20
 6.00000000000000E+0001
 11
 3.50000000000000E+0001
 21
 1.54000000000000E+0003
  0
ARC
  8
0
 10
 6.00000000000000E+0001
 20
 1.54000000000000E+0003
 40
 2.50000000000000E+0001
 50
 9.00000000000000E+0001
 51
 1.80000000000000E+0002
  0
LINE
  8
0
 10
 6.00000000000000E+0001
 20
 1.56500000000000E+0003
 11
 1.54000000000000E+0003
 21
 1.56500000000000E+0003
  0
ARC
  8
0
 10
 1.54000000000000E+0003
 20
 1.54000000000000E+0003
 40
 2.50000000000000E+0001
 50
 0.00000000000000E+0000
 51
 9.00000000000000E+0001
  0
LINE
  8
0
 10
 1.56500000000000E+0003
 20
 1.54000000000000E+0003
 11
 1.56500000000000E+0003
 21
 6.00000000000000E+0001
  0
ARC
  8
0
 10
 1.54000000000000E+0003
 20
 6.00000000000000E+0001
 40
 2.50000000000000E+0001
 50
 2.70000000000000E+0002
 51
 3.60000000000000E+0002
  0
LINE
  8
0
 10
 1.54000000000000E+0003
 20
 3.50000000000000E+0001
 11
 6.00000000000000E+0001
 21
 3.50000000000000E+0001
  0
LINE
  8
0
 10
 2.25000000000000E+0002
 20
 1.30700000000000E+0003
 11
 1.79999490553610E+0002
 21
 1.29538091843480E+0003
  0
ARC
  8
0
 10
 1.77000000000000E+0002
 20
 1.30700000000000E+0003
 40
 1.20000000000000E+0001
 50
 1.46195000000000E+0002
 51
 2.84475000000000E+0002
  0
LINE
  8
0
 10
 1.67028768958083E+0002
 20
 1.31367641756549E+0003
 11
 2.55000000000000E+0002
 21
 1.44500000000000E+0003
  0
LINE
  8
0
 10
 2.55000000000000E+0002
 20
 1.44500000000000E+0003
 11
 3.42971231041916E+0002
 21
 1.31367641756549E+0003
  0
ARC
  8
0
 10
 3.33000000000000E+0002
 20
 1.30700000000000E+0003
 40
 1.20000000000000E+0001
 50
 2.55525000000000E+0002
 51
 3.93805000000000E+0002
  0
LINE
  8
0
 10
 3.30000509446390E+0002
 20
 1.29538091843480E+0003
 11
 2.85000000000000E+0002
 21
 1.30700000000000E+0003
  0
LINE
  8
0
 10
 2.85000000000000E+0002
 20
 1.30700000000000E+0003
 11
 2.85000000000000E+0002
 21
 1.26500000000000E+0003
  0
ARC
  8
0
 10
 1.10500000000000E+0003
 20
 1.26500000000000E+0003
 40
 8.20000000000000E+0002
 50
 1.80000000000000E+0002
 51
 2.33130000000000E+0002
  0
LINE
  8
0
 10
 6.12998828111217E+0002
 20
 6.09000878918223E+0002
 11
 6.25000643109698E+0002
 21
 5.99999517666829E+0002
  0
ARC
  8
0
 10
 3.55000000000000E+0002
 20
 2.40000000000000E+0002
 40
 4.50000000000000E+0002
 50
 0.00000000000000E+0000
 51
 5.31300000000000E+0001
  0
LINE
  8
0
 10
 8.05000000000000E+0002
 20
 2.40000000000000E+0002
 11
 8.05000000000000E+0002
 21
 1.55000000000000E+0002
  0
LINE
  8
0
 10
 8.05000000000000E+0002
 20
 1.55000000000000E+0002
 11
 7.45000000000000E+0002
 21
 1.55000000000000E+0002
  0
LINE
  8
0
 10
 7.45000000000000E+0002
 20
 1.55000000000000E+0002
 11
 7.45000000000000E+0002
 21
 2.40000000000000E+0002
  0
ARC
  8
0
 10
 3.55000000000000E+0002
 20
 2.40000000000000E+0002
 40
 3.90000000000000E+0002
 50
 0.00000000000000E+0000
 51
 5.31300000000000E+0001
  0
LINE
  8
0
 10
 5.89000557361738E+0002
 20
 5.51999581977918E+0002
 11
 5.76998742363257E+0002
 21
 5.61000943229312E+0002
  0
ARC
  8
0
 10
 1.10500000000000E+0003
 20
 1.26500000000000E+0003
 40
 8.80000000000000E+0002
 50
 1.80000000000000E+0002
 51
 2.33130000000000E+0002
  0
LINE
  8
0
 10
 2.25000000000000E+0002
 20
 1.26500000000000E+0003
 11
 2.25000000000000E+0002
 21
 1.30700000000000E+0003
  0
LINE
  8
0
 10
 4.35000000000000E+0002
 20
 1.30700000000000E+0003
 11
 3.89999490553610E+0002
 21
 1.29538091843480E+0003
  0
ARC
  8
0
 10
 3.87000000000000E+0002
 20
 1.30700000000000E+0003
 40
 1.20000000000000E+0001
 50
 1.46195000000000E+0002
 51
 2.84475000000000E+0002
  0
LINE
  8
0
 10
 3.77028768958084E+0002
 20
 1.31367641756549E+0003
 11
 4.65000000000000E+0002
 21
 1.44500000000000E+0003
  0
LINE
  8
0
 10
 4.65000000000000E+0002
 20
 1.44500000000000E+0003
 11
 5.52971231041916E+0002
 21
 1.31367641756549E+0003
  0
ARC
  8
0
 10
 5.43000000000000E+0002
 20
 1.30700000000000E+0003
 40
 1.20000000000000E+0001
 50
 2.55525000000000E+0002
 51
 3.93805000000000E+0002
  0
LINE
  8
0
 10
 5.40000509446390E+0002
 20
 1.29538091843480E+0003
 11
 4.95000000000000E+0002
 21
 1.30700000000000E+0003
  0
LINE
  8
0
 10
 4.95000000000000E+0002
 20
 1.30700000000000E+0003
 11
 4.95000000000000E+0002
 21
 1.26500000000000E+0003
  0
ARC
  8
0
 10
 1.10500000000000E+0003
 20
 1.26500000000000E+0003
 40
 6.10000000000000E+0002
 50
 1.80000000000000E+0002
 51
 2.33130000000000E+0002
  0
LINE
  8
0
 10
 7.38999128229076E+0002
 20
 7.77000653829410E+0002
 11
 7.51000943227557E+0002
 21
 7.67999292578016E+0002
  0
ARC
  8
0
 10
 3.55000000000000E+0002
 20
 2.40000000000000E+0002
 40
 6.60000000000000E+0002
 50
 0.00000000000000E+0000
 51
 5.31300000000000E+0001
  0
LINE
  8
0
 10
 1.01500000000000E+0003
 20
 2.40000000000000E+0002
 11
 1.01500000000000E+0003
 21
 1.55000000000000E+0002
  0
LINE
  8
0
 10
 1.01500000000000E+0003
 20
 1.55000000000000E+0002
 11
 9.55000000000000E+0002
 21
 1.55000000000000E+0002
  0
LINE
  8
0
 10
 9.55000000000000E+0002
 20
 1.55000000000000E+0002
 11
 9.55000000000000E+0002
 21
 2.40000000000000E+0002
  0
ARC
  8
0
 10
 3.55000000000000E+0002
 20
 2.40000000000000E+0002
 40
 6.00000000000000E+0002
 50
 0.00000000000000E+0000
 51
 5.31300000000000E+0001
  0
LINE
  8
0
 10
 7.15000857479597E+0002
 20
 7.19999356889105E+0002
 11
 7.02999042481116E+0002
 21
 7.29000718140499E+0002
  0
ARC
  8
0
 10
 1.10500000000000E+0003
 20
 1.26500000000000E+0003
 40
 6.70000000000000E+0002
 50
 1.80000000000000E+0002
 51
 2.33130000000000E+0002
  0
LINE
  8
0
 10
 4.35000000000000E+0002
 20
 1.26500000000000E+0003
 11
 4.35000000000000E+0002
 21
 1.30700000000000E+0003
  0
LINE
  8
0
 10
 6.45000000000000E+0002
 20
 1.30700000000000E+0003
 11
 5.99999490553610E+0002
 21
 1.29538091843480E+0003
  0
ARC
  8
0
 10
 5.97000000000000E+0002
 20
 1.30700000000000E+0003
 40
 1.20000000000000E+0001
 50
 1.46195000000000E+0002
 51
 2.84475000000000E+0002
  0
LINE
  8
0
 10
 5.87028768958084E+0002
 20
 1.31367641756549E+0003
 11
 6.75000000000000E+0002
 21
 1.44500000000000E+0003
  0
LINE
  8
0
 10
 6.75000000000000E+0002
 20
 1.44500000000000E+0003
 11
 7.62971231041917E+0002
 21
 1.31367641756549E+0003
  0
ARC
  8
0
 10
 7.53000000000000E+0002
 20
 1.30700000000000E+0003
 40
 1.20000000000000E+0001
 50
 2.55525000000000E+0002
 51
 3.93805000000000E+0002
  0
LINE
  8
0
 10
 7.50000509446390E+0002
 20
 1.29538091843480E+0003
 11
 7.05000000000000E+0002
 21
 1.30700000000000E+0003
  0
LINE
  8
0
 10
 7.05000000000000E+0002
 20
 1.30700000000000E+0003
 11
 7.05000000000000E+0002
 21
 1.26500000000000E+0003
  0
ARC
  8
0
 10
 1.10500000000000E+0003
 20
 1.26500000000000E+0003
 40
 4.00000000000000E+0002
 50
 1.80000000000000E+0002
 51
 2.33130000000000E+0002
  0
LINE
  8
0
 10
 8.64999428346935E+0002
 20
 9.45000428740597E+0002
 11
 8.77001243345416E+0002
 21
 9.35999067489203E+0002
  0
ARC
  8
0
 10
 3.55000000000000E+0002
 20
 2.40000000000000E+0002
 40
 8.70000000000000E+0002
 50
 0.00000000000000E+0000
 51
 5.31300000000000E+0001
  0
LINE
  8
0
 10
 1.22500000000000E+0003
 20
 2.40000000000000E+0002
 11
 1.22500000000000E+0003
 21
 1.55000000000000E+0002
  0
LINE
  8
0
 10
 1.22500000000000E+0003
 20
 1.55000000000000E+0002
 11
 1.16500000000000E+0003
 21
 1.55000000000000E+0002
  0
LINE
  8
0
 10
 1.16500000000000E+0003
 20
 1.55000000000000E+0002
 11
 1.16500000000000E+0003
 21
 2.40000000000000E+0002
  0
ARC
  8
0
 10
 3.55000000000000E+0002
 20
 2.40000000000000E+0002
 40
 8.10000000000000E+0002
 50
 0.00000000000000E+0000
 51
 5.31300000000000E+0001
  0
LINE
  8
0
 10
 8.41001157597457E+0002
 20
 8.87999131800292E+0002
 11
 8.28999342598975E+0002
 21
 8.97000493051686E+0002
  0
ARC
  8
0
 10
 1.10500000000000E+0003
 20
 1.26500000000000E+0003
 40
 4.60000000000000E+0002
 50
 1.80000000000000E+0002
 51
 2.33130000000000E+0002
  0
LINE
  8
0
 10
 6.45000000000000E+0002
 20
 1.26500000000000E+0003
 11
 6.45000000000000E+0002
 21
 1.30700000000000E+0003
  0
LINE
  8
0
 10
 1.12500000000000E+0003
 20
 1.26500000000000E+0003
 11
 1.12538639001190E+0003
 21
 1.25195630732330E+0003
  0
LINE
  8
0
 10
 1.12538639001190E+0003
 20
 1.25195630732330E+0003
 11
 1.12593648001520E+0003
 21
 1.23907949734640E+0003
  0
LINE
  8
0
 10
 1.12593648001520E+0003
 20
 1.23907949734640E+0003
 11
 1.12664693696130E+0003
 21
 1.22636618914910E+0003
  0
LINE
  8
0
 10
 1.12664693696130E+0003
 20
 1.22636618914910E+0003
 11
 1.12751442780160E+0003
 21
 1.21381300181120E+0003
  0
LINE
  8
0
 10
 1.12751442780160E+0003
 20
 1.21381300181120E+0003
 11
 1.12853561948750E+0003
 21
 1.20141655441250E+0003
  0
LINE
  8
0
 10
 1.12853561948750E+0003
 20
 1.20141655441250E+0003
 11
 1.12970717897040E+0003
 21
 1.18917346603280E+0003
  0
LINE
  8
0
 10
 1.12970717897040E+0003
 20
 1.18917346603280E+0003
 11
 1.13102577320170E+0003
 21
 1.17708035575190E+0003
  0
LINE
  8
0
 10
 1.13102577320170E+0003
 20
 1.17708035575190E+0003
 11
 1.13248806913280E+0003
 21
 1.16513384264960E+0003
  0
LINE
  8
0
 10
 1.13248806913280E+0003
 20
 1.16513384264960E+0003
 11
 1.13409073371510E+0003
 21
 1.15333054580570E+0003
  0
LINE
  8
0
 10
 1.13409073371510E+0003
 20
 1.15333054580570E+0003
 11
 1.13583043390000E+0003
 21
 1.14166708430000E+0003
  0
LINE
  8
0
 10
 1.13583043390000E+0003
 20
 1.14166708430000E+0003
 11
 1.13770383663890E+0003
 21
 1.13014007721230E+0003
  0
LINE
  8
0
 10
 1.13770383663890E+0003
 20
 1.13014007721230E+0003
 11
 1.13970760888320E+0003
 21
 1.11874614362240E+0003
  0
LINE
  8
0
 10
 1.13970760888320E+0003
 20
 1.11874614362240E+0003
 11
 1.14183841758430E+0003
 21
 1.10748190261010E+0003
  0
LINE
  8
0
 10
 1.14183841758430E+0003
 20
 1.10748190261010E+0003
 11
 1.14409292969360E+0003
 21
 1.09634397325520E+0003
  0
LINE
  8
0
 10
 1.14409292969360E+0003
 20
 1.09634397325520E+0003
 11
 1.14646781216250E+0003
 21
 1.08532897463750E+0003
  0
LINE
  8
0
 10
 1.14646781216250E+0003
 20
 1.08532897463750E+0003
 11
 1.14895973194240E+0003
 21
 1.07443352583680E+0003
  0
LINE
  8
0
 10
 1.14895973194240E+0003
 20
 1.07443352583680E+0003
 11
 1.15156535598470E+0003
 21
 1.06365424593290E+0003
  0
LINE
  8
0
 10
 1.15156535598470E+0003
 20
 1.06365424593290E+0003
 11
 1.15428135124080E+0003
 21
 1.05298775400560E+0003
  0
LINE
  8
0
 10
 1.15428135124080E+0003
 20
 1.05298775400560E+0003
 11
 1.15710438466210E+0003
 21
 1.04243066913470E+0003
  0
LINE
  8
0
 10
 1.15710438466210E+0003
 20
 1.04243066913470E+0003
 11
 1.16003112320000E+0003
 21
 1.03197961040000E+0003
  0
LINE
  8
0
 10
 1.16003112320000E+0003
 20
 1.03197961040000E+0003
 11
 1.16305823380590E+0003
 21
 1.02163119688130E+0003
  0
LINE
  8
0
 10
 1.16305823380590E+0003
 20
 1.02163119688130E+0003
 11
 1.16618238343120E+0003
 21
 1.01138204765840E+0003
  0
LINE
  8
0
 10
 1.16618238343120E+0003
 20
 1.01138204765840E+0003
 11
 1.16940023902730E+0003
 21
 1.00122878181110E+0003
  0
LINE
  8
0
 10
 1.16940023902730E+0003
 20
 1.00122878181110E+0003
 11
 1.17270846754560E+0003
 21
 9.91168018419200E+0002
  0
LINE
  8
0
 10
 1.17270846754560E+0003
 20
 9.91168018419200E+0002
 11
 1.17610373593750E+0003
 21
 9.81196376562500E+0002
  0
LINE
  8
0
 10
 1.17610373593750E+0003
 20
 9.81196376562500E+0002
 11
 1.17958271115440E+0003
 21
 9.71310475320800E+0002
  0
LINE
  8
0
 10
 1.17958271115440E+0003
 20
 9.71310475320800E+0002
 11
 1.18314206014770E+0003
 21
 9.61506933773900E+0002
  0
LINE
  8
0
 10
 1.18314206014770E+0003
 20
 9.61506933773900E+0002
 11
 1.18677844986880E+0003
 21
 9.51782371001600E+0002
  0
LINE
  8
0
 10
 1.18677844986880E+0003
 20
 9.51782371001600E+0002
 11
 1.19048854726910E+0003
 21
 9.42133406083700E+0002
  0
LINE
  8
0
 10
 1.19048854726910E+0003
 20
 9.42133406083700E+0002
 11
 1.19426901930000E+0003
 21
 9.32556658100000E+0002
  0
LINE
  8
0
 10
 1.19426901930000E+0003
 20
 9.32556658100000E+0002
 11
 1.19811653291290E+0003
 21
 9.23048746130300E+0002
  0
LINE
  8
0
 10
 1.19811653291290E+0003
 20
 9.23048746130300E+0002
 11
 1.20202775505920E+0003
 21
 9.13606289254400E+0002
  0
LINE
  8
0
 10
 1.20202775505920E+0003
 20
 9.13606289254400E+0002
 11
 1.20599935269030E+0003
 21
 9.04225906552100E+0002
  0
LINE
  8
0
 10
 1.20599935269030E+0003
 20
 9.04225906552100E+0002
 11
 1.21002799275760E+0003
 21
 8.94904217103200E+0002
  0
LINE
  8
0
 10
 1.21002799275760E+0003
 20
 8.94904217103200E+0002
 11
 1.21411034221250E+0003
 21
 8.85637839987500E+0002
  0
LINE
  8
0
 10
 1.21411034221250E+0003
 20
 8.85637839987500E+0002
 11
 1.21824306800640E+0003
 21
 8.76423394284800E+0002
  0
LINE
  8
0
 10
 1.21824306800640E+0003
 20
 8.76423394284800E+0002
 11
 1.22242283709070E+0003
 21
 8.67257499074900E+0002
  0
LINE
  8
0
 10
 1.22242283709070E+0003
 20
 8.67257499074900E+0002
 11
 1.22664631641680E+0003
 21
 8.58136773437600E+0002
  0
LINE
  8
0
 10
 1.22664631641680E+0003
 20
 8.58136773437600E+0002
 11
 1.23091017293610E+0003
 21
 8.49057836452700E+0002
  0
LINE
  8
0
 10
 1.23091017293610E+0003
 20
 8.49057836452700E+0002
 11
 1.23521107360000E+0003
 21
 8.40017307200000E+0002
  0
LINE
  8
0
 10
 1.23521107360000E+0003
 20
 8.40017307200000E+0002
 11
 1.23954568535990E+0003
 21
 8.31011804759300E+0002
  0
LINE
  8
0
 10
 1.23954568535990E+0003
 20
 8.31011804759300E+0002
 11
 1.24391067516720E+0003
 21
 8.22037948210400E+0002
  0
LINE
  8
0
 10
 1.24391067516720E+0003
 20
 8.22037948210400E+0002
 11
 1.24830270997330E+0003
 21
 8.13092356633100E+0002
  0
LINE
  8
0
 10
 1.24830270997330E+0003
 20
 8.13092356633100E+0002
 11
 1.25271845672960E+0003
 21
 8.04171649107200E+0002
  0
LINE
  8
0
 10
 1.25271845672960E+0003
 20
 8.04171649107200E+0002
 11
 1.25715458238750E+0003
 21
 7.95272444712500E+0002
  0
LINE
  8
0
 10
 1.25715458238750E+0003
 20
 7.95272444712500E+0002
 11
 1.26160775389840E+0003
 21
 7.86391362528800E+0002
  0
LINE
  8
0
 10
 1.26160775389840E+0003
 20
 7.86391362528800E+0002
 11
 1.26607463821370E+0003
 21
 7.77525021635900E+0002
  0
LINE
  8
0
 10
 1.26607463821370E+0003
 20
 7.77525021635900E+0002
 11
 1.27055190228480E+0003
 21
 7.68670041113600E+0002
  0
LINE
  8
0
 10
 1.27055190228480E+0003
 20
 7.68670041113600E+0002
 11
 1.27503621306310E+0003
 21
 7.59823040041700E+0002
  0
LINE
  8
0
 10
 1.27503621306310E+0003
 20
 7.59823040041700E+0002
 11
 1.27952423750000E+0003
 21
 7.50980637500000E+0002
  0
LINE
  8
0
 10
 1.27952423750000E+0003
 20
 7.50980637500000E+0002
 11
 1.28401264254690E+0003
 21
 7.42139452568300E+0002
  0
LINE
  8
0
 10
 1.28401264254690E+0003
 20
 7.42139452568300E+0002
 11
 1.28849809515520E+0003
 21
 7.33296104326400E+0002
  0
LINE
  8
0
 10
 1.28849809515520E+0003
 20
 7.33296104326400E+0002
 11
 1.29297726227630E+0003
 21
 7.24447211854100E+0002
  0
LINE
  8
0
 10
 1.29297726227630E+0003
 20
 7.24447211854100E+0002
 11
 1.29744681086160E+0003
 21
 7.15589394231200E+0002
  0
LINE
  8
0
 10
 1.29744681086160E+0003
 20
 7.15589394231200E+0002
 11
 1.30190340786250E+0003
 21
 7.06719270537500E+0002
  0
LINE
  8
0
 10
 1.30190340786250E+0003
 20
 7.06719270537500E+0002
 11
 1.30634372023040E+0003
 21
 6.97833459852800E+0002
  0
LINE
  8
0
 10
 1.30634372023040E+0003
 20
 6.97833459852800E+0002
 11
 1.31076441491670E+0003
 21
 6.88928581256900E+0002
  0
LINE
  8
0
 10
 1.31076441491670E+0003
 20
 6.88928581256900E+0002
 11
 1.31516215887280E+0003
 21
 6.80001253829600E+0002
  0
LINE
  8
0
 10
 1.31516215887280E+0003
 20
 6.80001253829600E+0002
 11
 1.31953361905010E+0003
 21
 6.71048096650700E+0002
  0
LINE
  8
0
 10
 1.31953361905010E+0003
 20
 6.71048096650700E+0002
 11
 1.32387546240000E+0003
 21
 6.62065728800000E+0002
  0
LINE
  8
0
 10
 1.32387546240000E+0003
 20
 6.62065728800000E+0002
 11
 1.32818435587390E+0003
 21
 6.53050769357300E+0002
  0
LINE
  8
0
 10
 1.32818435587390E+0003
 20
 6.53050769357300E+0002
 11
 1.33245696642320E+0003
 21
 6.43999837402400E+0002
  0
LINE
  8
0
 10
 1.33245696642320E+0003
 20
 6.43999837402400E+0002
 11
 1.33668996099930E+0003
 21
 6.34909552015100E+0002
  0
LINE
  8
0
 10
 1.33668996099930E+0003
 20
 6.34909552015100E+0002
 11
 1.34088000655360E+0003
 21
 6.25776532275200E+0002
  0
LINE
  8
0
 10
 1.34088000655360E+0003
 20
 6.25776532275200E+0002
 11
 1.34502377003750E+0003
 21
 6.16597397262500E+0002
  0
LINE
  8
0
 10
 1.34502377003750E+0003
 20
 6.16597397262500E+0002
 11
 1.34911791840240E+0003
 21
 6.07368766056800E+0002
  0
LINE
  8
0
 10
 1.34911791840240E+0003
 20
 6.07368766056800E+0002
 11
 1.35315911859970E+0003
 21
 5.98087257737900E+0002
  0
LINE
  8
0
 10
 1.35315911859970E+0003
 20
 5.98087257737900E+0002
 11
 1.35714403758080E+0003
 21
 5.88749491385600E+0002
  0
LINE
  8
0
 10
 1.35714403758080E+0003
 20
 5.88749491385600E+0002
 11
 1.36106934229710E+0003
 21
 5.79352086079700E+0002
  0
LINE
  8
0
 10
 1.36106934229710E+0003
 20
 5.79352086079700E+0002
 11
 1.36493169970000E+0003
 21
 5.69891660900000E+0002
  0
LINE
  8
0
 10
 1.36493169970000E+0003
 20
 5.69891660900000E+0002
 11
 1.36872777674090E+0003
 21
 5.60364834926300E+0002
  0
LINE
  8
0
 10
 1.36872777674090E+0003
 20
 5.60364834926300E+0002
 11
 1.37245424037120E+0003
 21
 5.50768227238400E+0002
  0
LINE
  8
0
 10
 1.37245424037120E+0003
 20
 5.50768227238400E+0002
 11
 1.37610775754230E+0003
 21
 5.41098456916100E+0002
  0
LINE
  8
0
 10
 1.37610775754230E+0003
 20
 5.41098456916100E+0002
 11
 1.37968499520560E+0003
 21
 5.31352143039200E+0002
  0
LINE
  8
0
 10
 1.37968499520560E+0003
 20
 5.31352143039200E+0002
 11
 1.38318262031250E+0003
 21
 5.21525904687500E+0002
  0
LINE
  8
0
 10
 1.38318262031250E+0003
 20
 5.21525904687500E+0002
 11
 1.38659729981440E+0003
 21
 5.11616360940800E+0002
  0
LINE
  8
0
 10
 1.38659729981440E+0003
 20
 5.11616360940800E+0002
 11
 1.38992570066270E+0003
 21
 5.01620130878900E+0002
  0
LINE
  8
0
 10
 1.38992570066270E+0003
 20
 5.01620130878900E+0002
 11
 1.39316448980880E+0003
 21
 4.91533833581600E+0002
  0
LINE
  8
0
 10
 1.39316448980880E+0003
 20
 4.91533833581600E+0002
 11
 1.39631033420410E+0003
 21
 4.81354088128700E+0002
  0
LINE
  8
0
 10
 1.39631033420410E+0003
 20
 4.81354088128700E+0002
 11
 1.39935990080000E+0003
 21
 4.71077513600000E+0002
  0
LINE
  8
0
 10
 1.39935990080000E+0003
 20
 4.71077513600000E+0002
 11
 1.40230985654790E+0003
 21
 4.60700729075300E+0002
  0
LINE
  8
0
 10
 1.40230985654790E+0003
 20
 4.60700729075300E+0002
 11
 1.40515686839920E+0003
 21
 4.50220353634400E+0002
  0
LINE
  8
0
 10
 1.40515686839920E+0003
 20
 4.50220353634400E+0002
 11
 1.40789760330530E+0003
 21
 4.39633006357100E+0002
  0
LINE
  8
0
 10
 1.40789760330530E+0003
 20
 4.39633006357100E+0002
 11
 1.41052872821760E+0003
 21
 4.28935306323200E+0002
  0
LINE
  8
0
 10
 1.41052872821760E+0003
 20
 4.28935306323200E+0002
 11
 1.41304691008750E+0003
 21
 4.18123872612500E+0002
  0
LINE
  8
0
 10
 1.41304691008750E+0003
 20
 4.18123872612500E+0002
 11
 1.41544881586640E+0003
 21
 4.07195324304800E+0002
  0
LINE
  8
0
 10
 1.41544881586640E+0003
 20
 4.07195324304800E+0002
 11
 1.41773111250570E+0003
 21
 3.96146280479900E+0002
  0
LINE
  8
0
 10
 1.41773111250570E+0003
 20
 3.96146280479900E+0002
 11
 1.41989046695680E+0003
 21
 3.84973360217600E+0002
  0
LINE
  8
0
 10
 1.41989046695680E+0003
 20
 3.84973360217600E+0002
 11
 1.42192354617110E+0003
 21
 3.73673182597700E+0002
  0
LINE
  8
0
 10
 1.42192354617110E+0003
 20
 3.73673182597700E+0002
 11
 1.42382701710000E+0003
 21
 3.62242366700000E+0002
  0
LINE
  8
0
 10
 1.42382701710000E+0003
 20
 3.62242366700000E+0002
 11
 1.42559754669490E+0003
 21
 3.50677531604300E+0002
  0
LINE
  8
0
 10
 1.42559754669490E+0003
 20
 3.50677531604300E+0002
 11
 1.42723180190720E+0003
 21
 3.38975296390400E+0002
  0
LINE
  8
0
 10
 1.42723180190720E+0003
 20
 3.38975296390400E+0002
 11
 1.42872644968830E+0003
 21
 3.27132280138100E+0002
  0
LINE
  8
0
 10
 1.42872644968830E+0003
 20
 3.27132280138100E+0002
 11
 1.43007815698960E+0003
 21
 3.15145101927200E+0002
  0
LINE
  8
0
 10
 1.43007815698960E+0003
 20
 3.15145101927200E+0002
 11
 1.43128359076250E+0003
 21
 3.03010380837500E+0002
  0
LINE
  8
0
 10
 1.43128359076250E+0003
 20
 3.03010380837500E+0002
 11
 1.43233941795840E+0003
 21
 2.90724735948800E+0002
  0
LINE
  8
0
 10
 1.43233941795840E+0003
 20
 2.90724735948800E+0002
 11
 1.43324230552870E+0003
 21
 2.78284786340900E+0002
  0
LINE
  8
0
 10
 1.43324230552870E+0003
 20
 2.78284786340900E+0002
 11
 1.43398892042480E+0003
 21
 2.65687151093600E+0002
  0
LINE
  8
0
 10
 1.43398892042480E+0003
 20
 2.65687151093600E+0002
 11
 1.43457592959810E+0003
 21
 2.52928449286700E+0002
  0
LINE
  8
0
 10
 1.43457592959810E+0003
 20
 2.52928449286700E+0002
 11
 1.43500000000000E+0003
 21
 2.40005300000000E+0002
  0
LINE
  8
0
 10
 1.43500000000000E+0003
 20
 2.40005300000000E+0002
 11
 1.43500000000000E+0003
 21
 1.55000000000000E+0002
  0
LINE
  8
0
 10
 1.43500000000000E+0003
 20
 1.55000000000000E+0002
 11
 1.37500000000000E+0003
 21
 1.55000000000000E+0002
  0
LINE
  8
0
 10
 1.37500000000000E+0003
 20
 1.55000000000000E+0002
 11
 1.37500000000000E+0003
 21
 2.40005300000000E+0002
  0
LINE
  8
0
 10
 1.37500000000000E+0003
 20
 2.40005300000000E+0002
 11
 1.37457597037530E+0003
 21
 2.52928449294400E+0002
  0
LINE
  8
0
 10
 1.37457597037530E+0003
 20
 2.52928449294400E+0002
 11
 1.37398899956240E+0003
 21
 2.65687151155200E+0002
  0
LINE
  8
0
 10
 1.37398899956240E+0003
 20
 2.65687151155200E+0002
 11
 1.37324242065310E+0003
 21
 2.78284786548800E+0002
  0
LINE
  8
0
 10
 1.37324242065310E+0003
 20
 2.78284786548800E+0002
 11
 1.37233956673920E+0003
 21
 2.90724736441600E+0002
  0
LINE
  8
0
 10
 1.37233956673920E+0003
 20
 2.90724736441600E+0002
 11
 1.37128377091250E+0003
 21
 3.03010381800000E+0002
  0
LINE
  8
0
 10
 1.37128377091250E+0003
 20
 3.03010381800000E+0002
 11
 1.37007836626480E+0003
 21
 3.15145103590400E+0002
  0
LINE
  8
0
 10
 1.37007836626480E+0003
 20
 3.15145103590400E+0002
 11
 1.36872668588790E+0003
 21
 3.27132282779200E+0002
  0
LINE
  8
0
 10
 1.36872668588790E+0003
 20
 3.27132282779200E+0002
 11
 1.36723206287360E+0003
 21
 3.38975300332800E+0002
  0
LINE
  8
0
 10
 1.36723206287360E+0003
 20
 3.38975300332800E+0002
 11
 1.36559783031370E+0003
 21
 3.50677537217600E+0002
  0
LINE
  8
0
 10
 1.36559783031370E+0003
 20
 3.50677537217600E+0002
 11
 1.36382732130000E+0003
 21
 3.62242374400000E+0002
  0
LINE
  8
0
 10
 1.36382732130000E+0003
 20
 3.62242374400000E+0002
 11
 1.36192386892430E+0003
 21
 3.73673192846400E+0002
  0
LINE
  8
0
 10
 1.36192386892430E+0003
 20
 3.73673192846400E+0002
 11
 1.35989080627840E+0003
 21
 3.84973373523200E+0002
  0
LINE
  8
0
 10
 1.35989080627840E+0003
 20
 3.84973373523200E+0002
 11
 1.35773146645410E+0003
 21
 3.96146297396800E+0002
  0
LINE
  8
0
 10
 1.35773146645410E+0003
 20
 3.96146297396800E+0002
 11
 1.35544918254320E+0003
 21
 4.07195345433600E+0002
  0
LINE
  8
0
 10
 1.35544918254320E+0003
 20
 4.07195345433600E+0002
 11
 1.35304728763750E+0003
 21
 4.18123898600000E+0002
  0
LINE
  8
0
 10
 1.35304728763750E+0003
 20
 4.18123898600000E+0002
 11
 1.35052911482880E+0003
 21
 4.28935337862400E+0002
  0
LINE
  8
0
 10
 1.35052911482880E+0003
 20
 4.28935337862400E+0002
 11
 1.34789799720890E+0003
 21
 4.39633044187200E+0002
  0
LINE
  8
0
 10
 1.34789799720890E+0003
 20
 4.39633044187200E+0002
 11
 1.34515726786960E+0003
 21
 4.50220398540800E+0002
  0
LINE
  8
0
 10
 1.34515726786960E+0003
 20
 4.50220398540800E+0002
 11
 1.34231025990270E+0003
 21
 4.60700781889600E+0002
  0
LINE
  8
0
 10
 1.34231025990270E+0003
 20
 4.60700781889600E+0002
 11
 1.33936030640000E+0003
 21
 4.71077575200000E+0002
  0
LINE
  8
0
 10
 1.33936030640000E+0003
 20
 4.71077575200000E+0002
 11
 1.33631074045330E+0003
 21
 4.81354159438400E+0002
  0
LINE
  8
0
 10
 1.33631074045330E+0003
 20
 4.81354159438400E+0002
 11
 1.33316489515440E+0003
 21
 4.91533915571200E+0002
  0
LINE
  8
0
 10
 1.33316489515440E+0003
 20
 4.91533915571200E+0002
 11
 1.32992610359510E+0003
 21
 5.01620224564800E+0002
  0
LINE
  8
0
 10
 1.32992610359510E+0003
 20
 5.01620224564800E+0002
 11
 1.32659769886720E+0003
 21
 5.11616467385600E+0002
  0
LINE
  8
0
 10
 1.32659769886720E+0003
 20
 5.11616467385600E+0002
 11
 1.32318301406250E+0003
 21
 5.21526025000000E+0002
  0
LINE
  8
0
 10
 1.32318301406250E+0003
 20
 5.21526025000000E+0002
 11
 1.31968538227280E+0003
 21
 5.31352278374400E+0002
  0
LINE
  8
0
 10
 1.31968538227280E+0003
 20
 5.31352278374400E+0002
 11
 1.31610813658990E+0003
 21
 5.41098608475200E+0002
  0
LINE
  8
0
 10
 1.31610813658990E+0003
 20
 5.41098608475200E+0002
 11
 1.31245461010560E+0003
 21
 5.50768396268800E+0002
  0
LINE
  8
0
 10
 1.31245461010560E+0003
 20
 5.50768396268800E+0002
 11
 1.30872813591170E+0003
 21
 5.60365022721600E+0002
  0
LINE
  8
0
 10
 1.30872813591170E+0003
 20
 5.60365022721600E+0002
 11
 1.30493204710000E+0003
 21
 5.69891868800000E+0002
  0
LINE
  8
0
 10
 1.30493204710000E+0003
 20
 5.69891868800000E+0002
 11
 1.30106967676230E+0003
 21
 5.79352315470400E+0002
  0
LINE
  8
0
 10
 1.30106967676230E+0003
 20
 5.79352315470400E+0002
 11
 1.29714435799040E+0003
 21
 5.88749743699200E+0002
  0
LINE
  8
0
 10
 1.29714435799040E+0003
 20
 5.88749743699200E+0002
 11
 1.29315942387610E+0003
 21
 5.98087534452800E+0002
  0
LINE
  8
0
 10
 1.29315942387610E+0003
 20
 5.98087534452800E+0002
 11
 1.28911820751120E+0003
 21
 6.07369068697600E+0002
  0
LINE
  8
0
 10
 1.28911820751120E+0003
 20
 6.07369068697600E+0002
 11
 1.28502404198750E+0003
 21
 6.16597727400000E+0002
  0
LINE
  8
0
 10
 1.28502404198750E+0003
 20
 6.16597727400000E+0002
 11
 1.28088026039680E+0003
 21
 6.25776891526400E+0002
  0
LINE
  8
0
 10
 1.28088026039680E+0003
 20
 6.25776891526400E+0002
 11
 1.27669019583090E+0003
 21
 6.34909942043200E+0002
  0
LINE
  8
0
 10
 1.27669019583090E+0003
 20
 6.34909942043200E+0002
 11
 1.27245718138160E+0003
 21
 6.44000259916800E+0002
  0
LINE
  8
0
 10
 1.27245718138160E+0003
 20
 6.44000259916800E+0002
 11
 1.26818455014070E+0003
 21
 6.53051226113600E+0002
  0
LINE
  8
0
 10
 1.26818455014070E+0003
 20
 6.53051226113600E+0002
 11
 1.26387563520000E+0003
 21
 6.62066221600000E+0002
  0
LINE
  8
0
 10
 1.26387563520000E+0003
 20
 6.62066221600000E+0002
 11
 1.25953376965130E+0003
 21
 6.71048627342400E+0002
  0
LINE
  8
0
 10
 1.25953376965130E+0003
 20
 6.71048627342400E+0002
 11
 1.25516228658640E+0003
 21
 6.80001824307200E+0002
  0
LINE
  8
0
 10
 1.25516228658640E+0003
 20
 6.80001824307200E+0002
 11
 1.25076451909710E+0003
 21
 6.88929193460800E+0002
  0
LINE
  8
0
 10
 1.25076451909710E+0003
 20
 6.88929193460800E+0002
 11
 1.24634380027520E+0003
 21
 6.97834115769600E+0002
  0
LINE
  8
0
 10
 1.24634380027520E+0003
 20
 6.97834115769600E+0002
 11
 1.24190346321250E+0003
 21
 7.06719972200000E+0002
  0
LINE
  8
0
 10
 1.24190346321250E+0003
 20
 7.06719972200000E+0002
 11
 1.23744684100080E+0003
 21
 7.15590143718400E+0002
  0
LINE
  8
0
 10
 1.23744684100080E+0003
 20
 7.15590143718400E+0002
 11
 1.23297726673190E+0003
 21
 7.24448011291200E+0002
  0
LINE
  8
0
 10
 1.23297726673190E+0003
 20
 7.24448011291200E+0002
 11
 1.22849807349760E+0003
 21
 7.33296955884800E+0002
  0
LINE
  8
0
 10
 1.22849807349760E+0003
 20
 7.33296955884800E+0002
 11
 1.22401259438970E+0003
 21
 7.42140358465600E+0002
  0
LINE
  8
0
 10
 1.22401259438970E+0003
 20
 7.42140358465600E+0002
 11
 1.21952416250000E+0003
 21
 7.50981600000000E+0002
  0
LINE
  8
0
 10
 1.21952416250000E+0003
 20
 7.50981600000000E+0002
 11
 1.21503611092030E+0003
 21
 7.59824061454400E+0002
  0
LINE
  8
0
 10
 1.21503611092030E+0003
 20
 7.59824061454400E+0002
 11
 1.21055177274240E+0003
 21
 7.68671123795200E+0002
  0
LINE
  8
0
 10
 1.21055177274240E+0003
 20
 7.68671123795200E+0002
 11
 1.20607448105810E+0003
 21
 7.77526167988800E+0002
  0
LINE
  8
0
 10
 1.20607448105810E+0003
 20
 7.77526167988800E+0002
 11
 1.20160756895920E+0003
 21
 7.86392575001600E+0002
  0
LINE
  8
0
 10
 1.20160756895920E+0003
 20
 7.86392575001600E+0002
 11
 1.19715436953750E+0003
 21
 7.95273725800000E+0002
  0
LINE
  8
0
 10
 1.19715436953750E+0003
 20
 7.95273725800000E+0002
 11
 1.19271821588480E+0003
 21
 8.04173001350400E+0002
  0
LINE
  8
0
 10
 1.19271821588480E+0003
 20
 8.04173001350400E+0002
 11
 1.18830244109290E+0003
 21
 8.13093782619200E+0002
  0
LINE
  8
0
 10
 1.18830244109290E+0003
 20
 8.13093782619200E+0002
 11
 1.18391037825360E+0003
 21
 8.22039450572800E+0002
  0
LINE
  8
0
 10
 1.18391037825360E+0003
 20
 8.22039450572800E+0002
 11
 1.17954536045870E+0003
 21
 8.31013386177600E+0002
  0
LINE
  8
0
 10
 1.17954536045870E+0003
 20
 8.31013386177600E+0002
 11
 1.17521072080000E+0003
 21
 8.40018970400000E+0002
  0
LINE
  8
0
 10
 1.17521072080000E+0003
 20
 8.40018970400000E+0002
 11
 1.17090979236930E+0003
 21
 8.49059584206400E+0002
  0
LINE
  8
0
 10
 1.17090979236930E+0003
 20
 8.49059584206400E+0002
 11
 1.16664590825840E+0003
 21
 8.58138608563200E+0002
  0
LINE
  8
0
 10
 1.16664590825840E+0003
 20
 8.58138608563200E+0002
 11
 1.16242240155910E+0003
 21
 8.67259424436800E+0002
  0
LINE
  8
0
 10
 1.16242240155910E+0003
 20
 8.67259424436800E+0002
 11
 1.15824260536320E+0003
 21
 8.76425412793600E+0002
  0
LINE
  8
0
 10
 1.15824260536320E+0003
 20
 8.76425412793600E+0002
 11
 1.15410985276250E+0003
 21
 8.85639954600000E+0002
  0
LINE
  8
0
 10
 1.15410985276250E+0003
 20
 8.85639954600000E+0002
 11
 1.15002747684880E+0003
 21
 8.94906430822400E+0002
  0
LINE
  8
0
 10
 1.15002747684880E+0003
 20
 8.94906430822400E+0002
 11
 1.14599881071390E+0003
 21
 9.04228222427200E+0002
  0
LINE
  8
0
 10
 1.14599881071390E+0003
 20
 9.04228222427200E+0002
 11
 1.14202718744960E+0003
 21
 9.13608710380800E+0002
  0
LINE
  8
0
 10
 1.14202718744960E+0003
 20
 9.13608710380800E+0002
 11
 1.13811594014770E+0003
 21
 9.23051275649600E+0002
  0
LINE
  8
0
 10
 1.13811594014770E+0003
 20
 9.23051275649600E+0002
 11
 1.13426840190000E+0003
 21
 9.32559299200000E+0002
  0
LINE
  8
0
 10
 1.13426840190000E+0003
 20
 9.32559299200000E+0002
 11
 1.13048790579830E+0003
 21
 9.42136161998400E+0002
  0
LINE
  8
0
 10
 1.13048790579830E+0003
 20
 9.42136161998400E+0002
 11
 1.12677778493440E+0003
 21
 9.51785245011200E+0002
  0
LINE
  8
0
 10
 1.12677778493440E+0003
 20
 9.51785245011200E+0002
 11
 1.12314137240010E+0003
 21
 9.61509929204800E+0002
  0
LINE
  8
0
 10
 1.12314137240010E+0003
 20
 9.61509929204800E+0002
 11
 1.11958200128720E+0003
 21
 9.71313595545600E+0002
  0
LINE
  8
0
 10
 1.11958200128720E+0003
 20
 9.71313595545600E+0002
 11
 1.11610300468750E+0003
 21
 9.81199625000000E+0002
  0
LINE
  8
0
 10
 1.11610300468750E+0003
 20
 9.81199625000000E+0002
 11
 1.11270771569280E+0003
 21
 9.91171398534400E+0002
  0
LINE
  8
0
 10
 1.11270771569280E+0003
 20
 9.91171398534400E+0002
 11
 1.10939946739490E+0003
 21
 1.00123229711520E+0003
  0
LINE
  8
0
 10
 1.10939946739490E+0003
 20
 1.00123229711520E+0003
 11
 1.10618159288560E+0003
 21
 1.01138570170880E+0003
  0
LINE
  8
0
 10
 1.10618159288560E+0003
 20
 1.01138570170880E+0003
 11
 1.10305742525670E+0003
 21
 1.02163499328160E+0003
  0
LINE
  8
0
 10
 1.10305742525670E+0003
 20
 1.02163499328160E+0003
 11
 1.10003029760000E+0003
 21
 1.03198355280000E+0003
  0
LINE
  8
0
 10
 1.10003029760000E+0003
 20
 1.03198355280000E+0003
 11
 1.09710354300730E+0003
 21
 1.04243476123040E+0003
  0
LINE
  8
0
 10
 1.09710354300730E+0003
 20
 1.04243476123040E+0003
 11
 1.09428049457040E+0003
 21
 1.05299199953920E+0003
  0
LINE
  8
0
 10
 1.09428049457040E+0003
 20
 1.05299199953920E+0003
 11
 1.09156448538110E+0003
 21
 1.06365864869280E+0003
  0
LINE
  8
0
 10
 1.09156448538110E+0003
 20
 1.06365864869280E+0003
 11
 1.08895884853120E+0003
 21
 1.07443808965760E+0003
  0
LINE
  8
0
 10
 1.08895884853120E+0003
 20
 1.07443808965760E+0003
 11
 1.08646691711250E+0003
 21
 1.08533370340000E+0003
  0
LINE
  8
0
 10
 1.08646691711250E+0003
 20
 1.08533370340000E+0003
 11
 1.08409202421680E+0003
 21
 1.09634887088640E+0003
  0
LINE
  8
0
 10
 1.08409202421680E+0003
 20
 1.09634887088640E+0003
 11
 1.08183750293590E+0003
 21
 1.10748697308320E+0003
  0
LINE
  8
0
 10
 1.08183750293590E+0003
 20
 1.10748697308320E+0003
 11
 1.07970668636160E+0003
 21
 1.11875139095680E+0003
  0
LINE
  8
0
 10
 1.07970668636160E+0003
 20
 1.11875139095680E+0003
 11
 1.07770290758570E+0003
 21
 1.13014550547360E+0003
  0
LINE
  8
0
 10
 1.07770290758570E+0003
 20
 1.13014550547360E+0003
 11
 1.07582949970000E+0003
 21
 1.14167269760000E+0003
  0
LINE
  8
0
 10
 1.07582949970000E+0003
 20
 1.14167269760000E+0003
 11
 1.07408979579630E+0003
 21
 1.15333634830240E+0003
  0
LINE
  8
0
 10
 1.07408979579630E+0003
 20
 1.15333634830240E+0003
 11
 1.07248712896640E+0003
 21
 1.16513983854720E+0003
  0
LINE
  8
0
 10
 1.07248712896640E+0003
 20
 1.16513983854720E+0003
 11
 1.07102483230210E+0003
 21
 1.17708654930080E+0003
  0
LINE
  8
0
 10
 1.07102483230210E+0003
 20
 1.17708654930080E+0003
 11
 1.06970623889520E+0003
 21
 1.18917986152960E+0003
  0
LINE
  8
0
 10
 1.06970623889520E+0003
 20
 1.18917986152960E+0003
 11
 1.06853468183750E+0003
 21
 1.20142315620000E+0003
  0
LINE
  8
0
 10
 1.06853468183750E+0003
 20
 1.20142315620000E+0003
 11
 1.06751349422080E+0003
 21
 1.21381981427840E+0003
  0
LINE
  8
0
 10
 1.06751349422080E+0003
 20
 1.21381981427840E+0003
 11
 1.06664600913690E+0003
 21
 1.22637321673120E+0003
  0
LINE
  8
0
 10
 1.06664600913690E+0003
 20
 1.22637321673120E+0003
 11
 1.06593555967760E+0003
 21
 1.23908674452480E+0003
  0
LINE
  8
0
 10
 1.06593555967760E+0003
 20
 1.23908674452480E+0003
 11
 1.06538547893470E+0003
 21
 1.25196377862560E+0003
  0
LINE
  8
0
 10
 1.06538547893470E+0003
 20
 1.25196377862560E+0003
 11
 1.06499910000000E+0003
 21
 1.26500770000000E+0003
  0
LINE
  8
0
 10
 1.06499910000000E+0003
 20
 1.26500770000000E+0003
 11
 1.06500000000000E+0003
 21
 1.30700000000000E+0003
  0
LINE
  8
0
 10
 1.06500000000000E+0003
 20
 1.30700000000000E+0003
 11
 1.01999949055361E+0003
 21
 1.29538091843480E+0003
  0
ARC
  8
0
 10
 1.01700000000000E+0003
 20
 1.30700000000000E+0003
 40
 1.20000000000000E+0001
 50
 1.46195000000000E+0002
 51
 2.84475000000000E+0002
  0
LINE
  8
0
 10
 1.00702876895808E+0003
 20
 1.31367641756549E+0003
 11
 1.09500000000000E+0003
 21
 1.44500000000000E+0003
  0
LINE
  8
0
 10
 1.09500000000000E+0003
 20
 1.44500000000000E+0003
 11
 1.18297123104192E+0003
 21
 1.31367641756549E+0003
  0
ARC
  8
0
 10
 1.17300000000000E+0003
 20
 1.30700000000000E+0003
 40
 1.20000000000000E+0001
 50
 2.55525000000000E+0002
 51
 3.93805000000000E+0002
  0
LINE
  8
0
 10
 1.17000050944639E+0003
 20
 1.29538091843480E+0003
 11
 1.12500000000000E+0003
 21
 1.30700000000000E+0003
  0
LINE
  8
0
 10
 1.12500000000000E+0003
 20
 1.30700000000000E+0003
 11
 1.12500000000000E+0003
 21
 1.26500000000000E+0003
  0
LINE
  8
0
 10
 9.25000000000000E+0002
 20
 1.53500000000000E+0003
 11
 9.55000000000000E+0002
 21
 1.53500000000000E+0003
  0
ARC
  8
0
 10
 2.05000000000000E+0002
 20
 1.53500000000000E+0003
 40
 7.50000000000000E+0002
 50
 3.40811860000000E+0002
 51
 3.60000000000000E+0002
  0
LINE
  8
0
 10
 9.13333318076195E+0002
 20
 1.28849663186243E+0003
 11
 9.13333332723048E+0002
 21
 1.28849686527450E+0003
  0
ARC
  8
0
 10
 8.85000000000000E+0002
 20
 1.29835700000000E+0003
 40
 3.00000000000000E+0001
 50
 1.99188140000000E+0002
 51
 3.40811860000000E+0002
  0
LINE
  8
0
 10
 8.56666667276952E+0002
 20
 1.28849686527450E+0003
 11
 8.56666681923805E+0002
 21
 1.28849663186243E+0003
  0
ARC
  8
0
 10
 1.56500000000000E+0003
 20
 1.53500000000000E+0003
 40
 7.50000000000000E+0002
 50
 1.80000000000000E+0002
 51
 1.99188140000000E+0002
  0
LINE
  8
0
 10
 8.15000000000000E+0002
 20
 1.53500000000000E+0003
 11
 8.45000000000000E+0002
 21
 1.53500000000000E+0003
  0
ARC
  8
0
 10
 1.56500000000000E+0003
 20
 1.53500000000000E+0003
 40
 7.20000000000000E+0002
 50
 1.80000000000000E+0002
 51
 1.99188140000000E+0002
  0
LINE
  8
0
 10
 8.85000014646853E+0002
 20
 1.29835676658793E+0003
 11
 8.84999985353147E+0002
 21
 1.29835676658793E+0003
  0
ARC
  8
0
 10
 2.05000000000000E+0002
 20
 1.53500000000000E+0003
 40
 7.20000000000000E+0002
 50
 3.40811860000000E+0002
 51
 3.60000000000000E+0002
  0
LINE
  8
0
 10
 5.25000000000000E+0002
 20
 6.50000000000000E+0001
 11
 5.55000000000000E+0002
 21
 6.50000000000000E+0001
  0
ARC
  8
0
 10
-1.95000000000000E+0002
 20
 6.50000000000000E+0001
 40
 7.50000000000000E+0002
 50
 0.00000000000000E+0000
 51
 1.91881400000000E+0001
  0
LINE
  8
0
 10
 5.13333318076195E+0002
 20
 3.11503368137575E+0002
 11
 5.13333332723048E+0002
 21
 3.11503134725503E+0002
  0
ARC
  8
0
 10
 4.85000000000000E+0002
 20
 3.01643000000000E+0002
 40
 3.00000000000000E+0001
 50
 1.91881400000000E+0001
 51
 1.60811860000000E+0002
  0
LINE
  8
0
 10
 4.56666667276952E+0002
 20
 3.11503134725503E+0002
 11
 4.56666681923805E+0002
 21
 3.11503368137575E+0002
  0
ARC
  8
0
 10
 1.16500000000000E+0003
 20
 6.50000000000000E+0001
 40
 7.50000000000000E+0002
 50
 1.60811860000000E+0002
 51
 1.80000000000000E+0002
  0
LINE
  8
0
 10
 4.15000000000000E+0002
 20
 6.50000000000000E+0001
 11
 4.45000000000000E+0002
 21
 6.50000000000000E+0001
  0
ARC
  8
0
 10
 1.16500000000000E+0003
 20
 6.50000000000000E+0001
 40
 7.20000000000000E+0002
 50
 1.60811860000000E+0002
 51
 1.80000000000000E+0002
  0
LINE
  8
0
 10
 4.85000014646853E+0002
 20
 3.01643233412072E+0002
 11
 4.84999985353147E+0002
 21
 3.01643233412072E+0002
  0
ARC
  8
0
 10
-1.95000000000000E+0002
 20
 6.50000000000000E+0001
 40
 7.20000000000000E+0002
 50
 0.00000000000000E+0000
 51
 1.91881400000000E+0001
  0
ENDSEC
  0
EOF
