  0
SECTION
  2
HEADER
  9
$ACADVER
  1
AC1003
  9
$INSBASE
 10
0.0
 20
0.0
  9
$EXTMIN
 10
 0.00000000000000E+0000
 20
 0.00000000000000E+0000
  9
$EXTMAX
 10
 1.60000000000000E+0003
 20
 1.60000000000000E+0003
  9
$LIMMIN
 10
0.0
 20
0.0
  9
$LIMMAX
 10
410.0
 20
287.0
  9
$VIEWCTR
 10
227.0059616
 20
165.058879 
  9
$VIEWSIZE
 40
 1.60000000000000E+0003
9
$SNAPMODE
70
0
9
$SNAPUNIT
10
1
20
1
9
$GRIDMODE
70
0
9
$GRIDUNIT
10
1
20
1
9
$ORTHOMODE
70
0
9
$rEGENMODE
70
1
9
$FILLMODE
70
1
9
$DRAGMODE
70
2
9
$LTSCALE
40
25.0
9
$OSMODE
70
0
9
$ATTMODE
70
1
9
$TRACEWID
40
1.0
9
$TEXTSTYLE
7
STANDARD
9
$CLAYER
8
0
9
$CELTYPE
6
VONLAYER
9
$CECOLOR
62
256
9
$LUNITS
70
2
9
$LUPREC
70
2
9
$AXISMODE
70
0
9
$AXISUNIT
10
0
20
0
9
$SKETCHINC
40
1.0
9
$FILLETRAD
40
0.0
9
$AUNITS
70
0
9
$AUPREC
70
0
9
$MENU
1
ACAD
9
$ELEVATION
40
0.0
9
$THICKNESS
40
0.0
9
$VIEWDIR
10
0.0
20
0.0
30
1.0
9
$LIMCHECK
70
0
9
$BLIPMODE
70
1
9
$CHAMFERA
40
0.0
9
$CHAMFERB
40
0.0
9
$USRTIMER
70
1
9
$ANGBASE
50
0.0
9
$ANGDIR
70
0
9
$PDMODE
70
0
9
$PDSIZE
40
0.0
9
$PLINEWID
40
0.0
9
$COORDS
70
0
0
ENDSEC
0
SECTION
2
TABLES
0
TABLE
2
LTYPE
70
1
0
LTYPE
2
AUSGEZOGEN
70
64
3
Ausgezogene Linie
72
65
73
0
40
0.0
0
ENDTAB
0
TABLE
2
LAYER
70
1
0
LAYER
2
0
70
0
62
7
6
AUSGEZOGEN
0
ENDTAB
0
TABLE
2
STYLE
70
1
0
STYLE
2
STANDARD
70
0
40
0.0
41
1.0
50
0.0
71
0
42
3.5
3
txt
4

0
ENDTAB
0
TABLE
2
VIEW
70
0
0
ENDTAB
0
ENDSEC
0
SECTION
2
BLOCKS
0
ENDSEC
0
SECTION
2
ENTITIES
  0
ARC
  8
0
 10
 6.00000000000000E+0001
 20
 6.00000000000000E+0001
 40
 6.00000000000000E+0001
 50
 1.80000000000000E+0002
 51
 2.70000000000000E+0002
  0
LINE
  8
0
 10
 0.00000000000000E+0000
 20
 6.00000000000000E+0001
 11
 0.00000000000000E+0000
 21
 1.54000000000000E+0003
  0
ARC
  8
0
 10
 6.00000000000000E+0001
 20
 1.54000000000000E+0003
 40
 6.00000000000000E+0001
 50
 9.00000000000000E+0001
 51
 1.80000000000000E+0002
  0
LINE
  8
0
 10
 6.00000000000000E+0001
 20
 1.60000000000000E+0003
 11
 1.54000000000000E+0003
 21
 1.60000000000000E+0003
  0
ARC
  8
0
 10
 1.54000000000000E+0003
 20
 1.54000000000000E+0003
 40
 6.00000000000000E+0001
 50
 0.00000000000000E+0000
 51
 9.00000000000000E+0001
  0
LINE
  8
0
 10
 1.60000000000000E+0003
 20
 1.54000000000000E+0003
 11
 1.60000000000000E+0003
 21
 6.00000000000000E+0001
  0
ARC
  8
0
 10
 1.54000000000000E+0003
 20
 6.00000000000000E+0001
 40
 6.00000000000000E+0001
 50
 2.70000000000000E+0002
 51
 3.60000000000000E+0002
  0
LINE
  8
0
 10
 1.54000000000000E+0003
 20
 0.00000000000000E+0000
 11
 6.00000000000000E+0001
 21
 0.00000000000000E+0000
  0
ARC
  8
0
 10
 6.00000000000000E+0001
 20
 6.00000000000000E+0001
 40
 4.50000000000000E+0001
 50
 1.80000000000000E+0002
 51
 2.70000000000000E+0002
  0
LINE
  8
0
 10
 1.50000000000000E+0001
 20
 6.00000000000000E+0001
 11
 1.50000000000000E+0001
 21
 1.54000000000000E+0003
  0
ARC
  8
0
 10
 6.00000000000000E+0001
 20
 1.54000000000000E+0003
 40
 4.50000000000000E+0001
 50
 9.00000000000000E+0001
 51
 1.80000000000000E+0002
  0
LINE
  8
0
 10
 6.00000000000000E+0001
 20
 1.58500000000000E+0003
 11
 1.54000000000000E+0003
 21
 1.58500000000000E+0003
  0
ARC
  8
0
 10
 1.54000000000000E+0003
 20
 1.54000000000000E+0003
 40
 4.50000000000000E+0001
 50
 0.00000000000000E+0000
 51
 9.00000000000000E+0001
  0
LINE
  8
0
 10
 1.58500000000000E+0003
 20
 1.54000000000000E+0003
 11
 1.58500000000000E+0003
 21
 6.00000000000000E+0001
  0
ARC
  8
0
 10
 1.54000000000000E+0003
 20
 6.00000000000000E+0001
 40
 4.50000000000000E+0001
 50
 2.70000000000000E+0002
 51
 3.60000000000000E+0002
  0
LINE
  8
0
 10
 1.54000000000000E+0003
 20
 1.50000000000000E+0001
 11
 6.00000000000000E+0001
 21
 1.50000000000000E+0001
  0
ARC
  8
0
 10
 6.00000000000000E+0001
 20
 6.00000000000000E+0001
 40
 2.50000000000000E+0001
 50
 1.80000000000000E+0002
 51
 2.70000000000000E+0002
  0
LINE
  8
0
 10
 3.50000000000000E+0001
 20
 6.00000000000000E+0001
 11
 3.50000000000000E+0001
 21
 1.54000000000000E+0003
  0
ARC
  8
0
 10
 6.00000000000000E+0001
 20
 1.54000000000000E+0003
 40
 2.50000000000000E+0001
 50
 9.00000000000000E+0001
 51
 1.80000000000000E+0002
  0
LINE
  8
0
 10
 6.00000000000000E+0001
 20
 1.56500000000000E+0003
 11
 1.54000000000000E+0003
 21
 1.56500000000000E+0003
  0
ARC
  8
0
 10
 1.54000000000000E+0003
 20
 1.54000000000000E+0003
 40
 2.50000000000000E+0001
 50
 0.00000000000000E+0000
 51
 9.00000000000000E+0001
  0
LINE
  8
0
 10
 1.56500000000000E+0003
 20
 1.54000000000000E+0003
 11
 1.56500000000000E+0003
 21
 6.00000000000000E+0001
  0
ARC
  8
0
 10
 1.54000000000000E+0003
 20
 6.00000000000000E+0001
 40
 2.50000000000000E+0001
 50
 2.70000000000000E+0002
 51
 3.60000000000000E+0002
  0
LINE
  8
0
 10
 1.54000000000000E+0003
 20
 3.50000000000000E+0001
 11
 6.00000000000000E+0001
 21
 3.50000000000000E+0001
  0
LINE
  8
0
 10
 5.30000000000000E+0002
 20
 1.26500000000000E+0003
 11
 5.29613636451700E+0002
 21
 1.25195630732330E+0003
  0
LINE
  8
0
 10
 5.29613636451700E+0002
 20
 1.25195630732330E+0003
 11
 5.29063571853600E+0002
 21
 1.23907949734640E+0003
  0
LINE
  8
0
 10
 5.29063571853600E+0002
 20
 1.23907949734640E+0003
 11
 5.28353139275900E+0002
 21
 1.22636618914910E+0003
  0
LINE
  8
0
 10
 5.28353139275900E+0002
 20
 1.22636618914910E+0003
 11
 5.27485671788800E+0002
 21
 1.21381300181120E+0003
  0
LINE
  8
0
 10
 5.27485671788800E+0002
 20
 1.21381300181120E+0003
 11
 5.26464502462500E+0002
 21
 1.20141655441250E+0003
  0
LINE
  8
0
 10
 5.26464502462500E+0002
 20
 1.20141655441250E+0003
 11
 5.25292964367200E+0002
 21
 1.18917346603280E+0003
  0
LINE
  8
0
 10
 5.25292964367200E+0002
 20
 1.18917346603280E+0003
 11
 5.23974390573100E+0002
 21
 1.17708035575190E+0003
  0
LINE
  8
0
 10
 5.23974390573100E+0002
 20
 1.17708035575190E+0003
 11
 5.22512114150400E+0002
 21
 1.16513384264960E+0003
  0
LINE
  8
0
 10
 5.22512114150400E+0002
 20
 1.16513384264960E+0003
 11
 5.20909468169300E+0002
 21
 1.15333054580570E+0003
  0
LINE
  8
0
 10
 5.20909468169300E+0002
 20
 1.15333054580570E+0003
 11
 5.19169785700000E+0002
 21
 1.14166708430000E+0003
  0
LINE
  8
0
 10
 5.19169785700000E+0002
 20
 1.14166708430000E+0003
 11
 5.17296399812700E+0002
 21
 1.13014007721230E+0003
  0
LINE
  8
0
 10
 5.17296399812700E+0002
 20
 1.13014007721230E+0003
 11
 5.15292643577600E+0002
 21
 1.11874614362240E+0003
  0
LINE
  8
0
 10
 5.15292643577600E+0002
 20
 1.11874614362240E+0003
 11
 5.13161850064900E+0002
 21
 1.10748190261010E+0003
  0
LINE
  8
0
 10
 5.13161850064900E+0002
 20
 1.10748190261010E+0003
 11
 5.10907352344800E+0002
 21
 1.09634397325520E+0003
  0
LINE
  8
0
 10
 5.10907352344800E+0002
 20
 1.09634397325520E+0003
 11
 5.08532483487500E+0002
 21
 1.08532897463750E+0003
  0
LINE
  8
0
 10
 5.08532483487500E+0002
 20
 1.08532897463750E+0003
 11
 5.06040576563200E+0002
 21
 1.07443352583680E+0003
  0
LINE
  8
0
 10
 5.06040576563200E+0002
 20
 1.07443352583680E+0003
 11
 5.03434964642100E+0002
 21
 1.06365424593290E+0003
  0
LINE
  8
0
 10
 5.03434964642100E+0002
 20
 1.06365424593290E+0003
 11
 5.00718980794400E+0002
 21
 1.05298775400560E+0003
  0
LINE
  8
0
 10
 5.00718980794400E+0002
 20
 1.05298775400560E+0003
 11
 4.97895958090300E+0002
 21
 1.04243066913470E+0003
  0
LINE
  8
0
 10
 4.97895958090300E+0002
 20
 1.04243066913470E+0003
 11
 4.94969229600000E+0002
 21
 1.03197961040000E+0003
  0
LINE
  8
0
 10
 4.94969229600000E+0002
 20
 1.03197961040000E+0003
 11
 4.91942128393700E+0002
 21
 1.02163119688130E+0003
  0
LINE
  8
0
 10
 4.91942128393700E+0002
 20
 1.02163119688130E+0003
 11
 4.88817987541600E+0002
 21
 1.01138204765840E+0003
  0
LINE
  8
0
 10
 4.88817987541600E+0002
 20
 1.01138204765840E+0003
 11
 4.85600140113900E+0002
 21
 1.00122878181110E+0003
  0
LINE
  8
0
 10
 4.85600140113900E+0002
 20
 1.00122878181110E+0003
 11
 4.82291919180800E+0002
 21
 9.91168018419200E+0002
  0
LINE
  8
0
 10
 4.82291919180800E+0002
 20
 9.91168018419200E+0002
 11
 4.78896657812500E+0002
 21
 9.81196376562500E+0002
  0
LINE
  8
0
 10
 4.78896657812500E+0002
 20
 9.81196376562500E+0002
 11
 4.75417689079200E+0002
 21
 9.71310475320800E+0002
  0
LINE
  8
0
 10
 4.75417689079200E+0002
 20
 9.71310475320800E+0002
 11
 4.71858346051100E+0002
 21
 9.61506933773900E+0002
  0
LINE
  8
0
 10
 4.71858346051100E+0002
 20
 9.61506933773900E+0002
 11
 4.68221961798400E+0002
 21
 9.51782371001600E+0002
  0
LINE
  8
0
 10
 4.68221961798400E+0002
 20
 9.51782371001600E+0002
 11
 4.64511869391300E+0002
 21
 9.42133406083700E+0002
  0
LINE
  8
0
 10
 4.64511869391300E+0002
 20
 9.42133406083700E+0002
 11
 4.60731401900000E+0002
 21
 9.32556658100000E+0002
  0
LINE
  8
0
 10
 4.60731401900000E+0002
 20
 9.32556658100000E+0002
 11
 4.56883892394700E+0002
 21
 9.23048746130300E+0002
  0
LINE
  8
0
 10
 4.56883892394700E+0002
 20
 9.23048746130300E+0002
 11
 4.52972673945600E+0002
 21
 9.13606289254400E+0002
  0
LINE
  8
0
 10
 4.52972673945600E+0002
 20
 9.13606289254400E+0002
 11
 4.49001079622900E+0002
 21
 9.04225906552100E+0002
  0
LINE
  8
0
 10
 4.49001079622900E+0002
 20
 9.04225906552100E+0002
 11
 4.44972442496800E+0002
 21
 8.94904217103200E+0002
  0
LINE
  8
0
 10
 4.44972442496800E+0002
 20
 8.94904217103200E+0002
 11
 4.40890095637500E+0002
 21
 8.85637839987500E+0002
  0
LINE
  8
0
 10
 4.40890095637500E+0002
 20
 8.85637839987500E+0002
 11
 4.36757372115200E+0002
 21
 8.76423394284800E+0002
  0
LINE
  8
0
 10
 4.36757372115200E+0002
 20
 8.76423394284800E+0002
 11
 4.32577605000100E+0002
 21
 8.67257499074900E+0002
  0
LINE
  8
0
 10
 4.32577605000100E+0002
 20
 8.67257499074900E+0002
 11
 4.28354127362400E+0002
 21
 8.58136773437600E+0002
  0
LINE
  8
0
 10
 4.28354127362400E+0002
 20
 8.58136773437600E+0002
 11
 4.24090272272300E+0002
 21
 8.49057836452700E+0002
  0
LINE
  8
0
 10
 4.24090272272300E+0002
 20
 8.49057836452700E+0002
 11
 4.19789372800000E+0002
 21
 8.40017307200000E+0002
  0
LINE
  8
0
 10
 4.19789372800000E+0002
 20
 8.40017307200000E+0002
 11
 4.15454762015700E+0002
 21
 8.31011804759300E+0002
  0
LINE
  8
0
 10
 4.15454762015700E+0002
 20
 8.31011804759300E+0002
 11
 4.11089772989600E+0002
 21
 8.22037948210400E+0002
  0
LINE
  8
0
 10
 4.11089772989600E+0002
 20
 8.22037948210400E+0002
 11
 4.06697738791900E+0002
 21
 8.13092356633100E+0002
  0
LINE
  8
0
 10
 4.06697738791900E+0002
 20
 8.13092356633100E+0002
 11
 4.02281992492800E+0002
 21
 8.04171649107200E+0002
  0
LINE
  8
0
 10
 4.02281992492800E+0002
 20
 8.04171649107200E+0002
 11
 3.97845867162500E+0002
 21
 7.95272444712500E+0002
  0
LINE
  8
0
 10
 3.97845867162500E+0002
 20
 7.95272444712500E+0002
 11
 3.93392695871200E+0002
 21
 7.86391362528800E+0002
  0
LINE
  8
0
 10
 3.93392695871200E+0002
 20
 7.86391362528800E+0002
 11
 3.88925811689100E+0002
 21
 7.77525021635900E+0002
  0
LINE
  8
0
 10
 3.88925811689100E+0002
 20
 7.77525021635900E+0002
 11
 3.84448547686400E+0002
 21
 7.68670041113600E+0002
  0
LINE
  8
0
 10
 3.84448547686400E+0002
 20
 7.68670041113600E+0002
 11
 3.79964236933300E+0002
 21
 7.59823040041700E+0002
  0
LINE
  8
0
 10
 3.79964236933300E+0002
 20
 7.59823040041700E+0002
 11
 3.75476212500000E+0002
 21
 7.50980637500000E+0002
  0
LINE
  8
0
 10
 3.75476212500000E+0002
 20
 7.50980637500000E+0002
 11
 3.70987807456700E+0002
 21
 7.42139452568300E+0002
  0
LINE
  8
0
 10
 3.70987807456700E+0002
 20
 7.42139452568300E+0002
 11
 3.66502354873600E+0002
 21
 7.33296104326400E+0002
  0
LINE
  8
0
 10
 3.66502354873600E+0002
 20
 7.33296104326400E+0002
 11
 3.62023187820900E+0002
 21
 7.24447211854100E+0002
  0
LINE
  8
0
 10
 3.62023187820900E+0002
 20
 7.24447211854100E+0002
 11
 3.57553639368800E+0002
 21
 7.15589394231200E+0002
  0
LINE
  8
0
 10
 3.57553639368800E+0002
 20
 7.15589394231200E+0002
 11
 3.53097042587500E+0002
 21
 7.06719270537500E+0002
  0
LINE
  8
0
 10
 3.53097042587500E+0002
 20
 7.06719270537500E+0002
 11
 3.48656730547200E+0002
 21
 6.97833459852800E+0002
  0
LINE
  8
0
 10
 3.48656730547200E+0002
 20
 6.97833459852800E+0002
 11
 3.44236036318100E+0002
 21
 6.88928581256900E+0002
  0
LINE
  8
0
 10
 3.44236036318100E+0002
 20
 6.88928581256900E+0002
 11
 3.39838292970400E+0002
 21
 6.80001253829600E+0002
  0
LINE
  8
0
 10
 3.39838292970400E+0002
 20
 6.80001253829600E+0002
 11
 3.35466833574300E+0002
 21
 6.71048096650700E+0002
  0
LINE
  8
0
 10
 3.35466833574300E+0002
 20
 6.71048096650700E+0002
 11
 3.31124991200000E+0002
 21
 6.62065728800000E+0002
  0
LINE
  8
0
 10
 3.31124991200000E+0002
 20
 6.62065728800000E+0002
 11
 3.26816098917700E+0002
 21
 6.53050769357300E+0002
  0
LINE
  8
0
 10
 3.26816098917700E+0002
 20
 6.53050769357300E+0002
 11
 3.22543489797600E+0002
 21
 6.43999837402400E+0002
  0
LINE
  8
0
 10
 3.22543489797600E+0002
 20
 6.43999837402400E+0002
 11
 3.18310496909900E+0002
 21
 6.34909552015100E+0002
  0
LINE
  8
0
 10
 3.18310496909900E+0002
 20
 6.34909552015100E+0002
 11
 3.14120453324800E+0002
 21
 6.25776532275200E+0002
  0
LINE
  8
0
 10
 3.14120453324800E+0002
 20
 6.25776532275200E+0002
 11
 3.09976692112500E+0002
 21
 6.16597397262500E+0002
  0
LINE
  8
0
 10
 3.09976692112500E+0002
 20
 6.16597397262500E+0002
 11
 3.05882546343200E+0002
 21
 6.07368766056800E+0002
  0
LINE
  8
0
 10
 3.05882546343200E+0002
 20
 6.07368766056800E+0002
 11
 3.01841349087100E+0002
 21
 5.98087257737900E+0002
  0
LINE
  8
0
 10
 3.01841349087100E+0002
 20
 5.98087257737900E+0002
 11
 2.97856433414400E+0002
 21
 5.88749491385600E+0002
  0
LINE
  8
0
 10
 2.97856433414400E+0002
 20
 5.88749491385600E+0002
 11
 2.93931132395300E+0002
 21
 5.79352086079700E+0002
  0
LINE
  8
0
 10
 2.93931132395300E+0002
 20
 5.79352086079700E+0002
 11
 2.90068779100000E+0002
 21
 5.69891660900000E+0002
  0
LINE
  8
0
 10
 2.90068779100000E+0002
 20
 5.69891660900000E+0002
 11
 2.86272706598700E+0002
 21
 5.60364834926300E+0002
  0
LINE
  8
0
 10
 2.86272706598700E+0002
 20
 5.60364834926300E+0002
 11
 2.82546247961600E+0002
 21
 5.50768227238400E+0002
  0
LINE
  8
0
 10
 2.82546247961600E+0002
 20
 5.50768227238400E+0002
 11
 2.78892736258900E+0002
 21
 5.41098456916100E+0002
  0
LINE
  8
0
 10
 2.78892736258900E+0002
 20
 5.41098456916100E+0002
 11
 2.75315504560800E+0002
 21
 5.31352143039200E+0002
  0
LINE
  8
0
 10
 2.75315504560800E+0002
 20
 5.31352143039200E+0002
 11
 2.71817885937500E+0002
 21
 5.21525904687500E+0002
  0
LINE
  8
0
 10
 2.71817885937500E+0002
 20
 5.21525904687500E+0002
 11
 2.68403213459200E+0002
 21
 5.11616360940800E+0002
  0
LINE
  8
0
 10
 2.68403213459200E+0002
 20
 5.11616360940800E+0002
 11
 2.65074820196100E+0002
 21
 5.01620130878900E+0002
  0
LINE
  8
0
 10
 2.65074820196100E+0002
 20
 5.01620130878900E+0002
 11
 2.61836039218400E+0002
 21
 4.91533833581600E+0002
  0
LINE
  8
0
 10
 2.61836039218400E+0002
 20
 4.91533833581600E+0002
 11
 2.58690203596300E+0002
 21
 4.81354088128700E+0002
  0
LINE
  8
0
 10
 2.58690203596300E+0002
 20
 4.81354088128700E+0002
 11
 2.55640646400000E+0002
 21
 4.71077513600000E+0002
  0
LINE
  8
0
 10
 2.55640646400000E+0002
 20
 4.71077513600000E+0002
 11
 2.52690700699700E+0002
 21
 4.60700729075300E+0002
  0
LINE
  8
0
 10
 2.52690700699700E+0002
 20
 4.60700729075300E+0002
 11
 2.49843699565600E+0002
 21
 4.50220353634400E+0002
  0
LINE
  8
0
 10
 2.49843699565600E+0002
 20
 4.50220353634400E+0002
 11
 2.47102976067900E+0002
 21
 4.39633006357100E+0002
  0
LINE
  8
0
 10
 2.47102976067900E+0002
 20
 4.39633006357100E+0002
 11
 2.44471863276800E+0002
 21
 4.28935306323200E+0002
  0
LINE
  8
0
 10
 2.44471863276800E+0002
 20
 4.28935306323200E+0002
 11
 2.41953694262500E+0002
 21
 4.18123872612500E+0002
  0
LINE
  8
0
 10
 2.41953694262500E+0002
 20
 4.18123872612500E+0002
 11
 2.39551802095200E+0002
 21
 4.07195324304800E+0002
  0
LINE
  8
0
 10
 2.39551802095200E+0002
 20
 4.07195324304800E+0002
 11
 2.37269519845100E+0002
 21
 3.96146280479900E+0002
  0
LINE
  8
0
 10
 2.37269519845100E+0002
 20
 3.96146280479900E+0002
 11
 2.35110180582400E+0002
 21
 3.84973360217600E+0002
  0
LINE
  8
0
 10
 2.35110180582400E+0002
 20
 3.84973360217600E+0002
 11
 2.33077117377300E+0002
 21
 3.73673182597700E+0002
  0
LINE
  8
0
 10
 2.33077117377300E+0002
 20
 3.73673182597700E+0002
 11
 2.31173663300000E+0002
 21
 3.62242366700000E+0002
  0
LINE
  8
0
 10
 2.31173663300000E+0002
 20
 3.62242366700000E+0002
 11
 2.29403151420700E+0002
 21
 3.50677531604300E+0002
  0
LINE
  8
0
 10
 2.29403151420700E+0002
 20
 3.50677531604300E+0002
 11
 2.27768914809600E+0002
 21
 3.38975296390400E+0002
  0
LINE
  8
0
 10
 2.27768914809600E+0002
 20
 3.38975296390400E+0002
 11
 2.26274286536900E+0002
 21
 3.27132280138100E+0002
  0
LINE
  8
0
 10
 2.26274286536900E+0002
 20
 3.27132280138100E+0002
 11
 2.24922599672800E+0002
 21
 3.15145101927200E+0002
  0
LINE
  8
0
 10
 2.24922599672800E+0002
 20
 3.15145101927200E+0002
 11
 2.23717187287500E+0002
 21
 3.03010380837500E+0002
  0
LINE
  8
0
 10
 2.23717187287500E+0002
 20
 3.03010380837500E+0002
 11
 2.22661382451200E+0002
 21
 2.90724735948800E+0002
  0
LINE
  8
0
 10
 2.22661382451200E+0002
 20
 2.90724735948800E+0002
 11
 2.21758518234100E+0002
 21
 2.78284786340900E+0002
  0
LINE
  8
0
 10
 2.21758518234100E+0002
 20
 2.78284786340900E+0002
 11
 2.21011927706400E+0002
 21
 2.65687151093600E+0002
  0
LINE
  8
0
 10
 2.21011927706400E+0002
 20
 2.65687151093600E+0002
 11
 2.20424943938300E+0002
 21
 2.52928449286700E+0002
  0
LINE
  8
0
 10
 2.20424943938300E+0002
 20
 2.52928449286700E+0002
 11
 2.20000900000000E+0002
 21
 2.40005300000000E+0002
  0
LINE
  8
0
 10
 2.20000900000000E+0002
 20
 2.40005300000000E+0002
 11
 2.20000000000000E+0002
 21
 1.55000000000000E+0002
  0
LINE
  8
0
 10
 2.20000000000000E+0002
 20
 1.55000000000000E+0002
 11
 2.80000000000000E+0002
 21
 1.55000000000000E+0002
  0
LINE
  8
0
 10
 2.80000000000000E+0002
 20
 1.55000000000000E+0002
 11
 2.80000000000000E+0002
 21
 2.40005300000000E+0002
  0
LINE
  8
0
 10
 2.80000000000000E+0002
 20
 2.40005300000000E+0002
 11
 2.80424056088300E+0002
 21
 2.52928449294400E+0002
  0
LINE
  8
0
 10
 2.80424056088300E+0002
 20
 2.52928449294400E+0002
 11
 2.81011052306400E+0002
 21
 2.65687151155200E+0002
  0
LINE
  8
0
 10
 2.81011052306400E+0002
 20
 2.65687151155200E+0002
 11
 2.81757655584100E+0002
 21
 2.78284786548800E+0002
  0
LINE
  8
0
 10
 2.81757655584100E+0002
 20
 2.78284786548800E+0002
 11
 2.82660532851200E+0002
 21
 2.90724736441600E+0002
  0
LINE
  8
0
 10
 2.82660532851200E+0002
 20
 2.90724736441600E+0002
 11
 2.83716351037500E+0002
 21
 3.03010381800000E+0002
  0
LINE
  8
0
 10
 2.83716351037500E+0002
 20
 3.03010381800000E+0002
 11
 2.84921777072800E+0002
 21
 3.15145103590400E+0002
  0
LINE
  8
0
 10
 2.84921777072800E+0002
 20
 3.15145103590400E+0002
 11
 2.86273477886900E+0002
 21
 3.27132282779200E+0002
  0
LINE
  8
0
 10
 2.86273477886900E+0002
 20
 3.27132282779200E+0002
 11
 2.87768120409600E+0002
 21
 3.38975300332800E+0002
  0
LINE
  8
0
 10
 2.87768120409600E+0002
 20
 3.38975300332800E+0002
 11
 2.89402371570700E+0002
 21
 3.50677537217600E+0002
  0
LINE
  8
0
 10
 2.89402371570700E+0002
 20
 3.50677537217600E+0002
 11
 2.91172898300000E+0002
 21
 3.62242374400000E+0002
  0
LINE
  8
0
 10
 2.91172898300000E+0002
 20
 3.62242374400000E+0002
 11
 2.93076367527300E+0002
 21
 3.73673192846400E+0002
  0
LINE
  8
0
 10
 2.93076367527300E+0002
 20
 3.73673192846400E+0002
 11
 2.95109446182400E+0002
 21
 3.84973373523200E+0002
  0
LINE
  8
0
 10
 2.95109446182400E+0002
 20
 3.84973373523200E+0002
 11
 2.97268801195100E+0002
 21
 3.96146297396800E+0002
  0
LINE
  8
0
 10
 2.97268801195100E+0002
 20
 3.96146297396800E+0002
 11
 2.99551099495200E+0002
 21
 4.07195345433600E+0002
  0
LINE
  8
0
 10
 2.99551099495200E+0002
 20
 4.07195345433600E+0002
 11
 3.01953008012500E+0002
 21
 4.18123898600000E+0002
  0
LINE
  8
0
 10
 3.01953008012500E+0002
 20
 4.18123898600000E+0002
 11
 3.04471193676800E+0002
 21
 4.28935337862400E+0002
  0
LINE
  8
0
 10
 3.04471193676800E+0002
 20
 4.28935337862400E+0002
 11
 3.07102323417900E+0002
 21
 4.39633044187200E+0002
  0
LINE
  8
0
 10
 3.07102323417900E+0002
 20
 4.39633044187200E+0002
 11
 3.09843064165600E+0002
 21
 4.50220398540800E+0002
  0
LINE
  8
0
 10
 3.09843064165600E+0002
 20
 4.50220398540800E+0002
 11
 3.12690082849700E+0002
 21
 4.60700781889600E+0002
  0
LINE
  8
0
 10
 3.12690082849700E+0002
 20
 4.60700781889600E+0002
 11
 3.15640046400000E+0002
 21
 4.71077575200000E+0002
  0
LINE
  8
0
 10
 3.15640046400000E+0002
 20
 4.71077575200000E+0002
 11
 3.18689621746300E+0002
 21
 4.81354159438400E+0002
  0
LINE
  8
0
 10
 3.18689621746300E+0002
 20
 4.81354159438400E+0002
 11
 3.21835475818400E+0002
 21
 4.91533915571200E+0002
  0
LINE
  8
0
 10
 3.21835475818400E+0002
 20
 4.91533915571200E+0002
 11
 3.25074275546100E+0002
 21
 5.01620224564800E+0002
  0
LINE
  8
0
 10
 3.25074275546100E+0002
 20
 5.01620224564800E+0002
 11
 3.28402687859200E+0002
 21
 5.11616467385600E+0002
  0
LINE
  8
0
 10
 3.28402687859200E+0002
 20
 5.11616467385600E+0002
 11
 3.31817379687500E+0002
 21
 5.21526025000000E+0002
  0
LINE
  8
0
 10
 3.31817379687500E+0002
 20
 5.21526025000000E+0002
 11
 3.35315017960800E+0002
 21
 5.31352278374400E+0002
  0
LINE
  8
0
 10
 3.35315017960800E+0002
 20
 5.31352278374400E+0002
 11
 3.38892269608900E+0002
 21
 5.41098608475200E+0002
  0
LINE
  8
0
 10
 3.38892269608900E+0002
 20
 5.41098608475200E+0002
 11
 3.42545801561600E+0002
 21
 5.50768396268800E+0002
  0
LINE
  8
0
 10
 3.42545801561600E+0002
 20
 5.50768396268800E+0002
 11
 3.46272280748700E+0002
 21
 5.60365022721600E+0002
  0
LINE
  8
0
 10
 3.46272280748700E+0002
 20
 5.60365022721600E+0002
 11
 3.50068374100000E+0002
 21
 5.69891868800000E+0002
  0
LINE
  8
0
 10
 3.50068374100000E+0002
 20
 5.69891868800000E+0002
 11
 3.53930748545300E+0002
 21
 5.79352315470400E+0002
  0
LINE
  8
0
 10
 3.53930748545300E+0002
 20
 5.79352315470400E+0002
 11
 3.57856071014400E+0002
 21
 5.88749743699200E+0002
  0
LINE
  8
0
 10
 3.57856071014400E+0002
 20
 5.88749743699200E+0002
 11
 3.61841008437100E+0002
 21
 5.98087534452800E+0002
  0
LINE
  8
0
 10
 3.61841008437100E+0002
 20
 5.98087534452800E+0002
 11
 3.65882227743200E+0002
 21
 6.07369068697600E+0002
  0
LINE
  8
0
 10
 3.65882227743200E+0002
 20
 6.07369068697600E+0002
 11
 3.69976395862500E+0002
 21
 6.16597727400000E+0002
  0
LINE
  8
0
 10
 3.69976395862500E+0002
 20
 6.16597727400000E+0002
 11
 3.74120179724800E+0002
 21
 6.25776891526400E+0002
  0
LINE
  8
0
 10
 3.74120179724800E+0002
 20
 6.25776891526400E+0002
 11
 3.78310246259900E+0002
 21
 6.34909942043200E+0002
  0
LINE
  8
0
 10
 3.78310246259900E+0002
 20
 6.34909942043200E+0002
 11
 3.82543262397600E+0002
 21
 6.44000259916800E+0002
  0
LINE
  8
0
 10
 3.82543262397600E+0002
 20
 6.44000259916800E+0002
 11
 3.86815895067700E+0002
 21
 6.53051226113600E+0002
  0
LINE
  8
0
 10
 3.86815895067700E+0002
 20
 6.53051226113600E+0002
 11
 3.91124811200000E+0002
 21
 6.62066221600000E+0002
  0
LINE
  8
0
 10
 3.91124811200000E+0002
 20
 6.62066221600000E+0002
 11
 3.95466677724300E+0002
 21
 6.71048627342400E+0002
  0
LINE
  8
0
 10
 3.95466677724300E+0002
 20
 6.71048627342400E+0002
 11
 3.99838161570400E+0002
 21
 6.80001824307200E+0002
  0
LINE
  8
0
 10
 3.99838161570400E+0002
 20
 6.80001824307200E+0002
 11
 4.04235929668100E+0002
 21
 6.88929193460800E+0002
  0
LINE
  8
0
 10
 4.04235929668100E+0002
 20
 6.88929193460800E+0002
 11
 4.08656648947200E+0002
 21
 6.97834115769600E+0002
  0
LINE
  8
0
 10
 4.08656648947200E+0002
 20
 6.97834115769600E+0002
 11
 4.13096986337500E+0002
 21
 7.06719972200000E+0002
  0
LINE
  8
0
 10
 4.13096986337500E+0002
 20
 7.06719972200000E+0002
 11
 4.17553608768800E+0002
 21
 7.15590143718400E+0002
  0
LINE
  8
0
 10
 4.17553608768800E+0002
 20
 7.15590143718400E+0002
 11
 4.22023183170900E+0002
 21
 7.24448011291200E+0002
  0
LINE
  8
0
 10
 4.22023183170900E+0002
 20
 7.24448011291200E+0002
 11
 4.26502376473600E+0002
 21
 7.33296955884800E+0002
  0
LINE
  8
0
 10
 4.26502376473600E+0002
 20
 7.33296955884800E+0002
 11
 4.30987855606700E+0002
 21
 7.42140358465600E+0002
  0
LINE
  8
0
 10
 4.30987855606700E+0002
 20
 7.42140358465600E+0002
 11
 4.35476287500000E+0002
 21
 7.50981600000000E+0002
  0
LINE
  8
0
 10
 4.35476287500000E+0002
 20
 7.50981600000000E+0002
 11
 4.39964339083300E+0002
 21
 7.59824061454400E+0002
  0
LINE
  8
0
 10
 4.39964339083300E+0002
 20
 7.59824061454400E+0002
 11
 4.44448677286400E+0002
 21
 7.68671123795200E+0002
  0
LINE
  8
0
 10
 4.44448677286400E+0002
 20
 7.68671123795200E+0002
 11
 4.48925969039100E+0002
 21
 7.77526167988800E+0002
  0
LINE
  8
0
 10
 4.48925969039100E+0002
 20
 7.77526167988800E+0002
 11
 4.53392881271200E+0002
 21
 7.86392575001600E+0002
  0
LINE
  8
0
 10
 4.53392881271200E+0002
 20
 7.86392575001600E+0002
 11
 4.57846080912500E+0002
 21
 7.95273725800000E+0002
  0
LINE
  8
0
 10
 4.57846080912500E+0002
 20
 7.95273725800000E+0002
 11
 4.62282234892800E+0002
 21
 8.04173001350400E+0002
  0
LINE
  8
0
 10
 4.62282234892800E+0002
 20
 8.04173001350400E+0002
 11
 4.66698010141900E+0002
 21
 8.13093782619200E+0002
  0
LINE
  8
0
 10
 4.66698010141900E+0002
 20
 8.13093782619200E+0002
 11
 4.71090073589600E+0002
 21
 8.22039450572800E+0002
  0
LINE
  8
0
 10
 4.71090073589600E+0002
 20
 8.22039450572800E+0002
 11
 4.75455092165700E+0002
 21
 8.31013386177600E+0002
  0
LINE
  8
0
 10
 4.75455092165700E+0002
 20
 8.31013386177600E+0002
 11
 4.79789732800000E+0002
 21
 8.40018970400000E+0002
  0
LINE
  8
0
 10
 4.79789732800000E+0002
 20
 8.40018970400000E+0002
 11
 4.84090662422300E+0002
 21
 8.49059584206400E+0002
  0
LINE
  8
0
 10
 4.84090662422300E+0002
 20
 8.49059584206400E+0002
 11
 4.88354547962400E+0002
 21
 8.58138608563200E+0002
  0
LINE
  8
0
 10
 4.88354547962400E+0002
 20
 8.58138608563200E+0002
 11
 4.92578056350100E+0002
 21
 8.67259424436800E+0002
  0
LINE
  8
0
 10
 4.92578056350100E+0002
 20
 8.67259424436800E+0002
 11
 4.96757854515200E+0002
 21
 8.76425412793600E+0002
  0
LINE
  8
0
 10
 4.96757854515200E+0002
 20
 8.76425412793600E+0002
 11
 5.00890609387500E+0002
 21
 8.85639954600000E+0002
  0
LINE
  8
0
 10
 5.00890609387500E+0002
 20
 8.85639954600000E+0002
 11
 5.04972987896800E+0002
 21
 8.94906430822400E+0002
  0
LINE
  8
0
 10
 5.04972987896800E+0002
 20
 8.94906430822400E+0002
 11
 5.09001656972900E+0002
 21
 9.04228222427200E+0002
  0
LINE
  8
0
 10
 5.09001656972900E+0002
 20
 9.04228222427200E+0002
 11
 5.12973283545600E+0002
 21
 9.13608710380800E+0002
  0
LINE
  8
0
 10
 5.12973283545600E+0002
 20
 9.13608710380800E+0002
 11
 5.16884534544700E+0002
 21
 9.23051275649600E+0002
  0
LINE
  8
0
 10
 5.16884534544700E+0002
 20
 9.23051275649600E+0002
 11
 5.20732076900000E+0002
 21
 9.32559299200000E+0002
  0
LINE
  8
0
 10
 5.20732076900000E+0002
 20
 9.32559299200000E+0002
 11
 5.24512577541300E+0002
 21
 9.42136161998400E+0002
  0
LINE
  8
0
 10
 5.24512577541300E+0002
 20
 9.42136161998400E+0002
 11
 5.28222703398400E+0002
 21
 9.51785245011200E+0002
  0
LINE
  8
0
 10
 5.28222703398400E+0002
 20
 9.51785245011200E+0002
 11
 5.31859121401100E+0002
 21
 9.61509929204800E+0002
  0
LINE
  8
0
 10
 5.31859121401100E+0002
 20
 9.61509929204800E+0002
 11
 5.35418498479200E+0002
 21
 9.71313595545600E+0002
  0
LINE
  8
0
 10
 5.35418498479200E+0002
 20
 9.71313595545600E+0002
 11
 5.38897501562500E+0002
 21
 9.81199625000000E+0002
  0
LINE
  8
0
 10
 5.38897501562500E+0002
 20
 9.81199625000000E+0002
 11
 5.42292797580800E+0002
 21
 9.91171398534400E+0002
  0
LINE
  8
0
 10
 5.42292797580800E+0002
 20
 9.91171398534400E+0002
 11
 5.45601053463900E+0002
 21
 1.00123229711520E+0003
  0
LINE
  8
0
 10
 5.45601053463900E+0002
 20
 1.00123229711520E+0003
 11
 5.48818936141600E+0002
 21
 1.01138570170880E+0003
  0
LINE
  8
0
 10
 5.48818936141600E+0002
 20
 1.01138570170880E+0003
 11
 5.51943112543700E+0002
 21
 1.02163499328160E+0003
  0
LINE
  8
0
 10
 5.51943112543700E+0002
 20
 1.02163499328160E+0003
 11
 5.54970249600000E+0002
 21
 1.03198355280000E+0003
  0
LINE
  8
0
 10
 5.54970249600000E+0002
 20
 1.03198355280000E+0003
 11
 5.57897014240300E+0002
 21
 1.04243476123040E+0003
  0
LINE
  8
0
 10
 5.57897014240300E+0002
 20
 1.04243476123040E+0003
 11
 5.60720073394400E+0002
 21
 1.05299199953920E+0003
  0
LINE
  8
0
 10
 5.60720073394400E+0002
 20
 1.05299199953920E+0003
 11
 5.63436093992100E+0002
 21
 1.06365864869280E+0003
  0
LINE
  8
0
 10
 5.63436093992100E+0002
 20
 1.06365864869280E+0003
 11
 5.66041742963200E+0002
 21
 1.07443808965760E+0003
  0
LINE
  8
0
 10
 5.66041742963200E+0002
 20
 1.07443808965760E+0003
 11
 5.68533687237500E+0002
 21
 1.08533370340000E+0003
  0
LINE
  8
0
 10
 5.68533687237500E+0002
 20
 1.08533370340000E+0003
 11
 5.70908593744800E+0002
 21
 1.09634887088640E+0003
  0
LINE
  8
0
 10
 5.70908593744800E+0002
 20
 1.09634887088640E+0003
 11
 5.73163129414900E+0002
 21
 1.10748697308320E+0003
  0
LINE
  8
0
 10
 5.73163129414900E+0002
 20
 1.10748697308320E+0003
 11
 5.75293961177600E+0002
 21
 1.11875139095680E+0003
  0
LINE
  8
0
 10
 5.75293961177600E+0002
 20
 1.11875139095680E+0003
 11
 5.77297755962700E+0002
 21
 1.13014550547360E+0003
  0
LINE
  8
0
 10
 5.77297755962700E+0002
 20
 1.13014550547360E+0003
 11
 5.79171180700000E+0002
 21
 1.14167269760000E+0003
  0
LINE
  8
0
 10
 5.79171180700000E+0002
 20
 1.14167269760000E+0003
 11
 5.80910902319300E+0002
 21
 1.15333634830240E+0003
  0
LINE
  8
0
 10
 5.80910902319300E+0002
 20
 1.15333634830240E+0003
 11
 5.82513587750400E+0002
 21
 1.16513983854720E+0003
  0
LINE
  8
0
 10
 5.82513587750400E+0002
 20
 1.16513983854720E+0003
 11
 5.83975903923100E+0002
 21
 1.17708654930080E+0003
  0
LINE
  8
0
 10
 5.83975903923100E+0002
 20
 1.17708654930080E+0003
 11
 5.85294517767200E+0002
 21
 1.18917986152960E+0003
  0
LINE
  8
0
 10
 5.85294517767200E+0002
 20
 1.18917986152960E+0003
 11
 5.86466096212500E+0002
 21
 1.20142315620000E+0003
  0
LINE
  8
0
 10
 5.86466096212500E+0002
 20
 1.20142315620000E+0003
 11
 5.87487306188800E+0002
 21
 1.21381981427840E+0003
  0
LINE
  8
0
 10
 5.87487306188800E+0002
 20
 1.21381981427840E+0003
 11
 5.88354814625900E+0002
 21
 1.22637321673120E+0003
  0
LINE
  8
0
 10
 5.88354814625900E+0002
 20
 1.22637321673120E+0003
 11
 5.89065288453600E+0002
 21
 1.23908674452480E+0003
  0
LINE
  8
0
 10
 5.89065288453600E+0002
 20
 1.23908674452480E+0003
 11
 5.89615394601700E+0002
 21
 1.25196377862560E+0003
  0
LINE
  8
0
 10
 5.89615394601700E+0002
 20
 1.25196377862560E+0003
 11
 5.90001800000000E+0002
 21
 1.26500770000000E+0003
  0
LINE
  8
0
 10
 5.90001800000000E+0002
 20
 1.26500770000000E+0003
 11
 5.90000000000000E+0002
 21
 1.30700000000000E+0003
  0
LINE
  8
0
 10
 5.90000000000000E+0002
 20
 1.30700000000000E+0003
 11
 6.35000509446390E+0002
 21
 1.29538091843480E+0003
  0
ARC
  8
0
 10
 6.38000000000000E+0002
 20
 1.30700000000000E+0003
 40
 1.20000000000000E+0001
 50
 2.55525000000000E+0002
 51
 3.93805000000000E+0002
  0
LINE
  8
0
 10
 6.47971231041917E+0002
 20
 1.31367641756549E+0003
 11
 5.60000000000000E+0002
 21
 1.44500000000000E+0003
  0
LINE
  8
0
 10
 5.60000000000000E+0002
 20
 1.44500000000000E+0003
 11
 4.72028768958084E+0002
 21
 1.31367641756549E+0003
  0
ARC
  8
0
 10
 4.82000000000000E+0002
 20
 1.30700000000000E+0003
 40
 1.20000000000000E+0001
 50
 1.46195000000000E+0002
 51
 2.84475000000000E+0002
  0
LINE
  8
0
 10
 4.84999490553610E+0002
 20
 1.29538091843480E+0003
 11
 5.30000000000000E+0002
 21
 1.30700000000000E+0003
  0
LINE
  8
0
 10
 5.30000000000000E+0002
 20
 1.30700000000000E+0003
 11
 5.30000000000000E+0002
 21
 1.26500000000000E+0003
  0
LINE
  8
0
 10
 8.30000000000000E+0002
 20
 1.26500000000000E+0003
 11
 8.30386363548300E+0002
 21
 1.25195630732330E+0003
  0
LINE
  8
0
 10
 8.30386363548300E+0002
 20
 1.25195630732330E+0003
 11
 8.30936428146400E+0002
 21
 1.23907949734640E+0003
  0
LINE
  8
0
 10
 8.30936428146400E+0002
 20
 1.23907949734640E+0003
 11
 8.31646860724100E+0002
 21
 1.22636618914910E+0003
  0
LINE
  8
0
 10
 8.31646860724100E+0002
 20
 1.22636618914910E+0003
 11
 8.32514328211200E+0002
 21
 1.21381300181120E+0003
  0
LINE
  8
0
 10
 8.32514328211200E+0002
 20
 1.21381300181120E+0003
 11
 8.33535497537500E+0002
 21
 1.20141655441250E+0003
  0
LINE
  8
0
 10
 8.33535497537500E+0002
 20
 1.20141655441250E+0003
 11
 8.34707035632800E+0002
 21
 1.18917346603280E+0003
  0
LINE
  8
0
 10
 8.34707035632800E+0002
 20
 1.18917346603280E+0003
 11
 8.36025609426900E+0002
 21
 1.17708035575190E+0003
  0
LINE
  8
0
 10
 8.36025609426900E+0002
 20
 1.17708035575190E+0003
 11
 8.37487885849600E+0002
 21
 1.16513384264960E+0003
  0
LINE
  8
0
 10
 8.37487885849600E+0002
 20
 1.16513384264960E+0003
 11
 8.39090531830700E+0002
 21
 1.15333054580570E+0003
  0
LINE
  8
0
 10
 8.39090531830700E+0002
 20
 1.15333054580570E+0003
 11
 8.40830214300000E+0002
 21
 1.14166708430000E+0003
  0
LINE
  8
0
 10
 8.40830214300000E+0002
 20
 1.14166708430000E+0003
 11
 8.42703600187300E+0002
 21
 1.13014007721230E+0003
  0
LINE
  8
0
 10
 8.42703600187300E+0002
 20
 1.13014007721230E+0003
 11
 8.44707356422400E+0002
 21
 1.11874614362240E+0003
  0
LINE
  8
0
 10
 8.44707356422400E+0002
 20
 1.11874614362240E+0003
 11
 8.46838149935100E+0002
 21
 1.10748190261010E+0003
  0
LINE
  8
0
 10
 8.46838149935100E+0002
 20
 1.10748190261010E+0003
 11
 8.49092647655200E+0002
 21
 1.09634397325520E+0003
  0
LINE
  8
0
 10
 8.49092647655200E+0002
 20
 1.09634397325520E+0003
 11
 8.51467516512500E+0002
 21
 1.08532897463750E+0003
  0
LINE
  8
0
 10
 8.51467516512500E+0002
 20
 1.08532897463750E+0003
 11
 8.53959423436800E+0002
 21
 1.07443352583680E+0003
  0
LINE
  8
0
 10
 8.53959423436800E+0002
 20
 1.07443352583680E+0003
 11
 8.56565035357900E+0002
 21
 1.06365424593290E+0003
  0
LINE
  8
0
 10
 8.56565035357900E+0002
 20
 1.06365424593290E+0003
 11
 8.59281019205600E+0002
 21
 1.05298775400560E+0003
  0
LINE
  8
0
 10
 8.59281019205600E+0002
 20
 1.05298775400560E+0003
 11
 8.62104041909700E+0002
 21
 1.04243066913470E+0003
  0
LINE
  8
0
 10
 8.62104041909700E+0002
 20
 1.04243066913470E+0003
 11
 8.65030770400000E+0002
 21
 1.03197961040000E+0003
  0
LINE
  8
0
 10
 8.65030770400000E+0002
 20
 1.03197961040000E+0003
 11
 8.68057871606300E+0002
 21
 1.02163119688130E+0003
  0
LINE
  8
0
 10
 8.68057871606300E+0002
 20
 1.02163119688130E+0003
 11
 8.71182012458400E+0002
 21
 1.01138204765840E+0003
  0
LINE
  8
0
 10
 8.71182012458400E+0002
 20
 1.01138204765840E+0003
 11
 8.74399859886100E+0002
 21
 1.00122878181110E+0003
  0
LINE
  8
0
 10
 8.74399859886100E+0002
 20
 1.00122878181110E+0003
 11
 8.77708080819200E+0002
 21
 9.91168018419200E+0002
  0
LINE
  8
0
 10
 8.77708080819200E+0002
 20
 9.91168018419200E+0002
 11
 8.81103342187500E+0002
 21
 9.81196376562500E+0002
  0
LINE
  8
0
 10
 8.81103342187500E+0002
 20
 9.81196376562500E+0002
 11
 8.84582310920800E+0002
 21
 9.71310475320800E+0002
  0
LINE
  8
0
 10
 8.84582310920800E+0002
 20
 9.71310475320800E+0002
 11
 8.88141653948900E+0002
 21
 9.61506933773900E+0002
  0
LINE
  8
0
 10
 8.88141653948900E+0002
 20
 9.61506933773900E+0002
 11
 8.91778038201600E+0002
 21
 9.51782371001600E+0002
  0
LINE
  8
0
 10
 8.91778038201600E+0002
 20
 9.51782371001600E+0002
 11
 8.95488130608700E+0002
 21
 9.42133406083700E+0002
  0
LINE
  8
0
 10
 8.95488130608700E+0002
 20
 9.42133406083700E+0002
 11
 8.99268598100000E+0002
 21
 9.32556658100000E+0002
  0
LINE
  8
0
 10
 8.99268598100000E+0002
 20
 9.32556658100000E+0002
 11
 9.03116107605300E+0002
 21
 9.23048746130300E+0002
  0
LINE
  8
0
 10
 9.03116107605300E+0002
 20
 9.23048746130300E+0002
 11
 9.07027326054400E+0002
 21
 9.13606289254400E+0002
  0
LINE
  8
0
 10
 9.07027326054400E+0002
 20
 9.13606289254400E+0002
 11
 9.10998920377100E+0002
 21
 9.04225906552100E+0002
  0
LINE
  8
0
 10
 9.10998920377100E+0002
 20
 9.04225906552100E+0002
 11
 9.15027557503200E+0002
 21
 8.94904217103200E+0002
  0
LINE
  8
0
 10
 9.15027557503200E+0002
 20
 8.94904217103200E+0002
 11
 9.19109904362500E+0002
 21
 8.85637839987500E+0002
  0
LINE
  8
0
 10
 9.19109904362500E+0002
 20
 8.85637839987500E+0002
 11
 9.23242627884800E+0002
 21
 8.76423394284800E+0002
  0
LINE
  8
0
 10
 9.23242627884800E+0002
 20
 8.76423394284800E+0002
 11
 9.27422394999900E+0002
 21
 8.67257499074900E+0002
  0
LINE
  8
0
 10
 9.27422394999900E+0002
 20
 8.67257499074900E+0002
 11
 9.31645872637600E+0002
 21
 8.58136773437600E+0002
  0
LINE
  8
0
 10
 9.31645872637600E+0002
 20
 8.58136773437600E+0002
 11
 9.35909727727700E+0002
 21
 8.49057836452700E+0002
  0
LINE
  8
0
 10
 9.35909727727700E+0002
 20
 8.49057836452700E+0002
 11
 9.40210627200000E+0002
 21
 8.40017307200000E+0002
  0
LINE
  8
0
 10
 9.40210627200000E+0002
 20
 8.40017307200000E+0002
 11
 9.44545237984300E+0002
 21
 8.31011804759300E+0002
  0
LINE
  8
0
 10
 9.44545237984300E+0002
 20
 8.31011804759300E+0002
 11
 9.48910227010400E+0002
 21
 8.22037948210400E+0002
  0
LINE
  8
0
 10
 9.48910227010400E+0002
 20
 8.22037948210400E+0002
 11
 9.53302261208100E+0002
 21
 8.13092356633100E+0002
  0
LINE
  8
0
 10
 9.53302261208100E+0002
 20
 8.13092356633100E+0002
 11
 9.57718007507200E+0002
 21
 8.04171649107200E+0002
  0
LINE
  8
0
 10
 9.57718007507200E+0002
 20
 8.04171649107200E+0002
 11
 9.62154132837500E+0002
 21
 7.95272444712500E+0002
  0
LINE
  8
0
 10
 9.62154132837500E+0002
 20
 7.95272444712500E+0002
 11
 9.66607304128800E+0002
 21
 7.86391362528800E+0002
  0
LINE
  8
0
 10
 9.66607304128800E+0002
 20
 7.86391362528800E+0002
 11
 9.71074188310900E+0002
 21
 7.77525021635900E+0002
  0
LINE
  8
0
 10
 9.71074188310900E+0002
 20
 7.77525021635900E+0002
 11
 9.75551452313600E+0002
 21
 7.68670041113600E+0002
  0
LINE
  8
0
 10
 9.75551452313600E+0002
 20
 7.68670041113600E+0002
 11
 9.80035763066700E+0002
 21
 7.59823040041700E+0002
  0
LINE
  8
0
 10
 9.80035763066700E+0002
 20
 7.59823040041700E+0002
 11
 9.84523787500000E+0002
 21
 7.50980637500000E+0002
  0
LINE
  8
0
 10
 9.84523787500000E+0002
 20
 7.50980637500000E+0002
 11
 9.89012192543300E+0002
 21
 7.42139452568300E+0002
  0
LINE
  8
0
 10
 9.89012192543300E+0002
 20
 7.42139452568300E+0002
 11
 9.93497645126400E+0002
 21
 7.33296104326400E+0002
  0
LINE
  8
0
 10
 9.93497645126400E+0002
 20
 7.33296104326400E+0002
 11
 9.97976812179100E+0002
 21
 7.24447211854100E+0002
  0
LINE
  8
0
 10
 9.97976812179100E+0002
 20
 7.24447211854100E+0002
 11
 1.00244636063120E+0003
 21
 7.15589394231200E+0002
  0
LINE
  8
0
 10
 1.00244636063120E+0003
 20
 7.15589394231200E+0002
 11
 1.00690295741250E+0003
 21
 7.06719270537500E+0002
  0
LINE
  8
0
 10
 1.00690295741250E+0003
 20
 7.06719270537500E+0002
 11
 1.01134326945280E+0003
 21
 6.97833459852800E+0002
  0
LINE
  8
0
 10
 1.01134326945280E+0003
 20
 6.97833459852800E+0002
 11
 1.01576396368190E+0003
 21
 6.88928581256900E+0002
  0
LINE
  8
0
 10
 1.01576396368190E+0003
 20
 6.88928581256900E+0002
 11
 1.02016170702960E+0003
 21
 6.80001253829600E+0002
  0
LINE
  8
0
 10
 1.02016170702960E+0003
 20
 6.80001253829600E+0002
 11
 1.02453316642570E+0003
 21
 6.71048096650700E+0002
  0
LINE
  8
0
 10
 1.02453316642570E+0003
 20
 6.71048096650700E+0002
 11
 1.02887500880000E+0003
 21
 6.62065728800000E+0002
  0
LINE
  8
0
 10
 1.02887500880000E+0003
 20
 6.62065728800000E+0002
 11
 1.03318390108230E+0003
 21
 6.53050769357300E+0002
  0
LINE
  8
0
 10
 1.03318390108230E+0003
 20
 6.53050769357300E+0002
 11
 1.03745651020240E+0003
 21
 6.43999837402400E+0002
  0
LINE
  8
0
 10
 1.03745651020240E+0003
 20
 6.43999837402400E+0002
 11
 1.04168950309010E+0003
 21
 6.34909552015100E+0002
  0
LINE
  8
0
 10
 1.04168950309010E+0003
 20
 6.34909552015100E+0002
 11
 1.04587954667520E+0003
 21
 6.25776532275200E+0002
  0
LINE
  8
0
 10
 1.04587954667520E+0003
 20
 6.25776532275200E+0002
 11
 1.05002330788750E+0003
 21
 6.16597397262500E+0002
  0
LINE
  8
0
 10
 1.05002330788750E+0003
 20
 6.16597397262500E+0002
 11
 1.05411745365680E+0003
 21
 6.07368766056800E+0002
  0
LINE
  8
0
 10
 1.05411745365680E+0003
 20
 6.07368766056800E+0002
 11
 1.05815865091290E+0003
 21
 5.98087257737900E+0002
  0
LINE
  8
0
 10
 1.05815865091290E+0003
 20
 5.98087257737900E+0002
 11
 1.06214356658560E+0003
 21
 5.88749491385600E+0002
  0
LINE
  8
0
 10
 1.06214356658560E+0003
 20
 5.88749491385600E+0002
 11
 1.06606886760470E+0003
 21
 5.79352086079700E+0002
  0
LINE
  8
0
 10
 1.06606886760470E+0003
 20
 5.79352086079700E+0002
 11
 1.06993122090000E+0003
 21
 5.69891660900000E+0002
  0
LINE
  8
0
 10
 1.06993122090000E+0003
 20
 5.69891660900000E+0002
 11
 1.07372729340130E+0003
 21
 5.60364834926300E+0002
  0
LINE
  8
0
 10
 1.07372729340130E+0003
 20
 5.60364834926300E+0002
 11
 1.07745375203840E+0003
 21
 5.50768227238400E+0002
  0
LINE
  8
0
 10
 1.07745375203840E+0003
 20
 5.50768227238400E+0002
 11
 1.08110726374110E+0003
 21
 5.41098456916100E+0002
  0
LINE
  8
0
 10
 1.08110726374110E+0003
 20
 5.41098456916100E+0002
 11
 1.08468449543920E+0003
 21
 5.31352143039200E+0002
  0
LINE
  8
0
 10
 1.08468449543920E+0003
 20
 5.31352143039200E+0002
 11
 1.08818211406250E+0003
 21
 5.21525904687500E+0002
  0
LINE
  8
0
 10
 1.08818211406250E+0003
 20
 5.21525904687500E+0002
 11
 1.09159678654080E+0003
 21
 5.11616360940800E+0002
  0
LINE
  8
0
 10
 1.09159678654080E+0003
 20
 5.11616360940800E+0002
 11
 1.09492517980390E+0003
 21
 5.01620130878900E+0002
  0
LINE
  8
0
 10
 1.09492517980390E+0003
 20
 5.01620130878900E+0002
 11
 1.09816396078160E+0003
 21
 4.91533833581600E+0002
  0
LINE
  8
0
 10
 1.09816396078160E+0003
 20
 4.91533833581600E+0002
 11
 1.10130979640370E+0003
 21
 4.81354088128700E+0002
  0
LINE
  8
0
 10
 1.10130979640370E+0003
 20
 4.81354088128700E+0002
 11
 1.10435935360000E+0003
 21
 4.71077513600000E+0002
  0
LINE
  8
0
 10
 1.10435935360000E+0003
 20
 4.71077513600000E+0002
 11
 1.10730929930030E+0003
 21
 4.60700729075300E+0002
  0
LINE
  8
0
 10
 1.10730929930030E+0003
 20
 4.60700729075300E+0002
 11
 1.11015630043440E+0003
 21
 4.50220353634400E+0002
  0
LINE
  8
0
 10
 1.11015630043440E+0003
 20
 4.50220353634400E+0002
 11
 1.11289702393210E+0003
 21
 4.39633006357100E+0002
  0
LINE
  8
0
 10
 1.11289702393210E+0003
 20
 4.39633006357100E+0002
 11
 1.11552813672320E+0003
 21
 4.28935306323200E+0002
  0
LINE
  8
0
 10
 1.11552813672320E+0003
 20
 4.28935306323200E+0002
 11
 1.11804630573750E+0003
 21
 4.18123872612500E+0002
  0
LINE
  8
0
 10
 1.11804630573750E+0003
 20
 4.18123872612500E+0002
 11
 1.12044819790480E+0003
 21
 4.07195324304800E+0002
  0
LINE
  8
0
 10
 1.12044819790480E+0003
 20
 4.07195324304800E+0002
 11
 1.12273048015490E+0003
 21
 3.96146280479900E+0002
  0
LINE
  8
0
 10
 1.12273048015490E+0003
 20
 3.96146280479900E+0002
 11
 1.12488981941760E+0003
 21
 3.84973360217600E+0002
  0
LINE
  8
0
 10
 1.12488981941760E+0003
 20
 3.84973360217600E+0002
 11
 1.12692288262270E+0003
 21
 3.73673182597700E+0002
  0
LINE
  8
0
 10
 1.12692288262270E+0003
 20
 3.73673182597700E+0002
 11
 1.12882633670000E+0003
 21
 3.62242366700000E+0002
  0
LINE
  8
0
 10
 1.12882633670000E+0003
 20
 3.62242366700000E+0002
 11
 1.13059684857930E+0003
 21
 3.50677531604300E+0002
  0
LINE
  8
0
 10
 1.13059684857930E+0003
 20
 3.50677531604300E+0002
 11
 1.13223108519040E+0003
 21
 3.38975296390400E+0002
  0
LINE
  8
0
 10
 1.13223108519040E+0003
 20
 3.38975296390400E+0002
 11
 1.13372571346310E+0003
 21
 3.27132280138100E+0002
  0
LINE
  8
0
 10
 1.13372571346310E+0003
 20
 3.27132280138100E+0002
 11
 1.13507740032720E+0003
 21
 3.15145101927200E+0002
  0
LINE
  8
0
 10
 1.13507740032720E+0003
 20
 3.15145101927200E+0002
 11
 1.13628281271250E+0003
 21
 3.03010380837500E+0002
  0
LINE
  8
0
 10
 1.13628281271250E+0003
 20
 3.03010380837500E+0002
 11
 1.13733861754880E+0003
 21
 2.90724735948800E+0002
  0
LINE
  8
0
 10
 1.13733861754880E+0003
 20
 2.90724735948800E+0002
 11
 1.13824148176590E+0003
 21
 2.78284786340900E+0002
  0
LINE
  8
0
 10
 1.13824148176590E+0003
 20
 2.78284786340900E+0002
 11
 1.13898807229360E+0003
 21
 2.65687151093600E+0002
  0
LINE
  8
0
 10
 1.13898807229360E+0003
 20
 2.65687151093600E+0002
 11
 1.13957505606170E+0003
 21
 2.52928449286700E+0002
  0
LINE
  8
0
 10
 1.13957505606170E+0003
 20
 2.52928449286700E+0002
 11
 1.13999910000000E+0003
 21
 2.40005300000000E+0002
  0
LINE
  8
0
 10
 1.13999910000000E+0003
 20
 2.40005300000000E+0002
 11
 1.14000000000000E+0003
 21
 1.55000000000000E+0002
  0
LINE
  8
0
 10
 1.14000000000000E+0003
 20
 1.55000000000000E+0002
 11
 1.08000000000000E+0003
 21
 1.55000000000000E+0002
  0
LINE
  8
0
 10
 1.08000000000000E+0003
 20
 1.55000000000000E+0002
 11
 1.08000000000000E+0003
 21
 2.40005300000000E+0002
  0
LINE
  8
0
 10
 1.08000000000000E+0003
 20
 2.40005300000000E+0002
 11
 1.07957594391170E+0003
 21
 2.52928449294400E+0002
  0
LINE
  8
0
 10
 1.07957594391170E+0003
 20
 2.52928449294400E+0002
 11
 1.07898894769360E+0003
 21
 2.65687151155200E+0002
  0
LINE
  8
0
 10
 1.07898894769360E+0003
 20
 2.65687151155200E+0002
 11
 1.07824234441590E+0003
 21
 2.78284786548800E+0002
  0
LINE
  8
0
 10
 1.07824234441590E+0003
 20
 2.78284786548800E+0002
 11
 1.07733946714880E+0003
 21
 2.90724736441600E+0002
  0
LINE
  8
0
 10
 1.07733946714880E+0003
 20
 2.90724736441600E+0002
 11
 1.07628364896250E+0003
 21
 3.03010381800000E+0002
  0
LINE
  8
0
 10
 1.07628364896250E+0003
 20
 3.03010381800000E+0002
 11
 1.07507822292720E+0003
 21
 3.15145103590400E+0002
  0
LINE
  8
0
 10
 1.07507822292720E+0003
 20
 3.15145103590400E+0002
 11
 1.07372652211310E+0003
 21
 3.27132282779200E+0002
  0
LINE
  8
0
 10
 1.07372652211310E+0003
 20
 3.27132282779200E+0002
 11
 1.07223187959040E+0003
 21
 3.38975300332800E+0002
  0
LINE
  8
0
 10
 1.07223187959040E+0003
 20
 3.38975300332800E+0002
 11
 1.07059762842930E+0003
 21
 3.50677537217600E+0002
  0
LINE
  8
0
 10
 1.07059762842930E+0003
 20
 3.50677537217600E+0002
 11
 1.06882710170000E+0003
 21
 3.62242374400000E+0002
  0
LINE
  8
0
 10
 1.06882710170000E+0003
 20
 3.62242374400000E+0002
 11
 1.06692363247270E+0003
 21
 3.73673192846400E+0002
  0
LINE
  8
0
 10
 1.06692363247270E+0003
 20
 3.73673192846400E+0002
 11
 1.06489055381760E+0003
 21
 3.84973373523200E+0002
  0
LINE
  8
0
 10
 1.06489055381760E+0003
 20
 3.84973373523200E+0002
 11
 1.06273119880490E+0003
 21
 3.96146297396800E+0002
  0
LINE
  8
0
 10
 1.06273119880490E+0003
 20
 3.96146297396800E+0002
 11
 1.06044890050480E+0003
 21
 4.07195345433600E+0002
  0
LINE
  8
0
 10
 1.06044890050480E+0003
 20
 4.07195345433600E+0002
 11
 1.05804699198750E+0003
 21
 4.18123898600000E+0002
  0
LINE
  8
0
 10
 1.05804699198750E+0003
 20
 4.18123898600000E+0002
 11
 1.05552880632320E+0003
 21
 4.28935337862400E+0002
  0
LINE
  8
0
 10
 1.05552880632320E+0003
 20
 4.28935337862400E+0002
 11
 1.05289767658210E+0003
 21
 4.39633044187200E+0002
  0
LINE
  8
0
 10
 1.05289767658210E+0003
 20
 4.39633044187200E+0002
 11
 1.05015693583440E+0003
 21
 4.50220398540800E+0002
  0
LINE
  8
0
 10
 1.05015693583440E+0003
 20
 4.50220398540800E+0002
 11
 1.04730991715030E+0003
 21
 4.60700781889600E+0002
  0
LINE
  8
0
 10
 1.04730991715030E+0003
 20
 4.60700781889600E+0002
 11
 1.04435995360000E+0003
 21
 4.71077575200000E+0002
  0
LINE
  8
0
 10
 1.04435995360000E+0003
 20
 4.71077575200000E+0002
 11
 1.04131037825370E+0003
 21
 4.81354159438400E+0002
  0
LINE
  8
0
 10
 1.04131037825370E+0003
 20
 4.81354159438400E+0002
 11
 1.03816452418160E+0003
 21
 4.91533915571200E+0002
  0
LINE
  8
0
 10
 1.03816452418160E+0003
 20
 4.91533915571200E+0002
 11
 1.03492572445390E+0003
 21
 5.01620224564800E+0002
  0
LINE
  8
0
 10
 1.03492572445390E+0003
 20
 5.01620224564800E+0002
 11
 1.03159731214080E+0003
 21
 5.11616467385600E+0002
  0
LINE
  8
0
 10
 1.03159731214080E+0003
 20
 5.11616467385600E+0002
 11
 1.02818262031250E+0003
 21
 5.21526025000000E+0002
  0
LINE
  8
0
 10
 1.02818262031250E+0003
 20
 5.21526025000000E+0002
 11
 1.02468498203920E+0003
 21
 5.31352278374400E+0002
  0
LINE
  8
0
 10
 1.02468498203920E+0003
 20
 5.31352278374400E+0002
 11
 1.02110773039110E+0003
 21
 5.41098608475200E+0002
  0
LINE
  8
0
 10
 1.02110773039110E+0003
 20
 5.41098608475200E+0002
 11
 1.01745419843840E+0003
 21
 5.50768396268800E+0002
  0
LINE
  8
0
 10
 1.01745419843840E+0003
 20
 5.50768396268800E+0002
 11
 1.01372771925130E+0003
 21
 5.60365022721600E+0002
  0
LINE
  8
0
 10
 1.01372771925130E+0003
 20
 5.60365022721600E+0002
 11
 1.00993162590000E+0003
 21
 5.69891868800000E+0002
  0
LINE
  8
0
 10
 1.00993162590000E+0003
 20
 5.69891868800000E+0002
 11
 1.00606925145470E+0003
 21
 5.79352315470400E+0002
  0
LINE
  8
0
 10
 1.00606925145470E+0003
 20
 5.79352315470400E+0002
 11
 1.00214392898560E+0003
 21
 5.88749743699200E+0002
  0
LINE
  8
0
 10
 1.00214392898560E+0003
 20
 5.88749743699200E+0002
 11
 9.98158991562900E+0002
 21
 5.98087534452800E+0002
  0
LINE
  8
0
 10
 9.98158991562900E+0002
 20
 5.98087534452800E+0002
 11
 9.94117772256800E+0002
 21
 6.07369068697600E+0002
  0
LINE
  8
0
 10
 9.94117772256800E+0002
 20
 6.07369068697600E+0002
 11
 9.90023604137500E+0002
 21
 6.16597727400000E+0002
  0
LINE
  8
0
 10
 9.90023604137500E+0002
 20
 6.16597727400000E+0002
 11
 9.85879820275200E+0002
 21
 6.25776891526400E+0002
  0
LINE
  8
0
 10
 9.85879820275200E+0002
 20
 6.25776891526400E+0002
 11
 9.81689753740100E+0002
 21
 6.34909942043200E+0002
  0
LINE
  8
0
 10
 9.81689753740100E+0002
 20
 6.34909942043200E+0002
 11
 9.77456737602400E+0002
 21
 6.44000259916800E+0002
  0
LINE
  8
0
 10
 9.77456737602400E+0002
 20
 6.44000259916800E+0002
 11
 9.73184104932300E+0002
 21
 6.53051226113600E+0002
  0
LINE
  8
0
 10
 9.73184104932300E+0002
 20
 6.53051226113600E+0002
 11
 9.68875188800000E+0002
 21
 6.62066221600000E+0002
  0
LINE
  8
0
 10
 9.68875188800000E+0002
 20
 6.62066221600000E+0002
 11
 9.64533322275700E+0002
 21
 6.71048627342400E+0002
  0
LINE
  8
0
 10
 9.64533322275700E+0002
 20
 6.71048627342400E+0002
 11
 9.60161838429600E+0002
 21
 6.80001824307200E+0002
  0
LINE
  8
0
 10
 9.60161838429600E+0002
 20
 6.80001824307200E+0002
 11
 9.55764070331900E+0002
 21
 6.88929193460800E+0002
  0
LINE
  8
0
 10
 9.55764070331900E+0002
 20
 6.88929193460800E+0002
 11
 9.51343351052800E+0002
 21
 6.97834115769600E+0002
  0
LINE
  8
0
 10
 9.51343351052800E+0002
 20
 6.97834115769600E+0002
 11
 9.46903013662500E+0002
 21
 7.06719972200000E+0002
  0
LINE
  8
0
 10
 9.46903013662500E+0002
 20
 7.06719972200000E+0002
 11
 9.42446391231200E+0002
 21
 7.15590143718400E+0002
  0
LINE
  8
0
 10
 9.42446391231200E+0002
 20
 7.15590143718400E+0002
 11
 9.37976816829100E+0002
 21
 7.24448011291200E+0002
  0
LINE
  8
0
 10
 9.37976816829100E+0002
 20
 7.24448011291200E+0002
 11
 9.33497623526400E+0002
 21
 7.33296955884800E+0002
  0
LINE
  8
0
 10
 9.33497623526400E+0002
 20
 7.33296955884800E+0002
 11
 9.29012144393300E+0002
 21
 7.42140358465600E+0002
  0
LINE
  8
0
 10
 9.29012144393300E+0002
 20
 7.42140358465600E+0002
 11
 9.24523712500000E+0002
 21
 7.50981600000000E+0002
  0
LINE
  8
0
 10
 9.24523712500000E+0002
 20
 7.50981600000000E+0002
 11
 9.20035660916700E+0002
 21
 7.59824061454400E+0002
  0
LINE
  8
0
 10
 9.20035660916700E+0002
 20
 7.59824061454400E+0002
 11
 9.15551322713600E+0002
 21
 7.68671123795200E+0002
  0
LINE
  8
0
 10
 9.15551322713600E+0002
 20
 7.68671123795200E+0002
 11
 9.11074030960900E+0002
 21
 7.77526167988800E+0002
  0
LINE
  8
0
 10
 9.11074030960900E+0002
 20
 7.77526167988800E+0002
 11
 9.06607118728800E+0002
 21
 7.86392575001600E+0002
  0
LINE
  8
0
 10
 9.06607118728800E+0002
 20
 7.86392575001600E+0002
 11
 9.02153919087500E+0002
 21
 7.95273725800000E+0002
  0
LINE
  8
0
 10
 9.02153919087500E+0002
 20
 7.95273725800000E+0002
 11
 8.97717765107200E+0002
 21
 8.04173001350400E+0002
  0
LINE
  8
0
 10
 8.97717765107200E+0002
 20
 8.04173001350400E+0002
 11
 8.93301989858100E+0002
 21
 8.13093782619200E+0002
  0
LINE
  8
0
 10
 8.93301989858100E+0002
 20
 8.13093782619200E+0002
 11
 8.88909926410400E+0002
 21
 8.22039450572800E+0002
  0
LINE
  8
0
 10
 8.88909926410400E+0002
 20
 8.22039450572800E+0002
 11
 8.84544907834300E+0002
 21
 8.31013386177600E+0002
  0
LINE
  8
0
 10
 8.84544907834300E+0002
 20
 8.31013386177600E+0002
 11
 8.80210267200000E+0002
 21
 8.40018970400000E+0002
  0
LINE
  8
0
 10
 8.80210267200000E+0002
 20
 8.40018970400000E+0002
 11
 8.75909337577700E+0002
 21
 8.49059584206400E+0002
  0
LINE
  8
0
 10
 8.75909337577700E+0002
 20
 8.49059584206400E+0002
 11
 8.71645452037600E+0002
 21
 8.58138608563200E+0002
  0
LINE
  8
0
 10
 8.71645452037600E+0002
 20
 8.58138608563200E+0002
 11
 8.67421943649900E+0002
 21
 8.67259424436800E+0002
  0
LINE
  8
0
 10
 8.67421943649900E+0002
 20
 8.67259424436800E+0002
 11
 8.63242145484800E+0002
 21
 8.76425412793600E+0002
  0
LINE
  8
0
 10
 8.63242145484800E+0002
 20
 8.76425412793600E+0002
 11
 8.59109390612500E+0002
 21
 8.85639954600000E+0002
  0
LINE
  8
0
 10
 8.59109390612500E+0002
 20
 8.85639954600000E+0002
 11
 8.55027012103200E+0002
 21
 8.94906430822400E+0002
  0
LINE
  8
0
 10
 8.55027012103200E+0002
 20
 8.94906430822400E+0002
 11
 8.50998343027100E+0002
 21
 9.04228222427200E+0002
  0
LINE
  8
0
 10
 8.50998343027100E+0002
 20
 9.04228222427200E+0002
 11
 8.47026716454400E+0002
 21
 9.13608710380800E+0002
  0
LINE
  8
0
 10
 8.47026716454400E+0002
 20
 9.13608710380800E+0002
 11
 8.43115465455300E+0002
 21
 9.23051275649600E+0002
  0
LINE
  8
0
 10
 8.43115465455300E+0002
 20
 9.23051275649600E+0002
 11
 8.39267923100000E+0002
 21
 9.32559299200000E+0002
  0
LINE
  8
0
 10
 8.39267923100000E+0002
 20
 9.32559299200000E+0002
 11
 8.35487422458700E+0002
 21
 9.42136161998400E+0002
  0
LINE
  8
0
 10
 8.35487422458700E+0002
 20
 9.42136161998400E+0002
 11
 8.31777296601600E+0002
 21
 9.51785245011200E+0002
  0
LINE
  8
0
 10
 8.31777296601600E+0002
 20
 9.51785245011200E+0002
 11
 8.28140878598900E+0002
 21
 9.61509929204800E+0002
  0
LINE
  8
0
 10
 8.28140878598900E+0002
 20
 9.61509929204800E+0002
 11
 8.24581501520800E+0002
 21
 9.71313595545600E+0002
  0
LINE
  8
0
 10
 8.24581501520800E+0002
 20
 9.71313595545600E+0002
 11
 8.21102498437500E+0002
 21
 9.81199625000000E+0002
  0
LINE
  8
0
 10
 8.21102498437500E+0002
 20
 9.81199625000000E+0002
 11
 8.17707202419200E+0002
 21
 9.91171398534400E+0002
  0
LINE
  8
0
 10
 8.17707202419200E+0002
 20
 9.91171398534400E+0002
 11
 8.14398946536100E+0002
 21
 1.00123229711520E+0003
  0
LINE
  8
0
 10
 8.14398946536100E+0002
 20
 1.00123229711520E+0003
 11
 8.11181063858400E+0002
 21
 1.01138570170880E+0003
  0
LINE
  8
0
 10
 8.11181063858400E+0002
 20
 1.01138570170880E+0003
 11
 8.08056887456300E+0002
 21
 1.02163499328160E+0003
  0
LINE
  8
0
 10
 8.08056887456300E+0002
 20
 1.02163499328160E+0003
 11
 8.05029750400000E+0002
 21
 1.03198355280000E+0003
  0
LINE
  8
0
 10
 8.05029750400000E+0002
 20
 1.03198355280000E+0003
 11
 8.02102985759700E+0002
 21
 1.04243476123040E+0003
  0
LINE
  8
0
 10
 8.02102985759700E+0002
 20
 1.04243476123040E+0003
 11
 7.99279926605600E+0002
 21
 1.05299199953920E+0003
  0
LINE
  8
0
 10
 7.99279926605600E+0002
 20
 1.05299199953920E+0003
 11
 7.96563906007900E+0002
 21
 1.06365864869280E+0003
  0
LINE
  8
0
 10
 7.96563906007900E+0002
 20
 1.06365864869280E+0003
 11
 7.93958257036800E+0002
 21
 1.07443808965760E+0003
  0
LINE
  8
0
 10
 7.93958257036800E+0002
 20
 1.07443808965760E+0003
 11
 7.91466312762500E+0002
 21
 1.08533370340000E+0003
  0
LINE
  8
0
 10
 7.91466312762500E+0002
 20
 1.08533370340000E+0003
 11
 7.89091406255200E+0002
 21
 1.09634887088640E+0003
  0
LINE
  8
0
 10
 7.89091406255200E+0002
 20
 1.09634887088640E+0003
 11
 7.86836870585100E+0002
 21
 1.10748697308320E+0003
  0
LINE
  8
0
 10
 7.86836870585100E+0002
 20
 1.10748697308320E+0003
 11
 7.84706038822400E+0002
 21
 1.11875139095680E+0003
  0
LINE
  8
0
 10
 7.84706038822400E+0002
 20
 1.11875139095680E+0003
 11
 7.82702244037300E+0002
 21
 1.13014550547360E+0003
  0
LINE
  8
0
 10
 7.82702244037300E+0002
 20
 1.13014550547360E+0003
 11
 7.80828819300000E+0002
 21
 1.14167269760000E+0003
  0
LINE
  8
0
 10
 7.80828819300000E+0002
 20
 1.14167269760000E+0003
 11
 7.79089097680700E+0002
 21
 1.15333634830240E+0003
  0
LINE
  8
0
 10
 7.79089097680700E+0002
 20
 1.15333634830240E+0003
 11
 7.77486412249600E+0002
 21
 1.16513983854720E+0003
  0
LINE
  8
0
 10
 7.77486412249600E+0002
 20
 1.16513983854720E+0003
 11
 7.76024096076900E+0002
 21
 1.17708654930080E+0003
  0
LINE
  8
0
 10
 7.76024096076900E+0002
 20
 1.17708654930080E+0003
 11
 7.74705482232800E+0002
 21
 1.18917986152960E+0003
  0
LINE
  8
0
 10
 7.74705482232800E+0002
 20
 1.18917986152960E+0003
 11
 7.73533903787500E+0002
 21
 1.20142315620000E+0003
  0
LINE
  8
0
 10
 7.73533903787500E+0002
 20
 1.20142315620000E+0003
 11
 7.72512693811200E+0002
 21
 1.21381981427840E+0003
  0
LINE
  8
0
 10
 7.72512693811200E+0002
 20
 1.21381981427840E+0003
 11
 7.71645185374100E+0002
 21
 1.22637321673120E+0003
  0
LINE
  8
0
 10
 7.71645185374100E+0002
 20
 1.22637321673120E+0003
 11
 7.70934711546400E+0002
 21
 1.23908674452480E+0003
  0
LINE
  8
0
 10
 7.70934711546400E+0002
 20
 1.23908674452480E+0003
 11
 7.70384605398300E+0002
 21
 1.25196377862560E+0003
  0
LINE
  8
0
 10
 7.70384605398300E+0002
 20
 1.25196377862560E+0003
 11
 7.69998200000000E+0002
 21
 1.26500770000000E+0003
  0
LINE
  8
0
 10
 7.69998200000000E+0002
 20
 1.26500770000000E+0003
 11
 7.70000000000000E+0002
 21
 1.30700000000000E+0003
  0
LINE
  8
0
 10
 7.70000000000000E+0002
 20
 1.30700000000000E+0003
 11
 7.24999490553610E+0002
 21
 1.29538091843480E+0003
  0
ARC
  8
0
 10
 7.22000000000000E+0002
 20
 1.30700000000000E+0003
 40
 1.20000000000000E+0001
 50
 1.46195000000000E+0002
 51
 2.84475000000000E+0002
  0
LINE
  8
0
 10
 7.12028768958083E+0002
 20
 1.31367641756549E+0003
 11
 8.00000000000000E+0002
 21
 1.44500000000000E+0003
  0
LINE
  8
0
 10
 8.00000000000000E+0002
 20
 1.44500000000000E+0003
 11
 8.87971231041917E+0002
 21
 1.31367641756549E+0003
  0
ARC
  8
0
 10
 8.78000000000000E+0002
 20
 1.30700000000000E+0003
 40
 1.20000000000000E+0001
 50
 2.55525000000000E+0002
 51
 3.93805000000000E+0002
  0
LINE
  8
0
 10
 8.75000509446390E+0002
 20
 1.29538091843480E+0003
 11
 8.30000000000000E+0002
 21
 1.30700000000000E+0003
  0
LINE
  8
0
 10
 8.30000000000000E+0002
 20
 1.30700000000000E+0003
 11
 8.30000000000000E+0002
 21
 1.26500000000000E+0003
  0
LINE
  8
0
 10
 1.07000000000000E+0003
 20
 1.26500000000000E+0003
 11
 1.07038636354830E+0003
 21
 1.25195630732330E+0003
  0
LINE
  8
0
 10
 1.07038636354830E+0003
 20
 1.25195630732330E+0003
 11
 1.07093642814640E+0003
 21
 1.23907949734640E+0003
  0
LINE
  8
0
 10
 1.07093642814640E+0003
 20
 1.23907949734640E+0003
 11
 1.07164686072410E+0003
 21
 1.22636618914910E+0003
  0
LINE
  8
0
 10
 1.07164686072410E+0003
 20
 1.22636618914910E+0003
 11
 1.07251432821120E+0003
 21
 1.21381300181120E+0003
  0
LINE
  8
0
 10
 1.07251432821120E+0003
 20
 1.21381300181120E+0003
 11
 1.07353549753750E+0003
 21
 1.20141655441250E+0003
  0
LINE
  8
0
 10
 1.07353549753750E+0003
 20
 1.20141655441250E+0003
 11
 1.07470703563280E+0003
 21
 1.18917346603280E+0003
  0
LINE
  8
0
 10
 1.07470703563280E+0003
 20
 1.18917346603280E+0003
 11
 1.07602560942690E+0003
 21
 1.17708035575190E+0003
  0
LINE
  8
0
 10
 1.07602560942690E+0003
 20
 1.17708035575190E+0003
 11
 1.07748788584960E+0003
 21
 1.16513384264960E+0003
  0
LINE
  8
0
 10
 1.07748788584960E+0003
 20
 1.16513384264960E+0003
 11
 1.07909053183070E+0003
 21
 1.15333054580570E+0003
  0
LINE
  8
0
 10
 1.07909053183070E+0003
 20
 1.15333054580570E+0003
 11
 1.08083021430000E+0003
 21
 1.14166708430000E+0003
  0
LINE
  8
0
 10
 1.08083021430000E+0003
 20
 1.14166708430000E+0003
 11
 1.08270360018730E+0003
 21
 1.13014007721230E+0003
  0
LINE
  8
0
 10
 1.08270360018730E+0003
 20
 1.13014007721230E+0003
 11
 1.08470735642240E+0003
 21
 1.11874614362240E+0003
  0
LINE
  8
0
 10
 1.08470735642240E+0003
 20
 1.11874614362240E+0003
 11
 1.08683814993510E+0003
 21
 1.10748190261010E+0003
  0
LINE
  8
0
 10
 1.08683814993510E+0003
 20
 1.10748190261010E+0003
 11
 1.08909264765520E+0003
 21
 1.09634397325520E+0003
  0
LINE
  8
0
 10
 1.08909264765520E+0003
 20
 1.09634397325520E+0003
 11
 1.09146751651250E+0003
 21
 1.08532897463750E+0003
  0
LINE
  8
0
 10
 1.09146751651250E+0003
 20
 1.08532897463750E+0003
 11
 1.09395942343680E+0003
 21
 1.07443352583680E+0003
  0
LINE
  8
0
 10
 1.09395942343680E+0003
 20
 1.07443352583680E+0003
 11
 1.09656503535790E+0003
 21
 1.06365424593290E+0003
  0
LINE
  8
0
 10
 1.09656503535790E+0003
 20
 1.06365424593290E+0003
 11
 1.09928101920560E+0003
 21
 1.05298775400560E+0003
  0
LINE
  8
0
 10
 1.09928101920560E+0003
 20
 1.05298775400560E+0003
 11
 1.10210404190970E+0003
 21
 1.04243066913470E+0003
  0
LINE
  8
0
 10
 1.10210404190970E+0003
 20
 1.04243066913470E+0003
 11
 1.10503077040000E+0003
 21
 1.03197961040000E+0003
  0
LINE
  8
0
 10
 1.10503077040000E+0003
 20
 1.03197961040000E+0003
 11
 1.10805787160630E+0003
 21
 1.02163119688130E+0003
  0
LINE
  8
0
 10
 1.10805787160630E+0003
 20
 1.02163119688130E+0003
 11
 1.11118201245840E+0003
 21
 1.01138204765840E+0003
  0
LINE
  8
0
 10
 1.11118201245840E+0003
 20
 1.01138204765840E+0003
 11
 1.11439985988610E+0003
 21
 1.00122878181110E+0003
  0
LINE
  8
0
 10
 1.11439985988610E+0003
 20
 1.00122878181110E+0003
 11
 1.11770808081920E+0003
 21
 9.91168018419200E+0002
  0
LINE
  8
0
 10
 1.11770808081920E+0003
 20
 9.91168018419200E+0002
 11
 1.12110334218750E+0003
 21
 9.81196376562500E+0002
  0
LINE
  8
0
 10
 1.12110334218750E+0003
 20
 9.81196376562500E+0002
 11
 1.12458231092080E+0003
 21
 9.71310475320800E+0002
  0
LINE
  8
0
 10
 1.12458231092080E+0003
 20
 9.71310475320800E+0002
 11
 1.12814165394890E+0003
 21
 9.61506933773900E+0002
  0
LINE
  8
0
 10
 1.12814165394890E+0003
 20
 9.61506933773900E+0002
 11
 1.13177803820160E+0003
 21
 9.51782371001600E+0002
  0
LINE
  8
0
 10
 1.13177803820160E+0003
 20
 9.51782371001600E+0002
 11
 1.13548813060870E+0003
 21
 9.42133406083700E+0002
  0
LINE
  8
0
 10
 1.13548813060870E+0003
 20
 9.42133406083700E+0002
 11
 1.13926859810000E+0003
 21
 9.32556658100000E+0002
  0
LINE
  8
0
 10
 1.13926859810000E+0003
 20
 9.32556658100000E+0002
 11
 1.14311610760530E+0003
 21
 9.23048746130300E+0002
  0
LINE
  8
0
 10
 1.14311610760530E+0003
 20
 9.23048746130300E+0002
 11
 1.14702732605440E+0003
 21
 9.13606289254400E+0002
  0
LINE
  8
0
 10
 1.14702732605440E+0003
 20
 9.13606289254400E+0002
 11
 1.15099892037710E+0003
 21
 9.04225906552100E+0002
  0
LINE
  8
0
 10
 1.15099892037710E+0003
 20
 9.04225906552100E+0002
 11
 1.15502755750320E+0003
 21
 8.94904217103200E+0002
  0
LINE
  8
0
 10
 1.15502755750320E+0003
 20
 8.94904217103200E+0002
 11
 1.15910990436250E+0003
 21
 8.85637839987500E+0002
  0
LINE
  8
0
 10
 1.15910990436250E+0003
 20
 8.85637839987500E+0002
 11
 1.16324262788480E+0003
 21
 8.76423394284800E+0002
  0
LINE
  8
0
 10
 1.16324262788480E+0003
 20
 8.76423394284800E+0002
 11
 1.16742239499990E+0003
 21
 8.67257499074900E+0002
  0
LINE
  8
0
 10
 1.16742239499990E+0003
 20
 8.67257499074900E+0002
 11
 1.17164587263760E+0003
 21
 8.58136773437600E+0002
  0
LINE
  8
0
 10
 1.17164587263760E+0003
 20
 8.58136773437600E+0002
 11
 1.17590972772770E+0003
 21
 8.49057836452700E+0002
  0
LINE
  8
0
 10
 1.17590972772770E+0003
 20
 8.49057836452700E+0002
 11
 1.18021062720000E+0003
 21
 8.40017307200000E+0002
  0
LINE
  8
0
 10
 1.18021062720000E+0003
 20
 8.40017307200000E+0002
 11
 1.18454523798430E+0003
 21
 8.31011804759300E+0002
  0
LINE
  8
0
 10
 1.18454523798430E+0003
 20
 8.31011804759300E+0002
 11
 1.18891022701040E+0003
 21
 8.22037948210400E+0002
  0
LINE
  8
0
 10
 1.18891022701040E+0003
 20
 8.22037948210400E+0002
 11
 1.19330226120810E+0003
 21
 8.13092356633100E+0002
  0
LINE
  8
0
 10
 1.19330226120810E+0003
 20
 8.13092356633100E+0002
 11
 1.19771800750720E+0003
 21
 8.04171649107200E+0002
  0
LINE
  8
0
 10
 1.19771800750720E+0003
 20
 8.04171649107200E+0002
 11
 1.20215413283750E+0003
 21
 7.95272444712500E+0002
  0
LINE
  8
0
 10
 1.20215413283750E+0003
 20
 7.95272444712500E+0002
 11
 1.20660730412880E+0003
 21
 7.86391362528800E+0002
  0
LINE
  8
0
 10
 1.20660730412880E+0003
 20
 7.86391362528800E+0002
 11
 1.21107418831090E+0003
 21
 7.77525021635900E+0002
  0
LINE
  8
0
 10
 1.21107418831090E+0003
 20
 7.77525021635900E+0002
 11
 1.21555145231360E+0003
 21
 7.68670041113600E+0002
  0
LINE
  8
0
 10
 1.21555145231360E+0003
 20
 7.68670041113600E+0002
 11
 1.22003576306670E+0003
 21
 7.59823040041700E+0002
  0
LINE
  8
0
 10
 1.22003576306670E+0003
 20
 7.59823040041700E+0002
 11
 1.22452378750000E+0003
 21
 7.50980637500000E+0002
  0
LINE
  8
0
 10
 1.22452378750000E+0003
 20
 7.50980637500000E+0002
 11
 1.22901219254330E+0003
 21
 7.42139452568300E+0002
  0
LINE
  8
0
 10
 1.22901219254330E+0003
 20
 7.42139452568300E+0002
 11
 1.23349764512640E+0003
 21
 7.33296104326400E+0002
  0
LINE
  8
0
 10
 1.23349764512640E+0003
 20
 7.33296104326400E+0002
 11
 1.23797681217910E+0003
 21
 7.24447211854100E+0002
  0
LINE
  8
0
 10
 1.23797681217910E+0003
 20
 7.24447211854100E+0002
 11
 1.24244636063120E+0003
 21
 7.15589394231200E+0002
  0
LINE
  8
0
 10
 1.24244636063120E+0003
 20
 7.15589394231200E+0002
 11
 1.24690295741250E+0003
 21
 7.06719270537500E+0002
  0
LINE
  8
0
 10
 1.24690295741250E+0003
 20
 7.06719270537500E+0002
 11
 1.25134326945280E+0003
 21
 6.97833459852800E+0002
  0
LINE
  8
0
 10
 1.25134326945280E+0003
 20
 6.97833459852800E+0002
 11
 1.25576396368190E+0003
 21
 6.88928581256900E+0002
  0
LINE
  8
0
 10
 1.25576396368190E+0003
 20
 6.88928581256900E+0002
 11
 1.26016170702960E+0003
 21
 6.80001253829600E+0002
  0
LINE
  8
0
 10
 1.26016170702960E+0003
 20
 6.80001253829600E+0002
 11
 1.26453316642570E+0003
 21
 6.71048096650700E+0002
  0
LINE
  8
0
 10
 1.26453316642570E+0003
 20
 6.71048096650700E+0002
 11
 1.26887500880000E+0003
 21
 6.62065728800000E+0002
  0
LINE
  8
0
 10
 1.26887500880000E+0003
 20
 6.62065728800000E+0002
 11
 1.27318390108230E+0003
 21
 6.53050769357300E+0002
  0
LINE
  8
0
 10
 1.27318390108230E+0003
 20
 6.53050769357300E+0002
 11
 1.27745651020240E+0003
 21
 6.43999837402400E+0002
  0
LINE
  8
0
 10
 1.27745651020240E+0003
 20
 6.43999837402400E+0002
 11
 1.28168950309010E+0003
 21
 6.34909552015100E+0002
  0
LINE
  8
0
 10
 1.28168950309010E+0003
 20
 6.34909552015100E+0002
 11
 1.28587954667520E+0003
 21
 6.25776532275200E+0002
  0
LINE
  8
0
 10
 1.28587954667520E+0003
 20
 6.25776532275200E+0002
 11
 1.29002330788750E+0003
 21
 6.16597397262500E+0002
  0
LINE
  8
0
 10
 1.29002330788750E+0003
 20
 6.16597397262500E+0002
 11
 1.29411745365680E+0003
 21
 6.07368766056800E+0002
  0
LINE
  8
0
 10
 1.29411745365680E+0003
 20
 6.07368766056800E+0002
 11
 1.29815865091290E+0003
 21
 5.98087257737900E+0002
  0
LINE
  8
0
 10
 1.29815865091290E+0003
 20
 5.98087257737900E+0002
 11
 1.30214356658560E+0003
 21
 5.88749491385600E+0002
  0
LINE
  8
0
 10
 1.30214356658560E+0003
 20
 5.88749491385600E+0002
 11
 1.30606886760470E+0003
 21
 5.79352086079700E+0002
  0
LINE
  8
0
 10
 1.30606886760470E+0003
 20
 5.79352086079700E+0002
 11
 1.30993122090000E+0003
 21
 5.69891660900000E+0002
  0
LINE
  8
0
 10
 1.30993122090000E+0003
 20
 5.69891660900000E+0002
 11
 1.31372729340130E+0003
 21
 5.60364834926300E+0002
  0
LINE
  8
0
 10
 1.31372729340130E+0003
 20
 5.60364834926300E+0002
 11
 1.31745375203840E+0003
 21
 5.50768227238400E+0002
  0
LINE
  8
0
 10
 1.31745375203840E+0003
 20
 5.50768227238400E+0002
 11
 1.32110726374110E+0003
 21
 5.41098456916100E+0002
  0
LINE
  8
0
 10
 1.32110726374110E+0003
 20
 5.41098456916100E+0002
 11
 1.32468449543920E+0003
 21
 5.31352143039200E+0002
  0
LINE
  8
0
 10
 1.32468449543920E+0003
 20
 5.31352143039200E+0002
 11
 1.32818211406250E+0003
 21
 5.21525904687500E+0002
  0
LINE
  8
0
 10
 1.32818211406250E+0003
 20
 5.21525904687500E+0002
 11
 1.33159678654080E+0003
 21
 5.11616360940800E+0002
  0
LINE
  8
0
 10
 1.33159678654080E+0003
 20
 5.11616360940800E+0002
 11
 1.33492517980390E+0003
 21
 5.01620130878900E+0002
  0
LINE
  8
0
 10
 1.33492517980390E+0003
 20
 5.01620130878900E+0002
 11
 1.33816396078160E+0003
 21
 4.91533833581600E+0002
  0
LINE
  8
0
 10
 1.33816396078160E+0003
 20
 4.91533833581600E+0002
 11
 1.34130979640370E+0003
 21
 4.81354088128700E+0002
  0
LINE
  8
0
 10
 1.34130979640370E+0003
 20
 4.81354088128700E+0002
 11
 1.34435935360000E+0003
 21
 4.71077513600000E+0002
  0
LINE
  8
0
 10
 1.34435935360000E+0003
 20
 4.71077513600000E+0002
 11
 1.34730929930030E+0003
 21
 4.60700729075300E+0002
  0
LINE
  8
0
 10
 1.34730929930030E+0003
 20
 4.60700729075300E+0002
 11
 1.35015630043440E+0003
 21
 4.50220353634400E+0002
  0
LINE
  8
0
 10
 1.35015630043440E+0003
 20
 4.50220353634400E+0002
 11
 1.35289702393210E+0003
 21
 4.39633006357100E+0002
  0
LINE
  8
0
 10
 1.35289702393210E+0003
 20
 4.39633006357100E+0002
 11
 1.35552813672320E+0003
 21
 4.28935306323200E+0002
  0
LINE
  8
0
 10
 1.35552813672320E+0003
 20
 4.28935306323200E+0002
 11
 1.35804630573750E+0003
 21
 4.18123872612500E+0002
  0
LINE
  8
0
 10
 1.35804630573750E+0003
 20
 4.18123872612500E+0002
 11
 1.36044819790480E+0003
 21
 4.07195324304800E+0002
  0
LINE
  8
0
 10
 1.36044819790480E+0003
 20
 4.07195324304800E+0002
 11
 1.36273048015490E+0003
 21
 3.96146280479900E+0002
  0
LINE
  8
0
 10
 1.36273048015490E+0003
 20
 3.96146280479900E+0002
 11
 1.36488981941760E+0003
 21
 3.84973360217600E+0002
  0
LINE
  8
0
 10
 1.36488981941760E+0003
 20
 3.84973360217600E+0002
 11
 1.36692288262270E+0003
 21
 3.73673182597700E+0002
  0
LINE
  8
0
 10
 1.36692288262270E+0003
 20
 3.73673182597700E+0002
 11
 1.36882633670000E+0003
 21
 3.62242366700000E+0002
  0
LINE
  8
0
 10
 1.36882633670000E+0003
 20
 3.62242366700000E+0002
 11
 1.37059684857930E+0003
 21
 3.50677531604300E+0002
  0
LINE
  8
0
 10
 1.37059684857930E+0003
 20
 3.50677531604300E+0002
 11
 1.37223108519040E+0003
 21
 3.38975296390400E+0002
  0
LINE
  8
0
 10
 1.37223108519040E+0003
 20
 3.38975296390400E+0002
 11
 1.37372571346310E+0003
 21
 3.27132280138100E+0002
  0
LINE
  8
0
 10
 1.37372571346310E+0003
 20
 3.27132280138100E+0002
 11
 1.37507740032720E+0003
 21
 3.15145101927200E+0002
  0
LINE
  8
0
 10
 1.37507740032720E+0003
 20
 3.15145101927200E+0002
 11
 1.37628281271250E+0003
 21
 3.03010380837500E+0002
  0
LINE
  8
0
 10
 1.37628281271250E+0003
 20
 3.03010380837500E+0002
 11
 1.37733861754880E+0003
 21
 2.90724735948800E+0002
  0
LINE
  8
0
 10
 1.37733861754880E+0003
 20
 2.90724735948800E+0002
 11
 1.37824148176590E+0003
 21
 2.78284786340900E+0002
  0
LINE
  8
0
 10
 1.37824148176590E+0003
 20
 2.78284786340900E+0002
 11
 1.37898807229360E+0003
 21
 2.65687151093600E+0002
  0
LINE
  8
0
 10
 1.37898807229360E+0003
 20
 2.65687151093600E+0002
 11
 1.37957505606170E+0003
 21
 2.52928449286700E+0002
  0
LINE
  8
0
 10
 1.37957505606170E+0003
 20
 2.52928449286700E+0002
 11
 1.37999910000000E+0003
 21
 2.40005300000000E+0002
  0
LINE
  8
0
 10
 1.37999910000000E+0003
 20
 2.40005300000000E+0002
 11
 1.38000000000000E+0003
 21
 1.55000000000000E+0002
  0
LINE
  8
0
 10
 1.38000000000000E+0003
 20
 1.55000000000000E+0002
 11
 1.32000000000000E+0003
 21
 1.55000000000000E+0002
  0
LINE
  8
0
 10
 1.32000000000000E+0003
 20
 1.55000000000000E+0002
 11
 1.32000000000000E+0003
 21
 2.40005300000000E+0002
  0
LINE
  8
0
 10
 1.32000000000000E+0003
 20
 2.40005300000000E+0002
 11
 1.31957594391170E+0003
 21
 2.52928449294400E+0002
  0
LINE
  8
0
 10
 1.31957594391170E+0003
 20
 2.52928449294400E+0002
 11
 1.31898894769360E+0003
 21
 2.65687151155200E+0002
  0
LINE
  8
0
 10
 1.31898894769360E+0003
 20
 2.65687151155200E+0002
 11
 1.31824234441590E+0003
 21
 2.78284786548800E+0002
  0
LINE
  8
0
 10
 1.31824234441590E+0003
 20
 2.78284786548800E+0002
 11
 1.31733946714880E+0003
 21
 2.90724736441600E+0002
  0
LINE
  8
0
 10
 1.31733946714880E+0003
 20
 2.90724736441600E+0002
 11
 1.31628364896250E+0003
 21
 3.03010381800000E+0002
  0
LINE
  8
0
 10
 1.31628364896250E+0003
 20
 3.03010381800000E+0002
 11
 1.31507822292720E+0003
 21
 3.15145103590400E+0002
  0
LINE
  8
0
 10
 1.31507822292720E+0003
 20
 3.15145103590400E+0002
 11
 1.31372652211310E+0003
 21
 3.27132282779200E+0002
  0
LINE
  8
0
 10
 1.31372652211310E+0003
 20
 3.27132282779200E+0002
 11
 1.31223187959040E+0003
 21
 3.38975300332800E+0002
  0
LINE
  8
0
 10
 1.31223187959040E+0003
 20
 3.38975300332800E+0002
 11
 1.31059762842930E+0003
 21
 3.50677537217600E+0002
  0
LINE
  8
0
 10
 1.31059762842930E+0003
 20
 3.50677537217600E+0002
 11
 1.30882710170000E+0003
 21
 3.62242374400000E+0002
  0
LINE
  8
0
 10
 1.30882710170000E+0003
 20
 3.62242374400000E+0002
 11
 1.30692363247270E+0003
 21
 3.73673192846400E+0002
  0
LINE
  8
0
 10
 1.30692363247270E+0003
 20
 3.73673192846400E+0002
 11
 1.30489055381760E+0003
 21
 3.84973373523200E+0002
  0
LINE
  8
0
 10
 1.30489055381760E+0003
 20
 3.84973373523200E+0002
 11
 1.30273119880490E+0003
 21
 3.96146297396800E+0002
  0
LINE
  8
0
 10
 1.30273119880490E+0003
 20
 3.96146297396800E+0002
 11
 1.30044890050480E+0003
 21
 4.07195345433600E+0002
  0
LINE
  8
0
 10
 1.30044890050480E+0003
 20
 4.07195345433600E+0002
 11
 1.29804699198750E+0003
 21
 4.18123898600000E+0002
  0
LINE
  8
0
 10
 1.29804699198750E+0003
 20
 4.18123898600000E+0002
 11
 1.29552880632320E+0003
 21
 4.28935337862400E+0002
  0
LINE
  8
0
 10
 1.29552880632320E+0003
 20
 4.28935337862400E+0002
 11
 1.29289767658210E+0003
 21
 4.39633044187200E+0002
  0
LINE
  8
0
 10
 1.29289767658210E+0003
 20
 4.39633044187200E+0002
 11
 1.29015693583440E+0003
 21
 4.50220398540800E+0002
  0
LINE
  8
0
 10
 1.29015693583440E+0003
 20
 4.50220398540800E+0002
 11
 1.28730991715030E+0003
 21
 4.60700781889600E+0002
  0
LINE
  8
0
 10
 1.28730991715030E+0003
 20
 4.60700781889600E+0002
 11
 1.28435995360000E+0003
 21
 4.71077575200000E+0002
  0
LINE
  8
0
 10
 1.28435995360000E+0003
 20
 4.71077575200000E+0002
 11
 1.28131037825370E+0003
 21
 4.81354159438400E+0002
  0
LINE
  8
0
 10
 1.28131037825370E+0003
 20
 4.81354159438400E+0002
 11
 1.27816452418160E+0003
 21
 4.91533915571200E+0002
  0
LINE
  8
0
 10
 1.27816452418160E+0003
 20
 4.91533915571200E+0002
 11
 1.27492572445390E+0003
 21
 5.01620224564800E+0002
  0
LINE
  8
0
 10
 1.27492572445390E+0003
 20
 5.01620224564800E+0002
 11
 1.27159731214080E+0003
 21
 5.11616467385600E+0002
  0
LINE
  8
0
 10
 1.27159731214080E+0003
 20
 5.11616467385600E+0002
 11
 1.26818262031250E+0003
 21
 5.21526025000000E+0002
  0
LINE
  8
0
 10
 1.26818262031250E+0003
 20
 5.21526025000000E+0002
 11
 1.26468498203920E+0003
 21
 5.31352278374400E+0002
  0
LINE
  8
0
 10
 1.26468498203920E+0003
 20
 5.31352278374400E+0002
 11
 1.26110773039110E+0003
 21
 5.41098608475200E+0002
  0
LINE
  8
0
 10
 1.26110773039110E+0003
 20
 5.41098608475200E+0002
 11
 1.25745419843840E+0003
 21
 5.50768396268800E+0002
  0
LINE
  8
0
 10
 1.25745419843840E+0003
 20
 5.50768396268800E+0002
 11
 1.25372771925130E+0003
 21
 5.60365022721600E+0002
  0
LINE
  8
0
 10
 1.25372771925130E+0003
 20
 5.60365022721600E+0002
 11
 1.24993162590000E+0003
 21
 5.69891868800000E+0002
  0
LINE
  8
0
 10
 1.24993162590000E+0003
 20
 5.69891868800000E+0002
 11
 1.24606925145470E+0003
 21
 5.79352315470400E+0002
  0
LINE
  8
0
 10
 1.24606925145470E+0003
 20
 5.79352315470400E+0002
 11
 1.24214392898560E+0003
 21
 5.88749743699200E+0002
  0
LINE
  8
0
 10
 1.24214392898560E+0003
 20
 5.88749743699200E+0002
 11
 1.23815899156290E+0003
 21
 5.98087534452800E+0002
  0
LINE
  8
0
 10
 1.23815899156290E+0003
 20
 5.98087534452800E+0002
 11
 1.23411777225680E+0003
 21
 6.07369068697600E+0002
  0
LINE
  8
0
 10
 1.23411777225680E+0003
 20
 6.07369068697600E+0002
 11
 1.23002360413750E+0003
 21
 6.16597727400000E+0002
  0
LINE
  8
0
 10
 1.23002360413750E+0003
 20
 6.16597727400000E+0002
 11
 1.22587982027520E+0003
 21
 6.25776891526400E+0002
  0
LINE
  8
0
 10
 1.22587982027520E+0003
 20
 6.25776891526400E+0002
 11
 1.22168975374010E+0003
 21
 6.34909942043200E+0002
  0
LINE
  8
0
 10
 1.22168975374010E+0003
 20
 6.34909942043200E+0002
 11
 1.21745673760240E+0003
 21
 6.44000259916800E+0002
  0
LINE
  8
0
 10
 1.21745673760240E+0003
 20
 6.44000259916800E+0002
 11
 1.21318410493230E+0003
 21
 6.53051226113600E+0002
  0
LINE
  8
0
 10
 1.21318410493230E+0003
 20
 6.53051226113600E+0002
 11
 1.20887518880000E+0003
 21
 6.62066221600000E+0002
  0
LINE
  8
0
 10
 1.20887518880000E+0003
 20
 6.62066221600000E+0002
 11
 1.20453332227570E+0003
 21
 6.71048627342400E+0002
  0
LINE
  8
0
 10
 1.20453332227570E+0003
 20
 6.71048627342400E+0002
 11
 1.20016183842960E+0003
 21
 6.80001824307200E+0002
  0
LINE
  8
0
 10
 1.20016183842960E+0003
 20
 6.80001824307200E+0002
 11
 1.19576407033190E+0003
 21
 6.88929193460800E+0002
  0
LINE
  8
0
 10
 1.19576407033190E+0003
 20
 6.88929193460800E+0002
 11
 1.19134335105280E+0003
 21
 6.97834115769600E+0002
  0
LINE
  8
0
 10
 1.19134335105280E+0003
 20
 6.97834115769600E+0002
 11
 1.18690301366250E+0003
 21
 7.06719972200000E+0002
  0
LINE
  8
0
 10
 1.18690301366250E+0003
 20
 7.06719972200000E+0002
 11
 1.18244639123120E+0003
 21
 7.15590143718400E+0002
  0
LINE
  8
0
 10
 1.18244639123120E+0003
 20
 7.15590143718400E+0002
 11
 1.17797681682910E+0003
 21
 7.24448011291200E+0002
  0
LINE
  8
0
 10
 1.17797681682910E+0003
 20
 7.24448011291200E+0002
 11
 1.17349762352640E+0003
 21
 7.33296955884800E+0002
  0
LINE
  8
0
 10
 1.17349762352640E+0003
 20
 7.33296955884800E+0002
 11
 1.16901214439330E+0003
 21
 7.42140358465600E+0002
  0
LINE
  8
0
 10
 1.16901214439330E+0003
 20
 7.42140358465600E+0002
 11
 1.16452371250000E+0003
 21
 7.50981600000000E+0002
  0
LINE
  8
0
 10
 1.16452371250000E+0003
 20
 7.50981600000000E+0002
 11
 1.16003566091670E+0003
 21
 7.59824061454400E+0002
  0
LINE
  8
0
 10
 1.16003566091670E+0003
 20
 7.59824061454400E+0002
 11
 1.15555132271360E+0003
 21
 7.68671123795200E+0002
  0
LINE
  8
0
 10
 1.15555132271360E+0003
 20
 7.68671123795200E+0002
 11
 1.15107403096090E+0003
 21
 7.77526167988800E+0002
  0
LINE
  8
0
 10
 1.15107403096090E+0003
 20
 7.77526167988800E+0002
 11
 1.14660711872880E+0003
 21
 7.86392575001600E+0002
  0
LINE
  8
0
 10
 1.14660711872880E+0003
 20
 7.86392575001600E+0002
 11
 1.14215391908750E+0003
 21
 7.95273725800000E+0002
  0
LINE
  8
0
 10
 1.14215391908750E+0003
 20
 7.95273725800000E+0002
 11
 1.13771776510720E+0003
 21
 8.04173001350400E+0002
  0
LINE
  8
0
 10
 1.13771776510720E+0003
 20
 8.04173001350400E+0002
 11
 1.13330198985810E+0003
 21
 8.13093782619200E+0002
  0
LINE
  8
0
 10
 1.13330198985810E+0003
 20
 8.13093782619200E+0002
 11
 1.12890992641040E+0003
 21
 8.22039450572800E+0002
  0
LINE
  8
0
 10
 1.12890992641040E+0003
 20
 8.22039450572800E+0002
 11
 1.12454490783430E+0003
 21
 8.31013386177600E+0002
  0
LINE
  8
0
 10
 1.12454490783430E+0003
 20
 8.31013386177600E+0002
 11
 1.12021026720000E+0003
 21
 8.40018970400000E+0002
  0
LINE
  8
0
 10
 1.12021026720000E+0003
 20
 8.40018970400000E+0002
 11
 1.11590933757770E+0003
 21
 8.49059584206400E+0002
  0
LINE
  8
0
 10
 1.11590933757770E+0003
 20
 8.49059584206400E+0002
 11
 1.11164545203760E+0003
 21
 8.58138608563200E+0002
  0
LINE
  8
0
 10
 1.11164545203760E+0003
 20
 8.58138608563200E+0002
 11
 1.10742194364990E+0003
 21
 8.67259424436800E+0002
  0
LINE
  8
0
 10
 1.10742194364990E+0003
 20
 8.67259424436800E+0002
 11
 1.10324214548480E+0003
 21
 8.76425412793600E+0002
  0
LINE
  8
0
 10
 1.10324214548480E+0003
 20
 8.76425412793600E+0002
 11
 1.09910939061250E+0003
 21
 8.85639954600000E+0002
  0
LINE
  8
0
 10
 1.09910939061250E+0003
 20
 8.85639954600000E+0002
 11
 1.09502701210320E+0003
 21
 8.94906430822400E+0002
  0
LINE
  8
0
 10
 1.09502701210320E+0003
 20
 8.94906430822400E+0002
 11
 1.09099834302710E+0003
 21
 9.04228222427200E+0002
  0
LINE
  8
0
 10
 1.09099834302710E+0003
 20
 9.04228222427200E+0002
 11
 1.08702671645440E+0003
 21
 9.13608710380800E+0002
  0
LINE
  8
0
 10
 1.08702671645440E+0003
 20
 9.13608710380800E+0002
 11
 1.08311546545530E+0003
 21
 9.23051275649600E+0002
  0
LINE
  8
0
 10
 1.08311546545530E+0003
 20
 9.23051275649600E+0002
 11
 1.07926792310000E+0003
 21
 9.32559299200000E+0002
  0
LINE
  8
0
 10
 1.07926792310000E+0003
 20
 9.32559299200000E+0002
 11
 1.07548742245870E+0003
 21
 9.42136161998400E+0002
  0
LINE
  8
0
 10
 1.07548742245870E+0003
 20
 9.42136161998400E+0002
 11
 1.07177729660160E+0003
 21
 9.51785245011200E+0002
  0
LINE
  8
0
 10
 1.07177729660160E+0003
 20
 9.51785245011200E+0002
 11
 1.06814087859890E+0003
 21
 9.61509929204800E+0002
  0
LINE
  8
0
 10
 1.06814087859890E+0003
 20
 9.61509929204800E+0002
 11
 1.06458150152080E+0003
 21
 9.71313595545600E+0002
  0
LINE
  8
0
 10
 1.06458150152080E+0003
 20
 9.71313595545600E+0002
 11
 1.06110249843750E+0003
 21
 9.81199625000000E+0002
  0
LINE
  8
0
 10
 1.06110249843750E+0003
 20
 9.81199625000000E+0002
 11
 1.05770720241920E+0003
 21
 9.91171398534400E+0002
  0
LINE
  8
0
 10
 1.05770720241920E+0003
 20
 9.91171398534400E+0002
 11
 1.05439894653610E+0003
 21
 1.00123229711520E+0003
  0
LINE
  8
0
 10
 1.05439894653610E+0003
 20
 1.00123229711520E+0003
 11
 1.05118106385840E+0003
 21
 1.01138570170880E+0003
  0
LINE
  8
0
 10
 1.05118106385840E+0003
 20
 1.01138570170880E+0003
 11
 1.04805688745630E+0003
 21
 1.02163499328160E+0003
  0
LINE
  8
0
 10
 1.04805688745630E+0003
 20
 1.02163499328160E+0003
 11
 1.04502975040000E+0003
 21
 1.03198355280000E+0003
  0
LINE
  8
0
 10
 1.04502975040000E+0003
 20
 1.03198355280000E+0003
 11
 1.04210298575970E+0003
 21
 1.04243476123040E+0003
  0
LINE
  8
0
 10
 1.04210298575970E+0003
 20
 1.04243476123040E+0003
 11
 1.03927992660560E+0003
 21
 1.05299199953920E+0003
  0
LINE
  8
0
 10
 1.03927992660560E+0003
 20
 1.05299199953920E+0003
 11
 1.03656390600790E+0003
 21
 1.06365864869280E+0003
  0
LINE
  8
0
 10
 1.03656390600790E+0003
 20
 1.06365864869280E+0003
 11
 1.03395825703680E+0003
 21
 1.07443808965760E+0003
  0
LINE
  8
0
 10
 1.03395825703680E+0003
 20
 1.07443808965760E+0003
 11
 1.03146631276250E+0003
 21
 1.08533370340000E+0003
  0
LINE
  8
0
 10
 1.03146631276250E+0003
 20
 1.08533370340000E+0003
 11
 1.02909140625520E+0003
 21
 1.09634887088640E+0003
  0
LINE
  8
0
 10
 1.02909140625520E+0003
 20
 1.09634887088640E+0003
 11
 1.02683687058510E+0003
 21
 1.10748697308320E+0003
  0
LINE
  8
0
 10
 1.02683687058510E+0003
 20
 1.10748697308320E+0003
 11
 1.02470603882240E+0003
 21
 1.11875139095680E+0003
  0
LINE
  8
0
 10
 1.02470603882240E+0003
 20
 1.11875139095680E+0003
 11
 1.02270224403730E+0003
 21
 1.13014550547360E+0003
  0
LINE
  8
0
 10
 1.02270224403730E+0003
 20
 1.13014550547360E+0003
 11
 1.02082881930000E+0003
 21
 1.14167269760000E+0003
  0
LINE
  8
0
 10
 1.02082881930000E+0003
 20
 1.14167269760000E+0003
 11
 1.01908909768070E+0003
 21
 1.15333634830240E+0003
  0
LINE
  8
0
 10
 1.01908909768070E+0003
 20
 1.15333634830240E+0003
 11
 1.01748641224960E+0003
 21
 1.16513983854720E+0003
  0
LINE
  8
0
 10
 1.01748641224960E+0003
 20
 1.16513983854720E+0003
 11
 1.01602409607690E+0003
 21
 1.17708654930080E+0003
  0
LINE
  8
0
 10
 1.01602409607690E+0003
 20
 1.17708654930080E+0003
 11
 1.01470548223280E+0003
 21
 1.18917986152960E+0003
  0
LINE
  8
0
 10
 1.01470548223280E+0003
 20
 1.18917986152960E+0003
 11
 1.01353390378750E+0003
 21
 1.20142315620000E+0003
  0
LINE
  8
0
 10
 1.01353390378750E+0003
 20
 1.20142315620000E+0003
 11
 1.01251269381120E+0003
 21
 1.21381981427840E+0003
  0
LINE
  8
0
 10
 1.01251269381120E+0003
 20
 1.21381981427840E+0003
 11
 1.01164518537410E+0003
 21
 1.22637321673120E+0003
  0
LINE
  8
0
 10
 1.01164518537410E+0003
 20
 1.22637321673120E+0003
 11
 1.01093471154640E+0003
 21
 1.23908674452480E+0003
  0
LINE
  8
0
 10
 1.01093471154640E+0003
 20
 1.23908674452480E+0003
 11
 1.01038460539830E+0003
 21
 1.25196377862560E+0003
  0
LINE
  8
0
 10
 1.01038460539830E+0003
 20
 1.25196377862560E+0003
 11
 1.00999820000000E+0003
 21
 1.26500770000000E+0003
  0
LINE
  8
0
 10
 1.00999820000000E+0003
 20
 1.26500770000000E+0003
 11
 1.01000000000000E+0003
 21
 1.30700000000000E+0003
  0
LINE
  8
0
 10
 1.01000000000000E+0003
 20
 1.30700000000000E+0003
 11
 9.64999490553610E+0002
 21
 1.29538091843480E+0003
  0
ARC
  8
0
 10
 9.62000000000000E+0002
 20
 1.30700000000000E+0003
 40
 1.20000000000000E+0001
 50
 1.46195000000000E+0002
 51
 2.84475000000000E+0002
  0
LINE
  8
0
 10
 9.52028768958083E+0002
 20
 1.31367641756549E+0003
 11
 1.04000000000000E+0003
 21
 1.44500000000000E+0003
  0
LINE
  8
0
 10
 1.04000000000000E+0003
 20
 1.44500000000000E+0003
 11
 1.12797123104192E+0003
 21
 1.31367641756549E+0003
  0
ARC
  8
0
 10
 1.11800000000000E+0003
 20
 1.30700000000000E+0003
 40
 1.20000000000000E+0001
 50
 2.55525000000000E+0002
 51
 3.93805000000000E+0002
  0
LINE
  8
0
 10
 1.11500050944639E+0003
 20
 1.29538091843480E+0003
 11
 1.07000000000000E+0003
 21
 1.30700000000000E+0003
  0
LINE
  8
0
 10
 1.07000000000000E+0003
 20
 1.30700000000000E+0003
 11
 1.07000000000000E+0003
 21
 1.26500000000000E+0003
  0
LINE
  8
0
 10
 3.30000000000000E+0002
 20
 1.53500000000000E+0003
 11
 3.60000000000000E+0002
 21
 1.53500000000000E+0003
  0
ARC
  8
0
 10
-3.90000000000000E+0002
 20
 1.53500000000000E+0003
 40
 7.50000000000000E+0002
 50
 3.40811860000000E+0002
 51
 3.60000000000000E+0002
  0
LINE
  8
0
 10
 3.18333318076195E+0002
 20
 1.28849663186243E+0003
 11
 3.18333332723048E+0002
 21
 1.28849686527450E+0003
  0
ARC
  8
0
 10
 2.90000000000000E+0002
 20
 1.29835700000000E+0003
 40
 3.00000000000000E+0001
 50
 1.99188140000000E+0002
 51
 3.40811860000000E+0002
  0
LINE
  8
0
 10
 2.61666667276952E+0002
 20
 1.28849686527450E+0003
 11
 2.61666681923805E+0002
 21
 1.28849663186243E+0003
  0
ARC
  8
0
 10
 9.70000000000000E+0002
 20
 1.53500000000000E+0003
 40
 7.50000000000000E+0002
 50
 1.80000000000000E+0002
 51
 1.99188140000000E+0002
  0
LINE
  8
0
 10
 2.20000000000000E+0002
 20
 1.53500000000000E+0003
 11
 2.50000000000000E+0002
 21
 1.53500000000000E+0003
  0
ARC
  8
0
 10
 9.70000000000000E+0002
 20
 1.53500000000000E+0003
 40
 7.20000000000000E+0002
 50
 1.80000000000000E+0002
 51
 1.99188140000000E+0002
  0
LINE
  8
0
 10
 2.90000014646853E+0002
 20
 1.29835676658793E+0003
 11
 2.89999985353147E+0002
 21
 1.29835676658793E+0003
  0
ARC
  8
0
 10
-3.90000000000000E+0002
 20
 1.53500000000000E+0003
 40
 7.20000000000000E+0002
 50
 3.40811860000000E+0002
 51
 3.60000000000000E+0002
  0
LINE
  8
0
 10
 6.20000000000000E+0002
 20
 6.50000000000000E+0001
 11
 6.50000000000000E+0002
 21
 6.50000000000000E+0001
  0
ARC
  8
0
 10
-1.00000000000000E+0002
 20
 6.50000000000000E+0001
 40
 7.50000000000000E+0002
 50
 0.00000000000000E+0000
 51
 1.91881400000000E+0001
  0
LINE
  8
0
 10
 6.08333318076195E+0002
 20
 3.11503368137575E+0002
 11
 6.08333332723048E+0002
 21
 3.11503134725503E+0002
  0
ARC
  8
0
 10
 5.80000000000000E+0002
 20
 3.01643000000000E+0002
 40
 3.00000000000000E+0001
 50
 1.91881400000000E+0001
 51
 1.60811860000000E+0002
  0
LINE
  8
0
 10
 5.51666667276952E+0002
 20
 3.11503134725503E+0002
 11
 5.51666681923806E+0002
 21
 3.11503368137575E+0002
  0
ARC
  8
0
 10
 1.26000000000000E+0003
 20
 6.50000000000000E+0001
 40
 7.50000000000000E+0002
 50
 1.60811860000000E+0002
 51
 1.80000000000000E+0002
  0
LINE
  8
0
 10
 5.10000000000000E+0002
 20
 6.50000000000000E+0001
 11
 5.40000000000000E+0002
 21
 6.50000000000000E+0001
  0
ARC
  8
0
 10
 1.26000000000000E+0003
 20
 6.50000000000000E+0001
 40
 7.20000000000000E+0002
 50
 1.60811860000000E+0002
 51
 1.80000000000000E+0002
  0
LINE
  8
0
 10
 5.80000014646853E+0002
 20
 3.01643233412072E+0002
 11
 5.79999985353147E+0002
 21
 3.01643233412072E+0002
  0
ARC
  8
0
 10
-1.00000000000000E+0002
 20
 6.50000000000000E+0001
 40
 7.20000000000000E+0002
 50
 0.00000000000000E+0000
 51
 1.91881400000000E+0001
  0
ENDSEC
  0
EOF
