  0
SECTION
  2
HEADER
  9
$ACADVER
  1
AC1003
  9
$INSBASE
 10
0.0
 20
0.0
  9
$EXTMIN
 10
 0.00000000000000E+0000
 20
 0.00000000000000E+0000
  9
$EXTMAX
 10
 1.60000000000000E+0003
 20
 1.60000000000000E+0003
  9
$LIMMIN
 10
0.0
 20
0.0
  9
$LIMMAX
 10
410.0
 20
287.0
  9
$VIEWCTR
 10
227.0059616
 20
165.058879 
  9
$VIEWSIZE
 40
 1.60000000000000E+0003
9
$SNAPMODE
70
0
9
$SNAPUNIT
10
1
20
1
9
$GRIDMODE
70
0
9
$GRIDUNIT
10
1
20
1
9
$ORTHOMODE
70
0
9
$rEGENMODE
70
1
9
$FILLMODE
70
1
9
$DRAGMODE
70
2
9
$LTSCALE
40
25.0
9
$OSMODE
70
0
9
$ATTMODE
70
1
9
$TRACEWID
40
1.0
9
$TEXTSTYLE
7
STANDARD
9
$CLAYER
8
0
9
$CELTYPE
6
VONLAYER
9
$CECOLOR
62
256
9
$LUNITS
70
2
9
$LUPREC
70
2
9
$AXISMODE
70
0
9
$AXISUNIT
10
0
20
0
9
$SKETCHINC
40
1.0
9
$FILLETRAD
40
0.0
9
$AUNITS
70
0
9
$AUPREC
70
0
9
$MENU
1
ACAD
9
$ELEVATION
40
0.0
9
$THICKNESS
40
0.0
9
$VIEWDIR
10
0.0
20
0.0
30
1.0
9
$LIMCHECK
70
0
9
$BLIPMODE
70
1
9
$CHAMFERA
40
0.0
9
$CHAMFERB
40
0.0
9
$USRTIMER
70
1
9
$ANGBASE
50
0.0
9
$ANGDIR
70
0
9
$PDMODE
70
0
9
$PDSIZE
40
0.0
9
$PLINEWID
40
0.0
9
$COORDS
70
0
0
ENDSEC
0
SECTION
2
TABLES
0
TABLE
2
LTYPE
70
1
0
LTYPE
2
AUSGEZOGEN
70
64
3
Ausgezogene Linie
72
65
73
0
40
0.0
0
ENDTAB
0
TABLE
2
LAYER
70
1
0
LAYER
2
0
70
0
62
7
6
AUSGEZOGEN
0
ENDTAB
0
TABLE
2
STYLE
70
1
0
STYLE
2
STANDARD
70
0
40
0.0
41
1.0
50
0.0
71
0
42
3.5
3
txt
4

0
ENDTAB
0
TABLE
2
VIEW
70
0
0
ENDTAB
0
ENDSEC
0
SECTION
2
BLOCKS
0
ENDSEC
0
SECTION
2
ENTITIES
  0
ARC
  8
0
 10
 6.00000000000000E+0001
 20
 6.00000000000000E+0001
 40
 6.00000000000000E+0001
 50
 1.80000000000000E+0002
 51
 2.70000000000000E+0002
  0
LINE
  8
0
 10
 0.00000000000000E+0000
 20
 6.00000000000000E+0001
 11
 0.00000000000000E+0000
 21
 1.54000000000000E+0003
  0
ARC
  8
0
 10
 6.00000000000000E+0001
 20
 1.54000000000000E+0003
 40
 6.00000000000000E+0001
 50
 9.00000000000000E+0001
 51
 1.80000000000000E+0002
  0
LINE
  8
0
 10
 6.00000000000000E+0001
 20
 1.60000000000000E+0003
 11
 1.54000000000000E+0003
 21
 1.60000000000000E+0003
  0
ARC
  8
0
 10
 1.54000000000000E+0003
 20
 1.54000000000000E+0003
 40
 6.00000000000000E+0001
 50
 0.00000000000000E+0000
 51
 9.00000000000000E+0001
  0
LINE
  8
0
 10
 1.60000000000000E+0003
 20
 1.54000000000000E+0003
 11
 1.60000000000000E+0003
 21
 6.00000000000000E+0001
  0
ARC
  8
0
 10
 1.54000000000000E+0003
 20
 6.00000000000000E+0001
 40
 6.00000000000000E+0001
 50
 2.70000000000000E+0002
 51
 3.60000000000000E+0002
  0
LINE
  8
0
 10
 1.54000000000000E+0003
 20
 0.00000000000000E+0000
 11
 6.00000000000000E+0001
 21
 0.00000000000000E+0000
  0
ARC
  8
0
 10
 6.00000000000000E+0001
 20
 6.00000000000000E+0001
 40
 4.50000000000000E+0001
 50
 1.80000000000000E+0002
 51
 2.70000000000000E+0002
  0
LINE
  8
0
 10
 1.50000000000000E+0001
 20
 6.00000000000000E+0001
 11
 1.50000000000000E+0001
 21
 1.54000000000000E+0003
  0
ARC
  8
0
 10
 6.00000000000000E+0001
 20
 1.54000000000000E+0003
 40
 4.50000000000000E+0001
 50
 9.00000000000000E+0001
 51
 1.80000000000000E+0002
  0
LINE
  8
0
 10
 6.00000000000000E+0001
 20
 1.58500000000000E+0003
 11
 1.54000000000000E+0003
 21
 1.58500000000000E+0003
  0
ARC
  8
0
 10
 1.54000000000000E+0003
 20
 1.54000000000000E+0003
 40
 4.50000000000000E+0001
 50
 0.00000000000000E+0000
 51
 9.00000000000000E+0001
  0
LINE
  8
0
 10
 1.58500000000000E+0003
 20
 1.54000000000000E+0003
 11
 1.58500000000000E+0003
 21
 6.00000000000000E+0001
  0
ARC
  8
0
 10
 1.54000000000000E+0003
 20
 6.00000000000000E+0001
 40
 4.50000000000000E+0001
 50
 2.70000000000000E+0002
 51
 3.60000000000000E+0002
  0
LINE
  8
0
 10
 1.54000000000000E+0003
 20
 1.50000000000000E+0001
 11
 6.00000000000000E+0001
 21
 1.50000000000000E+0001
  0
ARC
  8
0
 10
 6.00000000000000E+0001
 20
 6.00000000000000E+0001
 40
 2.50000000000000E+0001
 50
 1.80000000000000E+0002
 51
 2.70000000000000E+0002
  0
LINE
  8
0
 10
 3.50000000000000E+0001
 20
 6.00000000000000E+0001
 11
 3.50000000000000E+0001
 21
 1.54000000000000E+0003
  0
ARC
  8
0
 10
 6.00000000000000E+0001
 20
 1.54000000000000E+0003
 40
 2.50000000000000E+0001
 50
 9.00000000000000E+0001
 51
 1.80000000000000E+0002
  0
LINE
  8
0
 10
 6.00000000000000E+0001
 20
 1.56500000000000E+0003
 11
 1.54000000000000E+0003
 21
 1.56500000000000E+0003
  0
ARC
  8
0
 10
 1.54000000000000E+0003
 20
 1.54000000000000E+0003
 40
 2.50000000000000E+0001
 50
 0.00000000000000E+0000
 51
 9.00000000000000E+0001
  0
LINE
  8
0
 10
 1.56500000000000E+0003
 20
 1.54000000000000E+0003
 11
 1.56500000000000E+0003
 21
 6.00000000000000E+0001
  0
ARC
  8
0
 10
 1.54000000000000E+0003
 20
 6.00000000000000E+0001
 40
 2.50000000000000E+0001
 50
 2.70000000000000E+0002
 51
 3.60000000000000E+0002
  0
LINE
  8
0
 10
 1.54000000000000E+0003
 20
 3.50000000000000E+0001
 11
 6.00000000000000E+0001
 21
 3.50000000000000E+0001
  0
LINE
  8
0
 10
 2.80000000000000E+0002
 20
 1.26500000000000E+0003
 11
 2.80386395892700E+0002
 21
 1.25195630732330E+0003
  0
LINE
  8
0
 10
 2.80386395892700E+0002
 20
 1.25195630732330E+0003
 11
 2.80936491541600E+0002
 21
 1.23907949734640E+0003
  0
LINE
  8
0
 10
 2.80936491541600E+0002
 20
 1.23907949734640E+0003
 11
 2.81646953902900E+0002
 21
 1.22636618914910E+0003
  0
LINE
  8
0
 10
 2.81646953902900E+0002
 20
 1.22636618914910E+0003
 11
 2.82514449932800E+0002
 21
 1.21381300181120E+0003
  0
LINE
  8
0
 10
 2.82514449932800E+0002
 20
 1.21381300181120E+0003
 11
 2.83535646587500E+0002
 21
 1.20141655441250E+0003
  0
LINE
  8
0
 10
 2.83535646587500E+0002
 20
 1.20141655441250E+0003
 11
 2.84707210823200E+0002
 21
 1.18917346603280E+0003
  0
LINE
  8
0
 10
 2.84707210823200E+0002
 20
 1.18917346603280E+0003
 11
 2.86025809596100E+0002
 21
 1.17708035575190E+0003
  0
LINE
  8
0
 10
 2.86025809596100E+0002
 20
 1.17708035575190E+0003
 11
 2.87488109862400E+0002
 21
 1.16513384264960E+0003
  0
LINE
  8
0
 10
 2.87488109862400E+0002
 20
 1.16513384264960E+0003
 11
 2.89090778578300E+0002
 21
 1.15333054580570E+0003
  0
LINE
  8
0
 10
 2.89090778578300E+0002
 20
 1.15333054580570E+0003
 11
 2.90830482700000E+0002
 21
 1.14166708430000E+0003
  0
LINE
  8
0
 10
 2.90830482700000E+0002
 20
 1.14166708430000E+0003
 11
 2.92703889183700E+0002
 21
 1.13014007721230E+0003
  0
LINE
  8
0
 10
 2.92703889183700E+0002
 20
 1.13014007721230E+0003
 11
 2.94707664985600E+0002
 21
 1.11874614362240E+0003
  0
LINE
  8
0
 10
 2.94707664985600E+0002
 20
 1.11874614362240E+0003
 11
 2.96838477061900E+0002
 21
 1.10748190261010E+0003
  0
LINE
  8
0
 10
 2.96838477061900E+0002
 20
 1.10748190261010E+0003
 11
 2.99092992368800E+0002
 21
 1.09634397325520E+0003
  0
LINE
  8
0
 10
 2.99092992368800E+0002
 20
 1.09634397325520E+0003
 11
 3.01467877862500E+0002
 21
 1.08532897463750E+0003
  0
LINE
  8
0
 10
 3.01467877862500E+0002
 20
 1.08532897463750E+0003
 11
 3.03959800499200E+0002
 21
 1.07443352583680E+0003
  0
LINE
  8
0
 10
 3.03959800499200E+0002
 20
 1.07443352583680E+0003
 11
 3.06565427235100E+0002
 21
 1.06365424593290E+0003
  0
LINE
  8
0
 10
 3.06565427235100E+0002
 20
 1.06365424593290E+0003
 11
 3.09281425026400E+0002
 21
 1.05298775400560E+0003
  0
LINE
  8
0
 10
 3.09281425026400E+0002
 20
 1.05298775400560E+0003
 11
 3.12104460829300E+0002
 21
 1.04243066913470E+0003
  0
LINE
  8
0
 10
 3.12104460829300E+0002
 20
 1.04243066913470E+0003
 11
 3.15031201600000E+0002
 21
 1.03197961040000E+0003
  0
LINE
  8
0
 10
 3.15031201600000E+0002
 20
 1.03197961040000E+0003
 11
 3.18058314294700E+0002
 21
 1.02163119688130E+0003
  0
LINE
  8
0
 10
 3.18058314294700E+0002
 20
 1.02163119688130E+0003
 11
 3.21182465869600E+0002
 21
 1.01138204765840E+0003
  0
LINE
  8
0
 10
 3.21182465869600E+0002
 20
 1.01138204765840E+0003
 11
 3.24400323280900E+0002
 21
 1.00122878181110E+0003
  0
LINE
  8
0
 10
 3.24400323280900E+0002
 20
 1.00122878181110E+0003
 11
 3.27708553484800E+0002
 21
 9.91168018419200E+0002
  0
LINE
  8
0
 10
 3.27708553484800E+0002
 20
 9.91168018419200E+0002
 11
 3.31103823437500E+0002
 21
 9.81196376562500E+0002
  0
LINE
  8
0
 10
 3.31103823437500E+0002
 20
 9.81196376562500E+0002
 11
 3.34582800095200E+0002
 21
 9.71310475320800E+0002
  0
LINE
  8
0
 10
 3.34582800095200E+0002
 20
 9.71310475320800E+0002
 11
 3.38142150414100E+0002
 21
 9.61506933773900E+0002
  0
LINE
  8
0
 10
 3.38142150414100E+0002
 20
 9.61506933773900E+0002
 11
 3.41778541350400E+0002
 21
 9.51782371001600E+0002
  0
LINE
  8
0
 10
 3.41778541350400E+0002
 20
 9.51782371001600E+0002
 11
 3.45488639860300E+0002
 21
 9.42133406083700E+0002
  0
LINE
  8
0
 10
 3.45488639860300E+0002
 20
 9.42133406083700E+0002
 11
 3.49269112900000E+0002
 21
 9.32556658100000E+0002
  0
LINE
  8
0
 10
 3.49269112900000E+0002
 20
 9.32556658100000E+0002
 11
 3.53116627425700E+0002
 21
 9.23048746130300E+0002
  0
LINE
  8
0
 10
 3.53116627425700E+0002
 20
 9.23048746130300E+0002
 11
 3.57027850393600E+0002
 21
 9.13606289254400E+0002
  0
LINE
  8
0
 10
 3.57027850393600E+0002
 20
 9.13606289254400E+0002
 11
 3.60999448759900E+0002
 21
 9.04225906552100E+0002
  0
LINE
  8
0
 10
 3.60999448759900E+0002
 20
 9.04225906552100E+0002
 11
 3.65028089480800E+0002
 21
 8.94904217103200E+0002
  0
LINE
  8
0
 10
 3.65028089480800E+0002
 20
 8.94904217103200E+0002
 11
 3.69110439512500E+0002
 21
 8.85637839987500E+0002
  0
LINE
  8
0
 10
 3.69110439512500E+0002
 20
 8.85637839987500E+0002
 11
 3.73243165811200E+0002
 21
 8.76423394284800E+0002
  0
LINE
  8
0
 10
 3.73243165811200E+0002
 20
 8.76423394284800E+0002
 11
 3.77422935333100E+0002
 21
 8.67257499074900E+0002
  0
LINE
  8
0
 10
 3.77422935333100E+0002
 20
 8.67257499074900E+0002
 11
 3.81646415034400E+0002
 21
 8.58136773437600E+0002
  0
LINE
  8
0
 10
 3.81646415034400E+0002
 20
 8.58136773437600E+0002
 11
 3.85910271871300E+0002
 21
 8.49057836452700E+0002
  0
LINE
  8
0
 10
 3.85910271871300E+0002
 20
 8.49057836452700E+0002
 11
 3.90211172800000E+0002
 21
 8.40017307200000E+0002
  0
LINE
  8
0
 10
 3.90211172800000E+0002
 20
 8.40017307200000E+0002
 11
 3.94545784776700E+0002
 21
 8.31011804759300E+0002
  0
LINE
  8
0
 10
 3.94545784776700E+0002
 20
 8.31011804759300E+0002
 11
 3.98910774757600E+0002
 21
 8.22037948210400E+0002
  0
LINE
  8
0
 10
 3.98910774757600E+0002
 20
 8.22037948210400E+0002
 11
 4.03302809698900E+0002
 21
 8.13092356633100E+0002
  0
LINE
  8
0
 10
 4.03302809698900E+0002
 20
 8.13092356633100E+0002
 11
 4.07718556556800E+0002
 21
 8.04171649107200E+0002
  0
LINE
  8
0
 10
 4.07718556556800E+0002
 20
 8.04171649107200E+0002
 11
 4.12154682287500E+0002
 21
 7.95272444712500E+0002
  0
LINE
  8
0
 10
 4.12154682287500E+0002
 20
 7.95272444712500E+0002
 11
 4.16607853847200E+0002
 21
 7.86391362528800E+0002
  0
LINE
  8
0
 10
 4.16607853847200E+0002
 20
 7.86391362528800E+0002
 11
 4.21074738192100E+0002
 21
 7.77525021635900E+0002
  0
LINE
  8
0
 10
 4.21074738192100E+0002
 20
 7.77525021635900E+0002
 11
 4.25552002278400E+0002
 21
 7.68670041113600E+0002
  0
LINE
  8
0
 10
 4.25552002278400E+0002
 20
 7.68670041113600E+0002
 11
 4.30036313062300E+0002
 21
 7.59823040041700E+0002
  0
LINE
  8
0
 10
 4.30036313062300E+0002
 20
 7.59823040041700E+0002
 11
 4.34524337500000E+0002
 21
 7.50980637500000E+0002
  0
LINE
  8
0
 10
 4.34524337500000E+0002
 20
 7.50980637500000E+0002
 11
 4.39012742547700E+0002
 21
 7.42139452568300E+0002
  0
LINE
  8
0
 10
 4.39012742547700E+0002
 20
 7.42139452568300E+0002
 11
 4.43498195161600E+0002
 21
 7.33296104326400E+0002
  0
LINE
  8
0
 10
 4.43498195161600E+0002
 20
 7.33296104326400E+0002
 11
 4.47977362297900E+0002
 21
 7.24447211854100E+0002
  0
LINE
  8
0
 10
 4.47977362297900E+0002
 20
 7.24447211854100E+0002
 11
 4.52446910912800E+0002
 21
 7.15589394231200E+0002
  0
LINE
  8
0
 10
 4.52446910912800E+0002
 20
 7.15589394231200E+0002
 11
 4.56903507962500E+0002
 21
 7.06719270537500E+0002
  0
LINE
  8
0
 10
 4.56903507962500E+0002
 20
 7.06719270537500E+0002
 11
 4.61343820403200E+0002
 21
 6.97833459852800E+0002
  0
LINE
  8
0
 10
 4.61343820403200E+0002
 20
 6.97833459852800E+0002
 11
 4.65764515191100E+0002
 21
 6.88928581256900E+0002
  0
LINE
  8
0
 10
 4.65764515191100E+0002
 20
 6.88928581256900E+0002
 11
 4.70162259282400E+0002
 21
 6.80001253829600E+0002
  0
LINE
  8
0
 10
 4.70162259282400E+0002
 20
 6.80001253829600E+0002
 11
 4.74533719633300E+0002
 21
 6.71048096650700E+0002
  0
LINE
  8
0
 10
 4.74533719633300E+0002
 20
 6.71048096650700E+0002
 11
 4.78875563200000E+0002
 21
 6.62065728800000E+0002
  0
LINE
  8
0
 10
 4.78875563200000E+0002
 20
 6.62065728800000E+0002
 11
 4.83184456938700E+0002
 21
 6.53050769357300E+0002
  0
LINE
  8
0
 10
 4.83184456938700E+0002
 20
 6.53050769357300E+0002
 11
 4.87457067805600E+0002
 21
 6.43999837402400E+0002
  0
LINE
  8
0
 10
 4.87457067805600E+0002
 20
 6.43999837402400E+0002
 11
 4.91690062756900E+0002
 21
 6.34909552015100E+0002
  0
LINE
  8
0
 10
 4.91690062756900E+0002
 20
 6.34909552015100E+0002
 11
 4.95880108748800E+0002
 21
 6.25776532275200E+0002
  0
LINE
  8
0
 10
 4.95880108748800E+0002
 20
 6.25776532275200E+0002
 11
 5.00023872737500E+0002
 21
 6.16597397262500E+0002
  0
LINE
  8
0
 10
 5.00023872737500E+0002
 20
 6.16597397262500E+0002
 11
 5.04118021679200E+0002
 21
 6.07368766056800E+0002
  0
LINE
  8
0
 10
 5.04118021679200E+0002
 20
 6.07368766056800E+0002
 11
 5.08159222530100E+0002
 21
 5.98087257737900E+0002
  0
LINE
  8
0
 10
 5.08159222530100E+0002
 20
 5.98087257737900E+0002
 11
 5.12144142246400E+0002
 21
 5.88749491385600E+0002
  0
LINE
  8
0
 10
 5.12144142246400E+0002
 20
 5.88749491385600E+0002
 11
 5.16069447784300E+0002
 21
 5.79352086079700E+0002
  0
LINE
  8
0
 10
 5.16069447784300E+0002
 20
 5.79352086079700E+0002
 11
 5.19931806100000E+0002
 21
 5.69891660900000E+0002
  0
LINE
  8
0
 10
 5.19931806100000E+0002
 20
 5.69891660900000E+0002
 11
 5.23727884149700E+0002
 21
 5.60364834926300E+0002
  0
LINE
  8
0
 10
 5.23727884149700E+0002
 20
 5.60364834926300E+0002
 11
 5.27454348889600E+0002
 21
 5.50768227238400E+0002
  0
LINE
  8
0
 10
 5.27454348889600E+0002
 20
 5.50768227238400E+0002
 11
 5.31107867275900E+0002
 21
 5.41098456916100E+0002
  0
LINE
  8
0
 10
 5.31107867275900E+0002
 20
 5.41098456916100E+0002
 11
 5.34685106264800E+0002
 21
 5.31352143039200E+0002
  0
LINE
  8
0
 10
 5.34685106264800E+0002
 20
 5.31352143039200E+0002
 11
 5.38182732812500E+0002
 21
 5.21525904687500E+0002
  0
LINE
  8
0
 10
 5.38182732812500E+0002
 20
 5.21525904687500E+0002
 11
 5.41597413875200E+0002
 21
 5.11616360940800E+0002
  0
LINE
  8
0
 10
 5.41597413875200E+0002
 20
 5.11616360940800E+0002
 11
 5.44925816409100E+0002
 21
 5.01620130878900E+0002
  0
LINE
  8
0
 10
 5.44925816409100E+0002
 20
 5.01620130878900E+0002
 11
 5.48164607370400E+0002
 21
 4.91533833581600E+0002
  0
LINE
  8
0
 10
 5.48164607370400E+0002
 20
 4.91533833581600E+0002
 11
 5.51310453715300E+0002
 21
 4.81354088128700E+0002
  0
LINE
  8
0
 10
 5.51310453715300E+0002
 20
 4.81354088128700E+0002
 11
 5.54360022400000E+0002
 21
 4.71077513600000E+0002
  0
LINE
  8
0
 10
 5.54360022400000E+0002
 20
 4.71077513600000E+0002
 11
 5.57309980380700E+0002
 21
 4.60700729075300E+0002
  0
LINE
  8
0
 10
 5.57309980380700E+0002
 20
 4.60700729075300E+0002
 11
 5.60156994613600E+0002
 21
 4.50220353634400E+0002
  0
LINE
  8
0
 10
 5.60156994613600E+0002
 20
 4.50220353634400E+0002
 11
 5.62897732054900E+0002
 21
 4.39633006357100E+0002
  0
LINE
  8
0
 10
 5.62897732054900E+0002
 20
 4.39633006357100E+0002
 11
 5.65528859660800E+0002
 21
 4.28935306323200E+0002
  0
LINE
  8
0
 10
 5.65528859660800E+0002
 20
 4.28935306323200E+0002
 11
 5.68047044387500E+0002
 21
 4.18123872612500E+0002
  0
LINE
  8
0
 10
 5.68047044387500E+0002
 20
 4.18123872612500E+0002
 11
 5.70448953191200E+0002
 21
 4.07195324304800E+0002
  0
LINE
  8
0
 10
 5.70448953191200E+0002
 20
 4.07195324304800E+0002
 11
 5.72731253028100E+0002
 21
 3.96146280479900E+0002
  0
LINE
  8
0
 10
 5.72731253028100E+0002
 20
 3.96146280479900E+0002
 11
 5.74890610854400E+0002
 21
 3.84973360217600E+0002
  0
LINE
  8
0
 10
 5.74890610854400E+0002
 20
 3.84973360217600E+0002
 11
 5.76923693626300E+0002
 21
 3.73673182597700E+0002
  0
LINE
  8
0
 10
 5.76923693626300E+0002
 20
 3.73673182597700E+0002
 11
 5.78827168300000E+0002
 21
 3.62242366700000E+0002
  0
LINE
  8
0
 10
 5.78827168300000E+0002
 20
 3.62242366700000E+0002
 11
 5.80597701831700E+0002
 21
 3.50677531604300E+0002
  0
LINE
  8
0
 10
 5.80597701831700E+0002
 20
 3.50677531604300E+0002
 11
 5.82231961177600E+0002
 21
 3.38975296390400E+0002
  0
LINE
  8
0
 10
 5.82231961177600E+0002
 20
 3.38975296390400E+0002
 11
 5.83726613293900E+0002
 21
 3.27132280138100E+0002
  0
LINE
  8
0
 10
 5.83726613293900E+0002
 20
 3.27132280138100E+0002
 11
 5.85078325136800E+0002
 21
 3.15145101927200E+0002
  0
LINE
  8
0
 10
 5.85078325136800E+0002
 20
 3.15145101927200E+0002
 11
 5.86283763662500E+0002
 21
 3.03010380837500E+0002
  0
LINE
  8
0
 10
 5.86283763662500E+0002
 20
 3.03010380837500E+0002
 11
 5.87339595827200E+0002
 21
 2.90724735948800E+0002
  0
LINE
  8
0
 10
 5.87339595827200E+0002
 20
 2.90724735948800E+0002
 11
 5.88242488587100E+0002
 21
 2.78284786340900E+0002
  0
LINE
  8
0
 10
 5.88242488587100E+0002
 20
 2.78284786340900E+0002
 11
 5.88989108898400E+0002
 21
 2.65687151093600E+0002
  0
LINE
  8
0
 10
 5.88989108898400E+0002
 20
 2.65687151093600E+0002
 11
 5.89576123717300E+0002
 21
 2.52928449286700E+0002
  0
LINE
  8
0
 10
 5.89576123717300E+0002
 20
 2.52928449286700E+0002
 11
 5.90000200000000E+0002
 21
 2.40005300000000E+0002
  0
LINE
  8
0
 10
 5.90000200000000E+0002
 20
 2.40005300000000E+0002
 11
 5.90000000000000E+0002
 21
 1.55000000000000E+0002
  0
LINE
  8
0
 10
 5.90000000000000E+0002
 20
 1.55000000000000E+0002
 11
 5.30000000000000E+0002
 21
 1.55000000000000E+0002
  0
LINE
  8
0
 10
 5.30000000000000E+0002
 20
 1.55000000000000E+0002
 11
 5.30000000000000E+0002
 21
 2.40005300000000E+0002
  0
LINE
  8
0
 10
 5.30000000000000E+0002
 20
 2.40005300000000E+0002
 11
 5.29575976256100E+0002
 21
 2.52928449294400E+0002
  0
LINE
  8
0
 10
 5.29575976256100E+0002
 20
 2.52928449294400E+0002
 11
 5.28989011088800E+0002
 21
 2.65687151155200E+0002
  0
LINE
  8
0
 10
 5.28989011088800E+0002
 20
 2.65687151155200E+0002
 11
 5.28242437594700E+0002
 21
 2.78284786548800E+0002
  0
LINE
  8
0
 10
 5.28242437594700E+0002
 20
 2.78284786548800E+0002
 11
 5.27339588870400E+0002
 21
 2.90724736441600E+0002
  0
LINE
  8
0
 10
 5.27339588870400E+0002
 20
 2.90724736441600E+0002
 11
 5.26283798012500E+0002
 21
 3.03010381800000E+0002
  0
LINE
  8
0
 10
 5.26283798012500E+0002
 20
 3.03010381800000E+0002
 11
 5.25078398117600E+0002
 21
 3.15145103590400E+0002
  0
LINE
  8
0
 10
 5.25078398117600E+0002
 20
 3.15145103590400E+0002
 11
 5.23726722282300E+0002
 21
 3.27132282779200E+0002
  0
LINE
  8
0
 10
 5.23726722282300E+0002
 20
 3.27132282779200E+0002
 11
 5.22232103603200E+0002
 21
 3.38975300332800E+0002
  0
LINE
  8
0
 10
 5.22232103603200E+0002
 20
 3.38975300332800E+0002
 11
 5.20597875176900E+0002
 21
 3.50677537217600E+0002
  0
LINE
  8
0
 10
 5.20597875176900E+0002
 20
 3.50677537217600E+0002
 11
 5.18827370100000E+0002
 21
 3.62242374400000E+0002
  0
LINE
  8
0
 10
 5.18827370100000E+0002
 20
 3.62242374400000E+0002
 11
 5.16923921469100E+0002
 21
 3.73673192846400E+0002
  0
LINE
  8
0
 10
 5.16923921469100E+0002
 20
 3.73673192846400E+0002
 11
 5.14890862380800E+0002
 21
 3.84973373523200E+0002
  0
LINE
  8
0
 10
 5.14890862380800E+0002
 20
 3.84973373523200E+0002
 11
 5.12731525931700E+0002
 21
 3.96146297396800E+0002
  0
LINE
  8
0
 10
 5.12731525931700E+0002
 20
 3.96146297396800E+0002
 11
 5.10449245218400E+0002
 21
 4.07195345433600E+0002
  0
LINE
  8
0
 10
 5.10449245218400E+0002
 20
 4.07195345433600E+0002
 11
 5.08047353337500E+0002
 21
 4.18123898600000E+0002
  0
LINE
  8
0
 10
 5.08047353337500E+0002
 20
 4.18123898600000E+0002
 11
 5.05529183385600E+0002
 21
 4.28935337862400E+0002
  0
LINE
  8
0
 10
 5.05529183385600E+0002
 20
 4.28935337862400E+0002
 11
 5.02898068459300E+0002
 21
 4.39633044187200E+0002
  0
LINE
  8
0
 10
 5.02898068459300E+0002
 20
 4.39633044187200E+0002
 11
 5.00157341655200E+0002
 21
 4.50220398540800E+0002
  0
LINE
  8
0
 10
 5.00157341655200E+0002
 20
 4.50220398540800E+0002
 11
 4.97310336069900E+0002
 21
 4.60700781889600E+0002
  0
LINE
  8
0
 10
 4.97310336069900E+0002
 20
 4.60700781889600E+0002
 11
 4.94360384800000E+0002
 21
 4.71077575200000E+0002
  0
LINE
  8
0
 10
 4.94360384800000E+0002
 20
 4.71077575200000E+0002
 11
 4.91310820942100E+0002
 21
 4.81354159438400E+0002
  0
LINE
  8
0
 10
 4.91310820942100E+0002
 20
 4.81354159438400E+0002
 11
 4.88164977592800E+0002
 21
 4.91533915571200E+0002
  0
LINE
  8
0
 10
 4.88164977592800E+0002
 20
 4.91533915571200E+0002
 11
 4.84926187848700E+0002
 21
 5.01620224564800E+0002
  0
LINE
  8
0
 10
 4.84926187848700E+0002
 20
 5.01620224564800E+0002
 11
 4.81597784806400E+0002
 21
 5.11616467385600E+0002
  0
LINE
  8
0
 10
 4.81597784806400E+0002
 20
 5.11616467385600E+0002
 11
 4.78183101562500E+0002
 21
 5.21526025000000E+0002
  0
LINE
  8
0
 10
 4.78183101562500E+0002
 20
 5.21526025000000E+0002
 11
 4.74685471213600E+0002
 21
 5.31352278374400E+0002
  0
LINE
  8
0
 10
 4.74685471213600E+0002
 20
 5.31352278374400E+0002
 11
 4.71108226856300E+0002
 21
 5.41098608475200E+0002
  0
LINE
  8
0
 10
 4.71108226856300E+0002
 20
 5.41098608475200E+0002
 11
 4.67454701587200E+0002
 21
 5.50768396268800E+0002
  0
LINE
  8
0
 10
 4.67454701587200E+0002
 20
 5.50768396268800E+0002
 11
 4.63728228502900E+0002
 21
 5.60365022721600E+0002
  0
LINE
  8
0
 10
 4.63728228502900E+0002
 20
 5.60365022721600E+0002
 11
 4.59932140700000E+0002
 21
 5.69891868800000E+0002
  0
LINE
  8
0
 10
 4.59932140700000E+0002
 20
 5.69891868800000E+0002
 11
 4.56069771275100E+0002
 21
 5.79352315470400E+0002
  0
LINE
  8
0
 10
 4.56069771275100E+0002
 20
 5.79352315470400E+0002
 11
 4.52144453324800E+0002
 21
 5.88749743699200E+0002
  0
LINE
  8
0
 10
 4.52144453324800E+0002
 20
 5.88749743699200E+0002
 11
 4.48159519945700E+0002
 21
 5.98087534452800E+0002
  0
LINE
  8
0
 10
 4.48159519945700E+0002
 20
 5.98087534452800E+0002
 11
 4.44118304234400E+0002
 21
 6.07369068697600E+0002
  0
LINE
  8
0
 10
 4.44118304234400E+0002
 20
 6.07369068697600E+0002
 11
 4.40024139287500E+0002
 21
 6.16597727400000E+0002
  0
LINE
  8
0
 10
 4.40024139287500E+0002
 20
 6.16597727400000E+0002
 11
 4.35880358201600E+0002
 21
 6.25776891526400E+0002
  0
LINE
  8
0
 10
 4.35880358201600E+0002
 20
 6.25776891526400E+0002
 11
 4.31690294073300E+0002
 21
 6.34909942043200E+0002
  0
LINE
  8
0
 10
 4.31690294073300E+0002
 20
 6.34909942043200E+0002
 11
 4.27457279999200E+0002
 21
 6.44000259916800E+0002
  0
LINE
  8
0
 10
 4.27457279999200E+0002
 20
 6.44000259916800E+0002
 11
 4.23184649075900E+0002
 21
 6.53051226113600E+0002
  0
LINE
  8
0
 10
 4.23184649075900E+0002
 20
 6.53051226113600E+0002
 11
 4.18875734400000E+0002
 21
 6.62066221600000E+0002
  0
LINE
  8
0
 10
 4.18875734400000E+0002
 20
 6.62066221600000E+0002
 11
 4.14533869068100E+0002
 21
 6.71048627342400E+0002
  0
LINE
  8
0
 10
 4.14533869068100E+0002
 20
 6.71048627342400E+0002
 11
 4.10162386176800E+0002
 21
 6.80001824307200E+0002
  0
LINE
  8
0
 10
 4.10162386176800E+0002
 20
 6.80001824307200E+0002
 11
 4.05764618822700E+0002
 21
 6.88929193460800E+0002
  0
LINE
  8
0
 10
 4.05764618822700E+0002
 20
 6.88929193460800E+0002
 11
 4.01343900102400E+0002
 21
 6.97834115769600E+0002
  0
LINE
  8
0
 10
 4.01343900102400E+0002
 20
 6.97834115769600E+0002
 11
 3.96903563112500E+0002
 21
 7.06719972200000E+0002
  0
LINE
  8
0
 10
 3.96903563112500E+0002
 20
 7.06719972200000E+0002
 11
 3.92446940949600E+0002
 21
 7.15590143718400E+0002
  0
LINE
  8
0
 10
 3.92446940949600E+0002
 20
 7.15590143718400E+0002
 11
 3.87977366710300E+0002
 21
 7.24448011291200E+0002
  0
LINE
  8
0
 10
 3.87977366710300E+0002
 20
 7.24448011291200E+0002
 11
 3.83498173491200E+0002
 21
 7.33296955884800E+0002
  0
LINE
  8
0
 10
 3.83498173491200E+0002
 20
 7.33296955884800E+0002
 11
 3.79012694388900E+0002
 21
 7.42140358465600E+0002
  0
LINE
  8
0
 10
 3.79012694388900E+0002
 20
 7.42140358465600E+0002
 11
 3.74524262500000E+0002
 21
 7.50981600000000E+0002
  0
LINE
  8
0
 10
 3.74524262500000E+0002
 20
 7.50981600000000E+0002
 11
 3.70036210921100E+0002
 21
 7.59824061454400E+0002
  0
LINE
  8
0
 10
 3.70036210921100E+0002
 20
 7.59824061454400E+0002
 11
 3.65551872748800E+0002
 21
 7.68671123795200E+0002
  0
LINE
  8
0
 10
 3.65551872748800E+0002
 20
 7.68671123795200E+0002
 11
 3.61074581079700E+0002
 21
 7.77526167988800E+0002
  0
LINE
  8
0
 10
 3.61074581079700E+0002
 20
 7.77526167988800E+0002
 11
 3.56607669010400E+0002
 21
 7.86392575001600E+0002
  0
LINE
  8
0
 10
 3.56607669010400E+0002
 20
 7.86392575001600E+0002
 11
 3.52154469637500E+0002
 21
 7.95273725800000E+0002
  0
LINE
  8
0
 10
 3.52154469637500E+0002
 20
 7.95273725800000E+0002
 11
 3.47718316057600E+0002
 21
 8.04173001350400E+0002
  0
LINE
  8
0
 10
 3.47718316057600E+0002
 20
 8.04173001350400E+0002
 11
 3.43302541367300E+0002
 21
 8.13093782619200E+0002
  0
LINE
  8
0
 10
 3.43302541367300E+0002
 20
 8.13093782619200E+0002
 11
 3.38910478663200E+0002
 21
 8.22039450572800E+0002
  0
LINE
  8
0
 10
 3.38910478663200E+0002
 20
 8.22039450572800E+0002
 11
 3.34545461041900E+0002
 21
 8.31013386177600E+0002
  0
LINE
  8
0
 10
 3.34545461041900E+0002
 20
 8.31013386177600E+0002
 11
 3.30210821600000E+0002
 21
 8.40018970400000E+0002
  0
LINE
  8
0
 10
 3.30210821600000E+0002
 20
 8.40018970400000E+0002
 11
 3.25909893434100E+0002
 21
 8.49059584206400E+0002
  0
LINE
  8
0
 10
 3.25909893434100E+0002
 20
 8.49059584206400E+0002
 11
 3.21646009640800E+0002
 21
 8.58138608563200E+0002
  0
LINE
  8
0
 10
 3.21646009640800E+0002
 20
 8.58138608563200E+0002
 11
 3.17422503316700E+0002
 21
 8.67259424436800E+0002
  0
LINE
  8
0
 10
 3.17422503316700E+0002
 20
 8.67259424436800E+0002
 11
 3.13242707558400E+0002
 21
 8.76425412793600E+0002
  0
LINE
  8
0
 10
 3.13242707558400E+0002
 20
 8.76425412793600E+0002
 11
 3.09109955462500E+0002
 21
 8.85639954600000E+0002
  0
LINE
  8
0
 10
 3.09109955462500E+0002
 20
 8.85639954600000E+0002
 11
 3.05027580125600E+0002
 21
 8.94906430822400E+0002
  0
LINE
  8
0
 10
 3.05027580125600E+0002
 20
 8.94906430822400E+0002
 11
 3.00998914644300E+0002
 21
 9.04228222427200E+0002
  0
LINE
  8
0
 10
 3.00998914644300E+0002
 20
 9.04228222427200E+0002
 11
 2.97027292115200E+0002
 21
 9.13608710380800E+0002
  0
LINE
  8
0
 10
 2.97027292115200E+0002
 20
 9.13608710380800E+0002
 11
 2.93116045634900E+0002
 21
 9.23051275649600E+0002
  0
LINE
  8
0
 10
 2.93116045634900E+0002
 20
 9.23051275649600E+0002
 11
 2.89268508300000E+0002
 21
 9.32559299200000E+0002
  0
LINE
  8
0
 10
 2.89268508300000E+0002
 20
 9.32559299200000E+0002
 11
 2.85488013207100E+0002
 21
 9.42136161998400E+0002
  0
LINE
  8
0
 10
 2.85488013207100E+0002
 20
 9.42136161998400E+0002
 11
 2.81777893452800E+0002
 21
 9.51785245011200E+0002
  0
LINE
  8
0
 10
 2.81777893452800E+0002
 20
 9.51785245011200E+0002
 11
 2.78141482133700E+0002
 21
 9.61509929204800E+0002
  0
LINE
  8
0
 10
 2.78141482133700E+0002
 20
 9.61509929204800E+0002
 11
 2.74582112346400E+0002
 21
 9.71313595545600E+0002
  0
LINE
  8
0
 10
 2.74582112346400E+0002
 20
 9.71313595545600E+0002
 11
 2.71103117187500E+0002
 21
 9.81199625000000E+0002
  0
LINE
  8
0
 10
 2.71103117187500E+0002
 20
 9.81199625000000E+0002
 11
 2.67707829753600E+0002
 21
 9.91171398534400E+0002
  0
LINE
  8
0
 10
 2.67707829753600E+0002
 20
 9.91171398534400E+0002
 11
 2.64399583141300E+0002
 21
 1.00123229711520E+0003
  0
LINE
  8
0
 10
 2.64399583141300E+0002
 20
 1.00123229711520E+0003
 11
 2.61181710447200E+0002
 21
 1.01138570170880E+0003
  0
LINE
  8
0
 10
 2.61181710447200E+0002
 20
 1.01138570170880E+0003
 11
 2.58057544767900E+0002
 21
 1.02163499328160E+0003
  0
LINE
  8
0
 10
 2.58057544767900E+0002
 20
 1.02163499328160E+0003
 11
 2.55030419200000E+0002
 21
 1.03198355280000E+0003
  0
LINE
  8
0
 10
 2.55030419200000E+0002
 20
 1.03198355280000E+0003
 11
 2.52103666840100E+0002
 21
 1.04243476123040E+0003
  0
LINE
  8
0
 10
 2.52103666840100E+0002
 20
 1.04243476123040E+0003
 11
 2.49280620784800E+0002
 21
 1.05299199953920E+0003
  0
LINE
  8
0
 10
 2.49280620784800E+0002
 20
 1.05299199953920E+0003
 11
 2.46564614130700E+0002
 21
 1.06365864869280E+0003
  0
LINE
  8
0
 10
 2.46564614130700E+0002
 20
 1.06365864869280E+0003
 11
 2.43958979974400E+0002
 21
 1.07443808965760E+0003
  0
LINE
  8
0
 10
 2.43958979974400E+0002
 20
 1.07443808965760E+0003
 11
 2.41467051412500E+0002
 21
 1.08533370340000E+0003
  0
LINE
  8
0
 10
 2.41467051412500E+0002
 20
 1.08533370340000E+0003
 11
 2.39092161541600E+0002
 21
 1.09634887088640E+0003
  0
LINE
  8
0
 10
 2.39092161541600E+0002
 20
 1.09634887088640E+0003
 11
 2.36837643458300E+0002
 21
 1.10748697308320E+0003
  0
LINE
  8
0
 10
 2.36837643458300E+0002
 20
 1.10748697308320E+0003
 11
 2.34706830259200E+0002
 21
 1.11875139095680E+0003
  0
LINE
  8
0
 10
 2.34706830259200E+0002
 20
 1.11875139095680E+0003
 11
 2.32703055040900E+0002
 21
 1.13014550547360E+0003
  0
LINE
  8
0
 10
 2.32703055040900E+0002
 20
 1.13014550547360E+0003
 11
 2.30829650900000E+0002
 21
 1.14167269760000E+0003
  0
LINE
  8
0
 10
 2.30829650900000E+0002
 20
 1.14167269760000E+0003
 11
 2.29089950933100E+0002
 21
 1.15333634830240E+0003
  0
LINE
  8
0
 10
 2.29089950933100E+0002
 20
 1.15333634830240E+0003
 11
 2.27487288236800E+0002
 21
 1.16513983854720E+0003
  0
LINE
  8
0
 10
 2.27487288236800E+0002
 20
 1.16513983854720E+0003
 11
 2.26024995907700E+0002
 21
 1.17708654930080E+0003
  0
LINE
  8
0
 10
 2.26024995907700E+0002
 20
 1.17708654930080E+0003
 11
 2.24706407042400E+0002
 21
 1.18917986152960E+0003
  0
LINE
  8
0
 10
 2.24706407042400E+0002
 20
 1.18917986152960E+0003
 11
 2.23534854737500E+0002
 21
 1.20142315620000E+0003
  0
LINE
  8
0
 10
 2.23534854737500E+0002
 20
 1.20142315620000E+0003
 11
 2.22513672089600E+0002
 21
 1.21381981427840E+0003
  0
LINE
  8
0
 10
 2.22513672089600E+0002
 20
 1.21381981427840E+0003
 11
 2.21646192195300E+0002
 21
 1.22637321673120E+0003
  0
LINE
  8
0
 10
 2.21646192195300E+0002
 20
 1.22637321673120E+0003
 11
 2.20935748151200E+0002
 21
 1.23908674452480E+0003
  0
LINE
  8
0
 10
 2.20935748151200E+0002
 20
 1.23908674452480E+0003
 11
 2.20385673053900E+0002
 21
 1.25196377862560E+0003
  0
LINE
  8
0
 10
 2.20385673053900E+0002
 20
 1.25196377862560E+0003
 11
 2.19999300000000E+0002
 21
 1.26500770000000E+0003
  0
LINE
  8
0
 10
 2.19999300000000E+0002
 20
 1.26500770000000E+0003
 11
 2.20000000000000E+0002
 21
 1.30700000000000E+0003
  0
LINE
  8
0
 10
 2.20000000000000E+0002
 20
 1.30700000000000E+0003
 11
 1.74999490553610E+0002
 21
 1.29538091843480E+0003
  0
ARC
  8
0
 10
 1.72000000000000E+0002
 20
 1.30700000000000E+0003
 40
 1.20000000000000E+0001
 50
 1.46195000000000E+0002
 51
 2.84475000000000E+0002
  0
LINE
  8
0
 10
 1.62028768958083E+0002
 20
 1.31367641756549E+0003
 11
 2.50000000000000E+0002
 21
 1.44500000000000E+0003
  0
LINE
  8
0
 10
 2.50000000000000E+0002
 20
 1.44500000000000E+0003
 11
 3.37971231041916E+0002
 21
 1.31367641756549E+0003
  0
ARC
  8
0
 10
 3.28000000000000E+0002
 20
 1.30700000000000E+0003
 40
 1.20000000000000E+0001
 50
 2.55525000000000E+0002
 51
 3.93805000000000E+0002
  0
LINE
  8
0
 10
 3.25000509446390E+0002
 20
 1.29538091843480E+0003
 11
 2.80000000000000E+0002
 21
 1.30700000000000E+0003
  0
LINE
  8
0
 10
 2.80000000000000E+0002
 20
 1.30700000000000E+0003
 11
 2.80000000000000E+0002
 21
 1.26500000000000E+0003
  0
LINE
  8
0
 10
 1.08000000000000E+0003
 20
 1.26500000000000E+0003
 11
 1.07961360410730E+0003
 21
 1.25195630732330E+0003
  0
LINE
  8
0
 10
 1.07961360410730E+0003
 20
 1.25195630732330E+0003
 11
 1.07906350845840E+0003
 21
 1.23907949734640E+0003
  0
LINE
  8
0
 10
 1.07906350845840E+0003
 20
 1.23907949734640E+0003
 11
 1.07835304609710E+0003
 21
 1.22636618914910E+0003
  0
LINE
  8
0
 10
 1.07835304609710E+0003
 20
 1.22636618914910E+0003
 11
 1.07748555006720E+0003
 21
 1.21381300181120E+0003
  0
LINE
  8
0
 10
 1.07748555006720E+0003
 20
 1.21381300181120E+0003
 11
 1.07646435341250E+0003
 21
 1.20141655441250E+0003
  0
LINE
  8
0
 10
 1.07646435341250E+0003
 20
 1.20141655441250E+0003
 11
 1.07529278917680E+0003
 21
 1.18917346603280E+0003
  0
LINE
  8
0
 10
 1.07529278917680E+0003
 20
 1.18917346603280E+0003
 11
 1.07397419040390E+0003
 21
 1.17708035575190E+0003
  0
LINE
  8
0
 10
 1.07397419040390E+0003
 20
 1.17708035575190E+0003
 11
 1.07251189013760E+0003
 21
 1.16513384264960E+0003
  0
LINE
  8
0
 10
 1.07251189013760E+0003
 20
 1.16513384264960E+0003
 11
 1.07090922142170E+0003
 21
 1.15333054580570E+0003
  0
LINE
  8
0
 10
 1.07090922142170E+0003
 20
 1.15333054580570E+0003
 11
 1.06916951730000E+0003
 21
 1.14166708430000E+0003
  0
LINE
  8
0
 10
 1.06916951730000E+0003
 20
 1.14166708430000E+0003
 11
 1.06729611081630E+0003
 21
 1.13014007721230E+0003
  0
LINE
  8
0
 10
 1.06729611081630E+0003
 20
 1.13014007721230E+0003
 11
 1.06529233501440E+0003
 21
 1.11874614362240E+0003
  0
LINE
  8
0
 10
 1.06529233501440E+0003
 20
 1.11874614362240E+0003
 11
 1.06316152293810E+0003
 21
 1.10748190261010E+0003
  0
LINE
  8
0
 10
 1.06316152293810E+0003
 20
 1.10748190261010E+0003
 11
 1.06090700763120E+0003
 21
 1.09634397325520E+0003
  0
LINE
  8
0
 10
 1.06090700763120E+0003
 20
 1.09634397325520E+0003
 11
 1.05853212213750E+0003
 21
 1.08532897463750E+0003
  0
LINE
  8
0
 10
 1.05853212213750E+0003
 20
 1.08532897463750E+0003
 11
 1.05604019950080E+0003
 21
 1.07443352583680E+0003
  0
LINE
  8
0
 10
 1.05604019950080E+0003
 20
 1.07443352583680E+0003
 11
 1.05343457276490E+0003
 21
 1.06365424593290E+0003
  0
LINE
  8
0
 10
 1.05343457276490E+0003
 20
 1.06365424593290E+0003
 11
 1.05071857497360E+0003
 21
 1.05298775400560E+0003
  0
LINE
  8
0
 10
 1.05071857497360E+0003
 20
 1.05298775400560E+0003
 11
 1.04789553917070E+0003
 21
 1.04243066913470E+0003
  0
LINE
  8
0
 10
 1.04789553917070E+0003
 20
 1.04243066913470E+0003
 11
 1.04496879840000E+0003
 21
 1.03197961040000E+0003
  0
LINE
  8
0
 10
 1.04496879840000E+0003
 20
 1.03197961040000E+0003
 11
 1.04194168570530E+0003
 21
 1.02163119688130E+0003
  0
LINE
  8
0
 10
 1.04194168570530E+0003
 20
 1.02163119688130E+0003
 11
 1.03881753413040E+0003
 21
 1.01138204765840E+0003
  0
LINE
  8
0
 10
 1.03881753413040E+0003
 20
 1.01138204765840E+0003
 11
 1.03559967671910E+0003
 21
 1.00122878181110E+0003
  0
LINE
  8
0
 10
 1.03559967671910E+0003
 20
 1.00122878181110E+0003
 11
 1.03229144651520E+0003
 21
 9.91168018419200E+0002
  0
LINE
  8
0
 10
 1.03229144651520E+0003
 20
 9.91168018419200E+0002
 11
 1.02889617656250E+0003
 21
 9.81196376562500E+0002
  0
LINE
  8
0
 10
 1.02889617656250E+0003
 20
 9.81196376562500E+0002
 11
 1.02541719990480E+0003
 21
 9.71310475320800E+0002
  0
LINE
  8
0
 10
 1.02541719990480E+0003
 20
 9.71310475320800E+0002
 11
 1.02185784958590E+0003
 21
 9.61506933773900E+0002
  0
LINE
  8
0
 10
 1.02185784958590E+0003
 20
 9.61506933773900E+0002
 11
 1.01822145864960E+0003
 21
 9.51782371001600E+0002
  0
LINE
  8
0
 10
 1.01822145864960E+0003
 20
 9.51782371001600E+0002
 11
 1.01451136013970E+0003
 21
 9.42133406083700E+0002
  0
LINE
  8
0
 10
 1.01451136013970E+0003
 20
 9.42133406083700E+0002
 11
 1.01073088710000E+0003
 21
 9.32556658100000E+0002
  0
LINE
  8
0
 10
 1.01073088710000E+0003
 20
 9.32556658100000E+0002
 11
 1.00688337257430E+0003
 21
 9.23048746130300E+0002
  0
LINE
  8
0
 10
 1.00688337257430E+0003
 20
 9.23048746130300E+0002
 11
 1.00297214960640E+0003
 21
 9.13606289254400E+0002
  0
LINE
  8
0
 10
 1.00297214960640E+0003
 20
 9.13606289254400E+0002
 11
 9.99000551240100E+0002
 21
 9.04225906552100E+0002
  0
LINE
  8
0
 10
 9.99000551240100E+0002
 20
 9.04225906552100E+0002
 11
 9.94971910519200E+0002
 21
 8.94904217103200E+0002
  0
LINE
  8
0
 10
 9.94971910519200E+0002
 20
 8.94904217103200E+0002
 11
 9.90889560487500E+0002
 21
 8.85637839987500E+0002
  0
LINE
  8
0
 10
 9.90889560487500E+0002
 20
 8.85637839987500E+0002
 11
 9.86756834188800E+0002
 21
 8.76423394284800E+0002
  0
LINE
  8
0
 10
 9.86756834188800E+0002
 20
 8.76423394284800E+0002
 11
 9.82577064666900E+0002
 21
 8.67257499074900E+0002
  0
LINE
  8
0
 10
 9.82577064666900E+0002
 20
 8.67257499074900E+0002
 11
 9.78353584965600E+0002
 21
 8.58136773437600E+0002
  0
LINE
  8
0
 10
 9.78353584965600E+0002
 20
 8.58136773437600E+0002
 11
 9.74089728128700E+0002
 21
 8.49057836452700E+0002
  0
LINE
  8
0
 10
 9.74089728128700E+0002
 20
 8.49057836452700E+0002
 11
 9.69788827200000E+0002
 21
 8.40017307200000E+0002
  0
LINE
  8
0
 10
 9.69788827200000E+0002
 20
 8.40017307200000E+0002
 11
 9.65454215223300E+0002
 21
 8.31011804759300E+0002
  0
LINE
  8
0
 10
 9.65454215223300E+0002
 20
 8.31011804759300E+0002
 11
 9.61089225242400E+0002
 21
 8.22037948210400E+0002
  0
LINE
  8
0
 10
 9.61089225242400E+0002
 20
 8.22037948210400E+0002
 11
 9.56697190301100E+0002
 21
 8.13092356633100E+0002
  0
LINE
  8
0
 10
 9.56697190301100E+0002
 20
 8.13092356633100E+0002
 11
 9.52281443443200E+0002
 21
 8.04171649107200E+0002
  0
LINE
  8
0
 10
 9.52281443443200E+0002
 20
 8.04171649107200E+0002
 11
 9.47845317712500E+0002
 21
 7.95272444712500E+0002
  0
LINE
  8
0
 10
 9.47845317712500E+0002
 20
 7.95272444712500E+0002
 11
 9.43392146152800E+0002
 21
 7.86391362528800E+0002
  0
LINE
  8
0
 10
 9.43392146152800E+0002
 20
 7.86391362528800E+0002
 11
 9.38925261807900E+0002
 21
 7.77525021635900E+0002
  0
LINE
  8
0
 10
 9.38925261807900E+0002
 20
 7.77525021635900E+0002
 11
 9.34447997721600E+0002
 21
 7.68670041113600E+0002
  0
LINE
  8
0
 10
 9.34447997721600E+0002
 20
 7.68670041113600E+0002
 11
 9.29963686937700E+0002
 21
 7.59823040041700E+0002
  0
LINE
  8
0
 10
 9.29963686937700E+0002
 20
 7.59823040041700E+0002
 11
 9.25475662500000E+0002
 21
 7.50980637500000E+0002
  0
LINE
  8
0
 10
 9.25475662500000E+0002
 20
 7.50980637500000E+0002
 11
 9.20987257452300E+0002
 21
 7.42139452568300E+0002
  0
LINE
  8
0
 10
 9.20987257452300E+0002
 20
 7.42139452568300E+0002
 11
 9.16501804838400E+0002
 21
 7.33296104326400E+0002
  0
LINE
  8
0
 10
 9.16501804838400E+0002
 20
 7.33296104326400E+0002
 11
 9.12022637702100E+0002
 21
 7.24447211854100E+0002
  0
LINE
  8
0
 10
 9.12022637702100E+0002
 20
 7.24447211854100E+0002
 11
 9.07553089087200E+0002
 21
 7.15589394231200E+0002
  0
LINE
  8
0
 10
 9.07553089087200E+0002
 20
 7.15589394231200E+0002
 11
 9.03096492037500E+0002
 21
 7.06719270537500E+0002
  0
LINE
  8
0
 10
 9.03096492037500E+0002
 20
 7.06719270537500E+0002
 11
 8.98656179596800E+0002
 21
 6.97833459852800E+0002
  0
LINE
  8
0
 10
 8.98656179596800E+0002
 20
 6.97833459852800E+0002
 11
 8.94235484808900E+0002
 21
 6.88928581256900E+0002
  0
LINE
  8
0
 10
 8.94235484808900E+0002
 20
 6.88928581256900E+0002
 11
 8.89837740717600E+0002
 21
 6.80001253829600E+0002
  0
LINE
  8
0
 10
 8.89837740717600E+0002
 20
 6.80001253829600E+0002
 11
 8.85466280366700E+0002
 21
 6.71048096650700E+0002
  0
LINE
  8
0
 10
 8.85466280366700E+0002
 20
 6.71048096650700E+0002
 11
 8.81124436800000E+0002
 21
 6.62065728800000E+0002
  0
LINE
  8
0
 10
 8.81124436800000E+0002
 20
 6.62065728800000E+0002
 11
 8.76815543061300E+0002
 21
 6.53050769357300E+0002
  0
LINE
  8
0
 10
 8.76815543061300E+0002
 20
 6.53050769357300E+0002
 11
 8.72542932194400E+0002
 21
 6.43999837402400E+0002
  0
LINE
  8
0
 10
 8.72542932194400E+0002
 20
 6.43999837402400E+0002
 11
 8.68309937243100E+0002
 21
 6.34909552015100E+0002
  0
LINE
  8
0
 10
 8.68309937243100E+0002
 20
 6.34909552015100E+0002
 11
 8.64119891251200E+0002
 21
 6.25776532275200E+0002
  0
LINE
  8
0
 10
 8.64119891251200E+0002
 20
 6.25776532275200E+0002
 11
 8.59976127262500E+0002
 21
 6.16597397262500E+0002
  0
LINE
  8
0
 10
 8.59976127262500E+0002
 20
 6.16597397262500E+0002
 11
 8.55881978320800E+0002
 21
 6.07368766056800E+0002
  0
LINE
  8
0
 10
 8.55881978320800E+0002
 20
 6.07368766056800E+0002
 11
 8.51840777469900E+0002
 21
 5.98087257737900E+0002
  0
LINE
  8
0
 10
 8.51840777469900E+0002
 20
 5.98087257737900E+0002
 11
 8.47855857753600E+0002
 21
 5.88749491385600E+0002
  0
LINE
  8
0
 10
 8.47855857753600E+0002
 20
 5.88749491385600E+0002
 11
 8.43930552215700E+0002
 21
 5.79352086079700E+0002
  0
LINE
  8
0
 10
 8.43930552215700E+0002
 20
 5.79352086079700E+0002
 11
 8.40068193900000E+0002
 21
 5.69891660900000E+0002
  0
LINE
  8
0
 10
 8.40068193900000E+0002
 20
 5.69891660900000E+0002
 11
 8.36272115850300E+0002
 21
 5.60364834926300E+0002
  0
LINE
  8
0
 10
 8.36272115850300E+0002
 20
 5.60364834926300E+0002
 11
 8.32545651110400E+0002
 21
 5.50768227238400E+0002
  0
LINE
  8
0
 10
 8.32545651110400E+0002
 20
 5.50768227238400E+0002
 11
 8.28892132724100E+0002
 21
 5.41098456916100E+0002
  0
LINE
  8
0
 10
 8.28892132724100E+0002
 20
 5.41098456916100E+0002
 11
 8.25314893735200E+0002
 21
 5.31352143039200E+0002
  0
LINE
  8
0
 10
 8.25314893735200E+0002
 20
 5.31352143039200E+0002
 11
 8.21817267187500E+0002
 21
 5.21525904687500E+0002
  0
LINE
  8
0
 10
 8.21817267187500E+0002
 20
 5.21525904687500E+0002
 11
 8.18402586124800E+0002
 21
 5.11616360940800E+0002
  0
LINE
  8
0
 10
 8.18402586124800E+0002
 20
 5.11616360940800E+0002
 11
 8.15074183590900E+0002
 21
 5.01620130878900E+0002
  0
LINE
  8
0
 10
 8.15074183590900E+0002
 20
 5.01620130878900E+0002
 11
 8.11835392629600E+0002
 21
 4.91533833581600E+0002
  0
LINE
  8
0
 10
 8.11835392629600E+0002
 20
 4.91533833581600E+0002
 11
 8.08689546284700E+0002
 21
 4.81354088128700E+0002
  0
LINE
  8
0
 10
 8.08689546284700E+0002
 20
 4.81354088128700E+0002
 11
 8.05639977600000E+0002
 21
 4.71077513600000E+0002
  0
LINE
  8
0
 10
 8.05639977600000E+0002
 20
 4.71077513600000E+0002
 11
 8.02690019619300E+0002
 21
 4.60700729075300E+0002
  0
LINE
  8
0
 10
 8.02690019619300E+0002
 20
 4.60700729075300E+0002
 11
 7.99843005386400E+0002
 21
 4.50220353634400E+0002
  0
LINE
  8
0
 10
 7.99843005386400E+0002
 20
 4.50220353634400E+0002
 11
 7.97102267945100E+0002
 21
 4.39633006357100E+0002
  0
LINE
  8
0
 10
 7.97102267945100E+0002
 20
 4.39633006357100E+0002
 11
 7.94471140339200E+0002
 21
 4.28935306323200E+0002
  0
LINE
  8
0
 10
 7.94471140339200E+0002
 20
 4.28935306323200E+0002
 11
 7.91952955612500E+0002
 21
 4.18123872612500E+0002
  0
LINE
  8
0
 10
 7.91952955612500E+0002
 20
 4.18123872612500E+0002
 11
 7.89551046808800E+0002
 21
 4.07195324304800E+0002
  0
LINE
  8
0
 10
 7.89551046808800E+0002
 20
 4.07195324304800E+0002
 11
 7.87268746971900E+0002
 21
 3.96146280479900E+0002
  0
LINE
  8
0
 10
 7.87268746971900E+0002
 20
 3.96146280479900E+0002
 11
 7.85109389145600E+0002
 21
 3.84973360217600E+0002
  0
LINE
  8
0
 10
 7.85109389145600E+0002
 20
 3.84973360217600E+0002
 11
 7.83076306373700E+0002
 21
 3.73673182597700E+0002
  0
LINE
  8
0
 10
 7.83076306373700E+0002
 20
 3.73673182597700E+0002
 11
 7.81172831700000E+0002
 21
 3.62242366700000E+0002
  0
LINE
  8
0
 10
 7.81172831700000E+0002
 20
 3.62242366700000E+0002
 11
 7.79402298168300E+0002
 21
 3.50677531604300E+0002
  0
LINE
  8
0
 10
 7.79402298168300E+0002
 20
 3.50677531604300E+0002
 11
 7.77768038822400E+0002
 21
 3.38975296390400E+0002
  0
LINE
  8
0
 10
 7.77768038822400E+0002
 20
 3.38975296390400E+0002
 11
 7.76273386706100E+0002
 21
 3.27132280138100E+0002
  0
LINE
  8
0
 10
 7.76273386706100E+0002
 20
 3.27132280138100E+0002
 11
 7.74921674863200E+0002
 21
 3.15145101927200E+0002
  0
LINE
  8
0
 10
 7.74921674863200E+0002
 20
 3.15145101927200E+0002
 11
 7.73716236337500E+0002
 21
 3.03010380837500E+0002
  0
LINE
  8
0
 10
 7.73716236337500E+0002
 20
 3.03010380837500E+0002
 11
 7.72660404172800E+0002
 21
 2.90724735948800E+0002
  0
LINE
  8
0
 10
 7.72660404172800E+0002
 20
 2.90724735948800E+0002
 11
 7.71757511412900E+0002
 21
 2.78284786340900E+0002
  0
LINE
  8
0
 10
 7.71757511412900E+0002
 20
 2.78284786340900E+0002
 11
 7.71010891101600E+0002
 21
 2.65687151093600E+0002
  0
LINE
  8
0
 10
 7.71010891101600E+0002
 20
 2.65687151093600E+0002
 11
 7.70423876282700E+0002
 21
 2.52928449286700E+0002
  0
LINE
  8
0
 10
 7.70423876282700E+0002
 20
 2.52928449286700E+0002
 11
 7.69999800000000E+0002
 21
 2.40005300000000E+0002
  0
LINE
  8
0
 10
 7.69999800000000E+0002
 20
 2.40005300000000E+0002
 11
 7.70000000000000E+0002
 21
 1.55000000000000E+0002
  0
LINE
  8
0
 10
 7.70000000000000E+0002
 20
 1.55000000000000E+0002
 11
 8.30000000000000E+0002
 21
 1.55000000000000E+0002
  0
LINE
  8
0
 10
 8.30000000000000E+0002
 20
 1.55000000000000E+0002
 11
 8.30000000000000E+0002
 21
 2.40005300000000E+0002
  0
LINE
  8
0
 10
 8.30000000000000E+0002
 20
 2.40005300000000E+0002
 11
 8.30424023743900E+0002
 21
 2.52928449294400E+0002
  0
LINE
  8
0
 10
 8.30424023743900E+0002
 20
 2.52928449294400E+0002
 11
 8.31010988911200E+0002
 21
 2.65687151155200E+0002
  0
LINE
  8
0
 10
 8.31010988911200E+0002
 20
 2.65687151155200E+0002
 11
 8.31757562405300E+0002
 21
 2.78284786548800E+0002
  0
LINE
  8
0
 10
 8.31757562405300E+0002
 20
 2.78284786548800E+0002
 11
 8.32660411129600E+0002
 21
 2.90724736441600E+0002
  0
LINE
  8
0
 10
 8.32660411129600E+0002
 20
 2.90724736441600E+0002
 11
 8.33716201987500E+0002
 21
 3.03010381800000E+0002
  0
LINE
  8
0
 10
 8.33716201987500E+0002
 20
 3.03010381800000E+0002
 11
 8.34921601882400E+0002
 21
 3.15145103590400E+0002
  0
LINE
  8
0
 10
 8.34921601882400E+0002
 20
 3.15145103590400E+0002
 11
 8.36273277717700E+0002
 21
 3.27132282779200E+0002
  0
LINE
  8
0
 10
 8.36273277717700E+0002
 20
 3.27132282779200E+0002
 11
 8.37767896396800E+0002
 21
 3.38975300332800E+0002
  0
LINE
  8
0
 10
 8.37767896396800E+0002
 20
 3.38975300332800E+0002
 11
 8.39402124823100E+0002
 21
 3.50677537217600E+0002
  0
LINE
  8
0
 10
 8.39402124823100E+0002
 20
 3.50677537217600E+0002
 11
 8.41172629900000E+0002
 21
 3.62242374400000E+0002
  0
LINE
  8
0
 10
 8.41172629900000E+0002
 20
 3.62242374400000E+0002
 11
 8.43076078530900E+0002
 21
 3.73673192846400E+0002
  0
LINE
  8
0
 10
 8.43076078530900E+0002
 20
 3.73673192846400E+0002
 11
 8.45109137619200E+0002
 21
 3.84973373523200E+0002
  0
LINE
  8
0
 10
 8.45109137619200E+0002
 20
 3.84973373523200E+0002
 11
 8.47268474068300E+0002
 21
 3.96146297396800E+0002
  0
LINE
  8
0
 10
 8.47268474068300E+0002
 20
 3.96146297396800E+0002
 11
 8.49550754781600E+0002
 21
 4.07195345433600E+0002
  0
LINE
  8
0
 10
 8.49550754781600E+0002
 20
 4.07195345433600E+0002
 11
 8.51952646662500E+0002
 21
 4.18123898600000E+0002
  0
LINE
  8
0
 10
 8.51952646662500E+0002
 20
 4.18123898600000E+0002
 11
 8.54470816614400E+0002
 21
 4.28935337862400E+0002
  0
LINE
  8
0
 10
 8.54470816614400E+0002
 20
 4.28935337862400E+0002
 11
 8.57101931540700E+0002
 21
 4.39633044187200E+0002
  0
LINE
  8
0
 10
 8.57101931540700E+0002
 20
 4.39633044187200E+0002
 11
 8.59842658344800E+0002
 21
 4.50220398540800E+0002
  0
LINE
  8
0
 10
 8.59842658344800E+0002
 20
 4.50220398540800E+0002
 11
 8.62689663930100E+0002
 21
 4.60700781889600E+0002
  0
LINE
  8
0
 10
 8.62689663930100E+0002
 20
 4.60700781889600E+0002
 11
 8.65639615200000E+0002
 21
 4.71077575200000E+0002
  0
LINE
  8
0
 10
 8.65639615200000E+0002
 20
 4.71077575200000E+0002
 11
 8.68689179057900E+0002
 21
 4.81354159438400E+0002
  0
LINE
  8
0
 10
 8.68689179057900E+0002
 20
 4.81354159438400E+0002
 11
 8.71835022407200E+0002
 21
 4.91533915571200E+0002
  0
LINE
  8
0
 10
 8.71835022407200E+0002
 20
 4.91533915571200E+0002
 11
 8.75073812151300E+0002
 21
 5.01620224564800E+0002
  0
LINE
  8
0
 10
 8.75073812151300E+0002
 20
 5.01620224564800E+0002
 11
 8.78402215193600E+0002
 21
 5.11616467385600E+0002
  0
LINE
  8
0
 10
 8.78402215193600E+0002
 20
 5.11616467385600E+0002
 11
 8.81816898437500E+0002
 21
 5.21526025000000E+0002
  0
LINE
  8
0
 10
 8.81816898437500E+0002
 20
 5.21526025000000E+0002
 11
 8.85314528786400E+0002
 21
 5.31352278374400E+0002
  0
LINE
  8
0
 10
 8.85314528786400E+0002
 20
 5.31352278374400E+0002
 11
 8.88891773143700E+0002
 21
 5.41098608475200E+0002
  0
LINE
  8
0
 10
 8.88891773143700E+0002
 20
 5.41098608475200E+0002
 11
 8.92545298412800E+0002
 21
 5.50768396268800E+0002
  0
LINE
  8
0
 10
 8.92545298412800E+0002
 20
 5.50768396268800E+0002
 11
 8.96271771497100E+0002
 21
 5.60365022721600E+0002
  0
LINE
  8
0
 10
 8.96271771497100E+0002
 20
 5.60365022721600E+0002
 11
 9.00067859300000E+0002
 21
 5.69891868800000E+0002
  0
LINE
  8
0
 10
 9.00067859300000E+0002
 20
 5.69891868800000E+0002
 11
 9.03930228724900E+0002
 21
 5.79352315470400E+0002
  0
LINE
  8
0
 10
 9.03930228724900E+0002
 20
 5.79352315470400E+0002
 11
 9.07855546675200E+0002
 21
 5.88749743699200E+0002
  0
LINE
  8
0
 10
 9.07855546675200E+0002
 20
 5.88749743699200E+0002
 11
 9.11840480054300E+0002
 21
 5.98087534452800E+0002
  0
LINE
  8
0
 10
 9.11840480054300E+0002
 20
 5.98087534452800E+0002
 11
 9.15881695765600E+0002
 21
 6.07369068697600E+0002
  0
LINE
  8
0
 10
 9.15881695765600E+0002
 20
 6.07369068697600E+0002
 11
 9.19975860712500E+0002
 21
 6.16597727400000E+0002
  0
LINE
  8
0
 10
 9.19975860712500E+0002
 20
 6.16597727400000E+0002
 11
 9.24119641798400E+0002
 21
 6.25776891526400E+0002
  0
LINE
  8
0
 10
 9.24119641798400E+0002
 20
 6.25776891526400E+0002
 11
 9.28309705926700E+0002
 21
 6.34909942043200E+0002
  0
LINE
  8
0
 10
 9.28309705926700E+0002
 20
 6.34909942043200E+0002
 11
 9.32542720000800E+0002
 21
 6.44000259916800E+0002
  0
LINE
  8
0
 10
 9.32542720000800E+0002
 20
 6.44000259916800E+0002
 11
 9.36815350924100E+0002
 21
 6.53051226113600E+0002
  0
LINE
  8
0
 10
 9.36815350924100E+0002
 20
 6.53051226113600E+0002
 11
 9.41124265600000E+0002
 21
 6.62066221600000E+0002
  0
LINE
  8
0
 10
 9.41124265600000E+0002
 20
 6.62066221600000E+0002
 11
 9.45466130931900E+0002
 21
 6.71048627342400E+0002
  0
LINE
  8
0
 10
 9.45466130931900E+0002
 20
 6.71048627342400E+0002
 11
 9.49837613823200E+0002
 21
 6.80001824307200E+0002
  0
LINE
  8
0
 10
 9.49837613823200E+0002
 20
 6.80001824307200E+0002
 11
 9.54235381177300E+0002
 21
 6.88929193460800E+0002
  0
LINE
  8
0
 10
 9.54235381177300E+0002
 20
 6.88929193460800E+0002
 11
 9.58656099897600E+0002
 21
 6.97834115769600E+0002
  0
LINE
  8
0
 10
 9.58656099897600E+0002
 20
 6.97834115769600E+0002
 11
 9.63096436887500E+0002
 21
 7.06719972200000E+0002
  0
LINE
  8
0
 10
 9.63096436887500E+0002
 20
 7.06719972200000E+0002
 11
 9.67553059050400E+0002
 21
 7.15590143718400E+0002
  0
LINE
  8
0
 10
 9.67553059050400E+0002
 20
 7.15590143718400E+0002
 11
 9.72022633289700E+0002
 21
 7.24448011291200E+0002
  0
LINE
  8
0
 10
 9.72022633289700E+0002
 20
 7.24448011291200E+0002
 11
 9.76501826508800E+0002
 21
 7.33296955884800E+0002
  0
LINE
  8
0
 10
 9.76501826508800E+0002
 20
 7.33296955884800E+0002
 11
 9.80987305611100E+0002
 21
 7.42140358465600E+0002
  0
LINE
  8
0
 10
 9.80987305611100E+0002
 20
 7.42140358465600E+0002
 11
 9.85475737500000E+0002
 21
 7.50981600000000E+0002
  0
LINE
  8
0
 10
 9.85475737500000E+0002
 20
 7.50981600000000E+0002
 11
 9.89963789078900E+0002
 21
 7.59824061454400E+0002
  0
LINE
  8
0
 10
 9.89963789078900E+0002
 20
 7.59824061454400E+0002
 11
 9.94448127251200E+0002
 21
 7.68671123795200E+0002
  0
LINE
  8
0
 10
 9.94448127251200E+0002
 20
 7.68671123795200E+0002
 11
 9.98925418920300E+0002
 21
 7.77526167988800E+0002
  0
LINE
  8
0
 10
 9.98925418920300E+0002
 20
 7.77526167988800E+0002
 11
 1.00339233098960E+0003
 21
 7.86392575001600E+0002
  0
LINE
  8
0
 10
 1.00339233098960E+0003
 20
 7.86392575001600E+0002
 11
 1.00784553036250E+0003
 21
 7.95273725800000E+0002
  0
LINE
  8
0
 10
 1.00784553036250E+0003
 20
 7.95273725800000E+0002
 11
 1.01228168394240E+0003
 21
 8.04173001350400E+0002
  0
LINE
  8
0
 10
 1.01228168394240E+0003
 20
 8.04173001350400E+0002
 11
 1.01669745863270E+0003
 21
 8.13093782619200E+0002
  0
LINE
  8
0
 10
 1.01669745863270E+0003
 20
 8.13093782619200E+0002
 11
 1.02108952133680E+0003
 21
 8.22039450572800E+0002
  0
LINE
  8
0
 10
 1.02108952133680E+0003
 20
 8.22039450572800E+0002
 11
 1.02545453895810E+0003
 21
 8.31013386177600E+0002
  0
LINE
  8
0
 10
 1.02545453895810E+0003
 20
 8.31013386177600E+0002
 11
 1.02978917840000E+0003
 21
 8.40018970400000E+0002
  0
LINE
  8
0
 10
 1.02978917840000E+0003
 20
 8.40018970400000E+0002
 11
 1.03409010656590E+0003
 21
 8.49059584206400E+0002
  0
LINE
  8
0
 10
 1.03409010656590E+0003
 20
 8.49059584206400E+0002
 11
 1.03835399035920E+0003
 21
 8.58138608563200E+0002
  0
LINE
  8
0
 10
 1.03835399035920E+0003
 20
 8.58138608563200E+0002
 11
 1.04257749668330E+0003
 21
 8.67259424436800E+0002
  0
LINE
  8
0
 10
 1.04257749668330E+0003
 20
 8.67259424436800E+0002
 11
 1.04675729244160E+0003
 21
 8.76425412793600E+0002
  0
LINE
  8
0
 10
 1.04675729244160E+0003
 20
 8.76425412793600E+0002
 11
 1.05089004453750E+0003
 21
 8.85639954600000E+0002
  0
LINE
  8
0
 10
 1.05089004453750E+0003
 20
 8.85639954600000E+0002
 11
 1.05497241987440E+0003
 21
 8.94906430822400E+0002
  0
LINE
  8
0
 10
 1.05497241987440E+0003
 20
 8.94906430822400E+0002
 11
 1.05900108535570E+0003
 21
 9.04228222427200E+0002
  0
LINE
  8
0
 10
 1.05900108535570E+0003
 20
 9.04228222427200E+0002
 11
 1.06297270788480E+0003
 21
 9.13608710380800E+0002
  0
LINE
  8
0
 10
 1.06297270788480E+0003
 20
 9.13608710380800E+0002
 11
 1.06688395436510E+0003
 21
 9.23051275649600E+0002
  0
LINE
  8
0
 10
 1.06688395436510E+0003
 20
 9.23051275649600E+0002
 11
 1.07073149170000E+0003
 21
 9.32559299200000E+0002
  0
LINE
  8
0
 10
 1.07073149170000E+0003
 20
 9.32559299200000E+0002
 11
 1.07451198679290E+0003
 21
 9.42136161998400E+0002
  0
LINE
  8
0
 10
 1.07451198679290E+0003
 20
 9.42136161998400E+0002
 11
 1.07822210654720E+0003
 21
 9.51785245011200E+0002
  0
LINE
  8
0
 10
 1.07822210654720E+0003
 20
 9.51785245011200E+0002
 11
 1.08185851786630E+0003
 21
 9.61509929204800E+0002
  0
LINE
  8
0
 10
 1.08185851786630E+0003
 20
 9.61509929204800E+0002
 11
 1.08541788765360E+0003
 21
 9.71313595545600E+0002
  0
LINE
  8
0
 10
 1.08541788765360E+0003
 20
 9.71313595545600E+0002
 11
 1.08889688281250E+0003
 21
 9.81199625000000E+0002
  0
LINE
  8
0
 10
 1.08889688281250E+0003
 20
 9.81199625000000E+0002
 11
 1.09229217024640E+0003
 21
 9.91171398534400E+0002
  0
LINE
  8
0
 10
 1.09229217024640E+0003
 20
 9.91171398534400E+0002
 11
 1.09560041685870E+0003
 21
 1.00123229711520E+0003
  0
LINE
  8
0
 10
 1.09560041685870E+0003
 20
 1.00123229711520E+0003
 11
 1.09881828955280E+0003
 21
 1.01138570170880E+0003
  0
LINE
  8
0
 10
 1.09881828955280E+0003
 20
 1.01138570170880E+0003
 11
 1.10194245523210E+0003
 21
 1.02163499328160E+0003
  0
LINE
  8
0
 10
 1.10194245523210E+0003
 20
 1.02163499328160E+0003
 11
 1.10496958080000E+0003
 21
 1.03198355280000E+0003
  0
LINE
  8
0
 10
 1.10496958080000E+0003
 20
 1.03198355280000E+0003
 11
 1.10789633315990E+0003
 21
 1.04243476123040E+0003
  0
LINE
  8
0
 10
 1.10789633315990E+0003
 20
 1.04243476123040E+0003
 11
 1.11071937921520E+0003
 21
 1.05299199953920E+0003
  0
LINE
  8
0
 10
 1.11071937921520E+0003
 20
 1.05299199953920E+0003
 11
 1.11343538586930E+0003
 21
 1.06365864869280E+0003
  0
LINE
  8
0
 10
 1.11343538586930E+0003
 20
 1.06365864869280E+0003
 11
 1.11604102002560E+0003
 21
 1.07443808965760E+0003
  0
LINE
  8
0
 10
 1.11604102002560E+0003
 20
 1.07443808965760E+0003
 11
 1.11853294858750E+0003
 21
 1.08533370340000E+0003
  0
LINE
  8
0
 10
 1.11853294858750E+0003
 20
 1.08533370340000E+0003
 11
 1.12090783845840E+0003
 21
 1.09634887088640E+0003
  0
LINE
  8
0
 10
 1.12090783845840E+0003
 20
 1.09634887088640E+0003
 11
 1.12316235654170E+0003
 21
 1.10748697308320E+0003
  0
LINE
  8
0
 10
 1.12316235654170E+0003
 20
 1.10748697308320E+0003
 11
 1.12529316974080E+0003
 21
 1.11875139095680E+0003
  0
LINE
  8
0
 10
 1.12529316974080E+0003
 20
 1.11875139095680E+0003
 11
 1.12729694495910E+0003
 21
 1.13014550547360E+0003
  0
LINE
  8
0
 10
 1.12729694495910E+0003
 20
 1.13014550547360E+0003
 11
 1.12917034910000E+0003
 21
 1.14167269760000E+0003
  0
LINE
  8
0
 10
 1.12917034910000E+0003
 20
 1.14167269760000E+0003
 11
 1.13091004906690E+0003
 21
 1.15333634830240E+0003
  0
LINE
  8
0
 10
 1.13091004906690E+0003
 20
 1.15333634830240E+0003
 11
 1.13251271176320E+0003
 21
 1.16513983854720E+0003
  0
LINE
  8
0
 10
 1.13251271176320E+0003
 20
 1.16513983854720E+0003
 11
 1.13397500409230E+0003
 21
 1.17708654930080E+0003
  0
LINE
  8
0
 10
 1.13397500409230E+0003
 20
 1.17708654930080E+0003
 11
 1.13529359295760E+0003
 21
 1.18917986152960E+0003
  0
LINE
  8
0
 10
 1.13529359295760E+0003
 20
 1.18917986152960E+0003
 11
 1.13646514526250E+0003
 21
 1.20142315620000E+0003
  0
LINE
  8
0
 10
 1.13646514526250E+0003
 20
 1.20142315620000E+0003
 11
 1.13748632791040E+0003
 21
 1.21381981427840E+0003
  0
LINE
  8
0
 10
 1.13748632791040E+0003
 20
 1.21381981427840E+0003
 11
 1.13835380780470E+0003
 21
 1.22637321673120E+0003
  0
LINE
  8
0
 10
 1.13835380780470E+0003
 20
 1.22637321673120E+0003
 11
 1.13906425184880E+0003
 21
 1.23908674452480E+0003
  0
LINE
  8
0
 10
 1.13906425184880E+0003
 20
 1.23908674452480E+0003
 11
 1.13961432694610E+0003
 21
 1.25196377862560E+0003
  0
LINE
  8
0
 10
 1.13961432694610E+0003
 20
 1.25196377862560E+0003
 11
 1.14000070000000E+0003
 21
 1.26500770000000E+0003
  0
LINE
  8
0
 10
 1.14000070000000E+0003
 20
 1.26500770000000E+0003
 11
 1.14000000000000E+0003
 21
 1.30700000000000E+0003
  0
LINE
  8
0
 10
 1.14000000000000E+0003
 20
 1.30700000000000E+0003
 11
 1.18500050944639E+0003
 21
 1.29538091843480E+0003
  0
ARC
  8
0
 10
 1.18800000000000E+0003
 20
 1.30700000000000E+0003
 40
 1.20000000000000E+0001
 50
 2.55525000000000E+0002
 51
 3.93805000000000E+0002
  0
LINE
  8
0
 10
 1.19797123104192E+0003
 20
 1.31367641756549E+0003
 11
 1.11000000000000E+0003
 21
 1.44500000000000E+0003
  0
LINE
  8
0
 10
 1.11000000000000E+0003
 20
 1.44500000000000E+0003
 11
 1.02202876895808E+0003
 21
 1.31367641756549E+0003
  0
ARC
  8
0
 10
 1.03200000000000E+0003
 20
 1.30700000000000E+0003
 40
 1.20000000000000E+0001
 50
 1.46195000000000E+0002
 51
 2.84475000000000E+0002
  0
LINE
  8
0
 10
 1.03499949055361E+0003
 20
 1.29538091843480E+0003
 11
 1.08000000000000E+0003
 21
 1.30700000000000E+0003
  0
LINE
  8
0
 10
 1.08000000000000E+0003
 20
 1.30700000000000E+0003
 11
 1.08000000000000E+0003
 21
 1.26500000000000E+0003
  0
LINE
  8
0
 10
 1.32000000000000E+0003
 20
 1.26500000000000E+0003
 11
 1.31961360410730E+0003
 21
 1.25195630732330E+0003
  0
LINE
  8
0
 10
 1.31961360410730E+0003
 20
 1.25195630732330E+0003
 11
 1.31906350845840E+0003
 21
 1.23907949734640E+0003
  0
LINE
  8
0
 10
 1.31906350845840E+0003
 20
 1.23907949734640E+0003
 11
 1.31835304609710E+0003
 21
 1.22636618914910E+0003
  0
LINE
  8
0
 10
 1.31835304609710E+0003
 20
 1.22636618914910E+0003
 11
 1.31748555006720E+0003
 21
 1.21381300181120E+0003
  0
LINE
  8
0
 10
 1.31748555006720E+0003
 20
 1.21381300181120E+0003
 11
 1.31646435341250E+0003
 21
 1.20141655441250E+0003
  0
LINE
  8
0
 10
 1.31646435341250E+0003
 20
 1.20141655441250E+0003
 11
 1.31529278917680E+0003
 21
 1.18917346603280E+0003
  0
LINE
  8
0
 10
 1.31529278917680E+0003
 20
 1.18917346603280E+0003
 11
 1.31397419040390E+0003
 21
 1.17708035575190E+0003
  0
LINE
  8
0
 10
 1.31397419040390E+0003
 20
 1.17708035575190E+0003
 11
 1.31251189013760E+0003
 21
 1.16513384264960E+0003
  0
LINE
  8
0
 10
 1.31251189013760E+0003
 20
 1.16513384264960E+0003
 11
 1.31090922142170E+0003
 21
 1.15333054580570E+0003
  0
LINE
  8
0
 10
 1.31090922142170E+0003
 20
 1.15333054580570E+0003
 11
 1.30916951730000E+0003
 21
 1.14166708430000E+0003
  0
LINE
  8
0
 10
 1.30916951730000E+0003
 20
 1.14166708430000E+0003
 11
 1.30729611081630E+0003
 21
 1.13014007721230E+0003
  0
LINE
  8
0
 10
 1.30729611081630E+0003
 20
 1.13014007721230E+0003
 11
 1.30529233501440E+0003
 21
 1.11874614362240E+0003
  0
LINE
  8
0
 10
 1.30529233501440E+0003
 20
 1.11874614362240E+0003
 11
 1.30316152293810E+0003
 21
 1.10748190261010E+0003
  0
LINE
  8
0
 10
 1.30316152293810E+0003
 20
 1.10748190261010E+0003
 11
 1.30090700763120E+0003
 21
 1.09634397325520E+0003
  0
LINE
  8
0
 10
 1.30090700763120E+0003
 20
 1.09634397325520E+0003
 11
 1.29853212213750E+0003
 21
 1.08532897463750E+0003
  0
LINE
  8
0
 10
 1.29853212213750E+0003
 20
 1.08532897463750E+0003
 11
 1.29604019950080E+0003
 21
 1.07443352583680E+0003
  0
LINE
  8
0
 10
 1.29604019950080E+0003
 20
 1.07443352583680E+0003
 11
 1.29343457276490E+0003
 21
 1.06365424593290E+0003
  0
LINE
  8
0
 10
 1.29343457276490E+0003
 20
 1.06365424593290E+0003
 11
 1.29071857497360E+0003
 21
 1.05298775400560E+0003
  0
LINE
  8
0
 10
 1.29071857497360E+0003
 20
 1.05298775400560E+0003
 11
 1.28789553917070E+0003
 21
 1.04243066913470E+0003
  0
LINE
  8
0
 10
 1.28789553917070E+0003
 20
 1.04243066913470E+0003
 11
 1.28496879840000E+0003
 21
 1.03197961040000E+0003
  0
LINE
  8
0
 10
 1.28496879840000E+0003
 20
 1.03197961040000E+0003
 11
 1.28194168570530E+0003
 21
 1.02163119688130E+0003
  0
LINE
  8
0
 10
 1.28194168570530E+0003
 20
 1.02163119688130E+0003
 11
 1.27881753413040E+0003
 21
 1.01138204765840E+0003
  0
LINE
  8
0
 10
 1.27881753413040E+0003
 20
 1.01138204765840E+0003
 11
 1.27559967671910E+0003
 21
 1.00122878181110E+0003
  0
LINE
  8
0
 10
 1.27559967671910E+0003
 20
 1.00122878181110E+0003
 11
 1.27229144651520E+0003
 21
 9.91168018419200E+0002
  0
LINE
  8
0
 10
 1.27229144651520E+0003
 20
 9.91168018419200E+0002
 11
 1.26889617656250E+0003
 21
 9.81196376562500E+0002
  0
LINE
  8
0
 10
 1.26889617656250E+0003
 20
 9.81196376562500E+0002
 11
 1.26541719990480E+0003
 21
 9.71310475320800E+0002
  0
LINE
  8
0
 10
 1.26541719990480E+0003
 20
 9.71310475320800E+0002
 11
 1.26185784958590E+0003
 21
 9.61506933773900E+0002
  0
LINE
  8
0
 10
 1.26185784958590E+0003
 20
 9.61506933773900E+0002
 11
 1.25822145864960E+0003
 21
 9.51782371001600E+0002
  0
LINE
  8
0
 10
 1.25822145864960E+0003
 20
 9.51782371001600E+0002
 11
 1.25451136013970E+0003
 21
 9.42133406083700E+0002
  0
LINE
  8
0
 10
 1.25451136013970E+0003
 20
 9.42133406083700E+0002
 11
 1.25073088710000E+0003
 21
 9.32556658100000E+0002
  0
LINE
  8
0
 10
 1.25073088710000E+0003
 20
 9.32556658100000E+0002
 11
 1.24688337257430E+0003
 21
 9.23048746130300E+0002
  0
LINE
  8
0
 10
 1.24688337257430E+0003
 20
 9.23048746130300E+0002
 11
 1.24297214960640E+0003
 21
 9.13606289254400E+0002
  0
LINE
  8
0
 10
 1.24297214960640E+0003
 20
 9.13606289254400E+0002
 11
 1.23900055124010E+0003
 21
 9.04225906552100E+0002
  0
LINE
  8
0
 10
 1.23900055124010E+0003
 20
 9.04225906552100E+0002
 11
 1.23497191051920E+0003
 21
 8.94904217103200E+0002
  0
LINE
  8
0
 10
 1.23497191051920E+0003
 20
 8.94904217103200E+0002
 11
 1.23088956048750E+0003
 21
 8.85637839987500E+0002
  0
LINE
  8
0
 10
 1.23088956048750E+0003
 20
 8.85637839987500E+0002
 11
 1.22675683418880E+0003
 21
 8.76423394284800E+0002
  0
LINE
  8
0
 10
 1.22675683418880E+0003
 20
 8.76423394284800E+0002
 11
 1.22257706466690E+0003
 21
 8.67257499074900E+0002
  0
LINE
  8
0
 10
 1.22257706466690E+0003
 20
 8.67257499074900E+0002
 11
 1.21835358496560E+0003
 21
 8.58136773437600E+0002
  0
LINE
  8
0
 10
 1.21835358496560E+0003
 20
 8.58136773437600E+0002
 11
 1.21408972812870E+0003
 21
 8.49057836452700E+0002
  0
LINE
  8
0
 10
 1.21408972812870E+0003
 20
 8.49057836452700E+0002
 11
 1.20978882720000E+0003
 21
 8.40017307200000E+0002
  0
LINE
  8
0
 10
 1.20978882720000E+0003
 20
 8.40017307200000E+0002
 11
 1.20545421522330E+0003
 21
 8.31011804759300E+0002
  0
LINE
  8
0
 10
 1.20545421522330E+0003
 20
 8.31011804759300E+0002
 11
 1.20108922524240E+0003
 21
 8.22037948210400E+0002
  0
LINE
  8
0
 10
 1.20108922524240E+0003
 20
 8.22037948210400E+0002
 11
 1.19669719030110E+0003
 21
 8.13092356633100E+0002
  0
LINE
  8
0
 10
 1.19669719030110E+0003
 20
 8.13092356633100E+0002
 11
 1.19228144344320E+0003
 21
 8.04171649107200E+0002
  0
LINE
  8
0
 10
 1.19228144344320E+0003
 20
 8.04171649107200E+0002
 11
 1.18784531771250E+0003
 21
 7.95272444712500E+0002
  0
LINE
  8
0
 10
 1.18784531771250E+0003
 20
 7.95272444712500E+0002
 11
 1.18339214615280E+0003
 21
 7.86391362528800E+0002
  0
LINE
  8
0
 10
 1.18339214615280E+0003
 20
 7.86391362528800E+0002
 11
 1.17892526180790E+0003
 21
 7.77525021635900E+0002
  0
LINE
  8
0
 10
 1.17892526180790E+0003
 20
 7.77525021635900E+0002
 11
 1.17444799772160E+0003
 21
 7.68670041113600E+0002
  0
LINE
  8
0
 10
 1.17444799772160E+0003
 20
 7.68670041113600E+0002
 11
 1.16996368693770E+0003
 21
 7.59823040041700E+0002
  0
LINE
  8
0
 10
 1.16996368693770E+0003
 20
 7.59823040041700E+0002
 11
 1.16547566250000E+0003
 21
 7.50980637500000E+0002
  0
LINE
  8
0
 10
 1.16547566250000E+0003
 20
 7.50980637500000E+0002
 11
 1.16098725745230E+0003
 21
 7.42139452568300E+0002
  0
LINE
  8
0
 10
 1.16098725745230E+0003
 20
 7.42139452568300E+0002
 11
 1.15650180483840E+0003
 21
 7.33296104326400E+0002
  0
LINE
  8
0
 10
 1.15650180483840E+0003
 20
 7.33296104326400E+0002
 11
 1.15202263770210E+0003
 21
 7.24447211854100E+0002
  0
LINE
  8
0
 10
 1.15202263770210E+0003
 20
 7.24447211854100E+0002
 11
 1.14755308908720E+0003
 21
 7.15589394231200E+0002
  0
LINE
  8
0
 10
 1.14755308908720E+0003
 20
 7.15589394231200E+0002
 11
 1.14309649203750E+0003
 21
 7.06719270537500E+0002
  0
LINE
  8
0
 10
 1.14309649203750E+0003
 20
 7.06719270537500E+0002
 11
 1.13865617959680E+0003
 21
 6.97833459852800E+0002
  0
LINE
  8
0
 10
 1.13865617959680E+0003
 20
 6.97833459852800E+0002
 11
 1.13423548480890E+0003
 21
 6.88928581256900E+0002
  0
LINE
  8
0
 10
 1.13423548480890E+0003
 20
 6.88928581256900E+0002
 11
 1.12983774071760E+0003
 21
 6.80001253829600E+0002
  0
LINE
  8
0
 10
 1.12983774071760E+0003
 20
 6.80001253829600E+0002
 11
 1.12546628036670E+0003
 21
 6.71048096650700E+0002
  0
LINE
  8
0
 10
 1.12546628036670E+0003
 20
 6.71048096650700E+0002
 11
 1.12112443680000E+0003
 21
 6.62065728800000E+0002
  0
LINE
  8
0
 10
 1.12112443680000E+0003
 20
 6.62065728800000E+0002
 11
 1.11681554306130E+0003
 21
 6.53050769357300E+0002
  0
LINE
  8
0
 10
 1.11681554306130E+0003
 20
 6.53050769357300E+0002
 11
 1.11254293219440E+0003
 21
 6.43999837402400E+0002
  0
LINE
  8
0
 10
 1.11254293219440E+0003
 20
 6.43999837402400E+0002
 11
 1.10830993724310E+0003
 21
 6.34909552015100E+0002
  0
LINE
  8
0
 10
 1.10830993724310E+0003
 20
 6.34909552015100E+0002
 11
 1.10411989125120E+0003
 21
 6.25776532275200E+0002
  0
LINE
  8
0
 10
 1.10411989125120E+0003
 20
 6.25776532275200E+0002
 11
 1.09997612726250E+0003
 21
 6.16597397262500E+0002
  0
LINE
  8
0
 10
 1.09997612726250E+0003
 20
 6.16597397262500E+0002
 11
 1.09588197832080E+0003
 21
 6.07368766056800E+0002
  0
LINE
  8
0
 10
 1.09588197832080E+0003
 20
 6.07368766056800E+0002
 11
 1.09184077746990E+0003
 21
 5.98087257737900E+0002
  0
LINE
  8
0
 10
 1.09184077746990E+0003
 20
 5.98087257737900E+0002
 11
 1.08785585775360E+0003
 21
 5.88749491385600E+0002
  0
LINE
  8
0
 10
 1.08785585775360E+0003
 20
 5.88749491385600E+0002
 11
 1.08393055221570E+0003
 21
 5.79352086079700E+0002
  0
LINE
  8
0
 10
 1.08393055221570E+0003
 20
 5.79352086079700E+0002
 11
 1.08006819390000E+0003
 21
 5.69891660900000E+0002
  0
LINE
  8
0
 10
 1.08006819390000E+0003
 20
 5.69891660900000E+0002
 11
 1.07627211585030E+0003
 21
 5.60364834926300E+0002
  0
LINE
  8
0
 10
 1.07627211585030E+0003
 20
 5.60364834926300E+0002
 11
 1.07254565111040E+0003
 21
 5.50768227238400E+0002
  0
LINE
  8
0
 10
 1.07254565111040E+0003
 20
 5.50768227238400E+0002
 11
 1.06889213272410E+0003
 21
 5.41098456916100E+0002
  0
LINE
  8
0
 10
 1.06889213272410E+0003
 20
 5.41098456916100E+0002
 11
 1.06531489373520E+0003
 21
 5.31352143039200E+0002
  0
LINE
  8
0
 10
 1.06531489373520E+0003
 20
 5.31352143039200E+0002
 11
 1.06181726718750E+0003
 21
 5.21525904687500E+0002
  0
LINE
  8
0
 10
 1.06181726718750E+0003
 20
 5.21525904687500E+0002
 11
 1.05840258612480E+0003
 21
 5.11616360940800E+0002
  0
LINE
  8
0
 10
 1.05840258612480E+0003
 20
 5.11616360940800E+0002
 11
 1.05507418359090E+0003
 21
 5.01620130878900E+0002
  0
LINE
  8
0
 10
 1.05507418359090E+0003
 20
 5.01620130878900E+0002
 11
 1.05183539262960E+0003
 21
 4.91533833581600E+0002
  0
LINE
  8
0
 10
 1.05183539262960E+0003
 20
 4.91533833581600E+0002
 11
 1.04868954628470E+0003
 21
 4.81354088128700E+0002
  0
LINE
  8
0
 10
 1.04868954628470E+0003
 20
 4.81354088128700E+0002
 11
 1.04563997760000E+0003
 21
 4.71077513600000E+0002
  0
LINE
  8
0
 10
 1.04563997760000E+0003
 20
 4.71077513600000E+0002
 11
 1.04269001961930E+0003
 21
 4.60700729075300E+0002
  0
LINE
  8
0
 10
 1.04269001961930E+0003
 20
 4.60700729075300E+0002
 11
 1.03984300538640E+0003
 21
 4.50220353634400E+0002
  0
LINE
  8
0
 10
 1.03984300538640E+0003
 20
 4.50220353634400E+0002
 11
 1.03710226794510E+0003
 21
 4.39633006357100E+0002
  0
LINE
  8
0
 10
 1.03710226794510E+0003
 20
 4.39633006357100E+0002
 11
 1.03447114033920E+0003
 21
 4.28935306323200E+0002
  0
LINE
  8
0
 10
 1.03447114033920E+0003
 20
 4.28935306323200E+0002
 11
 1.03195295561250E+0003
 21
 4.18123872612500E+0002
  0
LINE
  8
0
 10
 1.03195295561250E+0003
 20
 4.18123872612500E+0002
 11
 1.02955104680880E+0003
 21
 4.07195324304800E+0002
  0
LINE
  8
0
 10
 1.02955104680880E+0003
 20
 4.07195324304800E+0002
 11
 1.02726874697190E+0003
 21
 3.96146280479900E+0002
  0
LINE
  8
0
 10
 1.02726874697190E+0003
 20
 3.96146280479900E+0002
 11
 1.02510938914560E+0003
 21
 3.84973360217600E+0002
  0
LINE
  8
0
 10
 1.02510938914560E+0003
 20
 3.84973360217600E+0002
 11
 1.02307630637370E+0003
 21
 3.73673182597700E+0002
  0
LINE
  8
0
 10
 1.02307630637370E+0003
 20
 3.73673182597700E+0002
 11
 1.02117283170000E+0003
 21
 3.62242366700000E+0002
  0
LINE
  8
0
 10
 1.02117283170000E+0003
 20
 3.62242366700000E+0002
 11
 1.01940229816830E+0003
 21
 3.50677531604300E+0002
  0
LINE
  8
0
 10
 1.01940229816830E+0003
 20
 3.50677531604300E+0002
 11
 1.01776803882240E+0003
 21
 3.38975296390400E+0002
  0
LINE
  8
0
 10
 1.01776803882240E+0003
 20
 3.38975296390400E+0002
 11
 1.01627338670610E+0003
 21
 3.27132280138100E+0002
  0
LINE
  8
0
 10
 1.01627338670610E+0003
 20
 3.27132280138100E+0002
 11
 1.01492167486320E+0003
 21
 3.15145101927200E+0002
  0
LINE
  8
0
 10
 1.01492167486320E+0003
 20
 3.15145101927200E+0002
 11
 1.01371623633750E+0003
 21
 3.03010380837500E+0002
  0
LINE
  8
0
 10
 1.01371623633750E+0003
 20
 3.03010380837500E+0002
 11
 1.01266040417280E+0003
 21
 2.90724735948800E+0002
  0
LINE
  8
0
 10
 1.01266040417280E+0003
 20
 2.90724735948800E+0002
 11
 1.01175751141290E+0003
 21
 2.78284786340900E+0002
  0
LINE
  8
0
 10
 1.01175751141290E+0003
 20
 2.78284786340900E+0002
 11
 1.01101089110160E+0003
 21
 2.65687151093600E+0002
  0
LINE
  8
0
 10
 1.01101089110160E+0003
 20
 2.65687151093600E+0002
 11
 1.01042387628270E+0003
 21
 2.52928449286700E+0002
  0
LINE
  8
0
 10
 1.01042387628270E+0003
 20
 2.52928449286700E+0002
 11
 1.00999980000000E+0003
 21
 2.40005300000000E+0002
  0
LINE
  8
0
 10
 1.00999980000000E+0003
 20
 2.40005300000000E+0002
 11
 1.01000000000000E+0003
 21
 1.55000000000000E+0002
  0
LINE
  8
0
 10
 1.01000000000000E+0003
 20
 1.55000000000000E+0002
 11
 1.07000000000000E+0003
 21
 1.55000000000000E+0002
  0
LINE
  8
0
 10
 1.07000000000000E+0003
 20
 1.55000000000000E+0002
 11
 1.07000000000000E+0003
 21
 2.40005300000000E+0002
  0
LINE
  8
0
 10
 1.07000000000000E+0003
 20
 2.40005300000000E+0002
 11
 1.07042402374390E+0003
 21
 2.52928449294400E+0002
  0
LINE
  8
0
 10
 1.07042402374390E+0003
 20
 2.52928449294400E+0002
 11
 1.07101098891120E+0003
 21
 2.65687151155200E+0002
  0
LINE
  8
0
 10
 1.07101098891120E+0003
 20
 2.65687151155200E+0002
 11
 1.07175756240530E+0003
 21
 2.78284786548800E+0002
  0
LINE
  8
0
 10
 1.07175756240530E+0003
 20
 2.78284786548800E+0002
 11
 1.07266041112960E+0003
 21
 2.90724736441600E+0002
  0
LINE
  8
0
 10
 1.07266041112960E+0003
 20
 2.90724736441600E+0002
 11
 1.07371620198750E+0003
 21
 3.03010381800000E+0002
  0
LINE
  8
0
 10
 1.07371620198750E+0003
 20
 3.03010381800000E+0002
 11
 1.07492160188240E+0003
 21
 3.15145103590400E+0002
  0
LINE
  8
0
 10
 1.07492160188240E+0003
 20
 3.15145103590400E+0002
 11
 1.07627327771770E+0003
 21
 3.27132282779200E+0002
  0
LINE
  8
0
 10
 1.07627327771770E+0003
 20
 3.27132282779200E+0002
 11
 1.07776789639680E+0003
 21
 3.38975300332800E+0002
  0
LINE
  8
0
 10
 1.07776789639680E+0003
 20
 3.38975300332800E+0002
 11
 1.07940212482310E+0003
 21
 3.50677537217600E+0002
  0
LINE
  8
0
 10
 1.07940212482310E+0003
 20
 3.50677537217600E+0002
 11
 1.08117262990000E+0003
 21
 3.62242374400000E+0002
  0
LINE
  8
0
 10
 1.08117262990000E+0003
 20
 3.62242374400000E+0002
 11
 1.08307607853090E+0003
 21
 3.73673192846400E+0002
  0
LINE
  8
0
 10
 1.08307607853090E+0003
 20
 3.73673192846400E+0002
 11
 1.08510913761920E+0003
 21
 3.84973373523200E+0002
  0
LINE
  8
0
 10
 1.08510913761920E+0003
 20
 3.84973373523200E+0002
 11
 1.08726847406830E+0003
 21
 3.96146297396800E+0002
  0
LINE
  8
0
 10
 1.08726847406830E+0003
 20
 3.96146297396800E+0002
 11
 1.08955075478160E+0003
 21
 4.07195345433600E+0002
  0
LINE
  8
0
 10
 1.08955075478160E+0003
 20
 4.07195345433600E+0002
 11
 1.09195264666250E+0003
 21
 4.18123898600000E+0002
  0
LINE
  8
0
 10
 1.09195264666250E+0003
 20
 4.18123898600000E+0002
 11
 1.09447081661440E+0003
 21
 4.28935337862400E+0002
  0
LINE
  8
0
 10
 1.09447081661440E+0003
 20
 4.28935337862400E+0002
 11
 1.09710193154070E+0003
 21
 4.39633044187200E+0002
  0
LINE
  8
0
 10
 1.09710193154070E+0003
 20
 4.39633044187200E+0002
 11
 1.09984265834480E+0003
 21
 4.50220398540800E+0002
  0
LINE
  8
0
 10
 1.09984265834480E+0003
 20
 4.50220398540800E+0002
 11
 1.10268966393010E+0003
 21
 4.60700781889600E+0002
  0
LINE
  8
0
 10
 1.10268966393010E+0003
 20
 4.60700781889600E+0002
 11
 1.10563961520000E+0003
 21
 4.71077575200000E+0002
  0
LINE
  8
0
 10
 1.10563961520000E+0003
 20
 4.71077575200000E+0002
 11
 1.10868917905790E+0003
 21
 4.81354159438400E+0002
  0
LINE
  8
0
 10
 1.10868917905790E+0003
 20
 4.81354159438400E+0002
 11
 1.11183502240720E+0003
 21
 4.91533915571200E+0002
  0
LINE
  8
0
 10
 1.11183502240720E+0003
 20
 4.91533915571200E+0002
 11
 1.11507381215130E+0003
 21
 5.01620224564800E+0002
  0
LINE
  8
0
 10
 1.11507381215130E+0003
 20
 5.01620224564800E+0002
 11
 1.11840221519360E+0003
 21
 5.11616467385600E+0002
  0
LINE
  8
0
 10
 1.11840221519360E+0003
 20
 5.11616467385600E+0002
 11
 1.12181689843750E+0003
 21
 5.21526025000000E+0002
  0
LINE
  8
0
 10
 1.12181689843750E+0003
 20
 5.21526025000000E+0002
 11
 1.12531452878640E+0003
 21
 5.31352278374400E+0002
  0
LINE
  8
0
 10
 1.12531452878640E+0003
 20
 5.31352278374400E+0002
 11
 1.12889177314370E+0003
 21
 5.41098608475200E+0002
  0
LINE
  8
0
 10
 1.12889177314370E+0003
 20
 5.41098608475200E+0002
 11
 1.13254529841280E+0003
 21
 5.50768396268800E+0002
  0
LINE
  8
0
 10
 1.13254529841280E+0003
 20
 5.50768396268800E+0002
 11
 1.13627177149710E+0003
 21
 5.60365022721600E+0002
  0
LINE
  8
0
 10
 1.13627177149710E+0003
 20
 5.60365022721600E+0002
 11
 1.14006785930000E+0003
 21
 5.69891868800000E+0002
  0
LINE
  8
0
 10
 1.14006785930000E+0003
 20
 5.69891868800000E+0002
 11
 1.14393022872490E+0003
 21
 5.79352315470400E+0002
  0
LINE
  8
0
 10
 1.14393022872490E+0003
 20
 5.79352315470400E+0002
 11
 1.14785554667520E+0003
 21
 5.88749743699200E+0002
  0
LINE
  8
0
 10
 1.14785554667520E+0003
 20
 5.88749743699200E+0002
 11
 1.15184048005430E+0003
 21
 5.98087534452800E+0002
  0
LINE
  8
0
 10
 1.15184048005430E+0003
 20
 5.98087534452800E+0002
 11
 1.15588169576560E+0003
 21
 6.07369068697600E+0002
  0
LINE
  8
0
 10
 1.15588169576560E+0003
 20
 6.07369068697600E+0002
 11
 1.15997586071250E+0003
 21
 6.16597727400000E+0002
  0
LINE
  8
0
 10
 1.15997586071250E+0003
 20
 6.16597727400000E+0002
 11
 1.16411964179840E+0003
 21
 6.25776891526400E+0002
  0
LINE
  8
0
 10
 1.16411964179840E+0003
 20
 6.25776891526400E+0002
 11
 1.16830970592670E+0003
 21
 6.34909942043200E+0002
  0
LINE
  8
0
 10
 1.16830970592670E+0003
 20
 6.34909942043200E+0002
 11
 1.17254272000080E+0003
 21
 6.44000259916800E+0002
  0
LINE
  8
0
 10
 1.17254272000080E+0003
 20
 6.44000259916800E+0002
 11
 1.17681535092410E+0003
 21
 6.53051226113600E+0002
  0
LINE
  8
0
 10
 1.17681535092410E+0003
 20
 6.53051226113600E+0002
 11
 1.18112426560000E+0003
 21
 6.62066221600000E+0002
  0
LINE
  8
0
 10
 1.18112426560000E+0003
 20
 6.62066221600000E+0002
 11
 1.18546613093190E+0003
 21
 6.71048627342400E+0002
  0
LINE
  8
0
 10
 1.18546613093190E+0003
 20
 6.71048627342400E+0002
 11
 1.18983761382320E+0003
 21
 6.80001824307200E+0002
  0
LINE
  8
0
 10
 1.18983761382320E+0003
 20
 6.80001824307200E+0002
 11
 1.19423538117730E+0003
 21
 6.88929193460800E+0002
  0
LINE
  8
0
 10
 1.19423538117730E+0003
 20
 6.88929193460800E+0002
 11
 1.19865609989760E+0003
 21
 6.97834115769600E+0002
  0
LINE
  8
0
 10
 1.19865609989760E+0003
 20
 6.97834115769600E+0002
 11
 1.20309643688750E+0003
 21
 7.06719972200000E+0002
  0
LINE
  8
0
 10
 1.20309643688750E+0003
 20
 7.06719972200000E+0002
 11
 1.20755305905040E+0003
 21
 7.15590143718400E+0002
  0
LINE
  8
0
 10
 1.20755305905040E+0003
 20
 7.15590143718400E+0002
 11
 1.21202263328970E+0003
 21
 7.24448011291200E+0002
  0
LINE
  8
0
 10
 1.21202263328970E+0003
 20
 7.24448011291200E+0002
 11
 1.21650182650880E+0003
 21
 7.33296955884800E+0002
  0
LINE
  8
0
 10
 1.21650182650880E+0003
 20
 7.33296955884800E+0002
 11
 1.22098730561110E+0003
 21
 7.42140358465600E+0002
  0
LINE
  8
0
 10
 1.22098730561110E+0003
 20
 7.42140358465600E+0002
 11
 1.22547573750000E+0003
 21
 7.50981600000000E+0002
  0
LINE
  8
0
 10
 1.22547573750000E+0003
 20
 7.50981600000000E+0002
 11
 1.22996378907890E+0003
 21
 7.59824061454400E+0002
  0
LINE
  8
0
 10
 1.22996378907890E+0003
 20
 7.59824061454400E+0002
 11
 1.23444812725120E+0003
 21
 7.68671123795200E+0002
  0
LINE
  8
0
 10
 1.23444812725120E+0003
 20
 7.68671123795200E+0002
 11
 1.23892541892030E+0003
 21
 7.77526167988800E+0002
  0
LINE
  8
0
 10
 1.23892541892030E+0003
 20
 7.77526167988800E+0002
 11
 1.24339233098960E+0003
 21
 7.86392575001600E+0002
  0
LINE
  8
0
 10
 1.24339233098960E+0003
 20
 7.86392575001600E+0002
 11
 1.24784553036250E+0003
 21
 7.95273725800000E+0002
  0
LINE
  8
0
 10
 1.24784553036250E+0003
 20
 7.95273725800000E+0002
 11
 1.25228168394240E+0003
 21
 8.04173001350400E+0002
  0
LINE
  8
0
 10
 1.25228168394240E+0003
 20
 8.04173001350400E+0002
 11
 1.25669745863270E+0003
 21
 8.13093782619200E+0002
  0
LINE
  8
0
 10
 1.25669745863270E+0003
 20
 8.13093782619200E+0002
 11
 1.26108952133680E+0003
 21
 8.22039450572800E+0002
  0
LINE
  8
0
 10
 1.26108952133680E+0003
 20
 8.22039450572800E+0002
 11
 1.26545453895810E+0003
 21
 8.31013386177600E+0002
  0
LINE
  8
0
 10
 1.26545453895810E+0003
 20
 8.31013386177600E+0002
 11
 1.26978917840000E+0003
 21
 8.40018970400000E+0002
  0
LINE
  8
0
 10
 1.26978917840000E+0003
 20
 8.40018970400000E+0002
 11
 1.27409010656590E+0003
 21
 8.49059584206400E+0002
  0
LINE
  8
0
 10
 1.27409010656590E+0003
 20
 8.49059584206400E+0002
 11
 1.27835399035920E+0003
 21
 8.58138608563200E+0002
  0
LINE
  8
0
 10
 1.27835399035920E+0003
 20
 8.58138608563200E+0002
 11
 1.28257749668330E+0003
 21
 8.67259424436800E+0002
  0
LINE
  8
0
 10
 1.28257749668330E+0003
 20
 8.67259424436800E+0002
 11
 1.28675729244160E+0003
 21
 8.76425412793600E+0002
  0
LINE
  8
0
 10
 1.28675729244160E+0003
 20
 8.76425412793600E+0002
 11
 1.29089004453750E+0003
 21
 8.85639954600000E+0002
  0
LINE
  8
0
 10
 1.29089004453750E+0003
 20
 8.85639954600000E+0002
 11
 1.29497241987440E+0003
 21
 8.94906430822400E+0002
  0
LINE
  8
0
 10
 1.29497241987440E+0003
 20
 8.94906430822400E+0002
 11
 1.29900108535570E+0003
 21
 9.04228222427200E+0002
  0
LINE
  8
0
 10
 1.29900108535570E+0003
 20
 9.04228222427200E+0002
 11
 1.30297270788480E+0003
 21
 9.13608710380800E+0002
  0
LINE
  8
0
 10
 1.30297270788480E+0003
 20
 9.13608710380800E+0002
 11
 1.30688395436510E+0003
 21
 9.23051275649600E+0002
  0
LINE
  8
0
 10
 1.30688395436510E+0003
 20
 9.23051275649600E+0002
 11
 1.31073149170000E+0003
 21
 9.32559299200000E+0002
  0
LINE
  8
0
 10
 1.31073149170000E+0003
 20
 9.32559299200000E+0002
 11
 1.31451198679290E+0003
 21
 9.42136161998400E+0002
  0
LINE
  8
0
 10
 1.31451198679290E+0003
 20
 9.42136161998400E+0002
 11
 1.31822210654720E+0003
 21
 9.51785245011200E+0002
  0
LINE
  8
0
 10
 1.31822210654720E+0003
 20
 9.51785245011200E+0002
 11
 1.32185851786630E+0003
 21
 9.61509929204800E+0002
  0
LINE
  8
0
 10
 1.32185851786630E+0003
 20
 9.61509929204800E+0002
 11
 1.32541788765360E+0003
 21
 9.71313595545600E+0002
  0
LINE
  8
0
 10
 1.32541788765360E+0003
 20
 9.71313595545600E+0002
 11
 1.32889688281250E+0003
 21
 9.81199625000000E+0002
  0
LINE
  8
0
 10
 1.32889688281250E+0003
 20
 9.81199625000000E+0002
 11
 1.33229217024640E+0003
 21
 9.91171398534400E+0002
  0
LINE
  8
0
 10
 1.33229217024640E+0003
 20
 9.91171398534400E+0002
 11
 1.33560041685870E+0003
 21
 1.00123229711520E+0003
  0
LINE
  8
0
 10
 1.33560041685870E+0003
 20
 1.00123229711520E+0003
 11
 1.33881828955280E+0003
 21
 1.01138570170880E+0003
  0
LINE
  8
0
 10
 1.33881828955280E+0003
 20
 1.01138570170880E+0003
 11
 1.34194245523210E+0003
 21
 1.02163499328160E+0003
  0
LINE
  8
0
 10
 1.34194245523210E+0003
 20
 1.02163499328160E+0003
 11
 1.34496958080000E+0003
 21
 1.03198355280000E+0003
  0
LINE
  8
0
 10
 1.34496958080000E+0003
 20
 1.03198355280000E+0003
 11
 1.34789633315990E+0003
 21
 1.04243476123040E+0003
  0
LINE
  8
0
 10
 1.34789633315990E+0003
 20
 1.04243476123040E+0003
 11
 1.35071937921520E+0003
 21
 1.05299199953920E+0003
  0
LINE
  8
0
 10
 1.35071937921520E+0003
 20
 1.05299199953920E+0003
 11
 1.35343538586930E+0003
 21
 1.06365864869280E+0003
  0
LINE
  8
0
 10
 1.35343538586930E+0003
 20
 1.06365864869280E+0003
 11
 1.35604102002560E+0003
 21
 1.07443808965760E+0003
  0
LINE
  8
0
 10
 1.35604102002560E+0003
 20
 1.07443808965760E+0003
 11
 1.35853294858750E+0003
 21
 1.08533370340000E+0003
  0
LINE
  8
0
 10
 1.35853294858750E+0003
 20
 1.08533370340000E+0003
 11
 1.36090783845840E+0003
 21
 1.09634887088640E+0003
  0
LINE
  8
0
 10
 1.36090783845840E+0003
 20
 1.09634887088640E+0003
 11
 1.36316235654170E+0003
 21
 1.10748697308320E+0003
  0
LINE
  8
0
 10
 1.36316235654170E+0003
 20
 1.10748697308320E+0003
 11
 1.36529316974080E+0003
 21
 1.11875139095680E+0003
  0
LINE
  8
0
 10
 1.36529316974080E+0003
 20
 1.11875139095680E+0003
 11
 1.36729694495910E+0003
 21
 1.13014550547360E+0003
  0
LINE
  8
0
 10
 1.36729694495910E+0003
 20
 1.13014550547360E+0003
 11
 1.36917034910000E+0003
 21
 1.14167269760000E+0003
  0
LINE
  8
0
 10
 1.36917034910000E+0003
 20
 1.14167269760000E+0003
 11
 1.37091004906690E+0003
 21
 1.15333634830240E+0003
  0
LINE
  8
0
 10
 1.37091004906690E+0003
 20
 1.15333634830240E+0003
 11
 1.37251271176320E+0003
 21
 1.16513983854720E+0003
  0
LINE
  8
0
 10
 1.37251271176320E+0003
 20
 1.16513983854720E+0003
 11
 1.37397500409230E+0003
 21
 1.17708654930080E+0003
  0
LINE
  8
0
 10
 1.37397500409230E+0003
 20
 1.17708654930080E+0003
 11
 1.37529359295760E+0003
 21
 1.18917986152960E+0003
  0
LINE
  8
0
 10
 1.37529359295760E+0003
 20
 1.18917986152960E+0003
 11
 1.37646514526250E+0003
 21
 1.20142315620000E+0003
  0
LINE
  8
0
 10
 1.37646514526250E+0003
 20
 1.20142315620000E+0003
 11
 1.37748632791040E+0003
 21
 1.21381981427840E+0003
  0
LINE
  8
0
 10
 1.37748632791040E+0003
 20
 1.21381981427840E+0003
 11
 1.37835380780470E+0003
 21
 1.22637321673120E+0003
  0
LINE
  8
0
 10
 1.37835380780470E+0003
 20
 1.22637321673120E+0003
 11
 1.37906425184880E+0003
 21
 1.23908674452480E+0003
  0
LINE
  8
0
 10
 1.37906425184880E+0003
 20
 1.23908674452480E+0003
 11
 1.37961432694610E+0003
 21
 1.25196377862560E+0003
  0
LINE
  8
0
 10
 1.37961432694610E+0003
 20
 1.25196377862560E+0003
 11
 1.38000070000000E+0003
 21
 1.26500770000000E+0003
  0
LINE
  8
0
 10
 1.38000070000000E+0003
 20
 1.26500770000000E+0003
 11
 1.38000000000000E+0003
 21
 1.30700000000000E+0003
  0
LINE
  8
0
 10
 1.38000000000000E+0003
 20
 1.30700000000000E+0003
 11
 1.42500050944639E+0003
 21
 1.29538091843480E+0003
  0
ARC
  8
0
 10
 1.42800000000000E+0003
 20
 1.30700000000000E+0003
 40
 1.20000000000000E+0001
 50
 2.55525000000000E+0002
 51
 3.93805000000000E+0002
  0
LINE
  8
0
 10
 1.43797123104192E+0003
 20
 1.31367641756549E+0003
 11
 1.35000000000000E+0003
 21
 1.44500000000000E+0003
  0
LINE
  8
0
 10
 1.35000000000000E+0003
 20
 1.44500000000000E+0003
 11
 1.26202876895808E+0003
 21
 1.31367641756549E+0003
  0
ARC
  8
0
 10
 1.27200000000000E+0003
 20
 1.30700000000000E+0003
 40
 1.20000000000000E+0001
 50
 1.46195000000000E+0002
 51
 2.84475000000000E+0002
  0
LINE
  8
0
 10
 1.27499949055361E+0003
 20
 1.29538091843480E+0003
 11
 1.32000000000000E+0003
 21
 1.30700000000000E+0003
  0
LINE
  8
0
 10
 1.32000000000000E+0003
 20
 1.30700000000000E+0003
 11
 1.32000000000000E+0003
 21
 1.26500000000000E+0003
  0
LINE
  8
0
 10
 5.60000000000000E+0002
 20
 1.53500000000000E+0003
 11
 5.90000000000000E+0002
 21
 1.53500000000000E+0003
  0
ARC
  8
0
 10
-1.60000000000000E+0002
 20
 1.53500000000000E+0003
 40
 7.50000000000000E+0002
 50
 3.40811860000000E+0002
 51
 3.60000000000000E+0002
  0
LINE
  8
0
 10
 5.48333318076195E+0002
 20
 1.28849663186243E+0003
 11
 5.48333332723048E+0002
 21
 1.28849686527450E+0003
  0
ARC
  8
0
 10
 5.20000000000000E+0002
 20
 1.29835700000000E+0003
 40
 3.00000000000000E+0001
 50
 1.99188140000000E+0002
 51
 3.40811860000000E+0002
  0
LINE
  8
0
 10
 4.91666667276952E+0002
 20
 1.28849686527450E+0003
 11
 4.91666681923805E+0002
 21
 1.28849663186243E+0003
  0
ARC
  8
0
 10
 1.20000000000000E+0003
 20
 1.53500000000000E+0003
 40
 7.50000000000000E+0002
 50
 1.80000000000000E+0002
 51
 1.99188140000000E+0002
  0
LINE
  8
0
 10
 4.50000000000000E+0002
 20
 1.53500000000000E+0003
 11
 4.80000000000000E+0002
 21
 1.53500000000000E+0003
  0
ARC
  8
0
 10
 1.20000000000000E+0003
 20
 1.53500000000000E+0003
 40
 7.20000000000000E+0002
 50
 1.80000000000000E+0002
 51
 1.99188140000000E+0002
  0
LINE
  8
0
 10
 5.20000014646853E+0002
 20
 1.29835676658793E+0003
 11
 5.19999985353147E+0002
 21
 1.29835676658793E+0003
  0
ARC
  8
0
 10
-1.60000000000000E+0002
 20
 1.53500000000000E+0003
 40
 7.20000000000000E+0002
 50
 3.40811860000000E+0002
 51
 3.60000000000000E+0002
  0
ENDSEC
  0
EOF
