  0
SECTION
  2
HEADER
  9
$ACADVER
  1
AC1003
  9
$INSBASE
 10
0.0
 20
0.0
  9
$EXTMIN
 10
 0.00000000000000E+0000
 20
 0.00000000000000E+0000
  9
$EXTMAX
 10
 1.60000000000000E+0003
 20
 1.60000000000000E+0003
  9
$LIMMIN
 10
0.0
 20
0.0
  9
$LIMMAX
 10
410.0
 20
287.0
  9
$VIEWCTR
 10
227.0059616
 20
165.058879 
  9
$VIEWSIZE
 40
 1.60000000000000E+0003
9
$SNAPMODE
70
0
9
$SNAPUNIT
10
1
20
1
9
$GRIDMODE
70
0
9
$GRIDUNIT
10
1
20
1
9
$ORTHOMODE
70
0
9
$rEGENMODE
70
1
9
$FILLMODE
70
1
9
$DRAGMODE
70
2
9
$LTSCALE
40
25.0
9
$OSMODE
70
0
9
$ATTMODE
70
1
9
$TRACEWID
40
1.0
9
$TEXTSTYLE
7
STANDARD
9
$CLAYER
8
0
9
$CELTYPE
6
VONLAYER
9
$CECOLOR
62
256
9
$LUNITS
70
2
9
$LUPREC
70
2
9
$AXISMODE
70
0
9
$AXISUNIT
10
0
20
0
9
$SKETCHINC
40
1.0
9
$FILLETRAD
40
0.0
9
$AUNITS
70
0
9
$AUPREC
70
0
9
$MENU
1
ACAD
9
$ELEVATION
40
0.0
9
$THICKNESS
40
0.0
9
$VIEWDIR
10
0.0
20
0.0
30
1.0
9
$LIMCHECK
70
0
9
$BLIPMODE
70
1
9
$CHAMFERA
40
0.0
9
$CHAMFERB
40
0.0
9
$USRTIMER
70
1
9
$ANGBASE
50
0.0
9
$ANGDIR
70
0
9
$PDMODE
70
0
9
$PDSIZE
40
0.0
9
$PLINEWID
40
0.0
9
$COORDS
70
0
0
ENDSEC
0
SECTION
2
TABLES
0
TABLE
2
LTYPE
70
1
0
LTYPE
2
AUSGEZOGEN
70
64
3
Ausgezogene Linie
72
65
73
0
40
0.0
0
ENDTAB
0
TABLE
2
LAYER
70
1
0
LAYER
2
0
70
0
62
7
6
AUSGEZOGEN
0
ENDTAB
0
TABLE
2
STYLE
70
1
0
STYLE
2
STANDARD
70
0
40
0.0
41
1.0
50
0.0
71
0
42
3.5
3
txt
4

0
ENDTAB
0
TABLE
2
VIEW
70
0
0
ENDTAB
0
ENDSEC
0
SECTION
2
BLOCKS
0
ENDSEC
0
SECTION
2
ENTITIES
  0
ARC
  8
0
 10
 6.00000000000000E+0001
 20
 6.00000000000000E+0001
 40
 6.00000000000000E+0001
 50
 1.80000000000000E+0002
 51
 2.70000000000000E+0002
  0
LINE
  8
0
 10
 0.00000000000000E+0000
 20
 6.00000000000000E+0001
 11
 0.00000000000000E+0000
 21
 1.54000000000000E+0003
  0
ARC
  8
0
 10
 6.00000000000000E+0001
 20
 1.54000000000000E+0003
 40
 6.00000000000000E+0001
 50
 9.00000000000000E+0001
 51
 1.80000000000000E+0002
  0
LINE
  8
0
 10
 6.00000000000000E+0001
 20
 1.60000000000000E+0003
 11
 1.54000000000000E+0003
 21
 1.60000000000000E+0003
  0
ARC
  8
0
 10
 1.54000000000000E+0003
 20
 1.54000000000000E+0003
 40
 6.00000000000000E+0001
 50
 0.00000000000000E+0000
 51
 9.00000000000000E+0001
  0
LINE
  8
0
 10
 1.60000000000000E+0003
 20
 1.54000000000000E+0003
 11
 1.60000000000000E+0003
 21
 6.00000000000000E+0001
  0
ARC
  8
0
 10
 1.54000000000000E+0003
 20
 6.00000000000000E+0001
 40
 6.00000000000000E+0001
 50
 2.70000000000000E+0002
 51
 3.60000000000000E+0002
  0
LINE
  8
0
 10
 1.54000000000000E+0003
 20
 0.00000000000000E+0000
 11
 6.00000000000000E+0001
 21
 0.00000000000000E+0000
  0
ARC
  8
0
 10
 6.00000000000000E+0001
 20
 6.00000000000000E+0001
 40
 4.50000000000000E+0001
 50
 1.80000000000000E+0002
 51
 2.70000000000000E+0002
  0
LINE
  8
0
 10
 1.50000000000000E+0001
 20
 6.00000000000000E+0001
 11
 1.50000000000000E+0001
 21
 1.54000000000000E+0003
  0
ARC
  8
0
 10
 6.00000000000000E+0001
 20
 1.54000000000000E+0003
 40
 4.50000000000000E+0001
 50
 9.00000000000000E+0001
 51
 1.80000000000000E+0002
  0
LINE
  8
0
 10
 6.00000000000000E+0001
 20
 1.58500000000000E+0003
 11
 1.54000000000000E+0003
 21
 1.58500000000000E+0003
  0
ARC
  8
0
 10
 1.54000000000000E+0003
 20
 1.54000000000000E+0003
 40
 4.50000000000000E+0001
 50
 0.00000000000000E+0000
 51
 9.00000000000000E+0001
  0
LINE
  8
0
 10
 1.58500000000000E+0003
 20
 1.54000000000000E+0003
 11
 1.58500000000000E+0003
 21
 6.00000000000000E+0001
  0
ARC
  8
0
 10
 1.54000000000000E+0003
 20
 6.00000000000000E+0001
 40
 4.50000000000000E+0001
 50
 2.70000000000000E+0002
 51
 3.60000000000000E+0002
  0
LINE
  8
0
 10
 1.54000000000000E+0003
 20
 1.50000000000000E+0001
 11
 6.00000000000000E+0001
 21
 1.50000000000000E+0001
  0
ARC
  8
0
 10
 6.00000000000000E+0001
 20
 6.00000000000000E+0001
 40
 2.50000000000000E+0001
 50
 1.80000000000000E+0002
 51
 2.70000000000000E+0002
  0
LINE
  8
0
 10
 3.50000000000000E+0001
 20
 6.00000000000000E+0001
 11
 3.50000000000000E+0001
 21
 1.54000000000000E+0003
  0
ARC
  8
0
 10
 6.00000000000000E+0001
 20
 1.54000000000000E+0003
 40
 2.50000000000000E+0001
 50
 9.00000000000000E+0001
 51
 1.80000000000000E+0002
  0
LINE
  8
0
 10
 6.00000000000000E+0001
 20
 1.56500000000000E+0003
 11
 1.54000000000000E+0003
 21
 1.56500000000000E+0003
  0
ARC
  8
0
 10
 1.54000000000000E+0003
 20
 1.54000000000000E+0003
 40
 2.50000000000000E+0001
 50
 0.00000000000000E+0000
 51
 9.00000000000000E+0001
  0
LINE
  8
0
 10
 1.56500000000000E+0003
 20
 1.54000000000000E+0003
 11
 1.56500000000000E+0003
 21
 6.00000000000000E+0001
  0
ARC
  8
0
 10
 1.54000000000000E+0003
 20
 6.00000000000000E+0001
 40
 2.50000000000000E+0001
 50
 2.70000000000000E+0002
 51
 3.60000000000000E+0002
  0
LINE
  8
0
 10
 1.54000000000000E+0003
 20
 3.50000000000000E+0001
 11
 6.00000000000000E+0001
 21
 3.50000000000000E+0001
  0
LINE
  8
0
 10
 3.15000000000000E+0002
 20
 1.26499680000000E+0003
 11
 3.15386390011900E+0002
 21
 1.25195320236650E+0003
  0
LINE
  8
0
 10
 3.15386390011900E+0002
 20
 1.25195320236650E+0003
 11
 3.15936480015200E+0002
 21
 1.23907648553200E+0003
  0
LINE
  8
0
 10
 3.15936480015200E+0002
 20
 1.23907648553200E+0003
 11
 3.16646936961300E+0002
 21
 1.22636326859550E+0003
  0
LINE
  8
0
 10
 3.16646936961300E+0002
 20
 1.22636326859550E+0003
 11
 3.17514427801600E+0002
 21
 1.21381017065600E+0003
  0
LINE
  8
0
 10
 3.17514427801600E+0002
 20
 1.21381017065600E+0003
 11
 3.18535619487500E+0002
 21
 1.20141381081250E+0003
  0
LINE
  8
0
 10
 3.18535619487500E+0002
 20
 1.20141381081250E+0003
 11
 3.19707178970400E+0002
 21
 1.18917080816400E+0003
  0
LINE
  8
0
 10
 3.19707178970400E+0002
 20
 1.18917080816400E+0003
 11
 3.21025773201700E+0002
 21
 1.17707778180950E+0003
  0
LINE
  8
0
 10
 3.21025773201700E+0002
 20
 1.17707778180950E+0003
 11
 3.22488069132800E+0002
 21
 1.16513135084800E+0003
  0
LINE
  8
0
 10
 3.22488069132800E+0002
 20
 1.16513135084800E+0003
 11
 3.24090733715100E+0002
 21
 1.15332813437850E+0003
  0
LINE
  8
0
 10
 3.24090733715100E+0002
 20
 1.15332813437850E+0003
 11
 3.25830433900000E+0002
 21
 1.14166475150000E+0003
  0
LINE
  8
0
 10
 3.25830433900000E+0002
 20
 1.14166475150000E+0003
 11
 3.27703836638900E+0002
 21
 1.13013782131150E+0003
  0
LINE
  8
0
 10
 3.27703836638900E+0002
 20
 1.13013782131150E+0003
 11
 3.29707608883200E+0002
 21
 1.11874396291200E+0003
  0
LINE
  8
0
 10
 3.29707608883200E+0002
 20
 1.11874396291200E+0003
 11
 3.31838417584300E+0002
 21
 1.10747979540050E+0003
  0
LINE
  8
0
 10
 3.31838417584300E+0002
 20
 1.10747979540050E+0003
 11
 3.34092929693600E+0002
 21
 1.09634193787600E+0003
  0
LINE
  8
0
 10
 3.34092929693600E+0002
 20
 1.09634193787600E+0003
 11
 3.36467812162500E+0002
 21
 1.08532700943750E+0003
  0
LINE
  8
0
 10
 3.36467812162500E+0002
 20
 1.08532700943750E+0003
 11
 3.38959731942400E+0002
 21
 1.07443162918400E+0003
  0
LINE
  8
0
 10
 3.38959731942400E+0002
 20
 1.07443162918400E+0003
 11
 3.41565355984700E+0002
 21
 1.06365241621450E+0003
  0
LINE
  8
0
 10
 3.41565355984700E+0002
 20
 1.06365241621450E+0003
 11
 3.44281351240800E+0002
 21
 1.05298598962800E+0003
  0
LINE
  8
0
 10
 3.44281351240800E+0002
 20
 1.05298598962800E+0003
 11
 3.47104384662100E+0002
 21
 1.04242896852350E+0003
  0
LINE
  8
0
 10
 3.47104384662100E+0002
 20
 1.04242896852350E+0003
 11
 3.50031123200000E+0002
 21
 1.03197797200000E+0003
  0
LINE
  8
0
 10
 3.50031123200000E+0002
 20
 1.03197797200000E+0003
 11
 3.53058233805900E+0002
 21
 1.02162961915650E+0003
  0
LINE
  8
0
 10
 3.53058233805900E+0002
 20
 1.02162961915650E+0003
 11
 3.56182383431200E+0002
 21
 1.01138052909200E+0003
  0
LINE
  8
0
 10
 3.56182383431200E+0002
 20
 1.01138052909200E+0003
 11
 3.59400239027300E+0002
 21
 1.00122732090550E+0003
  0
LINE
  8
0
 10
 3.59400239027300E+0002
 20
 1.00122732090550E+0003
 11
 3.62708467545600E+0002
 21
 9.91166613696000E+0002
  0
LINE
  8
0
 10
 3.62708467545600E+0002
 20
 9.91166613696000E+0002
 11
 3.66103735937500E+0002
 21
 9.81195026562500E+0002
  0
LINE
  8
0
 10
 3.66103735937500E+0002
 20
 9.81195026562500E+0002
 11
 3.69582711154400E+0002
 21
 9.71309178604000E+0002
  0
LINE
  8
0
 10
 3.69582711154400E+0002
 20
 9.71309178604000E+0002
 11
 3.73142060147700E+0002
 21
 9.61505688919500E+0002
  0
LINE
  8
0
 10
 3.73142060147700E+0002
 20
 9.61505688919500E+0002
 11
 3.76778449868800E+0002
 21
 9.51781176608000E+0002
  0
LINE
  8
0
 10
 3.76778449868800E+0002
 20
 9.51781176608000E+0002
 11
 3.80488547269100E+0002
 21
 9.42132260768500E+0002
  0
LINE
  8
0
 10
 3.80488547269100E+0002
 20
 9.42132260768500E+0002
 11
 3.84269019300000E+0002
 21
 9.32555560500000E+0002
  0
LINE
  8
0
 10
 3.84269019300000E+0002
 20
 9.32555560500000E+0002
 11
 3.88116532912900E+0002
 21
 9.23047694901500E+0002
  0
LINE
  8
0
 10
 3.88116532912900E+0002
 20
 9.23047694901500E+0002
 11
 3.92027755059200E+0002
 21
 9.13605283072000E+0002
  0
LINE
  8
0
 10
 3.92027755059200E+0002
 20
 9.13605283072000E+0002
 11
 3.95999352690300E+0002
 21
 9.04224944110500E+0002
  0
LINE
  8
0
 10
 3.95999352690300E+0002
 20
 9.04224944110500E+0002
 11
 4.00027992757600E+0002
 21
 8.94903297116000E+0002
  0
LINE
  8
0
 10
 4.00027992757600E+0002
 20
 8.94903297116000E+0002
 11
 4.04110342212500E+0002
 21
 8.85636961187500E+0002
  0
LINE
  8
0
 10
 4.04110342212500E+0002
 20
 8.85636961187500E+0002
 11
 4.08243068006400E+0002
 21
 8.76422555424000E+0002
  0
LINE
  8
0
 10
 4.08243068006400E+0002
 20
 8.76422555424000E+0002
 11
 4.12422837090700E+0002
 21
 8.67256698924500E+0002
  0
LINE
  8
0
 10
 4.12422837090700E+0002
 20
 8.67256698924500E+0002
 11
 4.16646316416800E+0002
 21
 8.58136010788000E+0002
  0
LINE
  8
0
 10
 4.16646316416800E+0002
 20
 8.58136010788000E+0002
 11
 4.20910172936100E+0002
 21
 8.49057110113500E+0002
  0
LINE
  8
0
 10
 4.20910172936100E+0002
 20
 8.49057110113500E+0002
 11
 4.25211073600000E+0002
 21
 8.40016616000000E+0002
  0
LINE
  8
0
 10
 4.25211073600000E+0002
 20
 8.40016616000000E+0002
 11
 4.29545685359900E+0002
 21
 8.31011147546500E+0002
  0
LINE
  8
0
 10
 4.29545685359900E+0002
 20
 8.31011147546500E+0002
 11
 4.33910675167200E+0002
 21
 8.22037323852000E+0002
  0
LINE
  8
0
 10
 4.33910675167200E+0002
 20
 8.22037323852000E+0002
 11
 4.38302709973300E+0002
 21
 8.13091764015500E+0002
  0
LINE
  8
0
 10
 4.38302709973300E+0002
 20
 8.13091764015500E+0002
 11
 4.42718456729600E+0002
 21
 8.04171087136000E+0002
  0
LINE
  8
0
 10
 4.42718456729600E+0002
 20
 8.04171087136000E+0002
 11
 4.47154582387500E+0002
 21
 7.95271912312500E+0002
  0
LINE
  8
0
 10
 4.47154582387500E+0002
 20
 7.95271912312500E+0002
 11
 4.51607753898400E+0002
 21
 7.86390858644000E+0002
  0
LINE
  8
0
 10
 4.51607753898400E+0002
 20
 7.86390858644000E+0002
 11
 4.56074638213700E+0002
 21
 7.77524545229500E+0002
  0
LINE
  8
0
 10
 4.56074638213700E+0002
 20
 7.77524545229500E+0002
 11
 4.60551902284800E+0002
 21
 7.68669591168000E+0002
  0
LINE
  8
0
 10
 4.60551902284800E+0002
 20
 7.68669591168000E+0002
 11
 4.65036213063100E+0002
 21
 7.59822615558500E+0002
  0
LINE
  8
0
 10
 4.65036213063100E+0002
 20
 7.59822615558500E+0002
 11
 4.69524237500000E+0002
 21
 7.50980237500000E+0002
  0
LINE
  8
0
 10
 4.69524237500000E+0002
 20
 7.50980237500000E+0002
 11
 4.74012642546900E+0002
 21
 7.42139076091500E+0002
  0
LINE
  8
0
 10
 4.74012642546900E+0002
 20
 7.42139076091500E+0002
 11
 4.78498095155200E+0002
 21
 7.33295750432000E+0002
  0
LINE
  8
0
 10
 4.78498095155200E+0002
 20
 7.33295750432000E+0002
 11
 4.82977262276300E+0002
 21
 7.24446879620500E+0002
  0
LINE
  8
0
 10
 4.82977262276300E+0002
 20
 7.24446879620500E+0002
 11
 4.87446810861600E+0002
 21
 7.15589082756000E+0002
  0
LINE
  8
0
 10
 4.87446810861600E+0002
 20
 7.15589082756000E+0002
 11
 4.91903407862500E+0002
 21
 7.06718978937500E+0002
  0
LINE
  8
0
 10
 4.91903407862500E+0002
 20
 7.06718978937500E+0002
 11
 4.96343720230400E+0002
 21
 6.97833187264000E+0002
  0
LINE
  8
0
 10
 4.96343720230400E+0002
 20
 6.97833187264000E+0002
 11
 5.00764414916700E+0002
 21
 6.88928326834500E+0002
  0
LINE
  8
0
 10
 5.00764414916700E+0002
 20
 6.88928326834500E+0002
 11
 5.05162158872800E+0002
 21
 6.80001016748000E+0002
  0
LINE
  8
0
 10
 5.05162158872800E+0002
 20
 6.80001016748000E+0002
 11
 5.09533619050100E+0002
 21
 6.71047876103500E+0002
  0
LINE
  8
0
 10
 5.09533619050100E+0002
 20
 6.71047876103500E+0002
 11
 5.13875462400000E+0002
 21
 6.62065524000000E+0002
  0
LINE
  8
0
 10
 5.13875462400000E+0002
 20
 6.62065524000000E+0002
 11
 5.18184355873900E+0002
 21
 6.53050579536500E+0002
  0
LINE
  8
0
 10
 5.18184355873900E+0002
 20
 6.53050579536500E+0002
 11
 5.22456966423200E+0002
 21
 6.43999661812000E+0002
  0
LINE
  8
0
 10
 5.22456966423200E+0002
 20
 6.43999661812000E+0002
 11
 5.26689960999300E+0002
 21
 6.34909389925500E+0002
  0
LINE
  8
0
 10
 5.26689960999300E+0002
 20
 6.34909389925500E+0002
 11
 5.30880006553600E+0002
 21
 6.25776382976000E+0002
  0
LINE
  8
0
 10
 5.30880006553600E+0002
 20
 6.25776382976000E+0002
 11
 5.35023770037500E+0002
 21
 6.16597260062500E+0002
  0
LINE
  8
0
 10
 5.35023770037500E+0002
 20
 6.16597260062500E+0002
 11
 5.39117918402400E+0002
 21
 6.07368640284000E+0002
  0
LINE
  8
0
 10
 5.39117918402400E+0002
 20
 6.07368640284000E+0002
 11
 5.43159118599700E+0002
 21
 5.98087142739500E+0002
  0
LINE
  8
0
 10
 5.43159118599700E+0002
 20
 5.98087142739500E+0002
 11
 5.47144037580800E+0002
 21
 5.88749386528000E+0002
  0
LINE
  8
0
 10
 5.47144037580800E+0002
 20
 5.88749386528000E+0002
 11
 5.51069342297100E+0002
 21
 5.79351990748500E+0002
  0
LINE
  8
0
 10
 5.51069342297100E+0002
 20
 5.79351990748500E+0002
 11
 5.54931699700000E+0002
 21
 5.69891574500000E+0002
  0
LINE
  8
0
 10
 5.54931699700000E+0002
 20
 5.69891574500000E+0002
 11
 5.58727776740900E+0002
 21
 5.60364756881500E+0002
  0
LINE
  8
0
 10
 5.58727776740900E+0002
 20
 5.60364756881500E+0002
 11
 5.62454240371200E+0002
 21
 5.50768156992000E+0002
  0
LINE
  8
0
 10
 5.62454240371200E+0002
 20
 5.50768156992000E+0002
 11
 5.66107757542300E+0002
 21
 5.41098393930500E+0002
  0
LINE
  8
0
 10
 5.66107757542300E+0002
 20
 5.41098393930500E+0002
 11
 5.69684995205600E+0002
 21
 5.31352086796000E+0002
  0
LINE
  8
0
 10
 5.69684995205600E+0002
 20
 5.31352086796000E+0002
 11
 5.73182620312500E+0002
 21
 5.21525854687500E+0002
  0
LINE
  8
0
 10
 5.73182620312500E+0002
 20
 5.21525854687500E+0002
 11
 5.76597299814400E+0002
 21
 5.11616316704000E+0002
  0
LINE
  8
0
 10
 5.76597299814400E+0002
 20
 5.11616316704000E+0002
 11
 5.79925700662700E+0002
 21
 5.01620091944500E+0002
  0
LINE
  8
0
 10
 5.79925700662700E+0002
 20
 5.01620091944500E+0002
 11
 5.83164489808800E+0002
 21
 4.91533799508000E+0002
  0
LINE
  8
0
 10
 5.83164489808800E+0002
 20
 4.91533799508000E+0002
 11
 5.86310334204100E+0002
 21
 4.81354058493500E+0002
  0
LINE
  8
0
 10
 5.86310334204100E+0002
 20
 4.81354058493500E+0002
 11
 5.89359900800000E+0002
 21
 4.71077488000000E+0002
  0
LINE
  8
0
 10
 5.89359900800000E+0002
 20
 4.71077488000000E+0002
 11
 5.92309856547900E+0002
 21
 4.60700707126500E+0002
  0
LINE
  8
0
 10
 5.92309856547900E+0002
 20
 4.60700707126500E+0002
 11
 5.95156868399200E+0002
 21
 4.50220334972000E+0002
  0
LINE
  8
0
 10
 5.95156868399200E+0002
 20
 4.50220334972000E+0002
 11
 5.97897603305300E+0002
 21
 4.39632990635500E+0002
  0
LINE
  8
0
 10
 5.97897603305300E+0002
 20
 4.39632990635500E+0002
 11
 6.00528728217600E+0002
 21
 4.28935293216000E+0002
  0
LINE
  8
0
 10
 6.00528728217600E+0002
 20
 4.28935293216000E+0002
 11
 6.03046910087500E+0002
 21
 4.18123861812500E+0002
  0
LINE
  8
0
 10
 6.03046910087500E+0002
 20
 4.18123861812500E+0002
 11
 6.05448815866400E+0002
 21
 4.07195315524000E+0002
  0
LINE
  8
0
 10
 6.05448815866400E+0002
 20
 4.07195315524000E+0002
 11
 6.07731112505700E+0002
 21
 3.96146273449500E+0002
  0
LINE
  8
0
 10
 6.07731112505700E+0002
 20
 3.96146273449500E+0002
 11
 6.09890466956800E+0002
 21
 3.84973354688000E+0002
  0
LINE
  8
0
 10
 6.09890466956800E+0002
 20
 3.84973354688000E+0002
 11
 6.11923546171100E+0002
 21
 3.73673178338500E+0002
  0
LINE
  8
0
 10
 6.11923546171100E+0002
 20
 3.73673178338500E+0002
 11
 6.13827017100000E+0002
 21
 3.62242363500000E+0002
  0
LINE
  8
0
 10
 6.13827017100000E+0002
 20
 3.62242363500000E+0002
 11
 6.15597546694900E+0002
 21
 3.50677529271500E+0002
  0
LINE
  8
0
 10
 6.15597546694900E+0002
 20
 3.50677529271500E+0002
 11
 6.17231801907200E+0002
 21
 3.38975294752000E+0002
  0
LINE
  8
0
 10
 6.17231801907200E+0002
 20
 3.38975294752000E+0002
 11
 6.18726449688300E+0002
 21
 3.27132279040500E+0002
  0
LINE
  8
0
 10
 6.18726449688300E+0002
 20
 3.27132279040500E+0002
 11
 6.20078156989600E+0002
 21
 3.15145101236000E+0002
  0
LINE
  8
0
 10
 6.20078156989600E+0002
 20
 3.15145101236000E+0002
 11
 6.21283590762500E+0002
 21
 3.03010380437500E+0002
  0
LINE
  8
0
 10
 6.21283590762500E+0002
 20
 3.03010380437500E+0002
 11
 6.22339417958400E+0002
 21
 2.90724735744000E+0002
  0
LINE
  8
0
 10
 6.22339417958400E+0002
 20
 2.90724735744000E+0002
 11
 6.23242305528700E+0002
 21
 2.78284786254500E+0002
  0
LINE
  8
0
 10
 6.23242305528700E+0002
 20
 2.78284786254500E+0002
 11
 6.23988920424800E+0002
 21
 2.65687151068000E+0002
  0
LINE
  8
0
 10
 6.23988920424800E+0002
 20
 2.65687151068000E+0002
 11
 6.24575929598100E+0002
 21
 2.52928449283500E+0002
  0
LINE
  8
0
 10
 6.24575929598100E+0002
 20
 2.52928449283500E+0002
 11
 6.25000000000000E+0002
 21
 2.40005300000000E+0002
  0
LINE
  8
0
 10
 6.25000000000000E+0002
 20
 2.40005300000000E+0002
 11
 6.25000000000000E+0002
 21
 1.55000000000000E+0002
  0
LINE
  8
0
 10
 6.25000000000000E+0002
 20
 1.55000000000000E+0002
 11
 5.65000000000000E+0002
 21
 1.55000000000000E+0002
  0
LINE
  8
0
 10
 5.65000000000000E+0002
 20
 1.55000000000000E+0002
 11
 5.65000000000000E+0002
 21
 2.40005300000000E+0002
  0
LINE
  8
0
 10
 5.65000000000000E+0002
 20
 2.40005300000000E+0002
 11
 5.64575970375300E+0002
 21
 2.52928449294400E+0002
  0
LINE
  8
0
 10
 5.64575970375300E+0002
 20
 2.52928449294400E+0002
 11
 5.63988999562400E+0002
 21
 2.65687151155200E+0002
  0
LINE
  8
0
 10
 5.63988999562400E+0002
 20
 2.65687151155200E+0002
 11
 5.63242420653100E+0002
 21
 2.78284786548800E+0002
  0
LINE
  8
0
 10
 5.63242420653100E+0002
 20
 2.78284786548800E+0002
 11
 5.62339566739200E+0002
 21
 2.90724736441600E+0002
  0
LINE
  8
0
 10
 5.62339566739200E+0002
 20
 2.90724736441600E+0002
 11
 5.61283770912500E+0002
 21
 3.03010381800000E+0002
  0
LINE
  8
0
 10
 5.61283770912500E+0002
 20
 3.03010381800000E+0002
 11
 5.60078366264800E+0002
 21
 3.15145103590400E+0002
  0
LINE
  8
0
 10
 5.60078366264800E+0002
 20
 3.15145103590400E+0002
 11
 5.58726685887900E+0002
 21
 3.27132282779200E+0002
  0
LINE
  8
0
 10
 5.58726685887900E+0002
 20
 3.27132282779200E+0002
 11
 5.57232062873600E+0002
 21
 3.38975300332800E+0002
  0
LINE
  8
0
 10
 5.57232062873600E+0002
 20
 3.38975300332800E+0002
 11
 5.55597830313700E+0002
 21
 3.50677537217600E+0002
  0
LINE
  8
0
 10
 5.55597830313700E+0002
 20
 3.50677537217600E+0002
 11
 5.53827321300000E+0002
 21
 3.62242374400000E+0002
  0
LINE
  8
0
 10
 5.53827321300000E+0002
 20
 3.62242374400000E+0002
 11
 5.51923868924300E+0002
 21
 3.73673192846400E+0002
  0
LINE
  8
0
 10
 5.51923868924300E+0002
 20
 3.73673192846400E+0002
 11
 5.49890806278400E+0002
 21
 3.84973373523200E+0002
  0
LINE
  8
0
 10
 5.49890806278400E+0002
 20
 3.84973373523200E+0002
 11
 5.47731466454100E+0002
 21
 3.96146297396800E+0002
  0
LINE
  8
0
 10
 5.47731466454100E+0002
 20
 3.96146297396800E+0002
 11
 5.45449182543200E+0002
 21
 4.07195345433600E+0002
  0
LINE
  8
0
 10
 5.45449182543200E+0002
 20
 4.07195345433600E+0002
 11
 5.43047287637500E+0002
 21
 4.18123898600000E+0002
  0
LINE
  8
0
 10
 5.43047287637500E+0002
 20
 4.18123898600000E+0002
 11
 5.40529114828800E+0002
 21
 4.28935337862400E+0002
  0
LINE
  8
0
 10
 5.40529114828800E+0002
 20
 4.28935337862400E+0002
 11
 5.37897997208900E+0002
 21
 4.39633044187200E+0002
  0
LINE
  8
0
 10
 5.37897997208900E+0002
 20
 4.39633044187200E+0002
 11
 5.35157267869600E+0002
 21
 4.50220398540800E+0002
  0
LINE
  8
0
 10
 5.35157267869600E+0002
 20
 4.50220398540800E+0002
 11
 5.32310259902700E+0002
 21
 4.60700781889600E+0002
  0
LINE
  8
0
 10
 5.32310259902700E+0002
 20
 4.60700781889600E+0002
 11
 5.29360306400000E+0002
 21
 4.71077575200000E+0002
  0
LINE
  8
0
 10
 5.29360306400000E+0002
 20
 4.71077575200000E+0002
 11
 5.26310740453300E+0002
 21
 4.81354159438400E+0002
  0
LINE
  8
0
 10
 5.26310740453300E+0002
 20
 4.81354159438400E+0002
 11
 5.23164895154400E+0002
 21
 4.91533915571200E+0002
  0
LINE
  8
0
 10
 5.23164895154400E+0002
 20
 4.91533915571200E+0002
 11
 5.19926103595100E+0002
 21
 5.01620224564800E+0002
  0
LINE
  8
0
 10
 5.19926103595100E+0002
 20
 5.01620224564800E+0002
 11
 5.16597698867200E+0002
 21
 5.11616467385600E+0002
  0
LINE
  8
0
 10
 5.16597698867200E+0002
 20
 5.11616467385600E+0002
 11
 5.13183014062500E+0002
 21
 5.21526025000000E+0002
  0
LINE
  8
0
 10
 5.13183014062500E+0002
 20
 5.21526025000000E+0002
 11
 5.09685382272800E+0002
 21
 5.31352278374400E+0002
  0
LINE
  8
0
 10
 5.09685382272800E+0002
 20
 5.31352278374400E+0002
 11
 5.06108136589900E+0002
 21
 5.41098608475200E+0002
  0
LINE
  8
0
 10
 5.06108136589900E+0002
 20
 5.41098608475200E+0002
 11
 5.02454610105600E+0002
 21
 5.50768396268800E+0002
  0
LINE
  8
0
 10
 5.02454610105600E+0002
 20
 5.50768396268800E+0002
 11
 4.98728135911700E+0002
 21
 5.60365022721600E+0002
  0
LINE
  8
0
 10
 4.98728135911700E+0002
 20
 5.60365022721600E+0002
 11
 4.94932047100000E+0002
 21
 5.69891868800000E+0002
  0
LINE
  8
0
 10
 4.94932047100000E+0002
 20
 5.69891868800000E+0002
 11
 4.91069676762300E+0002
 21
 5.79352315470400E+0002
  0
LINE
  8
0
 10
 4.91069676762300E+0002
 20
 5.79352315470400E+0002
 11
 4.87144357990400E+0002
 21
 5.88749743699200E+0002
  0
LINE
  8
0
 10
 4.87144357990400E+0002
 20
 5.88749743699200E+0002
 11
 4.83159423876100E+0002
 21
 5.98087534452800E+0002
  0
LINE
  8
0
 10
 4.83159423876100E+0002
 20
 5.98087534452800E+0002
 11
 4.79118207511200E+0002
 21
 6.07369068697600E+0002
  0
LINE
  8
0
 10
 4.79118207511200E+0002
 20
 6.07369068697600E+0002
 11
 4.75024041987500E+0002
 21
 6.16597727400000E+0002
  0
LINE
  8
0
 10
 4.75024041987500E+0002
 20
 6.16597727400000E+0002
 11
 4.70880260396800E+0002
 21
 6.25776891526400E+0002
  0
LINE
  8
0
 10
 4.70880260396800E+0002
 20
 6.25776891526400E+0002
 11
 4.66690195830900E+0002
 21
 6.34909942043200E+0002
  0
LINE
  8
0
 10
 4.66690195830900E+0002
 20
 6.34909942043200E+0002
 11
 4.62457181381600E+0002
 21
 6.44000259916800E+0002
  0
LINE
  8
0
 10
 4.62457181381600E+0002
 20
 6.44000259916800E+0002
 11
 4.58184550140700E+0002
 21
 6.53051226113600E+0002
  0
LINE
  8
0
 10
 4.58184550140700E+0002
 20
 6.53051226113600E+0002
 11
 4.53875635200000E+0002
 21
 6.62066221600000E+0002
  0
LINE
  8
0
 10
 4.53875635200000E+0002
 20
 6.62066221600000E+0002
 11
 4.49533769651300E+0002
 21
 6.71048627342400E+0002
  0
LINE
  8
0
 10
 4.49533769651300E+0002
 20
 6.71048627342400E+0002
 11
 4.45162286586400E+0002
 21
 6.80001824307200E+0002
  0
LINE
  8
0
 10
 4.45162286586400E+0002
 20
 6.80001824307200E+0002
 11
 4.40764519097100E+0002
 21
 6.88929193460800E+0002
  0
LINE
  8
0
 10
 4.40764519097100E+0002
 20
 6.88929193460800E+0002
 11
 4.36343800275200E+0002
 21
 6.97834115769600E+0002
  0
LINE
  8
0
 10
 4.36343800275200E+0002
 20
 6.97834115769600E+0002
 11
 4.31903463212500E+0002
 21
 7.06719972200000E+0002
  0
LINE
  8
0
 10
 4.31903463212500E+0002
 20
 7.06719972200000E+0002
 11
 4.27446841000800E+0002
 21
 7.15590143718400E+0002
  0
LINE
  8
0
 10
 4.27446841000800E+0002
 20
 7.15590143718400E+0002
 11
 4.22977266731900E+0002
 21
 7.24448011291200E+0002
  0
LINE
  8
0
 10
 4.22977266731900E+0002
 20
 7.24448011291200E+0002
 11
 4.18498073497600E+0002
 21
 7.33296955884800E+0002
  0
LINE
  8
0
 10
 4.18498073497600E+0002
 20
 7.33296955884800E+0002
 11
 4.14012594389700E+0002
 21
 7.42140358465600E+0002
  0
LINE
  8
0
 10
 4.14012594389700E+0002
 20
 7.42140358465600E+0002
 11
 4.09524162500000E+0002
 21
 7.50981600000000E+0002
  0
LINE
  8
0
 10
 4.09524162500000E+0002
 20
 7.50981600000000E+0002
 11
 4.05036110920300E+0002
 21
 7.59824061454400E+0002
  0
LINE
  8
0
 10
 4.05036110920300E+0002
 20
 7.59824061454400E+0002
 11
 4.00551772742400E+0002
 21
 7.68671123795200E+0002
  0
LINE
  8
0
 10
 4.00551772742400E+0002
 20
 7.68671123795200E+0002
 11
 3.96074481058100E+0002
 21
 7.77526167988800E+0002
  0
LINE
  8
0
 10
 3.96074481058100E+0002
 20
 7.77526167988800E+0002
 11
 3.91607568959200E+0002
 21
 7.86392575001600E+0002
  0
LINE
  8
0
 10
 3.91607568959200E+0002
 20
 7.86392575001600E+0002
 11
 3.87154369537500E+0002
 21
 7.95273725800000E+0002
  0
LINE
  8
0
 10
 3.87154369537500E+0002
 20
 7.95273725800000E+0002
 11
 3.82718215884800E+0002
 21
 8.04173001350400E+0002
  0
LINE
  8
0
 10
 3.82718215884800E+0002
 20
 8.04173001350400E+0002
 11
 3.78302441092900E+0002
 21
 8.13093782619200E+0002
  0
LINE
  8
0
 10
 3.78302441092900E+0002
 20
 8.13093782619200E+0002
 11
 3.73910378253600E+0002
 21
 8.22039450572800E+0002
  0
LINE
  8
0
 10
 3.73910378253600E+0002
 20
 8.22039450572800E+0002
 11
 3.69545360458700E+0002
 21
 8.31013386177600E+0002
  0
LINE
  8
0
 10
 3.69545360458700E+0002
 20
 8.31013386177600E+0002
 11
 3.65210720800000E+0002
 21
 8.40018970400000E+0002
  0
LINE
  8
0
 10
 3.65210720800000E+0002
 20
 8.40018970400000E+0002
 11
 3.60909792369300E+0002
 21
 8.49059584206400E+0002
  0
LINE
  8
0
 10
 3.60909792369300E+0002
 20
 8.49059584206400E+0002
 11
 3.56645908258400E+0002
 21
 8.58138608563200E+0002
  0
LINE
  8
0
 10
 3.56645908258400E+0002
 20
 8.58138608563200E+0002
 11
 3.52422401559100E+0002
 21
 8.67259424436800E+0002
  0
LINE
  8
0
 10
 3.52422401559100E+0002
 20
 8.67259424436800E+0002
 11
 3.48242605363200E+0002
 21
 8.76425412793600E+0002
  0
LINE
  8
0
 10
 3.48242605363200E+0002
 20
 8.76425412793600E+0002
 11
 3.44109852762500E+0002
 21
 8.85639954600000E+0002
  0
LINE
  8
0
 10
 3.44109852762500E+0002
 20
 8.85639954600000E+0002
 11
 3.40027476848800E+0002
 21
 8.94906430822400E+0002
  0
LINE
  8
0
 10
 3.40027476848800E+0002
 20
 8.94906430822400E+0002
 11
 3.35998810713900E+0002
 21
 9.04228222427200E+0002
  0
LINE
  8
0
 10
 3.35998810713900E+0002
 20
 9.04228222427200E+0002
 11
 3.32027187449600E+0002
 21
 9.13608710380800E+0002
  0
LINE
  8
0
 10
 3.32027187449600E+0002
 20
 9.13608710380800E+0002
 11
 3.28115940147700E+0002
 21
 9.23051275649600E+0002
  0
LINE
  8
0
 10
 3.28115940147700E+0002
 20
 9.23051275649600E+0002
 11
 3.24268401900000E+0002
 21
 9.32559299200000E+0002
  0
LINE
  8
0
 10
 3.24268401900000E+0002
 20
 9.32559299200000E+0002
 11
 3.20487905798300E+0002
 21
 9.42136161998400E+0002
  0
LINE
  8
0
 10
 3.20487905798300E+0002
 20
 9.42136161998400E+0002
 11
 3.16777784934400E+0002
 21
 9.51785245011200E+0002
  0
LINE
  8
0
 10
 3.16777784934400E+0002
 20
 9.51785245011200E+0002
 11
 3.13141372400100E+0002
 21
 9.61509929204800E+0002
  0
LINE
  8
0
 10
 3.13141372400100E+0002
 20
 9.61509929204800E+0002
 11
 3.09582001287200E+0002
 21
 9.71313595545600E+0002
  0
LINE
  8
0
 10
 3.09582001287200E+0002
 20
 9.71313595545600E+0002
 11
 3.06103004687500E+0002
 21
 9.81199625000000E+0002
  0
LINE
  8
0
 10
 3.06103004687500E+0002
 20
 9.81199625000000E+0002
 11
 3.02707715692800E+0002
 21
 9.91171398534400E+0002
  0
LINE
  8
0
 10
 3.02707715692800E+0002
 20
 9.91171398534400E+0002
 11
 2.99399467394900E+0002
 21
 1.00123229711520E+0003
  0
LINE
  8
0
 10
 2.99399467394900E+0002
 20
 1.00123229711520E+0003
 11
 2.96181592885600E+0002
 21
 1.01138570170880E+0003
  0
LINE
  8
0
 10
 2.96181592885600E+0002
 20
 1.01138570170880E+0003
 11
 2.93057425256700E+0002
 21
 1.02163499328160E+0003
  0
LINE
  8
0
 10
 2.93057425256700E+0002
 20
 1.02163499328160E+0003
 11
 2.90030297600000E+0002
 21
 1.03198355280000E+0003
  0
LINE
  8
0
 10
 2.90030297600000E+0002
 20
 1.03198355280000E+0003
 11
 2.87103543007300E+0002
 21
 1.04243476123040E+0003
  0
LINE
  8
0
 10
 2.87103543007300E+0002
 20
 1.04243476123040E+0003
 11
 2.84280494570400E+0002
 21
 1.05299199953920E+0003
  0
LINE
  8
0
 10
 2.84280494570400E+0002
 20
 1.05299199953920E+0003
 11
 2.81564485381100E+0002
 21
 1.06365864869280E+0003
  0
LINE
  8
0
 10
 2.81564485381100E+0002
 20
 1.06365864869280E+0003
 11
 2.78958848531200E+0002
 21
 1.07443808965760E+0003
  0
LINE
  8
0
 10
 2.78958848531200E+0002
 20
 1.07443808965760E+0003
 11
 2.76466917112500E+0002
 21
 1.08533370340000E+0003
  0
LINE
  8
0
 10
 2.76466917112500E+0002
 20
 1.08533370340000E+0003
 11
 2.74092024216800E+0002
 21
 1.09634887088640E+0003
  0
LINE
  8
0
 10
 2.74092024216800E+0002
 20
 1.09634887088640E+0003
 11
 2.71837502935900E+0002
 21
 1.10748697308320E+0003
  0
LINE
  8
0
 10
 2.71837502935900E+0002
 20
 1.10748697308320E+0003
 11
 2.69706686361600E+0002
 21
 1.11875139095680E+0003
  0
LINE
  8
0
 10
 2.69706686361600E+0002
 20
 1.11875139095680E+0003
 11
 2.67702907585700E+0002
 21
 1.13014550547360E+0003
  0
LINE
  8
0
 10
 2.67702907585700E+0002
 20
 1.13014550547360E+0003
 11
 2.65829499700000E+0002
 21
 1.14167269760000E+0003
  0
LINE
  8
0
 10
 2.65829499700000E+0002
 20
 1.14167269760000E+0003
 11
 2.64089795796300E+0002
 21
 1.15333634830240E+0003
  0
LINE
  8
0
 10
 2.64089795796300E+0002
 20
 1.15333634830240E+0003
 11
 2.62487128966400E+0002
 21
 1.16513983854720E+0003
  0
LINE
  8
0
 10
 2.62487128966400E+0002
 20
 1.16513983854720E+0003
 11
 2.61024832302100E+0002
 21
 1.17708654930080E+0003
  0
LINE
  8
0
 10
 2.61024832302100E+0002
 20
 1.17708654930080E+0003
 11
 2.59706238895200E+0002
 21
 1.18917986152960E+0003
  0
LINE
  8
0
 10
 2.59706238895200E+0002
 20
 1.18917986152960E+0003
 11
 2.58534681837500E+0002
 21
 1.20142315620000E+0003
  0
LINE
  8
0
 10
 2.58534681837500E+0002
 20
 1.20142315620000E+0003
 11
 2.57513494220800E+0002
 21
 1.21381981427840E+0003
  0
LINE
  8
0
 10
 2.57513494220800E+0002
 20
 1.21381981427840E+0003
 11
 2.56646009136900E+0002
 21
 1.22637321673120E+0003
  0
LINE
  8
0
 10
 2.56646009136900E+0002
 20
 1.22637321673120E+0003
 11
 2.55935559677600E+0002
 21
 1.23908674452480E+0003
  0
LINE
  8
0
 10
 2.55935559677600E+0002
 20
 1.23908674452480E+0003
 11
 2.55385478934700E+0002
 21
 1.25196377862560E+0003
  0
LINE
  8
0
 10
 2.55385478934700E+0002
 20
 1.25196377862560E+0003
 11
 2.54999100000000E+0002
 21
 1.26500770000000E+0003
  0
LINE
  8
0
 10
 2.54999100000000E+0002
 20
 1.26500770000000E+0003
 11
 2.54999800000000E+0002
 21
 1.30700000000000E+0003
  0
LINE
  8
0
 10
 2.54999800000000E+0002
 20
 1.30700000000000E+0003
 11
 2.09999490553610E+0002
 21
 1.29538091843480E+0003
  0
ARC
  8
0
 10
 2.07000000000000E+0002
 20
 1.30700000000000E+0003
 40
 1.20000000000000E+0001
 50
 1.46195000000000E+0002
 51
 2.84475000000000E+0002
  0
LINE
  8
0
 10
 1.97028768958083E+0002
 20
 1.31367641756549E+0003
 11
 2.84999600000000E+0002
 21
 1.44500000000000E+0003
  0
LINE
  8
0
 10
 2.84999600000000E+0002
 20
 1.44500000000000E+0003
 11
 3.72971231041916E+0002
 21
 1.31367641756549E+0003
  0
ARC
  8
0
 10
 3.63000000000000E+0002
 20
 1.30700000000000E+0003
 40
 1.20000000000000E+0001
 50
 2.55525000000000E+0002
 51
 3.93805000000000E+0002
  0
LINE
  8
0
 10
 3.60000509446390E+0002
 20
 1.29538091843480E+0003
 11
 3.14999800000000E+0002
 21
 1.30700000000000E+0003
  0
LINE
  8
0
 10
 3.14999800000000E+0002
 20
 1.30700000000000E+0003
 11
 3.15000000000000E+0002
 21
 1.26499680000000E+0003
  0
LINE
  8
0
 10
 8.65000000000000E+0002
 20
 1.30700000000000E+0003
 11
 8.65000000000000E+0002
 21
 1.55000000000000E+0002
  0
LINE
  8
0
 10
 8.65000000000000E+0002
 20
 1.55000000000000E+0002
 11
 8.05000000000000E+0002
 21
 1.55000000000000E+0002
  0
LINE
  8
0
 10
 8.05000000000000E+0002
 20
 1.55000000000000E+0002
 11
 8.05000000000000E+0002
 21
 1.30700000000000E+0003
  0
LINE
  8
0
 10
 8.05000000000000E+0002
 20
 1.30700000000000E+0003
 11
 7.59999490553610E+0002
 21
 1.29538091843480E+0003
  0
ARC
  8
0
 10
 7.57000000000000E+0002
 20
 1.30700000000000E+0003
 40
 1.20000000000000E+0001
 50
 1.46195000000000E+0002
 51
 2.84475000000000E+0002
  0
LINE
  8
0
 10
 7.47028768958083E+0002
 20
 1.31367641756549E+0003
 11
 8.35000000000000E+0002
 21
 1.44500000000000E+0003
  0
LINE
  8
0
 10
 8.35000000000000E+0002
 20
 1.44500000000000E+0003
 11
 9.22971231041917E+0002
 21
 1.31367641756549E+0003
  0
ARC
  8
0
 10
 9.13000000000000E+0002
 20
 1.30700000000000E+0003
 40
 1.20000000000000E+0001
 50
 2.55525000000000E+0002
 51
 3.93805000000000E+0002
  0
LINE
  8
0
 10
 9.10000509446390E+0002
 20
 1.29538091843480E+0003
 11
 8.65000000000000E+0002
 21
 1.30700000000000E+0003
  0
LINE
  8
0
 10
 1.04500000000000E+0003
 20
 1.30700000000000E+0003
 11
 9.99999490553610E+0002
 21
 1.29538091843480E+0003
  0
ARC
  8
0
 10
 9.97000000000000E+0002
 20
 1.30700000000000E+0003
 40
 1.20000000000000E+0001
 50
 1.46195000000000E+0002
 51
 2.84475000000000E+0002
  0
LINE
  8
0
 10
 9.87028768958083E+0002
 20
 1.31367641756549E+0003
 11
 1.07500000000000E+0003
 21
 1.44500000000000E+0003
  0
LINE
  8
0
 10
 1.07500000000000E+0003
 20
 1.44500000000000E+0003
 11
 1.16297123104192E+0003
 21
 1.31367641756549E+0003
  0
ARC
  8
0
 10
 1.15300000000000E+0003
 20
 1.30700000000000E+0003
 40
 1.20000000000000E+0001
 50
 2.55525000000000E+0002
 51
 3.93805000000000E+0002
  0
LINE
  8
0
 10
 1.15000050944639E+0003
 20
 1.29538091843480E+0003
 11
 1.10500000000000E+0003
 21
 1.30700000000000E+0003
  0
LINE
  8
0
 10
 1.10500000000000E+0003
 20
 1.30700000000000E+0003
 11
 1.10500000000000E+0003
 21
 1.55000000000000E+0002
  0
LINE
  8
0
 10
 1.10500000000000E+0003
 20
 1.55000000000000E+0002
 11
 1.04500000000000E+0003
 21
 1.55000000000000E+0002
  0
LINE
  8
0
 10
 1.04500000000000E+0003
 20
 1.55000000000000E+0002
 11
 1.04500000000000E+0003
 21
 1.30700000000000E+0003
  0
LINE
  8
0
 10
 1.28500000000000E+0003
 20
 1.30700000000000E+0003
 11
 1.23999949055361E+0003
 21
 1.29538091843480E+0003
  0
ARC
  8
0
 10
 1.23700000000000E+0003
 20
 1.30700000000000E+0003
 40
 1.20000000000000E+0001
 50
 1.46195000000000E+0002
 51
 2.84475000000000E+0002
  0
LINE
  8
0
 10
 1.22702876895808E+0003
 20
 1.31367641756549E+0003
 11
 1.31500000000000E+0003
 21
 1.44500000000000E+0003
  0
LINE
  8
0
 10
 1.31500000000000E+0003
 20
 1.44500000000000E+0003
 11
 1.40297123104192E+0003
 21
 1.31367641756549E+0003
  0
ARC
  8
0
 10
 1.39300000000000E+0003
 20
 1.30700000000000E+0003
 40
 1.20000000000000E+0001
 50
 2.55525000000000E+0002
 51
 3.93805000000000E+0002
  0
LINE
  8
0
 10
 1.39000050944639E+0003
 20
 1.29538091843480E+0003
 11
 1.34500000000000E+0003
 21
 1.30700000000000E+0003
  0
LINE
  8
0
 10
 1.34500000000000E+0003
 20
 1.30700000000000E+0003
 11
 1.34500000000000E+0003
 21
 1.55000000000000E+0002
  0
LINE
  8
0
 10
 1.34500000000000E+0003
 20
 1.55000000000000E+0002
 11
 1.28500000000000E+0003
 21
 1.55000000000000E+0002
  0
LINE
  8
0
 10
 1.28500000000000E+0003
 20
 1.55000000000000E+0002
 11
 1.28500000000000E+0003
 21
 1.30700000000000E+0003
  0
LINE
  8
0
 10
 6.00000000000000E+0002
 20
 1.53500000000000E+0003
 11
 6.30000000000000E+0002
 21
 1.53500000000000E+0003
  0
ARC
  8
0
 10
-1.20000000000000E+0002
 20
 1.53500000000000E+0003
 40
 7.50000000000000E+0002
 50
 3.40811860000000E+0002
 51
 3.60000000000000E+0002
  0
LINE
  8
0
 10
 5.88333318076195E+0002
 20
 1.28849663186243E+0003
 11
 5.88333332723048E+0002
 21
 1.28849686527450E+0003
  0
ARC
  8
0
 10
 5.60000000000000E+0002
 20
 1.29835700000000E+0003
 40
 3.00000000000000E+0001
 50
 1.99188140000000E+0002
 51
 3.40811860000000E+0002
  0
LINE
  8
0
 10
 5.31666667276952E+0002
 20
 1.28849686527450E+0003
 11
 5.31666681923806E+0002
 21
 1.28849663186243E+0003
  0
ARC
  8
0
 10
 1.24000000000000E+0003
 20
 1.53500000000000E+0003
 40
 7.50000000000000E+0002
 50
 1.80000000000000E+0002
 51
 1.99188140000000E+0002
  0
LINE
  8
0
 10
 4.90000000000000E+0002
 20
 1.53500000000000E+0003
 11
 5.20000000000000E+0002
 21
 1.53500000000000E+0003
  0
ARC
  8
0
 10
 1.24000000000000E+0003
 20
 1.53500000000000E+0003
 40
 7.20000000000000E+0002
 50
 1.80000000000000E+0002
 51
 1.99188140000000E+0002
  0
LINE
  8
0
 10
 5.60000014646853E+0002
 20
 1.29835676658793E+0003
 11
 5.59999985353147E+0002
 21
 1.29835676658793E+0003
  0
ARC
  8
0
 10
-1.20000000000000E+0002
 20
 1.53500000000000E+0003
 40
 7.20000000000000E+0002
 50
 3.40811860000000E+0002
 51
 3.60000000000000E+0002
  0
ENDSEC
  0
EOF
