  0
SECTION
  2
HEADER
  9
$ACADVER
  1
AC1003
  9
$INSBASE
 10
0.0
 20
0.0
  9
$EXTMIN
 10
 0.00000000000000E+0000
 20
 0.00000000000000E+0000
  9
$EXTMAX
 10
 1.60000000000000E+0003
 20
 1.60000000000000E+0003
  9
$LIMMIN
 10
0.0
 20
0.0
  9
$LIMMAX
 10
410.0
 20
287.0
  9
$VIEWCTR
 10
227.0059616
 20
165.058879 
  9
$VIEWSIZE
 40
 1.60000000000000E+0003
9
$SNAPMODE
70
0
9
$SNAPUNIT
10
1
20
1
9
$GRIDMODE
70
0
9
$GRIDUNIT
10
1
20
1
9
$ORTHOMODE
70
0
9
$rEGENMODE
70
1
9
$FILLMODE
70
1
9
$DRAGMODE
70
2
9
$LTSCALE
40
25.0
9
$OSMODE
70
0
9
$ATTMODE
70
1
9
$TRACEWID
40
1.0
9
$TEXTSTYLE
7
STANDARD
9
$CLAYER
8
0
9
$CELTYPE
6
VONLAYER
9
$CECOLOR
62
256
9
$LUNITS
70
2
9
$LUPREC
70
2
9
$AXISMODE
70
0
9
$AXISUNIT
10
0
20
0
9
$SKETCHINC
40
1.0
9
$FILLETRAD
40
0.0
9
$AUNITS
70
0
9
$AUPREC
70
0
9
$MENU
1
ACAD
9
$ELEVATION
40
0.0
9
$THICKNESS
40
0.0
9
$VIEWDIR
10
0.0
20
0.0
30
1.0
9
$LIMCHECK
70
0
9
$BLIPMODE
70
1
9
$CHAMFERA
40
0.0
9
$CHAMFERB
40
0.0
9
$USRTIMER
70
1
9
$ANGBASE
50
0.0
9
$ANGDIR
70
0
9
$PDMODE
70
0
9
$PDSIZE
40
0.0
9
$PLINEWID
40
0.0
9
$COORDS
70
0
0
ENDSEC
0
SECTION
2
TABLES
0
TABLE
2
LTYPE
70
1
0
LTYPE
2
AUSGEZOGEN
70
64
3
Ausgezogene Linie
72
65
73
0
40
0.0
0
ENDTAB
0
TABLE
2
LAYER
70
1
0
LAYER
2
0
70
0
62
7
6
AUSGEZOGEN
0
ENDTAB
0
TABLE
2
STYLE
70
1
0
STYLE
2
STANDARD
70
0
40
0.0
41
1.0
50
0.0
71
0
42
3.5
3
txt
4

0
ENDTAB
0
TABLE
2
VIEW
70
0
0
ENDTAB
0
ENDSEC
0
SECTION
2
BLOCKS
0
ENDSEC
0
SECTION
2
ENTITIES
  0
ARC
  8
0
 10
 6.00000000000000E+0001
 20
 6.00000000000000E+0001
 40
 6.00000000000000E+0001
 50
 1.80000000000000E+0002
 51
 2.70000000000000E+0002
  0
LINE
  8
0
 10
 0.00000000000000E+0000
 20
 6.00000000000000E+0001
 11
 0.00000000000000E+0000
 21
 1.54000000000000E+0003
  0
ARC
  8
0
 10
 6.00000000000000E+0001
 20
 1.54000000000000E+0003
 40
 6.00000000000000E+0001
 50
 9.00000000000000E+0001
 51
 1.80000000000000E+0002
  0
LINE
  8
0
 10
 6.00000000000000E+0001
 20
 1.60000000000000E+0003
 11
 1.54000000000000E+0003
 21
 1.60000000000000E+0003
  0
ARC
  8
0
 10
 1.54000000000000E+0003
 20
 1.54000000000000E+0003
 40
 6.00000000000000E+0001
 50
 0.00000000000000E+0000
 51
 9.00000000000000E+0001
  0
LINE
  8
0
 10
 1.60000000000000E+0003
 20
 1.54000000000000E+0003
 11
 1.60000000000000E+0003
 21
 6.00000000000000E+0001
  0
ARC
  8
0
 10
 1.54000000000000E+0003
 20
 6.00000000000000E+0001
 40
 6.00000000000000E+0001
 50
 2.70000000000000E+0002
 51
 3.60000000000000E+0002
  0
LINE
  8
0
 10
 1.54000000000000E+0003
 20
 0.00000000000000E+0000
 11
 6.00000000000000E+0001
 21
 0.00000000000000E+0000
  0
ARC
  8
0
 10
 6.00000000000000E+0001
 20
 6.00000000000000E+0001
 40
 4.50000000000000E+0001
 50
 1.80000000000000E+0002
 51
 2.70000000000000E+0002
  0
LINE
  8
0
 10
 1.50000000000000E+0001
 20
 6.00000000000000E+0001
 11
 1.50000000000000E+0001
 21
 1.54000000000000E+0003
  0
ARC
  8
0
 10
 6.00000000000000E+0001
 20
 1.54000000000000E+0003
 40
 4.50000000000000E+0001
 50
 9.00000000000000E+0001
 51
 1.80000000000000E+0002
  0
LINE
  8
0
 10
 6.00000000000000E+0001
 20
 1.58500000000000E+0003
 11
 1.54000000000000E+0003
 21
 1.58500000000000E+0003
  0
ARC
  8
0
 10
 1.54000000000000E+0003
 20
 1.54000000000000E+0003
 40
 4.50000000000000E+0001
 50
 0.00000000000000E+0000
 51
 9.00000000000000E+0001
  0
LINE
  8
0
 10
 1.58500000000000E+0003
 20
 1.54000000000000E+0003
 11
 1.58500000000000E+0003
 21
 6.00000000000000E+0001
  0
ARC
  8
0
 10
 1.54000000000000E+0003
 20
 6.00000000000000E+0001
 40
 4.50000000000000E+0001
 50
 2.70000000000000E+0002
 51
 3.60000000000000E+0002
  0
LINE
  8
0
 10
 1.54000000000000E+0003
 20
 1.50000000000000E+0001
 11
 6.00000000000000E+0001
 21
 1.50000000000000E+0001
  0
ARC
  8
0
 10
 6.00000000000000E+0001
 20
 6.00000000000000E+0001
 40
 2.50000000000000E+0001
 50
 1.80000000000000E+0002
 51
 2.70000000000000E+0002
  0
LINE
  8
0
 10
 3.50000000000000E+0001
 20
 6.00000000000000E+0001
 11
 3.50000000000000E+0001
 21
 1.54000000000000E+0003
  0
ARC
  8
0
 10
 6.00000000000000E+0001
 20
 1.54000000000000E+0003
 40
 2.50000000000000E+0001
 50
 9.00000000000000E+0001
 51
 1.80000000000000E+0002
  0
LINE
  8
0
 10
 6.00000000000000E+0001
 20
 1.56500000000000E+0003
 11
 1.54000000000000E+0003
 21
 1.56500000000000E+0003
  0
ARC
  8
0
 10
 1.54000000000000E+0003
 20
 1.54000000000000E+0003
 40
 2.50000000000000E+0001
 50
 0.00000000000000E+0000
 51
 9.00000000000000E+0001
  0
LINE
  8
0
 10
 1.56500000000000E+0003
 20
 1.54000000000000E+0003
 11
 1.56500000000000E+0003
 21
 6.00000000000000E+0001
  0
ARC
  8
0
 10
 1.54000000000000E+0003
 20
 6.00000000000000E+0001
 40
 2.50000000000000E+0001
 50
 2.70000000000000E+0002
 51
 3.60000000000000E+0002
  0
LINE
  8
0
 10
 1.54000000000000E+0003
 20
 3.50000000000000E+0001
 11
 6.00000000000000E+0001
 21
 3.50000000000000E+0001
  0
LINE
  8
0
 10
 2.05000000000000E+0002
 20
 1.26500000000000E+0003
 11
 2.05386395892700E+0002
 21
 1.25195630732330E+0003
  0
LINE
  8
0
 10
 2.05386395892700E+0002
 20
 1.25195630732330E+0003
 11
 2.05936491541600E+0002
 21
 1.23907949734640E+0003
  0
LINE
  8
0
 10
 2.05936491541600E+0002
 20
 1.23907949734640E+0003
 11
 2.06646953902900E+0002
 21
 1.22636618914910E+0003
  0
LINE
  8
0
 10
 2.06646953902900E+0002
 20
 1.22636618914910E+0003
 11
 2.07514449932800E+0002
 21
 1.21381300181120E+0003
  0
LINE
  8
0
 10
 2.07514449932800E+0002
 20
 1.21381300181120E+0003
 11
 2.08535646587500E+0002
 21
 1.20141655441250E+0003
  0
LINE
  8
0
 10
 2.08535646587500E+0002
 20
 1.20141655441250E+0003
 11
 2.09707210823200E+0002
 21
 1.18917346603280E+0003
  0
LINE
  8
0
 10
 2.09707210823200E+0002
 20
 1.18917346603280E+0003
 11
 2.11025809596100E+0002
 21
 1.17708035575190E+0003
  0
LINE
  8
0
 10
 2.11025809596100E+0002
 20
 1.17708035575190E+0003
 11
 2.12488109862400E+0002
 21
 1.16513384264960E+0003
  0
LINE
  8
0
 10
 2.12488109862400E+0002
 20
 1.16513384264960E+0003
 11
 2.14090778578300E+0002
 21
 1.15333054580570E+0003
  0
LINE
  8
0
 10
 2.14090778578300E+0002
 20
 1.15333054580570E+0003
 11
 2.15830482700000E+0002
 21
 1.14166708430000E+0003
  0
LINE
  8
0
 10
 2.15830482700000E+0002
 20
 1.14166708430000E+0003
 11
 2.17703889183700E+0002
 21
 1.13014007721230E+0003
  0
LINE
  8
0
 10
 2.17703889183700E+0002
 20
 1.13014007721230E+0003
 11
 2.19707664985600E+0002
 21
 1.11874614362240E+0003
  0
LINE
  8
0
 10
 2.19707664985600E+0002
 20
 1.11874614362240E+0003
 11
 2.21838477061900E+0002
 21
 1.10748190261010E+0003
  0
LINE
  8
0
 10
 2.21838477061900E+0002
 20
 1.10748190261010E+0003
 11
 2.24092992368800E+0002
 21
 1.09634397325520E+0003
  0
LINE
  8
0
 10
 2.24092992368800E+0002
 20
 1.09634397325520E+0003
 11
 2.26467877862500E+0002
 21
 1.08532897463750E+0003
  0
LINE
  8
0
 10
 2.26467877862500E+0002
 20
 1.08532897463750E+0003
 11
 2.28959800499200E+0002
 21
 1.07443352583680E+0003
  0
LINE
  8
0
 10
 2.28959800499200E+0002
 20
 1.07443352583680E+0003
 11
 2.31565427235100E+0002
 21
 1.06365424593290E+0003
  0
LINE
  8
0
 10
 2.31565427235100E+0002
 20
 1.06365424593290E+0003
 11
 2.34281425026400E+0002
 21
 1.05298775400560E+0003
  0
LINE
  8
0
 10
 2.34281425026400E+0002
 20
 1.05298775400560E+0003
 11
 2.37104460829300E+0002
 21
 1.04243066913470E+0003
  0
LINE
  8
0
 10
 2.37104460829300E+0002
 20
 1.04243066913470E+0003
 11
 2.40031201600000E+0002
 21
 1.03197961040000E+0003
  0
LINE
  8
0
 10
 2.40031201600000E+0002
 20
 1.03197961040000E+0003
 11
 2.43058314294700E+0002
 21
 1.02163119688130E+0003
  0
LINE
  8
0
 10
 2.43058314294700E+0002
 20
 1.02163119688130E+0003
 11
 2.46182465869600E+0002
 21
 1.01138204765840E+0003
  0
LINE
  8
0
 10
 2.46182465869600E+0002
 20
 1.01138204765840E+0003
 11
 2.49400323280900E+0002
 21
 1.00122878181110E+0003
  0
LINE
  8
0
 10
 2.49400323280900E+0002
 20
 1.00122878181110E+0003
 11
 2.52708553484800E+0002
 21
 9.91168018419200E+0002
  0
LINE
  8
0
 10
 2.52708553484800E+0002
 20
 9.91168018419200E+0002
 11
 2.56103823437500E+0002
 21
 9.81196376562500E+0002
  0
LINE
  8
0
 10
 2.56103823437500E+0002
 20
 9.81196376562500E+0002
 11
 2.59582800095200E+0002
 21
 9.71310475320800E+0002
  0
LINE
  8
0
 10
 2.59582800095200E+0002
 20
 9.71310475320800E+0002
 11
 2.63142150414100E+0002
 21
 9.61506933773900E+0002
  0
LINE
  8
0
 10
 2.63142150414100E+0002
 20
 9.61506933773900E+0002
 11
 2.66778541350400E+0002
 21
 9.51782371001600E+0002
  0
LINE
  8
0
 10
 2.66778541350400E+0002
 20
 9.51782371001600E+0002
 11
 2.70488639860300E+0002
 21
 9.42133406083700E+0002
  0
LINE
  8
0
 10
 2.70488639860300E+0002
 20
 9.42133406083700E+0002
 11
 2.74269112900000E+0002
 21
 9.32556658100000E+0002
  0
LINE
  8
0
 10
 2.74269112900000E+0002
 20
 9.32556658100000E+0002
 11
 2.78116627425700E+0002
 21
 9.23048746130300E+0002
  0
LINE
  8
0
 10
 2.78116627425700E+0002
 20
 9.23048746130300E+0002
 11
 2.82027850393600E+0002
 21
 9.13606289254400E+0002
  0
LINE
  8
0
 10
 2.82027850393600E+0002
 20
 9.13606289254400E+0002
 11
 2.85999448759900E+0002
 21
 9.04225906552100E+0002
  0
LINE
  8
0
 10
 2.85999448759900E+0002
 20
 9.04225906552100E+0002
 11
 2.90028089480800E+0002
 21
 8.94904217103200E+0002
  0
LINE
  8
0
 10
 2.90028089480800E+0002
 20
 8.94904217103200E+0002
 11
 2.94110439512500E+0002
 21
 8.85637839987500E+0002
  0
LINE
  8
0
 10
 2.94110439512500E+0002
 20
 8.85637839987500E+0002
 11
 2.98243165811200E+0002
 21
 8.76423394284800E+0002
  0
LINE
  8
0
 10
 2.98243165811200E+0002
 20
 8.76423394284800E+0002
 11
 3.02422935333100E+0002
 21
 8.67257499074900E+0002
  0
LINE
  8
0
 10
 3.02422935333100E+0002
 20
 8.67257499074900E+0002
 11
 3.06646415034400E+0002
 21
 8.58136773437600E+0002
  0
LINE
  8
0
 10
 3.06646415034400E+0002
 20
 8.58136773437600E+0002
 11
 3.10910271871300E+0002
 21
 8.49057836452700E+0002
  0
LINE
  8
0
 10
 3.10910271871300E+0002
 20
 8.49057836452700E+0002
 11
 3.15211172800000E+0002
 21
 8.40017307200000E+0002
  0
LINE
  8
0
 10
 3.15211172800000E+0002
 20
 8.40017307200000E+0002
 11
 3.19545784776700E+0002
 21
 8.31011804759300E+0002
  0
LINE
  8
0
 10
 3.19545784776700E+0002
 20
 8.31011804759300E+0002
 11
 3.23910774757600E+0002
 21
 8.22037948210400E+0002
  0
LINE
  8
0
 10
 3.23910774757600E+0002
 20
 8.22037948210400E+0002
 11
 3.28302809698900E+0002
 21
 8.13092356633100E+0002
  0
LINE
  8
0
 10
 3.28302809698900E+0002
 20
 8.13092356633100E+0002
 11
 3.32718556556800E+0002
 21
 8.04171649107200E+0002
  0
LINE
  8
0
 10
 3.32718556556800E+0002
 20
 8.04171649107200E+0002
 11
 3.37154682287500E+0002
 21
 7.95272444712500E+0002
  0
LINE
  8
0
 10
 3.37154682287500E+0002
 20
 7.95272444712500E+0002
 11
 3.41607853847200E+0002
 21
 7.86391362528800E+0002
  0
LINE
  8
0
 10
 3.41607853847200E+0002
 20
 7.86391362528800E+0002
 11
 3.46074738192100E+0002
 21
 7.77525021635900E+0002
  0
LINE
  8
0
 10
 3.46074738192100E+0002
 20
 7.77525021635900E+0002
 11
 3.50552002278400E+0002
 21
 7.68670041113600E+0002
  0
LINE
  8
0
 10
 3.50552002278400E+0002
 20
 7.68670041113600E+0002
 11
 3.55036313062300E+0002
 21
 7.59823040041700E+0002
  0
LINE
  8
0
 10
 3.55036313062300E+0002
 20
 7.59823040041700E+0002
 11
 3.59524337500000E+0002
 21
 7.50980637500000E+0002
  0
LINE
  8
0
 10
 3.59524337500000E+0002
 20
 7.50980637500000E+0002
 11
 3.64012742547700E+0002
 21
 7.42139452568300E+0002
  0
LINE
  8
0
 10
 3.64012742547700E+0002
 20
 7.42139452568300E+0002
 11
 3.68498195161600E+0002
 21
 7.33296104326400E+0002
  0
LINE
  8
0
 10
 3.68498195161600E+0002
 20
 7.33296104326400E+0002
 11
 3.72977362297900E+0002
 21
 7.24447211854100E+0002
  0
LINE
  8
0
 10
 3.72977362297900E+0002
 20
 7.24447211854100E+0002
 11
 3.77446910912800E+0002
 21
 7.15589394231200E+0002
  0
LINE
  8
0
 10
 3.77446910912800E+0002
 20
 7.15589394231200E+0002
 11
 3.81903507962500E+0002
 21
 7.06719270537500E+0002
  0
LINE
  8
0
 10
 3.81903507962500E+0002
 20
 7.06719270537500E+0002
 11
 3.86343820403200E+0002
 21
 6.97833459852800E+0002
  0
LINE
  8
0
 10
 3.86343820403200E+0002
 20
 6.97833459852800E+0002
 11
 3.90764515191100E+0002
 21
 6.88928581256900E+0002
  0
LINE
  8
0
 10
 3.90764515191100E+0002
 20
 6.88928581256900E+0002
 11
 3.95162259282400E+0002
 21
 6.80001253829600E+0002
  0
LINE
  8
0
 10
 3.95162259282400E+0002
 20
 6.80001253829600E+0002
 11
 3.99533719633300E+0002
 21
 6.71048096650700E+0002
  0
LINE
  8
0
 10
 3.99533719633300E+0002
 20
 6.71048096650700E+0002
 11
 4.03875563200000E+0002
 21
 6.62065728800000E+0002
  0
LINE
  8
0
 10
 4.03875563200000E+0002
 20
 6.62065728800000E+0002
 11
 4.08184456938700E+0002
 21
 6.53050769357300E+0002
  0
LINE
  8
0
 10
 4.08184456938700E+0002
 20
 6.53050769357300E+0002
 11
 4.12457067805600E+0002
 21
 6.43999837402400E+0002
  0
LINE
  8
0
 10
 4.12457067805600E+0002
 20
 6.43999837402400E+0002
 11
 4.16690062756900E+0002
 21
 6.34909552015100E+0002
  0
LINE
  8
0
 10
 4.16690062756900E+0002
 20
 6.34909552015100E+0002
 11
 4.20880108748800E+0002
 21
 6.25776532275200E+0002
  0
LINE
  8
0
 10
 4.20880108748800E+0002
 20
 6.25776532275200E+0002
 11
 4.25023872737500E+0002
 21
 6.16597397262500E+0002
  0
LINE
  8
0
 10
 4.25023872737500E+0002
 20
 6.16597397262500E+0002
 11
 4.29118021679200E+0002
 21
 6.07368766056800E+0002
  0
LINE
  8
0
 10
 4.29118021679200E+0002
 20
 6.07368766056800E+0002
 11
 4.33159222530100E+0002
 21
 5.98087257737900E+0002
  0
LINE
  8
0
 10
 4.33159222530100E+0002
 20
 5.98087257737900E+0002
 11
 4.37144142246400E+0002
 21
 5.88749491385600E+0002
  0
LINE
  8
0
 10
 4.37144142246400E+0002
 20
 5.88749491385600E+0002
 11
 4.41069447784300E+0002
 21
 5.79352086079700E+0002
  0
LINE
  8
0
 10
 4.41069447784300E+0002
 20
 5.79352086079700E+0002
 11
 4.44931806100000E+0002
 21
 5.69891660900000E+0002
  0
LINE
  8
0
 10
 4.44931806100000E+0002
 20
 5.69891660900000E+0002
 11
 4.48727884149700E+0002
 21
 5.60364834926300E+0002
  0
LINE
  8
0
 10
 4.48727884149700E+0002
 20
 5.60364834926300E+0002
 11
 4.52454348889600E+0002
 21
 5.50768227238400E+0002
  0
LINE
  8
0
 10
 4.52454348889600E+0002
 20
 5.50768227238400E+0002
 11
 4.56107867275900E+0002
 21
 5.41098456916100E+0002
  0
LINE
  8
0
 10
 4.56107867275900E+0002
 20
 5.41098456916100E+0002
 11
 4.59685106264800E+0002
 21
 5.31352143039200E+0002
  0
LINE
  8
0
 10
 4.59685106264800E+0002
 20
 5.31352143039200E+0002
 11
 4.63182732812500E+0002
 21
 5.21525904687500E+0002
  0
LINE
  8
0
 10
 4.63182732812500E+0002
 20
 5.21525904687500E+0002
 11
 4.66597413875200E+0002
 21
 5.11616360940800E+0002
  0
LINE
  8
0
 10
 4.66597413875200E+0002
 20
 5.11616360940800E+0002
 11
 4.69925816409100E+0002
 21
 5.01620130878900E+0002
  0
LINE
  8
0
 10
 4.69925816409100E+0002
 20
 5.01620130878900E+0002
 11
 4.73164607370400E+0002
 21
 4.91533833581600E+0002
  0
LINE
  8
0
 10
 4.73164607370400E+0002
 20
 4.91533833581600E+0002
 11
 4.76310453715300E+0002
 21
 4.81354088128700E+0002
  0
LINE
  8
0
 10
 4.76310453715300E+0002
 20
 4.81354088128700E+0002
 11
 4.79360022400000E+0002
 21
 4.71077513600000E+0002
  0
LINE
  8
0
 10
 4.79360022400000E+0002
 20
 4.71077513600000E+0002
 11
 4.82309980380700E+0002
 21
 4.60700729075300E+0002
  0
LINE
  8
0
 10
 4.82309980380700E+0002
 20
 4.60700729075300E+0002
 11
 4.85156994613600E+0002
 21
 4.50220353634400E+0002
  0
LINE
  8
0
 10
 4.85156994613600E+0002
 20
 4.50220353634400E+0002
 11
 4.87897732054900E+0002
 21
 4.39633006357100E+0002
  0
LINE
  8
0
 10
 4.87897732054900E+0002
 20
 4.39633006357100E+0002
 11
 4.90528859660800E+0002
 21
 4.28935306323200E+0002
  0
LINE
  8
0
 10
 4.90528859660800E+0002
 20
 4.28935306323200E+0002
 11
 4.93047044387500E+0002
 21
 4.18123872612500E+0002
  0
LINE
  8
0
 10
 4.93047044387500E+0002
 20
 4.18123872612500E+0002
 11
 4.95448953191200E+0002
 21
 4.07195324304800E+0002
  0
LINE
  8
0
 10
 4.95448953191200E+0002
 20
 4.07195324304800E+0002
 11
 4.97731253028100E+0002
 21
 3.96146280479900E+0002
  0
LINE
  8
0
 10
 4.97731253028100E+0002
 20
 3.96146280479900E+0002
 11
 4.99890610854400E+0002
 21
 3.84973360217600E+0002
  0
LINE
  8
0
 10
 4.99890610854400E+0002
 20
 3.84973360217600E+0002
 11
 5.01923693626300E+0002
 21
 3.73673182597700E+0002
  0
LINE
  8
0
 10
 5.01923693626300E+0002
 20
 3.73673182597700E+0002
 11
 5.03827168300000E+0002
 21
 3.62242366700000E+0002
  0
LINE
  8
0
 10
 5.03827168300000E+0002
 20
 3.62242366700000E+0002
 11
 5.05597701831700E+0002
 21
 3.50677531604300E+0002
  0
LINE
  8
0
 10
 5.05597701831700E+0002
 20
 3.50677531604300E+0002
 11
 5.07231961177600E+0002
 21
 3.38975296390400E+0002
  0
LINE
  8
0
 10
 5.07231961177600E+0002
 20
 3.38975296390400E+0002
 11
 5.08726613293900E+0002
 21
 3.27132280138100E+0002
  0
LINE
  8
0
 10
 5.08726613293900E+0002
 20
 3.27132280138100E+0002
 11
 5.10078325136800E+0002
 21
 3.15145101927200E+0002
  0
LINE
  8
0
 10
 5.10078325136800E+0002
 20
 3.15145101927200E+0002
 11
 5.11283763662500E+0002
 21
 3.03010380837500E+0002
  0
LINE
  8
0
 10
 5.11283763662500E+0002
 20
 3.03010380837500E+0002
 11
 5.12339595827200E+0002
 21
 2.90724735948800E+0002
  0
LINE
  8
0
 10
 5.12339595827200E+0002
 20
 2.90724735948800E+0002
 11
 5.13242488587100E+0002
 21
 2.78284786340900E+0002
  0
LINE
  8
0
 10
 5.13242488587100E+0002
 20
 2.78284786340900E+0002
 11
 5.13989108898400E+0002
 21
 2.65687151093600E+0002
  0
LINE
  8
0
 10
 5.13989108898400E+0002
 20
 2.65687151093600E+0002
 11
 5.14576123717300E+0002
 21
 2.52928449286700E+0002
  0
LINE
  8
0
 10
 5.14576123717300E+0002
 20
 2.52928449286700E+0002
 11
 5.15000200000000E+0002
 21
 2.40005300000000E+0002
  0
LINE
  8
0
 10
 5.15000200000000E+0002
 20
 2.40005300000000E+0002
 11
 5.15000000000000E+0002
 21
 1.55000000000000E+0002
  0
LINE
  8
0
 10
 5.15000000000000E+0002
 20
 1.55000000000000E+0002
 11
 4.55000000000000E+0002
 21
 1.55000000000000E+0002
  0
LINE
  8
0
 10
 4.55000000000000E+0002
 20
 1.55000000000000E+0002
 11
 4.55000000000000E+0002
 21
 2.40005300000000E+0002
  0
LINE
  8
0
 10
 4.55000000000000E+0002
 20
 2.40005300000000E+0002
 11
 4.54575976256100E+0002
 21
 2.52928449294400E+0002
  0
LINE
  8
0
 10
 4.54575976256100E+0002
 20
 2.52928449294400E+0002
 11
 4.53989011088800E+0002
 21
 2.65687151155200E+0002
  0
LINE
  8
0
 10
 4.53989011088800E+0002
 20
 2.65687151155200E+0002
 11
 4.53242437594700E+0002
 21
 2.78284786548800E+0002
  0
LINE
  8
0
 10
 4.53242437594700E+0002
 20
 2.78284786548800E+0002
 11
 4.52339588870400E+0002
 21
 2.90724736441600E+0002
  0
LINE
  8
0
 10
 4.52339588870400E+0002
 20
 2.90724736441600E+0002
 11
 4.51283798012500E+0002
 21
 3.03010381800000E+0002
  0
LINE
  8
0
 10
 4.51283798012500E+0002
 20
 3.03010381800000E+0002
 11
 4.50078398117600E+0002
 21
 3.15145103590400E+0002
  0
LINE
  8
0
 10
 4.50078398117600E+0002
 20
 3.15145103590400E+0002
 11
 4.48726722282300E+0002
 21
 3.27132282779200E+0002
  0
LINE
  8
0
 10
 4.48726722282300E+0002
 20
 3.27132282779200E+0002
 11
 4.47232103603200E+0002
 21
 3.38975300332800E+0002
  0
LINE
  8
0
 10
 4.47232103603200E+0002
 20
 3.38975300332800E+0002
 11
 4.45597875176900E+0002
 21
 3.50677537217600E+0002
  0
LINE
  8
0
 10
 4.45597875176900E+0002
 20
 3.50677537217600E+0002
 11
 4.43827370100000E+0002
 21
 3.62242374400000E+0002
  0
LINE
  8
0
 10
 4.43827370100000E+0002
 20
 3.62242374400000E+0002
 11
 4.41923921469100E+0002
 21
 3.73673192846400E+0002
  0
LINE
  8
0
 10
 4.41923921469100E+0002
 20
 3.73673192846400E+0002
 11
 4.39890862380800E+0002
 21
 3.84973373523200E+0002
  0
LINE
  8
0
 10
 4.39890862380800E+0002
 20
 3.84973373523200E+0002
 11
 4.37731525931700E+0002
 21
 3.96146297396800E+0002
  0
LINE
  8
0
 10
 4.37731525931700E+0002
 20
 3.96146297396800E+0002
 11
 4.35449245218400E+0002
 21
 4.07195345433600E+0002
  0
LINE
  8
0
 10
 4.35449245218400E+0002
 20
 4.07195345433600E+0002
 11
 4.33047353337500E+0002
 21
 4.18123898600000E+0002
  0
LINE
  8
0
 10
 4.33047353337500E+0002
 20
 4.18123898600000E+0002
 11
 4.30529183385600E+0002
 21
 4.28935337862400E+0002
  0
LINE
  8
0
 10
 4.30529183385600E+0002
 20
 4.28935337862400E+0002
 11
 4.27898068459300E+0002
 21
 4.39633044187200E+0002
  0
LINE
  8
0
 10
 4.27898068459300E+0002
 20
 4.39633044187200E+0002
 11
 4.25157341655200E+0002
 21
 4.50220398540800E+0002
  0
LINE
  8
0
 10
 4.25157341655200E+0002
 20
 4.50220398540800E+0002
 11
 4.22310336069900E+0002
 21
 4.60700781889600E+0002
  0
LINE
  8
0
 10
 4.22310336069900E+0002
 20
 4.60700781889600E+0002
 11
 4.19360384800000E+0002
 21
 4.71077575200000E+0002
  0
LINE
  8
0
 10
 4.19360384800000E+0002
 20
 4.71077575200000E+0002
 11
 4.16310820942100E+0002
 21
 4.81354159438400E+0002
  0
LINE
  8
0
 10
 4.16310820942100E+0002
 20
 4.81354159438400E+0002
 11
 4.13164977592800E+0002
 21
 4.91533915571200E+0002
  0
LINE
  8
0
 10
 4.13164977592800E+0002
 20
 4.91533915571200E+0002
 11
 4.09926187848700E+0002
 21
 5.01620224564800E+0002
  0
LINE
  8
0
 10
 4.09926187848700E+0002
 20
 5.01620224564800E+0002
 11
 4.06597784806400E+0002
 21
 5.11616467385600E+0002
  0
LINE
  8
0
 10
 4.06597784806400E+0002
 20
 5.11616467385600E+0002
 11
 4.03183101562500E+0002
 21
 5.21526025000000E+0002
  0
LINE
  8
0
 10
 4.03183101562500E+0002
 20
 5.21526025000000E+0002
 11
 3.99685471213600E+0002
 21
 5.31352278374400E+0002
  0
LINE
  8
0
 10
 3.99685471213600E+0002
 20
 5.31352278374400E+0002
 11
 3.96108226856300E+0002
 21
 5.41098608475200E+0002
  0
LINE
  8
0
 10
 3.96108226856300E+0002
 20
 5.41098608475200E+0002
 11
 3.92454701587200E+0002
 21
 5.50768396268800E+0002
  0
LINE
  8
0
 10
 3.92454701587200E+0002
 20
 5.50768396268800E+0002
 11
 3.88728228502900E+0002
 21
 5.60365022721600E+0002
  0
LINE
  8
0
 10
 3.88728228502900E+0002
 20
 5.60365022721600E+0002
 11
 3.84932140700000E+0002
 21
 5.69891868800000E+0002
  0
LINE
  8
0
 10
 3.84932140700000E+0002
 20
 5.69891868800000E+0002
 11
 3.81069771275100E+0002
 21
 5.79352315470400E+0002
  0
LINE
  8
0
 10
 3.81069771275100E+0002
 20
 5.79352315470400E+0002
 11
 3.77144453324800E+0002
 21
 5.88749743699200E+0002
  0
LINE
  8
0
 10
 3.77144453324800E+0002
 20
 5.88749743699200E+0002
 11
 3.73159519945700E+0002
 21
 5.98087534452800E+0002
  0
LINE
  8
0
 10
 3.73159519945700E+0002
 20
 5.98087534452800E+0002
 11
 3.69118304234400E+0002
 21
 6.07369068697600E+0002
  0
LINE
  8
0
 10
 3.69118304234400E+0002
 20
 6.07369068697600E+0002
 11
 3.65024139287500E+0002
 21
 6.16597727400000E+0002
  0
LINE
  8
0
 10
 3.65024139287500E+0002
 20
 6.16597727400000E+0002
 11
 3.60880358201600E+0002
 21
 6.25776891526400E+0002
  0
LINE
  8
0
 10
 3.60880358201600E+0002
 20
 6.25776891526400E+0002
 11
 3.56690294073300E+0002
 21
 6.34909942043200E+0002
  0
LINE
  8
0
 10
 3.56690294073300E+0002
 20
 6.34909942043200E+0002
 11
 3.52457279999200E+0002
 21
 6.44000259916800E+0002
  0
LINE
  8
0
 10
 3.52457279999200E+0002
 20
 6.44000259916800E+0002
 11
 3.48184649075900E+0002
 21
 6.53051226113600E+0002
  0
LINE
  8
0
 10
 3.48184649075900E+0002
 20
 6.53051226113600E+0002
 11
 3.43875734400000E+0002
 21
 6.62066221600000E+0002
  0
LINE
  8
0
 10
 3.43875734400000E+0002
 20
 6.62066221600000E+0002
 11
 3.39533869068100E+0002
 21
 6.71048627342400E+0002
  0
LINE
  8
0
 10
 3.39533869068100E+0002
 20
 6.71048627342400E+0002
 11
 3.35162386176800E+0002
 21
 6.80001824307200E+0002
  0
LINE
  8
0
 10
 3.35162386176800E+0002
 20
 6.80001824307200E+0002
 11
 3.30764618822700E+0002
 21
 6.88929193460800E+0002
  0
LINE
  8
0
 10
 3.30764618822700E+0002
 20
 6.88929193460800E+0002
 11
 3.26343900102400E+0002
 21
 6.97834115769600E+0002
  0
LINE
  8
0
 10
 3.26343900102400E+0002
 20
 6.97834115769600E+0002
 11
 3.21903563112500E+0002
 21
 7.06719972200000E+0002
  0
LINE
  8
0
 10
 3.21903563112500E+0002
 20
 7.06719972200000E+0002
 11
 3.17446940949600E+0002
 21
 7.15590143718400E+0002
  0
LINE
  8
0
 10
 3.17446940949600E+0002
 20
 7.15590143718400E+0002
 11
 3.12977366710300E+0002
 21
 7.24448011291200E+0002
  0
LINE
  8
0
 10
 3.12977366710300E+0002
 20
 7.24448011291200E+0002
 11
 3.08498173491200E+0002
 21
 7.33296955884800E+0002
  0
LINE
  8
0
 10
 3.08498173491200E+0002
 20
 7.33296955884800E+0002
 11
 3.04012694388900E+0002
 21
 7.42140358465600E+0002
  0
LINE
  8
0
 10
 3.04012694388900E+0002
 20
 7.42140358465600E+0002
 11
 2.99524262500000E+0002
 21
 7.50981600000000E+0002
  0
LINE
  8
0
 10
 2.99524262500000E+0002
 20
 7.50981600000000E+0002
 11
 2.95036210921100E+0002
 21
 7.59824061454400E+0002
  0
LINE
  8
0
 10
 2.95036210921100E+0002
 20
 7.59824061454400E+0002
 11
 2.90551872748800E+0002
 21
 7.68671123795200E+0002
  0
LINE
  8
0
 10
 2.90551872748800E+0002
 20
 7.68671123795200E+0002
 11
 2.86074581079700E+0002
 21
 7.77526167988800E+0002
  0
LINE
  8
0
 10
 2.86074581079700E+0002
 20
 7.77526167988800E+0002
 11
 2.81607669010400E+0002
 21
 7.86392575001600E+0002
  0
LINE
  8
0
 10
 2.81607669010400E+0002
 20
 7.86392575001600E+0002
 11
 2.77154469637500E+0002
 21
 7.95273725800000E+0002
  0
LINE
  8
0
 10
 2.77154469637500E+0002
 20
 7.95273725800000E+0002
 11
 2.72718316057600E+0002
 21
 8.04173001350400E+0002
  0
LINE
  8
0
 10
 2.72718316057600E+0002
 20
 8.04173001350400E+0002
 11
 2.68302541367300E+0002
 21
 8.13093782619200E+0002
  0
LINE
  8
0
 10
 2.68302541367300E+0002
 20
 8.13093782619200E+0002
 11
 2.63910478663200E+0002
 21
 8.22039450572800E+0002
  0
LINE
  8
0
 10
 2.63910478663200E+0002
 20
 8.22039450572800E+0002
 11
 2.59545461041900E+0002
 21
 8.31013386177600E+0002
  0
LINE
  8
0
 10
 2.59545461041900E+0002
 20
 8.31013386177600E+0002
 11
 2.55210821600000E+0002
 21
 8.40018970400000E+0002
  0
LINE
  8
0
 10
 2.55210821600000E+0002
 20
 8.40018970400000E+0002
 11
 2.50909893434100E+0002
 21
 8.49059584206400E+0002
  0
LINE
  8
0
 10
 2.50909893434100E+0002
 20
 8.49059584206400E+0002
 11
 2.46646009640800E+0002
 21
 8.58138608563200E+0002
  0
LINE
  8
0
 10
 2.46646009640800E+0002
 20
 8.58138608563200E+0002
 11
 2.42422503316700E+0002
 21
 8.67259424436800E+0002
  0
LINE
  8
0
 10
 2.42422503316700E+0002
 20
 8.67259424436800E+0002
 11
 2.38242707558400E+0002
 21
 8.76425412793600E+0002
  0
LINE
  8
0
 10
 2.38242707558400E+0002
 20
 8.76425412793600E+0002
 11
 2.34109955462500E+0002
 21
 8.85639954600000E+0002
  0
LINE
  8
0
 10
 2.34109955462500E+0002
 20
 8.85639954600000E+0002
 11
 2.30027580125600E+0002
 21
 8.94906430822400E+0002
  0
LINE
  8
0
 10
 2.30027580125600E+0002
 20
 8.94906430822400E+0002
 11
 2.25998914644300E+0002
 21
 9.04228222427200E+0002
  0
LINE
  8
0
 10
 2.25998914644300E+0002
 20
 9.04228222427200E+0002
 11
 2.22027292115200E+0002
 21
 9.13608710380800E+0002
  0
LINE
  8
0
 10
 2.22027292115200E+0002
 20
 9.13608710380800E+0002
 11
 2.18116045634900E+0002
 21
 9.23051275649600E+0002
  0
LINE
  8
0
 10
 2.18116045634900E+0002
 20
 9.23051275649600E+0002
 11
 2.14268508300000E+0002
 21
 9.32559299200000E+0002
  0
LINE
  8
0
 10
 2.14268508300000E+0002
 20
 9.32559299200000E+0002
 11
 2.10488013207100E+0002
 21
 9.42136161998400E+0002
  0
LINE
  8
0
 10
 2.10488013207100E+0002
 20
 9.42136161998400E+0002
 11
 2.06777893452800E+0002
 21
 9.51785245011200E+0002
  0
LINE
  8
0
 10
 2.06777893452800E+0002
 20
 9.51785245011200E+0002
 11
 2.03141482133700E+0002
 21
 9.61509929204800E+0002
  0
LINE
  8
0
 10
 2.03141482133700E+0002
 20
 9.61509929204800E+0002
 11
 1.99582112346400E+0002
 21
 9.71313595545600E+0002
  0
LINE
  8
0
 10
 1.99582112346400E+0002
 20
 9.71313595545600E+0002
 11
 1.96103117187500E+0002
 21
 9.81199625000000E+0002
  0
LINE
  8
0
 10
 1.96103117187500E+0002
 20
 9.81199625000000E+0002
 11
 1.92707829753600E+0002
 21
 9.91171398534400E+0002
  0
LINE
  8
0
 10
 1.92707829753600E+0002
 20
 9.91171398534400E+0002
 11
 1.89399583141300E+0002
 21
 1.00123229711520E+0003
  0
LINE
  8
0
 10
 1.89399583141300E+0002
 20
 1.00123229711520E+0003
 11
 1.86181710447200E+0002
 21
 1.01138570170880E+0003
  0
LINE
  8
0
 10
 1.86181710447200E+0002
 20
 1.01138570170880E+0003
 11
 1.83057544767900E+0002
 21
 1.02163499328160E+0003
  0
LINE
  8
0
 10
 1.83057544767900E+0002
 20
 1.02163499328160E+0003
 11
 1.80030419200000E+0002
 21
 1.03198355280000E+0003
  0
LINE
  8
0
 10
 1.80030419200000E+0002
 20
 1.03198355280000E+0003
 11
 1.77103666840100E+0002
 21
 1.04243476123040E+0003
  0
LINE
  8
0
 10
 1.77103666840100E+0002
 20
 1.04243476123040E+0003
 11
 1.74280620784800E+0002
 21
 1.05299199953920E+0003
  0
LINE
  8
0
 10
 1.74280620784800E+0002
 20
 1.05299199953920E+0003
 11
 1.71564614130700E+0002
 21
 1.06365864869280E+0003
  0
LINE
  8
0
 10
 1.71564614130700E+0002
 20
 1.06365864869280E+0003
 11
 1.68958979974400E+0002
 21
 1.07443808965760E+0003
  0
LINE
  8
0
 10
 1.68958979974400E+0002
 20
 1.07443808965760E+0003
 11
 1.66467051412500E+0002
 21
 1.08533370340000E+0003
  0
LINE
  8
0
 10
 1.66467051412500E+0002
 20
 1.08533370340000E+0003
 11
 1.64092161541600E+0002
 21
 1.09634887088640E+0003
  0
LINE
  8
0
 10
 1.64092161541600E+0002
 20
 1.09634887088640E+0003
 11
 1.61837643458300E+0002
 21
 1.10748697308320E+0003
  0
LINE
  8
0
 10
 1.61837643458300E+0002
 20
 1.10748697308320E+0003
 11
 1.59706830259200E+0002
 21
 1.11875139095680E+0003
  0
LINE
  8
0
 10
 1.59706830259200E+0002
 20
 1.11875139095680E+0003
 11
 1.57703055040900E+0002
 21
 1.13014550547360E+0003
  0
LINE
  8
0
 10
 1.57703055040900E+0002
 20
 1.13014550547360E+0003
 11
 1.55829650900000E+0002
 21
 1.14167269760000E+0003
  0
LINE
  8
0
 10
 1.55829650900000E+0002
 20
 1.14167269760000E+0003
 11
 1.54089950933100E+0002
 21
 1.15333634830240E+0003
  0
LINE
  8
0
 10
 1.54089950933100E+0002
 20
 1.15333634830240E+0003
 11
 1.52487288236800E+0002
 21
 1.16513983854720E+0003
  0
LINE
  8
0
 10
 1.52487288236800E+0002
 20
 1.16513983854720E+0003
 11
 1.51024995907700E+0002
 21
 1.17708654930080E+0003
  0
LINE
  8
0
 10
 1.51024995907700E+0002
 20
 1.17708654930080E+0003
 11
 1.49706407042400E+0002
 21
 1.18917986152960E+0003
  0
LINE
  8
0
 10
 1.49706407042400E+0002
 20
 1.18917986152960E+0003
 11
 1.48534854737500E+0002
 21
 1.20142315620000E+0003
  0
LINE
  8
0
 10
 1.48534854737500E+0002
 20
 1.20142315620000E+0003
 11
 1.47513672089600E+0002
 21
 1.21381981427840E+0003
  0
LINE
  8
0
 10
 1.47513672089600E+0002
 20
 1.21381981427840E+0003
 11
 1.46646192195300E+0002
 21
 1.22637321673120E+0003
  0
LINE
  8
0
 10
 1.46646192195300E+0002
 20
 1.22637321673120E+0003
 11
 1.45935748151200E+0002
 21
 1.23908674452480E+0003
  0
LINE
  8
0
 10
 1.45935748151200E+0002
 20
 1.23908674452480E+0003
 11
 1.45385673053900E+0002
 21
 1.25196377862560E+0003
  0
LINE
  8
0
 10
 1.45385673053900E+0002
 20
 1.25196377862560E+0003
 11
 1.44999300000000E+0002
 21
 1.26500770000000E+0003
  0
LINE
  8
0
 10
 1.44999300000000E+0002
 20
 1.26500770000000E+0003
 11
 1.45000000000000E+0002
 21
 1.30700000000000E+0003
  0
LINE
  8
0
 10
 1.45000000000000E+0002
 20
 1.30700000000000E+0003
 11
 9.99994905536102E+0001
 21
 1.29538091843480E+0003
  0
ARC
  8
0
 10
 9.70000000000000E+0001
 20
 1.30700000000000E+0003
 40
 1.20000000000000E+0001
 50
 1.46195000000000E+0002
 51
 2.84475000000000E+0002
  0
LINE
  8
0
 10
 8.70287689580835E+0001
 20
 1.31367641756549E+0003
 11
 1.75000000000000E+0002
 21
 1.44500000000000E+0003
  0
LINE
  8
0
 10
 1.75000000000000E+0002
 20
 1.44500000000000E+0003
 11
 2.62971231041917E+0002
 21
 1.31367641756549E+0003
  0
ARC
  8
0
 10
 2.53000000000000E+0002
 20
 1.30700000000000E+0003
 40
 1.20000000000000E+0001
 50
 2.55525000000000E+0002
 51
 3.93805000000000E+0002
  0
LINE
  8
0
 10
 2.50000509446390E+0002
 20
 1.29538091843480E+0003
 11
 2.05000000000000E+0002
 21
 1.30700000000000E+0003
  0
LINE
  8
0
 10
 2.05000000000000E+0002
 20
 1.30700000000000E+0003
 11
 2.05000000000000E+0002
 21
 1.26500000000000E+0003
  0
LINE
  8
0
 10
 9.75000000000000E+0002
 20
 1.26500000000000E+0003
 11
 9.74613604107300E+0002
 21
 1.25195630732330E+0003
  0
LINE
  8
0
 10
 9.74613604107300E+0002
 20
 1.25195630732330E+0003
 11
 9.74063508458400E+0002
 21
 1.23907949734640E+0003
  0
LINE
  8
0
 10
 9.74063508458400E+0002
 20
 1.23907949734640E+0003
 11
 9.73353046097100E+0002
 21
 1.22636618914910E+0003
  0
LINE
  8
0
 10
 9.73353046097100E+0002
 20
 1.22636618914910E+0003
 11
 9.72485550067200E+0002
 21
 1.21381300181120E+0003
  0
LINE
  8
0
 10
 9.72485550067200E+0002
 20
 1.21381300181120E+0003
 11
 9.71464353412500E+0002
 21
 1.20141655441250E+0003
  0
LINE
  8
0
 10
 9.71464353412500E+0002
 20
 1.20141655441250E+0003
 11
 9.70292789176800E+0002
 21
 1.18917346603280E+0003
  0
LINE
  8
0
 10
 9.70292789176800E+0002
 20
 1.18917346603280E+0003
 11
 9.68974190403900E+0002
 21
 1.17708035575190E+0003
  0
LINE
  8
0
 10
 9.68974190403900E+0002
 20
 1.17708035575190E+0003
 11
 9.67511890137600E+0002
 21
 1.16513384264960E+0003
  0
LINE
  8
0
 10
 9.67511890137600E+0002
 20
 1.16513384264960E+0003
 11
 9.65909221421700E+0002
 21
 1.15333054580570E+0003
  0
LINE
  8
0
 10
 9.65909221421700E+0002
 20
 1.15333054580570E+0003
 11
 9.64169517300000E+0002
 21
 1.14166708430000E+0003
  0
LINE
  8
0
 10
 9.64169517300000E+0002
 20
 1.14166708430000E+0003
 11
 9.62296110816300E+0002
 21
 1.13014007721230E+0003
  0
LINE
  8
0
 10
 9.62296110816300E+0002
 20
 1.13014007721230E+0003
 11
 9.60292335014400E+0002
 21
 1.11874614362240E+0003
  0
LINE
  8
0
 10
 9.60292335014400E+0002
 20
 1.11874614362240E+0003
 11
 9.58161522938100E+0002
 21
 1.10748190261010E+0003
  0
LINE
  8
0
 10
 9.58161522938100E+0002
 20
 1.10748190261010E+0003
 11
 9.55907007631200E+0002
 21
 1.09634397325520E+0003
  0
LINE
  8
0
 10
 9.55907007631200E+0002
 20
 1.09634397325520E+0003
 11
 9.53532122137500E+0002
 21
 1.08532897463750E+0003
  0
LINE
  8
0
 10
 9.53532122137500E+0002
 20
 1.08532897463750E+0003
 11
 9.51040199500800E+0002
 21
 1.07443352583680E+0003
  0
LINE
  8
0
 10
 9.51040199500800E+0002
 20
 1.07443352583680E+0003
 11
 9.48434572764900E+0002
 21
 1.06365424593290E+0003
  0
LINE
  8
0
 10
 9.48434572764900E+0002
 20
 1.06365424593290E+0003
 11
 9.45718574973600E+0002
 21
 1.05298775400560E+0003
  0
LINE
  8
0
 10
 9.45718574973600E+0002
 20
 1.05298775400560E+0003
 11
 9.42895539170700E+0002
 21
 1.04243066913470E+0003
  0
LINE
  8
0
 10
 9.42895539170700E+0002
 20
 1.04243066913470E+0003
 11
 9.39968798400000E+0002
 21
 1.03197961040000E+0003
  0
LINE
  8
0
 10
 9.39968798400000E+0002
 20
 1.03197961040000E+0003
 11
 9.36941685705300E+0002
 21
 1.02163119688130E+0003
  0
LINE
  8
0
 10
 9.36941685705300E+0002
 20
 1.02163119688130E+0003
 11
 9.33817534130400E+0002
 21
 1.01138204765840E+0003
  0
LINE
  8
0
 10
 9.33817534130400E+0002
 20
 1.01138204765840E+0003
 11
 9.30599676719100E+0002
 21
 1.00122878181110E+0003
  0
LINE
  8
0
 10
 9.30599676719100E+0002
 20
 1.00122878181110E+0003
 11
 9.27291446515200E+0002
 21
 9.91168018419200E+0002
  0
LINE
  8
0
 10
 9.27291446515200E+0002
 20
 9.91168018419200E+0002
 11
 9.23896176562500E+0002
 21
 9.81196376562500E+0002
  0
LINE
  8
0
 10
 9.23896176562500E+0002
 20
 9.81196376562500E+0002
 11
 9.20417199904800E+0002
 21
 9.71310475320800E+0002
  0
LINE
  8
0
 10
 9.20417199904800E+0002
 20
 9.71310475320800E+0002
 11
 9.16857849585900E+0002
 21
 9.61506933773900E+0002
  0
LINE
  8
0
 10
 9.16857849585900E+0002
 20
 9.61506933773900E+0002
 11
 9.13221458649600E+0002
 21
 9.51782371001600E+0002
  0
LINE
  8
0
 10
 9.13221458649600E+0002
 20
 9.51782371001600E+0002
 11
 9.09511360139700E+0002
 21
 9.42133406083700E+0002
  0
LINE
  8
0
 10
 9.09511360139700E+0002
 20
 9.42133406083700E+0002
 11
 9.05730887100000E+0002
 21
 9.32556658100000E+0002
  0
LINE
  8
0
 10
 9.05730887100000E+0002
 20
 9.32556658100000E+0002
 11
 9.01883372574300E+0002
 21
 9.23048746130300E+0002
  0
LINE
  8
0
 10
 9.01883372574300E+0002
 20
 9.23048746130300E+0002
 11
 8.97972149606400E+0002
 21
 9.13606289254400E+0002
  0
LINE
  8
0
 10
 8.97972149606400E+0002
 20
 9.13606289254400E+0002
 11
 8.94000551240100E+0002
 21
 9.04225906552100E+0002
  0
LINE
  8
0
 10
 8.94000551240100E+0002
 20
 9.04225906552100E+0002
 11
 8.89971910519200E+0002
 21
 8.94904217103200E+0002
  0
LINE
  8
0
 10
 8.89971910519200E+0002
 20
 8.94904217103200E+0002
 11
 8.85889560487500E+0002
 21
 8.85637839987500E+0002
  0
LINE
  8
0
 10
 8.85889560487500E+0002
 20
 8.85637839987500E+0002
 11
 8.81756834188800E+0002
 21
 8.76423394284800E+0002
  0
LINE
  8
0
 10
 8.81756834188800E+0002
 20
 8.76423394284800E+0002
 11
 8.77577064666900E+0002
 21
 8.67257499074900E+0002
  0
LINE
  8
0
 10
 8.77577064666900E+0002
 20
 8.67257499074900E+0002
 11
 8.73353584965600E+0002
 21
 8.58136773437600E+0002
  0
LINE
  8
0
 10
 8.73353584965600E+0002
 20
 8.58136773437600E+0002
 11
 8.69089728128700E+0002
 21
 8.49057836452700E+0002
  0
LINE
  8
0
 10
 8.69089728128700E+0002
 20
 8.49057836452700E+0002
 11
 8.64788827200000E+0002
 21
 8.40017307200000E+0002
  0
LINE
  8
0
 10
 8.64788827200000E+0002
 20
 8.40017307200000E+0002
 11
 8.60454215223300E+0002
 21
 8.31011804759300E+0002
  0
LINE
  8
0
 10
 8.60454215223300E+0002
 20
 8.31011804759300E+0002
 11
 8.56089225242400E+0002
 21
 8.22037948210400E+0002
  0
LINE
  8
0
 10
 8.56089225242400E+0002
 20
 8.22037948210400E+0002
 11
 8.51697190301100E+0002
 21
 8.13092356633100E+0002
  0
LINE
  8
0
 10
 8.51697190301100E+0002
 20
 8.13092356633100E+0002
 11
 8.47281443443200E+0002
 21
 8.04171649107200E+0002
  0
LINE
  8
0
 10
 8.47281443443200E+0002
 20
 8.04171649107200E+0002
 11
 8.42845317712500E+0002
 21
 7.95272444712500E+0002
  0
LINE
  8
0
 10
 8.42845317712500E+0002
 20
 7.95272444712500E+0002
 11
 8.38392146152800E+0002
 21
 7.86391362528800E+0002
  0
LINE
  8
0
 10
 8.38392146152800E+0002
 20
 7.86391362528800E+0002
 11
 8.33925261807900E+0002
 21
 7.77525021635900E+0002
  0
LINE
  8
0
 10
 8.33925261807900E+0002
 20
 7.77525021635900E+0002
 11
 8.29447997721600E+0002
 21
 7.68670041113600E+0002
  0
LINE
  8
0
 10
 8.29447997721600E+0002
 20
 7.68670041113600E+0002
 11
 8.24963686937700E+0002
 21
 7.59823040041700E+0002
  0
LINE
  8
0
 10
 8.24963686937700E+0002
 20
 7.59823040041700E+0002
 11
 8.20475662500000E+0002
 21
 7.50980637500000E+0002
  0
LINE
  8
0
 10
 8.20475662500000E+0002
 20
 7.50980637500000E+0002
 11
 8.15987257452300E+0002
 21
 7.42139452568300E+0002
  0
LINE
  8
0
 10
 8.15987257452300E+0002
 20
 7.42139452568300E+0002
 11
 8.11501804838400E+0002
 21
 7.33296104326400E+0002
  0
LINE
  8
0
 10
 8.11501804838400E+0002
 20
 7.33296104326400E+0002
 11
 8.07022637702100E+0002
 21
 7.24447211854100E+0002
  0
LINE
  8
0
 10
 8.07022637702100E+0002
 20
 7.24447211854100E+0002
 11
 8.02553089087200E+0002
 21
 7.15589394231200E+0002
  0
LINE
  8
0
 10
 8.02553089087200E+0002
 20
 7.15589394231200E+0002
 11
 7.98096492037500E+0002
 21
 7.06719270537500E+0002
  0
LINE
  8
0
 10
 7.98096492037500E+0002
 20
 7.06719270537500E+0002
 11
 7.93656179596800E+0002
 21
 6.97833459852800E+0002
  0
LINE
  8
0
 10
 7.93656179596800E+0002
 20
 6.97833459852800E+0002
 11
 7.89235484808900E+0002
 21
 6.88928581256900E+0002
  0
LINE
  8
0
 10
 7.89235484808900E+0002
 20
 6.88928581256900E+0002
 11
 7.84837740717600E+0002
 21
 6.80001253829600E+0002
  0
LINE
  8
0
 10
 7.84837740717600E+0002
 20
 6.80001253829600E+0002
 11
 7.80466280366700E+0002
 21
 6.71048096650700E+0002
  0
LINE
  8
0
 10
 7.80466280366700E+0002
 20
 6.71048096650700E+0002
 11
 7.76124436800000E+0002
 21
 6.62065728800000E+0002
  0
LINE
  8
0
 10
 7.76124436800000E+0002
 20
 6.62065728800000E+0002
 11
 7.71815543061300E+0002
 21
 6.53050769357300E+0002
  0
LINE
  8
0
 10
 7.71815543061300E+0002
 20
 6.53050769357300E+0002
 11
 7.67542932194400E+0002
 21
 6.43999837402400E+0002
  0
LINE
  8
0
 10
 7.67542932194400E+0002
 20
 6.43999837402400E+0002
 11
 7.63309937243100E+0002
 21
 6.34909552015100E+0002
  0
LINE
  8
0
 10
 7.63309937243100E+0002
 20
 6.34909552015100E+0002
 11
 7.59119891251200E+0002
 21
 6.25776532275200E+0002
  0
LINE
  8
0
 10
 7.59119891251200E+0002
 20
 6.25776532275200E+0002
 11
 7.54976127262500E+0002
 21
 6.16597397262500E+0002
  0
LINE
  8
0
 10
 7.54976127262500E+0002
 20
 6.16597397262500E+0002
 11
 7.50881978320800E+0002
 21
 6.07368766056800E+0002
  0
LINE
  8
0
 10
 7.50881978320800E+0002
 20
 6.07368766056800E+0002
 11
 7.46840777469900E+0002
 21
 5.98087257737900E+0002
  0
LINE
  8
0
 10
 7.46840777469900E+0002
 20
 5.98087257737900E+0002
 11
 7.42855857753600E+0002
 21
 5.88749491385600E+0002
  0
LINE
  8
0
 10
 7.42855857753600E+0002
 20
 5.88749491385600E+0002
 11
 7.38930552215700E+0002
 21
 5.79352086079700E+0002
  0
LINE
  8
0
 10
 7.38930552215700E+0002
 20
 5.79352086079700E+0002
 11
 7.35068193900000E+0002
 21
 5.69891660900000E+0002
  0
LINE
  8
0
 10
 7.35068193900000E+0002
 20
 5.69891660900000E+0002
 11
 7.31272115850300E+0002
 21
 5.60364834926300E+0002
  0
LINE
  8
0
 10
 7.31272115850300E+0002
 20
 5.60364834926300E+0002
 11
 7.27545651110400E+0002
 21
 5.50768227238400E+0002
  0
LINE
  8
0
 10
 7.27545651110400E+0002
 20
 5.50768227238400E+0002
 11
 7.23892132724100E+0002
 21
 5.41098456916100E+0002
  0
LINE
  8
0
 10
 7.23892132724100E+0002
 20
 5.41098456916100E+0002
 11
 7.20314893735200E+0002
 21
 5.31352143039200E+0002
  0
LINE
  8
0
 10
 7.20314893735200E+0002
 20
 5.31352143039200E+0002
 11
 7.16817267187500E+0002
 21
 5.21525904687500E+0002
  0
LINE
  8
0
 10
 7.16817267187500E+0002
 20
 5.21525904687500E+0002
 11
 7.13402586124800E+0002
 21
 5.11616360940800E+0002
  0
LINE
  8
0
 10
 7.13402586124800E+0002
 20
 5.11616360940800E+0002
 11
 7.10074183590900E+0002
 21
 5.01620130878900E+0002
  0
LINE
  8
0
 10
 7.10074183590900E+0002
 20
 5.01620130878900E+0002
 11
 7.06835392629600E+0002
 21
 4.91533833581600E+0002
  0
LINE
  8
0
 10
 7.06835392629600E+0002
 20
 4.91533833581600E+0002
 11
 7.03689546284700E+0002
 21
 4.81354088128700E+0002
  0
LINE
  8
0
 10
 7.03689546284700E+0002
 20
 4.81354088128700E+0002
 11
 7.00639977600000E+0002
 21
 4.71077513600000E+0002
  0
LINE
  8
0
 10
 7.00639977600000E+0002
 20
 4.71077513600000E+0002
 11
 6.97690019619300E+0002
 21
 4.60700729075300E+0002
  0
LINE
  8
0
 10
 6.97690019619300E+0002
 20
 4.60700729075300E+0002
 11
 6.94843005386400E+0002
 21
 4.50220353634400E+0002
  0
LINE
  8
0
 10
 6.94843005386400E+0002
 20
 4.50220353634400E+0002
 11
 6.92102267945100E+0002
 21
 4.39633006357100E+0002
  0
LINE
  8
0
 10
 6.92102267945100E+0002
 20
 4.39633006357100E+0002
 11
 6.89471140339200E+0002
 21
 4.28935306323200E+0002
  0
LINE
  8
0
 10
 6.89471140339200E+0002
 20
 4.28935306323200E+0002
 11
 6.86952955612500E+0002
 21
 4.18123872612500E+0002
  0
LINE
  8
0
 10
 6.86952955612500E+0002
 20
 4.18123872612500E+0002
 11
 6.84551046808800E+0002
 21
 4.07195324304800E+0002
  0
LINE
  8
0
 10
 6.84551046808800E+0002
 20
 4.07195324304800E+0002
 11
 6.82268746971900E+0002
 21
 3.96146280479900E+0002
  0
LINE
  8
0
 10
 6.82268746971900E+0002
 20
 3.96146280479900E+0002
 11
 6.80109389145600E+0002
 21
 3.84973360217600E+0002
  0
LINE
  8
0
 10
 6.80109389145600E+0002
 20
 3.84973360217600E+0002
 11
 6.78076306373700E+0002
 21
 3.73673182597700E+0002
  0
LINE
  8
0
 10
 6.78076306373700E+0002
 20
 3.73673182597700E+0002
 11
 6.76172831700000E+0002
 21
 3.62242366700000E+0002
  0
LINE
  8
0
 10
 6.76172831700000E+0002
 20
 3.62242366700000E+0002
 11
 6.74402298168300E+0002
 21
 3.50677531604300E+0002
  0
LINE
  8
0
 10
 6.74402298168300E+0002
 20
 3.50677531604300E+0002
 11
 6.72768038822400E+0002
 21
 3.38975296390400E+0002
  0
LINE
  8
0
 10
 6.72768038822400E+0002
 20
 3.38975296390400E+0002
 11
 6.71273386706100E+0002
 21
 3.27132280138100E+0002
  0
LINE
  8
0
 10
 6.71273386706100E+0002
 20
 3.27132280138100E+0002
 11
 6.69921674863200E+0002
 21
 3.15145101927200E+0002
  0
LINE
  8
0
 10
 6.69921674863200E+0002
 20
 3.15145101927200E+0002
 11
 6.68716236337500E+0002
 21
 3.03010380837500E+0002
  0
LINE
  8
0
 10
 6.68716236337500E+0002
 20
 3.03010380837500E+0002
 11
 6.67660404172800E+0002
 21
 2.90724735948800E+0002
  0
LINE
  8
0
 10
 6.67660404172800E+0002
 20
 2.90724735948800E+0002
 11
 6.66757511412900E+0002
 21
 2.78284786340900E+0002
  0
LINE
  8
0
 10
 6.66757511412900E+0002
 20
 2.78284786340900E+0002
 11
 6.66010891101600E+0002
 21
 2.65687151093600E+0002
  0
LINE
  8
0
 10
 6.66010891101600E+0002
 20
 2.65687151093600E+0002
 11
 6.65423876282700E+0002
 21
 2.52928449286700E+0002
  0
LINE
  8
0
 10
 6.65423876282700E+0002
 20
 2.52928449286700E+0002
 11
 6.64999800000000E+0002
 21
 2.40005300000000E+0002
  0
LINE
  8
0
 10
 6.64999800000000E+0002
 20
 2.40005300000000E+0002
 11
 6.65000000000000E+0002
 21
 1.55000000000000E+0002
  0
LINE
  8
0
 10
 6.65000000000000E+0002
 20
 1.55000000000000E+0002
 11
 7.25000000000000E+0002
 21
 1.55000000000000E+0002
  0
LINE
  8
0
 10
 7.25000000000000E+0002
 20
 1.55000000000000E+0002
 11
 7.25000000000000E+0002
 21
 2.40005300000000E+0002
  0
LINE
  8
0
 10
 7.25000000000000E+0002
 20
 2.40005300000000E+0002
 11
 7.25424023743900E+0002
 21
 2.52928449294400E+0002
  0
LINE
  8
0
 10
 7.25424023743900E+0002
 20
 2.52928449294400E+0002
 11
 7.26010988911200E+0002
 21
 2.65687151155200E+0002
  0
LINE
  8
0
 10
 7.26010988911200E+0002
 20
 2.65687151155200E+0002
 11
 7.26757562405300E+0002
 21
 2.78284786548800E+0002
  0
LINE
  8
0
 10
 7.26757562405300E+0002
 20
 2.78284786548800E+0002
 11
 7.27660411129600E+0002
 21
 2.90724736441600E+0002
  0
LINE
  8
0
 10
 7.27660411129600E+0002
 20
 2.90724736441600E+0002
 11
 7.28716201987500E+0002
 21
 3.03010381800000E+0002
  0
LINE
  8
0
 10
 7.28716201987500E+0002
 20
 3.03010381800000E+0002
 11
 7.29921601882400E+0002
 21
 3.15145103590400E+0002
  0
LINE
  8
0
 10
 7.29921601882400E+0002
 20
 3.15145103590400E+0002
 11
 7.31273277717700E+0002
 21
 3.27132282779200E+0002
  0
LINE
  8
0
 10
 7.31273277717700E+0002
 20
 3.27132282779200E+0002
 11
 7.32767896396800E+0002
 21
 3.38975300332800E+0002
  0
LINE
  8
0
 10
 7.32767896396800E+0002
 20
 3.38975300332800E+0002
 11
 7.34402124823100E+0002
 21
 3.50677537217600E+0002
  0
LINE
  8
0
 10
 7.34402124823100E+0002
 20
 3.50677537217600E+0002
 11
 7.36172629900000E+0002
 21
 3.62242374400000E+0002
  0
LINE
  8
0
 10
 7.36172629900000E+0002
 20
 3.62242374400000E+0002
 11
 7.38076078530900E+0002
 21
 3.73673192846400E+0002
  0
LINE
  8
0
 10
 7.38076078530900E+0002
 20
 3.73673192846400E+0002
 11
 7.40109137619200E+0002
 21
 3.84973373523200E+0002
  0
LINE
  8
0
 10
 7.40109137619200E+0002
 20
 3.84973373523200E+0002
 11
 7.42268474068300E+0002
 21
 3.96146297396800E+0002
  0
LINE
  8
0
 10
 7.42268474068300E+0002
 20
 3.96146297396800E+0002
 11
 7.44550754781600E+0002
 21
 4.07195345433600E+0002
  0
LINE
  8
0
 10
 7.44550754781600E+0002
 20
 4.07195345433600E+0002
 11
 7.46952646662500E+0002
 21
 4.18123898600000E+0002
  0
LINE
  8
0
 10
 7.46952646662500E+0002
 20
 4.18123898600000E+0002
 11
 7.49470816614400E+0002
 21
 4.28935337862400E+0002
  0
LINE
  8
0
 10
 7.49470816614400E+0002
 20
 4.28935337862400E+0002
 11
 7.52101931540700E+0002
 21
 4.39633044187200E+0002
  0
LINE
  8
0
 10
 7.52101931540700E+0002
 20
 4.39633044187200E+0002
 11
 7.54842658344800E+0002
 21
 4.50220398540800E+0002
  0
LINE
  8
0
 10
 7.54842658344800E+0002
 20
 4.50220398540800E+0002
 11
 7.57689663930100E+0002
 21
 4.60700781889600E+0002
  0
LINE
  8
0
 10
 7.57689663930100E+0002
 20
 4.60700781889600E+0002
 11
 7.60639615200000E+0002
 21
 4.71077575200000E+0002
  0
LINE
  8
0
 10
 7.60639615200000E+0002
 20
 4.71077575200000E+0002
 11
 7.63689179057900E+0002
 21
 4.81354159438400E+0002
  0
LINE
  8
0
 10
 7.63689179057900E+0002
 20
 4.81354159438400E+0002
 11
 7.66835022407200E+0002
 21
 4.91533915571200E+0002
  0
LINE
  8
0
 10
 7.66835022407200E+0002
 20
 4.91533915571200E+0002
 11
 7.70073812151300E+0002
 21
 5.01620224564800E+0002
  0
LINE
  8
0
 10
 7.70073812151300E+0002
 20
 5.01620224564800E+0002
 11
 7.73402215193600E+0002
 21
 5.11616467385600E+0002
  0
LINE
  8
0
 10
 7.73402215193600E+0002
 20
 5.11616467385600E+0002
 11
 7.76816898437500E+0002
 21
 5.21526025000000E+0002
  0
LINE
  8
0
 10
 7.76816898437500E+0002
 20
 5.21526025000000E+0002
 11
 7.80314528786400E+0002
 21
 5.31352278374400E+0002
  0
LINE
  8
0
 10
 7.80314528786400E+0002
 20
 5.31352278374400E+0002
 11
 7.83891773143700E+0002
 21
 5.41098608475200E+0002
  0
LINE
  8
0
 10
 7.83891773143700E+0002
 20
 5.41098608475200E+0002
 11
 7.87545298412800E+0002
 21
 5.50768396268800E+0002
  0
LINE
  8
0
 10
 7.87545298412800E+0002
 20
 5.50768396268800E+0002
 11
 7.91271771497100E+0002
 21
 5.60365022721600E+0002
  0
LINE
  8
0
 10
 7.91271771497100E+0002
 20
 5.60365022721600E+0002
 11
 7.95067859300000E+0002
 21
 5.69891868800000E+0002
  0
LINE
  8
0
 10
 7.95067859300000E+0002
 20
 5.69891868800000E+0002
 11
 7.98930228724900E+0002
 21
 5.79352315470400E+0002
  0
LINE
  8
0
 10
 7.98930228724900E+0002
 20
 5.79352315470400E+0002
 11
 8.02855546675200E+0002
 21
 5.88749743699200E+0002
  0
LINE
  8
0
 10
 8.02855546675200E+0002
 20
 5.88749743699200E+0002
 11
 8.06840480054300E+0002
 21
 5.98087534452800E+0002
  0
LINE
  8
0
 10
 8.06840480054300E+0002
 20
 5.98087534452800E+0002
 11
 8.10881695765600E+0002
 21
 6.07369068697600E+0002
  0
LINE
  8
0
 10
 8.10881695765600E+0002
 20
 6.07369068697600E+0002
 11
 8.14975860712500E+0002
 21
 6.16597727400000E+0002
  0
LINE
  8
0
 10
 8.14975860712500E+0002
 20
 6.16597727400000E+0002
 11
 8.19119641798400E+0002
 21
 6.25776891526400E+0002
  0
LINE
  8
0
 10
 8.19119641798400E+0002
 20
 6.25776891526400E+0002
 11
 8.23309705926700E+0002
 21
 6.34909942043200E+0002
  0
LINE
  8
0
 10
 8.23309705926700E+0002
 20
 6.34909942043200E+0002
 11
 8.27542720000800E+0002
 21
 6.44000259916800E+0002
  0
LINE
  8
0
 10
 8.27542720000800E+0002
 20
 6.44000259916800E+0002
 11
 8.31815350924100E+0002
 21
 6.53051226113600E+0002
  0
LINE
  8
0
 10
 8.31815350924100E+0002
 20
 6.53051226113600E+0002
 11
 8.36124265600000E+0002
 21
 6.62066221600000E+0002
  0
LINE
  8
0
 10
 8.36124265600000E+0002
 20
 6.62066221600000E+0002
 11
 8.40466130931900E+0002
 21
 6.71048627342400E+0002
  0
LINE
  8
0
 10
 8.40466130931900E+0002
 20
 6.71048627342400E+0002
 11
 8.44837613823200E+0002
 21
 6.80001824307200E+0002
  0
LINE
  8
0
 10
 8.44837613823200E+0002
 20
 6.80001824307200E+0002
 11
 8.49235381177300E+0002
 21
 6.88929193460800E+0002
  0
LINE
  8
0
 10
 8.49235381177300E+0002
 20
 6.88929193460800E+0002
 11
 8.53656099897600E+0002
 21
 6.97834115769600E+0002
  0
LINE
  8
0
 10
 8.53656099897600E+0002
 20
 6.97834115769600E+0002
 11
 8.58096436887500E+0002
 21
 7.06719972200000E+0002
  0
LINE
  8
0
 10
 8.58096436887500E+0002
 20
 7.06719972200000E+0002
 11
 8.62553059050400E+0002
 21
 7.15590143718400E+0002
  0
LINE
  8
0
 10
 8.62553059050400E+0002
 20
 7.15590143718400E+0002
 11
 8.67022633289700E+0002
 21
 7.24448011291200E+0002
  0
LINE
  8
0
 10
 8.67022633289700E+0002
 20
 7.24448011291200E+0002
 11
 8.71501826508800E+0002
 21
 7.33296955884800E+0002
  0
LINE
  8
0
 10
 8.71501826508800E+0002
 20
 7.33296955884800E+0002
 11
 8.75987305611100E+0002
 21
 7.42140358465600E+0002
  0
LINE
  8
0
 10
 8.75987305611100E+0002
 20
 7.42140358465600E+0002
 11
 8.80475737500000E+0002
 21
 7.50981600000000E+0002
  0
LINE
  8
0
 10
 8.80475737500000E+0002
 20
 7.50981600000000E+0002
 11
 8.84963789078900E+0002
 21
 7.59824061454400E+0002
  0
LINE
  8
0
 10
 8.84963789078900E+0002
 20
 7.59824061454400E+0002
 11
 8.89448127251200E+0002
 21
 7.68671123795200E+0002
  0
LINE
  8
0
 10
 8.89448127251200E+0002
 20
 7.68671123795200E+0002
 11
 8.93925418920300E+0002
 21
 7.77526167988800E+0002
  0
LINE
  8
0
 10
 8.93925418920300E+0002
 20
 7.77526167988800E+0002
 11
 8.98392330989600E+0002
 21
 7.86392575001600E+0002
  0
LINE
  8
0
 10
 8.98392330989600E+0002
 20
 7.86392575001600E+0002
 11
 9.02845530362500E+0002
 21
 7.95273725800000E+0002
  0
LINE
  8
0
 10
 9.02845530362500E+0002
 20
 7.95273725800000E+0002
 11
 9.07281683942400E+0002
 21
 8.04173001350400E+0002
  0
LINE
  8
0
 10
 9.07281683942400E+0002
 20
 8.04173001350400E+0002
 11
 9.11697458632700E+0002
 21
 8.13093782619200E+0002
  0
LINE
  8
0
 10
 9.11697458632700E+0002
 20
 8.13093782619200E+0002
 11
 9.16089521336800E+0002
 21
 8.22039450572800E+0002
  0
LINE
  8
0
 10
 9.16089521336800E+0002
 20
 8.22039450572800E+0002
 11
 9.20454538958100E+0002
 21
 8.31013386177600E+0002
  0
LINE
  8
0
 10
 9.20454538958100E+0002
 20
 8.31013386177600E+0002
 11
 9.24789178400000E+0002
 21
 8.40018970400000E+0002
  0
LINE
  8
0
 10
 9.24789178400000E+0002
 20
 8.40018970400000E+0002
 11
 9.29090106565900E+0002
 21
 8.49059584206400E+0002
  0
LINE
  8
0
 10
 9.29090106565900E+0002
 20
 8.49059584206400E+0002
 11
 9.33353990359200E+0002
 21
 8.58138608563200E+0002
  0
LINE
  8
0
 10
 9.33353990359200E+0002
 20
 8.58138608563200E+0002
 11
 9.37577496683300E+0002
 21
 8.67259424436800E+0002
  0
LINE
  8
0
 10
 9.37577496683300E+0002
 20
 8.67259424436800E+0002
 11
 9.41757292441600E+0002
 21
 8.76425412793600E+0002
  0
LINE
  8
0
 10
 9.41757292441600E+0002
 20
 8.76425412793600E+0002
 11
 9.45890044537500E+0002
 21
 8.85639954600000E+0002
  0
LINE
  8
0
 10
 9.45890044537500E+0002
 20
 8.85639954600000E+0002
 11
 9.49972419874400E+0002
 21
 8.94906430822400E+0002
  0
LINE
  8
0
 10
 9.49972419874400E+0002
 20
 8.94906430822400E+0002
 11
 9.54001085355700E+0002
 21
 9.04228222427200E+0002
  0
LINE
  8
0
 10
 9.54001085355700E+0002
 20
 9.04228222427200E+0002
 11
 9.57972707884800E+0002
 21
 9.13608710380800E+0002
  0
LINE
  8
0
 10
 9.57972707884800E+0002
 20
 9.13608710380800E+0002
 11
 9.61883954365100E+0002
 21
 9.23051275649600E+0002
  0
LINE
  8
0
 10
 9.61883954365100E+0002
 20
 9.23051275649600E+0002
 11
 9.65731491700000E+0002
 21
 9.32559299200000E+0002
  0
LINE
  8
0
 10
 9.65731491700000E+0002
 20
 9.32559299200000E+0002
 11
 9.69511986792900E+0002
 21
 9.42136161998400E+0002
  0
LINE
  8
0
 10
 9.69511986792900E+0002
 20
 9.42136161998400E+0002
 11
 9.73222106547200E+0002
 21
 9.51785245011200E+0002
  0
LINE
  8
0
 10
 9.73222106547200E+0002
 20
 9.51785245011200E+0002
 11
 9.76858517866300E+0002
 21
 9.61509929204800E+0002
  0
LINE
  8
0
 10
 9.76858517866300E+0002
 20
 9.61509929204800E+0002
 11
 9.80417887653600E+0002
 21
 9.71313595545600E+0002
  0
LINE
  8
0
 10
 9.80417887653600E+0002
 20
 9.71313595545600E+0002
 11
 9.83896882812500E+0002
 21
 9.81199625000000E+0002
  0
LINE
  8
0
 10
 9.83896882812500E+0002
 20
 9.81199625000000E+0002
 11
 9.87292170246400E+0002
 21
 9.91171398534400E+0002
  0
LINE
  8
0
 10
 9.87292170246400E+0002
 20
 9.91171398534400E+0002
 11
 9.90600416858700E+0002
 21
 1.00123229711520E+0003
  0
LINE
  8
0
 10
 9.90600416858700E+0002
 20
 1.00123229711520E+0003
 11
 9.93818289552800E+0002
 21
 1.01138570170880E+0003
  0
LINE
  8
0
 10
 9.93818289552800E+0002
 20
 1.01138570170880E+0003
 11
 9.96942455232100E+0002
 21
 1.02163499328160E+0003
  0
LINE
  8
0
 10
 9.96942455232100E+0002
 20
 1.02163499328160E+0003
 11
 9.99969580800000E+0002
 21
 1.03198355280000E+0003
  0
LINE
  8
0
 10
 9.99969580800000E+0002
 20
 1.03198355280000E+0003
 11
 1.00289633315990E+0003
 21
 1.04243476123040E+0003
  0
LINE
  8
0
 10
 1.00289633315990E+0003
 20
 1.04243476123040E+0003
 11
 1.00571937921520E+0003
 21
 1.05299199953920E+0003
  0
LINE
  8
0
 10
 1.00571937921520E+0003
 20
 1.05299199953920E+0003
 11
 1.00843538586930E+0003
 21
 1.06365864869280E+0003
  0
LINE
  8
0
 10
 1.00843538586930E+0003
 20
 1.06365864869280E+0003
 11
 1.01104102002560E+0003
 21
 1.07443808965760E+0003
  0
LINE
  8
0
 10
 1.01104102002560E+0003
 20
 1.07443808965760E+0003
 11
 1.01353294858750E+0003
 21
 1.08533370340000E+0003
  0
LINE
  8
0
 10
 1.01353294858750E+0003
 20
 1.08533370340000E+0003
 11
 1.01590783845840E+0003
 21
 1.09634887088640E+0003
  0
LINE
  8
0
 10
 1.01590783845840E+0003
 20
 1.09634887088640E+0003
 11
 1.01816235654170E+0003
 21
 1.10748697308320E+0003
  0
LINE
  8
0
 10
 1.01816235654170E+0003
 20
 1.10748697308320E+0003
 11
 1.02029316974080E+0003
 21
 1.11875139095680E+0003
  0
LINE
  8
0
 10
 1.02029316974080E+0003
 20
 1.11875139095680E+0003
 11
 1.02229694495910E+0003
 21
 1.13014550547360E+0003
  0
LINE
  8
0
 10
 1.02229694495910E+0003
 20
 1.13014550547360E+0003
 11
 1.02417034910000E+0003
 21
 1.14167269760000E+0003
  0
LINE
  8
0
 10
 1.02417034910000E+0003
 20
 1.14167269760000E+0003
 11
 1.02591004906690E+0003
 21
 1.15333634830240E+0003
  0
LINE
  8
0
 10
 1.02591004906690E+0003
 20
 1.15333634830240E+0003
 11
 1.02751271176320E+0003
 21
 1.16513983854720E+0003
  0
LINE
  8
0
 10
 1.02751271176320E+0003
 20
 1.16513983854720E+0003
 11
 1.02897500409230E+0003
 21
 1.17708654930080E+0003
  0
LINE
  8
0
 10
 1.02897500409230E+0003
 20
 1.17708654930080E+0003
 11
 1.03029359295760E+0003
 21
 1.18917986152960E+0003
  0
LINE
  8
0
 10
 1.03029359295760E+0003
 20
 1.18917986152960E+0003
 11
 1.03146514526250E+0003
 21
 1.20142315620000E+0003
  0
LINE
  8
0
 10
 1.03146514526250E+0003
 20
 1.20142315620000E+0003
 11
 1.03248632791040E+0003
 21
 1.21381981427840E+0003
  0
LINE
  8
0
 10
 1.03248632791040E+0003
 20
 1.21381981427840E+0003
 11
 1.03335380780470E+0003
 21
 1.22637321673120E+0003
  0
LINE
  8
0
 10
 1.03335380780470E+0003
 20
 1.22637321673120E+0003
 11
 1.03406425184880E+0003
 21
 1.23908674452480E+0003
  0
LINE
  8
0
 10
 1.03406425184880E+0003
 20
 1.23908674452480E+0003
 11
 1.03461432694610E+0003
 21
 1.25196377862560E+0003
  0
LINE
  8
0
 10
 1.03461432694610E+0003
 20
 1.25196377862560E+0003
 11
 1.03500070000000E+0003
 21
 1.26500770000000E+0003
  0
LINE
  8
0
 10
 1.03500070000000E+0003
 20
 1.26500770000000E+0003
 11
 1.03500000000000E+0003
 21
 1.30700000000000E+0003
  0
LINE
  8
0
 10
 1.03500000000000E+0003
 20
 1.30700000000000E+0003
 11
 1.08000050944639E+0003
 21
 1.29538091843480E+0003
  0
ARC
  8
0
 10
 1.08300000000000E+0003
 20
 1.30700000000000E+0003
 40
 1.20000000000000E+0001
 50
 2.55525000000000E+0002
 51
 3.93805000000000E+0002
  0
LINE
  8
0
 10
 1.09297123104192E+0003
 20
 1.31367641756549E+0003
 11
 1.00500000000000E+0003
 21
 1.44500000000000E+0003
  0
LINE
  8
0
 10
 1.00500000000000E+0003
 20
 1.44500000000000E+0003
 11
 9.17028768958083E+0002
 21
 1.31367641756549E+0003
  0
ARC
  8
0
 10
 9.27000000000000E+0002
 20
 1.30700000000000E+0003
 40
 1.20000000000000E+0001
 50
 1.46195000000000E+0002
 51
 2.84475000000000E+0002
  0
LINE
  8
0
 10
 9.29999490553610E+0002
 20
 1.29538091843480E+0003
 11
 9.75000000000000E+0002
 21
 1.30700000000000E+0003
  0
LINE
  8
0
 10
 9.75000000000000E+0002
 20
 1.30700000000000E+0003
 11
 9.75000000000000E+0002
 21
 1.26500000000000E+0003
  0
LINE
  8
0
 10
 1.18500000000000E+0003
 20
 1.26500000000000E+0003
 11
 1.18461360410730E+0003
 21
 1.25195630732330E+0003
  0
LINE
  8
0
 10
 1.18461360410730E+0003
 20
 1.25195630732330E+0003
 11
 1.18406350845840E+0003
 21
 1.23907949734640E+0003
  0
LINE
  8
0
 10
 1.18406350845840E+0003
 20
 1.23907949734640E+0003
 11
 1.18335304609710E+0003
 21
 1.22636618914910E+0003
  0
LINE
  8
0
 10
 1.18335304609710E+0003
 20
 1.22636618914910E+0003
 11
 1.18248555006720E+0003
 21
 1.21381300181120E+0003
  0
LINE
  8
0
 10
 1.18248555006720E+0003
 20
 1.21381300181120E+0003
 11
 1.18146435341250E+0003
 21
 1.20141655441250E+0003
  0
LINE
  8
0
 10
 1.18146435341250E+0003
 20
 1.20141655441250E+0003
 11
 1.18029278917680E+0003
 21
 1.18917346603280E+0003
  0
LINE
  8
0
 10
 1.18029278917680E+0003
 20
 1.18917346603280E+0003
 11
 1.17897419040390E+0003
 21
 1.17708035575190E+0003
  0
LINE
  8
0
 10
 1.17897419040390E+0003
 20
 1.17708035575190E+0003
 11
 1.17751189013760E+0003
 21
 1.16513384264960E+0003
  0
LINE
  8
0
 10
 1.17751189013760E+0003
 20
 1.16513384264960E+0003
 11
 1.17590922142170E+0003
 21
 1.15333054580570E+0003
  0
LINE
  8
0
 10
 1.17590922142170E+0003
 20
 1.15333054580570E+0003
 11
 1.17416951730000E+0003
 21
 1.14166708430000E+0003
  0
LINE
  8
0
 10
 1.17416951730000E+0003
 20
 1.14166708430000E+0003
 11
 1.17229611081630E+0003
 21
 1.13014007721230E+0003
  0
LINE
  8
0
 10
 1.17229611081630E+0003
 20
 1.13014007721230E+0003
 11
 1.17029233501440E+0003
 21
 1.11874614362240E+0003
  0
LINE
  8
0
 10
 1.17029233501440E+0003
 20
 1.11874614362240E+0003
 11
 1.16816152293810E+0003
 21
 1.10748190261010E+0003
  0
LINE
  8
0
 10
 1.16816152293810E+0003
 20
 1.10748190261010E+0003
 11
 1.16590700763120E+0003
 21
 1.09634397325520E+0003
  0
LINE
  8
0
 10
 1.16590700763120E+0003
 20
 1.09634397325520E+0003
 11
 1.16353212213750E+0003
 21
 1.08532897463750E+0003
  0
LINE
  8
0
 10
 1.16353212213750E+0003
 20
 1.08532897463750E+0003
 11
 1.16104019950080E+0003
 21
 1.07443352583680E+0003
  0
LINE
  8
0
 10
 1.16104019950080E+0003
 20
 1.07443352583680E+0003
 11
 1.15843457276490E+0003
 21
 1.06365424593290E+0003
  0
LINE
  8
0
 10
 1.15843457276490E+0003
 20
 1.06365424593290E+0003
 11
 1.15571857497360E+0003
 21
 1.05298775400560E+0003
  0
LINE
  8
0
 10
 1.15571857497360E+0003
 20
 1.05298775400560E+0003
 11
 1.15289553917070E+0003
 21
 1.04243066913470E+0003
  0
LINE
  8
0
 10
 1.15289553917070E+0003
 20
 1.04243066913470E+0003
 11
 1.14996879840000E+0003
 21
 1.03197961040000E+0003
  0
LINE
  8
0
 10
 1.14996879840000E+0003
 20
 1.03197961040000E+0003
 11
 1.14694168570530E+0003
 21
 1.02163119688130E+0003
  0
LINE
  8
0
 10
 1.14694168570530E+0003
 20
 1.02163119688130E+0003
 11
 1.14381753413040E+0003
 21
 1.01138204765840E+0003
  0
LINE
  8
0
 10
 1.14381753413040E+0003
 20
 1.01138204765840E+0003
 11
 1.14059967671910E+0003
 21
 1.00122878181110E+0003
  0
LINE
  8
0
 10
 1.14059967671910E+0003
 20
 1.00122878181110E+0003
 11
 1.13729144651520E+0003
 21
 9.91168018419200E+0002
  0
LINE
  8
0
 10
 1.13729144651520E+0003
 20
 9.91168018419200E+0002
 11
 1.13389617656250E+0003
 21
 9.81196376562500E+0002
  0
LINE
  8
0
 10
 1.13389617656250E+0003
 20
 9.81196376562500E+0002
 11
 1.13041719990480E+0003
 21
 9.71310475320800E+0002
  0
LINE
  8
0
 10
 1.13041719990480E+0003
 20
 9.71310475320800E+0002
 11
 1.12685784958590E+0003
 21
 9.61506933773900E+0002
  0
LINE
  8
0
 10
 1.12685784958590E+0003
 20
 9.61506933773900E+0002
 11
 1.12322145864960E+0003
 21
 9.51782371001600E+0002
  0
LINE
  8
0
 10
 1.12322145864960E+0003
 20
 9.51782371001600E+0002
 11
 1.11951136013970E+0003
 21
 9.42133406083700E+0002
  0
LINE
  8
0
 10
 1.11951136013970E+0003
 20
 9.42133406083700E+0002
 11
 1.11573088710000E+0003
 21
 9.32556658100000E+0002
  0
LINE
  8
0
 10
 1.11573088710000E+0003
 20
 9.32556658100000E+0002
 11
 1.11188337257430E+0003
 21
 9.23048746130300E+0002
  0
LINE
  8
0
 10
 1.11188337257430E+0003
 20
 9.23048746130300E+0002
 11
 1.10797214960640E+0003
 21
 9.13606289254400E+0002
  0
LINE
  8
0
 10
 1.10797214960640E+0003
 20
 9.13606289254400E+0002
 11
 1.10400055124010E+0003
 21
 9.04225906552100E+0002
  0
LINE
  8
0
 10
 1.10400055124010E+0003
 20
 9.04225906552100E+0002
 11
 1.09997191051920E+0003
 21
 8.94904217103200E+0002
  0
LINE
  8
0
 10
 1.09997191051920E+0003
 20
 8.94904217103200E+0002
 11
 1.09588956048750E+0003
 21
 8.85637839987500E+0002
  0
LINE
  8
0
 10
 1.09588956048750E+0003
 20
 8.85637839987500E+0002
 11
 1.09175683418880E+0003
 21
 8.76423394284800E+0002
  0
LINE
  8
0
 10
 1.09175683418880E+0003
 20
 8.76423394284800E+0002
 11
 1.08757706466690E+0003
 21
 8.67257499074900E+0002
  0
LINE
  8
0
 10
 1.08757706466690E+0003
 20
 8.67257499074900E+0002
 11
 1.08335358496560E+0003
 21
 8.58136773437600E+0002
  0
LINE
  8
0
 10
 1.08335358496560E+0003
 20
 8.58136773437600E+0002
 11
 1.07908972812870E+0003
 21
 8.49057836452700E+0002
  0
LINE
  8
0
 10
 1.07908972812870E+0003
 20
 8.49057836452700E+0002
 11
 1.07478882720000E+0003
 21
 8.40017307200000E+0002
  0
LINE
  8
0
 10
 1.07478882720000E+0003
 20
 8.40017307200000E+0002
 11
 1.07045421522330E+0003
 21
 8.31011804759300E+0002
  0
LINE
  8
0
 10
 1.07045421522330E+0003
 20
 8.31011804759300E+0002
 11
 1.06608922524240E+0003
 21
 8.22037948210400E+0002
  0
LINE
  8
0
 10
 1.06608922524240E+0003
 20
 8.22037948210400E+0002
 11
 1.06169719030110E+0003
 21
 8.13092356633100E+0002
  0
LINE
  8
0
 10
 1.06169719030110E+0003
 20
 8.13092356633100E+0002
 11
 1.05728144344320E+0003
 21
 8.04171649107200E+0002
  0
LINE
  8
0
 10
 1.05728144344320E+0003
 20
 8.04171649107200E+0002
 11
 1.05284531771250E+0003
 21
 7.95272444712500E+0002
  0
LINE
  8
0
 10
 1.05284531771250E+0003
 20
 7.95272444712500E+0002
 11
 1.04839214615280E+0003
 21
 7.86391362528800E+0002
  0
LINE
  8
0
 10
 1.04839214615280E+0003
 20
 7.86391362528800E+0002
 11
 1.04392526180790E+0003
 21
 7.77525021635900E+0002
  0
LINE
  8
0
 10
 1.04392526180790E+0003
 20
 7.77525021635900E+0002
 11
 1.03944799772160E+0003
 21
 7.68670041113600E+0002
  0
LINE
  8
0
 10
 1.03944799772160E+0003
 20
 7.68670041113600E+0002
 11
 1.03496368693770E+0003
 21
 7.59823040041700E+0002
  0
LINE
  8
0
 10
 1.03496368693770E+0003
 20
 7.59823040041700E+0002
 11
 1.03047566250000E+0003
 21
 7.50980637500000E+0002
  0
LINE
  8
0
 10
 1.03047566250000E+0003
 20
 7.50980637500000E+0002
 11
 1.02598725745230E+0003
 21
 7.42139452568300E+0002
  0
LINE
  8
0
 10
 1.02598725745230E+0003
 20
 7.42139452568300E+0002
 11
 1.02150180483840E+0003
 21
 7.33296104326400E+0002
  0
LINE
  8
0
 10
 1.02150180483840E+0003
 20
 7.33296104326400E+0002
 11
 1.01702263770210E+0003
 21
 7.24447211854100E+0002
  0
LINE
  8
0
 10
 1.01702263770210E+0003
 20
 7.24447211854100E+0002
 11
 1.01255308908720E+0003
 21
 7.15589394231200E+0002
  0
LINE
  8
0
 10
 1.01255308908720E+0003
 20
 7.15589394231200E+0002
 11
 1.00809649203750E+0003
 21
 7.06719270537500E+0002
  0
LINE
  8
0
 10
 1.00809649203750E+0003
 20
 7.06719270537500E+0002
 11
 1.00365617959680E+0003
 21
 6.97833459852800E+0002
  0
LINE
  8
0
 10
 1.00365617959680E+0003
 20
 6.97833459852800E+0002
 11
 9.99235484808900E+0002
 21
 6.88928581256900E+0002
  0
LINE
  8
0
 10
 9.99235484808900E+0002
 20
 6.88928581256900E+0002
 11
 9.94837740717600E+0002
 21
 6.80001253829600E+0002
  0
LINE
  8
0
 10
 9.94837740717600E+0002
 20
 6.80001253829600E+0002
 11
 9.90466280366700E+0002
 21
 6.71048096650700E+0002
  0
LINE
  8
0
 10
 9.90466280366700E+0002
 20
 6.71048096650700E+0002
 11
 9.86124436800000E+0002
 21
 6.62065728800000E+0002
  0
LINE
  8
0
 10
 9.86124436800000E+0002
 20
 6.62065728800000E+0002
 11
 9.81815543061300E+0002
 21
 6.53050769357300E+0002
  0
LINE
  8
0
 10
 9.81815543061300E+0002
 20
 6.53050769357300E+0002
 11
 9.77542932194400E+0002
 21
 6.43999837402400E+0002
  0
LINE
  8
0
 10
 9.77542932194400E+0002
 20
 6.43999837402400E+0002
 11
 9.73309937243100E+0002
 21
 6.34909552015100E+0002
  0
LINE
  8
0
 10
 9.73309937243100E+0002
 20
 6.34909552015100E+0002
 11
 9.69119891251200E+0002
 21
 6.25776532275200E+0002
  0
LINE
  8
0
 10
 9.69119891251200E+0002
 20
 6.25776532275200E+0002
 11
 9.64976127262500E+0002
 21
 6.16597397262500E+0002
  0
LINE
  8
0
 10
 9.64976127262500E+0002
 20
 6.16597397262500E+0002
 11
 9.60881978320800E+0002
 21
 6.07368766056800E+0002
  0
LINE
  8
0
 10
 9.60881978320800E+0002
 20
 6.07368766056800E+0002
 11
 9.56840777469900E+0002
 21
 5.98087257737900E+0002
  0
LINE
  8
0
 10
 9.56840777469900E+0002
 20
 5.98087257737900E+0002
 11
 9.52855857753600E+0002
 21
 5.88749491385600E+0002
  0
LINE
  8
0
 10
 9.52855857753600E+0002
 20
 5.88749491385600E+0002
 11
 9.48930552215700E+0002
 21
 5.79352086079700E+0002
  0
LINE
  8
0
 10
 9.48930552215700E+0002
 20
 5.79352086079700E+0002
 11
 9.45068193900000E+0002
 21
 5.69891660900000E+0002
  0
LINE
  8
0
 10
 9.45068193900000E+0002
 20
 5.69891660900000E+0002
 11
 9.41272115850300E+0002
 21
 5.60364834926300E+0002
  0
LINE
  8
0
 10
 9.41272115850300E+0002
 20
 5.60364834926300E+0002
 11
 9.37545651110400E+0002
 21
 5.50768227238400E+0002
  0
LINE
  8
0
 10
 9.37545651110400E+0002
 20
 5.50768227238400E+0002
 11
 9.33892132724100E+0002
 21
 5.41098456916100E+0002
  0
LINE
  8
0
 10
 9.33892132724100E+0002
 20
 5.41098456916100E+0002
 11
 9.30314893735200E+0002
 21
 5.31352143039200E+0002
  0
LINE
  8
0
 10
 9.30314893735200E+0002
 20
 5.31352143039200E+0002
 11
 9.26817267187500E+0002
 21
 5.21525904687500E+0002
  0
LINE
  8
0
 10
 9.26817267187500E+0002
 20
 5.21525904687500E+0002
 11
 9.23402586124800E+0002
 21
 5.11616360940800E+0002
  0
LINE
  8
0
 10
 9.23402586124800E+0002
 20
 5.11616360940800E+0002
 11
 9.20074183590900E+0002
 21
 5.01620130878900E+0002
  0
LINE
  8
0
 10
 9.20074183590900E+0002
 20
 5.01620130878900E+0002
 11
 9.16835392629600E+0002
 21
 4.91533833581600E+0002
  0
LINE
  8
0
 10
 9.16835392629600E+0002
 20
 4.91533833581600E+0002
 11
 9.13689546284700E+0002
 21
 4.81354088128700E+0002
  0
LINE
  8
0
 10
 9.13689546284700E+0002
 20
 4.81354088128700E+0002
 11
 9.10639977600000E+0002
 21
 4.71077513600000E+0002
  0
LINE
  8
0
 10
 9.10639977600000E+0002
 20
 4.71077513600000E+0002
 11
 9.07690019619300E+0002
 21
 4.60700729075300E+0002
  0
LINE
  8
0
 10
 9.07690019619300E+0002
 20
 4.60700729075300E+0002
 11
 9.04843005386400E+0002
 21
 4.50220353634400E+0002
  0
LINE
  8
0
 10
 9.04843005386400E+0002
 20
 4.50220353634400E+0002
 11
 9.02102267945100E+0002
 21
 4.39633006357100E+0002
  0
LINE
  8
0
 10
 9.02102267945100E+0002
 20
 4.39633006357100E+0002
 11
 8.99471140339200E+0002
 21
 4.28935306323200E+0002
  0
LINE
  8
0
 10
 8.99471140339200E+0002
 20
 4.28935306323200E+0002
 11
 8.96952955612500E+0002
 21
 4.18123872612500E+0002
  0
LINE
  8
0
 10
 8.96952955612500E+0002
 20
 4.18123872612500E+0002
 11
 8.94551046808800E+0002
 21
 4.07195324304800E+0002
  0
LINE
  8
0
 10
 8.94551046808800E+0002
 20
 4.07195324304800E+0002
 11
 8.92268746971900E+0002
 21
 3.96146280479900E+0002
  0
LINE
  8
0
 10
 8.92268746971900E+0002
 20
 3.96146280479900E+0002
 11
 8.90109389145600E+0002
 21
 3.84973360217600E+0002
  0
LINE
  8
0
 10
 8.90109389145600E+0002
 20
 3.84973360217600E+0002
 11
 8.88076306373700E+0002
 21
 3.73673182597700E+0002
  0
LINE
  8
0
 10
 8.88076306373700E+0002
 20
 3.73673182597700E+0002
 11
 8.86172831700000E+0002
 21
 3.62242366700000E+0002
  0
LINE
  8
0
 10
 8.86172831700000E+0002
 20
 3.62242366700000E+0002
 11
 8.84402298168300E+0002
 21
 3.50677531604300E+0002
  0
LINE
  8
0
 10
 8.84402298168300E+0002
 20
 3.50677531604300E+0002
 11
 8.82768038822400E+0002
 21
 3.38975296390400E+0002
  0
LINE
  8
0
 10
 8.82768038822400E+0002
 20
 3.38975296390400E+0002
 11
 8.81273386706100E+0002
 21
 3.27132280138100E+0002
  0
LINE
  8
0
 10
 8.81273386706100E+0002
 20
 3.27132280138100E+0002
 11
 8.79921674863200E+0002
 21
 3.15145101927200E+0002
  0
LINE
  8
0
 10
 8.79921674863200E+0002
 20
 3.15145101927200E+0002
 11
 8.78716236337500E+0002
 21
 3.03010380837500E+0002
  0
LINE
  8
0
 10
 8.78716236337500E+0002
 20
 3.03010380837500E+0002
 11
 8.77660404172800E+0002
 21
 2.90724735948800E+0002
  0
LINE
  8
0
 10
 8.77660404172800E+0002
 20
 2.90724735948800E+0002
 11
 8.76757511412900E+0002
 21
 2.78284786340900E+0002
  0
LINE
  8
0
 10
 8.76757511412900E+0002
 20
 2.78284786340900E+0002
 11
 8.76010891101600E+0002
 21
 2.65687151093600E+0002
  0
LINE
  8
0
 10
 8.76010891101600E+0002
 20
 2.65687151093600E+0002
 11
 8.75423876282700E+0002
 21
 2.52928449286700E+0002
  0
LINE
  8
0
 10
 8.75423876282700E+0002
 20
 2.52928449286700E+0002
 11
 8.74999800000000E+0002
 21
 2.40005300000000E+0002
  0
LINE
  8
0
 10
 8.74999800000000E+0002
 20
 2.40005300000000E+0002
 11
 8.75000000000000E+0002
 21
 1.55000000000000E+0002
  0
LINE
  8
0
 10
 8.75000000000000E+0002
 20
 1.55000000000000E+0002
 11
 9.35000000000000E+0002
 21
 1.55000000000000E+0002
  0
LINE
  8
0
 10
 9.35000000000000E+0002
 20
 1.55000000000000E+0002
 11
 9.35000000000000E+0002
 21
 2.40005300000000E+0002
  0
LINE
  8
0
 10
 9.35000000000000E+0002
 20
 2.40005300000000E+0002
 11
 9.35424023743900E+0002
 21
 2.52928449294400E+0002
  0
LINE
  8
0
 10
 9.35424023743900E+0002
 20
 2.52928449294400E+0002
 11
 9.36010988911200E+0002
 21
 2.65687151155200E+0002
  0
LINE
  8
0
 10
 9.36010988911200E+0002
 20
 2.65687151155200E+0002
 11
 9.36757562405300E+0002
 21
 2.78284786548800E+0002
  0
LINE
  8
0
 10
 9.36757562405300E+0002
 20
 2.78284786548800E+0002
 11
 9.37660411129600E+0002
 21
 2.90724736441600E+0002
  0
LINE
  8
0
 10
 9.37660411129600E+0002
 20
 2.90724736441600E+0002
 11
 9.38716201987500E+0002
 21
 3.03010381800000E+0002
  0
LINE
  8
0
 10
 9.38716201987500E+0002
 20
 3.03010381800000E+0002
 11
 9.39921601882400E+0002
 21
 3.15145103590400E+0002
  0
LINE
  8
0
 10
 9.39921601882400E+0002
 20
 3.15145103590400E+0002
 11
 9.41273277717700E+0002
 21
 3.27132282779200E+0002
  0
LINE
  8
0
 10
 9.41273277717700E+0002
 20
 3.27132282779200E+0002
 11
 9.42767896396800E+0002
 21
 3.38975300332800E+0002
  0
LINE
  8
0
 10
 9.42767896396800E+0002
 20
 3.38975300332800E+0002
 11
 9.44402124823100E+0002
 21
 3.50677537217600E+0002
  0
LINE
  8
0
 10
 9.44402124823100E+0002
 20
 3.50677537217600E+0002
 11
 9.46172629900000E+0002
 21
 3.62242374400000E+0002
  0
LINE
  8
0
 10
 9.46172629900000E+0002
 20
 3.62242374400000E+0002
 11
 9.48076078530900E+0002
 21
 3.73673192846400E+0002
  0
LINE
  8
0
 10
 9.48076078530900E+0002
 20
 3.73673192846400E+0002
 11
 9.50109137619200E+0002
 21
 3.84973373523200E+0002
  0
LINE
  8
0
 10
 9.50109137619200E+0002
 20
 3.84973373523200E+0002
 11
 9.52268474068300E+0002
 21
 3.96146297396800E+0002
  0
LINE
  8
0
 10
 9.52268474068300E+0002
 20
 3.96146297396800E+0002
 11
 9.54550754781600E+0002
 21
 4.07195345433600E+0002
  0
LINE
  8
0
 10
 9.54550754781600E+0002
 20
 4.07195345433600E+0002
 11
 9.56952646662500E+0002
 21
 4.18123898600000E+0002
  0
LINE
  8
0
 10
 9.56952646662500E+0002
 20
 4.18123898600000E+0002
 11
 9.59470816614400E+0002
 21
 4.28935337862400E+0002
  0
LINE
  8
0
 10
 9.59470816614400E+0002
 20
 4.28935337862400E+0002
 11
 9.62101931540700E+0002
 21
 4.39633044187200E+0002
  0
LINE
  8
0
 10
 9.62101931540700E+0002
 20
 4.39633044187200E+0002
 11
 9.64842658344800E+0002
 21
 4.50220398540800E+0002
  0
LINE
  8
0
 10
 9.64842658344800E+0002
 20
 4.50220398540800E+0002
 11
 9.67689663930100E+0002
 21
 4.60700781889600E+0002
  0
LINE
  8
0
 10
 9.67689663930100E+0002
 20
 4.60700781889600E+0002
 11
 9.70639615200000E+0002
 21
 4.71077575200000E+0002
  0
LINE
  8
0
 10
 9.70639615200000E+0002
 20
 4.71077575200000E+0002
 11
 9.73689179057900E+0002
 21
 4.81354159438400E+0002
  0
LINE
  8
0
 10
 9.73689179057900E+0002
 20
 4.81354159438400E+0002
 11
 9.76835022407200E+0002
 21
 4.91533915571200E+0002
  0
LINE
  8
0
 10
 9.76835022407200E+0002
 20
 4.91533915571200E+0002
 11
 9.80073812151300E+0002
 21
 5.01620224564800E+0002
  0
LINE
  8
0
 10
 9.80073812151300E+0002
 20
 5.01620224564800E+0002
 11
 9.83402215193600E+0002
 21
 5.11616467385600E+0002
  0
LINE
  8
0
 10
 9.83402215193600E+0002
 20
 5.11616467385600E+0002
 11
 9.86816898437500E+0002
 21
 5.21526025000000E+0002
  0
LINE
  8
0
 10
 9.86816898437500E+0002
 20
 5.21526025000000E+0002
 11
 9.90314528786400E+0002
 21
 5.31352278374400E+0002
  0
LINE
  8
0
 10
 9.90314528786400E+0002
 20
 5.31352278374400E+0002
 11
 9.93891773143700E+0002
 21
 5.41098608475200E+0002
  0
LINE
  8
0
 10
 9.93891773143700E+0002
 20
 5.41098608475200E+0002
 11
 9.97545298412800E+0002
 21
 5.50768396268800E+0002
  0
LINE
  8
0
 10
 9.97545298412800E+0002
 20
 5.50768396268800E+0002
 11
 1.00127177149710E+0003
 21
 5.60365022721600E+0002
  0
LINE
  8
0
 10
 1.00127177149710E+0003
 20
 5.60365022721600E+0002
 11
 1.00506785930000E+0003
 21
 5.69891868800000E+0002
  0
LINE
  8
0
 10
 1.00506785930000E+0003
 20
 5.69891868800000E+0002
 11
 1.00893022872490E+0003
 21
 5.79352315470400E+0002
  0
LINE
  8
0
 10
 1.00893022872490E+0003
 20
 5.79352315470400E+0002
 11
 1.01285554667520E+0003
 21
 5.88749743699200E+0002
  0
LINE
  8
0
 10
 1.01285554667520E+0003
 20
 5.88749743699200E+0002
 11
 1.01684048005430E+0003
 21
 5.98087534452800E+0002
  0
LINE
  8
0
 10
 1.01684048005430E+0003
 20
 5.98087534452800E+0002
 11
 1.02088169576560E+0003
 21
 6.07369068697600E+0002
  0
LINE
  8
0
 10
 1.02088169576560E+0003
 20
 6.07369068697600E+0002
 11
 1.02497586071250E+0003
 21
 6.16597727400000E+0002
  0
LINE
  8
0
 10
 1.02497586071250E+0003
 20
 6.16597727400000E+0002
 11
 1.02911964179840E+0003
 21
 6.25776891526400E+0002
  0
LINE
  8
0
 10
 1.02911964179840E+0003
 20
 6.25776891526400E+0002
 11
 1.03330970592670E+0003
 21
 6.34909942043200E+0002
  0
LINE
  8
0
 10
 1.03330970592670E+0003
 20
 6.34909942043200E+0002
 11
 1.03754272000080E+0003
 21
 6.44000259916800E+0002
  0
LINE
  8
0
 10
 1.03754272000080E+0003
 20
 6.44000259916800E+0002
 11
 1.04181535092410E+0003
 21
 6.53051226113600E+0002
  0
LINE
  8
0
 10
 1.04181535092410E+0003
 20
 6.53051226113600E+0002
 11
 1.04612426560000E+0003
 21
 6.62066221600000E+0002
  0
LINE
  8
0
 10
 1.04612426560000E+0003
 20
 6.62066221600000E+0002
 11
 1.05046613093190E+0003
 21
 6.71048627342400E+0002
  0
LINE
  8
0
 10
 1.05046613093190E+0003
 20
 6.71048627342400E+0002
 11
 1.05483761382320E+0003
 21
 6.80001824307200E+0002
  0
LINE
  8
0
 10
 1.05483761382320E+0003
 20
 6.80001824307200E+0002
 11
 1.05923538117730E+0003
 21
 6.88929193460800E+0002
  0
LINE
  8
0
 10
 1.05923538117730E+0003
 20
 6.88929193460800E+0002
 11
 1.06365609989760E+0003
 21
 6.97834115769600E+0002
  0
LINE
  8
0
 10
 1.06365609989760E+0003
 20
 6.97834115769600E+0002
 11
 1.06809643688750E+0003
 21
 7.06719972200000E+0002
  0
LINE
  8
0
 10
 1.06809643688750E+0003
 20
 7.06719972200000E+0002
 11
 1.07255305905040E+0003
 21
 7.15590143718400E+0002
  0
LINE
  8
0
 10
 1.07255305905040E+0003
 20
 7.15590143718400E+0002
 11
 1.07702263328970E+0003
 21
 7.24448011291200E+0002
  0
LINE
  8
0
 10
 1.07702263328970E+0003
 20
 7.24448011291200E+0002
 11
 1.08150182650880E+0003
 21
 7.33296955884800E+0002
  0
LINE
  8
0
 10
 1.08150182650880E+0003
 20
 7.33296955884800E+0002
 11
 1.08598730561110E+0003
 21
 7.42140358465600E+0002
  0
LINE
  8
0
 10
 1.08598730561110E+0003
 20
 7.42140358465600E+0002
 11
 1.09047573750000E+0003
 21
 7.50981600000000E+0002
  0
LINE
  8
0
 10
 1.09047573750000E+0003
 20
 7.50981600000000E+0002
 11
 1.09496378907890E+0003
 21
 7.59824061454400E+0002
  0
LINE
  8
0
 10
 1.09496378907890E+0003
 20
 7.59824061454400E+0002
 11
 1.09944812725120E+0003
 21
 7.68671123795200E+0002
  0
LINE
  8
0
 10
 1.09944812725120E+0003
 20
 7.68671123795200E+0002
 11
 1.10392541892030E+0003
 21
 7.77526167988800E+0002
  0
LINE
  8
0
 10
 1.10392541892030E+0003
 20
 7.77526167988800E+0002
 11
 1.10839233098960E+0003
 21
 7.86392575001600E+0002
  0
LINE
  8
0
 10
 1.10839233098960E+0003
 20
 7.86392575001600E+0002
 11
 1.11284553036250E+0003
 21
 7.95273725800000E+0002
  0
LINE
  8
0
 10
 1.11284553036250E+0003
 20
 7.95273725800000E+0002
 11
 1.11728168394240E+0003
 21
 8.04173001350400E+0002
  0
LINE
  8
0
 10
 1.11728168394240E+0003
 20
 8.04173001350400E+0002
 11
 1.12169745863270E+0003
 21
 8.13093782619200E+0002
  0
LINE
  8
0
 10
 1.12169745863270E+0003
 20
 8.13093782619200E+0002
 11
 1.12608952133680E+0003
 21
 8.22039450572800E+0002
  0
LINE
  8
0
 10
 1.12608952133680E+0003
 20
 8.22039450572800E+0002
 11
 1.13045453895810E+0003
 21
 8.31013386177600E+0002
  0
LINE
  8
0
 10
 1.13045453895810E+0003
 20
 8.31013386177600E+0002
 11
 1.13478917840000E+0003
 21
 8.40018970400000E+0002
  0
LINE
  8
0
 10
 1.13478917840000E+0003
 20
 8.40018970400000E+0002
 11
 1.13909010656590E+0003
 21
 8.49059584206400E+0002
  0
LINE
  8
0
 10
 1.13909010656590E+0003
 20
 8.49059584206400E+0002
 11
 1.14335399035920E+0003
 21
 8.58138608563200E+0002
  0
LINE
  8
0
 10
 1.14335399035920E+0003
 20
 8.58138608563200E+0002
 11
 1.14757749668330E+0003
 21
 8.67259424436800E+0002
  0
LINE
  8
0
 10
 1.14757749668330E+0003
 20
 8.67259424436800E+0002
 11
 1.15175729244160E+0003
 21
 8.76425412793600E+0002
  0
LINE
  8
0
 10
 1.15175729244160E+0003
 20
 8.76425412793600E+0002
 11
 1.15589004453750E+0003
 21
 8.85639954600000E+0002
  0
LINE
  8
0
 10
 1.15589004453750E+0003
 20
 8.85639954600000E+0002
 11
 1.15997241987440E+0003
 21
 8.94906430822400E+0002
  0
LINE
  8
0
 10
 1.15997241987440E+0003
 20
 8.94906430822400E+0002
 11
 1.16400108535570E+0003
 21
 9.04228222427200E+0002
  0
LINE
  8
0
 10
 1.16400108535570E+0003
 20
 9.04228222427200E+0002
 11
 1.16797270788480E+0003
 21
 9.13608710380800E+0002
  0
LINE
  8
0
 10
 1.16797270788480E+0003
 20
 9.13608710380800E+0002
 11
 1.17188395436510E+0003
 21
 9.23051275649600E+0002
  0
LINE
  8
0
 10
 1.17188395436510E+0003
 20
 9.23051275649600E+0002
 11
 1.17573149170000E+0003
 21
 9.32559299200000E+0002
  0
LINE
  8
0
 10
 1.17573149170000E+0003
 20
 9.32559299200000E+0002
 11
 1.17951198679290E+0003
 21
 9.42136161998400E+0002
  0
LINE
  8
0
 10
 1.17951198679290E+0003
 20
 9.42136161998400E+0002
 11
 1.18322210654720E+0003
 21
 9.51785245011200E+0002
  0
LINE
  8
0
 10
 1.18322210654720E+0003
 20
 9.51785245011200E+0002
 11
 1.18685851786630E+0003
 21
 9.61509929204800E+0002
  0
LINE
  8
0
 10
 1.18685851786630E+0003
 20
 9.61509929204800E+0002
 11
 1.19041788765360E+0003
 21
 9.71313595545600E+0002
  0
LINE
  8
0
 10
 1.19041788765360E+0003
 20
 9.71313595545600E+0002
 11
 1.19389688281250E+0003
 21
 9.81199625000000E+0002
  0
LINE
  8
0
 10
 1.19389688281250E+0003
 20
 9.81199625000000E+0002
 11
 1.19729217024640E+0003
 21
 9.91171398534400E+0002
  0
LINE
  8
0
 10
 1.19729217024640E+0003
 20
 9.91171398534400E+0002
 11
 1.20060041685870E+0003
 21
 1.00123229711520E+0003
  0
LINE
  8
0
 10
 1.20060041685870E+0003
 20
 1.00123229711520E+0003
 11
 1.20381828955280E+0003
 21
 1.01138570170880E+0003
  0
LINE
  8
0
 10
 1.20381828955280E+0003
 20
 1.01138570170880E+0003
 11
 1.20694245523210E+0003
 21
 1.02163499328160E+0003
  0
LINE
  8
0
 10
 1.20694245523210E+0003
 20
 1.02163499328160E+0003
 11
 1.20996958080000E+0003
 21
 1.03198355280000E+0003
  0
LINE
  8
0
 10
 1.20996958080000E+0003
 20
 1.03198355280000E+0003
 11
 1.21289633315990E+0003
 21
 1.04243476123040E+0003
  0
LINE
  8
0
 10
 1.21289633315990E+0003
 20
 1.04243476123040E+0003
 11
 1.21571937921520E+0003
 21
 1.05299199953920E+0003
  0
LINE
  8
0
 10
 1.21571937921520E+0003
 20
 1.05299199953920E+0003
 11
 1.21843538586930E+0003
 21
 1.06365864869280E+0003
  0
LINE
  8
0
 10
 1.21843538586930E+0003
 20
 1.06365864869280E+0003
 11
 1.22104102002560E+0003
 21
 1.07443808965760E+0003
  0
LINE
  8
0
 10
 1.22104102002560E+0003
 20
 1.07443808965760E+0003
 11
 1.22353294858750E+0003
 21
 1.08533370340000E+0003
  0
LINE
  8
0
 10
 1.22353294858750E+0003
 20
 1.08533370340000E+0003
 11
 1.22590783845840E+0003
 21
 1.09634887088640E+0003
  0
LINE
  8
0
 10
 1.22590783845840E+0003
 20
 1.09634887088640E+0003
 11
 1.22816235654170E+0003
 21
 1.10748697308320E+0003
  0
LINE
  8
0
 10
 1.22816235654170E+0003
 20
 1.10748697308320E+0003
 11
 1.23029316974080E+0003
 21
 1.11875139095680E+0003
  0
LINE
  8
0
 10
 1.23029316974080E+0003
 20
 1.11875139095680E+0003
 11
 1.23229694495910E+0003
 21
 1.13014550547360E+0003
  0
LINE
  8
0
 10
 1.23229694495910E+0003
 20
 1.13014550547360E+0003
 11
 1.23417034910000E+0003
 21
 1.14167269760000E+0003
  0
LINE
  8
0
 10
 1.23417034910000E+0003
 20
 1.14167269760000E+0003
 11
 1.23591004906690E+0003
 21
 1.15333634830240E+0003
  0
LINE
  8
0
 10
 1.23591004906690E+0003
 20
 1.15333634830240E+0003
 11
 1.23751271176320E+0003
 21
 1.16513983854720E+0003
  0
LINE
  8
0
 10
 1.23751271176320E+0003
 20
 1.16513983854720E+0003
 11
 1.23897500409230E+0003
 21
 1.17708654930080E+0003
  0
LINE
  8
0
 10
 1.23897500409230E+0003
 20
 1.17708654930080E+0003
 11
 1.24029359295760E+0003
 21
 1.18917986152960E+0003
  0
LINE
  8
0
 10
 1.24029359295760E+0003
 20
 1.18917986152960E+0003
 11
 1.24146514526250E+0003
 21
 1.20142315620000E+0003
  0
LINE
  8
0
 10
 1.24146514526250E+0003
 20
 1.20142315620000E+0003
 11
 1.24248632791040E+0003
 21
 1.21381981427840E+0003
  0
LINE
  8
0
 10
 1.24248632791040E+0003
 20
 1.21381981427840E+0003
 11
 1.24335380780470E+0003
 21
 1.22637321673120E+0003
  0
LINE
  8
0
 10
 1.24335380780470E+0003
 20
 1.22637321673120E+0003
 11
 1.24406425184880E+0003
 21
 1.23908674452480E+0003
  0
LINE
  8
0
 10
 1.24406425184880E+0003
 20
 1.23908674452480E+0003
 11
 1.24461432694610E+0003
 21
 1.25196377862560E+0003
  0
LINE
  8
0
 10
 1.24461432694610E+0003
 20
 1.25196377862560E+0003
 11
 1.24500070000000E+0003
 21
 1.26500770000000E+0003
  0
LINE
  8
0
 10
 1.24500070000000E+0003
 20
 1.26500770000000E+0003
 11
 1.24500000000000E+0003
 21
 1.30700000000000E+0003
  0
LINE
  8
0
 10
 1.24500000000000E+0003
 20
 1.30700000000000E+0003
 11
 1.29000050944639E+0003
 21
 1.29538091843480E+0003
  0
ARC
  8
0
 10
 1.29300000000000E+0003
 20
 1.30700000000000E+0003
 40
 1.20000000000000E+0001
 50
 2.55525000000000E+0002
 51
 3.93805000000000E+0002
  0
LINE
  8
0
 10
 1.30297123104192E+0003
 20
 1.31367641756549E+0003
 11
 1.21500000000000E+0003
 21
 1.44500000000000E+0003
  0
LINE
  8
0
 10
 1.21500000000000E+0003
 20
 1.44500000000000E+0003
 11
 1.12702876895808E+0003
 21
 1.31367641756549E+0003
  0
ARC
  8
0
 10
 1.13700000000000E+0003
 20
 1.30700000000000E+0003
 40
 1.20000000000000E+0001
 50
 1.46195000000000E+0002
 51
 2.84475000000000E+0002
  0
LINE
  8
0
 10
 1.13999949055361E+0003
 20
 1.29538091843480E+0003
 11
 1.18500000000000E+0003
 21
 1.30700000000000E+0003
  0
LINE
  8
0
 10
 1.18500000000000E+0003
 20
 1.30700000000000E+0003
 11
 1.18500000000000E+0003
 21
 1.26500000000000E+0003
  0
LINE
  8
0
 10
 1.39500000000000E+0003
 20
 1.26500000000000E+0003
 11
 1.39461360410730E+0003
 21
 1.25195630732330E+0003
  0
LINE
  8
0
 10
 1.39461360410730E+0003
 20
 1.25195630732330E+0003
 11
 1.39406350845840E+0003
 21
 1.23907949734640E+0003
  0
LINE
  8
0
 10
 1.39406350845840E+0003
 20
 1.23907949734640E+0003
 11
 1.39335304609710E+0003
 21
 1.22636618914910E+0003
  0
LINE
  8
0
 10
 1.39335304609710E+0003
 20
 1.22636618914910E+0003
 11
 1.39248555006720E+0003
 21
 1.21381300181120E+0003
  0
LINE
  8
0
 10
 1.39248555006720E+0003
 20
 1.21381300181120E+0003
 11
 1.39146435341250E+0003
 21
 1.20141655441250E+0003
  0
LINE
  8
0
 10
 1.39146435341250E+0003
 20
 1.20141655441250E+0003
 11
 1.39029278917680E+0003
 21
 1.18917346603280E+0003
  0
LINE
  8
0
 10
 1.39029278917680E+0003
 20
 1.18917346603280E+0003
 11
 1.38897419040390E+0003
 21
 1.17708035575190E+0003
  0
LINE
  8
0
 10
 1.38897419040390E+0003
 20
 1.17708035575190E+0003
 11
 1.38751189013760E+0003
 21
 1.16513384264960E+0003
  0
LINE
  8
0
 10
 1.38751189013760E+0003
 20
 1.16513384264960E+0003
 11
 1.38590922142170E+0003
 21
 1.15333054580570E+0003
  0
LINE
  8
0
 10
 1.38590922142170E+0003
 20
 1.15333054580570E+0003
 11
 1.38416951730000E+0003
 21
 1.14166708430000E+0003
  0
LINE
  8
0
 10
 1.38416951730000E+0003
 20
 1.14166708430000E+0003
 11
 1.38229611081630E+0003
 21
 1.13014007721230E+0003
  0
LINE
  8
0
 10
 1.38229611081630E+0003
 20
 1.13014007721230E+0003
 11
 1.38029233501440E+0003
 21
 1.11874614362240E+0003
  0
LINE
  8
0
 10
 1.38029233501440E+0003
 20
 1.11874614362240E+0003
 11
 1.37816152293810E+0003
 21
 1.10748190261010E+0003
  0
LINE
  8
0
 10
 1.37816152293810E+0003
 20
 1.10748190261010E+0003
 11
 1.37590700763120E+0003
 21
 1.09634397325520E+0003
  0
LINE
  8
0
 10
 1.37590700763120E+0003
 20
 1.09634397325520E+0003
 11
 1.37353212213750E+0003
 21
 1.08532897463750E+0003
  0
LINE
  8
0
 10
 1.37353212213750E+0003
 20
 1.08532897463750E+0003
 11
 1.37104019950080E+0003
 21
 1.07443352583680E+0003
  0
LINE
  8
0
 10
 1.37104019950080E+0003
 20
 1.07443352583680E+0003
 11
 1.36843457276490E+0003
 21
 1.06365424593290E+0003
  0
LINE
  8
0
 10
 1.36843457276490E+0003
 20
 1.06365424593290E+0003
 11
 1.36571857497360E+0003
 21
 1.05298775400560E+0003
  0
LINE
  8
0
 10
 1.36571857497360E+0003
 20
 1.05298775400560E+0003
 11
 1.36289553917070E+0003
 21
 1.04243066913470E+0003
  0
LINE
  8
0
 10
 1.36289553917070E+0003
 20
 1.04243066913470E+0003
 11
 1.35996879840000E+0003
 21
 1.03197961040000E+0003
  0
LINE
  8
0
 10
 1.35996879840000E+0003
 20
 1.03197961040000E+0003
 11
 1.35694168570530E+0003
 21
 1.02163119688130E+0003
  0
LINE
  8
0
 10
 1.35694168570530E+0003
 20
 1.02163119688130E+0003
 11
 1.35381753413040E+0003
 21
 1.01138204765840E+0003
  0
LINE
  8
0
 10
 1.35381753413040E+0003
 20
 1.01138204765840E+0003
 11
 1.35059967671910E+0003
 21
 1.00122878181110E+0003
  0
LINE
  8
0
 10
 1.35059967671910E+0003
 20
 1.00122878181110E+0003
 11
 1.34729144651520E+0003
 21
 9.91168018419200E+0002
  0
LINE
  8
0
 10
 1.34729144651520E+0003
 20
 9.91168018419200E+0002
 11
 1.34389617656250E+0003
 21
 9.81196376562500E+0002
  0
LINE
  8
0
 10
 1.34389617656250E+0003
 20
 9.81196376562500E+0002
 11
 1.34041719990480E+0003
 21
 9.71310475320800E+0002
  0
LINE
  8
0
 10
 1.34041719990480E+0003
 20
 9.71310475320800E+0002
 11
 1.33685784958590E+0003
 21
 9.61506933773900E+0002
  0
LINE
  8
0
 10
 1.33685784958590E+0003
 20
 9.61506933773900E+0002
 11
 1.33322145864960E+0003
 21
 9.51782371001600E+0002
  0
LINE
  8
0
 10
 1.33322145864960E+0003
 20
 9.51782371001600E+0002
 11
 1.32951136013970E+0003
 21
 9.42133406083700E+0002
  0
LINE
  8
0
 10
 1.32951136013970E+0003
 20
 9.42133406083700E+0002
 11
 1.32573088710000E+0003
 21
 9.32556658100000E+0002
  0
LINE
  8
0
 10
 1.32573088710000E+0003
 20
 9.32556658100000E+0002
 11
 1.32188337257430E+0003
 21
 9.23048746130300E+0002
  0
LINE
  8
0
 10
 1.32188337257430E+0003
 20
 9.23048746130300E+0002
 11
 1.31797214960640E+0003
 21
 9.13606289254400E+0002
  0
LINE
  8
0
 10
 1.31797214960640E+0003
 20
 9.13606289254400E+0002
 11
 1.31400055124010E+0003
 21
 9.04225906552100E+0002
  0
LINE
  8
0
 10
 1.31400055124010E+0003
 20
 9.04225906552100E+0002
 11
 1.30997191051920E+0003
 21
 8.94904217103200E+0002
  0
LINE
  8
0
 10
 1.30997191051920E+0003
 20
 8.94904217103200E+0002
 11
 1.30588956048750E+0003
 21
 8.85637839987500E+0002
  0
LINE
  8
0
 10
 1.30588956048750E+0003
 20
 8.85637839987500E+0002
 11
 1.30175683418880E+0003
 21
 8.76423394284800E+0002
  0
LINE
  8
0
 10
 1.30175683418880E+0003
 20
 8.76423394284800E+0002
 11
 1.29757706466690E+0003
 21
 8.67257499074900E+0002
  0
LINE
  8
0
 10
 1.29757706466690E+0003
 20
 8.67257499074900E+0002
 11
 1.29335358496560E+0003
 21
 8.58136773437600E+0002
  0
LINE
  8
0
 10
 1.29335358496560E+0003
 20
 8.58136773437600E+0002
 11
 1.28908972812870E+0003
 21
 8.49057836452700E+0002
  0
LINE
  8
0
 10
 1.28908972812870E+0003
 20
 8.49057836452700E+0002
 11
 1.28478882720000E+0003
 21
 8.40017307200000E+0002
  0
LINE
  8
0
 10
 1.28478882720000E+0003
 20
 8.40017307200000E+0002
 11
 1.28045421522330E+0003
 21
 8.31011804759300E+0002
  0
LINE
  8
0
 10
 1.28045421522330E+0003
 20
 8.31011804759300E+0002
 11
 1.27608922524240E+0003
 21
 8.22037948210400E+0002
  0
LINE
  8
0
 10
 1.27608922524240E+0003
 20
 8.22037948210400E+0002
 11
 1.27169719030110E+0003
 21
 8.13092356633100E+0002
  0
LINE
  8
0
 10
 1.27169719030110E+0003
 20
 8.13092356633100E+0002
 11
 1.26728144344320E+0003
 21
 8.04171649107200E+0002
  0
LINE
  8
0
 10
 1.26728144344320E+0003
 20
 8.04171649107200E+0002
 11
 1.26284531771250E+0003
 21
 7.95272444712500E+0002
  0
LINE
  8
0
 10
 1.26284531771250E+0003
 20
 7.95272444712500E+0002
 11
 1.25839214615280E+0003
 21
 7.86391362528800E+0002
  0
LINE
  8
0
 10
 1.25839214615280E+0003
 20
 7.86391362528800E+0002
 11
 1.25392526180790E+0003
 21
 7.77525021635900E+0002
  0
LINE
  8
0
 10
 1.25392526180790E+0003
 20
 7.77525021635900E+0002
 11
 1.24944799772160E+0003
 21
 7.68670041113600E+0002
  0
LINE
  8
0
 10
 1.24944799772160E+0003
 20
 7.68670041113600E+0002
 11
 1.24496368693770E+0003
 21
 7.59823040041700E+0002
  0
LINE
  8
0
 10
 1.24496368693770E+0003
 20
 7.59823040041700E+0002
 11
 1.24047566250000E+0003
 21
 7.50980637500000E+0002
  0
LINE
  8
0
 10
 1.24047566250000E+0003
 20
 7.50980637500000E+0002
 11
 1.23598725745230E+0003
 21
 7.42139452568300E+0002
  0
LINE
  8
0
 10
 1.23598725745230E+0003
 20
 7.42139452568300E+0002
 11
 1.23150180483840E+0003
 21
 7.33296104326400E+0002
  0
LINE
  8
0
 10
 1.23150180483840E+0003
 20
 7.33296104326400E+0002
 11
 1.22702263770210E+0003
 21
 7.24447211854100E+0002
  0
LINE
  8
0
 10
 1.22702263770210E+0003
 20
 7.24447211854100E+0002
 11
 1.22255308908720E+0003
 21
 7.15589394231200E+0002
  0
LINE
  8
0
 10
 1.22255308908720E+0003
 20
 7.15589394231200E+0002
 11
 1.21809649203750E+0003
 21
 7.06719270537500E+0002
  0
LINE
  8
0
 10
 1.21809649203750E+0003
 20
 7.06719270537500E+0002
 11
 1.21365617959680E+0003
 21
 6.97833459852800E+0002
  0
LINE
  8
0
 10
 1.21365617959680E+0003
 20
 6.97833459852800E+0002
 11
 1.20923548480890E+0003
 21
 6.88928581256900E+0002
  0
LINE
  8
0
 10
 1.20923548480890E+0003
 20
 6.88928581256900E+0002
 11
 1.20483774071760E+0003
 21
 6.80001253829600E+0002
  0
LINE
  8
0
 10
 1.20483774071760E+0003
 20
 6.80001253829600E+0002
 11
 1.20046628036670E+0003
 21
 6.71048096650700E+0002
  0
LINE
  8
0
 10
 1.20046628036670E+0003
 20
 6.71048096650700E+0002
 11
 1.19612443680000E+0003
 21
 6.62065728800000E+0002
  0
LINE
  8
0
 10
 1.19612443680000E+0003
 20
 6.62065728800000E+0002
 11
 1.19181554306130E+0003
 21
 6.53050769357300E+0002
  0
LINE
  8
0
 10
 1.19181554306130E+0003
 20
 6.53050769357300E+0002
 11
 1.18754293219440E+0003
 21
 6.43999837402400E+0002
  0
LINE
  8
0
 10
 1.18754293219440E+0003
 20
 6.43999837402400E+0002
 11
 1.18330993724310E+0003
 21
 6.34909552015100E+0002
  0
LINE
  8
0
 10
 1.18330993724310E+0003
 20
 6.34909552015100E+0002
 11
 1.17911989125120E+0003
 21
 6.25776532275200E+0002
  0
LINE
  8
0
 10
 1.17911989125120E+0003
 20
 6.25776532275200E+0002
 11
 1.17497612726250E+0003
 21
 6.16597397262500E+0002
  0
LINE
  8
0
 10
 1.17497612726250E+0003
 20
 6.16597397262500E+0002
 11
 1.17088197832080E+0003
 21
 6.07368766056800E+0002
  0
LINE
  8
0
 10
 1.17088197832080E+0003
 20
 6.07368766056800E+0002
 11
 1.16684077746990E+0003
 21
 5.98087257737900E+0002
  0
LINE
  8
0
 10
 1.16684077746990E+0003
 20
 5.98087257737900E+0002
 11
 1.16285585775360E+0003
 21
 5.88749491385600E+0002
  0
LINE
  8
0
 10
 1.16285585775360E+0003
 20
 5.88749491385600E+0002
 11
 1.15893055221570E+0003
 21
 5.79352086079700E+0002
  0
LINE
  8
0
 10
 1.15893055221570E+0003
 20
 5.79352086079700E+0002
 11
 1.15506819390000E+0003
 21
 5.69891660900000E+0002
  0
LINE
  8
0
 10
 1.15506819390000E+0003
 20
 5.69891660900000E+0002
 11
 1.15127211585030E+0003
 21
 5.60364834926300E+0002
  0
LINE
  8
0
 10
 1.15127211585030E+0003
 20
 5.60364834926300E+0002
 11
 1.14754565111040E+0003
 21
 5.50768227238400E+0002
  0
LINE
  8
0
 10
 1.14754565111040E+0003
 20
 5.50768227238400E+0002
 11
 1.14389213272410E+0003
 21
 5.41098456916100E+0002
  0
LINE
  8
0
 10
 1.14389213272410E+0003
 20
 5.41098456916100E+0002
 11
 1.14031489373520E+0003
 21
 5.31352143039200E+0002
  0
LINE
  8
0
 10
 1.14031489373520E+0003
 20
 5.31352143039200E+0002
 11
 1.13681726718750E+0003
 21
 5.21525904687500E+0002
  0
LINE
  8
0
 10
 1.13681726718750E+0003
 20
 5.21525904687500E+0002
 11
 1.13340258612480E+0003
 21
 5.11616360940800E+0002
  0
LINE
  8
0
 10
 1.13340258612480E+0003
 20
 5.11616360940800E+0002
 11
 1.13007418359090E+0003
 21
 5.01620130878900E+0002
  0
LINE
  8
0
 10
 1.13007418359090E+0003
 20
 5.01620130878900E+0002
 11
 1.12683539262960E+0003
 21
 4.91533833581600E+0002
  0
LINE
  8
0
 10
 1.12683539262960E+0003
 20
 4.91533833581600E+0002
 11
 1.12368954628470E+0003
 21
 4.81354088128700E+0002
  0
LINE
  8
0
 10
 1.12368954628470E+0003
 20
 4.81354088128700E+0002
 11
 1.12063997760000E+0003
 21
 4.71077513600000E+0002
  0
LINE
  8
0
 10
 1.12063997760000E+0003
 20
 4.71077513600000E+0002
 11
 1.11769001961930E+0003
 21
 4.60700729075300E+0002
  0
LINE
  8
0
 10
 1.11769001961930E+0003
 20
 4.60700729075300E+0002
 11
 1.11484300538640E+0003
 21
 4.50220353634400E+0002
  0
LINE
  8
0
 10
 1.11484300538640E+0003
 20
 4.50220353634400E+0002
 11
 1.11210226794510E+0003
 21
 4.39633006357100E+0002
  0
LINE
  8
0
 10
 1.11210226794510E+0003
 20
 4.39633006357100E+0002
 11
 1.10947114033920E+0003
 21
 4.28935306323200E+0002
  0
LINE
  8
0
 10
 1.10947114033920E+0003
 20
 4.28935306323200E+0002
 11
 1.10695295561250E+0003
 21
 4.18123872612500E+0002
  0
LINE
  8
0
 10
 1.10695295561250E+0003
 20
 4.18123872612500E+0002
 11
 1.10455104680880E+0003
 21
 4.07195324304800E+0002
  0
LINE
  8
0
 10
 1.10455104680880E+0003
 20
 4.07195324304800E+0002
 11
 1.10226874697190E+0003
 21
 3.96146280479900E+0002
  0
LINE
  8
0
 10
 1.10226874697190E+0003
 20
 3.96146280479900E+0002
 11
 1.10010938914560E+0003
 21
 3.84973360217600E+0002
  0
LINE
  8
0
 10
 1.10010938914560E+0003
 20
 3.84973360217600E+0002
 11
 1.09807630637370E+0003
 21
 3.73673182597700E+0002
  0
LINE
  8
0
 10
 1.09807630637370E+0003
 20
 3.73673182597700E+0002
 11
 1.09617283170000E+0003
 21
 3.62242366700000E+0002
  0
LINE
  8
0
 10
 1.09617283170000E+0003
 20
 3.62242366700000E+0002
 11
 1.09440229816830E+0003
 21
 3.50677531604300E+0002
  0
LINE
  8
0
 10
 1.09440229816830E+0003
 20
 3.50677531604300E+0002
 11
 1.09276803882240E+0003
 21
 3.38975296390400E+0002
  0
LINE
  8
0
 10
 1.09276803882240E+0003
 20
 3.38975296390400E+0002
 11
 1.09127338670610E+0003
 21
 3.27132280138100E+0002
  0
LINE
  8
0
 10
 1.09127338670610E+0003
 20
 3.27132280138100E+0002
 11
 1.08992167486320E+0003
 21
 3.15145101927200E+0002
  0
LINE
  8
0
 10
 1.08992167486320E+0003
 20
 3.15145101927200E+0002
 11
 1.08871623633750E+0003
 21
 3.03010380837500E+0002
  0
LINE
  8
0
 10
 1.08871623633750E+0003
 20
 3.03010380837500E+0002
 11
 1.08766040417280E+0003
 21
 2.90724735948800E+0002
  0
LINE
  8
0
 10
 1.08766040417280E+0003
 20
 2.90724735948800E+0002
 11
 1.08675751141290E+0003
 21
 2.78284786340900E+0002
  0
LINE
  8
0
 10
 1.08675751141290E+0003
 20
 2.78284786340900E+0002
 11
 1.08601089110160E+0003
 21
 2.65687151093600E+0002
  0
LINE
  8
0
 10
 1.08601089110160E+0003
 20
 2.65687151093600E+0002
 11
 1.08542387628270E+0003
 21
 2.52928449286700E+0002
  0
LINE
  8
0
 10
 1.08542387628270E+0003
 20
 2.52928449286700E+0002
 11
 1.08499980000000E+0003
 21
 2.40005300000000E+0002
  0
LINE
  8
0
 10
 1.08499980000000E+0003
 20
 2.40005300000000E+0002
 11
 1.08500000000000E+0003
 21
 1.55000000000000E+0002
  0
LINE
  8
0
 10
 1.08500000000000E+0003
 20
 1.55000000000000E+0002
 11
 1.14500000000000E+0003
 21
 1.55000000000000E+0002
  0
LINE
  8
0
 10
 1.14500000000000E+0003
 20
 1.55000000000000E+0002
 11
 1.14500000000000E+0003
 21
 2.40005300000000E+0002
  0
LINE
  8
0
 10
 1.14500000000000E+0003
 20
 2.40005300000000E+0002
 11
 1.14542402374390E+0003
 21
 2.52928449294400E+0002
  0
LINE
  8
0
 10
 1.14542402374390E+0003
 20
 2.52928449294400E+0002
 11
 1.14601098891120E+0003
 21
 2.65687151155200E+0002
  0
LINE
  8
0
 10
 1.14601098891120E+0003
 20
 2.65687151155200E+0002
 11
 1.14675756240530E+0003
 21
 2.78284786548800E+0002
  0
LINE
  8
0
 10
 1.14675756240530E+0003
 20
 2.78284786548800E+0002
 11
 1.14766041112960E+0003
 21
 2.90724736441600E+0002
  0
LINE
  8
0
 10
 1.14766041112960E+0003
 20
 2.90724736441600E+0002
 11
 1.14871620198750E+0003
 21
 3.03010381800000E+0002
  0
LINE
  8
0
 10
 1.14871620198750E+0003
 20
 3.03010381800000E+0002
 11
 1.14992160188240E+0003
 21
 3.15145103590400E+0002
  0
LINE
  8
0
 10
 1.14992160188240E+0003
 20
 3.15145103590400E+0002
 11
 1.15127327771770E+0003
 21
 3.27132282779200E+0002
  0
LINE
  8
0
 10
 1.15127327771770E+0003
 20
 3.27132282779200E+0002
 11
 1.15276789639680E+0003
 21
 3.38975300332800E+0002
  0
LINE
  8
0
 10
 1.15276789639680E+0003
 20
 3.38975300332800E+0002
 11
 1.15440212482310E+0003
 21
 3.50677537217600E+0002
  0
LINE
  8
0
 10
 1.15440212482310E+0003
 20
 3.50677537217600E+0002
 11
 1.15617262990000E+0003
 21
 3.62242374400000E+0002
  0
LINE
  8
0
 10
 1.15617262990000E+0003
 20
 3.62242374400000E+0002
 11
 1.15807607853090E+0003
 21
 3.73673192846400E+0002
  0
LINE
  8
0
 10
 1.15807607853090E+0003
 20
 3.73673192846400E+0002
 11
 1.16010913761920E+0003
 21
 3.84973373523200E+0002
  0
LINE
  8
0
 10
 1.16010913761920E+0003
 20
 3.84973373523200E+0002
 11
 1.16226847406830E+0003
 21
 3.96146297396800E+0002
  0
LINE
  8
0
 10
 1.16226847406830E+0003
 20
 3.96146297396800E+0002
 11
 1.16455075478160E+0003
 21
 4.07195345433600E+0002
  0
LINE
  8
0
 10
 1.16455075478160E+0003
 20
 4.07195345433600E+0002
 11
 1.16695264666250E+0003
 21
 4.18123898600000E+0002
  0
LINE
  8
0
 10
 1.16695264666250E+0003
 20
 4.18123898600000E+0002
 11
 1.16947081661440E+0003
 21
 4.28935337862400E+0002
  0
LINE
  8
0
 10
 1.16947081661440E+0003
 20
 4.28935337862400E+0002
 11
 1.17210193154070E+0003
 21
 4.39633044187200E+0002
  0
LINE
  8
0
 10
 1.17210193154070E+0003
 20
 4.39633044187200E+0002
 11
 1.17484265834480E+0003
 21
 4.50220398540800E+0002
  0
LINE
  8
0
 10
 1.17484265834480E+0003
 20
 4.50220398540800E+0002
 11
 1.17768966393010E+0003
 21
 4.60700781889600E+0002
  0
LINE
  8
0
 10
 1.17768966393010E+0003
 20
 4.60700781889600E+0002
 11
 1.18063961520000E+0003
 21
 4.71077575200000E+0002
  0
LINE
  8
0
 10
 1.18063961520000E+0003
 20
 4.71077575200000E+0002
 11
 1.18368917905790E+0003
 21
 4.81354159438400E+0002
  0
LINE
  8
0
 10
 1.18368917905790E+0003
 20
 4.81354159438400E+0002
 11
 1.18683502240720E+0003
 21
 4.91533915571200E+0002
  0
LINE
  8
0
 10
 1.18683502240720E+0003
 20
 4.91533915571200E+0002
 11
 1.19007381215130E+0003
 21
 5.01620224564800E+0002
  0
LINE
  8
0
 10
 1.19007381215130E+0003
 20
 5.01620224564800E+0002
 11
 1.19340221519360E+0003
 21
 5.11616467385600E+0002
  0
LINE
  8
0
 10
 1.19340221519360E+0003
 20
 5.11616467385600E+0002
 11
 1.19681689843750E+0003
 21
 5.21526025000000E+0002
  0
LINE
  8
0
 10
 1.19681689843750E+0003
 20
 5.21526025000000E+0002
 11
 1.20031452878640E+0003
 21
 5.31352278374400E+0002
  0
LINE
  8
0
 10
 1.20031452878640E+0003
 20
 5.31352278374400E+0002
 11
 1.20389177314370E+0003
 21
 5.41098608475200E+0002
  0
LINE
  8
0
 10
 1.20389177314370E+0003
 20
 5.41098608475200E+0002
 11
 1.20754529841280E+0003
 21
 5.50768396268800E+0002
  0
LINE
  8
0
 10
 1.20754529841280E+0003
 20
 5.50768396268800E+0002
 11
 1.21127177149710E+0003
 21
 5.60365022721600E+0002
  0
LINE
  8
0
 10
 1.21127177149710E+0003
 20
 5.60365022721600E+0002
 11
 1.21506785930000E+0003
 21
 5.69891868800000E+0002
  0
LINE
  8
0
 10
 1.21506785930000E+0003
 20
 5.69891868800000E+0002
 11
 1.21893022872490E+0003
 21
 5.79352315470400E+0002
  0
LINE
  8
0
 10
 1.21893022872490E+0003
 20
 5.79352315470400E+0002
 11
 1.22285554667520E+0003
 21
 5.88749743699200E+0002
  0
LINE
  8
0
 10
 1.22285554667520E+0003
 20
 5.88749743699200E+0002
 11
 1.22684048005430E+0003
 21
 5.98087534452800E+0002
  0
LINE
  8
0
 10
 1.22684048005430E+0003
 20
 5.98087534452800E+0002
 11
 1.23088169576560E+0003
 21
 6.07369068697600E+0002
  0
LINE
  8
0
 10
 1.23088169576560E+0003
 20
 6.07369068697600E+0002
 11
 1.23497586071250E+0003
 21
 6.16597727400000E+0002
  0
LINE
  8
0
 10
 1.23497586071250E+0003
 20
 6.16597727400000E+0002
 11
 1.23911964179840E+0003
 21
 6.25776891526400E+0002
  0
LINE
  8
0
 10
 1.23911964179840E+0003
 20
 6.25776891526400E+0002
 11
 1.24330970592670E+0003
 21
 6.34909942043200E+0002
  0
LINE
  8
0
 10
 1.24330970592670E+0003
 20
 6.34909942043200E+0002
 11
 1.24754272000080E+0003
 21
 6.44000259916800E+0002
  0
LINE
  8
0
 10
 1.24754272000080E+0003
 20
 6.44000259916800E+0002
 11
 1.25181535092410E+0003
 21
 6.53051226113600E+0002
  0
LINE
  8
0
 10
 1.25181535092410E+0003
 20
 6.53051226113600E+0002
 11
 1.25612426560000E+0003
 21
 6.62066221600000E+0002
  0
LINE
  8
0
 10
 1.25612426560000E+0003
 20
 6.62066221600000E+0002
 11
 1.26046613093190E+0003
 21
 6.71048627342400E+0002
  0
LINE
  8
0
 10
 1.26046613093190E+0003
 20
 6.71048627342400E+0002
 11
 1.26483761382320E+0003
 21
 6.80001824307200E+0002
  0
LINE
  8
0
 10
 1.26483761382320E+0003
 20
 6.80001824307200E+0002
 11
 1.26923538117730E+0003
 21
 6.88929193460800E+0002
  0
LINE
  8
0
 10
 1.26923538117730E+0003
 20
 6.88929193460800E+0002
 11
 1.27365609989760E+0003
 21
 6.97834115769600E+0002
  0
LINE
  8
0
 10
 1.27365609989760E+0003
 20
 6.97834115769600E+0002
 11
 1.27809643688750E+0003
 21
 7.06719972200000E+0002
  0
LINE
  8
0
 10
 1.27809643688750E+0003
 20
 7.06719972200000E+0002
 11
 1.28255305905040E+0003
 21
 7.15590143718400E+0002
  0
LINE
  8
0
 10
 1.28255305905040E+0003
 20
 7.15590143718400E+0002
 11
 1.28702263328970E+0003
 21
 7.24448011291200E+0002
  0
LINE
  8
0
 10
 1.28702263328970E+0003
 20
 7.24448011291200E+0002
 11
 1.29150182650880E+0003
 21
 7.33296955884800E+0002
  0
LINE
  8
0
 10
 1.29150182650880E+0003
 20
 7.33296955884800E+0002
 11
 1.29598730561110E+0003
 21
 7.42140358465600E+0002
  0
LINE
  8
0
 10
 1.29598730561110E+0003
 20
 7.42140358465600E+0002
 11
 1.30047573750000E+0003
 21
 7.50981600000000E+0002
  0
LINE
  8
0
 10
 1.30047573750000E+0003
 20
 7.50981600000000E+0002
 11
 1.30496378907890E+0003
 21
 7.59824061454400E+0002
  0
LINE
  8
0
 10
 1.30496378907890E+0003
 20
 7.59824061454400E+0002
 11
 1.30944812725120E+0003
 21
 7.68671123795200E+0002
  0
LINE
  8
0
 10
 1.30944812725120E+0003
 20
 7.68671123795200E+0002
 11
 1.31392541892030E+0003
 21
 7.77526167988800E+0002
  0
LINE
  8
0
 10
 1.31392541892030E+0003
 20
 7.77526167988800E+0002
 11
 1.31839233098960E+0003
 21
 7.86392575001600E+0002
  0
LINE
  8
0
 10
 1.31839233098960E+0003
 20
 7.86392575001600E+0002
 11
 1.32284553036250E+0003
 21
 7.95273725800000E+0002
  0
LINE
  8
0
 10
 1.32284553036250E+0003
 20
 7.95273725800000E+0002
 11
 1.32728168394240E+0003
 21
 8.04173001350400E+0002
  0
LINE
  8
0
 10
 1.32728168394240E+0003
 20
 8.04173001350400E+0002
 11
 1.33169745863270E+0003
 21
 8.13093782619200E+0002
  0
LINE
  8
0
 10
 1.33169745863270E+0003
 20
 8.13093782619200E+0002
 11
 1.33608952133680E+0003
 21
 8.22039450572800E+0002
  0
LINE
  8
0
 10
 1.33608952133680E+0003
 20
 8.22039450572800E+0002
 11
 1.34045453895810E+0003
 21
 8.31013386177600E+0002
  0
LINE
  8
0
 10
 1.34045453895810E+0003
 20
 8.31013386177600E+0002
 11
 1.34478917840000E+0003
 21
 8.40018970400000E+0002
  0
LINE
  8
0
 10
 1.34478917840000E+0003
 20
 8.40018970400000E+0002
 11
 1.34909010656590E+0003
 21
 8.49059584206400E+0002
  0
LINE
  8
0
 10
 1.34909010656590E+0003
 20
 8.49059584206400E+0002
 11
 1.35335399035920E+0003
 21
 8.58138608563200E+0002
  0
LINE
  8
0
 10
 1.35335399035920E+0003
 20
 8.58138608563200E+0002
 11
 1.35757749668330E+0003
 21
 8.67259424436800E+0002
  0
LINE
  8
0
 10
 1.35757749668330E+0003
 20
 8.67259424436800E+0002
 11
 1.36175729244160E+0003
 21
 8.76425412793600E+0002
  0
LINE
  8
0
 10
 1.36175729244160E+0003
 20
 8.76425412793600E+0002
 11
 1.36589004453750E+0003
 21
 8.85639954600000E+0002
  0
LINE
  8
0
 10
 1.36589004453750E+0003
 20
 8.85639954600000E+0002
 11
 1.36997241987440E+0003
 21
 8.94906430822400E+0002
  0
LINE
  8
0
 10
 1.36997241987440E+0003
 20
 8.94906430822400E+0002
 11
 1.37400108535570E+0003
 21
 9.04228222427200E+0002
  0
LINE
  8
0
 10
 1.37400108535570E+0003
 20
 9.04228222427200E+0002
 11
 1.37797270788480E+0003
 21
 9.13608710380800E+0002
  0
LINE
  8
0
 10
 1.37797270788480E+0003
 20
 9.13608710380800E+0002
 11
 1.38188395436510E+0003
 21
 9.23051275649600E+0002
  0
LINE
  8
0
 10
 1.38188395436510E+0003
 20
 9.23051275649600E+0002
 11
 1.38573149170000E+0003
 21
 9.32559299200000E+0002
  0
LINE
  8
0
 10
 1.38573149170000E+0003
 20
 9.32559299200000E+0002
 11
 1.38951198679290E+0003
 21
 9.42136161998400E+0002
  0
LINE
  8
0
 10
 1.38951198679290E+0003
 20
 9.42136161998400E+0002
 11
 1.39322210654720E+0003
 21
 9.51785245011200E+0002
  0
LINE
  8
0
 10
 1.39322210654720E+0003
 20
 9.51785245011200E+0002
 11
 1.39685851786630E+0003
 21
 9.61509929204800E+0002
  0
LINE
  8
0
 10
 1.39685851786630E+0003
 20
 9.61509929204800E+0002
 11
 1.40041788765360E+0003
 21
 9.71313595545600E+0002
  0
LINE
  8
0
 10
 1.40041788765360E+0003
 20
 9.71313595545600E+0002
 11
 1.40389688281250E+0003
 21
 9.81199625000000E+0002
  0
LINE
  8
0
 10
 1.40389688281250E+0003
 20
 9.81199625000000E+0002
 11
 1.40729217024640E+0003
 21
 9.91171398534400E+0002
  0
LINE
  8
0
 10
 1.40729217024640E+0003
 20
 9.91171398534400E+0002
 11
 1.41060041685870E+0003
 21
 1.00123229711520E+0003
  0
LINE
  8
0
 10
 1.41060041685870E+0003
 20
 1.00123229711520E+0003
 11
 1.41381828955280E+0003
 21
 1.01138570170880E+0003
  0
LINE
  8
0
 10
 1.41381828955280E+0003
 20
 1.01138570170880E+0003
 11
 1.41694245523210E+0003
 21
 1.02163499328160E+0003
  0
LINE
  8
0
 10
 1.41694245523210E+0003
 20
 1.02163499328160E+0003
 11
 1.41996958080000E+0003
 21
 1.03198355280000E+0003
  0
LINE
  8
0
 10
 1.41996958080000E+0003
 20
 1.03198355280000E+0003
 11
 1.42289633315990E+0003
 21
 1.04243476123040E+0003
  0
LINE
  8
0
 10
 1.42289633315990E+0003
 20
 1.04243476123040E+0003
 11
 1.42571937921520E+0003
 21
 1.05299199953920E+0003
  0
LINE
  8
0
 10
 1.42571937921520E+0003
 20
 1.05299199953920E+0003
 11
 1.42843538586930E+0003
 21
 1.06365864869280E+0003
  0
LINE
  8
0
 10
 1.42843538586930E+0003
 20
 1.06365864869280E+0003
 11
 1.43104102002560E+0003
 21
 1.07443808965760E+0003
  0
LINE
  8
0
 10
 1.43104102002560E+0003
 20
 1.07443808965760E+0003
 11
 1.43353294858750E+0003
 21
 1.08533370340000E+0003
  0
LINE
  8
0
 10
 1.43353294858750E+0003
 20
 1.08533370340000E+0003
 11
 1.43590783845840E+0003
 21
 1.09634887088640E+0003
  0
LINE
  8
0
 10
 1.43590783845840E+0003
 20
 1.09634887088640E+0003
 11
 1.43816235654170E+0003
 21
 1.10748697308320E+0003
  0
LINE
  8
0
 10
 1.43816235654170E+0003
 20
 1.10748697308320E+0003
 11
 1.44029316974080E+0003
 21
 1.11875139095680E+0003
  0
LINE
  8
0
 10
 1.44029316974080E+0003
 20
 1.11875139095680E+0003
 11
 1.44229694495910E+0003
 21
 1.13014550547360E+0003
  0
LINE
  8
0
 10
 1.44229694495910E+0003
 20
 1.13014550547360E+0003
 11
 1.44417034910000E+0003
 21
 1.14167269760000E+0003
  0
LINE
  8
0
 10
 1.44417034910000E+0003
 20
 1.14167269760000E+0003
 11
 1.44591004906690E+0003
 21
 1.15333634830240E+0003
  0
LINE
  8
0
 10
 1.44591004906690E+0003
 20
 1.15333634830240E+0003
 11
 1.44751271176320E+0003
 21
 1.16513983854720E+0003
  0
LINE
  8
0
 10
 1.44751271176320E+0003
 20
 1.16513983854720E+0003
 11
 1.44897500409230E+0003
 21
 1.17708654930080E+0003
  0
LINE
  8
0
 10
 1.44897500409230E+0003
 20
 1.17708654930080E+0003
 11
 1.45029359295760E+0003
 21
 1.18917986152960E+0003
  0
LINE
  8
0
 10
 1.45029359295760E+0003
 20
 1.18917986152960E+0003
 11
 1.45146514526250E+0003
 21
 1.20142315620000E+0003
  0
LINE
  8
0
 10
 1.45146514526250E+0003
 20
 1.20142315620000E+0003
 11
 1.45248632791040E+0003
 21
 1.21381981427840E+0003
  0
LINE
  8
0
 10
 1.45248632791040E+0003
 20
 1.21381981427840E+0003
 11
 1.45335380780470E+0003
 21
 1.22637321673120E+0003
  0
LINE
  8
0
 10
 1.45335380780470E+0003
 20
 1.22637321673120E+0003
 11
 1.45406425184880E+0003
 21
 1.23908674452480E+0003
  0
LINE
  8
0
 10
 1.45406425184880E+0003
 20
 1.23908674452480E+0003
 11
 1.45461432694610E+0003
 21
 1.25196377862560E+0003
  0
LINE
  8
0
 10
 1.45461432694610E+0003
 20
 1.25196377862560E+0003
 11
 1.45500070000000E+0003
 21
 1.26500770000000E+0003
  0
LINE
  8
0
 10
 1.45500070000000E+0003
 20
 1.26500770000000E+0003
 11
 1.45500000000000E+0003
 21
 1.30700000000000E+0003
  0
LINE
  8
0
 10
 1.45500000000000E+0003
 20
 1.30700000000000E+0003
 11
 1.50000050944639E+0003
 21
 1.29538091843480E+0003
  0
ARC
  8
0
 10
 1.50300000000000E+0003
 20
 1.30700000000000E+0003
 40
 1.20000000000000E+0001
 50
 2.55525000000000E+0002
 51
 3.93805000000000E+0002
  0
LINE
  8
0
 10
 1.51297123104192E+0003
 20
 1.31367641756549E+0003
 11
 1.42500000000000E+0003
 21
 1.44500000000000E+0003
  0
LINE
  8
0
 10
 1.42500000000000E+0003
 20
 1.44500000000000E+0003
 11
 1.33702876895808E+0003
 21
 1.31367641756549E+0003
  0
ARC
  8
0
 10
 1.34700000000000E+0003
 20
 1.30700000000000E+0003
 40
 1.20000000000000E+0001
 50
 1.46195000000000E+0002
 51
 2.84475000000000E+0002
  0
LINE
  8
0
 10
 1.34999949055361E+0003
 20
 1.29538091843480E+0003
 11
 1.39500000000000E+0003
 21
 1.30700000000000E+0003
  0
LINE
  8
0
 10
 1.39500000000000E+0003
 20
 1.30700000000000E+0003
 11
 1.39500000000000E+0003
 21
 1.26500000000000E+0003
  0
LINE
  8
0
 10
 4.35000000000000E+0002
 20
 1.53500000000000E+0003
 11
 4.65000000000000E+0002
 21
 1.53500000000000E+0003
  0
ARC
  8
0
 10
-2.85000000000000E+0002
 20
 1.53500000000000E+0003
 40
 7.50000000000000E+0002
 50
 3.40811860000000E+0002
 51
 3.60000000000000E+0002
  0
LINE
  8
0
 10
 4.23333318076195E+0002
 20
 1.28849663186243E+0003
 11
 4.23333332723048E+0002
 21
 1.28849686527450E+0003
  0
ARC
  8
0
 10
 3.95000000000000E+0002
 20
 1.29835700000000E+0003
 40
 3.00000000000000E+0001
 50
 1.99188140000000E+0002
 51
 3.40811860000000E+0002
  0
LINE
  8
0
 10
 3.66666667276952E+0002
 20
 1.28849686527450E+0003
 11
 3.66666681923805E+0002
 21
 1.28849663186243E+0003
  0
ARC
  8
0
 10
 1.07500000000000E+0003
 20
 1.53500000000000E+0003
 40
 7.50000000000000E+0002
 50
 1.80000000000000E+0002
 51
 1.99188140000000E+0002
  0
LINE
  8
0
 10
 3.25000000000000E+0002
 20
 1.53500000000000E+0003
 11
 3.55000000000000E+0002
 21
 1.53500000000000E+0003
  0
ARC
  8
0
 10
 1.07500000000000E+0003
 20
 1.53500000000000E+0003
 40
 7.20000000000000E+0002
 50
 1.80000000000000E+0002
 51
 1.99188140000000E+0002
  0
LINE
  8
0
 10
 3.95000014646853E+0002
 20
 1.29835676658793E+0003
 11
 3.94999985353147E+0002
 21
 1.29835676658793E+0003
  0
ARC
  8
0
 10
-2.85000000000000E+0002
 20
 1.53500000000000E+0003
 40
 7.20000000000000E+0002
 50
 3.40811860000000E+0002
 51
 3.60000000000000E+0002
  0
ENDSEC
  0
EOF
