  0
SECTION
  2
HEADER
  9
$ACADVER
  1
AC1003
  9
$INSBASE
 10
0.0
 20
0.0
  9
$EXTMIN
 10
 7.03897201602278E-0003
 20
 0.00000000000000E+0000
  9
$EXTMAX
 10
 1.50000000000000E+0002
 20
 1.50000000000000E+0002
  9
$LIMMIN
 10
0.0
 20
0.0
  9
$LIMMAX
 10
410.0
 20
287.0
  9
$VIEWCTR
 10
227.0059616
 20
165.058879 
  9
$VIEWSIZE
 40
 1.50000000000000E+0002
9
$SNAPMODE
70
0
9
$SNAPUNIT
10
1
20
1
9
$GRIDMODE
70
0
9
$GRIDUNIT
10
1
20
1
9
$ORTHOMODE
70
0
9
$rEGENMODE
70
1
9
$FILLMODE
70
1
9
$DRAGMODE
70
2
9
$LTSCALE
40
25.0
9
$OSMODE
70
0
9
$ATTMODE
70
1
9
$TRACEWID
40
1.0
9
$TEXTSTYLE
7
STANDARD
9
$CLAYER
8
0
9
$CELTYPE
6
VONLAYER
9
$CECOLOR
62
256
9
$LUNITS
70
2
9
$LUPREC
70
2
9
$AXISMODE
70
0
9
$AXISUNIT
10
0
20
0
9
$SKETCHINC
40
1.0
9
$FILLETRAD
40
0.0
9
$AUNITS
70
0
9
$AUPREC
70
0
9
$MENU
1
ACAD
9
$ELEVATION
40
0.0
9
$THICKNESS
40
0.0
9
$VIEWDIR
10
0.0
20
0.0
30
1.0
9
$LIMCHECK
70
0
9
$BLIPMODE
70
1
9
$CHAMFERA
40
0.0
9
$CHAMFERB
40
0.0
9
$USRTIMER
70
1
9
$ANGBASE
50
0.0
9
$ANGDIR
70
0
9
$PDMODE
70
0
9
$PDSIZE
40
0.0
9
$PLINEWID
40
0.0
9
$COORDS
70
0
0
ENDSEC
0
SECTION
2
TABLES
0
TABLE
2
LTYPE
70
1
0
LTYPE
2
AUSGEZOGEN
70
64
3
Ausgezogene Linie
72
65
73
0
40
0.0
0
ENDTAB
0
TABLE
2
LAYER
70
1
0
LAYER
2
0
70
0
62
7
6
AUSGEZOGEN
0
ENDTAB
0
TABLE
2
STYLE
70
1
0
STYLE
2
STANDARD
70
0
40
0.0
41
1.0
50
0.0
71
0
42
3.5
3
txt
4

0
ENDTAB
0
TABLE
2
VIEW
70
0
0
ENDTAB
0
ENDSEC
0
SECTION
2
BLOCKS
0
ENDSEC
0
SECTION
2
ENTITIES
  0
CIRCLE
  8
0
 10
 1.09000000000000E+0001
 20
 5.63500000000000E+0001
 40
 4.90000000000000E+0000
  0
LINE
  8
0
 10
 9.08520000000000E+0000
 20
 2.78624000000000E+0001
 11
 9.10000000000000E+0000
 21
 0.00000000000000E+0000
  0
ARC
  8
0
 10
 9.10000000000000E+0000
 20
 4.85000000000000E+0000
 40
 4.85000000000000E+0000
 50
 2.70000000000000E+0002
 51
 3.60000000000000E+0002
  0
LINE
  8
0
 10
 1.39500000000000E+0001
 20
 4.85000000000000E+0000
 11
 1.39306000000000E+0001
 21
 2.18054000000000E+0001
  0
LINE
  8
0
 10
 1.39306000000000E+0001
 20
 2.18054000000000E+0001
 11
 2.60701084315310E+0001
 21
 2.43696673364133E+0000
  0
ARC
  8
0
 10
 2.35000000000000E+0001
 20
 6.55000000000000E+0000
 40
 4.85000000000000E+0000
 50
 3.02000000000000E+0002
 51
 3.92000000000000E+0002
  0
LINE
  8
0
 10
 2.76130332663587E+0001
 20
 9.12010843153104E+0000
 11
 1.87760000000000E+0001
 21
 2.31951000000000E+0001
  0
LINE
  8
0
 10
 1.87760000000000E+0001
 20
 2.31951000000000E+0001
 11
 1.87760000000000E+0001
 21
 2.78624000000000E+0001
  0
LINE
  8
0
 10
 1.87760000000000E+0001
 20
 2.78624000000000E+0001
 11
 9.08520000000000E+0000
 21
 2.78624000000000E+0001
  0
LINE
  8
0
 10
 9.08520000000000E+0000
 20
 2.90738000000000E+0001
 11
 1.87760000000000E+0001
 21
 2.90738000000000E+0001
  0
LINE
  8
0
 10
 1.87760000000000E+0001
 20
 2.90738000000000E+0001
 11
 1.87760000000000E+0001
 21
 3.82119000000000E+0001
  0
LINE
  8
0
 10
 1.87760000000000E+0001
 20
 3.82119000000000E+0001
 11
 2.52521568729911E+0001
 21
 2.78457955913352E+0001
  0
ARC
  8
0
 10
 2.30000000000000E+0001
 20
 3.14500000000000E+0001
 40
 4.25000000000000E+0000
 50
 3.02000000000000E+0002
 51
 3.92000000000000E+0002
  0
LINE
  8
0
 10
 2.66042044086648E+0001
 20
 3.37021568729911E+0001
 11
 1.80630332663587E+0001
 21
 4.73701084315310E+0001
  0
ARC
  8
0
 10
 1.39500000000000E+0001
 20
 4.48000000000000E+0001
 40
 4.85000000000000E+0000
 50
 3.20000000000000E+0001
 51
 1.80000000000000E+0002
  0
LINE
  8
0
 10
 9.10000000000000E+0000
 20
 4.48000000000000E+0001
 11
 9.08520000000000E+0000
 21
 3.93707000000000E+0001
  0
LINE
  8
0
 10
 9.08520000000000E+0000
 20
 3.93707000000000E+0001
 11
 7.03897201602278E-0003
 21
 3.39110881816323E+0001
  0
ARC
  8
0
 10
 3.65000000000000E+0000
 20
 3.61000000000000E+0001
 40
 4.25000000000000E+0000
 50
 2.11000000000000E+0002
 51
 3.01000000000000E+0002
  0
LINE
  8
0
 10
 5.83891181836773E+0000
 20
 3.24570389720160E+0001
 11
 9.08520000000000E+0000
 21
 3.44262000000000E+0001
  0
LINE
  8
0
 10
 9.08520000000000E+0000
 20
 3.44262000000000E+0001
 11
 9.08520000000000E+0000
 21
 2.90738000000000E+0001
  0
CIRCLE
  8
0
 10
 1.38250000000000E+0002
 20
 5.63500000000000E+0001
 40
 4.90000000000000E+0000
  0
LINE
  8
0
 10
 1.34154400000000E+0002
 20
 1.76067000000000E+0001
 11
 1.37675600000000E+0002
 21
 1.76067000000000E+0001
  0
LINE
  8
0
 10
 1.37675600000000E+0002
 20
 1.76067000000000E+0001
 11
 1.37650000000000E+0002
 21
 5.30000000000000E+0000
  0
ARC
  8
0
 10
 1.35900000000000E+0002
 20
 5.30000000000000E+0000
 40
 1.75000000000000E+0000
 50
 1.80000000000000E+0002
 51
 3.60000000000000E+0002
  0
LINE
  8
0
 10
 1.34150000000000E+0002
 20
 5.30000000000000E+0000
 11
 1.34154400000000E+0002
 21
 1.76067000000000E+0001
  0
LINE
  8
0
 10
 1.38849600000000E+0002
 20
 1.76067000000000E+0001
 11
 1.42370800000000E+0002
 21
 1.76067000000000E+0001
  0
LINE
  8
0
 10
 1.42370800000000E+0002
 20
 1.76067000000000E+0001
 11
 1.42350000000000E+0002
 21
 1.75000000000000E+0000
  0
ARC
  8
0
 10
 1.40600000000000E+0002
 20
 1.75000000000000E+0000
 40
 1.75000000000000E+0000
 50
 1.80000000000000E+0002
 51
 3.60000000000000E+0002
  0
LINE
  8
0
 10
 1.38850000000000E+0002
 20
 1.75000000000000E+0000
 11
 1.38849600000000E+0002
 21
 1.76067000000000E+0001
  0
LINE
  8
0
 10
 1.38262600000000E+0002
 20
 1.87804000000000E+0001
 11
 1.49986977946181E+0002
 21
 1.87748215494683E+0001
  0
ARC
  8
0
 10
 1.26500000000000E+0002
 20
 1.52500000000000E+0001
 40
 2.37500000000000E+0001
 50
 8.53500000000000E+0000
 51
 4.12200000000000E+0001
  0
LINE
  8
0
 10
 1.44364392255273E+0002
 20
 3.09001114804258E+0001
 11
 1.44354788142785E+0002
 21
 3.09253710873050E+0001
  0
ARC
  8
0
 10
 1.38250000000000E+0002
 20
 3.64000000000000E+0001
 40
 8.20000000000000E+0000
 50
 3.18115000000000E+0002
 51
 3.60000000000000E+0002
  0
LINE
  8
0
 10
 1.46450000000000E+0002
 20
 3.64000000000000E+0001
 11
 1.46450000000000E+0002
 21
 4.11000000000000E+0001
  0
ARC
  8
0
 10
 1.38250000000000E+0002
 20
 4.11000000000000E+0001
 40
 8.20000000000000E+0000
 50
 0.00000000000000E+0000
 51
 1.79995000000000E+0002
  0
LINE
  8
0
 10
 1.30050000031223E+0002
 20
 4.11007155849924E+0001
 11
 1.30050000000000E+0002
 21
 3.64000000000000E+0001
  0
ARC
  8
0
 10
 1.38250000000000E+0002
 20
 3.64000000000000E+0001
 40
 8.20000000000000E+0000
 50
 1.80000000000000E+0002
 51
 2.21885000000000E+0002
  0
LINE
  8
0
 10
 1.32145211857215E+0002
 20
 3.09253710873050E+0001
 11
 1.32135607744727E+0002
 21
 3.09001114804258E+0001
  0
ARC
  8
0
 10
 1.50000000000000E+0002
 20
 1.52500000000000E+0001
 40
 2.37500000000000E+0001
 50
 1.38780000000000E+0002
 51
 1.71465000000000E+0002
  0
LINE
  8
0
 10
 1.26513022053818E+0002
 20
 1.87748215494683E+0001
 11
 1.38262600000000E+0002
 21
 1.87804000000000E+0001
  0
LINE
  8
0
 10
 1.33558400000000E+0002
 20
 3.23928000000000E+0001
 11
 1.34356546558414E+0002
 21
 3.32302545217510E+0001
  0
ARC
  8
0
 10
 1.33550000000000E+0002
 20
 3.40500000000000E+0001
 40
 1.15000000000000E+0000
 50
 3.14535000000000E+0002
 51
 3.60000000000000E+0002
  0
LINE
  8
0
 10
 1.34700000000000E+0002
 20
 3.40500000000000E+0001
 11
 1.34750000000000E+0002
 21
 4.28500000000000E+0001
  0
ARC
  8
0
 10
 1.34150000000000E+0002
 20
 4.28500000000000E+0001
 40
 6.00000000000000E-0001
 50
 0.00000000000000E+0000
 51
 1.80000000000000E+0002
  0
LINE
  8
0
 10
 1.33550000000000E+0002
 20
 4.28500000000000E+0001
 11
 1.33558400000000E+0002
 21
 3.23928000000000E+0001
  0
LINE
  8
0
 10
 1.42957300000000E+0002
 20
 3.23928000000000E+0001
 11
 1.42143453441586E+0002
 21
 3.32302545217510E+0001
  0
ARC
  8
0
 10
 1.42950000000000E+0002
 20
 3.40500000000000E+0001
 40
 1.15000000000000E+0000
 50
 1.80000000000000E+0002
 51
 2.25465000000000E+0002
  0
LINE
  8
0
 10
 1.41800000000000E+0002
 20
 3.40500000000000E+0001
 11
 1.41750000000000E+0002
 21
 4.28500000000000E+0001
  0
ARC
  8
0
 10
 1.42350000000000E+0002
 20
 4.28500000000000E+0001
 40
 6.00000000000000E-0001
 50
 0.00000000000000E+0000
 51
 1.80000000000000E+0002
  0
LINE
  8
0
 10
 1.42950000000000E+0002
 20
 4.28500000000000E+0001
 11
 1.42957300000000E+0002
 21
 3.23928000000000E+0001
  0
LINE
  8
0
 10
 3.57786000000000E+0001
 20
 5.77800000000000E+0001
 11
 4.72584000000000E+0001
 21
 5.77800000000000E+0001
  0
LINE
  8
0
 10
 4.72584000000000E+0001
 20
 5.77800000000000E+0001
 11
 4.72500000000000E+0001
 21
 4.72500000000000E+0001
  0
ARC
  8
0
 10
 4.44000000000000E+0001
 20
 4.72500000000000E+0001
 40
 2.85000000000000E+0000
 50
 2.70000000000000E+0002
 51
 3.60000000000000E+0002
  0
LINE
  8
0
 10
 4.44000000000000E+0001
 20
 4.44000000000000E+0001
 11
 3.86500000000000E+0001
 21
 4.44000000000000E+0001
  0
ARC
  8
0
 10
 3.86500000000000E+0001
 20
 4.72500000000000E+0001
 40
 2.85000000000000E+0000
 50
 1.80000000000000E+0002
 51
 2.70000000000000E+0002
  0
LINE
  8
0
 10
 3.58000000000000E+0001
 20
 4.72500000000000E+0001
 11
 3.57786000000000E+0001
 21
 5.77800000000000E+0001
  0
ARC
  8
0
 10
 3.67500000000000E+0001
 20
 7.69000000000000E+0001
 40
 5.75000000000000E+0000
 50
 1.43115000000000E+0002
 51
 1.80000000000000E+0002
  0
LINE
  8
0
 10
 3.21509095308143E+0001
 20
 8.03512123748395E+0001
 11
 3.32865307728134E+0001
 21
 8.18487816017848E+0001
  0
ARC
  8
0
 10
 1.95500000000000E+0001
 20
 9.22000000000000E+0001
 40
 1.72000000000000E+0001
 50
 3.23000000000000E+0002
 51
 3.36500000000000E+0002
  0
LINE
  8
0
 10
 3.53234332794241E+0001
 20
 8.53415160144858E+0001
 11
 4.28486128766542E+0001
 21
 1.02765147876913E+0002
  0
ARC
  8
0
 10
 4.72500000000000E+0001
 20
 1.00850000000000E+0002
 40
 4.80000000000000E+0000
 50
 9.00000000000000E+0001
 51
 1.56485000000000E+0002
  0
LINE
  8
0
 10
 4.72500000000000E+0001
 20
 1.05650000000000E+0002
 11
 7.11749000000000E+0001
 21
 1.05612500000000E+0002
  0
LINE
  8
0
 10
 7.11749000000000E+0001
 20
 1.05612500000000E+0002
 11
 7.11749000000000E+0001
 21
 1.00829600000000E+0002
  0
LINE
  8
0
 10
 7.11749000000000E+0001
 20
 1.00829600000000E+0002
 11
 4.84000000000000E+0001
 21
 1.00800000000000E+0002
  0
ARC
  8
0
 10
 4.84000000000000E+0001
 20
 9.89000000000000E+0001
 40
 1.90000000000000E+0000
 50
 9.00000000000000E+0001
 51
 1.56500000000000E+0002
  0
LINE
  8
0
 10
 4.66575858586683E+0001
 20
 9.96576232309580E+0001
 11
 4.00839000000000E+0001
 21
 8.45665000000000E+0001
  0
LINE
  8
0
 10
 4.00839000000000E+0001
 20
 8.45665000000000E+0001
 11
 7.11749000000000E+0001
 21
 8.45665000000000E+0001
  0
LINE
  8
0
 10
 7.11749000000000E+0001
 20
 8.45665000000000E+0001
 11
 7.11749000000000E+0001
 21
 5.96936000000000E+0001
  0
LINE
  8
0
 10
 7.11749000000000E+0001
 20
 5.96936000000000E+0001
 11
 3.58000000000000E+0001
 21
 5.97000000000000E+0001
  0
ARC
  8
0
 10
 3.58000000000000E+0001
 20
 6.45000000000000E+0001
 40
 4.80000000000000E+0000
 50
 1.80000000000000E+0002
 51
 2.70000000000000E+0002
  0
LINE
  8
0
 10
 3.10000000000000E+0001
 20
 6.45000000000000E+0001
 11
 3.09961000000000E+0001
 21
 7.69133000000000E+0001
  0
CIRCLE
  8
0
 10
 4.16500000000000E+0001
 20
 7.40000000000000E+0001
 40
 5.75000000000000E+0000
  0
LINE
  8
0
 10
 1.02740900000000E+0002
 20
 5.77800000000000E+0001
 11
 1.14221000000000E+0002
 21
 5.77800000000000E+0001
  0
LINE
  8
0
 10
 1.14221000000000E+0002
 20
 5.77800000000000E+0001
 11
 1.14200000000000E+0002
 21
 4.72500000000000E+0001
  0
ARC
  8
0
 10
 1.11350000000000E+0002
 20
 4.72500000000000E+0001
 40
 2.85000000000000E+0000
 50
 2.70000000000000E+0002
 51
 3.60000000000000E+0002
  0
LINE
  8
0
 10
 1.11350000000000E+0002
 20
 4.44000000000000E+0001
 11
 1.05600000000000E+0002
 21
 4.44000000000000E+0001
  0
ARC
  8
0
 10
 1.05600000000000E+0002
 20
 4.72500000000000E+0001
 40
 2.85000000000000E+0000
 50
 1.80000000000000E+0002
 51
 2.70000000000000E+0002
  0
LINE
  8
0
 10
 1.02750000000000E+0002
 20
 4.72500000000000E+0001
 11
 1.02740900000000E+0002
 21
 5.77800000000000E+0001
  0
LINE
  8
0
 10
 7.88251000000000E+0001
 20
 1.05612500000000E+0002
 11
 7.91454000000000E+0001
 21
 1.05612500000000E+0002
  0
LINE
  8
0
 10
 7.91454000000000E+0001
 20
 1.05612500000000E+0002
 11
 1.02750000000000E+0002
 21
 1.05650000000000E+0002
  0
ARC
  8
0
 10
 1.02750000000000E+0002
 20
 1.00850000000000E+0002
 40
 4.80000000000000E+0000
 50
 2.35150000000000E+0001
 51
 9.00000000000000E+0001
  0
LINE
  8
0
 10
 1.07151387123345E+0002
 20
 1.02765147876913E+0002
 11
 1.14683115702602E+0002
 21
 8.53660570075899E+0001
  0
ARC
  8
0
 10
 1.30500000000000E+0002
 20
 9.22500000000000E+0001
 40
 1.72500000000000E+0001
 50
 2.03520000000000E+0002
 51
 2.16860000000000E+0002
  0
LINE
  8
0
 10
 1.16698212279554E+0002
 20
 8.19023840562299E+0001
 11
 1.17849090469185E+0002
 21
 8.03512123748395E+0001
  0
ARC
  8
0
 10
 1.13250000000000E+0002
 20
 7.69000000000000E+0001
 40
 5.75000000000000E+0000
 50
 0.00000000000000E+0000
 51
 3.68850000000000E+0001
  0
LINE
  8
0
 10
 1.19000000000000E+0002
 20
 7.69000000000000E+0001
 11
 1.19000000000000E+0002
 21
 6.45000000000000E+0001
  0
ARC
  8
0
 10
 1.14200000000000E+0002
 20
 6.45000000000000E+0001
 40
 4.80000000000000E+0000
 50
 2.70000000000000E+0002
 51
 3.60000000000000E+0002
  0
LINE
  8
0
 10
 1.14200000000000E+0002
 20
 5.97000000000000E+0001
 11
 7.89418000000000E+0001
 21
 5.96936000000000E+0001
  0
LINE
  8
0
 10
 7.89418000000000E+0001
 20
 5.96936000000000E+0001
 11
 7.88251000000000E+0001
 21
 5.96936000000000E+0001
  0
LINE
  8
0
 10
 7.88251000000000E+0001
 20
 5.96936000000000E+0001
 11
 7.88251000000000E+0001
 21
 8.45665000000000E+0001
  0
LINE
  8
0
 10
 7.88251000000000E+0001
 20
 8.45665000000000E+0001
 11
 7.90520000000000E+0001
 21
 8.45665000000000E+0001
  0
LINE
  8
0
 10
 7.90520000000000E+0001
 20
 8.45665000000000E+0001
 11
 1.09916100000000E+0002
 21
 8.45665000000000E+0001
  0
LINE
  8
0
 10
 1.09916100000000E+0002
 20
 8.45665000000000E+0001
 11
 1.03342414141331E+0002
 21
 9.96576232309580E+0001
  0
ARC
  8
0
 10
 1.01600000000000E+0002
 20
 9.89000000000000E+0001
 40
 1.90000000000000E+0000
 50
 2.35000000000000E+0001
 51
 9.00000000000000E+0001
  0
LINE
  8
0
 10
 1.01600000000000E+0002
 20
 1.00800000000000E+0002
 11
 7.91239000000000E+0001
 21
 1.00829600000000E+0002
  0
LINE
  8
0
 10
 7.91239000000000E+0001
 20
 1.00829600000000E+0002
 11
 7.88251000000000E+0001
 21
 1.00829600000000E+0002
  0
LINE
  8
0
 10
 7.88251000000000E+0001
 20
 1.00829600000000E+0002
 11
 7.88251000000000E+0001
 21
 1.05612500000000E+0002
  0
CIRCLE
  8
0
 10
 1.08500000000000E+0002
 20
 7.40000000000000E+0001
 40
 5.75000000000000E+0000
  0
CIRCLE
  8
0
 10
 1.17500000000000E+0001
 20
 1.45100000000000E+0002
 40
 4.85000000000000E+0000
  0
LINE
  8
0
 10
 1.11504000000000E+0001
 20
 1.06390100000000E+0002
 11
 7.62920000000000E+0000
 21
 1.06390100000000E+0002
  0
LINE
  8
0
 10
 7.62920000000000E+0000
 20
 1.06390100000000E+0002
 11
 7.65000000000000E+0000
 21
 9.00000000000000E+0001
  0
ARC
  8
0
 10
 9.40000000000000E+0000
 20
 9.00000000000000E+0001
 40
 1.75000000000000E+0000
 50
 1.80000000000000E+0002
 51
 3.60000000000000E+0002
  0
LINE
  8
0
 10
 1.11500000000000E+0001
 20
 9.00000000000000E+0001
 11
 1.11504000000000E+0001
 21
 1.06390100000000E+0002
  0
LINE
  8
0
 10
 1.58456000000000E+0001
 20
 1.06390100000000E+0002
 11
 1.23244000000000E+0001
 21
 1.06390100000000E+0002
  0
LINE
  8
0
 10
 1.23244000000000E+0001
 20
 1.06390100000000E+0002
 11
 1.23500000000000E+0001
 21
 9.40000000000000E+0001
  0
ARC
  8
0
 10
 1.41000000000000E+0001
 20
 9.40000000000000E+0001
 40
 1.75000000000000E+0000
 50
 1.80000000000000E+0002
 51
 3.60000000000000E+0002
  0
LINE
  8
0
 10
 1.58500000000000E+0001
 20
 9.40000000000000E+0001
 11
 1.58456000000000E+0001
 21
 1.06390100000000E+0002
  0
LINE
  8
0
 10
 1.17374000000000E+0001
 20
 1.07563800000000E+0002
 11
 1.30220538187658E-0002
 21
 1.07574821549468E+0002
  0
ARC
  8
0
 10
 2.35000000000000E+0001
 20
 1.04050000000000E+0002
 40
 2.37500000000000E+0001
 50
 1.38780000000000E+0002
 51
 1.71465000000000E+0002
  0
LINE
  8
0
 10
 5.63560774472735E+0000
 20
 1.19700111480425E+0002
 11
 5.64521185721535E+0000
 21
 1.19675371087305E+0002
  0
ARC
  8
0
 10
 1.17500000000000E+0001
 20
 1.25150000000000E+0002
 40
 8.20000000000000E+0000
 50
 1.80000000000000E+0002
 51
 2.21885000000000E+0002
  0
LINE
  8
0
 10
 3.55000000000000E+0000
 20
 1.25150000000000E+0002
 11
 3.55000000000000E+0000
 21
 1.29850000000000E+0002
  0
ARC
  8
0
 10
 1.17500000000000E+0001
 20
 1.29850000000000E+0002
 40
 8.20000000000000E+0000
 50
 0.00000000000000E+0000
 51
 1.80000000000000E+0002
  0
LINE
  8
0
 10
 1.99500000000000E+0001
 20
 1.29850000000000E+0002
 11
 1.99500000000000E+0001
 21
 1.25150000000000E+0002
  0
ARC
  8
0
 10
 1.17500000000000E+0001
 20
 1.25150000000000E+0002
 40
 8.20000000000000E+0000
 50
 3.18115000000000E+0002
 51
 3.60000000000000E+0002
  0
LINE
  8
0
 10
 1.78547881427847E+0001
 20
 1.19675371087305E+0002
 11
 1.78643922552726E+0001
 21
 1.19700111480425E+0002
  0
ARC
  8
0
 10
 0.00000000000000E+0000
 20
 1.04050000000000E+0002
 40
 2.37500000000000E+0001
 50
 8.53500000000000E+0000
 51
 4.12200000000000E+0001
  0
LINE
  8
0
 10
 2.34869779461812E+0001
 20
 1.07574821549468E+0002
 11
 1.17374000000000E+0001
 21
 1.07563800000000E+0002
  0
LINE
  8
0
 10
 7.04280000000000E+0000
 20
 1.21176200000000E+0002
 11
 7.85640347355458E+0000
 21
 1.21980113765307E+0002
  0
ARC
  8
0
 10
 7.05000000000000E+0000
 20
 1.22800000000000E+0002
 40
 1.15000000000000E+0000
 50
 3.14525000000000E+0002
 51
 3.60000000000000E+0002
  0
LINE
  8
0
 10
 8.20000000000000E+0000
 20
 1.22800000000000E+0002
 11
 8.25000000000000E+0000
 21
 1.31650000000000E+0002
  0
ARC
  8
0
 10
 7.65000000000000E+0000
 20
 1.31650000000000E+0002
 40
 6.00000000000000E-0001
 50
 0.00000000000000E+0000
 51
 1.80000000000000E+0002
  0
LINE
  8
0
 10
 7.05000000000000E+0000
 20
 1.31650000000000E+0002
 11
 7.04280000000000E+0000
 21
 1.21176200000000E+0002
  0
LINE
  8
0
 10
 1.64416000000000E+0001
 20
 1.21176200000000E+0002
 11
 1.56435965264454E+0001
 21
 1.21980113765307E+0002
  0
ARC
  8
0
 10
 1.64500000000000E+0001
 20
 1.22800000000000E+0002
 40
 1.15000000000000E+0000
 50
 1.80000000000000E+0002
 51
 2.25475000000000E+0002
  0
LINE
  8
0
 10
 1.53000000000000E+0001
 20
 1.22800000000000E+0002
 11
 1.52500000000000E+0001
 21
 1.31650000000000E+0002
  0
ARC
  8
0
 10
 1.58500000000000E+0001
 20
 1.31650000000000E+0002
 40
 6.00000000000000E-0001
 50
 0.00000000000000E+0000
 51
 1.80000000000000E+0002
  0
LINE
  8
0
 10
 1.64500000000000E+0001
 20
 1.31650000000000E+0002
 11
 1.64416000000000E+0001
 21
 1.21176200000000E+0002
  0
CIRCLE
  8
0
 10
 1.32600000000000E+0002
 20
 1.45100000000000E+0002
 40
 4.90000000000000E+0000
  0
LINE
  8
0
 10
 1.30763700000000E+0002
 20
 1.16657000000000E+0002
 11
 1.30750000000000E+0002
 21
 8.88000000000000E+0001
  0
ARC
  8
0
 10
 1.30750000000000E+0002
 20
 9.36500000000000E+0001
 40
 4.85000000000000E+0000
 50
 2.70000000000000E+0002
 51
 3.60000000000000E+0002
  0
LINE
  8
0
 10
 1.35600000000000E+0002
 20
 9.36500000000000E+0001
 11
 1.35609100000000E+0002
 21
 1.10600000000000E+0002
  0
LINE
  8
0
 10
 1.35609100000000E+0002
 20
 1.10600000000000E+0002
 11
 1.47720108431531E+0002
 21
 9.12369667336413E+0001
  0
ARC
  8
0
 10
 1.45150000000000E+0002
 20
 9.53500000000000E+0001
 40
 4.85000000000000E+0000
 50
 3.02000000000000E+0002
 51
 3.92000000000000E+0002
  0
LINE
  8
0
 10
 1.49263033266359E+0002
 20
 9.79201084315310E+0001
 11
 1.40454600000000E+0002
 21
 1.11989700000000E+0002
  0
LINE
  8
0
 10
 1.40454600000000E+0002
 20
 1.11989700000000E+0002
 11
 1.40454600000000E+0002
 21
 1.16657000000000E+0002
  0
LINE
  8
0
 10
 1.40454600000000E+0002
 20
 1.16657000000000E+0002
 11
 1.30763700000000E+0002
 21
 1.16657000000000E+0002
  0
LINE
  8
0
 10
 1.30763700000000E+0002
 20
 1.17868400000000E+0002
 11
 1.40454600000000E+0002
 21
 1.17868400000000E+0002
  0
LINE
  8
0
 10
 1.40454600000000E+0002
 20
 1.17868400000000E+0002
 11
 1.40454600000000E+0002
 21
 1.27006500000000E+0002
  0
LINE
  8
0
 10
 1.40454600000000E+0002
 20
 1.27006500000000E+0002
 11
 1.46952156872991E+0002
 21
 1.16645795591335E+0002
  0
ARC
  8
0
 10
 1.44700000000000E+0002
 20
 1.20250000000000E+0002
 40
 4.25000000000000E+0000
 50
 3.02000000000000E+0002
 51
 3.92000000000000E+0002
  0
LINE
  8
0
 10
 1.48304204408665E+0002
 20
 1.22502156872991E+0002
 11
 1.39713033266359E+0002
 21
 1.36170108431531E+0002
  0
ARC
  8
0
 10
 1.35600000000000E+0002
 20
 1.33600000000000E+0002
 40
 4.85000000000000E+0000
 50
 3.20000000000000E+0001
 51
 1.80000000000000E+0002
  0
LINE
  8
0
 10
 1.30750000000000E+0002
 20
 1.33600000000000E+0002
 11
 1.30763700000000E+0002
 21
 1.28165300000000E+0002
  0
LINE
  8
0
 10
 1.30763700000000E+0002
 20
 1.28165300000000E+0002
 11
 1.21655702521656E+0002
 21
 1.22713313948153E+0002
  0
ARC
  8
0
 10
 1.25300000000000E+0002
 20
 1.24900000000000E+0002
 40
 4.25000000000000E+0000
 50
 2.10965000000000E+0002
 51
 3.00955000000000E+0002
  0
LINE
  8
0
 10
 1.27486049968645E+0002
 20
 1.21255320928451E+0002
 11
 1.30763700000000E+0002
 21
 1.23220800000000E+0002
  0
LINE
  8
0
 10
 1.30763700000000E+0002
 20
 1.23220800000000E+0002
 11
 1.30763700000000E+0002
 21
 1.17868400000000E+0002
  0
ENDSEC
  0
EOF
