  0
SECTION
  2
HEADER
  9
$ACADVER
  1
AC1003
  9
$INSBASE
 10
0.0
 20
0.0
  9
$EXTMIN
 10
-1.25391560288675E+0002
 20
 1.15000000000000E+0002
  9
$EXTMAX
 10
 1.38123200000000E+0002
 20
 3.66721600000000E+0002
  9
$LIMMIN
 10
0.0
 20
0.0
  9
$LIMMAX
 10
410.0
 20
287.0
  9
$VIEWCTR
 10
227.0059616
 20
165.058879 
  9
$VIEWSIZE
 40
 2.63514760288675E+0002
9
$SNAPMODE
70
0
9
$SNAPUNIT
10
1
20
1
9
$GRIDMODE
70
0
9
$GRIDUNIT
10
1
20
1
9
$ORTHOMODE
70
0
9
$rEGENMODE
70
1
9
$FILLMODE
70
1
9
$DRAGMODE
70
2
9
$LTSCALE
40
25.0
9
$OSMODE
70
0
9
$ATTMODE
70
1
9
$TRACEWID
40
1.0
9
$TEXTSTYLE
7
STANDARD
9
$CLAYER
8
0
9
$CELTYPE
6
VONLAYER
9
$CECOLOR
62
256
9
$LUNITS
70
2
9
$LUPREC
70
2
9
$AXISMODE
70
0
9
$AXISUNIT
10
0
20
0
9
$SKETCHINC
40
1.0
9
$FILLETRAD
40
0.0
9
$AUNITS
70
0
9
$AUPREC
70
0
9
$MENU
1
ACAD
9
$ELEVATION
40
0.0
9
$THICKNESS
40
0.0
9
$VIEWDIR
10
0.0
20
0.0
30
1.0
9
$LIMCHECK
70
0
9
$BLIPMODE
70
1
9
$CHAMFERA
40
0.0
9
$CHAMFERB
40
0.0
9
$USRTIMER
70
1
9
$ANGBASE
50
0.0
9
$ANGDIR
70
0
9
$PDMODE
70
0
9
$PDSIZE
40
0.0
9
$PLINEWID
40
0.0
9
$COORDS
70
0
0
ENDSEC
0
SECTION
2
TABLES
0
TABLE
2
LTYPE
70
1
0
LTYPE
2
AUSGEZOGEN
70
64
3
Ausgezogene Linie
72
65
73
0
40
0.0
0
ENDTAB
0
TABLE
2
LAYER
70
1
0
LAYER
2
0
70
0
62
7
6
AUSGEZOGEN
0
ENDTAB
0
TABLE
2
STYLE
70
1
0
STYLE
2
STANDARD
70
0
40
0.0
41
1.0
50
0.0
71
0
42
3.5
3
txt
4

0
ENDTAB
0
TABLE
2
VIEW
70
0
0
ENDTAB
0
ENDSEC
0
SECTION
2
BLOCKS
0
ENDSEC
0
SECTION
2
ENTITIES
  0
LINE
  8
0
 10
-4.62753000000000E+0001
 20
 1.28239200000000E+0002
 11
-2.33444000000000E+0001
 21
 1.15000000000000E+0002
  0
LINE
  8
0
 10
-2.33444000000000E+0001
 20
 1.15000000000000E+0002
 11
-7.64400000000000E+0000
 21
 2.48107600000000E+0002
  0
LINE
  8
0
 10
-7.64400000000000E+0000
 20
 2.48107600000000E+0002
 11
 7.23073000000000E+0001
 21
 2.06533800000000E+0002
  0
LINE
  8
0
 10
 7.23073000000000E+0001
 20
 2.06533800000000E+0002
 11
 7.67034000000000E+0001
 21
 1.61191300000000E+0002
  0
LINE
  8
0
 10
 7.67034000000000E+0001
 20
 1.61191300000000E+0002
 11
 9.04620000000000E+0001
 21
 1.53247800000000E+0002
  0
LINE
  8
0
 10
 9.04620000000000E+0001
 20
 1.53247800000000E+0002
 11
 1.05120200000000E+0002
 21
 1.99819200000000E+0002
  0
LINE
  8
0
 10
 1.05120200000000E+0002
 20
 1.99819200000000E+0002
 11
 1.38123200000000E+0002
 21
 2.35799300000000E+0002
  0
LINE
  8
0
 10
 1.38123200000000E+0002
 20
 2.35799300000000E+0002
 11
 1.24364500000000E+0002
 21
 2.43742800000000E+0002
  0
LINE
  8
0
 10
 1.24364500000000E+0002
 20
 2.43742800000000E+0002
 11
 8.28987000000000E+0001
 21
 2.24878700000000E+0002
  0
LINE
  8
0
 10
 8.28987000000000E+0001
 20
 2.24878700000000E+0002
 11
 6.91910000000000E+0000
 21
 2.73331700000000E+0002
  0
LINE
  8
0
 10
 6.91910000000000E+0000
 20
 2.73331700000000E+0002
 11
 1.14343500000000E+0002
 21
 3.53482400000000E+0002
  0
LINE
  8
0
 10
 1.14343500000000E+0002
 20
 3.53482400000000E+0002
 11
 9.14125000000000E+0001
 21
 3.66721600000000E+0002
  0
LINE
  8
0
 10
 9.14125000000000E+0001
 20
 3.66721600000000E+0002
 11
-4.64262466798913E+0001
 21
 3.06699083723691E+0002
  0
ARC
  8
0
 10
-1.31746270000000E+0003
 20
-1.80344180000000E+0003
 40
 2.46337740000000E+0003
 50
 5.89374800000000E+0001
 51
 6.00000000000000E+0001
  0
LINE
  8
0
 10
-8.57740000000001E+0001
 20
 3.29905607508461E+0002
 11
-8.57741000000000E+0001
 21
 3.29905563224534E+0002
  0
LINE
  8
0
 10
-8.57741000000000E+0001
 20
 3.29905563224534E+0002
 11
-8.62682211471305E+0001
 21
 3.30188181713814E+0002
  0
LINE
  8
0
 10
-8.62682211471305E+0001
 20
 3.30188181713814E+0002
 11
-8.67627045384937E+0001
 21
 3.30465711646941E+0002
  0
LINE
  8
0
 10
-8.67627045384937E+0001
 20
 3.30465711646941E+0002
 11
-8.72574710807239E+0001
 21
 3.30738148276486E+0002
  0
LINE
  8
0
 10
-8.72574710807239E+0001
 20
 3.30738148276486E+0002
 11
-8.77524416804557E+0001
 21
 3.31005486855022E+0002
  0
LINE
  8
0
 10
-8.77524416804557E+0001
 20
 3.31005486855022E+0002
 11
-8.82475372443234E+0001
 21
 3.31267722635119E+0002
  0
LINE
  8
0
 10
-8.82475372443234E+0001
 20
 3.31267722635119E+0002
 11
-8.87426786789615E+0001
 21
 3.31524850869349E+0002
  0
LINE
  8
0
 10
-8.87426786789615E+0001
 20
 3.31524850869349E+0002
 11
-8.92377868910042E+0001
 21
 3.31776866810283E+0002
  0
LINE
  8
0
 10
-8.92377868910042E+0001
 20
 3.31776866810283E+0002
 11
-8.97327827870862E+0001
 21
 3.32023765710494E+0002
  0
LINE
  8
0
 10
-8.97327827870862E+0001
 20
 3.32023765710494E+0002
 11
-9.02275872738417E+0001
 21
 3.32265542822551E+0002
  0
LINE
  8
0
 10
-9.02275872738417E+0001
 20
 3.32265542822551E+0002
 11
-9.07221212579052E+0001
 21
 3.32502193399028E+0002
  0
LINE
  8
0
 10
-9.07221212579052E+0001
 20
 3.32502193399028E+0002
 11
-9.12163056459111E+0001
 21
 3.32733712692494E+0002
  0
LINE
  8
0
 10
-9.12163056459111E+0001
 20
 3.32733712692494E+0002
 11
-9.17100613444938E+0001
 21
 3.32960095955522E+0002
  0
LINE
  8
0
 10
-9.17100613444938E+0001
 20
 3.32960095955522E+0002
 11
-9.22033092602877E+0001
 21
 3.33181338440684E+0002
  0
LINE
  8
0
 10
-9.22033092602877E+0001
 20
 3.33181338440684E+0002
 11
-9.26959702999272E+0001
 21
 3.33397435400550E+0002
  0
LINE
  8
0
 10
-9.26959702999272E+0001
 20
 3.33397435400550E+0002
 11
-9.31879653700467E+0001
 21
 3.33608382087691E+0002
  0
LINE
  8
0
 10
-9.31879653700467E+0001
 20
 3.33608382087691E+0002
 11
-9.36792153772807E+0001
 21
 3.33814173754681E+0002
  0
LINE
  8
0
 10
-9.36792153772807E+0001
 20
 3.33814173754681E+0002
 11
-9.41696412282635E+0001
 21
 3.34014805654089E+0002
  0
LINE
  8
0
 10
-9.41696412282635E+0001
 20
 3.34014805654089E+0002
 11
-9.46591638296296E+0001
 21
 3.34210273038488E+0002
  0
LINE
  8
0
 10
-9.46591638296296E+0001
 20
 3.34210273038488E+0002
 11
-9.51477040880134E+0001
 21
 3.34400571160449E+0002
  0
LINE
  8
0
 10
-9.51477040880134E+0001
 20
 3.34400571160449E+0002
 11
-9.56351829100492E+0001
 21
 3.34585695272542E+0002
  0
LINE
  8
0
 10
-9.56351829100492E+0001
 20
 3.34585695272542E+0002
 11
-9.61215212023716E+0001
 21
 3.34765640627341E+0002
  0
LINE
  8
0
 10
-9.61215212023716E+0001
 20
 3.34765640627341E+0002
 11
-9.66066398716148E+0001
 21
 3.34940402477416E+0002
  0
LINE
  8
0
 10
-9.66066398716148E+0001
 20
 3.34940402477416E+0002
 11
-9.70904598244134E+0001
 21
 3.35109976075338E+0002
  0
LINE
  8
0
 10
-9.70904598244134E+0001
 20
 3.35109976075338E+0002
 11
-9.75729019674016E+0001
 21
 3.35274356673680E+0002
  0
LINE
  8
0
 10
-9.75729019674016E+0001
 20
 3.35274356673680E+0002
 11
-9.80538872072141E+0001
 21
 3.35433539525012E+0002
  0
LINE
  8
0
 10
-9.80538872072141E+0001
 20
 3.35433539525012E+0002
 11
-9.85333364504850E+0001
 21
 3.35587519881907E+0002
  0
LINE
  8
0
 10
-9.85333364504850E+0001
 20
 3.35587519881907E+0002
 11
-9.90111706038490E+0001
 21
 3.35736292996934E+0002
  0
LINE
  8
0
 10
-9.90111706038490E+0001
 20
 3.35736292996934E+0002
 11
-9.94873105739402E+0001
 21
 3.35879854122667E+0002
  0
LINE
  8
0
 10
-9.94873105739402E+0001
 20
 3.35879854122667E+0002
 11
-9.99616772673933E+0001
 21
 3.36018198511676E+0002
  0
LINE
  8
0
 10
-9.99616772673933E+0001
 20
 3.36018198511676E+0002
 11
-1.00434191590842E+0002
 21
 3.36151321416533E+0002
  0
LINE
  8
0
 10
-1.00434191590842E+0002
 20
 3.36151321416533E+0002
 11
-1.00904774450922E+0002
 21
 3.36279218089809E+0002
  0
LINE
  8
0
 10
-1.00904774450922E+0002
 20
 3.36279218089809E+0002
 11
-1.01373346754267E+0002
 21
 3.36401883784077E+0002
  0
LINE
  8
0
 10
-1.01373346754267E+0002
 20
 3.36401883784077E+0002
 11
-1.01839829407511E+0002
 21
 3.36519313751906E+0002
  0
LINE
  8
0
 10
-1.01839829407511E+0002
 20
 3.36519313751906E+0002
 11
-1.02304143317289E+0002
 21
 3.36631503245869E+0002
  0
LINE
  8
0
 10
-1.02304143317289E+0002
 20
 3.36631503245869E+0002
 11
-1.02766209390236E+0002
 21
 3.36738447518537E+0002
  0
LINE
  8
0
 10
-1.02766209390236E+0002
 20
 3.36738447518537E+0002
 11
-1.03225948532985E+0002
 21
 3.36840141822481E+0002
  0
LINE
  8
0
 10
-1.03225948532985E+0002
 20
 3.36840141822481E+0002
 11
-1.03683281652171E+0002
 21
 3.36936581410274E+0002
  0
LINE
  8
0
 10
-1.03683281652171E+0002
 20
 3.36936581410274E+0002
 11
-1.04138129654428E+0002
 21
 3.37027761534486E+0002
  0
LINE
  8
0
 10
-1.04138129654428E+0002
 20
 3.37027761534486E+0002
 11
-1.04590413446392E+0002
 21
 3.37113677447689E+0002
  0
LINE
  8
0
 10
-1.04590413446392E+0002
 20
 3.37113677447689E+0002
 11
-1.05040053934695E+0002
 21
 3.37194324402455E+0002
  0
LINE
  8
0
 10
-1.05040053934695E+0002
 20
 3.37194324402455E+0002
 11
-1.05486972025974E+0002
 21
 3.37269697651354E+0002
  0
LINE
  8
0
 10
-1.05486972025974E+0002
 20
 3.37269697651354E+0002
 11
-1.05931088626861E+0002
 21
 3.37339792446959E+0002
  0
LINE
  8
0
 10
-1.05931088626861E+0002
 20
 3.37339792446959E+0002
 11
-1.06372324643993E+0002
 21
 3.37404604041840E+0002
  0
LINE
  8
0
 10
-1.06372324643993E+0002
 20
 3.37404604041840E+0002
 11
-1.06810600984002E+0002
 21
 3.37464127688570E+0002
  0
LINE
  8
0
 10
-1.06810600984002E+0002
 20
 3.37464127688570E+0002
 11
-1.07245838553523E+0002
 21
 3.37518358639719E+0002
  0
LINE
  8
0
 10
-1.07245838553523E+0002
 20
 3.37518358639719E+0002
 11
-1.07677958259191E+0002
 21
 3.37567292147860E+0002
  0
LINE
  8
0
 10
-1.07677958259191E+0002
 20
 3.37567292147860E+0002
 11
-1.08106881007640E+0002
 21
 3.37610923465563E+0002
  0
LINE
  8
0
 10
-1.08106881007640E+0002
 20
 3.37610923465563E+0002
 11
-1.08532527705505E+0002
 21
 3.37649247845400E+0002
  0
LINE
  8
0
 10
-1.08532527705505E+0002
 20
 3.37649247845400E+0002
 11
-1.08954819259420E+0002
 21
 3.37682260539942E+0002
  0
LINE
  8
0
 10
-1.08954819259420E+0002
 20
 3.37682260539942E+0002
 11
-1.09373676576019E+0002
 21
 3.37709956801762E+0002
  0
LINE
  8
0
 10
-1.09373676576019E+0002
 20
 3.37709956801762E+0002
 11
-1.09789020561937E+0002
 21
 3.37732331883430E+0002
  0
LINE
  8
0
 10
-1.09789020561937E+0002
 20
 3.37732331883430E+0002
 11
-1.10200772123809E+0002
 21
 3.37749381037518E+0002
  0
LINE
  8
0
 10
-1.10200772123809E+0002
 20
 3.37749381037518E+0002
 11
-1.10608852168268E+0002
 21
 3.37761099516597E+0002
  0
LINE
  8
0
 10
-1.10608852168268E+0002
 20
 3.37761099516597E+0002
 11
-1.11013181601949E+0002
 21
 3.37767482573239E+0002
  0
LINE
  8
0
 10
-1.11013181601949E+0002
 20
 3.37767482573239E+0002
 11
-1.11413681331486E+0002
 21
 3.37768525460015E+0002
  0
LINE
  8
0
 10
-1.11413681331486E+0002
 20
 3.37768525460015E+0002
 11
-1.11810272263514E+0002
 21
 3.37764223429497E+0002
  0
LINE
  8
0
 10
-1.11810272263514E+0002
 20
 3.37764223429497E+0002
 11
-1.12202875304668E+0002
 21
 3.37754571734255E+0002
  0
LINE
  8
0
 10
-1.12202875304668E+0002
 20
 3.37754571734255E+0002
 11
-1.12591411361581E+0002
 21
 3.37739565626863E+0002
  0
LINE
  8
0
 10
-1.12591411361581E+0002
 20
 3.37739565626863E+0002
 11
-1.12975801340889E+0002
 21
 3.37719200359890E+0002
  0
LINE
  8
0
 10
-1.12975801340889E+0002
 20
 3.37719200359890E+0002
 11
-1.13355966149224E+0002
 21
 3.37693471185910E+0002
  0
LINE
  8
0
 10
-1.13355966149224E+0002
 20
 3.37693471185910E+0002
 11
-1.13731826693223E+0002
 21
 3.37662373357492E+0002
  0
LINE
  8
0
 10
-1.13731826693223E+0002
 20
 3.37662373357492E+0002
 11
-1.14103303879519E+0002
 21
 3.37625902127208E+0002
  0
LINE
  8
0
 10
-1.14103303879519E+0002
 20
 3.37625902127208E+0002
 11
-1.14470318614747E+0002
 21
 3.37584052747630E+0002
  0
LINE
  8
0
 10
-1.14470318614747E+0002
 20
 3.37584052747630E+0002
 11
-1.14832791805541E+0002
 21
 3.37536820471330E+0002
  0
LINE
  8
0
 10
-1.14832791805541E+0002
 20
 3.37536820471330E+0002
 11
-1.15190644358536E+0002
 21
 3.37484200550878E+0002
  0
LINE
  8
0
 10
-1.15190644358536E+0002
 20
 3.37484200550878E+0002
 11
-1.15543797180365E+0002
 21
 3.37426188238847E+0002
  0
LINE
  8
0
 10
-1.15543797180365E+0002
 20
 3.37426188238847E+0002
 11
-1.15892171177664E+0002
 21
 3.37362778787807E+0002
  0
LINE
  8
0
 10
-1.15892171177664E+0002
 20
 3.37362778787807E+0002
 11
-1.16235687257067E+0002
 21
 3.37293967450330E+0002
  0
LINE
  8
0
 10
-1.16235687257067E+0002
 20
 3.37293967450330E+0002
 11
-1.16574266325208E+0002
 21
 3.37219749478988E+0002
  0
LINE
  8
0
 10
-1.16574266325208E+0002
 20
 3.37219749478988E+0002
 11
-1.16907829288721E+0002
 21
 3.37140120126352E+0002
  0
LINE
  8
0
 10
-1.16907829288721E+0002
 20
 3.37140120126352E+0002
 11
-1.17236297054242E+0002
 21
 3.37055074644994E+0002
  0
LINE
  8
0
 10
-1.17236297054242E+0002
 20
 3.37055074644994E+0002
 11
-1.17559590528404E+0002
 21
 3.36964608287484E+0002
  0
LINE
  8
0
 10
-1.17559590528404E+0002
 20
 3.36964608287484E+0002
 11
-1.17877630617841E+0002
 21
 3.36868716306395E+0002
  0
LINE
  8
0
 10
-1.17877630617841E+0002
 20
 3.36868716306395E+0002
 11
-1.18190338229189E+0002
 21
 3.36767393954298E+0002
  0
LINE
  8
0
 10
-1.18190338229189E+0002
 20
 3.36767393954298E+0002
 11
-1.18497634269082E+0002
 21
 3.36660636483764E+0002
  0
LINE
  8
0
 10
-1.18497634269082E+0002
 20
 3.36660636483764E+0002
 11
-1.18799439644154E+0002
 21
 3.36548439147365E+0002
  0
LINE
  8
0
 10
-1.18799439644154E+0002
 20
 3.36548439147365E+0002
 11
-1.19095675261039E+0002
 21
 3.36430797197672E+0002
  0
LINE
  8
0
 10
-1.19095675261039E+0002
 20
 3.36430797197672E+0002
 11
-1.19386262026372E+0002
 21
 3.36307705887257E+0002
  0
LINE
  8
0
 10
-1.19386262026372E+0002
 20
 3.36307705887257E+0002
 11
-1.19671120846788E+0002
 21
 3.36179160468691E+0002
  0
LINE
  8
0
 10
-1.19671120846788E+0002
 20
 3.36179160468691E+0002
 11
-1.19950172628920E+0002
 21
 3.36045156194545E+0002
  0
LINE
  8
0
 10
-1.19950172628920E+0002
 20
 3.36045156194545E+0002
 11
-1.20223338279403E+0002
 21
 3.35905688317392E+0002
  0
LINE
  8
0
 10
-1.20223338279403E+0002
 20
 3.35905688317392E+0002
 11
-1.20490538704872E+0002
 21
 3.35760752089802E+0002
  0
LINE
  8
0
 10
-1.20490538704872E+0002
 20
 3.35760752089802E+0002
 11
-1.20751694811961E+0002
 21
 3.35610342764347E+0002
  0
LINE
  8
0
 10
-1.20751694811961E+0002
 20
 3.35610342764347E+0002
 11
-1.21006727507304E+0002
 21
 3.35454455593598E+0002
  0
LINE
  8
0
 10
-1.21006727507304E+0002
 20
 3.35454455593598E+0002
 11
-1.21255557697536E+0002
 21
 3.35293085830127E+0002
  0
LINE
  8
0
 10
-1.21255557697536E+0002
 20
 3.35293085830127E+0002
 11
-1.21498106289291E+0002
 21
 3.35126228726506E+0002
  0
LINE
  8
0
 10
-1.21498106289291E+0002
 20
 3.35126228726506E+0002
 11
-1.21734294189204E+0002
 21
 3.34953879535305E+0002
  0
LINE
  8
0
 10
-1.21734294189204E+0002
 20
 3.34953879535305E+0002
 11
-1.21964042303909E+0002
 21
 3.34776033509097E+0002
  0
LINE
  8
0
 10
-1.21964042303909E+0002
 20
 3.34776033509097E+0002
 11
-1.22187271540040E+0002
 21
 3.34592685900452E+0002
  0
LINE
  8
0
 10
-1.22187271540040E+0002
 20
 3.34592685900452E+0002
 11
-1.22403902804232E+0002
 21
 3.34403831961943E+0002
  0
LINE
  8
0
 10
-1.22403902804232E+0002
 20
 3.34403831961943E+0002
 11
-1.22613857003119E+0002
 21
 3.34209466946140E+0002
  0
LINE
  8
0
 10
-1.22613857003119E+0002
 20
 3.34209466946140E+0002
 11
-1.22817055043336E+0002
 21
 3.34009586105615E+0002
  0
LINE
  8
0
 10
-1.22817055043336E+0002
 20
 3.34009586105615E+0002
 11
-1.23013417831517E+0002
 21
 3.33804184692939E+0002
  0
LINE
  8
0
 10
-1.23013417831517E+0002
 20
 3.33804184692939E+0002
 11
-1.23202866274296E+0002
 21
 3.33593257960685E+0002
  0
LINE
  8
0
 10
-1.23202866274296E+0002
 20
 3.33593257960685E+0002
 11
-1.23385321278309E+0002
 21
 3.33376801161423E+0002
  0
LINE
  8
0
 10
-1.23385321278309E+0002
 20
 3.33376801161423E+0002
 11
-1.23560703750188E+0002
 21
 3.33154809547725E+0002
  0
LINE
  8
0
 10
-1.23560703750188E+0002
 20
 3.33154809547725E+0002
 11
-1.23728934596569E+0002
 21
 3.32927278372162E+0002
  0
LINE
  8
0
 10
-1.23728934596569E+0002
 20
 3.32927278372162E+0002
 11
-1.23889934724087E+0002
 21
 3.32694202887306E+0002
  0
LINE
  8
0
 10
-1.23889934724087E+0002
 20
 3.32694202887306E+0002
 11
-1.24043625039375E+0002
 21
 3.32455578345728E+0002
  0
LINE
  8
0
 10
-1.24043625039375E+0002
 20
 3.32455578345728E+0002
 11
-1.24189926449067E+0002
 21
 3.32211400000000E+0002
  0
LINE
  8
0
 10
-1.24189926449067E+0002
 20
 3.32211400000000E+0002
 11
-1.24189926449067E+0002
 21
 3.32211400000000E+0002
  0
LINE
  8
0
 10
-1.24189926449067E+0002
 20
 3.32211400000000E+0002
 11
-1.24328240394676E+0002
 21
 3.31962610089732E+0002
  0
LINE
  8
0
 10
-1.24328240394676E+0002
 20
 3.31962610089732E+0002
 11
-1.24458050152005E+0002
 21
 3.31710198101589E+0002
  0
LINE
  8
0
 10
-1.24458050152005E+0002
 20
 3.31710198101589E+0002
 11
-1.24579399379131E+0002
 21
 3.31454230158718E+0002
  0
LINE
  8
0
 10
-1.24579399379131E+0002
 20
 3.31454230158718E+0002
 11
-1.24692331734130E+0002
 21
 3.31194772384270E+0002
  0
LINE
  8
0
 10
-1.24692331734130E+0002
 20
 3.31194772384270E+0002
 11
-1.24796890875080E+0002
 21
 3.30931890901395E+0002
  0
LINE
  8
0
 10
-1.24796890875080E+0002
 20
 3.30931890901395E+0002
 11
-1.24893120460057E+0002
 21
 3.30665651833242E+0002
  0
LINE
  8
0
 10
-1.24893120460057E+0002
 20
 3.30665651833242E+0002
 11
-1.24981064147137E+0002
 21
 3.30396121302960E+0002
  0
LINE
  8
0
 10
-1.24981064147137E+0002
 20
 3.30396121302960E+0002
 11
-1.25060765594397E+0002
 21
 3.30123365433700E+0002
  0
LINE
  8
0
 10
-1.25060765594397E+0002
 20
 3.30123365433700E+0002
 11
-1.25132268459912E+0002
 21
 3.29847450348610E+0002
  0
LINE
  8
0
 10
-1.25132268459912E+0002
 20
 3.29847450348610E+0002
 11
-1.25195616401761E+0002
 21
 3.29568442170841E+0002
  0
LINE
  8
0
 10
-1.25195616401761E+0002
 20
 3.29568442170841E+0002
 11
-1.25250853078019E+0002
 21
 3.29286407023542E+0002
  0
LINE
  8
0
 10
-1.25250853078019E+0002
 20
 3.29286407023542E+0002
 11
-1.25298022146763E+0002
 21
 3.29001411029863E+0002
  0
LINE
  8
0
 10
-1.25298022146763E+0002
 20
 3.29001411029863E+0002
 11
-1.25337167266069E+0002
 21
 3.28713520312953E+0002
  0
LINE
  8
0
 10
-1.25337167266069E+0002
 20
 3.28713520312953E+0002
 11
-1.25368332094014E+0002
 21
 3.28422800995962E+0002
  0
LINE
  8
0
 10
-1.25368332094014E+0002
 20
 3.28422800995962E+0002
 11
-1.25391560288675E+0002
 21
 3.28129319202039E+0002
  0
LINE
  8
0
 10
-1.25391560288675E+0002
 20
 3.28129319202039E+0002
 11
-1.25406895508127E+0002
 21
 3.27833141054334E+0002
  0
LINE
  8
0
 10
-1.25406895508127E+0002
 20
 3.27833141054334E+0002
 11
-1.25414381410448E+0002
 21
 3.27534332675997E+0002
  0
LINE
  8
0
 10
-1.25414381410448E+0002
 20
 3.27534332675997E+0002
 11
-1.25414061653714E+0002
 21
 3.27232960190177E+0002
  0
LINE
  8
0
 10
-1.25414061653714E+0002
 20
 3.27232960190177E+0002
 11
-1.25405979896001E+0002
 21
 3.26929089720024E+0002
  0
LINE
  8
0
 10
-1.25405979896001E+0002
 20
 3.26929089720024E+0002
 11
-1.25390179795386E+0002
 21
 3.26622787388688E+0002
  0
LINE
  8
0
 10
-1.25390179795386E+0002
 20
 3.26622787388688E+0002
 11
-1.25366705009945E+0002
 21
 3.26314119319317E+0002
  0
LINE
  8
0
 10
-1.25366705009945E+0002
 20
 3.26314119319317E+0002
 11
-1.25335599197756E+0002
 21
 3.26003151635062E+0002
  0
LINE
  8
0
 10
-1.25335599197756E+0002
 20
 3.26003151635062E+0002
 11
-1.25296906016894E+0002
 21
 3.25689950459073E+0002
  0
LINE
  8
0
 10
-1.25296906016894E+0002
 20
 3.25689950459073E+0002
 11
-1.25250669125436E+0002
 21
 3.25374581914498E+0002
  0
LINE
  8
0
 10
-1.25250669125436E+0002
 20
 3.25374581914498E+0002
 11
-1.25196932181459E+0002
 21
 3.25057112124487E+0002
  0
LINE
  8
0
 10
-1.25196932181459E+0002
 20
 3.25057112124487E+0002
 11
-1.25135738843039E+0002
 21
 3.24737607212191E+0002
  0
LINE
  8
0
 10
-1.25135738843039E+0002
 20
 3.24737607212191E+0002
 11
-1.25067132768252E+0002
 21
 3.24416133300758E+0002
  0
LINE
  8
0
 10
-1.25067132768252E+0002
 20
 3.24416133300758E+0002
 11
-1.24991157615176E+0002
 21
 3.24092756513338E+0002
  0
LINE
  8
0
 10
-1.24991157615176E+0002
 20
 3.24092756513338E+0002
 11
-1.24907857041886E+0002
 21
 3.23767542973082E+0002
  0
LINE
  8
0
 10
-1.24907857041886E+0002
 20
 3.23767542973082E+0002
 11
-1.24817274706459E+0002
 21
 3.23440558803137E+0002
  0
LINE
  8
0
 10
-1.24817274706459E+0002
 20
 3.23440558803137E+0002
 11
-1.24719454266972E+0002
 21
 3.23111870126655E+0002
  0
LINE
  8
0
 10
-1.24719454266972E+0002
 20
 3.23111870126655E+0002
 11
-1.24614439381501E+0002
 21
 3.22781543066784E+0002
  0
LINE
  8
0
 10
-1.24614439381501E+0002
 20
 3.22781543066784E+0002
 11
-1.24502273708123E+0002
 21
 3.22449643746675E+0002
  0
LINE
  8
0
 10
-1.24502273708123E+0002
 20
 3.22449643746675E+0002
 11
-1.24383000904914E+0002
 21
 3.22116238289476E+0002
  0
LINE
  8
0
 10
-1.24383000904914E+0002
 20
 3.22116238289476E+0002
 11
-1.24256664629951E+0002
 21
 3.21781392818338E+0002
  0
LINE
  8
0
 10
-1.24256664629951E+0002
 20
 3.21781392818338E+0002
 11
-1.24123308541310E+0002
 21
 3.21445173456410E+0002
  0
LINE
  8
0
 10
-1.24123308541310E+0002
 20
 3.21445173456410E+0002
 11
-1.23982976297067E+0002
 21
 3.21107646326841E+0002
  0
LINE
  8
0
 10
-1.23982976297067E+0002
 20
 3.21107646326841E+0002
 11
-1.23835711555300E+0002
 21
 3.20768877552782E+0002
  0
LINE
  8
0
 10
-1.23835711555300E+0002
 20
 3.20768877552782E+0002
 11
-1.23681557974085E+0002
 21
 3.20428933257381E+0002
  0
LINE
  8
0
 10
-1.23681557974085E+0002
 20
 3.20428933257381E+0002
 11
-1.23520559211498E+0002
 21
 3.20087879563789E+0002
  0
LINE
  8
0
 10
-1.23520559211498E+0002
 20
 3.20087879563789E+0002
 11
-1.23352758925616E+0002
 21
 3.19745782595155E+0002
  0
LINE
  8
0
 10
-1.23352758925616E+0002
 20
 3.19745782595155E+0002
 11
-1.23178200774516E+0002
 21
 3.19402708474628E+0002
  0
LINE
  8
0
 10
-1.23178200774516E+0002
 20
 3.19402708474628E+0002
 11
-1.22996928416273E+0002
 21
 3.19058723325359E+0002
  0
LINE
  8
0
 10
-1.22996928416273E+0002
 20
 3.19058723325359E+0002
 11
-1.22808985508964E+0002
 21
 3.18713893270496E+0002
  0
LINE
  8
0
 10
-1.22808985508964E+0002
 20
 3.18713893270496E+0002
 11
-1.22614415710667E+0002
 21
 3.18368284433190E+0002
  0
LINE
  8
0
 10
-1.22614415710667E+0002
 20
 3.18368284433190E+0002
 11
-1.22413262679457E+0002
 21
 3.18021962936590E+0002
  0
LINE
  8
0
 10
-1.22413262679457E+0002
 20
 3.18021962936590E+0002
 11
-1.22205570073411E+0002
 21
 3.17674994903845E+0002
  0
LINE
  8
0
 10
-1.22205570073411E+0002
 20
 3.17674994903845E+0002
 11
-1.21991381550605E+0002
 21
 3.17327446458106E+0002
  0
LINE
  8
0
 10
-1.21991381550605E+0002
 20
 3.17327446458106E+0002
 11
-1.21770740769116E+0002
 21
 3.16979383722522E+0002
  0
LINE
  8
0
 10
-1.21770740769116E+0002
 20
 3.16979383722522E+0002
 11
-1.21543691387021E+0002
 21
 3.16630872820241E+0002
  0
LINE
  8
0
 10
-1.21543691387021E+0002
 20
 3.16630872820241E+0002
 11
-1.21310277062396E+0002
 21
 3.16281979874415E+0002
  0
LINE
  8
0
 10
-1.21310277062396E+0002
 20
 3.16281979874415E+0002
 11
-1.21070541453317E+0002
 21
 3.15932771008193E+0002
  0
LINE
  8
0
 10
-1.21070541453317E+0002
 20
 3.15932771008193E+0002
 11
-1.20824528217861E+0002
 21
 3.15583312344723E+0002
  0
LINE
  8
0
 10
-1.20824528217861E+0002
 20
 3.15583312344723E+0002
 11
-1.20572281014105E+0002
 21
 3.15233670007157E+0002
  0
LINE
  8
0
 10
-1.20572281014105E+0002
 20
 3.15233670007157E+0002
 11
-1.20313843500125E+0002
 21
 3.14883910118642E+0002
  0
LINE
  8
0
 10
-1.20313843500125E+0002
 20
 3.14883910118642E+0002
 11
-1.20049259333998E+0002
 21
 3.14534098802330E+0002
  0
LINE
  8
0
 10
-1.20049259333998E+0002
 20
 3.14534098802330E+0002
 11
-1.19778572173800E+0002
 21
 3.14184302181369E+0002
  0
LINE
  8
0
 10
-1.19778572173800E+0002
 20
 3.14184302181369E+0002
 11
-1.19501825677607E+0002
 21
 3.13834586378910E+0002
  0
LINE
  8
0
 10
-1.19501825677607E+0002
 20
 3.13834586378910E+0002
 11
-1.19219063503497E+0002
 21
 3.13485017518101E+0002
  0
LINE
  8
0
 10
-1.19219063503497E+0002
 20
 3.13485017518101E+0002
 11
-1.18930329309545E+0002
 21
 3.13135661722093E+0002
  0
LINE
  8
0
 10
-1.18930329309545E+0002
 20
 3.13135661722093E+0002
 11
-1.18635666753828E+0002
 21
 3.12786585114035E+0002
  0
LINE
  8
0
 10
-1.18635666753828E+0002
 20
 3.12786585114035E+0002
 11
-1.18335119494423E+0002
 21
 3.12437853817076E+0002
  0
LINE
  8
0
 10
-1.18335119494423E+0002
 20
 3.12437853817076E+0002
 11
-1.18028731189406E+0002
 21
 3.12089533954366E+0002
  0
LINE
  8
0
 10
-1.18028731189406E+0002
 20
 3.12089533954366E+0002
 11
-1.17716545496854E+0002
 21
 3.11741691649056E+0002
  0
LINE
  8
0
 10
-1.17716545496854E+0002
 20
 3.11741691649056E+0002
 11
-1.17398606074844E+0002
 21
 3.11394393024293E+0002
  0
LINE
  8
0
 10
-1.17398606074844E+0002
 20
 3.11394393024293E+0002
 11
-1.17074956581451E+0002
 21
 3.11047704203229E+0002
  0
LINE
  8
0
 10
-1.17074956581451E+0002
 20
 3.11047704203229E+0002
 11
-1.16745640674752E+0002
 21
 3.10701691309012E+0002
  0
LINE
  8
0
 10
-1.16745640674752E+0002
 20
 3.10701691309012E+0002
 11
-1.16410702012824E+0002
 21
 3.10356420464792E+0002
  0
LINE
  8
0
 10
-1.16410702012824E+0002
 20
 3.10356420464792E+0002
 11
-1.16070184253744E+0002
 21
 3.10011957793719E+0002
  0
LINE
  8
0
 10
-1.16070184253744E+0002
 20
 3.10011957793719E+0002
 11
-1.15724131055587E+0002
 21
 3.09668369418943E+0002
  0
LINE
  8
0
 10
-1.15724131055587E+0002
 20
 3.09668369418943E+0002
 11
-1.15372586076431E+0002
 21
 3.09325721463612E+0002
  0
LINE
  8
0
 10
-1.15372586076431E+0002
 20
 3.09325721463612E+0002
 11
-1.15015592974351E+0002
 21
 3.08984080050877E+0002
  0
LINE
  8
0
 10
-1.15015592974351E+0002
 20
 3.08984080050877E+0002
 11
-1.14653195407425E+0002
 21
 3.08643511303887E+0002
  0
LINE
  8
0
 10
-1.14653195407425E+0002
 20
 3.08643511303887E+0002
 11
-1.14285437033729E+0002
 21
 3.08304081345792E+0002
  0
LINE
  8
0
 10
-1.14285437033729E+0002
 20
 3.08304081345792E+0002
 11
-1.13912361511339E+0002
 21
 3.07965856299741E+0002
  0
LINE
  8
0
 10
-1.13912361511339E+0002
 20
 3.07965856299741E+0002
 11
-1.13534012498332E+0002
 21
 3.07628902288885E+0002
  0
LINE
  8
0
 10
-1.13534012498332E+0002
 20
 3.07628902288885E+0002
 11
-1.13150433652785E+0002
 21
 3.07293285436371E+0002
  0
LINE
  8
0
 10
-1.13150433652785E+0002
 20
 3.07293285436371E+0002
 11
-1.12761668632774E+0002
 21
 3.06959071865351E+0002
  0
LINE
  8
0
 10
-1.12761668632774E+0002
 20
 3.06959071865351E+0002
 11
-1.12367761096375E+0002
 21
 3.06626327698974E+0002
  0
LINE
  8
0
 10
-1.12367761096375E+0002
 20
 3.06626327698974E+0002
 11
-1.11968754701665E+0002
 21
 3.06295119060389E+0002
  0
LINE
  8
0
 10
-1.11968754701665E+0002
 20
 3.06295119060389E+0002
 11
-1.11564693106721E+0002
 21
 3.05965512072746E+0002
  0
LINE
  8
0
 10
-1.11564693106721E+0002
 20
 3.05965512072746E+0002
 11
-1.11155619969619E+0002
 21
 3.05637572859195E+0002
  0
LINE
  8
0
 10
-1.11155619969619E+0002
 20
 3.05637572859195E+0002
 11
-1.10741578948435E+0002
 21
 3.05311367542884E+0002
  0
LINE
  8
0
 10
-1.10741578948435E+0002
 20
 3.05311367542884E+0002
 11
-1.10322613701246E+0002
 21
 3.04986962246965E+0002
  0
LINE
  8
0
 10
-1.10322613701246E+0002
 20
 3.04986962246965E+0002
 11
-1.09898767886130E+0002
 21
 3.04664423094585E+0002
  0
LINE
  8
0
 10
-1.09898767886130E+0002
 20
 3.04664423094585E+0002
 11
-1.09470085161161E+0002
 21
 3.04343816208896E+0002
  0
LINE
  8
0
 10
-1.09470085161161E+0002
 20
 3.04343816208896E+0002
 11
-1.09036609184416E+0002
 21
 3.04025207713046E+0002
  0
LINE
  8
0
 10
-1.09036609184416E+0002
 20
 3.04025207713046E+0002
 11
-1.08598383613973E+0002
 21
 3.03708663730186E+0002
  0
LINE
  8
0
 10
-1.08598383613973E+0002
 20
 3.03708663730186E+0002
 11
-1.08155452107908E+0002
 21
 3.03394250383464E+0002
  0
LINE
  8
0
 10
-1.08155452107908E+0002
 20
 3.03394250383464E+0002
 11
-1.07707858324297E+0002
 21
 3.03082033796030E+0002
  0
LINE
  8
0
 10
-1.07707858324297E+0002
 20
 3.03082033796030E+0002
 11
-1.07255645921216E+0002
 21
 3.02772080091035E+0002
  0
LINE
  8
0
 10
-1.07255645921216E+0002
 20
 3.02772080091035E+0002
 11
-1.06798858556743E+0002
 21
 3.02464455391627E+0002
  0
LINE
  8
0
 10
-1.06798858556743E+0002
 20
 3.02464455391627E+0002
 11
-1.06337539888954E+0002
 21
 3.02159225820956E+0002
  0
LINE
  8
0
 10
-1.06337539888954E+0002
 20
 3.02159225820956E+0002
 11
-1.05871733575924E+0002
 21
 3.01856457502172E+0002
  0
LINE
  8
0
 10
-1.05871733575924E+0002
 20
 3.01856457502172E+0002
 11
-1.05401483275732E+0002
 21
 3.01556216558424E+0002
  0
LINE
  8
0
 10
-1.05401483275732E+0002
 20
 3.01556216558424E+0002
 11
-1.04926832646453E+0002
 21
 3.01258569112862E+0002
  0
LINE
  8
0
 10
-1.04926832646453E+0002
 20
 3.01258569112862E+0002
 11
-1.04447825346164E+0002
 21
 3.00963581288636E+0002
  0
LINE
  8
0
 10
-1.04447825346164E+0002
 20
 3.00963581288636E+0002
 11
-1.03964505032941E+0002
 21
 3.00671319208895E+0002
  0
LINE
  8
0
 10
-1.03964505032941E+0002
 20
 3.00671319208895E+0002
 11
-1.03476915364860E+0002
 21
 3.00381848996788E+0002
  0
LINE
  8
0
 10
-1.03476915364860E+0002
 20
 3.00381848996788E+0002
 11
-1.02985100000000E+0002
 21
 3.00095236775466E+0002
  0
LINE
  8
0
 10
-1.02985100000000E+0002
 20
 3.00095236775466E+0002
 11
-1.02985000000000E+0002
 21
 3.00095292491539E+0002
  0
ARC
  8
0
 10
 1.12870370000000E+0003
 20
 2.43344270000000E+0003
 40
 2.46337740000000E+0003
 50
 2.40000000000000E+0002
 51
 2.41062520000000E+0002
  0
LINE
  8
0
 10
-6.32136842088069E+0001
 20
 2.77622400426866E+0002
 11
-4.62753000000000E+0001
 21
 1.28239200000000E+0002
  0
ENDSEC
  0
EOF
