  0
SECTION
  2
HEADER
  9
$ACADVER
  1
AC1003
  9
$INSBASE
 10
0.0
 20
0.0
  9
$EXTMIN
 10
-2.30000000000000E+0002
 20
 1.15000000000000E+0002
  9
$EXTMAX
 10
 2.30000000000000E+0002
 20
 5.06666700000000E+0002
  9
$LIMMIN
 10
0.0
 20
0.0
  9
$LIMMAX
 10
410.0
 20
287.0
  9
$VIEWCTR
 10
227.0059616
 20
165.058879 
  9
$VIEWSIZE
 40
 4.60000000000000E+0002
9
$SNAPMODE
70
0
9
$SNAPUNIT
10
1
20
1
9
$GRIDMODE
70
0
9
$GRIDUNIT
10
1
20
1
9
$ORTHOMODE
70
0
9
$rEGENMODE
70
1
9
$FILLMODE
70
1
9
$DRAGMODE
70
2
9
$LTSCALE
40
25.0
9
$OSMODE
70
0
9
$ATTMODE
70
1
9
$TRACEWID
40
1.0
9
$TEXTSTYLE
7
STANDARD
9
$CLAYER
8
0
9
$CELTYPE
6
VONLAYER
9
$CECOLOR
62
256
9
$LUNITS
70
2
9
$LUPREC
70
2
9
$AXISMODE
70
0
9
$AXISUNIT
10
0
20
0
9
$SKETCHINC
40
1.0
9
$FILLETRAD
40
0.0
9
$AUNITS
70
0
9
$AUPREC
70
0
9
$MENU
1
ACAD
9
$ELEVATION
40
0.0
9
$THICKNESS
40
0.0
9
$VIEWDIR
10
0.0
20
0.0
30
1.0
9
$LIMCHECK
70
0
9
$BLIPMODE
70
1
9
$CHAMFERA
40
0.0
9
$CHAMFERB
40
0.0
9
$USRTIMER
70
1
9
$ANGBASE
50
0.0
9
$ANGDIR
70
0
9
$PDMODE
70
0
9
$PDSIZE
40
0.0
9
$PLINEWID
40
0.0
9
$COORDS
70
0
0
ENDSEC
0
SECTION
2
TABLES
0
TABLE
2
LTYPE
70
1
0
LTYPE
2
AUSGEZOGEN
70
64
3
Ausgezogene Linie
72
65
73
0
40
0.0
0
ENDTAB
0
TABLE
2
LAYER
70
1
0
LAYER
2
0
70
0
62
7
6
AUSGEZOGEN
0
ENDTAB
0
TABLE
2
STYLE
70
1
0
STYLE
2
STANDARD
70
0
40
0.0
41
1.0
50
0.0
71
0
42
3.5
3
txt
4

0
ENDTAB
0
TABLE
2
VIEW
70
0
0
ENDTAB
0
ENDSEC
0
SECTION
2
BLOCKS
0
ENDSEC
0
SECTION
2
ENTITIES
  0
LINE
  8
0
 10
-2.30000000000000E+0002
 20
 1.15000000000000E+0002
 11
-1.70259700000000E+0002
 21
 2.15000000000000E+0002
  0
LINE
  8
0
 10
-1.70259700000000E+0002
 20
 2.15000000000000E+0002
 11
-1.25844200000000E+0002
 21
 2.15000000000000E+0002
  0
LINE
  8
0
 10
-1.25844200000000E+0002
 20
 2.15000000000000E+0002
 11
-1.70000000000000E+0002
 21
 1.15000000000000E+0002
  0
LINE
  8
0
 10
-1.70000000000000E+0002
 20
 1.15000000000000E+0002
 11
-2.30000000000000E+0002
 21
 1.15000000000000E+0002
  0
LINE
  8
0
 10
-1.30000000000000E+0002
 20
 1.15000000000000E+0002
 11
-9.62338000000000E+0001
 21
 2.15000000000000E+0002
  0
LINE
  8
0
 10
-9.62338000000000E+0001
 20
 2.15000000000000E+0002
 11
-7.97801000000000E+0001
 21
 2.15000000000000E+0002
  0
LINE
  8
0
 10
-7.97801000000000E+0001
 20
 2.15000000000000E+0002
 11
-1.06765100000000E+0002
 21
 1.65299900000000E+0002
  0
LINE
  8
0
 10
-1.06765100000000E+0002
 20
 1.65299900000000E+0002
 11
-1.00173914243751E+0002
 21
 1.61721199869512E+0002
  0
ARC
  8
0
 10
-8.35529000000000E+0001
 20
 1.92333300000000E+0002
 40
 3.48333000000000E+0001
 50
 2.41500000000000E+0002
 51
 3.10950570000000E+0002
  0
LINE
  8
0
 10
-6.07228874962827E+0001
 20
 1.66024569168390E+0002
 11
-7.00000000000000E+0001
 21
 1.15000000000000E+0002
  0
LINE
  8
0
 10
-7.00000000000000E+0001
 20
 1.15000000000000E+0002
 11
-1.30000000000000E+0002
 21
 1.15000000000000E+0002
  0
LINE
  8
0
 10
-3.00000000000000E+0001
 20
 1.15000000000000E+0002
 11
-2.22078000000000E+0001
 21
 2.15000000000000E+0002
  0
LINE
  8
0
 10
-2.22078000000000E+0001
 20
 2.15000000000000E+0002
 11
 2.22078000000000E+0001
 21
 2.15000000000000E+0002
  0
LINE
  8
0
 10
 2.22078000000000E+0001
 20
 2.15000000000000E+0002
 11
 3.00000000000000E+0001
 21
 1.15000000000000E+0002
  0
LINE
  8
0
 10
 3.00000000000000E+0001
 20
 1.15000000000000E+0002
 11
-3.00000000000000E+0001
 21
 1.15000000000000E+0002
  0
LINE
  8
0
 10
 7.00000000000000E+0001
 20
 1.15000000000000E+0002
 11
 5.69587000000000E+0001
 21
 1.86727400000000E+0002
  0
LINE
  8
0
 10
 5.69587000000000E+0001
 20
 1.86727400000000E+0002
 11
 7.42775000000000E+0001
 21
 1.54830200000000E+0002
  0
LINE
  8
0
 10
 7.42775000000000E+0001
 20
 1.54830200000000E+0002
 11
 8.08686142437510E+0001
 21
 1.58407999869512E+0002
  0
ARC
  8
0
 10
 6.42476000000000E+0001
 20
 1.89020100000000E+0002
 40
 3.48333000000000E+0001
 50
 2.98500000000000E+0002
 51
 3.88500000000000E+0002
  0
LINE
  8
0
 10
 9.48597001304881E+0001
 20
 2.05641114243751E+0002
 11
 8.97788000000000E+0001
 21
 2.15000000000000E+0002
  0
LINE
  8
0
 10
 8.97788000000000E+0001
 20
 2.15000000000000E+0002
 11
 9.62338000000000E+0001
 21
 2.15000000000000E+0002
  0
LINE
  8
0
 10
 9.62338000000000E+0001
 20
 2.15000000000000E+0002
 11
 1.30000000000000E+0002
 21
 1.15000000000000E+0002
  0
LINE
  8
0
 10
 1.30000000000000E+0002
 20
 1.15000000000000E+0002
 11
 7.00000000000000E+0001
 21
 1.15000000000000E+0002
  0
LINE
  8
0
 10
 1.70000000000000E+0002
 20
 1.15000000000000E+0002
 11
 1.25844200000000E+0002
 21
 2.15000000000000E+0002
  0
LINE
  8
0
 10
 1.25844200000000E+0002
 20
 2.15000000000000E+0002
 11
 1.70259700000000E+0002
 21
 2.15000000000000E+0002
  0
LINE
  8
0
 10
 1.70259700000000E+0002
 20
 2.15000000000000E+0002
 11
 2.30000000000000E+0002
 21
 1.15000000000000E+0002
  0
LINE
  8
0
 10
 2.30000000000000E+0002
 20
 1.15000000000000E+0002
 11
 1.70000000000000E+0002
 21
 1.15000000000000E+0002
  0
LINE
  8
0
 10
 5.00000000000000E+0000
 20
 2.98141500000000E+0002
 11
-5.95319282144767E+0001
 21
 1.79290976458196E+0002
  0
ARC
  8
0
 10
-8.35529000000000E+0001
 20
 1.92333300000000E+0002
 40
 2.73333000000000E+0001
 50
 2.41500000000000E+0002
 51
 3.31500000000000E+0002
  0
LINE
  8
0
 10
-9.65952235418040E+0001
 20
 1.68312328214477E+0002
 11
-2.39894701663827E+0001
 21
 3.02033114371160E+0002
  0
ARC
  8
0
 10
-3.60000000000000E+0001
 20
 3.08554300000000E+0002
 40
 1.36667000000000E+0001
 50
 3.31500000000000E+0002
 51
 3.60000000000000E+0002
  0
LINE
  8
0
 10
-2.23333000000000E+0001
 20
 3.08554300000000E+0002
 11
-2.23333000000000E+0001
 21
 3.11916700000000E+0002
  0
LINE
  8
0
 10
-2.23333000000000E+0001
 20
 3.11916700000000E+0002
 11
 3.23333000000000E+0001
 21
 3.11916700000000E+0002
  0
LINE
  8
0
 10
 3.23333000000000E+0001
 20
 3.11916700000000E+0002
 11
 3.23333000000000E+0001
 21
 3.08554300000000E+0002
  0
ARC
  8
0
 10
 4.60000000000000E+0001
 20
 3.08554300000000E+0002
 40
 1.36667000000000E+0001
 50
 1.80000000000000E+0002
 51
 2.08500000000000E+0002
  0
LINE
  8
0
 10
 3.39894701663827E+0001
 20
 3.02033114371160E+0002
 11
 8.82685717855233E+0001
 21
 2.02063323541804E+0002
  0
ARC
  8
0
 10
 6.42476000000000E+0001
 20
 1.89021000000000E+0002
 40
 2.73333000000000E+0001
 50
 2.98500000000000E+0002
 51
 3.88500000000000E+0002
  0
LINE
  8
0
 10
 7.72899235418039E+0001
 20
 1.65000028214477E+0002
 11
 5.00000000000000E+0000
 21
 2.98141500000000E+0002
  0
LINE
  8
0
 10
 3.23333000000000E+0001
 20
 3.98028500000000E+0002
 11
 3.23333000000000E+0001
 21
 3.18750000000000E+0002
  0
LINE
  8
0
 10
 3.23333000000000E+0001
 20
 3.18750000000000E+0002
 11
-2.23333000000000E+0001
 21
 3.18750000000000E+0002
  0
LINE
  8
0
 10
-2.23333000000000E+0001
 20
 3.18750000000000E+0002
 11
-2.23333000000000E+0001
 21
 3.84313500000000E+0002
  0
LINE
  8
0
 10
-2.23333000000000E+0001
 20
 3.84313500000000E+0002
 11
-5.78381676276197E+0001
 21
 3.29640731591256E+0002
  0
ARC
  8
0
 10
-7.78964000000000E+0001
 20
 3.42666700000000E+0002
 40
 2.39167000000000E+0001
 50
 2.37000000000000E+0002
 51
 3.27000000000000E+0002
  0
LINE
  8
0
 10
-9.09223684087439E+0001
 20
 3.22608467627620E+0002
 11
-2.36546056938209E+0001
 21
 4.26191918517648E+0002
  0
ARC
  8
0
 10
 5.00000000000000E+0000
 20
 4.07583400000000E+0002
 40
 3.41667000000000E+0001
 50
 5.00000000000000E+0001
 51
 1.47000000000000E+0002
  0
LINE
  8
0
 10
 2.69619314238771E+0001
 20
 4.33756610674713E+0002
 11
 7.28438459985741E+0001
 21
 3.95257111083939E+0002
  0
ARC
  8
0
 10
 5.96667000000000E+0001
 20
 3.79553200000000E+0002
 40
 2.05000000000000E+0001
 50
 0.00000000000000E+0000
 51
 5.00000000000000E+0001
  0
LINE
  8
0
 10
 8.01667000000000E+0001
 20
 3.79553200000000E+0002
 11
 8.01667000000000E+0001
 21
 3.46083400000000E+0002
  0
ARC
  8
0
 10
 5.62500000000000E+0001
 20
 3.46083400000000E+0002
 40
 2.39167000000000E+0001
 50
 2.70000000000000E+0002
 51
 3.60000000000000E+0002
  0
LINE
  8
0
 10
 5.62500000000000E+0001
 20
 3.22166700000000E+0002
 11
 5.62500000000000E+0001
 21
 3.77959900000000E+0002
  0
LINE
  8
0
 10
 5.62500000000000E+0001
 20
 3.77959900000000E+0002
 11
 3.23333000000000E+0001
 21
 3.98028500000000E+0002
  0
CIRCLE
  8
0
 10
-8.66670000000000E+0000
 20
 4.79333400000000E+0002
 40
 2.73333000000000E+0001
  0
ENDSEC
  0
EOF
