  0
SECTION
  2
HEADER
  9
$ACADVER
  1
AC1003
  9
$INSBASE
 10
0.0
 20
0.0
  9
$EXTMIN
 10
 0.00000000000000E+0000
 20
 0.00000000000000E+0000
  9
$EXTMAX
 10
 2.00000000000000E+0003
 20
 1.60000000000000E+0003
  9
$LIMMIN
 10
0.0
 20
0.0
  9
$LIMMAX
 10
410.0
 20
287.0
  9
$VIEWCTR
 10
227.0059616
 20
165.058879 
  9
$VIEWSIZE
 40
 2.00000000000000E+0003
9
$SNAPMODE
70
0
9
$SNAPUNIT
10
1
20
1
9
$GRIDMODE
70
0
9
$GRIDUNIT
10
1
20
1
9
$ORTHOMODE
70
0
9
$rEGENMODE
70
1
9
$FILLMODE
70
1
9
$DRAGMODE
70
2
9
$LTSCALE
40
25.0
9
$OSMODE
70
0
9
$ATTMODE
70
1
9
$TRACEWID
40
1.0
9
$TEXTSTYLE
7
STANDARD
9
$CLAYER
8
0
9
$CELTYPE
6
VONLAYER
9
$CECOLOR
62
256
9
$LUNITS
70
2
9
$LUPREC
70
2
9
$AXISMODE
70
0
9
$AXISUNIT
10
0
20
0
9
$SKETCHINC
40
1.0
9
$FILLETRAD
40
0.0
9
$AUNITS
70
0
9
$AUPREC
70
0
9
$MENU
1
ACAD
9
$ELEVATION
40
0.0
9
$THICKNESS
40
0.0
9
$VIEWDIR
10
0.0
20
0.0
30
1.0
9
$LIMCHECK
70
0
9
$BLIPMODE
70
1
9
$CHAMFERA
40
0.0
9
$CHAMFERB
40
0.0
9
$USRTIMER
70
1
9
$ANGBASE
50
0.0
9
$ANGDIR
70
0
9
$PDMODE
70
0
9
$PDSIZE
40
0.0
9
$PLINEWID
40
0.0
9
$COORDS
70
0
0
ENDSEC
0
SECTION
2
TABLES
0
TABLE
2
LTYPE
70
1
0
LTYPE
2
AUSGEZOGEN
70
64
3
Ausgezogene Linie
72
65
73
0
40
0.0
0
ENDTAB
0
TABLE
2
LAYER
70
1
0
LAYER
2
0
70
0
62
7
6
AUSGEZOGEN
0
ENDTAB
0
TABLE
2
STYLE
70
1
0
STYLE
2
STANDARD
70
0
40
0.0
41
1.0
50
0.0
71
0
42
3.5
3
txt
4

0
ENDTAB
0
TABLE
2
VIEW
70
0
0
ENDTAB
0
ENDSEC
0
SECTION
2
BLOCKS
0
ENDSEC
0
SECTION
2
ENTITIES
  0
ARC
  8
0
 10
 1.94000000000000E+0003
 20
 6.00000000000000E+0001
 40
 6.00000000000000E+0001
 50
 2.70000000000000E+0002
 51
 3.60000000000000E+0002
  0
LINE
  8
0
 10
 2.00000000000000E+0003
 20
 6.00000000000000E+0001
 11
 2.00000000000000E+0003
 21
 1.54000000000000E+0003
  0
ARC
  8
0
 10
 1.94000000000000E+0003
 20
 1.54000000000000E+0003
 40
 6.00000000000000E+0001
 50
 0.00000000000000E+0000
 51
 9.00000000000000E+0001
  0
LINE
  8
0
 10
 1.94000000000000E+0003
 20
 1.60000000000000E+0003
 11
 6.00000000000000E+0001
 21
 1.60000000000000E+0003
  0
ARC
  8
0
 10
 6.00000000000000E+0001
 20
 1.54000000000000E+0003
 40
 6.00000000000000E+0001
 50
 9.00000000000000E+0001
 51
 1.80000000000000E+0002
  0
LINE
  8
0
 10
 0.00000000000000E+0000
 20
 1.54000000000000E+0003
 11
 0.00000000000000E+0000
 21
 6.00000000000000E+0001
  0
ARC
  8
0
 10
 6.00000000000000E+0001
 20
 6.00000000000000E+0001
 40
 6.00000000000000E+0001
 50
 1.80000000000000E+0002
 51
 2.70000000000000E+0002
  0
LINE
  8
0
 10
 6.00000000000000E+0001
 20
 0.00000000000000E+0000
 11
 1.94000000000000E+0003
 21
 0.00000000000000E+0000
  0
ARC
  8
0
 10
 1.94000000000000E+0003
 20
 6.00000000000000E+0001
 40
 4.50000000000000E+0001
 50
 2.70000000000000E+0002
 51
 3.60000000000000E+0002
  0
LINE
  8
0
 10
 1.98500000000000E+0003
 20
 6.00000000000000E+0001
 11
 1.98500000000000E+0003
 21
 1.54000000000000E+0003
  0
ARC
  8
0
 10
 1.94000000000000E+0003
 20
 1.54000000000000E+0003
 40
 4.50000000000000E+0001
 50
 0.00000000000000E+0000
 51
 9.00000000000000E+0001
  0
LINE
  8
0
 10
 1.94000000000000E+0003
 20
 1.58500000000000E+0003
 11
 6.00000000000000E+0001
 21
 1.58500000000000E+0003
  0
ARC
  8
0
 10
 6.00000000000000E+0001
 20
 1.54000000000000E+0003
 40
 4.50000000000000E+0001
 50
 9.00000000000000E+0001
 51
 1.80000000000000E+0002
  0
LINE
  8
0
 10
 1.50000000000000E+0001
 20
 1.54000000000000E+0003
 11
 1.50000000000000E+0001
 21
 6.00000000000000E+0001
  0
ARC
  8
0
 10
 6.00000000000000E+0001
 20
 6.00000000000000E+0001
 40
 4.50000000000000E+0001
 50
 1.80000000000000E+0002
 51
 2.70000000000000E+0002
  0
LINE
  8
0
 10
 6.00000000000000E+0001
 20
 1.50000000000000E+0001
 11
 1.94000000000000E+0003
 21
 1.50000000000000E+0001
  0
ARC
  8
0
 10
 1.94000000000000E+0003
 20
 6.00000000000000E+0001
 40
 2.50000000000000E+0001
 50
 2.70000000000000E+0002
 51
 3.60000000000000E+0002
  0
LINE
  8
0
 10
 1.96500000000000E+0003
 20
 6.00000000000000E+0001
 11
 1.96500000000000E+0003
 21
 1.54000000000000E+0003
  0
ARC
  8
0
 10
 1.94000000000000E+0003
 20
 1.54000000000000E+0003
 40
 2.50000000000000E+0001
 50
 0.00000000000000E+0000
 51
 9.00000000000000E+0001
  0
LINE
  8
0
 10
 1.94000000000000E+0003
 20
 1.56500000000000E+0003
 11
 6.00000000000000E+0001
 21
 1.56500000000000E+0003
  0
ARC
  8
0
 10
 6.00000000000000E+0001
 20
 1.54000000000000E+0003
 40
 2.50000000000000E+0001
 50
 9.00000000000000E+0001
 51
 1.80000000000000E+0002
  0
LINE
  8
0
 10
 3.50000000000000E+0001
 20
 1.54000000000000E+0003
 11
 3.50000000000000E+0001
 21
 6.00000000000000E+0001
  0
ARC
  8
0
 10
 6.00000000000000E+0001
 20
 6.00000000000000E+0001
 40
 2.50000000000000E+0001
 50
 1.80000000000000E+0002
 51
 2.70000000000000E+0002
  0
LINE
  8
0
 10
 6.00000000000000E+0001
 20
 3.50000000000000E+0001
 11
 1.94000000000000E+0003
 21
 3.50000000000000E+0001
  0
LINE
  8
0
 10
 1.70500000000000E+0003
 20
 1.30700000000000E+0003
 11
 1.70500000000000E+0003
 21
 1.03860000000000E+0003
  0
ARC
  8
0
 10
 1.76500000000000E+0003
 20
 1.03860000000000E+0003
 40
 6.00000000000000E+0001
 50
 1.80000000000000E+0002
 51
 2.25000000000000E+0002
  0
LINE
  8
0
 10
 1.72257359312881E+0003
 20
 9.96173593128807E+0002
 11
 1.88500000000000E+0003
 21
 8.33821900000000E+0002
  0
LINE
  8
0
 10
 1.88500000000000E+0003
 20
 8.33821900000000E+0002
 11
 1.88500000000000E+0003
 21
 7.48969000000000E+0002
  0
LINE
  8
0
 10
 1.88500000000000E+0003
 20
 7.48969000000000E+0002
 11
 1.68014718625761E+0003
 21
 9.53747186257614E+0002
  0
ARC
  8
0
 10
 1.76500000000000E+0003
 20
 1.03860000000000E+0003
 40
 1.20000000000000E+0002
 50
 1.80000000000000E+0002
 51
 2.25000000000000E+0002
  0
LINE
  8
0
 10
 1.64500000000000E+0003
 20
 1.03860000000000E+0003
 11
 1.64500000000000E+0003
 21
 1.30700000000000E+0003
  0
LINE
  8
0
 10
 1.64500000000000E+0003
 20
 1.30700000000000E+0003
 11
 1.59999847658604E+0003
 21
 1.29538065672411E+0003
  0
ARC
  8
0
 10
 1.59700000000000E+0003
 20
 1.30700000000000E+0003
 40
 1.20000000000000E+0001
 50
 1.46190000000000E+0002
 51
 2.84470000000000E+0002
  0
LINE
  8
0
 10
 1.58702935162339E+0003
 20
 1.31367728769412E+0003
 11
 1.67500000000000E+0003
 21
 1.44500000000000E+0003
  0
LINE
  8
0
 10
 1.67500000000000E+0003
 20
 1.44500000000000E+0003
 11
 1.76297064837661E+0003
 21
 1.31367728769412E+0003
  0
ARC
  8
0
 10
 1.75300000000000E+0003
 20
 1.30700000000000E+0003
 40
 1.20000000000000E+0001
 50
 2.55525000000000E+0002
 51
 3.93810000000000E+0002
  0
LINE
  8
0
 10
 1.75000050944639E+0003
 20
 1.29538091843480E+0003
 11
 1.70500000000000E+0003
 21
 1.30700000000000E+0003
  0
LINE
  8
0
 10
 1.49500000000000E+0003
 20
 1.30700000000000E+0003
 11
 1.49500000000000E+0003
 21
 9.51500000000000E+0002
  0
ARC
  8
0
 10
 1.55500000000000E+0003
 20
 9.51500000000000E+0002
 40
 6.00000000000000E+0001
 50
 1.80000000000000E+0002
 51
 2.25000000000000E+0002
  0
LINE
  8
0
 10
 1.51257359312881E+0003
 20
 9.09073593128807E+0002
 11
 1.88500000000000E+0003
 21
 5.36837400000000E+0002
  0
LINE
  8
0
 10
 1.88500000000000E+0003
 20
 5.36837400000000E+0002
 11
 1.88500000000000E+0003
 21
 4.51984700000000E+0002
  0
LINE
  8
0
 10
 1.88500000000000E+0003
 20
 4.51984700000000E+0002
 11
 1.47014718625761E+0003
 21
 8.66647186257614E+0002
  0
ARC
  8
0
 10
 1.55500000000000E+0003
 20
 9.51500000000000E+0002
 40
 1.20000000000000E+0002
 50
 1.80000000000000E+0002
 51
 2.25000000000000E+0002
  0
LINE
  8
0
 10
 1.43500000000000E+0003
 20
 9.51500000000000E+0002
 11
 1.43500000000000E+0003
 21
 1.30700000000000E+0003
  0
LINE
  8
0
 10
 1.43500000000000E+0003
 20
 1.30700000000000E+0003
 11
 1.38999847658604E+0003
 21
 1.29538065672411E+0003
  0
ARC
  8
0
 10
 1.38700000000000E+0003
 20
 1.30700000000000E+0003
 40
 1.20000000000000E+0001
 50
 1.46190000000000E+0002
 51
 2.84470000000000E+0002
  0
LINE
  8
0
 10
 1.37702935162339E+0003
 20
 1.31367728769412E+0003
 11
 1.46500000000000E+0003
 21
 1.44500000000000E+0003
  0
LINE
  8
0
 10
 1.46500000000000E+0003
 20
 1.44500000000000E+0003
 11
 1.55297064837661E+0003
 21
 1.31367728769412E+0003
  0
ARC
  8
0
 10
 1.54300000000000E+0003
 20
 1.30700000000000E+0003
 40
 1.20000000000000E+0001
 50
 2.55525000000000E+0002
 51
 3.93810000000000E+0002
  0
LINE
  8
0
 10
 1.54000050944639E+0003
 20
 1.29538091843480E+0003
 11
 1.49500000000000E+0003
 21
 1.30700000000000E+0003
  0
LINE
  8
0
 10
 1.28500000000000E+0003
 20
 1.30700000000000E+0003
 11
 1.28500000000000E+0003
 21
 8.64600000000000E+0002
  0
ARC
  8
0
 10
 1.34500000000000E+0003
 20
 8.64600000000000E+0002
 40
 6.00000000000000E+0001
 50
 1.80000000000000E+0002
 51
 2.25000000000000E+0002
  0
LINE
  8
0
 10
 1.30257359312881E+0003
 20
 8.22173593128807E+0002
 11
 1.88500000000000E+0003
 21
 2.39852400000000E+0002
  0
LINE
  8
0
 10
 1.88500000000000E+0003
 20
 2.39852400000000E+0002
 11
 1.88500000000000E+0003
 21
 1.55000000000000E+0002
  0
LINE
  8
0
 10
 1.88500000000000E+0003
 20
 1.55000000000000E+0002
 11
 1.26014718625761E+0003
 21
 7.79747186257614E+0002
  0
ARC
  8
0
 10
 1.34500000000000E+0003
 20
 8.64600000000000E+0002
 40
 1.20000000000000E+0002
 50
 1.80000000000000E+0002
 51
 2.25000000000000E+0002
  0
LINE
  8
0
 10
 1.22500000000000E+0003
 20
 8.64600000000000E+0002
 11
 1.22500000000000E+0003
 21
 1.30700000000000E+0003
  0
LINE
  8
0
 10
 1.22500000000000E+0003
 20
 1.30700000000000E+0003
 11
 1.17999847658604E+0003
 21
 1.29538065672411E+0003
  0
ARC
  8
0
 10
 1.17700000000000E+0003
 20
 1.30700000000000E+0003
 40
 1.20000000000000E+0001
 50
 1.46190000000000E+0002
 51
 2.84470000000000E+0002
  0
LINE
  8
0
 10
 1.16702935162339E+0003
 20
 1.31367728769412E+0003
 11
 1.25500020000000E+0003
 21
 1.44500000000000E+0003
  0
LINE
  8
0
 10
 1.25500020000000E+0003
 20
 1.44500000000000E+0003
 11
 1.34297064837661E+0003
 21
 1.31367728769412E+0003
  0
ARC
  8
0
 10
 1.33300000000000E+0003
 20
 1.30700000000000E+0003
 40
 1.20000000000000E+0001
 50
 2.55525000000000E+0002
 51
 3.93810000000000E+0002
  0
LINE
  8
0
 10
 1.33000050944639E+0003
 20
 1.29538091843480E+0003
 11
 1.28500000000000E+0003
 21
 1.30700000000000E+0003
  0
LINE
  8
0
 10
 1.07500000000000E+0003
 20
 1.30700000000000E+0003
 11
 1.07500000000000E+0003
 21
 1.55000000000000E+0002
  0
LINE
  8
0
 10
 1.07500000000000E+0003
 20
 1.55000000000000E+0002
 11
 1.01500000000000E+0003
 21
 1.55000000000000E+0002
  0
LINE
  8
0
 10
 1.01500000000000E+0003
 20
 1.55000000000000E+0002
 11
 1.01500000000000E+0003
 21
 1.30700000000000E+0003
  0
LINE
  8
0
 10
 1.01500000000000E+0003
 20
 1.30700000000000E+0003
 11
 9.69998476586044E+0002
 21
 1.29538065672411E+0003
  0
ARC
  8
0
 10
 9.67000000000000E+0002
 20
 1.30700000000000E+0003
 40
 1.20000000000000E+0001
 50
 1.46190000000000E+0002
 51
 2.84470000000000E+0002
  0
LINE
  8
0
 10
 9.57029351623394E+0002
 20
 1.31367728769412E+0003
 11
 1.04500000000000E+0003
 21
 1.44500000000000E+0003
  0
LINE
  8
0
 10
 1.04500000000000E+0003
 20
 1.44500000000000E+0003
 11
 1.13297064837661E+0003
 21
 1.31367728769412E+0003
  0
ARC
  8
0
 10
 1.12300000000000E+0003
 20
 1.30700000000000E+0003
 40
 1.20000000000000E+0001
 50
 2.55525000000000E+0002
 51
 3.93810000000000E+0002
  0
LINE
  8
0
 10
 1.12000050944639E+0003
 20
 1.29538091843480E+0003
 11
 1.07500000000000E+0003
 21
 1.30700000000000E+0003
  0
LINE
  8
0
 10
 8.05000000000000E+0002
 20
 1.30700000000000E+0003
 11
 7.59998476586044E+0002
 21
 1.29538065672411E+0003
  0
ARC
  8
0
 10
 7.57000000000000E+0002
 20
 1.30700000000000E+0003
 40
 1.20000000000000E+0001
 50
 1.46190000000000E+0002
 51
 2.84470000000000E+0002
  0
LINE
  8
0
 10
 7.47029351623394E+0002
 20
 1.31367728769412E+0003
 11
 8.35000000000000E+0002
 21
 1.44500000000000E+0003
  0
LINE
  8
0
 10
 8.35000000000000E+0002
 20
 1.44500000000000E+0003
 11
 9.22970648376606E+0002
 21
 1.31367728769412E+0003
  0
ARC
  8
0
 10
 9.13000000000000E+0002
 20
 1.30700000000000E+0003
 40
 1.20000000000000E+0001
 50
 2.55525000000000E+0002
 51
 3.93810000000000E+0002
  0
LINE
  8
0
 10
 9.10000509446390E+0002
 20
 1.29538091843480E+0003
 11
 8.65000000000000E+0002
 21
 1.30700000000000E+0003
  0
LINE
  8
0
 10
 8.65000000000000E+0002
 20
 1.30700000000000E+0003
 11
 8.65000000000000E+0002
 21
 1.55000000000000E+0002
  0
LINE
  8
0
 10
 8.65000000000000E+0002
 20
 1.55000000000000E+0002
 11
 8.05000000000000E+0002
 21
 1.55000000000000E+0002
  0
LINE
  8
0
 10
 8.05000000000000E+0002
 20
 1.55000000000000E+0002
 11
 8.05000000000000E+0002
 21
 1.30700000000000E+0003
  0
LINE
  8
0
 10
 5.95000000000000E+0002
 20
 1.30700000000000E+0003
 11
 5.49998476586044E+0002
 21
 1.29538065672411E+0003
  0
ARC
  8
0
 10
 5.47000000000000E+0002
 20
 1.30700000000000E+0003
 40
 1.20000000000000E+0001
 50
 1.46190000000000E+0002
 51
 2.84470000000000E+0002
  0
LINE
  8
0
 10
 5.37029351623394E+0002
 20
 1.31367728769412E+0003
 11
 6.25000000000000E+0002
 21
 1.44500000000000E+0003
  0
LINE
  8
0
 10
 6.25000000000000E+0002
 20
 1.44500000000000E+0003
 11
 7.12970648376606E+0002
 21
 1.31367728769412E+0003
  0
ARC
  8
0
 10
 7.03000000000000E+0002
 20
 1.30700000000000E+0003
 40
 1.20000000000000E+0001
 50
 2.55525000000000E+0002
 51
 3.93810000000000E+0002
  0
LINE
  8
0
 10
 7.00000509446390E+0002
 20
 1.29538091843480E+0003
 11
 6.55000000000000E+0002
 21
 1.30700000000000E+0003
  0
LINE
  8
0
 10
 6.55000000000000E+0002
 20
 1.30700000000000E+0003
 11
 6.55000000000000E+0002
 21
 1.55000000000000E+0002
  0
LINE
  8
0
 10
 6.55000000000000E+0002
 20
 1.55000000000000E+0002
 11
 5.95000000000000E+0002
 21
 1.55000000000000E+0002
  0
LINE
  8
0
 10
 5.95000000000000E+0002
 20
 1.55000000000000E+0002
 11
 5.95000000000000E+0002
 21
 1.30700000000000E+0003
  0
LINE
  8
0
 10
 3.85000000000000E+0002
 20
 1.30700000000000E+0003
 11
 3.39998476586044E+0002
 21
 1.29538065672411E+0003
  0
ARC
  8
0
 10
 3.37000000000000E+0002
 20
 1.30700000000000E+0003
 40
 1.20000000000000E+0001
 50
 1.46190000000000E+0002
 51
 2.84470000000000E+0002
  0
LINE
  8
0
 10
 3.27029351623394E+0002
 20
 1.31367728769412E+0003
 11
 4.15000000000000E+0002
 21
 1.44500000000000E+0003
  0
LINE
  8
0
 10
 4.15000000000000E+0002
 20
 1.44500000000000E+0003
 11
 5.02970648376606E+0002
 21
 1.31367728769412E+0003
  0
ARC
  8
0
 10
 4.93000000000000E+0002
 20
 1.30700000000000E+0003
 40
 1.20000000000000E+0001
 50
 2.55525000000000E+0002
 51
 3.93810000000000E+0002
  0
LINE
  8
0
 10
 4.90000509446390E+0002
 20
 1.29538091843480E+0003
 11
 4.45000000000000E+0002
 21
 1.30700000000000E+0003
  0
LINE
  8
0
 10
 4.45000000000000E+0002
 20
 1.30700000000000E+0003
 11
 4.45000000000000E+0002
 21
 1.55000000000000E+0002
  0
LINE
  8
0
 10
 4.45000000000000E+0002
 20
 1.55000000000000E+0002
 11
 3.85000000000000E+0002
 21
 1.55000000000000E+0002
  0
LINE
  8
0
 10
 3.85000000000000E+0002
 20
 1.55000000000000E+0002
 11
 3.85000000000000E+0002
 21
 1.30700000000000E+0003
  0
LINE
  8
0
 10
 1.75000000000000E+0002
 20
 1.30700000000000E+0003
 11
 1.29998476586043E+0002
 21
 1.29538065672411E+0003
  0
ARC
  8
0
 10
 1.27000000000000E+0002
 20
 1.30700000000000E+0003
 40
 1.20000000000000E+0001
 50
 1.46190000000000E+0002
 51
 2.84470000000000E+0002
  0
LINE
  8
0
 10
 1.17029351623394E+0002
 20
 1.31367728769412E+0003
 11
 2.05000000000000E+0002
 21
 1.44500000000000E+0003
  0
LINE
  8
0
 10
 2.05000000000000E+0002
 20
 1.44500000000000E+0003
 11
 2.92970648376606E+0002
 21
 1.31367728769412E+0003
  0
ARC
  8
0
 10
 2.83000000000000E+0002
 20
 1.30700000000000E+0003
 40
 1.20000000000000E+0001
 50
 2.55525000000000E+0002
 51
 3.93810000000000E+0002
  0
LINE
  8
0
 10
 2.80000509446390E+0002
 20
 1.29538091843480E+0003
 11
 2.35000000000000E+0002
 21
 1.30700000000000E+0003
  0
LINE
  8
0
 10
 2.35000000000000E+0002
 20
 1.30700000000000E+0003
 11
 2.35000000000000E+0002
 21
 1.55000000000000E+0002
  0
LINE
  8
0
 10
 2.35000000000000E+0002
 20
 1.55000000000000E+0002
 11
 1.75000000000000E+0002
 21
 1.55000000000000E+0002
  0
LINE
  8
0
 10
 1.75000000000000E+0002
 20
 1.55000000000000E+0002
 11
 1.75000000000000E+0002
 21
 1.30700000000000E+0003
  0
ENDSEC
  0
EOF
