  0
SECTION
  2
HEADER
  9
$ACADVER
  1
AC1003
  9
$INSBASE
 10
0.0
 20
0.0
  9
$EXTMIN
 10
 0.00000000000000E+0000
 20
 0.00000000000000E+0000
  9
$EXTMAX
 10
 2.00000000000000E+0003
 20
 1.60000000000000E+0003
  9
$LIMMIN
 10
0.0
 20
0.0
  9
$LIMMAX
 10
410.0
 20
287.0
  9
$VIEWCTR
 10
227.0059616
 20
165.058879 
  9
$VIEWSIZE
 40
 2.00000000000000E+0003
9
$SNAPMODE
70
0
9
$SNAPUNIT
10
1
20
1
9
$GRIDMODE
70
0
9
$GRIDUNIT
10
1
20
1
9
$ORTHOMODE
70
0
9
$rEGENMODE
70
1
9
$FILLMODE
70
1
9
$DRAGMODE
70
2
9
$LTSCALE
40
25.0
9
$OSMODE
70
0
9
$ATTMODE
70
1
9
$TRACEWID
40
1.0
9
$TEXTSTYLE
7
STANDARD
9
$CLAYER
8
0
9
$CELTYPE
6
VONLAYER
9
$CECOLOR
62
256
9
$LUNITS
70
2
9
$LUPREC
70
2
9
$AXISMODE
70
0
9
$AXISUNIT
10
0
20
0
9
$SKETCHINC
40
1.0
9
$FILLETRAD
40
0.0
9
$AUNITS
70
0
9
$AUPREC
70
0
9
$MENU
1
ACAD
9
$ELEVATION
40
0.0
9
$THICKNESS
40
0.0
9
$VIEWDIR
10
0.0
20
0.0
30
1.0
9
$LIMCHECK
70
0
9
$BLIPMODE
70
1
9
$CHAMFERA
40
0.0
9
$CHAMFERB
40
0.0
9
$USRTIMER
70
1
9
$ANGBASE
50
0.0
9
$ANGDIR
70
0
9
$PDMODE
70
0
9
$PDSIZE
40
0.0
9
$PLINEWID
40
0.0
9
$COORDS
70
0
0
ENDSEC
0
SECTION
2
TABLES
0
TABLE
2
LTYPE
70
1
0
LTYPE
2
AUSGEZOGEN
70
64
3
Ausgezogene Linie
72
65
73
0
40
0.0
0
ENDTAB
0
TABLE
2
LAYER
70
1
0
LAYER
2
0
70
0
62
7
6
AUSGEZOGEN
0
ENDTAB
0
TABLE
2
STYLE
70
1
0
STYLE
2
STANDARD
70
0
40
0.0
41
1.0
50
0.0
71
0
42
3.5
3
txt
4

0
ENDTAB
0
TABLE
2
VIEW
70
0
0
ENDTAB
0
ENDSEC
0
SECTION
2
BLOCKS
0
ENDSEC
0
SECTION
2
ENTITIES
  0
ARC
  8
0
 10
 1.94000000000000E+0003
 20
 6.00000000000000E+0001
 40
 6.00000000000000E+0001
 50
 2.70000000000000E+0002
 51
 3.60000000000000E+0002
  0
LINE
  8
0
 10
 2.00000000000000E+0003
 20
 6.00000000000000E+0001
 11
 2.00000000000000E+0003
 21
 1.54000000000000E+0003
  0
ARC
  8
0
 10
 1.94000000000000E+0003
 20
 1.54000000000000E+0003
 40
 6.00000000000000E+0001
 50
 0.00000000000000E+0000
 51
 9.00000000000000E+0001
  0
LINE
  8
0
 10
 1.94000000000000E+0003
 20
 1.60000000000000E+0003
 11
 6.00000000000000E+0001
 21
 1.60000000000000E+0003
  0
ARC
  8
0
 10
 6.00000000000000E+0001
 20
 1.54000000000000E+0003
 40
 6.00000000000000E+0001
 50
 9.00000000000000E+0001
 51
 1.80000000000000E+0002
  0
LINE
  8
0
 10
 0.00000000000000E+0000
 20
 1.54000000000000E+0003
 11
 0.00000000000000E+0000
 21
 6.00000000000000E+0001
  0
ARC
  8
0
 10
 6.00000000000000E+0001
 20
 6.00000000000000E+0001
 40
 6.00000000000000E+0001
 50
 1.80000000000000E+0002
 51
 2.70000000000000E+0002
  0
LINE
  8
0
 10
 6.00000000000000E+0001
 20
 0.00000000000000E+0000
 11
 1.94000000000000E+0003
 21
 0.00000000000000E+0000
  0
ARC
  8
0
 10
 1.94000000000000E+0003
 20
 6.00000000000000E+0001
 40
 4.50000000000000E+0001
 50
 2.70000000000000E+0002
 51
 3.60000000000000E+0002
  0
LINE
  8
0
 10
 1.98500000000000E+0003
 20
 6.00000000000000E+0001
 11
 1.98500000000000E+0003
 21
 1.54000000000000E+0003
  0
ARC
  8
0
 10
 1.94000000000000E+0003
 20
 1.54000000000000E+0003
 40
 4.50000000000000E+0001
 50
 0.00000000000000E+0000
 51
 9.00000000000000E+0001
  0
LINE
  8
0
 10
 1.94000000000000E+0003
 20
 1.58500000000000E+0003
 11
 6.00000000000000E+0001
 21
 1.58500000000000E+0003
  0
ARC
  8
0
 10
 6.00000000000000E+0001
 20
 1.54000000000000E+0003
 40
 4.50000000000000E+0001
 50
 9.00000000000000E+0001
 51
 1.80000000000000E+0002
  0
LINE
  8
0
 10
 1.50000000000000E+0001
 20
 1.54000000000000E+0003
 11
 1.50000000000000E+0001
 21
 6.00000000000000E+0001
  0
ARC
  8
0
 10
 6.00000000000000E+0001
 20
 6.00000000000000E+0001
 40
 4.50000000000000E+0001
 50
 1.80000000000000E+0002
 51
 2.70000000000000E+0002
  0
LINE
  8
0
 10
 6.00000000000000E+0001
 20
 1.50000000000000E+0001
 11
 1.94000000000000E+0003
 21
 1.50000000000000E+0001
  0
ARC
  8
0
 10
 1.94000000000000E+0003
 20
 6.00000000000000E+0001
 40
 2.50000000000000E+0001
 50
 2.70000000000000E+0002
 51
 3.60000000000000E+0002
  0
LINE
  8
0
 10
 1.96500000000000E+0003
 20
 6.00000000000000E+0001
 11
 1.96500000000000E+0003
 21
 1.54000000000000E+0003
  0
ARC
  8
0
 10
 1.94000000000000E+0003
 20
 1.54000000000000E+0003
 40
 2.50000000000000E+0001
 50
 0.00000000000000E+0000
 51
 9.00000000000000E+0001
  0
LINE
  8
0
 10
 1.94000000000000E+0003
 20
 1.56500000000000E+0003
 11
 6.00000000000000E+0001
 21
 1.56500000000000E+0003
  0
ARC
  8
0
 10
 6.00000000000000E+0001
 20
 1.54000000000000E+0003
 40
 2.50000000000000E+0001
 50
 9.00000000000000E+0001
 51
 1.80000000000000E+0002
  0
LINE
  8
0
 10
 3.50000000000000E+0001
 20
 1.54000000000000E+0003
 11
 3.50000000000000E+0001
 21
 6.00000000000000E+0001
  0
ARC
  8
0
 10
 6.00000000000000E+0001
 20
 6.00000000000000E+0001
 40
 2.50000000000000E+0001
 50
 1.80000000000000E+0002
 51
 2.70000000000000E+0002
  0
LINE
  8
0
 10
 6.00000000000000E+0001
 20
 3.50000000000000E+0001
 11
 1.94000000000000E+0003
 21
 3.50000000000000E+0001
  0
LINE
  8
0
 10
 1.60000000000000E+0003
 20
 1.30700000000000E+0003
 11
 1.60000000000000E+0003
 21
 1.03860000000000E+0003
  0
ARC
  8
0
 10
 1.66000000000000E+0003
 20
 1.03860000000000E+0003
 40
 6.00000000000000E+0001
 50
 1.80000000000000E+0002
 51
 2.25000000000000E+0002
  0
LINE
  8
0
 10
 1.61757359312881E+0003
 20
 9.96173593128807E+0002
 11
 1.78000000000000E+0003
 21
 8.33821900000000E+0002
  0
LINE
  8
0
 10
 1.78000000000000E+0003
 20
 8.33821900000000E+0002
 11
 1.78000000000000E+0003
 21
 7.48969000000000E+0002
  0
LINE
  8
0
 10
 1.78000000000000E+0003
 20
 7.48969000000000E+0002
 11
 1.57514718625761E+0003
 21
 9.53747186257614E+0002
  0
ARC
  8
0
 10
 1.66000000000000E+0003
 20
 1.03860000000000E+0003
 40
 1.20000000000000E+0002
 50
 1.80000000000000E+0002
 51
 2.25000000000000E+0002
  0
LINE
  8
0
 10
 1.54000000000000E+0003
 20
 1.03860000000000E+0003
 11
 1.54000000000000E+0003
 21
 1.30700000000000E+0003
  0
LINE
  8
0
 10
 1.54000000000000E+0003
 20
 1.30700000000000E+0003
 11
 1.49499949055361E+0003
 21
 1.29538091843480E+0003
  0
ARC
  8
0
 10
 1.49200000000000E+0003
 20
 1.30700000000000E+0003
 40
 1.20000000000000E+0001
 50
 1.46190000000000E+0002
 51
 2.84475000000000E+0002
  0
LINE
  8
0
 10
 1.48202935162339E+0003
 20
 1.31367728769412E+0003
 11
 1.57000000000000E+0003
 21
 1.44500000000000E+0003
  0
LINE
  8
0
 10
 1.57000000000000E+0003
 20
 1.44500000000000E+0003
 11
 1.65797064837661E+0003
 21
 1.31367728769412E+0003
  0
ARC
  8
0
 10
 1.64800000000000E+0003
 20
 1.30700000000000E+0003
 40
 1.20000000000000E+0001
 50
 2.55525000000000E+0002
 51
 3.93810000000000E+0002
  0
LINE
  8
0
 10
 1.64500050944639E+0003
 20
 1.29538091843480E+0003
 11
 1.60000000000000E+0003
 21
 1.30700000000000E+0003
  0
LINE
  8
0
 10
 1.39000000000000E+0003
 20
 1.30700000000000E+0003
 11
 1.39000000000000E+0003
 21
 9.51500000000000E+0002
  0
ARC
  8
0
 10
 1.45000000000000E+0003
 20
 9.51500000000000E+0002
 40
 6.00000000000000E+0001
 50
 1.80000000000000E+0002
 51
 2.25000000000000E+0002
  0
LINE
  8
0
 10
 1.40757359312881E+0003
 20
 9.09073593128807E+0002
 11
 1.78000000000000E+0003
 21
 5.36837400000000E+0002
  0
LINE
  8
0
 10
 1.78000000000000E+0003
 20
 5.36837400000000E+0002
 11
 1.78000000000000E+0003
 21
 4.51984700000000E+0002
  0
LINE
  8
0
 10
 1.78000000000000E+0003
 20
 4.51984700000000E+0002
 11
 1.36514718625761E+0003
 21
 8.66647186257614E+0002
  0
ARC
  8
0
 10
 1.45000000000000E+0003
 20
 9.51500000000000E+0002
 40
 1.20000000000000E+0002
 50
 1.80000000000000E+0002
 51
 2.25000000000000E+0002
  0
LINE
  8
0
 10
 1.33000000000000E+0003
 20
 9.51500000000000E+0002
 11
 1.33000000000000E+0003
 21
 1.30700000000000E+0003
  0
LINE
  8
0
 10
 1.33000000000000E+0003
 20
 1.30700000000000E+0003
 11
 1.28499949055361E+0003
 21
 1.29538091843480E+0003
  0
ARC
  8
0
 10
 1.28200000000000E+0003
 20
 1.30700000000000E+0003
 40
 1.20000000000000E+0001
 50
 1.46190000000000E+0002
 51
 2.84475000000000E+0002
  0
LINE
  8
0
 10
 1.27202935162339E+0003
 20
 1.31367728769412E+0003
 11
 1.36000000000000E+0003
 21
 1.44500000000000E+0003
  0
LINE
  8
0
 10
 1.36000000000000E+0003
 20
 1.44500000000000E+0003
 11
 1.44797064837661E+0003
 21
 1.31367728769412E+0003
  0
ARC
  8
0
 10
 1.43800000000000E+0003
 20
 1.30700000000000E+0003
 40
 1.20000000000000E+0001
 50
 2.55525000000000E+0002
 51
 3.93810000000000E+0002
  0
LINE
  8
0
 10
 1.43500050944639E+0003
 20
 1.29538091843480E+0003
 11
 1.39000000000000E+0003
 21
 1.30700000000000E+0003
  0
LINE
  8
0
 10
 1.18000000000000E+0003
 20
 1.30700000000000E+0003
 11
 1.18000000000000E+0003
 21
 8.64600000000000E+0002
  0
ARC
  8
0
 10
 1.24000000000000E+0003
 20
 8.64600000000000E+0002
 40
 6.00000000000000E+0001
 50
 1.80000000000000E+0002
 51
 2.25000000000000E+0002
  0
LINE
  8
0
 10
 1.19757359312881E+0003
 20
 8.22173593128807E+0002
 11
 1.78000000000000E+0003
 21
 2.39852400000000E+0002
  0
LINE
  8
0
 10
 1.78000000000000E+0003
 20
 2.39852400000000E+0002
 11
 1.78000000000000E+0003
 21
 1.55000000000000E+0002
  0
LINE
  8
0
 10
 1.78000000000000E+0003
 20
 1.55000000000000E+0002
 11
 1.15514718625761E+0003
 21
 7.79747186257614E+0002
  0
ARC
  8
0
 10
 1.24000000000000E+0003
 20
 8.64600000000000E+0002
 40
 1.20000000000000E+0002
 50
 1.80000000000000E+0002
 51
 2.25000000000000E+0002
  0
LINE
  8
0
 10
 1.12000000000000E+0003
 20
 8.64600000000000E+0002
 11
 1.12000000000000E+0003
 21
 1.30700000000000E+0003
  0
LINE
  8
0
 10
 1.12000000000000E+0003
 20
 1.30700000000000E+0003
 11
 1.07499949055361E+0003
 21
 1.29538091843480E+0003
  0
ARC
  8
0
 10
 1.07200000000000E+0003
 20
 1.30700000000000E+0003
 40
 1.20000000000000E+0001
 50
 1.46190000000000E+0002
 51
 2.84475000000000E+0002
  0
LINE
  8
0
 10
 1.06202935162339E+0003
 20
 1.31367728769412E+0003
 11
 1.15000000000000E+0003
 21
 1.44500000000000E+0003
  0
LINE
  8
0
 10
 1.15000000000000E+0003
 20
 1.44500000000000E+0003
 11
 1.23797064837661E+0003
 21
 1.31367728769412E+0003
  0
ARC
  8
0
 10
 1.22800000000000E+0003
 20
 1.30700000000000E+0003
 40
 1.20000000000000E+0001
 50
 2.55525000000000E+0002
 51
 3.93810000000000E+0002
  0
LINE
  8
0
 10
 1.22500050944639E+0003
 20
 1.29538091843480E+0003
 11
 1.18000000000000E+0003
 21
 1.30700000000000E+0003
  0
LINE
  8
0
 10
 9.70000000000000E+0002
 20
 1.30700000000000E+0003
 11
 9.70000000000000E+0002
 21
 1.55000000000000E+0002
  0
LINE
  8
0
 10
 9.70000000000000E+0002
 20
 1.55000000000000E+0002
 11
 9.10000000000000E+0002
 21
 1.55000000000000E+0002
  0
LINE
  8
0
 10
 9.10000000000000E+0002
 20
 1.55000000000000E+0002
 11
 9.10000000000000E+0002
 21
 1.30700000000000E+0003
  0
LINE
  8
0
 10
 9.10000000000000E+0002
 20
 1.30700000000000E+0003
 11
 8.64999490553610E+0002
 21
 1.29538091843480E+0003
  0
ARC
  8
0
 10
 8.62000000000000E+0002
 20
 1.30700000000000E+0003
 40
 1.20000000000000E+0001
 50
 1.46190000000000E+0002
 51
 2.84475000000000E+0002
  0
LINE
  8
0
 10
 8.52029351623394E+0002
 20
 1.31367728769412E+0003
 11
 9.40000000000000E+0002
 21
 1.44500000000000E+0003
  0
LINE
  8
0
 10
 9.40000000000000E+0002
 20
 1.44500000000000E+0003
 11
 1.02797064837661E+0003
 21
 1.31367728769412E+0003
  0
ARC
  8
0
 10
 1.01800000000000E+0003
 20
 1.30700000000000E+0003
 40
 1.20000000000000E+0001
 50
 2.55525000000000E+0002
 51
 3.93810000000000E+0002
  0
LINE
  8
0
 10
 1.01500050944639E+0003
 20
 1.29538091843480E+0003
 11
 9.70000000000000E+0002
 21
 1.30700000000000E+0003
  0
LINE
  8
0
 10
 7.00000000000000E+0002
 20
 1.30700000000000E+0003
 11
 6.54999490553610E+0002
 21
 1.29538091843480E+0003
  0
ARC
  8
0
 10
 6.52000000000000E+0002
 20
 1.30700000000000E+0003
 40
 1.20000000000000E+0001
 50
 1.46190000000000E+0002
 51
 2.84475000000000E+0002
  0
LINE
  8
0
 10
 6.42029351623394E+0002
 20
 1.31367728769412E+0003
 11
 7.30000000000000E+0002
 21
 1.44500000000000E+0003
  0
LINE
  8
0
 10
 7.30000000000000E+0002
 20
 1.44500000000000E+0003
 11
 8.17970648376606E+0002
 21
 1.31367728769412E+0003
  0
ARC
  8
0
 10
 8.08000000000000E+0002
 20
 1.30700000000000E+0003
 40
 1.20000000000000E+0001
 50
 2.55525000000000E+0002
 51
 3.93810000000000E+0002
  0
LINE
  8
0
 10
 8.05000509446390E+0002
 20
 1.29538091843480E+0003
 11
 7.60000000000000E+0002
 21
 1.30700000000000E+0003
  0
LINE
  8
0
 10
 7.60000000000000E+0002
 20
 1.30700000000000E+0003
 11
 7.60000000000000E+0002
 21
 1.55000000000000E+0002
  0
LINE
  8
0
 10
 7.60000000000000E+0002
 20
 1.55000000000000E+0002
 11
 7.00000000000000E+0002
 21
 1.55000000000000E+0002
  0
LINE
  8
0
 10
 7.00000000000000E+0002
 20
 1.55000000000000E+0002
 11
 7.00000000000000E+0002
 21
 1.30700000000000E+0003
  0
LINE
  8
0
 10
 4.90000000000000E+0002
 20
 1.30700000000000E+0003
 11
 4.44999490553610E+0002
 21
 1.29538091843480E+0003
  0
ARC
  8
0
 10
 4.42000000000000E+0002
 20
 1.30700000000000E+0003
 40
 1.20000000000000E+0001
 50
 1.46190000000000E+0002
 51
 2.84475000000000E+0002
  0
LINE
  8
0
 10
 4.32029351623394E+0002
 20
 1.31367728769412E+0003
 11
 5.20000000000000E+0002
 21
 1.44500000000000E+0003
  0
LINE
  8
0
 10
 5.20000000000000E+0002
 20
 1.44500000000000E+0003
 11
 6.07970648376606E+0002
 21
 1.31367728769412E+0003
  0
ARC
  8
0
 10
 5.98000000000000E+0002
 20
 1.30700000000000E+0003
 40
 1.20000000000000E+0001
 50
 2.55525000000000E+0002
 51
 3.93810000000000E+0002
  0
LINE
  8
0
 10
 5.95000509446390E+0002
 20
 1.29538091843480E+0003
 11
 5.50000000000000E+0002
 21
 1.30700000000000E+0003
  0
LINE
  8
0
 10
 5.50000000000000E+0002
 20
 1.30700000000000E+0003
 11
 5.50000000000000E+0002
 21
 1.55000000000000E+0002
  0
LINE
  8
0
 10
 5.50000000000000E+0002
 20
 1.55000000000000E+0002
 11
 4.90000000000000E+0002
 21
 1.55000000000000E+0002
  0
LINE
  8
0
 10
 4.90000000000000E+0002
 20
 1.55000000000000E+0002
 11
 4.90000000000000E+0002
 21
 1.30700000000000E+0003
  0
LINE
  8
0
 10
 2.80000000000000E+0002
 20
 1.30700000000000E+0003
 11
 2.34999490553610E+0002
 21
 1.29538091843480E+0003
  0
ARC
  8
0
 10
 2.32000000000000E+0002
 20
 1.30700000000000E+0003
 40
 1.20000000000000E+0001
 50
 1.46190000000000E+0002
 51
 2.84475000000000E+0002
  0
LINE
  8
0
 10
 2.22029351623394E+0002
 20
 1.31367728769412E+0003
 11
 3.10000000000000E+0002
 21
 1.44500000000000E+0003
  0
LINE
  8
0
 10
 3.10000000000000E+0002
 20
 1.44500000000000E+0003
 11
 3.97970648376606E+0002
 21
 1.31367728769412E+0003
  0
ARC
  8
0
 10
 3.88000000000000E+0002
 20
 1.30700000000000E+0003
 40
 1.20000000000000E+0001
 50
 2.55525000000000E+0002
 51
 3.93810000000000E+0002
  0
LINE
  8
0
 10
 3.85000509446390E+0002
 20
 1.29538091843480E+0003
 11
 3.40000000000000E+0002
 21
 1.30700000000000E+0003
  0
LINE
  8
0
 10
 3.40000000000000E+0002
 20
 1.30700000000000E+0003
 11
 3.40000000000000E+0002
 21
 1.55000000000000E+0002
  0
LINE
  8
0
 10
 3.40000000000000E+0002
 20
 1.55000000000000E+0002
 11
 2.80000000000000E+0002
 21
 1.55000000000000E+0002
  0
LINE
  8
0
 10
 2.80000000000000E+0002
 20
 1.55000000000000E+0002
 11
 2.80000000000000E+0002
 21
 1.30700000000000E+0003
  0
ENDSEC
  0
EOF
