<?xml version="1.0" encoding="UTF-8"?>
<svg xmlns="http://www.w3.org/2000/svg" version="1.1" width="67.03mm" height="21.14mm" viewBox="0 0 190 59.94">
<g transform="scale(0.1)">
  <path fill="#ffffff" d="M0 0L1900 0L1900 599.34L0 599.34L0 0"/>
  <path fill="#ed1c24" fill-rule="evenodd" d="M39.98 0L79.97 0L79.97 599.35L39.98 599.35L39.98 0"/>
  <path fill="#ed1c24" fill-rule="evenodd" d="M1820.03 0L1860.01 0L1860.01 599.35L1820.03 599.35L1820.03 0"/>
  <path fill="#231f20" d="M130.88 249.57L130.88 90.07L156.89 90.07L156.89 249.57L130.88 249.57"/>
  <path fill="#231f20" d="M281.3 249.57L220.27 141.42L220.27 249.57L194.97 249.57L194.97 90.07L220.27 90.07L278.62 191.98L278.62 90.07L303.87 90.07L303.87 249.57L281.3 249.57"/>
  <path fill="#231f20" d="M515.69 217.02C510.84 228.99 504.35 237.83 496.44 243.62C488.59 249.34 478.89 252.23 467.36 252.23C461.57 252.23 456.02 251.76 451.14 250.66C446.29 249.34 441.83 247.61 438.07 245.34C434.08 242.92 430.3 240.02 427.16 236.5C424.11 232.98 421.22 228.76 418.56 223.9C416.76 220.3 415.19 216.31 413.71 212.16C412.14 207.94 411.05 203.48 409.87 198.86C408.99 194.17 408.13 189.31 407.65 184.46C407.03 179.53 406.79 174.45 406.79 169.59C406.79 163.18 407.19 156.99 408.13 150.74C408.75 144.55 410.11 138.84 411.67 133.29C413 127.49 415.04 122.41 417.23 117.56C419.42 112.86 421.84 108.64 424.74 105.12C429.44 99.17 435.17 94.68 442.06 91.79C448.71 88.97 456.49 87.41 465.56 87.41C477.56 87.41 487.5 90.07 495.74 95.15C503.72 100.26 510.37 108.48 515.69 119.51L491.96 129.92C489.77 126.64 487.74 123.74 485.93 121.78C483.98 119.51 482.17 117.79 480.22 116.46C478.19 115.29 476 114.43 473.81 113.8C471.35 113.33 468.69 113.1 465.56 113.1C459.14 113.1 453.82 114.67 449.57 117.56C445.19 120.61 441.59 125.7 438.7 132.58C437.84 135.01 436.97 137.67 436.11 140.57C435.41 143.46 434.78 146.59 434.32 149.64C433.61 153.01 433.21 156.06 432.98 159.66C432.75 162.94 432.51 166.31 432.51 169.59C432.51 174.05 432.75 178.2 433.21 182.43C433.61 186.65 434.32 190.88 435.17 194.63C436.11 198.63 437.21 202.15 438.3 205.51C439.63 208.8 440.97 211.7 442.53 214.35C445.19 218.58 448.48 221.63 452.49 223.67C456.49 225.62 461.1 226.56 466.89 226.56C472.21 226.56 476.86 225 480.84 222.1C484.68 219.21 488.2 214.59 491.25 208.17L515.69 217.02"/>
  <path fill="#231f20" d="M644.55 249.57L629.03 204.57L579.13 204.57L563.38 249.57L536.27 249.57L591.33 90.07L616.58 90.07L671.57 249.57L644.55 249.57M604.2 134.38L587.97 178.91L619.95 178.91L604.2 134.38"/>
  <path fill="#231f20" d="M792.91 203.72C792.91 210.83 791.58 217.48 788.92 223.43C786.49 229.38 782.97 234.46 778.25 238.69C773.87 243.15 768.55 246.28 762.29 248.71C756.08 251.13 749.66 252.23 742.54 252.23C735.71 252.23 729.29 251.37 723.27 249.34C717.32 247.38 711.97 244.71 707.12 241.12C702.19 237.6 697.81 233.37 693.97 228.52C690.19 223.67 686.91 218.11 684.24 212.16L708.38 203.24C711.73 210.83 716.38 216.54 722.17 220.54C728.12 224.53 734.77 226.56 742.54 226.56C746.14 226.56 749.43 225.86 752.56 224.76C755.61 223.43 758.3 221.86 760.33 219.91C762.52 217.88 764.32 215.45 765.41 212.56C766.52 209.66 767.22 206.61 767.22 203.24C767.22 197.92 765.89 193.54 762.99 190.17C760.33 186.89 756.79 184.23 752.33 181.8C747.87 179.53 743.01 177.57 737.69 175.78C732.11 174.05 727.02 172.02 721.7 170.06C719.27 169.13 716.38 167.8 712.83 165.84C709.54 164.04 705.95 161.61 702.89 158.48C699.53 155.43 696.64 151.68 694.45 146.98C691.99 142.36 690.89 136.57 690.89 130.16C690.89 122.41 692.23 115.76 694.68 110.21C697.1 104.88 700.62 100.5 705.08 96.88C709.54 93.59 714.87 91.16 720.84 89.6C727.02 88.03 733.68 87.41 740.82 87.41C746.38 87.41 751.7 88.03 756.31 89.6C760.95 91.16 765.18 93.35 768.94 96.25C772.69 98.93 776.06 102.45 778.96 106.21C781.87 110.21 784.3 114.67 786.02 119.51L763.85 126.4C763.22 124.6 762.13 122.88 760.57 121.32C759.24 119.51 757.41 117.95 755.22 116.62C753.03 115.53 750.76 114.43 748.1 113.57C745.44 112.86 742.78 112.47 739.88 112.47C737.06 112.47 734.14 112.63 731.25 113.33C728.35 113.8 725.69 114.67 723.5 115.99C721.31 117.32 719.27 119.13 717.94 121.32C716.38 123.51 715.75 126.16 715.75 129.53C715.75 133.52 716.85 136.57 719.04 139.23C721.31 141.66 724.13 143.69 727.73 145.42C731.48 147.22 735.47 148.78 740.11 150.11C744.81 151.44 749.43 153.01 754.36 154.73C759.24 156.53 763.85 158.48 768.55 160.99C773.17 163.18 777.39 166.31 780.94 170.06C784.54 173.82 787.36 178.2 789.62 183.76C791.82 189.08 792.91 195.73 792.91 203.72"/>
  <path fill="#231f20" d="M820.17 249.57L820.17 90.07L914.49 90.07L914.49 115.13L845.47 115.13L845.47 154.57L892.08 154.57L892.08 180.24L845.47 180.24L845.47 223.9L919.57 223.9L919.57 249.57L820.17 249.57"/>
  <path fill="#231f20" d="M1124.66 170.06C1124.66 176.24 1124.28 182.43 1123.57 188.61C1122.71 194.87 1121.61 200.82 1120.05 206.37C1118.48 211.93 1116.68 217.25 1114.49 221.86C1112.3 226.72 1109.85 230.95 1107.19 234.46C1102.49 240.73 1096.94 245.11 1090.5 248C1084.08 250.9 1076.8 252.23 1068.33 252.23C1062.61 252.23 1057.53 251.76 1053.07 250.66C1048.37 249.34 1044.35 247.61 1040.6 245.34C1036.84 242.92 1033.56 240.02 1030.66 236.5C1027.53 232.98 1024.84 228.76 1022.42 223.9C1020.85 220.3 1019.37 216.54 1017.8 212.32C1016.47 208.17 1015.14 203.72 1014.2 199.09C1013.34 194.4 1012.48 189.55 1012.01 184.7C1011.38 179.53 1011.15 174.68 1011.15 170.06C1011.15 163.41 1011.54 157.15 1012.24 150.97C1013.1 144.79 1014.2 138.84 1015.77 133.29C1017.33 127.73 1019.13 122.65 1021.32 117.79C1023.51 113.1 1026.02 108.87 1028.62 105.12C1033.32 98.93 1038.88 94.21 1045.68 91.63C1052.36 88.74 1060.34 87.41 1069.68 87.41C1077.03 87.41 1083.45 88.5 1089.01 91.16C1094.75 93.59 1099.6 96.72 1103.59 100.89C1107.58 105.12 1111.18 109.97 1113.87 115.29C1116.52 120.84 1118.72 126.64 1120.28 132.82C1122.01 139 1123.1 145.26 1123.8 151.68C1124.43 157.86 1124.66 164.04 1124.66 170.06M1098.98 170.06C1098.98 166.94 1098.74 163.41 1098.5 159.42C1098.27 155.43 1097.64 151.2 1096.94 146.98C1096.31 142.76 1095.22 138.84 1093.89 134.62C1092.56 130.63 1090.76 126.87 1088.54 123.74C1086.35 120.61 1083.69 117.95 1080.56 115.99C1077.43 113.96 1073.67 113.1 1069.45 113.1C1065.9 113.1 1062.77 113.57 1060.11 114.19C1057.53 114.9 1055.26 115.99 1053.3 117.56C1051.03 119.28 1049.31 121.32 1047.75 123.74C1045.92 126.16 1044.35 129.3 1043.03 132.58C1042.16 135.01 1041.3 137.67 1040.44 140.57C1039.73 143.46 1039.11 146.59 1038.64 149.88C1037.94 153.24 1037.54 156.53 1037.31 159.81C1037.08 163.18 1036.84 166.7 1036.84 170.06C1036.84 174.21 1037.08 178.44 1037.54 182.66C1037.94 186.89 1038.64 190.88 1039.5 194.87C1040.21 198.63 1041.3 202.15 1042.4 205.51C1043.49 208.8 1044.82 211.7 1046.39 214.35C1048.84 218.58 1051.97 221.63 1055.49 223.67C1059.01 225.62 1063.24 226.56 1068.09 226.56C1074.14 226.56 1079.23 225 1082.98 221.63C1086.98 218.58 1090.26 213.49 1092.95 206.37C1093.89 204.34 1094.75 201.76 1095.45 198.86C1096.08 195.96 1096.78 193.07 1097.41 189.79C1097.88 186.42 1098.27 183.13 1098.5 179.77C1098.74 176.48 1098.98 173.11 1098.98 170.06"/>
  <path fill="#231f20" d="M1184.79 115.13L1184.79 154.57L1231.4 154.57L1231.4 180.24L1184.79 180.24L1184.79 249.57L1159.46 249.57L1159.46 90.07L1258.89 90.07L1258.89 115.13L1184.79 115.13"/>
  <path fill="#231f20" d="M1375.72 115.13L1375.72 154.57L1422.33 154.57L1422.33 180.24L1375.72 180.24L1375.72 249.57L1350.42 249.57L1350.42 90.07L1449.84 90.07L1449.84 115.13L1375.72 115.13"/>
  <path fill="#231f20" d="M1473.5 249.57L1473.5 90.07L1499.51 90.07L1499.51 249.57L1473.5 249.57"/>
  <path fill="#231f20" d="M1619 249.57L1593.28 180.24L1562.89 180.24L1562.89 249.57L1537.59 249.57L1537.59 90.07L1595.97 90.07C1601.92 90.07 1607.47 90.69 1612.17 92.26C1616.81 93.83 1621.03 95.78 1624.56 98.23C1628.16 100.74 1630.97 103.55 1633.4 106.68C1635.9 109.81 1637.89 113.1 1639.22 116.46C1640.78 119.75 1641.87 122.88 1642.58 126.16C1643.21 129.3 1643.44 132.19 1643.44 134.85C1643.44 139 1642.73 143.23 1641.64 147.22C1640.31 151.2 1638.59 155.2 1636.29 158.72C1634.33 162.32 1631.68 165.37 1628.54 168.27C1625.49 171.16 1622.13 173.35 1618.37 175.15L1646.49 249.57L1619 249.57M1617.67 134.85C1617.67 132.19 1617.28 129.69 1616.16 127.26C1615.22 124.84 1613.65 122.88 1611.93 121.08C1610.13 119.28 1607.94 117.79 1605.28 116.62C1602.62 115.53 1599.73 115.13 1596.67 115.13L1562.89 115.13L1562.89 154.57L1596.44 154.57C1599.49 154.57 1602.38 154.1 1605.05 153.01C1607.7 151.91 1609.89 150.58 1611.7 148.78C1613.65 146.98 1614.98 144.79 1616.16 142.36C1617.28 139.94 1617.67 137.51 1617.67 134.85"/>
  <path fill="#231f20" d="M1673.33 249.57L1673.33 90.07L1767.65 90.07L1767.65 115.13L1698.63 115.13L1698.63 154.57L1745.25 154.57L1745.25 180.24L1698.63 180.24L1698.63 223.9L1772.74 223.9L1772.74 249.57L1673.33 249.57"/>
  <path fill="#231f20" d="M236.71 476.73C231.85 488.7 225.36 497.54 217.46 503.34C209.6 509.04 199.9 511.94 188.37 511.94C182.58 511.94 177.02 511.47 172.15 510.37C167.29 509.04 162.83 507.32 159.08 505.05C155.09 502.63 151.31 499.74 148.18 496.21C145.13 492.69 142.23 488.47 139.57 483.61C137.77 480.01 136.21 476.03 134.72 471.88C133.15 467.65 132.06 463.19 130.88 458.57C130 453.88 129.13 449.03 128.67 444.17C128.04 439.25 127.8 434.16 127.8 429.31C127.8 422.89 128.2 416.71 129.13 410.45C129.76 404.27 131.12 398.55 132.69 392.97C134.01 387.18 136.05 382.1 138.24 377.25C140.43 372.55 142.86 368.33 145.75 364.81C150.45 358.86 156.18 354.4 163.07 351.5C169.73 348.68 177.5 347.12 186.57 347.12C198.57 347.12 208.51 349.78 216.75 354.86C224.73 359.95 231.38 368.17 236.71 379.2L212.97 389.61C210.78 386.32 208.74 383.43 206.95 381.47C204.99 379.2 203.19 377.48 201.23 376.15C199.2 374.98 197 374.12 194.81 373.49C192.36 373.02 189.7 372.79 186.57 372.79C180.16 372.79 174.83 374.35 170.58 377.25C166.2 380.3 162.6 385.39 159.71 392.27C158.85 394.7 157.99 397.38 157.13 400.28C156.42 403.18 155.8 406.3 155.32 409.35C154.62 412.72 154.23 415.77 153.99 419.37C153.76 422.66 153.53 426.03 153.53 429.31C153.53 433.77 153.76 437.92 154.23 442.14C154.62 446.36 155.32 450.59 156.18 454.35C157.13 458.34 158.22 461.86 159.32 465.23C160.64 468.51 161.97 471.4 163.54 474.07C166.2 478.3 169.49 481.35 173.5 483.38C177.5 485.33 182.11 486.28 187.9 486.28C193.22 486.28 197.86 484.71 201.86 481.82C205.69 478.92 209.22 474.3 212.27 467.89L236.71 476.73"/>
  <path fill="#231f20" d="M365.56 509.28L350.03 464.29L300.14 464.29L284.38 509.28L257.29 509.28L312.35 349.78L337.59 349.78L392.58 509.28L365.56 509.28M325.21 394.07L308.98 438.62L340.96 438.62L325.21 394.07"/>
  <path fill="#231f20" d="M416.29 509.28L416.29 349.78L441.59 349.78L441.59 485.57L515.69 485.57L515.69 509.28L416.29 509.28"/>
  <path fill="#231f20" d="M539.38 509.28L539.38 349.78L564.68 349.78L564.68 485.57L638.81 485.57L638.81 509.28L539.38 509.28"/>
  <path fill="#231f20" d="M840.8 429.78C840.8 435.96 840.41 442.14 839.7 448.32C838.84 454.58 837.74 460.53 836.18 466.09C834.62 471.65 832.82 476.96 830.63 481.58C828.43 486.43 825.98 490.66 823.32 494.18C818.63 500.44 813.07 504.82 806.65 507.72C800.21 510.61 792.7 511.94 784.22 511.94C778.75 511.94 773.66 511.47 768.97 510.37C764.51 509.04 760.33 507.32 756.73 505.05C752.97 502.63 749.69 499.74 746.79 496.21C743.67 492.69 740.97 488.47 738.55 483.61C736.99 480.01 735.5 476.26 733.94 472.03C732.6 467.89 731.27 463.43 730.34 458.81C729.48 454.12 728.61 449.26 728.14 444.41C727.52 439.25 727.29 434.39 727.29 429.78C727.29 423.13 727.67 416.86 728.38 410.69C729.24 404.5 730.34 398.55 731.9 392.97C733.46 387.42 735.27 382.34 737.46 377.48C739.65 372.79 742.18 368.56 744.76 364.81C749.45 358.62 755.01 353.93 761.66 351.35C768.1 348.45 775.62 347.12 784.22 347.12C794.89 347.12 804.2 349.31 811.59 353.77C819.1 358.39 825.28 365.51 830.16 375.44C831.95 378.81 833.52 382.8 834.85 386.95C836.18 391.18 837.28 395.64 838.14 400.28C839.08 404.97 839.7 409.83 840.17 414.91C840.56 419.76 840.8 424.69 840.8 429.78M815.11 429.78C815.11 420.7 814.4 412.48 812.92 404.74C811.35 396.99 808.92 390.31 805.53 384.99C803.11 380.77 799.98 377.63 796.69 375.68C793.17 373.65 788.94 372.79 784.06 372.79C780.94 372.79 778.04 373.25 775.62 373.88C773.19 374.82 771 375.92 768.97 377.63C767.01 379.2 765.21 381.23 763.64 383.66C762.06 386.09 760.49 388.99 759.16 392.27C758.3 394.7 757.43 397.38 756.57 400.28C755.87 403.18 755.24 406.3 754.78 409.59C754.07 412.95 753.68 416.24 753.45 419.53C753.21 422.89 752.97 426.41 752.97 429.78C752.97 433.92 753.21 438.15 753.68 442.38C754.07 446.6 754.78 450.59 755.64 454.58C756.34 458.34 757.43 461.86 758.53 465.23C759.62 468.51 760.95 471.4 762.52 474.07C764.97 478.3 768.1 481.35 771.39 483.38C774.91 485.33 779.14 486.28 784.06 486.28C790.04 486.28 795.13 484.71 799.11 481.35C803.11 478.3 806.42 473.21 809.08 466.09C810.02 464.05 810.88 461.47 811.59 458.57C812.21 455.68 812.92 452.78 813.54 449.5C814.01 446.13 814.4 442.85 814.64 439.48C814.87 436.2 815.11 432.83 815.11 429.78"/>
  <path fill="#231f20" d="M986.05 429.78C986.05 435.96 985.67 442.14 984.96 448.32C984.1 454.58 983 460.53 981.44 466.09C979.88 471.65 978.07 476.96 975.86 481.58C973.67 486.43 971.24 490.66 968.58 494.18C963.89 500.44 958.33 504.82 951.89 507.72C945.47 510.61 937.96 511.94 929.48 511.94C924 511.94 918.92 511.47 914.23 510.37C909.74 509.04 905.59 507.32 901.99 505.05C898.23 502.63 894.95 499.74 892.02 496.21C888.9 492.69 886.23 488.47 883.81 483.61C882.25 480.01 880.76 476.26 879.2 472.03C877.86 467.89 876.53 463.43 875.59 458.81C874.74 454.12 873.87 449.26 873.4 444.41C872.78 439.25 872.54 434.39 872.54 429.78C872.54 423.13 872.93 416.86 873.64 410.69C874.5 404.5 875.59 398.55 877.16 392.97C878.72 387.42 880.53 382.34 882.72 377.48C884.91 372.79 887.41 368.56 889.99 364.81C894.71 358.62 900.27 353.93 906.92 351.35C913.34 348.45 920.88 347.12 929.48 347.12C940.15 347.12 949.46 349.31 956.84 353.77C964.35 358.39 970.54 365.51 975.39 375.44C977.19 378.81 978.78 382.8 980.11 386.95C981.44 391.18 982.54 395.64 983.4 400.28C984.34 404.97 984.96 409.83 985.43 414.91C985.82 419.76 986.05 424.69 986.05 429.78M960.37 429.78C960.37 420.7 959.66 412.48 958.18 404.74C956.61 396.99 954.16 390.31 950.79 384.99C948.37 380.77 945.24 377.63 941.95 375.68C938.43 373.65 934.18 372.79 929.32 372.79C926.2 372.79 923.3 373.25 920.88 373.88C918.45 374.82 916.26 375.92 914.23 377.63C912.24 379.2 910.44 381.23 908.88 383.66C907.31 386.09 905.75 388.99 904.42 392.27C903.56 394.7 902.69 397.38 901.83 400.28C901.13 403.18 900.5 406.3 900.04 409.59C899.33 412.95 898.94 416.24 898.7 419.53C898.47 422.89 898.23 426.41 898.23 429.78C898.23 433.92 898.47 438.15 898.94 442.38C899.33 446.6 900.04 450.59 900.9 454.58C901.6 458.34 902.69 461.86 903.79 465.23C904.88 468.51 906.21 471.4 907.78 474.07C910.21 478.3 913.34 481.35 916.65 483.38C920.17 485.33 924.4 486.28 929.32 486.28C935.3 486.28 940.39 484.71 944.37 481.35C948.37 478.3 951.65 473.21 954.32 466.09C955.25 464.05 956.11 461.47 956.84 458.57C957.47 455.68 958.18 452.78 958.8 449.5C959.27 446.13 959.66 442.85 959.89 439.48C960.13 436.2 960.37 432.83 960.37 429.78"/>
  <path fill="#231f20" d="M1131.31 429.78C1131.31 435.96 1130.93 442.14 1130.22 448.32C1129.36 454.58 1128.26 460.53 1126.7 466.09C1125.14 471.65 1123.33 476.96 1121.14 481.58C1118.95 486.43 1116.52 490.66 1113.87 494.18C1109.15 500.44 1103.59 504.82 1097.17 507.72C1090.76 510.61 1083.22 511.94 1074.77 511.94C1069.29 511.94 1064.18 511.47 1059.49 510.37C1055.02 509.04 1050.87 507.32 1047.25 505.05C1043.49 502.63 1040.21 499.74 1037.31 496.21C1034.18 492.69 1031.52 488.47 1029.1 483.61C1027.53 480.01 1026.02 476.26 1024.45 472.03C1023.12 467.89 1021.79 463.43 1020.85 458.81C1019.99 454.12 1019.13 449.26 1018.66 444.41C1018.03 439.25 1017.8 434.39 1017.8 429.78C1017.8 423.13 1018.19 416.86 1018.89 410.69C1019.76 404.5 1020.85 398.55 1022.42 392.97C1023.98 387.42 1025.78 382.34 1028 377.48C1030.19 372.79 1032.7 368.56 1035.28 364.81C1039.97 358.62 1045.53 353.93 1052.21 351.35C1058.62 348.45 1066.14 347.12 1074.77 347.12C1085.41 347.12 1094.75 349.31 1102.1 353.77C1109.61 358.39 1115.82 365.51 1120.68 375.44C1122.47 378.81 1124.04 382.8 1125.37 386.95C1126.7 391.18 1127.8 395.64 1128.66 400.28C1129.6 404.97 1130.22 409.83 1130.69 414.91C1131.08 419.76 1131.31 424.69 1131.31 429.78M1105.63 429.78C1105.63 420.7 1104.92 412.48 1103.44 404.74C1101.87 396.99 1099.44 390.31 1096.08 384.99C1093.65 380.77 1090.5 377.63 1087.21 375.68C1083.69 373.65 1079.46 372.79 1074.61 372.79C1071.48 372.79 1068.56 373.25 1066.14 373.88C1063.71 374.82 1061.52 375.92 1059.49 377.63C1057.53 379.2 1055.73 381.23 1054.16 383.66C1052.59 386.09 1051.03 388.99 1049.7 392.27C1048.84 394.7 1047.98 397.38 1047.09 400.28C1046.39 403.18 1045.76 406.3 1045.3 409.59C1044.59 412.95 1044.19 416.24 1043.96 419.53C1043.73 422.89 1043.49 426.41 1043.49 429.78C1043.49 433.92 1043.73 438.15 1044.19 442.38C1044.59 446.6 1045.3 450.59 1046.15 454.58C1046.86 458.34 1047.98 461.86 1049.08 465.23C1050.17 468.51 1051.5 471.4 1053.07 474.07C1055.49 478.3 1058.62 481.35 1061.91 483.38C1065.43 485.33 1069.68 486.28 1074.61 486.28C1080.56 486.28 1085.65 484.71 1089.63 481.35C1093.65 478.3 1096.94 473.21 1099.6 466.09C1100.54 464.05 1101.4 461.47 1102.1 458.57C1102.73 455.68 1103.44 452.78 1104.06 449.5C1104.53 446.13 1104.92 442.85 1105.15 439.48C1105.39 436.2 1105.63 432.83 1105.63 429.78"/>
</g>
</svg>
