  0
SECTION
  2
HEADER
  9
$ACADVER
  1
AC1003
  9
$INSBASE
 10
0.0
 20
0.0
  9
$EXTMIN
 10
 0.00000000000000E+0000
 20
 0.00000000000000E+0000
  9
$EXTMAX
 10
 1.25000000000000E+0003
 20
 1.60000000000000E+0003
  9
$LIMMIN
 10
0.0
 20
0.0
  9
$LIMMAX
 10
410.0
 20
287.0
  9
$VIEWCTR
 10
227.0059616
 20
165.058879 
  9
$VIEWSIZE
 40
 1.60000000000000E+0003
9
$SNAPMODE
70
0
9
$SNAPUNIT
10
1
20
1
9
$GRIDMODE
70
0
9
$GRIDUNIT
10
1
20
1
9
$ORTHOMODE
70
0
9
$rEGENMODE
70
1
9
$FILLMODE
70
1
9
$DRAGMODE
70
2
9
$LTSCALE
40
25.0
9
$OSMODE
70
0
9
$ATTMODE
70
1
9
$TRACEWID
40
1.0
9
$TEXTSTYLE
7
STANDARD
9
$CLAYER
8
0
9
$CELTYPE
6
VONLAYER
9
$CECOLOR
62
256
9
$LUNITS
70
2
9
$LUPREC
70
2
9
$AXISMODE
70
0
9
$AXISUNIT
10
0
20
0
9
$SKETCHINC
40
1.0
9
$FILLETRAD
40
0.0
9
$AUNITS
70
0
9
$AUPREC
70
0
9
$MENU
1
ACAD
9
$ELEVATION
40
0.0
9
$THICKNESS
40
0.0
9
$VIEWDIR
10
0.0
20
0.0
30
1.0
9
$LIMCHECK
70
0
9
$BLIPMODE
70
1
9
$CHAMFERA
40
0.0
9
$CHAMFERB
40
0.0
9
$USRTIMER
70
1
9
$ANGBASE
50
0.0
9
$ANGDIR
70
0
9
$PDMODE
70
0
9
$PDSIZE
40
0.0
9
$PLINEWID
40
0.0
9
$COORDS
70
0
0
ENDSEC
0
SECTION
2
TABLES
0
TABLE
2
LTYPE
70
1
0
LTYPE
2
AUSGEZOGEN
70
64
3
Ausgezogene Linie
72
65
73
0
40
0.0
0
ENDTAB
0
TABLE
2
LAYER
70
1
0
LAYER
2
0
70
0
62
7
6
AUSGEZOGEN
0
ENDTAB
0
TABLE
2
STYLE
70
1
0
STYLE
2
STANDARD
70
0
40
0.0
41
1.0
50
0.0
71
0
42
3.5
3
txt
4

0
ENDTAB
0
TABLE
2
VIEW
70
0
0
ENDTAB
0
ENDSEC
0
SECTION
2
BLOCKS
0
ENDSEC
0
SECTION
2
ENTITIES
  0
ARC
  8
0
 10
 6.00000000000000E+0001
 20
 6.00000000000000E+0001
 40
 6.00000000000000E+0001
 50
 1.80000000000000E+0002
 51
 2.70000000000000E+0002
  0
LINE
  8
0
 10
 0.00000000000000E+0000
 20
 6.00000000000000E+0001
 11
 0.00000000000000E+0000
 21
 1.54000000000000E+0003
  0
ARC
  8
0
 10
 6.00000000000000E+0001
 20
 1.54000000000000E+0003
 40
 6.00000000000000E+0001
 50
 9.00000000000000E+0001
 51
 1.80000000000000E+0002
  0
LINE
  8
0
 10
 6.00000000000000E+0001
 20
 1.60000000000000E+0003
 11
 1.19000000000000E+0003
 21
 1.60000000000000E+0003
  0
ARC
  8
0
 10
 1.19000000000000E+0003
 20
 1.54000000000000E+0003
 40
 6.00000000000000E+0001
 50
 0.00000000000000E+0000
 51
 9.00000000000000E+0001
  0
LINE
  8
0
 10
 1.25000000000000E+0003
 20
 1.54000000000000E+0003
 11
 1.25000000000000E+0003
 21
 6.00000000000000E+0001
  0
ARC
  8
0
 10
 1.19000000000000E+0003
 20
 6.00000000000000E+0001
 40
 6.00000000000000E+0001
 50
 2.70000000000000E+0002
 51
 3.60000000000000E+0002
  0
LINE
  8
0
 10
 1.19000000000000E+0003
 20
 0.00000000000000E+0000
 11
 6.00000000000000E+0001
 21
 0.00000000000000E+0000
  0
ARC
  8
0
 10
 6.00000000000000E+0001
 20
 6.00000000000000E+0001
 40
 4.50000000000000E+0001
 50
 1.80000000000000E+0002
 51
 2.70000000000000E+0002
  0
LINE
  8
0
 10
 1.50000000000000E+0001
 20
 6.00000000000000E+0001
 11
 1.50000000000000E+0001
 21
 1.54000000000000E+0003
  0
ARC
  8
0
 10
 6.00000000000000E+0001
 20
 1.54000000000000E+0003
 40
 4.50000000000000E+0001
 50
 9.00000000000000E+0001
 51
 1.80000000000000E+0002
  0
LINE
  8
0
 10
 6.00000000000000E+0001
 20
 1.58500000000000E+0003
 11
 1.19000000000000E+0003
 21
 1.58500000000000E+0003
  0
ARC
  8
0
 10
 1.19000000000000E+0003
 20
 1.54000000000000E+0003
 40
 4.50000000000000E+0001
 50
 0.00000000000000E+0000
 51
 9.00000000000000E+0001
  0
LINE
  8
0
 10
 1.23500000000000E+0003
 20
 1.54000000000000E+0003
 11
 1.23500000000000E+0003
 21
 6.00000000000000E+0001
  0
ARC
  8
0
 10
 1.19000000000000E+0003
 20
 6.00000000000000E+0001
 40
 4.50000000000000E+0001
 50
 2.70000000000000E+0002
 51
 3.60000000000000E+0002
  0
LINE
  8
0
 10
 1.19000000000000E+0003
 20
 1.50000000000000E+0001
 11
 6.00000000000000E+0001
 21
 1.50000000000000E+0001
  0
ARC
  8
0
 10
 6.00000000000000E+0001
 20
 6.00000000000000E+0001
 40
 2.50000000000000E+0001
 50
 1.80000000000000E+0002
 51
 2.70000000000000E+0002
  0
LINE
  8
0
 10
 3.50000000000000E+0001
 20
 6.00000000000000E+0001
 11
 3.50000000000000E+0001
 21
 1.54000000000000E+0003
  0
ARC
  8
0
 10
 6.00000000000000E+0001
 20
 1.54000000000000E+0003
 40
 2.50000000000000E+0001
 50
 9.00000000000000E+0001
 51
 1.80000000000000E+0002
  0
LINE
  8
0
 10
 6.00000000000000E+0001
 20
 1.56500000000000E+0003
 11
 1.19000000000000E+0003
 21
 1.56500000000000E+0003
  0
ARC
  8
0
 10
 1.19000000000000E+0003
 20
 1.54000000000000E+0003
 40
 2.50000000000000E+0001
 50
 0.00000000000000E+0000
 51
 9.00000000000000E+0001
  0
LINE
  8
0
 10
 1.21500000000000E+0003
 20
 1.54000000000000E+0003
 11
 1.21500000000000E+0003
 21
 6.00000000000000E+0001
  0
ARC
  8
0
 10
 1.19000000000000E+0003
 20
 6.00000000000000E+0001
 40
 2.50000000000000E+0001
 50
 2.70000000000000E+0002
 51
 3.60000000000000E+0002
  0
LINE
  8
0
 10
 1.19000000000000E+0003
 20
 3.50000000000000E+0001
 11
 6.00000000000000E+0001
 21
 3.50000000000000E+0001
  0
LINE
  8
0
 10
 2.20000000000000E+0002
 20
 1.30700000000000E+0003
 11
 1.74999490553610E+0002
 21
 1.29538091843480E+0003
  0
ARC
  8
0
 10
 1.72000000000000E+0002
 20
 1.30700000000000E+0003
 40
 1.20000000000000E+0001
 50
 1.46195000000000E+0002
 51
 2.84475000000000E+0002
  0
LINE
  8
0
 10
 1.62028768958083E+0002
 20
 1.31367641756549E+0003
 11
 2.50000000000000E+0002
 21
 1.44500000000000E+0003
  0
LINE
  8
0
 10
 2.50000000000000E+0002
 20
 1.44500000000000E+0003
 11
 3.37971231041916E+0002
 21
 1.31367641756549E+0003
  0
ARC
  8
0
 10
 3.28000000000000E+0002
 20
 1.30700000000000E+0003
 40
 1.20000000000000E+0001
 50
 2.55525000000000E+0002
 51
 3.93805000000000E+0002
  0
LINE
  8
0
 10
 3.25000509446390E+0002
 20
 1.29538091843480E+0003
 11
 2.80000000000000E+0002
 21
 1.30700000000000E+0003
  0
LINE
  8
0
 10
 2.80000000000000E+0002
 20
 1.30700000000000E+0003
 11
 2.80000000000000E+0002
 21
 1.55000000000000E+0002
  0
LINE
  8
0
 10
 2.80000000000000E+0002
 20
 1.55000000000000E+0002
 11
 2.20000000000000E+0002
 21
 1.55000000000000E+0002
  0
LINE
  8
0
 10
 2.20000000000000E+0002
 20
 1.55000000000000E+0002
 11
 2.20000000000000E+0002
 21
 1.30700000000000E+0003
  0
LINE
  8
0
 10
 5.60000000000000E+0002
 20
 1.30700000000000E+0003
 11
 5.14999490553610E+0002
 21
 1.29538091843480E+0003
  0
ARC
  8
0
 10
 5.12000000000000E+0002
 20
 1.30700000000000E+0003
 40
 1.20000000000000E+0001
 50
 1.46195000000000E+0002
 51
 2.84475000000000E+0002
  0
LINE
  8
0
 10
 5.02028768958084E+0002
 20
 1.31367641756549E+0003
 11
 5.90000000000000E+0002
 21
 1.44500000000000E+0003
  0
LINE
  8
0
 10
 5.90000000000000E+0002
 20
 1.44500000000000E+0003
 11
 6.77971231041917E+0002
 21
 1.31367641756549E+0003
  0
ARC
  8
0
 10
 6.68000000000000E+0002
 20
 1.30700000000000E+0003
 40
 1.20000000000000E+0001
 50
 2.55525000000000E+0002
 51
 3.93805000000000E+0002
  0
LINE
  8
0
 10
 6.65000509446390E+0002
 20
 1.29538091843480E+0003
 11
 6.20000000000000E+0002
 21
 1.30700000000000E+0003
  0
LINE
  8
0
 10
 6.20000000000000E+0002
 20
 1.30700000000000E+0003
 11
 6.19990627553650E+0002
 21
 1.19542882912159E+0003
  0
ARC
  8
0
 10
 5.90000000000000E+0002
 20
 9.49400000000000E+0002
 40
 2.47850000000000E+0002
 50
 8.30500000000000E+0001
 51
 9.69500000000000E+0001
  0
LINE
  8
0
 10
 5.60009372446350E+0002
 20
 1.19542882912159E+0003
 11
 5.60000000000000E+0002
 21
 1.30700000000000E+0003
  0
LINE
  8
0
 10
 6.20000000000000E+0002
 20
 7.09078200000000E+0002
 11
 6.20000000000000E+0002
 21
 1.55000000000000E+0002
  0
LINE
  8
0
 10
 6.20000000000000E+0002
 20
 1.55000000000000E+0002
 11
 5.60000000000000E+0002
 21
 1.55000000000000E+0002
  0
LINE
  8
0
 10
 5.60000000000000E+0002
 20
 1.55000000000000E+0002
 11
 5.60009372446350E+0002
 21
 7.09071170878415E+0002
  0
ARC
  8
0
 10
 5.90000000000000E+0002
 20
 9.55100000000000E+0002
 40
 2.47850000000000E+0002
 50
 2.63050000000000E+0002
 51
 2.76950000000000E+0002
  0
LINE
  8
0
 10
 9.00000000000000E+0002
 20
 1.30700000000000E+0003
 11
 8.54999490553610E+0002
 21
 1.29538091843480E+0003
  0
ARC
  8
0
 10
 8.52000000000000E+0002
 20
 1.30700000000000E+0003
 40
 1.20000000000000E+0001
 50
 1.46195000000000E+0002
 51
 2.84475000000000E+0002
  0
LINE
  8
0
 10
 8.42028768958083E+0002
 20
 1.31367641756549E+0003
 11
 9.30000000000000E+0002
 21
 1.44500000000000E+0003
  0
LINE
  8
0
 10
 9.30000000000000E+0002
 20
 1.44500000000000E+0003
 11
 1.01797123104191E+0003
 21
 1.31367641756549E+0003
  0
ARC
  8
0
 10
 1.00800000000000E+0003
 20
 1.30700000000000E+0003
 40
 1.20000000000000E+0001
 50
 2.55525000000000E+0002
 51
 3.93805000000000E+0002
  0
LINE
  8
0
 10
 1.00500050944639E+0003
 20
 1.29538091843480E+0003
 11
 9.60000000000000E+0002
 21
 1.30700000000000E+0003
  0
LINE
  8
0
 10
 9.60000000000000E+0002
 20
 1.30700000000000E+0003
 11
 9.59990627553650E+0002
 21
 7.68178829121585E+0002
  0
ARC
  8
0
 10
 9.30000000000000E+0002
 20
 5.22150000000000E+0002
 40
 2.47850000000000E+0002
 50
 8.30500000000000E+0001
 51
 9.69500000000000E+0001
  0
LINE
  8
0
 10
 9.00009372446350E+0002
 20
 7.68178829121585E+0002
 11
 9.00000000000000E+0002
 21
 1.30700000000000E+0003
  0
LINE
  8
0
 10
 9.60000000000000E+0002
 20
 2.81828200000000E+0002
 11
 9.60000000000000E+0002
 21
 1.55000000000000E+0002
  0
LINE
  8
0
 10
 9.60000000000000E+0002
 20
 1.55000000000000E+0002
 11
 9.00000000000000E+0002
 21
 1.55000000000000E+0002
  0
LINE
  8
0
 10
 9.00000000000000E+0002
 20
 1.55000000000000E+0002
 11
 9.00009372446350E+0002
 21
 2.81821170878415E+0002
  0
ARC
  8
0
 10
 9.30000000000000E+0002
 20
 5.27850000000000E+0002
 40
 2.47850000000000E+0002
 50
 2.63050000000000E+0002
 51
 2.76950000000000E+0002
  0
CIRCLE
  8
0
 10
 5.90000000000000E+0002
 20
 9.52250000000000E+0002
 40
 2.32750000000000E+0002
  0
CIRCLE
  8
0
 10
 5.90000000000000E+0002
 20
 9.52250000000000E+0002
 40
 1.71500000000000E+0002
  0
LINE
  8
0
 10
 4.74306100000000E+0002
 20
 8.50166700000000E+0002
 11
 4.74300000000000E+0002
 21
 8.50200000000000E+0002
  0
ARC
  8
0
 10
 4.74300000000000E+0002
 20
 8.57000000000000E+0002
 40
 6.80000000000000E+0000
 50
 1.80000000000000E+0002
 51
 2.70000000000000E+0002
  0
LINE
  8
0
 10
 4.67500000000000E+0002
 20
 8.57000000000000E+0002
 11
 4.67500000000000E+0002
 21
 9.25000000000000E+0002
  0
ARC
  8
0
 10
 4.74300000000000E+0002
 20
 9.25000000000000E+0002
 40
 6.80000000000000E+0000
 50
 9.00000000000000E+0001
 51
 1.80000000000000E+0002
  0
LINE
  8
0
 10
 4.74300000000000E+0002
 20
 9.31800000000000E+0002
 11
 4.94750000000000E+0002
 21
 9.31800000000000E+0002
  0
ARC
  8
0
 10
 4.94750000000000E+0002
 20
 9.25000000000000E+0002
 40
 6.80000000000000E+0000
 50
 0.00000000000000E+0000
 51
 9.00000000000000E+0001
  0
LINE
  8
0
 10
 5.01550000000000E+0002
 20
 9.25000000000000E+0002
 11
 5.01550000000000E+0002
 21
 8.57000000000000E+0002
  0
ARC
  8
0
 10
 4.94750000000000E+0002
 20
 8.57000000000000E+0002
 40
 6.80000000000000E+0000
 50
 2.70000000000000E+0002
 51
 3.60000000000000E+0002
  0
LINE
  8
0
 10
 4.94750000000000E+0002
 20
 8.50200000000000E+0002
 11
 4.74306100000000E+0002
 21
 8.50166700000000E+0002
  0
LINE
  8
0
 10
 5.15139400000000E+0002
 20
 8.50166700000000E+0002
 11
 5.15150000000000E+0002
 21
 8.50200000000000E+0002
  0
ARC
  8
0
 10
 5.15150000000000E+0002
 20
 8.57000000000000E+0002
 40
 6.80000000000000E+0000
 50
 1.80000000000000E+0002
 51
 2.70000000000000E+0002
  0
LINE
  8
0
 10
 5.08350000000000E+0002
 20
 8.57000000000000E+0002
 11
 5.08350000000000E+0002
 21
 9.25000000000000E+0002
  0
ARC
  8
0
 10
 5.15150000000000E+0002
 20
 9.25000000000000E+0002
 40
 6.80000000000000E+0000
 50
 9.00000000000000E+0001
 51
 1.80000000000000E+0002
  0
LINE
  8
0
 10
 5.15150000000000E+0002
 20
 9.31800000000000E+0002
 11
 5.35550000000000E+0002
 21
 9.31800000000000E+0002
  0
ARC
  8
0
 10
 5.35550000000000E+0002
 20
 9.25000000000000E+0002
 40
 6.80000000000000E+0000
 50
 0.00000000000000E+0000
 51
 9.00000000000000E+0001
  0
LINE
  8
0
 10
 5.42350000000000E+0002
 20
 9.25000000000000E+0002
 11
 5.42350000000000E+0002
 21
 9.06300000000000E+0002
  0
ARC
  8
0
 10
 5.49150000000000E+0002
 20
 9.06300000000000E+0002
 40
 6.80000000000000E+0000
 50
 1.80000000000000E+0002
 51
 2.70000000000000E+0002
  0
LINE
  8
0
 10
 5.49150000000000E+0002
 20
 8.99500000000000E+0002
 11
 5.62100000000000E+0002
 21
 8.99550000000000E+0002
  0
ARC
  8
0
 10
 5.62100000000000E+0002
 20
 9.13150000000000E+0002
 40
 1.36000000000000E+0001
 50
 2.70000000000000E+0002
 51
 3.13605000000000E+0002
  0
LINE
  8
0
 10
 5.71479685223559E+0002
 20
 9.03302081178901E+0002
 11
 5.75930472164662E+0002
 21
 9.07471878231648E+0002
  0
ARC
  8
0
 10
 5.90000000000000E+0002
 20
 8.92700000000000E+0002
 40
 2.04000000000000E+0001
 50
 4.63950000000000E+0001
 51
 1.33605000000000E+0002
  0
LINE
  8
0
 10
 6.04069527835338E+0002
 20
 9.07471878231648E+0002
 11
 6.08520314776441E+0002
 21
 9.03302081178901E+0002
  0
ARC
  8
0
 10
 6.17900000000000E+0002
 20
 9.13150000000000E+0002
 40
 1.36000000000000E+0001
 50
 2.26395000000000E+0002
 51
 2.70000000000000E+0002
  0
LINE
  8
0
 10
 6.17900000000000E+0002
 20
 8.99550000000000E+0002
 11
 6.30850000000000E+0002
 21
 8.99500000000000E+0002
  0
ARC
  8
0
 10
 6.30850000000000E+0002
 20
 9.06300000000000E+0002
 40
 6.80000000000000E+0000
 50
 2.70000000000000E+0002
 51
 3.60000000000000E+0002
  0
LINE
  8
0
 10
 6.37650000000000E+0002
 20
 9.06300000000000E+0002
 11
 6.37650000000000E+0002
 21
 9.25000000000000E+0002
  0
ARC
  8
0
 10
 6.44450000000000E+0002
 20
 9.25000000000000E+0002
 40
 6.80000000000000E+0000
 50
 9.00000000000000E+0001
 51
 1.80000000000000E+0002
  0
LINE
  8
0
 10
 6.44450000000000E+0002
 20
 9.31800000000000E+0002
 11
 6.64850000000000E+0002
 21
 9.31800000000000E+0002
  0
ARC
  8
0
 10
 6.64850000000000E+0002
 20
 9.25000000000000E+0002
 40
 6.80000000000000E+0000
 50
 0.00000000000000E+0000
 51
 9.00000000000000E+0001
  0
LINE
  8
0
 10
 6.71650000000000E+0002
 20
 9.25000000000000E+0002
 11
 6.71650000000000E+0002
 21
 8.57000000000000E+0002
  0
ARC
  8
0
 10
 6.64850000000000E+0002
 20
 8.57000000000000E+0002
 40
 6.80000000000000E+0000
 50
 2.70000000000000E+0002
 51
 3.60000000000000E+0002
  0
LINE
  8
0
 10
 6.64850000000000E+0002
 20
 8.50200000000000E+0002
 11
 6.44450000000000E+0002
 21
 8.50200000000000E+0002
  0
ARC
  8
0
 10
 6.44450000000000E+0002
 20
 8.57000000000000E+0002
 40
 6.80000000000000E+0000
 50
 1.80000000000000E+0002
 51
 2.70000000000000E+0002
  0
LINE
  8
0
 10
 6.37650000000000E+0002
 20
 8.57000000000000E+0002
 11
 6.37650000000000E+0002
 21
 8.75700000000000E+0002
  0
ARC
  8
0
 10
 6.30850000000000E+0002
 20
 8.75700000000000E+0002
 40
 6.80000000000000E+0000
 50
 0.00000000000000E+0000
 51
 9.00000000000000E+0001
  0
LINE
  8
0
 10
 6.30850000000000E+0002
 20
 8.82500000000000E+0002
 11
 6.17900000000000E+0002
 21
 8.82450000000000E+0002
  0
ARC
  8
0
 10
 6.17900000000000E+0002
 20
 8.68850000000000E+0002
 40
 1.36000000000000E+0001
 50
 9.00000000000000E+0001
 51
 1.33605000000000E+0002
  0
LINE
  8
0
 10
 6.08520314776441E+0002
 20
 8.78697918821099E+0002
 11
 6.04069527835338E+0002
 21
 8.74528121768352E+0002
  0
ARC
  8
0
 10
 5.90000000000000E+0002
 20
 8.89300000000000E+0002
 40
 2.04000000000000E+0001
 50
 2.26395000000000E+0002
 51
 3.13605000000000E+0002
  0
LINE
  8
0
 10
 5.75930472164662E+0002
 20
 8.74528121768352E+0002
 11
 5.71479685223559E+0002
 21
 8.78697918821099E+0002
  0
ARC
  8
0
 10
 5.62100000000000E+0002
 20
 8.68850000000000E+0002
 40
 1.36000000000000E+0001
 50
 4.63950000000000E+0001
 51
 9.00000000000000E+0001
  0
LINE
  8
0
 10
 5.62100000000000E+0002
 20
 8.82450000000000E+0002
 11
 5.49150000000000E+0002
 21
 8.82500000000000E+0002
  0
ARC
  8
0
 10
 5.49150000000000E+0002
 20
 8.75700000000000E+0002
 40
 6.80000000000000E+0000
 50
 9.00000000000000E+0001
 51
 1.80000000000000E+0002
  0
LINE
  8
0
 10
 5.42350000000000E+0002
 20
 8.75700000000000E+0002
 11
 5.42350000000000E+0002
 21
 8.57000000000000E+0002
  0
ARC
  8
0
 10
 5.35550000000000E+0002
 20
 8.57000000000000E+0002
 40
 6.80000000000000E+0000
 50
 2.70000000000000E+0002
 51
 3.60000000000000E+0002
  0
LINE
  8
0
 10
 5.35550000000000E+0002
 20
 8.50200000000000E+0002
 11
 5.15139400000000E+0002
 21
 8.50166700000000E+0002
  0
LINE
  8
0
 10
 6.85277200000000E+0002
 20
 8.50166700000000E+0002
 11
 6.85250000000000E+0002
 21
 8.50200000000000E+0002
  0
ARC
  8
0
 10
 6.85250000000000E+0002
 20
 8.57000000000000E+0002
 40
 6.80000000000000E+0000
 50
 1.80000000000000E+0002
 51
 2.70000000000000E+0002
  0
LINE
  8
0
 10
 6.78450000000000E+0002
 20
 8.57000000000000E+0002
 11
 6.78450000000000E+0002
 21
 9.25000000000000E+0002
  0
ARC
  8
0
 10
 6.85250000000000E+0002
 20
 9.25000000000000E+0002
 40
 6.80000000000000E+0000
 50
 9.00000000000000E+0001
 51
 1.80000000000000E+0002
  0
LINE
  8
0
 10
 6.85250000000000E+0002
 20
 9.31800000000000E+0002
 11
 7.05700000000000E+0002
 21
 9.31800000000000E+0002
  0
ARC
  8
0
 10
 7.05700000000000E+0002
 20
 9.25000000000000E+0002
 40
 6.80000000000000E+0000
 50
 0.00000000000000E+0000
 51
 9.00000000000000E+0001
  0
LINE
  8
0
 10
 7.12500000000000E+0002
 20
 9.25000000000000E+0002
 11
 7.12500000000000E+0002
 21
 8.57000000000000E+0002
  0
ARC
  8
0
 10
 7.05700000000000E+0002
 20
 8.57000000000000E+0002
 40
 6.80000000000000E+0000
 50
 2.70000000000000E+0002
 51
 3.60000000000000E+0002
  0
LINE
  8
0
 10
 7.05700000000000E+0002
 20
 8.50200000000000E+0002
 11
 6.85277200000000E+0002
 21
 8.50166700000000E+0002
  0
LINE
  8
0
 10
 5.90000000000000E+0002
 20
 9.25708300000000E+0002
 11
 5.63203500000000E+0002
 21
 9.52505200000000E+0002
  0
LINE
  8
0
 10
 5.63203500000000E+0002
 20
 9.52505200000000E+0002
 11
 5.63203500000000E+0002
 21
 9.67392400000000E+0002
  0
LINE
  8
0
 10
 5.63203500000000E+0002
 20
 9.67392400000000E+0002
 11
 5.84045700000000E+0002
 21
 9.46550300000000E+0002
  0
LINE
  8
0
 10
 5.84045700000000E+0002
 20
 9.46550300000000E+0002
 11
 5.84045700000000E+0002
 21
 9.79302100000000E+0002
  0
LINE
  8
0
 10
 5.84045700000000E+0002
 20
 9.79302100000000E+0002
 11
 5.95954300000000E+0002
 21
 9.79302100000000E+0002
  0
LINE
  8
0
 10
 5.95954300000000E+0002
 20
 9.79302100000000E+0002
 11
 5.95954300000000E+0002
 21
 9.46550300000000E+0002
  0
LINE
  8
0
 10
 5.95954300000000E+0002
 20
 9.46550300000000E+0002
 11
 6.16796500000000E+0002
 21
 9.67392400000000E+0002
  0
LINE
  8
0
 10
 6.16796500000000E+0002
 20
 9.67392400000000E+0002
 11
 6.16796500000000E+0002
 21
 9.52505200000000E+0002
  0
LINE
  8
0
 10
 6.16796500000000E+0002
 20
 9.52505200000000E+0002
 11
 5.90000000000000E+0002
 21
 9.25708300000000E+0002
  0
LINE
  8
0
 10
 6.41901600000000E+0002
 20
 9.93083300000000E+0002
 11
 6.32714100000000E+0002
 21
 9.93083300000000E+0002
  0
ARC
  8
0
 10
 6.32714100000000E+0002
 20
 1.00962080000000E+0003
 40
 1.65375000000000E+0001
 50
 1.80000000000000E+0002
 51
 2.70000000000000E+0002
  0
LINE
  8
0
 10
 6.16176600000000E+0002
 20
 1.00962080000000E+0003
 11
 6.16176600000000E+0002
 21
 1.05463955000000E+0003
  0
LINE
  8
0
 10
 6.16176600000000E+0002
 20
 1.05463955000000E+0003
 11
 6.08826600000000E+0002
 21
 1.05463955000000E+0003
  0
LINE
  8
0
 10
 6.08826600000000E+0002
 20
 1.05463955000000E+0003
 11
 6.08826600000000E+0002
 21
 1.06658330000000E+0003
  0
LINE
  8
0
 10
 6.08826600000000E+0002
 20
 1.06658330000000E+0003
 11
 6.16176600000000E+0002
 21
 1.06658330000000E+0003
  0
LINE
  8
0
 10
 6.16176600000000E+0002
 20
 1.06658330000000E+0003
 11
 6.16176600000000E+0002
 21
 1.08863330000000E+0003
  0
LINE
  8
0
 10
 6.16176600000000E+0002
 20
 1.08863330000000E+0003
 11
 6.30876600000000E+0002
 21
 1.08863330000000E+0003
  0
LINE
  8
0
 10
 6.30876600000000E+0002
 20
 1.08863330000000E+0003
 11
 6.30876600000000E+0002
 21
 1.06658330000000E+0003
  0
LINE
  8
0
 10
 6.30876600000000E+0002
 20
 1.06658330000000E+0003
 11
 6.41901600000000E+0002
 21
 1.06658330000000E+0003
  0
LINE
  8
0
 10
 6.41901600000000E+0002
 20
 1.06658330000000E+0003
 11
 6.41901600000000E+0002
 21
 1.05463955000000E+0003
  0
LINE
  8
0
 10
 6.41901600000000E+0002
 20
 1.05463955000000E+0003
 11
 6.30876600000000E+0002
 21
 1.05463955000000E+0003
  0
LINE
  8
0
 10
 6.30876600000000E+0002
 20
 1.05463955000000E+0003
 11
 6.30876600000000E+0002
 21
 1.01145830000000E+0003
  0
ARC
  8
0
 10
 6.35470350000000E+0002
 20
 1.01145830000000E+0003
 40
 4.59375000000000E+0000
 50
 1.80000000000000E+0002
 51
 2.70000000000000E+0002
  0
LINE
  8
0
 10
 6.35470350000000E+0002
 20
 1.00686455000000E+0003
 11
 6.41901600000000E+0002
 21
 1.00686455000000E+0003
  0
LINE
  8
0
 10
 6.41901600000000E+0002
 20
 1.00686455000000E+0003
 11
 6.41901600000000E+0002
 21
 9.93083300000000E+0002
  0
ARC
  8
0
 10
 5.56983850000000E+0002
 20
 1.02340215000000E+0003
 40
 2.84812500000000E+0001
 50
 1.25460450000000E+0002
 51
 1.80000000000000E+0002
  0
LINE
  8
0
 10
 5.28502600000000E+0002
 20
 1.02340215000000E+0003
 11
 5.28502600000000E+0002
 21
 1.02340215000000E+0003
  0
ARC
  8
0
 10
 5.59740100000000E+0002
 20
 1.02340215000000E+0003
 40
 3.12375000000000E+0001
 50
 1.80000000000000E+0002
 51
 3.60000000000000E+0002
  0
LINE
  8
0
 10
 5.90977600000000E+0002
 20
 1.02340215000000E+0003
 11
 5.90977600000000E+0002
 21
 1.02340215000000E+0003
  0
ARC
  8
0
 10
 5.62496350000000E+0002
 20
 1.02340215000000E+0003
 40
 2.84812500000000E+0001
 50
 0.00000000000000E+0000
 51
 5.45395500000000E+0001
  0
LINE
  8
0
 10
 5.79019486629769E+0002
 20
 1.04660058868618E+0003
 11
 5.79019490132455E+0002
 21
 1.04660058895242E+0003
  0
ARC
  8
0
 10
 5.62496350000000E+0002
 20
 1.06750215000000E+0003
 40
 2.66437500000000E+0001
 50
 3.08327140000000E+0002
 51
 3.60000000000000E+0002
  0
LINE
  8
0
 10
 5.89140100000000E+0002
 20
 1.06750215000000E+0003
 11
 5.89140100000000E+0002
 21
 1.06750215000000E+0003
  0
ARC
  8
0
 10
 5.59740100000000E+0002
 20
 1.06750215000000E+0003
 40
 2.94000000000000E+0001
 50
 0.00000000000000E+0000
 51
 1.80000000000000E+0002
  0
LINE
  8
0
 10
 5.30340100000000E+0002
 20
 1.06750215000000E+0003
 11
 5.30340100000000E+0002
 21
 1.06750215000000E+0003
  0
ARC
  8
0
 10
 5.56983850000000E+0002
 20
 1.06750215000000E+0003
 40
 2.66437500000000E+0001
 50
 1.80000000000000E+0002
 51
 2.31672860000000E+0002
  0
CIRCLE
  8
0
 10
 5.59740100000000E+0002
 20
 1.02340215000000E+0003
 40
 1.65375000000000E+0001
  0
CIRCLE
  8
0
 10
 5.59740100000000E+0002
 20
 1.06750215000000E+0003
 40
 1.47000000000000E+0001
  0
CIRCLE
  8
0
 10
 9.30000000000000E+0002
 20
 5.25000000000000E+0002
 40
 2.32750000000000E+0002
  0
CIRCLE
  8
0
 10
 9.30000000000000E+0002
 20
 5.25000000000000E+0002
 40
 1.71500000000000E+0002
  0
LINE
  8
0
 10
 8.14306100000000E+0002
 20
 4.22916700000000E+0002
 11
 8.14300000000000E+0002
 21
 4.22950000000000E+0002
  0
ARC
  8
0
 10
 8.14300000000000E+0002
 20
 4.29750000000000E+0002
 40
 6.80000000000000E+0000
 50
 1.80000000000000E+0002
 51
 2.70000000000000E+0002
  0
LINE
  8
0
 10
 8.07500000000000E+0002
 20
 4.29750000000000E+0002
 11
 8.07500000000000E+0002
 21
 4.97750000000000E+0002
  0
ARC
  8
0
 10
 8.14300000000000E+0002
 20
 4.97750000000000E+0002
 40
 6.80000000000000E+0000
 50
 9.00000000000000E+0001
 51
 1.80000000000000E+0002
  0
LINE
  8
0
 10
 8.14300000000000E+0002
 20
 5.04550000000000E+0002
 11
 8.34750000000000E+0002
 21
 5.04550000000000E+0002
  0
ARC
  8
0
 10
 8.34750000000000E+0002
 20
 4.97750000000000E+0002
 40
 6.80000000000000E+0000
 50
 0.00000000000000E+0000
 51
 9.00000000000000E+0001
  0
LINE
  8
0
 10
 8.41550000000000E+0002
 20
 4.97750000000000E+0002
 11
 8.41550000000000E+0002
 21
 4.29750000000000E+0002
  0
ARC
  8
0
 10
 8.34750000000000E+0002
 20
 4.29750000000000E+0002
 40
 6.80000000000000E+0000
 50
 2.70000000000000E+0002
 51
 3.60000000000000E+0002
  0
LINE
  8
0
 10
 8.34750000000000E+0002
 20
 4.22950000000000E+0002
 11
 8.14306100000000E+0002
 21
 4.22916700000000E+0002
  0
LINE
  8
0
 10
 8.55139400000000E+0002
 20
 4.22916700000000E+0002
 11
 8.55150000000000E+0002
 21
 4.22950000000000E+0002
  0
ARC
  8
0
 10
 8.55150000000000E+0002
 20
 4.29750000000000E+0002
 40
 6.80000000000000E+0000
 50
 1.80000000000000E+0002
 51
 2.70000000000000E+0002
  0
LINE
  8
0
 10
 8.48350000000000E+0002
 20
 4.29750000000000E+0002
 11
 8.48350000000000E+0002
 21
 4.97750000000000E+0002
  0
ARC
  8
0
 10
 8.55150000000000E+0002
 20
 4.97750000000000E+0002
 40
 6.80000000000000E+0000
 50
 9.00000000000000E+0001
 51
 1.80000000000000E+0002
  0
LINE
  8
0
 10
 8.55150000000000E+0002
 20
 5.04550000000000E+0002
 11
 8.75550000000000E+0002
 21
 5.04550000000000E+0002
  0
ARC
  8
0
 10
 8.75550000000000E+0002
 20
 4.97750000000000E+0002
 40
 6.80000000000000E+0000
 50
 0.00000000000000E+0000
 51
 9.00000000000000E+0001
  0
LINE
  8
0
 10
 8.82350000000000E+0002
 20
 4.97750000000000E+0002
 11
 8.82350000000000E+0002
 21
 4.79050000000000E+0002
  0
ARC
  8
0
 10
 8.89150000000000E+0002
 20
 4.79050000000000E+0002
 40
 6.80000000000000E+0000
 50
 1.80000000000000E+0002
 51
 2.70000000000000E+0002
  0
LINE
  8
0
 10
 8.89150000000000E+0002
 20
 4.72250000000000E+0002
 11
 9.02100000000000E+0002
 21
 4.72300000000000E+0002
  0
ARC
  8
0
 10
 9.02100000000000E+0002
 20
 4.85900000000000E+0002
 40
 1.36000000000000E+0001
 50
 2.70000000000000E+0002
 51
 3.13605000000000E+0002
  0
LINE
  8
0
 10
 9.11479685223559E+0002
 20
 4.76052081178901E+0002
 11
 9.15930472164662E+0002
 21
 4.80221878231648E+0002
  0
ARC
  8
0
 10
 9.30000000000000E+0002
 20
 4.65450000000000E+0002
 40
 2.04000000000000E+0001
 50
 4.63950000000000E+0001
 51
 1.33605000000000E+0002
  0
LINE
  8
0
 10
 9.44069527835338E+0002
 20
 4.80221878231648E+0002
 11
 9.48520314776441E+0002
 21
 4.76052081178901E+0002
  0
ARC
  8
0
 10
 9.57900000000000E+0002
 20
 4.85900000000000E+0002
 40
 1.36000000000000E+0001
 50
 2.26395000000000E+0002
 51
 2.70000000000000E+0002
  0
LINE
  8
0
 10
 9.57900000000000E+0002
 20
 4.72300000000000E+0002
 11
 9.70850000000000E+0002
 21
 4.72250000000000E+0002
  0
ARC
  8
0
 10
 9.70850000000000E+0002
 20
 4.79050000000000E+0002
 40
 6.80000000000000E+0000
 50
 2.70000000000000E+0002
 51
 3.60000000000000E+0002
  0
LINE
  8
0
 10
 9.77650000000000E+0002
 20
 4.79050000000000E+0002
 11
 9.77650000000000E+0002
 21
 4.97750000000000E+0002
  0
ARC
  8
0
 10
 9.84450000000000E+0002
 20
 4.97750000000000E+0002
 40
 6.80000000000000E+0000
 50
 9.00000000000000E+0001
 51
 1.80000000000000E+0002
  0
LINE
  8
0
 10
 9.84450000000000E+0002
 20
 5.04550000000000E+0002
 11
 1.00485000000000E+0003
 21
 5.04550000000000E+0002
  0
ARC
  8
0
 10
 1.00485000000000E+0003
 20
 4.97750000000000E+0002
 40
 6.80000000000000E+0000
 50
 0.00000000000000E+0000
 51
 9.00000000000000E+0001
  0
LINE
  8
0
 10
 1.01165000000000E+0003
 20
 4.97750000000000E+0002
 11
 1.01165000000000E+0003
 21
 4.29750000000000E+0002
  0
ARC
  8
0
 10
 1.00485000000000E+0003
 20
 4.29750000000000E+0002
 40
 6.80000000000000E+0000
 50
 2.70000000000000E+0002
 51
 3.60000000000000E+0002
  0
LINE
  8
0
 10
 1.00485000000000E+0003
 20
 4.22950000000000E+0002
 11
 9.84450000000000E+0002
 21
 4.22950000000000E+0002
  0
ARC
  8
0
 10
 9.84450000000000E+0002
 20
 4.29750000000000E+0002
 40
 6.80000000000000E+0000
 50
 1.80000000000000E+0002
 51
 2.70000000000000E+0002
  0
LINE
  8
0
 10
 9.77650000000000E+0002
 20
 4.29750000000000E+0002
 11
 9.77650000000000E+0002
 21
 4.48450000000000E+0002
  0
ARC
  8
0
 10
 9.70850000000000E+0002
 20
 4.48450000000000E+0002
 40
 6.80000000000000E+0000
 50
 0.00000000000000E+0000
 51
 9.00000000000000E+0001
  0
LINE
  8
0
 10
 9.70850000000000E+0002
 20
 4.55250000000000E+0002
 11
 9.57900000000000E+0002
 21
 4.55200000000000E+0002
  0
ARC
  8
0
 10
 9.57900000000000E+0002
 20
 4.41600000000000E+0002
 40
 1.36000000000000E+0001
 50
 9.00000000000000E+0001
 51
 1.33605000000000E+0002
  0
LINE
  8
0
 10
 9.48520314776441E+0002
 20
 4.51447918821099E+0002
 11
 9.44069527835338E+0002
 21
 4.47278121768352E+0002
  0
ARC
  8
0
 10
 9.30000000000000E+0002
 20
 4.62050000000000E+0002
 40
 2.04000000000000E+0001
 50
 2.26395000000000E+0002
 51
 3.13605000000000E+0002
  0
LINE
  8
0
 10
 9.15930472164662E+0002
 20
 4.47278121768352E+0002
 11
 9.11479685223559E+0002
 21
 4.51447918821099E+0002
  0
ARC
  8
0
 10
 9.02100000000000E+0002
 20
 4.41600000000000E+0002
 40
 1.36000000000000E+0001
 50
 4.63950000000000E+0001
 51
 9.00000000000000E+0001
  0
LINE
  8
0
 10
 9.02100000000000E+0002
 20
 4.55200000000000E+0002
 11
 8.89150000000000E+0002
 21
 4.55250000000000E+0002
  0
ARC
  8
0
 10
 8.89150000000000E+0002
 20
 4.48450000000000E+0002
 40
 6.80000000000000E+0000
 50
 9.00000000000000E+0001
 51
 1.80000000000000E+0002
  0
LINE
  8
0
 10
 8.82350000000000E+0002
 20
 4.48450000000000E+0002
 11
 8.82350000000000E+0002
 21
 4.29750000000000E+0002
  0
ARC
  8
0
 10
 8.75550000000000E+0002
 20
 4.29750000000000E+0002
 40
 6.80000000000000E+0000
 50
 2.70000000000000E+0002
 51
 3.60000000000000E+0002
  0
LINE
  8
0
 10
 8.75550000000000E+0002
 20
 4.22950000000000E+0002
 11
 8.55139400000000E+0002
 21
 4.22916700000000E+0002
  0
LINE
  8
0
 10
 1.02527720000000E+0003
 20
 4.22916700000000E+0002
 11
 1.02525000000000E+0003
 21
 4.22950000000000E+0002
  0
ARC
  8
0
 10
 1.02525000000000E+0003
 20
 4.29750000000000E+0002
 40
 6.80000000000000E+0000
 50
 1.80000000000000E+0002
 51
 2.70000000000000E+0002
  0
LINE
  8
0
 10
 1.01845000000000E+0003
 20
 4.29750000000000E+0002
 11
 1.01845000000000E+0003
 21
 4.97750000000000E+0002
  0
ARC
  8
0
 10
 1.02525000000000E+0003
 20
 4.97750000000000E+0002
 40
 6.80000000000000E+0000
 50
 9.00000000000000E+0001
 51
 1.80000000000000E+0002
  0
LINE
  8
0
 10
 1.02525000000000E+0003
 20
 5.04550000000000E+0002
 11
 1.04570000000000E+0003
 21
 5.04550000000000E+0002
  0
ARC
  8
0
 10
 1.04570000000000E+0003
 20
 4.97750000000000E+0002
 40
 6.80000000000000E+0000
 50
 0.00000000000000E+0000
 51
 9.00000000000000E+0001
  0
LINE
  8
0
 10
 1.05250000000000E+0003
 20
 4.97750000000000E+0002
 11
 1.05250000000000E+0003
 21
 4.29750000000000E+0002
  0
ARC
  8
0
 10
 1.04570000000000E+0003
 20
 4.29750000000000E+0002
 40
 6.80000000000000E+0000
 50
 2.70000000000000E+0002
 51
 3.60000000000000E+0002
  0
LINE
  8
0
 10
 1.04570000000000E+0003
 20
 4.22950000000000E+0002
 11
 1.02527720000000E+0003
 21
 4.22916700000000E+0002
  0
LINE
  8
0
 10
 9.30000000000000E+0002
 20
 4.98458300000000E+0002
 11
 9.03203500000000E+0002
 21
 5.25255200000000E+0002
  0
LINE
  8
0
 10
 9.03203500000000E+0002
 20
 5.25255200000000E+0002
 11
 9.03203500000000E+0002
 21
 5.40142400000000E+0002
  0
LINE
  8
0
 10
 9.03203500000000E+0002
 20
 5.40142400000000E+0002
 11
 9.24045700000000E+0002
 21
 5.19300300000000E+0002
  0
LINE
  8
0
 10
 9.24045700000000E+0002
 20
 5.19300300000000E+0002
 11
 9.24045700000000E+0002
 21
 5.52052100000000E+0002
  0
LINE
  8
0
 10
 9.24045700000000E+0002
 20
 5.52052100000000E+0002
 11
 9.35954300000000E+0002
 21
 5.52052100000000E+0002
  0
LINE
  8
0
 10
 9.35954300000000E+0002
 20
 5.52052100000000E+0002
 11
 9.35954300000000E+0002
 21
 5.19300300000000E+0002
  0
LINE
  8
0
 10
 9.35954300000000E+0002
 20
 5.19300300000000E+0002
 11
 9.56796500000000E+0002
 21
 5.40142400000000E+0002
  0
LINE
  8
0
 10
 9.56796500000000E+0002
 20
 5.40142400000000E+0002
 11
 9.56796500000000E+0002
 21
 5.25255200000000E+0002
  0
LINE
  8
0
 10
 9.56796500000000E+0002
 20
 5.25255200000000E+0002
 11
 9.30000000000000E+0002
 21
 4.98458300000000E+0002
  0
LINE
  8
0
 10
 9.81901600000000E+0002
 20
 5.65833300000000E+0002
 11
 9.72714100000000E+0002
 21
 5.65833300000000E+0002
  0
ARC
  8
0
 10
 9.72714100000000E+0002
 20
 5.82370800000000E+0002
 40
 1.65375000000000E+0001
 50
 1.80000000000000E+0002
 51
 2.70000000000000E+0002
  0
LINE
  8
0
 10
 9.56176600000000E+0002
 20
 5.82370800000000E+0002
 11
 9.56176600000000E+0002
 21
 6.27389550000000E+0002
  0
LINE
  8
0
 10
 9.56176600000000E+0002
 20
 6.27389550000000E+0002
 11
 9.48826600000000E+0002
 21
 6.27389550000000E+0002
  0
LINE
  8
0
 10
 9.48826600000000E+0002
 20
 6.27389550000000E+0002
 11
 9.48826600000000E+0002
 21
 6.39333300000000E+0002
  0
LINE
  8
0
 10
 9.48826600000000E+0002
 20
 6.39333300000000E+0002
 11
 9.56176600000000E+0002
 21
 6.39333300000000E+0002
  0
LINE
  8
0
 10
 9.56176600000000E+0002
 20
 6.39333300000000E+0002
 11
 9.56176600000000E+0002
 21
 6.61383300000000E+0002
  0
LINE
  8
0
 10
 9.56176600000000E+0002
 20
 6.61383300000000E+0002
 11
 9.70876600000000E+0002
 21
 6.61383300000000E+0002
  0
LINE
  8
0
 10
 9.70876600000000E+0002
 20
 6.61383300000000E+0002
 11
 9.70876600000000E+0002
 21
 6.39333300000000E+0002
  0
LINE
  8
0
 10
 9.70876600000000E+0002
 20
 6.39333300000000E+0002
 11
 9.81901600000000E+0002
 21
 6.39333300000000E+0002
  0
LINE
  8
0
 10
 9.81901600000000E+0002
 20
 6.39333300000000E+0002
 11
 9.81901600000000E+0002
 21
 6.27389550000000E+0002
  0
LINE
  8
0
 10
 9.81901600000000E+0002
 20
 6.27389550000000E+0002
 11
 9.70876600000000E+0002
 21
 6.27389550000000E+0002
  0
LINE
  8
0
 10
 9.70876600000000E+0002
 20
 6.27389550000000E+0002
 11
 9.70876600000000E+0002
 21
 5.84208300000000E+0002
  0
ARC
  8
0
 10
 9.75470350000000E+0002
 20
 5.84208300000000E+0002
 40
 4.59375000000000E+0000
 50
 1.80000000000000E+0002
 51
 2.70000000000000E+0002
  0
LINE
  8
0
 10
 9.75470350000000E+0002
 20
 5.79614550000000E+0002
 11
 9.81901600000000E+0002
 21
 5.79614550000000E+0002
  0
LINE
  8
0
 10
 9.81901600000000E+0002
 20
 5.79614550000000E+0002
 11
 9.81901600000000E+0002
 21
 5.65833300000000E+0002
  0
ARC
  8
0
 10
 8.96983850000000E+0002
 20
 5.96152050000000E+0002
 40
 2.84812500000000E+0001
 50
 1.25460450000000E+0002
 51
 1.80000000000000E+0002
  0
LINE
  8
0
 10
 8.68502600000000E+0002
 20
 5.96152050000000E+0002
 11
 8.68502600000000E+0002
 21
 5.96152050000000E+0002
  0
ARC
  8
0
 10
 8.99740100000000E+0002
 20
 5.96152050000000E+0002
 40
 3.12375000000000E+0001
 50
 1.80000000000000E+0002
 51
 3.60000000000000E+0002
  0
LINE
  8
0
 10
 9.30977600000000E+0002
 20
 5.96152050000000E+0002
 11
 9.30977600000000E+0002
 21
 5.96152050000000E+0002
  0
ARC
  8
0
 10
 9.02496350000000E+0002
 20
 5.96152050000000E+0002
 40
 2.84812500000000E+0001
 50
 0.00000000000000E+0000
 51
 5.45395500000000E+0001
  0
LINE
  8
0
 10
 9.19019486629769E+0002
 20
 6.19350488686181E+0002
 11
 9.19019490132455E+0002
 21
 6.19350488952419E+0002
  0
ARC
  8
0
 10
 9.02496350000000E+0002
 20
 6.40252050000000E+0002
 40
 2.66437500000000E+0001
 50
 3.08327140000000E+0002
 51
 3.60000000000000E+0002
  0
LINE
  8
0
 10
 9.29140100000000E+0002
 20
 6.40252050000000E+0002
 11
 9.29140100000000E+0002
 21
 6.40252050000000E+0002
  0
ARC
  8
0
 10
 8.99740100000000E+0002
 20
 6.40252050000000E+0002
 40
 2.94000000000000E+0001
 50
 0.00000000000000E+0000
 51
 1.80000000000000E+0002
  0
LINE
  8
0
 10
 8.70340100000000E+0002
 20
 6.40252050000000E+0002
 11
 8.70340100000000E+0002
 21
 6.40252050000000E+0002
  0
ARC
  8
0
 10
 8.96983850000000E+0002
 20
 6.40252050000000E+0002
 40
 2.66437500000000E+0001
 50
 1.80000000000000E+0002
 51
 2.31672860000000E+0002
  0
CIRCLE
  8
0
 10
 8.99740100000000E+0002
 20
 5.96152050000000E+0002
 40
 1.65375000000000E+0001
  0
CIRCLE
  8
0
 10
 8.99740100000000E+0002
 20
 6.40252050000000E+0002
 40
 1.47000000000000E+0001
  0
ENDSEC
  0
EOF
