  0
SECTION
  2
HEADER
  9
$ACADVER
  1
AC1003
  9
$INSBASE
 10
0.0
 20
0.0
  9
$EXTMIN
 10
 0.00000000000000E+0000
 20
 0.00000000000000E+0000
  9
$EXTMAX
 10
 1.25000000000000E+0003
 20
 1.60000000000000E+0003
  9
$LIMMIN
 10
0.0
 20
0.0
  9
$LIMMAX
 10
410.0
 20
287.0
  9
$VIEWCTR
 10
227.0059616
 20
165.058879 
  9
$VIEWSIZE
 40
 1.60000000000000E+0003
9
$SNAPMODE
70
0
9
$SNAPUNIT
10
1
20
1
9
$GRIDMODE
70
0
9
$GRIDUNIT
10
1
20
1
9
$ORTHOMODE
70
0
9
$rEGENMODE
70
1
9
$FILLMODE
70
1
9
$DRAGMODE
70
2
9
$LTSCALE
40
25.0
9
$OSMODE
70
0
9
$ATTMODE
70
1
9
$TRACEWID
40
1.0
9
$TEXTSTYLE
7
STANDARD
9
$CLAYER
8
0
9
$CELTYPE
6
VONLAYER
9
$CECOLOR
62
256
9
$LUNITS
70
2
9
$LUPREC
70
2
9
$AXISMODE
70
0
9
$AXISUNIT
10
0
20
0
9
$SKETCHINC
40
1.0
9
$FILLETRAD
40
0.0
9
$AUNITS
70
0
9
$AUPREC
70
0
9
$MENU
1
ACAD
9
$ELEVATION
40
0.0
9
$THICKNESS
40
0.0
9
$VIEWDIR
10
0.0
20
0.0
30
1.0
9
$LIMCHECK
70
0
9
$BLIPMODE
70
1
9
$CHAMFERA
40
0.0
9
$CHAMFERB
40
0.0
9
$USRTIMER
70
1
9
$ANGBASE
50
0.0
9
$ANGDIR
70
0
9
$PDMODE
70
0
9
$PDSIZE
40
0.0
9
$PLINEWID
40
0.0
9
$COORDS
70
0
0
ENDSEC
0
SECTION
2
TABLES
0
TABLE
2
LTYPE
70
1
0
LTYPE
2
AUSGEZOGEN
70
64
3
Ausgezogene Linie
72
65
73
0
40
0.0
0
ENDTAB
0
TABLE
2
LAYER
70
1
0
LAYER
2
0
70
0
62
7
6
AUSGEZOGEN
0
ENDTAB
0
TABLE
2
STYLE
70
1
0
STYLE
2
STANDARD
70
0
40
0.0
41
1.0
50
0.0
71
0
42
3.5
3
txt
4

0
ENDTAB
0
TABLE
2
VIEW
70
0
0
ENDTAB
0
ENDSEC
0
SECTION
2
BLOCKS
0
ENDSEC
0
SECTION
2
ENTITIES
  0
ARC
  8
0
 10
 6.00000000000000E+0001
 20
 6.00000000000000E+0001
 40
 6.00000000000000E+0001
 50
 1.80000000000000E+0002
 51
 2.70000000000000E+0002
  0
LINE
  8
0
 10
 0.00000000000000E+0000
 20
 6.00000000000000E+0001
 11
 0.00000000000000E+0000
 21
 1.54000000000000E+0003
  0
ARC
  8
0
 10
 6.00000000000000E+0001
 20
 1.54000000000000E+0003
 40
 6.00000000000000E+0001
 50
 9.00000000000000E+0001
 51
 1.80000000000000E+0002
  0
LINE
  8
0
 10
 6.00000000000000E+0001
 20
 1.60000000000000E+0003
 11
 1.19000000000000E+0003
 21
 1.60000000000000E+0003
  0
ARC
  8
0
 10
 1.19000000000000E+0003
 20
 1.54000000000000E+0003
 40
 6.00000000000000E+0001
 50
 0.00000000000000E+0000
 51
 9.00000000000000E+0001
  0
LINE
  8
0
 10
 1.25000000000000E+0003
 20
 1.54000000000000E+0003
 11
 1.25000000000000E+0003
 21
 6.00000000000000E+0001
  0
ARC
  8
0
 10
 1.19000000000000E+0003
 20
 6.00000000000000E+0001
 40
 6.00000000000000E+0001
 50
 2.70000000000000E+0002
 51
 3.60000000000000E+0002
  0
LINE
  8
0
 10
 1.19000000000000E+0003
 20
 0.00000000000000E+0000
 11
 6.00000000000000E+0001
 21
 0.00000000000000E+0000
  0
ARC
  8
0
 10
 6.00000000000000E+0001
 20
 6.00000000000000E+0001
 40
 4.50000000000000E+0001
 50
 1.80000000000000E+0002
 51
 2.70000000000000E+0002
  0
LINE
  8
0
 10
 1.50000000000000E+0001
 20
 6.00000000000000E+0001
 11
 1.50000000000000E+0001
 21
 1.54000000000000E+0003
  0
ARC
  8
0
 10
 6.00000000000000E+0001
 20
 1.54000000000000E+0003
 40
 4.50000000000000E+0001
 50
 9.00000000000000E+0001
 51
 1.80000000000000E+0002
  0
LINE
  8
0
 10
 6.00000000000000E+0001
 20
 1.58500000000000E+0003
 11
 1.19000000000000E+0003
 21
 1.58500000000000E+0003
  0
ARC
  8
0
 10
 1.19000000000000E+0003
 20
 1.54000000000000E+0003
 40
 4.50000000000000E+0001
 50
 0.00000000000000E+0000
 51
 9.00000000000000E+0001
  0
LINE
  8
0
 10
 1.23500000000000E+0003
 20
 1.54000000000000E+0003
 11
 1.23500000000000E+0003
 21
 6.00000000000000E+0001
  0
ARC
  8
0
 10
 1.19000000000000E+0003
 20
 6.00000000000000E+0001
 40
 4.50000000000000E+0001
 50
 2.70000000000000E+0002
 51
 3.60000000000000E+0002
  0
LINE
  8
0
 10
 1.19000000000000E+0003
 20
 1.50000000000000E+0001
 11
 6.00000000000000E+0001
 21
 1.50000000000000E+0001
  0
ARC
  8
0
 10
 6.00000000000000E+0001
 20
 6.00000000000000E+0001
 40
 2.50000000000000E+0001
 50
 1.80000000000000E+0002
 51
 2.70000000000000E+0002
  0
LINE
  8
0
 10
 3.50000000000000E+0001
 20
 6.00000000000000E+0001
 11
 3.50000000000000E+0001
 21
 1.54000000000000E+0003
  0
ARC
  8
0
 10
 6.00000000000000E+0001
 20
 1.54000000000000E+0003
 40
 2.50000000000000E+0001
 50
 9.00000000000000E+0001
 51
 1.80000000000000E+0002
  0
LINE
  8
0
 10
 6.00000000000000E+0001
 20
 1.56500000000000E+0003
 11
 1.19000000000000E+0003
 21
 1.56500000000000E+0003
  0
ARC
  8
0
 10
 1.19000000000000E+0003
 20
 1.54000000000000E+0003
 40
 2.50000000000000E+0001
 50
 0.00000000000000E+0000
 51
 9.00000000000000E+0001
  0
LINE
  8
0
 10
 1.21500000000000E+0003
 20
 1.54000000000000E+0003
 11
 1.21500000000000E+0003
 21
 6.00000000000000E+0001
  0
ARC
  8
0
 10
 1.19000000000000E+0003
 20
 6.00000000000000E+0001
 40
 2.50000000000000E+0001
 50
 2.70000000000000E+0002
 51
 3.60000000000000E+0002
  0
LINE
  8
0
 10
 1.19000000000000E+0003
 20
 3.50000000000000E+0001
 11
 6.00000000000000E+0001
 21
 3.50000000000000E+0001
  0
LINE
  8
0
 10
 3.70000000000000E+0002
 20
 1.30700000000000E+0003
 11
 3.24978192449691E+0002
 21
 1.29537544109514E+0003
  0
ARC
  8
0
 10
 3.22000000000000E+0002
 20
 1.30700000000000E+0003
 40
 1.20000000000000E+0001
 50
 1.46195000000000E+0002
 51
 2.84370000000000E+0002
  0
LINE
  8
0
 10
 3.12028768958084E+0002
 20
 1.31367641756549E+0003
 11
 4.00000000000000E+0002
 21
 1.44500000000000E+0003
  0
LINE
  8
0
 10
 4.00000000000000E+0002
 20
 1.44500000000000E+0003
 11
 4.87970648376606E+0002
 21
 1.31367728769412E+0003
  0
ARC
  8
0
 10
 4.78000000000000E+0002
 20
 1.30700000000000E+0003
 40
 1.20000000000000E+0001
 50
 2.55635000000000E+0002
 51
 3.93810000000000E+0002
  0
LINE
  8
0
 10
 4.75022821995783E+0002
 20
 1.29537518124308E+0003
 11
 4.30000000000000E+0002
 21
 1.30700000000000E+0003
  0
LINE
  8
0
 10
 4.30000000000000E+0002
 20
 1.30700000000000E+0003
 11
 4.30000000000000E+0002
 21
 1.55000000000000E+0002
  0
LINE
  8
0
 10
 4.30000000000000E+0002
 20
 1.55000000000000E+0002
 11
 3.70000000000000E+0002
 21
 1.55000000000000E+0002
  0
LINE
  8
0
 10
 3.70000000000000E+0002
 20
 1.55000000000000E+0002
 11
 3.70000000000000E+0002
 21
 1.30700000000000E+0003
  0
LINE
  8
0
 10
 7.95000000000000E+0002
 20
 1.30700000000000E+0003
 11
 7.49999490553610E+0002
 21
 1.29538091843480E+0003
  0
ARC
  8
0
 10
 7.47000000000000E+0002
 20
 1.30700000000000E+0003
 40
 1.20000000000000E+0001
 50
 1.46195000000000E+0002
 51
 2.84475000000000E+0002
  0
LINE
  8
0
 10
 7.37028768958083E+0002
 20
 1.31367641756549E+0003
 11
 8.25000000000000E+0002
 21
 1.44500000000000E+0003
  0
LINE
  8
0
 10
 8.25000000000000E+0002
 20
 1.44500000000000E+0003
 11
 9.12971231041917E+0002
 21
 1.31367641756549E+0003
  0
ARC
  8
0
 10
 9.03000000000000E+0002
 20
 1.30700000000000E+0003
 40
 1.20000000000000E+0001
 50
 2.55525000000000E+0002
 51
 3.93805000000000E+0002
  0
LINE
  8
0
 10
 9.00000509446390E+0002
 20
 1.29538091843480E+0003
 11
 8.55000000000000E+0002
 21
 1.30700000000000E+0003
  0
LINE
  8
0
 10
 8.55000000000000E+0002
 20
 1.30700000000000E+0003
 11
 8.54990627553650E+0002
 21
 1.04317882912159E+0003
  0
ARC
  8
0
 10
 8.25000000000000E+0002
 20
 7.97150000000000E+0002
 40
 2.47850000000000E+0002
 50
 8.30500000000000E+0001
 51
 9.69500000000000E+0001
  0
LINE
  8
0
 10
 7.95009372446350E+0002
 20
 1.04317882912159E+0003
 11
 7.95000000000000E+0002
 21
 1.30700000000000E+0003
  0
LINE
  8
0
 10
 8.55000000000000E+0002
 20
 5.56828200000000E+0002
 11
 8.55000000000000E+0002
 21
 1.55000000000000E+0002
  0
LINE
  8
0
 10
 8.55000000000000E+0002
 20
 1.55000000000000E+0002
 11
 7.95000000000000E+0002
 21
 1.55000000000000E+0002
  0
LINE
  8
0
 10
 7.95000000000000E+0002
 20
 1.55000000000000E+0002
 11
 7.95009372446350E+0002
 21
 5.56821170878415E+0002
  0
ARC
  8
0
 10
 8.25000000000000E+0002
 20
 8.02850000000000E+0002
 40
 2.47850000000000E+0002
 50
 2.63050000000000E+0002
 51
 2.76950000000000E+0002
  0
CIRCLE
  8
0
 10
 8.25000000000000E+0002
 20
 8.00000000000000E+0002
 40
 2.32750000000000E+0002
  0
CIRCLE
  8
0
 10
 8.25000000000000E+0002
 20
 8.00000000000000E+0002
 40
 1.71500000000000E+0002
  0
LINE
  8
0
 10
 7.09306100000000E+0002
 20
 6.97916700000000E+0002
 11
 7.09300000000000E+0002
 21
 6.97950000000000E+0002
  0
ARC
  8
0
 10
 7.09300000000000E+0002
 20
 7.04750000000000E+0002
 40
 6.80000000000000E+0000
 50
 1.80000000000000E+0002
 51
 2.70000000000000E+0002
  0
LINE
  8
0
 10
 7.02500000000000E+0002
 20
 7.04750000000000E+0002
 11
 7.02500000000000E+0002
 21
 7.72750000000000E+0002
  0
ARC
  8
0
 10
 7.09300000000000E+0002
 20
 7.72750000000000E+0002
 40
 6.80000000000000E+0000
 50
 9.00000000000000E+0001
 51
 1.80000000000000E+0002
  0
LINE
  8
0
 10
 7.09300000000000E+0002
 20
 7.79550000000000E+0002
 11
 7.29750000000000E+0002
 21
 7.79550000000000E+0002
  0
ARC
  8
0
 10
 7.29750000000000E+0002
 20
 7.72750000000000E+0002
 40
 6.80000000000000E+0000
 50
 0.00000000000000E+0000
 51
 9.00000000000000E+0001
  0
LINE
  8
0
 10
 7.36550000000000E+0002
 20
 7.72750000000000E+0002
 11
 7.36550000000000E+0002
 21
 7.04750000000000E+0002
  0
ARC
  8
0
 10
 7.29750000000000E+0002
 20
 7.04750000000000E+0002
 40
 6.80000000000000E+0000
 50
 2.70000000000000E+0002
 51
 3.60000000000000E+0002
  0
LINE
  8
0
 10
 7.29750000000000E+0002
 20
 6.97950000000000E+0002
 11
 7.09306100000000E+0002
 21
 6.97916700000000E+0002
  0
LINE
  8
0
 10
 7.50139400000000E+0002
 20
 6.97916700000000E+0002
 11
 7.50150000000000E+0002
 21
 6.97950000000000E+0002
  0
ARC
  8
0
 10
 7.50150000000000E+0002
 20
 7.04750000000000E+0002
 40
 6.80000000000000E+0000
 50
 1.80000000000000E+0002
 51
 2.70000000000000E+0002
  0
LINE
  8
0
 10
 7.43350000000000E+0002
 20
 7.04750000000000E+0002
 11
 7.43350000000000E+0002
 21
 7.72750000000000E+0002
  0
ARC
  8
0
 10
 7.50150000000000E+0002
 20
 7.72750000000000E+0002
 40
 6.80000000000000E+0000
 50
 9.00000000000000E+0001
 51
 1.80000000000000E+0002
  0
LINE
  8
0
 10
 7.50150000000000E+0002
 20
 7.79550000000000E+0002
 11
 7.70550000000000E+0002
 21
 7.79550000000000E+0002
  0
ARC
  8
0
 10
 7.70550000000000E+0002
 20
 7.72750000000000E+0002
 40
 6.80000000000000E+0000
 50
 0.00000000000000E+0000
 51
 9.00000000000000E+0001
  0
LINE
  8
0
 10
 7.77350000000000E+0002
 20
 7.72750000000000E+0002
 11
 7.77350000000000E+0002
 21
 7.54050000000000E+0002
  0
ARC
  8
0
 10
 7.84150000000000E+0002
 20
 7.54050000000000E+0002
 40
 6.80000000000000E+0000
 50
 1.80000000000000E+0002
 51
 2.70000000000000E+0002
  0
LINE
  8
0
 10
 7.84150000000000E+0002
 20
 7.47250000000000E+0002
 11
 7.97100000000000E+0002
 21
 7.47300000000000E+0002
  0
ARC
  8
0
 10
 7.97100000000000E+0002
 20
 7.60900000000000E+0002
 40
 1.36000000000000E+0001
 50
 2.70000000000000E+0002
 51
 3.13605000000000E+0002
  0
LINE
  8
0
 10
 8.06479685223559E+0002
 20
 7.51052081178901E+0002
 11
 8.10930472164662E+0002
 21
 7.55221878231648E+0002
  0
ARC
  8
0
 10
 8.25000000000000E+0002
 20
 7.40450000000000E+0002
 40
 2.04000000000000E+0001
 50
 4.63950000000000E+0001
 51
 1.33605000000000E+0002
  0
LINE
  8
0
 10
 8.39069527835338E+0002
 20
 7.55221878231648E+0002
 11
 8.43520314776441E+0002
 21
 7.51052081178901E+0002
  0
ARC
  8
0
 10
 8.52900000000000E+0002
 20
 7.60900000000000E+0002
 40
 1.36000000000000E+0001
 50
 2.26395000000000E+0002
 51
 2.70000000000000E+0002
  0
LINE
  8
0
 10
 8.52900000000000E+0002
 20
 7.47300000000000E+0002
 11
 8.65850000000000E+0002
 21
 7.47250000000000E+0002
  0
ARC
  8
0
 10
 8.65850000000000E+0002
 20
 7.54050000000000E+0002
 40
 6.80000000000000E+0000
 50
 2.70000000000000E+0002
 51
 3.60000000000000E+0002
  0
LINE
  8
0
 10
 8.72650000000000E+0002
 20
 7.54050000000000E+0002
 11
 8.72650000000000E+0002
 21
 7.72750000000000E+0002
  0
ARC
  8
0
 10
 8.79450000000000E+0002
 20
 7.72750000000000E+0002
 40
 6.80000000000000E+0000
 50
 9.00000000000000E+0001
 51
 1.80000000000000E+0002
  0
LINE
  8
0
 10
 8.79450000000000E+0002
 20
 7.79550000000000E+0002
 11
 8.99850000000000E+0002
 21
 7.79550000000000E+0002
  0
ARC
  8
0
 10
 8.99850000000000E+0002
 20
 7.72750000000000E+0002
 40
 6.80000000000000E+0000
 50
 0.00000000000000E+0000
 51
 9.00000000000000E+0001
  0
LINE
  8
0
 10
 9.06650000000000E+0002
 20
 7.72750000000000E+0002
 11
 9.06650000000000E+0002
 21
 7.04750000000000E+0002
  0
ARC
  8
0
 10
 8.99850000000000E+0002
 20
 7.04750000000000E+0002
 40
 6.80000000000000E+0000
 50
 2.70000000000000E+0002
 51
 3.60000000000000E+0002
  0
LINE
  8
0
 10
 8.99850000000000E+0002
 20
 6.97950000000000E+0002
 11
 8.79450000000000E+0002
 21
 6.97950000000000E+0002
  0
ARC
  8
0
 10
 8.79450000000000E+0002
 20
 7.04750000000000E+0002
 40
 6.80000000000000E+0000
 50
 1.80000000000000E+0002
 51
 2.70000000000000E+0002
  0
LINE
  8
0
 10
 8.72650000000000E+0002
 20
 7.04750000000000E+0002
 11
 8.72650000000000E+0002
 21
 7.23450000000000E+0002
  0
ARC
  8
0
 10
 8.65850000000000E+0002
 20
 7.23450000000000E+0002
 40
 6.80000000000000E+0000
 50
 0.00000000000000E+0000
 51
 9.00000000000000E+0001
  0
LINE
  8
0
 10
 8.65850000000000E+0002
 20
 7.30250000000000E+0002
 11
 8.52900000000000E+0002
 21
 7.30200000000000E+0002
  0
ARC
  8
0
 10
 8.52900000000000E+0002
 20
 7.16600000000000E+0002
 40
 1.36000000000000E+0001
 50
 9.00000000000000E+0001
 51
 1.33605000000000E+0002
  0
LINE
  8
0
 10
 8.43520314776441E+0002
 20
 7.26447918821099E+0002
 11
 8.39069527835338E+0002
 21
 7.22278121768352E+0002
  0
ARC
  8
0
 10
 8.25000000000000E+0002
 20
 7.37050000000000E+0002
 40
 2.04000000000000E+0001
 50
 2.26395000000000E+0002
 51
 3.13605000000000E+0002
  0
LINE
  8
0
 10
 8.10930472164662E+0002
 20
 7.22278121768352E+0002
 11
 8.06479685223559E+0002
 21
 7.26447918821099E+0002
  0
ARC
  8
0
 10
 7.97100000000000E+0002
 20
 7.16600000000000E+0002
 40
 1.36000000000000E+0001
 50
 4.63950000000000E+0001
 51
 9.00000000000000E+0001
  0
LINE
  8
0
 10
 7.97100000000000E+0002
 20
 7.30200000000000E+0002
 11
 7.84150000000000E+0002
 21
 7.30250000000000E+0002
  0
ARC
  8
0
 10
 7.84150000000000E+0002
 20
 7.23450000000000E+0002
 40
 6.80000000000000E+0000
 50
 9.00000000000000E+0001
 51
 1.80000000000000E+0002
  0
LINE
  8
0
 10
 7.77350000000000E+0002
 20
 7.23450000000000E+0002
 11
 7.77350000000000E+0002
 21
 7.04750000000000E+0002
  0
ARC
  8
0
 10
 7.70550000000000E+0002
 20
 7.04750000000000E+0002
 40
 6.80000000000000E+0000
 50
 2.70000000000000E+0002
 51
 3.60000000000000E+0002
  0
LINE
  8
0
 10
 7.70550000000000E+0002
 20
 6.97950000000000E+0002
 11
 7.50139400000000E+0002
 21
 6.97916700000000E+0002
  0
LINE
  8
0
 10
 9.20277200000000E+0002
 20
 6.97916700000000E+0002
 11
 9.20250000000000E+0002
 21
 6.97950000000000E+0002
  0
ARC
  8
0
 10
 9.20250000000000E+0002
 20
 7.04750000000000E+0002
 40
 6.80000000000000E+0000
 50
 1.80000000000000E+0002
 51
 2.70000000000000E+0002
  0
LINE
  8
0
 10
 9.13450000000000E+0002
 20
 7.04750000000000E+0002
 11
 9.13450000000000E+0002
 21
 7.72750000000000E+0002
  0
ARC
  8
0
 10
 9.20250000000000E+0002
 20
 7.72750000000000E+0002
 40
 6.80000000000000E+0000
 50
 9.00000000000000E+0001
 51
 1.80000000000000E+0002
  0
LINE
  8
0
 10
 9.20250000000000E+0002
 20
 7.79550000000000E+0002
 11
 9.40700000000000E+0002
 21
 7.79550000000000E+0002
  0
ARC
  8
0
 10
 9.40700000000000E+0002
 20
 7.72750000000000E+0002
 40
 6.80000000000000E+0000
 50
 0.00000000000000E+0000
 51
 9.00000000000000E+0001
  0
LINE
  8
0
 10
 9.47500000000000E+0002
 20
 7.72750000000000E+0002
 11
 9.47500000000000E+0002
 21
 7.04750000000000E+0002
  0
ARC
  8
0
 10
 9.40700000000000E+0002
 20
 7.04750000000000E+0002
 40
 6.80000000000000E+0000
 50
 2.70000000000000E+0002
 51
 3.60000000000000E+0002
  0
LINE
  8
0
 10
 9.40700000000000E+0002
 20
 6.97950000000000E+0002
 11
 9.20277200000000E+0002
 21
 6.97916700000000E+0002
  0
LINE
  8
0
 10
 8.25000000000000E+0002
 20
 7.73458300000000E+0002
 11
 7.98203500000000E+0002
 21
 8.00255200000000E+0002
  0
LINE
  8
0
 10
 7.98203500000000E+0002
 20
 8.00255200000000E+0002
 11
 7.98203500000000E+0002
 21
 8.15142400000000E+0002
  0
LINE
  8
0
 10
 7.98203500000000E+0002
 20
 8.15142400000000E+0002
 11
 8.19045700000000E+0002
 21
 7.94300300000000E+0002
  0
LINE
  8
0
 10
 8.19045700000000E+0002
 20
 7.94300300000000E+0002
 11
 8.19045700000000E+0002
 21
 8.27052100000000E+0002
  0
LINE
  8
0
 10
 8.19045700000000E+0002
 20
 8.27052100000000E+0002
 11
 8.30954300000000E+0002
 21
 8.27052100000000E+0002
  0
LINE
  8
0
 10
 8.30954300000000E+0002
 20
 8.27052100000000E+0002
 11
 8.30954300000000E+0002
 21
 7.94300300000000E+0002
  0
LINE
  8
0
 10
 8.30954300000000E+0002
 20
 7.94300300000000E+0002
 11
 8.51796500000000E+0002
 21
 8.15142400000000E+0002
  0
LINE
  8
0
 10
 8.51796500000000E+0002
 20
 8.15142400000000E+0002
 11
 8.51796500000000E+0002
 21
 8.00255200000000E+0002
  0
LINE
  8
0
 10
 8.51796500000000E+0002
 20
 8.00255200000000E+0002
 11
 8.25000000000000E+0002
 21
 7.73458300000000E+0002
  0
LINE
  8
0
 10
 8.76901600000000E+0002
 20
 8.40833300000000E+0002
 11
 8.67714100000000E+0002
 21
 8.40833300000000E+0002
  0
ARC
  8
0
 10
 8.67714100000000E+0002
 20
 8.57370800000000E+0002
 40
 1.65375000000000E+0001
 50
 1.80000000000000E+0002
 51
 2.70000000000000E+0002
  0
LINE
  8
0
 10
 8.51176600000000E+0002
 20
 8.57370800000000E+0002
 11
 8.51176600000000E+0002
 21
 9.02389550000000E+0002
  0
LINE
  8
0
 10
 8.51176600000000E+0002
 20
 9.02389550000000E+0002
 11
 8.43826600000000E+0002
 21
 9.02389550000000E+0002
  0
LINE
  8
0
 10
 8.43826600000000E+0002
 20
 9.02389550000000E+0002
 11
 8.43826600000000E+0002
 21
 9.14333300000000E+0002
  0
LINE
  8
0
 10
 8.43826600000000E+0002
 20
 9.14333300000000E+0002
 11
 8.51176600000000E+0002
 21
 9.14333300000000E+0002
  0
LINE
  8
0
 10
 8.51176600000000E+0002
 20
 9.14333300000000E+0002
 11
 8.51176600000000E+0002
 21
 9.36383300000000E+0002
  0
LINE
  8
0
 10
 8.51176600000000E+0002
 20
 9.36383300000000E+0002
 11
 8.65876600000000E+0002
 21
 9.36383300000000E+0002
  0
LINE
  8
0
 10
 8.65876600000000E+0002
 20
 9.36383300000000E+0002
 11
 8.65876600000000E+0002
 21
 9.14333300000000E+0002
  0
LINE
  8
0
 10
 8.65876600000000E+0002
 20
 9.14333300000000E+0002
 11
 8.76901600000000E+0002
 21
 9.14333300000000E+0002
  0
LINE
  8
0
 10
 8.76901600000000E+0002
 20
 9.14333300000000E+0002
 11
 8.76901600000000E+0002
 21
 9.02389550000000E+0002
  0
LINE
  8
0
 10
 8.76901600000000E+0002
 20
 9.02389550000000E+0002
 11
 8.65876600000000E+0002
 21
 9.02389550000000E+0002
  0
LINE
  8
0
 10
 8.65876600000000E+0002
 20
 9.02389550000000E+0002
 11
 8.65876600000000E+0002
 21
 8.59208300000000E+0002
  0
ARC
  8
0
 10
 8.70470350000000E+0002
 20
 8.59208300000000E+0002
 40
 4.59375000000000E+0000
 50
 1.80000000000000E+0002
 51
 2.70000000000000E+0002
  0
LINE
  8
0
 10
 8.70470350000000E+0002
 20
 8.54614550000000E+0002
 11
 8.76901600000000E+0002
 21
 8.54614550000000E+0002
  0
LINE
  8
0
 10
 8.76901600000000E+0002
 20
 8.54614550000000E+0002
 11
 8.76901600000000E+0002
 21
 8.40833300000000E+0002
  0
ARC
  8
0
 10
 7.91983850000000E+0002
 20
 8.71152150000000E+0002
 40
 2.84812500000000E+0001
 50
 1.25460450000000E+0002
 51
 1.80000000000000E+0002
  0
LINE
  8
0
 10
 7.63502600000000E+0002
 20
 8.71152150000000E+0002
 11
 7.63502600000000E+0002
 21
 8.71152150000000E+0002
  0
ARC
  8
0
 10
 7.94740100000000E+0002
 20
 8.71152150000000E+0002
 40
 3.12375000000000E+0001
 50
 1.80000000000000E+0002
 51
 3.60000000000000E+0002
  0
LINE
  8
0
 10
 8.25977600000000E+0002
 20
 8.71152150000000E+0002
 11
 8.25977600000000E+0002
 21
 8.71152150000000E+0002
  0
ARC
  8
0
 10
 7.97496350000000E+0002
 20
 8.71152150000000E+0002
 40
 2.84812500000000E+0001
 50
 0.00000000000000E+0000
 51
 5.45395500000000E+0001
  0
LINE
  8
0
 10
 8.14019486629769E+0002
 20
 8.94350588686181E+0002
 11
 8.14019490132455E+0002
 21
 8.94350588952419E+0002
  0
ARC
  8
0
 10
 7.97496350000000E+0002
 20
 9.15252150000000E+0002
 40
 2.66437500000000E+0001
 50
 3.08327140000000E+0002
 51
 3.60000000000000E+0002
  0
LINE
  8
0
 10
 8.24140100000000E+0002
 20
 9.15252150000000E+0002
 11
 8.24140100000000E+0002
 21
 9.15252150000000E+0002
  0
ARC
  8
0
 10
 7.94740100000000E+0002
 20
 9.15252150000000E+0002
 40
 2.94000000000000E+0001
 50
 0.00000000000000E+0000
 51
 1.80000000000000E+0002
  0
LINE
  8
0
 10
 7.65340100000000E+0002
 20
 9.15252150000000E+0002
 11
 7.65340100000000E+0002
 21
 9.15252150000000E+0002
  0
ARC
  8
0
 10
 7.91983850000000E+0002
 20
 9.15252150000000E+0002
 40
 2.66437500000000E+0001
 50
 1.80000000000000E+0002
 51
 2.31672860000000E+0002
  0
CIRCLE
  8
0
 10
 7.94740100000000E+0002
 20
 8.71152150000000E+0002
 40
 1.65375000000000E+0001
  0
CIRCLE
  8
0
 10
 7.94740100000000E+0002
 20
 9.15252150000000E+0002
 40
 1.47000000000000E+0001
  0
ENDSEC
  0
EOF
