  0
SECTION
  2
HEADER
  9
$ACADVER
  1
AC1003
  9
$INSBASE
 10
0.0
 20
0.0
  9
$EXTMIN
 10
 0.00000000000000E+0000
 20
 0.00000000000000E+0000
  9
$EXTMAX
 10
 1.73350000000000E+0002
 20
 1.00000000000000E+0002
  9
$LIMMIN
 10
0.0
 20
0.0
  9
$LIMMAX
 10
410.0
 20
287.0
  9
$VIEWCTR
 10
227.0059616
 20
165.058879 
  9
$VIEWSIZE
 40
 1.73350000000000E+0002
9
$SNAPMODE
70
0
9
$SNAPUNIT
10
1
20
1
9
$GRIDMODE
70
0
9
$GRIDUNIT
10
1
20
1
9
$ORTHOMODE
70
0
9
$rEGENMODE
70
1
9
$FILLMODE
70
1
9
$DRAGMODE
70
2
9
$LTSCALE
40
25.0
9
$OSMODE
70
0
9
$ATTMODE
70
1
9
$TRACEWID
40
1.0
9
$TEXTSTYLE
7
STANDARD
9
$CLAYER
8
0
9
$CELTYPE
6
VONLAYER
9
$CECOLOR
62
256
9
$LUNITS
70
2
9
$LUPREC
70
2
9
$AXISMODE
70
0
9
$AXISUNIT
10
0
20
0
9
$SKETCHINC
40
1.0
9
$FILLETRAD
40
0.0
9
$AUNITS
70
0
9
$AUPREC
70
0
9
$MENU
1
ACAD
9
$ELEVATION
40
0.0
9
$THICKNESS
40
0.0
9
$VIEWDIR
10
0.0
20
0.0
30
1.0
9
$LIMCHECK
70
0
9
$BLIPMODE
70
1
9
$CHAMFERA
40
0.0
9
$CHAMFERB
40
0.0
9
$USRTIMER
70
1
9
$ANGBASE
50
0.0
9
$ANGDIR
70
0
9
$PDMODE
70
0
9
$PDSIZE
40
0.0
9
$PLINEWID
40
0.0
9
$COORDS
70
0
0
ENDSEC
0
SECTION
2
TABLES
0
TABLE
2
LTYPE
70
1
0
LTYPE
2
AUSGEZOGEN
70
64
3
Ausgezogene Linie
72
65
73
0
40
0.0
0
ENDTAB
0
TABLE
2
LAYER
70
1
0
LAYER
2
0
70
0
62
7
6
AUSGEZOGEN
0
ENDTAB
0
TABLE
2
STYLE
70
1
0
STYLE
2
STANDARD
70
0
40
0.0
41
1.0
50
0.0
71
0
42
3.5
3
txt
4

0
ENDTAB
0
TABLE
2
VIEW
70
0
0
ENDTAB
0
ENDSEC
0
SECTION
2
BLOCKS
0
ENDSEC
0
SECTION
2
ENTITIES
  0
LINE
  8
0
 10
 1.73330000000000E+0002
 20
 2.00000000000000E+0001
 11
 1.53330000000000E+0002
 21
 1.33334000000000E+0001
  0
LINE
  8
0
 10
 1.53330000000000E+0002
 20
 1.33334000000000E+0001
 11
 1.46650000000000E+0002
 21
 1.33500000000000E+0001
  0
ARC
  8
0
 10
 1.30000000000000E+0002
 20
 1.33500000000000E+0001
 40
 1.66500000000000E+0001
 50
 0.00000000000000E+0000
 51
 1.80000000000000E+0002
  0
LINE
  8
0
 10
 1.13350000000000E+0002
 20
 1.33500000000000E+0001
 11
 5.00000000000000E+0001
 21
 1.33500000000000E+0001
  0
ARC
  8
0
 10
 3.33500000000000E+0001
 20
 1.33500000000000E+0001
 40
 1.66500000000000E+0001
 50
 0.00000000000000E+0000
 51
 1.80000000000000E+0002
  0
LINE
  8
0
 10
 1.67000000000000E+0001
 20
 1.33500000000000E+0001
 11
 3.35000000000000E+0000
 21
 1.33000000000000E+0001
  0
ARC
  8
0
 10
 3.35000000000000E+0000
 20
 1.66500000000000E+0001
 40
 3.35000000000000E+0000
 50
 1.80000000000000E+0002
 51
 2.70000000000000E+0002
  0
LINE
  8
0
 10
 0.00000000000000E+0000
 20
 1.66500000000000E+0001
 11
 0.00000000000000E+0000
 21
 3.56500000000000E+0001
  0
ARC
  8
0
 10
 3.35000000000000E+0000
 20
 3.56500000000000E+0001
 40
 3.35000000000000E+0000
 50
 1.10135000000000E+0002
 51
 1.80000000000000E+0002
  0
LINE
  8
0
 10
 2.19681847694379E+0000
 20
 3.87952618928925E+0001
 11
 1.79891513815892E+0001
 21
 4.46064204215716E+0001
  0
ARC
  8
0
 10
 1.57000000000000E+0001
 20
 5.08500000000000E+0001
 40
 6.65000000000000E+0000
 50
 2.90135000000000E+0002
 51
 3.25490000000000E+0002
  0
LINE
  8
0
 10
 2.11797816748943E+0001
 20
 4.70824420647464E+0001
 11
 3.34793690568899E+0001
 21
 6.49320311846242E+0001
  0
ARC
  8
0
 10
 3.76000000000000E+0001
 20
 6.21000000000000E+0001
 40
 5.00000000000000E+0000
 50
 1.00000000000000E+0002
 51
 1.45500000000000E+0002
  0
LINE
  8
0
 10
 3.67317591116653E+0001
 20
 6.70240387650610E+0001
 11
 5.33300000000000E+0001
 21
 7.00000000000000E+0001
  0
LINE
  8
0
 10
 5.33300000000000E+0001
 20
 7.00000000000000E+0001
 11
 5.33300000000000E+0001
 21
 7.33334000000000E+0001
  0
LINE
  8
0
 10
 5.33300000000000E+0001
 20
 7.33334000000000E+0001
 11
 8.75000000000000E+0000
 21
 7.33500000000000E+0001
  0
ARC
  8
0
 10
 8.75000000000000E+0000
 20
 7.83500000000000E+0001
 40
 5.00000000000000E+0000
 50
 2.25000000000000E+0002
 51
 2.70000000000000E+0002
  0
LINE
  8
0
 10
 5.21446609406726E+0000
 20
 7.48144660940673E+0001
 11
 9.81192283025066E-0001
 21
 7.90311922830251E+0001
  0
ARC
  8
0
 10
 3.35000000000000E+0000
 20
 8.14000000000000E+0001
 40
 3.35000000000000E+0000
 50
 1.80000000000000E+0002
 51
 2.25000000000000E+0002
  0
LINE
  8
0
 10
 0.00000000000000E+0000
 20
 8.14000000000000E+0001
 11
 0.00000000000000E+0000
 21
 8.53000000000000E+0001
  0
ARC
  8
0
 10
 3.35000000000000E+0000
 20
 8.53000000000000E+0001
 40
 3.35000000000000E+0000
 50
 1.35000000000000E+0002
 51
 1.80000000000000E+0002
  0
LINE
  8
0
 10
 9.81192283025066E-0001
 20
 8.76688077169749E+0001
 11
 1.87268669832179E+0001
 21
 9.91604967577482E+0001
  0
ARC
  8
0
 10
 2.15000000000000E+0001
 20
 9.50000000000000E+0001
 40
 5.00000000000000E+0000
 50
 9.00000000000000E+0001
 51
 1.23685000000000E+0002
  0
LINE
  8
0
 10
 2.15000000000000E+0001
 20
 1.00000000000000E+0002
 11
 1.13330000000000E+0002
 21
 1.00000000000000E+0002
  0
LINE
  8
0
 10
 1.13330000000000E+0002
 20
 1.00000000000000E+0002
 11
 1.26663500000000E+0002
 21
 9.33500000000000E+0001
  0
LINE
  8
0
 10
 1.26663500000000E+0002
 20
 9.33500000000000E+0001
 11
 1.70000000000000E+0002
 21
 9.33500000000000E+0001
  0
ARC
  8
0
 10
 1.70000000000000E+0002
 20
 9.00000000000000E+0001
 40
 3.35000000000000E+0000
 50
 0.00000000000000E+0000
 51
 9.00000000000000E+0001
  0
LINE
  8
0
 10
 1.73350000000000E+0002
 20
 9.00000000000000E+0001
 11
 1.73330000000000E+0002
 21
 2.00000000000000E+0001
  0
CIRCLE
  8
0
 10
 3.33500000000000E+0001
 20
 1.33500000000000E+0001
 40
 1.33500000000000E+0001
  0
CIRCLE
  8
0
 10
 1.30000000000000E+0002
 20
 1.33500000000000E+0001
 40
 1.33500000000000E+0001
  0
ARC
  8
0
 10
 5.16500000000000E+0001
 20
 6.23500000000000E+0001
 40
 1.65000000000000E+0000
 50
 3.59995000000000E+0002
 51
 4.50000000000000E+0002
  0
LINE
  8
0
 10
 5.32999999937173E+0001
 20
 6.23498560103369E+0001
 11
 5.33000000000000E+0001
 21
 4.69500000000000E+0001
  0
ARC
  8
0
 10
 5.16500000000000E+0001
 20
 4.69500000000000E+0001
 40
 1.65000000000000E+0000
 50
 2.72545000000000E+0002
 51
 3.60000000000000E+0002
  0
LINE
  8
0
 10
 5.17232666403751E+0001
 20
 4.53016274694693E+0001
 11
 2.59576000000000E+0001
 21
 4.41168000000000E+0001
  0
LINE
  8
0
 10
 2.59576000000000E+0001
 20
 4.41168000000000E+0001
 11
 2.59562929923000E+0001
 21
 4.41167408066000E+0001
  0
LINE
  8
0
 10
 2.59562929923000E+0001
 20
 4.41167408066000E+0001
 11
 2.59550293784000E+0001
 21
 4.41166832128000E+0001
  0
LINE
  8
0
 10
 2.59550293784000E+0001
 20
 4.41166832128000E+0001
 11
 2.59538082721000E+0001
 21
 4.41166271982000E+0001
  0
LINE
  8
0
 10
 2.59538082721000E+0001
 20
 4.41166271982000E+0001
 11
 2.59526287872000E+0001
 21
 4.41165727424000E+0001
  0
LINE
  8
0
 10
 2.59526287872000E+0001
 20
 4.41165727424000E+0001
 11
 2.59514900375000E+0001
 21
 4.41165198250000E+0001
  0
LINE
  8
0
 10
 2.59514900375000E+0001
 20
 4.41165198250000E+0001
 11
 2.59503911368000E+0001
 21
 4.41164684256000E+0001
  0
LINE
  8
0
 10
 2.59503911368000E+0001
 20
 4.41164684256000E+0001
 11
 2.59493311989000E+0001
 21
 4.41164185238000E+0001
  0
LINE
  8
0
 10
 2.59493311989000E+0001
 20
 4.41164185238000E+0001
 11
 2.59483093376000E+0001
 21
 4.41163700992000E+0001
  0
LINE
  8
0
 10
 2.59483093376000E+0001
 20
 4.41163700992000E+0001
 11
 2.59473246667000E+0001
 21
 4.41163231314000E+0001
  0
LINE
  8
0
 10
 2.59473246667000E+0001
 20
 4.41163231314000E+0001
 11
 2.59463763000000E+0001
 21
 4.41162776000000E+0001
  0
LINE
  8
0
 10
 2.59463763000000E+0001
 20
 4.41162776000000E+0001
 11
 2.59454633513000E+0001
 21
 4.41162334846000E+0001
  0
LINE
  8
0
 10
 2.59454633513000E+0001
 20
 4.41162334846000E+0001
 11
 2.59445849344000E+0001
 21
 4.41161907648000E+0001
  0
LINE
  8
0
 10
 2.59445849344000E+0001
 20
 4.41161907648000E+0001
 11
 2.59437401631000E+0001
 21
 4.41161494202000E+0001
  0
LINE
  8
0
 10
 2.59437401631000E+0001
 20
 4.41161494202000E+0001
 11
 2.59429281512000E+0001
 21
 4.41161094304000E+0001
  0
LINE
  8
0
 10
 2.59429281512000E+0001
 20
 4.41161094304000E+0001
 11
 2.59421480125000E+0001
 21
 4.41160707750000E+0001
  0
LINE
  8
0
 10
 2.59421480125000E+0001
 20
 4.41160707750000E+0001
 11
 2.59413988608000E+0001
 21
 4.41160334336000E+0001
  0
LINE
  8
0
 10
 2.59413988608000E+0001
 20
 4.41160334336000E+0001
 11
 2.59406798099000E+0001
 21
 4.41159973858000E+0001
  0
LINE
  8
0
 10
 2.59406798099000E+0001
 20
 4.41159973858000E+0001
 11
 2.59399899736000E+0001
 21
 4.41159626112000E+0001
  0
LINE
  8
0
 10
 2.59399899736000E+0001
 20
 4.41159626112000E+0001
 11
 2.59393284657000E+0001
 21
 4.41159290894000E+0001
  0
LINE
  8
0
 10
 2.59393284657000E+0001
 20
 4.41159290894000E+0001
 11
 2.59386944000000E+0001
 21
 4.41158968000000E+0001
  0
LINE
  8
0
 10
 2.59386944000000E+0001
 20
 4.41158968000000E+0001
 11
 2.59380868903000E+0001
 21
 4.41158657226000E+0001
  0
LINE
  8
0
 10
 2.59380868903000E+0001
 20
 4.41158657226000E+0001
 11
 2.59375050504000E+0001
 21
 4.41158358368000E+0001
  0
LINE
  8
0
 10
 2.59375050504000E+0001
 20
 4.41158358368000E+0001
 11
 2.59369479941000E+0001
 21
 4.41158071222000E+0001
  0
LINE
  8
0
 10
 2.59369479941000E+0001
 20
 4.41158071222000E+0001
 11
 2.59364148352000E+0001
 21
 4.41157795584000E+0001
  0
LINE
  8
0
 10
 2.59364148352000E+0001
 20
 4.41157795584000E+0001
 11
 2.59359046875000E+0001
 21
 4.41157531250000E+0001
  0
LINE
  8
0
 10
 2.59359046875000E+0001
 20
 4.41157531250000E+0001
 11
 2.59354166648000E+0001
 21
 4.41157278016000E+0001
  0
LINE
  8
0
 10
 2.59354166648000E+0001
 20
 4.41157278016000E+0001
 11
 2.59349498809000E+0001
 21
 4.41157035678000E+0001
  0
LINE
  8
0
 10
 2.59349498809000E+0001
 20
 4.41157035678000E+0001
 11
 2.59345034496000E+0001
 21
 4.41156804032000E+0001
  0
LINE
  8
0
 10
 2.59345034496000E+0001
 20
 4.41156804032000E+0001
 11
 2.59340764847000E+0001
 21
 4.41156582874000E+0001
  0
LINE
  8
0
 10
 2.59340764847000E+0001
 20
 4.41156582874000E+0001
 11
 2.59336681000000E+0001
 21
 4.41156372000000E+0001
  0
LINE
  8
0
 10
 2.59336681000000E+0001
 20
 4.41156372000000E+0001
 11
 2.59332774093000E+0001
 21
 4.41156171206000E+0001
  0
LINE
  8
0
 10
 2.59332774093000E+0001
 20
 4.41156171206000E+0001
 11
 2.59329035264000E+0001
 21
 4.41155980288000E+0001
  0
LINE
  8
0
 10
 2.59329035264000E+0001
 20
 4.41155980288000E+0001
 11
 2.59325455651000E+0001
 21
 4.41155799042000E+0001
  0
LINE
  8
0
 10
 2.59325455651000E+0001
 20
 4.41155799042000E+0001
 11
 2.59322026392000E+0001
 21
 4.41155627264000E+0001
  0
LINE
  8
0
 10
 2.59322026392000E+0001
 20
 4.41155627264000E+0001
 11
 2.59318738625000E+0001
 21
 4.41155464750000E+0001
  0
LINE
  8
0
 10
 2.59318738625000E+0001
 20
 4.41155464750000E+0001
 11
 2.59315583488000E+0001
 21
 4.41155311296000E+0001
  0
LINE
  8
0
 10
 2.59315583488000E+0001
 20
 4.41155311296000E+0001
 11
 2.59312552119000E+0001
 21
 4.41155166698000E+0001
  0
LINE
  8
0
 10
 2.59312552119000E+0001
 20
 4.41155166698000E+0001
 11
 2.59309635656000E+0001
 21
 4.41155030752000E+0001
  0
LINE
  8
0
 10
 2.59309635656000E+0001
 20
 4.41155030752000E+0001
 11
 2.59306825237000E+0001
 21
 4.41154903254000E+0001
  0
LINE
  8
0
 10
 2.59306825237000E+0001
 20
 4.41154903254000E+0001
 11
 2.59304112000000E+0001
 21
 4.41154784000000E+0001
  0
LINE
  8
0
 10
 2.59304112000000E+0001
 20
 4.41154784000000E+0001
 11
 2.59301487083000E+0001
 21
 4.41154672786000E+0001
  0
LINE
  8
0
 10
 2.59301487083000E+0001
 20
 4.41154672786000E+0001
 11
 2.59298941624000E+0001
 21
 4.41154569408000E+0001
  0
LINE
  8
0
 10
 2.59298941624000E+0001
 20
 4.41154569408000E+0001
 11
 2.59296466761000E+0001
 21
 4.41154473662000E+0001
  0
LINE
  8
0
 10
 2.59296466761000E+0001
 20
 4.41154473662000E+0001
 11
 2.59294053632000E+0001
 21
 4.41154385344000E+0001
  0
LINE
  8
0
 10
 2.59294053632000E+0001
 20
 4.41154385344000E+0001
 11
 2.59291693375000E+0001
 21
 4.41154304250000E+0001
  0
LINE
  8
0
 10
 2.59291693375000E+0001
 20
 4.41154304250000E+0001
 11
 2.59289377128000E+0001
 21
 4.41154230176000E+0001
  0
LINE
  8
0
 10
 2.59289377128000E+0001
 20
 4.41154230176000E+0001
 11
 2.59287096029000E+0001
 21
 4.41154162918000E+0001
  0
LINE
  8
0
 10
 2.59287096029000E+0001
 20
 4.41154162918000E+0001
 11
 2.59284841216000E+0001
 21
 4.41154102272000E+0001
  0
LINE
  8
0
 10
 2.59284841216000E+0001
 20
 4.41154102272000E+0001
 11
 2.59282603827000E+0001
 21
 4.41154048034000E+0001
  0
LINE
  8
0
 10
 2.59282603827000E+0001
 20
 4.41154048034000E+0001
 11
 2.59280375000000E+0001
 21
 4.41154000000000E+0001
  0
LINE
  8
0
 10
 2.59280375000000E+0001
 20
 4.41154000000000E+0001
 11
 2.59278145873000E+0001
 21
 4.41153957966000E+0001
  0
LINE
  8
0
 10
 2.59278145873000E+0001
 20
 4.41153957966000E+0001
 11
 2.59275907584000E+0001
 21
 4.41153921728000E+0001
  0
LINE
  8
0
 10
 2.59275907584000E+0001
 20
 4.41153921728000E+0001
 11
 2.59273651271000E+0001
 21
 4.41153891082000E+0001
  0
LINE
  8
0
 10
 2.59273651271000E+0001
 20
 4.41153891082000E+0001
 11
 2.59271368072000E+0001
 21
 4.41153865824000E+0001
  0
LINE
  8
0
 10
 2.59271368072000E+0001
 20
 4.41153865824000E+0001
 11
 2.59269049125000E+0001
 21
 4.41153845750000E+0001
  0
LINE
  8
0
 10
 2.59269049125000E+0001
 20
 4.41153845750000E+0001
 11
 2.59266685568000E+0001
 21
 4.41153830656000E+0001
  0
LINE
  8
0
 10
 2.59266685568000E+0001
 20
 4.41153830656000E+0001
 11
 2.59264268539000E+0001
 21
 4.41153820338000E+0001
  0
LINE
  8
0
 10
 2.59264268539000E+0001
 20
 4.41153820338000E+0001
 11
 2.59261789176000E+0001
 21
 4.41153814592000E+0001
  0
LINE
  8
0
 10
 2.59261789176000E+0001
 20
 4.41153814592000E+0001
 11
 2.59259238617000E+0001
 21
 4.41153813214000E+0001
  0
LINE
  8
0
 10
 2.59259238617000E+0001
 20
 4.41153813214000E+0001
 11
 2.59256608000000E+0001
 21
 4.41153816000000E+0001
  0
LINE
  8
0
 10
 2.59256608000000E+0001
 20
 4.41153816000000E+0001
 11
 2.59253888463000E+0001
 21
 4.41153822746000E+0001
  0
LINE
  8
0
 10
 2.59253888463000E+0001
 20
 4.41153822746000E+0001
 11
 2.59251071144000E+0001
 21
 4.41153833248000E+0001
  0
LINE
  8
0
 10
 2.59251071144000E+0001
 20
 4.41153833248000E+0001
 11
 2.59248147181000E+0001
 21
 4.41153847302000E+0001
  0
LINE
  8
0
 10
 2.59248147181000E+0001
 20
 4.41153847302000E+0001
 11
 2.59245107712000E+0001
 21
 4.41153864704000E+0001
  0
LINE
  8
0
 10
 2.59245107712000E+0001
 20
 4.41153864704000E+0001
 11
 2.59241943875000E+0001
 21
 4.41153885250000E+0001
  0
LINE
  8
0
 10
 2.59241943875000E+0001
 20
 4.41153885250000E+0001
 11
 2.59238646808000E+0001
 21
 4.41153908736000E+0001
  0
LINE
  8
0
 10
 2.59238646808000E+0001
 20
 4.41153908736000E+0001
 11
 2.59235207649000E+0001
 21
 4.41153934958000E+0001
  0
LINE
  8
0
 10
 2.59235207649000E+0001
 20
 4.41153934958000E+0001
 11
 2.59231617536000E+0001
 21
 4.41153963712000E+0001
  0
LINE
  8
0
 10
 2.59231617536000E+0001
 20
 4.41153963712000E+0001
 11
 2.59227867607000E+0001
 21
 4.41153994794000E+0001
  0
LINE
  8
0
 10
 2.59227867607000E+0001
 20
 4.41153994794000E+0001
 11
 2.59223949000000E+0001
 21
 4.41154028000000E+0001
  0
LINE
  8
0
 10
 2.59223949000000E+0001
 20
 4.41154028000000E+0001
 11
 2.59219852853000E+0001
 21
 4.41154063126000E+0001
  0
LINE
  8
0
 10
 2.59219852853000E+0001
 20
 4.41154063126000E+0001
 11
 2.59215570304000E+0001
 21
 4.41154099968000E+0001
  0
LINE
  8
0
 10
 2.59215570304000E+0001
 20
 4.41154099968000E+0001
 11
 2.59211092491000E+0001
 21
 4.41154138322000E+0001
  0
LINE
  8
0
 10
 2.59211092491000E+0001
 20
 4.41154138322000E+0001
 11
 2.59206410552000E+0001
 21
 4.41154177984000E+0001
  0
LINE
  8
0
 10
 2.59206410552000E+0001
 20
 4.41154177984000E+0001
 11
 2.59201515625000E+0001
 21
 4.41154218750000E+0001
  0
LINE
  8
0
 10
 2.59201515625000E+0001
 20
 4.41154218750000E+0001
 11
 2.59196398848000E+0001
 21
 4.41154260416000E+0001
  0
LINE
  8
0
 10
 2.59196398848000E+0001
 20
 4.41154260416000E+0001
 11
 2.59191051359000E+0001
 21
 4.41154302778000E+0001
  0
LINE
  8
0
 10
 2.59191051359000E+0001
 20
 4.41154302778000E+0001
 11
 2.59185464296000E+0001
 21
 4.41154345632000E+0001
  0
LINE
  8
0
 10
 2.59185464296000E+0001
 20
 4.41154345632000E+0001
 11
 2.59179628797000E+0001
 21
 4.41154388774000E+0001
  0
LINE
  8
0
 10
 2.59179628797000E+0001
 20
 4.41154388774000E+0001
 11
 2.59173536000000E+0001
 21
 4.41154432000000E+0001
  0
LINE
  8
0
 10
 2.59173536000000E+0001
 20
 4.41154432000000E+0001
 11
 2.59167177043000E+0001
 21
 4.41154475106000E+0001
  0
LINE
  8
0
 10
 2.59167177043000E+0001
 20
 4.41154475106000E+0001
 11
 2.59160543064000E+0001
 21
 4.41154517888000E+0001
  0
LINE
  8
0
 10
 2.59160543064000E+0001
 20
 4.41154517888000E+0001
 11
 2.59153625201000E+0001
 21
 4.41154560142000E+0001
  0
LINE
  8
0
 10
 2.59153625201000E+0001
 20
 4.41154560142000E+0001
 11
 2.59146414592000E+0001
 21
 4.41154601664000E+0001
  0
LINE
  8
0
 10
 2.59146414592000E+0001
 20
 4.41154601664000E+0001
 11
 2.59138902375000E+0001
 21
 4.41154642250000E+0001
  0
LINE
  8
0
 10
 2.59138902375000E+0001
 20
 4.41154642250000E+0001
 11
 2.59131079688000E+0001
 21
 4.41154681696000E+0001
  0
LINE
  8
0
 10
 2.59131079688000E+0001
 20
 4.41154681696000E+0001
 11
 2.59122937669000E+0001
 21
 4.41154719798000E+0001
  0
LINE
  8
0
 10
 2.59122937669000E+0001
 20
 4.41154719798000E+0001
 11
 2.59114467456000E+0001
 21
 4.41154756352000E+0001
  0
LINE
  8
0
 10
 2.59114467456000E+0001
 20
 4.41154756352000E+0001
 11
 2.59105660187000E+0001
 21
 4.41154791154000E+0001
  0
LINE
  8
0
 10
 2.59105660187000E+0001
 20
 4.41154791154000E+0001
 11
 2.59096507000000E+0001
 21
 4.41154824000000E+0001
  0
LINE
  8
0
 10
 2.59096507000000E+0001
 20
 4.41154824000000E+0001
 11
 2.59086999033000E+0001
 21
 4.41154854686000E+0001
  0
LINE
  8
0
 10
 2.59086999033000E+0001
 20
 4.41154854686000E+0001
 11
 2.59077127424000E+0001
 21
 4.41154883008000E+0001
  0
LINE
  8
0
 10
 2.59077127424000E+0001
 20
 4.41154883008000E+0001
 11
 2.59066883311000E+0001
 21
 4.41154908762000E+0001
  0
LINE
  8
0
 10
 2.59066883311000E+0001
 20
 4.41154908762000E+0001
 11
 2.59056257832000E+0001
 21
 4.41154931744000E+0001
  0
LINE
  8
0
 10
 2.59056257832000E+0001
 20
 4.41154931744000E+0001
 11
 2.59045242125000E+0001
 21
 4.41154951750000E+0001
  0
LINE
  8
0
 10
 2.59045242125000E+0001
 20
 4.41154951750000E+0001
 11
 2.59033827328000E+0001
 21
 4.41154968576000E+0001
  0
LINE
  8
0
 10
 2.59033827328000E+0001
 20
 4.41154968576000E+0001
 11
 2.59022004579000E+0001
 21
 4.41154982018000E+0001
  0
LINE
  8
0
 10
 2.59022004579000E+0001
 20
 4.41154982018000E+0001
 11
 2.59009765016000E+0001
 21
 4.41154991872000E+0001
  0
LINE
  8
0
 10
 2.59009765016000E+0001
 20
 4.41154991872000E+0001
 11
 2.58997099777000E+0001
 21
 4.41154997934000E+0001
  0
LINE
  8
0
 10
 2.58997099777000E+0001
 20
 4.41154997934000E+0001
 11
 2.58984000000000E+0001
 21
 4.41155000000000E+0001
  0
LINE
  8
0
 10
 2.58984000000000E+0001
 20
 4.41155000000000E+0001
 11
 2.59000000000000E+0001
 21
 4.41000000000000E+0001
  0
ARC
  8
0
 10
 2.59000000000000E+0001
 20
 4.54500000000000E+0001
 40
 1.35000000000000E+0000
 50
 1.46315000000000E+0002
 51
 2.70000000000000E+0002
  0
LINE
  8
0
 10
 2.47766658754080E+0001
 20
 4.61987459145312E+0001
 11
 3.56626293239335E+0001
 21
 6.25082423722982E+0001
  0
ARC
  8
0
 10
 3.84500000000000E+0001
 20
 6.06500000000000E+0001
 40
 3.35000000000000E+0000
 50
 9.00000000000000E+0001
 51
 1.46310000000000E+0002
  0
LINE
  8
0
 10
 3.84500000000000E+0001
 20
 6.40000000000000E+0001
 11
 5.16634000000000E+0001
 21
 6.40000000000000E+0001
  0
LINE
  8
0
 10
 2.83300000000000E+0001
 20
 8.00000000000000E+0001
 11
 2.83500000000000E+0001
 21
 8.00000000000000E+0001
  0
ARC
  8
0
 10
 2.83500000000000E+0001
 20
 8.16500000000000E+0001
 40
 1.65000000000000E+0000
 50
 1.80000000000000E+0002
 51
 2.70000000000000E+0002
  0
LINE
  8
0
 10
 2.67000000000000E+0001
 20
 8.16500000000000E+0001
 11
 2.67000000000000E+0001
 21
 9.16500000000000E+0001
  0
ARC
  8
0
 10
 2.83500000000000E+0001
 20
 9.16500000000000E+0001
 40
 1.65000000000000E+0000
 50
 9.00000000000000E+0001
 51
 1.80000000000000E+0002
  0
LINE
  8
0
 10
 2.83500000000000E+0001
 20
 9.33000000000000E+0001
 11
 5.16500000000000E+0001
 21
 9.33000000000000E+0001
  0
ARC
  8
0
 10
 5.16500000000000E+0001
 20
 9.16500000000000E+0001
 40
 1.65000000000000E+0000
 50
 0.00000000000000E+0000
 51
 9.00000000000000E+0001
  0
LINE
  8
0
 10
 5.33000000000000E+0001
 20
 9.16500000000000E+0001
 11
 5.33000000000000E+0001
 21
 8.16500000000000E+0001
  0
ARC
  8
0
 10
 5.16500000000000E+0001
 20
 8.16500000000000E+0001
 40
 1.65000000000000E+0000
 50
 2.70000000000000E+0002
 51
 3.60000000000000E+0002
  0
LINE
  8
0
 10
 5.16500000000000E+0001
 20
 8.00000000000000E+0001
 11
 2.83300000000000E+0001
 21
 8.00000000000000E+0001
  0
LINE
  8
0
 10
 7.83299000000000E+0001
 20
 2.00000000000000E+0001
 11
 7.83500000000000E+0001
 21
 2.00000000000000E+0001
  0
ARC
  8
0
 10
 7.83500000000000E+0001
 20
 2.16500000000000E+0001
 40
 1.65000000000000E+0000
 50
 1.80000000000000E+0002
 51
 2.70000000000000E+0002
  0
LINE
  8
0
 10
 7.67000000000000E+0001
 20
 2.16500000000000E+0001
 11
 7.67000000000000E+0001
 21
 7.16500000000000E+0001
  0
ARC
  8
0
 10
 7.83500000000000E+0001
 20
 7.16500000000000E+0001
 40
 1.65000000000000E+0000
 50
 9.00000000000000E+0001
 51
 1.80000000000000E+0002
  0
LINE
  8
0
 10
 7.83500000000000E+0001
 20
 7.33000000000000E+0001
 11
 1.05000000000000E+0002
 21
 7.33000000000000E+0001
  0
ARC
  8
0
 10
 1.05000000000000E+0002
 20
 7.16500000000000E+0001
 40
 1.65000000000000E+0000
 50
 0.00000000000000E+0000
 51
 9.00000000000000E+0001
  0
LINE
  8
0
 10
 1.06650000000000E+0002
 20
 7.16500000000000E+0001
 11
 1.06650000000000E+0002
 21
 2.16500000000000E+0001
  0
ARC
  8
0
 10
 1.05000000000000E+0002
 20
 2.16500000000000E+0001
 40
 1.65000000000000E+0000
 50
 2.70000000000000E+0002
 51
 3.60000000000000E+0002
  0
LINE
  8
0
 10
 1.05000000000000E+0002
 20
 2.00000000000000E+0001
 11
 7.83299000000000E+0001
 21
 2.00000000000000E+0001
  0
ARC
  8
0
 10
 1.21650000000000E+0002
 20
 5.50000000000000E+0001
 40
 1.65000000000000E+0000
 50
 1.80000000000000E+0002
 51
 2.70000000000000E+0002
  0
LINE
  8
0
 10
 1.20000000000000E+0002
 20
 5.50000000000000E+0001
 11
 1.20000000000000E+0002
 21
 7.16500000000000E+0001
  0
ARC
  8
0
 10
 1.21650000000000E+0002
 20
 7.16500000000000E+0001
 40
 1.65000000000000E+0000
 50
 9.00000000000000E+0001
 51
 1.80000000000000E+0002
  0
LINE
  8
0
 10
 1.21650000000000E+0002
 20
 7.33000000000000E+0001
 11
 1.45000000000000E+0002
 21
 7.33000000000000E+0001
  0
ARC
  8
0
 10
 1.45000000000000E+0002
 20
 7.16500000000000E+0001
 40
 1.65000000000000E+0000
 50
 0.00000000000000E+0000
 51
 9.00000000000000E+0001
  0
LINE
  8
0
 10
 1.46650000000000E+0002
 20
 7.16500000000000E+0001
 11
 1.46650000000000E+0002
 21
 5.50000000000000E+0001
  0
ARC
  8
0
 10
 1.45000000000000E+0002
 20
 5.50000000000000E+0001
 40
 1.65000000000000E+0000
 50
 2.70000000000000E+0002
 51
 3.60000000000000E+0002
  0
LINE
  8
0
 10
 1.45000000000000E+0002
 20
 5.33500000000000E+0001
 11
 1.21663500000000E+0002
 21
 5.33334000000000E+0001
  0
ENDSEC
  0
EOF
