  0
SECTION
  2
HEADER
  9
$ACADVER
  1
AC1003
  9
$INSBASE
 10
0.0
 20
0.0
  9
$EXTMIN
 10
 0.00000000000000E+0000
 20
 0.00000000000000E+0000
  9
$EXTMAX
 10
 1.25000000000000E+0003
 20
 1.60000000000000E+0003
  9
$LIMMIN
 10
0.0
 20
0.0
  9
$LIMMAX
 10
410.0
 20
287.0
  9
$VIEWCTR
 10
227.0059616
 20
165.058879 
  9
$VIEWSIZE
 40
 1.60000000000000E+0003
9
$SNAPMODE
70
0
9
$SNAPUNIT
10
1
20
1
9
$GRIDMODE
70
0
9
$GRIDUNIT
10
1
20
1
9
$ORTHOMODE
70
0
9
$rEGENMODE
70
1
9
$FILLMODE
70
1
9
$DRAGMODE
70
2
9
$LTSCALE
40
25.0
9
$OSMODE
70
0
9
$ATTMODE
70
1
9
$TRACEWID
40
1.0
9
$TEXTSTYLE
7
STANDARD
9
$CLAYER
8
0
9
$CELTYPE
6
VONLAYER
9
$CECOLOR
62
256
9
$LUNITS
70
2
9
$LUPREC
70
2
9
$AXISMODE
70
0
9
$AXISUNIT
10
0
20
0
9
$SKETCHINC
40
1.0
9
$FILLETRAD
40
0.0
9
$AUNITS
70
0
9
$AUPREC
70
0
9
$MENU
1
ACAD
9
$ELEVATION
40
0.0
9
$THICKNESS
40
0.0
9
$VIEWDIR
10
0.0
20
0.0
30
1.0
9
$LIMCHECK
70
0
9
$BLIPMODE
70
1
9
$CHAMFERA
40
0.0
9
$CHAMFERB
40
0.0
9
$USRTIMER
70
1
9
$ANGBASE
50
0.0
9
$ANGDIR
70
0
9
$PDMODE
70
0
9
$PDSIZE
40
0.0
9
$PLINEWID
40
0.0
9
$COORDS
70
0
0
ENDSEC
0
SECTION
2
TABLES
0
TABLE
2
LTYPE
70
1
0
LTYPE
2
AUSGEZOGEN
70
64
3
Ausgezogene Linie
72
65
73
0
40
0.0
0
ENDTAB
0
TABLE
2
LAYER
70
1
0
LAYER
2
0
70
0
62
7
6
AUSGEZOGEN
0
ENDTAB
0
TABLE
2
STYLE
70
1
0
STYLE
2
STANDARD
70
0
40
0.0
41
1.0
50
0.0
71
0
42
3.5
3
txt
4

0
ENDTAB
0
TABLE
2
VIEW
70
0
0
ENDTAB
0
ENDSEC
0
SECTION
2
BLOCKS
0
ENDSEC
0
SECTION
2
ENTITIES
  0
ARC
  8
0
 10
 6.00000000000000E+0001
 20
 6.00000000000000E+0001
 40
 6.00000000000000E+0001
 50
 1.80000000000000E+0002
 51
 2.70000000000000E+0002
  0
LINE
  8
0
 10
 0.00000000000000E+0000
 20
 6.00000000000000E+0001
 11
 0.00000000000000E+0000
 21
 1.54000000000000E+0003
  0
ARC
  8
0
 10
 6.00000000000000E+0001
 20
 1.54000000000000E+0003
 40
 6.00000000000000E+0001
 50
 9.00000000000000E+0001
 51
 1.80000000000000E+0002
  0
LINE
  8
0
 10
 6.00000000000000E+0001
 20
 1.60000000000000E+0003
 11
 1.19000000000000E+0003
 21
 1.60000000000000E+0003
  0
ARC
  8
0
 10
 1.19000000000000E+0003
 20
 1.54000000000000E+0003
 40
 6.00000000000000E+0001
 50
 0.00000000000000E+0000
 51
 9.00000000000000E+0001
  0
LINE
  8
0
 10
 1.25000000000000E+0003
 20
 1.54000000000000E+0003
 11
 1.25000000000000E+0003
 21
 6.00000000000000E+0001
  0
ARC
  8
0
 10
 1.19000000000000E+0003
 20
 6.00000000000000E+0001
 40
 6.00000000000000E+0001
 50
 2.70000000000000E+0002
 51
 3.60000000000000E+0002
  0
LINE
  8
0
 10
 1.19000000000000E+0003
 20
 0.00000000000000E+0000
 11
 6.00000000000000E+0001
 21
 0.00000000000000E+0000
  0
ARC
  8
0
 10
 6.00000000000000E+0001
 20
 6.00000000000000E+0001
 40
 4.50000000000000E+0001
 50
 1.80000000000000E+0002
 51
 2.70000000000000E+0002
  0
LINE
  8
0
 10
 1.50000000000000E+0001
 20
 6.00000000000000E+0001
 11
 1.50000000000000E+0001
 21
 1.54000000000000E+0003
  0
ARC
  8
0
 10
 6.00000000000000E+0001
 20
 1.54000000000000E+0003
 40
 4.50000000000000E+0001
 50
 9.00000000000000E+0001
 51
 1.80000000000000E+0002
  0
LINE
  8
0
 10
 6.00000000000000E+0001
 20
 1.58500000000000E+0003
 11
 1.19000000000000E+0003
 21
 1.58500000000000E+0003
  0
ARC
  8
0
 10
 1.19000000000000E+0003
 20
 1.54000000000000E+0003
 40
 4.50000000000000E+0001
 50
 0.00000000000000E+0000
 51
 9.00000000000000E+0001
  0
LINE
  8
0
 10
 1.23500000000000E+0003
 20
 1.54000000000000E+0003
 11
 1.23500000000000E+0003
 21
 6.00000000000000E+0001
  0
ARC
  8
0
 10
 1.19000000000000E+0003
 20
 6.00000000000000E+0001
 40
 4.50000000000000E+0001
 50
 2.70000000000000E+0002
 51
 3.60000000000000E+0002
  0
LINE
  8
0
 10
 1.19000000000000E+0003
 20
 1.50000000000000E+0001
 11
 6.00000000000000E+0001
 21
 1.50000000000000E+0001
  0
ARC
  8
0
 10
 6.00000000000000E+0001
 20
 6.00000000000000E+0001
 40
 2.50000000000000E+0001
 50
 1.80000000000000E+0002
 51
 2.70000000000000E+0002
  0
LINE
  8
0
 10
 3.50000000000000E+0001
 20
 6.00000000000000E+0001
 11
 3.50000000000000E+0001
 21
 1.54000000000000E+0003
  0
ARC
  8
0
 10
 6.00000000000000E+0001
 20
 1.54000000000000E+0003
 40
 2.50000000000000E+0001
 50
 9.00000000000000E+0001
 51
 1.80000000000000E+0002
  0
LINE
  8
0
 10
 6.00000000000000E+0001
 20
 1.56500000000000E+0003
 11
 1.19000000000000E+0003
 21
 1.56500000000000E+0003
  0
ARC
  8
0
 10
 1.19000000000000E+0003
 20
 1.54000000000000E+0003
 40
 2.50000000000000E+0001
 50
 0.00000000000000E+0000
 51
 9.00000000000000E+0001
  0
LINE
  8
0
 10
 1.21500000000000E+0003
 20
 1.54000000000000E+0003
 11
 1.21500000000000E+0003
 21
 6.00000000000000E+0001
  0
ARC
  8
0
 10
 1.19000000000000E+0003
 20
 6.00000000000000E+0001
 40
 2.50000000000000E+0001
 50
 2.70000000000000E+0002
 51
 3.60000000000000E+0002
  0
LINE
  8
0
 10
 1.19000000000000E+0003
 20
 3.50000000000000E+0001
 11
 6.00000000000000E+0001
 21
 3.50000000000000E+0001
  0
LINE
  8
0
 10
 2.20000000000000E+0002
 20
 1.30700000000000E+0003
 11
 1.74999490553610E+0002
 21
 1.29538091843480E+0003
  0
ARC
  8
0
 10
 1.72000000000000E+0002
 20
 1.30700000000000E+0003
 40
 1.20000000000000E+0001
 50
 1.46195000000000E+0002
 51
 2.84475000000000E+0002
  0
LINE
  8
0
 10
 1.62028768958083E+0002
 20
 1.31367641756549E+0003
 11
 2.50000000000000E+0002
 21
 1.44500000000000E+0003
  0
LINE
  8
0
 10
 2.50000000000000E+0002
 20
 1.44500000000000E+0003
 11
 3.37971231041916E+0002
 21
 1.31367641756549E+0003
  0
ARC
  8
0
 10
 3.28000000000000E+0002
 20
 1.30700000000000E+0003
 40
 1.20000000000000E+0001
 50
 2.55525000000000E+0002
 51
 3.93805000000000E+0002
  0
LINE
  8
0
 10
 3.25000509446390E+0002
 20
 1.29538091843480E+0003
 11
 2.80000000000000E+0002
 21
 1.30700000000000E+0003
  0
LINE
  8
0
 10
 2.80000000000000E+0002
 20
 1.30700000000000E+0003
 11
 2.80000000000000E+0002
 21
 1.55000000000000E+0002
  0
LINE
  8
0
 10
 2.80000000000000E+0002
 20
 1.55000000000000E+0002
 11
 2.20000000000000E+0002
 21
 1.55000000000000E+0002
  0
LINE
  8
0
 10
 2.20000000000000E+0002
 20
 1.55000000000000E+0002
 11
 2.20000000000000E+0002
 21
 1.30700000000000E+0003
  0
LINE
  8
0
 10
 5.60000000000000E+0002
 20
 1.30700000000000E+0003
 11
 5.14999490553610E+0002
 21
 1.29538091843480E+0003
  0
ARC
  8
0
 10
 5.12000000000000E+0002
 20
 1.30700000000000E+0003
 40
 1.20000000000000E+0001
 50
 1.46195000000000E+0002
 51
 2.84475000000000E+0002
  0
LINE
  8
0
 10
 5.02028768958084E+0002
 20
 1.31367641756549E+0003
 11
 5.90000000000000E+0002
 21
 1.44500000000000E+0003
  0
LINE
  8
0
 10
 5.90000000000000E+0002
 20
 1.44500000000000E+0003
 11
 6.77971231041917E+0002
 21
 1.31367641756549E+0003
  0
ARC
  8
0
 10
 6.68000000000000E+0002
 20
 1.30700000000000E+0003
 40
 1.20000000000000E+0001
 50
 2.55525000000000E+0002
 51
 3.93805000000000E+0002
  0
LINE
  8
0
 10
 6.65000509446390E+0002
 20
 1.29538091843480E+0003
 11
 6.20000000000000E+0002
 21
 1.30700000000000E+0003
  0
LINE
  8
0
 10
 6.20000000000000E+0002
 20
 1.30700000000000E+0003
 11
 6.19990627553650E+0002
 21
 1.19542882912159E+0003
  0
ARC
  8
0
 10
 5.90000000000000E+0002
 20
 9.49400000000000E+0002
 40
 2.47850000000000E+0002
 50
 8.30500000000000E+0001
 51
 9.69500000000000E+0001
  0
LINE
  8
0
 10
 5.60009372446350E+0002
 20
 1.19542882912159E+0003
 11
 5.60000000000000E+0002
 21
 1.30700000000000E+0003
  0
LINE
  8
0
 10
 6.20000000000000E+0002
 20
 7.09078200000000E+0002
 11
 6.20000000000000E+0002
 21
 1.55000000000000E+0002
  0
LINE
  8
0
 10
 6.20000000000000E+0002
 20
 1.55000000000000E+0002
 11
 5.60000000000000E+0002
 21
 1.55000000000000E+0002
  0
LINE
  8
0
 10
 5.60000000000000E+0002
 20
 1.55000000000000E+0002
 11
 5.60009372446350E+0002
 21
 7.09071170878415E+0002
  0
ARC
  8
0
 10
 5.90000000000000E+0002
 20
 9.55100000000000E+0002
 40
 2.47850000000000E+0002
 50
 2.63050000000000E+0002
 51
 2.76950000000000E+0002
  0
LINE
  8
0
 10
 9.00000000000000E+0002
 20
 1.30700000000000E+0003
 11
 8.54999490553610E+0002
 21
 1.29538091843480E+0003
  0
ARC
  8
0
 10
 8.52000000000000E+0002
 20
 1.30700000000000E+0003
 40
 1.20000000000000E+0001
 50
 1.46195000000000E+0002
 51
 2.84475000000000E+0002
  0
LINE
  8
0
 10
 8.42028768958083E+0002
 20
 1.31367641756549E+0003
 11
 9.30000000000000E+0002
 21
 1.44500000000000E+0003
  0
LINE
  8
0
 10
 9.30000000000000E+0002
 20
 1.44500000000000E+0003
 11
 1.01797123104191E+0003
 21
 1.31367641756549E+0003
  0
ARC
  8
0
 10
 1.00800000000000E+0003
 20
 1.30700000000000E+0003
 40
 1.20000000000000E+0001
 50
 2.55525000000000E+0002
 51
 3.93805000000000E+0002
  0
LINE
  8
0
 10
 1.00500050944639E+0003
 20
 1.29538091843480E+0003
 11
 9.60000000000000E+0002
 21
 1.30700000000000E+0003
  0
LINE
  8
0
 10
 9.60000000000000E+0002
 20
 1.30700000000000E+0003
 11
 9.59990627553650E+0002
 21
 7.68178829121585E+0002
  0
ARC
  8
0
 10
 9.30000000000000E+0002
 20
 5.22150000000000E+0002
 40
 2.47850000000000E+0002
 50
 8.30500000000000E+0001
 51
 9.69500000000000E+0001
  0
LINE
  8
0
 10
 9.00009372446350E+0002
 20
 7.68178829121585E+0002
 11
 9.00000000000000E+0002
 21
 1.30700000000000E+0003
  0
LINE
  8
0
 10
 9.60000000000000E+0002
 20
 2.81828200000000E+0002
 11
 9.60000000000000E+0002
 21
 1.55000000000000E+0002
  0
LINE
  8
0
 10
 9.60000000000000E+0002
 20
 1.55000000000000E+0002
 11
 9.00000000000000E+0002
 21
 1.55000000000000E+0002
  0
LINE
  8
0
 10
 9.00000000000000E+0002
 20
 1.55000000000000E+0002
 11
 9.00009372446350E+0002
 21
 2.81821170878415E+0002
  0
ARC
  8
0
 10
 9.30000000000000E+0002
 20
 5.27850000000000E+0002
 40
 2.47850000000000E+0002
 50
 2.63050000000000E+0002
 51
 2.76950000000000E+0002
  0
CIRCLE
  8
0
 10
 5.90000000000000E+0002
 20
 9.52250000000000E+0002
 40
 2.36850000000000E+0002
  0
LINE
  8
0
 10
 7.13137800000000E+0002
 20
 1.14006530000000E+0003
 11
 7.13146659350173E+0002
 21
 1.14007987060341E+0003
  0
ARC
  8
0
 10
 5.90000000000000E+0002
 20
 9.52250000000000E+0002
 40
 2.24600000000000E+0002
 50
 5.67500000000000E+0001
 51
 2.13250000000000E+0002
  0
LINE
  8
0
 10
 4.02170129396593E+0002
 20
 8.29103340649827E+0002
 11
 7.13137800000000E+0002
 21
 1.14006530000000E+0003
  0
LINE
  8
0
 10
 7.22687100000000E+0002
 20
 1.13344510000000E+0003
 11
 7.22708855246030E+0002
 21
 1.13343753134972E+0003
  0
ARC
  8
0
 10
 5.90100000000000E+0002
 20
 9.52350000000000E+0002
 40
 2.24450000000000E+0002
 50
 5.15750000000000E+0001
 51
 5.37850000000000E+0001
  0
LINE
  8
0
 10
 7.29593356861881E+0002
 20
 1.12818914777831E+0003
 11
 4.14060852221686E+0002
 21
 8.12656643138119E+0002
  0
ARC
  8
0
 10
 5.89900000000000E+0002
 20
 9.52150000000000E+0002
 40
 2.24450000000000E+0002
 50
 2.16215000000000E+0002
 51
 2.18425000000000E+0002
  0
LINE
  8
0
 10
 4.08812468650275E+0002
 20
 8.19541144753970E+0002
 11
 7.22687100000000E+0002
 21
 1.13344510000000E+0003
  0
LINE
  8
0
 10
 7.38376100000000E+0002
 20
 1.12083830000000E+0003
 11
 7.38400533437219E+0002
 21
 1.12086696511741E+0003
  0
ARC
  8
0
 10
 5.90050000000000E+0002
 20
 9.52300000000000E+0002
 40
 2.24550000000000E+0002
 50
 4.64600000000000E+0001
 51
 4.86500000000000E+0001
  0
LINE
  8
0
 10
 7.44733695951695E+0002
 20
 1.11507486509509E+0003
 11
 4.27175134904913E+0002
 21
 7.97516304048306E+0002
  0
ARC
  8
0
 10
 5.89950000000000E+0002
 20
 9.52200000000000E+0002
 40
 2.24550000000000E+0002
 50
 2.21350000000000E+0002
 51
 2.23540000000000E+0002
  0
LINE
  8
0
 10
 4.21383034882595E+0002
 20
 8.03849466562780E+0002
 11
 7.38376100000000E+0002
 21
 1.12083830000000E+0003
  0
LINE
  8
0
 10
 7.58587800000000E+0002
 20
 1.10062680000000E+0003
 11
 7.58616965117405E+0002
 21
 1.10065053343722E+0003
  0
ARC
  8
0
 10
 5.90050000000000E+0002
 20
 9.52300000000000E+0002
 40
 2.24550000000000E+0002
 50
 4.13500000000000E+0001
 51
 4.35400000000000E+0001
  0
LINE
  8
0
 10
 7.52824865095087E+0002
 20
 1.10698369595169E+0003
 11
 4.35266304048305E+0002
 21
 7.89425134904913E+0002
  0
ARC
  8
0
 10
 5.89950000000000E+0002
 20
 9.52200000000000E+0002
 40
 2.24550000000000E+0002
 50
 2.26460000000000E+0002
 51
 2.28650000000000E+0002
  0
LINE
  8
0
 10
 4.41599466562781E+0002
 20
 7.83633034882595E+0002
 11
 7.58587800000000E+0002
 21
 1.10062680000000E+0003
  0
LINE
  8
0
 10
 7.71194600000000E+0002
 20
 1.08493760000000E+0003
 11
 7.71187531349725E+0002
 21
 1.08495885524603E+0003
  0
ARC
  8
0
 10
 5.90100000000000E+0002
 20
 9.52350000000000E+0002
 40
 2.24450000000000E+0002
 50
 3.62150000000000E+0001
 51
 3.84250000000000E+0001
  0
LINE
  8
0
 10
 7.65939147778314E+0002
 20
 1.09184335686188E+0003
 11
 4.50406643138119E+0002
 21
 7.76310852221686E+0002
  0
ARC
  8
0
 10
 5.89900000000000E+0002
 20
 9.52150000000000E+0002
 40
 2.24450000000000E+0002
 50
 2.31575000000000E+0002
 51
 2.33785000000000E+0002
  0
LINE
  8
0
 10
 4.57291144753970E+0002
 20
 7.71062468650275E+0002
 11
 7.71194600000000E+0002
 21
 1.08493760000000E+0003
  0
ARC
  8
0
 10
 5.90000000000000E+0002
 20
 9.52250000000000E+0002
 40
 2.24600000000000E+0002
 50
 2.36750000000000E+0002
 51
 3.93250000000000E+0002
  0
LINE
  8
0
 10
 7.77829870603407E+0002
 20
 1.07539665935017E+0003
 11
 7.77814500000000E+0002
 21
 1.07538860000000E+0003
  0
LINE
  8
0
 10
 7.77814500000000E+0002
 20
 1.07538860000000E+0003
 11
 4.66861400000000E+0002
 21
 7.64434700000000E+0002
  0
CIRCLE
  8
0
 10
 9.30000000000000E+0002
 20
 5.25000000000000E+0002
 40
 2.36850000000000E+0002
  0
LINE
  8
0
 10
 1.05313780000000E+0003
 20
 7.12815300000000E+0002
 11
 1.05314665935017E+0003
 21
 7.12829870603407E+0002
  0
ARC
  8
0
 10
 9.30000000000000E+0002
 20
 5.25000000000000E+0002
 40
 2.24600000000000E+0002
 50
 5.67500000000000E+0001
 51
 2.13250000000000E+0002
  0
LINE
  8
0
 10
 7.42170129396593E+0002
 20
 4.01853340649827E+0002
 11
 1.05313780000000E+0003
 21
 7.12815300000000E+0002
  0
LINE
  8
0
 10
 1.06268710000000E+0003
 20
 7.06195100000000E+0002
 11
 1.06270885524603E+0003
 21
 7.06187531349725E+0002
  0
ARC
  8
0
 10
 9.30100000000000E+0002
 20
 5.25100000000000E+0002
 40
 2.24450000000000E+0002
 50
 5.15750000000000E+0001
 51
 5.37850000000000E+0001
  0
LINE
  8
0
 10
 1.06959335686188E+0003
 20
 7.00939147778314E+0002
 11
 7.54060852221686E+0002
 21
 3.85406643138119E+0002
  0
ARC
  8
0
 10
 9.29900000000000E+0002
 20
 5.24900000000000E+0002
 40
 2.24450000000000E+0002
 50
 2.16215000000000E+0002
 51
 2.18425000000000E+0002
  0
LINE
  8
0
 10
 7.48812468650275E+0002
 20
 3.92291144753970E+0002
 11
 1.06268710000000E+0003
 21
 7.06195100000000E+0002
  0
LINE
  8
0
 10
 1.07837610000000E+0003
 20
 6.93588300000000E+0002
 11
 1.07840053343722E+0003
 21
 6.93616965117405E+0002
  0
ARC
  8
0
 10
 9.30050000000000E+0002
 20
 5.25050000000000E+0002
 40
 2.24550000000000E+0002
 50
 4.64600000000000E+0001
 51
 4.86500000000000E+0001
  0
LINE
  8
0
 10
 1.08473369595169E+0003
 20
 6.87824865095087E+0002
 11
 7.67175134904913E+0002
 21
 3.70266304048305E+0002
  0
ARC
  8
0
 10
 9.29950000000000E+0002
 20
 5.24950000000000E+0002
 40
 2.24550000000000E+0002
 50
 2.21350000000000E+0002
 51
 2.23540000000000E+0002
  0
LINE
  8
0
 10
 7.61383034882595E+0002
 20
 3.76599466562781E+0002
 11
 1.07837610000000E+0003
 21
 6.93588300000000E+0002
  0
LINE
  8
0
 10
 1.09858780000000E+0003
 20
 6.73376800000000E+0002
 11
 1.09861696511741E+0003
 21
 6.73400533437219E+0002
  0
ARC
  8
0
 10
 9.30050000000000E+0002
 20
 5.25050000000000E+0002
 40
 2.24550000000000E+0002
 50
 4.13500000000000E+0001
 51
 4.35400000000000E+0001
  0
LINE
  8
0
 10
 1.09282486509509E+0003
 20
 6.79733695951695E+0002
 11
 7.75266304048306E+0002
 21
 3.62175134904913E+0002
  0
ARC
  8
0
 10
 9.29950000000000E+0002
 20
 5.24950000000000E+0002
 40
 2.24550000000000E+0002
 50
 2.26460000000000E+0002
 51
 2.28650000000000E+0002
  0
LINE
  8
0
 10
 7.81599466562781E+0002
 20
 3.56383034882595E+0002
 11
 1.09858780000000E+0003
 21
 6.73376800000000E+0002
  0
LINE
  8
0
 10
 1.11119460000000E+0003
 20
 6.57687600000000E+0002
 11
 1.11118753134972E+0003
 21
 6.57708855246030E+0002
  0
ARC
  8
0
 10
 9.30100000000000E+0002
 20
 5.25100000000000E+0002
 40
 2.24450000000000E+0002
 50
 3.62150000000000E+0001
 51
 3.84250000000000E+0001
  0
LINE
  8
0
 10
 1.10593914777831E+0003
 20
 6.64593356861881E+0002
 11
 7.90406643138119E+0002
 21
 3.49060852221686E+0002
  0
ARC
  8
0
 10
 9.29900000000000E+0002
 20
 5.24900000000000E+0002
 40
 2.24450000000000E+0002
 50
 2.31575000000000E+0002
 51
 2.33785000000000E+0002
  0
LINE
  8
0
 10
 7.97291144753970E+0002
 20
 3.43812468650275E+0002
 11
 1.11119460000000E+0003
 21
 6.57687600000000E+0002
  0
ARC
  8
0
 10
 9.30000000000000E+0002
 20
 5.25000000000000E+0002
 40
 2.24600000000000E+0002
 50
 2.36750000000000E+0002
 51
 3.93250000000000E+0002
  0
LINE
  8
0
 10
 1.11782987060341E+0003
 20
 6.48146659350173E+0002
 11
 1.11781450000000E+0003
 21
 6.48138600000000E+0002
  0
LINE
  8
0
 10
 1.11781450000000E+0003
 20
 6.48138600000000E+0002
 11
 8.06861400000000E+0002
 21
 3.37184700000000E+0002
  0
ENDSEC
  0
EOF
