  0
SECTION
  2
HEADER
  9
$ACADVER
  1
AC1003
  9
$INSBASE
 10
0.0
 20
0.0
  9
$EXTMIN
 10
 0.00000000000000E+0000
 20
 0.00000000000000E+0000
  9
$EXTMAX
 10
 6.00000000000000E+0002
 20
 6.00000000000000E+0002
  9
$LIMMIN
 10
0.0
 20
0.0
  9
$LIMMAX
 10
410.0
 20
287.0
  9
$VIEWCTR
 10
227.0059616
 20
165.058879 
  9
$VIEWSIZE
 40
 6.00000000000000E+0002
9
$SNAPMODE
70
0
9
$SNAPUNIT
10
1
20
1
9
$GRIDMODE
70
0
9
$GRIDUNIT
10
1
20
1
9
$ORTHOMODE
70
0
9
$rEGENMODE
70
1
9
$FILLMODE
70
1
9
$DRAGMODE
70
2
9
$LTSCALE
40
25.0
9
$OSMODE
70
0
9
$ATTMODE
70
1
9
$TRACEWID
40
1.0
9
$TEXTSTYLE
7
STANDARD
9
$CLAYER
8
0
9
$CELTYPE
6
VONLAYER
9
$CECOLOR
62
256
9
$LUNITS
70
2
9
$LUPREC
70
2
9
$AXISMODE
70
0
9
$AXISUNIT
10
0
20
0
9
$SKETCHINC
40
1.0
9
$FILLETRAD
40
0.0
9
$AUNITS
70
0
9
$AUPREC
70
0
9
$MENU
1
ACAD
9
$ELEVATION
40
0.0
9
$THICKNESS
40
0.0
9
$VIEWDIR
10
0.0
20
0.0
30
1.0
9
$LIMCHECK
70
0
9
$BLIPMODE
70
1
9
$CHAMFERA
40
0.0
9
$CHAMFERB
40
0.0
9
$USRTIMER
70
1
9
$ANGBASE
50
0.0
9
$ANGDIR
70
0
9
$PDMODE
70
0
9
$PDSIZE
40
0.0
9
$PLINEWID
40
0.0
9
$COORDS
70
0
0
ENDSEC
0
SECTION
2
TABLES
0
TABLE
2
LTYPE
70
1
0
LTYPE
2
AUSGEZOGEN
70
64
3
Ausgezogene Linie
72
65
73
0
40
0.0
0
ENDTAB
0
TABLE
2
LAYER
70
1
0
LAYER
2
0
70
0
62
7
6
AUSGEZOGEN
0
ENDTAB
0
TABLE
2
STYLE
70
1
0
STYLE
2
STANDARD
70
0
40
0.0
41
1.0
50
0.0
71
0
42
3.5
3
txt
4

0
ENDTAB
0
TABLE
2
VIEW
70
0
0
ENDTAB
0
ENDSEC
0
SECTION
2
BLOCKS
0
ENDSEC
0
SECTION
2
ENTITIES
  0
ARC
  8
0
 10
 4.00000000000000E+0001
 20
 4.00000000000000E+0001
 40
 4.00000000000000E+0001
 50
 1.80000000000000E+0002
 51
 2.70000000000000E+0002
  0
LINE
  8
0
 10
 0.00000000000000E+0000
 20
 4.00000000000000E+0001
 11
 0.00000000000000E+0000
 21
 5.60000000000000E+0002
  0
ARC
  8
0
 10
 4.00000000000000E+0001
 20
 5.60000000000000E+0002
 40
 4.00000000000000E+0001
 50
 9.00000000000000E+0001
 51
 1.80000000000000E+0002
  0
LINE
  8
0
 10
 4.00000000000000E+0001
 20
 6.00000000000000E+0002
 11
 5.60000000000000E+0002
 21
 6.00000000000000E+0002
  0
ARC
  8
0
 10
 5.60000000000000E+0002
 20
 5.60000000000000E+0002
 40
 4.00000000000000E+0001
 50
 0.00000000000000E+0000
 51
 9.00000000000000E+0001
  0
LINE
  8
0
 10
 6.00000000000000E+0002
 20
 5.60000000000000E+0002
 11
 6.00000000000000E+0002
 21
 4.00000000000000E+0001
  0
ARC
  8
0
 10
 5.60000000000000E+0002
 20
 4.00000000000000E+0001
 40
 4.00000000000000E+0001
 50
 2.70000000000000E+0002
 51
 3.60000000000000E+0002
  0
LINE
  8
0
 10
 5.60000000000000E+0002
 20
 0.00000000000000E+0000
 11
 4.00000000000000E+0001
 21
 0.00000000000000E+0000
  0
ARC
  8
0
 10
 4.00000000000000E+0001
 20
 4.00000000000000E+0001
 40
 2.50000000000000E+0001
 50
 1.80000000000000E+0002
 51
 2.70000000000000E+0002
  0
LINE
  8
0
 10
 1.50000000000000E+0001
 20
 4.00000000000000E+0001
 11
 1.50000000000000E+0001
 21
 5.60000000000000E+0002
  0
ARC
  8
0
 10
 4.00000000000000E+0001
 20
 5.60000000000000E+0002
 40
 2.50000000000000E+0001
 50
 9.00000000000000E+0001
 51
 1.80000000000000E+0002
  0
LINE
  8
0
 10
 4.00000000000000E+0001
 20
 5.85000000000000E+0002
 11
 5.60000000000000E+0002
 21
 5.85000000000000E+0002
  0
ARC
  8
0
 10
 5.60000000000000E+0002
 20
 5.60000000000000E+0002
 40
 2.50000000000000E+0001
 50
 0.00000000000000E+0000
 51
 9.00000000000000E+0001
  0
LINE
  8
0
 10
 5.85000000000000E+0002
 20
 5.60000000000000E+0002
 11
 5.85000000000000E+0002
 21
 4.00000000000000E+0001
  0
ARC
  8
0
 10
 5.60000000000000E+0002
 20
 4.00000000000000E+0001
 40
 2.50000000000000E+0001
 50
 2.70000000000000E+0002
 51
 3.60000000000000E+0002
  0
LINE
  8
0
 10
 5.60000000000000E+0002
 20
 1.50000000000000E+0001
 11
 4.00000000000000E+0001
 21
 1.50000000000000E+0001
  0
LINE
  8
0
 10
 1.00000000000000E+0002
 20
 1.00000000000000E+0002
 11
 1.00000000000000E+0002
 21
 5.00000000000000E+0002
  0
LINE
  8
0
 10
 1.00000000000000E+0002
 20
 5.00000000000000E+0002
 11
 5.00000000000000E+0002
 21
 5.00000000000000E+0002
  0
LINE
  8
0
 10
 5.00000000000000E+0002
 20
 5.00000000000000E+0002
 11
 5.00000000000000E+0002
 21
 1.00000000000000E+0002
  0
LINE
  8
0
 10
 5.00000000000000E+0002
 20
 1.00000000000000E+0002
 11
 1.00000000000000E+0002
 21
 1.00000000000000E+0002
  0
LINE
  8
0
 10
 2.91878700000000E+0002
 20
 1.36000000000000E+0002
 11
 3.88848500000000E+0002
 21
 1.36000000000000E+0002
  0
LINE
  8
0
 10
 3.88848500000000E+0002
 20
 1.36000000000000E+0002
 11
 3.88848500000000E+0002
 21
 1.50545500000000E+0002
  0
LINE
  8
0
 10
 3.88848500000000E+0002
 20
 1.50545500000000E+0002
 11
 3.98545400000000E+0002
 21
 1.50545500000000E+0002
  0
LINE
  8
0
 10
 3.98545400000000E+0002
 20
 1.50545500000000E+0002
 11
 3.98545400000000E+0002
 21
 3.39636400000000E+0002
  0
ARC
  8
0
 10
 3.88848500000000E+0002
 20
 3.39636400000000E+0002
 40
 9.69690000000000E+0000
 50
 0.00000000000000E+0000
 51
 9.00000000000000E+0001
  0
LINE
  8
0
 10
 3.88848500000000E+0002
 20
 3.49333300000000E+0002
 11
 2.91878700000000E+0002
 21
 3.49333300000000E+0002
  0
ARC
  8
0
 10
 2.91878700000000E+0002
 20
 3.39636400000000E+0002
 40
 9.69690000000000E+0000
 50
 9.00000000000000E+0001
 51
 1.80000000000000E+0002
  0
LINE
  8
0
 10
 2.82181800000000E+0002
 20
 3.39636400000000E+0002
 11
 2.82181800000000E+0002
 21
 3.29939400000000E+0002
  0
LINE
  8
0
 10
 2.82181800000000E+0002
 20
 3.29939400000000E+0002
 11
 2.77333300000000E+0002
 21
 3.29939300000000E+0002
  0
ARC
  8
0
 10
 2.77333300000000E+0002
 20
 3.20242400000000E+0002
 40
 9.69690000000000E+0000
 50
 9.00000000000000E+0001
 51
 1.57380140000000E+0002
  0
LINE
  8
0
 10
 2.68382315062531E+0002
 20
 3.23971976150073E+0002
 11
 2.62787800000000E+0002
 21
 3.10545500000000E+0002
  0
ARC
  8
0
 10
 7.85454000000000E+0001
 20
 3.10545500000000E+0002
 40
 1.84242400000000E+0002
 50
 3.31197760000000E+0002
 51
 3.60000000000000E+0002
  0
LINE
  8
0
 10
 2.39994775659802E+0002
 20
 2.21779734882922E+0002
 11
 2.19101534695625E+0002
 21
 1.83778442176962E+0002
  0
ARC
  8
0
 10
 2.53090900000000E+0002
 20
 1.65090900000000E+0002
 40
 3.87879000000000E+0001
 50
 1.51197760000000E+0002
 51
 1.80000000000000E+0002
  0
LINE
  8
0
 10
 2.14303000000000E+0002
 20
 1.65090900000000E+0002
 11
 2.14303000000000E+0002
 21
 1.65090900000000E+0002
  0
ARC
  8
0
 10
 2.43393900000000E+0002
 20
 1.65090900000000E+0002
 40
 2.90909000000000E+0001
 50
 1.80000000000000E+0002
 51
 3.60000000000000E+0002
  0
LINE
  8
0
 10
 2.72484800000000E+0002
 20
 1.65090900000000E+0002
 11
 2.72484800000000E+0002
 21
 2.83878800000000E+0002
  0
LINE
  8
0
 10
 2.72484800000000E+0002
 20
 2.83878800000000E+0002
 11
 2.82181800000000E+0002
 21
 2.83878800000000E+0002
  0
LINE
  8
0
 10
 2.82181800000000E+0002
 20
 2.83878800000000E+0002
 11
 2.82181800000000E+0002
 21
 1.50545500000000E+0002
  0
LINE
  8
0
 10
 2.82181800000000E+0002
 20
 1.50545500000000E+0002
 11
 2.91878700000000E+0002
 21
 1.50545500000000E+0002
  0
LINE
  8
0
 10
 2.91878700000000E+0002
 20
 1.50545500000000E+0002
 11
 2.91878700000000E+0002
 21
 1.36000000000000E+0002
  0
ARC
  8
0
 10
 7.85454000000000E+0001
 20
 3.10545500000000E+0002
 40
 1.93939400000000E+0002
 50
 3.31197760000000E+0002
 51
 3.41805130000000E+0002
  0
LINE
  8
0
 10
 2.48492138893092E+0002
 20
 2.17107837293984E+0002
 11
 2.27598897928915E+0002
 21
 1.79106544588023E+0002
  0
ARC
  8
0
 10
 2.53090900000000E+0002
 20
 1.65090900000000E+0002
 40
 2.90909000000000E+0001
 50
 1.51197760000000E+0002
 51
 1.80000000000000E+0002
  0
LINE
  8
0
 10
 2.24000000000000E+0002
 20
 1.65090900000000E+0002
 11
 2.23999900000000E+0002
 21
 1.65090900000000E+0002
  0
ARC
  8
0
 10
 2.43393900000000E+0002
 20
 1.65090900000000E+0002
 40
 1.93940000000000E+0001
 50
 1.80000000000000E+0002
 51
 3.60000000000000E+0002
  0
LINE
  8
0
 10
 2.62787900000000E+0002
 20
 1.65090900000000E+0002
 11
 2.62787800000000E+0002
 21
 2.49987900000000E+0002
  0
LINE
  8
0
 10
 3.11272700000000E+0002
 20
 2.66909100000000E+0002
 11
 3.69454500000000E+0002
 21
 2.66909200000000E+0002
  0
ARC
  8
0
 10
 3.69454500000000E+0002
 20
 2.76606100000000E+0002
 40
 9.69690000000000E+0000
 50
 2.70000000000000E+0002
 51
 3.60000000000000E+0002
  0
LINE
  8
0
 10
 3.79151400000000E+0002
 20
 2.76606100000000E+0002
 11
 3.79151400000000E+0002
 21
 3.20242400000000E+0002
  0
ARC
  8
0
 10
 3.69454500000000E+0002
 20
 3.20242400000000E+0002
 40
 9.69690000000000E+0000
 50
 0.00000000000000E+0000
 51
 9.00000000000000E+0001
  0
LINE
  8
0
 10
 3.69454500000000E+0002
 20
 3.29939300000000E+0002
 11
 3.11272700000000E+0002
 21
 3.29939300000000E+0002
  0
ARC
  8
0
 10
 3.11272700000000E+0002
 20
 3.20242400000000E+0002
 40
 9.69690000000000E+0000
 50
 9.00000000000000E+0001
 51
 1.80000000000000E+0002
  0
LINE
  8
0
 10
 3.01575800000000E+0002
 20
 3.20242400000000E+0002
 11
 3.01575800000000E+0002
 21
 2.76606100000000E+0002
  0
ARC
  8
0
 10
 3.11272700000000E+0002
 20
 2.76606100000000E+0002
 40
 9.69690000000000E+0000
 50
 1.80000000000000E+0002
 51
 2.70000000000000E+0002
  0
LINE
  8
0
 10
 3.98545400000000E+0002
 20
 1.69939400000000E+0002
 11
 4.54303000000000E+0002
 21
 1.69939400000000E+0002
  0
LINE
  8
0
 10
 4.54303000000000E+0002
 20
 1.69939400000000E+0002
 11
 4.54303000000000E+0002
 21
 1.84484800000000E+0002
  0
LINE
  8
0
 10
 4.54303000000000E+0002
 20
 1.84484800000000E+0002
 11
 4.64000000000000E+0002
 21
 1.84484800000000E+0002
  0
LINE
  8
0
 10
 4.64000000000000E+0002
 20
 1.84484800000000E+0002
 11
 4.63999900000000E+0002
 21
 3.73575700000000E+0002
  0
ARC
  8
0
 10
 4.54303000000000E+0002
 20
 3.73575700000000E+0002
 40
 9.69690000000000E+0000
 50
 0.00000000000000E+0000
 51
 9.00000000000000E+0001
  0
LINE
  8
0
 10
 4.54303000000000E+0002
 20
 3.83272600000000E+0002
 11
 3.57333300000000E+0002
 21
 3.83272600000000E+0002
  0
ARC
  8
0
 10
 3.57333300000000E+0002
 20
 3.73575700000000E+0002
 40
 9.69690000000000E+0000
 50
 9.00000000000000E+0001
 51
 1.80000000000000E+0002
  0
LINE
  8
0
 10
 3.47636400000000E+0002
 20
 3.73575700000000E+0002
 11
 3.47636300000000E+0002
 21
 3.63878800000000E+0002
  0
LINE
  8
0
 10
 3.47636300000000E+0002
 20
 3.63878800000000E+0002
 11
 3.42787800000000E+0002
 21
 3.63878800000000E+0002
  0
ARC
  8
0
 10
 3.42787800000000E+0002
 20
 3.54181900000000E+0002
 40
 9.69690000000000E+0000
 50
 9.00000000000000E+0001
 51
 1.57380140000000E+0002
  0
LINE
  8
0
 10
 3.33836815062531E+0002
 20
 3.57911476150074E+0002
 11
 3.31272700000000E+0002
 21
 3.49333300000000E+0002
  0
LINE
  8
0
 10
 3.31272700000000E+0002
 20
 3.49333300000000E+0002
 11
 3.67030300000000E+0002
 21
 3.49333300000000E+0002
  0
LINE
  8
0
 10
 3.67030300000000E+0002
 20
 3.49333300000000E+0002
 11
 3.67030300000000E+0002
 21
 3.54181900000000E+0002
  0
ARC
  8
0
 10
 3.76727200000000E+0002
 20
 3.54181900000000E+0002
 40
 9.69690000000000E+0000
 50
 9.00000000000000E+0001
 51
 1.80000000000000E+0002
  0
LINE
  8
0
 10
 3.76727200000000E+0002
 20
 3.63878800000000E+0002
 11
 4.34909000000000E+0002
 21
 3.63878800000000E+0002
  0
ARC
  8
0
 10
 4.34909000000000E+0002
 20
 3.54181900000000E+0002
 40
 9.69690000000000E+0000
 50
 0.00000000000000E+0000
 51
 9.00000000000000E+0001
  0
LINE
  8
0
 10
 4.44605900000000E+0002
 20
 3.54181900000000E+0002
 11
 4.44605900000000E+0002
 21
 3.10545500000000E+0002
  0
ARC
  8
0
 10
 4.34909000000000E+0002
 20
 3.10545500000000E+0002
 40
 9.69690000000000E+0000
 50
 2.70000000000000E+0002
 51
 3.60000000000000E+0002
  0
LINE
  8
0
 10
 4.34909000000000E+0002
 20
 3.00848600000000E+0002
 11
 3.98545400000000E+0002
 21
 3.00848500000000E+0002
  0
LINE
  8
0
 10
 3.98545400000000E+0002
 20
 3.00848500000000E+0002
 11
 3.98545400000000E+0002
 21
 1.69939400000000E+0002
  0
LINE
  8
0
 10
 1.36000000000000E+0002
 20
 3.80000000000000E+0002
 11
 1.36000000000000E+0002
 21
 4.64000000000000E+0002
  0
LINE
  8
0
 10
 1.36000000000000E+0002
 20
 4.64000000000000E+0002
 11
 1.48750000000000E+0002
 21
 4.64000000000000E+0002
  0
LINE
  8
0
 10
 1.48750000000000E+0002
 20
 4.64000000000000E+0002
 11
 1.48750000000000E+0002
 21
 3.92000000000000E+0002
  0
LINE
  8
0
 10
 1.48750000000000E+0002
 20
 3.92000000000000E+0002
 11
 1.90000000000000E+0002
 21
 3.92000000000000E+0002
  0
LINE
  8
0
 10
 1.90000000000000E+0002
 20
 3.92000000000000E+0002
 11
 1.90000000000000E+0002
 21
 3.80000000000000E+0002
  0
LINE
  8
0
 10
 1.90000000000000E+0002
 20
 3.80000000000000E+0002
 11
 1.36000000000000E+0002
 21
 3.80000000000000E+0002
  0
LINE
  8
0
 10
 2.01999999999978E+0002
 20
 3.80000000000000E+0002
 11
 2.01999999999978E+0002
 21
 4.64000000000000E+0002
  0
LINE
  8
0
 10
 2.01999999999978E+0002
 20
 4.64000000000000E+0002
 11
 2.13999999999978E+0002
 21
 4.64000000000000E+0002
  0
LINE
  8
0
 10
 2.13999999999978E+0002
 20
 4.64000000000000E+0002
 11
 2.52249999999978E+0002
 21
 4.04000000000000E+0002
  0
LINE
  8
0
 10
 2.52249999999978E+0002
 20
 4.04000000000000E+0002
 11
 2.52249999999978E+0002
 21
 4.64000000000000E+0002
  0
LINE
  8
0
 10
 2.52249999999978E+0002
 20
 4.64000000000000E+0002
 11
 2.64999999999978E+0002
 21
 4.64000000000000E+0002
  0
LINE
  8
0
 10
 2.64999999999978E+0002
 20
 4.64000000000000E+0002
 11
 2.64999999999978E+0002
 21
 3.80000000000000E+0002
  0
LINE
  8
0
 10
 2.64999999999978E+0002
 20
 3.80000000000000E+0002
 11
 2.52999999999978E+0002
 21
 3.80000000000000E+0002
  0
LINE
  8
0
 10
 2.52999999999978E+0002
 20
 3.80000000000000E+0002
 11
 2.14749999999978E+0002
 21
 4.40000000000000E+0002
  0
LINE
  8
0
 10
 2.14749999999978E+0002
 20
 4.40000000000000E+0002
 11
 2.14749999999978E+0002
 21
 3.80000000000000E+0002
  0
LINE
  8
0
 10
 2.14749999999978E+0002
 20
 3.80000000000000E+0002
 11
 2.01999999999978E+0002
 21
 3.80000000000000E+0002
  0
LINE
  8
0
 10
 3.41499999999935E+0002
 20
 4.26500000000000E+0002
 11
 3.41499999999935E+0002
 21
 4.09250000000000E+0002
  0
ARC
  8
0
 10
 3.11499999999935E+0002
 20
 4.09250000000000E+0002
 40
 3.00000000000000E+0001
 50
 1.80000000000000E+0002
 51
 3.60000000000000E+0002
  0
LINE
  8
0
 10
 2.81499999999935E+0002
 20
 4.09250000000000E+0002
 11
 2.81499999999935E+0002
 21
 4.34750000000000E+0002
  0
ARC
  8
0
 10
 3.11499999999935E+0002
 20
 4.34750000000000E+0002
 40
 3.00000000000000E+0001
 50
 1.00787000000000E+0001
 51
 1.80000000000000E+0002
  0
LINE
  8
0
 10
 3.41037049162625E+0002
 20
 4.40000021596223E+0002
 11
 3.27931679645640E+0002
 21
 4.39999990859125E+0002
  0
ARC
  8
0
 10
 3.11499999999935E+0002
 20
 4.34750000000000E+0002
 40
 1.72500000000000E+0001
 50
 1.77189000000000E+0001
 51
 1.80000000000000E+0002
  0
LINE
  8
0
 10
 2.94249999999935E+0002
 20
 4.34750000000000E+0002
 11
 2.94249999999935E+0002
 21
 4.09250000000000E+0002
  0
ARC
  8
0
 10
 3.11499999999935E+0002
 20
 4.09250000000000E+0002
 40
 1.72500000000000E+0001
 50
 1.80000000000000E+0002
 51
 3.60000000000000E+0002
  0
LINE
  8
0
 10
 3.28749999999935E+0002
 20
 4.09250000000000E+0002
 11
 3.28749999999935E+0002
 21
 4.14500000000000E+0002
  0
LINE
  8
0
 10
 3.28749999999935E+0002
 20
 4.14500000000000E+0002
 11
 3.11499999999935E+0002
 21
 4.14500000000000E+0002
  0
LINE
  8
0
 10
 3.11499999999935E+0002
 20
 4.14500000000000E+0002
 11
 3.11499999999935E+0002
 21
 4.26500000000000E+0002
  0
LINE
  8
0
 10
 3.11499999999935E+0002
 20
 4.26500000000000E+0002
 11
 3.41499999999935E+0002
 21
 4.26500000000000E+0002
  0
ENDSEC
  0
EOF
