  0
SECTION
  2
HEADER
  9
$ACADVER
  1
AC1003
  9
$INSBASE
 10
0.0
 20
0.0
  9
$EXTMIN
 10
-1.23242000000000E+0002
 20
 1.17500000000000E+0002
  9
$EXTMAX
 10
 1.23242000000000E+0002
 20
 4.02115200000000E+0002
  9
$LIMMIN
 10
0.0
 20
0.0
  9
$LIMMAX
 10
410.0
 20
287.0
  9
$VIEWCTR
 10
227.0059616
 20
165.058879 
  9
$VIEWSIZE
 40
 2.84615200000000E+0002
9
$SNAPMODE
70
0
9
$SNAPUNIT
10
1
20
1
9
$GRIDMODE
70
0
9
$GRIDUNIT
10
1
20
1
9
$ORTHOMODE
70
0
9
$rEGENMODE
70
1
9
$FILLMODE
70
1
9
$DRAGMODE
70
2
9
$LTSCALE
40
25.0
9
$OSMODE
70
0
9
$ATTMODE
70
1
9
$TRACEWID
40
1.0
9
$TEXTSTYLE
7
STANDARD
9
$CLAYER
8
0
9
$CELTYPE
6
VONLAYER
9
$CECOLOR
62
256
9
$LUNITS
70
2
9
$LUPREC
70
2
9
$AXISMODE
70
0
9
$AXISUNIT
10
0
20
0
9
$SKETCHINC
40
1.0
9
$FILLETRAD
40
0.0
9
$AUNITS
70
0
9
$AUPREC
70
0
9
$MENU
1
ACAD
9
$ELEVATION
40
0.0
9
$THICKNESS
40
0.0
9
$VIEWDIR
10
0.0
20
0.0
30
1.0
9
$LIMCHECK
70
0
9
$BLIPMODE
70
1
9
$CHAMFERA
40
0.0
9
$CHAMFERB
40
0.0
9
$USRTIMER
70
1
9
$ANGBASE
50
0.0
9
$ANGDIR
70
0
9
$PDMODE
70
0
9
$PDSIZE
40
0.0
9
$PLINEWID
40
0.0
9
$COORDS
70
0
0
ENDSEC
0
SECTION
2
TABLES
0
TABLE
2
LTYPE
70
1
0
LTYPE
2
AUSGEZOGEN
70
64
3
Ausgezogene Linie
72
65
73
0
40
0.0
0
ENDTAB
0
TABLE
2
LAYER
70
1
0
LAYER
2
0
70
0
62
7
6
AUSGEZOGEN
0
ENDTAB
0
TABLE
2
STYLE
70
1
0
STYLE
2
STANDARD
70
0
40
0.0
41
1.0
50
0.0
71
0
42
3.5
3
txt
4

0
ENDTAB
0
TABLE
2
VIEW
70
0
0
ENDTAB
0
ENDSEC
0
SECTION
2
BLOCKS
0
ENDSEC
0
SECTION
2
ENTITIES
  0
LINE
  8
0
 10
 0.00000000000000E+0000
 20
 4.02115200000000E+0002
 11
 1.64201000000000E+0001
 21
 3.92635000000000E+0002
  0
LINE
  8
0
 10
 1.64201000000000E+0001
 20
 3.92635000000000E+0002
 11
 1.64201000000000E+0001
 21
 3.76018500000000E+0002
  0
LINE
  8
0
 10
 1.64201000000000E+0001
 20
 3.76018500000000E+0002
 11
 3.08105000000000E+0001
 21
 3.84326800000000E+0002
  0
LINE
  8
0
 10
 3.08105000000000E+0001
 20
 3.84326800000000E+0002
 11
 4.72306000000000E+0001
 21
 3.74846600000000E+0002
  0
LINE
  8
0
 10
 4.72306000000000E+0001
 20
 3.74846600000000E+0002
 11
 4.72306000000000E+0001
 21
 3.55886300000000E+0002
  0
LINE
  8
0
 10
 4.72306000000000E+0001
 20
 3.55886300000000E+0002
 11
 1.64201000000000E+0001
 21
 3.38097800000000E+0002
  0
LINE
  8
0
 10
 1.64201000000000E+0001
 20
 3.38097800000000E+0002
 11
 1.64201000000000E+0001
 21
 2.88248100000000E+0002
  0
LINE
  8
0
 10
 1.64201000000000E+0001
 20
 2.88248100000000E+0002
 11
 5.95913000000000E+0001
 21
 3.13173000000000E+0002
  0
LINE
  8
0
 10
 5.95913000000000E+0001
 20
 3.13173000000000E+0002
 11
 5.95913000000000E+0001
 21
 3.48749900000000E+0002
  0
LINE
  8
0
 10
 5.95913000000000E+0001
 20
 3.48749900000000E+0002
 11
 7.60114000000000E+0001
 21
 3.58230100000000E+0002
  0
LINE
  8
0
 10
 7.60114000000000E+0001
 20
 3.58230100000000E+0002
 11
 9.24315000000000E+0001
 21
 3.48749900000000E+0002
  0
LINE
  8
0
 10
 9.24315000000000E+0001
 20
 3.48749900000000E+0002
 11
 9.24315000000000E+0001
 21
 3.32133300000000E+0002
  0
LINE
  8
0
 10
 9.24315000000000E+0001
 20
 3.32133300000000E+0002
 11
 1.06821900000000E+0002
 21
 3.40441600000000E+0002
  0
LINE
  8
0
 10
 1.06821900000000E+0002
 20
 3.40441600000000E+0002
 11
 1.23242000000000E+0002
 21
 3.30961400000000E+0002
  0
LINE
  8
0
 10
 1.23242000000000E+0002
 20
 3.30961400000000E+0002
 11
 1.23242000000000E+0002
 21
 3.12001100000000E+0002
  0
LINE
  8
0
 10
 1.23242000000000E+0002
 20
 3.12001100000000E+0002
 11
 1.08851600000000E+0002
 21
 3.03692800000000E+0002
  0
LINE
  8
0
 10
 1.08851600000000E+0002
 20
 3.03692800000000E+0002
 11
 1.23242000000000E+0002
 21
 2.95384500000000E+0002
  0
LINE
  8
0
 10
 1.23242000000000E+0002
 20
 2.95384500000000E+0002
 11
 1.23242000000000E+0002
 21
 2.76424200000000E+0002
  0
LINE
  8
0
 10
 1.23242000000000E+0002
 20
 2.76424200000000E+0002
 11
 1.06821900000000E+0002
 21
 2.66944000000000E+0002
  0
LINE
  8
0
 10
 1.06821900000000E+0002
 20
 2.66944000000000E+0002
 11
 7.60114000000000E+0001
 21
 2.84732500000000E+0002
  0
LINE
  8
0
 10
 7.60114000000000E+0001
 20
 2.84732500000000E+0002
 11
 3.28402000000000E+0001
 21
 2.59807600000000E+0002
  0
LINE
  8
0
 10
 3.28402000000000E+0001
 20
 2.59807600000000E+0002
 11
 7.60114000000000E+0001
 21
 2.34882800000000E+0002
  0
LINE
  8
0
 10
 7.60114000000000E+0001
 20
 2.34882800000000E+0002
 11
 1.06821900000000E+0002
 21
 2.52671200000000E+0002
  0
LINE
  8
0
 10
 1.06821900000000E+0002
 20
 2.52671200000000E+0002
 11
 1.23242000000000E+0002
 21
 2.43191000000000E+0002
  0
LINE
  8
0
 10
 1.23242000000000E+0002
 20
 2.43191000000000E+0002
 11
 1.23242000000000E+0002
 21
 2.24230700000000E+0002
  0
LINE
  8
0
 10
 1.23242000000000E+0002
 20
 2.24230700000000E+0002
 11
 1.08851600000000E+0002
 21
 2.15922500000000E+0002
  0
LINE
  8
0
 10
 1.08851600000000E+0002
 20
 2.15922500000000E+0002
 11
 1.23242000000000E+0002
 21
 2.07614100000000E+0002
  0
LINE
  8
0
 10
 1.23242000000000E+0002
 20
 2.07614100000000E+0002
 11
 1.23242000000000E+0002
 21
 1.88653800000000E+0002
  0
LINE
  8
0
 10
 1.23242000000000E+0002
 20
 1.88653800000000E+0002
 11
 1.06821900000000E+0002
 21
 1.79173600000000E+0002
  0
LINE
  8
0
 10
 1.06821900000000E+0002
 20
 1.79173600000000E+0002
 11
 9.24315000000000E+0001
 21
 1.87482000000000E+0002
  0
LINE
  8
0
 10
 9.24315000000000E+0001
 20
 1.87482000000000E+0002
 11
 9.24315000000000E+0001
 21
 1.70865400000000E+0002
  0
LINE
  8
0
 10
 9.24315000000000E+0001
 20
 1.70865400000000E+0002
 11
 7.60114000000000E+0001
 21
 1.61385200000000E+0002
  0
LINE
  8
0
 10
 7.60114000000000E+0001
 20
 1.61385200000000E+0002
 11
 5.95913000000000E+0001
 21
 1.70865400000000E+0002
  0
LINE
  8
0
 10
 5.95913000000000E+0001
 20
 1.70865400000000E+0002
 11
 5.95913000000000E+0001
 21
 2.06442300000000E+0002
  0
LINE
  8
0
 10
 5.95913000000000E+0001
 20
 2.06442300000000E+0002
 11
 1.64201000000000E+0001
 21
 2.31367100000000E+0002
  0
LINE
  8
0
 10
 1.64201000000000E+0001
 20
 2.31367100000000E+0002
 11
 1.64201000000000E+0001
 21
 1.81517400000000E+0002
  0
LINE
  8
0
 10
 1.64201000000000E+0001
 20
 1.81517400000000E+0002
 11
 4.72306000000000E+0001
 21
 1.63729000000000E+0002
  0
LINE
  8
0
 10
 4.72306000000000E+0001
 20
 1.63729000000000E+0002
 11
 4.72306000000000E+0001
 21
 1.44768700000000E+0002
  0
LINE
  8
0
 10
 4.72306000000000E+0001
 20
 1.44768700000000E+0002
 11
 3.08105000000000E+0001
 21
 1.35288500000000E+0002
  0
LINE
  8
0
 10
 3.08105000000000E+0001
 20
 1.35288500000000E+0002
 11
 1.64201000000000E+0001
 21
 1.43596700000000E+0002
  0
LINE
  8
0
 10
 1.64201000000000E+0001
 20
 1.43596700000000E+0002
 11
 1.64201000000000E+0001
 21
 1.26980200000000E+0002
  0
LINE
  8
0
 10
 1.64201000000000E+0001
 20
 1.26980200000000E+0002
 11
 0.00000000000000E+0000
 21
 1.17500000000000E+0002
  0
LINE
  8
0
 10
 0.00000000000000E+0000
 20
 1.17500000000000E+0002
 11
-1.64201000000000E+0001
 21
 1.26980200000000E+0002
  0
LINE
  8
0
 10
-1.64201000000000E+0001
 20
 1.26980200000000E+0002
 11
-1.64201000000000E+0001
 21
 1.43596700000000E+0002
  0
LINE
  8
0
 10
-1.64201000000000E+0001
 20
 1.43596700000000E+0002
 11
-3.08105000000000E+0001
 21
 1.35288500000000E+0002
  0
LINE
  8
0
 10
-3.08105000000000E+0001
 20
 1.35288500000000E+0002
 11
-4.72306000000000E+0001
 21
 1.44768700000000E+0002
  0
LINE
  8
0
 10
-4.72306000000000E+0001
 20
 1.44768700000000E+0002
 11
-4.72306000000000E+0001
 21
 1.63729000000000E+0002
  0
LINE
  8
0
 10
-4.72306000000000E+0001
 20
 1.63729000000000E+0002
 11
-1.64201000000000E+0001
 21
 1.81517400000000E+0002
  0
LINE
  8
0
 10
-1.64201000000000E+0001
 20
 1.81517400000000E+0002
 11
-1.64201000000000E+0001
 21
 2.31367100000000E+0002
  0
LINE
  8
0
 10
-1.64201000000000E+0001
 20
 2.31367100000000E+0002
 11
-5.95913000000000E+0001
 21
 2.06442300000000E+0002
  0
LINE
  8
0
 10
-5.95913000000000E+0001
 20
 2.06442300000000E+0002
 11
-5.95913000000000E+0001
 21
 1.70865400000000E+0002
  0
LINE
  8
0
 10
-5.95913000000000E+0001
 20
 1.70865400000000E+0002
 11
-7.60114000000000E+0001
 21
 1.61385200000000E+0002
  0
LINE
  8
0
 10
-7.60114000000000E+0001
 20
 1.61385200000000E+0002
 11
-9.24315000000000E+0001
 21
 1.70865400000000E+0002
  0
LINE
  8
0
 10
-9.24315000000000E+0001
 20
 1.70865400000000E+0002
 11
-9.24315000000000E+0001
 21
 1.87482000000000E+0002
  0
LINE
  8
0
 10
-9.24315000000000E+0001
 20
 1.87482000000000E+0002
 11
-1.06821900000000E+0002
 21
 1.79173600000000E+0002
  0
LINE
  8
0
 10
-1.06821900000000E+0002
 20
 1.79173600000000E+0002
 11
-1.23242000000000E+0002
 21
 1.88653800000000E+0002
  0
LINE
  8
0
 10
-1.23242000000000E+0002
 20
 1.88653800000000E+0002
 11
-1.23242000000000E+0002
 21
 2.07614100000000E+0002
  0
LINE
  8
0
 10
-1.23242000000000E+0002
 20
 2.07614100000000E+0002
 11
-1.08851600000000E+0002
 21
 2.15922500000000E+0002
  0
LINE
  8
0
 10
-1.08851600000000E+0002
 20
 2.15922500000000E+0002
 11
-1.23242000000000E+0002
 21
 2.24230700000000E+0002
  0
LINE
  8
0
 10
-1.23242000000000E+0002
 20
 2.24230700000000E+0002
 11
-1.23242000000000E+0002
 21
 2.43191000000000E+0002
  0
LINE
  8
0
 10
-1.23242000000000E+0002
 20
 2.43191000000000E+0002
 11
-1.06821900000000E+0002
 21
 2.52671200000000E+0002
  0
LINE
  8
0
 10
-1.06821900000000E+0002
 20
 2.52671200000000E+0002
 11
-7.60114000000000E+0001
 21
 2.34882800000000E+0002
  0
LINE
  8
0
 10
-7.60114000000000E+0001
 20
 2.34882800000000E+0002
 11
-3.28402000000000E+0001
 21
 2.59807600000000E+0002
  0
LINE
  8
0
 10
-3.28402000000000E+0001
 20
 2.59807600000000E+0002
 11
-7.60114000000000E+0001
 21
 2.84732500000000E+0002
  0
LINE
  8
0
 10
-7.60114000000000E+0001
 20
 2.84732500000000E+0002
 11
-1.06821900000000E+0002
 21
 2.66944000000000E+0002
  0
LINE
  8
0
 10
-1.06821900000000E+0002
 20
 2.66944000000000E+0002
 11
-1.23242000000000E+0002
 21
 2.76424200000000E+0002
  0
LINE
  8
0
 10
-1.23242000000000E+0002
 20
 2.76424200000000E+0002
 11
-1.23242000000000E+0002
 21
 2.95384500000000E+0002
  0
LINE
  8
0
 10
-1.23242000000000E+0002
 20
 2.95384500000000E+0002
 11
-1.08851600000000E+0002
 21
 3.03692800000000E+0002
  0
LINE
  8
0
 10
-1.08851600000000E+0002
 20
 3.03692800000000E+0002
 11
-1.23242000000000E+0002
 21
 3.12001100000000E+0002
  0
LINE
  8
0
 10
-1.23242000000000E+0002
 20
 3.12001100000000E+0002
 11
-1.23242000000000E+0002
 21
 3.30961400000000E+0002
  0
LINE
  8
0
 10
-1.23242000000000E+0002
 20
 3.30961400000000E+0002
 11
-1.06821900000000E+0002
 21
 3.40441600000000E+0002
  0
LINE
  8
0
 10
-1.06821900000000E+0002
 20
 3.40441600000000E+0002
 11
-9.24315000000000E+0001
 21
 3.32133300000000E+0002
  0
LINE
  8
0
 10
-9.24315000000000E+0001
 20
 3.32133300000000E+0002
 11
-9.24315000000000E+0001
 21
 3.48749900000000E+0002
  0
LINE
  8
0
 10
-9.24315000000000E+0001
 20
 3.48749900000000E+0002
 11
-7.60114000000000E+0001
 21
 3.58230100000000E+0002
  0
LINE
  8
0
 10
-7.60114000000000E+0001
 20
 3.58230100000000E+0002
 11
-5.95913000000000E+0001
 21
 3.48749900000000E+0002
  0
LINE
  8
0
 10
-5.95913000000000E+0001
 20
 3.48749900000000E+0002
 11
-5.95913000000000E+0001
 21
 3.13173000000000E+0002
  0
LINE
  8
0
 10
-5.95913000000000E+0001
 20
 3.13173000000000E+0002
 11
-1.64201000000000E+0001
 21
 2.88248100000000E+0002
  0
LINE
  8
0
 10
-1.64201000000000E+0001
 20
 2.88248100000000E+0002
 11
-1.64201000000000E+0001
 21
 3.38097800000000E+0002
  0
LINE
  8
0
 10
-1.64201000000000E+0001
 20
 3.38097800000000E+0002
 11
-4.72306000000000E+0001
 21
 3.55886300000000E+0002
  0
LINE
  8
0
 10
-4.72306000000000E+0001
 20
 3.55886300000000E+0002
 11
-4.72306000000000E+0001
 21
 3.74846600000000E+0002
  0
LINE
  8
0
 10
-4.72306000000000E+0001
 20
 3.74846600000000E+0002
 11
-3.08105000000000E+0001
 21
 3.84326800000000E+0002
  0
LINE
  8
0
 10
-3.08105000000000E+0001
 20
 3.84326800000000E+0002
 11
-1.64201000000000E+0001
 21
 3.76018500000000E+0002
  0
LINE
  8
0
 10
-1.64201000000000E+0001
 20
 3.76018500000000E+0002
 11
-1.64201000000000E+0001
 21
 3.92635000000000E+0002
  0
LINE
  8
0
 10
-1.64201000000000E+0001
 20
 3.92635000000000E+0002
 11
 0.00000000000000E+0000
 21
 4.02115200000000E+0002
  0
ENDSEC
  0
EOF
