  0
SECTION
  2
HEADER
  9
$ACADVER
  1
AC1003
  9
$INSBASE
 10
0.0
 20
0.0
  9
$EXTMIN
 10
 0.00000000000000E+0000
 20
 0.00000000000000E+0000
  9
$EXTMAX
 10
 9.00000000000000E+0002
 20
 6.00000000000000E+0002
  9
$LIMMIN
 10
0.0
 20
0.0
  9
$LIMMAX
 10
410.0
 20
287.0
  9
$VIEWCTR
 10
227.0059616
 20
165.058879 
  9
$VIEWSIZE
 40
 9.00000000000000E+0002
9
$SNAPMODE
70
0
9
$SNAPUNIT
10
1
20
1
9
$GRIDMODE
70
0
9
$GRIDUNIT
10
1
20
1
9
$ORTHOMODE
70
0
9
$rEGENMODE
70
1
9
$FILLMODE
70
1
9
$DRAGMODE
70
2
9
$LTSCALE
40
25.0
9
$OSMODE
70
0
9
$ATTMODE
70
1
9
$TRACEWID
40
1.0
9
$TEXTSTYLE
7
STANDARD
9
$CLAYER
8
0
9
$CELTYPE
6
VONLAYER
9
$CECOLOR
62
256
9
$LUNITS
70
2
9
$LUPREC
70
2
9
$AXISMODE
70
0
9
$AXISUNIT
10
0
20
0
9
$SKETCHINC
40
1.0
9
$FILLETRAD
40
0.0
9
$AUNITS
70
0
9
$AUPREC
70
0
9
$MENU
1
ACAD
9
$ELEVATION
40
0.0
9
$THICKNESS
40
0.0
9
$VIEWDIR
10
0.0
20
0.0
30
1.0
9
$LIMCHECK
70
0
9
$BLIPMODE
70
1
9
$CHAMFERA
40
0.0
9
$CHAMFERB
40
0.0
9
$USRTIMER
70
1
9
$ANGBASE
50
0.0
9
$ANGDIR
70
0
9
$PDMODE
70
0
9
$PDSIZE
40
0.0
9
$PLINEWID
40
0.0
9
$COORDS
70
0
0
ENDSEC
0
SECTION
2
TABLES
0
TABLE
2
LTYPE
70
1
0
LTYPE
2
AUSGEZOGEN
70
64
3
Ausgezogene Linie
72
65
73
0
40
0.0
0
ENDTAB
0
TABLE
2
LAYER
70
1
0
LAYER
2
0
70
0
62
7
6
AUSGEZOGEN
0
ENDTAB
0
TABLE
2
STYLE
70
1
0
STYLE
2
STANDARD
70
0
40
0.0
41
1.0
50
0.0
71
0
42
3.5
3
txt
4

0
ENDTAB
0
TABLE
2
VIEW
70
0
0
ENDTAB
0
ENDSEC
0
SECTION
2
BLOCKS
0
ENDSEC
0
SECTION
2
ENTITIES
  0
LINE
  8
0
 10
 4.00000000000000E+0001
 20
 6.00000000000000E+0002
 11
 8.60000000000000E+0002
 21
 6.00000000000000E+0002
  0
ARC
  8
0
 10
 8.60000000000000E+0002
 20
 5.60000000000000E+0002
 40
 4.00000000000000E+0001
 50
 0.00000000000000E+0000
 51
 9.00000000000000E+0001
  0
LINE
  8
0
 10
 9.00000000000000E+0002
 20
 5.60000000000000E+0002
 11
 9.00000000000000E+0002
 21
 4.00000000000000E+0001
  0
ARC
  8
0
 10
 8.60000000000000E+0002
 20
 4.00000000000000E+0001
 40
 4.00000000000000E+0001
 50
 2.70000000000000E+0002
 51
 3.60000000000000E+0002
  0
LINE
  8
0
 10
 8.60000000000000E+0002
 20
 0.00000000000000E+0000
 11
 4.00000000000000E+0001
 21
 0.00000000000000E+0000
  0
ARC
  8
0
 10
 4.00000000000000E+0001
 20
 4.00000000000000E+0001
 40
 4.00000000000000E+0001
 50
 1.80000000000000E+0002
 51
 2.70000000000000E+0002
  0
LINE
  8
0
 10
 0.00000000000000E+0000
 20
 4.00000000000000E+0001
 11
 0.00000000000000E+0000
 21
 5.60000000000000E+0002
  0
ARC
  8
0
 10
 4.00000000000000E+0001
 20
 5.60000000000000E+0002
 40
 4.00000000000000E+0001
 50
 9.00000000000000E+0001
 51
 1.80000000000000E+0002
  0
LINE
  8
0
 10
 4.00001000000000E+0001
 20
 5.85000000000000E+0002
 11
 8.60000000000000E+0002
 21
 5.85000000000000E+0002
  0
ARC
  8
0
 10
 8.60000000000000E+0002
 20
 5.60000000000000E+0002
 40
 2.50000000000000E+0001
 50
 0.00000000000000E+0000
 51
 9.00000000000000E+0001
  0
LINE
  8
0
 10
 8.85000000000000E+0002
 20
 5.60000000000000E+0002
 11
 8.85000000000000E+0002
 21
 4.00000000000000E+0001
  0
ARC
  8
0
 10
 8.60000000000000E+0002
 20
 4.00000000000000E+0001
 40
 2.50000000000000E+0001
 50
 2.70000000000000E+0002
 51
 3.60000000000000E+0002
  0
LINE
  8
0
 10
 8.60000000000000E+0002
 20
 1.50000000000000E+0001
 11
 4.00000000000000E+0001
 21
 1.50000000000000E+0001
  0
ARC
  8
0
 10
 4.00000000000000E+0001
 20
 4.00000000000000E+0001
 40
 2.50000000000000E+0001
 50
 1.80000000000000E+0002
 51
 2.70000000000000E+0002
  0
LINE
  8
0
 10
 1.50000000000000E+0001
 20
 4.00000000000000E+0001
 11
 1.50000000000000E+0001
 21
 5.60000000000000E+0002
  0
ARC
  8
0
 10
 4.00000000000000E+0001
 20
 5.60000000000000E+0002
 40
 2.50000000000000E+0001
 50
 9.00000000000000E+0001
 51
 1.80000000000000E+0002
  0
LINE
  8
0
 10
 1.00000000000000E+0002
 20
 5.00000000000000E+0002
 11
 8.00000000000000E+0002
 21
 5.00000000000000E+0002
  0
LINE
  8
0
 10
 8.00000000000000E+0002
 20
 5.00000000000000E+0002
 11
 8.00000000000000E+0002
 21
 1.00000000000000E+0002
  0
LINE
  8
0
 10
 8.00000000000000E+0002
 20
 1.00000000000000E+0002
 11
 1.00000000000000E+0002
 21
 1.00000000000000E+0002
  0
LINE
  8
0
 10
 1.00000000000000E+0002
 20
 1.00000000000000E+0002
 11
 1.00000000000000E+0002
 21
 5.00000000000000E+0002
  0
LINE
  8
0
 10
 1.25000000000000E+0002
 20
 3.90249700000000E+0002
 11
 1.25000000000000E+0002
 21
 4.74250000000000E+0002
  0
LINE
  8
0
 10
 1.25000000000000E+0002
 20
 4.74250000000000E+0002
 11
 1.37750045535714E+0002
 21
 4.74250000000000E+0002
  0
LINE
  8
0
 10
 1.37750045535714E+0002
 20
 4.74250000000000E+0002
 11
 1.37750045535714E+0002
 21
 4.02249742857143E+0002
  0
LINE
  8
0
 10
 1.37750045535714E+0002
 20
 4.02249742857143E+0002
 11
 1.79000192857143E+0002
 21
 4.02249742857143E+0002
  0
LINE
  8
0
 10
 1.79000192857143E+0002
 20
 4.02249742857143E+0002
 11
 1.79000192857143E+0002
 21
 3.90249700000000E+0002
  0
LINE
  8
0
 10
 1.79000192857143E+0002
 20
 3.90249700000000E+0002
 11
 1.25000000000000E+0002
 21
 3.90249700000000E+0002
  0
LINE
  8
0
 10
 1.91000235714264E+0002
 20
 3.90249700000000E+0002
 11
 1.91000235714264E+0002
 21
 4.74250000000000E+0002
  0
LINE
  8
0
 10
 1.91000235714264E+0002
 20
 4.74250000000000E+0002
 11
 2.24000353571407E+0002
 21
 4.74250000000000E+0002
  0
ARC
  8
0
 10
 2.24000353571407E+0002
 20
 4.48749908928571E+0002
 40
 2.55000910714286E+0001
 50
 2.70000000000000E+0002
 51
 4.50000000000000E+0002
  0
LINE
  8
0
 10
 2.24000353571407E+0002
 20
 4.23249817857143E+0002
 11
 2.03750281249978E+0002
 21
 4.23249817857143E+0002
  0
LINE
  8
0
 10
 2.03750281249978E+0002
 20
 4.23249817857143E+0002
 11
 2.03750281249978E+0002
 21
 3.90249700000000E+0002
  0
LINE
  8
0
 10
 2.03750281249978E+0002
 20
 3.90249700000000E+0002
 11
 1.91000235714264E+0002
 21
 3.90249700000000E+0002
  0
LINE
  8
0
 10
 2.03750281249978E+0002
 20
 4.35249860714286E+0002
 11
 2.23250350892835E+0002
 21
 4.35249860714286E+0002
  0
ARC
  8
0
 10
 2.23250350892835E+0002
 20
 4.48749908928571E+0002
 40
 1.35000482142857E+0001
 50
 2.70000000000000E+0002
 51
 4.50000000000000E+0002
  0
LINE
  8
0
 10
 2.23250350892835E+0002
 20
 4.62249957142857E+0002
 11
 2.03750281249978E+0002
 21
 4.62249957142857E+0002
  0
LINE
  8
0
 10
 2.03750281249978E+0002
 20
 4.62249957142857E+0002
 11
 2.03750281249978E+0002
 21
 4.35249860714286E+0002
  0
LINE
  8
0
 10
 3.21500701785714E+0002
 20
 4.36749866071429E+0002
 11
 3.21500701785714E+0002
 21
 4.19499804464286E+0002
  0
ARC
  8
0
 10
 2.91500594642857E+0002
 20
 4.19499804464286E+0002
 40
 3.00001071428571E+0001
 50
 1.80000000000000E+0002
 51
 3.60000000000000E+0002
  0
LINE
  8
0
 10
 2.61500487500000E+0002
 20
 4.19499804464286E+0002
 11
 2.61500487500000E+0002
 21
 4.44999895535714E+0002
  0
ARC
  8
0
 10
 2.91500594642857E+0002
 20
 4.44999895535714E+0002
 40
 3.00001071428571E+0001
 50
 1.00787000000000E+0001
 51
 1.80000000000000E+0002
  0
LINE
  8
0
 10
 3.21037749295009E+0002
 20
 4.50249935882014E+0002
 11
 3.07932332973133E+0002
 21
 4.50249905144806E+0002
  0
ARC
  8
0
 10
 2.91500594642857E+0002
 20
 4.44999895535714E+0002
 40
 1.72500616071429E+0001
 50
 1.77189000000000E+0001
 51
 1.80000000000000E+0002
  0
LINE
  8
0
 10
 2.74250533035714E+0002
 20
 4.44999895535714E+0002
 11
 2.74250533035714E+0002
 21
 4.19499804464286E+0002
  0
ARC
  8
0
 10
 2.91500594642857E+0002
 20
 4.19499804464286E+0002
 40
 1.72500616071429E+0001
 50
 1.80000000000000E+0002
 51
 3.60000000000000E+0002
  0
LINE
  8
0
 10
 3.08750656250000E+0002
 20
 4.19499804464286E+0002
 11
 3.08750656250000E+0002
 21
 4.24749823214286E+0002
  0
LINE
  8
0
 10
 3.08750656250000E+0002
 20
 4.24749823214286E+0002
 11
 2.91500594642857E+0002
 21
 4.24749823214286E+0002
  0
LINE
  8
0
 10
 2.91500594642857E+0002
 20
 4.24749823214286E+0002
 11
 2.91500594642857E+0002
 21
 4.36749866071429E+0002
  0
LINE
  8
0
 10
 2.91500594642857E+0002
 20
 4.36749866071429E+0002
 11
 3.21500701785714E+0002
 21
 4.36749866071429E+0002
  0
LINE
  8
0
 10
 3.79037600000000E+0002
 20
 3.90999700000000E+0002
 11
 3.79037600000000E+0002
 21
 4.75000000000000E+0002
  0
LINE
  8
0
 10
 3.79037600000000E+0002
 20
 4.75000000000000E+0002
 11
 3.91787645535714E+0002
 21
 4.75000000000000E+0002
  0
LINE
  8
0
 10
 3.91787645535714E+0002
 20
 4.75000000000000E+0002
 11
 3.91787645535714E+0002
 21
 4.38999871428571E+0002
  0
LINE
  8
0
 10
 3.91787645535714E+0002
 20
 4.38999871428571E+0002
 11
 4.26287768750000E+0002
 21
 4.38999871428571E+0002
  0
LINE
  8
0
 10
 4.26287768750000E+0002
 20
 4.38999871428571E+0002
 11
 4.26287768750000E+0002
 21
 4.75000000000000E+0002
  0
LINE
  8
0
 10
 4.26287768750000E+0002
 20
 4.75000000000000E+0002
 11
 4.39037814285714E+0002
 21
 4.75000000000000E+0002
  0
LINE
  8
0
 10
 4.39037814285714E+0002
 20
 4.75000000000000E+0002
 11
 4.39037814285714E+0002
 21
 3.90999700000000E+0002
  0
LINE
  8
0
 10
 4.39037814285714E+0002
 20
 3.90999700000000E+0002
 11
 4.26287768750000E+0002
 21
 3.90999700000000E+0002
  0
LINE
  8
0
 10
 4.26287768750000E+0002
 20
 3.90999700000000E+0002
 11
 4.26287768750000E+0002
 21
 4.27749831250000E+0002
  0
LINE
  8
0
 10
 4.26287768750000E+0002
 20
 4.27749831250000E+0002
 11
 3.91787645535714E+0002
 21
 4.27749831250000E+0002
  0
LINE
  8
0
 10
 3.91787645535714E+0002
 20
 4.27749831250000E+0002
 11
 3.91787645535714E+0002
 21
 3.90999700000000E+0002
  0
LINE
  8
0
 10
 3.91787645535714E+0002
 20
 3.90999700000000E+0002
 11
 3.79037600000000E+0002
 21
 3.90999700000000E+0002
  0
LINE
  8
0
 10
 4.55886400000000E+0002
 20
 3.54470400000000E+0002
 11
 4.55886400000000E+0002
 21
 3.65720440178571E+0002
  0
LINE
  8
0
 10
 4.55886400000000E+0002
 20
 3.65720440178571E+0002
 11
 4.89282248390376E+0002
 21
 4.07755988888630E+0002
  0
ARC
  8
0
 10
 4.79886485714286E+0002
 20
 4.15220616964286E+0002
 40
 1.20000428571428E+0001
 50
 3.21534000000000E+0002
 51
 5.40000000000000E+0002
  0
LINE
  8
0
 10
 4.67886442857143E+0002
 20
 4.15220616964286E+0002
 11
 4.55886400000000E+0002
 21
 4.15220616964286E+0002
  0
ARC
  8
0
 10
 4.79886485714286E+0002
 20
 4.15220616964286E+0002
 40
 2.40000857142857E+0001
 50
 3.21355700000000E+0002
 51
 5.40000000000000E+0002
  0
LINE
  8
0
 10
 4.98631461470903E+0002
 20
 4.00232955432983E+0002
 11
 4.71636456250000E+0002
 21
 3.66470442857143E+0002
  0
LINE
  8
0
 10
 4.71636456250000E+0002
 20
 3.66470442857143E+0002
 11
 5.03886571428571E+0002
 21
 3.66470442857143E+0002
  0
LINE
  8
0
 10
 5.03886571428571E+0002
 20
 3.66470442857143E+0002
 11
 5.03886571428571E+0002
 21
 3.54470400000000E+0002
  0
LINE
  8
0
 10
 5.03886571428571E+0002
 20
 3.54470400000000E+0002
 11
 4.55886400000000E+0002
 21
 3.54470400000000E+0002
  0
LINE
  8
0
 10
 1.25000000000000E+0002
 20
 2.58000000000000E+0002
 11
 1.25000000000000E+0002
 21
 3.42000000000000E+0002
  0
LINE
  8
0
 10
 1.25000000000000E+0002
 20
 3.42000000000000E+0002
 11
 1.37750000000000E+0002
 21
 3.42000000000000E+0002
  0
LINE
  8
0
 10
 1.37750000000000E+0002
 20
 3.42000000000000E+0002
 11
 1.37750000000000E+0002
 21
 2.70000000000000E+0002
  0
LINE
  8
0
 10
 1.37750000000000E+0002
 20
 2.70000000000000E+0002
 11
 1.79000000000000E+0002
 21
 2.70000000000000E+0002
  0
LINE
  8
0
 10
 1.79000000000000E+0002
 20
 2.70000000000000E+0002
 11
 1.79000000000000E+0002
 21
 2.58000000000000E+0002
  0
LINE
  8
0
 10
 1.79000000000000E+0002
 20
 2.58000000000000E+0002
 11
 1.25000000000000E+0002
 21
 2.58000000000000E+0002
  0
LINE
  8
0
 10
 1.90999999999978E+0002
 20
 2.58000000000000E+0002
 11
 1.90999999999978E+0002
 21
 3.42000000000000E+0002
  0
LINE
  8
0
 10
 1.90999999999978E+0002
 20
 3.42000000000000E+0002
 11
 2.02999999999978E+0002
 21
 3.42000000000000E+0002
  0
LINE
  8
0
 10
 2.02999999999978E+0002
 20
 3.42000000000000E+0002
 11
 2.41249999999978E+0002
 21
 2.82000000000000E+0002
  0
LINE
  8
0
 10
 2.41249999999978E+0002
 20
 2.82000000000000E+0002
 11
 2.41249999999978E+0002
 21
 3.42000000000000E+0002
  0
LINE
  8
0
 10
 2.41249999999978E+0002
 20
 3.42000000000000E+0002
 11
 2.53999999999978E+0002
 21
 3.42000000000000E+0002
  0
LINE
  8
0
 10
 2.53999999999978E+0002
 20
 3.42000000000000E+0002
 11
 2.53999999999978E+0002
 21
 2.58000000000000E+0002
  0
LINE
  8
0
 10
 2.53999999999978E+0002
 20
 2.58000000000000E+0002
 11
 2.41999999999978E+0002
 21
 2.58000000000000E+0002
  0
LINE
  8
0
 10
 2.41999999999978E+0002
 20
 2.58000000000000E+0002
 11
 2.03749999999978E+0002
 21
 3.18000000000000E+0002
  0
LINE
  8
0
 10
 2.03749999999978E+0002
 20
 3.18000000000000E+0002
 11
 2.03749999999978E+0002
 21
 2.58000000000000E+0002
  0
LINE
  8
0
 10
 2.03749999999978E+0002
 20
 2.58000000000000E+0002
 11
 1.90999999999978E+0002
 21
 2.58000000000000E+0002
  0
LINE
  8
0
 10
 3.30499999999935E+0002
 20
 3.04500000000000E+0002
 11
 3.30499999999935E+0002
 21
 2.87250000000000E+0002
  0
ARC
  8
0
 10
 3.00499999999935E+0002
 20
 2.87250000000000E+0002
 40
 3.00000000000000E+0001
 50
 1.80000000000000E+0002
 51
 3.60000000000000E+0002
  0
LINE
  8
0
 10
 2.70499999999935E+0002
 20
 2.87250000000000E+0002
 11
 2.70499999999935E+0002
 21
 3.12750000000000E+0002
  0
ARC
  8
0
 10
 3.00499999999935E+0002
 20
 3.12750000000000E+0002
 40
 3.00000000000000E+0001
 50
 1.00787000000000E+0001
 51
 1.80000000000000E+0002
  0
LINE
  8
0
 10
 3.30037049162625E+0002
 20
 3.18000021596223E+0002
 11
 3.16931679645640E+0002
 21
 3.17999990859125E+0002
  0
ARC
  8
0
 10
 3.00499999999935E+0002
 20
 3.12750000000000E+0002
 40
 1.72500000000000E+0001
 50
 1.77189000000000E+0001
 51
 1.80000000000000E+0002
  0
LINE
  8
0
 10
 2.83249999999935E+0002
 20
 3.12750000000000E+0002
 11
 2.83249999999935E+0002
 21
 2.87250000000000E+0002
  0
ARC
  8
0
 10
 3.00499999999935E+0002
 20
 2.87250000000000E+0002
 40
 1.72500000000000E+0001
 50
 1.80000000000000E+0002
 51
 3.60000000000000E+0002
  0
LINE
  8
0
 10
 3.17749999999935E+0002
 20
 2.87250000000000E+0002
 11
 3.17749999999935E+0002
 21
 2.92500000000000E+0002
  0
LINE
  8
0
 10
 3.17749999999935E+0002
 20
 2.92500000000000E+0002
 11
 3.00499999999935E+0002
 21
 2.92500000000000E+0002
  0
LINE
  8
0
 10
 3.00499999999935E+0002
 20
 2.92500000000000E+0002
 11
 3.00499999999935E+0002
 21
 3.04500000000000E+0002
  0
LINE
  8
0
 10
 3.00499999999935E+0002
 20
 3.04500000000000E+0002
 11
 3.30499999999935E+0002
 21
 3.04500000000000E+0002
  0
ARC
  8
0
 10
 1.55000071428571E+0002
 20
 1.55000069642857E+0002
 40
 3.00000714285714E+0001
 50
 1.80000000000000E+0002
 51
 3.49921300000000E+0002
  0
LINE
  8
0
 10
 1.25000000000000E+0002
 20
 1.55000069642857E+0002
 11
 1.25000000000000E+0002
 21
 1.80500130357143E+0002
  0
ARC
  8
0
 10
 1.55000071428571E+0002
 20
 1.80500130357143E+0002
 40
 3.00000714285714E+0001
 50
 1.00787000000000E+0001
 51
 1.80000000000000E+0002
  0
LINE
  8
0
 10
 1.84537190917569E+0002
 20
 1.85750164453417E+0002
 11
 1.71431790197324E+0002
 21
 1.85750133716246E+0002
  0
ARC
  8
0
 10
 1.55000071428571E+0002
 20
 1.80500130357143E+0002
 40
 1.72500410714286E+0001
 50
 1.77189000000000E+0001
 51
 1.80000000000000E+0002
  0
LINE
  8
0
 10
 1.37750030357143E+0002
 20
 1.80500130357143E+0002
 11
 1.37750030357143E+0002
 21
 1.55000069642857E+0002
  0
ARC
  8
0
 10
 1.55000071428571E+0002
 20
 1.55000069642857E+0002
 40
 1.72500410714286E+0001
 50
 1.80000000000000E+0002
 51
 3.42281100000000E+0002
  0
LINE
  8
0
 10
 1.71431790197324E+0002
 20
 1.49750066283754E+0002
 11
 1.84537166754821E+0002
 21
 1.49750057142857E+0002
  0
LINE
  8
0
 10
 1.99537202469098E+0002
 20
 1.25750000000000E+0002
 11
 1.99537202469098E+0002
 21
 2.09750200000000E+0002
  0
LINE
  8
0
 10
 1.99537202469098E+0002
 20
 2.09750200000000E+0002
 11
 2.11537231040526E+0002
 21
 2.09750200000000E+0002
  0
LINE
  8
0
 10
 2.11537231040526E+0002
 20
 2.09750200000000E+0002
 11
 2.49787322111955E+0002
 21
 1.49750057142857E+0002
  0
LINE
  8
0
 10
 2.49787322111955E+0002
 20
 1.49750057142857E+0002
 11
 2.49787322111955E+0002
 21
 2.09750200000000E+0002
  0
LINE
  8
0
 10
 2.49787322111955E+0002
 20
 2.09750200000000E+0002
 11
 2.62537352469098E+0002
 21
 2.09750200000000E+0002
  0
LINE
  8
0
 10
 2.62537352469098E+0002
 20
 2.09750200000000E+0002
 11
 2.62537352469098E+0002
 21
 1.25750000000000E+0002
  0
LINE
  8
0
 10
 2.62537352469098E+0002
 20
 1.25750000000000E+0002
 11
 2.50537323897669E+0002
 21
 1.25750000000000E+0002
  0
LINE
  8
0
 10
 2.50537323897669E+0002
 20
 1.25750000000000E+0002
 11
 2.12287232826241E+0002
 21
 1.85750142857143E+0002
  0
LINE
  8
0
 10
 2.12287232826241E+0002
 20
 1.85750142857143E+0002
 11
 2.12287232826241E+0002
 21
 1.25750000000000E+0002
  0
LINE
  8
0
 10
 2.12287232826241E+0002
 20
 1.25750000000000E+0002
 11
 1.99537202469098E+0002
 21
 1.25750000000000E+0002
  0
LINE
  8
0
 10
 3.39037534611911E+0002
 20
 1.72250110714286E+0002
 11
 3.39037534611911E+0002
 21
 1.55000069642857E+0002
  0
ARC
  8
0
 10
 3.09037463183340E+0002
 20
 1.55000069642857E+0002
 40
 3.00000714285714E+0001
 50
 1.80000000000000E+0002
 51
 3.60000000000000E+0002
  0
LINE
  8
0
 10
 2.79037391754768E+0002
 20
 1.55000069642857E+0002
 11
 2.79037391754768E+0002
 21
 1.80500130357143E+0002
  0
ARC
  8
0
 10
 3.09037463183340E+0002
 20
 1.80500130357143E+0002
 40
 3.00000714285714E+0001
 50
 1.00787000000000E+0001
 51
 1.80000000000000E+0002
  0
LINE
  8
0
 10
 3.38574582672338E+0002
 20
 1.85750164453417E+0002
 11
 3.25469181952092E+0002
 21
 1.85750133716246E+0002
  0
ARC
  8
0
 10
 3.09037463183340E+0002
 20
 1.80500130357143E+0002
 40
 1.72500410714286E+0001
 50
 1.77189000000000E+0001
 51
 1.80000000000000E+0002
  0
LINE
  8
0
 10
 2.91787422111911E+0002
 20
 1.80500130357143E+0002
 11
 2.91787422111911E+0002
 21
 1.55000069642857E+0002
  0
ARC
  8
0
 10
 3.09037463183340E+0002
 20
 1.55000069642857E+0002
 40
 1.72500410714286E+0001
 50
 1.80000000000000E+0002
 51
 3.60000000000000E+0002
  0
LINE
  8
0
 10
 3.26287504254768E+0002
 20
 1.55000069642857E+0002
 11
 3.26287504254768E+0002
 21
 1.60250082142857E+0002
  0
LINE
  8
0
 10
 3.26287504254768E+0002
 20
 1.60250082142857E+0002
 11
 3.09037463183340E+0002
 21
 1.60250082142857E+0002
  0
LINE
  8
0
 10
 3.09037463183340E+0002
 20
 1.60250082142857E+0002
 11
 3.09037463183340E+0002
 21
 1.72250110714286E+0002
  0
LINE
  8
0
 10
 3.09037463183340E+0002
 20
 1.72250110714286E+0002
 11
 3.39037534611911E+0002
 21
 1.72250110714286E+0002
  0
LINE
  8
0
 10
 5.62694700000000E+0002
 20
 1.47500000000000E+0002
 11
 5.62694700000000E+0002
 21
 1.65441200000000E+0002
  0
LINE
  8
0
 10
 5.62694700000000E+0002
 20
 1.65441200000000E+0002
 11
 5.50733900000000E+0002
 21
 1.65441200000000E+0002
  0
LINE
  8
0
 10
 5.50733900000000E+0002
 20
 1.65441200000000E+0002
 11
 5.50733900000000E+0002
 21
 3.29902200000000E+0002
  0
LINE
  8
0
 10
 5.50733900000000E+0002
 20
 3.29902200000000E+0002
 11
 5.38773600000000E+0002
 21
 3.29902200000000E+0002
  0
LINE
  8
0
 10
 5.38773600000000E+0002
 20
 3.29902200000000E+0002
 11
 5.38800000000000E+0002
 21
 1.83400000000000E+0002
  0
ARC
  8
0
 10
 5.02900000000000E+0002
 20
 1.83400000000000E+0002
 40
 3.59000000000000E+0001
 50
 1.80000000000000E+0002
 51
 3.60000000000000E+0002
  0
LINE
  8
0
 10
 4.67000000000000E+0002
 20
 1.83400000000000E+0002
 11
 4.67000000000000E+0002
 21
 1.83400000000000E+0002
  0
ARC
  8
0
 10
 5.14850000000000E+0002
 20
 1.83400000000000E+0002
 40
 4.78500000000000E+0001
 50
 1.51195000000000E+0002
 51
 1.80000000000000E+0002
  0
LINE
  8
0
 10
 4.72920737178491E+0002
 20
 2.06455572411997E+0002
 11
 4.98681138478325E+0002
 21
 2.53304099673429E+0002
  0
ARC
  8
0
 10
 2.99550000000000E+0002
 20
 3.62800000000000E+0002
 40
 2.27250000000000E+0002
 50
 3.31195000000000E+0002
 51
 3.60000000000000E+0002
  0
LINE
  8
0
 10
 5.26800000000000E+0002
 20
 3.62800000000000E+0002
 11
 5.33719241602862E+0002
 21
 3.79346179846782E+0002
  0
ARC
  8
0
 10
 5.44750000000000E+0002
 20
 3.74750000000000E+0002
 40
 1.19500000000000E+0001
 50
 9.00000000000000E+0001
 51
 1.57380000000000E+0002
  0
LINE
  8
0
 10
 5.44750000000000E+0002
 20
 3.86700000000000E+0002
 11
 5.50733900000000E+0002
 21
 3.86715900000000E+0002
  0
LINE
  8
0
 10
 5.50733900000000E+0002
 20
 3.86715900000000E+0002
 11
 5.50750000000000E+0002
 21
 3.98700000000000E+0002
  0
ARC
  8
0
 10
 5.62700000000000E+0002
 20
 3.98700000000000E+0002
 40
 1.19500000000000E+0001
 50
 9.00000000000000E+0001
 51
 1.80000000000000E+0002
  0
LINE
  8
0
 10
 5.62700000000000E+0002
 20
 4.10650000000000E+0002
 11
 6.82300000000000E+0002
 21
 4.10650000000000E+0002
  0
ARC
  8
0
 10
 6.82300000000000E+0002
 20
 3.98700000000000E+0002
 40
 1.19500000000000E+0001
 50
 0.00000000000000E+0000
 51
 9.00000000000000E+0001
  0
LINE
  8
0
 10
 6.94250000000000E+0002
 20
 3.98700000000000E+0002
 11
 6.94263000000000E+0002
 21
 1.65441200000000E+0002
  0
LINE
  8
0
 10
 6.94263000000000E+0002
 20
 1.65441200000000E+0002
 11
 6.82302400000000E+0002
 21
 1.65441200000000E+0002
  0
LINE
  8
0
 10
 6.82302400000000E+0002
 20
 1.65441200000000E+0002
 11
 6.82302400000000E+0002
 21
 1.47500000000000E+0002
  0
LINE
  8
0
 10
 6.82302400000000E+0002
 20
 1.47500000000000E+0002
 11
 5.62694700000000E+0002
 21
 1.47500000000000E+0002
  0
LINE
  8
0
 10
 5.26812900000000E+0002
 20
 2.88099100000000E+0002
 11
 5.26800000000000E+0002
 21
 1.83400000000000E+0002
  0
ARC
  8
0
 10
 5.02900000000000E+0002
 20
 1.83400000000000E+0002
 40
 2.39000000000000E+0001
 50
 1.80000000000000E+0002
 51
 3.60000000000000E+0002
  0
LINE
  8
0
 10
 4.79000000000000E+0002
 20
 1.83400000000000E+0002
 11
 4.78950000000000E+0002
 21
 1.83400000000000E+0002
  0
ARC
  8
0
 10
 5.14850000000000E+0002
 20
 1.83400000000000E+0002
 40
 3.59000000000000E+0001
 50
 1.51200000000000E+0002
 51
 1.80000000000000E+0002
  0
LINE
  8
0
 10
 4.83390590186425E+0002
 20
 2.00694956900252E+0002
 11
 5.09194003868499E+0002
 21
 2.47542258103754E+0002
  0
ARC
  8
0
 10
 2.99450000000000E+0002
 20
 3.62850000000000E+0002
 40
 2.39350000000000E+0002
 50
 3.31200000000000E+0002
 51
 3.41805000000000E+0002
  0
ARC
  8
0
 10
 5.86600000000000E+0002
 20
 3.20950000000000E+0002
 40
 1.19500000000000E+0001
 50
 1.79995000000000E+0002
 51
 2.70000000000000E+0002
  0
LINE
  8
0
 10
 5.74650000045502E+0002
 20
 3.20951042834227E+0002
 11
 5.74650000000000E+0002
 21
 3.74750000000000E+0002
  0
ARC
  8
0
 10
 5.86600000000000E+0002
 20
 3.74750000000000E+0002
 40
 1.19500000000000E+0001
 50
 9.00000000000000E+0001
 51
 1.80000000000000E+0002
  0
LINE
  8
0
 10
 5.86600000000000E+0002
 20
 3.86700000000000E+0002
 11
 6.58400000000000E+0002
 21
 3.86700000000000E+0002
  0
ARC
  8
0
 10
 6.58400000000000E+0002
 20
 3.74750000000000E+0002
 40
 1.19500000000000E+0001
 50
 0.00000000000000E+0000
 51
 9.00000000000000E+0001
  0
LINE
  8
0
 10
 6.70350000000000E+0002
 20
 3.74750000000000E+0002
 11
 6.70350000000000E+0002
 21
 3.20950000000000E+0002
  0
ARC
  8
0
 10
 6.58400000000000E+0002
 20
 3.20950000000000E+0002
 40
 1.19500000000000E+0001
 50
 2.70005000000000E+0002
 51
 3.60000000000000E+0002
  0
LINE
  8
0
 10
 6.58401042834227E+0002
 20
 3.09000000045502E+0002
 11
 5.86616500000000E+0002
 21
 3.08971000000000E+0002
  0
LINE
  8
0
 10
 6.94263000000000E+0002
 20
 1.89362700000000E+0002
 11
 6.94263000000000E+0002
 21
 3.50833500000000E+0002
  0
LINE
  8
0
 10
 6.94263000000000E+0002
 20
 3.50833500000000E+0002
 11
 7.39100000000000E+0002
 21
 3.50850000000000E+0002
  0
ARC
  8
0
 10
 7.39100000000000E+0002
 20
 3.62800000000000E+0002
 40
 1.19500000000000E+0001
 50
 2.70000000000000E+0002
 51
 3.59995000000000E+0002
  0
LINE
  8
0
 10
 7.51049999954498E+0002
 20
 3.62798957165773E+0002
 11
 7.51050000000000E+0002
 21
 4.16600000000000E+0002
  0
ARC
  8
0
 10
 7.39100000000000E+0002
 20
 4.16600000000000E+0002
 40
 1.19500000000000E+0001
 50
 0.00000000000000E+0000
 51
 9.00050000000000E+0001
  0
LINE
  8
0
 10
 7.39098957165773E+0002
 20
 4.28549999954498E+0002
 11
 6.67350000000000E+0002
 21
 4.28550000000000E+0002
  0
ARC
  8
0
 10
 6.67350000000000E+0002
 20
 4.16600000000000E+0002
 40
 1.19500000000000E+0001
 50
 9.00000000000000E+0001
 51
 1.80000000000000E+0002
  0
LINE
  8
0
 10
 6.55400000000000E+0002
 20
 4.16600000000000E+0002
 11
 6.55390700000000E+0002
 21
 4.10637400000000E+0002
  0
LINE
  8
0
 10
 6.55390700000000E+0002
 20
 4.10637400000000E+0002
 11
 6.11285600000000E+0002
 21
 4.10637400000000E+0002
  0
LINE
  8
0
 10
 6.11285600000000E+0002
 20
 4.10637400000000E+0002
 11
 6.14469642737220E+0002
 21
 4.21197142444545E+0002
  0
ARC
  8
0
 10
 6.25500000000000E+0002
 20
 4.16600000000000E+0002
 40
 1.19500000000000E+0001
 50
 9.00000000000000E+0001
 51
 1.57375000000000E+0002
  0
LINE
  8
0
 10
 6.25500000000000E+0002
 20
 4.28550000000000E+0002
 11
 6.31469200000000E+0002
 21
 4.28578600000000E+0002
  0
LINE
  8
0
 10
 6.31469200000000E+0002
 20
 4.28578600000000E+0002
 11
 6.31500000000000E+0002
 21
 4.40550000000000E+0002
  0
ARC
  8
0
 10
 6.43450000000000E+0002
 20
 4.40550000000000E+0002
 40
 1.19500000000000E+0001
 50
 9.00000000000000E+0001
 51
 1.80000000000000E+0002
  0
LINE
  8
0
 10
 6.43450000000000E+0002
 20
 4.52500000000000E+0002
 11
 7.63050000000000E+0002
 21
 4.52500000000000E+0002
  0
ARC
  8
0
 10
 7.63050000000000E+0002
 20
 4.40550000000000E+0002
 40
 1.19500000000000E+0001
 50
 3.59980000000000E+0002
 51
 4.50000000000000E+0002
  0
LINE
  8
0
 10
 7.74999999271964E+0002
 20
 4.40545828663172E+0002
 11
 7.75000000000000E+0002
 21
 2.07303900000000E+0002
  0
LINE
  8
0
 10
 7.75000000000000E+0002
 20
 2.07303900000000E+0002
 11
 7.63035300000000E+0002
 21
 2.07303900000000E+0002
  0
LINE
  8
0
 10
 7.63035300000000E+0002
 20
 2.07303900000000E+0002
 11
 7.63035300000000E+0002
 21
 1.89362700000000E+0002
  0
LINE
  8
0
 10
 7.63035300000000E+0002
 20
 1.89362700000000E+0002
 11
 6.94263000000000E+0002
 21
 1.89362700000000E+0002
  0
ENDSEC
  0
EOF
