  0
SECTION
  2
HEADER
  9
$ACADVER
  1
AC1003
  9
$INSBASE
 10
0.0
 20
0.0
  9
$EXTMIN
 10
-2.73908200000000E+0002
 20
 1.05000000000000E+0002
  9
$EXTMAX
 10
 2.73908200000000E+0002
 20
 3.20000000000000E+0002
  9
$LIMMIN
 10
0.0
 20
0.0
  9
$LIMMAX
 10
410.0
 20
287.0
  9
$VIEWCTR
 10
227.0059616
 20
165.058879 
  9
$VIEWSIZE
 40
 5.47816400000000E+0002
9
$SNAPMODE
70
0
9
$SNAPUNIT
10
1
20
1
9
$GRIDMODE
70
0
9
$GRIDUNIT
10
1
20
1
9
$ORTHOMODE
70
0
9
$rEGENMODE
70
1
9
$FILLMODE
70
1
9
$DRAGMODE
70
2
9
$LTSCALE
40
25.0
9
$OSMODE
70
0
9
$ATTMODE
70
1
9
$TRACEWID
40
1.0
9
$TEXTSTYLE
7
STANDARD
9
$CLAYER
8
0
9
$CELTYPE
6
VONLAYER
9
$CECOLOR
62
256
9
$LUNITS
70
2
9
$LUPREC
70
2
9
$AXISMODE
70
0
9
$AXISUNIT
10
0
20
0
9
$SKETCHINC
40
1.0
9
$FILLETRAD
40
0.0
9
$AUNITS
70
0
9
$AUPREC
70
0
9
$MENU
1
ACAD
9
$ELEVATION
40
0.0
9
$THICKNESS
40
0.0
9
$VIEWDIR
10
0.0
20
0.0
30
1.0
9
$LIMCHECK
70
0
9
$BLIPMODE
70
1
9
$CHAMFERA
40
0.0
9
$CHAMFERB
40
0.0
9
$USRTIMER
70
1
9
$ANGBASE
50
0.0
9
$ANGDIR
70
0
9
$PDMODE
70
0
9
$PDSIZE
40
0.0
9
$PLINEWID
40
0.0
9
$COORDS
70
0
0
ENDSEC
0
SECTION
2
TABLES
0
TABLE
2
LTYPE
70
1
0
LTYPE
2
AUSGEZOGEN
70
64
3
Ausgezogene Linie
72
65
73
0
40
0.0
0
ENDTAB
0
TABLE
2
LAYER
70
1
0
LAYER
2
0
70
0
62
7
6
AUSGEZOGEN
0
ENDTAB
0
TABLE
2
STYLE
70
1
0
STYLE
2
STANDARD
70
0
40
0.0
41
1.0
50
0.0
71
0
42
3.5
3
txt
4

0
ENDTAB
0
TABLE
2
VIEW
70
0
0
ENDTAB
0
ENDSEC
0
SECTION
2
BLOCKS
0
ENDSEC
0
SECTION
2
ENTITIES
  0
LINE
  8
0
 10
-2.73908200000000E+0002
 20
 1.05000000000000E+0002
 11
-2.65248000000000E+0002
 21
 1.20000000000000E+0002
  0
LINE
  8
0
 10
-2.65248000000000E+0002
 20
 1.20000000000000E+0002
 11
-1.08636800000000E+0002
 21
 1.20000000000000E+0002
  0
ARC
  8
0
 10
-1.08636800000000E+0002
 20
 1.29375100000000E+0002
 40
 9.37510000000000E+0000
 50
 1.80000000000000E+0002
 51
 2.70000000000000E+0002
  0
LINE
  8
0
 10
-1.18011900000000E+0002
 20
 1.29375100000000E+0002
 11
-1.18011900000000E+0002
 21
 1.63749900000000E+0002
  0
LINE
  8
0
 10
-1.18011900000000E+0002
 20
 1.63749900000000E+0002
 11
-8.05119000000000E+0001
 21
 1.63749900000000E+0002
  0
LINE
  8
0
 10
-8.05119000000000E+0001
 20
 1.63749900000000E+0002
 11
-8.05117000000000E+0001
 21
 1.29375100000000E+0002
  0
ARC
  8
0
 10
-8.98868000000000E+0001
 20
 1.29375100000000E+0002
 40
 9.37510000000000E+0000
 50
 2.70000000000000E+0002
 51
 3.60000000000000E+0002
  0
LINE
  8
0
 10
-8.98868000000000E+0001
 20
 1.20000000000000E+0002
 11
 2.65248000000000E+0002
 21
 1.20000000000000E+0002
  0
LINE
  8
0
 10
 2.65248000000000E+0002
 20
 1.20000000000000E+0002
 11
 2.73908200000000E+0002
 21
 1.05000000000000E+0002
  0
LINE
  8
0
 10
 2.73908200000000E+0002
 20
 1.05000000000000E+0002
 11
-2.73908200000000E+0002
 21
 1.05000000000000E+0002
  0
LINE
  8
0
 10
-1.49777900000000E+0002
 20
 3.20000000000000E+0002
 11
-1.05511900000000E+0002
 21
 3.20000000000000E+0002
  0
ARC
  8
0
 10
-1.05511900000000E+0002
 20
 3.04375000000000E+0002
 40
 1.56250000000000E+0001
 50
 2.35173500000000E+0001
 51
 9.00000000000000E+0001
  0
LINE
  8
0
 10
-9.11847236673216E+0001
 20
 3.10609792966277E+0002
 11
-6.64646431037136E+0001
 21
 2.53804685224077E+0002
  0
ARC
  8
0
 10
-1.48869000000000E+0001
 20
 2.76249900000000E+0002
 40
 5.62499000000000E+0001
 50
 2.03517350000000E+0002
 51
 2.16869900000000E+0002
  0
LINE
  8
0
 10
-5.98868186132901E+0001
 20
 2.42499958151054E+0002
 11
-5.61369004622375E+0001
 21
 2.37500000616317E+0002
  0
ARC
  8
0
 10
-7.11369000000000E+0001
 20
 2.26250000000000E+0002
 40
 1.87500000000000E+0001
 50
 0.00000000000000E+0000
 51
 3.68699000000000E+0001
  0
LINE
  8
0
 10
-5.23869000000000E+0001
 20
 2.26250000000000E+0002
 11
-5.23869000000000E+0001
 21
 1.85625000000000E+0002
  0
ARC
  8
0
 10
-6.80119000000000E+0001
 20
 1.85625000000000E+0002
 40
 1.56250000000000E+0001
 50
 2.70000000000000E+0002
 51
 3.60000000000000E+0002
  0
LINE
  8
0
 10
-6.80119000000000E+0001
 20
 1.70000000000000E+0002
 11
-2.36380500000000E+0002
 21
 1.70000000000000E+0002
  0
LINE
  8
0
 10
-2.36380500000000E+0002
 20
 1.70000000000000E+0002
 11
-1.89470800000000E+0002
 21
 2.51250000000000E+0002
  0
LINE
  8
0
 10
-1.89470800000000E+0002
 20
 2.51250000000000E+0002
 11
-8.20743000000000E+0001
 21
 2.51250000000000E+0002
  0
LINE
  8
0
 10
-8.20743000000000E+0001
 20
 2.51250000000000E+0002
 11
-1.03558429466928E+0002
 21
 3.00618917186511E+0002
  0
ARC
  8
0
 10
-1.09289300000000E+0002
 20
 2.98125000000000E+0002
 40
 6.25000000000000E+0000
 50
 2.35173500000000E+0001
 51
 9.00000000000000E+0001
  0
LINE
  8
0
 10
-1.09289300000000E+0002
 20
 3.04375000000000E+0002
 11
-1.58799000000000E+0002
 21
 3.04375000000000E+0002
  0
LINE
  8
0
 10
-1.58799000000000E+0002
 20
 3.04375000000000E+0002
 11
-1.49777900000000E+0002
 21
 3.20000000000000E+0002
  0
CIRCLE
  8
0
 10
-9.92619000000000E+0001
 20
 2.16874900000000E+0002
 40
 1.87500000000000E+0001
  0
LINE
  8
0
 10
-4.78868000000000E+0001
 20
 1.25000000000000E+0002
 11
 1.21449000000000E+0002
 21
 1.48798600000000E+0002
  0
LINE
  8
0
 10
 1.21449000000000E+0002
 20
 1.48798600000000E+0002
 11
 1.20614000000000E+0002
 21
 1.54740200000000E+0002
  0
LINE
  8
0
 10
 1.20614000000000E+0002
 20
 1.54740200000000E+0002
 11
-4.87218000000000E+0001
 21
 1.30941600000000E+0002
  0
LINE
  8
0
 10
-4.87218000000000E+0001
 20
 1.30941600000000E+0002
 11
-4.78868000000000E+0001
 21
 1.25000000000000E+0002
  0
LINE
  8
0
 10
-1.78868000000000E+0001
 20
 1.43000000000000E+0002
 11
 1.40661600000000E+0002
 21
 2.07057700000000E+0002
  0
LINE
  8
0
 10
 1.40661600000000E+0002
 20
 2.07057700000000E+0002
 11
 1.38414000000000E+0002
 21
 2.12620800000000E+0002
  0
LINE
  8
0
 10
 1.38414000000000E+0002
 20
 2.12620800000000E+0002
 11
-2.01344000000000E+0001
 21
 1.48563100000000E+0002
  0
LINE
  8
0
 10
-2.01344000000000E+0001
 20
 1.48563100000000E+0002
 11
-1.78868000000000E+0001
 21
 1.43000000000000E+0002
  0
LINE
  8
0
 10
-4.78868000000000E+0001
 20
 1.35902700000000E+0002
 11
 6.11404000000000E+0001
 21
 2.06705800000000E+0002
  0
LINE
  8
0
 10
 6.11404000000000E+0001
 20
 2.06705800000000E+0002
 11
 5.78725000000000E+0001
 21
 2.11737800000000E+0002
  0
LINE
  8
0
 10
 5.78725000000000E+0001
 20
 2.11737800000000E+0002
 11
-5.11546000000000E+0001
 21
 1.40934700000000E+0002
  0
LINE
  8
0
 10
-5.11546000000000E+0001
 20
 1.40934700000000E+0002
 11
-4.78868000000000E+0001
 21
 1.35902700000000E+0002
  0
LINE
  8
0
 10
 8.41132000000000E+0001
 20
 2.25000000000000E+0002
 11
 9.93832000000000E+0001
 21
 2.30557800000000E+0002
  0
LINE
  8
0
 10
 9.93832000000000E+0001
 20
 2.30557800000000E+0002
 11
 1.04986400000000E+0002
 21
 2.42573900000000E+0002
  0
LINE
  8
0
 10
 1.04986400000000E+0002
 20
 2.42573900000000E+0002
 11
 9.29703000000000E+0001
 21
 2.48177100000000E+0002
  0
LINE
  8
0
 10
 9.29703000000000E+0001
 20
 2.48177100000000E+0002
 11
 7.77003000000000E+0001
 21
 2.42619200000000E+0002
  0
LINE
  8
0
 10
 7.77003000000000E+0001
 20
 2.42619200000000E+0002
 11
 7.20971000000000E+0001
 21
 2.30603200000000E+0002
  0
LINE
  8
0
 10
 7.20971000000000E+0001
 20
 2.30603200000000E+0002
 11
 8.41132000000000E+0001
 21
 2.25000000000000E+0002
  0
LINE
  8
0
 10
 1.32113200000000E+0002
 20
 2.29000000000000E+0002
 11
 1.42791800000000E+0002
 21
 2.29000000000000E+0002
  0
LINE
  8
0
 10
 1.42791800000000E+0002
 20
 2.29000000000000E+0002
 11
 1.48952500000000E+0002
 21
 2.35160700000000E+0002
  0
LINE
  8
0
 10
 1.48952500000000E+0002
 20
 2.35160700000000E+0002
 11
 1.42791800000000E+0002
 21
 2.41321400000000E+0002
  0
LINE
  8
0
 10
 1.42791800000000E+0002
 20
 2.41321400000000E+0002
 11
 1.32113200000000E+0002
 21
 2.41321400000000E+0002
  0
LINE
  8
0
 10
 1.32113200000000E+0002
 20
 2.41321400000000E+0002
 11
 1.25952500000000E+0002
 21
 2.35160700000000E+0002
  0
LINE
  8
0
 10
 1.25952500000000E+0002
 20
 2.35160700000000E+0002
 11
 1.32113200000000E+0002
 21
 2.29000000000000E+0002
  0
LINE
  8
0
 10
 1.54613200000000E+0002
 20
 1.85000000000000E+0002
 11
 1.65291800000000E+0002
 21
 1.85000000000000E+0002
  0
LINE
  8
0
 10
 1.65291800000000E+0002
 20
 1.85000000000000E+0002
 11
 1.71452500000000E+0002
 21
 1.91160700000000E+0002
  0
LINE
  8
0
 10
 1.71452500000000E+0002
 20
 1.91160700000000E+0002
 11
 1.65291800000000E+0002
 21
 1.97321400000000E+0002
  0
LINE
  8
0
 10
 1.65291800000000E+0002
 20
 1.97321400000000E+0002
 11
 1.54613200000000E+0002
 21
 1.97321400000000E+0002
  0
LINE
  8
0
 10
 1.54613200000000E+0002
 20
 1.97321400000000E+0002
 11
 1.48452500000000E+0002
 21
 1.91160700000000E+0002
  0
LINE
  8
0
 10
 1.48452500000000E+0002
 20
 1.91160700000000E+0002
 11
 1.54613200000000E+0002
 21
 1.85000000000000E+0002
  0
LINE
  8
0
 10
 1.02113200000000E+0002
 20
 1.60500000000000E+0002
 11
 1.15201800000000E+0002
 21
 1.65263800000000E+0002
  0
LINE
  8
0
 10
 1.15201800000000E+0002
 20
 1.65263800000000E+0002
 11
 1.20004500000000E+0002
 21
 1.75563300000000E+0002
  0
LINE
  8
0
 10
 1.20004500000000E+0002
 20
 1.75563300000000E+0002
 11
 1.09705000000000E+0002
 21
 1.80366100000000E+0002
  0
LINE
  8
0
 10
 1.09705000000000E+0002
 20
 1.80366100000000E+0002
 11
 9.66164000000000E+0001
 21
 1.75602200000000E+0002
  0
LINE
  8
0
 10
 9.66164000000000E+0001
 20
 1.75602200000000E+0002
 11
 9.18137000000000E+0001
 21
 1.65302700000000E+0002
  0
LINE
  8
0
 10
 9.18137000000000E+0001
 20
 1.65302700000000E+0002
 11
 1.02113200000000E+0002
 21
 1.60500000000000E+0002
  0
LINE
  8
0
 10
 1.42113200000000E+0002
 20
 1.32000000000000E+0002
 11
 1.53720300000000E+0002
 21
 1.32000000000000E+0002
  0
LINE
  8
0
 10
 1.53720300000000E+0002
 20
 1.32000000000000E+0002
 11
 1.60416800000000E+0002
 21
 1.38696400000000E+0002
  0
LINE
  8
0
 10
 1.60416800000000E+0002
 20
 1.38696400000000E+0002
 11
 1.53720300000000E+0002
 21
 1.45392900000000E+0002
  0
LINE
  8
0
 10
 1.53720300000000E+0002
 20
 1.45392900000000E+0002
 11
 1.42113200000000E+0002
 21
 1.45392900000000E+0002
  0
LINE
  8
0
 10
 1.42113200000000E+0002
 20
 1.45392900000000E+0002
 11
 1.35416800000000E+0002
 21
 1.38696400000000E+0002
  0
LINE
  8
0
 10
 1.35416800000000E+0002
 20
 1.38696400000000E+0002
 11
 1.42113200000000E+0002
 21
 1.32000000000000E+0002
  0
LINE
  8
0
 10
 1.86113200000000E+0002
 20
 1.30000000000000E+0002
 11
 1.96147800000000E+0002
 21
 1.33652300000000E+0002
  0
LINE
  8
0
 10
 1.96147800000000E+0002
 20
 1.33652300000000E+0002
 11
 1.99829900000000E+0002
 21
 1.41548500000000E+0002
  0
LINE
  8
0
 10
 1.99829900000000E+0002
 20
 1.41548500000000E+0002
 11
 1.91933600000000E+0002
 21
 1.45230600000000E+0002
  0
LINE
  8
0
 10
 1.91933600000000E+0002
 20
 1.45230600000000E+0002
 11
 1.81899000000000E+0002
 21
 1.41578300000000E+0002
  0
LINE
  8
0
 10
 1.81899000000000E+0002
 20
 1.41578300000000E+0002
 11
 1.78217000000000E+0002
 21
 1.33682100000000E+0002
  0
LINE
  8
0
 10
 1.78217000000000E+0002
 20
 1.33682100000000E+0002
 11
 1.86113200000000E+0002
 21
 1.30000000000000E+0002
  0
LINE
  8
0
 10
 1.66113200000000E+0002
 20
 1.50000000000000E+0002
 11
 1.81383200000000E+0002
 21
 1.55557800000000E+0002
  0
LINE
  8
0
 10
 1.81383200000000E+0002
 20
 1.55557800000000E+0002
 11
 1.86986400000000E+0002
 21
 1.67573900000000E+0002
  0
LINE
  8
0
 10
 1.86986400000000E+0002
 20
 1.67573900000000E+0002
 11
 1.74970300000000E+0002
 21
 1.73177100000000E+0002
  0
LINE
  8
0
 10
 1.74970300000000E+0002
 20
 1.73177100000000E+0002
 11
 1.59700300000000E+0002
 21
 1.67619200000000E+0002
  0
LINE
  8
0
 10
 1.59700300000000E+0002
 20
 1.67619200000000E+0002
 11
 1.54097100000000E+0002
 21
 1.55603200000000E+0002
  0
LINE
  8
0
 10
 1.54097100000000E+0002
 20
 1.55603200000000E+0002
 11
 1.66113200000000E+0002
 21
 1.50000000000000E+0002
  0
ENDSEC
  0
EOF
