  0
SECTION
  2
HEADER
  9
$ACADVER
  1
AC1003
  9
$INSBASE
 10
0.0
 20
0.0
  9
$EXTMIN
 10
 0.00000000000000E+0000
 20
 0.00000000000000E+0000
  9
$EXTMAX
 10
 6.00000000000000E+0002
 20
 6.00000000000000E+0002
  9
$LIMMIN
 10
0.0
 20
0.0
  9
$LIMMAX
 10
410.0
 20
287.0
  9
$VIEWCTR
 10
227.0059616
 20
165.058879 
  9
$VIEWSIZE
 40
 6.00000000000000E+0002
9
$SNAPMODE
70
0
9
$SNAPUNIT
10
1
20
1
9
$GRIDMODE
70
0
9
$GRIDUNIT
10
1
20
1
9
$ORTHOMODE
70
0
9
$rEGENMODE
70
1
9
$FILLMODE
70
1
9
$DRAGMODE
70
2
9
$LTSCALE
40
25.0
9
$OSMODE
70
0
9
$ATTMODE
70
1
9
$TRACEWID
40
1.0
9
$TEXTSTYLE
7
STANDARD
9
$CLAYER
8
0
9
$CELTYPE
6
VONLAYER
9
$CECOLOR
62
256
9
$LUNITS
70
2
9
$LUPREC
70
2
9
$AXISMODE
70
0
9
$AXISUNIT
10
0
20
0
9
$SKETCHINC
40
1.0
9
$FILLETRAD
40
0.0
9
$AUNITS
70
0
9
$AUPREC
70
0
9
$MENU
1
ACAD
9
$ELEVATION
40
0.0
9
$THICKNESS
40
0.0
9
$VIEWDIR
10
0.0
20
0.0
30
1.0
9
$LIMCHECK
70
0
9
$BLIPMODE
70
1
9
$CHAMFERA
40
0.0
9
$CHAMFERB
40
0.0
9
$USRTIMER
70
1
9
$ANGBASE
50
0.0
9
$ANGDIR
70
0
9
$PDMODE
70
0
9
$PDSIZE
40
0.0
9
$PLINEWID
40
0.0
9
$COORDS
70
0
0
ENDSEC
0
SECTION
2
TABLES
0
TABLE
2
LTYPE
70
1
0
LTYPE
2
AUSGEZOGEN
70
64
3
Ausgezogene Linie
72
65
73
0
40
0.0
0
ENDTAB
0
TABLE
2
LAYER
70
1
0
LAYER
2
0
70
0
62
7
6
AUSGEZOGEN
0
ENDTAB
0
TABLE
2
STYLE
70
1
0
STYLE
2
STANDARD
70
0
40
0.0
41
1.0
50
0.0
71
0
42
3.5
3
txt
4

0
ENDTAB
0
TABLE
2
VIEW
70
0
0
ENDTAB
0
ENDSEC
0
SECTION
2
BLOCKS
0
ENDSEC
0
SECTION
2
ENTITIES
  0
ARC
  8
0
 10
 4.00000000000000E+0001
 20
 4.00000000000000E+0001
 40
 4.00000000000000E+0001
 50
 1.80000000000000E+0002
 51
 2.70000000000000E+0002
  0
LINE
  8
0
 10
 0.00000000000000E+0000
 20
 4.00000000000000E+0001
 11
 0.00000000000000E+0000
 21
 5.60000000000000E+0002
  0
ARC
  8
0
 10
 4.00000000000000E+0001
 20
 5.60000000000000E+0002
 40
 4.00000000000000E+0001
 50
 9.00000000000000E+0001
 51
 1.80000000000000E+0002
  0
LINE
  8
0
 10
 4.00000000000000E+0001
 20
 6.00000000000000E+0002
 11
 5.60000000000000E+0002
 21
 6.00000000000000E+0002
  0
ARC
  8
0
 10
 5.60000000000000E+0002
 20
 5.60000000000000E+0002
 40
 4.00000000000000E+0001
 50
 0.00000000000000E+0000
 51
 9.00000000000000E+0001
  0
LINE
  8
0
 10
 6.00000000000000E+0002
 20
 5.60000000000000E+0002
 11
 6.00000000000000E+0002
 21
 4.00000000000000E+0001
  0
ARC
  8
0
 10
 5.60000000000000E+0002
 20
 4.00000000000000E+0001
 40
 4.00000000000000E+0001
 50
 2.70000000000000E+0002
 51
 3.60000000000000E+0002
  0
LINE
  8
0
 10
 5.60000000000000E+0002
 20
 0.00000000000000E+0000
 11
 4.00000000000000E+0001
 21
 0.00000000000000E+0000
  0
ARC
  8
0
 10
 4.00000000000000E+0001
 20
 4.00000000000000E+0001
 40
 3.00000000000000E+0001
 50
 1.80000000000000E+0002
 51
 2.70000000000000E+0002
  0
LINE
  8
0
 10
 1.00000000000000E+0001
 20
 4.00000000000000E+0001
 11
 1.00000000000000E+0001
 21
 5.60000000000000E+0002
  0
ARC
  8
0
 10
 4.00000000000000E+0001
 20
 5.60000000000000E+0002
 40
 3.00000000000000E+0001
 50
 9.00000000000000E+0001
 51
 1.80000000000000E+0002
  0
LINE
  8
0
 10
 4.00000000000000E+0001
 20
 5.90000000000000E+0002
 11
 5.60000000000000E+0002
 21
 5.90000000000000E+0002
  0
ARC
  8
0
 10
 5.60000000000000E+0002
 20
 5.60000000000000E+0002
 40
 3.00000000000000E+0001
 50
 0.00000000000000E+0000
 51
 9.00000000000000E+0001
  0
LINE
  8
0
 10
 5.90000000000000E+0002
 20
 5.60000000000000E+0002
 11
 5.90000000000000E+0002
 21
 4.00000000000000E+0001
  0
ARC
  8
0
 10
 5.60000000000000E+0002
 20
 4.00000000000000E+0001
 40
 3.00000000000000E+0001
 50
 2.70000000000000E+0002
 51
 3.60000000000000E+0002
  0
LINE
  8
0
 10
 5.60000000000000E+0002
 20
 1.00000000000000E+0001
 11
 4.00000000000000E+0001
 21
 1.00000000000000E+0001
  0
ARC
  8
0
 10
 4.00000000000000E+0001
 20
 4.00000000000000E+0001
 40
 1.50000000000000E+0001
 50
 1.80000000000000E+0002
 51
 2.70000000000000E+0002
  0
LINE
  8
0
 10
 2.50000000000000E+0001
 20
 4.00000000000000E+0001
 11
 2.50000000000000E+0001
 21
 5.60000000000000E+0002
  0
ARC
  8
0
 10
 4.00000000000000E+0001
 20
 5.60000000000000E+0002
 40
 1.50000000000000E+0001
 50
 9.00000000000000E+0001
 51
 1.80000000000000E+0002
  0
LINE
  8
0
 10
 4.00000000000000E+0001
 20
 5.75000000000000E+0002
 11
 5.60000000000000E+0002
 21
 5.75000000000000E+0002
  0
ARC
  8
0
 10
 5.60000000000000E+0002
 20
 5.60000000000000E+0002
 40
 1.50000000000000E+0001
 50
 0.00000000000000E+0000
 51
 9.00000000000000E+0001
  0
LINE
  8
0
 10
 5.75000000000000E+0002
 20
 5.60000000000000E+0002
 11
 5.75000000000000E+0002
 21
 4.00000000000000E+0001
  0
ARC
  8
0
 10
 5.60000000000000E+0002
 20
 4.00000000000000E+0001
 40
 1.50000000000000E+0001
 50
 2.70000000000000E+0002
 51
 3.60000000000000E+0002
  0
LINE
  8
0
 10
 5.60000000000000E+0002
 20
 2.50000000000000E+0001
 11
 4.00000000000000E+0001
 21
 2.50000000000000E+0001
  0
CIRCLE
  8
0
 10
 9.35000000000000E+0001
 20
 5.29200000000000E+0002
 40
 1.60000000000000E+0001
  0
LINE
  8
0
 10
 9.35187000000000E+0001
 20
 4.06525700000000E+0002
 11
 5.51584304958561E+0001
 21
 4.06506766139584E+0002
  0
ARC
  8
0
 10
 1.31850000000000E+0002
 20
 3.95000000000000E+0002
 40
 7.75500000000000E+0001
 50
 1.38778540000000E+0002
 51
 1.71467020000000E+0002
  0
LINE
  8
0
 10
 7.35193603141035E+0001
 20
 4.46103218820678E+0002
 11
 7.35152349836935E+0001
 21
 4.46118695885602E+0002
  0
ARC
  8
0
 10
 9.35000000000000E+0001
 20
 4.64050000000000E+0002
 40
 2.68500000000000E+0001
 50
 1.80000000000000E+0002
 51
 2.21900000000000E+0002
  0
LINE
  8
0
 10
 6.66500000000000E+0001
 20
 4.64050000000000E+0002
 11
 6.66500000000000E+0001
 21
 4.79500000000000E+0002
  0
ARC
  8
0
 10
 9.35000000000000E+0001
 20
 4.79500000000000E+0002
 40
 2.68500000000000E+0001
 50
 0.00000000000000E+0000
 51
 1.80000000000000E+0002
  0
LINE
  8
0
 10
 1.20350000000000E+0002
 20
 4.79500000000000E+0002
 11
 1.20350000000000E+0002
 21
 4.64050000000000E+0002
  0
ARC
  8
0
 10
 9.35000000000000E+0001
 20
 4.64050000000000E+0002
 40
 2.68500000000000E+0001
 50
 3.18115380000000E+0002
 51
 3.60000000000000E+0002
  0
LINE
  8
0
 10
 1.13489577625594E+0002
 20
 4.46124061074790E+0002
 11
 1.13480505897782E+0002
 21
 4.46103371529761E+0002
  0
ARC
  8
0
 10
 5.51500000000000E+0001
 20
 3.95000000000000E+0002
 40
 7.75500000000000E+0001
 50
 8.53315000000000E+0000
 51
 4.12216100000000E+0001
  0
LINE
  8
0
 10
 1.31841535362544E+0002
 20
 4.06506993688000E+0002
 11
 9.35187000000000E+0001
 21
 4.06525700000000E+0002
  0
LINE
  8
0
 10
 9.16011000000000E+0001
 20
 4.02691500000000E+0002
 11
 8.00985000000000E+0001
 21
 4.02691500000000E+0002
  0
LINE
  8
0
 10
 8.00985000000000E+0001
 20
 4.02691500000000E+0002
 11
 8.01000000000000E+0001
 21
 3.51000000000000E+0002
  0
ARC
  8
0
 10
 8.58500000000000E+0001
 20
 3.51000000000000E+0002
 40
 5.75000000000000E+0000
 50
 1.80000000000000E+0002
 51
 3.60000000000000E+0002
  0
LINE
  8
0
 10
 9.16000000000000E+0001
 20
 3.51000000000000E+0002
 11
 9.16011000000000E+0001
 21
 4.02691500000000E+0002
  0
LINE
  8
0
 10
 1.06938900000000E+0002
 20
 4.02691500000000E+0002
 11
 9.54363000000000E+0001
 21
 4.02691500000000E+0002
  0
LINE
  8
0
 10
 9.54363000000000E+0001
 20
 4.02691500000000E+0002
 11
 9.54500000000000E+0001
 21
 3.62450000000000E+0002
  0
ARC
  8
0
 10
 1.01200000000000E+0002
 20
 3.62450000000000E+0002
 40
 5.75000000000000E+0000
 50
 1.80000000000000E+0002
 51
 3.60000000000000E+0002
  0
LINE
  8
0
 10
 1.06950000000000E+0002
 20
 3.62450000000000E+0002
 11
 1.06938900000000E+0002
 21
 4.02691500000000E+0002
  0
LINE
  8
0
 10
 7.81828000000000E+0001
 20
 4.50992900000000E+0002
 11
 8.08985006675544E+0001
 21
 4.53603985770756E+0002
  0
ARC
  8
0
 10
 7.82000000000000E+0001
 20
 4.56350000000000E+0002
 40
 3.85000000000000E+0000
 50
 3.14500000000000E+0002
 51
 3.60000000000000E+0002
  0
LINE
  8
0
 10
 8.20500000000000E+0001
 20
 4.56350000000000E+0002
 11
 8.20000000000000E+0001
 21
 4.85150000000000E+0002
  0
ARC
  8
0
 10
 8.01000000000000E+0001
 20
 4.85150000000000E+0002
 40
 1.90000000000000E+0000
 50
 0.00000000000000E+0000
 51
 1.80000000000000E+0002
  0
LINE
  8
0
 10
 7.82000000000000E+0001
 20
 4.85150000000000E+0002
 11
 7.81828000000000E+0001
 21
 4.50992900000000E+0002
  0
LINE
  8
0
 10
 1.08885800000000E+0002
 20
 4.50992900000000E+0002
 11
 1.06201499332445E+0002
 21
 4.53603985770756E+0002
  0
ARC
  8
0
 10
 1.08900000000000E+0002
 20
 4.56350000000000E+0002
 40
 3.85000000000000E+0000
 50
 1.80000000000000E+0002
 51
 2.25500000000000E+0002
  0
LINE
  8
0
 10
 1.05050000000000E+0002
 20
 4.56350000000000E+0002
 11
 1.05050000000000E+0002
 21
 4.85150000000000E+0002
  0
ARC
  8
0
 10
 1.06950000000000E+0002
 20
 4.85150000000000E+0002
 40
 1.90000000000000E+0000
 50
 0.00000000000000E+0000
 51
 1.80000000000000E+0002
  0
LINE
  8
0
 10
 1.08850000000000E+0002
 20
 4.85150000000000E+0002
 11
 1.08885800000000E+0002
 21
 4.50992900000000E+0002
  0
LINE
  8
0
 10
 4.82337900000000E+0002
 20
 4.36193400000000E+0002
 11
 4.82350000000000E+0002
 21
 3.45150000000000E+0002
  0
ARC
  8
0
 10
 4.82350000000000E+0002
 20
 3.61000000000000E+0002
 40
 1.58500000000000E+0001
 50
 2.70000000000000E+0002
 51
 3.60000000000000E+0002
  0
LINE
  8
0
 10
 4.98200000000000E+0002
 20
 3.61000000000000E+0002
 11
 4.98166200000000E+0002
 21
 4.16407300000000E+0002
  0
LINE
  8
0
 10
 4.98166200000000E+0002
 20
 4.16407300000000E+0002
 11
 5.37749220338096E+0002
 21
 3.53058437675921E+0002
  0
ARC
  8
0
 10
 5.29350000000000E+0002
 20
 3.66500000000000E+0002
 40
 1.58500000000000E+0001
 50
 3.02000000000000E+0002
 51
 3.92000000000000E+0002
  0
LINE
  8
0
 10
 5.42791562324079E+0002
 20
 3.74899220338096E+0002
 11
 5.13994600000000E+0002
 21
 4.20946900000000E+0002
  0
LINE
  8
0
 10
 5.13994600000000E+0002
 20
 4.20946900000000E+0002
 11
 5.13994600000000E+0002
 21
 4.36193400000000E+0002
  0
LINE
  8
0
 10
 5.13994600000000E+0002
 20
 4.36193400000000E+0002
 11
 4.82337900000000E+0002
 21
 4.36193400000000E+0002
  0
LINE
  8
0
 10
 4.82337900000000E+0002
 20
 4.40150800000000E+0002
 11
 5.13994600000000E+0002
 21
 4.40150800000000E+0002
  0
LINE
  8
0
 10
 5.13994600000000E+0002
 20
 4.40150800000000E+0002
 11
 5.13994600000000E+0002
 21
 4.70002000000000E+0002
  0
LINE
  8
0
 10
 5.13994600000000E+0002
 20
 4.70002000000000E+0002
 11
 5.35139381809630E+0002
 21
 4.36204533868234E+0002
  0
ARC
  8
0
 10
 5.27800000000000E+0002
 20
 4.47950000000000E+0002
 40
 1.38500000000000E+0001
 50
 3.02000000000000E+0002
 51
 3.92000000000000E+0002
  0
LINE
  8
0
 10
 5.39545466131766E+0002
 20
 4.55289381809630E+0002
 11
 5.11591562324079E+0002
 21
 4.99999220338096E+0002
  0
ARC
  8
0
 10
 4.98150000000000E+0002
 20
 4.91600000000000E+0002
 40
 1.58500000000000E+0001
 50
 3.20000000000000E+0001
 51
 1.80000000000000E+0002
  0
LINE
  8
0
 10
 4.82300000000000E+0002
 20
 4.91600000000000E+0002
 11
 4.82337900000000E+0002
 21
 4.73787400000000E+0002
  0
LINE
  8
0
 10
 4.82337900000000E+0002
 20
 4.73787400000000E+0002
 11
 4.52678232885276E+0002
 21
 4.55966722662496E+0002
  0
ARC
  8
0
 10
 4.64550000000000E+0002
 20
 4.63100000000000E+0002
 40
 1.38500000000000E+0001
 50
 2.11000000000000E+0002
 51
 3.01000000000000E+0002
  0
LINE
  8
0
 10
 4.71683277337504E+0002
 20
 4.51228232885276E+0002
 11
 4.82337900000000E+0002
 21
 4.57635200000000E+0002
  0
LINE
  8
0
 10
 4.82337900000000E+0002
 20
 4.57635200000000E+0002
 11
 4.82337900000000E+0002
 21
 4.40150800000000E+0002
  0
CIRCLE
  8
0
 10
 4.88250000000000E+0002
 20
 5.29200000000000E+0002
 40
 1.60000000000000E+0001
  0
LINE
  8
0
 10
 8.48547000000000E+0001
 20
 1.46193500000000E+0002
 11
 8.48500000000000E+0001
 21
 5.51500000000000E+0001
  0
ARC
  8
0
 10
 8.48500000000000E+0001
 20
 7.10000000000000E+0001
 40
 1.58500000000000E+0001
 50
 2.70000000000000E+0002
 51
 3.60000000000000E+0002
  0
LINE
  8
0
 10
 1.00700000000000E+0002
 20
 7.10000000000000E+0001
 11
 1.00683000000000E+0002
 21
 1.26407300000000E+0002
  0
LINE
  8
0
 10
 1.00683000000000E+0002
 20
 1.26407300000000E+0002
 11
 1.40249220338096E+0002
 21
 6.30584376759207E+0001
  0
ARC
  8
0
 10
 1.31850000000000E+0002
 20
 7.65000000000000E+0001
 40
 1.58500000000000E+0001
 50
 3.02000000000000E+0002
 51
 3.92000000000000E+0002
  0
LINE
  8
0
 10
 1.45291562324079E+0002
 20
 8.48992203380963E+0001
 11
 1.16511400000000E+0002
 21
 1.30947000000000E+0002
  0
LINE
  8
0
 10
 1.16511400000000E+0002
 20
 1.30947000000000E+0002
 11
 1.16511400000000E+0002
 21
 1.46193500000000E+0002
  0
LINE
  8
0
 10
 1.16511400000000E+0002
 20
 1.46193500000000E+0002
 11
 8.48547000000000E+0001
 21
 1.46193500000000E+0002
  0
LINE
  8
0
 10
 8.48547000000000E+0001
 20
 1.50150900000000E+0002
 11
 1.16511400000000E+0002
 21
 1.50150900000000E+0002
  0
LINE
  8
0
 10
 1.16511400000000E+0002
 20
 1.50150900000000E+0002
 11
 1.16511400000000E+0002
 21
 1.80002000000000E+0002
  0
LINE
  8
0
 10
 1.16511400000000E+0002
 20
 1.80002000000000E+0002
 11
 1.37639381809630E+0002
 21
 1.46204533868234E+0002
  0
ARC
  8
0
 10
 1.30300000000000E+0002
 20
 1.57950000000000E+0002
 40
 1.38500000000000E+0001
 50
 3.02000000000000E+0002
 51
 3.92000000000000E+0002
  0
LINE
  8
0
 10
 1.42045466131766E+0002
 20
 1.65289381809630E+0002
 11
 1.14141562324079E+0002
 21
 2.09999220338096E+0002
  0
ARC
  8
0
 10
 1.00700000000000E+0002
 20
 2.01600000000000E+0002
 40
 1.58500000000000E+0001
 50
 3.20000000000000E+0001
 51
 1.80000000000000E+0002
  0
LINE
  8
0
 10
 8.48500000000000E+0001
 20
 2.01600000000000E+0002
 11
 8.48547000000000E+0001
 21
 1.83787400000000E+0002
  0
LINE
  8
0
 10
 8.48547000000000E+0001
 20
 1.83787400000000E+0002
 11
 5.51782328852757E+0001
 21
 1.65966722662496E+0002
  0
ARC
  8
0
 10
 6.70500000000000E+0001
 20
 1.73100000000000E+0002
 40
 1.38500000000000E+0001
 50
 2.11000000000000E+0002
 51
 3.01000000000000E+0002
  0
LINE
  8
0
 10
 7.41832773375043E+0001
 20
 1.61228232885276E+0002
 11
 8.48547000000000E+0001
 21
 1.67635300000000E+0002
  0
LINE
  8
0
 10
 8.48547000000000E+0001
 20
 1.67635300000000E+0002
 11
 8.48547000000000E+0001
 21
 1.50150900000000E+0002
  0
CIRCLE
  8
0
 10
 9.00000000000000E+0001
 20
 2.40000000000000E+0002
 40
 1.60000000000000E+0001
  0
CIRCLE
  8
0
 10
 5.06850000000000E+0002
 20
 2.40000000000000E+0002
 40
 1.60000000000000E+0001
  0
LINE
  8
0
 10
 5.06834200000000E+0002
 20
 1.16525700000000E+0002
 11
 5.45191569504144E+0002
 21
 1.16506766139583E+0002
  0
ARC
  8
0
 10
 4.68500000000000E+0002
 20
 1.05000000000000E+0002
 40
 7.75500000000000E+0001
 50
 8.53298000000000E+0000
 51
 4.12214600000000E+0001
  0
LINE
  8
0
 10
 5.26830639685897E+0002
 20
 1.56103218820678E+0002
 11
 5.26839755958599E+0002
 21
 1.56124259939526E+0002
  0
ARC
  8
0
 10
 5.06850000000000E+0002
 20
 1.74050000000000E+0002
 40
 2.68500000000000E+0001
 50
 3.18115950000000E+0002
 51
 3.60000000000000E+0002
  0
LINE
  8
0
 10
 5.33700000000000E+0002
 20
 1.74050000000000E+0002
 11
 5.33700000000000E+0002
 21
 1.89400000000000E+0002
  0
ARC
  8
0
 10
 5.06850000000000E+0002
 20
 1.89400000000000E+0002
 40
 2.68500000000000E+0001
 50
 0.00000000000000E+0000
 51
 1.80000000000000E+0002
  0
LINE
  8
0
 10
 4.80000000000000E+0002
 20
 1.89400000000000E+0002
 11
 4.80000000000000E+0002
 21
 1.75000000000000E+0002
  0
ARC
  8
0
 10
 5.06850000000000E+0002
 20
 1.75000000000000E+0002
 40
 2.68500000000000E+0001
 50
 1.80000000000000E+0002
 51
 2.21884620000000E+0002
  0
LINE
  8
0
 10
 4.86860422374406E+0002
 20
 1.57074061074790E+0002
 11
 4.86869494102217E+0002
 21
 1.56103371529761E+0002
  0
ARC
  8
0
 10
 5.45200000000000E+0002
 20
 1.05000000000000E+0002
 40
 7.75500000000000E+0001
 50
 1.38778390000000E+0002
 51
 1.71500000000000E+0002
  0
LINE
  8
0
 10
 4.68501819796283E+0002
 20
 1.16462619833101E+0002
 11
 5.06834200000000E+0002
 21
 1.16525700000000E+0002
  0
LINE
  8
0
 10
 5.08751800000000E+0002
 20
 1.12691500000000E+0002
 11
 5.20254400000000E+0002
 21
 1.12691500000000E+0002
  0
LINE
  8
0
 10
 5.20254400000000E+0002
 20
 1.12691500000000E+0002
 11
 5.20250000000000E+0002
 21
 6.09500000000000E+0001
  0
ARC
  8
0
 10
 5.14500000000000E+0002
 20
 6.09500000000000E+0001
 40
 5.75000000000000E+0000
 50
 1.80000000000000E+0002
 51
 3.60000000000000E+0002
  0
LINE
  8
0
 10
 5.08750000000000E+0002
 20
 6.09500000000000E+0001
 11
 5.08751800000000E+0002
 21
 1.12691500000000E+0002
  0
LINE
  8
0
 10
 4.93414000000000E+0002
 20
 1.12691500000000E+0002
 11
 5.04916600000000E+0002
 21
 1.12691500000000E+0002
  0
LINE
  8
0
 10
 5.04916600000000E+0002
 20
 1.12691500000000E+0002
 11
 5.04900000000000E+0002
 21
 7.24500000000000E+0001
  0
ARC
  8
0
 10
 4.99150000000000E+0002
 20
 7.24500000000000E+0001
 40
 5.75000000000000E+0000
 50
 1.80000000000000E+0002
 51
 3.60000000000000E+0002
  0
LINE
  8
0
 10
 4.93400000000000E+0002
 20
 7.24500000000000E+0001
 11
 4.93414000000000E+0002
 21
 1.12691500000000E+0002
  0
LINE
  8
0
 10
 5.22170100000000E+0002
 20
 1.60992900000000E+0002
 11
 5.19451499332446E+0002
 21
 1.63603985770756E+0002
  0
ARC
  8
0
 10
 5.22150000000000E+0002
 20
 1.66350000000000E+0002
 40
 3.85000000000000E+0000
 50
 1.80000000000000E+0002
 51
 2.25500000000000E+0002
  0
LINE
  8
0
 10
 5.18300000000000E+0002
 20
 1.66350000000000E+0002
 11
 5.18350000000000E+0002
 21
 1.95150000000000E+0002
  0
ARC
  8
0
 10
 5.20250000000000E+0002
 20
 1.95150000000000E+0002
 40
 1.90000000000000E+0000
 50
 0.00000000000000E+0000
 51
 1.80000000000000E+0002
  0
LINE
  8
0
 10
 5.22150000000000E+0002
 20
 1.95150000000000E+0002
 11
 5.22170100000000E+0002
 21
 1.60992900000000E+0002
  0
LINE
  8
0
 10
 4.91467100000000E+0002
 20
 1.60992900000000E+0002
 11
 4.94148500667554E+0002
 21
 1.63603985770756E+0002
  0
ARC
  8
0
 10
 4.91450000000000E+0002
 20
 1.66350000000000E+0002
 40
 3.85000000000000E+0000
 50
 3.14500000000000E+0002
 51
 3.60000000000000E+0002
  0
LINE
  8
0
 10
 4.95300000000000E+0002
 20
 1.66350000000000E+0002
 11
 4.95300000000000E+0002
 21
 1.95150000000000E+0002
  0
ARC
  8
0
 10
 4.93400000000000E+0002
 20
 1.95150000000000E+0002
 40
 1.90000000000000E+0000
 50
 0.00000000000000E+0000
 51
 1.80000000000000E+0002
  0
LINE
  8
0
 10
 4.91500000000000E+0002
 20
 1.95150000000000E+0002
 11
 4.91467100000000E+0002
 21
 1.60992900000000E+0002
  0
ARC
  8
0
 10
 1.75150000000000E+0002
 20
 3.06450000000000E+0002
 40
 1.87500000000000E+0001
 50
 1.43115790000000E+0002
 51
 1.80000000000000E+0002
  0
LINE
  8
0
 10
 1.60152810692129E+0002
 20
 3.17703746614523E+0002
 11
 1.63910463545041E+0002
 21
 3.22680618068905E+0002
  0
ARC
  8
0
 10
 1.18950000000000E+0002
 20
 3.56400000000000E+0002
 40
 5.62000000000000E+0001
 50
 3.23130890000000E+0002
 51
 3.36500000000000E+0002
  0
LINE
  8
0
 10
 1.70488776180444E+0002
 20
 3.33990302326401E+0002
 11
 1.95245458173007E+0002
 21
 3.90774153205040E+0002
  0
ARC
  8
0
 10
 2.09550000000000E+0002
 20
 3.84550000000000E+0002
 40
 1.56000000000000E+0001
 50
 9.00000000000000E+0001
 51
 1.56485310000000E+0002
  0
LINE
  8
0
 10
 2.09550000000000E+0002
 20
 4.00150000000000E+0002
 11
 2.87681200000000E+0002
 21
 4.00177100000000E+0002
  0
LINE
  8
0
 10
 2.87681200000000E+0002
 20
 4.00177100000000E+0002
 11
 2.87681200000000E+0002
 21
 3.84553000000000E+0002
  0
LINE
  8
0
 10
 2.87681200000000E+0002
 20
 3.84553000000000E+0002
 11
 2.13350000000000E+0002
 21
 3.84550000000000E+0002
  0
ARC
  8
0
 10
 2.13350000000000E+0002
 20
 3.78300000000000E+0002
 40
 6.25000000000000E+0000
 50
 9.00000000000000E+0001
 51
 1.56500000000000E+0002
  0
LINE
  8
0
 10
 2.07618374535093E+0002
 20
 3.80792181680783E+0002
 11
 1.86117100000000E+0002
 21
 3.31427000000000E+0002
  0
LINE
  8
0
 10
 1.86117100000000E+0002
 20
 3.31427000000000E+0002
 11
 2.87681200000000E+0002
 21
 3.31427000000000E+0002
  0
LINE
  8
0
 10
 2.87681200000000E+0002
 20
 3.31427000000000E+0002
 11
 2.87681200000000E+0002
 21
 2.50175400000000E+0002
  0
LINE
  8
0
 10
 2.87681200000000E+0002
 20
 2.50175400000000E+0002
 11
 1.72050000000000E+0002
 21
 2.50150000000000E+0002
  0
ARC
  8
0
 10
 1.72050000000000E+0002
 20
 2.65800000000000E+0002
 40
 1.56500000000000E+0001
 50
 1.80000000000000E+0002
 51
 2.70000000000000E+0002
  0
LINE
  8
0
 10
 1.56400000000000E+0002
 20
 2.65800000000000E+0002
 11
 1.56430400000000E+0002
 21
 3.06426500000000E+0002
  0
LINE
  8
0
 10
 1.72053200000000E+0002
 20
 2.43925300000000E+0002
 11
 2.09553800000000E+0002
 21
 2.43925300000000E+0002
  0
LINE
  8
0
 10
 2.09553800000000E+0002
 20
 2.43925300000000E+0002
 11
 2.09600000000000E+0002
 21
 2.09550000000000E+0002
  0
ARC
  8
0
 10
 2.00200000000000E+0002
 20
 2.09550000000000E+0002
 40
 9.40000000000000E+0000
 50
 2.70000000000000E+0002
 51
 3.60000000000000E+0002
  0
LINE
  8
0
 10
 2.00200000000000E+0002
 20
 2.00150000000000E+0002
 11
 1.81450000000000E+0002
 21
 2.00150000000000E+0002
  0
ARC
  8
0
 10
 1.81450000000000E+0002
 20
 2.09550000000000E+0002
 40
 9.40000000000000E+0000
 50
 1.80000000000000E+0002
 51
 2.70000000000000E+0002
  0
LINE
  8
0
 10
 1.72050000000000E+0002
 20
 2.09550000000000E+0002
 11
 1.72053200000000E+0002
 21
 2.43925300000000E+0002
  0
CIRCLE
  8
0
 10
 1.91250000000000E+0002
 20
 2.97500000000000E+0002
 40
 1.87500000000000E+0001
  0
LINE
  8
0
 10
 3.12671600000000E+0002
 20
 4.00177100000000E+0002
 11
 3.90800000000000E+0002
 21
 4.00150000000000E+0002
  0
ARC
  8
0
 10
 3.90800000000000E+0002
 20
 3.84550000000000E+0002
 40
 1.56000000000000E+0001
 50
 2.35125500000000E+0001
 51
 9.00000000000000E+0001
  0
LINE
  8
0
 10
 4.05104774289424E+0002
 20
 3.90773618925404E+0002
 11
 4.29971269119475E+0002
 21
 3.34017213863577E+0002
  0
ARC
  8
0
 10
 4.81500000000000E+0002
 20
 3.56450000000000E+0002
 40
 5.62000000000000E+0001
 50
 2.03525670000000E+0002
 51
 2.16855390000000E+0002
  0
LINE
  8
0
 10
 4.36531463328745E+0002
 20
 3.22741385230983E+0002
 11
 4.40197393576929E+0002
 21
 3.17703474392324E+0002
  0
ARC
  8
0
 10
 4.25200000000000E+0002
 20
 3.06450000000000E+0002
 40
 1.87500000000000E+0001
 50
 0.00000000000000E+0000
 51
 3.68831700000000E+0001
  0
LINE
  8
0
 10
 4.43950000000000E+0002
 20
 3.06450000000000E+0002
 11
 4.43900000000000E+0002
 21
 2.65800000000000E+0002
  0
ARC
  8
0
 10
 4.28300000000000E+0002
 20
 2.65800000000000E+0002
 40
 1.56000000000000E+0001
 50
 2.70000000000000E+0002
 51
 3.60000000000000E+0002
  0
LINE
  8
0
 10
 4.28300000000000E+0002
 20
 2.50200000000000E+0002
 11
 3.12671600000000E+0002
 21
 2.50175400000000E+0002
  0
LINE
  8
0
 10
 3.12671600000000E+0002
 20
 2.50175400000000E+0002
 11
 3.12671600000000E+0002
 21
 3.31427000000000E+0002
  0
LINE
  8
0
 10
 3.12671600000000E+0002
 20
 3.31427000000000E+0002
 11
 3.13412900000000E+0002
 21
 3.31427000000000E+0002
  0
LINE
  8
0
 10
 3.13412900000000E+0002
 20
 3.31427000000000E+0002
 11
 4.14235700000000E+0002
 21
 3.31427000000000E+0002
  0
LINE
  8
0
 10
 4.14235700000000E+0002
 20
 3.31427000000000E+0002
 11
 3.92731625464907E+0002
 21
 3.80792181680783E+0002
  0
ARC
  8
0
 10
 3.87000000000000E+0002
 20
 3.78300000000000E+0002
 40
 6.25000000000000E+0000
 50
 2.35000000000000E+0001
 51
 9.00000000000000E+0001
  0
LINE
  8
0
 10
 3.87000000000000E+0002
 20
 3.84550000000000E+0002
 11
 3.12671600000000E+0002
 21
 3.84553000000000E+0002
  0
LINE
  8
0
 10
 3.12671600000000E+0002
 20
 3.84553000000000E+0002
 11
 3.12671600000000E+0002
 21
 4.00177100000000E+0002
  0
LINE
  8
0
 10
 3.90796500000000E+0002
 20
 2.43925300000000E+0002
 11
 4.28298400000000E+0002
 21
 2.43925300000000E+0002
  0
LINE
  8
0
 10
 4.28298400000000E+0002
 20
 2.43925300000000E+0002
 11
 4.28300000000000E+0002
 21
 2.09550000000000E+0002
  0
ARC
  8
0
 10
 4.18900000000000E+0002
 20
 2.09550000000000E+0002
 40
 9.40000000000000E+0000
 50
 2.70000000000000E+0002
 51
 3.60000000000000E+0002
  0
LINE
  8
0
 10
 4.18900000000000E+0002
 20
 2.00150000000000E+0002
 11
 4.00150000000000E+0002
 21
 2.00150000000000E+0002
  0
ARC
  8
0
 10
 4.00150000000000E+0002
 20
 2.09550000000000E+0002
 40
 9.40000000000000E+0000
 50
 1.80000000000000E+0002
 51
 2.70000000000000E+0002
  0
LINE
  8
0
 10
 3.90750000000000E+0002
 20
 2.09550000000000E+0002
 11
 3.90796500000000E+0002
 21
 2.43925300000000E+0002
  0
CIRCLE
  8
0
 10
 4.09550000000000E+0002
 20
 2.97500000000000E+0002
 40
 1.87500000000000E+0001
  0
ENDSEC
  0
EOF
