  0
SECTION
  2
HEADER
  9
$ACADVER
  1
AC1003
  9
$INSBASE
 10
0.0
 20
0.0
  9
$EXTMIN
 10
 0.00000000000000E+0000
 20
 0.00000000000000E+0000
  9
$EXTMAX
 10
 1.60000000000000E+0003
 20
 1.60000000000000E+0003
  9
$LIMMIN
 10
0.0
 20
0.0
  9
$LIMMAX
 10
410.0
 20
287.0
  9
$VIEWCTR
 10
227.0059616
 20
165.058879 
  9
$VIEWSIZE
 40
 1.60000000000000E+0003
9
$SNAPMODE
70
0
9
$SNAPUNIT
10
1
20
1
9
$GRIDMODE
70
0
9
$GRIDUNIT
10
1
20
1
9
$ORTHOMODE
70
0
9
$rEGENMODE
70
1
9
$FILLMODE
70
1
9
$DRAGMODE
70
2
9
$LTSCALE
40
25.0
9
$OSMODE
70
0
9
$ATTMODE
70
1
9
$TRACEWID
40
1.0
9
$TEXTSTYLE
7
STANDARD
9
$CLAYER
8
0
9
$CELTYPE
6
VONLAYER
9
$CECOLOR
62
256
9
$LUNITS
70
2
9
$LUPREC
70
2
9
$AXISMODE
70
0
9
$AXISUNIT
10
0
20
0
9
$SKETCHINC
40
1.0
9
$FILLETRAD
40
0.0
9
$AUNITS
70
0
9
$AUPREC
70
0
9
$MENU
1
ACAD
9
$ELEVATION
40
0.0
9
$THICKNESS
40
0.0
9
$VIEWDIR
10
0.0
20
0.0
30
1.0
9
$LIMCHECK
70
0
9
$BLIPMODE
70
1
9
$CHAMFERA
40
0.0
9
$CHAMFERB
40
0.0
9
$USRTIMER
70
1
9
$ANGBASE
50
0.0
9
$ANGDIR
70
0
9
$PDMODE
70
0
9
$PDSIZE
40
0.0
9
$PLINEWID
40
0.0
9
$COORDS
70
0
0
ENDSEC
0
SECTION
2
TABLES
0
TABLE
2
LTYPE
70
1
0
LTYPE
2
AUSGEZOGEN
70
64
3
Ausgezogene Linie
72
65
73
0
40
0.0
0
ENDTAB
0
TABLE
2
LAYER
70
1
0
LAYER
2
0
70
0
62
7
6
AUSGEZOGEN
0
ENDTAB
0
TABLE
2
STYLE
70
1
0
STYLE
2
STANDARD
70
0
40
0.0
41
1.0
50
0.0
71
0
42
3.5
3
txt
4

0
ENDTAB
0
TABLE
2
VIEW
70
0
0
ENDTAB
0
ENDSEC
0
SECTION
2
BLOCKS
0
ENDSEC
0
SECTION
2
ENTITIES
  0
ARC
  8
0
 10
 1.54000000000000E+0003
 20
 6.00000000000000E+0001
 40
 6.00000000000000E+0001
 50
 2.70000000000000E+0002
 51
 3.60000000000000E+0002
  0
LINE
  8
0
 10
 1.60000000000000E+0003
 20
 6.00000000000000E+0001
 11
 1.60000000000000E+0003
 21
 1.54000000000000E+0003
  0
ARC
  8
0
 10
 1.54000000000000E+0003
 20
 1.54000000000000E+0003
 40
 6.00000000000000E+0001
 50
 0.00000000000000E+0000
 51
 9.00000000000000E+0001
  0
LINE
  8
0
 10
 1.54000000000000E+0003
 20
 1.60000000000000E+0003
 11
 6.00000000000000E+0001
 21
 1.60000000000000E+0003
  0
ARC
  8
0
 10
 6.00000000000000E+0001
 20
 1.54000000000000E+0003
 40
 6.00000000000000E+0001
 50
 9.00000000000000E+0001
 51
 1.80000000000000E+0002
  0
LINE
  8
0
 10
 0.00000000000000E+0000
 20
 1.54000000000000E+0003
 11
 0.00000000000000E+0000
 21
 6.00000000000000E+0001
  0
ARC
  8
0
 10
 6.00000000000000E+0001
 20
 6.00000000000000E+0001
 40
 6.00000000000000E+0001
 50
 1.80000000000000E+0002
 51
 2.70000000000000E+0002
  0
LINE
  8
0
 10
 6.00000000000000E+0001
 20
 0.00000000000000E+0000
 11
 1.54000000000000E+0003
 21
 0.00000000000000E+0000
  0
ARC
  8
0
 10
 1.54000000000000E+0003
 20
 6.00000000000000E+0001
 40
 4.50000000000000E+0001
 50
 2.70000000000000E+0002
 51
 3.60000000000000E+0002
  0
LINE
  8
0
 10
 1.58500000000000E+0003
 20
 6.00000000000000E+0001
 11
 1.58500000000000E+0003
 21
 1.54000000000000E+0003
  0
ARC
  8
0
 10
 1.54000000000000E+0003
 20
 1.54000000000000E+0003
 40
 4.50000000000000E+0001
 50
 0.00000000000000E+0000
 51
 9.00000000000000E+0001
  0
LINE
  8
0
 10
 1.54000000000000E+0003
 20
 1.58500000000000E+0003
 11
 6.00000000000000E+0001
 21
 1.58500000000000E+0003
  0
ARC
  8
0
 10
 6.00000000000000E+0001
 20
 1.54000000000000E+0003
 40
 4.50000000000000E+0001
 50
 9.00000000000000E+0001
 51
 1.80000000000000E+0002
  0
LINE
  8
0
 10
 1.50000000000000E+0001
 20
 1.54000000000000E+0003
 11
 1.50000000000000E+0001
 21
 6.00000000000000E+0001
  0
ARC
  8
0
 10
 6.00000000000000E+0001
 20
 6.00000000000000E+0001
 40
 4.50000000000000E+0001
 50
 1.80000000000000E+0002
 51
 2.70000000000000E+0002
  0
LINE
  8
0
 10
 6.00000000000000E+0001
 20
 1.50000000000000E+0001
 11
 1.54000000000000E+0003
 21
 1.50000000000000E+0001
  0
ARC
  8
0
 10
 1.54000000000000E+0003
 20
 6.00000000000000E+0001
 40
 2.50000000000000E+0001
 50
 2.70000000000000E+0002
 51
 3.60000000000000E+0002
  0
LINE
  8
0
 10
 1.56500000000000E+0003
 20
 6.00000000000000E+0001
 11
 1.56500000000000E+0003
 21
 1.54000000000000E+0003
  0
ARC
  8
0
 10
 1.54000000000000E+0003
 20
 1.54000000000000E+0003
 40
 2.50000000000000E+0001
 50
 0.00000000000000E+0000
 51
 9.00000000000000E+0001
  0
LINE
  8
0
 10
 1.54000000000000E+0003
 20
 1.56500000000000E+0003
 11
 6.00000000000000E+0001
 21
 1.56500000000000E+0003
  0
ARC
  8
0
 10
 6.00000000000000E+0001
 20
 1.54000000000000E+0003
 40
 2.50000000000000E+0001
 50
 9.00000000000000E+0001
 51
 1.80000000000000E+0002
  0
LINE
  8
0
 10
 3.50000000000000E+0001
 20
 1.54000000000000E+0003
 11
 3.50000000000000E+0001
 21
 6.00000000000000E+0001
  0
ARC
  8
0
 10
 6.00000000000000E+0001
 20
 6.00000000000000E+0001
 40
 2.50000000000000E+0001
 50
 1.80000000000000E+0002
 51
 2.70000000000000E+0002
  0
LINE
  8
0
 10
 6.00000000000000E+0001
 20
 3.50000000000000E+0001
 11
 1.54000000000000E+0003
 21
 3.50000000000000E+0001
  0
LINE
  8
0
 10
 1.97500000000000E+0002
 20
 1.32500000000000E+0003
 11
 1.97500000000000E+0002
 21
 1.20500000000000E+0003
  0
ARC
  8
0
 10
 5.22500000000000E+0002
 20
 1.20500000000000E+0003
 40
 3.25000000000000E+0002
 50
 1.80000000000000E+0002
 51
 2.10960000000000E+0002
  0
LINE
  8
0
 10
 2.43803836737063E+0002
 20
 1.03780715152101E+0003
 11
 2.67647762634556E+0002
 21
 9.98059220505880E+0002
  0
ARC
  8
0
 10
-6.25000000000000E+0001
 20
 8.00000000000000E+0002
 40
 3.85000000000000E+0002
 50
 3.29040000000000E+0002
 51
 3.90960000000000E+0002
  0
LINE
  8
0
 10
 2.67647762634556E+0002
 20
 6.01940779494120E+0002
 11
 2.43803836737063E+0002
 21
 5.62192848478990E+0002
  0
ARC
  8
0
 10
 5.22500000000000E+0002
 20
 3.95000000000000E+0002
 40
 3.25000000000000E+0002
 50
 1.49040000000000E+0002
 51
 1.80000000000000E+0002
  0
LINE
  8
0
 10
 1.97500000000000E+0002
 20
 3.95000000000000E+0002
 11
 1.97500000000000E+0002
 21
 2.93000000000000E+0002
  0
LINE
  8
0
 10
 1.97500000000000E+0002
 20
 2.93000000000000E+0002
 11
 2.42500509446390E+0002
 21
 3.04619081565201E+0002
  0
ARC
  8
0
 10
 2.45500000000000E+0002
 20
 2.93000000000000E+0002
 40
 1.20000000000000E+0001
 50
 3.26195000000000E+0002
 51
 4.64475000000000E+0002
  0
LINE
  8
0
 10
 2.55471231041917E+0002
 20
 2.86323582434515E+0002
 11
 1.67500000000000E+0002
 21
 1.55000000000000E+0002
  0
LINE
  8
0
 10
 1.67500000000000E+0002
 20
 1.55000000000000E+0002
 11
 7.95287689580835E+0001
 21
 2.86323582434515E+0002
  0
ARC
  8
0
 10
 8.95000000000000E+0001
 20
 2.93000000000000E+0002
 40
 1.20000000000000E+0001
 50
 7.55250000000000E+0001
 51
 2.13805000000000E+0002
  0
LINE
  8
0
 10
 9.24994905536102E+0001
 20
 3.04619081565201E+0002
 11
 1.37500000000000E+0002
 21
 2.93000000000000E+0002
  0
LINE
  8
0
 10
 1.37500000000000E+0002
 20
 2.93000000000000E+0002
 11
 1.37500000000000E+0002
 21
 3.95000000000000E+0002
  0
ARC
  8
0
 10
 5.22500000000000E+0002
 20
 3.95000000000000E+0002
 40
 3.85000000000000E+0002
 50
 1.49040000000000E+0002
 51
 1.80000000000000E+0002
  0
LINE
  8
0
 10
 1.92352237365444E+0002
 20
 5.93059220505880E+0002
 11
 2.16196163262937E+0002
 21
 6.32807151521010E+0002
  0
ARC
  8
0
 10
-6.25000000000000E+0001
 20
 8.00000000000000E+0002
 40
 3.25000000000000E+0002
 50
 3.29040000000000E+0002
 51
 3.90960000000000E+0002
  0
LINE
  8
0
 10
 2.16196163262937E+0002
 20
 9.67192848478990E+0002
 11
 1.92352237365444E+0002
 21
 1.00694077949412E+0003
  0
ARC
  8
0
 10
 5.22500000000000E+0002
 20
 1.20500000000000E+0003
 40
 3.85000000000000E+0002
 50
 1.80000000000000E+0002
 51
 2.10960000000000E+0002
  0
LINE
  8
0
 10
 1.37500000000000E+0002
 20
 1.20500000000000E+0003
 11
 1.37500000000000E+0002
 21
 1.32500000000000E+0003
  0
LINE
  8
0
 10
 1.37500000000000E+0002
 20
 1.32500000000000E+0003
 11
 1.97500000000000E+0002
 21
 1.32500000000000E+0003
  0
LINE
  8
0
 10
 4.37500000000000E+0002
 20
 1.32500000000000E+0003
 11
 4.37500000000000E+0002
 21
 1.20500000000000E+0003
  0
ARC
  8
0
 10
 7.62500000000000E+0002
 20
 1.20500000000000E+0003
 40
 3.25000000000000E+0002
 50
 1.80000000000000E+0002
 51
 2.10960000000000E+0002
  0
LINE
  8
0
 10
 4.83803836737063E+0002
 20
 1.03780715152101E+0003
 11
 5.07647762634556E+0002
 21
 9.98059220505880E+0002
  0
ARC
  8
0
 10
 1.77500000000000E+0002
 20
 8.00000000000000E+0002
 40
 3.85000000000000E+0002
 50
 3.29040000000000E+0002
 51
 3.90960000000000E+0002
  0
LINE
  8
0
 10
 5.07647762634556E+0002
 20
 6.01940779494120E+0002
 11
 4.83803836737063E+0002
 21
 5.62192848478990E+0002
  0
ARC
  8
0
 10
 7.62500000000000E+0002
 20
 3.95000000000000E+0002
 40
 3.25000000000000E+0002
 50
 1.49040000000000E+0002
 51
 1.80000000000000E+0002
  0
LINE
  8
0
 10
 4.37500000000000E+0002
 20
 3.95000000000000E+0002
 11
 4.37500000000000E+0002
 21
 2.93000000000000E+0002
  0
LINE
  8
0
 10
 4.37500000000000E+0002
 20
 2.93000000000000E+0002
 11
 4.82500509446390E+0002
 21
 3.04619081565201E+0002
  0
ARC
  8
0
 10
 4.85500000000000E+0002
 20
 2.93000000000000E+0002
 40
 1.20000000000000E+0001
 50
 3.26195000000000E+0002
 51
 4.64475000000000E+0002
  0
LINE
  8
0
 10
 4.95471231041916E+0002
 20
 2.86323582434515E+0002
 11
 4.07500000000000E+0002
 21
 1.55000000000000E+0002
  0
LINE
  8
0
 10
 4.07500000000000E+0002
 20
 1.55000000000000E+0002
 11
 3.19528768958084E+0002
 21
 2.86323582434515E+0002
  0
ARC
  8
0
 10
 3.29500000000000E+0002
 20
 2.93000000000000E+0002
 40
 1.20000000000000E+0001
 50
 7.55250000000000E+0001
 51
 2.13805000000000E+0002
  0
LINE
  8
0
 10
 3.32499490553610E+0002
 20
 3.04619081565201E+0002
 11
 3.77500000000000E+0002
 21
 2.93000000000000E+0002
  0
LINE
  8
0
 10
 3.77500000000000E+0002
 20
 2.93000000000000E+0002
 11
 3.77500000000000E+0002
 21
 3.95000000000000E+0002
  0
ARC
  8
0
 10
 7.62500000000000E+0002
 20
 3.95000000000000E+0002
 40
 3.85000000000000E+0002
 50
 1.49040000000000E+0002
 51
 1.80000000000000E+0002
  0
LINE
  8
0
 10
 4.32352237365444E+0002
 20
 5.93059220505880E+0002
 11
 4.56196163262937E+0002
 21
 6.32807151521010E+0002
  0
ARC
  8
0
 10
 1.77500000000000E+0002
 20
 8.00000000000000E+0002
 40
 3.25000000000000E+0002
 50
 3.29040000000000E+0002
 51
 3.90960000000000E+0002
  0
LINE
  8
0
 10
 4.56196163262937E+0002
 20
 9.67192848478990E+0002
 11
 4.32352237365444E+0002
 21
 1.00694077949412E+0003
  0
ARC
  8
0
 10
 7.62500000000000E+0002
 20
 1.20500000000000E+0003
 40
 3.85000000000000E+0002
 50
 1.80000000000000E+0002
 51
 2.10960000000000E+0002
  0
LINE
  8
0
 10
 3.77500000000000E+0002
 20
 1.20500000000000E+0003
 11
 3.77500000000000E+0002
 21
 1.32500000000000E+0003
  0
LINE
  8
0
 10
 3.77500000000000E+0002
 20
 1.32500000000000E+0003
 11
 4.37500000000000E+0002
 21
 1.32500000000000E+0003
  0
LINE
  8
0
 10
 6.77500000000000E+0002
 20
 1.32500000000000E+0003
 11
 6.77500000000000E+0002
 21
 1.20500000000000E+0003
  0
ARC
  8
0
 10
 1.00250000000000E+0003
 20
 1.20500000000000E+0003
 40
 3.25000000000000E+0002
 50
 1.80000000000000E+0002
 51
 2.10960000000000E+0002
  0
LINE
  8
0
 10
 7.23803836737063E+0002
 20
 1.03780715152101E+0003
 11
 7.47647762634556E+0002
 21
 9.98059220505880E+0002
  0
ARC
  8
0
 10
 4.17500000000000E+0002
 20
 8.00000000000000E+0002
 40
 3.85000000000000E+0002
 50
 3.29040000000000E+0002
 51
 3.90960000000000E+0002
  0
LINE
  8
0
 10
 7.47647762634556E+0002
 20
 6.01940779494120E+0002
 11
 7.23803836737063E+0002
 21
 5.62192848478990E+0002
  0
ARC
  8
0
 10
 1.00250000000000E+0003
 20
 3.95000000000000E+0002
 40
 3.25000000000000E+0002
 50
 1.49040000000000E+0002
 51
 1.80000000000000E+0002
  0
LINE
  8
0
 10
 6.77500000000000E+0002
 20
 3.95000000000000E+0002
 11
 6.77500000000000E+0002
 21
 2.93000000000000E+0002
  0
LINE
  8
0
 10
 6.77500000000000E+0002
 20
 2.93000000000000E+0002
 11
 7.22500509446390E+0002
 21
 3.04619081565201E+0002
  0
ARC
  8
0
 10
 7.25500000000000E+0002
 20
 2.93000000000000E+0002
 40
 1.20000000000000E+0001
 50
 3.26195000000000E+0002
 51
 4.64475000000000E+0002
  0
LINE
  8
0
 10
 7.35471231041917E+0002
 20
 2.86323582434515E+0002
 11
 6.47500000000000E+0002
 21
 1.55000000000000E+0002
  0
LINE
  8
0
 10
 6.47500000000000E+0002
 20
 1.55000000000000E+0002
 11
 5.59528768958084E+0002
 21
 2.86323582434515E+0002
  0
ARC
  8
0
 10
 5.69500000000000E+0002
 20
 2.93000000000000E+0002
 40
 1.20000000000000E+0001
 50
 7.55250000000000E+0001
 51
 2.13805000000000E+0002
  0
LINE
  8
0
 10
 5.72499490553610E+0002
 20
 3.04619081565201E+0002
 11
 6.17500000000000E+0002
 21
 2.93000000000000E+0002
  0
LINE
  8
0
 10
 6.17500000000000E+0002
 20
 2.93000000000000E+0002
 11
 6.17500000000000E+0002
 21
 3.95000000000000E+0002
  0
ARC
  8
0
 10
 1.00250000000000E+0003
 20
 3.95000000000000E+0002
 40
 3.85000000000000E+0002
 50
 1.49040000000000E+0002
 51
 1.80000000000000E+0002
  0
LINE
  8
0
 10
 6.72352237365444E+0002
 20
 5.93059220505880E+0002
 11
 6.96196163262937E+0002
 21
 6.32807151521010E+0002
  0
ARC
  8
0
 10
 4.17500000000000E+0002
 20
 8.00000000000000E+0002
 40
 3.25000000000000E+0002
 50
 3.29040000000000E+0002
 51
 3.90960000000000E+0002
  0
LINE
  8
0
 10
 6.96196163262937E+0002
 20
 9.67192848478990E+0002
 11
 6.72352237365444E+0002
 21
 1.00694077949412E+0003
  0
ARC
  8
0
 10
 1.00250000000000E+0003
 20
 1.20500000000000E+0003
 40
 3.85000000000000E+0002
 50
 1.80000000000000E+0002
 51
 2.10960000000000E+0002
  0
LINE
  8
0
 10
 6.17500000000000E+0002
 20
 1.20500000000000E+0003
 11
 6.17500000000000E+0002
 21
 1.32500000000000E+0003
  0
LINE
  8
0
 10
 6.17500000000000E+0002
 20
 1.32500000000000E+0003
 11
 6.77500000000000E+0002
 21
 1.32500000000000E+0003
  0
LINE
  8
0
 10
 9.17500000000000E+0002
 20
 2.75000000000000E+0002
 11
 9.17500000000000E+0002
 21
 3.95000000000000E+0002
  0
ARC
  8
0
 10
 1.24250000000000E+0003
 20
 3.95000000000000E+0002
 40
 3.25000000000000E+0002
 50
 1.49040000000000E+0002
 51
 1.80000000000000E+0002
  0
LINE
  8
0
 10
 9.63803836737063E+0002
 20
 5.62192848478990E+0002
 11
 9.87647762634556E+0002
 21
 6.01940779494120E+0002
  0
ARC
  8
0
 10
 6.57500000000000E+0002
 20
 8.00000000000000E+0002
 40
 3.85000000000000E+0002
 50
 3.29040000000000E+0002
 51
 3.90960000000000E+0002
  0
LINE
  8
0
 10
 9.87647762634556E+0002
 20
 9.98059220505880E+0002
 11
 9.63803836737063E+0002
 21
 1.03780715152101E+0003
  0
ARC
  8
0
 10
 1.24250000000000E+0003
 20
 1.20500000000000E+0003
 40
 3.25000000000000E+0002
 50
 1.80000000000000E+0002
 51
 2.10960000000000E+0002
  0
LINE
  8
0
 10
 9.17500000000000E+0002
 20
 1.20500000000000E+0003
 11
 9.17500000000000E+0002
 21
 1.30700000000000E+0003
  0
LINE
  8
0
 10
 9.17500000000000E+0002
 20
 1.30700000000000E+0003
 11
 9.62500509446390E+0002
 21
 1.29538091843480E+0003
  0
ARC
  8
0
 10
 9.65500000000000E+0002
 20
 1.30700000000000E+0003
 40
 1.20000000000000E+0001
 50
 2.55525000000000E+0002
 51
 3.93805000000000E+0002
  0
LINE
  8
0
 10
 9.75471231041917E+0002
 20
 1.31367641756549E+0003
 11
 8.87500000000000E+0002
 21
 1.44500000000000E+0003
  0
LINE
  8
0
 10
 8.87500000000000E+0002
 20
 1.44500000000000E+0003
 11
 7.99528768958083E+0002
 21
 1.31367641756549E+0003
  0
ARC
  8
0
 10
 8.09500000000000E+0002
 20
 1.30700000000000E+0003
 40
 1.20000000000000E+0001
 50
 1.46195000000000E+0002
 51
 2.84475000000000E+0002
  0
LINE
  8
0
 10
 8.12499490553610E+0002
 20
 1.29538091843480E+0003
 11
 8.57500000000000E+0002
 21
 1.30700000000000E+0003
  0
LINE
  8
0
 10
 8.57500000000000E+0002
 20
 1.30700000000000E+0003
 11
 8.57500000000000E+0002
 21
 1.20500000000000E+0003
  0
ARC
  8
0
 10
 1.24250000000000E+0003
 20
 1.20500000000000E+0003
 40
 3.85000000000000E+0002
 50
 1.80000000000000E+0002
 51
 2.10960000000000E+0002
  0
LINE
  8
0
 10
 9.12352237365444E+0002
 20
 1.00694077949412E+0003
 11
 9.36196163262937E+0002
 21
 9.67192848478990E+0002
  0
ARC
  8
0
 10
 6.57500000000000E+0002
 20
 8.00000000000000E+0002
 40
 3.25000000000000E+0002
 50
 3.29040000000000E+0002
 51
 3.90960000000000E+0002
  0
LINE
  8
0
 10
 9.36196163262937E+0002
 20
 6.32807151521010E+0002
 11
 9.12352237365444E+0002
 21
 5.93059220505880E+0002
  0
ARC
  8
0
 10
 1.24250000000000E+0003
 20
 3.95000000000000E+0002
 40
 3.85000000000000E+0002
 50
 1.49040000000000E+0002
 51
 1.80000000000000E+0002
  0
LINE
  8
0
 10
 8.57500000000000E+0002
 20
 3.95000000000000E+0002
 11
 8.57500000000000E+0002
 21
 2.75000000000000E+0002
  0
LINE
  8
0
 10
 8.57500000000000E+0002
 20
 2.75000000000000E+0002
 11
 9.17500000000000E+0002
 21
 2.75000000000000E+0002
  0
LINE
  8
0
 10
 1.15750000000000E+0003
 20
 2.75000000000000E+0002
 11
 1.15750000000000E+0003
 21
 3.95000000000000E+0002
  0
ARC
  8
0
 10
 1.48250000000000E+0003
 20
 3.95000000000000E+0002
 40
 3.25000000000000E+0002
 50
 1.49040000000000E+0002
 51
 1.80000000000000E+0002
  0
LINE
  8
0
 10
 1.20380383673706E+0003
 20
 5.62192848478990E+0002
 11
 1.22764776263456E+0003
 21
 6.01940779494120E+0002
  0
ARC
  8
0
 10
 8.97500000000000E+0002
 20
 8.00000000000000E+0002
 40
 3.85000000000000E+0002
 50
 3.29040000000000E+0002
 51
 3.90960000000000E+0002
  0
LINE
  8
0
 10
 1.22764776263456E+0003
 20
 9.98059220505880E+0002
 11
 1.20380383673706E+0003
 21
 1.03780715152101E+0003
  0
ARC
  8
0
 10
 1.48250000000000E+0003
 20
 1.20500000000000E+0003
 40
 3.25000000000000E+0002
 50
 1.80000000000000E+0002
 51
 2.10960000000000E+0002
  0
LINE
  8
0
 10
 1.15750000000000E+0003
 20
 1.20500000000000E+0003
 11
 1.15750000000000E+0003
 21
 1.30700000000000E+0003
  0
LINE
  8
0
 10
 1.15750000000000E+0003
 20
 1.30700000000000E+0003
 11
 1.20250050944639E+0003
 21
 1.29538091843480E+0003
  0
ARC
  8
0
 10
 1.20550000000000E+0003
 20
 1.30700000000000E+0003
 40
 1.20000000000000E+0001
 50
 2.55525000000000E+0002
 51
 3.93805000000000E+0002
  0
LINE
  8
0
 10
 1.21547123104192E+0003
 20
 1.31367641756549E+0003
 11
 1.12750000000000E+0003
 21
 1.44500000000000E+0003
  0
LINE
  8
0
 10
 1.12750000000000E+0003
 20
 1.44500000000000E+0003
 11
 1.03952876895808E+0003
 21
 1.31367641756549E+0003
  0
ARC
  8
0
 10
 1.04950000000000E+0003
 20
 1.30700000000000E+0003
 40
 1.20000000000000E+0001
 50
 1.46195000000000E+0002
 51
 2.84475000000000E+0002
  0
LINE
  8
0
 10
 1.05249949055361E+0003
 20
 1.29538091843480E+0003
 11
 1.09750000000000E+0003
 21
 1.30700000000000E+0003
  0
LINE
  8
0
 10
 1.09750000000000E+0003
 20
 1.30700000000000E+0003
 11
 1.09750000000000E+0003
 21
 1.20500000000000E+0003
  0
ARC
  8
0
 10
 1.48250000000000E+0003
 20
 1.20500000000000E+0003
 40
 3.85000000000000E+0002
 50
 1.80000000000000E+0002
 51
 2.10960000000000E+0002
  0
LINE
  8
0
 10
 1.15235223736544E+0003
 20
 1.00694077949412E+0003
 11
 1.17619616326294E+0003
 21
 9.67192848478990E+0002
  0
ARC
  8
0
 10
 8.97500000000000E+0002
 20
 8.00000000000000E+0002
 40
 3.25000000000000E+0002
 50
 3.29040000000000E+0002
 51
 3.90960000000000E+0002
  0
LINE
  8
0
 10
 1.17619616326294E+0003
 20
 6.32807151521010E+0002
 11
 1.15235223736544E+0003
 21
 5.93059220505880E+0002
  0
ARC
  8
0
 10
 1.48250000000000E+0003
 20
 3.95000000000000E+0002
 40
 3.85000000000000E+0002
 50
 1.49040000000000E+0002
 51
 1.80000000000000E+0002
  0
LINE
  8
0
 10
 1.09750000000000E+0003
 20
 3.95000000000000E+0002
 11
 1.09750000000000E+0003
 21
 2.75000000000000E+0002
  0
LINE
  8
0
 10
 1.09750000000000E+0003
 20
 2.75000000000000E+0002
 11
 1.15750000000000E+0003
 21
 2.75000000000000E+0002
  0
LINE
  8
0
 10
 1.39750000000000E+0003
 20
 2.75000000000000E+0002
 11
 1.39750000000000E+0003
 21
 3.95000000000000E+0002
  0
ARC
  8
0
 10
 1.72250000000000E+0003
 20
 3.95000000000000E+0002
 40
 3.25000000000000E+0002
 50
 1.49040000000000E+0002
 51
 1.80000000000000E+0002
  0
LINE
  8
0
 10
 1.44380383673706E+0003
 20
 5.62192848478990E+0002
 11
 1.46764776263456E+0003
 21
 6.01940779494120E+0002
  0
ARC
  8
0
 10
 1.13750000000000E+0003
 20
 8.00000000000000E+0002
 40
 3.85000000000000E+0002
 50
 3.29040000000000E+0002
 51
 3.90960000000000E+0002
  0
LINE
  8
0
 10
 1.46764776263456E+0003
 20
 9.98059220505880E+0002
 11
 1.44380383673706E+0003
 21
 1.03780715152101E+0003
  0
ARC
  8
0
 10
 1.72250000000000E+0003
 20
 1.20500000000000E+0003
 40
 3.25000000000000E+0002
 50
 1.80000000000000E+0002
 51
 2.10960000000000E+0002
  0
LINE
  8
0
 10
 1.39750000000000E+0003
 20
 1.20500000000000E+0003
 11
 1.39750000000000E+0003
 21
 1.30700000000000E+0003
  0
LINE
  8
0
 10
 1.39750000000000E+0003
 20
 1.30700000000000E+0003
 11
 1.44250050944639E+0003
 21
 1.29538091843480E+0003
  0
ARC
  8
0
 10
 1.44550000000000E+0003
 20
 1.30700000000000E+0003
 40
 1.20000000000000E+0001
 50
 2.55525000000000E+0002
 51
 3.93805000000000E+0002
  0
LINE
  8
0
 10
 1.45547123104192E+0003
 20
 1.31367641756549E+0003
 11
 1.36750000000000E+0003
 21
 1.44500000000000E+0003
  0
LINE
  8
0
 10
 1.36750000000000E+0003
 20
 1.44500000000000E+0003
 11
 1.27952876895808E+0003
 21
 1.31367641756549E+0003
  0
ARC
  8
0
 10
 1.28950000000000E+0003
 20
 1.30700000000000E+0003
 40
 1.20000000000000E+0001
 50
 1.46195000000000E+0002
 51
 2.84475000000000E+0002
  0
LINE
  8
0
 10
 1.29249949055361E+0003
 20
 1.29538091843480E+0003
 11
 1.33750000000000E+0003
 21
 1.30700000000000E+0003
  0
LINE
  8
0
 10
 1.33750000000000E+0003
 20
 1.30700000000000E+0003
 11
 1.33750000000000E+0003
 21
 1.20500000000000E+0003
  0
ARC
  8
0
 10
 1.72250000000000E+0003
 20
 1.20500000000000E+0003
 40
 3.85000000000000E+0002
 50
 1.80000000000000E+0002
 51
 2.10960000000000E+0002
  0
LINE
  8
0
 10
 1.39235223736544E+0003
 20
 1.00694077949412E+0003
 11
 1.41619616326294E+0003
 21
 9.67192848478990E+0002
  0
ARC
  8
0
 10
 1.13750000000000E+0003
 20
 8.00000000000000E+0002
 40
 3.25000000000000E+0002
 50
 3.29040000000000E+0002
 51
 3.90960000000000E+0002
  0
LINE
  8
0
 10
 1.41619616326294E+0003
 20
 6.32807151521010E+0002
 11
 1.39235223736544E+0003
 21
 5.93059220505880E+0002
  0
ARC
  8
0
 10
 1.72250000000000E+0003
 20
 3.95000000000000E+0002
 40
 3.85000000000000E+0002
 50
 1.49040000000000E+0002
 51
 1.80000000000000E+0002
  0
LINE
  8
0
 10
 1.33750000000000E+0003
 20
 3.95000000000000E+0002
 11
 1.33750000000000E+0003
 21
 2.75000000000000E+0002
  0
LINE
  8
0
 10
 1.33750000000000E+0003
 20
 2.75000000000000E+0002
 11
 1.39750000000000E+0003
 21
 2.75000000000000E+0002
  0
ENDSEC
  0
EOF
