  0
SECTION
  2
HEADER
  9
$ACADVER
  1
AC1003
  9
$INSBASE
 10
0.0
 20
0.0
  9
$EXTMIN
 10
 0.00000000000000E+0000
 20
 0.00000000000000E+0000
  9
$EXTMAX
 10
 6.00000000000000E+0002
 20
 6.00000000000000E+0002
  9
$LIMMIN
 10
0.0
 20
0.0
  9
$LIMMAX
 10
410.0
 20
287.0
  9
$VIEWCTR
 10
227.0059616
 20
165.058879 
  9
$VIEWSIZE
 40
 6.00000000000000E+0002
9
$SNAPMODE
70
0
9
$SNAPUNIT
10
1
20
1
9
$GRIDMODE
70
0
9
$GRIDUNIT
10
1
20
1
9
$ORTHOMODE
70
0
9
$rEGENMODE
70
1
9
$FILLMODE
70
1
9
$DRAGMODE
70
2
9
$LTSCALE
40
25.0
9
$OSMODE
70
0
9
$ATTMODE
70
1
9
$TRACEWID
40
1.0
9
$TEXTSTYLE
7
STANDARD
9
$CLAYER
8
0
9
$CELTYPE
6
VONLAYER
9
$CECOLOR
62
256
9
$LUNITS
70
2
9
$LUPREC
70
2
9
$AXISMODE
70
0
9
$AXISUNIT
10
0
20
0
9
$SKETCHINC
40
1.0
9
$FILLETRAD
40
0.0
9
$AUNITS
70
0
9
$AUPREC
70
0
9
$MENU
1
ACAD
9
$ELEVATION
40
0.0
9
$THICKNESS
40
0.0
9
$VIEWDIR
10
0.0
20
0.0
30
1.0
9
$LIMCHECK
70
0
9
$BLIPMODE
70
1
9
$CHAMFERA
40
0.0
9
$CHAMFERB
40
0.0
9
$USRTIMER
70
1
9
$ANGBASE
50
0.0
9
$ANGDIR
70
0
9
$PDMODE
70
0
9
$PDSIZE
40
0.0
9
$PLINEWID
40
0.0
9
$COORDS
70
0
0
ENDSEC
0
SECTION
2
TABLES
0
TABLE
2
LTYPE
70
1
0
LTYPE
2
AUSGEZOGEN
70
64
3
Ausgezogene Linie
72
65
73
0
40
0.0
0
ENDTAB
0
TABLE
2
LAYER
70
1
0
LAYER
2
0
70
0
62
7
6
AUSGEZOGEN
0
ENDTAB
0
TABLE
2
STYLE
70
1
0
STYLE
2
STANDARD
70
0
40
0.0
41
1.0
50
0.0
71
0
42
3.5
3
txt
4

0
ENDTAB
0
TABLE
2
VIEW
70
0
0
ENDTAB
0
ENDSEC
0
SECTION
2
BLOCKS
0
ENDSEC
0
SECTION
2
ENTITIES
  0
LINE
  8
0
 10
 4.00000000000000E+0001
 20
 6.00000000000000E+0002
 11
 5.60000000000000E+0002
 21
 6.00000000000000E+0002
  0
ARC
  8
0
 10
 5.60000000000000E+0002
 20
 5.60000000000000E+0002
 40
 4.00000000000000E+0001
 50
 0.00000000000000E+0000
 51
 9.00000000000000E+0001
  0
LINE
  8
0
 10
 6.00000000000000E+0002
 20
 5.60000000000000E+0002
 11
 6.00000000000000E+0002
 21
 4.00000000000000E+0001
  0
ARC
  8
0
 10
 5.60000000000000E+0002
 20
 4.00000000000000E+0001
 40
 4.00000000000000E+0001
 50
 2.70000000000000E+0002
 51
 3.60000000000000E+0002
  0
LINE
  8
0
 10
 5.60000000000000E+0002
 20
 0.00000000000000E+0000
 11
 4.00000000000000E+0001
 21
 0.00000000000000E+0000
  0
ARC
  8
0
 10
 4.00000000000000E+0001
 20
 4.00000000000000E+0001
 40
 4.00000000000000E+0001
 50
 1.80000000000000E+0002
 51
 2.70000000000000E+0002
  0
LINE
  8
0
 10
 0.00000000000000E+0000
 20
 4.00000000000000E+0001
 11
 0.00000000000000E+0000
 21
 5.60000000000000E+0002
  0
ARC
  8
0
 10
 4.00000000000000E+0001
 20
 5.60000000000000E+0002
 40
 4.00000000000000E+0001
 50
 9.00000000000000E+0001
 51
 1.80000000000000E+0002
  0
LINE
  8
0
 10
 4.00000000000000E+0001
 20
 5.90000000000000E+0002
 11
 5.60000000000000E+0002
 21
 5.90000000000000E+0002
  0
ARC
  8
0
 10
 5.60000000000000E+0002
 20
 5.60000000000000E+0002
 40
 3.00000000000000E+0001
 50
 0.00000000000000E+0000
 51
 9.00000000000000E+0001
  0
LINE
  8
0
 10
 5.90000000000000E+0002
 20
 5.60000000000000E+0002
 11
 5.90000000000000E+0002
 21
 4.00000000000000E+0001
  0
ARC
  8
0
 10
 5.60000000000000E+0002
 20
 4.00000000000000E+0001
 40
 3.00000000000000E+0001
 50
 2.70000000000000E+0002
 51
 3.60000000000000E+0002
  0
LINE
  8
0
 10
 5.60000000000000E+0002
 20
 1.00000000000000E+0001
 11
 4.00000000000000E+0001
 21
 1.00000000000000E+0001
  0
ARC
  8
0
 10
 4.00000000000000E+0001
 20
 4.00000000000000E+0001
 40
 3.00000000000000E+0001
 50
 1.80000000000000E+0002
 51
 2.70000000000000E+0002
  0
LINE
  8
0
 10
 1.00000000000000E+0001
 20
 4.00000000000000E+0001
 11
 1.00000000000000E+0001
 21
 5.60000000000000E+0002
  0
ARC
  8
0
 10
 4.00000000000000E+0001
 20
 5.60000000000000E+0002
 40
 3.00000000000000E+0001
 50
 9.00000000000000E+0001
 51
 1.80000000000000E+0002
  0
LINE
  8
0
 10
 4.00000000000000E+0001
 20
 5.75000000000000E+0002
 11
 5.60000000000000E+0002
 21
 5.75000000000000E+0002
  0
ARC
  8
0
 10
 5.60000000000000E+0002
 20
 5.60000000000000E+0002
 40
 1.50000000000000E+0001
 50
 0.00000000000000E+0000
 51
 9.00000000000000E+0001
  0
LINE
  8
0
 10
 5.75000000000000E+0002
 20
 5.60000000000000E+0002
 11
 5.75000000000000E+0002
 21
 4.00000000000000E+0001
  0
ARC
  8
0
 10
 5.60000000000000E+0002
 20
 4.00000000000000E+0001
 40
 1.50000000000000E+0001
 50
 2.70005000000000E+0002
 51
 3.60000000000000E+0002
  0
LINE
  8
0
 10
 5.60001308996937E+0002
 20
 2.50000000571158E+0001
 11
 4.00000000000000E+0001
 21
 2.50000000000000E+0001
  0
ARC
  8
0
 10
 4.00000000000000E+0001
 20
 4.00000000000000E+0001
 40
 1.50000000000000E+0001
 50
 1.80000000000000E+0002
 51
 2.70000000000000E+0002
  0
LINE
  8
0
 10
 2.50000000000000E+0001
 20
 4.00000000000000E+0001
 11
 2.50000000000000E+0001
 21
 5.60000000000000E+0002
  0
ARC
  8
0
 10
 4.00000000000000E+0001
 20
 5.60000000000000E+0002
 40
 1.50000000000000E+0001
 50
 8.99950000000000E+0001
 51
 1.80000000000000E+0002
  0
LINE
  8
0
 10
 8.00000000000000E+0001
 20
 5.25000000000000E+0002
 11
 5.20000000000000E+0002
 21
 5.25000000000000E+0002
  0
ARC
  8
0
 10
 5.20000000000000E+0002
 20
 5.20000000000000E+0002
 40
 5.00000000000000E+0000
 50
 0.00000000000000E+0000
 51
 9.00000000000000E+0001
  0
LINE
  8
0
 10
 5.25000000000000E+0002
 20
 5.20000000000000E+0002
 11
 5.25000000000000E+0002
 21
 8.00000000000000E+0001
  0
ARC
  8
0
 10
 5.20000000000000E+0002
 20
 8.00000000000000E+0001
 40
 5.00000000000000E+0000
 50
 2.70000000000000E+0002
 51
 3.60000000000000E+0002
  0
LINE
  8
0
 10
 5.20000000000000E+0002
 20
 7.50000000000000E+0001
 11
 8.00000000000000E+0001
 21
 7.50000000000000E+0001
  0
ARC
  8
0
 10
 8.00000000000000E+0001
 20
 8.00000000000000E+0001
 40
 5.00000000000000E+0000
 50
 1.80000000000000E+0002
 51
 2.70000000000000E+0002
  0
LINE
  8
0
 10
 7.50000000000000E+0001
 20
 8.00000000000000E+0001
 11
 7.50000000000000E+0001
 21
 5.20000000000000E+0002
  0
ARC
  8
0
 10
 8.00000000000000E+0001
 20
 5.20000000000000E+0002
 40
 5.00000000000000E+0000
 50
 9.00000000000000E+0001
 51
 1.80000000000000E+0002
  0
LINE
  8
0
 10
 2.77503200000000E+0002
 20
 3.73185000000000E+0002
 11
 2.59000000000000E+0002
 21
 3.73200000000000E+0002
  0
ARC
  8
0
 10
 2.59000000000000E+0002
 20
 3.50700000000000E+0002
 40
 2.25000000000000E+0001
 50
 9.00000000000000E+0001
 51
 1.62800000000000E+0002
  0
LINE
  8
0
 10
 2.37506236852247E+0002
 20
 3.57353431125991E+0002
 11
 2.21175962028037E+0002
 21
 3.04578580362167E+0002
  0
ARC
  8
0
 10
 2.10000000000000E+0002
 20
 2.49450000000000E+0002
 40
 5.62500000000000E+0001
 50
 7.85400000000000E+0001
 51
 4.27060000000000E+0002
  0
LINE
  8
0
 10
 2.31924391724705E+0002
 20
 3.01251385575114E+0002
 11
 2.36398200000000E+0002
 21
 3.15677700000000E+0002
  0
LINE
  8
0
 10
 2.36398200000000E+0002
 20
 3.15677700000000E+0002
 11
 3.02893563363842E+0002
 21
 2.41917904226188E+0002
  0
ARC
  8
0
 10
 3.11250000000000E+0002
 20
 2.49450000000000E+0002
 40
 1.12500000000000E+0001
 50
 2.22030000000000E+0002
 51
 2.70000000000000E+0002
  0
LINE
  8
0
 10
 3.11250000000000E+0002
 20
 2.38200000000000E+0002
 11
 3.34886096164400E+0002
 21
 2.38201884424479E+0002
  0
ARC
  8
0
 10
 3.90000000000000E+0002
 20
 2.49450000000000E+0002
 40
 5.62500000000000E+0001
 50
 1.91535000000000E+0002
 51
 4.68055000000000E+0002
  0
LINE
  8
0
 10
 3.72566448717534E+0002
 20
 3.02930218676457E+0002
 11
 3.56253200000000E+0002
 21
 3.39435000000000E+0002
  0
LINE
  8
0
 10
 3.56253200000000E+0002
 20
 3.39435000000000E+0002
 11
 3.60472200000000E+0002
 21
 3.50685000000000E+0002
  0
LINE
  8
0
 10
 3.60472200000000E+0002
 20
 3.50685000000000E+0002
 11
 3.73128200000000E+0002
 21
 3.50685000000000E+0002
  0
LINE
  8
0
 10
 3.73128200000000E+0002
 20
 3.50685000000000E+0002
 11
 3.73128200000000E+0002
 21
 3.61935000000000E+0002
  0
LINE
  8
0
 10
 3.73128200000000E+0002
 20
 3.61935000000000E+0002
 11
 3.25300000000000E+0002
 21
 3.61900000000000E+0002
  0
ARC
  8
0
 10
 3.25300000000000E+0002
 20
 3.59100000000000E+0002
 40
 2.80000000000000E+0000
 50
 9.00000000000000E+0001
 51
 2.56525000000000E+0002
  0
LINE
  8
0
 10
 3.24647541017354E+0002
 20
 3.56377079274756E+0002
 11
 3.48457200000000E+0002
 21
 3.50685000000000E+0002
  0
LINE
  8
0
 10
 3.48457200000000E+0002
 20
 3.50685000000000E+0002
 11
 3.44238200000000E+0002
 21
 3.39435000000000E+0002
  0
LINE
  8
0
 10
 3.44238200000000E+0002
 20
 3.39435000000000E+0002
 11
 2.43753200000000E+0002
 21
 3.39435000000000E+0002
  0
LINE
  8
0
 10
 2.43753200000000E+0002
 20
 3.39435000000000E+0002
 11
 2.48253408777744E+0002
 21
 3.54027653392666E+0002
  0
ARC
  8
0
 10
 2.59000000000000E+0002
 20
 3.50700000000000E+0002
 40
 1.12500000000000E+0001
 50
 9.00000000000000E+0001
 51
 1.62795000000000E+0002
  0
LINE
  8
0
 10
 2.59000000000000E+0002
 20
 3.61950000000000E+0002
 11
 2.77503200000000E+0002
 21
 3.61935000000000E+0002
  0
LINE
  8
0
 10
 2.77503200000000E+0002
 20
 3.61935000000000E+0002
 11
 2.77503200000000E+0002
 21
 3.73185000000000E+0002
  0
LINE
  8
0
 10
 2.40270200000000E+0002
 20
 3.28185000000000E+0002
 11
 3.10711200000000E+0002
 21
 2.50034400000000E+0002
  0
LINE
  8
0
 10
 3.10711200000000E+0002
 20
 2.50034400000000E+0002
 11
 3.40019200000000E+0002
 21
 3.28185000000000E+0002
  0
LINE
  8
0
 10
 3.40019200000000E+0002
 20
 3.28185000000000E+0002
 11
 2.40270200000000E+0002
 21
 3.28185000000000E+0002
  0
LINE
  8
0
 10
 3.22503200000000E+0002
 20
 2.49435000000000E+0002
 11
 3.33750000000000E+0002
 21
 2.49450000000000E+0002
  0
ARC
  8
0
 10
 3.90000000000000E+0002
 20
 2.49450000000000E+0002
 40
 5.62500000000000E+0001
 50
 1.19535000000000E+0002
 51
 1.80000000000000E+0002
  0
LINE
  8
0
 10
 3.62271273474313E+0002
 20
 2.98390578513782E+0002
 11
 3.50630200000000E+0002
 21
 3.24441000000000E+0002
  0
LINE
  8
0
 10
 3.50630200000000E+0002
 20
 3.24441000000000E+0002
 11
 3.22503200000000E+0002
 21
 2.49435000000000E+0002
  0
LINE
  8
0
 10
 2.17833200000000E+0002
 20
 2.93748500000000E+0002
 11
 2.17829636842642E+0002
 21
 2.93763618526502E+0002
  0
ARC
  8
0
 10
 2.10000000000000E+0002
 20
 2.49450000000000E+0002
 40
 4.50000000000000E+0001
 50
 7.99800000000000E+0001
 51
 4.25620000000000E+0002
  0
LINE
  8
0
 10
 2.28575393224353E+0002
 20
 2.90437251268665E+0002
 11
 2.15397322745991E+0002
 21
 2.47779249517251E+0002
  0
ARC
  8
0
 10
 2.10000000000000E+0002
 20
 2.49450000000000E+0002
 40
 5.65000000000000E+0000
 50
 1.62805000000000E+0002
 51
 3.42800000000000E+0002
  0
LINE
  8
0
 10
 2.04602531474076E+0002
 20
 2.51120279471124E+0002
 11
 2.17833200000000E+0002
 21
 2.93748500000000E+0002
  0
LINE
  8
0
 10
 3.45001200000000E+0002
 20
 2.49448600000000E+0002
 11
 3.45003200000000E+0002
 21
 2.49435000000000E+0002
  0
LINE
  8
0
 10
 3.45003200000000E+0002
 20
 2.49435000000000E+0002
 11
 3.84139200000000E+0002
 21
 2.49435000000000E+0002
  0
LINE
  8
0
 10
 3.84139200000000E+0002
 20
 2.49435000000000E+0002
 11
 3.66887274132375E+0002
 21
 2.88060903938758E+0002
  0
ARC
  8
0
 10
 3.90000000000000E+0002
 20
 2.49450000000000E+0002
 40
 4.50000000000000E+0001
 50
 1.20905000000000E+0002
 51
 1.80000000000000E+0002
  0
LINE
  8
0
 10
 3.46432200000000E+0002
 20
 2.38185000000000E+0002
 11
 3.46429425877390E+0002
 21
 2.38198108131245E+0002
  0
ARC
  8
0
 10
 3.90000000000000E+0002
 20
 2.49450000000000E+0002
 40
 4.50000000000000E+0001
 50
 1.94480000000000E+0002
 51
 4.66540000000000E+0002
  0
LINE
  8
0
 10
 3.77189190394995E+0002
 20
 2.92587954949955E+0002
 11
 3.97912669272684E+0002
 21
 2.46084866059127E+0002
  0
ARC
  8
0
 10
 3.92800000000000E+0002
 20
 2.43800000000000E+0002
 40
 5.60000000000000E+0000
 50
 2.70000000000000E+0002
 51
 3.84080000000000E+0002
  0
LINE
  8
0
 10
 3.92800000000000E+0002
 20
 2.38200000000000E+0002
 11
 3.46432200000000E+0002
 21
 2.38185000000000E+0002
  0
LINE
  8
0
 10
 1.57000000000000E+0002
 20
 1.16000000000000E+0002
 11
 1.77000000000000E+0002
 21
 1.75000000000000E+0002
  0
LINE
  8
0
 10
 1.77000000000000E+0002
 20
 1.75000000000000E+0002
 11
 2.86000000000000E+0002
 21
 1.75000000000000E+0002
  0
LINE
  8
0
 10
 2.86000000000000E+0002
 20
 1.75000000000000E+0002
 11
 2.82000000000000E+0002
 21
 1.16000000000000E+0002
  0
LINE
  8
0
 10
 2.82000000000000E+0002
 20
 1.16000000000000E+0002
 11
 1.57000000000000E+0002
 21
 1.16000000000000E+0002
  0
LINE
  8
0
 10
 3.18000000000000E+0002
 20
 1.16000000000000E+0002
 11
 3.14000000000000E+0002
 21
 1.75000000000000E+0002
  0
LINE
  8
0
 10
 3.14000000000000E+0002
 20
 1.75000000000000E+0002
 11
 4.23000000000000E+0002
 21
 1.75000000000000E+0002
  0
LINE
  8
0
 10
 4.23000000000000E+0002
 20
 1.75000000000000E+0002
 11
 4.43000000000000E+0002
 21
 1.16000000000000E+0002
  0
LINE
  8
0
 10
 4.43000000000000E+0002
 20
 1.16000000000000E+0002
 11
 3.18000000000000E+0002
 21
 1.16000000000000E+0002
  0
LINE
  8
0
 10
 2.45000000000000E+0002
 20
 3.90000000000000E+0002
 11
 2.73000000000000E+0002
 21
 4.84000000000000E+0002
  0
LINE
  8
0
 10
 2.73000000000000E+0002
 20
 4.84000000000000E+0002
 11
 2.95000000000000E+0002
 21
 4.84000000000000E+0002
  0
LINE
  8
0
 10
 2.95000000000000E+0002
 20
 4.84000000000000E+0002
 11
 2.92000000000000E+0002
 21
 3.90000000000000E+0002
  0
LINE
  8
0
 10
 2.92000000000000E+0002
 20
 3.90000000000000E+0002
 11
 2.45000000000000E+0002
 21
 3.90000000000000E+0002
  0
LINE
  8
0
 10
 3.08000000000000E+0002
 20
 3.90000000000000E+0002
 11
 3.05000000000000E+0002
 21
 4.84000000000000E+0002
  0
LINE
  8
0
 10
 3.05000000000000E+0002
 20
 4.84000000000000E+0002
 11
 3.27000000000000E+0002
 21
 4.84000000000000E+0002
  0
LINE
  8
0
 10
 3.27000000000000E+0002
 20
 4.84000000000000E+0002
 11
 3.55000000000000E+0002
 21
 3.90000000000000E+0002
  0
LINE
  8
0
 10
 3.55000000000000E+0002
 20
 3.90000000000000E+0002
 11
 3.08000000000000E+0002
 21
 3.90000000000000E+0002
  0
ENDSEC
  0
EOF
