  0
SECTION
  2
HEADER
  9
$ACADVER
  1
AC1003
  9
$INSBASE
 10
0.0
 20
0.0
  9
$EXTMIN
 10
 0.00000000000000E+0000
 20
 0.00000000000000E+0000
  9
$EXTMAX
 10
 6.00000000000000E+0002
 20
 3.30000000000000E+0002
  9
$LIMMIN
 10
0.0
 20
0.0
  9
$LIMMAX
 10
410.0
 20
287.0
  9
$VIEWCTR
 10
227.0059616
 20
165.058879 
  9
$VIEWSIZE
 40
 6.00000000000000E+0002
9
$SNAPMODE
70
0
9
$SNAPUNIT
10
1
20
1
9
$GRIDMODE
70
0
9
$GRIDUNIT
10
1
20
1
9
$ORTHOMODE
70
0
9
$rEGENMODE
70
1
9
$FILLMODE
70
1
9
$DRAGMODE
70
2
9
$LTSCALE
40
25.0
9
$OSMODE
70
0
9
$ATTMODE
70
1
9
$TRACEWID
40
1.0
9
$TEXTSTYLE
7
STANDARD
9
$CLAYER
8
0
9
$CELTYPE
6
VONLAYER
9
$CECOLOR
62
256
9
$LUNITS
70
2
9
$LUPREC
70
2
9
$AXISMODE
70
0
9
$AXISUNIT
10
0
20
0
9
$SKETCHINC
40
1.0
9
$FILLETRAD
40
0.0
9
$AUNITS
70
0
9
$AUPREC
70
0
9
$MENU
1
ACAD
9
$ELEVATION
40
0.0
9
$THICKNESS
40
0.0
9
$VIEWDIR
10
0.0
20
0.0
30
1.0
9
$LIMCHECK
70
0
9
$BLIPMODE
70
1
9
$CHAMFERA
40
0.0
9
$CHAMFERB
40
0.0
9
$USRTIMER
70
1
9
$ANGBASE
50
0.0
9
$ANGDIR
70
0
9
$PDMODE
70
0
9
$PDSIZE
40
0.0
9
$PLINEWID
40
0.0
9
$COORDS
70
0
0
ENDSEC
0
SECTION
2
TABLES
0
TABLE
2
LTYPE
70
1
0
LTYPE
2
AUSGEZOGEN
70
64
3
Ausgezogene Linie
72
65
73
0
40
0.0
0
ENDTAB
0
TABLE
2
LAYER
70
1
0
LAYER
2
0
70
0
62
7
6
AUSGEZOGEN
0
ENDTAB
0
TABLE
2
STYLE
70
1
0
STYLE
2
STANDARD
70
0
40
0.0
41
1.0
50
0.0
71
0
42
3.5
3
txt
4

0
ENDTAB
0
TABLE
2
VIEW
70
0
0
ENDTAB
0
ENDSEC
0
SECTION
2
BLOCKS
0
ENDSEC
0
SECTION
2
ENTITIES
  0
ARC
  8
0
 10
 4.00000000000000E+0001
 20
 4.00000000000000E+0001
 40
 4.00000000000000E+0001
 50
 1.80000000000000E+0002
 51
 2.70000000000000E+0002
  0
LINE
  8
0
 10
 0.00000000000000E+0000
 20
 4.00000000000000E+0001
 11
 0.00000000000000E+0000
 21
 2.90000000000000E+0002
  0
ARC
  8
0
 10
 4.00000000000000E+0001
 20
 2.90000000000000E+0002
 40
 4.00000000000000E+0001
 50
 9.00000000000000E+0001
 51
 1.80000000000000E+0002
  0
LINE
  8
0
 10
 4.00000000000000E+0001
 20
 3.30000000000000E+0002
 11
 5.60000000000000E+0002
 21
 3.30000000000000E+0002
  0
ARC
  8
0
 10
 5.60000000000000E+0002
 20
 2.90000000000000E+0002
 40
 4.00000000000000E+0001
 50
 0.00000000000000E+0000
 51
 9.00000000000000E+0001
  0
LINE
  8
0
 10
 6.00000000000000E+0002
 20
 2.90000000000000E+0002
 11
 6.00000000000000E+0002
 21
 4.00000000000000E+0001
  0
ARC
  8
0
 10
 5.60000000000000E+0002
 20
 4.00000000000000E+0001
 40
 4.00000000000000E+0001
 50
 2.70000000000000E+0002
 51
 3.60000000000000E+0002
  0
LINE
  8
0
 10
 5.60000000000000E+0002
 20
 0.00000000000000E+0000
 11
 4.00000000000000E+0001
 21
 0.00000000000000E+0000
  0
ARC
  8
0
 10
 4.00000000000000E+0001
 20
 4.00000000000000E+0001
 40
 3.00000000000000E+0001
 50
 1.80000000000000E+0002
 51
 2.70000000000000E+0002
  0
LINE
  8
0
 10
 1.00000000000000E+0001
 20
 4.00000000000000E+0001
 11
 1.00000000000000E+0001
 21
 2.90000000000000E+0002
  0
ARC
  8
0
 10
 4.00000000000000E+0001
 20
 2.90000000000000E+0002
 40
 3.00000000000000E+0001
 50
 9.00000000000000E+0001
 51
 1.80000000000000E+0002
  0
LINE
  8
0
 10
 4.00000000000000E+0001
 20
 3.20000000000000E+0002
 11
 5.60000000000000E+0002
 21
 3.20000000000000E+0002
  0
ARC
  8
0
 10
 5.60000000000000E+0002
 20
 2.90000000000000E+0002
 40
 3.00000000000000E+0001
 50
 0.00000000000000E+0000
 51
 9.00000000000000E+0001
  0
LINE
  8
0
 10
 5.90000000000000E+0002
 20
 2.90000000000000E+0002
 11
 5.90000000000000E+0002
 21
 4.00000000000000E+0001
  0
ARC
  8
0
 10
 5.60000000000000E+0002
 20
 4.00000000000000E+0001
 40
 3.00000000000000E+0001
 50
 2.70000000000000E+0002
 51
 3.60000000000000E+0002
  0
LINE
  8
0
 10
 5.60000000000000E+0002
 20
 1.00000000000000E+0001
 11
 4.00000000000000E+0001
 21
 1.00000000000000E+0001
  0
ARC
  8
0
 10
 4.00000000000000E+0001
 20
 4.00000000000000E+0001
 40
 1.50000000000000E+0001
 50
 1.80000000000000E+0002
 51
 2.70000000000000E+0002
  0
LINE
  8
0
 10
 2.50000000000000E+0001
 20
 4.00000000000000E+0001
 11
 2.50000000000000E+0001
 21
 2.90000000000000E+0002
  0
ARC
  8
0
 10
 4.00000000000000E+0001
 20
 2.90000000000000E+0002
 40
 1.50000000000000E+0001
 50
 9.00000000000000E+0001
 51
 1.80000000000000E+0002
  0
LINE
  8
0
 10
 4.00000000000000E+0001
 20
 3.05000000000000E+0002
 11
 5.60000000000000E+0002
 21
 3.05000000000000E+0002
  0
ARC
  8
0
 10
 5.60000000000000E+0002
 20
 2.90000000000000E+0002
 40
 1.50000000000000E+0001
 50
 0.00000000000000E+0000
 51
 9.00000000000000E+0001
  0
LINE
  8
0
 10
 5.75000000000000E+0002
 20
 2.90000000000000E+0002
 11
 5.75000000000000E+0002
 21
 4.00000000000000E+0001
  0
ARC
  8
0
 10
 5.60000000000000E+0002
 20
 4.00000000000000E+0001
 40
 1.50000000000000E+0001
 50
 2.70000000000000E+0002
 51
 3.60000000000000E+0002
  0
LINE
  8
0
 10
 5.60000000000000E+0002
 20
 2.50000000000000E+0001
 11
 4.00000000000000E+0001
 21
 2.50000000000000E+0001
  0
LINE
  8
0
 10
 1.50000000000000E+0002
 20
 1.72107000000000E+0002
 11
 1.50000000000000E+0002
 21
 1.72100000000000E+0002
  0
LINE
  8
0
 10
 1.50000000000000E+0002
 20
 1.72100000000000E+0002
 11
 1.50000000000000E+0002
 21
 1.72107000000000E+0002
  0
LINE
  8
0
 10
 1.50000000000000E+0002
 20
 1.72107000000000E+0002
 11
 1.50000000000000E+0002
 21
 1.72100000000000E+0002
  0
ARC
  8
0
 10
 1.71450000000000E+0002
 20
 1.72100000000000E+0002
 40
 2.14500000000000E+0001
 50
 1.43130000000000E+0002
 51
 1.80000000000000E+0002
  0
LINE
  8
0
 10
 1.54290022991214E+0002
 20
 1.84970030654896E+0002
 11
 1.58589931079949E+0002
 21
 1.90669908106770E+0002
  0
ARC
  8
0
 10
 1.07150000000000E+0002
 20
 2.29250000000000E+0002
 40
 6.43000000000000E+0001
 50
 3.23130000000000E+0002
 51
 3.36485000000000E+0002
  0
LINE
  8
0
 10
 1.66110248339819E+0002
 20
 2.03594998232180E+0002
 11
 1.94332341635058E+0002
 21
 2.68521956167272E+0002
  0
ARC
  8
0
 10
 2.10700000000000E+0002
 20
 2.61400000000000E+0002
 40
 1.78500000000000E+0001
 50
 9.00000000000000E+0001
 51
 1.56485000000000E+0002
  0
LINE
  8
0
 10
 2.10700000000000E+0002
 20
 2.79250000000000E+0002
 11
 3.89300000000000E+0002
 21
 2.79250000000000E+0002
  0
ARC
  8
0
 10
 3.89300000000000E+0002
 20
 2.61400000000000E+0002
 40
 1.78500000000000E+0001
 50
 2.35150000000000E+0001
 51
 9.00000000000000E+0001
  0
LINE
  8
0
 10
 4.05667658364942E+0002
 20
 2.68521956167272E+0002
 11
 4.33889751660181E+0002
 21
 2.03594998232180E+0002
  0
ARC
  8
0
 10
 4.92850000000000E+0002
 20
 2.29250000000000E+0002
 40
 6.43000000000000E+0001
 50
 2.03515000000000E+0002
 51
 2.16870000000000E+0002
  0
LINE
  8
0
 10
 4.41410068920051E+0002
 20
 1.90669908106770E+0002
 11
 4.45709977008785E+0002
 21
 1.84970030654896E+0002
  0
ARC
  8
0
 10
 4.28550000000000E+0002
 20
 1.72100000000000E+0002
 40
 2.14500000000000E+0001
 50
 0.00000000000000E+0000
 51
 3.68700000000000E+0001
  0
LINE
  8
0
 10
 4.50000000000000E+0002
 20
 1.72100000000000E+0002
 11
 4.50000000000000E+0002
 21
 1.25700000000000E+0002
  0
ARC
  8
0
 10
 4.32150000000000E+0002
 20
 1.25700000000000E+0002
 40
 1.78500000000000E+0001
 50
 2.70000000000000E+0002
 51
 3.60000000000000E+0002
  0
LINE
  8
0
 10
 4.32150000000000E+0002
 20
 1.07850000000000E+0002
 11
 1.67850000000000E+0002
 21
 1.07850000000000E+0002
  0
ARC
  8
0
 10
 1.67850000000000E+0002
 20
 1.25700000000000E+0002
 40
 1.78500000000000E+0001
 50
 1.80000000000000E+0002
 51
 2.70000000000000E+0002
  0
LINE
  8
0
 10
 1.50000000000000E+0002
 20
 1.25700000000000E+0002
 11
 1.50000000000000E+0002
 21
 1.72107000000000E+0002
  0
LINE
  8
0
 10
 1.67858000000000E+0002
 20
 1.00750000000000E+0002
 11
 2.10715000000000E+0002
 21
 1.00750000000000E+0002
  0
LINE
  8
0
 10
 2.10715000000000E+0002
 20
 1.00750000000000E+0002
 11
 2.10700000000000E+0002
 21
 6.14500000000000E+0001
  0
ARC
  8
0
 10
 2.00000000000000E+0002
 20
 6.14500000000000E+0001
 40
 1.07000000000000E+0001
 50
 2.70000000000000E+0002
 51
 3.60000000000000E+0002
  0
LINE
  8
0
 10
 2.00000000000000E+0002
 20
 5.07500000000000E+0001
 11
 1.78550000000000E+0002
 21
 5.07500000000000E+0001
  0
ARC
  8
0
 10
 1.78550000000000E+0002
 20
 6.14500000000000E+0001
 40
 1.07000000000000E+0001
 50
 1.80000000000000E+0002
 51
 2.70000000000000E+0002
  0
LINE
  8
0
 10
 1.67850000000000E+0002
 20
 6.14500000000000E+0001
 11
 1.67858000000000E+0002
 21
 1.00750000000000E+0002
  0
LINE
  8
0
 10
 3.89285000000000E+0002
 20
 1.00750000000000E+0002
 11
 4.32142000000000E+0002
 21
 1.00750000000000E+0002
  0
LINE
  8
0
 10
 4.32142000000000E+0002
 20
 1.00750000000000E+0002
 11
 4.32150000000000E+0002
 21
 6.14500000000000E+0001
  0
ARC
  8
0
 10
 4.21450000000000E+0002
 20
 6.14500000000000E+0001
 40
 1.07000000000000E+0001
 50
 2.70000000000000E+0002
 51
 3.60000000000000E+0002
  0
LINE
  8
0
 10
 4.21450000000000E+0002
 20
 5.07500000000000E+0001
 11
 4.00000000000000E+0002
 21
 5.07500000000000E+0001
  0
ARC
  8
0
 10
 4.00000000000000E+0002
 20
 6.14500000000000E+0001
 40
 1.07000000000000E+0001
 50
 1.80000000000000E+0002
 51
 2.70000000000000E+0002
  0
LINE
  8
0
 10
 3.89300000000000E+0002
 20
 6.14500000000000E+0001
 11
 3.89285000000000E+0002
 21
 1.00750000000000E+0002
  0
CIRCLE
  8
0
 10
 1.89300000000000E+0002
 20
 1.61400000000000E+0002
 40
 2.14500000000000E+0001
  0
CIRCLE
  8
0
 10
 4.10700000000000E+0002
 20
 1.61400000000000E+0002
 40
 2.14500000000000E+0001
  0
LINE
  8
0
 10
 1.83929000000000E+0002
 20
 2.00678500000000E+0002
 11
 2.08494016073832E+0002
 21
 2.57103344486709E+0002
  0
ARC
  8
0
 10
 2.15050000000000E+0002
 20
 2.54250000000000E+0002
 40
 7.15000000000000E+0000
 50
 9.00000000000000E+0001
 51
 1.56480000000000E+0002
  0
LINE
  8
0
 10
 2.15050000000000E+0002
 20
 2.61400000000000E+0002
 11
 3.84950000000000E+0002
 21
 2.61400000000000E+0002
  0
ARC
  8
0
 10
 3.84950000000000E+0002
 20
 2.54250000000000E+0002
 40
 7.15000000000000E+0000
 50
 2.35200000000000E+0001
 51
 9.00000000000000E+0001
  0
LINE
  8
0
 10
 3.91505983926168E+0002
 20
 2.57103344486709E+0002
 11
 4.16071000000000E+0002
 21
 2.00678500000000E+0002
  0
LINE
  8
0
 10
 4.16071000000000E+0002
 20
 2.00678500000000E+0002
 11
 3.87000000000000E+0002
 21
 2.00678500000000E+0002
  0
LINE
  8
0
 10
 3.87000000000000E+0002
 20
 2.00678500000000E+0002
 11
 3.87000000000000E+0002
 21
 2.20055000000000E+0002
  0
LINE
  8
0
 10
 3.87000000000000E+0002
 20
 2.20055000000000E+0002
 11
 3.83482690779363E+0002
 21
 2.20085650858153E+0002
  0
ARC
  8
0
 10
 3.63000000000000E+0002
 20
 2.36100000000000E+0002
 40
 2.60000000000000E+0001
 50
 2.18025000000000E+0002
 51
 3.21980000000000E+0002
  0
LINE
  8
0
 10
 3.42518706814228E+0002
 20
 2.20083863467164E+0002
 11
 3.39000000000000E+0002
 21
 2.20055000000000E+0002
  0
LINE
  8
0
 10
 3.39000000000000E+0002
 20
 2.20055000000000E+0002
 11
 3.39000000000000E+0002
 21
 2.00678500000000E+0002
  0
LINE
  8
0
 10
 3.39000000000000E+0002
 20
 2.00678500000000E+0002
 11
 3.24000000000000E+0002
 21
 2.00678500000000E+0002
  0
LINE
  8
0
 10
 3.24000000000000E+0002
 20
 2.00678500000000E+0002
 11
 3.24000000000000E+0002
 21
 2.20055000000000E+0002
  0
LINE
  8
0
 10
 3.24000000000000E+0002
 20
 2.20055000000000E+0002
 11
 3.20482690779363E+0002
 21
 2.20085650858153E+0002
  0
ARC
  8
0
 10
 3.00000000000000E+0002
 20
 2.36100000000000E+0002
 40
 2.60000000000000E+0001
 50
 2.18025000000000E+0002
 51
 3.21980000000000E+0002
  0
LINE
  8
0
 10
 2.79518706814228E+0002
 20
 2.20083863467164E+0002
 11
 2.76000000000000E+0002
 21
 2.20055000000000E+0002
  0
LINE
  8
0
 10
 2.76000000000000E+0002
 20
 2.20055000000000E+0002
 11
 2.76000000000000E+0002
 21
 2.00678500000000E+0002
  0
LINE
  8
0
 10
 2.76000000000000E+0002
 20
 2.00678500000000E+0002
 11
 2.61000000000000E+0002
 21
 2.00678500000000E+0002
  0
LINE
  8
0
 10
 2.61000000000000E+0002
 20
 2.00678500000000E+0002
 11
 2.61000000000000E+0002
 21
 2.20055000000000E+0002
  0
LINE
  8
0
 10
 2.61000000000000E+0002
 20
 2.20055000000000E+0002
 11
 2.57482690779363E+0002
 21
 2.20085650858153E+0002
  0
ARC
  8
0
 10
 2.37000000000000E+0002
 20
 2.36100000000000E+0002
 40
 2.60000000000000E+0001
 50
 2.18025000000000E+0002
 51
 3.21980000000000E+0002
  0
LINE
  8
0
 10
 2.16518706814228E+0002
 20
 2.20083863467164E+0002
 11
 2.13000000000000E+0002
 21
 2.20055000000000E+0002
  0
LINE
  8
0
 10
 2.13000000000000E+0002
 20
 2.20055000000000E+0002
 11
 2.13000000000000E+0002
 21
 2.00678500000000E+0002
  0
LINE
  8
0
 10
 2.13000000000000E+0002
 20
 2.00678500000000E+0002
 11
 1.83929000000000E+0002
 21
 2.00678500000000E+0002
  0
CIRCLE
  8
0
 10
 2.37000000000000E+0002
 20
 2.36050000000000E+0002
 40
 2.00000000000000E+0001
  0
CIRCLE
  8
0
 10
 3.00000000000000E+0002
 20
 2.36050000000000E+0002
 40
 2.00000000000000E+0001
  0
CIRCLE
  8
0
 10
 3.63000000000000E+0002
 20
 2.36050000000000E+0002
 40
 2.00000000000000E+0001
  0
ENDSEC
  0
EOF
