  0
SECTION
  2
HEADER
  9
$ACADVER
  1
AC1003
  9
$INSBASE
 10
0.0
 20
0.0
  9
$EXTMIN
 10
 0.00000000000000E+0000
 20
 0.00000000000000E+0000
  9
$EXTMAX
 10
 8.00000000000000E+0001
 20
 8.00000000000000E+0001
  9
$LIMMIN
 10
0.0
 20
0.0
  9
$LIMMAX
 10
410.0
 20
287.0
  9
$VIEWCTR
 10
227.0059616
 20
165.058879 
  9
$VIEWSIZE
 40
 8.00000000000000E+0001
9
$SNAPMODE
70
0
9
$SNAPUNIT
10
1
20
1
9
$GRIDMODE
70
0
9
$GRIDUNIT
10
1
20
1
9
$ORTHOMODE
70
0
9
$rEGENMODE
70
1
9
$FILLMODE
70
1
9
$DRAGMODE
70
2
9
$LTSCALE
40
25.0
9
$OSMODE
70
0
9
$ATTMODE
70
1
9
$TRACEWID
40
1.0
9
$TEXTSTYLE
7
STANDARD
9
$CLAYER
8
0
9
$CELTYPE
6
VONLAYER
9
$CECOLOR
62
256
9
$LUNITS
70
2
9
$LUPREC
70
2
9
$AXISMODE
70
0
9
$AXISUNIT
10
0
20
0
9
$SKETCHINC
40
1.0
9
$FILLETRAD
40
0.0
9
$AUNITS
70
0
9
$AUPREC
70
0
9
$MENU
1
ACAD
9
$ELEVATION
40
0.0
9
$THICKNESS
40
0.0
9
$VIEWDIR
10
0.0
20
0.0
30
1.0
9
$LIMCHECK
70
0
9
$BLIPMODE
70
1
9
$CHAMFERA
40
0.0
9
$CHAMFERB
40
0.0
9
$USRTIMER
70
1
9
$ANGBASE
50
0.0
9
$ANGDIR
70
0
9
$PDMODE
70
0
9
$PDSIZE
40
0.0
9
$PLINEWID
40
0.0
9
$COORDS
70
0
0
ENDSEC
0
SECTION
2
TABLES
0
TABLE
2
LTYPE
70
1
0
LTYPE
2
AUSGEZOGEN
70
64
3
Ausgezogene Linie
72
65
73
0
40
0.0
0
ENDTAB
0
TABLE
2
LAYER
70
1
0
LAYER
2
0
70
0
62
7
6
AUSGEZOGEN
0
ENDTAB
0
TABLE
2
STYLE
70
1
0
STYLE
2
STANDARD
70
0
40
0.0
41
1.0
50
0.0
71
0
42
3.5
3
txt
4

0
ENDTAB
0
TABLE
2
VIEW
70
0
0
ENDTAB
0
ENDSEC
0
SECTION
2
BLOCKS
0
ENDSEC
0
SECTION
2
ENTITIES
  0
CIRCLE
  8
0
 10
 4.00000000000000E+0001
 20
 4.00000000000000E+0001
 40
 4.00000000000000E+0001
  0
LINE
  8
0
 10
 1.00000000000000E+0001
 20
 1.72500000000000E+0001
 11
 1.00000000000000E+0001
 21
 2.97500000000000E+0001
  0
LINE
  8
0
 10
 1.00000000000000E+0001
 20
 2.97500000000000E+0001
 11
 7.00000000000000E+0001
 21
 2.97500000000000E+0001
  0
LINE
  8
0
 10
 7.00000000000000E+0001
 20
 2.97500000000000E+0001
 11
 7.00000000000000E+0001
 21
 1.72500000000000E+0001
  0
LINE
  8
0
 10
 7.00000000000000E+0001
 20
 1.72500000000000E+0001
 11
 1.00000000000000E+0001
 21
 1.72500000000000E+0001
  0
LINE
  8
0
 10
 1.00000000000000E+0001
 20
 3.17500000000000E+0001
 11
 1.00000000000000E+0001
 21
 4.42500000000000E+0001
  0
LINE
  8
0
 10
 1.00000000000000E+0001
 20
 4.42500000000000E+0001
 11
 7.00000000000000E+0001
 21
 4.42500000000000E+0001
  0
LINE
  8
0
 10
 7.00000000000000E+0001
 20
 4.42500000000000E+0001
 11
 7.00000000000000E+0001
 21
 3.17500000000000E+0001
  0
LINE
  8
0
 10
 7.00000000000000E+0001
 20
 3.17500000000000E+0001
 11
 1.00000000000000E+0001
 21
 3.17500000000000E+0001
  0
CIRCLE
  8
0
 10
 4.00000000000000E+0001
 20
 1.25000000000000E+0001
 40
 1.00000000000000E+0001
  0
LINE
  8
0
 10
 3.66890000000000E+0000
 20
 5.24187000000000E+0001
 11
 3.65000000000000E+0000
 21
 5.24000000000000E+0001
  0
ARC
  8
0
 10
 4.60000000000000E+0000
 20
 5.24000000000000E+0001
 40
 9.50000000000000E-0001
 50
 1.43065000000000E+0002
 51
 1.80000000000000E+0002
  0
LINE
  8
0
 10
 3.84064815321087E+0000
 20
 5.29708631821881E+0001
 11
 4.02969845848546E+0000
 21
 5.32395980184825E+0001
  0
ARC
  8
0
 10
 1.75000000000000E+0000
 20
 5.49500000000000E+0001
 40
 2.85000000000000E+0000
 50
 3.23120000000000E+0002
 51
 3.36465000000000E+0002
  0
LINE
  8
0
 10
 4.36292651585297E+0000
 20
 5.38119687953520E+0001
 11
 5.66651906867057E+0000
 21
 5.67193833486206E+0001
  0
ARC
  8
0
 10
 6.40000000000000E+0000
 20
 5.64000000000000E+0001
 40
 8.00000000000000E-0001
 50
 9.00050000000000E+0001
 51
 1.56470000000000E+0002
  0
LINE
  8
0
 10
 6.39993018683001E+0000
 20
 5.71999999969538E+0001
 11
 1.03619000000000E+0001
 21
 5.71996000000000E+0001
  0
LINE
  8
0
 10
 1.03619000000000E+0001
 20
 5.71996000000000E+0001
 11
 1.03619000000000E+0001
 21
 5.64030000000000E+0001
  0
LINE
  8
0
 10
 1.03619000000000E+0001
 20
 5.64030000000000E+0001
 11
 6.55000000000000E+0000
 21
 5.64000000000000E+0001
  0
ARC
  8
0
 10
 6.55000000000000E+0000
 20
 5.61000000000000E+0001
 40
 3.00000000000000E-0001
 50
 9.00000000000000E+0001
 51
 1.56440000000000E+0002
  0
LINE
  8
0
 10
 6.27500739922645E+0000
 20
 5.62199127579526E+0001
 11
 5.18290000000000E+0000
 21
 5.36937000000000E+0001
  0
LINE
  8
0
 10
 5.18290000000000E+0000
 20
 5.36937000000000E+0001
 11
 1.03619000000000E+0001
 21
 5.36937000000000E+0001
  0
LINE
  8
0
 10
 1.03619000000000E+0001
 20
 5.36937000000000E+0001
 11
 1.03619000000000E+0001
 21
 4.95500000000000E+0001
  0
LINE
  8
0
 10
 1.03619000000000E+0001
 20
 4.95500000000000E+0001
 11
 4.45000000000000E+0000
 21
 4.95500000000000E+0001
  0
ARC
  8
0
 10
 4.45000000000000E+0000
 20
 5.03500000000000E+0001
 40
 8.00000000000000E-0001
 50
 1.79980000000000E+0002
 51
 2.70000000000000E+0002
  0
LINE
  8
0
 10
 3.65000004873879E+0000
 20
 5.03502792526746E+0001
 11
 3.66890000000000E+0000
 21
 5.24187000000000E+0001
  0
LINE
  8
0
 10
 4.46480000000000E+0000
 20
 4.92310000000000E+0001
 11
 6.37780000000000E+0000
 21
 4.92310000000000E+0001
  0
LINE
  8
0
 10
 6.37780000000000E+0000
 20
 4.92310000000000E+0001
 11
 6.40000000000000E+0000
 21
 4.75000000000000E+0001
  0
ARC
  8
0
 10
 5.90000000000000E+0000
 20
 4.75000000000000E+0001
 40
 5.00000000000000E-0001
 50
 2.70000000000000E+0002
 51
 3.60000000000000E+0002
  0
LINE
  8
0
 10
 5.90000000000000E+0000
 20
 4.70000000000000E+0001
 11
 4.95000000000000E+0000
 21
 4.70000000000000E+0001
  0
ARC
  8
0
 10
 4.95000000000000E+0000
 20
 4.75000000000000E+0001
 40
 5.00000000000000E-0001
 50
 1.79975000000000E+0002
 51
 2.70000000000000E+0002
  0
LINE
  8
0
 10
 4.45000004759647E+0000
 20
 4.75002181661496E+0001
 11
 4.46480000000000E+0000
 21
 4.92310000000000E+0001
  0
CIRCLE
  8
0
 10
 5.45000000000000E+0000
 20
 5.19500000000000E+0001
 40
 9.50000000000000E-0001
  0
LINE
  8
0
 10
 1.56209000000000E+0001
 20
 4.92310000000000E+0001
 11
 1.75338000000000E+0001
 21
 4.92310000000000E+0001
  0
LINE
  8
0
 10
 1.75338000000000E+0001
 20
 4.92310000000000E+0001
 11
 1.75500000000000E+0001
 21
 4.75000000000000E+0001
  0
ARC
  8
0
 10
 1.70500000000000E+0001
 20
 4.75000000000000E+0001
 40
 5.00000000000000E-0001
 50
 2.70000000000000E+0002
 51
 3.60000000000000E+0002
  0
LINE
  8
0
 10
 1.70500000000000E+0001
 20
 4.70000000000000E+0001
 11
 1.61000000000000E+0001
 21
 4.70000000000000E+0001
  0
ARC
  8
0
 10
 1.61000000000000E+0001
 20
 4.75000000000000E+0001
 40
 5.00000000000000E-0001
 50
 1.79975000000000E+0002
 51
 2.70000000000000E+0002
  0
LINE
  8
0
 10
 1.56000000475964E+0001
 20
 4.75002181661496E+0001
 11
 1.56209000000000E+0001
 21
 4.92310000000000E+0001
  0
CIRCLE
  8
0
 10
 1.66000000000000E+0001
 20
 5.19500000000000E+0001
 40
 9.50000000000000E-0001
  0
LINE
  8
0
 10
 1.16368000000000E+0001
 20
 5.71996000000000E+0001
 11
 1.56000000000000E+0001
 21
 5.72000000000000E+0001
  0
ARC
  8
0
 10
 1.56000000000000E+0001
 20
 5.64000000000000E+0001
 40
 8.00000000000000E-0001
 50
 2.35250000000000E+0001
 51
 9.00000000000000E+0001
  0
LINE
  8
0
 10
 1.63335087999916E+0001
 20
 5.67193193391183E+0001
 11
 1.76372721478583E+0001
 21
 5.38115127709794E+0001
  0
ARC
  8
0
 10
 2.02500000000000E+0001
 20
 5.49500000000000E+0001
 40
 2.85000000000000E+0000
 50
 2.03545000000000E+0002
 51
 2.16865000000000E+0002
  0
LINE
  8
0
 10
 1.79698538374520E+0001
 20
 5.32401949007510E+0001
 11
 1.81591525316887E+0001
 21
 5.29711282112019E+0001
  0
ARC
  8
0
 10
 1.74000000000000E+0001
 20
 5.24000000000000E+0001
 40
 9.50000000000000E-0001
 50
 5.00000000000000E-0003
 51
 3.69550000000000E+0001
  0
LINE
  8
0
 10
 1.83499999963827E+0001
 20
 5.24000829031394E+0001
 11
 1.83500000000000E+0001
 21
 5.03500000000000E+0001
  0
ARC
  8
0
 10
 1.75500000000000E+0001
 20
 5.03500000000000E+0001
 40
 8.00000000000000E-0001
 50
 2.70020000000000E+0002
 51
 3.60000000000000E+0002
  0
LINE
  8
0
 10
 1.75502792526746E+0001
 20
 4.95500000487388E+0001
 11
 1.16558000000000E+0001
 21
 4.95500000000000E+0001
  0
LINE
  8
0
 10
 1.16558000000000E+0001
 20
 4.95500000000000E+0001
 11
 1.16368000000000E+0001
 21
 4.95500000000000E+0001
  0
LINE
  8
0
 10
 1.16368000000000E+0001
 20
 4.95500000000000E+0001
 11
 1.16368000000000E+0001
 21
 5.36937000000000E+0001
  0
LINE
  8
0
 10
 1.16368000000000E+0001
 20
 5.36937000000000E+0001
 11
 1.16748000000000E+0001
 21
 5.36937000000000E+0001
  0
LINE
  8
0
 10
 1.16748000000000E+0001
 20
 5.36937000000000E+0001
 11
 1.68159000000000E+0001
 21
 5.36937000000000E+0001
  0
LINE
  8
0
 10
 1.68159000000000E+0001
 20
 5.36937000000000E+0001
 11
 1.57251180223155E+0001
 21
 5.62196247206776E+0001
  0
ARC
  8
0
 10
 1.54500000000000E+0001
 20
 5.61000000000000E+0001
 40
 3.00000000000000E-0001
 50
 2.35000000000000E+0001
 51
 9.00200000000000E+0001
  0
LINE
  8
0
 10
 1.54498952802470E+0001
 20
 5.63999999817230E+0001
 11
 1.16868000000000E+0001
 21
 5.64030000000000E+0001
  0
LINE
  8
0
 10
 1.16868000000000E+0001
 20
 5.64030000000000E+0001
 11
 1.16368000000000E+0001
 21
 5.64030000000000E+0001
  0
LINE
  8
0
 10
 1.16368000000000E+0001
 20
 5.64030000000000E+0001
 11
 1.16368000000000E+0001
 21
 5.71996000000000E+0001
  0
ARC
  8
0
 10
 2.87027000000000E+0001
 20
 6.61437500000000E+0001
 40
 4.25000000000000E+0000
 50
 1.80000000000000E+0002
 51
 3.49921300000000E+0002
  0
LINE
  8
0
 10
 2.44527000000000E+0001
 20
 6.61437500000000E+0001
 11
 2.44527000000000E+0001
 21
 6.97562500000000E+0001
  0
ARC
  8
0
 10
 2.87027000000000E+0001
 20
 6.97562500000000E+0001
 40
 4.25000000000000E+0000
 50
 1.00787000000000E+0001
 51
 1.80000000000000E+0002
  0
LINE
  8
0
 10
 3.28871152980478E+0001
 20
 7.05000030594649E+0001
 11
 3.10305212831417E+0001
 21
 7.04999987050427E+0001
  0
ARC
  8
0
 10
 2.87027000000000E+0001
 20
 6.97562500000000E+0001
 40
 2.44375000000000E+0000
 50
 1.77189000000000E+0001
 51
 1.80000000000000E+0002
  0
LINE
  8
0
 10
 2.62589500000000E+0001
 20
 6.97562500000000E+0001
 11
 2.62589500000000E+0001
 21
 6.61437500000000E+0001
  0
ARC
  8
0
 10
 2.87027000000000E+0001
 20
 6.61437500000000E+0001
 40
 2.44375000000000E+0000
 50
 1.80000000000000E+0002
 51
 3.42281100000000E+0002
  0
LINE
  8
0
 10
 3.10305212831417E+0001
 20
 6.54000012949573E+0001
 11
 3.28871118750000E+0001
 21
 6.54000000000000E+0001
  0
LINE
  8
0
 10
 4.11746118749987E+0001
 20
 6.20000000000000E+0001
 11
 3.94746118749987E+0001
 21
 6.20000000000000E+0001
  0
LINE
  8
0
 10
 3.94746118749987E+0001
 20
 6.20000000000000E+0001
 11
 3.94746122250812E+0001
 21
 6.28769916716677E+0001
  0
ARC
  8
0
 10
 3.79871118749987E+0001
 20
 6.37000000000000E+0001
 40
 1.70000000000000E+0000
 50
 2.70000000000000E+0002
 51
 3.31045000000000E+0002
  0
LINE
  8
0
 10
 3.79871118749987E+0001
 20
 6.20000000000000E+0001
 11
 3.69246118749987E+0001
 21
 6.20000000000000E+0001
  0
ARC
  8
0
 10
 3.69246118749987E+0001
 20
 6.45500000000000E+0001
 40
 2.55000000000000E+0000
 50
 9.00000000000000E+0001
 51
 2.70000000000000E+0002
  0
LINE
  8
0
 10
 3.69246118749987E+0001
 20
 6.71000000000000E+0001
 11
 3.94746118749987E+0001
 21
 6.71000000000000E+0001
  0
LINE
  8
0
 10
 3.94746118749987E+0001
 20
 6.71000000000000E+0001
 11
 3.94746118749987E+0001
 21
 6.79500000000000E+0001
  0
ARC
  8
0
 10
 3.85183618749987E+0001
 20
 6.79500000000000E+0001
 40
 9.56250000000000E-0001
 50
 0.00000000000000E+0000
 51
 8.00738000000000E+0001
  0
LINE
  8
0
 10
 3.86831998191131E+0001
 20
 6.88919355151390E+0001
 11
 3.86831967914247E+0001
 21
 6.88919380934959E+0001
  0
ARC
  8
0
 10
 3.77746118749987E+0001
 20
 6.37000000000000E+0001
 40
 5.27083937500000E+0000
 50
 8.00738000000000E+0001
 51
 9.99263000000000E+0001
  0
LINE
  8
0
 10
 3.68660178969326E+0001
 20
 6.88919365077081E+0001
 11
 3.68660222868969E+0001
 21
 6.88919352274411E+0001
  0
ARC
  8
0
 10
 3.70308618749987E+0001
 20
 6.79500000000000E+0001
 40
 9.56250000000000E-0001
 50
 9.99263000000000E+0001
 51
 1.53612200000000E+0002
  0
LINE
  8
0
 10
 3.61742469895294E+0001
 20
 6.83750000005794E+0001
 11
 3.48301784460273E+0001
 21
 6.94375000867061E+0001
  0
ARC
  8
0
 10
 3.70308618749987E+0001
 20
 6.79500000000000E+0001
 40
 2.65625000000000E+0000
 50
 9.99263000000000E+0001
 51
 1.45944200000000E+0002
  0
LINE
  8
0
 10
 3.65729741302715E+0001
 20
 7.05664867428918E+0001
 11
 3.65729697403072E+0001
 21
 7.05664880231589E+0001
  0
ARC
  8
0
 10
 3.77746118749987E+0001
 20
 6.37000000000000E+0001
 40
 6.97083937500000E+0000
 50
 8.00738000000000E+0001
 51
 9.99263000000000E+0001
  0
LINE
  8
0
 10
 3.89762420254059E+0001
 20
 7.05664901204096E+0001
 11
 3.89762450530943E+0001
 21
 7.05664875420527E+0001
  0
ARC
  8
0
 10
 3.85183618749987E+0001
 20
 6.79500000000000E+0001
 40
 2.65625000000000E+0000
 50
 0.00000000000000E+0000
 51
 8.00738000000000E+0001
  0
LINE
  8
0
 10
 4.11746118749987E+0001
 20
 6.79500000000000E+0001
 11
 4.11746118749987E+0001
 21
 6.20000000000000E+0001
  0
LINE
  8
0
 10
 3.94746118749987E+0001
 20
 6.57187500000000E+0001
 11
 3.94746118749987E+0001
 21
 6.46562500000000E+0001
  0
ARC
  8
0
 10
 3.84121118749987E+0001
 20
 6.46562500000000E+0001
 40
 1.06250000000000E+0000
 50
 2.70000000000000E+0002
 51
 3.60000000000000E+0002
  0
LINE
  8
0
 10
 3.84121118749987E+0001
 20
 6.35937500000000E+0001
 11
 3.70308618749987E+0001
 21
 6.35937500000000E+0001
  0
ARC
  8
0
 10
 3.70308618749987E+0001
 20
 6.46562500000000E+0001
 40
 1.06250000000000E+0000
 50
 9.00000000000000E+0001
 51
 2.70000000000000E+0002
  0
LINE
  8
0
 10
 3.70308618749987E+0001
 20
 6.57187500000000E+0001
 11
 3.94746118749987E+0001
 21
 6.57187500000000E+0001
  0
LINE
  8
0
 10
 4.37246118750002E+0001
 20
 6.20000000000000E+0001
 11
 4.37246118750002E+0001
 21
 7.05000000000000E+0001
  0
LINE
  8
0
 10
 4.37246118750002E+0001
 20
 7.05000000000000E+0001
 11
 4.54246118750002E+0001
 21
 7.05000000000000E+0001
  0
LINE
  8
0
 10
 4.54246118750002E+0001
 20
 7.05000000000000E+0001
 11
 4.54246118350648E+0001
 21
 6.95406222426082E+0001
  0
ARC
  8
0
 10
 4.76558618750002E+0001
 20
 6.77375000000000E+0001
 40
 2.86875000000000E+0000
 50
 5.09772000000000E+0001
 51
 1.41057560000000E+0002
  0
LINE
  8
0
 10
 4.94621117752165E+0001
 20
 6.99662188832306E+0001
 11
 4.82546281578047E+0001
 21
 6.84763142505782E+0001
  0
ARC
  8
0
 10
 4.71246118750002E+0001
 20
 6.72062500000000E+0001
 40
 1.70000000000000E+0000
 50
 4.83395000000000E+0001
 51
 1.80000000000000E+0002
  0
LINE
  8
0
 10
 4.54246118750002E+0001
 20
 6.72062500000000E+0001
 11
 4.54246118750002E+0001
 21
 6.20000000000000E+0001
  0
LINE
  8
0
 10
 4.54246118750002E+0001
 20
 6.20000000000000E+0001
 11
 4.37246118750002E+0001
 21
 6.20000000000000E+0001
  0
LINE
  8
0
 10
 5.07371118750018E+0001
 20
 6.58250000000000E+0001
 11
 5.07371118750018E+0001
 21
 6.75250000000000E+0001
  0
LINE
  8
0
 10
 5.07371118750018E+0001
 20
 6.75250000000000E+0001
 11
 5.58371118750018E+0001
 21
 6.75250000000000E+0001
  0
LINE
  8
0
 10
 5.58371118750018E+0001
 20
 6.75250000000000E+0001
 11
 5.58371118750018E+0001
 21
 6.58250000000000E+0001
  0
LINE
  8
0
 10
 5.58371118750018E+0001
 20
 6.58250000000000E+0001
 11
 5.07371118750018E+0001
 21
 6.58250000000000E+0001
  0
ARC
  8
0
 10
 2.33135500000000E+0001
 20
 5.36000000000000E+0001
 40
 5.27340000000000E+0000
 50
 2.25155100000000E+0002
 51
 2.90556000000000E+0002
  0
LINE
  8
0
 10
 2.51651604599363E+0001
 20
 4.86623602536582E+0001
 11
 2.51651628916520E+0001
 21
 4.86623598905504E+0001
  0
ARC
  8
0
 10
 2.42698000000000E+0001
 20
 5.10500000000000E+0001
 40
 2.55000000000000E+0000
 50
 2.90556000000000E+0002
 51
 4.46423500000000E+0002
  0
LINE
  8
0
 10
 2.44288719866292E+0001
 20
 5.35950336153123E+0001
 11
 2.26230260044569E+0001
 21
 5.37079054615625E+0001
  0
ARC
  8
0
 10
 2.26760500000000E+0001
 20
 5.45562500000000E+0001
 40
 8.50000000000000E-0001
 50
 1.03495700000000E+0002
 51
 2.66423500000000E+0002
  0
LINE
  8
0
 10
 2.24776834704933E+0001
 20
 5.53827793219067E+0001
 11
 2.24776855158728E+0001
 21
 5.53827775985676E+0001
  0
ARC
  8
0
 10
 2.33135500000000E+0001
 20
 5.19000000000000E+0001
 40
 3.58167687500000E+0000
 50
 5.14192000000000E+0001
 51
 1.03495700000000E+0002
  0
LINE
  8
0
 10
 2.55471469934306E+0001
 20
 5.46999024461305E+0001
 11
 2.66072970352548E+0001
 21
 5.60288425835408E+0001
  0
ARC
  8
0
 10
 2.33135500000000E+0001
 20
 5.19000000000000E+0001
 40
 5.28167687500000E+0000
 50
 5.14192000000000E+0001
 51
 1.03495700000000E+0002
  0
LINE
  8
0
 10
 2.20809524568595E+0001
 20
 5.70358362423810E+0001
 11
 2.20809504114800E+0001
 21
 5.70358379657200E+0001
  0
ARC
  8
0
 10
 2.26760500000000E+0001
 20
 5.45562500000000E+0001
 40
 2.55000000000000E+0000
 50
 1.03495700000000E+0002
 51
 2.66423500000000E+0002
  0
LINE
  8
0
 10
 2.25169780133708E+0001
 20
 5.20112163846876E+0001
 11
 2.43228239955431E+0001
 21
 5.18983445384374E+0001
  0
ARC
  8
0
 10
 2.42698000000000E+0001
 20
 5.10500000000000E+0001
 40
 8.50000000000000E-0001
 50
 2.90556000000000E+0002
 51
 4.46423500000000E+0002
  0
LINE
  8
0
 10
 2.45682542972173E+0001
 20
 5.02541199635168E+0001
 11
 2.45682518655017E+0001
 21
 5.02541203266246E+0001
  0
ARC
  8
0
 10
 2.33135500000000E+0001
 20
 5.36000000000000E+0001
 40
 3.57340000000000E+0000
 50
 2.25155100000000E+0002
 51
 2.90556000000000E+0002
  0
LINE
  8
0
 10
 2.07936238729597E+0001
 20
 5.10663938991509E+0001
 11
 1.95948000000000E+0001
 21
 4.98610625000000E+0001
  0
LINE
  8
0
 10
 2.89448000000031E+0001
 20
 4.85000000000000E+0001
 11
 2.89448000000031E+0001
 21
 6.04000000000000E+0001
  0
LINE
  8
0
 10
 2.89448000000031E+0001
 20
 6.04000000000000E+0001
 11
 3.06448000000031E+0001
 21
 6.04000000000000E+0001
  0
LINE
  8
0
 10
 3.06448000000031E+0001
 20
 6.04000000000000E+0001
 11
 3.06447999600677E+0001
 21
 5.60406222426082E+0001
  0
ARC
  8
0
 10
 3.28760500000031E+0001
 20
 5.42375000000000E+0001
 40
 2.86875000000000E+0000
 50
 0.00000000000000E+0000
 51
 1.41057560000000E+0002
  0
LINE
  8
0
 10
 3.57448000000031E+0001
 20
 5.42375000000000E+0001
 11
 3.57448000000031E+0001
 21
 4.85000000000000E+0001
  0
LINE
  8
0
 10
 3.57448000000031E+0001
 20
 4.85000000000000E+0001
 11
 3.40448000000031E+0001
 21
 4.85000000000000E+0001
  0
LINE
  8
0
 10
 3.40448000000031E+0001
 20
 4.85000000000000E+0001
 11
 3.40448000000031E+0001
 21
 5.37062500000000E+0001
  0
ARC
  8
0
 10
 3.23448000000031E+0001
 20
 5.37062500000000E+0001
 40
 1.70000000000000E+0000
 50
 0.00000000000000E+0000
 51
 1.80000000000000E+0002
  0
LINE
  8
0
 10
 3.06448000000031E+0001
 20
 5.37062500000000E+0001
 11
 3.06448000000031E+0001
 21
 4.85000000000000E+0001
  0
LINE
  8
0
 10
 3.06448000000031E+0001
 20
 4.85000000000000E+0001
 11
 2.89448000000031E+0001
 21
 4.85000000000000E+0001
  0
LINE
  8
0
 10
 4.44573000000047E+0001
 20
 4.85000000000000E+0001
 11
 4.27573000000046E+0001
 21
 4.85000000000000E+0001
  0
LINE
  8
0
 10
 4.27573000000046E+0001
 20
 4.85000000000000E+0001
 11
 4.27573003500872E+0001
 21
 4.93769916716677E+0001
  0
ARC
  8
0
 10
 4.12698000000046E+0001
 20
 5.02000000000000E+0001
 40
 1.70000000000000E+0000
 50
 2.70000000000000E+0002
 51
 3.31045000000000E+0002
  0
LINE
  8
0
 10
 4.12698000000046E+0001
 20
 4.85000000000000E+0001
 11
 4.02073000000046E+0001
 21
 4.85000000000000E+0001
  0
ARC
  8
0
 10
 4.02073000000046E+0001
 20
 5.10500000000000E+0001
 40
 2.55000000000000E+0000
 50
 9.00000000000000E+0001
 51
 2.70000000000000E+0002
  0
LINE
  8
0
 10
 4.02073000000046E+0001
 20
 5.36000000000000E+0001
 11
 4.27573000000046E+0001
 21
 5.36000000000000E+0001
  0
LINE
  8
0
 10
 4.27573000000046E+0001
 20
 5.36000000000000E+0001
 11
 4.27573000000046E+0001
 21
 5.44500000000000E+0001
  0
ARC
  8
0
 10
 4.18010500000047E+0001
 20
 5.44500000000000E+0001
 40
 9.56250000000000E-0001
 50
 0.00000000000000E+0000
 51
 8.00738000000000E+0001
  0
LINE
  8
0
 10
 4.19658879441191E+0001
 20
 5.53919355151390E+0001
 11
 4.19658849164306E+0001
 21
 5.53919380934959E+0001
  0
ARC
  8
0
 10
 4.10573000000046E+0001
 20
 5.02000000000000E+0001
 40
 5.27083937500000E+0000
 50
 8.00738000000000E+0001
 51
 9.99263000000000E+0001
  0
LINE
  8
0
 10
 4.01487060219386E+0001
 20
 5.53919365077081E+0001
 11
 4.01487104119029E+0001
 21
 5.53919352274411E+0001
  0
ARC
  8
0
 10
 4.03135500000047E+0001
 20
 5.44500000000000E+0001
 40
 9.56250000000000E-0001
 50
 9.99263000000000E+0001
 51
 1.53612200000000E+0002
  0
LINE
  8
0
 10
 3.94569351145354E+0001
 20
 5.48750000005794E+0001
 11
 3.81128665710332E+0001
 21
 5.59375000867061E+0001
  0
ARC
  8
0
 10
 4.03135500000047E+0001
 20
 5.44500000000000E+0001
 40
 2.65625000000000E+0000
 50
 9.99263000000000E+0001
 51
 1.45944200000000E+0002
  0
LINE
  8
0
 10
 3.98556622552775E+0001
 20
 5.70664867428918E+0001
 11
 3.98556578653132E+0001
 21
 5.70664880231589E+0001
  0
ARC
  8
0
 10
 4.10573000000046E+0001
 20
 5.02000000000000E+0001
 40
 6.97083937500000E+0000
 50
 8.00738000000000E+0001
 51
 9.99263000000000E+0001
  0
LINE
  8
0
 10
 4.22589301504118E+0001
 20
 5.70664901204096E+0001
 11
 4.22589331781003E+0001
 21
 5.70664875420527E+0001
  0
ARC
  8
0
 10
 4.18010500000047E+0001
 20
 5.44500000000000E+0001
 40
 2.65625000000000E+0000
 50
 0.00000000000000E+0000
 51
 8.00738000000000E+0001
  0
LINE
  8
0
 10
 4.44573000000047E+0001
 20
 5.44500000000000E+0001
 11
 4.44573000000047E+0001
 21
 4.85000000000000E+0001
  0
LINE
  8
0
 10
 4.27573000000046E+0001
 20
 5.22187500000000E+0001
 11
 4.27573000000046E+0001
 21
 5.11562500000000E+0001
  0
ARC
  8
0
 10
 4.16948000000046E+0001
 20
 5.11562500000000E+0001
 40
 1.06250000000000E+0000
 50
 2.70000000000000E+0002
 51
 3.60000000000000E+0002
  0
LINE
  8
0
 10
 4.16948000000046E+0001
 20
 5.00937500000000E+0001
 11
 4.03135500000047E+0001
 21
 5.00937500000000E+0001
  0
ARC
  8
0
 10
 4.03135500000047E+0001
 20
 5.11562500000000E+0001
 40
 1.06250000000000E+0000
 50
 9.00000000000000E+0001
 51
 2.70000000000000E+0002
  0
LINE
  8
0
 10
 4.03135500000047E+0001
 20
 5.22187500000000E+0001
 11
 4.27573000000046E+0001
 21
 5.22187500000000E+0001
  0
LINE
  8
0
 10
 4.70073000000062E+0001
 20
 4.85000000000000E+0001
 11
 4.70073000000062E+0001
 21
 5.70000000000000E+0001
  0
LINE
  8
0
 10
 4.70073000000062E+0001
 20
 5.70000000000000E+0001
 11
 4.87073000000062E+0001
 21
 5.70000000000000E+0001
  0
LINE
  8
0
 10
 4.87073000000062E+0001
 20
 5.70000000000000E+0001
 11
 4.87072999600708E+0001
 21
 5.60406222426082E+0001
  0
ARC
  8
0
 10
 5.09385500000062E+0001
 20
 5.42375000000000E+0001
 40
 2.86875000000000E+0000
 50
 5.09772000000000E+0001
 51
 1.41057560000000E+0002
  0
LINE
  8
0
 10
 5.27447999002225E+0001
 20
 5.64662188832306E+0001
 11
 5.15373162828107E+0001
 21
 5.49763142505782E+0001
  0
ARC
  8
0
 10
 5.04073000000062E+0001
 20
 5.37062500000000E+0001
 40
 1.70000000000000E+0000
 50
 4.83395000000000E+0001
 51
 1.80000000000000E+0002
  0
LINE
  8
0
 10
 4.87073000000062E+0001
 20
 5.37062500000000E+0001
 11
 4.87073000000062E+0001
 21
 4.85000000000000E+0001
  0
LINE
  8
0
 10
 4.87073000000062E+0001
 20
 4.85000000000000E+0001
 11
 4.70073000000062E+0001
 21
 4.85000000000000E+0001
  0
LINE
  8
0
 10
 5.40198000000077E+0001
 20
 4.85000000000000E+0001
 11
 5.40198000000077E+0001
 21
 5.70000000000000E+0001
  0
LINE
  8
0
 10
 5.40198000000077E+0001
 20
 5.70000000000000E+0001
 11
 5.57198000000077E+0001
 21
 5.70000000000000E+0001
  0
LINE
  8
0
 10
 5.57198000000077E+0001
 20
 5.70000000000000E+0001
 11
 5.57198000000077E+0001
 21
 4.85000000000000E+0001
  0
LINE
  8
0
 10
 5.57198000000077E+0001
 20
 4.85000000000000E+0001
 11
 5.40198000000077E+0001
 21
 4.85000000000000E+0001
  0
LINE
  8
0
 10
 5.40198000000077E+0001
 20
 5.87000000000000E+0001
 11
 5.40198000000077E+0001
 21
 6.04000000000000E+0001
  0
LINE
  8
0
 10
 5.40198000000077E+0001
 20
 6.04000000000000E+0001
 11
 5.57198000000077E+0001
 21
 6.04000000000000E+0001
  0
LINE
  8
0
 10
 5.57198000000077E+0001
 20
 6.04000000000000E+0001
 11
 5.57198000000077E+0001
 21
 5.87000000000000E+0001
  0
LINE
  8
0
 10
 5.57198000000077E+0001
 20
 5.87000000000000E+0001
 11
 5.40198000000077E+0001
 21
 5.87000000000000E+0001
  0
LINE
  8
0
 10
 5.82698000000081E+0001
 20
 4.85000000000000E+0001
 11
 5.82698000000081E+0001
 21
 5.70000000000000E+0001
  0
LINE
  8
0
 10
 5.82698000000081E+0001
 20
 5.70000000000000E+0001
 11
 5.99698000000081E+0001
 21
 5.70000000000000E+0001
  0
LINE
  8
0
 10
 5.99698000000081E+0001
 20
 5.70000000000000E+0001
 11
 5.99697999600728E+0001
 21
 5.60406222426082E+0001
  0
ARC
  8
0
 10
 6.22010500000081E+0001
 20
 5.42375000000000E+0001
 40
 2.86875000000000E+0000
 50
 0.00000000000000E+0000
 51
 1.41057560000000E+0002
  0
LINE
  8
0
 10
 6.50698000000081E+0001
 20
 5.42375000000000E+0001
 11
 6.50698000000081E+0001
 21
 4.85000000000000E+0001
  0
LINE
  8
0
 10
 6.50698000000081E+0001
 20
 4.85000000000000E+0001
 11
 6.33698000000081E+0001
 21
 4.85000000000000E+0001
  0
LINE
  8
0
 10
 6.33698000000081E+0001
 20
 4.85000000000000E+0001
 11
 6.33698000000081E+0001
 21
 5.37062500000000E+0001
  0
ARC
  8
0
 10
 6.16698000000081E+0001
 20
 5.37062500000000E+0001
 40
 1.70000000000000E+0000
 50
 0.00000000000000E+0000
 51
 1.80000000000000E+0002
  0
LINE
  8
0
 10
 5.99698000000081E+0001
 20
 5.37062500000000E+0001
 11
 5.99698000000081E+0001
 21
 4.85000000000000E+0001
  0
LINE
  8
0
 10
 5.99698000000081E+0001
 20
 4.85000000000000E+0001
 11
 5.82698000000081E+0001
 21
 4.85000000000000E+0001
  0
LINE
  8
0
 10
 7.42073000000097E+0001
 20
 5.70000000000000E+0001
 11
 7.42073000000097E+0001
 21
 4.83937500000000E+0001
  0
ARC
  8
0
 10
 7.08073000000097E+0001
 20
 4.83937500000000E+0001
 40
 3.40000000000000E+0000
 50
 2.96565100000000E+0002
 51
 3.60000000000000E+0002
  0
LINE
  8
0
 10
 7.23278288160529E+0001
 20
 4.53526988462733E+0001
 11
 7.23278274697474E+0001
 21
 4.53527024442552E+0001
  0
ARC
  8
0
 10
 7.05948000000097E+0001
 20
 4.88187500000000E+0001
 40
 3.87516062500000E+0000
 50
 2.19095800000000E+0002
 51
 2.96565100000000E+0002
  0
LINE
  8
0
 10
 6.75873163758906E+0001
 20
 4.63750003974004E+0001
 11
 6.89066738569763E+0001
 21
 4.74470525589593E+0001
  0
ARC
  8
0
 10
 7.05948000000097E+0001
 20
 4.88187500000000E+0001
 40
 2.17516062500000E+0000
 50
 2.19095800000000E+0002
 51
 2.96565100000000E+0002
  0
LINE
  8
0
 10
 7.15675630617258E+0001
 20
 4.68732280211185E+0001
 11
 7.15675644080313E+0001
 21
 4.68732244231367E+0001
  0
ARC
  8
0
 10
 7.08073000000097E+0001
 20
 4.83937500000000E+0001
 40
 1.70000000000000E+0000
 50
 2.96565100000000E+0002
 51
 3.60000000000000E+0002
  0
LINE
  8
0
 10
 7.25073000000097E+0001
 20
 4.83937500000000E+0001
 11
 7.25073000399451E+0001
 21
 4.94593777573918E+0001
  0
ARC
  8
0
 10
 7.02760500000097E+0001
 20
 5.12625000000000E+0001
 40
 2.86875000000000E+0000
 50
 1.80000000000000E+0002
 51
 3.21057560000000E+0002
  0
LINE
  8
0
 10
 6.74073000000097E+0001
 20
 5.12625000000000E+0001
 11
 6.74073000000097E+0001
 21
 5.42375000000000E+0001
  0
ARC
  8
0
 10
 7.02760500000097E+0001
 20
 5.42375000000000E+0001
 40
 2.86875000000000E+0000
 50
 3.89424400000000E+0001
 51
 1.80000000000000E+0002
  0
LINE
  8
0
 10
 7.25073000399451E+0001
 20
 5.60406222426082E+0001
 11
 7.25073000000097E+0001
 21
 5.70000000000000E+0001
  0
LINE
  8
0
 10
 7.25073000000097E+0001
 20
 5.70000000000000E+0001
 11
 7.42073000000097E+0001
 21
 5.70000000000000E+0001
  0
ARC
  8
0
 10
 7.08073000000097E+0001
 20
 5.17937500000000E+0001
 40
 1.70000000000000E+0000
 50
 1.80000000000000E+0002
 51
 3.60000000000000E+0002
  0
LINE
  8
0
 10
 6.91073000000097E+0001
 20
 5.17937500000000E+0001
 11
 6.91073000000097E+0001
 21
 5.37062500000000E+0001
  0
ARC
  8
0
 10
 7.08073000000097E+0001
 20
 5.37062500000000E+0001
 40
 1.70000000000000E+0000
 50
 0.00000000000000E+0000
 51
 1.80000000000000E+0002
  0
LINE
  8
0
 10
 7.25073000000097E+0001
 20
 5.37062500000000E+0001
 11
 7.25073000000097E+0001
 21
 5.17937500000000E+0001
  0
LINE
  8
0
 10
 3.41100000000000E+0001
 20
 3.63000000000000E+0001
 11
 3.41100000000000E+0001
 21
 3.97000000000000E+0001
  0
LINE
  8
0
 10
 3.41100000000000E+0001
 20
 3.97000000000000E+0001
 11
 3.62957142857143E+0001
 21
 3.97000000000000E+0001
  0
LINE
  8
0
 10
 3.62957142857143E+0001
 20
 3.97000000000000E+0001
 11
 3.62957142857143E+0001
 21
 3.92142857142857E+0001
  0
LINE
  8
0
 10
 3.62957142857143E+0001
 20
 3.92142857142857E+0001
 11
 3.46260714285714E+0001
 21
 3.92142857142857E+0001
  0
LINE
  8
0
 10
 3.46260714285714E+0001
 20
 3.92142857142857E+0001
 11
 3.46260714285714E+0001
 21
 3.82125000000000E+0001
  0
LINE
  8
0
 10
 3.46260714285714E+0001
 20
 3.82125000000000E+0001
 11
 3.60528571428571E+0001
 21
 3.82125000000000E+0001
  0
LINE
  8
0
 10
 3.60528571428571E+0001
 20
 3.82125000000000E+0001
 11
 3.60528571428571E+0001
 21
 3.77571428571429E+0001
  0
LINE
  8
0
 10
 3.60528571428571E+0001
 20
 3.77571428571429E+0001
 11
 3.46260714285714E+0001
 21
 3.77571428571429E+0001
  0
LINE
  8
0
 10
 3.46260714285714E+0001
 20
 3.77571428571429E+0001
 11
 3.46260714285714E+0001
 21
 3.63000000000000E+0001
  0
LINE
  8
0
 10
 3.46260714285714E+0001
 20
 3.63000000000000E+0001
 11
 3.41100000000000E+0001
 21
 3.63000000000000E+0001
  0
LINE
  8
0
 10
 3.67814285714277E+0001
 20
 3.63000000000000E+0001
 11
 3.67814285714277E+0001
 21
 3.87285714285714E+0001
  0
LINE
  8
0
 10
 3.67814285714277E+0001
 20
 3.87285714285714E+0001
 11
 3.72671428571420E+0001
 21
 3.87285714285714E+0001
  0
LINE
  8
0
 10
 3.72671428571420E+0001
 20
 3.87285714285714E+0001
 11
 3.72671428571420E+0001
 21
 3.63000000000000E+0001
  0
LINE
  8
0
 10
 3.72671428571420E+0001
 20
 3.63000000000000E+0001
 11
 3.67814285714277E+0001
 21
 3.63000000000000E+0001
  0
LINE
  8
0
 10
 3.67814285714277E+0001
 20
 3.92142857142857E+0001
 11
 3.67814285714277E+0001
 21
 3.97000000000000E+0001
  0
LINE
  8
0
 10
 3.67814285714277E+0001
 20
 3.97000000000000E+0001
 11
 3.72671428571420E+0001
 21
 3.97000000000000E+0001
  0
LINE
  8
0
 10
 3.72671428571420E+0001
 20
 3.97000000000000E+0001
 11
 3.72671428571420E+0001
 21
 3.92142857142857E+0001
  0
LINE
  8
0
 10
 3.72671428571420E+0001
 20
 3.92142857142857E+0001
 11
 3.67814285714277E+0001
 21
 3.92142857142857E+0001
  0
LINE
  8
0
 10
 3.79957142857135E+0001
 20
 3.63000000000000E+0001
 11
 3.79957142857135E+0001
 21
 3.87285714285714E+0001
  0
LINE
  8
0
 10
 3.79957142857135E+0001
 20
 3.87285714285714E+0001
 11
 3.84814285714278E+0001
 21
 3.87285714285714E+0001
  0
LINE
  8
0
 10
 3.84814285714278E+0001
 20
 3.87285714285714E+0001
 11
 3.84814285600177E+0001
 21
 3.84544634978881E+0001
  0
ARC
  8
0
 10
 3.91189285714278E+0001
 20
 3.79392857142857E+0001
 40
 8.19642857142857E-0001
 50
 5.09772000000000E+0001
 51
 1.41057560000000E+0002
  0
LINE
  8
0
 10
 3.96349999714896E+0001
 20
 3.85760625380659E+0001
 11
 3.92900046522291E+0001
 21
 3.81503755001652E+0001
  0
ARC
  8
0
 10
 3.89671428571421E+0001
 20
 3.77875000000000E+0001
 40
 4.85714285714286E-0001
 50
 4.83395000000000E+0001
 51
 1.80000000000000E+0002
  0
LINE
  8
0
 10
 3.84814285714278E+0001
 20
 3.77875000000000E+0001
 11
 3.84814285714278E+0001
 21
 3.63000000000000E+0001
  0
LINE
  8
0
 10
 3.84814285714278E+0001
 20
 3.63000000000000E+0001
 11
 3.79957142857135E+0001
 21
 3.63000000000000E+0001
  0
LINE
  8
0
 10
 3.99992857142854E+0001
 20
 3.63000000000000E+0001
 11
 3.99992857142854E+0001
 21
 3.87285714285714E+0001
  0
LINE
  8
0
 10
 3.99992857142854E+0001
 20
 3.87285714285714E+0001
 11
 4.04849999999997E+0001
 21
 3.87285714285714E+0001
  0
LINE
  8
0
 10
 4.04849999999997E+0001
 20
 3.87285714285714E+0001
 11
 4.04849999885896E+0001
 21
 3.84544634978881E+0001
  0
ARC
  8
0
 10
 4.11224999999997E+0001
 20
 3.79392857142857E+0001
 40
 8.19642857142857E-0001
 50
 3.62817200000000E+0001
 51
 1.41057560000000E+0002
  0
LINE
  8
0
 10
 4.17832281400634E+0001
 20
 3.84243143095182E+0001
 11
 4.17832280689369E+0001
 21
 3.84243143249645E+0001
  0
ARC
  8
0
 10
 4.24885714285711E+0001
 20
 3.78482142857143E+0001
 40
 9.10714285714286E-0001
 50
 0.00000000000000E+0000
 51
 1.40759240000000E+0002
  0
LINE
  8
0
 10
 4.33992857142854E+0001
 20
 3.78482142857143E+0001
 11
 4.33992857142854E+0001
 21
 3.63000000000000E+0001
  0
LINE
  8
0
 10
 4.33992857142854E+0001
 20
 3.63000000000000E+0001
 11
 4.29135714285711E+0001
 21
 3.63000000000000E+0001
  0
LINE
  8
0
 10
 4.29135714285711E+0001
 20
 3.63000000000000E+0001
 11
 4.29135714285711E+0001
 21
 3.77875000000000E+0001
  0
ARC
  8
0
 10
 4.24278571428568E+0001
 20
 3.77875000000000E+0001
 40
 4.85714285714286E-0001
 50
 0.00000000000000E+0000
 51
 1.80000000000000E+0002
  0
LINE
  8
0
 10
 4.19421428571425E+0001
 20
 3.77875000000000E+0001
 11
 4.19421428571425E+0001
 21
 3.63000000000000E+0001
  0
LINE
  8
0
 10
 4.19421428571425E+0001
 20
 3.63000000000000E+0001
 11
 4.14564285714282E+0001
 21
 3.63000000000000E+0001
  0
LINE
  8
0
 10
 4.14564285714282E+0001
 20
 3.63000000000000E+0001
 11
 4.14564285714282E+0001
 21
 3.77875000000000E+0001
  0
ARC
  8
0
 10
 4.09707142857140E+0001
 20
 3.77875000000000E+0001
 40
 4.85714285714286E-0001
 50
 0.00000000000000E+0000
 51
 1.80000000000000E+0002
  0
LINE
  8
0
 10
 4.04849999999997E+0001
 20
 3.77875000000000E+0001
 11
 4.04849999999997E+0001
 21
 3.63000000000000E+0001
  0
LINE
  8
0
 10
 4.04849999999997E+0001
 20
 3.63000000000000E+0001
 11
 3.99992857142854E+0001
 21
 3.63000000000000E+0001
  0
LINE
  8
0
 10
 4.58885714285702E+0001
 20
 3.63000000000000E+0001
 11
 4.54028571428559E+0001
 21
 3.63000000000000E+0001
  0
LINE
  8
0
 10
 4.54028571428559E+0001
 20
 3.63000000000000E+0001
 11
 4.54028572428795E+0001
 21
 3.65505690490479E+0001
  0
ARC
  8
0
 10
 4.49778571428559E+0001
 20
 3.67857142857143E+0001
 40
 4.85714285714286E-0001
 50
 2.70000000000000E+0002
 51
 3.31045000000000E+0002
  0
LINE
  8
0
 10
 4.49778571428559E+0001
 20
 3.63000000000000E+0001
 11
 4.46742857142845E+0001
 21
 3.63000000000000E+0001
  0
ARC
  8
0
 10
 4.46742857142845E+0001
 20
 3.70285714285714E+0001
 40
 7.28571428571429E-0001
 50
 9.00000000000000E+0001
 51
 2.70000000000000E+0002
  0
LINE
  8
0
 10
 4.46742857142845E+0001
 20
 3.77571428571429E+0001
 11
 4.54028571428559E+0001
 21
 3.77571428571429E+0001
  0
LINE
  8
0
 10
 4.54028571428559E+0001
 20
 3.77571428571429E+0001
 11
 4.54028571428559E+0001
 21
 3.80000000000000E+0001
  0
ARC
  8
0
 10
 4.51296428571416E+0001
 20
 3.80000000000000E+0001
 40
 2.73214285714286E-0001
 50
 0.00000000000000E+0000
 51
 8.00738000000000E+0001
  0
LINE
  8
0
 10
 4.51767394126029E+0001
 20
 3.82691244328969E+0001
 11
 4.51767385475491E+0001
 21
 3.82691251695702E+0001
  0
ARC
  8
0
 10
 4.49171428571417E+0001
 20
 3.67857142857143E+0001
 40
 1.50595410714286E+0000
 50
 8.00738000000000E+0001
 51
 9.99263000000000E+0001
  0
LINE
  8
0
 10
 4.46575445776942E+0001
 20
 3.82691247164880E+0001
 11
 4.46575458319697E+0001
 21
 3.82691243506974E+0001
  0
ARC
  8
0
 10
 4.47046428571416E+0001
 20
 3.80000000000000E+0001
 40
 2.73214285714286E-0001
 50
 9.99263000000000E+0001
 51
 1.53612200000000E+0002
  0
LINE
  8
0
 10
 4.44598957470076E+0001
 20
 3.81214285715941E+0001
 11
 4.40758761631498E+0001
 21
 3.84250000247732E+0001
  0
ARC
  8
0
 10
 4.47046428571416E+0001
 20
 3.80000000000000E+0001
 40
 7.58928571428572E-0001
 50
 9.99263000000000E+0001
 51
 1.45944200000000E+0002
  0
LINE
  8
0
 10
 4.45738177872196E+0001
 20
 3.87475676408262E+0001
 11
 4.45738165329441E+0001
 21
 3.87475680066168E+0001
  0
ARC
  8
0
 10
 4.49171428571417E+0001
 20
 3.67857142857143E+0001
 40
 1.99166839285714E+0000
 50
 8.00738000000000E+0001
 51
 9.99263000000000E+0001
  0
LINE
  8
0
 10
 4.52604657572580E+0001
 20
 3.87475686058313E+0001
 11
 4.52604666223118E+0001
 21
 3.87475678691579E+0001
  0
ARC
  8
0
 10
 4.51296428571416E+0001
 20
 3.80000000000000E+0001
 40
 7.58928571428572E-0001
 50
 0.00000000000000E+0000
 51
 8.00738000000000E+0001
  0
LINE
  8
0
 10
 4.58885714285702E+0001
 20
 3.80000000000000E+0001
 11
 4.58885714285702E+0001
 21
 3.63000000000000E+0001
  0
LINE
  8
0
 10
 4.54028571428559E+0001
 20
 3.73625000000000E+0001
 11
 4.54028571428559E+0001
 21
 3.70589285714286E+0001
  0
ARC
  8
0
 10
 4.50992857142845E+0001
 20
 3.70589285714286E+0001
 40
 3.03571428571429E-0001
 50
 2.70000000000000E+0002
 51
 3.60000000000000E+0002
  0
LINE
  8
0
 10
 4.50992857142845E+0001
 20
 3.67553571428571E+0001
 11
 4.47046428571416E+0001
 21
 3.67553571428571E+0001
  0
ARC
  8
0
 10
 4.47046428571416E+0001
 20
 3.70589285714286E+0001
 40
 3.03571428571429E-0001
 50
 9.00000000000000E+0001
 51
 2.70000000000000E+0002
  0
LINE
  8
0
 10
 4.47046428571416E+0001
 20
 3.73625000000000E+0001
 11
 4.54028571428559E+0001
 21
 3.73625000000000E+0001
  0
LINE
  8
0
 10
 2.67682000000000E+0001
 20
 2.35316000000000E+0001
 11
 2.67682000000000E+0001
 21
 2.69316000000000E+0001
  0
LINE
  8
0
 10
 2.67682000000000E+0001
 20
 2.69316000000000E+0001
 11
 2.72842714285714E+0001
 21
 2.69316000000000E+0001
  0
LINE
  8
0
 10
 2.72842714285714E+0001
 20
 2.69316000000000E+0001
 11
 2.72842714285714E+0001
 21
 2.51708857142857E+0001
  0
LINE
  8
0
 10
 2.72842714285714E+0001
 20
 2.51708857142857E+0001
 11
 2.87110571428571E+0001
 21
 2.69316000000000E+0001
  0
LINE
  8
0
 10
 2.87110571428571E+0001
 20
 2.69316000000000E+0001
 11
 2.93182000000000E+0001
 21
 2.69316000000000E+0001
  0
LINE
  8
0
 10
 2.93182000000000E+0001
 20
 2.69316000000000E+0001
 11
 2.82253428571429E+0001
 21
 2.55958857142857E+0001
  0
LINE
  8
0
 10
 2.82253428571429E+0001
 20
 2.55958857142857E+0001
 11
 2.94396285714286E+0001
 21
 2.35316000000000E+0001
  0
LINE
  8
0
 10
 2.94396285714286E+0001
 20
 2.35316000000000E+0001
 11
 2.88324857142857E+0001
 21
 2.35316000000000E+0001
  0
LINE
  8
0
 10
 2.88324857142857E+0001
 20
 2.35316000000000E+0001
 11
 2.78914142857143E+0001
 21
 2.52012428571429E+0001
  0
LINE
  8
0
 10
 2.78914142857143E+0001
 20
 2.52012428571429E+0001
 11
 2.72842714285714E+0001
 21
 2.45637428571429E+0001
  0
LINE
  8
0
 10
 2.72842714285714E+0001
 20
 2.45637428571429E+0001
 11
 2.72842714285714E+0001
 21
 2.35316000000000E+0001
  0
LINE
  8
0
 10
 2.72842714285714E+0001
 20
 2.35316000000000E+0001
 11
 2.67682000000000E+0001
 21
 2.35316000000000E+0001
  0
LINE
  8
0
 10
 3.16860571428580E+0001
 20
 2.45637428571429E+0001
 11
 3.01682000000009E+0001
 21
 2.45637428571429E+0001
  0
LINE
  8
0
 10
 3.01682000000009E+0001
 20
 2.45637428571429E+0001
 11
 3.01682000000009E+0001
 21
 2.45030285714286E+0001
  0
ARC
  8
0
 10
 3.06842714285723E+0001
 20
 2.45030285714286E+0001
 40
 5.16071428571429E-0001
 50
 1.80000000000000E+0002
 51
 2.48198600000000E+0002
  0
LINE
  8
0
 10
 3.04926073910018E+0001
 20
 2.40238682474347E+0001
 11
 3.04926070193558E+0001
 21
 2.40238672454397E+0001
  0
ARC
  8
0
 10
 3.07449857142866E+0001
 20
 2.46548142857143E+0001
 40
 6.79550714285714E-0001
 50
 2.48198600000000E+0002
 51
 3.19360800000000E+0002
  0
LINE
  8
0
 10
 3.12606463899077E+0001
 20
 2.42122272988922E+0001
 11
 3.16292189650884E+0001
 21
 2.38958847248185E+0001
  0
ARC
  8
0
 10
 3.07449857142866E+0001
 20
 2.46548142857143E+0001
 40
 1.16526500000000E+0000
 50
 2.48198600000000E+0002
 51
 3.19360800000000E+0002
  0
LINE
  8
0
 10
 3.03122173369365E+0001
 20
 2.35728928228572E+0001
 11
 3.03122177085825E+0001
 21
 2.35728938248522E+0001
  0
ARC
  8
0
 10
 3.06842714285723E+0001
 20
 2.45030285714286E+0001
 40
 1.00178571428571E+0000
 50
 1.80000000000000E+0002
 51
 2.48198600000000E+0002
  0
LINE
  8
0
 10
 2.96824857142866E+0001
 20
 2.45030285714286E+0001
 11
 2.96824857142866E+0001
 21
 2.49887428571429E+0001
  0
ARC
  8
0
 10
 3.06842714285723E+0001
 20
 2.49887428571429E+0001
 40
 1.00178571428571E+0000
 50
 0.00000000000000E+0000
 51
 1.80000000000000E+0002
  0
LINE
  8
0
 10
 3.16860571428580E+0001
 20
 2.49887428571429E+0001
 11
 3.16860571428580E+0001
 21
 2.45637428571429E+0001
  0
ARC
  8
0
 10
 3.06842714285723E+0001
 20
 2.49887428571429E+0001
 40
 5.16071428571429E-0001
 50
 0.00000000000000E+0000
 51
 1.80000000000000E+0002
  0
LINE
  8
0
 10
 3.12003428571437E+0001
 20
 2.49887428571429E+0001
 11
 3.01682000000009E+0001
 21
 2.49887428571429E+0001
  0
LINE
  8
0
 10
 3.23539142857147E+0001
 20
 2.35316000000000E+0001
 11
 3.23539142857147E+0001
 21
 2.59601714285714E+0001
  0
LINE
  8
0
 10
 3.23539142857147E+0001
 20
 2.59601714285714E+0001
 11
 3.28396285714290E+0001
 21
 2.59601714285714E+0001
  0
LINE
  8
0
 10
 3.28396285714290E+0001
 20
 2.59601714285714E+0001
 11
 3.28396285600189E+0001
 21
 2.56860634978881E+0001
  0
ARC
  8
0
 10
 3.34771285714290E+0001
 20
 2.51708857142857E+0001
 40
 8.19642857142857E-0001
 50
 0.00000000000000E+0000
 51
 1.41057560000000E+0002
  0
LINE
  8
0
 10
 3.42967714285719E+0001
 20
 2.51708857142857E+0001
 11
 3.42967714285719E+0001
 21
 2.35316000000000E+0001
  0
LINE
  8
0
 10
 3.42967714285719E+0001
 20
 2.35316000000000E+0001
 11
 3.38110571428576E+0001
 21
 2.35316000000000E+0001
  0
LINE
  8
0
 10
 3.38110571428576E+0001
 20
 2.35316000000000E+0001
 11
 3.38110571428576E+0001
 21
 2.50191000000000E+0001
  0
ARC
  8
0
 10
 3.33253428571433E+0001
 20
 2.50191000000000E+0001
 40
 4.85714285714286E-0001
 50
 0.00000000000000E+0000
 51
 1.80000000000000E+0002
  0
LINE
  8
0
 10
 3.28396285714290E+0001
 20
 2.50191000000000E+0001
 11
 3.28396285714290E+0001
 21
 2.35316000000000E+0001
  0
LINE
  8
0
 10
 3.28396285714290E+0001
 20
 2.35316000000000E+0001
 11
 3.23539142857147E+0001
 21
 2.35316000000000E+0001
  0
LINE
  8
0
 10
 3.50253428571437E+0001
 20
 2.35316000000000E+0001
 11
 3.50253428571437E+0001
 21
 2.59601714285714E+0001
  0
LINE
  8
0
 10
 3.50253428571437E+0001
 20
 2.59601714285714E+0001
 11
 3.55110571428580E+0001
 21
 2.59601714285714E+0001
  0
LINE
  8
0
 10
 3.55110571428580E+0001
 20
 2.59601714285714E+0001
 11
 3.55110571314479E+0001
 21
 2.56860634978881E+0001
  0
ARC
  8
0
 10
 3.61485571428580E+0001
 20
 2.51708857142857E+0001
 40
 8.19642857142857E-0001
 50
 0.00000000000000E+0000
 51
 1.41057560000000E+0002
  0
LINE
  8
0
 10
 3.69682000000009E+0001
 20
 2.51708857142857E+0001
 11
 3.69682000000009E+0001
 21
 2.35316000000000E+0001
  0
LINE
  8
0
 10
 3.69682000000009E+0001
 20
 2.35316000000000E+0001
 11
 3.64824857142866E+0001
 21
 2.35316000000000E+0001
  0
LINE
  8
0
 10
 3.64824857142866E+0001
 20
 2.35316000000000E+0001
 11
 3.64824857142866E+0001
 21
 2.50191000000000E+0001
  0
ARC
  8
0
 10
 3.59967714285723E+0001
 20
 2.50191000000000E+0001
 40
 4.85714285714286E-0001
 50
 0.00000000000000E+0000
 51
 1.80000000000000E+0002
  0
LINE
  8
0
 10
 3.55110571428580E+0001
 20
 2.50191000000000E+0001
 11
 3.55110571428580E+0001
 21
 2.35316000000000E+0001
  0
LINE
  8
0
 10
 3.55110571428580E+0001
 20
 2.35316000000000E+0001
 11
 3.50253428571437E+0001
 21
 2.35316000000000E+0001
  0
LINE
  8
0
 10
 3.75146285714299E+0001
 20
 2.35316000000000E+0001
 11
 3.75146285714299E+0001
 21
 2.39262428571429E+0001
  0
LINE
  8
0
 10
 3.75146285714299E+0001
 20
 2.39262428571429E+0001
 11
 3.87289142857156E+0001
 21
 2.55351714285714E+0001
  0
LINE
  8
0
 10
 3.87289142857156E+0001
 20
 2.55351714285714E+0001
 11
 3.75753428571442E+0001
 21
 2.55351714285714E+0001
  0
LINE
  8
0
 10
 3.75753428571442E+0001
 20
 2.55351714285714E+0001
 11
 3.75753428571442E+0001
 21
 2.59601714285714E+0001
  0
LINE
  8
0
 10
 3.75753428571442E+0001
 20
 2.59601714285714E+0001
 11
 3.93360571428585E+0001
 21
 2.59601714285714E+0001
  0
LINE
  8
0
 10
 3.93360571428585E+0001
 20
 2.59601714285714E+0001
 11
 3.93360571428585E+0001
 21
 2.55958857142857E+0001
  0
LINE
  8
0
 10
 3.93360571428585E+0001
 20
 2.55958857142857E+0001
 11
 3.81217714285728E+0001
 21
 2.39869571428571E+0001
  0
LINE
  8
0
 10
 3.81217714285728E+0001
 20
 2.39869571428571E+0001
 11
 3.93360571428585E+0001
 21
 2.39869571428571E+0001
  0
LINE
  8
0
 10
 3.93360571428585E+0001
 20
 2.39869571428571E+0001
 11
 3.93360571428585E+0001
 21
 2.35316000000000E+0001
  0
LINE
  8
0
 10
 3.93360571428585E+0001
 20
 2.35316000000000E+0001
 11
 3.75146285714299E+0001
 21
 2.35316000000000E+0001
  0
LINE
  8
0
 10
 4.18253428571442E+0001
 20
 2.45637428571429E+0001
 11
 4.03074857142870E+0001
 21
 2.45637428571429E+0001
  0
LINE
  8
0
 10
 4.03074857142870E+0001
 20
 2.45637428571429E+0001
 11
 4.03074857142870E+0001
 21
 2.45030285714286E+0001
  0
ARC
  8
0
 10
 4.08235571428585E+0001
 20
 2.45030285714286E+0001
 40
 5.16071428571429E-0001
 50
 1.80000000000000E+0002
 51
 2.48198600000000E+0002
  0
LINE
  8
0
 10
 4.06318931052880E+0001
 20
 2.40238682474347E+0001
 11
 4.06318927336420E+0001
 21
 2.40238672454397E+0001
  0
ARC
  8
0
 10
 4.08842714285728E+0001
 20
 2.46548142857143E+0001
 40
 6.79550714285714E-0001
 50
 2.48198600000000E+0002
 51
 3.19360800000000E+0002
  0
LINE
  8
0
 10
 4.13999321041938E+0001
 20
 2.42122272988922E+0001
 11
 4.17685046793746E+0001
 21
 2.38958847248185E+0001
  0
ARC
  8
0
 10
 4.08842714285728E+0001
 20
 2.46548142857143E+0001
 40
 1.16526500000000E+0000
 50
 2.48198600000000E+0002
 51
 3.19360800000000E+0002
  0
LINE
  8
0
 10
 4.04515030512226E+0001
 20
 2.35728928228572E+0001
 11
 4.04515034228686E+0001
 21
 2.35728938248522E+0001
  0
ARC
  8
0
 10
 4.08235571428585E+0001
 20
 2.45030285714286E+0001
 40
 1.00178571428571E+0000
 50
 1.80000000000000E+0002
 51
 2.48198600000000E+0002
  0
LINE
  8
0
 10
 3.98217714285728E+0001
 20
 2.45030285714286E+0001
 11
 3.98217714285728E+0001
 21
 2.49887428571429E+0001
  0
ARC
  8
0
 10
 4.08235571428585E+0001
 20
 2.49887428571429E+0001
 40
 1.00178571428571E+0000
 50
 0.00000000000000E+0000
 51
 1.80000000000000E+0002
  0
LINE
  8
0
 10
 4.18253428571442E+0001
 20
 2.49887428571429E+0001
 11
 4.18253428571442E+0001
 21
 2.45637428571429E+0001
  0
ARC
  8
0
 10
 4.08235571428585E+0001
 20
 2.49887428571429E+0001
 40
 5.16071428571429E-0001
 50
 0.00000000000000E+0000
 51
 1.80000000000000E+0002
  0
LINE
  8
0
 10
 4.13396285714299E+0001
 20
 2.49887428571429E+0001
 11
 4.03074857142870E+0001
 21
 2.49887428571429E+0001
  0
LINE
  8
0
 10
 4.24932000000009E+0001
 20
 2.35316000000000E+0001
 11
 4.24932000000009E+0001
 21
 2.59601714285714E+0001
  0
LINE
  8
0
 10
 4.24932000000009E+0001
 20
 2.59601714285714E+0001
 11
 4.29789142857152E+0001
 21
 2.59601714285714E+0001
  0
LINE
  8
0
 10
 4.29789142857152E+0001
 20
 2.59601714285714E+0001
 11
 4.29789142857152E+0001
 21
 2.35316000000000E+0001
  0
LINE
  8
0
 10
 4.29789142857152E+0001
 20
 2.35316000000000E+0001
 11
 4.24932000000009E+0001
 21
 2.35316000000000E+0001
  0
LINE
  8
0
 10
 4.24932000000009E+0001
 20
 2.64458857142857E+0001
 11
 4.24932000000009E+0001
 21
 2.69316000000000E+0001
  0
LINE
  8
0
 10
 4.24932000000009E+0001
 20
 2.69316000000000E+0001
 11
 4.29789142857152E+0001
 21
 2.69316000000000E+0001
  0
LINE
  8
0
 10
 4.29789142857152E+0001
 20
 2.69316000000000E+0001
 11
 4.29789142857152E+0001
 21
 2.64458857142857E+0001
  0
LINE
  8
0
 10
 4.29789142857152E+0001
 20
 2.64458857142857E+0001
 11
 4.24932000000009E+0001
 21
 2.64458857142857E+0001
  0
ARC
  8
0
 10
 4.46789142857153E+0001
 20
 2.45941000000000E+0001
 40
 1.09285714285714E+0000
 50
 1.80000000000000E+0002
 51
 3.20291000000000E+0002
  0
LINE
  8
0
 10
 4.35860571428581E+0001
 20
 2.45941000000000E+0001
 11
 4.35860571428581E+0001
 21
 2.48976714285714E+0001
  0
ARC
  8
0
 10
 4.46789142857153E+0001
 20
 2.48976714285714E+0001
 40
 1.09285714285714E+0000
 50
 3.97090000000000E+0001
 51
 1.80000000000000E+0002
  0
LINE
  8
0
 10
 4.55196484203266E+0001
 20
 2.55958854713930E+0001
 11
 4.51459888049438E+0001
 21
 2.52855681190279E+0001
  0
ARC
  8
0
 10
 4.46789142857153E+0001
 20
 2.48976714285714E+0001
 40
 6.07142857142857E-0001
 50
 3.97090000000000E+0001
 51
 1.80000000000000E+0002
  0
LINE
  8
0
 10
 4.40717714285724E+0001
 20
 2.48976714285714E+0001
 11
 4.40717714285724E+0001
 21
 2.45941000000000E+0001
  0
ARC
  8
0
 10
 4.46789142857153E+0001
 20
 2.45941000000000E+0001
 40
 6.07142857142857E-0001
 50
 1.80000000000000E+0002
 51
 3.20291000000000E+0002
  0
LINE
  8
0
 10
 4.51459888049438E+0001
 20
 2.42062033095436E+0001
 11
 4.55196492857153E+0001
 21
 2.38958857142857E+0001
  0
LINE
  8
0
 10
 4.60053635714299E+0001
 20
 2.35316000000000E+0001
 11
 4.60053635714299E+0001
 21
 2.69316000000000E+0001
  0
LINE
  8
0
 10
 4.60053635714299E+0001
 20
 2.69316000000000E+0001
 11
 4.64910778571442E+0001
 21
 2.69316000000000E+0001
  0
LINE
  8
0
 10
 4.64910778571442E+0001
 20
 2.69316000000000E+0001
 11
 4.64910778457341E+0001
 21
 2.56860634978881E+0001
  0
ARC
  8
0
 10
 4.71285778571442E+0001
 20
 2.51708857142857E+0001
 40
 8.19642857142857E-0001
 50
 0.00000000000000E+0000
 51
 1.41057560000000E+0002
  0
LINE
  8
0
 10
 4.79482207142871E+0001
 20
 2.51708857142857E+0001
 11
 4.79482207142871E+0001
 21
 2.35316000000000E+0001
  0
LINE
  8
0
 10
 4.79482207142871E+0001
 20
 2.35316000000000E+0001
 11
 4.74625064285728E+0001
 21
 2.35316000000000E+0001
  0
LINE
  8
0
 10
 4.74625064285728E+0001
 20
 2.35316000000000E+0001
 11
 4.74625064285728E+0001
 21
 2.50191000000000E+0001
  0
ARC
  8
0
 10
 4.69767921428585E+0001
 20
 2.50191000000000E+0001
 40
 4.85714285714286E-0001
 50
 0.00000000000000E+0000
 51
 1.80000000000000E+0002
  0
LINE
  8
0
 10
 4.64910778571442E+0001
 20
 2.50191000000000E+0001
 11
 4.64910778571442E+0001
 21
 2.35316000000000E+0001
  0
LINE
  8
0
 10
 4.64910778571442E+0001
 20
 2.35316000000000E+0001
 11
 4.60053635714299E+0001
 21
 2.35316000000000E+0001
  0
LINE
  8
0
 10
 5.06196492857161E+0001
 20
 2.45637428571429E+0001
 11
 4.91017921428590E+0001
 21
 2.45637428571429E+0001
  0
LINE
  8
0
 10
 4.91017921428590E+0001
 20
 2.45637428571429E+0001
 11
 4.91017921428589E+0001
 21
 2.45030285714286E+0001
  0
ARC
  8
0
 10
 4.96178635714304E+0001
 20
 2.45030285714286E+0001
 40
 5.16071428571429E-0001
 50
 1.80000000000000E+0002
 51
 2.48198600000000E+0002
  0
LINE
  8
0
 10
 4.94261995338599E+0001
 20
 2.40238682474347E+0001
 11
 4.94261991622139E+0001
 21
 2.40238672454397E+0001
  0
ARC
  8
0
 10
 4.96785778571447E+0001
 20
 2.46548142857143E+0001
 40
 6.79550714285714E-0001
 50
 2.48198600000000E+0002
 51
 3.19360800000000E+0002
  0
LINE
  8
0
 10
 5.01942385327657E+0001
 20
 2.42122272988922E+0001
 11
 5.05628111079465E+0001
 21
 2.38958847248185E+0001
  0
ARC
  8
0
 10
 4.96785778571447E+0001
 20
 2.46548142857143E+0001
 40
 1.16526500000000E+0000
 50
 2.48198600000000E+0002
 51
 3.19360800000000E+0002
  0
LINE
  8
0
 10
 4.92458094797945E+0001
 20
 2.35728928228572E+0001
 11
 4.92458098514405E+0001
 21
 2.35728938248522E+0001
  0
ARC
  8
0
 10
 4.96178635714304E+0001
 20
 2.45030285714286E+0001
 40
 1.00178571428571E+0000
 50
 1.80000000000000E+0002
 51
 2.48198600000000E+0002
  0
LINE
  8
0
 10
 4.86160778571447E+0001
 20
 2.45030285714286E+0001
 11
 4.86160778571447E+0001
 21
 2.49887428571429E+0001
  0
ARC
  8
0
 10
 4.96178635714304E+0001
 20
 2.49887428571429E+0001
 40
 1.00178571428571E+0000
 50
 0.00000000000000E+0000
 51
 1.80000000000000E+0002
  0
LINE
  8
0
 10
 5.06196492857161E+0001
 20
 2.49887428571429E+0001
 11
 5.06196492857161E+0001
 21
 2.45637428571429E+0001
  0
ARC
  8
0
 10
 4.96178635714304E+0001
 20
 2.49887428571429E+0001
 40
 5.16071428571429E-0001
 50
 0.00000000000000E+0000
 51
 1.80000000000000E+0002
  0
LINE
  8
0
 10
 5.01339350000018E+0001
 20
 2.49887428571429E+0001
 11
 4.91017921428590E+0001
 21
 2.49887428571429E+0001
  0
LINE
  8
0
 10
 5.12875064285728E+0001
 20
 2.35316000000000E+0001
 11
 5.12875064285728E+0001
 21
 2.59601714285714E+0001
  0
LINE
  8
0
 10
 5.12875064285728E+0001
 20
 2.59601714285714E+0001
 11
 5.17732207142871E+0001
 21
 2.59601714285714E+0001
  0
LINE
  8
0
 10
 5.17732207142871E+0001
 20
 2.59601714285714E+0001
 11
 5.17732207028770E+0001
 21
 2.56860634978881E+0001
  0
ARC
  8
0
 10
 5.24107207142871E+0001
 20
 2.51708857142857E+0001
 40
 8.19642857142857E-0001
 50
 0.00000000000000E+0000
 51
 1.41057560000000E+0002
  0
LINE
  8
0
 10
 5.32303635714299E+0001
 20
 2.51708857142857E+0001
 11
 5.32303635714299E+0001
 21
 2.35316000000000E+0001
  0
LINE
  8
0
 10
 5.32303635714299E+0001
 20
 2.35316000000000E+0001
 11
 5.27446492857156E+0001
 21
 2.35316000000000E+0001
  0
LINE
  8
0
 10
 5.27446492857156E+0001
 20
 2.35316000000000E+0001
 11
 5.27446492857157E+0001
 21
 2.50191000000000E+0001
  0
ARC
  8
0
 10
 5.22589350000014E+0001
 20
 2.50191000000000E+0001
 40
 4.85714285714286E-0001
 50
 0.00000000000000E+0000
 51
 1.80000000000000E+0002
  0
LINE
  8
0
 10
 5.17732207142871E+0001
 20
 2.50191000000000E+0001
 11
 5.17732207142871E+0001
 21
 2.35316000000000E+0001
  0
LINE
  8
0
 10
 5.17732207142871E+0001
 20
 2.35316000000000E+0001
 11
 5.12875064285728E+0001
 21
 2.35316000000000E+0001
  0
LINE
  8
0
 10
 3.35036000000000E+0001
 20
 1.19038000000000E+0001
 11
 3.35036000000000E+0001
 21
 1.36038000000000E+0001
  0
LINE
  8
0
 10
 3.35036000000000E+0001
 20
 1.36038000000000E+0001
 11
 3.41107428571429E+0001
 21
 1.36038000000000E+0001
  0
ARC
  8
0
 10
 3.41107428571429E+0001
 20
 1.29966571428571E+0001
 40
 6.07142857142857E-0001
 50
 0.00000000000000E+0000
 51
 9.00000000000000E+0001
  0
LINE
  8
0
 10
 3.47178857142857E+0001
 20
 1.29966571428571E+0001
 11
 3.47178857142857E+0001
 21
 1.25109428571428E+0001
  0
ARC
  8
0
 10
 3.41107428571429E+0001
 20
 1.25109428571428E+0001
 40
 6.07142857142857E-0001
 50
 2.70000000000000E+0002
 51
 3.60000000000000E+0002
  0
LINE
  8
0
 10
 3.41107428571429E+0001
 20
 1.19038000000000E+0001
 11
 3.35036000000000E+0001
 21
 1.19038000000000E+0001
  0
LINE
  8
0
 10
 3.37616357142857E+0001
 20
 1.21466571428571E+0001
 11
 3.37616357142857E+0001
 21
 1.33609428571428E+0001
  0
LINE
  8
0
 10
 3.37616357142857E+0001
 20
 1.33609428571428E+0001
 11
 3.41107428571429E+0001
 21
 1.33609428571428E+0001
  0
ARC
  8
0
 10
 3.41107428571429E+0001
 20
 1.30118357142857E+0001
 40
 3.49107142857143E-0001
 50
 0.00000000000000E+0000
 51
 9.00000000000000E+0001
  0
LINE
  8
0
 10
 3.44598500000000E+0001
 20
 1.30118357142857E+0001
 11
 3.44598500000000E+0001
 21
 1.24957642857142E+0001
  0
ARC
  8
0
 10
 3.41107428571429E+0001
 20
 1.24957642857142E+0001
 40
 3.49107142857143E-0001
 50
 2.70000000000000E+0002
 51
 3.60000000000000E+0002
  0
LINE
  8
0
 10
 3.41107428571429E+0001
 20
 1.21466571428571E+0001
 11
 3.37616357142857E+0001
 21
 1.21466571428571E+0001
  0
LINE
  8
0
 10
 3.50518142857143E+0001
 20
 1.19038000000000E+0001
 11
 3.50518142857143E+0001
 21
 1.31180857142857E+0001
  0
LINE
  8
0
 10
 3.50518142857143E+0001
 20
 1.31180857142857E+0001
 11
 3.52946714285714E+0001
 21
 1.31180857142857E+0001
  0
LINE
  8
0
 10
 3.52946714285714E+0001
 20
 1.31180857142857E+0001
 11
 3.52946714285714E+0001
 21
 1.19038000000000E+0001
  0
LINE
  8
0
 10
 3.52946714285714E+0001
 20
 1.19038000000000E+0001
 11
 3.50518142857143E+0001
 21
 1.19038000000000E+0001
  0
LINE
  8
0
 10
 3.50518142857143E+0001
 20
 1.33609428571428E+0001
 11
 3.50518142857143E+0001
 21
 1.36038000000000E+0001
  0
LINE
  8
0
 10
 3.50518142857143E+0001
 20
 1.36038000000000E+0001
 11
 3.52946714285714E+0001
 21
 1.36038000000000E+0001
  0
LINE
  8
0
 10
 3.52946714285714E+0001
 20
 1.36038000000000E+0001
 11
 3.52946714285714E+0001
 21
 1.33609428571428E+0001
  0
LINE
  8
0
 10
 3.52946714285714E+0001
 20
 1.33609428571428E+0001
 11
 3.50518142857143E+0001
 21
 1.33609428571428E+0001
  0
LINE
  8
0
 10
 3.66303857142858E+0001
 20
 1.24198714285714E+0001
 11
 3.58714571428572E+0001
 21
 1.24198714285714E+0001
  0
LINE
  8
0
 10
 3.58714571428572E+0001
 20
 1.24198714285714E+0001
 11
 3.58714571428572E+0001
 21
 1.23895142857142E+0001
  0
ARC
  8
0
 10
 3.61294928571429E+0001
 20
 1.23895142857142E+0001
 40
 2.58035714285714E-0001
 50
 1.80000000000000E+0002
 51
 2.48198600000000E+0002
  0
LINE
  8
0
 10
 3.60336608383576E+0001
 20
 1.21499341237173E+0001
 11
 3.60336606525346E+0001
 21
 1.21499336227198E+0001
  0
ARC
  8
0
 10
 3.61598500000000E+0001
 20
 1.24654071428571E+0001
 40
 3.39775357142857E-0001
 50
 2.48198600000000E+0002
 51
 3.19360800000000E+0002
  0
LINE
  8
0
 10
 3.64176803378106E+0001
 20
 1.22441136494460E+0001
 11
 3.66019666254010E+0001
 21
 1.20859423624092E+0001
  0
ARC
  8
0
 10
 3.61598500000000E+0001
 20
 1.24654071428571E+0001
 40
 5.82632500000000E-0001
 50
 2.48198600000000E+0002
 51
 3.19360800000000E+0002
  0
LINE
  8
0
 10
 3.59434658113250E+0001
 20
 1.19244464114286E+0001
 11
 3.59434659971480E+0001
 21
 1.19244469124261E+0001
  0
ARC
  8
0
 10
 3.61294928571429E+0001
 20
 1.23895142857142E+0001
 40
 5.00892857142857E-0001
 50
 1.80000000000000E+0002
 51
 2.48198600000000E+0002
  0
LINE
  8
0
 10
 3.56286000000000E+0001
 20
 1.23895142857142E+0001
 11
 3.56286000000000E+0001
 21
 1.26323714285714E+0001
  0
ARC
  8
0
 10
 3.61294928571429E+0001
 20
 1.26323714285714E+0001
 40
 5.00892857142857E-0001
 50
 0.00000000000000E+0000
 51
 1.80000000000000E+0002
  0
LINE
  8
0
 10
 3.66303857142858E+0001
 20
 1.26323714285714E+0001
 11
 3.66303857142858E+0001
 21
 1.24198714285714E+0001
  0
ARC
  8
0
 10
 3.61294928571429E+0001
 20
 1.26323714285714E+0001
 40
 2.58035714285714E-0001
 50
 0.00000000000000E+0000
 51
 1.80000000000000E+0002
  0
LINE
  8
0
 10
 3.63875285714286E+0001
 20
 1.26323714285714E+0001
 11
 3.58714571428572E+0001
 21
 1.26323714285714E+0001
  0
LINE
  8
0
 10
 3.69643142857141E+0001
 20
 1.19038000000000E+0001
 11
 3.69643142857141E+0001
 21
 1.31180857142857E+0001
  0
LINE
  8
0
 10
 3.69643142857141E+0001
 20
 1.31180857142857E+0001
 11
 3.72071714285713E+0001
 21
 1.31180857142857E+0001
  0
LINE
  8
0
 10
 3.72071714285713E+0001
 20
 1.31180857142857E+0001
 11
 3.72071714228662E+0001
 21
 1.29810317489440E+0001
  0
ARC
  8
0
 10
 3.75259214285713E+0001
 20
 1.27234428571428E+0001
 40
 4.09821428571429E-0001
 50
 0.00000000000000E+0000
 51
 1.41057560000000E+0002
  0
LINE
  8
0
 10
 3.79357428571427E+0001
 20
 1.27234428571428E+0001
 11
 3.79357428571427E+0001
 21
 1.19038000000000E+0001
  0
LINE
  8
0
 10
 3.79357428571427E+0001
 20
 1.19038000000000E+0001
 11
 3.76928857142855E+0001
 21
 1.19038000000000E+0001
  0
LINE
  8
0
 10
 3.76928857142855E+0001
 20
 1.19038000000000E+0001
 11
 3.76928857142855E+0001
 21
 1.26475500000000E+0001
  0
ARC
  8
0
 10
 3.74500285714284E+0001
 20
 1.26475500000000E+0001
 40
 2.42857142857143E-0001
 50
 0.00000000000000E+0000
 51
 1.80000000000000E+0002
  0
LINE
  8
0
 10
 3.72071714285713E+0001
 20
 1.26475500000000E+0001
 11
 3.72071714285713E+0001
 21
 1.19038000000000E+0001
  0
LINE
  8
0
 10
 3.72071714285713E+0001
 20
 1.19038000000000E+0001
 11
 3.69643142857141E+0001
 21
 1.19038000000000E+0001
  0
ARC
  8
0
 10
 3.87402071428572E+0001
 20
 1.26323714285714E+0001
 40
 7.53342857142857E-0001
 50
 2.25155100000000E+0002
 51
 2.90556000000000E+0002
  0
LINE
  8
0
 10
 3.90047229228481E+0001
 20
 1.19269943219511E+0001
 11
 3.90047232702361E+0001
 21
 1.19269942700786E+0001
  0
ARC
  8
0
 10
 3.88768142857143E+0001
 20
 1.22680857142857E+0001
 40
 3.64285714285714E-0001
 50
 2.90556000000000E+0002
 51
 4.46423500000000E+0002
  0
LINE
  8
0
 10
 3.88995388552328E+0001
 20
 1.26316619450446E+0001
 11
 3.86415608577796E+0001
 21
 1.26477864945089E+0001
  0
ARC
  8
0
 10
 3.86491357142858E+0001
 20
 1.27689785714285E+0001
 40
 1.21428571428571E-0001
 50
 1.03495700000000E+0002
 51
 2.66423500000000E+0002
  0
LINE
  8
0
 10
 3.86207976386420E+0001
 20
 1.28870541888438E+0001
 11
 3.86207979308390E+0001
 21
 1.28870539426525E+0001
  0
ARC
  8
0
 10
 3.87402071428572E+0001
 20
 1.23895142857142E+0001
 40
 5.11668125000000E-0001
 50
 5.14192000000000E+0001
 51
 1.03495700000000E+0002
  0
LINE
  8
0
 10
 3.90592924276330E+0001
 20
 1.27895003494472E+0001
 11
 3.92107424336079E+0001
 21
 1.29793489405058E+0001
  0
ARC
  8
0
 10
 3.87402071428572E+0001
 20
 1.23895142857142E+0001
 40
 7.54525267857143E-0001
 50
 5.14192000000000E+0001
 51
 1.03495700000000E+0002
  0
LINE
  8
0
 10
 3.85641217795514E+0001
 20
 1.31232051774829E+0001
 11
 3.85641214873543E+0001
 21
 1.31232054236742E+0001
  0
ARC
  8
0
 10
 3.86491357142858E+0001
 20
 1.27689785714285E+0001
 40
 3.64285714285714E-0001
 50
 1.03495700000000E+0002
 51
 2.66423500000000E+0002
  0
LINE
  8
0
 10
 3.86264111447673E+0001
 20
 1.24054023406696E+0001
 11
 3.88843891422205E+0001
 21
 1.23892777912053E+0001
  0
ARC
  8
0
 10
 3.88768142857143E+0001
 20
 1.22680857142857E+0001
 40
 1.21428571428571E-0001
 50
 2.90556000000000E+0002
 51
 4.46423500000000E+0002
  0
LINE
  8
0
 10
 3.89194506138882E+0001
 20
 1.21543885662166E+0001
 11
 3.89194502665003E+0001
 21
 1.21543886180892E+0001
  0
ARC
  8
0
 10
 3.87402071428572E+0001
 20
 1.26323714285714E+0001
 40
 5.10485714285714E-0001
 50
 2.25155100000000E+0002
 51
 2.90556000000000E+0002
  0
LINE
  8
0
 10
 3.83802176961371E+0001
 20
 1.22704276998787E+0001
 11
 3.82089571428572E+0001
 21
 1.20982375000000E+0001
  0
LINE
  8
0
 10
 4.00000285714291E+0001
 20
 1.19038000000000E+0001
 11
 3.98482428571433E+0001
 21
 1.19038000000000E+0001
  0
ARC
  8
0
 10
 3.98482428571433E+0001
 20
 1.21770142857142E+0001
 40
 2.73214285714286E-0001
 50
 1.80000000000000E+0002
 51
 2.70000000000000E+0002
  0
LINE
  8
0
 10
 3.95750285714291E+0001
 20
 1.21770142857142E+0001
 11
 3.95750285714291E+0001
 21
 1.29207642857142E+0001
  0
LINE
  8
0
 10
 3.95750285714291E+0001
 20
 1.29207642857142E+0001
 11
 3.94536000000005E+0001
 21
 1.29207642857142E+0001
  0
LINE
  8
0
 10
 3.94536000000005E+0001
 20
 1.29207642857142E+0001
 11
 3.94536000000005E+0001
 21
 1.31180857142857E+0001
  0
LINE
  8
0
 10
 3.94536000000005E+0001
 20
 1.31180857142857E+0001
 11
 3.95750285714291E+0001
 21
 1.31180857142857E+0001
  0
LINE
  8
0
 10
 3.95750285714291E+0001
 20
 1.31180857142857E+0001
 11
 3.95750285714291E+0001
 21
 1.34823714285714E+0001
  0
LINE
  8
0
 10
 3.95750285714291E+0001
 20
 1.34823714285714E+0001
 11
 3.98178857142862E+0001
 21
 1.34823714285714E+0001
  0
LINE
  8
0
 10
 3.98178857142862E+0001
 20
 1.34823714285714E+0001
 11
 3.98178857142862E+0001
 21
 1.31180857142857E+0001
  0
LINE
  8
0
 10
 3.98178857142862E+0001
 20
 1.31180857142857E+0001
 11
 4.00000285714291E+0001
 21
 1.31180857142857E+0001
  0
LINE
  8
0
 10
 4.00000285714291E+0001
 20
 1.31180857142857E+0001
 11
 4.00000285714291E+0001
 21
 1.29207642857142E+0001
  0
LINE
  8
0
 10
 4.00000285714291E+0001
 20
 1.29207642857142E+0001
 11
 3.98178857142862E+0001
 21
 1.29207642857142E+0001
  0
LINE
  8
0
 10
 3.98178857142862E+0001
 20
 1.29207642857142E+0001
 11
 3.98178857142862E+0001
 21
 1.22073714285714E+0001
  0
ARC
  8
0
 10
 3.98937785714291E+0001
 20
 1.22073714285714E+0001
 40
 7.58928571428572E-0002
 50
 1.80000000000000E+0002
 51
 2.70000000000000E+0002
  0
LINE
  8
0
 10
 3.98937785714291E+0001
 20
 1.21314785714285E+0001
 11
 4.00000285714291E+0001
 21
 1.21314785714285E+0001
  0
LINE
  8
0
 10
 4.00000285714291E+0001
 20
 1.21314785714285E+0001
 11
 4.00000285714291E+0001
 21
 1.19038000000000E+0001
  0
ARC
  8
0
 10
 4.07437785714288E+0001
 20
 1.26323714285714E+0001
 40
 7.53342857142857E-0001
 50
 2.25155100000000E+0002
 51
 2.90556000000000E+0002
  0
LINE
  8
0
 10
 4.10082943514197E+0001
 20
 1.19269943219511E+0001
 11
 4.10082946988077E+0001
 21
 1.19269942700786E+0001
  0
ARC
  8
0
 10
 4.08803857142860E+0001
 20
 1.22680857142857E+0001
 40
 3.64285714285714E-0001
 50
 2.90556000000000E+0002
 51
 4.46423500000000E+0002
  0
LINE
  8
0
 10
 4.09031102838044E+0001
 20
 1.26316619450446E+0001
 11
 4.06451322863513E+0001
 21
 1.26477864945089E+0001
  0
ARC
  8
0
 10
 4.06527071428574E+0001
 20
 1.27689785714285E+0001
 40
 1.21428571428571E-0001
 50
 1.03495700000000E+0002
 51
 2.66423500000000E+0002
  0
LINE
  8
0
 10
 4.06243690672136E+0001
 20
 1.28870541888438E+0001
 11
 4.06243693594107E+0001
 21
 1.28870539426525E+0001
  0
ARC
  8
0
 10
 4.07437785714288E+0001
 20
 1.23895142857142E+0001
 40
 5.11668125000000E-0001
 50
 5.14192000000000E+0001
 51
 1.03495700000000E+0002
  0
LINE
  8
0
 10
 4.10628638562046E+0001
 20
 1.27895003494472E+0001
 11
 4.12143138621795E+0001
 21
 1.29793489405058E+0001
  0
ARC
  8
0
 10
 4.07437785714288E+0001
 20
 1.23895142857142E+0001
 40
 7.54525267857143E-0001
 50
 5.14192000000000E+0001
 51
 1.03495700000000E+0002
  0
LINE
  8
0
 10
 4.05676932081231E+0001
 20
 1.31232051774829E+0001
 11
 4.05676929159260E+0001
 21
 1.31232054236742E+0001
  0
ARC
  8
0
 10
 4.06527071428574E+0001
 20
 1.27689785714285E+0001
 40
 3.64285714285714E-0001
 50
 1.03495700000000E+0002
 51
 2.66423500000000E+0002
  0
LINE
  8
0
 10
 4.06299825733390E+0001
 20
 1.24054023406696E+0001
 11
 4.08879605707921E+0001
 21
 1.23892777912053E+0001
  0
ARC
  8
0
 10
 4.08803857142860E+0001
 20
 1.22680857142857E+0001
 40
 1.21428571428571E-0001
 50
 2.90556000000000E+0002
 51
 4.46423500000000E+0002
  0
LINE
  8
0
 10
 4.09230220424599E+0001
 20
 1.21543885662166E+0001
 11
 4.09230216950719E+0001
 21
 1.21543886180892E+0001
  0
ARC
  8
0
 10
 4.07437785714288E+0001
 20
 1.26323714285714E+0001
 40
 5.10485714285714E-0001
 50
 2.25155100000000E+0002
 51
 2.90556000000000E+0002
  0
LINE
  8
0
 10
 4.03837891247088E+0001
 20
 1.22704276998787E+0001
 11
 4.02125285714288E+0001
 21
 1.20982375000000E+0001
  0
LINE
  8
0
 10
 4.15482428571436E+0001
 20
 1.19038000000000E+0001
 11
 4.15482428571436E+0001
 21
 1.31180857142857E+0001
  0
LINE
  8
0
 10
 4.15482428571436E+0001
 20
 1.31180857142857E+0001
 11
 4.17911000000007E+0001
 21
 1.31180857142857E+0001
  0
LINE
  8
0
 10
 4.17911000000007E+0001
 20
 1.31180857142857E+0001
 11
 4.17911000000007E+0001
 21
 1.19038000000000E+0001
  0
LINE
  8
0
 10
 4.17911000000007E+0001
 20
 1.19038000000000E+0001
 11
 4.15482428571436E+0001
 21
 1.19038000000000E+0001
  0
LINE
  8
0
 10
 4.15482428571436E+0001
 20
 1.33609428571428E+0001
 11
 4.15482428571436E+0001
 21
 1.36038000000000E+0001
  0
LINE
  8
0
 10
 4.15482428571436E+0001
 20
 1.36038000000000E+0001
 11
 4.17911000000007E+0001
 21
 1.36038000000000E+0001
  0
LINE
  8
0
 10
 4.17911000000007E+0001
 20
 1.36038000000000E+0001
 11
 4.17911000000007E+0001
 21
 1.33609428571428E+0001
  0
LINE
  8
0
 10
 4.17911000000007E+0001
 20
 1.33609428571428E+0001
 11
 4.15482428571436E+0001
 21
 1.33609428571428E+0001
  0
LINE
  8
0
 10
 4.31268142857151E+0001
 20
 1.24198714285714E+0001
 11
 4.23678857142865E+0001
 21
 1.24198714285714E+0001
  0
LINE
  8
0
 10
 4.23678857142865E+0001
 20
 1.24198714285714E+0001
 11
 4.23678857142865E+0001
 21
 1.23895142857142E+0001
  0
ARC
  8
0
 10
 4.26259214285722E+0001
 20
 1.23895142857142E+0001
 40
 2.58035714285714E-0001
 50
 1.80000000000000E+0002
 51
 2.48198600000000E+0002
  0
LINE
  8
0
 10
 4.25300894097869E+0001
 20
 1.21499341237173E+0001
 11
 4.25300892239639E+0001
 21
 1.21499336227198E+0001
  0
ARC
  8
0
 10
 4.26562785714293E+0001
 20
 1.24654071428571E+0001
 40
 3.39775357142857E-0001
 50
 2.48198600000000E+0002
 51
 3.19360800000000E+0002
  0
LINE
  8
0
 10
 4.29141089092399E+0001
 20
 1.22441136494460E+0001
 11
 4.30983951968303E+0001
 21
 1.20859423624092E+0001
  0
ARC
  8
0
 10
 4.26562785714293E+0001
 20
 1.24654071428571E+0001
 40
 5.82632500000000E-0001
 50
 2.48198600000000E+0002
 51
 3.19360800000000E+0002
  0
LINE
  8
0
 10
 4.24398943827543E+0001
 20
 1.19244464114286E+0001
 11
 4.24398945685773E+0001
 21
 1.19244469124261E+0001
  0
ARC
  8
0
 10
 4.26259214285722E+0001
 20
 1.23895142857142E+0001
 40
 5.00892857142857E-0001
 50
 1.80000000000000E+0002
 51
 2.48198600000000E+0002
  0
LINE
  8
0
 10
 4.21250285714293E+0001
 20
 1.23895142857142E+0001
 11
 4.21250285714293E+0001
 21
 1.26323714285714E+0001
  0
ARC
  8
0
 10
 4.26259214285722E+0001
 20
 1.26323714285714E+0001
 40
 5.00892857142857E-0001
 50
 0.00000000000000E+0000
 51
 1.80000000000000E+0002
  0
LINE
  8
0
 10
 4.31268142857151E+0001
 20
 1.26323714285714E+0001
 11
 4.31268142857151E+0001
 21
 1.24198714285714E+0001
  0
ARC
  8
0
 10
 4.26259214285722E+0001
 20
 1.26323714285714E+0001
 40
 2.58035714285714E-0001
 50
 0.00000000000000E+0000
 51
 1.80000000000000E+0002
  0
LINE
  8
0
 10
 4.28839571428579E+0001
 20
 1.26323714285714E+0001
 11
 4.23678857142865E+0001
 21
 1.26323714285714E+0001
  0
LINE
  8
0
 10
 4.44018142857148E+0001
 20
 1.31180857142857E+0001
 11
 4.44018142857148E+0001
 21
 1.18886214285714E+0001
  0
ARC
  8
0
 10
 4.39161000000006E+0001
 20
 1.18886214285714E+0001
 40
 4.85714285714286E-0001
 50
 2.96565100000000E+0002
 51
 3.60000000000000E+0002
  0
LINE
  8
0
 10
 4.41333184022924E+0001
 20
 1.14541855494676E+0001
 11
 4.41333182099631E+0001
 21
 1.14541860634650E+0001
  0
ARC
  8
0
 10
 4.38857428571434E+0001
 20
 1.19493357142857E+0001
 40
 5.53594375000000E-0001
 50
 2.19095800000000E+0002
 51
 2.96565100000000E+0002
  0
LINE
  8
0
 10
 4.34561023394121E+0001
 20
 1.16002286282000E+0001
 11
 4.36445819795672E+0001
 21
 1.17533789369941E+0001
  0
ARC
  8
0
 10
 4.38857428571434E+0001
 20
 1.19493357142857E+0001
 40
 3.10737232142857E-0001
 50
 2.19095800000000E+0002
 51
 2.96565100000000E+0002
  0
LINE
  8
0
 10
 4.40247090088171E+0001
 20
 1.16714040030169E+0001
 11
 4.40247092011465E+0001
 21
 1.16714034890195E+0001
  0
ARC
  8
0
 10
 4.39161000000006E+0001
 20
 1.18886214285714E+0001
 40
 2.42857142857143E-0001
 50
 2.96565100000000E+0002
 51
 3.60000000000000E+0002
  0
LINE
  8
0
 10
 4.41589571428577E+0001
 20
 1.18886214285714E+0001
 11
 4.41589571485627E+0001
 21
 1.20408539653416E+0001
  0
ARC
  8
0
 10
 4.38402071428577E+0001
 20
 1.22984428571428E+0001
 40
 4.09821428571429E-0001
 50
 1.80000000000000E+0002
 51
 3.21057560000000E+0002
  0
LINE
  8
0
 10
 4.34303857142863E+0001
 20
 1.22984428571428E+0001
 11
 4.34303857142863E+0001
 21
 1.27234428571428E+0001
  0
ARC
  8
0
 10
 4.38402071428577E+0001
 20
 1.27234428571428E+0001
 40
 4.09821428571429E-0001
 50
 3.89424400000000E+0001
 51
 1.80000000000000E+0002
  0
LINE
  8
0
 10
 4.41589571485627E+0001
 20
 1.29810317489440E+0001
 11
 4.41589571428577E+0001
 21
 1.31180857142857E+0001
  0
LINE
  8
0
 10
 4.41589571428577E+0001
 20
 1.31180857142857E+0001
 11
 4.44018142857148E+0001
 21
 1.31180857142857E+0001
  0
ARC
  8
0
 10
 4.39161000000006E+0001
 20
 1.23743357142857E+0001
 40
 2.42857142857143E-0001
 50
 1.80000000000000E+0002
 51
 3.60000000000000E+0002
  0
LINE
  8
0
 10
 4.36732428571434E+0001
 20
 1.23743357142857E+0001
 11
 4.36732428571434E+0001
 21
 1.26475500000000E+0001
  0
ARC
  8
0
 10
 4.39161000000006E+0001
 20
 1.26475500000000E+0001
 40
 2.42857142857143E-0001
 50
 0.00000000000000E+0000
 51
 1.80000000000000E+0002
  0
LINE
  8
0
 10
 4.41589571428577E+0001
 20
 1.26475500000000E+0001
 11
 4.41589571428577E+0001
 21
 1.23743357142857E+0001
  0
LINE
  8
0
 10
 4.57375285714293E+0001
 20
 1.24198714285714E+0001
 11
 4.49786000000008E+0001
 21
 1.24198714285714E+0001
  0
LINE
  8
0
 10
 4.49786000000008E+0001
 20
 1.24198714285714E+0001
 11
 4.49786000000008E+0001
 21
 1.23895142857142E+0001
  0
ARC
  8
0
 10
 4.52366357142865E+0001
 20
 1.23895142857142E+0001
 40
 2.58035714285714E-0001
 50
 1.80000000000000E+0002
 51
 2.48198600000000E+0002
  0
LINE
  8
0
 10
 4.51408036955012E+0001
 20
 1.21499341237173E+0001
 11
 4.51408035096782E+0001
 21
 1.21499336227198E+0001
  0
ARC
  8
0
 10
 4.52669928571436E+0001
 20
 1.24654071428571E+0001
 40
 3.39775357142857E-0001
 50
 2.48198600000000E+0002
 51
 3.19360800000000E+0002
  0
LINE
  8
0
 10
 4.55248231949542E+0001
 20
 1.22441136494460E+0001
 11
 4.57091094825445E+0001
 21
 1.20859423624092E+0001
  0
ARC
  8
0
 10
 4.52669928571436E+0001
 20
 1.24654071428571E+0001
 40
 5.82632500000000E-0001
 50
 2.48198600000000E+0002
 51
 3.19360800000000E+0002
  0
LINE
  8
0
 10
 4.50506086684686E+0001
 20
 1.19244464114286E+0001
 11
 4.50506088542916E+0001
 21
 1.19244469124261E+0001
  0
ARC
  8
0
 10
 4.52366357142865E+0001
 20
 1.23895142857142E+0001
 40
 5.00892857142857E-0001
 50
 1.80000000000000E+0002
 51
 2.48198600000000E+0002
  0
LINE
  8
0
 10
 4.47357428571436E+0001
 20
 1.23895142857142E+0001
 11
 4.47357428571436E+0001
 21
 1.26323714285714E+0001
  0
ARC
  8
0
 10
 4.52366357142865E+0001
 20
 1.26323714285714E+0001
 40
 5.00892857142857E-0001
 50
 0.00000000000000E+0000
 51
 1.80000000000000E+0002
  0
LINE
  8
0
 10
 4.57375285714293E+0001
 20
 1.26323714285714E+0001
 11
 4.57375285714293E+0001
 21
 1.24198714285714E+0001
  0
ARC
  8
0
 10
 4.52366357142865E+0001
 20
 1.26323714285714E+0001
 40
 2.58035714285714E-0001
 50
 0.00000000000000E+0000
 51
 1.80000000000000E+0002
  0
LINE
  8
0
 10
 4.54946714285722E+0001
 20
 1.26323714285714E+0001
 11
 4.49786000000008E+0001
 21
 1.26323714285714E+0001
  0
LINE
  8
0
 10
 4.64964571428577E+0001
 20
 1.19038000000000E+0001
 11
 4.63446714285720E+0001
 21
 1.19038000000000E+0001
  0
ARC
  8
0
 10
 4.63446714285720E+0001
 20
 1.21770142857142E+0001
 40
 2.73214285714286E-0001
 50
 1.80000000000000E+0002
 51
 2.70000000000000E+0002
  0
LINE
  8
0
 10
 4.60714571428577E+0001
 20
 1.21770142857142E+0001
 11
 4.60714571428577E+0001
 21
 1.36038000000000E+0001
  0
LINE
  8
0
 10
 4.60714571428577E+0001
 20
 1.36038000000000E+0001
 11
 4.63143142857148E+0001
 21
 1.36038000000000E+0001
  0
LINE
  8
0
 10
 4.63143142857148E+0001
 20
 1.36038000000000E+0001
 11
 4.63143142857148E+0001
 21
 1.22073714285714E+0001
  0
ARC
  8
0
 10
 4.63902071428577E+0001
 20
 1.22073714285714E+0001
 40
 7.58928571428572E-0002
 50
 1.80000000000000E+0002
 51
 2.70000000000000E+0002
  0
LINE
  8
0
 10
 4.63902071428577E+0001
 20
 1.21314785714285E+0001
 11
 4.64964571428577E+0001
 21
 1.21314785714285E+0001
  0
LINE
  8
0
 10
 4.64964571428577E+0001
 20
 1.21314785714285E+0001
 11
 4.64964571428577E+0001
 21
 1.19038000000000E+0001
  0
ENDSEC
  0
EOF
