  0
SECTION
  2
HEADER
  9
$ACADVER
  1
AC1003
  9
$INSBASE
 10
0.0
 20
0.0
  9
$EXTMIN
 10
 0.00000000000000E+0000
 20
 0.00000000000000E+0000
  9
$EXTMAX
 10
 4.65000000000000E+0002
 20
 2.00000000000000E+0002
  9
$LIMMIN
 10
0.0
 20
0.0
  9
$LIMMAX
 10
410.0
 20
287.0
  9
$VIEWCTR
 10
227.0059616
 20
165.058879 
  9
$VIEWSIZE
 40
 4.65000000000000E+0002
9
$SNAPMODE
70
0
9
$SNAPUNIT
10
1
20
1
9
$GRIDMODE
70
0
9
$GRIDUNIT
10
1
20
1
9
$ORTHOMODE
70
0
9
$rEGENMODE
70
1
9
$FILLMODE
70
1
9
$DRAGMODE
70
2
9
$LTSCALE
40
25.0
9
$OSMODE
70
0
9
$ATTMODE
70
1
9
$TRACEWID
40
1.0
9
$TEXTSTYLE
7
STANDARD
9
$CLAYER
8
0
9
$CELTYPE
6
VONLAYER
9
$CECOLOR
62
256
9
$LUNITS
70
2
9
$LUPREC
70
2
9
$AXISMODE
70
0
9
$AXISUNIT
10
0
20
0
9
$SKETCHINC
40
1.0
9
$FILLETRAD
40
0.0
9
$AUNITS
70
0
9
$AUPREC
70
0
9
$MENU
1
ACAD
9
$ELEVATION
40
0.0
9
$THICKNESS
40
0.0
9
$VIEWDIR
10
0.0
20
0.0
30
1.0
9
$LIMCHECK
70
0
9
$BLIPMODE
70
1
9
$CHAMFERA
40
0.0
9
$CHAMFERB
40
0.0
9
$USRTIMER
70
1
9
$ANGBASE
50
0.0
9
$ANGDIR
70
0
9
$PDMODE
70
0
9
$PDSIZE
40
0.0
9
$PLINEWID
40
0.0
9
$COORDS
70
0
0
ENDSEC
0
SECTION
2
TABLES
0
TABLE
2
LTYPE
70
1
0
LTYPE
2
AUSGEZOGEN
70
64
3
Ausgezogene Linie
72
65
73
0
40
0.0
0
ENDTAB
0
TABLE
2
LAYER
70
1
0
LAYER
2
0
70
0
62
7
6
AUSGEZOGEN
0
ENDTAB
0
TABLE
2
STYLE
70
1
0
STYLE
2
STANDARD
70
0
40
0.0
41
1.0
50
0.0
71
0
42
3.5
3
txt
4

0
ENDTAB
0
TABLE
2
VIEW
70
0
0
ENDTAB
0
ENDSEC
0
SECTION
2
BLOCKS
0
ENDSEC
0
SECTION
2
ENTITIES
  0
LINE
  8
0
 10
 1.02000000000000E+0002
 20
 5.00000000000000E+0001
 11
 6.41807000000000E+0001
 21
 9.14121000000000E+0001
  0
LINE
  8
0
 10
 6.41807000000000E+0001
 20
 9.14121000000000E+0001
 11
 4.84704897632647E+0001
 21
 4.06518246872247E+0001
  0
ARC
  8
0
 10
 4.25000000000000E+0001
 20
 4.25000000000000E+0001
 40
 6.25000000000000E+0000
 50
 1.62775000000000E+0002
 51
 3.42800000000000E+0002
  0
LINE
  8
0
 10
 3.65303172236673E+0001
 20
 4.43507802543675E+0001
 11
 5.52207000000000E+0001
 21
 1.04736900000000E+0002
  0
LINE
  8
0
 10
 5.52207000000000E+0001
 20
 1.04736900000000E+0002
 11
 5.52686000000000E+0001
 21
 1.04891600000000E+0002
  0
LINE
  8
0
 10
 5.52686000000000E+0001
 20
 1.04891600000000E+0002
 11
 5.61727000000000E+0001
 21
 1.07812300000000E+0002
  0
LINE
  8
0
 10
 5.61727000000000E+0001
 20
 1.07812300000000E+0002
 11
 5.86876000000000E+0001
 21
 1.15936200000000E+0002
  0
LINE
  8
0
 10
 5.86876000000000E+0001
 20
 1.15936200000000E+0002
 11
 1.07489500000000E+0002
 21
 6.24979000000000E+0001
  0
LINE
  8
0
 10
 1.07489500000000E+0002
 20
 6.24979000000000E+0001
 11
 1.95937100000000E+0002
 21
 6.24979000000000E+0001
  0
LINE
  8
0
 10
 1.95937100000000E+0002
 20
 6.24979000000000E+0001
 11
 1.96299002140000E+0002
 21
 6.36668924422000E+0001
  0
LINE
  8
0
 10
 1.96299002140000E+0002
 20
 6.36668924422000E+0001
 11
 1.96661490480000E+0002
 21
 6.48377500576000E+0001
  0
LINE
  8
0
 10
 1.96661490480000E+0002
 20
 6.48377500576000E+0001
 11
 1.97024552900000E+0002
 21
 6.60104342794000E+0001
  0
LINE
  8
0
 10
 1.97024552900000E+0002
 20
 6.60104342794000E+0001
 11
 1.97388177280000E+0002
 21
 6.71849065408000E+0001
  0
LINE
  8
0
 10
 1.97388177280000E+0002
 20
 6.71849065408000E+0001
 11
 1.97752351500000E+0002
 21
 6.83611282750000E+0001
  0
LINE
  8
0
 10
 1.97752351500000E+0002
 20
 6.83611282750000E+0001
 11
 1.98117063440000E+0002
 21
 6.95390609152000E+0001
  0
LINE
  8
0
 10
 1.98117063440000E+0002
 20
 6.95390609152000E+0001
 11
 1.98482300980000E+0002
 21
 7.07186658946000E+0001
  0
LINE
  8
0
 10
 1.98482300980000E+0002
 20
 7.07186658946000E+0001
 11
 1.98848052000000E+0002
 21
 7.18999046464000E+0001
  0
LINE
  8
0
 10
 1.98848052000000E+0002
 20
 7.18999046464000E+0001
 11
 1.99214304380000E+0002
 21
 7.30827386038000E+0001
  0
LINE
  8
0
 10
 1.99214304380000E+0002
 20
 7.30827386038000E+0001
 11
 1.99581046000000E+0002
 21
 7.42671292000000E+0001
  0
LINE
  8
0
 10
 1.99581046000000E+0002
 20
 7.42671292000000E+0001
 11
 1.99948264740000E+0002
 21
 7.54530378682000E+0001
  0
LINE
  8
0
 10
 1.99948264740000E+0002
 20
 7.54530378682000E+0001
 11
 2.00315948480000E+0002
 21
 7.66404260416000E+0001
  0
LINE
  8
0
 10
 2.00315948480000E+0002
 20
 7.66404260416000E+0001
 11
 2.00684085100000E+0002
 21
 7.78292551534000E+0001
  0
LINE
  8
0
 10
 2.00684085100000E+0002
 20
 7.78292551534000E+0001
 11
 2.01052662480000E+0002
 21
 7.90194866368000E+0001
  0
LINE
  8
0
 10
 2.01052662480000E+0002
 20
 7.90194866368000E+0001
 11
 2.01421668500000E+0002
 21
 8.02110819250000E+0001
  0
LINE
  8
0
 10
 2.01421668500000E+0002
 20
 8.02110819250000E+0001
 11
 2.01791091040000E+0002
 21
 8.14040024512000E+0001
  0
LINE
  8
0
 10
 2.01791091040000E+0002
 20
 8.14040024512000E+0001
 11
 2.02160917980000E+0002
 21
 8.25982096486000E+0001
  0
LINE
  8
0
 10
 2.02160917980000E+0002
 20
 8.25982096486000E+0001
 11
 2.02531137200000E+0002
 21
 8.37936649504000E+0001
  0
LINE
  8
0
 10
 2.02531137200000E+0002
 20
 8.37936649504000E+0001
 11
 2.02901736580000E+0002
 21
 8.49903297898000E+0001
  0
LINE
  8
0
 10
 2.02901736580000E+0002
 20
 8.49903297898000E+0001
 11
 2.03272704000000E+0002
 21
 8.61881656000000E+0001
  0
LINE
  8
0
 10
 2.03272704000000E+0002
 20
 8.61881656000000E+0001
 11
 2.03644027340000E+0002
 21
 8.73871338142000E+0001
  0
LINE
  8
0
 10
 2.03644027340000E+0002
 20
 8.73871338142000E+0001
 11
 2.04015694480000E+0002
 21
 8.85871958656000E+0001
  0
LINE
  8
0
 10
 2.04015694480000E+0002
 20
 8.85871958656000E+0001
 11
 2.04387693300000E+0002
 21
 8.97883131874000E+0001
  0
LINE
  8
0
 10
 2.04387693300000E+0002
 20
 8.97883131874000E+0001
 11
 2.04760011680000E+0002
 21
 9.09904472128000E+0001
  0
LINE
  8
0
 10
 2.04760011680000E+0002
 20
 9.09904472128000E+0001
 11
 2.05132637500000E+0002
 21
 9.21935593750000E+0001
  0
LINE
  8
0
 10
 2.05132637500000E+0002
 20
 9.21935593750000E+0001
 11
 2.05505558640000E+0002
 21
 9.33976111072000E+0001
  0
LINE
  8
0
 10
 2.05505558640000E+0002
 20
 9.33976111072000E+0001
 11
 2.05878762980000E+0002
 21
 9.46025638426000E+0001
  0
LINE
  8
0
 10
 2.05878762980000E+0002
 20
 9.46025638426000E+0001
 11
 2.06252238400000E+0002
 21
 9.58083790144000E+0001
  0
LINE
  8
0
 10
 2.06252238400000E+0002
 20
 9.58083790144000E+0001
 11
 2.06625972780000E+0002
 21
 9.70150180558000E+0001
  0
LINE
  8
0
 10
 2.06625972780000E+0002
 20
 9.70150180558000E+0001
 11
 2.06999954000000E+0002
 21
 9.82224424000000E+0001
  0
LINE
  8
0
 10
 2.06999954000000E+0002
 20
 9.82224424000000E+0001
 11
 2.07374169940000E+0002
 21
 9.94306134802000E+0001
  0
LINE
  8
0
 10
 2.07374169940000E+0002
 20
 9.94306134802000E+0001
 11
 2.07748608480000E+0002
 21
 1.00639492729600E+0002
  0
LINE
  8
0
 10
 2.07748608480000E+0002
 20
 1.00639492729600E+0002
 11
 2.08123257500000E+0002
 21
 1.01849041581400E+0002
  0
LINE
  8
0
 10
 2.08123257500000E+0002
 20
 1.01849041581400E+0002
 11
 2.08498104880000E+0002
 21
 1.03059221468800E+0002
  0
LINE
  8
0
 10
 2.08498104880000E+0002
 20
 1.03059221468800E+0002
 11
 2.08873138500000E+0002
 21
 1.04269993825000E+0002
  0
LINE
  8
0
 10
 2.08873138500000E+0002
 20
 1.04269993825000E+0002
 11
 2.09248346240000E+0002
 21
 1.05481320083200E+0002
  0
LINE
  8
0
 10
 2.09248346240000E+0002
 20
 1.05481320083200E+0002
 11
 2.09623715980000E+0002
 21
 1.06693161676600E+0002
  0
LINE
  8
0
 10
 2.09623715980000E+0002
 20
 1.06693161676600E+0002
 11
 2.09999235600000E+0002
 21
 1.07905480038400E+0002
  0
LINE
  8
0
 10
 2.09999235600000E+0002
 20
 1.07905480038400E+0002
 11
 2.10374892980000E+0002
 21
 1.09118236601800E+0002
  0
LINE
  8
0
 10
 2.10374892980000E+0002
 20
 1.09118236601800E+0002
 11
 2.10750676000000E+0002
 21
 1.10331392800000E+0002
  0
LINE
  8
0
 10
 2.10750676000000E+0002
 20
 1.10331392800000E+0002
 11
 2.11126572540000E+0002
 21
 1.11544910066200E+0002
  0
LINE
  8
0
 10
 2.11126572540000E+0002
 20
 1.11544910066200E+0002
 11
 2.11502570480000E+0002
 21
 1.12758749833600E+0002
  0
LINE
  8
0
 10
 2.11502570480000E+0002
 20
 1.12758749833600E+0002
 11
 2.11878657700000E+0002
 21
 1.13972873535400E+0002
  0
LINE
  8
0
 10
 2.11878657700000E+0002
 20
 1.13972873535400E+0002
 11
 2.12254822080000E+0002
 21
 1.15187242604800E+0002
  0
LINE
  8
0
 10
 2.12254822080000E+0002
 20
 1.15187242604800E+0002
 11
 2.12631051500000E+0002
 21
 1.16401818475000E+0002
  0
LINE
  8
0
 10
 2.12631051500000E+0002
 20
 1.16401818475000E+0002
 11
 2.13007333840000E+0002
 21
 1.17616562579200E+0002
  0
LINE
  8
0
 10
 2.13007333840000E+0002
 20
 1.17616562579200E+0002
 11
 2.13383656980000E+0002
 21
 1.18831436350600E+0002
  0
LINE
  8
0
 10
 2.13383656980000E+0002
 20
 1.18831436350600E+0002
 11
 2.13760008800000E+0002
 21
 1.20046401222400E+0002
  0
LINE
  8
0
 10
 2.13760008800000E+0002
 20
 1.20046401222400E+0002
 11
 2.14136377180000E+0002
 21
 1.21261418627800E+0002
  0
LINE
  8
0
 10
 2.14136377180000E+0002
 20
 1.21261418627800E+0002
 11
 2.14512750000000E+0002
 21
 1.22476450000000E+0002
  0
LINE
  8
0
 10
 2.14512750000000E+0002
 20
 1.22476450000000E+0002
 11
 2.14889115140000E+0002
 21
 1.23691456772200E+0002
  0
LINE
  8
0
 10
 2.14889115140000E+0002
 20
 1.23691456772200E+0002
 11
 2.15265460480000E+0002
 21
 1.24906400377600E+0002
  0
LINE
  8
0
 10
 2.15265460480000E+0002
 20
 1.24906400377600E+0002
 11
 2.15641773900000E+0002
 21
 1.26121242249400E+0002
  0
LINE
  8
0
 10
 2.15641773900000E+0002
 20
 1.26121242249400E+0002
 11
 2.16018043280000E+0002
 21
 1.27335943820800E+0002
  0
LINE
  8
0
 10
 2.16018043280000E+0002
 20
 1.27335943820800E+0002
 11
 2.16394256500000E+0002
 21
 1.28550466525000E+0002
  0
LINE
  8
0
 10
 2.16394256500000E+0002
 20
 1.28550466525000E+0002
 11
 2.16770401440000E+0002
 21
 1.29764771795200E+0002
  0
LINE
  8
0
 10
 2.16770401440000E+0002
 20
 1.29764771795200E+0002
 11
 2.17146465980000E+0002
 21
 1.30978821064600E+0002
  0
LINE
  8
0
 10
 2.17146465980000E+0002
 20
 1.30978821064600E+0002
 11
 2.17522438000000E+0002
 21
 1.32192575766400E+0002
  0
LINE
  8
0
 10
 2.17522438000000E+0002
 20
 1.32192575766400E+0002
 11
 2.17898305380000E+0002
 21
 1.33405997333800E+0002
  0
LINE
  8
0
 10
 2.17898305380000E+0002
 20
 1.33405997333800E+0002
 11
 2.18274056000000E+0002
 21
 1.34619047200000E+0002
  0
LINE
  8
0
 10
 2.18274056000000E+0002
 20
 1.34619047200000E+0002
 11
 2.18649677740000E+0002
 21
 1.35831686798200E+0002
  0
LINE
  8
0
 10
 2.18649677740000E+0002
 20
 1.35831686798200E+0002
 11
 2.19025158480000E+0002
 21
 1.37043877561600E+0002
  0
LINE
  8
0
 10
 2.19025158480000E+0002
 20
 1.37043877561600E+0002
 11
 2.19400486100000E+0002
 21
 1.38255580923400E+0002
  0
LINE
  8
0
 10
 2.19400486100000E+0002
 20
 1.38255580923400E+0002
 11
 2.19775648480000E+0002
 21
 1.39466758316800E+0002
  0
LINE
  8
0
 10
 2.19775648480000E+0002
 20
 1.39466758316800E+0002
 11
 2.20150633500000E+0002
 21
 1.40677371175000E+0002
  0
LINE
  8
0
 10
 2.20150633500000E+0002
 20
 1.40677371175000E+0002
 11
 2.20525429040000E+0002
 21
 1.41887380931200E+0002
  0
LINE
  8
0
 10
 2.20525429040000E+0002
 20
 1.41887380931200E+0002
 11
 2.20900022980000E+0002
 21
 1.43096749018600E+0002
  0
LINE
  8
0
 10
 2.20900022980000E+0002
 20
 1.43096749018600E+0002
 11
 2.21274403200000E+0002
 21
 1.44305436870400E+0002
  0
LINE
  8
0
 10
 2.21274403200000E+0002
 20
 1.44305436870400E+0002
 11
 2.21648557580000E+0002
 21
 1.45513405919800E+0002
  0
LINE
  8
0
 10
 2.21648557580000E+0002
 20
 1.45513405919800E+0002
 11
 2.22022474000000E+0002
 21
 1.46720617600000E+0002
  0
LINE
  8
0
 10
 2.22022474000000E+0002
 20
 1.46720617600000E+0002
 11
 2.22396140340000E+0002
 21
 1.47927033344200E+0002
  0
LINE
  8
0
 10
 2.22396140340000E+0002
 20
 1.47927033344200E+0002
 11
 2.22769544480000E+0002
 21
 1.49132614585600E+0002
  0
LINE
  8
0
 10
 2.22769544480000E+0002
 20
 1.49132614585600E+0002
 11
 2.23142674300000E+0002
 21
 1.50337322757400E+0002
  0
LINE
  8
0
 10
 2.23142674300000E+0002
 20
 1.50337322757400E+0002
 11
 2.23515517680000E+0002
 21
 1.51541119292800E+0002
  0
LINE
  8
0
 10
 2.23515517680000E+0002
 20
 1.51541119292800E+0002
 11
 2.23888062500000E+0002
 21
 1.52743965625000E+0002
  0
LINE
  8
0
 10
 2.23888062500000E+0002
 20
 1.52743965625000E+0002
 11
 2.24260296640000E+0002
 21
 1.53945823187200E+0002
  0
LINE
  8
0
 10
 2.24260296640000E+0002
 20
 1.53945823187200E+0002
 11
 2.24632207980000E+0002
 21
 1.55146653412600E+0002
  0
LINE
  8
0
 10
 2.24632207980000E+0002
 20
 1.55146653412600E+0002
 11
 2.25003784400000E+0002
 21
 1.56346417734400E+0002
  0
LINE
  8
0
 10
 2.25003784400000E+0002
 20
 1.56346417734400E+0002
 11
 2.25375013780000E+0002
 21
 1.57545077585800E+0002
  0
LINE
  8
0
 10
 2.25375013780000E+0002
 20
 1.57545077585800E+0002
 11
 2.25745884000000E+0002
 21
 1.58742594400000E+0002
  0
LINE
  8
0
 10
 2.25745884000000E+0002
 20
 1.58742594400000E+0002
 11
 2.26116382940000E+0002
 21
 1.59938929610200E+0002
  0
LINE
  8
0
 10
 2.26116382940000E+0002
 20
 1.59938929610200E+0002
 11
 2.26486498480000E+0002
 21
 1.61134044649600E+0002
  0
LINE
  8
0
 10
 2.26486498480000E+0002
 20
 1.61134044649600E+0002
 11
 2.26856218500000E+0002
 21
 1.62327900951400E+0002
  0
LINE
  8
0
 10
 2.26856218500000E+0002
 20
 1.62327900951400E+0002
 11
 2.27225530880000E+0002
 21
 1.63520459948800E+0002
  0
LINE
  8
0
 10
 2.27225530880000E+0002
 20
 1.63520459948800E+0002
 11
 2.27594423500000E+0002
 21
 1.64711683075000E+0002
  0
LINE
  8
0
 10
 2.27594423500000E+0002
 20
 1.64711683075000E+0002
 11
 2.27962884240000E+0002
 21
 1.65901531763200E+0002
  0
LINE
  8
0
 10
 2.27962884240000E+0002
 20
 1.65901531763200E+0002
 11
 2.28330900980000E+0002
 21
 1.67089967446600E+0002
  0
LINE
  8
0
 10
 2.28330900980000E+0002
 20
 1.67089967446600E+0002
 11
 2.28698461600000E+0002
 21
 1.68276951558400E+0002
  0
LINE
  8
0
 10
 2.28698461600000E+0002
 20
 1.68276951558400E+0002
 11
 2.29065553980000E+0002
 21
 1.69462445531800E+0002
  0
LINE
  8
0
 10
 2.29065553980000E+0002
 20
 1.69462445531800E+0002
 11
 2.29432166000000E+0002
 21
 1.70646410800000E+0002
  0
LINE
  8
0
 10
 2.29432166000000E+0002
 20
 1.70646410800000E+0002
 11
 2.29798285540000E+0002
 21
 1.71828808796200E+0002
  0
LINE
  8
0
 10
 2.29798285540000E+0002
 20
 1.71828808796200E+0002
 11
 2.30163900480000E+0002
 21
 1.73009600953600E+0002
  0
LINE
  8
0
 10
 2.30163900480000E+0002
 20
 1.73009600953600E+0002
 11
 2.30528998700000E+0002
 21
 1.74188748705400E+0002
  0
LINE
  8
0
 10
 2.30528998700000E+0002
 20
 1.74188748705400E+0002
 11
 2.30893568080000E+0002
 21
 1.75366213484800E+0002
  0
LINE
  8
0
 10
 2.30893568080000E+0002
 20
 1.75366213484800E+0002
 11
 2.31257596500000E+0002
 21
 1.76541956725000E+0002
  0
LINE
  8
0
 10
 2.31257596500000E+0002
 20
 1.76541956725000E+0002
 11
 2.31621071840000E+0002
 21
 1.77715939859200E+0002
  0
LINE
  8
0
 10
 2.31621071840000E+0002
 20
 1.77715939859200E+0002
 11
 2.31983981980000E+0002
 21
 1.78888124320600E+0002
  0
LINE
  8
0
 10
 2.31983981980000E+0002
 20
 1.78888124320600E+0002
 11
 2.32346314800000E+0002
 21
 1.80058471542400E+0002
  0
LINE
  8
0
 10
 2.32346314800000E+0002
 20
 1.80058471542400E+0002
 11
 2.32708058180000E+0002
 21
 1.81226942957800E+0002
  0
LINE
  8
0
 10
 2.32708058180000E+0002
 20
 1.81226942957800E+0002
 11
 2.33069200000000E+0002
 21
 1.82393500000000E+0002
  0
LINE
  8
0
 10
 2.33069200000000E+0002
 20
 1.82393500000000E+0002
 11
 2.33068040946941E+0002
 21
 1.82392701251101E+0002
  0
ARC
  8
0
 10
 2.56950000000000E+0002
 20
 1.75000000000000E+0002
 40
 2.50000000000000E+0001
 50
 9.00000000000000E+0001
 51
 1.62800000000000E+0002
  0
LINE
  8
0
 10
 2.56950000000000E+0002
 20
 2.00000000000000E+0002
 11
 2.77500000000000E+0002
 21
 2.00000000000000E+0002
  0
LINE
  8
0
 10
 2.77500000000000E+0002
 20
 2.00000000000000E+0002
 11
 2.77500000000000E+0002
 21
 1.87500000000000E+0002
  0
LINE
  8
0
 10
 2.77500000000000E+0002
 20
 1.87500000000000E+0002
 11
 2.56950000000000E+0002
 21
 1.87500000000000E+0002
  0
ARC
  8
0
 10
 2.56950000000000E+0002
 20
 1.75000000000000E+0002
 40
 1.25000000000000E+0001
 50
 9.00000000000000E+0001
 51
 1.62795000000000E+0002
  0
LINE
  8
0
 10
 2.45009343086382E+0002
 20
 1.78697392658518E+0002
 11
 2.40000000000000E+0002
 21
 1.62500000000000E+0002
  0
LINE
  8
0
 10
 2.40000000000000E+0002
 20
 1.62500000000000E+0002
 11
 2.36067300000000E+0002
 21
 1.50000000000000E+0002
  0
LINE
  8
0
 10
 2.36067300000000E+0002
 20
 1.50000000000000E+0002
 11
 2.36130100000000E+0002
 21
 1.50000000000000E+0002
  0
LINE
  8
0
 10
 2.36130100000000E+0002
 20
 1.50000000000000E+0002
 11
 2.78846700000000E+0002
 21
 1.02608200000000E+0002
  0
LINE
  8
0
 10
 2.78846700000000E+0002
 20
 1.02608200000000E+0002
 11
 3.28989400000000E+0002
 21
 1.02608200000000E+0002
  0
LINE
  8
0
 10
 3.28989400000000E+0002
 20
 1.02608200000000E+0002
 11
 3.29258526722500E+0002
 21
 1.03335392958500E+0002
  0
LINE
  8
0
 10
 3.29258526722500E+0002
 20
 1.03335392958500E+0002
 11
 3.29527860460000E+0002
 21
 1.04062435548000E+0002
  0
LINE
  8
0
 10
 3.29527860460000E+0002
 20
 1.04062435548000E+0002
 11
 3.29797397567500E+0002
 21
 1.04789330339500E+0002
  0
LINE
  8
0
 10
 3.29797397567500E+0002
 20
 1.04789330339500E+0002
 11
 3.30067134400000E+0002
 21
 1.05516079904000E+0002
  0
LINE
  8
0
 10
 3.30067134400000E+0002
 20
 1.05516079904000E+0002
 11
 3.30337067312500E+0002
 21
 1.06242686812500E+0002
  0
LINE
  8
0
 10
 3.30337067312500E+0002
 20
 1.06242686812500E+0002
 11
 3.30607192660000E+0002
 21
 1.06969153636000E+0002
  0
LINE
  8
0
 10
 3.30607192660000E+0002
 20
 1.06969153636000E+0002
 11
 3.30877506797500E+0002
 21
 1.07695482945500E+0002
  0
LINE
  8
0
 10
 3.30877506797500E+0002
 20
 1.07695482945500E+0002
 11
 3.31148006080000E+0002
 21
 1.08421677312000E+0002
  0
LINE
  8
0
 10
 3.31148006080000E+0002
 20
 1.08421677312000E+0002
 11
 3.31418686862500E+0002
 21
 1.09147739306500E+0002
  0
LINE
  8
0
 10
 3.31418686862500E+0002
 20
 1.09147739306500E+0002
 11
 3.31689545500000E+0002
 21
 1.09873671500000E+0002
  0
LINE
  8
0
 10
 3.31689545500000E+0002
 20
 1.09873671500000E+0002
 11
 3.31960578347500E+0002
 21
 1.10599476463500E+0002
  0
LINE
  8
0
 10
 3.31960578347500E+0002
 20
 1.10599476463500E+0002
 11
 3.32231781760000E+0002
 21
 1.11325156768000E+0002
  0
LINE
  8
0
 10
 3.32231781760000E+0002
 20
 1.11325156768000E+0002
 11
 3.32503152092500E+0002
 21
 1.12050714984500E+0002
  0
LINE
  8
0
 10
 3.32503152092500E+0002
 20
 1.12050714984500E+0002
 11
 3.32774685700000E+0002
 21
 1.12776153684000E+0002
  0
LINE
  8
0
 10
 3.32774685700000E+0002
 20
 1.12776153684000E+0002
 11
 3.33046378937500E+0002
 21
 1.13501475437500E+0002
  0
LINE
  8
0
 10
 3.33046378937500E+0002
 20
 1.13501475437500E+0002
 11
 3.33318228160000E+0002
 21
 1.14226682816000E+0002
  0
LINE
  8
0
 10
 3.33318228160000E+0002
 20
 1.14226682816000E+0002
 11
 3.33590229722500E+0002
 21
 1.14951778390500E+0002
  0
LINE
  8
0
 10
 3.33590229722500E+0002
 20
 1.14951778390500E+0002
 11
 3.33862379980000E+0002
 21
 1.15676764732000E+0002
  0
LINE
  8
0
 10
 3.33862379980000E+0002
 20
 1.15676764732000E+0002
 11
 3.34134675287500E+0002
 21
 1.16401644411500E+0002
  0
LINE
  8
0
 10
 3.34134675287500E+0002
 20
 1.16401644411500E+0002
 11
 3.34407112000000E+0002
 21
 1.17126420000000E+0002
  0
LINE
  8
0
 10
 3.34407112000000E+0002
 20
 1.17126420000000E+0002
 11
 3.34679686472500E+0002
 21
 1.17851094068500E+0002
  0
LINE
  8
0
 10
 3.34679686472500E+0002
 20
 1.17851094068500E+0002
 11
 3.34952395060000E+0002
 21
 1.18575669188000E+0002
  0
LINE
  8
0
 10
 3.34952395060000E+0002
 20
 1.18575669188000E+0002
 11
 3.35225234117500E+0002
 21
 1.19300147929500E+0002
  0
LINE
  8
0
 10
 3.35225234117500E+0002
 20
 1.19300147929500E+0002
 11
 3.35498200000000E+0002
 21
 1.20024532864000E+0002
  0
LINE
  8
0
 10
 3.35498200000000E+0002
 20
 1.20024532864000E+0002
 11
 3.35771289062500E+0002
 21
 1.20748826562500E+0002
  0
LINE
  8
0
 10
 3.35771289062500E+0002
 20
 1.20748826562500E+0002
 11
 3.36044497660000E+0002
 21
 1.21473031596000E+0002
  0
LINE
  8
0
 10
 3.36044497660000E+0002
 20
 1.21473031596000E+0002
 11
 3.36317822147500E+0002
 21
 1.22197150535500E+0002
  0
LINE
  8
0
 10
 3.36317822147500E+0002
 20
 1.22197150535500E+0002
 11
 3.36591258880000E+0002
 21
 1.22921185952000E+0002
  0
LINE
  8
0
 10
 3.36591258880000E+0002
 20
 1.22921185952000E+0002
 11
 3.36864804212500E+0002
 21
 1.23645140416500E+0002
  0
LINE
  8
0
 10
 3.36864804212500E+0002
 20
 1.23645140416500E+0002
 11
 3.37138454500000E+0002
 21
 1.24369016500000E+0002
  0
LINE
  8
0
 10
 3.37138454500000E+0002
 20
 1.24369016500000E+0002
 11
 3.37412206097500E+0002
 21
 1.25092816773500E+0002
  0
LINE
  8
0
 10
 3.37412206097500E+0002
 20
 1.25092816773500E+0002
 11
 3.37686055360000E+0002
 21
 1.25816543808000E+0002
  0
LINE
  8
0
 10
 3.37686055360000E+0002
 20
 1.25816543808000E+0002
 11
 3.37959998642500E+0002
 21
 1.26540200174500E+0002
  0
LINE
  8
0
 10
 3.37959998642500E+0002
 20
 1.26540200174500E+0002
 11
 3.38234032300000E+0002
 21
 1.27263788444000E+0002
  0
LINE
  8
0
 10
 3.38234032300000E+0002
 20
 1.27263788444000E+0002
 11
 3.38508152687500E+0002
 21
 1.27987311187500E+0002
  0
LINE
  8
0
 10
 3.38508152687500E+0002
 20
 1.27987311187500E+0002
 11
 3.38782356160000E+0002
 21
 1.28710770976000E+0002
  0
LINE
  8
0
 10
 3.38782356160000E+0002
 20
 1.28710770976000E+0002
 11
 3.39056639072500E+0002
 21
 1.29434170380500E+0002
  0
LINE
  8
0
 10
 3.39056639072500E+0002
 20
 1.29434170380500E+0002
 11
 3.39330997780000E+0002
 21
 1.30157511972000E+0002
  0
LINE
  8
0
 10
 3.39330997780000E+0002
 20
 1.30157511972000E+0002
 11
 3.39605428637500E+0002
 21
 1.30880798321500E+0002
  0
LINE
  8
0
 10
 3.39605428637500E+0002
 20
 1.30880798321500E+0002
 11
 3.39879928000000E+0002
 21
 1.31604032000000E+0002
  0
LINE
  8
0
 10
 3.39879928000000E+0002
 20
 1.31604032000000E+0002
 11
 3.40154492222500E+0002
 21
 1.32327215578500E+0002
  0
LINE
  8
0
 10
 3.40154492222500E+0002
 20
 1.32327215578500E+0002
 11
 3.40429117660000E+0002
 21
 1.33050351628000E+0002
  0
LINE
  8
0
 10
 3.40429117660000E+0002
 20
 1.33050351628000E+0002
 11
 3.40703800667500E+0002
 21
 1.33773442719500E+0002
  0
LINE
  8
0
 10
 3.40703800667500E+0002
 20
 1.33773442719500E+0002
 11
 3.40978537600000E+0002
 21
 1.34496491424000E+0002
  0
LINE
  8
0
 10
 3.40978537600000E+0002
 20
 1.34496491424000E+0002
 11
 3.41253324812500E+0002
 21
 1.35219500312500E+0002
  0
LINE
  8
0
 10
 3.41253324812500E+0002
 20
 1.35219500312500E+0002
 11
 3.41528158660000E+0002
 21
 1.35942471956000E+0002
  0
LINE
  8
0
 10
 3.41528158660000E+0002
 20
 1.35942471956000E+0002
 11
 3.41803035497500E+0002
 21
 1.36665408925500E+0002
  0
LINE
  8
0
 10
 3.41803035497500E+0002
 20
 1.36665408925500E+0002
 11
 3.42077951680000E+0002
 21
 1.37388313792000E+0002
  0
LINE
  8
0
 10
 3.42077951680000E+0002
 20
 1.37388313792000E+0002
 11
 3.42352903562500E+0002
 21
 1.38111189126500E+0002
  0
LINE
  8
0
 10
 3.42352903562500E+0002
 20
 1.38111189126500E+0002
 11
 3.42627887500000E+0002
 21
 1.38834037500000E+0002
  0
LINE
  8
0
 10
 3.42627887500000E+0002
 20
 1.38834037500000E+0002
 11
 3.42902899847500E+0002
 21
 1.39556861483500E+0002
  0
LINE
  8
0
 10
 3.42902899847500E+0002
 20
 1.39556861483500E+0002
 11
 3.43177936960000E+0002
 21
 1.40279663648000E+0002
  0
LINE
  8
0
 10
 3.43177936960000E+0002
 20
 1.40279663648000E+0002
 11
 3.43452995192500E+0002
 21
 1.41002446564500E+0002
  0
LINE
  8
0
 10
 3.43452995192500E+0002
 20
 1.41002446564500E+0002
 11
 3.43728070900000E+0002
 21
 1.41725212804000E+0002
  0
LINE
  8
0
 10
 3.43728070900000E+0002
 20
 1.41725212804000E+0002
 11
 3.44003160437500E+0002
 21
 1.42447964937500E+0002
  0
LINE
  8
0
 10
 3.44003160437500E+0002
 20
 1.42447964937500E+0002
 11
 3.44278260160000E+0002
 21
 1.43170705536000E+0002
  0
LINE
  8
0
 10
 3.44278260160000E+0002
 20
 1.43170705536000E+0002
 11
 3.44553366422500E+0002
 21
 1.43893437170500E+0002
  0
LINE
  8
0
 10
 3.44553366422500E+0002
 20
 1.43893437170500E+0002
 11
 3.44828475580000E+0002
 21
 1.44616162412000E+0002
  0
LINE
  8
0
 10
 3.44828475580000E+0002
 20
 1.44616162412000E+0002
 11
 3.45103583987500E+0002
 21
 1.45338883831500E+0002
  0
LINE
  8
0
 10
 3.45103583987500E+0002
 20
 1.45338883831500E+0002
 11
 3.45378688000000E+0002
 21
 1.46061604000000E+0002
  0
LINE
  8
0
 10
 3.45378688000000E+0002
 20
 1.46061604000000E+0002
 11
 3.45653783972500E+0002
 21
 1.46784325488500E+0002
  0
LINE
  8
0
 10
 3.45653783972500E+0002
 20
 1.46784325488500E+0002
 11
 3.45928868260000E+0002
 21
 1.47507050868000E+0002
  0
LINE
  8
0
 10
 3.45928868260000E+0002
 20
 1.47507050868000E+0002
 11
 3.46203937217500E+0002
 21
 1.48229782709500E+0002
  0
LINE
  8
0
 10
 3.46203937217500E+0002
 20
 1.48229782709500E+0002
 11
 3.46478987200000E+0002
 21
 1.48952523584000E+0002
  0
LINE
  8
0
 10
 3.46478987200000E+0002
 20
 1.48952523584000E+0002
 11
 3.46754014562500E+0002
 21
 1.49675276062500E+0002
  0
LINE
  8
0
 10
 3.46754014562500E+0002
 20
 1.49675276062500E+0002
 11
 3.47029015660000E+0002
 21
 1.50398042716000E+0002
  0
LINE
  8
0
 10
 3.47029015660000E+0002
 20
 1.50398042716000E+0002
 11
 3.47303986847500E+0002
 21
 1.51120826115500E+0002
  0
LINE
  8
0
 10
 3.47303986847500E+0002
 20
 1.51120826115500E+0002
 11
 3.47578924480000E+0002
 21
 1.51843628832000E+0002
  0
LINE
  8
0
 10
 3.47578924480000E+0002
 20
 1.51843628832000E+0002
 11
 3.47853824912500E+0002
 21
 1.52566453436500E+0002
  0
LINE
  8
0
 10
 3.47853824912500E+0002
 20
 1.52566453436500E+0002
 11
 3.48128684500000E+0002
 21
 1.53289302500000E+0002
  0
LINE
  8
0
 10
 3.48128684500000E+0002
 20
 1.53289302500000E+0002
 11
 3.48403499597500E+0002
 21
 1.54012178593500E+0002
  0
LINE
  8
0
 10
 3.48403499597500E+0002
 20
 1.54012178593500E+0002
 11
 3.48678266560000E+0002
 21
 1.54735084288000E+0002
  0
LINE
  8
0
 10
 3.48678266560000E+0002
 20
 1.54735084288000E+0002
 11
 3.48952981742500E+0002
 21
 1.55458022154500E+0002
  0
LINE
  8
0
 10
 3.48952981742500E+0002
 20
 1.55458022154500E+0002
 11
 3.49227641500000E+0002
 21
 1.56180994764000E+0002
  0
LINE
  8
0
 10
 3.49227641500000E+0002
 20
 1.56180994764000E+0002
 11
 3.49502242187500E+0002
 21
 1.56904004687500E+0002
  0
LINE
  8
0
 10
 3.49502242187500E+0002
 20
 1.56904004687500E+0002
 11
 3.49776780160000E+0002
 21
 1.57627054496000E+0002
  0
LINE
  8
0
 10
 3.49776780160000E+0002
 20
 1.57627054496000E+0002
 11
 3.50051251772500E+0002
 21
 1.58350146760500E+0002
  0
LINE
  8
0
 10
 3.50051251772500E+0002
 20
 1.58350146760500E+0002
 11
 3.50325653380000E+0002
 21
 1.59073284052000E+0002
  0
LINE
  8
0
 10
 3.50325653380000E+0002
 20
 1.59073284052000E+0002
 11
 3.50599981337500E+0002
 21
 1.59796468941500E+0002
  0
LINE
  8
0
 10
 3.50599981337500E+0002
 20
 1.59796468941500E+0002
 11
 3.50874232000000E+0002
 21
 1.60519704000000E+0002
  0
LINE
  8
0
 10
 3.50874232000000E+0002
 20
 1.60519704000000E+0002
 11
 3.51148401722500E+0002
 21
 1.61242991798500E+0002
  0
LINE
  8
0
 10
 3.51148401722500E+0002
 20
 1.61242991798500E+0002
 11
 3.51422486860000E+0002
 21
 1.61966334908000E+0002
  0
LINE
  8
0
 10
 3.51422486860000E+0002
 20
 1.61966334908000E+0002
 11
 3.51696483767500E+0002
 21
 1.62689735899500E+0002
  0
LINE
  8
0
 10
 3.51696483767500E+0002
 20
 1.62689735899500E+0002
 11
 3.51970388800000E+0002
 21
 1.63413197344000E+0002
  0
LINE
  8
0
 10
 3.51970388800000E+0002
 20
 1.63413197344000E+0002
 11
 3.52244198312500E+0002
 21
 1.64136721812500E+0002
  0
LINE
  8
0
 10
 3.52244198312500E+0002
 20
 1.64136721812500E+0002
 11
 3.52517908660000E+0002
 21
 1.64860311876000E+0002
  0
LINE
  8
0
 10
 3.52517908660000E+0002
 20
 1.64860311876000E+0002
 11
 3.52791516197500E+0002
 21
 1.65583970105500E+0002
  0
LINE
  8
0
 10
 3.52791516197500E+0002
 20
 1.65583970105500E+0002
 11
 3.53065017280000E+0002
 21
 1.66307699072000E+0002
  0
LINE
  8
0
 10
 3.53065017280000E+0002
 20
 1.66307699072000E+0002
 11
 3.53338408262500E+0002
 21
 1.67031501346500E+0002
  0
LINE
  8
0
 10
 3.53338408262500E+0002
 20
 1.67031501346500E+0002
 11
 3.53611685500000E+0002
 21
 1.67755379500000E+0002
  0
LINE
  8
0
 10
 3.53611685500000E+0002
 20
 1.67755379500000E+0002
 11
 3.53884845347500E+0002
 21
 1.68479336103500E+0002
  0
LINE
  8
0
 10
 3.53884845347500E+0002
 20
 1.68479336103500E+0002
 11
 3.54157884160000E+0002
 21
 1.69203373728000E+0002
  0
LINE
  8
0
 10
 3.54157884160000E+0002
 20
 1.69203373728000E+0002
 11
 3.54430798292500E+0002
 21
 1.69927494944500E+0002
  0
LINE
  8
0
 10
 3.54430798292500E+0002
 20
 1.69927494944500E+0002
 11
 3.54703584100000E+0002
 21
 1.70651702324000E+0002
  0
LINE
  8
0
 10
 3.54703584100000E+0002
 20
 1.70651702324000E+0002
 11
 3.54976237937500E+0002
 21
 1.71375998437500E+0002
  0
LINE
  8
0
 10
 3.54976237937500E+0002
 20
 1.71375998437500E+0002
 11
 3.55248756160000E+0002
 21
 1.72100385856000E+0002
  0
LINE
  8
0
 10
 3.55248756160000E+0002
 20
 1.72100385856000E+0002
 11
 3.55521135122500E+0002
 21
 1.72824867150500E+0002
  0
LINE
  8
0
 10
 3.55521135122500E+0002
 20
 1.72824867150500E+0002
 11
 3.55793371180000E+0002
 21
 1.73549444892000E+0002
  0
LINE
  8
0
 10
 3.55793371180000E+0002
 20
 1.73549444892000E+0002
 11
 3.56065460687500E+0002
 21
 1.74274121651500E+0002
  0
LINE
  8
0
 10
 3.56065460687500E+0002
 20
 1.74274121651500E+0002
 11
 3.56337400000000E+0002
 21
 1.74998900000000E+0002
  0
LINE
  8
0
 10
 3.56337400000000E+0002
 20
 1.74998900000000E+0002
 11
 3.29877371621627E+0002
 21
 1.81335400818223E+0002
  0
ARC
  8
0
 10
 3.30600000000000E+0002
 20
 1.84350000000000E+0002
 40
 3.10000000000000E+0000
 50
 8.99950000000000E+0001
 51
 2.56520000000000E+0002
  0
LINE
  8
0
 10
 3.30600270526034E+0002
 20
 1.87449999988196E+0002
 11
 3.83748200000000E+0002
 21
 1.87500000000000E+0002
  0
LINE
  8
0
 10
 3.83748200000000E+0002
 20
 1.87500000000000E+0002
 11
 3.83748200000000E+0002
 21
 1.75000000000000E+0002
  0
LINE
  8
0
 10
 3.83748200000000E+0002
 20
 1.75000000000000E+0002
 11
 3.69686500000000E+0002
 21
 1.75000000000000E+0002
  0
LINE
  8
0
 10
 3.69686500000000E+0002
 20
 1.75000000000000E+0002
 11
 3.65000000000000E+0002
 21
 1.62500000000000E+0002
  0
LINE
  8
0
 10
 3.65000000000000E+0002
 20
 1.62500000000000E+0002
 11
 3.83129387463927E+0002
 21
 1.21922465196063E+0002
  0
ARC
  8
0
 10
 4.02500000000000E+0002
 20
 6.25000000000000E+0001
 40
 6.25000000000000E+0001
 50
 1.91540000000000E+0002
 51
 4.68055000000000E+0002
  0
LINE
  8
0
 10
 3.41263419952794E+0002
 20
 4.99967498576524E+0001
 11
 3.23238600000000E+0002
 21
 5.00000000000000E+0001
  0
LINE
  8
0
 10
 3.23238600000000E+0002
 20
 5.00000000000000E+0001
 11
 1.02004400000000E+0002
 21
 5.00000000000000E+0001
  0
LINE
  8
0
 10
 2.09038000000000E+0002
 20
 6.25000000000000E+0001
 11
 2.98186200000000E+0002
 21
 6.25000000000000E+0001
  0
LINE
  8
0
 10
 2.98186200000000E+0002
 20
 6.25000000000000E+0001
 11
 2.31859500000000E+0002
 21
 1.36217600000000E+0002
  0
LINE
  8
0
 10
 2.31859500000000E+0002
 20
 1.36217600000000E+0002
 11
 2.31824200000000E+0002
 21
 1.36103500000000E+0002
  0
LINE
  8
0
 10
 2.31824200000000E+0002
 20
 1.36103500000000E+0002
 11
 2.09000000000000E+0002
 21
 6.25000000000000E+0001
  0
ARC
  8
0
 10
 4.25000000000000E+0001
 20
 4.21500000000000E+0001
 40
 4.28500000000000E+0001
 50
 8.13300000000000E+0001
 51
 9.00000000000000E+0001
  0
LINE
  8
0
 10
 4.89593472061422E+0001
 20
 8.45103509625511E+0001
 11
 3.65303172236673E+0001
 21
 4.43507802543675E+0001
  0
ARC
  8
0
 10
 4.25000000000000E+0001
 20
 4.25000000000000E+0001
 40
 6.25000000000000E+0000
 50
 1.62775000000000E+0002
 51
 3.42795000000000E+0002
  0
LINE
  8
0
 10
 4.84703284568091E+0001
 20
 4.06513036707411E+0001
 11
 6.09238269409365E+0001
 21
 8.07989895539089E+0001
  0
ARC
  8
0
 10
 4.25000000000000E+0001
 20
 4.25000000000000E+0001
 40
 4.25000000000000E+0001
 50
 9.00000000000000E+0001
 51
 4.24310000000000E+0002
  0
ARC
  8
0
 10
 4.25000000000000E+0001
 20
 4.21500000000000E+0001
 40
 3.03500000000000E+0001
 50
 8.48800000000000E+0001
 51
 9.00000000000000E+0001
  0
LINE
  8
0
 10
 4.52084939523326E+0001
 20
 7.23789027341413E+0001
 11
 3.65303172236673E+0001
 21
 4.43507802543675E+0001
  0
ARC
  8
0
 10
 4.25000000000000E+0001
 20
 4.25000000000000E+0001
 40
 6.25000000000000E+0000
 50
 1.62775000000000E+0002
 51
 3.42795000000000E+0002
  0
LINE
  8
0
 10
 4.84703284568091E+0001
 20
 4.06513036707411E+0001
 11
 5.71700567951729E+0001
 21
 6.86684816836285E+0001
  0
ARC
  8
0
 10
 4.25000000000000E+0001
 20
 4.25000000000000E+0001
 40
 3.00000000000000E+0001
 50
 9.00000000000000E+0001
 51
 4.20725000000000E+0002
  0
LINE
  8
0
 10
 2.19330700000000E+0002
 20
 1.55000000000000E+0002
 11
 2.17000689325700E+0002
 21
 1.55057763887600E+0002
  0
LINE
  8
0
 10
 2.17000689325700E+0002
 20
 1.55057763887600E+0002
 11
 2.14675468005600E+0002
 21
 1.55114489100800E+0002
  0
LINE
  8
0
 10
 2.14675468005600E+0002
 20
 1.55114489100800E+0002
 11
 2.12355301093900E+0002
 21
 1.55170015965200E+0002
  0
LINE
  8
0
 10
 2.12355301093900E+0002
 20
 1.55170015965200E+0002
 11
 2.10040453644800E+0002
 21
 1.55224184806400E+0002
  0
LINE
  8
0
 10
 2.10040453644800E+0002
 20
 1.55224184806400E+0002
 11
 2.07731190712500E+0002
 21
 1.55276835950000E+0002
  0
LINE
  8
0
 10
 2.07731190712500E+0002
 20
 1.55276835950000E+0002
 11
 2.05427777351200E+0002
 21
 1.55327809721600E+0002
  0
LINE
  8
0
 10
 2.05427777351200E+0002
 20
 1.55327809721600E+0002
 11
 2.03130478615100E+0002
 21
 1.55376946446800E+0002
  0
LINE
  8
0
 10
 2.03130478615100E+0002
 20
 1.55376946446800E+0002
 11
 2.00839559558400E+0002
 21
 1.55424086451200E+0002
  0
LINE
  8
0
 10
 2.00839559558400E+0002
 20
 1.55424086451200E+0002
 11
 1.98555285235300E+0002
 21
 1.55469070060400E+0002
  0
LINE
  8
0
 10
 1.98555285235300E+0002
 20
 1.55469070060400E+0002
 11
 1.96277920700000E+0002
 21
 1.55511737600000E+0002
  0
LINE
  8
0
 10
 1.96277920700000E+0002
 20
 1.55511737600000E+0002
 11
 1.94007731006700E+0002
 21
 1.55551929395600E+0002
  0
LINE
  8
0
 10
 1.94007731006700E+0002
 20
 1.55551929395600E+0002
 11
 1.91744981209600E+0002
 21
 1.55589485772800E+0002
  0
LINE
  8
0
 10
 1.91744981209600E+0002
 20
 1.55589485772800E+0002
 11
 1.89489936362900E+0002
 21
 1.55624247057200E+0002
  0
LINE
  8
0
 10
 1.89489936362900E+0002
 20
 1.55624247057200E+0002
 11
 1.87242861520800E+0002
 21
 1.55656053574400E+0002
  0
LINE
  8
0
 10
 1.87242861520800E+0002
 20
 1.55656053574400E+0002
 11
 1.85004021737500E+0002
 21
 1.55684745650000E+0002
  0
LINE
  8
0
 10
 1.85004021737500E+0002
 20
 1.55684745650000E+0002
 11
 1.82773682067200E+0002
 21
 1.55710163609600E+0002
  0
LINE
  8
0
 10
 1.82773682067200E+0002
 20
 1.55710163609600E+0002
 11
 1.80552107564100E+0002
 21
 1.55732147778800E+0002
  0
LINE
  8
0
 10
 1.80552107564100E+0002
 20
 1.55732147778800E+0002
 11
 1.78339563282400E+0002
 21
 1.55750538483200E+0002
  0
LINE
  8
0
 10
 1.78339563282400E+0002
 20
 1.55750538483200E+0002
 11
 1.76136314276300E+0002
 21
 1.55765176048400E+0002
  0
LINE
  8
0
 10
 1.76136314276300E+0002
 20
 1.55765176048400E+0002
 11
 1.73942625600000E+0002
 21
 1.55775900800000E+0002
  0
LINE
  8
0
 10
 1.73942625600000E+0002
 20
 1.55775900800000E+0002
 11
 1.71758762307700E+0002
 21
 1.55782553063600E+0002
  0
LINE
  8
0
 10
 1.71758762307700E+0002
 20
 1.55782553063600E+0002
 11
 1.69584989453600E+0002
 21
 1.55784973164800E+0002
  0
LINE
  8
0
 10
 1.69584989453600E+0002
 20
 1.55784973164800E+0002
 11
 1.67421572091900E+0002
 21
 1.55783001429200E+0002
  0
LINE
  8
0
 10
 1.67421572091900E+0002
 20
 1.55783001429200E+0002
 11
 1.65268775276800E+0002
 21
 1.55776478182400E+0002
  0
LINE
  8
0
 10
 1.65268775276800E+0002
 20
 1.55776478182400E+0002
 11
 1.63126864062500E+0002
 21
 1.55765243750000E+0002
  0
LINE
  8
0
 10
 1.63126864062500E+0002
 20
 1.55765243750000E+0002
 11
 1.60996103503200E+0002
 21
 1.55749138457600E+0002
  0
LINE
  8
0
 10
 1.60996103503200E+0002
 20
 1.55749138457600E+0002
 11
 1.58876758653100E+0002
 21
 1.55728002630800E+0002
  0
LINE
  8
0
 10
 1.58876758653100E+0002
 20
 1.55728002630800E+0002
 11
 1.56769094566400E+0002
 21
 1.55701676595200E+0002
  0
LINE
  8
0
 10
 1.56769094566400E+0002
 20
 1.55701676595200E+0002
 11
 1.54673376297300E+0002
 21
 1.55670000676400E+0002
  0
LINE
  8
0
 10
 1.54673376297300E+0002
 20
 1.55670000676400E+0002
 11
 1.52589868900000E+0002
 21
 1.55632815200000E+0002
  0
LINE
  8
0
 10
 1.52589868900000E+0002
 20
 1.55632815200000E+0002
 11
 1.50518837428700E+0002
 21
 1.55589960491600E+0002
  0
LINE
  8
0
 10
 1.50518837428700E+0002
 20
 1.55589960491600E+0002
 11
 1.48460546937600E+0002
 21
 1.55541276876800E+0002
  0
LINE
  8
0
 10
 1.48460546937600E+0002
 20
 1.55541276876800E+0002
 11
 1.46415262480900E+0002
 21
 1.55486604681200E+0002
  0
LINE
  8
0
 10
 1.46415262480900E+0002
 20
 1.55486604681200E+0002
 11
 1.44383249112800E+0002
 21
 1.55425784230400E+0002
  0
LINE
  8
0
 10
 1.44383249112800E+0002
 20
 1.55425784230400E+0002
 11
 1.42364771887500E+0002
 21
 1.55358655850000E+0002
  0
LINE
  8
0
 10
 1.42364771887500E+0002
 20
 1.55358655850000E+0002
 11
 1.40360095859200E+0002
 21
 1.55285059865600E+0002
  0
LINE
  8
0
 10
 1.40360095859200E+0002
 20
 1.55285059865600E+0002
 11
 1.38369486082100E+0002
 21
 1.55204836602800E+0002
  0
LINE
  8
0
 10
 1.38369486082100E+0002
 20
 1.55204836602800E+0002
 11
 1.36393207610400E+0002
 21
 1.55117826387200E+0002
  0
LINE
  8
0
 10
 1.36393207610400E+0002
 20
 1.55117826387200E+0002
 11
 1.34431525498300E+0002
 21
 1.55023869544400E+0002
  0
LINE
  8
0
 10
 1.34431525498300E+0002
 20
 1.55023869544400E+0002
 11
 1.32484704800000E+0002
 21
 1.54922806400000E+0002
  0
LINE
  8
0
 10
 1.32484704800000E+0002
 20
 1.54922806400000E+0002
 11
 1.30553010569700E+0002
 21
 1.54814477279600E+0002
  0
LINE
  8
0
 10
 1.30553010569700E+0002
 20
 1.54814477279600E+0002
 11
 1.28636707861600E+0002
 21
 1.54698722508800E+0002
  0
LINE
  8
0
 10
 1.28636707861600E+0002
 20
 1.54698722508800E+0002
 11
 1.26736061729900E+0002
 21
 1.54575382413200E+0002
  0
LINE
  8
0
 10
 1.26736061729900E+0002
 20
 1.54575382413200E+0002
 11
 1.24851337228800E+0002
 21
 1.54444297318400E+0002
  0
LINE
  8
0
 10
 1.24851337228800E+0002
 20
 1.54444297318400E+0002
 11
 1.22982799412500E+0002
 21
 1.54305307550000E+0002
  0
LINE
  8
0
 10
 1.22982799412500E+0002
 20
 1.54305307550000E+0002
 11
 1.21130713335200E+0002
 21
 1.54158253433600E+0002
  0
LINE
  8
0
 10
 1.21130713335200E+0002
 20
 1.54158253433600E+0002
 11
 1.19295344051100E+0002
 21
 1.54002975294800E+0002
  0
LINE
  8
0
 10
 1.19295344051100E+0002
 20
 1.54002975294800E+0002
 11
 1.17476956614400E+0002
 21
 1.53839313459200E+0002
  0
LINE
  8
0
 10
 1.17476956614400E+0002
 20
 1.53839313459200E+0002
 11
 1.15675816079300E+0002
 21
 1.53667108252400E+0002
  0
LINE
  8
0
 10
 1.15675816079300E+0002
 20
 1.53667108252400E+0002
 11
 1.13892187500000E+0002
 21
 1.53486200000000E+0002
  0
LINE
  8
0
 10
 1.13892187500000E+0002
 20
 1.53486200000000E+0002
 11
 1.12126335930700E+0002
 21
 1.53296429027600E+0002
  0
LINE
  8
0
 10
 1.12126335930700E+0002
 20
 1.53296429027600E+0002
 11
 1.10378526425600E+0002
 21
 1.53097635660800E+0002
  0
LINE
  8
0
 10
 1.10378526425600E+0002
 20
 1.53097635660800E+0002
 11
 1.08649024038900E+0002
 21
 1.52889660225200E+0002
  0
LINE
  8
0
 10
 1.08649024038900E+0002
 20
 1.52889660225200E+0002
 11
 1.06938093824800E+0002
 21
 1.52672343046400E+0002
  0
LINE
  8
0
 10
 1.06938093824800E+0002
 20
 1.52672343046400E+0002
 11
 1.05246000837500E+0002
 21
 1.52445524450000E+0002
  0
LINE
  8
0
 10
 1.05246000837500E+0002
 20
 1.52445524450000E+0002
 11
 1.03573010131200E+0002
 21
 1.52209044761600E+0002
  0
LINE
  8
0
 10
 1.03573010131200E+0002
 20
 1.52209044761600E+0002
 11
 1.01919386760100E+0002
 21
 1.51962744306800E+0002
  0
LINE
  8
0
 10
 1.01919386760100E+0002
 20
 1.51962744306800E+0002
 11
 1.00285395778400E+0002
 21
 1.51706463411200E+0002
  0
LINE
  8
0
 10
 1.00285395778400E+0002
 20
 1.51706463411200E+0002
 11
 9.86713022403000E+0001
 21
 1.51440042400400E+0002
  0
LINE
  8
0
 10
 9.86713022403000E+0001
 20
 1.51440042400400E+0002
 11
 9.70773712000000E+0001
 21
 1.51163321600000E+0002
  0
LINE
  8
0
 10
 9.70773712000000E+0001
 20
 1.51163321600000E+0002
 11
 9.55038677117000E+0001
 21
 1.50876141335600E+0002
  0
LINE
  8
0
 10
 9.55038677117000E+0001
 20
 1.50876141335600E+0002
 11
 9.39510568296000E+0001
 21
 1.50578341932800E+0002
  0
LINE
  8
0
 10
 9.39510568296000E+0001
 20
 1.50578341932800E+0002
 11
 9.24192036079000E+0001
 21
 1.50269763717200E+0002
  0
LINE
  8
0
 10
 9.24192036079000E+0001
 20
 1.50269763717200E+0002
 11
 9.09085731008000E+0001
 21
 1.49950247014400E+0002
  0
LINE
  8
0
 10
 9.09085731008000E+0001
 20
 1.49950247014400E+0002
 11
 8.94194303625000E+0001
 21
 1.49619632150000E+0002
  0
LINE
  8
0
 10
 8.94194303625000E+0001
 20
 1.49619632150000E+0002
 11
 8.79520404472000E+0001
 21
 1.49277759449600E+0002
  0
LINE
  8
0
 10
 8.79520404472000E+0001
 20
 1.49277759449600E+0002
 11
 8.65066684091000E+0001
 21
 1.48924469238800E+0002
  0
LINE
  8
0
 10
 8.65066684091000E+0001
 20
 1.48924469238800E+0002
 11
 8.50835793024000E+0001
 21
 1.48559601843200E+0002
  0
LINE
  8
0
 10
 8.50835793024000E+0001
 20
 1.48559601843200E+0002
 11
 8.36830381813000E+0001
 21
 1.48182997588400E+0002
  0
LINE
  8
0
 10
 8.36830381813000E+0001
 20
 1.48182997588400E+0002
 11
 8.23053101000000E+0001
 21
 1.47794496800000E+0002
  0
LINE
  8
0
 10
 8.23053101000000E+0001
 20
 1.47794496800000E+0002
 11
 8.09506601127000E+0001
 21
 1.47393939803600E+0002
  0
LINE
  8
0
 10
 8.09506601127000E+0001
 20
 1.47393939803600E+0002
 11
 7.96193532736000E+0001
 21
 1.46981166924800E+0002
  0
LINE
  8
0
 10
 7.96193532736000E+0001
 20
 1.46981166924800E+0002
 11
 7.83116546369000E+0001
 21
 1.46556018489200E+0002
  0
LINE
  8
0
 10
 7.83116546369000E+0001
 20
 1.46556018489200E+0002
 11
 7.70278292568000E+0001
 21
 1.46118334822400E+0002
  0
LINE
  8
0
 10
 7.70278292568000E+0001
 20
 1.46118334822400E+0002
 11
 7.57681421875000E+0001
 21
 1.45667956250000E+0002
  0
LINE
  8
0
 10
 7.57681421875000E+0001
 20
 1.45667956250000E+0002
 11
 7.45328584832000E+0001
 21
 1.45204723097600E+0002
  0
LINE
  8
0
 10
 7.45328584832000E+0001
 20
 1.45204723097600E+0002
 11
 7.33222431981000E+0001
 21
 1.44728475690800E+0002
  0
LINE
  8
0
 10
 7.33222431981000E+0001
 20
 1.44728475690800E+0002
 11
 7.21365613864000E+0001
 21
 1.44239054355200E+0002
  0
LINE
  8
0
 10
 7.21365613864000E+0001
 20
 1.44239054355200E+0002
 11
 7.09760781023000E+0001
 21
 1.43736299416400E+0002
  0
LINE
  8
0
 10
 7.09760781023000E+0001
 20
 1.43736299416400E+0002
 11
 6.98410584000000E+0001
 21
 1.43220051200000E+0002
  0
LINE
  8
0
 10
 6.98410584000000E+0001
 20
 1.43220051200000E+0002
 11
 6.87317673337000E+0001
 21
 1.42690150031600E+0002
  0
LINE
  8
0
 10
 6.87317673337000E+0001
 20
 1.42690150031600E+0002
 11
 6.76484699576000E+0001
 21
 1.42146436236800E+0002
  0
LINE
  8
0
 10
 6.76484699576000E+0001
 20
 1.42146436236800E+0002
 11
 6.65914313259000E+0001
 21
 1.41588750141200E+0002
  0
LINE
  8
0
 10
 6.65914313259000E+0001
 20
 1.41588750141200E+0002
 11
 6.55609164928000E+0001
 21
 1.41016932070400E+0002
  0
LINE
  8
0
 10
 6.55609164928000E+0001
 20
 1.41016932070400E+0002
 11
 6.45571905125000E+0001
 21
 1.40430822350000E+0002
  0
LINE
  8
0
 10
 6.45571905125000E+0001
 20
 1.40430822350000E+0002
 11
 6.35805184392000E+0001
 21
 1.39830261305600E+0002
  0
LINE
  8
0
 10
 6.35805184392000E+0001
 20
 1.39830261305600E+0002
 11
 6.26311653271000E+0001
 21
 1.39215089262800E+0002
  0
LINE
  8
0
 10
 6.26311653271000E+0001
 20
 1.39215089262800E+0002
 11
 6.17093962304000E+0001
 21
 1.38585146547200E+0002
  0
LINE
  8
0
 10
 6.17093962304000E+0001
 20
 1.38585146547200E+0002
 11
 6.08154762033000E+0001
 21
 1.37940273484400E+0002
  0
LINE
  8
0
 10
 6.08154762033000E+0001
 20
 1.37940273484400E+0002
 11
 5.99496703000000E+0001
 21
 1.37280310400000E+0002
  0
LINE
  8
0
 10
 5.99496703000000E+0001
 20
 1.37280310400000E+0002
 11
 5.91122435747000E+0001
 21
 1.36605097619600E+0002
  0
LINE
  8
0
 10
 5.91122435747000E+0001
 20
 1.36605097619600E+0002
 11
 5.83034610816000E+0001
 21
 1.35914475468800E+0002
  0
LINE
  8
0
 10
 5.83034610816000E+0001
 20
 1.35914475468800E+0002
 11
 5.75235878749000E+0001
 21
 1.35208284273200E+0002
  0
LINE
  8
0
 10
 5.75235878749000E+0001
 20
 1.35208284273200E+0002
 11
 5.67728890088000E+0001
 21
 1.34486364358400E+0002
  0
LINE
  8
0
 10
 5.67728890088000E+0001
 20
 1.34486364358400E+0002
 11
 5.60516295375000E+0001
 21
 1.33748556050000E+0002
  0
LINE
  8
0
 10
 5.60516295375000E+0001
 20
 1.33748556050000E+0002
 11
 5.53600745152000E+0001
 21
 1.32994699673600E+0002
  0
LINE
  8
0
 10
 5.53600745152000E+0001
 20
 1.32994699673600E+0002
 11
 5.46984889961000E+0001
 21
 1.32224635554800E+0002
  0
LINE
  8
0
 10
 5.46984889961000E+0001
 20
 1.32224635554800E+0002
 11
 5.40671380344000E+0001
 21
 1.31438204019200E+0002
  0
LINE
  8
0
 10
 5.40671380344000E+0001
 20
 1.31438204019200E+0002
 11
 5.34662866843000E+0001
 21
 1.30635245392400E+0002
  0
LINE
  8
0
 10
 5.34662866843000E+0001
 20
 1.30635245392400E+0002
 11
 5.28962000000000E+0001
 21
 1.29815600000000E+0002
  0
LINE
  8
0
 10
 5.28962000000000E+0001
 20
 1.29815600000000E+0002
 11
 1.09789500000000E+0002
 21
 6.75000000000000E+0001
  0
LINE
  8
0
 10
 1.09789500000000E+0002
 20
 6.75000000000000E+0001
 11
 1.92238600000000E+0002
 21
 6.75000000000000E+0001
  0
LINE
  8
0
 10
 1.92238600000000E+0002
 20
 6.75000000000000E+0001
 11
 2.19330700000000E+0002
 21
 1.55000000000000E+0002
  0
LINE
  8
0
 10
 2.90113800000000E+0002
 20
 9.01082000000000E+0001
 11
 3.14399200000000E+0002
 21
 6.31655000000000E+0001
  0
LINE
  8
0
 10
 3.14399200000000E+0002
 20
 6.31655000000000E+0001
 11
 3.24365500000000E+0002
 21
 9.01082000000000E+0001
  0
LINE
  8
0
 10
 3.24365500000000E+0002
 20
 9.01082000000000E+0001
 11
 2.90113800000000E+0002
 21
 9.01082000000000E+0001
  0
LINE
  8
0
 10
 3.27500000000000E+0002
 20
 6.25000000000000E+0001
 11
 3.58750400000000E+0002
 21
 1.45839000000000E+0002
  0
LINE
  8
0
 10
 3.58750400000000E+0002
 20
 1.45839000000000E+0002
 11
 3.71690303860348E+0002
 21
 1.16878420570868E+0002
  0
ARC
  8
0
 10
 4.02500000000000E+0002
 20
 6.25000000000000E+0001
 40
 6.25000000000000E+0001
 50
 1.19535000000000E+0002
 51
 1.80000000000000E+0002
  0
LINE
  8
0
 10
 3.40000000000000E+0002
 20
 6.25000000000000E+0001
 11
 3.27500000000000E+0002
 21
 6.25000000000000E+0001
  0
ARC
  8
0
 10
 4.02500000000000E+0002
 20
 6.25000000000000E+0001
 40
 5.00000000000000E+0001
 50
 1.20900000000000E+0002
 51
 1.80000000000000E+0002
  0
LINE
  8
0
 10
 3.76822937397092E+0002
 20
 1.05403245286182E+0002
 11
 3.95986100000000E+0002
 21
 6.25000000000000E+0001
  0
LINE
  8
0
 10
 3.95986100000000E+0002
 20
 6.25000000000000E+0001
 11
 3.52499200000000E+0002
 21
 6.25000000000000E+0001
  0
LINE
  8
0
 10
 3.54087000000000E+0002
 20
 5.00000000000000E+0001
 11
 4.05600000000000E+0002
 21
 4.99500000000000E+0001
  0
ARC
  8
0
 10
 4.05600000000000E+0002
 20
 5.62500000000000E+0001
 40
 6.30000000000000E+0000
 50
 2.70000000000000E+0002
 51
 3.83955000000000E+0002
  0
LINE
  8
0
 10
 4.11357347144190E+0002
 20
 5.88079198308961E+0001
 11
 3.88253219271052E+0002
 21
 1.10427332899518E+0002
  0
ARC
  8
0
 10
 4.02500000000000E+0002
 20
 6.25000000000000E+0001
 40
 5.00000000000000E+0001
 50
 1.94480000000000E+0002
 51
 4.66555000000000E+0002
  0
LINE
  8
0
 10
 3.54088250974878E+0002
 20
 4.99978979236059E+0001
 11
 3.54087000000000E+0002
 21
 5.00000000000000E+0001
  0
ENDSEC
  0
EOF
