  0
SECTION
  2
HEADER
  9
$ACADVER
  1
AC1003
  9
$INSBASE
 10
0.0
 20
0.0
  9
$EXTMIN
 10
 0.00000000000000E+0000
 20
 0.00000000000000E+0000
  9
$EXTMAX
 10
 1.25000000000000E+0003
 20
 1.60000000000000E+0003
  9
$LIMMIN
 10
0.0
 20
0.0
  9
$LIMMAX
 10
410.0
 20
287.0
  9
$VIEWCTR
 10
227.0059616
 20
165.058879 
  9
$VIEWSIZE
 40
 1.60000000000000E+0003
9
$SNAPMODE
70
0
9
$SNAPUNIT
10
1
20
1
9
$GRIDMODE
70
0
9
$GRIDUNIT
10
1
20
1
9
$ORTHOMODE
70
0
9
$rEGENMODE
70
1
9
$FILLMODE
70
1
9
$DRAGMODE
70
2
9
$LTSCALE
40
25.0
9
$OSMODE
70
0
9
$ATTMODE
70
1
9
$TRACEWID
40
1.0
9
$TEXTSTYLE
7
STANDARD
9
$CLAYER
8
0
9
$CELTYPE
6
VONLAYER
9
$CECOLOR
62
256
9
$LUNITS
70
2
9
$LUPREC
70
2
9
$AXISMODE
70
0
9
$AXISUNIT
10
0
20
0
9
$SKETCHINC
40
1.0
9
$FILLETRAD
40
0.0
9
$AUNITS
70
0
9
$AUPREC
70
0
9
$MENU
1
ACAD
9
$ELEVATION
40
0.0
9
$THICKNESS
40
0.0
9
$VIEWDIR
10
0.0
20
0.0
30
1.0
9
$LIMCHECK
70
0
9
$BLIPMODE
70
1
9
$CHAMFERA
40
0.0
9
$CHAMFERB
40
0.0
9
$USRTIMER
70
1
9
$ANGBASE
50
0.0
9
$ANGDIR
70
0
9
$PDMODE
70
0
9
$PDSIZE
40
0.0
9
$PLINEWID
40
0.0
9
$COORDS
70
0
0
ENDSEC
0
SECTION
2
TABLES
0
TABLE
2
LTYPE
70
1
0
LTYPE
2
AUSGEZOGEN
70
64
3
Ausgezogene Linie
72
65
73
0
40
0.0
0
ENDTAB
0
TABLE
2
LAYER
70
1
0
LAYER
2
0
70
0
62
7
6
AUSGEZOGEN
0
ENDTAB
0
TABLE
2
STYLE
70
1
0
STYLE
2
STANDARD
70
0
40
0.0
41
1.0
50
0.0
71
0
42
3.5
3
txt
4

0
ENDTAB
0
TABLE
2
VIEW
70
0
0
ENDTAB
0
ENDSEC
0
SECTION
2
BLOCKS
0
ENDSEC
0
SECTION
2
ENTITIES
  0
ARC
  8
0
 10
 6.00000000000000E+0001
 20
 6.00000000000000E+0001
 40
 6.00000000000000E+0001
 50
 1.80000000000000E+0002
 51
 2.70000000000000E+0002
  0
LINE
  8
0
 10
 0.00000000000000E+0000
 20
 6.00000000000000E+0001
 11
 0.00000000000000E+0000
 21
 1.54000000000000E+0003
  0
ARC
  8
0
 10
 6.00000000000000E+0001
 20
 1.54000000000000E+0003
 40
 6.00000000000000E+0001
 50
 9.00000000000000E+0001
 51
 1.80000000000000E+0002
  0
LINE
  8
0
 10
 6.00000000000000E+0001
 20
 1.60000000000000E+0003
 11
 1.19000000000000E+0003
 21
 1.60000000000000E+0003
  0
ARC
  8
0
 10
 1.19000000000000E+0003
 20
 1.54000000000000E+0003
 40
 6.00000000000000E+0001
 50
 0.00000000000000E+0000
 51
 9.00000000000000E+0001
  0
LINE
  8
0
 10
 1.25000000000000E+0003
 20
 1.54000000000000E+0003
 11
 1.25000000000000E+0003
 21
 6.00000000000000E+0001
  0
ARC
  8
0
 10
 1.19000000000000E+0003
 20
 6.00000000000000E+0001
 40
 6.00000000000000E+0001
 50
 2.70000000000000E+0002
 51
 3.60000000000000E+0002
  0
LINE
  8
0
 10
 1.19000000000000E+0003
 20
 0.00000000000000E+0000
 11
 6.00000000000000E+0001
 21
 0.00000000000000E+0000
  0
ARC
  8
0
 10
 6.00000000000000E+0001
 20
 6.00000000000000E+0001
 40
 4.50000000000000E+0001
 50
 1.80000000000000E+0002
 51
 2.70000000000000E+0002
  0
LINE
  8
0
 10
 1.50000000000000E+0001
 20
 6.00000000000000E+0001
 11
 1.50000000000000E+0001
 21
 1.54000000000000E+0003
  0
ARC
  8
0
 10
 6.00000000000000E+0001
 20
 1.54000000000000E+0003
 40
 4.50000000000000E+0001
 50
 9.00000000000000E+0001
 51
 1.80000000000000E+0002
  0
LINE
  8
0
 10
 6.00000000000000E+0001
 20
 1.58500000000000E+0003
 11
 1.19000000000000E+0003
 21
 1.58500000000000E+0003
  0
ARC
  8
0
 10
 1.19000000000000E+0003
 20
 1.54000000000000E+0003
 40
 4.50000000000000E+0001
 50
 0.00000000000000E+0000
 51
 9.00000000000000E+0001
  0
LINE
  8
0
 10
 1.23500000000000E+0003
 20
 1.54000000000000E+0003
 11
 1.23500000000000E+0003
 21
 6.00000000000000E+0001
  0
ARC
  8
0
 10
 1.19000000000000E+0003
 20
 6.00000000000000E+0001
 40
 4.50000000000000E+0001
 50
 2.70000000000000E+0002
 51
 3.60000000000000E+0002
  0
LINE
  8
0
 10
 1.19000000000000E+0003
 20
 1.50000000000000E+0001
 11
 6.00000000000000E+0001
 21
 1.50000000000000E+0001
  0
ARC
  8
0
 10
 6.00000000000000E+0001
 20
 6.00000000000000E+0001
 40
 2.50000000000000E+0001
 50
 1.80000000000000E+0002
 51
 2.70000000000000E+0002
  0
LINE
  8
0
 10
 3.50000000000000E+0001
 20
 6.00000000000000E+0001
 11
 3.50000000000000E+0001
 21
 1.54000000000000E+0003
  0
ARC
  8
0
 10
 6.00000000000000E+0001
 20
 1.54000000000000E+0003
 40
 2.50000000000000E+0001
 50
 9.00000000000000E+0001
 51
 1.80000000000000E+0002
  0
LINE
  8
0
 10
 6.00000000000000E+0001
 20
 1.56500000000000E+0003
 11
 1.19000000000000E+0003
 21
 1.56500000000000E+0003
  0
ARC
  8
0
 10
 1.19000000000000E+0003
 20
 1.54000000000000E+0003
 40
 2.50000000000000E+0001
 50
 0.00000000000000E+0000
 51
 9.00000000000000E+0001
  0
LINE
  8
0
 10
 1.21500000000000E+0003
 20
 1.54000000000000E+0003
 11
 1.21500000000000E+0003
 21
 6.00000000000000E+0001
  0
ARC
  8
0
 10
 1.19000000000000E+0003
 20
 6.00000000000000E+0001
 40
 2.50000000000000E+0001
 50
 2.70000000000000E+0002
 51
 3.60000000000000E+0002
  0
LINE
  8
0
 10
 1.19000000000000E+0003
 20
 3.50000000000000E+0001
 11
 6.00000000000000E+0001
 21
 3.50000000000000E+0001
  0
LINE
  8
0
 10
 2.20000000000000E+0002
 20
 1.30700000000000E+0003
 11
 1.74999490553610E+0002
 21
 1.29538091843480E+0003
  0
ARC
  8
0
 10
 1.72000000000000E+0002
 20
 1.30700000000000E+0003
 40
 1.20000000000000E+0001
 50
 1.46195000000000E+0002
 51
 2.84475000000000E+0002
  0
LINE
  8
0
 10
 1.62028768958083E+0002
 20
 1.31367641756549E+0003
 11
 2.50000000000000E+0002
 21
 1.44500000000000E+0003
  0
LINE
  8
0
 10
 2.50000000000000E+0002
 20
 1.44500000000000E+0003
 11
 3.37971231041916E+0002
 21
 1.31367641756549E+0003
  0
ARC
  8
0
 10
 3.28000000000000E+0002
 20
 1.30700000000000E+0003
 40
 1.20000000000000E+0001
 50
 2.55525000000000E+0002
 51
 3.93805000000000E+0002
  0
LINE
  8
0
 10
 3.25000509446390E+0002
 20
 1.29538091843480E+0003
 11
 2.80000000000000E+0002
 21
 1.30700000000000E+0003
  0
LINE
  8
0
 10
 2.80000000000000E+0002
 20
 1.30700000000000E+0003
 11
 2.80000000000000E+0002
 21
 1.55000000000000E+0002
  0
LINE
  8
0
 10
 2.80000000000000E+0002
 20
 1.55000000000000E+0002
 11
 2.20000000000000E+0002
 21
 1.55000000000000E+0002
  0
LINE
  8
0
 10
 2.20000000000000E+0002
 20
 1.55000000000000E+0002
 11
 2.20000000000000E+0002
 21
 1.30700000000000E+0003
  0
LINE
  8
0
 10
 5.60000000000000E+0002
 20
 1.30700000000000E+0003
 11
 5.14999490553610E+0002
 21
 1.29538091843480E+0003
  0
ARC
  8
0
 10
 5.12000000000000E+0002
 20
 1.30700000000000E+0003
 40
 1.20000000000000E+0001
 50
 1.46195000000000E+0002
 51
 2.84475000000000E+0002
  0
LINE
  8
0
 10
 5.02028768958084E+0002
 20
 1.31367641756549E+0003
 11
 5.90000000000000E+0002
 21
 1.44500000000000E+0003
  0
LINE
  8
0
 10
 5.90000000000000E+0002
 20
 1.44500000000000E+0003
 11
 6.77971231041917E+0002
 21
 1.31367641756549E+0003
  0
ARC
  8
0
 10
 6.68000000000000E+0002
 20
 1.30700000000000E+0003
 40
 1.20000000000000E+0001
 50
 2.55525000000000E+0002
 51
 3.93805000000000E+0002
  0
LINE
  8
0
 10
 6.65000509446390E+0002
 20
 1.29538091843480E+0003
 11
 6.20000000000000E+0002
 21
 1.30700000000000E+0003
  0
LINE
  8
0
 10
 6.20000000000000E+0002
 20
 1.30700000000000E+0003
 11
 6.19990627553650E+0002
 21
 1.19542882912159E+0003
  0
ARC
  8
0
 10
 5.90000000000000E+0002
 20
 9.49400000000000E+0002
 40
 2.47850000000000E+0002
 50
 8.30500000000000E+0001
 51
 9.69500000000000E+0001
  0
LINE
  8
0
 10
 5.60009372446350E+0002
 20
 1.19542882912159E+0003
 11
 5.60000000000000E+0002
 21
 1.30700000000000E+0003
  0
LINE
  8
0
 10
 6.20000000000000E+0002
 20
 7.09078200000000E+0002
 11
 6.20000000000000E+0002
 21
 1.55000000000000E+0002
  0
LINE
  8
0
 10
 6.20000000000000E+0002
 20
 1.55000000000000E+0002
 11
 5.60000000000000E+0002
 21
 1.55000000000000E+0002
  0
LINE
  8
0
 10
 5.60000000000000E+0002
 20
 1.55000000000000E+0002
 11
 5.60009372446350E+0002
 21
 7.09071170878415E+0002
  0
ARC
  8
0
 10
 5.90000000000000E+0002
 20
 9.55100000000000E+0002
 40
 2.47850000000000E+0002
 50
 2.63050000000000E+0002
 51
 2.76950000000000E+0002
  0
LINE
  8
0
 10
 9.00000000000000E+0002
 20
 1.30700000000000E+0003
 11
 8.54999490553610E+0002
 21
 1.29538091843480E+0003
  0
ARC
  8
0
 10
 8.52000000000000E+0002
 20
 1.30700000000000E+0003
 40
 1.20000000000000E+0001
 50
 1.46195000000000E+0002
 51
 2.84475000000000E+0002
  0
LINE
  8
0
 10
 8.42028768958083E+0002
 20
 1.31367641756549E+0003
 11
 9.30000000000000E+0002
 21
 1.44500000000000E+0003
  0
LINE
  8
0
 10
 9.30000000000000E+0002
 20
 1.44500000000000E+0003
 11
 1.01797123104191E+0003
 21
 1.31367641756549E+0003
  0
ARC
  8
0
 10
 1.00800000000000E+0003
 20
 1.30700000000000E+0003
 40
 1.20000000000000E+0001
 50
 2.55525000000000E+0002
 51
 3.93805000000000E+0002
  0
LINE
  8
0
 10
 1.00500050944639E+0003
 20
 1.29538091843480E+0003
 11
 9.60000000000000E+0002
 21
 1.30700000000000E+0003
  0
LINE
  8
0
 10
 9.60000000000000E+0002
 20
 1.30700000000000E+0003
 11
 9.59990627553650E+0002
 21
 7.68178829121585E+0002
  0
ARC
  8
0
 10
 9.30000000000000E+0002
 20
 5.22150000000000E+0002
 40
 2.47850000000000E+0002
 50
 8.30500000000000E+0001
 51
 9.69500000000000E+0001
  0
LINE
  8
0
 10
 9.00009372446350E+0002
 20
 7.68178829121585E+0002
 11
 9.00000000000000E+0002
 21
 1.30700000000000E+0003
  0
LINE
  8
0
 10
 9.60000000000000E+0002
 20
 2.81828200000000E+0002
 11
 9.60000000000000E+0002
 21
 1.55000000000000E+0002
  0
LINE
  8
0
 10
 9.60000000000000E+0002
 20
 1.55000000000000E+0002
 11
 9.00000000000000E+0002
 21
 1.55000000000000E+0002
  0
LINE
  8
0
 10
 9.00000000000000E+0002
 20
 1.55000000000000E+0002
 11
 9.00009372446350E+0002
 21
 2.81821170878415E+0002
  0
ARC
  8
0
 10
 9.30000000000000E+0002
 20
 5.27850000000000E+0002
 40
 2.47850000000000E+0002
 50
 2.63050000000000E+0002
 51
 2.76950000000000E+0002
  0
CIRCLE
  8
0
 10
 5.90000000000000E+0002
 20
 9.52250000000000E+0002
 40
 2.32750000000000E+0002
  0
CIRCLE
  8
0
 10
 5.90000000000000E+0002
 20
 9.52250000000000E+0002
 40
 1.71500000000000E+0002
  0
LINE
  8
0
 10
 4.61375000000000E+0002
 20
 9.09375025000000E+0002
 11
 4.88208328571429E+0002
 21
 9.09375025000000E+0002
  0
LINE
  8
0
 10
 4.88208328571429E+0002
 20
 9.09375025000000E+0002
 11
 4.88208328571429E+0002
 21
 9.00989609821429E+0002
  0
ARC
  8
0
 10
 5.01624992857143E+0002
 20
 9.00989609821429E+0002
 40
 1.34166642857142E+0001
 50
 1.80000000000000E+0002
 51
 3.60000000000000E+0002
  0
LINE
  8
0
 10
 5.15041657142857E+0002
 20
 9.00989609821429E+0002
 11
 5.15041657142857E+0002
 21
 9.46270851785714E+0002
  0
ARC
  8
0
 10
 5.01624992857143E+0002
 20
 9.46270851785714E+0002
 40
 1.34166642857142E+0001
 50
 0.00000000000000E+0000
 51
 1.65963800000000E+0002
  0
LINE
  8
0
 10
 4.88608914154704E+0002
 20
 9.49524860969396E+0002
 11
 4.64729166071429E+0002
 21
 9.49625017857143E+0002
  0
LINE
  8
0
 10
 4.64729166071429E+0002
 20
 9.49625017857143E+0002
 11
 4.64729166071429E+0002
 21
 1.05025000000000E+0003
  0
LINE
  8
0
 10
 4.64729166071429E+0002
 20
 1.05025000000000E+0003
 11
 5.41874985714286E+0002
 21
 1.05025000000000E+0003
  0
LINE
  8
0
 10
 5.41874985714286E+0002
 20
 1.05025000000000E+0003
 11
 5.41874985714286E+0002
 21
 1.02509375446429E+0003
  0
LINE
  8
0
 10
 5.41874985714286E+0002
 20
 1.02509375446429E+0003
 11
 4.88208328571429E+0002
 21
 1.02509375446429E+0003
  0
LINE
  8
0
 10
 4.88208328571429E+0002
 20
 1.02509375446429E+0003
 11
 4.88208308741244E+0002
 21
 9.74540426499229E+0002
  0
ARC
  8
0
 10
 5.10010408035714E+0002
 20
 9.51302100892857E+0002
 40
 3.18645776785714E+0001
 50
 0.00000000000000E+0000
 51
 1.33173600000000E+0002
  0
LINE
  8
0
 10
 5.41874985714286E+0002
 20
 9.51302100892857E+0002
 11
 5.41874985714286E+0002
 21
 9.00989609821429E+0002
  0
ARC
  8
0
 10
 5.01624992857143E+0002
 20
 9.00989609821429E+0002
 40
 4.02499928571429E+0001
 50
 1.80000000000000E+0002
 51
 3.60000000000000E+0002
  0
LINE
  8
0
 10
 4.61375000000000E+0002
 20
 9.00989609821429E+0002
 11
 4.61375000000000E+0002
 21
 9.09375025000000E+0002
  0
LINE
  8
0
 10
 5.55291700000000E+0002
 20
 8.46666700000000E+0002
 11
 5.55291700000000E+0002
 21
 8.83416700000000E+0002
  0
LINE
  8
0
 10
 5.55291700000000E+0002
 20
 8.83416700000000E+0002
 11
 5.76291700000000E+0002
 21
 8.83416700000000E+0002
  0
LINE
  8
0
 10
 5.76291700000000E+0002
 20
 8.83416700000000E+0002
 11
 5.76291700000000E+0002
 21
 8.62416700000000E+0002
  0
LINE
  8
0
 10
 5.76291700000000E+0002
 20
 8.62416700000000E+0002
 11
 5.55291700000000E+0002
 21
 8.46666700000000E+0002
  0
LINE
  8
0
 10
 5.92041700000005E+0002
 20
 8.99166700000000E+0002
 11
 6.13041700000005E+0002
 21
 8.99166700000000E+0002
  0
LINE
  8
0
 10
 6.13041700000005E+0002
 20
 8.99166700000000E+0002
 11
 6.13041700000005E+0002
 21
 8.92604200000000E+0002
  0
ARC
  8
0
 10
 6.23541700000005E+0002
 20
 8.92604200000000E+0002
 40
 1.05000000000000E+0001
 50
 1.80000000000000E+0002
 51
 3.60000000000000E+0002
  0
LINE
  8
0
 10
 6.34041700000005E+0002
 20
 8.92604200000000E+0002
 11
 6.34041700000005E+0002
 21
 9.28041700000000E+0002
  0
ARC
  8
0
 10
 6.23541700000005E+0002
 20
 9.28041700000000E+0002
 40
 1.05000000000000E+0001
 50
 0.00000000000000E+0000
 51
 1.65963800000000E+0002
  0
LINE
  8
0
 10
 6.13355201816464E+0002
 20
 9.30588316334810E+0002
 11
 5.94666700000005E+0002
 21
 9.30666700000000E+0002
  0
LINE
  8
0
 10
 5.94666700000005E+0002
 20
 9.30666700000000E+0002
 11
 5.94666700000005E+0002
 21
 1.00941670000000E+0003
  0
LINE
  8
0
 10
 5.94666700000005E+0002
 20
 1.00941670000000E+0003
 11
 6.55041700000005E+0002
 21
 1.00941670000000E+0003
  0
LINE
  8
0
 10
 6.55041700000005E+0002
 20
 1.00941670000000E+0003
 11
 6.55041700000005E+0002
 21
 9.89729200000000E+0002
  0
LINE
  8
0
 10
 6.55041700000005E+0002
 20
 9.89729200000000E+0002
 11
 6.13041700000005E+0002
 21
 9.89729200000000E+0002
  0
LINE
  8
0
 10
 6.13041700000005E+0002
 20
 9.89729200000000E+0002
 11
 6.13041684480727E+0002
 21
 9.50165718919365E+0002
  0
ARC
  8
0
 10
 6.30104200000005E+0002
 20
 9.31979200000000E+0002
 40
 2.49375000000000E+0001
 50
 0.00000000000000E+0000
 51
 1.33173600000000E+0002
  0
LINE
  8
0
 10
 6.55041700000005E+0002
 20
 9.31979200000000E+0002
 11
 6.55041700000005E+0002
 21
 8.92604200000000E+0002
  0
ARC
  8
0
 10
 6.23541700000005E+0002
 20
 8.92604200000000E+0002
 40
 3.15000000000000E+0001
 50
 1.80000000000000E+0002
 51
 3.60000000000000E+0002
  0
LINE
  8
0
 10
 5.92041700000005E+0002
 20
 8.92604200000000E+0002
 11
 5.92041700000005E+0002
 21
 8.99166700000000E+0002
  0
LINE
  8
0
 10
 7.18041700000043E+0002
 20
 8.62416700000000E+0002
 11
 7.07541700000043E+0002
 21
 8.62416700000000E+0002
  0
ARC
  8
0
 10
 7.07541700000043E+0002
 20
 8.86041700000000E+0002
 40
 2.36250000000000E+0001
 50
 1.80000000000000E+0002
 51
 2.70000000000000E+0002
  0
LINE
  8
0
 10
 6.83916700000043E+0002
 20
 8.86041700000000E+0002
 11
 6.83916700000043E+0002
 21
 9.50354200000000E+0002
  0
LINE
  8
0
 10
 6.83916700000043E+0002
 20
 9.50354200000000E+0002
 11
 6.73416700000043E+0002
 21
 9.50354200000000E+0002
  0
LINE
  8
0
 10
 6.73416700000043E+0002
 20
 9.50354200000000E+0002
 11
 6.73416700000043E+0002
 21
 9.67416700000000E+0002
  0
LINE
  8
0
 10
 6.73416700000043E+0002
 20
 9.67416700000000E+0002
 11
 6.83916700000043E+0002
 21
 9.67416700000000E+0002
  0
LINE
  8
0
 10
 6.83916700000043E+0002
 20
 9.67416700000000E+0002
 11
 6.83916700000043E+0002
 21
 9.98916700000000E+0002
  0
LINE
  8
0
 10
 6.83916700000043E+0002
 20
 9.98916700000000E+0002
 11
 7.04916700000043E+0002
 21
 9.98916700000000E+0002
  0
LINE
  8
0
 10
 7.04916700000043E+0002
 20
 9.98916700000000E+0002
 11
 7.04916700000043E+0002
 21
 9.67416700000000E+0002
  0
LINE
  8
0
 10
 7.04916700000043E+0002
 20
 9.67416700000000E+0002
 11
 7.18041700000043E+0002
 21
 9.67416700000000E+0002
  0
LINE
  8
0
 10
 7.18041700000043E+0002
 20
 9.67416700000000E+0002
 11
 7.18041700000043E+0002
 21
 9.50354200000000E+0002
  0
LINE
  8
0
 10
 7.18041700000043E+0002
 20
 9.50354200000000E+0002
 11
 7.04916700000043E+0002
 21
 9.50354200000000E+0002
  0
LINE
  8
0
 10
 7.04916700000043E+0002
 20
 9.50354200000000E+0002
 11
 7.04916700000043E+0002
 21
 8.88666700000000E+0002
  0
ARC
  8
0
 10
 7.11479200000043E+0002
 20
 8.88666700000000E+0002
 40
 6.56250000000000E+0000
 50
 1.80000000000000E+0002
 51
 2.70000000000000E+0002
  0
LINE
  8
0
 10
 7.11479200000043E+0002
 20
 8.82104200000000E+0002
 11
 7.18041700000043E+0002
 21
 8.82104200000000E+0002
  0
LINE
  8
0
 10
 7.18041700000043E+0002
 20
 8.82104200000000E+0002
 11
 7.18041700000043E+0002
 21
 8.62416700000000E+0002
  0
CIRCLE
  8
0
 10
 9.30000000000000E+0002
 20
 5.25000000000000E+0002
 40
 2.32750000000000E+0002
  0
CIRCLE
  8
0
 10
 9.30000000000000E+0002
 20
 5.25000000000000E+0002
 40
 1.71500000000000E+0002
  0
LINE
  8
0
 10
 8.01375000000000E+0002
 20
 4.82125025000000E+0002
 11
 8.28208328571429E+0002
 21
 4.82125025000000E+0002
  0
LINE
  8
0
 10
 8.28208328571429E+0002
 20
 4.82125025000000E+0002
 11
 8.28208328571429E+0002
 21
 4.73739609821429E+0002
  0
ARC
  8
0
 10
 8.41624992857143E+0002
 20
 4.73739609821429E+0002
 40
 1.34166642857142E+0001
 50
 1.80000000000000E+0002
 51
 3.60000000000000E+0002
  0
LINE
  8
0
 10
 8.55041657142857E+0002
 20
 4.73739609821429E+0002
 11
 8.55041657142857E+0002
 21
 5.19020851785714E+0002
  0
ARC
  8
0
 10
 8.41624992857143E+0002
 20
 5.19020851785714E+0002
 40
 1.34166642857142E+0001
 50
 0.00000000000000E+0000
 51
 1.65963800000000E+0002
  0
LINE
  8
0
 10
 8.28608914154704E+0002
 20
 5.22274860969396E+0002
 11
 8.04729166071429E+0002
 21
 5.22375017857143E+0002
  0
LINE
  8
0
 10
 8.04729166071429E+0002
 20
 5.22375017857143E+0002
 11
 8.04729166071429E+0002
 21
 6.23000000000000E+0002
  0
LINE
  8
0
 10
 8.04729166071429E+0002
 20
 6.23000000000000E+0002
 11
 8.81874985714286E+0002
 21
 6.23000000000000E+0002
  0
LINE
  8
0
 10
 8.81874985714286E+0002
 20
 6.23000000000000E+0002
 11
 8.81874985714286E+0002
 21
 5.97843754464286E+0002
  0
LINE
  8
0
 10
 8.81874985714286E+0002
 20
 5.97843754464286E+0002
 11
 8.28208328571429E+0002
 21
 5.97843754464286E+0002
  0
LINE
  8
0
 10
 8.28208328571429E+0002
 20
 5.97843754464286E+0002
 11
 8.28208308741244E+0002
 21
 5.47290426499229E+0002
  0
ARC
  8
0
 10
 8.50010408035714E+0002
 20
 5.24052100892857E+0002
 40
 3.18645776785714E+0001
 50
 0.00000000000000E+0000
 51
 1.33173600000000E+0002
  0
LINE
  8
0
 10
 8.81874985714286E+0002
 20
 5.24052100892857E+0002
 11
 8.81874985714286E+0002
 21
 4.73739609821429E+0002
  0
ARC
  8
0
 10
 8.41624992857143E+0002
 20
 4.73739609821429E+0002
 40
 4.02499928571429E+0001
 50
 1.80000000000000E+0002
 51
 3.60000000000000E+0002
  0
LINE
  8
0
 10
 8.01375000000000E+0002
 20
 4.73739609821429E+0002
 11
 8.01375000000000E+0002
 21
 4.82125025000000E+0002
  0
LINE
  8
0
 10
 8.95291700000000E+0002
 20
 4.19416700000000E+0002
 11
 8.95291700000000E+0002
 21
 4.56166700000000E+0002
  0
LINE
  8
0
 10
 8.95291700000000E+0002
 20
 4.56166700000000E+0002
 11
 9.16291700000000E+0002
 21
 4.56166700000000E+0002
  0
LINE
  8
0
 10
 9.16291700000000E+0002
 20
 4.56166700000000E+0002
 11
 9.16291700000000E+0002
 21
 4.35166700000000E+0002
  0
LINE
  8
0
 10
 9.16291700000000E+0002
 20
 4.35166700000000E+0002
 11
 8.95291700000000E+0002
 21
 4.19416700000000E+0002
  0
LINE
  8
0
 10
 9.32041700000005E+0002
 20
 4.71916700000000E+0002
 11
 9.53041700000005E+0002
 21
 4.71916700000000E+0002
  0
LINE
  8
0
 10
 9.53041700000005E+0002
 20
 4.71916700000000E+0002
 11
 9.53041700000005E+0002
 21
 4.65354200000000E+0002
  0
ARC
  8
0
 10
 9.63541700000005E+0002
 20
 4.65354200000000E+0002
 40
 1.05000000000000E+0001
 50
 1.80000000000000E+0002
 51
 3.60000000000000E+0002
  0
LINE
  8
0
 10
 9.74041700000005E+0002
 20
 4.65354200000000E+0002
 11
 9.74041700000005E+0002
 21
 5.00791700000000E+0002
  0
ARC
  8
0
 10
 9.63541700000005E+0002
 20
 5.00791700000000E+0002
 40
 1.05000000000000E+0001
 50
 0.00000000000000E+0000
 51
 1.65963800000000E+0002
  0
LINE
  8
0
 10
 9.53355201816464E+0002
 20
 5.03338316334809E+0002
 11
 9.34666700000005E+0002
 21
 5.03416700000000E+0002
  0
LINE
  8
0
 10
 9.34666700000005E+0002
 20
 5.03416700000000E+0002
 11
 9.34666700000005E+0002
 21
 5.82166700000000E+0002
  0
LINE
  8
0
 10
 9.34666700000005E+0002
 20
 5.82166700000000E+0002
 11
 9.95041700000005E+0002
 21
 5.82166700000000E+0002
  0
LINE
  8
0
 10
 9.95041700000005E+0002
 20
 5.82166700000000E+0002
 11
 9.95041700000005E+0002
 21
 5.62479200000000E+0002
  0
LINE
  8
0
 10
 9.95041700000005E+0002
 20
 5.62479200000000E+0002
 11
 9.53041700000005E+0002
 21
 5.62479200000000E+0002
  0
LINE
  8
0
 10
 9.53041700000005E+0002
 20
 5.62479200000000E+0002
 11
 9.53041684480727E+0002
 21
 5.22915718919365E+0002
  0
ARC
  8
0
 10
 9.70104200000005E+0002
 20
 5.04729200000000E+0002
 40
 2.49375000000000E+0001
 50
 0.00000000000000E+0000
 51
 1.33173600000000E+0002
  0
LINE
  8
0
 10
 9.95041700000005E+0002
 20
 5.04729200000000E+0002
 11
 9.95041700000005E+0002
 21
 4.65354200000000E+0002
  0
ARC
  8
0
 10
 9.63541700000005E+0002
 20
 4.65354200000000E+0002
 40
 3.15000000000000E+0001
 50
 1.80000000000000E+0002
 51
 3.60000000000000E+0002
  0
LINE
  8
0
 10
 9.32041700000005E+0002
 20
 4.65354200000000E+0002
 11
 9.32041700000005E+0002
 21
 4.71916700000000E+0002
  0
LINE
  8
0
 10
 1.05804170000004E+0003
 20
 4.35166700000000E+0002
 11
 1.04754170000004E+0003
 21
 4.35166700000000E+0002
  0
ARC
  8
0
 10
 1.04754170000004E+0003
 20
 4.58791700000000E+0002
 40
 2.36250000000000E+0001
 50
 1.80000000000000E+0002
 51
 2.70000000000000E+0002
  0
LINE
  8
0
 10
 1.02391670000004E+0003
 20
 4.58791700000000E+0002
 11
 1.02391670000004E+0003
 21
 5.23104200000000E+0002
  0
LINE
  8
0
 10
 1.02391670000004E+0003
 20
 5.23104200000000E+0002
 11
 1.01341670000004E+0003
 21
 5.23104200000000E+0002
  0
LINE
  8
0
 10
 1.01341670000004E+0003
 20
 5.23104200000000E+0002
 11
 1.01341670000004E+0003
 21
 5.40166700000000E+0002
  0
LINE
  8
0
 10
 1.01341670000004E+0003
 20
 5.40166700000000E+0002
 11
 1.02391670000004E+0003
 21
 5.40166700000000E+0002
  0
LINE
  8
0
 10
 1.02391670000004E+0003
 20
 5.40166700000000E+0002
 11
 1.02391670000004E+0003
 21
 5.71666700000000E+0002
  0
LINE
  8
0
 10
 1.02391670000004E+0003
 20
 5.71666700000000E+0002
 11
 1.04491670000004E+0003
 21
 5.71666700000000E+0002
  0
LINE
  8
0
 10
 1.04491670000004E+0003
 20
 5.71666700000000E+0002
 11
 1.04491670000004E+0003
 21
 5.40166700000000E+0002
  0
LINE
  8
0
 10
 1.04491670000004E+0003
 20
 5.40166700000000E+0002
 11
 1.05804170000004E+0003
 21
 5.40166700000000E+0002
  0
LINE
  8
0
 10
 1.05804170000004E+0003
 20
 5.40166700000000E+0002
 11
 1.05804170000004E+0003
 21
 5.23104200000000E+0002
  0
LINE
  8
0
 10
 1.05804170000004E+0003
 20
 5.23104200000000E+0002
 11
 1.04491670000004E+0003
 21
 5.23104200000000E+0002
  0
LINE
  8
0
 10
 1.04491670000004E+0003
 20
 5.23104200000000E+0002
 11
 1.04491670000004E+0003
 21
 4.61416700000000E+0002
  0
ARC
  8
0
 10
 1.05147920000004E+0003
 20
 4.61416700000000E+0002
 40
 6.56250000000000E+0000
 50
 1.80000000000000E+0002
 51
 2.70000000000000E+0002
  0
LINE
  8
0
 10
 1.05147920000004E+0003
 20
 4.54854200000000E+0002
 11
 1.05804170000004E+0003
 21
 4.54854200000000E+0002
  0
LINE
  8
0
 10
 1.05804170000004E+0003
 20
 4.54854200000000E+0002
 11
 1.05804170000004E+0003
 21
 4.35166700000000E+0002
  0
ENDSEC
  0
EOF
