  0
SECTION
  2
HEADER
  9
$ACADVER
  1
AC1003
  9
$INSBASE
 10
0.0
 20
0.0
  9
$EXTMIN
 10
 0.00000000000000E+0000
 20
 0.00000000000000E+0000
  9
$EXTMAX
 10
 1.25000000000000E+0003
 20
 1.60000000000000E+0003
  9
$LIMMIN
 10
0.0
 20
0.0
  9
$LIMMAX
 10
410.0
 20
287.0
  9
$VIEWCTR
 10
227.0059616
 20
165.058879 
  9
$VIEWSIZE
 40
 1.60000000000000E+0003
9
$SNAPMODE
70
0
9
$SNAPUNIT
10
1
20
1
9
$GRIDMODE
70
0
9
$GRIDUNIT
10
1
20
1
9
$ORTHOMODE
70
0
9
$rEGENMODE
70
1
9
$FILLMODE
70
1
9
$DRAGMODE
70
2
9
$LTSCALE
40
25.0
9
$OSMODE
70
0
9
$ATTMODE
70
1
9
$TRACEWID
40
1.0
9
$TEXTSTYLE
7
STANDARD
9
$CLAYER
8
0
9
$CELTYPE
6
VONLAYER
9
$CECOLOR
62
256
9
$LUNITS
70
2
9
$LUPREC
70
2
9
$AXISMODE
70
0
9
$AXISUNIT
10
0
20
0
9
$SKETCHINC
40
1.0
9
$FILLETRAD
40
0.0
9
$AUNITS
70
0
9
$AUPREC
70
0
9
$MENU
1
ACAD
9
$ELEVATION
40
0.0
9
$THICKNESS
40
0.0
9
$VIEWDIR
10
0.0
20
0.0
30
1.0
9
$LIMCHECK
70
0
9
$BLIPMODE
70
1
9
$CHAMFERA
40
0.0
9
$CHAMFERB
40
0.0
9
$USRTIMER
70
1
9
$ANGBASE
50
0.0
9
$ANGDIR
70
0
9
$PDMODE
70
0
9
$PDSIZE
40
0.0
9
$PLINEWID
40
0.0
9
$COORDS
70
0
0
ENDSEC
0
SECTION
2
TABLES
0
TABLE
2
LTYPE
70
1
0
LTYPE
2
AUSGEZOGEN
70
64
3
Ausgezogene Linie
72
65
73
0
40
0.0
0
ENDTAB
0
TABLE
2
LAYER
70
1
0
LAYER
2
0
70
0
62
7
6
AUSGEZOGEN
0
ENDTAB
0
TABLE
2
STYLE
70
1
0
STYLE
2
STANDARD
70
0
40
0.0
41
1.0
50
0.0
71
0
42
3.5
3
txt
4

0
ENDTAB
0
TABLE
2
VIEW
70
0
0
ENDTAB
0
ENDSEC
0
SECTION
2
BLOCKS
0
ENDSEC
0
SECTION
2
ENTITIES
  0
ARC
  8
0
 10
 6.00000000000000E+0001
 20
 6.00000000000000E+0001
 40
 6.00000000000000E+0001
 50
 1.80000000000000E+0002
 51
 2.70000000000000E+0002
  0
LINE
  8
0
 10
 0.00000000000000E+0000
 20
 6.00000000000000E+0001
 11
 0.00000000000000E+0000
 21
 1.54000000000000E+0003
  0
ARC
  8
0
 10
 6.00000000000000E+0001
 20
 1.54000000000000E+0003
 40
 6.00000000000000E+0001
 50
 9.00000000000000E+0001
 51
 1.80000000000000E+0002
  0
LINE
  8
0
 10
 6.00000000000000E+0001
 20
 1.60000000000000E+0003
 11
 1.19000000000000E+0003
 21
 1.60000000000000E+0003
  0
ARC
  8
0
 10
 1.19000000000000E+0003
 20
 1.54000000000000E+0003
 40
 6.00000000000000E+0001
 50
 0.00000000000000E+0000
 51
 9.00000000000000E+0001
  0
LINE
  8
0
 10
 1.25000000000000E+0003
 20
 1.54000000000000E+0003
 11
 1.25000000000000E+0003
 21
 6.00000000000000E+0001
  0
ARC
  8
0
 10
 1.19000000000000E+0003
 20
 6.00000000000000E+0001
 40
 6.00000000000000E+0001
 50
 2.70000000000000E+0002
 51
 3.60000000000000E+0002
  0
LINE
  8
0
 10
 1.19000000000000E+0003
 20
 0.00000000000000E+0000
 11
 6.00000000000000E+0001
 21
 0.00000000000000E+0000
  0
ARC
  8
0
 10
 6.00000000000000E+0001
 20
 6.00000000000000E+0001
 40
 4.50000000000000E+0001
 50
 1.80000000000000E+0002
 51
 2.70000000000000E+0002
  0
LINE
  8
0
 10
 1.50000000000000E+0001
 20
 6.00000000000000E+0001
 11
 1.50000000000000E+0001
 21
 1.54000000000000E+0003
  0
ARC
  8
0
 10
 6.00000000000000E+0001
 20
 1.54000000000000E+0003
 40
 4.50000000000000E+0001
 50
 9.00000000000000E+0001
 51
 1.80000000000000E+0002
  0
LINE
  8
0
 10
 6.00000000000000E+0001
 20
 1.58500000000000E+0003
 11
 1.19000000000000E+0003
 21
 1.58500000000000E+0003
  0
ARC
  8
0
 10
 1.19000000000000E+0003
 20
 1.54000000000000E+0003
 40
 4.50000000000000E+0001
 50
 0.00000000000000E+0000
 51
 9.00000000000000E+0001
  0
LINE
  8
0
 10
 1.23500000000000E+0003
 20
 1.54000000000000E+0003
 11
 1.23500000000000E+0003
 21
 6.00000000000000E+0001
  0
ARC
  8
0
 10
 1.19000000000000E+0003
 20
 6.00000000000000E+0001
 40
 4.50000000000000E+0001
 50
 2.70000000000000E+0002
 51
 3.60000000000000E+0002
  0
LINE
  8
0
 10
 1.19000000000000E+0003
 20
 1.50000000000000E+0001
 11
 6.00000000000000E+0001
 21
 1.50000000000000E+0001
  0
ARC
  8
0
 10
 6.00000000000000E+0001
 20
 6.00000000000000E+0001
 40
 2.50000000000000E+0001
 50
 1.80000000000000E+0002
 51
 2.70000000000000E+0002
  0
LINE
  8
0
 10
 3.50000000000000E+0001
 20
 6.00000000000000E+0001
 11
 3.50000000000000E+0001
 21
 1.54000000000000E+0003
  0
ARC
  8
0
 10
 6.00000000000000E+0001
 20
 1.54000000000000E+0003
 40
 2.50000000000000E+0001
 50
 9.00000000000000E+0001
 51
 1.80000000000000E+0002
  0
LINE
  8
0
 10
 6.00000000000000E+0001
 20
 1.56500000000000E+0003
 11
 1.19000000000000E+0003
 21
 1.56500000000000E+0003
  0
ARC
  8
0
 10
 1.19000000000000E+0003
 20
 1.54000000000000E+0003
 40
 2.50000000000000E+0001
 50
 0.00000000000000E+0000
 51
 9.00000000000000E+0001
  0
LINE
  8
0
 10
 1.21500000000000E+0003
 20
 1.54000000000000E+0003
 11
 1.21500000000000E+0003
 21
 6.00000000000000E+0001
  0
ARC
  8
0
 10
 1.19000000000000E+0003
 20
 6.00000000000000E+0001
 40
 2.50000000000000E+0001
 50
 2.70000000000000E+0002
 51
 3.60000000000000E+0002
  0
LINE
  8
0
 10
 1.19000000000000E+0003
 20
 3.50000000000000E+0001
 11
 6.00000000000000E+0001
 21
 3.50000000000000E+0001
  0
LINE
  8
0
 10
 3.70000000000000E+0002
 20
 1.30700000000000E+0003
 11
 3.24978192449691E+0002
 21
 1.29537544109514E+0003
  0
ARC
  8
0
 10
 3.22000000000000E+0002
 20
 1.30700000000000E+0003
 40
 1.20000000000000E+0001
 50
 1.46195000000000E+0002
 51
 2.84370000000000E+0002
  0
LINE
  8
0
 10
 3.12028768958084E+0002
 20
 1.31367641756549E+0003
 11
 4.00000000000000E+0002
 21
 1.44500000000000E+0003
  0
LINE
  8
0
 10
 4.00000000000000E+0002
 20
 1.44500000000000E+0003
 11
 4.87970648376606E+0002
 21
 1.31367728769412E+0003
  0
ARC
  8
0
 10
 4.78000000000000E+0002
 20
 1.30700000000000E+0003
 40
 1.20000000000000E+0001
 50
 2.55635000000000E+0002
 51
 3.93810000000000E+0002
  0
LINE
  8
0
 10
 4.75022821995783E+0002
 20
 1.29537518124308E+0003
 11
 4.30000000000000E+0002
 21
 1.30700000000000E+0003
  0
LINE
  8
0
 10
 4.30000000000000E+0002
 20
 1.30700000000000E+0003
 11
 4.30000000000000E+0002
 21
 1.55000000000000E+0002
  0
LINE
  8
0
 10
 4.30000000000000E+0002
 20
 1.55000000000000E+0002
 11
 3.70000000000000E+0002
 21
 1.55000000000000E+0002
  0
LINE
  8
0
 10
 3.70000000000000E+0002
 20
 1.55000000000000E+0002
 11
 3.70000000000000E+0002
 21
 1.30700000000000E+0003
  0
LINE
  8
0
 10
 7.95000000000000E+0002
 20
 1.30700000000000E+0003
 11
 7.49999490553610E+0002
 21
 1.29538091843480E+0003
  0
ARC
  8
0
 10
 7.47000000000000E+0002
 20
 1.30700000000000E+0003
 40
 1.20000000000000E+0001
 50
 1.46195000000000E+0002
 51
 2.84475000000000E+0002
  0
LINE
  8
0
 10
 7.37028768958083E+0002
 20
 1.31367641756549E+0003
 11
 8.25000000000000E+0002
 21
 1.44500000000000E+0003
  0
LINE
  8
0
 10
 8.25000000000000E+0002
 20
 1.44500000000000E+0003
 11
 9.12971231041917E+0002
 21
 1.31367641756549E+0003
  0
ARC
  8
0
 10
 9.03000000000000E+0002
 20
 1.30700000000000E+0003
 40
 1.20000000000000E+0001
 50
 2.55525000000000E+0002
 51
 3.93805000000000E+0002
  0
LINE
  8
0
 10
 9.00000509446390E+0002
 20
 1.29538091843480E+0003
 11
 8.55000000000000E+0002
 21
 1.30700000000000E+0003
  0
LINE
  8
0
 10
 8.55000000000000E+0002
 20
 1.30700000000000E+0003
 11
 8.54990627553650E+0002
 21
 1.04317882912159E+0003
  0
ARC
  8
0
 10
 8.25000000000000E+0002
 20
 7.97150000000000E+0002
 40
 2.47850000000000E+0002
 50
 8.30500000000000E+0001
 51
 9.69500000000000E+0001
  0
LINE
  8
0
 10
 7.95009372446350E+0002
 20
 1.04317882912159E+0003
 11
 7.95000000000000E+0002
 21
 1.30700000000000E+0003
  0
LINE
  8
0
 10
 8.55000000000000E+0002
 20
 5.56828200000000E+0002
 11
 8.55000000000000E+0002
 21
 1.55000000000000E+0002
  0
LINE
  8
0
 10
 8.55000000000000E+0002
 20
 1.55000000000000E+0002
 11
 7.95000000000000E+0002
 21
 1.55000000000000E+0002
  0
LINE
  8
0
 10
 7.95000000000000E+0002
 20
 1.55000000000000E+0002
 11
 7.95009372446350E+0002
 21
 5.56821170878415E+0002
  0
ARC
  8
0
 10
 8.25000000000000E+0002
 20
 8.02850000000000E+0002
 40
 2.47850000000000E+0002
 50
 2.63050000000000E+0002
 51
 2.76950000000000E+0002
  0
CIRCLE
  8
0
 10
 8.25000000000000E+0002
 20
 8.00000000000000E+0002
 40
 2.32750000000000E+0002
  0
CIRCLE
  8
0
 10
 8.25000000000000E+0002
 20
 8.00000000000000E+0002
 40
 1.71500000000000E+0002
  0
LINE
  8
0
 10
 6.96375000000000E+0002
 20
 7.57125025000000E+0002
 11
 7.23208328571429E+0002
 21
 7.57125025000000E+0002
  0
LINE
  8
0
 10
 7.23208328571429E+0002
 20
 7.57125025000000E+0002
 11
 7.23208328571429E+0002
 21
 7.48739609821429E+0002
  0
ARC
  8
0
 10
 7.36624992857143E+0002
 20
 7.48739609821429E+0002
 40
 1.34166642857142E+0001
 50
 1.80000000000000E+0002
 51
 3.60000000000000E+0002
  0
LINE
  8
0
 10
 7.50041657142857E+0002
 20
 7.48739609821429E+0002
 11
 7.50041657142857E+0002
 21
 7.94020851785714E+0002
  0
ARC
  8
0
 10
 7.36624992857143E+0002
 20
 7.94020851785714E+0002
 40
 1.34166642857142E+0001
 50
 0.00000000000000E+0000
 51
 1.65963800000000E+0002
  0
LINE
  8
0
 10
 7.23608914154704E+0002
 20
 7.97274860969396E+0002
 11
 6.99729166071429E+0002
 21
 7.97375017857143E+0002
  0
LINE
  8
0
 10
 6.99729166071429E+0002
 20
 7.97375017857143E+0002
 11
 6.99729166071429E+0002
 21
 8.98000000000000E+0002
  0
LINE
  8
0
 10
 6.99729166071429E+0002
 20
 8.98000000000000E+0002
 11
 7.76874985714286E+0002
 21
 8.98000000000000E+0002
  0
LINE
  8
0
 10
 7.76874985714286E+0002
 20
 8.98000000000000E+0002
 11
 7.76874985714286E+0002
 21
 8.72843754464286E+0002
  0
LINE
  8
0
 10
 7.76874985714286E+0002
 20
 8.72843754464286E+0002
 11
 7.23208328571429E+0002
 21
 8.72843754464286E+0002
  0
LINE
  8
0
 10
 7.23208328571429E+0002
 20
 8.72843754464286E+0002
 11
 7.23208308741244E+0002
 21
 8.22290426499229E+0002
  0
ARC
  8
0
 10
 7.45010408035714E+0002
 20
 7.99052100892857E+0002
 40
 3.18645776785714E+0001
 50
 0.00000000000000E+0000
 51
 1.33173600000000E+0002
  0
LINE
  8
0
 10
 7.76874985714286E+0002
 20
 7.99052100892857E+0002
 11
 7.76874985714286E+0002
 21
 7.48739609821429E+0002
  0
ARC
  8
0
 10
 7.36624992857143E+0002
 20
 7.48739609821429E+0002
 40
 4.02499928571429E+0001
 50
 1.80000000000000E+0002
 51
 3.60000000000000E+0002
  0
LINE
  8
0
 10
 6.96375000000000E+0002
 20
 7.48739609821429E+0002
 11
 6.96375000000000E+0002
 21
 7.57125025000000E+0002
  0
LINE
  8
0
 10
 7.90291700000000E+0002
 20
 6.94416700000000E+0002
 11
 7.90291700000000E+0002
 21
 7.31166700000000E+0002
  0
LINE
  8
0
 10
 7.90291700000000E+0002
 20
 7.31166700000000E+0002
 11
 8.11291700000000E+0002
 21
 7.31166700000000E+0002
  0
LINE
  8
0
 10
 8.11291700000000E+0002
 20
 7.31166700000000E+0002
 11
 8.11291700000000E+0002
 21
 7.10166700000000E+0002
  0
LINE
  8
0
 10
 8.11291700000000E+0002
 20
 7.10166700000000E+0002
 11
 7.90291700000000E+0002
 21
 6.94416700000000E+0002
  0
LINE
  8
0
 10
 8.27041700000005E+0002
 20
 7.46916700000000E+0002
 11
 8.48041700000005E+0002
 21
 7.46916700000000E+0002
  0
LINE
  8
0
 10
 8.48041700000005E+0002
 20
 7.46916700000000E+0002
 11
 8.48041700000005E+0002
 21
 7.40354200000000E+0002
  0
ARC
  8
0
 10
 8.58541700000005E+0002
 20
 7.40354200000000E+0002
 40
 1.05000000000000E+0001
 50
 1.80000000000000E+0002
 51
 3.60000000000000E+0002
  0
LINE
  8
0
 10
 8.69041700000005E+0002
 20
 7.40354200000000E+0002
 11
 8.69041700000005E+0002
 21
 7.75791700000000E+0002
  0
ARC
  8
0
 10
 8.58541700000005E+0002
 20
 7.75791700000000E+0002
 40
 1.05000000000000E+0001
 50
 0.00000000000000E+0000
 51
 1.65963800000000E+0002
  0
LINE
  8
0
 10
 8.48355201816464E+0002
 20
 7.78338316334810E+0002
 11
 8.29666700000005E+0002
 21
 7.78416700000000E+0002
  0
LINE
  8
0
 10
 8.29666700000005E+0002
 20
 7.78416700000000E+0002
 11
 8.29666700000005E+0002
 21
 8.57166700000000E+0002
  0
LINE
  8
0
 10
 8.29666700000005E+0002
 20
 8.57166700000000E+0002
 11
 8.90041700000005E+0002
 21
 8.57166700000000E+0002
  0
LINE
  8
0
 10
 8.90041700000005E+0002
 20
 8.57166700000000E+0002
 11
 8.90041700000005E+0002
 21
 8.37479200000000E+0002
  0
LINE
  8
0
 10
 8.90041700000005E+0002
 20
 8.37479200000000E+0002
 11
 8.48041700000005E+0002
 21
 8.37479200000000E+0002
  0
LINE
  8
0
 10
 8.48041700000005E+0002
 20
 8.37479200000000E+0002
 11
 8.48041684480727E+0002
 21
 7.97915718919365E+0002
  0
ARC
  8
0
 10
 8.65104200000005E+0002
 20
 7.79729200000000E+0002
 40
 2.49375000000000E+0001
 50
 0.00000000000000E+0000
 51
 1.33173600000000E+0002
  0
LINE
  8
0
 10
 8.90041700000005E+0002
 20
 7.79729200000000E+0002
 11
 8.90041700000005E+0002
 21
 7.40354200000000E+0002
  0
ARC
  8
0
 10
 8.58541700000005E+0002
 20
 7.40354200000000E+0002
 40
 3.15000000000000E+0001
 50
 1.80000000000000E+0002
 51
 3.60000000000000E+0002
  0
LINE
  8
0
 10
 8.27041700000005E+0002
 20
 7.40354200000000E+0002
 11
 8.27041700000005E+0002
 21
 7.46916700000000E+0002
  0
LINE
  8
0
 10
 9.53041700000043E+0002
 20
 7.10166700000000E+0002
 11
 9.42541700000043E+0002
 21
 7.10166700000000E+0002
  0
ARC
  8
0
 10
 9.42541700000043E+0002
 20
 7.33791700000000E+0002
 40
 2.36250000000000E+0001
 50
 1.80000000000000E+0002
 51
 2.70000000000000E+0002
  0
LINE
  8
0
 10
 9.18916700000043E+0002
 20
 7.33791700000000E+0002
 11
 9.18916700000043E+0002
 21
 7.98104200000000E+0002
  0
LINE
  8
0
 10
 9.18916700000043E+0002
 20
 7.98104200000000E+0002
 11
 9.08416700000043E+0002
 21
 7.98104200000000E+0002
  0
LINE
  8
0
 10
 9.08416700000043E+0002
 20
 7.98104200000000E+0002
 11
 9.08416700000043E+0002
 21
 8.15166700000000E+0002
  0
LINE
  8
0
 10
 9.08416700000043E+0002
 20
 8.15166700000000E+0002
 11
 9.18916700000043E+0002
 21
 8.15166700000000E+0002
  0
LINE
  8
0
 10
 9.18916700000043E+0002
 20
 8.15166700000000E+0002
 11
 9.18916700000043E+0002
 21
 8.46666700000000E+0002
  0
LINE
  8
0
 10
 9.18916700000043E+0002
 20
 8.46666700000000E+0002
 11
 9.39916700000043E+0002
 21
 8.46666700000000E+0002
  0
LINE
  8
0
 10
 9.39916700000043E+0002
 20
 8.46666700000000E+0002
 11
 9.39916700000043E+0002
 21
 8.15166700000000E+0002
  0
LINE
  8
0
 10
 9.39916700000043E+0002
 20
 8.15166700000000E+0002
 11
 9.53041700000043E+0002
 21
 8.15166700000000E+0002
  0
LINE
  8
0
 10
 9.53041700000043E+0002
 20
 8.15166700000000E+0002
 11
 9.53041700000043E+0002
 21
 7.98104200000000E+0002
  0
LINE
  8
0
 10
 9.53041700000043E+0002
 20
 7.98104200000000E+0002
 11
 9.39916700000043E+0002
 21
 7.98104200000000E+0002
  0
LINE
  8
0
 10
 9.39916700000043E+0002
 20
 7.98104200000000E+0002
 11
 9.39916700000043E+0002
 21
 7.36416700000000E+0002
  0
ARC
  8
0
 10
 9.46479200000043E+0002
 20
 7.36416700000000E+0002
 40
 6.56250000000000E+0000
 50
 1.80000000000000E+0002
 51
 2.70000000000000E+0002
  0
LINE
  8
0
 10
 9.46479200000043E+0002
 20
 7.29854200000000E+0002
 11
 9.53041700000043E+0002
 21
 7.29854200000000E+0002
  0
LINE
  8
0
 10
 9.53041700000043E+0002
 20
 7.29854200000000E+0002
 11
 9.53041700000043E+0002
 21
 7.10166700000000E+0002
  0
ENDSEC
  0
EOF
