  0
SECTION
  2
HEADER
  9
$ACADVER
  1
AC1003
  9
$INSBASE
 10
0.0
 20
0.0
  9
$EXTMIN
 10
 0.00000000000000E+0000
 20
 0.00000000000000E+0000
  9
$EXTMAX
 10
 6.00000000000000E+0002
 20
 6.00000000000000E+0002
  9
$LIMMIN
 10
0.0
 20
0.0
  9
$LIMMAX
 10
410.0
 20
287.0
  9
$VIEWCTR
 10
227.0059616
 20
165.058879 
  9
$VIEWSIZE
 40
 6.00000000000000E+0002
9
$SNAPMODE
70
0
9
$SNAPUNIT
10
1
20
1
9
$GRIDMODE
70
0
9
$GRIDUNIT
10
1
20
1
9
$ORTHOMODE
70
0
9
$rEGENMODE
70
1
9
$FILLMODE
70
1
9
$DRAGMODE
70
2
9
$LTSCALE
40
25.0
9
$OSMODE
70
0
9
$ATTMODE
70
1
9
$TRACEWID
40
1.0
9
$TEXTSTYLE
7
STANDARD
9
$CLAYER
8
0
9
$CELTYPE
6
VONLAYER
9
$CECOLOR
62
256
9
$LUNITS
70
2
9
$LUPREC
70
2
9
$AXISMODE
70
0
9
$AXISUNIT
10
0
20
0
9
$SKETCHINC
40
1.0
9
$FILLETRAD
40
0.0
9
$AUNITS
70
0
9
$AUPREC
70
0
9
$MENU
1
ACAD
9
$ELEVATION
40
0.0
9
$THICKNESS
40
0.0
9
$VIEWDIR
10
0.0
20
0.0
30
1.0
9
$LIMCHECK
70
0
9
$BLIPMODE
70
1
9
$CHAMFERA
40
0.0
9
$CHAMFERB
40
0.0
9
$USRTIMER
70
1
9
$ANGBASE
50
0.0
9
$ANGDIR
70
0
9
$PDMODE
70
0
9
$PDSIZE
40
0.0
9
$PLINEWID
40
0.0
9
$COORDS
70
0
0
ENDSEC
0
SECTION
2
TABLES
0
TABLE
2
LTYPE
70
1
0
LTYPE
2
AUSGEZOGEN
70
64
3
Ausgezogene Linie
72
65
73
0
40
0.0
0
ENDTAB
0
TABLE
2
LAYER
70
1
0
LAYER
2
0
70
0
62
7
6
AUSGEZOGEN
0
ENDTAB
0
TABLE
2
STYLE
70
1
0
STYLE
2
STANDARD
70
0
40
0.0
41
1.0
50
0.0
71
0
42
3.5
3
txt
4

0
ENDTAB
0
TABLE
2
VIEW
70
0
0
ENDTAB
0
ENDSEC
0
SECTION
2
BLOCKS
0
ENDSEC
0
SECTION
2
ENTITIES
  0
ARC
  8
0
 10
 4.00000000000000E+0001
 20
 4.00000000000000E+0001
 40
 4.00000000000000E+0001
 50
 1.80000000000000E+0002
 51
 2.70000000000000E+0002
  0
LINE
  8
0
 10
 0.00000000000000E+0000
 20
 4.00000000000000E+0001
 11
 0.00000000000000E+0000
 21
 5.60000000000000E+0002
  0
ARC
  8
0
 10
 4.00000000000000E+0001
 20
 5.60000000000000E+0002
 40
 4.00000000000000E+0001
 50
 9.00000000000000E+0001
 51
 1.80000000000000E+0002
  0
LINE
  8
0
 10
 4.00000000000000E+0001
 20
 6.00000000000000E+0002
 11
 5.60000000000000E+0002
 21
 6.00000000000000E+0002
  0
ARC
  8
0
 10
 5.60000000000000E+0002
 20
 5.60000000000000E+0002
 40
 4.00000000000000E+0001
 50
 0.00000000000000E+0000
 51
 9.00000000000000E+0001
  0
LINE
  8
0
 10
 6.00000000000000E+0002
 20
 5.60000000000000E+0002
 11
 6.00000000000000E+0002
 21
 4.00000000000000E+0001
  0
ARC
  8
0
 10
 5.60000000000000E+0002
 20
 4.00000000000000E+0001
 40
 4.00000000000000E+0001
 50
 2.70000000000000E+0002
 51
 3.60000000000000E+0002
  0
LINE
  8
0
 10
 5.60000000000000E+0002
 20
 0.00000000000000E+0000
 11
 4.00000000000000E+0001
 21
 0.00000000000000E+0000
  0
ARC
  8
0
 10
 4.00000000000000E+0001
 20
 4.00000000000000E+0001
 40
 3.00000000000000E+0001
 50
 1.80000000000000E+0002
 51
 2.70000000000000E+0002
  0
LINE
  8
0
 10
 1.00000000000000E+0001
 20
 4.00000000000000E+0001
 11
 1.00000000000000E+0001
 21
 5.60000000000000E+0002
  0
ARC
  8
0
 10
 4.00000000000000E+0001
 20
 5.60000000000000E+0002
 40
 3.00000000000000E+0001
 50
 9.00000000000000E+0001
 51
 1.80000000000000E+0002
  0
LINE
  8
0
 10
 4.00000000000000E+0001
 20
 5.90000000000000E+0002
 11
 5.60000000000000E+0002
 21
 5.90000000000000E+0002
  0
ARC
  8
0
 10
 5.60000000000000E+0002
 20
 5.60000000000000E+0002
 40
 3.00000000000000E+0001
 50
 0.00000000000000E+0000
 51
 9.00000000000000E+0001
  0
LINE
  8
0
 10
 5.90000000000000E+0002
 20
 5.60000000000000E+0002
 11
 5.90000000000000E+0002
 21
 4.00000000000000E+0001
  0
ARC
  8
0
 10
 5.60000000000000E+0002
 20
 4.00000000000000E+0001
 40
 3.00000000000000E+0001
 50
 2.70000000000000E+0002
 51
 3.60000000000000E+0002
  0
LINE
  8
0
 10
 5.60000000000000E+0002
 20
 1.00000000000000E+0001
 11
 4.00000000000000E+0001
 21
 1.00000000000000E+0001
  0
ARC
  8
0
 10
 4.00000000000000E+0001
 20
 4.00000000000000E+0001
 40
 1.50000000000000E+0001
 50
 1.80000000000000E+0002
 51
 2.70000000000000E+0002
  0
LINE
  8
0
 10
 2.50000000000000E+0001
 20
 4.00000000000000E+0001
 11
 2.50000000000000E+0001
 21
 5.60000000000000E+0002
  0
ARC
  8
0
 10
 4.00000000000000E+0001
 20
 5.60000000000000E+0002
 40
 1.50000000000000E+0001
 50
 9.00000000000000E+0001
 51
 1.80000000000000E+0002
  0
LINE
  8
0
 10
 4.00000000000000E+0001
 20
 5.75000000000000E+0002
 11
 5.60000000000000E+0002
 21
 5.75000000000000E+0002
  0
ARC
  8
0
 10
 5.60000000000000E+0002
 20
 5.60000000000000E+0002
 40
 1.50000000000000E+0001
 50
 0.00000000000000E+0000
 51
 9.00000000000000E+0001
  0
LINE
  8
0
 10
 5.75000000000000E+0002
 20
 5.60000000000000E+0002
 11
 5.75000000000000E+0002
 21
 4.00000000000000E+0001
  0
ARC
  8
0
 10
 5.60000000000000E+0002
 20
 4.00000000000000E+0001
 40
 1.50000000000000E+0001
 50
 2.70000000000000E+0002
 51
 3.60000000000000E+0002
  0
LINE
  8
0
 10
 5.60000000000000E+0002
 20
 2.50000000000000E+0001
 11
 4.00000000000000E+0001
 21
 2.50000000000000E+0001
  0
CIRCLE
  8
0
 10
 3.00000000000000E+0002
 20
 3.56850000000000E+0002
 40
 1.90000000000000E+0002
  0
LINE
  8
0
 10
 1.60500000000000E+0002
 20
 5.39167000000000E+0001
 11
 1.60500000000000E+0002
 21
 6.44167000000000E+0001
  0
LINE
  8
0
 10
 1.60500000000000E+0002
 20
 6.44167000000000E+0001
 11
 1.98750000000000E+0002
 21
 1.26666700000000E+0002
  0
LINE
  8
0
 10
 1.98750000000000E+0002
 20
 1.26666700000000E+0002
 11
 1.62000000000000E+0002
 21
 1.26666700000000E+0002
  0
LINE
  8
0
 10
 1.62000000000000E+0002
 20
 1.26666700000000E+0002
 11
 1.62000000000000E+0002
 21
 1.37916700000000E+0002
  0
LINE
  8
0
 10
 1.62000000000000E+0002
 20
 1.37916700000000E+0002
 11
 2.14500000000000E+0002
 21
 1.37916700000000E+0002
  0
LINE
  8
0
 10
 2.14500000000000E+0002
 20
 1.37916700000000E+0002
 11
 2.14500000000000E+0002
 21
 1.28166700000000E+0002
  0
LINE
  8
0
 10
 2.14500000000000E+0002
 20
 1.28166700000000E+0002
 11
 1.76250000000000E+0002
 21
 6.59167000000000E+0001
  0
LINE
  8
0
 10
 1.76250000000000E+0002
 20
 6.59167000000000E+0001
 11
 2.14500000000000E+0002
 21
 6.59167000000000E+0001
  0
LINE
  8
0
 10
 2.14500000000000E+0002
 20
 6.59167000000000E+0001
 11
 2.14500000000000E+0002
 21
 5.39167000000000E+0001
  0
LINE
  8
0
 10
 2.14500000000000E+0002
 20
 5.39167000000000E+0001
 11
 1.60500000000000E+0002
 21
 5.39167000000000E+0001
  0
LINE
  8
0
 10
 2.26499999999978E+0002
 20
 8.31667000000000E+0001
 11
 2.26499999999978E+0002
 21
 1.08666700000000E+0002
  0
ARC
  8
0
 10
 2.56499999999978E+0002
 20
 1.08666700000000E+0002
 40
 3.00000000000000E+0001
 50
 0.00000000000000E+0000
 51
 1.80000000000000E+0002
  0
LINE
  8
0
 10
 2.86499999999978E+0002
 20
 1.08666700000000E+0002
 11
 2.86499999999978E+0002
 21
 8.31667000000000E+0001
  0
ARC
  8
0
 10
 2.56499999999978E+0002
 20
 8.31667000000000E+0001
 40
 3.00000000000000E+0001
 50
 1.80000000000000E+0002
 51
 3.60000000000000E+0002
  0
LINE
  8
0
 10
 2.39249999999978E+0002
 20
 8.31667000000000E+0001
 11
 2.39249999999978E+0002
 21
 1.08666700000000E+0002
  0
ARC
  8
0
 10
 2.56499999999978E+0002
 20
 1.08666700000000E+0002
 40
 1.72500000000000E+0001
 50
 0.00000000000000E+0000
 51
 1.80000000000000E+0002
  0
LINE
  8
0
 10
 2.73749999999978E+0002
 20
 1.08666700000000E+0002
 11
 2.73749999999978E+0002
 21
 8.31667000000000E+0001
  0
ARC
  8
0
 10
 2.56499999999978E+0002
 20
 8.31667000000000E+0001
 40
 1.72500000000000E+0001
 50
 1.80000000000000E+0002
 51
 3.60000000000000E+0002
  0
LINE
  8
0
 10
 3.02999999999978E+0002
 20
 5.39167000000000E+0001
 11
 3.02999999999978E+0002
 21
 1.37916700000000E+0002
  0
LINE
  8
0
 10
 3.02999999999978E+0002
 20
 1.37916700000000E+0002
 11
 3.14999999999978E+0002
 21
 1.37916700000000E+0002
  0
LINE
  8
0
 10
 3.14999999999978E+0002
 20
 1.37916700000000E+0002
 11
 3.53249999999978E+0002
 21
 7.79167000000000E+0001
  0
LINE
  8
0
 10
 3.53249999999978E+0002
 20
 7.79167000000000E+0001
 11
 3.53249999999978E+0002
 21
 1.37916700000000E+0002
  0
LINE
  8
0
 10
 3.53249999999978E+0002
 20
 1.37916700000000E+0002
 11
 3.65999999999978E+0002
 21
 1.37916700000000E+0002
  0
LINE
  8
0
 10
 3.65999999999978E+0002
 20
 1.37916700000000E+0002
 11
 3.65999999999978E+0002
 21
 5.39167000000000E+0001
  0
LINE
  8
0
 10
 3.65999999999978E+0002
 20
 5.39167000000000E+0001
 11
 3.53999999999978E+0002
 21
 5.39167000000000E+0001
  0
LINE
  8
0
 10
 3.53999999999978E+0002
 20
 5.39167000000000E+0001
 11
 3.15749999999978E+0002
 21
 1.13916700000000E+0002
  0
LINE
  8
0
 10
 3.15749999999978E+0002
 20
 1.13916700000000E+0002
 11
 3.15749999999978E+0002
 21
 5.39167000000000E+0001
  0
LINE
  8
0
 10
 3.15749999999978E+0002
 20
 5.39167000000000E+0001
 11
 3.02999999999978E+0002
 21
 5.39167000000000E+0001
  0
LINE
  8
0
 10
 3.85499999999935E+0002
 20
 5.39167000000000E+0001
 11
 3.85499999999935E+0002
 21
 1.37916700000000E+0002
  0
LINE
  8
0
 10
 3.85499999999935E+0002
 20
 1.37916700000000E+0002
 11
 4.39499999999935E+0002
 21
 1.37916700000000E+0002
  0
LINE
  8
0
 10
 4.39499999999935E+0002
 20
 1.37916700000000E+0002
 11
 4.39499999999935E+0002
 21
 1.25916700000000E+0002
  0
LINE
  8
0
 10
 4.39499999999935E+0002
 20
 1.25916700000000E+0002
 11
 3.98249999999935E+0002
 21
 1.25916700000000E+0002
  0
LINE
  8
0
 10
 3.98249999999935E+0002
 20
 1.25916700000000E+0002
 11
 3.98249999999935E+0002
 21
 1.01916700000000E+0002
  0
LINE
  8
0
 10
 3.98249999999935E+0002
 20
 1.01916700000000E+0002
 11
 4.33499999999935E+0002
 21
 1.01916700000000E+0002
  0
LINE
  8
0
 10
 4.33499999999935E+0002
 20
 1.01916700000000E+0002
 11
 4.33499999999935E+0002
 21
 9.06667000000000E+0001
  0
LINE
  8
0
 10
 4.33499999999935E+0002
 20
 9.06667000000000E+0001
 11
 3.98249999999935E+0002
 21
 9.06667000000000E+0001
  0
LINE
  8
0
 10
 3.98249999999935E+0002
 20
 9.06667000000000E+0001
 11
 3.98249999999935E+0002
 21
 6.59167000000000E+0001
  0
LINE
  8
0
 10
 3.98249999999935E+0002
 20
 6.59167000000000E+0001
 11
 4.39499999999935E+0002
 21
 6.59167000000000E+0001
  0
LINE
  8
0
 10
 4.39499999999935E+0002
 20
 6.59167000000000E+0001
 11
 4.39499999999935E+0002
 21
 5.39167000000000E+0001
  0
LINE
  8
0
 10
 4.39499999999935E+0002
 20
 5.39167000000000E+0001
 11
 3.85499999999935E+0002
 21
 5.39167000000000E+0001
  0
LINE
  8
0
 10
 2.76923300000000E+0002
 20
 4.49157700000000E+0002
 11
 2.57950000000000E+0002
 21
 4.49200000000000E+0002
  0
ARC
  8
0
 10
 2.57950000000000E+0002
 20
 4.26100000000000E+0002
 40
 2.31000000000000E+0001
 50
 9.00000000000000E+0001
 51
 1.62800000000000E+0002
  0
LINE
  8
0
 10
 2.35883069834974E+0002
 20
 4.32930855956017E+0002
 11
 2.19164053493649E+0002
 21
 3.78799672655947E+0002
  0
ARC
  8
0
 10
 2.07700000000000E+0002
 20
 3.22250000000000E+0002
 40
 5.77000000000000E+0001
 50
 7.85400000000000E+0001
 51
 4.27060000000000E+0002
  0
LINE
  8
0
 10
 2.30189553822498E+0002
 20
 3.75386710181051E+0002
 11
 2.34764700000000E+0002
 21
 3.90175900000000E+0002
  0
LINE
  8
0
 10
 2.34764700000000E+0002
 20
 3.90175900000000E+0002
 11
 3.02970725053544E+0002
 21
 3.14517048338887E+0002
  0
ARC
  8
0
 10
 3.11550000000000E+0002
 20
 3.22250000000000E+0002
 40
 1.15500000000000E+0001
 50
 2.22030000000000E+0002
 51
 2.70000000000000E+0002
  0
LINE
  8
0
 10
 3.11550000000000E+0002
 20
 3.10700000000000E+0002
 11
 3.35765382198860E+0002
 21
 3.10711933000755E+0002
  0
ARC
  8
0
 10
 3.92300000000000E+0002
 20
 3.22250000000000E+0002
 40
 5.77000000000000E+0001
 50
 1.91535000000000E+0002
 51
 4.68055000000000E+0002
  0
LINE
  8
0
 10
 3.74417050506698E+0002
 20
 3.77108819869006E+0002
 11
 3.57692000000000E+0002
 21
 4.14542300000000E+0002
  0
LINE
  8
0
 10
 3.57692000000000E+0002
 20
 4.14542300000000E+0002
 11
 3.62018700000000E+0002
 21
 4.26080800000000E+0002
  0
LINE
  8
0
 10
 3.62018700000000E+0002
 20
 4.26080800000000E+0002
 11
 3.75000000000000E+0002
 21
 4.26080800000000E+0002
  0
LINE
  8
0
 10
 3.75000000000000E+0002
 20
 4.26080800000000E+0002
 11
 3.75000000000000E+0002
 21
 4.37619300000000E+0002
  0
LINE
  8
0
 10
 3.75000000000000E+0002
 20
 4.37619300000000E+0002
 11
 3.25950000000000E+0002
 21
 4.37650000000000E+0002
  0
ARC
  8
0
 10
 3.25950000000000E+0002
 20
 4.34750000000000E+0002
 40
 2.90000000000000E+0000
 50
 9.00000000000000E+0001
 51
 2.56530000000000E+0002
  0
LINE
  8
0
 10
 3.25274485019480E+0002
 20
 4.31929773145456E+0002
 11
 3.49696000000000E+0002
 21
 4.26080800000000E+0002
  0
LINE
  8
0
 10
 3.49696000000000E+0002
 20
 4.26080800000000E+0002
 11
 3.45368700000000E+0002
 21
 4.14542300000000E+0002
  0
LINE
  8
0
 10
 3.45368700000000E+0002
 20
 4.14542300000000E+0002
 11
 2.42308000000000E+0002
 21
 4.14542300000000E+0002
  0
LINE
  8
0
 10
 2.42308000000000E+0002
 20
 4.14542300000000E+0002
 11
 2.46916534917487E+0002
 21
 4.29515427978009E+0002
  0
ARC
  8
0
 10
 2.57950000000000E+0002
 20
 4.26100000000000E+0002
 40
 1.15500000000000E+0001
 50
 9.00000000000000E+0001
 51
 1.62800000000000E+0002
  0
LINE
  8
0
 10
 2.57950000000000E+0002
 20
 4.37650000000000E+0002
 11
 2.76923300000000E+0002
 21
 4.37619300000000E+0002
  0
LINE
  8
0
 10
 2.76923300000000E+0002
 20
 4.37619300000000E+0002
 11
 2.76923300000000E+0002
 21
 4.49157700000000E+0002
  0
LINE
  8
0
 10
 2.38736000000000E+0002
 20
 4.03003900000000E+0002
 11
 3.10984000000000E+0002
 21
 3.22849400000000E+0002
  0
LINE
  8
0
 10
 3.10984000000000E+0002
 20
 3.22849400000000E+0002
 11
 3.41042000000000E+0002
 21
 4.03003900000000E+0002
  0
LINE
  8
0
 10
 3.41042000000000E+0002
 20
 4.03003900000000E+0002
 11
 2.38736000000000E+0002
 21
 4.03003900000000E+0002
  0
LINE
  8
0
 10
 2.15723300000000E+0002
 20
 3.67684400000000E+0002
 11
 2.15729727561954E+0002
 21
 3.67696077666624E+0002
  0
ARC
  8
0
 10
 2.07700000000000E+0002
 20
 3.22250000000000E+0002
 40
 4.61500000000000E+0001
 50
 7.99800000000000E+0001
 51
 4.25620000000000E+0002
  0
LINE
  8
0
 10
 2.26750097717864E+0002
 20
 3.64284703245531E+0002
 11
 2.13192850582203E+0002
 21
 3.20549678712247E+0002
  0
ARC
  8
0
 10
 2.07700000000000E+0002
 20
 3.22250000000000E+0002
 40
 5.75000000000000E+0000
 50
 1.62795000000000E+0002
 51
 3.42800000000000E+0002
  0
LINE
  8
0
 10
 2.02207297819736E+0002
 20
 3.23950800622918E+0002
 11
 2.15723300000000E+0002
 21
 3.67684400000000E+0002
  0
LINE
  8
0
 10
 3.23076700000000E+0002
 20
 3.22234700000000E+0002
 11
 3.34600000000000E+0002
 21
 3.22250000000000E+0002
  0
ARC
  8
0
 10
 3.92300000000000E+0002
 20
 3.22250000000000E+0002
 40
 5.77000000000000E+0001
 50
 1.19535000000000E+0002
 51
 1.80000000000000E+0002
  0
LINE
  8
0
 10
 3.63856488523873E+0002
 20
 3.72452157871026E+0002
 11
 3.51925300000000E+0002
 21
 3.99163900000000E+0002
  0
LINE
  8
0
 10
 3.51925300000000E+0002
 20
 3.99163900000000E+0002
 11
 3.23076700000000E+0002
 21
 3.22234700000000E+0002
  0
LINE
  8
0
 10
 3.46153500000000E+0002
 20
 3.22234700000000E+0002
 11
 3.46153300000000E+0002
 21
 3.22234700000000E+0002
  0
LINE
  8
0
 10
 3.46153300000000E+0002
 20
 3.22234700000000E+0002
 11
 3.86295300000000E+0002
 21
 3.22234700000000E+0002
  0
LINE
  8
0
 10
 3.86295300000000E+0002
 20
 3.22234700000000E+0002
 11
 3.68596615582425E+0002
 21
 3.61847627039416E+0002
  0
ARC
  8
0
 10
 3.92300000000000E+0002
 20
 3.22250000000000E+0002
 40
 4.61500000000000E+0001
 50
 1.20905000000000E+0002
 51
 1.80000000000000E+0002
  0
LINE
  8
0
 10
 3.47619300000000E+0002
 20
 3.10696200000000E+0002
 11
 3.47614948813830E+0002
 21
 3.10714459245907E+0002
  0
ARC
  8
0
 10
 3.92300000000000E+0002
 20
 3.22250000000000E+0002
 40
 4.61500000000000E+0001
 50
 1.94475000000000E+0002
 51
 4.66540000000000E+0002
  0
LINE
  8
0
 10
 3.79161803038423E+0002
 20
 3.66490369354231E+0002
 11
 4.00450025157182E+0002
 21
 3.18795151562043E+0002
  0
ARC
  8
0
 10
 3.95200000000000E+0002
 20
 3.16450000000000E+0002
 40
 5.75000000000000E+0000
 50
 2.70000000000000E+0002
 51
 3.84070000000000E+0002
  0
LINE
  8
0
 10
 3.95200000000000E+0002
 20
 3.10700000000000E+0002
 11
 3.47619300000000E+0002
 21
 3.10696200000000E+0002
  0
ENDSEC
  0
EOF
