  0
SECTION
  2
HEADER
  9
$ACADVER
  1
AC1003
  9
$INSBASE
 10
0.0
 20
0.0
  9
$EXTMIN
 10
 0.00000000000000E+0000
 20
 0.00000000000000E+0000
  9
$EXTMAX
 10
 6.00000000000000E+0002
 20
 3.30000000000000E+0002
  9
$LIMMIN
 10
0.0
 20
0.0
  9
$LIMMAX
 10
410.0
 20
287.0
  9
$VIEWCTR
 10
227.0059616
 20
165.058879 
  9
$VIEWSIZE
 40
 6.00000000000000E+0002
9
$SNAPMODE
70
0
9
$SNAPUNIT
10
1
20
1
9
$GRIDMODE
70
0
9
$GRIDUNIT
10
1
20
1
9
$ORTHOMODE
70
0
9
$rEGENMODE
70
1
9
$FILLMODE
70
1
9
$DRAGMODE
70
2
9
$LTSCALE
40
25.0
9
$OSMODE
70
0
9
$ATTMODE
70
1
9
$TRACEWID
40
1.0
9
$TEXTSTYLE
7
STANDARD
9
$CLAYER
8
0
9
$CELTYPE
6
VONLAYER
9
$CECOLOR
62
256
9
$LUNITS
70
2
9
$LUPREC
70
2
9
$AXISMODE
70
0
9
$AXISUNIT
10
0
20
0
9
$SKETCHINC
40
1.0
9
$FILLETRAD
40
0.0
9
$AUNITS
70
0
9
$AUPREC
70
0
9
$MENU
1
ACAD
9
$ELEVATION
40
0.0
9
$THICKNESS
40
0.0
9
$VIEWDIR
10
0.0
20
0.0
30
1.0
9
$LIMCHECK
70
0
9
$BLIPMODE
70
1
9
$CHAMFERA
40
0.0
9
$CHAMFERB
40
0.0
9
$USRTIMER
70
1
9
$ANGBASE
50
0.0
9
$ANGDIR
70
0
9
$PDMODE
70
0
9
$PDSIZE
40
0.0
9
$PLINEWID
40
0.0
9
$COORDS
70
0
0
ENDSEC
0
SECTION
2
TABLES
0
TABLE
2
LTYPE
70
1
0
LTYPE
2
AUSGEZOGEN
70
64
3
Ausgezogene Linie
72
65
73
0
40
0.0
0
ENDTAB
0
TABLE
2
LAYER
70
1
0
LAYER
2
0
70
0
62
7
6
AUSGEZOGEN
0
ENDTAB
0
TABLE
2
STYLE
70
1
0
STYLE
2
STANDARD
70
0
40
0.0
41
1.0
50
0.0
71
0
42
3.5
3
txt
4

0
ENDTAB
0
TABLE
2
VIEW
70
0
0
ENDTAB
0
ENDSEC
0
SECTION
2
BLOCKS
0
ENDSEC
0
SECTION
2
ENTITIES
  0
ARC
  8
0
 10
 4.00000000000000E+0001
 20
 4.00000000000000E+0001
 40
 4.00000000000000E+0001
 50
 1.80000000000000E+0002
 51
 2.70000000000000E+0002
  0
LINE
  8
0
 10
 0.00000000000000E+0000
 20
 4.00000000000000E+0001
 11
 0.00000000000000E+0000
 21
 2.90000000000000E+0002
  0
ARC
  8
0
 10
 4.00000000000000E+0001
 20
 2.90000000000000E+0002
 40
 4.00000000000000E+0001
 50
 9.00000000000000E+0001
 51
 1.80000000000000E+0002
  0
LINE
  8
0
 10
 4.00000000000000E+0001
 20
 3.30000000000000E+0002
 11
 5.60000000000000E+0002
 21
 3.30000000000000E+0002
  0
ARC
  8
0
 10
 5.60000000000000E+0002
 20
 2.90000000000000E+0002
 40
 4.00000000000000E+0001
 50
 0.00000000000000E+0000
 51
 9.00000000000000E+0001
  0
LINE
  8
0
 10
 6.00000000000000E+0002
 20
 2.90000000000000E+0002
 11
 6.00000000000000E+0002
 21
 4.00000000000000E+0001
  0
ARC
  8
0
 10
 5.60000000000000E+0002
 20
 4.00000000000000E+0001
 40
 4.00000000000000E+0001
 50
 2.70000000000000E+0002
 51
 3.60000000000000E+0002
  0
LINE
  8
0
 10
 5.60000000000000E+0002
 20
 0.00000000000000E+0000
 11
 4.00000000000000E+0001
 21
 0.00000000000000E+0000
  0
ARC
  8
0
 10
 4.00000000000000E+0001
 20
 4.00000000000000E+0001
 40
 3.00000000000000E+0001
 50
 1.80000000000000E+0002
 51
 2.70000000000000E+0002
  0
LINE
  8
0
 10
 1.00000000000000E+0001
 20
 4.00000000000000E+0001
 11
 1.00000000000000E+0001
 21
 2.90000000000000E+0002
  0
ARC
  8
0
 10
 4.00000000000000E+0001
 20
 2.90000000000000E+0002
 40
 3.00000000000000E+0001
 50
 9.00000000000000E+0001
 51
 1.80000000000000E+0002
  0
LINE
  8
0
 10
 4.00000000000000E+0001
 20
 3.20000000000000E+0002
 11
 5.60000000000000E+0002
 21
 3.20000000000000E+0002
  0
ARC
  8
0
 10
 5.60000000000000E+0002
 20
 2.90000000000000E+0002
 40
 3.00000000000000E+0001
 50
 0.00000000000000E+0000
 51
 9.00000000000000E+0001
  0
LINE
  8
0
 10
 5.90000000000000E+0002
 20
 2.90000000000000E+0002
 11
 5.90000000000000E+0002
 21
 4.00000000000000E+0001
  0
ARC
  8
0
 10
 5.60000000000000E+0002
 20
 4.00000000000000E+0001
 40
 3.00000000000000E+0001
 50
 2.70000000000000E+0002
 51
 3.60000000000000E+0002
  0
LINE
  8
0
 10
 5.60000000000000E+0002
 20
 1.00000000000000E+0001
 11
 4.00000000000000E+0001
 21
 1.00000000000000E+0001
  0
ARC
  8
0
 10
 4.00000000000000E+0001
 20
 4.00000000000000E+0001
 40
 1.50000000000000E+0001
 50
 1.80000000000000E+0002
 51
 2.70000000000000E+0002
  0
LINE
  8
0
 10
 2.50000000000000E+0001
 20
 4.00000000000000E+0001
 11
 2.50000000000000E+0001
 21
 2.90000000000000E+0002
  0
ARC
  8
0
 10
 4.00000000000000E+0001
 20
 2.90000000000000E+0002
 40
 1.50000000000000E+0001
 50
 9.00000000000000E+0001
 51
 1.80000000000000E+0002
  0
LINE
  8
0
 10
 4.00000000000000E+0001
 20
 3.05000000000000E+0002
 11
 5.60000000000000E+0002
 21
 3.05000000000000E+0002
  0
ARC
  8
0
 10
 5.60000000000000E+0002
 20
 2.90000000000000E+0002
 40
 1.50000000000000E+0001
 50
 0.00000000000000E+0000
 51
 9.00000000000000E+0001
  0
LINE
  8
0
 10
 5.75000000000000E+0002
 20
 2.90000000000000E+0002
 11
 5.75000000000000E+0002
 21
 4.00000000000000E+0001
  0
ARC
  8
0
 10
 5.60000000000000E+0002
 20
 4.00000000000000E+0001
 40
 1.50000000000000E+0001
 50
 2.70000000000000E+0002
 51
 3.60000000000000E+0002
  0
LINE
  8
0
 10
 5.60000000000000E+0002
 20
 2.50000000000000E+0001
 11
 4.00000000000000E+0001
 21
 2.50000000000000E+0001
  0
LINE
  8
0
 10
 8.37810000000000E+0001
 20
 1.86000000000000E+0002
 11
 7.07185000000000E+0001
 21
 2.41000000000000E+0002
  0
LINE
  8
0
 10
 7.07185000000000E+0001
 20
 2.41000000000000E+0002
 11
 8.24060000000000E+0001
 21
 2.41000000000000E+0002
  0
LINE
  8
0
 10
 8.24060000000000E+0001
 20
 2.41000000000000E+0002
 11
 8.92810000000000E+0001
 21
 2.06625000000000E+0002
  0
LINE
  8
0
 10
 8.92810000000000E+0001
 20
 2.06625000000000E+0002
 11
 9.54685000000000E+0001
 21
 2.41000000000000E+0002
  0
LINE
  8
0
 10
 9.54685000000000E+0001
 20
 2.41000000000000E+0002
 11
 1.03718500000000E+0002
 21
 2.41000000000000E+0002
  0
LINE
  8
0
 10
 1.03718500000000E+0002
 20
 2.41000000000000E+0002
 11
 1.09906000000000E+0002
 21
 2.06625000000000E+0002
  0
LINE
  8
0
 10
 1.09906000000000E+0002
 20
 2.06625000000000E+0002
 11
 1.16781000000000E+0002
 21
 2.41000000000000E+0002
  0
LINE
  8
0
 10
 1.16781000000000E+0002
 20
 2.41000000000000E+0002
 11
 1.28468500000000E+0002
 21
 2.41000000000000E+0002
  0
LINE
  8
0
 10
 1.28468500000000E+0002
 20
 2.41000000000000E+0002
 11
 1.15406000000000E+0002
 21
 1.86000000000000E+0002
  0
LINE
  8
0
 10
 1.15406000000000E+0002
 20
 1.86000000000000E+0002
 11
 1.05781000000000E+0002
 21
 1.86000000000000E+0002
  0
LINE
  8
0
 10
 1.05781000000000E+0002
 20
 1.86000000000000E+0002
 11
 9.95935000000000E+0001
 21
 2.19000000000000E+0002
  0
LINE
  8
0
 10
 9.95935000000000E+0001
 20
 2.19000000000000E+0002
 11
 9.34060000000000E+0001
 21
 1.86000000000000E+0002
  0
LINE
  8
0
 10
 9.34060000000000E+0001
 20
 1.86000000000000E+0002
 11
 8.37810000000000E+0001
 21
 1.86000000000000E+0002
  0
LINE
  8
0
 10
 1.65593499999960E+0002
 20
 1.86000000000000E+0002
 11
 1.54593499999960E+0002
 21
 1.86000000000000E+0002
  0
LINE
  8
0
 10
 1.54593499999960E+0002
 20
 1.86000000000000E+0002
 11
 1.54593498745892E+0002
 21
 1.91499997648623E+0002
  0
ARC
  8
0
 10
 1.44280999999960E+0002
 20
 1.97000000000000E+0002
 40
 1.16875000000000E+0001
 50
 1.80000000000000E+0002
 51
 3.31927500000000E+0002
  0
LINE
  8
0
 10
 1.32593499999960E+0002
 20
 1.97000000000000E+0002
 11
 1.32593499999960E+0002
 21
 2.05250000000000E+0002
  0
ARC
  8
0
 10
 1.46343499999960E+0002
 20
 2.05250000000000E+0002
 40
 1.37500000000000E+0001
 50
 9.00000000000000E+0001
 51
 1.80000000000000E+0002
  0
LINE
  8
0
 10
 1.46343499999960E+0002
 20
 2.19000000000000E+0002
 11
 1.54593499999960E+0002
 21
 2.19000000000000E+0002
  0
LINE
  8
0
 10
 1.54593499999960E+0002
 20
 2.19000000000000E+0002
 11
 1.54593499999960E+0002
 21
 2.25187500000000E+0002
  0
ARC
  8
0
 10
 1.49093499999960E+0002
 20
 2.25187500000000E+0002
 40
 5.50000000000000E+0000
 50
 0.00000000000000E+0000
 51
 1.80000000000000E+0002
  0
LINE
  8
0
 10
 1.43593499999960E+0002
 20
 2.25187500000000E+0002
 11
 1.32593499999960E+0002
 21
 2.25187500000000E+0002
  0
ARC
  8
0
 10
 1.49093499999960E+0002
 20
 2.25187500000000E+0002
 40
 1.65000000000000E+0001
 50
 0.00000000000000E+0000
 51
 1.80000000000000E+0002
  0
LINE
  8
0
 10
 1.65593499999960E+0002
 20
 2.25187500000000E+0002
 11
 1.65593499999960E+0002
 21
 1.86000000000000E+0002
  0
LINE
  8
0
 10
 1.54593499999960E+0002
 20
 2.10062500000000E+0002
 11
 1.54593499999960E+0002
 21
 2.01812500000000E+0002
  0
ARC
  8
0
 10
 1.49093499999960E+0002
 20
 2.01812500000000E+0002
 40
 5.50000000000000E+0000
 50
 1.80000000000000E+0002
 51
 3.60000000000000E+0002
  0
LINE
  8
0
 10
 1.43593499999960E+0002
 20
 2.01812500000000E+0002
 11
 1.43593499999960E+0002
 21
 2.04562500000000E+0002
  0
ARC
  8
0
 10
 1.49093499999960E+0002
 20
 2.04562500000000E+0002
 40
 5.50000000000000E+0000
 50
 9.00000000000000E+0001
 51
 1.80000000000000E+0002
  0
LINE
  8
0
 10
 1.49093499999960E+0002
 20
 2.10062500000000E+0002
 11
 1.54593499999960E+0002
 21
 2.10062500000000E+0002
  0
LINE
  8
0
 10
 1.35343499999960E+0002
 20
 2.52000000000000E+0002
 11
 1.35343499999960E+0002
 21
 2.63000000000000E+0002
  0
LINE
  8
0
 10
 1.35343499999960E+0002
 20
 2.63000000000000E+0002
 11
 1.46343499999960E+0002
 21
 2.63000000000000E+0002
  0
LINE
  8
0
 10
 1.46343499999960E+0002
 20
 2.63000000000000E+0002
 11
 1.46343499999960E+0002
 21
 2.52000000000000E+0002
  0
LINE
  8
0
 10
 1.46343499999960E+0002
 20
 2.52000000000000E+0002
 11
 1.35343499999960E+0002
 21
 2.52000000000000E+0002
  0
LINE
  8
0
 10
 1.51843499999960E+0002
 20
 2.52000000000000E+0002
 11
 1.51843499999960E+0002
 21
 2.63000000000000E+0002
  0
LINE
  8
0
 10
 1.51843499999960E+0002
 20
 2.63000000000000E+0002
 11
 1.62843499999960E+0002
 21
 2.63000000000000E+0002
  0
LINE
  8
0
 10
 1.62843499999960E+0002
 20
 2.63000000000000E+0002
 11
 1.62843499999960E+0002
 21
 2.52000000000000E+0002
  0
LINE
  8
0
 10
 1.62843499999960E+0002
 20
 2.52000000000000E+0002
 11
 1.51843499999960E+0002
 21
 2.52000000000000E+0002
  0
LINE
  8
0
 10
 1.76593499999980E+0002
 20
 1.86000000000000E+0002
 11
 1.76593499999980E+0002
 21
 2.63000000000000E+0002
  0
LINE
  8
0
 10
 1.76593499999980E+0002
 20
 2.63000000000000E+0002
 11
 1.87593499999980E+0002
 21
 2.63000000000000E+0002
  0
LINE
  8
0
 10
 1.87593499999980E+0002
 20
 2.63000000000000E+0002
 11
 1.87593500294117E+0002
 21
 2.35500000551507E+0002
  0
ARC
  8
0
 10
 1.97905999999980E+0002
 20
 2.30000000000000E+0002
 40
 1.16875000000000E+0001
 50
 0.00000000000000E+0000
 51
 1.51927510000000E+0002
  0
LINE
  8
0
 10
 2.09593499999980E+0002
 20
 2.30000000000000E+0002
 11
 2.09593499999980E+0002
 21
 1.86000000000000E+0002
  0
LINE
  8
0
 10
 2.09593499999980E+0002
 20
 1.86000000000000E+0002
 11
 1.98593499999980E+0002
 21
 1.86000000000000E+0002
  0
LINE
  8
0
 10
 1.98593499999980E+0002
 20
 1.86000000000000E+0002
 11
 1.98593499999980E+0002
 21
 2.25187500000000E+0002
  0
ARC
  8
0
 10
 1.93093499999980E+0002
 20
 2.25187500000000E+0002
 40
 5.50000000000000E+0000
 50
 0.00000000000000E+0000
 51
 1.80000000000000E+0002
  0
LINE
  8
0
 10
 1.87593499999980E+0002
 20
 2.25187500000000E+0002
 11
 1.87593499999980E+0002
 21
 1.86000000000000E+0002
  0
LINE
  8
0
 10
 1.87593499999980E+0002
 20
 1.86000000000000E+0002
 11
 1.76593499999980E+0002
 21
 1.86000000000000E+0002
  0
LINE
  8
0
 10
 2.20593500000000E+0002
 20
 1.86000000000000E+0002
 11
 2.20593500000000E+0002
 21
 2.41000000000000E+0002
  0
LINE
  8
0
 10
 2.20593500000000E+0002
 20
 2.41000000000000E+0002
 11
 2.31593500000000E+0002
 21
 2.41000000000000E+0002
  0
LINE
  8
0
 10
 2.31593500000000E+0002
 20
 2.41000000000000E+0002
 11
 2.31593499741595E+0002
 21
 2.34792261569818E+0002
  0
ARC
  8
0
 10
 2.46031000000000E+0002
 20
 2.23125000000000E+0002
 40
 1.85625000000000E+0001
 50
 9.00000000000000E+0001
 51
 1.41057560000000E+0002
  0
LINE
  8
0
 10
 2.46031000000000E+0002
 20
 2.41687500000000E+0002
 11
 2.46031007866708E+0002
 21
 2.30136592767620E+0002
  0
ARC
  8
0
 10
 2.42593500000000E+0002
 20
 2.19687500000000E+0002
 40
 1.10000000000000E+0001
 50
 7.17900000000000E+0001
 51
 1.80000000000000E+0002
  0
LINE
  8
0
 10
 2.31593500000000E+0002
 20
 2.19687500000000E+0002
 11
 2.31593500000000E+0002
 21
 1.86000000000000E+0002
  0
LINE
  8
0
 10
 2.31593500000000E+0002
 20
 1.86000000000000E+0002
 11
 2.20593500000000E+0002
 21
 1.86000000000000E+0002
  0
ARC
  8
0
 10
 2.66656000000005E+0002
 20
 2.01812500000000E+0002
 40
 1.65000000000000E+0001
 50
 1.80000000000000E+0002
 51
 3.60000000000000E+0002
  0
LINE
  8
0
 10
 2.50156000000005E+0002
 20
 2.01812500000000E+0002
 11
 2.50156000000005E+0002
 21
 2.25187500000000E+0002
  0
ARC
  8
0
 10
 2.66656000000005E+0002
 20
 2.25187500000000E+0002
 40
 1.65000000000000E+0001
 50
 0.00000000000000E+0000
 51
 1.80000000000000E+0002
  0
LINE
  8
0
 10
 2.83156000000005E+0002
 20
 2.25187500000000E+0002
 11
 2.83156000000005E+0002
 21
 2.09375000000000E+0002
  0
LINE
  8
0
 10
 2.83156000000005E+0002
 20
 2.09375000000000E+0002
 11
 2.61156000000005E+0002
 21
 2.09375000000000E+0002
  0
LINE
  8
0
 10
 2.61156000000005E+0002
 20
 2.09375000000000E+0002
 11
 2.61156000000005E+0002
 21
 2.01812500000000E+0002
  0
ARC
  8
0
 10
 2.66656000000005E+0002
 20
 2.01812500000000E+0002
 40
 5.50000000000000E+0000
 50
 1.80000000000000E+0002
 51
 3.60000000000000E+0002
  0
LINE
  8
0
 10
 2.72156000000005E+0002
 20
 2.01812500000000E+0002
 11
 2.83156000000005E+0002
 21
 2.01812500000000E+0002
  0
LINE
  8
0
 10
 2.61156000000005E+0002
 20
 2.18312500000000E+0002
 11
 2.61156000000005E+0002
 21
 2.25187500000000E+0002
  0
ARC
  8
0
 10
 2.66656000000005E+0002
 20
 2.25187500000000E+0002
 40
 5.50000000000000E+0000
 50
 0.00000000000000E+0000
 51
 1.80000000000000E+0002
  0
LINE
  8
0
 10
 2.72156000000005E+0002
 20
 2.25187500000000E+0002
 11
 2.72156000000005E+0002
 21
 2.18312500000000E+0002
  0
LINE
  8
0
 10
 2.72156000000005E+0002
 20
 2.18312500000000E+0002
 11
 2.61156000000005E+0002
 21
 2.18312500000000E+0002
  0
LINE
  8
0
 10
 2.92781000000025E+0002
 20
 1.86000000000000E+0002
 11
 2.92781000000025E+0002
 21
 2.41000000000000E+0002
  0
LINE
  8
0
 10
 2.92781000000025E+0002
 20
 2.41000000000000E+0002
 11
 3.03781000000025E+0002
 21
 2.41000000000000E+0002
  0
LINE
  8
0
 10
 3.03781000000025E+0002
 20
 2.41000000000000E+0002
 11
 3.03781000294162E+0002
 21
 2.35500000551507E+0002
  0
ARC
  8
0
 10
 3.14093500000025E+0002
 20
 2.30000000000000E+0002
 40
 1.16875000000000E+0001
 50
 0.00000000000000E+0000
 51
 1.51927510000000E+0002
  0
LINE
  8
0
 10
 3.25781000000025E+0002
 20
 2.30000000000000E+0002
 11
 3.25781000000025E+0002
 21
 1.86000000000000E+0002
  0
LINE
  8
0
 10
 3.25781000000025E+0002
 20
 1.86000000000000E+0002
 11
 3.14781000000025E+0002
 21
 1.86000000000000E+0002
  0
LINE
  8
0
 10
 3.14781000000025E+0002
 20
 1.86000000000000E+0002
 11
 3.14781000000025E+0002
 21
 2.25187500000000E+0002
  0
ARC
  8
0
 10
 3.09281000000025E+0002
 20
 2.25187500000000E+0002
 40
 5.50000000000000E+0000
 50
 0.00000000000000E+0000
 51
 1.80000000000000E+0002
  0
LINE
  8
0
 10
 3.03781000000025E+0002
 20
 2.25187500000000E+0002
 11
 3.03781000000025E+0002
 21
 1.86000000000000E+0002
  0
LINE
  8
0
 10
 3.03781000000025E+0002
 20
 1.86000000000000E+0002
 11
 2.92781000000025E+0002
 21
 1.86000000000000E+0002
  0
LINE
  8
0
 10
 3.68406000000045E+0002
 20
 1.86000000000000E+0002
 11
 3.57406000000045E+0002
 21
 1.86000000000000E+0002
  0
LINE
  8
0
 10
 3.57406000000045E+0002
 20
 1.86000000000000E+0002
 11
 3.57405999705908E+0002
 21
 1.91499999448493E+0002
  0
ARC
  8
0
 10
 3.47093500000045E+0002
 20
 1.97000000000000E+0002
 40
 1.16875000000000E+0001
 50
 1.80000000000000E+0002
 51
 3.31927510000000E+0002
  0
LINE
  8
0
 10
 3.35406000000045E+0002
 20
 1.97000000000000E+0002
 11
 3.35406000000045E+0002
 21
 2.30000000000000E+0002
  0
ARC
  8
0
 10
 3.47093500000045E+0002
 20
 2.30000000000000E+0002
 40
 1.16875000000000E+0001
 50
 2.80724900000000E+0001
 51
 1.80000000000000E+0002
  0
LINE
  8
0
 10
 3.57405999705908E+0002
 20
 2.35500000551507E+0002
 11
 3.57406000000045E+0002
 21
 2.63000000000000E+0002
  0
LINE
  8
0
 10
 3.57406000000045E+0002
 20
 2.63000000000000E+0002
 11
 3.68406000000045E+0002
 21
 2.63000000000000E+0002
  0
LINE
  8
0
 10
 3.68406000000045E+0002
 20
 2.63000000000000E+0002
 11
 3.68406000000045E+0002
 21
 1.86000000000000E+0002
  0
ARC
  8
0
 10
 3.51906000000045E+0002
 20
 2.01812500000000E+0002
 40
 5.50000000000000E+0000
 50
 1.80000000000000E+0002
 51
 3.60000000000000E+0002
  0
LINE
  8
0
 10
 3.46406000000045E+0002
 20
 2.01812500000000E+0002
 11
 3.46406000000045E+0002
 21
 2.25187500000000E+0002
  0
ARC
  8
0
 10
 3.51906000000045E+0002
 20
 2.25187500000000E+0002
 40
 5.50000000000000E+0000
 50
 0.00000000000000E+0000
 51
 1.80000000000000E+0002
  0
LINE
  8
0
 10
 3.57406000000045E+0002
 20
 2.25187500000000E+0002
 11
 3.57406000000045E+0002
 21
 2.01812500000000E+0002
  0
LINE
  8
0
 10
 4.45406000000065E+0002
 20
 1.86000000000000E+0002
 11
 4.34406000000065E+0002
 21
 1.86000000000000E+0002
  0
LINE
  8
0
 10
 4.34406000000065E+0002
 20
 1.86000000000000E+0002
 11
 4.34405999705928E+0002
 21
 1.91499999448493E+0002
  0
ARC
  8
0
 10
 4.24093500000065E+0002
 20
 1.97000000000000E+0002
 40
 1.16875000000000E+0001
 50
 1.80000000000000E+0002
 51
 3.31927510000000E+0002
  0
LINE
  8
0
 10
 4.12406000000065E+0002
 20
 1.97000000000000E+0002
 11
 4.12406000000065E+0002
 21
 2.30000000000000E+0002
  0
ARC
  8
0
 10
 4.24093500000065E+0002
 20
 2.30000000000000E+0002
 40
 1.16875000000000E+0001
 50
 2.80724900000000E+0001
 51
 1.80000000000000E+0002
  0
LINE
  8
0
 10
 4.34405999705928E+0002
 20
 2.35500000551507E+0002
 11
 4.34406000000065E+0002
 21
 2.63000000000000E+0002
  0
LINE
  8
0
 10
 4.34406000000065E+0002
 20
 2.63000000000000E+0002
 11
 4.45406000000065E+0002
 21
 2.63000000000000E+0002
  0
LINE
  8
0
 10
 4.45406000000065E+0002
 20
 2.63000000000000E+0002
 11
 4.45406000000065E+0002
 21
 1.86000000000000E+0002
  0
ARC
  8
0
 10
 4.28906000000065E+0002
 20
 2.01812500000000E+0002
 40
 5.50000000000000E+0000
 50
 1.80000000000000E+0002
 51
 3.60000000000000E+0002
  0
LINE
  8
0
 10
 4.23406000000065E+0002
 20
 2.01812500000000E+0002
 11
 4.23406000000065E+0002
 21
 2.25187500000000E+0002
  0
ARC
  8
0
 10
 4.28906000000065E+0002
 20
 2.25187500000000E+0002
 40
 5.50000000000000E+0000
 50
 0.00000000000000E+0000
 51
 1.80000000000000E+0002
  0
LINE
  8
0
 10
 4.34406000000065E+0002
 20
 2.25187500000000E+0002
 11
 4.34406000000065E+0002
 21
 2.01812500000000E+0002
  0
ARC
  8
0
 10
 4.72906000000085E+0002
 20
 2.01812500000000E+0002
 40
 1.65000000000000E+0001
 50
 1.80000000000000E+0002
 51
 3.60000000000000E+0002
  0
LINE
  8
0
 10
 4.56406000000085E+0002
 20
 2.01812500000000E+0002
 11
 4.56406000000085E+0002
 21
 2.25187500000000E+0002
  0
ARC
  8
0
 10
 4.72906000000085E+0002
 20
 2.25187500000000E+0002
 40
 1.65000000000000E+0001
 50
 0.00000000000000E+0000
 51
 1.80000000000000E+0002
  0
LINE
  8
0
 10
 4.89406000000085E+0002
 20
 2.25187500000000E+0002
 11
 4.89406000000085E+0002
 21
 2.09375000000000E+0002
  0
LINE
  8
0
 10
 4.89406000000085E+0002
 20
 2.09375000000000E+0002
 11
 4.67406000000085E+0002
 21
 2.09375000000000E+0002
  0
LINE
  8
0
 10
 4.67406000000085E+0002
 20
 2.09375000000000E+0002
 11
 4.67406000000085E+0002
 21
 2.01812500000000E+0002
  0
ARC
  8
0
 10
 4.72906000000085E+0002
 20
 2.01812500000000E+0002
 40
 5.50000000000000E+0000
 50
 1.80000000000000E+0002
 51
 3.60000000000000E+0002
  0
LINE
  8
0
 10
 4.78406000000085E+0002
 20
 2.01812500000000E+0002
 11
 4.89406000000085E+0002
 21
 2.01812500000000E+0002
  0
LINE
  8
0
 10
 4.67406000000085E+0002
 20
 2.18312500000000E+0002
 11
 4.67406000000085E+0002
 21
 2.25187500000000E+0002
  0
ARC
  8
0
 10
 4.72906000000085E+0002
 20
 2.25187500000000E+0002
 40
 5.50000000000000E+0000
 50
 0.00000000000000E+0000
 51
 1.80000000000000E+0002
  0
LINE
  8
0
 10
 4.78406000000085E+0002
 20
 2.25187500000000E+0002
 11
 4.78406000000085E+0002
 21
 2.18312500000000E+0002
  0
LINE
  8
0
 10
 4.78406000000085E+0002
 20
 2.18312500000000E+0002
 11
 4.67406000000085E+0002
 21
 2.18312500000000E+0002
  0
LINE
  8
0
 10
 4.96281000000105E+0002
 20
 2.01812500000000E+0002
 11
 5.06593500000105E+0002
 21
 2.01812500000000E+0002
  0
ARC
  8
0
 10
 5.12781000000105E+0002
 20
 2.01812500000000E+0002
 40
 6.18750000000000E+0000
 50
 1.80000000000000E+0002
 51
 4.26104500000000E+0002
  0
LINE
  8
0
 10
 5.15287369265047E+0002
 20
 2.07469643215242E+0002
 11
 5.06375834100809E+0002
 21
 2.10730356227716E+0002
  0
ARC
  8
0
 10
 5.12781000000105E+0002
 20
 2.25187500000000E+0002
 40
 1.58125000000000E+0001
 50
 0.00000000000000E+0000
 51
 2.46104500000000E+0002
  0
LINE
  8
0
 10
 5.28593500000105E+0002
 20
 2.25187500000000E+0002
 11
 5.18281000000105E+0002
 21
 2.25187500000000E+0002
  0
ARC
  8
0
 10
 5.12781000000105E+0002
 20
 2.25187500000000E+0002
 40
 5.50000000000000E+0000
 50
 0.00000000000000E+0000
 51
 2.46104500000000E+0002
  0
LINE
  8
0
 10
 5.10553116209046E+0002
 20
 2.20158928253119E+0002
 11
 5.19464651373284E+0002
 21
 2.16898215240644E+0002
  0
ARC
  8
0
 10
 5.12781000000105E+0002
 20
 2.01812500000000E+0002
 40
 1.65000000000000E+0001
 50
 1.80000000000000E+0002
 51
 4.26104500000000E+0002
  0
LINE
  8
0
 10
 5.69685000000000E+0001
 20
 6.70000000000000E+0001
 11
 5.69685000000000E+0001
 21
 1.44000000000000E+0002
  0
LINE
  8
0
 10
 5.69685000000000E+0001
 20
 1.44000000000000E+0002
 11
 6.79685000000000E+0001
 21
 1.44000000000000E+0002
  0
LINE
  8
0
 10
 6.79685000000000E+0001
 20
 1.44000000000000E+0002
 11
 6.79685000000000E+0001
 21
 7.80000000000000E+0001
  0
LINE
  8
0
 10
 6.79685000000000E+0001
 20
 7.80000000000000E+0001
 11
 8.99685000000000E+0001
 21
 7.80000000000000E+0001
  0
LINE
  8
0
 10
 8.99685000000000E+0001
 20
 7.80000000000000E+0001
 11
 8.99685000000000E+0001
 21
 6.70000000000000E+0001
  0
LINE
  8
0
 10
 8.99685000000000E+0001
 20
 6.70000000000000E+0001
 11
 5.69685000000000E+0001
 21
 6.70000000000000E+0001
  0
LINE
  8
0
 10
 1.28468500000020E+0002
 20
 6.70000000000000E+0001
 11
 1.17468500000020E+0002
 21
 6.70000000000000E+0001
  0
LINE
  8
0
 10
 1.17468500000020E+0002
 20
 6.70000000000000E+0001
 11
 1.17468498745951E+0002
 21
 7.24999976486225E+0001
  0
ARC
  8
0
 10
 1.07156000000020E+0002
 20
 7.80000000000000E+0001
 40
 1.16875000000000E+0001
 50
 1.80000000000000E+0002
 51
 3.31927500000000E+0002
  0
LINE
  8
0
 10
 9.54685000000200E+0001
 20
 7.80000000000000E+0001
 11
 9.54685000000200E+0001
 21
 8.62500000000000E+0001
  0
ARC
  8
0
 10
 1.09218500000020E+0002
 20
 8.62500000000000E+0001
 40
 1.37500000000000E+0001
 50
 9.00000000000000E+0001
 51
 1.80000000000000E+0002
  0
LINE
  8
0
 10
 1.09218500000020E+0002
 20
 1.00000000000000E+0002
 11
 1.17468500000020E+0002
 21
 1.00000000000000E+0002
  0
LINE
  8
0
 10
 1.17468500000020E+0002
 20
 1.00000000000000E+0002
 11
 1.17468500000020E+0002
 21
 1.06187500000000E+0002
  0
ARC
  8
0
 10
 1.11968500000020E+0002
 20
 1.06187500000000E+0002
 40
 5.50000000000000E+0000
 50
 0.00000000000000E+0000
 51
 1.80000000000000E+0002
  0
LINE
  8
0
 10
 1.06468500000020E+0002
 20
 1.06187500000000E+0002
 11
 9.54685000000200E+0001
 21
 1.06187500000000E+0002
  0
ARC
  8
0
 10
 1.11968500000020E+0002
 20
 1.06187500000000E+0002
 40
 1.65000000000000E+0001
 50
 0.00000000000000E+0000
 51
 1.80000000000000E+0002
  0
LINE
  8
0
 10
 1.28468500000020E+0002
 20
 1.06187500000000E+0002
 11
 1.28468500000020E+0002
 21
 6.70000000000000E+0001
  0
LINE
  8
0
 10
 1.17468500000020E+0002
 20
 9.10625000000000E+0001
 11
 1.17468500000020E+0002
 21
 8.28125000000000E+0001
  0
ARC
  8
0
 10
 1.11968500000020E+0002
 20
 8.28125000000000E+0001
 40
 5.50000000000000E+0000
 50
 1.80000000000000E+0002
 51
 3.60000000000000E+0002
  0
LINE
  8
0
 10
 1.06468500000020E+0002
 20
 8.28125000000000E+0001
 11
 1.06468500000020E+0002
 21
 8.55625000000000E+0001
  0
ARC
  8
0
 10
 1.11968500000020E+0002
 20
 8.55625000000000E+0001
 40
 5.50000000000000E+0000
 50
 9.00000000000000E+0001
 51
 1.80000000000000E+0002
  0
LINE
  8
0
 10
 1.11968500000020E+0002
 20
 9.10625000000000E+0001
 11
 1.17468500000020E+0002
 21
 9.10625000000000E+0001
  0
LINE
  8
0
 10
 1.71093500000040E+0002
 20
 6.70000000000000E+0001
 11
 1.60093500000040E+0002
 21
 6.70000000000000E+0001
  0
LINE
  8
0
 10
 1.60093500000040E+0002
 20
 6.70000000000000E+0001
 11
 1.60093499705903E+0002
 21
 7.24999994484931E+0001
  0
ARC
  8
0
 10
 1.49781000000040E+0002
 20
 7.80000000000000E+0001
 40
 1.16875000000000E+0001
 50
 1.80000000000000E+0002
 51
 3.31927510000000E+0002
  0
LINE
  8
0
 10
 1.38093500000040E+0002
 20
 7.80000000000000E+0001
 11
 1.38093500000040E+0002
 21
 1.11000000000000E+0002
  0
ARC
  8
0
 10
 1.49781000000040E+0002
 20
 1.11000000000000E+0002
 40
 1.16875000000000E+0001
 50
 2.80724900000000E+0001
 51
 1.80000000000000E+0002
  0
LINE
  8
0
 10
 1.60093499705903E+0002
 20
 1.16500000551506E+0002
 11
 1.60093500000040E+0002
 21
 1.44000000000000E+0002
  0
LINE
  8
0
 10
 1.60093500000040E+0002
 20
 1.44000000000000E+0002
 11
 1.71093500000040E+0002
 21
 1.44000000000000E+0002
  0
LINE
  8
0
 10
 1.71093500000040E+0002
 20
 1.44000000000000E+0002
 11
 1.71093500000040E+0002
 21
 6.70000000000000E+0001
  0
ARC
  8
0
 10
 1.54593500000040E+0002
 20
 8.28125000000000E+0001
 40
 5.50000000000000E+0000
 50
 1.80000000000000E+0002
 51
 3.60000000000000E+0002
  0
LINE
  8
0
 10
 1.49093500000040E+0002
 20
 8.28125000000000E+0001
 11
 1.49093500000040E+0002
 21
 1.06187500000000E+0002
  0
ARC
  8
0
 10
 1.54593500000040E+0002
 20
 1.06187500000000E+0002
 40
 5.50000000000000E+0000
 50
 0.00000000000000E+0000
 51
 1.80000000000000E+0002
  0
LINE
  8
0
 10
 1.60093500000040E+0002
 20
 1.06187500000000E+0002
 11
 1.60093500000040E+0002
 21
 8.28125000000000E+0001
  0
ARC
  8
0
 10
 1.98593500000060E+0002
 20
 8.28125000000000E+0001
 40
 1.65000000000000E+0001
 50
 1.80000000000000E+0002
 51
 3.60000000000000E+0002
  0
LINE
  8
0
 10
 1.82093500000060E+0002
 20
 8.28125000000000E+0001
 11
 1.82093500000060E+0002
 21
 1.06187500000000E+0002
  0
ARC
  8
0
 10
 1.98593500000060E+0002
 20
 1.06187500000000E+0002
 40
 1.65000000000000E+0001
 50
 0.00000000000000E+0000
 51
 1.80000000000000E+0002
  0
LINE
  8
0
 10
 2.15093500000060E+0002
 20
 1.06187500000000E+0002
 11
 2.15093500000060E+0002
 21
 9.03750000000000E+0001
  0
LINE
  8
0
 10
 2.15093500000060E+0002
 20
 9.03750000000000E+0001
 11
 1.93093500000060E+0002
 21
 9.03750000000000E+0001
  0
LINE
  8
0
 10
 1.93093500000060E+0002
 20
 9.03750000000000E+0001
 11
 1.93093500000060E+0002
 21
 8.28125000000000E+0001
  0
ARC
  8
0
 10
 1.98593500000060E+0002
 20
 8.28125000000000E+0001
 40
 5.50000000000000E+0000
 50
 1.80000000000000E+0002
 51
 3.60000000000000E+0002
  0
LINE
  8
0
 10
 2.04093500000060E+0002
 20
 8.28125000000000E+0001
 11
 2.15093500000060E+0002
 21
 8.28125000000000E+0001
  0
LINE
  8
0
 10
 1.93093500000060E+0002
 20
 9.93125000000000E+0001
 11
 1.93093500000060E+0002
 21
 1.06187500000000E+0002
  0
ARC
  8
0
 10
 1.98593500000060E+0002
 20
 1.06187500000000E+0002
 40
 5.50000000000000E+0000
 50
 0.00000000000000E+0000
 51
 1.80000000000000E+0002
  0
LINE
  8
0
 10
 2.04093500000060E+0002
 20
 1.06187500000000E+0002
 11
 2.04093500000060E+0002
 21
 9.93125000000000E+0001
  0
LINE
  8
0
 10
 2.04093500000060E+0002
 20
 9.93125000000000E+0001
 11
 1.93093500000060E+0002
 21
 9.93125000000000E+0001
  0
LINE
  8
0
 10
 2.35031000000080E+0002
 20
 6.70000000000000E+0001
 11
 2.20593500000080E+0002
 21
 1.22000000000000E+0002
  0
LINE
  8
0
 10
 2.20593500000080E+0002
 20
 1.22000000000000E+0002
 11
 2.32281000000080E+0002
 21
 1.22000000000000E+0002
  0
LINE
  8
0
 10
 2.32281000000080E+0002
 20
 1.22000000000000E+0002
 11
 2.39843500000080E+0002
 21
 8.62500000000000E+0001
  0
LINE
  8
0
 10
 2.39843500000080E+0002
 20
 8.62500000000000E+0001
 11
 2.47406000000080E+0002
 21
 1.22000000000000E+0002
  0
LINE
  8
0
 10
 2.47406000000080E+0002
 20
 1.22000000000000E+0002
 11
 2.59093500000080E+0002
 21
 1.22000000000000E+0002
  0
LINE
  8
0
 10
 2.59093500000080E+0002
 20
 1.22000000000000E+0002
 11
 2.44656000000080E+0002
 21
 6.70000000000000E+0001
  0
LINE
  8
0
 10
 2.44656000000080E+0002
 20
 6.70000000000000E+0001
 11
 2.35031000000080E+0002
 21
 6.70000000000000E+0001
  0
LINE
  8
0
 10
 2.64593500000070E+0002
 20
 8.28125000000000E+0001
 11
 2.64593500000070E+0002
 21
 1.06187500000000E+0002
  0
ARC
  8
0
 10
 2.81093500000070E+0002
 20
 1.06187500000000E+0002
 40
 1.65000000000000E+0001
 50
 0.00000000000000E+0000
 51
 1.80000000000000E+0002
  0
LINE
  8
0
 10
 2.97593500000070E+0002
 20
 1.06187500000000E+0002
 11
 2.97593500000070E+0002
 21
 8.28125000000000E+0001
  0
ARC
  8
0
 10
 2.81093500000070E+0002
 20
 8.28125000000000E+0001
 40
 1.65000000000000E+0001
 50
 1.80000000000000E+0002
 51
 3.60000000000000E+0002
  0
LINE
  8
0
 10
 2.75593500000070E+0002
 20
 8.28125000000000E+0001
 11
 2.75593500000070E+0002
 21
 1.06187500000000E+0002
  0
ARC
  8
0
 10
 2.81093500000070E+0002
 20
 1.06187500000000E+0002
 40
 5.50000000000000E+0000
 50
 0.00000000000000E+0000
 51
 1.80000000000000E+0002
  0
LINE
  8
0
 10
 2.86593500000070E+0002
 20
 1.06187500000000E+0002
 11
 2.86593500000070E+0002
 21
 8.28125000000000E+0001
  0
ARC
  8
0
 10
 2.81093500000070E+0002
 20
 8.28125000000000E+0001
 40
 5.50000000000000E+0000
 50
 1.80000000000000E+0002
 51
 3.60000000000000E+0002
  0
LINE
  8
0
 10
 3.08593500000090E+0002
 20
 6.70000000000000E+0001
 11
 3.08593500000090E+0002
 21
 1.22000000000000E+0002
  0
LINE
  8
0
 10
 3.08593500000090E+0002
 20
 1.22000000000000E+0002
 11
 3.19593500000090E+0002
 21
 1.22000000000000E+0002
  0
LINE
  8
0
 10
 3.19593500000090E+0002
 20
 1.22000000000000E+0002
 11
 3.19593499741685E+0002
 21
 1.15792261569817E+0002
  0
ARC
  8
0
 10
 3.34031000000090E+0002
 20
 1.04125000000000E+0002
 40
 1.85625000000000E+0001
 50
 9.00000000000000E+0001
 51
 1.41057560000000E+0002
  0
LINE
  8
0
 10
 3.34031000000090E+0002
 20
 1.22687500000000E+0002
 11
 3.34031007866798E+0002
 21
 1.11136592767619E+0002
  0
ARC
  8
0
 10
 3.30593500000090E+0002
 20
 1.00687500000000E+0002
 40
 1.10000000000000E+0001
 50
 7.17900000000000E+0001
 51
 1.80000000000000E+0002
  0
LINE
  8
0
 10
 3.19593500000090E+0002
 20
 1.00687500000000E+0002
 11
 3.19593500000090E+0002
 21
 6.70000000000000E+0001
  0
LINE
  8
0
 10
 3.19593500000090E+0002
 20
 6.70000000000000E+0001
 11
 3.08593500000090E+0002
 21
 6.70000000000000E+0001
  0
ARC
  8
0
 10
 3.56031000000095E+0002
 20
 6.08125000000000E+0001
 40
 5.50000000000000E+0000
 50
 1.80000000000000E+0002
 51
 3.60000000000000E+0002
  0
LINE
  8
0
 10
 3.61531000000095E+0002
 20
 6.08125000000000E+0001
 11
 3.61530999705958E+0002
 21
 7.24999994484931E+0001
  0
ARC
  8
0
 10
 3.51218500000095E+0002
 20
 7.80000000000000E+0001
 40
 1.16875000000000E+0001
 50
 1.80000000000000E+0002
 51
 3.31927510000000E+0002
  0
LINE
  8
0
 10
 3.39531000000095E+0002
 20
 7.80000000000000E+0001
 11
 3.39531000000095E+0002
 21
 1.11000000000000E+0002
  0
ARC
  8
0
 10
 3.51218500000095E+0002
 20
 1.11000000000000E+0002
 40
 1.16875000000000E+0001
 50
 2.80724900000000E+0001
 51
 1.80000000000000E+0002
  0
LINE
  8
0
 10
 3.61530999705958E+0002
 20
 1.16500000551506E+0002
 11
 3.61531000000095E+0002
 21
 1.22000000000000E+0002
  0
LINE
  8
0
 10
 3.61531000000095E+0002
 20
 1.22000000000000E+0002
 11
 3.72531000000095E+0002
 21
 1.22000000000000E+0002
  0
LINE
  8
0
 10
 3.72531000000095E+0002
 20
 1.22000000000000E+0002
 11
 3.72531000000095E+0002
 21
 6.08125000000000E+0001
  0
ARC
  8
0
 10
 3.56031000000095E+0002
 20
 6.08125000000000E+0001
 40
 1.65000000000000E+0001
 50
 1.80000000000000E+0002
 51
 3.60000000000000E+0002
  0
LINE
  8
0
 10
 3.39531000000095E+0002
 20
 6.08125000000000E+0001
 11
 3.50531000000095E+0002
 21
 6.08125000000000E+0001
  0
ARC
  8
0
 10
 3.56031000000095E+0002
 20
 8.28125000000000E+0001
 40
 5.50000000000000E+0000
 50
 1.80000000000000E+0002
 51
 3.60000000000000E+0002
  0
LINE
  8
0
 10
 3.50531000000095E+0002
 20
 8.28125000000000E+0001
 11
 3.50531000000095E+0002
 21
 1.06187500000000E+0002
  0
ARC
  8
0
 10
 3.56031000000095E+0002
 20
 1.06187500000000E+0002
 40
 5.50000000000000E+0000
 50
 0.00000000000000E+0000
 51
 1.80000000000000E+0002
  0
LINE
  8
0
 10
 3.61531000000095E+0002
 20
 1.06187500000000E+0002
 11
 3.61531000000095E+0002
 21
 8.28125000000000E+0001
  0
LINE
  8
0
 10
 4.15156000000115E+0002
 20
 6.70000000000000E+0001
 11
 4.04156000000115E+0002
 21
 6.70000000000000E+0001
  0
LINE
  8
0
 10
 4.04156000000115E+0002
 20
 6.70000000000000E+0001
 11
 4.04155998746047E+0002
 21
 7.24999976486225E+0001
  0
ARC
  8
0
 10
 3.93843500000115E+0002
 20
 7.80000000000000E+0001
 40
 1.16875000000000E+0001
 50
 1.80000000000000E+0002
 51
 3.31927500000000E+0002
  0
LINE
  8
0
 10
 3.82156000000115E+0002
 20
 7.80000000000000E+0001
 11
 3.82156000000115E+0002
 21
 8.62500000000000E+0001
  0
ARC
  8
0
 10
 3.95906000000115E+0002
 20
 8.62500000000000E+0001
 40
 1.37500000000000E+0001
 50
 9.00000000000000E+0001
 51
 1.80000000000000E+0002
  0
LINE
  8
0
 10
 3.95906000000115E+0002
 20
 1.00000000000000E+0002
 11
 4.04156000000115E+0002
 21
 1.00000000000000E+0002
  0
LINE
  8
0
 10
 4.04156000000115E+0002
 20
 1.00000000000000E+0002
 11
 4.04156000000115E+0002
 21
 1.06187500000000E+0002
  0
ARC
  8
0
 10
 3.98656000000115E+0002
 20
 1.06187500000000E+0002
 40
 5.50000000000000E+0000
 50
 0.00000000000000E+0000
 51
 1.80000000000000E+0002
  0
LINE
  8
0
 10
 3.93156000000115E+0002
 20
 1.06187500000000E+0002
 11
 3.82156000000115E+0002
 21
 1.06187500000000E+0002
  0
ARC
  8
0
 10
 3.98656000000115E+0002
 20
 1.06187500000000E+0002
 40
 1.65000000000000E+0001
 50
 0.00000000000000E+0000
 51
 1.80000000000000E+0002
  0
LINE
  8
0
 10
 4.15156000000115E+0002
 20
 1.06187500000000E+0002
 11
 4.15156000000115E+0002
 21
 6.70000000000000E+0001
  0
LINE
  8
0
 10
 4.04156000000115E+0002
 20
 9.10625000000000E+0001
 11
 4.04156000000115E+0002
 21
 8.28125000000000E+0001
  0
ARC
  8
0
 10
 3.98656000000115E+0002
 20
 8.28125000000000E+0001
 40
 5.50000000000000E+0000
 50
 1.80000000000000E+0002
 51
 3.60000000000000E+0002
  0
LINE
  8
0
 10
 3.93156000000115E+0002
 20
 8.28125000000000E+0001
 11
 3.93156000000115E+0002
 21
 8.55625000000000E+0001
  0
ARC
  8
0
 10
 3.98656000000115E+0002
 20
 8.55625000000000E+0001
 40
 5.50000000000000E+0000
 50
 9.00000000000000E+0001
 51
 1.80000000000000E+0002
  0
LINE
  8
0
 10
 3.98656000000115E+0002
 20
 9.10625000000000E+0001
 11
 4.04156000000115E+0002
 21
 9.10625000000000E+0001
  0
LINE
  8
0
 10
 4.26156000000135E+0002
 20
 6.70000000000000E+0001
 11
 4.26156000000135E+0002
 21
 1.22000000000000E+0002
  0
LINE
  8
0
 10
 4.26156000000135E+0002
 20
 1.22000000000000E+0002
 11
 4.37156000000135E+0002
 21
 1.22000000000000E+0002
  0
LINE
  8
0
 10
 4.37156000000135E+0002
 20
 1.22000000000000E+0002
 11
 4.37156000294272E+0002
 21
 1.16500000551506E+0002
  0
ARC
  8
0
 10
 4.47468500000135E+0002
 20
 1.11000000000000E+0002
 40
 1.16875000000000E+0001
 50
 0.00000000000000E+0000
 51
 1.51927510000000E+0002
  0
LINE
  8
0
 10
 4.59156000000135E+0002
 20
 1.11000000000000E+0002
 11
 4.59156000000135E+0002
 21
 6.70000000000000E+0001
  0
LINE
  8
0
 10
 4.59156000000135E+0002
 20
 6.70000000000000E+0001
 11
 4.48156000000135E+0002
 21
 6.70000000000000E+0001
  0
LINE
  8
0
 10
 4.48156000000135E+0002
 20
 6.70000000000000E+0001
 11
 4.48156000000135E+0002
 21
 1.06187500000000E+0002
  0
ARC
  8
0
 10
 4.42656000000135E+0002
 20
 1.06187500000000E+0002
 40
 5.50000000000000E+0000
 50
 0.00000000000000E+0000
 51
 1.80000000000000E+0002
  0
LINE
  8
0
 10
 4.37156000000135E+0002
 20
 1.06187500000000E+0002
 11
 4.37156000000135E+0002
 21
 6.70000000000000E+0001
  0
LINE
  8
0
 10
 4.37156000000135E+0002
 20
 6.70000000000000E+0001
 11
 4.26156000000135E+0002
 21
 6.70000000000000E+0001
  0
ARC
  8
0
 10
 4.85281000000155E+0002
 20
 6.08125000000000E+0001
 40
 5.50000000000000E+0000
 50
 1.80000000000000E+0002
 51
 3.60000000000000E+0002
  0
LINE
  8
0
 10
 4.90781000000155E+0002
 20
 6.08125000000000E+0001
 11
 4.90780999706018E+0002
 21
 7.24999994484931E+0001
  0
ARC
  8
0
 10
 4.80468500000155E+0002
 20
 7.80000000000000E+0001
 40
 1.16875000000000E+0001
 50
 1.80000000000000E+0002
 51
 3.31927510000000E+0002
  0
LINE
  8
0
 10
 4.68781000000155E+0002
 20
 7.80000000000000E+0001
 11
 4.68781000000155E+0002
 21
 1.11000000000000E+0002
  0
ARC
  8
0
 10
 4.80468500000155E+0002
 20
 1.11000000000000E+0002
 40
 1.16875000000000E+0001
 50
 2.80724900000000E+0001
 51
 1.80000000000000E+0002
  0
LINE
  8
0
 10
 4.90780999706018E+0002
 20
 1.16500000551506E+0002
 11
 4.90781000000155E+0002
 21
 1.22000000000000E+0002
  0
LINE
  8
0
 10
 4.90781000000155E+0002
 20
 1.22000000000000E+0002
 11
 5.01781000000155E+0002
 21
 1.22000000000000E+0002
  0
LINE
  8
0
 10
 5.01781000000155E+0002
 20
 1.22000000000000E+0002
 11
 5.01781000000155E+0002
 21
 6.08125000000000E+0001
  0
ARC
  8
0
 10
 4.85281000000155E+0002
 20
 6.08125000000000E+0001
 40
 1.65000000000000E+0001
 50
 1.80000000000000E+0002
 51
 3.60000000000000E+0002
  0
LINE
  8
0
 10
 4.68781000000155E+0002
 20
 6.08125000000000E+0001
 11
 4.79781000000155E+0002
 21
 6.08125000000000E+0001
  0
ARC
  8
0
 10
 4.85281000000155E+0002
 20
 8.28125000000000E+0001
 40
 5.50000000000000E+0000
 50
 1.80000000000000E+0002
 51
 3.60000000000000E+0002
  0
LINE
  8
0
 10
 4.79781000000155E+0002
 20
 8.28125000000000E+0001
 11
 4.79781000000155E+0002
 21
 1.06187500000000E+0002
  0
ARC
  8
0
 10
 4.85281000000155E+0002
 20
 1.06187500000000E+0002
 40
 5.50000000000000E+0000
 50
 0.00000000000000E+0000
 51
 1.80000000000000E+0002
  0
LINE
  8
0
 10
 4.90781000000155E+0002
 20
 1.06187500000000E+0002
 11
 4.90781000000155E+0002
 21
 8.28125000000000E+0001
  0
LINE
  8
0
 10
 5.10031000000175E+0002
 20
 8.28125000000000E+0001
 11
 5.20343500000175E+0002
 21
 8.28125000000000E+0001
  0
ARC
  8
0
 10
 5.26531000000175E+0002
 20
 8.28125000000000E+0001
 40
 6.18750000000000E+0000
 50
 1.80000000000000E+0002
 51
 4.26104500000000E+0002
  0
LINE
  8
0
 10
 5.29037369265117E+0002
 20
 8.84696432152416E+0001
 11
 5.20125834100879E+0002
 21
 9.17303562277159E+0001
  0
ARC
  8
0
 10
 5.26531000000175E+0002
 20
 1.06187500000000E+0002
 40
 1.58125000000000E+0001
 50
 0.00000000000000E+0000
 51
 2.46104500000000E+0002
  0
LINE
  8
0
 10
 5.42343500000175E+0002
 20
 1.06187500000000E+0002
 11
 5.32031000000175E+0002
 21
 1.06187500000000E+0002
  0
ARC
  8
0
 10
 5.26531000000175E+0002
 20
 1.06187500000000E+0002
 40
 5.50000000000000E+0000
 50
 0.00000000000000E+0000
 51
 2.46104500000000E+0002
  0
LINE
  8
0
 10
 5.24303116209116E+0002
 20
 1.01158928253118E+0002
 11
 5.33214651373354E+0002
 21
 9.78982152406443E+0001
  0
ARC
  8
0
 10
 5.26531000000175E+0002
 20
 8.28125000000000E+0001
 40
 1.65000000000000E+0001
 50
 1.80000000000000E+0002
 51
 4.26104500000000E+0002
  0
ENDSEC
  0
EOF
