  0
SECTION
  2
HEADER
  9
$ACADVER
  1
AC1003
  9
$INSBASE
 10
0.0
 20
0.0
  9
$EXTMIN
 10
 0.00000000000000E+0000
 20
 0.00000000000000E+0000
  9
$EXTMAX
 10
 1.00000000000000E+0002
 20
 7.50000000000000E+0001
  9
$LIMMIN
 10
0.0
 20
0.0
  9
$LIMMAX
 10
410.0
 20
287.0
  9
$VIEWCTR
 10
227.0059616
 20
165.058879 
  9
$VIEWSIZE
 40
 1.00000000000000E+0002
9
$SNAPMODE
70
0
9
$SNAPUNIT
10
1
20
1
9
$GRIDMODE
70
0
9
$GRIDUNIT
10
1
20
1
9
$ORTHOMODE
70
0
9
$rEGENMODE
70
1
9
$FILLMODE
70
1
9
$DRAGMODE
70
2
9
$LTSCALE
40
25.0
9
$OSMODE
70
0
9
$ATTMODE
70
1
9
$TRACEWID
40
1.0
9
$TEXTSTYLE
7
STANDARD
9
$CLAYER
8
0
9
$CELTYPE
6
VONLAYER
9
$CECOLOR
62
256
9
$LUNITS
70
2
9
$LUPREC
70
2
9
$AXISMODE
70
0
9
$AXISUNIT
10
0
20
0
9
$SKETCHINC
40
1.0
9
$FILLETRAD
40
0.0
9
$AUNITS
70
0
9
$AUPREC
70
0
9
$MENU
1
ACAD
9
$ELEVATION
40
0.0
9
$THICKNESS
40
0.0
9
$VIEWDIR
10
0.0
20
0.0
30
1.0
9
$LIMCHECK
70
0
9
$BLIPMODE
70
1
9
$CHAMFERA
40
0.0
9
$CHAMFERB
40
0.0
9
$USRTIMER
70
1
9
$ANGBASE
50
0.0
9
$ANGDIR
70
0
9
$PDMODE
70
0
9
$PDSIZE
40
0.0
9
$PLINEWID
40
0.0
9
$COORDS
70
0
0
ENDSEC
0
SECTION
2
TABLES
0
TABLE
2
LTYPE
70
1
0
LTYPE
2
AUSGEZOGEN
70
64
3
Ausgezogene Linie
72
65
73
0
40
0.0
0
ENDTAB
0
TABLE
2
LAYER
70
1
0
LAYER
2
0
70
0
62
7
6
AUSGEZOGEN
0
ENDTAB
0
TABLE
2
STYLE
70
1
0
STYLE
2
STANDARD
70
0
40
0.0
41
1.0
50
0.0
71
0
42
3.5
3
txt
4

0
ENDTAB
0
TABLE
2
VIEW
70
0
0
ENDTAB
0
ENDSEC
0
SECTION
2
BLOCKS
0
ENDSEC
0
SECTION
2
ENTITIES
  0
LINE
  8
0
 10
 1.50000000000000E+0000
 20
 7.50000000000000E+0001
 11
 9.85000000000000E+0001
 21
 7.50000000000000E+0001
  0
ARC
  8
0
 10
 9.85000000000000E+0001
 20
 7.35000000000000E+0001
 40
 1.50000000000000E+0000
 50
 0.00000000000000E+0000
 51
 9.00000000000000E+0001
  0
LINE
  8
0
 10
 1.00000000000000E+0002
 20
 7.35000000000000E+0001
 11
 1.00000000000000E+0002
 21
 1.50000000000000E+0000
  0
ARC
  8
0
 10
 9.85000000000000E+0001
 20
 1.50000000000000E+0000
 40
 1.50000000000000E+0000
 50
 2.70000000000000E+0002
 51
 3.60000000000000E+0002
  0
LINE
  8
0
 10
 9.85000000000000E+0001
 20
 0.00000000000000E+0000
 11
 1.50000000000000E+0000
 21
 0.00000000000000E+0000
  0
ARC
  8
0
 10
 1.50000000000000E+0000
 20
 1.50000000000000E+0000
 40
 1.50000000000000E+0000
 50
 1.80000000000000E+0002
 51
 2.70000000000000E+0002
  0
LINE
  8
0
 10
 0.00000000000000E+0000
 20
 1.50000000000000E+0000
 11
 0.00000000000000E+0000
 21
 7.35000000000000E+0001
  0
ARC
  8
0
 10
 1.50000000000000E+0000
 20
 7.35000000000000E+0001
 40
 1.50000000000000E+0000
 50
 9.00000000000000E+0001
 51
 1.80000000000000E+0002
  0
LINE
  8
0
 10
 2.46010000000000E+0000
 20
 7.40000000000000E+0001
 11
 9.75500000000000E+0001
 21
 7.40000000000000E+0001
  0
ARC
  8
0
 10
 9.75500000000000E+0001
 20
 7.25500000000000E+0001
 40
 1.45000000000000E+0000
 50
 0.00000000000000E+0000
 51
 9.00000000000000E+0001
  0
LINE
  8
0
 10
 9.90000000000000E+0001
 20
 7.25500000000000E+0001
 11
 9.90000000000000E+0001
 21
 2.45000000000000E+0000
  0
ARC
  8
0
 10
 9.75500000000000E+0001
 20
 2.45000000000000E+0000
 40
 1.45000000000000E+0000
 50
 2.70000000000000E+0002
 51
 3.60000000000000E+0002
  0
LINE
  8
0
 10
 9.75500000000000E+0001
 20
 1.00000000000000E+0000
 11
 2.45000000000000E+0000
 21
 1.00000000000000E+0000
  0
ARC
  8
0
 10
 2.45000000000000E+0000
 20
 2.45000000000000E+0000
 40
 1.45000000000000E+0000
 50
 1.80000000000000E+0002
 51
 2.70000000000000E+0002
  0
LINE
  8
0
 10
 1.00000000000000E+0000
 20
 2.45000000000000E+0000
 11
 1.00000000000000E+0000
 21
 7.25500000000000E+0001
  0
ARC
  8
0
 10
 2.45000000000000E+0000
 20
 7.25500000000000E+0001
 40
 1.45000000000000E+0000
 50
 9.00000000000000E+0001
 51
 1.80000000000000E+0002
  0
LINE
  8
0
 10
 5.00000000000000E+0000
 20
 7.00000000000000E+0001
 11
 9.50000000000000E+0001
 21
 7.00000000000000E+0001
  0
LINE
  8
0
 10
 9.50000000000000E+0001
 20
 7.00000000000000E+0001
 11
 9.50000000000000E+0001
 21
 5.00000000000000E+0000
  0
LINE
  8
0
 10
 9.50000000000000E+0001
 20
 5.00000000000000E+0000
 11
 5.00000000000000E+0000
 21
 5.00000000000000E+0000
  0
LINE
  8
0
 10
 5.00000000000000E+0000
 20
 5.00000000000000E+0000
 11
 5.00000000000000E+0000
 21
 7.00000000000000E+0001
  0
LINE
  8
0
 10
 3.75043571428571E+0001
 20
 9.27760000000000E+0000
 11
 3.75043571428571E+0001
 21
 1.78658035714286E+0001
  0
LINE
  8
0
 10
 3.75043571428571E+0001
 20
 1.78658035714286E+0001
 11
 3.64789000000000E+0001
 21
 1.78658035714286E+0001
  0
LINE
  8
0
 10
 3.64789000000000E+0001
 20
 1.78658035714286E+0001
 11
 3.64789000000000E+0001
 21
 1.95321714285714E+0001
  0
LINE
  8
0
 10
 3.64789000000000E+0001
 20
 1.95321714285714E+0001
 11
 3.75043571428571E+0001
 21
 1.95321714285714E+0001
  0
LINE
  8
0
 10
 3.75043571428571E+0001
 20
 1.95321714285714E+0001
 11
 3.75043571428571E+0001
 21
 2.10703571428571E+0001
  0
ARC
  8
0
 10
 4.00680000000000E+0001
 20
 2.10703571428571E+0001
 40
 2.56364285714286E+0000
 50
 9.00000000000000E+0001
 51
 1.80000000000000E+0002
  0
LINE
  8
0
 10
 4.00680000000000E+0001
 20
 2.36340000000000E+0001
 11
 4.16061857142857E+0001
 21
 2.36340000000000E+0001
  0
LINE
  8
0
 10
 4.16061857142857E+0001
 20
 2.36340000000000E+0001
 11
 4.16061857142857E+0001
 21
 2.17112678571429E+0001
  0
LINE
  8
0
 10
 4.16061857142857E+0001
 20
 2.17112678571429E+0001
 11
 4.01961821428571E+0001
 21
 2.17112678571429E+0001
  0
ARC
  8
0
 10
 4.01961821428571E+0001
 20
 2.10703571428571E+0001
 40
 6.40910714285714E-0001
 50
 9.00000000000000E+0001
 51
 1.80000000000000E+0002
  0
LINE
  8
0
 10
 3.95552714285714E+0001
 20
 2.10703571428571E+0001
 11
 3.95552714285714E+0001
 21
 1.95321714285714E+0001
  0
LINE
  8
0
 10
 3.95552714285714E+0001
 20
 1.95321714285714E+0001
 11
 4.16061857142857E+0001
 21
 1.95321714285714E+0001
  0
LINE
  8
0
 10
 4.16061857142857E+0001
 20
 1.95321714285714E+0001
 11
 4.16061857142857E+0001
 21
 1.78658035714286E+0001
  0
LINE
  8
0
 10
 4.16061857142857E+0001
 20
 1.78658035714286E+0001
 11
 3.95552714285714E+0001
 21
 1.78658035714286E+0001
  0
LINE
  8
0
 10
 3.95552714285714E+0001
 20
 1.78658035714286E+0001
 11
 3.95552714285714E+0001
 21
 9.27760000000000E+0000
  0
LINE
  8
0
 10
 3.95552714285714E+0001
 20
 9.27760000000000E+0000
 11
 3.75043571428571E+0001
 21
 9.27760000000000E+0000
  0
LINE
  8
0
 10
 4.39134642857143E+0001
 20
 9.27760000000000E+0000
 11
 4.39134642857143E+0001
 21
 1.95321714285714E+0001
  0
LINE
  8
0
 10
 4.39134642857143E+0001
 20
 1.95321714285714E+0001
 11
 4.59643785714286E+0001
 21
 1.95321714285714E+0001
  0
LINE
  8
0
 10
 4.59643785714286E+0001
 20
 1.95321714285714E+0001
 11
 4.59643785232497E+0001
 21
 1.83747587532588E+0001
  0
ARC
  8
0
 10
 4.86562035714286E+0001
 20
 1.61994357142857E+0001
 40
 3.46091785714286E+0000
 50
 5.09772000000000E+0001
 51
 1.41057560000000E+0002
  0
LINE
  8
0
 10
 5.08352998796190E+0001
 20
 1.88882071239673E+0001
 11
 4.93785672909626E+0001
 21
 1.70907561266387E+0001
  0
ARC
  8
0
 10
 4.80152928571429E+0001
 20
 1.55585250000000E+0001
 40
 2.05091428571429E+0000
 50
 4.83395000000000E+0001
 51
 1.80000000000000E+0002
  0
LINE
  8
0
 10
 4.59643785714286E+0001
 20
 1.55585250000000E+0001
 11
 4.59643785714286E+0001
 21
 9.27760000000000E+0000
  0
LINE
  8
0
 10
 4.59643785714286E+0001
 20
 9.27760000000000E+0000
 11
 4.39134642857143E+0001
 21
 9.27760000000000E+0000
  0
LINE
  8
0
 10
 6.03207785714304E+0001
 20
 1.36357928571428E+0001
 11
 5.39116714285733E+0001
 21
 1.36357928571428E+0001
  0
LINE
  8
0
 10
 5.39116714285733E+0001
 20
 1.36357928571428E+0001
 11
 5.39116714285733E+0001
 21
 1.33794285714285E+0001
  0
ARC
  8
0
 10
 5.60907678571447E+0001
 20
 1.33794285714285E+0001
 40
 2.17909642857143E+0000
 50
 1.80000000000000E+0002
 51
 2.48198600000000E+0002
  0
LINE
  8
0
 10
 5.52814720956808E+0001
 20
 1.13561881963151E+0001
 11
 5.52814705264165E+0001
 21
 1.13561839654207E+0001
  0
ARC
  8
0
 10
 5.63471321428590E+0001
 20
 1.40203392857142E+0001
 40
 2.86938290428571E+0000
 50
 2.48198600000000E+0002
 51
 3.19360800000000E+0002
  0
LINE
  8
0
 10
 5.85244941791784E+0001
 20
 1.21515287511222E+0001
 11
 6.00807810375094E+0001
 21
 1.08157815362896E+0001
  0
ARC
  8
0
 10
 5.63471321428590E+0001
 20
 1.40203392857142E+0001
 40
 4.92029719000000E+0000
 50
 2.48198600000000E+0002
 51
 3.19360800000000E+0002
  0
LINE
  8
0
 10
 5.45197803979798E+0001
 20
 9.45195773001988E+0000
 11
 5.45197819672441E+0001
 21
 9.45196196091422E+0000
  0
ARC
  8
0
 10
 5.60907678571447E+0001
 20
 1.33794285714285E+0001
 40
 4.23001071428571E+0000
 50
 1.80000000000000E+0002
 51
 2.48198600000000E+0002
  0
LINE
  8
0
 10
 5.18607571428590E+0001
 20
 1.33794285714285E+0001
 11
 5.18607571428590E+0001
 21
 1.54303428571428E+0001
  0
ARC
  8
0
 10
 5.60907678571447E+0001
 20
 1.54303428571428E+0001
 40
 4.23001071428571E+0000
 50
 0.00000000000000E+0000
 51
 1.80000000000000E+0002
  0
LINE
  8
0
 10
 6.03207785714304E+0001
 20
 1.54303428571428E+0001
 11
 6.03207785714304E+0001
 21
 1.36357928571428E+0001
  0
ARC
  8
0
 10
 5.60907678571447E+0001
 20
 1.54303428571428E+0001
 40
 2.17909642857143E+0000
 50
 0.00000000000000E+0000
 51
 1.80000000000000E+0002
  0
LINE
  8
0
 10
 5.82698642857162E+0001
 20
 1.54303428571428E+0001
 11
 5.39116714285733E+0001
 21
 1.54303428571428E+0001
  0
LINE
  8
0
 10
 6.31407857142857E+0001
 20
 9.27760000000000E+0000
 11
 6.31407857142857E+0001
 21
 1.95321714285714E+0001
  0
LINE
  8
0
 10
 6.31407857142857E+0001
 20
 1.95321714285714E+0001
 11
 6.51917000000000E+0001
 21
 1.95321714285714E+0001
  0
LINE
  8
0
 10
 6.51917000000000E+0001
 20
 1.95321714285714E+0001
 11
 6.51917000000000E+0001
 21
 9.27760000000000E+0000
  0
LINE
  8
0
 10
 6.51917000000000E+0001
 20
 9.27760000000000E+0000
 11
 6.31407857142857E+0001
 21
 9.27760000000000E+0000
  0
LINE
  8
0
 10
 6.31407857142857E+0001
 20
 2.15830857142857E+0001
 11
 6.31407857142857E+0001
 21
 2.36340000000000E+0001
  0
LINE
  8
0
 10
 6.31407857142857E+0001
 20
 2.36340000000000E+0001
 11
 6.51917000000000E+0001
 21
 2.36340000000000E+0001
  0
LINE
  8
0
 10
 6.51917000000000E+0001
 20
 2.36340000000000E+0001
 11
 6.51917000000000E+0001
 21
 2.15830857142857E+0001
  0
LINE
  8
0
 10
 6.51917000000000E+0001
 20
 2.15830857142857E+0001
 11
 6.31407857142857E+0001
 21
 2.15830857142857E+0001
  0
LINE
  8
0
 10
 3.45630000000000E+0001
 20
 3.70205000000000E+0001
 11
 3.98547000000000E+0001
 21
 3.70205000000000E+0001
  0
LINE
  8
0
 10
 3.98547000000000E+0001
 20
 3.70205000000000E+0001
 11
 3.98500000000000E+0001
 21
 3.21500000000000E+0001
  0
ARC
  8
0
 10
 3.85500000000000E+0001
 20
 3.21500000000000E+0001
 40
 1.30000000000000E+0000
 50
 2.70000000000000E+0002
 51
 3.60000000000000E+0002
  0
LINE
  8
0
 10
 3.85500000000000E+0001
 20
 3.08500000000000E+0001
 11
 3.59000000000000E+0001
 21
 3.08500000000000E+0001
  0
ARC
  8
0
 10
 3.59000000000000E+0001
 20
 3.21500000000000E+0001
 40
 1.30000000000000E+0000
 50
 1.80000000000000E+0002
 51
 2.70000000000000E+0002
  0
LINE
  8
0
 10
 3.46000000000000E+0001
 20
 3.21500000000000E+0001
 11
 3.45630000000000E+0001
 21
 3.70205000000000E+0001
  0
LINE
  8
0
 10
 6.19039000000000E+0001
 20
 3.70205000000000E+0001
 11
 6.71958000000000E+0001
 21
 3.70205000000000E+0001
  0
LINE
  8
0
 10
 6.71958000000000E+0001
 20
 3.70205000000000E+0001
 11
 6.72000000000000E+0001
 21
 3.21500000000000E+0001
  0
ARC
  8
0
 10
 6.59000000000000E+0001
 20
 3.21500000000000E+0001
 40
 1.30000000000000E+0000
 50
 2.70000000000000E+0002
 51
 3.60000000000000E+0002
  0
LINE
  8
0
 10
 6.59000000000000E+0001
 20
 3.08500000000000E+0001
 11
 6.32500000000000E+0001
 21
 3.08500000000000E+0001
  0
ARC
  8
0
 10
 6.32500000000000E+0001
 20
 3.21500000000000E+0001
 40
 1.30000000000000E+0000
 50
 1.79995000000000E+0002
 51
 2.70000000000000E+0002
  0
LINE
  8
0
 10
 6.19500000049500E+0001
 20
 3.21501134464012E+0001
 11
 6.19039000000000E+0001
 21
 3.70205000000000E+0001
  0
LINE
  8
0
 10
 6.94021000000000E+0001
 20
 4.18289000000000E+0001
 11
 6.94000000000000E+0001
 21
 4.18500000000000E+0001
  0
ARC
  8
0
 10
 6.94000000000000E+0001
 20
 4.45000000000000E+0001
 40
 2.65000000000000E+0000
 50
 2.70000000000000E+0002
 51
 3.60000000000000E+0002
  0
LINE
  8
0
 10
 7.20500000000000E+0001
 20
 4.45000000000000E+0001
 11
 7.20500000000000E+0001
 21
 4.69500000000000E+0001
  0
ARC
  8
0
 10
 7.65000000000000E+0001
 20
 4.69500000000000E+0001
 40
 4.45000000000000E+0000
 50
 9.00000000000000E+0001
 51
 1.80000000000000E+0002
  0
LINE
  8
0
 10
 7.65000000000000E+0001
 20
 5.14000000000000E+0001
 11
 7.65000000000000E+0001
 21
 5.14000000000000E+0001
  0
ARC
  8
0
 10
 7.65000000000000E+0001
 20
 5.40500000000000E+0001
 40
 2.65000000000000E+0000
 50
 2.70000000000000E+0002
 51
 3.60000000000000E+0002
  0
LINE
  8
0
 10
 7.91500000000000E+0001
 20
 5.40500000000000E+0001
 11
 7.91591289326220E+0001
 21
 5.40541634300647E+0001
  0
ARC
  8
0
 10
 7.97500000000000E+0001
 20
 5.72500000000000E+0001
 40
 3.25000000000000E+0000
 50
 1.80000000000000E+0002
 51
 2.59525000000000E+0002
  0
LINE
  8
0
 10
 7.65000000000000E+0001
 20
 5.72500000000000E+0001
 11
 7.65140000000000E+0001
 21
 6.18322000000000E+0001
  0
LINE
  8
0
 10
 7.65140000000000E+0001
 20
 6.18322000000000E+0001
 11
 7.76998000000000E+0001
 21
 6.18322000000000E+0001
  0
LINE
  8
0
 10
 7.76998000000000E+0001
 20
 6.18322000000000E+0001
 11
 7.77184525363707E+0001
 21
 6.56493655864234E+0001
  0
ARC
  8
0
 10
 7.83000000000000E+0001
 20
 6.51000000000000E+0001
 40
 8.00000000000000E-0001
 50
 4.33700000000000E+0001
 51
 1.36630000000000E+0002
  0
LINE
  8
0
 10
 7.88815474636293E+0001
 20
 6.56493655864234E+0001
 11
 7.88847000000000E+0001
 21
 6.18322000000000E+0001
  0
LINE
  8
0
 10
 7.88847000000000E+0001
 20
 6.18322000000000E+0001
 11
 8.12554000000000E+0001
 21
 6.18322000000000E+0001
  0
LINE
  8
0
 10
 8.12554000000000E+0001
 20
 6.18322000000000E+0001
 11
 8.12684525363707E+0001
 21
 6.56493655864234E+0001
  0
ARC
  8
0
 10
 8.18500000000000E+0001
 20
 6.51000000000000E+0001
 40
 8.00000000000000E-0001
 50
 4.33500000000000E+0001
 51
 1.36630000000000E+0002
  0
LINE
  8
0
 10
 8.24317391929611E+0001
 20
 6.56491625545983E+0001
 11
 8.24410000000000E+0001
 21
 6.18322000000000E+0001
  0
LINE
  8
0
 10
 8.24410000000000E+0001
 20
 6.18322000000000E+0001
 11
 8.36266000000000E+0001
 21
 6.18322000000000E+0001
  0
LINE
  8
0
 10
 8.36266000000000E+0001
 20
 6.18322000000000E+0001
 11
 8.36000000000000E+0001
 21
 5.72500000000000E+0001
  0
ARC
  8
0
 10
 8.03500000000000E+0001
 20
 5.72500000000000E+0001
 40
 3.25000000000000E+0000
 50
 2.80845000000000E+0002
 51
 3.60000000000000E+0002
  0
LINE
  8
0
 10
 8.09614964157768E+0001
 20
 5.40580457187654E+0001
 11
 8.09500000000000E+0001
 21
 5.40500000000000E+0001
  0
ARC
  8
0
 10
 7.65000000000000E+0001
 20
 5.40500000000000E+0001
 40
 4.45000000000000E+0000
 50
 2.70000000000000E+0002
 51
 3.60000000000000E+0002
  0
LINE
  8
0
 10
 7.65000000000000E+0001
 20
 4.96000000000000E+0001
 11
 7.65000000000000E+0001
 21
 4.96000000000000E+0001
  0
ARC
  8
0
 10
 7.65000000000000E+0001
 20
 4.69500000000000E+0001
 40
 2.65000000000000E+0000
 50
 9.00000000000000E+0001
 51
 1.80000000000000E+0002
  0
LINE
  8
0
 10
 7.38500000000000E+0001
 20
 4.69500000000000E+0001
 11
 7.38500000000000E+0001
 21
 4.45000000000000E+0001
  0
ARC
  8
0
 10
 6.94000000000000E+0001
 20
 4.45000000000000E+0001
 40
 4.45000000000000E+0000
 50
 2.70000000000000E+0002
 51
 3.60000000000000E+0002
  0
LINE
  8
0
 10
 6.94000000000000E+0001
 20
 4.00500000000000E+0001
 11
 6.94000000000000E+0001
 21
 4.01000000000000E+0001
  0
ARC
  8
0
 10
 6.72000000000000E+0001
 20
 4.01000000000000E+0001
 40
 2.20000000000000E+0000
 50
 2.70000000000000E+0002
 51
 3.60000000000000E+0002
  0
LINE
  8
0
 10
 6.72000000000000E+0001
 20
 3.79000000000000E+0001
 11
 3.45500000000000E+0001
 21
 3.79000000000000E+0001
  0
ARC
  8
0
 10
 3.45500000000000E+0001
 20
 4.01000000000000E+0001
 40
 2.20000000000000E+0000
 50
 1.80000000000000E+0002
 51
 2.70000000000000E+0002
  0
LINE
  8
0
 10
 3.23500000000000E+0001
 20
 4.01000000000000E+0001
 11
 3.23500000000000E+0001
 21
 4.58500000000000E+0001
  0
ARC
  8
0
 10
 3.50000000000000E+0001
 20
 4.58500000000000E+0001
 40
 2.65000000000000E+0000
 50
 1.43120000000000E+0002
 51
 1.80000000000000E+0002
  0
LINE
  8
0
 10
 3.28802803807065E+0001
 20
 4.74403737722882E+0001
 11
 3.34099914787806E+0001
 21
 4.81299886383953E+0001
  0
ARC
  8
0
 10
 2.70500000000000E+0001
 20
 5.29000000000000E+0001
 40
 7.95000000000000E+0000
 50
 3.23130000000000E+0002
 51
 3.36485000000000E+0002
  0
LINE
  8
0
 10
 3.43397974230414E+0001
 20
 4.97280363288621E+0001
 11
 3.78327741765638E+0001
 21
 5.77279521497566E+0001
  0
ARC
  8
0
 10
 3.98500000000000E+0001
 20
 5.68500000000000E+0001
 40
 2.20000000000000E+0000
 50
 9.00000000000000E+0001
 51
 1.56480000000000E+0002
  0
LINE
  8
0
 10
 3.98500000000000E+0001
 20
 5.90500000000000E+0001
 11
 6.19000000000000E+0001
 21
 5.90500000000000E+0001
  0
ARC
  8
0
 10
 6.19000000000000E+0001
 20
 5.68500000000000E+0001
 40
 2.20000000000000E+0000
 50
 2.35200000000000E+0001
 51
 9.00000000000000E+0001
  0
LINE
  8
0
 10
 6.39172258234362E+0001
 20
 5.77279521497566E+0001
 11
 6.74557753219462E+0001
 21
 4.97486179517748E+0001
  0
ARC
  8
0
 10
 7.47000000000000E+0001
 20
 5.29000000000000E+0001
 40
 7.90000000000000E+0000
 50
 2.03510000000000E+0002
 51
 2.16890000000000E+0002
  0
LINE
  8
0
 10
 6.83816634287010E+0001
 20
 4.81577829054560E+0001
 11
 6.88702746353148E+0001
 21
 4.74396337536806E+0001
  0
ARC
  8
0
 10
 6.67500000000000E+0001
 20
 4.58500000000000E+0001
 40
 2.65000000000000E+0000
 50
 0.00000000000000E+0000
 51
 3.68600000000000E+0001
  0
LINE
  8
0
 10
 6.94000000000000E+0001
 20
 4.58500000000000E+0001
 11
 6.94021000000000E+0001
 21
 4.18289000000000E+0001
  0
CIRCLE
  8
0
 10
 6.45500000000000E+0001
 20
 4.45000000000000E+0001
 40
 2.65000000000000E+0000
  0
CIRCLE
  8
0
 10
 3.72000000000000E+0001
 20
 4.45000000000000E+0001
 40
 2.65000000000000E+0000
  0
LINE
  8
0
 10
 3.65472000000000E+0001
 20
 4.93683000000000E+0001
 11
 3.95746772538747E+0001
 21
 5.63589461863960E+0001
  0
ARC
  8
0
 10
 4.04000000000000E+0001
 20
 5.60000000000000E+0001
 40
 9.00000000000000E-0001
 50
 8.99950000000000E+0001
 51
 1.56495000000000E+0002
  0
LINE
  8
0
 10
 4.04000785398162E+0001
 20
 5.68999999965730E+0001
 11
 6.13500000000000E+0001
 21
 5.69000000000000E+0001
  0
ARC
  8
0
 10
 6.13500000000000E+0001
 20
 5.60000000000000E+0001
 40
 9.00000000000000E-0001
 50
 2.35150000000000E+0001
 51
 9.00000000000000E+0001
  0
LINE
  8
0
 10
 6.21752600856273E+0001
 20
 5.63590902269213E+0001
 11
 6.52134000000000E+0001
 21
 4.93683000000000E+0001
  0
LINE
  8
0
 10
 6.52134000000000E+0001
 20
 4.93683000000000E+0001
 11
 3.65472000000000E+0001
 21
 4.93683000000000E+0001
  0
ENDSEC
  0
EOF
