  0
SECTION
  2
HEADER
  9
$ACADVER
  1
AC1003
  9
$INSBASE
 10
0.0
 20
0.0
  9
$EXTMIN
 10
 0.00000000000000E+0000
 20
 0.00000000000000E+0000
  9
$EXTMAX
 10
 1.60000000000000E+0003
 20
 1.60000000000000E+0003
  9
$LIMMIN
 10
0.0
 20
0.0
  9
$LIMMAX
 10
410.0
 20
287.0
  9
$VIEWCTR
 10
227.0059616
 20
165.058879 
  9
$VIEWSIZE
 40
 1.60000000000000E+0003
9
$SNAPMODE
70
0
9
$SNAPUNIT
10
1
20
1
9
$GRIDMODE
70
0
9
$GRIDUNIT
10
1
20
1
9
$ORTHOMODE
70
0
9
$rEGENMODE
70
1
9
$FILLMODE
70
1
9
$DRAGMODE
70
2
9
$LTSCALE
40
25.0
9
$OSMODE
70
0
9
$ATTMODE
70
1
9
$TRACEWID
40
1.0
9
$TEXTSTYLE
7
STANDARD
9
$CLAYER
8
0
9
$CELTYPE
6
VONLAYER
9
$CECOLOR
62
256
9
$LUNITS
70
2
9
$LUPREC
70
2
9
$AXISMODE
70
0
9
$AXISUNIT
10
0
20
0
9
$SKETCHINC
40
1.0
9
$FILLETRAD
40
0.0
9
$AUNITS
70
0
9
$AUPREC
70
0
9
$MENU
1
ACAD
9
$ELEVATION
40
0.0
9
$THICKNESS
40
0.0
9
$VIEWDIR
10
0.0
20
0.0
30
1.0
9
$LIMCHECK
70
0
9
$BLIPMODE
70
1
9
$CHAMFERA
40
0.0
9
$CHAMFERB
40
0.0
9
$USRTIMER
70
1
9
$ANGBASE
50
0.0
9
$ANGDIR
70
0
9
$PDMODE
70
0
9
$PDSIZE
40
0.0
9
$PLINEWID
40
0.0
9
$COORDS
70
0
0
ENDSEC
0
SECTION
2
TABLES
0
TABLE
2
LTYPE
70
1
0
LTYPE
2
AUSGEZOGEN
70
64
3
Ausgezogene Linie
72
65
73
0
40
0.0
0
ENDTAB
0
TABLE
2
LAYER
70
1
0
LAYER
2
0
70
0
62
7
6
AUSGEZOGEN
0
ENDTAB
0
TABLE
2
STYLE
70
1
0
STYLE
2
STANDARD
70
0
40
0.0
41
1.0
50
0.0
71
0
42
3.5
3
txt
4

0
ENDTAB
0
TABLE
2
VIEW
70
0
0
ENDTAB
0
ENDSEC
0
SECTION
2
BLOCKS
0
ENDSEC
0
SECTION
2
ENTITIES
  0
ARC
  8
0
 10
 1.54000000000000E+0003
 20
 6.00000000000000E+0001
 40
 6.00000000000000E+0001
 50
 2.70000000000000E+0002
 51
 3.60000000000000E+0002
  0
LINE
  8
0
 10
 1.60000000000000E+0003
 20
 6.00000000000000E+0001
 11
 1.60000000000000E+0003
 21
 1.54000000000000E+0003
  0
ARC
  8
0
 10
 1.54000000000000E+0003
 20
 1.54000000000000E+0003
 40
 6.00000000000000E+0001
 50
 0.00000000000000E+0000
 51
 9.00000000000000E+0001
  0
LINE
  8
0
 10
 1.54000000000000E+0003
 20
 1.60000000000000E+0003
 11
 6.00000000000000E+0001
 21
 1.60000000000000E+0003
  0
ARC
  8
0
 10
 6.00000000000000E+0001
 20
 1.54000000000000E+0003
 40
 6.00000000000000E+0001
 50
 9.00000000000000E+0001
 51
 1.80000000000000E+0002
  0
LINE
  8
0
 10
 0.00000000000000E+0000
 20
 1.54000000000000E+0003
 11
 0.00000000000000E+0000
 21
 6.00000000000000E+0001
  0
ARC
  8
0
 10
 6.00000000000000E+0001
 20
 6.00000000000000E+0001
 40
 6.00000000000000E+0001
 50
 1.80000000000000E+0002
 51
 2.70000000000000E+0002
  0
LINE
  8
0
 10
 6.00000000000000E+0001
 20
 0.00000000000000E+0000
 11
 1.54000000000000E+0003
 21
 0.00000000000000E+0000
  0
ARC
  8
0
 10
 1.54000000000000E+0003
 20
 6.00000000000000E+0001
 40
 4.50000000000000E+0001
 50
 2.70000000000000E+0002
 51
 3.60000000000000E+0002
  0
LINE
  8
0
 10
 1.58500000000000E+0003
 20
 6.00000000000000E+0001
 11
 1.58500000000000E+0003
 21
 1.54000000000000E+0003
  0
ARC
  8
0
 10
 1.54000000000000E+0003
 20
 1.54000000000000E+0003
 40
 4.50000000000000E+0001
 50
 0.00000000000000E+0000
 51
 9.00000000000000E+0001
  0
LINE
  8
0
 10
 1.54000000000000E+0003
 20
 1.58500000000000E+0003
 11
 6.00000000000000E+0001
 21
 1.58500000000000E+0003
  0
ARC
  8
0
 10
 6.00000000000000E+0001
 20
 1.54000000000000E+0003
 40
 4.50000000000000E+0001
 50
 9.00000000000000E+0001
 51
 1.80000000000000E+0002
  0
LINE
  8
0
 10
 1.50000000000000E+0001
 20
 1.54000000000000E+0003
 11
 1.50000000000000E+0001
 21
 6.00000000000000E+0001
  0
ARC
  8
0
 10
 6.00000000000000E+0001
 20
 6.00000000000000E+0001
 40
 4.50000000000000E+0001
 50
 1.80000000000000E+0002
 51
 2.70000000000000E+0002
  0
LINE
  8
0
 10
 6.00000000000000E+0001
 20
 1.50000000000000E+0001
 11
 1.54000000000000E+0003
 21
 1.50000000000000E+0001
  0
ARC
  8
0
 10
 1.54000000000000E+0003
 20
 6.00000000000000E+0001
 40
 2.50000000000000E+0001
 50
 2.70000000000000E+0002
 51
 3.60000000000000E+0002
  0
LINE
  8
0
 10
 1.56500000000000E+0003
 20
 6.00000000000000E+0001
 11
 1.56500000000000E+0003
 21
 1.54000000000000E+0003
  0
ARC
  8
0
 10
 1.54000000000000E+0003
 20
 1.54000000000000E+0003
 40
 2.50000000000000E+0001
 50
 0.00000000000000E+0000
 51
 9.00000000000000E+0001
  0
LINE
  8
0
 10
 1.54000000000000E+0003
 20
 1.56500000000000E+0003
 11
 6.00000000000000E+0001
 21
 1.56500000000000E+0003
  0
ARC
  8
0
 10
 6.00000000000000E+0001
 20
 1.54000000000000E+0003
 40
 2.50000000000000E+0001
 50
 9.00000000000000E+0001
 51
 1.80000000000000E+0002
  0
LINE
  8
0
 10
 3.50000000000000E+0001
 20
 1.54000000000000E+0003
 11
 3.50000000000000E+0001
 21
 6.00000000000000E+0001
  0
ARC
  8
0
 10
 6.00000000000000E+0001
 20
 6.00000000000000E+0001
 40
 2.50000000000000E+0001
 50
 1.80000000000000E+0002
 51
 2.70000000000000E+0002
  0
LINE
  8
0
 10
 6.00000000000000E+0001
 20
 3.50000000000000E+0001
 11
 1.54000000000000E+0003
 21
 3.50000000000000E+0001
  0
LINE
  8
0
 10
 1.68943700000000E+0002
 20
 1.30700000000000E+0003
 11
 2.13950509446390E+0002
 21
 1.29538091843480E+0003
  0
ARC
  8
0
 10
 2.16950000000000E+0002
 20
 1.30700000000000E+0003
 40
 1.20000000000000E+0001
 50
 2.55525000000000E+0002
 51
 3.93805000000000E+0002
  0
LINE
  8
0
 10
 2.26921231041917E+0002
 20
 1.31367641756549E+0003
 11
 1.38943700000000E+0002
 21
 1.44500000000000E+0003
  0
LINE
  8
0
 10
 1.38943700000000E+0002
 20
 1.44500000000000E+0003
 11
 5.09787689580835E+0001
 21
 1.31367641756549E+0003
  0
ARC
  8
0
 10
 6.09500000000000E+0001
 20
 1.30700000000000E+0003
 40
 1.20000000000000E+0001
 50
 1.46195000000000E+0002
 51
 2.84480000000000E+0002
  0
LINE
  8
0
 10
 6.39505044983346E+0001
 20
 1.29538118023397E+0003
 11
 1.08943700000000E+0002
 21
 1.30700000000000E+0003
  0
LINE
  8
0
 10
 1.08943700000000E+0002
 20
 1.30700000000000E+0003
 11
 1.08943700000000E+0002
 21
 1.55000000000000E+0002
  0
LINE
  8
0
 10
 1.08943700000000E+0002
 20
 1.55000000000000E+0002
 11
 1.68943700000000E+0002
 21
 1.55000000000000E+0002
  0
LINE
  8
0
 10
 1.68943700000000E+0002
 20
 1.55000000000000E+0002
 11
 1.68943700000000E+0002
 21
 1.30700000000000E+0003
  0
LINE
  8
0
 10
 3.78943700000000E+0002
 20
 1.30700000000000E+0003
 11
 4.23949495501665E+0002
 21
 1.29538118023397E+0003
  0
ARC
  8
0
 10
 4.26950000000000E+0002
 20
 1.30700000000000E+0003
 40
 1.20000000000000E+0001
 50
 2.55520000000000E+0002
 51
 3.93805000000000E+0002
  0
LINE
  8
0
 10
 4.36921231041916E+0002
 20
 1.31367641756549E+0003
 11
 3.48943700000000E+0002
 21
 1.44500000000000E+0003
  0
LINE
  8
0
 10
 3.48943700000000E+0002
 20
 1.44500000000000E+0003
 11
 2.60978768958083E+0002
 21
 1.31367641756549E+0003
  0
ARC
  8
0
 10
 2.70950000000000E+0002
 20
 1.30700000000000E+0003
 40
 1.20000000000000E+0001
 50
 1.46195000000000E+0002
 51
 2.84475000000000E+0002
  0
LINE
  8
0
 10
 2.73949490553610E+0002
 20
 1.29538091843480E+0003
 11
 3.18943700000000E+0002
 21
 1.30700000000000E+0003
  0
LINE
  8
0
 10
 3.18943700000000E+0002
 20
 1.30700000000000E+0003
 11
 3.18943700000000E+0002
 21
 1.55000000000000E+0002
  0
LINE
  8
0
 10
 3.18943700000000E+0002
 20
 1.55000000000000E+0002
 11
 3.78943700000000E+0002
 21
 1.55000000000000E+0002
  0
LINE
  8
0
 10
 3.78943700000000E+0002
 20
 1.55000000000000E+0002
 11
 3.78943700000000E+0002
 21
 1.30700000000000E+0003
  0
LINE
  8
0
 10
 5.88943700000000E+0002
 20
 1.30700000000000E+0003
 11
 6.33950509446390E+0002
 21
 1.29538091843480E+0003
  0
ARC
  8
0
 10
 6.36950000000000E+0002
 20
 1.30700000000000E+0003
 40
 1.20000000000000E+0001
 50
 2.55525000000000E+0002
 51
 3.93805000000000E+0002
  0
LINE
  8
0
 10
 6.46921231041916E+0002
 20
 1.31367641756549E+0003
 11
 5.58943700000000E+0002
 21
 1.44500000000000E+0003
  0
LINE
  8
0
 10
 5.58943700000000E+0002
 20
 1.44500000000000E+0003
 11
 4.70978768958083E+0002
 21
 1.31367641756549E+0003
  0
ARC
  8
0
 10
 4.80950000000000E+0002
 20
 1.30700000000000E+0003
 40
 1.20000000000000E+0001
 50
 1.46195000000000E+0002
 51
 2.84475000000000E+0002
  0
LINE
  8
0
 10
 4.83949490553610E+0002
 20
 1.29538091843480E+0003
 11
 5.28943700000000E+0002
 21
 1.30700000000000E+0003
  0
LINE
  8
0
 10
 5.28943700000000E+0002
 20
 1.30700000000000E+0003
 11
 5.28943700000000E+0002
 21
 1.55000000000000E+0002
  0
LINE
  8
0
 10
 5.28943700000000E+0002
 20
 1.55000000000000E+0002
 11
 5.88943700000000E+0002
 21
 1.55000000000000E+0002
  0
LINE
  8
0
 10
 5.88943700000000E+0002
 20
 1.55000000000000E+0002
 11
 5.88943700000000E+0002
 21
 1.30700000000000E+0003
  0
LINE
  8
0
 10
 7.98943700000000E+0002
 20
 1.30700000000000E+0003
 11
 8.43949495501665E+0002
 21
 1.29538118023397E+0003
  0
ARC
  8
0
 10
 8.46950000000000E+0002
 20
 1.30700000000000E+0003
 40
 1.20000000000000E+0001
 50
 2.55520000000000E+0002
 51
 3.93805000000000E+0002
  0
LINE
  8
0
 10
 8.56921231041916E+0002
 20
 1.31367641756549E+0003
 11
 7.68943700000000E+0002
 21
 1.44500000000000E+0003
  0
LINE
  8
0
 10
 7.68943700000000E+0002
 20
 1.44500000000000E+0003
 11
 6.80978768958083E+0002
 21
 1.31367641756549E+0003
  0
ARC
  8
0
 10
 6.90950000000000E+0002
 20
 1.30700000000000E+0003
 40
 1.20000000000000E+0001
 50
 1.46195000000000E+0002
 51
 2.84480000000000E+0002
  0
LINE
  8
0
 10
 6.93950504498335E+0002
 20
 1.29538118023397E+0003
 11
 7.38943700000000E+0002
 21
 1.30700000000000E+0003
  0
LINE
  8
0
 10
 7.38943700000000E+0002
 20
 1.30700000000000E+0003
 11
 7.38943700000000E+0002
 21
 1.55000000000000E+0002
  0
LINE
  8
0
 10
 7.38943700000000E+0002
 20
 1.55000000000000E+0002
 11
 7.98943700000000E+0002
 21
 1.55000000000000E+0002
  0
LINE
  8
0
 10
 7.98943700000000E+0002
 20
 1.55000000000000E+0002
 11
 7.98943700000000E+0002
 21
 1.30700000000000E+0003
  0
LINE
  8
0
 10
 1.00894380000000E+0003
 20
 8.37600000000000E+0002
 11
 1.00894370000000E+0003
 21
 1.55000000000000E+0002
  0
LINE
  8
0
 10
 1.00894370000000E+0003
 20
 1.55000000000000E+0002
 11
 9.48943700000000E+0002
 21
 1.55000000000000E+0002
  0
LINE
  8
0
 10
 9.48943700000000E+0002
 20
 1.55000000000000E+0002
 11
 9.48950000000000E+0002
 21
 8.37600000000000E+0002
  0
ARC
  8
0
 10
 1.06895000000000E+0003
 20
 8.37600000000000E+0002
 40
 1.20000000000000E+0002
 50
 1.35000000000000E+0002
 51
 1.80000000000000E+0002
  0
LINE
  8
0
 10
 9.84097186257614E+0002
 20
 9.22452813742386E+0002
 11
 1.13527310000000E+0003
 21
 1.07363250000000E+0003
  0
LINE
  8
0
 10
 1.13527310000000E+0003
 20
 1.07363250000000E+0003
 11
 1.09525502874465E+0003
 21
 1.09721310852352E+0003
  0
ARC
  8
0
 10
 1.10135000000000E+0003
 20
 1.10755000000000E+0003
 40
 1.20000000000000E+0001
 50
 1.01195000000000E+0002
 51
 2.39475000000000E+0002
  0
LINE
  8
0
 10
 1.09902021504807E+0003
 20
 1.11932166522110E+0003
 11
 1.25406710000000E+0003
 21
 1.15000000000000E+0003
  0
LINE
  8
0
 10
 1.25406710000000E+0003
 20
 1.15000000000000E+0003
 11
 1.22342166522110E+0003
 21
 9.94920215048071E+0002
  0
ARC
  8
0
 10
 1.21165000000000E+0003
 20
 9.97250000000000E+0002
 40
 1.20000000000000E+0001
 50
 2.10520000000000E+0002
 51
 3.48805000000000E+0002
  0
LINE
  8
0
 10
 1.20131257667630E+0003
 20
 9.91155930831809E+0002
 11
 1.17769950000000E+0003
 21
 1.03120610000000E+0003
  0
LINE
  8
0
 10
 1.17769950000000E+0003
 20
 1.03120610000000E+0003
 11
 1.02652359312881E+0003
 21
 8.80026406871193E+0002
  0
ARC
  8
0
 10
 1.06895000000000E+0003
 20
 8.37600000000000E+0002
 40
 6.00000000000000E+0001
 50
 1.35000000000000E+0002
 51
 1.80000000000000E+0002
  0
LINE
  8
0
 10
 1.21894370000000E+0003
 20
 7.50650000000000E+0002
 11
 1.21894370000000E+0003
 21
 1.55000000000000E+0002
  0
LINE
  8
0
 10
 1.21894370000000E+0003
 20
 1.55000000000000E+0002
 11
 1.15894370000000E+0003
 21
 1.55000000000000E+0002
  0
LINE
  8
0
 10
 1.15894370000000E+0003
 20
 1.55000000000000E+0002
 11
 1.15895000000000E+0003
 21
 7.50650000000000E+0002
  0
ARC
  8
0
 10
 1.27895000000000E+0003
 20
 7.50650000000000E+0002
 40
 1.20000000000000E+0002
 50
 1.35000000000000E+0002
 51
 1.80000000000000E+0002
  0
LINE
  8
0
 10
 1.19409718625761E+0003
 20
 8.35502813742386E+0002
 11
 1.28376990000000E+0003
 21
 9.25162200000000E+0002
  0
LINE
  8
0
 10
 1.28376990000000E+0003
 20
 9.25162200000000E+0002
 11
 1.24375502874465E+0003
 21
 9.48763108523524E+0002
  0
ARC
  8
0
 10
 1.24985000000000E+0003
 20
 9.59100000000000E+0002
 40
 1.20000000000000E+0001
 50
 1.01195000000000E+0002
 51
 2.39475000000000E+0002
  0
LINE
  8
0
 10
 1.24752021504807E+0003
 20
 9.70871665221105E+0002
 11
 1.40256390000000E+0003
 21
 1.00152980000000E+0003
  0
LINE
  8
0
 10
 1.40256390000000E+0003
 20
 1.00152980000000E+0003
 11
 1.37192166522110E+0003
 21
 8.46470215048071E+0002
  0
ARC
  8
0
 10
 1.36015000000000E+0003
 20
 8.48800000000000E+0002
 40
 1.20000000000000E+0001
 50
 2.10525000000000E+0002
 51
 3.48805000000000E+0002
  0
LINE
  8
0
 10
 1.34981310852352E+0003
 20
 8.42705028744649E+0002
 11
 1.32619630000000E+0003
 21
 8.82735800000000E+0002
  0
LINE
  8
0
 10
 1.32619630000000E+0003
 20
 8.82735800000000E+0002
 11
 1.23652359312881E+0003
 21
 7.93076406871193E+0002
  0
ARC
  8
0
 10
 1.27895000000000E+0003
 20
 7.50650000000000E+0002
 40
 6.00000000000000E+0001
 50
 1.35000000000000E+0002
 51
 1.80000000000000E+0002
  0
LINE
  8
0
 10
 1.40409040000000E+0003
 20
 7.48497800000000E+0002
 11
 1.43226240000000E+0003
 21
 7.76669800000000E+0002
  0
LINE
  8
0
 10
 1.43226240000000E+0003
 20
 7.76669800000000E+0002
 11
 1.39220412670391E+0003
 21
 8.00263640449464E+0002
  0
ARC
  8
0
 10
 1.39830000000000E+0003
 20
 8.10600000000000E+0002
 40
 1.20000000000000E+0001
 50
 1.01195000000000E+0002
 51
 2.39470000000000E+0002
  0
LINE
  8
0
 10
 1.39597021504807E+0003
 20
 8.22371665221105E+0002
 11
 1.55105630000000E+0003
 21
 8.53037300000000E+0002
  0
LINE
  8
0
 10
 1.55105630000000E+0003
 20
 8.53037300000000E+0002
 11
 1.52042186848837E+0003
 21
 6.97971242328523E+0002
  0
ARC
  8
0
 10
 1.50865000000000E+0003
 20
 7.00300000000000E+0002
 40
 1.20000000000000E+0001
 50
 2.10520000000000E+0002
 51
 3.48810000000000E+0002
  0
LINE
  8
0
 10
 1.49831257667630E+0003
 20
 6.94205930831809E+0002
 11
 1.47468880000000E+0003
 21
 7.34243400000000E+0002
  0
LINE
  8
0
 10
 1.47468880000000E+0003
 20
 7.34243400000000E+0002
 11
 1.44652359312881E+0003
 21
 7.06076406871193E+0002
  0
ARC
  8
0
 10
 1.48895000000000E+0003
 20
 6.63650000000000E+0002
 40
 6.00000000000000E+0001
 50
 1.35000000000000E+0002
 51
 1.80000000000000E+0002
  0
LINE
  8
0
 10
 1.42895000000000E+0003
 20
 6.63650000000000E+0002
 11
 1.42894370000000E+0003
 21
 1.55000000000000E+0002
  0
LINE
  8
0
 10
 1.42894370000000E+0003
 20
 1.55000000000000E+0002
 11
 1.36894370000000E+0003
 21
 1.55000000000000E+0002
  0
LINE
  8
0
 10
 1.36894370000000E+0003
 20
 1.55000000000000E+0002
 11
 1.36895000000000E+0003
 21
 6.63650000000000E+0002
  0
ARC
  8
0
 10
 1.48895000000000E+0003
 20
 6.63650000000000E+0002
 40
 1.20000000000000E+0002
 50
 1.35000000000000E+0002
 51
 1.80000000000000E+0002
  0
ENDSEC
  0
EOF
