  0
SECTION
  2
HEADER
  9
$ACADVER
  1
AC1003
  9
$INSBASE
 10
0.0
 20
0.0
  9
$EXTMIN
 10
 0.00000000000000E+0000
 20
 0.00000000000000E+0000
  9
$EXTMAX
 10
 1.25000000000000E+0003
 20
 1.60000000000000E+0003
  9
$LIMMIN
 10
0.0
 20
0.0
  9
$LIMMAX
 10
410.0
 20
287.0
  9
$VIEWCTR
 10
227.0059616
 20
165.058879 
  9
$VIEWSIZE
 40
 1.60000000000000E+0003
9
$SNAPMODE
70
0
9
$SNAPUNIT
10
1
20
1
9
$GRIDMODE
70
0
9
$GRIDUNIT
10
1
20
1
9
$ORTHOMODE
70
0
9
$rEGENMODE
70
1
9
$FILLMODE
70
1
9
$DRAGMODE
70
2
9
$LTSCALE
40
25.0
9
$OSMODE
70
0
9
$ATTMODE
70
1
9
$TRACEWID
40
1.0
9
$TEXTSTYLE
7
STANDARD
9
$CLAYER
8
0
9
$CELTYPE
6
VONLAYER
9
$CECOLOR
62
256
9
$LUNITS
70
2
9
$LUPREC
70
2
9
$AXISMODE
70
0
9
$AXISUNIT
10
0
20
0
9
$SKETCHINC
40
1.0
9
$FILLETRAD
40
0.0
9
$AUNITS
70
0
9
$AUPREC
70
0
9
$MENU
1
ACAD
9
$ELEVATION
40
0.0
9
$THICKNESS
40
0.0
9
$VIEWDIR
10
0.0
20
0.0
30
1.0
9
$LIMCHECK
70
0
9
$BLIPMODE
70
1
9
$CHAMFERA
40
0.0
9
$CHAMFERB
40
0.0
9
$USRTIMER
70
1
9
$ANGBASE
50
0.0
9
$ANGDIR
70
0
9
$PDMODE
70
0
9
$PDSIZE
40
0.0
9
$PLINEWID
40
0.0
9
$COORDS
70
0
0
ENDSEC
0
SECTION
2
TABLES
0
TABLE
2
LTYPE
70
1
0
LTYPE
2
AUSGEZOGEN
70
64
3
Ausgezogene Linie
72
65
73
0
40
0.0
0
ENDTAB
0
TABLE
2
LAYER
70
1
0
LAYER
2
0
70
0
62
7
6
AUSGEZOGEN
0
ENDTAB
0
TABLE
2
STYLE
70
1
0
STYLE
2
STANDARD
70
0
40
0.0
41
1.0
50
0.0
71
0
42
3.5
3
txt
4

0
ENDTAB
0
TABLE
2
VIEW
70
0
0
ENDTAB
0
ENDSEC
0
SECTION
2
BLOCKS
0
ENDSEC
0
SECTION
2
ENTITIES
  0
ARC
  8
0
 10
 1.19000000000000E+0003
 20
 6.00000000000000E+0001
 40
 6.00000000000000E+0001
 50
 2.70000000000000E+0002
 51
 3.60000000000000E+0002
  0
LINE
  8
0
 10
 1.25000000000000E+0003
 20
 6.00000000000000E+0001
 11
 1.25000000000000E+0003
 21
 1.54000000000000E+0003
  0
ARC
  8
0
 10
 1.19000000000000E+0003
 20
 1.54000000000000E+0003
 40
 6.00000000000000E+0001
 50
 0.00000000000000E+0000
 51
 9.00000000000000E+0001
  0
LINE
  8
0
 10
 1.19000000000000E+0003
 20
 1.60000000000000E+0003
 11
 6.00000000000000E+0001
 21
 1.60000000000000E+0003
  0
ARC
  8
0
 10
 6.00000000000000E+0001
 20
 1.54000000000000E+0003
 40
 6.00000000000000E+0001
 50
 9.00000000000000E+0001
 51
 1.80000000000000E+0002
  0
LINE
  8
0
 10
 0.00000000000000E+0000
 20
 1.54000000000000E+0003
 11
 0.00000000000000E+0000
 21
 6.00000000000000E+0001
  0
ARC
  8
0
 10
 6.00000000000000E+0001
 20
 6.00000000000000E+0001
 40
 6.00000000000000E+0001
 50
 1.80000000000000E+0002
 51
 2.70000000000000E+0002
  0
LINE
  8
0
 10
 6.00000000000000E+0001
 20
 0.00000000000000E+0000
 11
 1.19000000000000E+0003
 21
 0.00000000000000E+0000
  0
ARC
  8
0
 10
 1.19000000000000E+0003
 20
 6.00000000000000E+0001
 40
 4.50000000000000E+0001
 50
 2.70000000000000E+0002
 51
 3.60000000000000E+0002
  0
LINE
  8
0
 10
 1.23500000000000E+0003
 20
 6.00000000000000E+0001
 11
 1.23500000000000E+0003
 21
 1.54000000000000E+0003
  0
ARC
  8
0
 10
 1.19000000000000E+0003
 20
 1.54000000000000E+0003
 40
 4.50000000000000E+0001
 50
 0.00000000000000E+0000
 51
 9.00000000000000E+0001
  0
LINE
  8
0
 10
 1.19000000000000E+0003
 20
 1.58500000000000E+0003
 11
 6.00000000000000E+0001
 21
 1.58500000000000E+0003
  0
ARC
  8
0
 10
 6.00000000000000E+0001
 20
 1.54000000000000E+0003
 40
 4.50000000000000E+0001
 50
 9.00000000000000E+0001
 51
 1.80000000000000E+0002
  0
LINE
  8
0
 10
 1.50000000000000E+0001
 20
 1.54000000000000E+0003
 11
 1.50000000000000E+0001
 21
 6.00000000000000E+0001
  0
ARC
  8
0
 10
 6.00000000000000E+0001
 20
 6.00000000000000E+0001
 40
 4.50000000000000E+0001
 50
 1.80000000000000E+0002
 51
 2.70000000000000E+0002
  0
LINE
  8
0
 10
 6.00000000000000E+0001
 20
 1.50000000000000E+0001
 11
 1.19000000000000E+0003
 21
 1.50000000000000E+0001
  0
ARC
  8
0
 10
 1.19000000000000E+0003
 20
 6.00000000000000E+0001
 40
 2.50000000000000E+0001
 50
 2.70000000000000E+0002
 51
 3.60000000000000E+0002
  0
LINE
  8
0
 10
 1.21500000000000E+0003
 20
 6.00000000000000E+0001
 11
 1.21500000000000E+0003
 21
 1.54000000000000E+0003
  0
ARC
  8
0
 10
 1.19000000000000E+0003
 20
 1.54000000000000E+0003
 40
 2.50000000000000E+0001
 50
 0.00000000000000E+0000
 51
 9.00000000000000E+0001
  0
LINE
  8
0
 10
 1.19000000000000E+0003
 20
 1.56500000000000E+0003
 11
 6.00000000000000E+0001
 21
 1.56500000000000E+0003
  0
ARC
  8
0
 10
 6.00000000000000E+0001
 20
 1.54000000000000E+0003
 40
 2.50000000000000E+0001
 50
 9.00000000000000E+0001
 51
 1.80000000000000E+0002
  0
LINE
  8
0
 10
 3.50000000000000E+0001
 20
 1.54000000000000E+0003
 11
 3.50000000000000E+0001
 21
 6.00000000000000E+0001
  0
ARC
  8
0
 10
 6.00000000000000E+0001
 20
 6.00000000000000E+0001
 40
 2.50000000000000E+0001
 50
 1.80000000000000E+0002
 51
 2.70000000000000E+0002
  0
LINE
  8
0
 10
 6.00000000000000E+0001
 20
 3.50000000000000E+0001
 11
 1.19000000000000E+0003
 21
 3.50000000000000E+0001
  0
LINE
  8
0
 10
 2.73253800000000E+0002
 20
 1.30700000000000E+0003
 11
 2.73253800000000E+0002
 21
 1.55000000000000E+0002
  0
LINE
  8
0
 10
 2.73253800000000E+0002
 20
 1.55000000000000E+0002
 11
 2.13253800000000E+0002
 21
 1.55000000000000E+0002
  0
LINE
  8
0
 10
 2.13253800000000E+0002
 20
 1.55000000000000E+0002
 11
 2.13253800000000E+0002
 21
 1.30700000000000E+0003
  0
LINE
  8
0
 10
 2.13253800000000E+0002
 20
 1.30700000000000E+0003
 11
 1.68249490553610E+0002
 21
 1.29538091843480E+0003
  0
ARC
  8
0
 10
 1.65250000000000E+0002
 20
 1.30700000000000E+0003
 40
 1.20000000000000E+0001
 50
 1.46195000000000E+0002
 51
 2.84475000000000E+0002
  0
LINE
  8
0
 10
 1.55278768958083E+0002
 20
 1.31367641756549E+0003
 11
 2.43253800000000E+0002
 21
 1.44500000000000E+0003
  0
LINE
  8
0
 10
 2.43253800000000E+0002
 20
 1.44500000000000E+0003
 11
 3.31221231041916E+0002
 21
 1.31367641756549E+0003
  0
ARC
  8
0
 10
 3.21250000000000E+0002
 20
 1.30700000000000E+0003
 40
 1.20000000000000E+0001
 50
 2.55525000000000E+0002
 51
 3.93805000000000E+0002
  0
LINE
  8
0
 10
 3.18250509446390E+0002
 20
 1.29538091843480E+0003
 11
 2.73253800000000E+0002
 21
 1.30700000000000E+0003
  0
LINE
  8
0
 10
 4.83253800000000E+0002
 20
 1.30700000000000E+0003
 11
 4.83253800000000E+0002
 21
 1.55000000000000E+0002
  0
LINE
  8
0
 10
 4.83253800000000E+0002
 20
 1.55000000000000E+0002
 11
 4.23253800000000E+0002
 21
 1.55000000000000E+0002
  0
LINE
  8
0
 10
 4.23253800000000E+0002
 20
 1.55000000000000E+0002
 11
 4.23253800000000E+0002
 21
 1.30700000000000E+0003
  0
LINE
  8
0
 10
 4.23253800000000E+0002
 20
 1.30700000000000E+0003
 11
 3.78249490553610E+0002
 21
 1.29538091843480E+0003
  0
ARC
  8
0
 10
 3.75250000000000E+0002
 20
 1.30700000000000E+0003
 40
 1.20000000000000E+0001
 50
 1.46195000000000E+0002
 51
 2.84475000000000E+0002
  0
LINE
  8
0
 10
 3.65278768958083E+0002
 20
 1.31367641756549E+0003
 11
 4.53253800000000E+0002
 21
 1.44500000000000E+0003
  0
LINE
  8
0
 10
 4.53253800000000E+0002
 20
 1.44500000000000E+0003
 11
 5.41221231041917E+0002
 21
 1.31367641756549E+0003
  0
ARC
  8
0
 10
 5.31250000000000E+0002
 20
 1.30700000000000E+0003
 40
 1.20000000000000E+0001
 50
 2.55525000000000E+0002
 51
 3.93805000000000E+0002
  0
LINE
  8
0
 10
 5.28250509446390E+0002
 20
 1.29538091843480E+0003
 11
 4.83253800000000E+0002
 21
 1.30700000000000E+0003
  0
LINE
  8
0
 10
 6.93253800000000E+0002
 20
 1.30700000000000E+0003
 11
 6.93253800000000E+0002
 21
 9.42426500000000E+0002
  0
LINE
  8
0
 10
 6.93253800000000E+0002
 20
 9.42426500000000E+0002
 11
 8.29459800000000E+0002
 21
 1.07863210000000E+0003
  0
LINE
  8
0
 10
 8.29459800000000E+0002
 20
 1.07863210000000E+0003
 11
 7.89405930831809E+0002
 21
 1.10221257667630E+0003
  0
ARC
  8
0
 10
 7.95500000000000E+0002
 20
 1.11255000000000E+0003
 40
 1.20000000000000E+0001
 50
 1.01195000000000E+0002
 51
 2.39480000000000E+0002
  0
LINE
  8
0
 10
 7.93170215048071E+0002
 20
 1.12432166522110E+0003
 11
 9.48253700000000E+0002
 21
 1.15500000000000E+0003
  0
LINE
  8
0
 10
 9.48253700000000E+0002
 20
 1.15500000000000E+0003
 11
 9.17621665221104E+0002
 21
 9.99920215048071E+0002
  0
ARC
  8
0
 10
 9.05850000000000E+0002
 20
 1.00225000000000E+0003
 40
 1.20000000000000E+0001
 50
 2.10525000000000E+0002
 51
 3.48805000000000E+0002
  0
LINE
  8
0
 10
 8.95513108523524E+0002
 20
 9.96155028744649E+0002
 11
 8.71886000000000E+0002
 21
 1.03620600000000E+0003
  0
LINE
  8
0
 10
 8.71886000000000E+0002
 20
 1.03620600000000E+0003
 11
 7.10823593128807E+0002
 21
 8.75126406871193E+0002
  0
ARC
  8
0
 10
 7.53250000000000E+0002
 20
 8.32700000000000E+0002
 40
 6.00000000000000E+0001
 50
 1.35000000000000E+0002
 51
 1.80000000000000E+0002
  0
LINE
  8
0
 10
 6.93250000000000E+0002
 20
 8.32700000000000E+0002
 11
 6.93253900000000E+0002
 21
 1.55000000000000E+0002
  0
LINE
  8
0
 10
 6.93253900000000E+0002
 20
 1.55000000000000E+0002
 11
 6.33253800000000E+0002
 21
 1.55000000000000E+0002
  0
LINE
  8
0
 10
 6.33253800000000E+0002
 20
 1.55000000000000E+0002
 11
 6.33253800000000E+0002
 21
 8.32721000000000E+0002
  0
LINE
  8
0
 10
 6.33253800000000E+0002
 20
 8.32721000000000E+0002
 11
 6.33253800000000E+0002
 21
 1.30700000000000E+0003
  0
LINE
  8
0
 10
 6.33253800000000E+0002
 20
 1.30700000000000E+0003
 11
 5.88249490553610E+0002
 21
 1.29538091843480E+0003
  0
ARC
  8
0
 10
 5.85250000000000E+0002
 20
 1.30700000000000E+0003
 40
 1.20000000000000E+0001
 50
 1.46190000000000E+0002
 51
 2.84475000000000E+0002
  0
LINE
  8
0
 10
 5.75279351623394E+0002
 20
 1.31367728769412E+0003
 11
 6.63253900000000E+0002
 21
 1.44500000000000E+0003
  0
LINE
  8
0
 10
 6.63253900000000E+0002
 20
 1.44500000000000E+0003
 11
 7.51221231041917E+0002
 21
 1.31367641756549E+0003
  0
ARC
  8
0
 10
 7.41250000000000E+0002
 20
 1.30700000000000E+0003
 40
 1.20000000000000E+0001
 50
 2.55530000000000E+0002
 51
 3.93805000000000E+0002
  0
LINE
  8
0
 10
 7.38251523413957E+0002
 20
 1.29538065672411E+0003
 11
 6.93253800000000E+0002
 21
 1.30700000000000E+0003
  0
LINE
  8
0
 10
 9.77952300000000E+0002
 20
 9.30139600000000E+0002
 11
 9.37905930831810E+0002
 21
 9.53762576676303E+0002
  0
ARC
  8
0
 10
 9.44000000000000E+0002
 20
 9.64100000000000E+0002
 40
 1.20000000000000E+0001
 50
 1.01195000000000E+0002
 51
 2.39480000000000E+0002
  0
LINE
  8
0
 10
 9.41670215048071E+0002
 20
 9.75871665221105E+0002
 11
 1.09674630000000E+0003
 21
 1.00650760000000E+0003
  0
LINE
  8
0
 10
 1.09674630000000E+0003
 20
 1.00650760000000E+0003
 11
 1.06607166522110E+0003
 21
 8.51420215048071E+0002
  0
ARC
  8
0
 10
 1.05430000000000E+0003
 20
 8.53750000000000E+0002
 40
 1.20000000000000E+0001
 50
 2.10520000000000E+0002
 51
 3.48805000000000E+0002
  0
LINE
  8
0
 10
 1.04396257667630E+0003
 20
 8.47655930831809E+0002
 11
 1.02037830000000E+0003
 21
 8.87713600000000E+0002
  0
LINE
  8
0
 10
 1.02037830000000E+0003
 20
 8.87713600000000E+0002
 11
 9.20823593128807E+0002
 21
 7.88176406871193E+0002
  0
ARC
  8
0
 10
 9.63250000000000E+0002
 20
 7.45750000000000E+0002
 40
 6.00000000000000E+0001
 50
 1.35000000000000E+0002
 51
 1.80000000000000E+0002
  0
LINE
  8
0
 10
 9.03250000000000E+0002
 20
 7.45750000000000E+0002
 11
 9.03254300000000E+0002
 21
 1.54999900000000E+0002
  0
LINE
  8
0
 10
 9.03254300000000E+0002
 20
 1.54999900000000E+0002
 11
 8.43254300000000E+0002
 21
 1.54999900000000E+0002
  0
LINE
  8
0
 10
 8.43254300000000E+0002
 20
 1.54999900000000E+0002
 11
 8.43250000000000E+0002
 21
 7.45750000000000E+0002
  0
ARC
  8
0
 10
 9.63250000000000E+0002
 20
 7.45750000000000E+0002
 40
 1.20000000000000E+0002
 50
 1.35000000000000E+0002
 51
 1.80000000000000E+0002
  0
LINE
  8
0
 10
 8.78397186257614E+0002
 20
 8.30602813742386E+0002
 11
 9.77952300000000E+0002
 21
 9.30139600000000E+0002
  0
ENDSEC
  0
EOF
