  0
SECTION
  2
HEADER
  9
$ACADVER
  1
AC1003
  9
$INSBASE
 10
0.0
 20
0.0
  9
$EXTMIN
 10
 0.00000000000000E+0000
 20
 0.00000000000000E+0000
  9
$EXTMAX
 10
 1.25000000000000E+0003
 20
 1.60000000000000E+0003
  9
$LIMMIN
 10
0.0
 20
0.0
  9
$LIMMAX
 10
410.0
 20
287.0
  9
$VIEWCTR
 10
227.0059616
 20
165.058879 
  9
$VIEWSIZE
 40
 1.60000000000000E+0003
9
$SNAPMODE
70
0
9
$SNAPUNIT
10
1
20
1
9
$GRIDMODE
70
0
9
$GRIDUNIT
10
1
20
1
9
$ORTHOMODE
70
0
9
$rEGENMODE
70
1
9
$FILLMODE
70
1
9
$DRAGMODE
70
2
9
$LTSCALE
40
25.0
9
$OSMODE
70
0
9
$ATTMODE
70
1
9
$TRACEWID
40
1.0
9
$TEXTSTYLE
7
STANDARD
9
$CLAYER
8
0
9
$CELTYPE
6
VONLAYER
9
$CECOLOR
62
256
9
$LUNITS
70
2
9
$LUPREC
70
2
9
$AXISMODE
70
0
9
$AXISUNIT
10
0
20
0
9
$SKETCHINC
40
1.0
9
$FILLETRAD
40
0.0
9
$AUNITS
70
0
9
$AUPREC
70
0
9
$MENU
1
ACAD
9
$ELEVATION
40
0.0
9
$THICKNESS
40
0.0
9
$VIEWDIR
10
0.0
20
0.0
30
1.0
9
$LIMCHECK
70
0
9
$BLIPMODE
70
1
9
$CHAMFERA
40
0.0
9
$CHAMFERB
40
0.0
9
$USRTIMER
70
1
9
$ANGBASE
50
0.0
9
$ANGDIR
70
0
9
$PDMODE
70
0
9
$PDSIZE
40
0.0
9
$PLINEWID
40
0.0
9
$COORDS
70
0
0
ENDSEC
0
SECTION
2
TABLES
0
TABLE
2
LTYPE
70
1
0
LTYPE
2
AUSGEZOGEN
70
64
3
Ausgezogene Linie
72
65
73
0
40
0.0
0
ENDTAB
0
TABLE
2
LAYER
70
1
0
LAYER
2
0
70
0
62
7
6
AUSGEZOGEN
0
ENDTAB
0
TABLE
2
STYLE
70
1
0
STYLE
2
STANDARD
70
0
40
0.0
41
1.0
50
0.0
71
0
42
3.5
3
txt
4

0
ENDTAB
0
TABLE
2
VIEW
70
0
0
ENDTAB
0
ENDSEC
0
SECTION
2
BLOCKS
0
ENDSEC
0
SECTION
2
ENTITIES
  0
ARC
  8
0
 10
 1.19000000000000E+0003
 20
 6.00000000000000E+0001
 40
 6.00000000000000E+0001
 50
 2.70000000000000E+0002
 51
 3.60000000000000E+0002
  0
LINE
  8
0
 10
 1.25000000000000E+0003
 20
 6.00000000000000E+0001
 11
 1.25000000000000E+0003
 21
 1.54000000000000E+0003
  0
ARC
  8
0
 10
 1.19000000000000E+0003
 20
 1.54000000000000E+0003
 40
 6.00000000000000E+0001
 50
 0.00000000000000E+0000
 51
 9.00000000000000E+0001
  0
LINE
  8
0
 10
 1.19000000000000E+0003
 20
 1.60000000000000E+0003
 11
 6.00000000000000E+0001
 21
 1.60000000000000E+0003
  0
ARC
  8
0
 10
 6.00000000000000E+0001
 20
 1.54000000000000E+0003
 40
 6.00000000000000E+0001
 50
 9.00000000000000E+0001
 51
 1.80000000000000E+0002
  0
LINE
  8
0
 10
 0.00000000000000E+0000
 20
 1.54000000000000E+0003
 11
 0.00000000000000E+0000
 21
 6.00000000000000E+0001
  0
ARC
  8
0
 10
 6.00000000000000E+0001
 20
 6.00000000000000E+0001
 40
 6.00000000000000E+0001
 50
 1.80000000000000E+0002
 51
 2.70000000000000E+0002
  0
LINE
  8
0
 10
 6.00000000000000E+0001
 20
 0.00000000000000E+0000
 11
 1.19000000000000E+0003
 21
 0.00000000000000E+0000
  0
ARC
  8
0
 10
 1.19000000000000E+0003
 20
 6.00000000000000E+0001
 40
 4.50000000000000E+0001
 50
 2.70000000000000E+0002
 51
 3.60000000000000E+0002
  0
LINE
  8
0
 10
 1.23500000000000E+0003
 20
 6.00000000000000E+0001
 11
 1.23500000000000E+0003
 21
 1.54000000000000E+0003
  0
ARC
  8
0
 10
 1.19000000000000E+0003
 20
 1.54000000000000E+0003
 40
 4.50000000000000E+0001
 50
 0.00000000000000E+0000
 51
 9.00000000000000E+0001
  0
LINE
  8
0
 10
 1.19000000000000E+0003
 20
 1.58500000000000E+0003
 11
 6.00000000000000E+0001
 21
 1.58500000000000E+0003
  0
ARC
  8
0
 10
 6.00000000000000E+0001
 20
 1.54000000000000E+0003
 40
 4.50000000000000E+0001
 50
 9.00000000000000E+0001
 51
 1.80000000000000E+0002
  0
LINE
  8
0
 10
 1.50000000000000E+0001
 20
 1.54000000000000E+0003
 11
 1.50000000000000E+0001
 21
 6.00000000000000E+0001
  0
ARC
  8
0
 10
 6.00000000000000E+0001
 20
 6.00000000000000E+0001
 40
 4.50000000000000E+0001
 50
 1.80000000000000E+0002
 51
 2.70000000000000E+0002
  0
LINE
  8
0
 10
 6.00000000000000E+0001
 20
 1.50000000000000E+0001
 11
 1.19000000000000E+0003
 21
 1.50000000000000E+0001
  0
ARC
  8
0
 10
 1.19000000000000E+0003
 20
 6.00000000000000E+0001
 40
 2.50000000000000E+0001
 50
 2.70000000000000E+0002
 51
 3.60000000000000E+0002
  0
LINE
  8
0
 10
 1.21500000000000E+0003
 20
 6.00000000000000E+0001
 11
 1.21500000000000E+0003
 21
 1.54000000000000E+0003
  0
ARC
  8
0
 10
 1.19000000000000E+0003
 20
 1.54000000000000E+0003
 40
 2.50000000000000E+0001
 50
 0.00000000000000E+0000
 51
 9.00000000000000E+0001
  0
LINE
  8
0
 10
 1.19000000000000E+0003
 20
 1.56500000000000E+0003
 11
 6.00000000000000E+0001
 21
 1.56500000000000E+0003
  0
ARC
  8
0
 10
 6.00000000000000E+0001
 20
 1.54000000000000E+0003
 40
 2.50000000000000E+0001
 50
 9.00000000000000E+0001
 51
 1.80000000000000E+0002
  0
LINE
  8
0
 10
 3.50000000000000E+0001
 20
 1.54000000000000E+0003
 11
 3.50000000000000E+0001
 21
 6.00000000000000E+0001
  0
ARC
  8
0
 10
 6.00000000000000E+0001
 20
 6.00000000000000E+0001
 40
 2.50000000000000E+0001
 50
 1.80000000000000E+0002
 51
 2.70000000000000E+0002
  0
LINE
  8
0
 10
 6.00000000000000E+0001
 20
 3.50000000000000E+0001
 11
 1.19000000000000E+0003
 21
 3.50000000000000E+0001
  0
LINE
  8
0
 10
 3.35710000000000E+0002
 20
 1.30700000000000E+0003
 11
 3.80750509446390E+0002
 21
 1.29538091843480E+0003
  0
ARC
  8
0
 10
 3.83750000000000E+0002
 20
 1.30700000000000E+0003
 40
 1.20000000000000E+0001
 50
 2.55525000000000E+0002
 51
 3.93805000000000E+0002
  0
LINE
  8
0
 10
 3.93721231041916E+0002
 20
 1.31367641756549E+0003
 11
 3.05710000000000E+0002
 21
 1.44500000000000E+0003
  0
LINE
  8
0
 10
 3.05710000000000E+0002
 20
 1.44500000000000E+0003
 11
 2.17728768958083E+0002
 21
 1.31367641756549E+0003
  0
ARC
  8
0
 10
 2.27700000000000E+0002
 20
 1.30700000000000E+0003
 40
 1.20000000000000E+0001
 50
 1.46195000000000E+0002
 51
 2.84480000000000E+0002
  0
LINE
  8
0
 10
 2.30700504498335E+0002
 20
 1.29538118023397E+0003
 11
 2.75710000000000E+0002
 21
 1.30700000000000E+0003
  0
LINE
  8
0
 10
 2.75710000000000E+0002
 20
 1.30700000000000E+0003
 11
 2.75710000000000E+0002
 21
 1.55000000000000E+0002
  0
LINE
  8
0
 10
 2.75710000000000E+0002
 20
 1.55000000000000E+0002
 11
 3.35710000000000E+0002
 21
 1.55000000000000E+0002
  0
LINE
  8
0
 10
 3.35710000000000E+0002
 20
 1.55000000000000E+0002
 11
 3.35710000000000E+0002
 21
 1.30700000000000E+0003
  0
LINE
  8
0
 10
 5.95750000000000E+0002
 20
 1.30700000000000E+0003
 11
 5.95750000000000E+0002
 21
 9.42426500000000E+0002
  0
LINE
  8
0
 10
 5.95750000000000E+0002
 20
 9.42426500000000E+0002
 11
 7.31956000000000E+0002
 21
 1.07863210000000E+0003
  0
LINE
  8
0
 10
 7.31956000000000E+0002
 20
 1.07863210000000E+0003
 11
 6.91905930831809E+0002
 21
 1.10221257667630E+0003
  0
ARC
  8
0
 10
 6.98000000000000E+0002
 20
 1.11255000000000E+0003
 40
 1.20000000000000E+0001
 50
 1.01195000000000E+0002
 51
 2.39480000000000E+0002
  0
LINE
  8
0
 10
 6.95670215048071E+0002
 20
 1.12432166522110E+0003
 11
 8.50749900000000E+0002
 21
 1.15500000000000E+0003
  0
LINE
  8
0
 10
 8.50749900000000E+0002
 20
 1.15500000000000E+0003
 11
 8.20071665221104E+0002
 21
 9.99920215048071E+0002
  0
ARC
  8
0
 10
 8.08300000000000E+0002
 20
 1.00225000000000E+0003
 40
 1.20000000000000E+0001
 50
 2.10525000000000E+0002
 51
 3.48805000000000E+0002
  0
LINE
  8
0
 10
 7.97963108523524E+0002
 20
 9.96155028744649E+0002
 11
 7.74382100000000E+0002
 21
 1.03620600000000E+0003
  0
LINE
  8
0
 10
 7.74382100000000E+0002
 20
 1.03620600000000E+0003
 11
 6.13323593128807E+0002
 21
 8.75126406871193E+0002
  0
ARC
  8
0
 10
 6.55750000000000E+0002
 20
 8.32700000000000E+0002
 40
 6.00000000000000E+0001
 50
 1.35000000000000E+0002
 51
 1.80000000000000E+0002
  0
LINE
  8
0
 10
 5.95750000000000E+0002
 20
 8.32700000000000E+0002
 11
 5.95750000000000E+0002
 21
 1.55000000000000E+0002
  0
LINE
  8
0
 10
 5.95750000000000E+0002
 20
 1.55000000000000E+0002
 11
 5.35750000000000E+0002
 21
 1.55000000000000E+0002
  0
LINE
  8
0
 10
 5.35750000000000E+0002
 20
 1.55000000000000E+0002
 11
 5.35750000000000E+0002
 21
 8.32721000000000E+0002
  0
LINE
  8
0
 10
 5.35750000000000E+0002
 20
 8.32721000000000E+0002
 11
 5.35750000000000E+0002
 21
 1.30700000000000E+0003
  0
LINE
  8
0
 10
 5.35750000000000E+0002
 20
 1.30700000000000E+0003
 11
 4.90749490553610E+0002
 21
 1.29538091843480E+0003
  0
ARC
  8
0
 10
 4.87750000000000E+0002
 20
 1.30700000000000E+0003
 40
 1.20000000000000E+0001
 50
 1.46195000000000E+0002
 51
 2.84475000000000E+0002
  0
LINE
  8
0
 10
 4.77778768958083E+0002
 20
 1.31367641756549E+0003
 11
 5.65750000000000E+0002
 21
 1.44500000000000E+0003
  0
LINE
  8
0
 10
 5.65750000000000E+0002
 20
 1.44500000000000E+0003
 11
 6.53721231041917E+0002
 21
 1.31367641756549E+0003
  0
ARC
  8
0
 10
 6.43750000000000E+0002
 20
 1.30700000000000E+0003
 40
 1.20000000000000E+0001
 50
 2.55525000000000E+0002
 51
 3.93805000000000E+0002
  0
LINE
  8
0
 10
 6.40750509446390E+0002
 20
 1.29538091843480E+0003
 11
 5.95750000000000E+0002
 21
 1.30700000000000E+0003
  0
LINE
  8
0
 10
 9.15803800000000E+0002
 20
 8.94784200000000E+0002
 11
 8.75755930831809E+0002
 21
 9.18412576676303E+0002
  0
ARC
  8
0
 10
 8.81850000000000E+0002
 20
 9.28750000000000E+0002
 40
 1.20000000000000E+0001
 50
 1.01195000000000E+0002
 51
 2.39480000000000E+0002
  0
LINE
  8
0
 10
 8.79520215048071E+0002
 20
 9.40521665221105E+0002
 11
 1.03459780000000E+0003
 21
 9.71152200000000E+0002
  0
LINE
  8
0
 10
 1.03459780000000E+0003
 20
 9.71152200000000E+0002
 11
 1.00392166522110E+0003
 21
 8.16070215048071E+0002
  0
ARC
  8
0
 10
 9.92150000000000E+0002
 20
 8.18400000000000E+0002
 40
 1.20000000000000E+0001
 50
 2.10520000000000E+0002
 51
 3.48805000000000E+0002
  0
LINE
  8
0
 10
 9.81812576676303E+0002
 20
 8.12305930831810E+0002
 11
 9.58229800000000E+0002
 21
 8.52358200000000E+0002
  0
LINE
  8
0
 10
 9.58229800000000E+0002
 20
 8.52358200000000E+0002
 11
 8.73323593128807E+0002
 21
 7.67476406871193E+0002
  0
ARC
  8
0
 10
 9.15750000000000E+0002
 20
 7.25050000000000E+0002
 40
 6.00000000000000E+0001
 50
 1.35000000000000E+0002
 51
 1.80000000000000E+0002
  0
LINE
  8
0
 10
 8.55750000000000E+0002
 20
 7.25050000000000E+0002
 11
 8.55749800000000E+0002
 21
 1.55000000000000E+0002
  0
LINE
  8
0
 10
 8.55749800000000E+0002
 20
 1.55000000000000E+0002
 11
 7.95749800000000E+0002
 21
 1.55000000000000E+0002
  0
LINE
  8
0
 10
 7.95749800000000E+0002
 20
 1.55000000000000E+0002
 11
 7.95750000000000E+0002
 21
 7.25050000000000E+0002
  0
ARC
  8
0
 10
 9.15750000000000E+0002
 20
 7.25050000000000E+0002
 40
 1.20000000000000E+0002
 50
 1.35000000000000E+0002
 51
 1.80000000000000E+0002
  0
LINE
  8
0
 10
 8.30897186257614E+0002
 20
 8.09902813742386E+0002
 11
 9.15803800000000E+0002
 21
 8.94784200000000E+0002
  0
ENDSEC
  0
EOF
