  0
SECTION
  2
HEADER
  9
$ACADVER
  1
AC1003
  9
$INSBASE
 10
0.0
 20
0.0
  9
$EXTMIN
 10
 0.00000000000000E+0000
 20
 0.00000000000000E+0000
  9
$EXTMAX
 10
 2.00000000000000E+0003
 20
 1.60000000000000E+0003
  9
$LIMMIN
 10
0.0
 20
0.0
  9
$LIMMAX
 10
410.0
 20
287.0
  9
$VIEWCTR
 10
227.0059616
 20
165.058879 
  9
$VIEWSIZE
 40
 2.00000000000000E+0003
9
$SNAPMODE
70
0
9
$SNAPUNIT
10
1
20
1
9
$GRIDMODE
70
0
9
$GRIDUNIT
10
1
20
1
9
$ORTHOMODE
70
0
9
$rEGENMODE
70
1
9
$FILLMODE
70
1
9
$DRAGMODE
70
2
9
$LTSCALE
40
25.0
9
$OSMODE
70
0
9
$ATTMODE
70
1
9
$TRACEWID
40
1.0
9
$TEXTSTYLE
7
STANDARD
9
$CLAYER
8
0
9
$CELTYPE
6
VONLAYER
9
$CECOLOR
62
256
9
$LUNITS
70
2
9
$LUPREC
70
2
9
$AXISMODE
70
0
9
$AXISUNIT
10
0
20
0
9
$SKETCHINC
40
1.0
9
$FILLETRAD
40
0.0
9
$AUNITS
70
0
9
$AUPREC
70
0
9
$MENU
1
ACAD
9
$ELEVATION
40
0.0
9
$THICKNESS
40
0.0
9
$VIEWDIR
10
0.0
20
0.0
30
1.0
9
$LIMCHECK
70
0
9
$BLIPMODE
70
1
9
$CHAMFERA
40
0.0
9
$CHAMFERB
40
0.0
9
$USRTIMER
70
1
9
$ANGBASE
50
0.0
9
$ANGDIR
70
0
9
$PDMODE
70
0
9
$PDSIZE
40
0.0
9
$PLINEWID
40
0.0
9
$COORDS
70
0
0
ENDSEC
0
SECTION
2
TABLES
0
TABLE
2
LTYPE
70
1
0
LTYPE
2
AUSGEZOGEN
70
64
3
Ausgezogene Linie
72
65
73
0
40
0.0
0
ENDTAB
0
TABLE
2
LAYER
70
1
0
LAYER
2
0
70
0
62
7
6
AUSGEZOGEN
0
ENDTAB
0
TABLE
2
STYLE
70
1
0
STYLE
2
STANDARD
70
0
40
0.0
41
1.0
50
0.0
71
0
42
3.5
3
txt
4

0
ENDTAB
0
TABLE
2
VIEW
70
0
0
ENDTAB
0
ENDSEC
0
SECTION
2
BLOCKS
0
ENDSEC
0
SECTION
2
ENTITIES
  0
ARC
  8
0
 10
 6.00000000000000E+0001
 20
 6.00000000000000E+0001
 40
 6.00000000000000E+0001
 50
 1.80000000000000E+0002
 51
 2.70000000000000E+0002
  0
LINE
  8
0
 10
 0.00000000000000E+0000
 20
 6.00000000000000E+0001
 11
 0.00000000000000E+0000
 21
 1.54000000000000E+0003
  0
ARC
  8
0
 10
 6.00000000000000E+0001
 20
 1.54000000000000E+0003
 40
 6.00000000000000E+0001
 50
 9.00000000000000E+0001
 51
 1.80000000000000E+0002
  0
LINE
  8
0
 10
 6.00000000000000E+0001
 20
 1.60000000000000E+0003
 11
 1.94000000000000E+0003
 21
 1.60000000000000E+0003
  0
ARC
  8
0
 10
 1.94000000000000E+0003
 20
 1.54000000000000E+0003
 40
 6.00000000000000E+0001
 50
 0.00000000000000E+0000
 51
 9.00000000000000E+0001
  0
LINE
  8
0
 10
 2.00000000000000E+0003
 20
 1.54000000000000E+0003
 11
 2.00000000000000E+0003
 21
 6.00000000000000E+0001
  0
ARC
  8
0
 10
 1.94000000000000E+0003
 20
 6.00000000000000E+0001
 40
 6.00000000000000E+0001
 50
 2.70000000000000E+0002
 51
 3.60000000000000E+0002
  0
LINE
  8
0
 10
 1.94000000000000E+0003
 20
 0.00000000000000E+0000
 11
 6.00000000000000E+0001
 21
 0.00000000000000E+0000
  0
ARC
  8
0
 10
 6.00000000000000E+0001
 20
 6.00000000000000E+0001
 40
 4.50000000000000E+0001
 50
 1.80000000000000E+0002
 51
 2.70000000000000E+0002
  0
LINE
  8
0
 10
 1.50000000000000E+0001
 20
 6.00000000000000E+0001
 11
 1.50000000000000E+0001
 21
 1.54000000000000E+0003
  0
ARC
  8
0
 10
 6.00000000000000E+0001
 20
 1.54000000000000E+0003
 40
 4.50000000000000E+0001
 50
 9.00050000000000E+0001
 51
 1.80000000000000E+0002
  0
LINE
  8
0
 10
 5.99960730091880E+0001
 20
 1.58499999982865E+0003
 11
 1.94000000000000E+0003
 21
 1.58500000000000E+0003
  0
ARC
  8
0
 10
 1.94000000000000E+0003
 20
 1.54000000000000E+0003
 40
 4.50000000000000E+0001
 50
-0.00000000000000E+0000
 51
 9.00000000000000E+0001
  0
LINE
  8
0
 10
 1.98500000000000E+0003
 20
 1.54000000000000E+0003
 11
 1.98500000000000E+0003
 21
 6.00000000000000E+0001
  0
ARC
  8
0
 10
 1.94000000000000E+0003
 20
 6.00000000000000E+0001
 40
 4.50000000000000E+0001
 50
 2.70000000000000E+0002
 51
 3.60000000000000E+0002
  0
LINE
  8
0
 10
 1.94000000000000E+0003
 20
 1.50000000000000E+0001
 11
 6.00000000000000E+0001
 21
 1.50000000000000E+0001
  0
LINE
  8
0
 10
 5.99998000000000E+0001
 20
 3.50000000000000E+0001
 11
 1.94000000000000E+0003
 21
 3.50000000000000E+0001
  0
ARC
  8
0
 10
 1.94000000000000E+0003
 20
 6.00000000000000E+0001
 40
 2.50000000000000E+0001
 50
 2.70000000000000E+0002
 51
 3.60005000000000E+0002
  0
LINE
  8
0
 10
 1.96499999990481E+0003
 20
 6.00021816615622E+0001
 11
 1.96500000000000E+0003
 21
 1.54000000000000E+0003
  0
ARC
  8
0
 10
 1.94000000000000E+0003
 20
 1.54000000000000E+0003
 40
 2.50000000000000E+0001
 50
 0.00000000000000E+0000
 51
 9.00000000000000E+0001
  0
LINE
  8
0
 10
 1.94000000000000E+0003
 20
 1.56500000000000E+0003
 11
 6.00000000000000E+0001
 21
 1.56500000000000E+0003
  0
ARC
  8
0
 10
 6.00000000000000E+0001
 20
 1.54000000000000E+0003
 40
 2.50000000000000E+0001
 50
 9.00000000000000E+0001
 51
 1.80000000000000E+0002
  0
LINE
  8
0
 10
 3.50000000000000E+0001
 20
 1.54000000000000E+0003
 11
 3.50000000000000E+0001
 21
 6.00000000000000E+0001
  0
ARC
  8
0
 10
 6.00000000000000E+0001
 20
 6.00000000000000E+0001
 40
 2.50000000000000E+0001
 50
 1.80000000000000E+0002
 51
 2.70000000000000E+0002
  0
LINE
  8
0
 10
 2.63940000000000E+0002
 20
 1.30700000000000E+0003
 11
 3.08950509446390E+0002
 21
 1.29538091843480E+0003
  0
ARC
  8
0
 10
 3.11950000000000E+0002
 20
 1.30700000000000E+0003
 40
 1.20000000000000E+0001
 50
 2.55525000000000E+0002
 51
 3.93805000000000E+0002
  0
LINE
  8
0
 10
 3.21921231041916E+0002
 20
 1.31367641756549E+0003
 11
 2.33940000000000E+0002
 21
 1.44500000000000E+0003
  0
LINE
  8
0
 10
 2.33940000000000E+0002
 20
 1.44500000000000E+0003
 11
 1.45978768958083E+0002
 21
 1.31367641756549E+0003
  0
ARC
  8
0
 10
 1.55950000000000E+0002
 20
 1.30700000000000E+0003
 40
 1.20000000000000E+0001
 50
 1.46195000000000E+0002
 51
 2.84480000000000E+0002
  0
LINE
  8
0
 10
 1.58950504498335E+0002
 20
 1.29538118023397E+0003
 11
 2.03940000000000E+0002
 21
 1.30700000000000E+0003
  0
LINE
  8
0
 10
 2.03940000000000E+0002
 20
 1.30700000000000E+0003
 11
 2.03940000000000E+0002
 21
 1.55000000000000E+0002
  0
LINE
  8
0
 10
 2.03940000000000E+0002
 20
 1.55000000000000E+0002
 11
 2.63940000000000E+0002
 21
 1.55000000000000E+0002
  0
LINE
  8
0
 10
 2.63940000000000E+0002
 20
 1.55000000000000E+0002
 11
 2.63940000000000E+0002
 21
 1.30700000000000E+0003
  0
LINE
  8
0
 10
 4.73940000000000E+0002
 20
 1.30700000000000E+0003
 11
 5.18950509446390E+0002
 21
 1.29538091843480E+0003
  0
ARC
  8
0
 10
 5.21950000000000E+0002
 20
 1.30700000000000E+0003
 40
 1.20000000000000E+0001
 50
 2.55525000000000E+0002
 51
 3.93805000000000E+0002
  0
LINE
  8
0
 10
 5.31921231041916E+0002
 20
 1.31367641756549E+0003
 11
 4.43940000000000E+0002
 21
 1.44500000000000E+0003
  0
LINE
  8
0
 10
 4.43940000000000E+0002
 20
 1.44500000000000E+0003
 11
 3.55978768958083E+0002
 21
 1.31367641756549E+0003
  0
ARC
  8
0
 10
 3.65950000000000E+0002
 20
 1.30700000000000E+0003
 40
 1.20000000000000E+0001
 50
 1.46195000000000E+0002
 51
 2.84480000000000E+0002
  0
LINE
  8
0
 10
 3.68950504498335E+0002
 20
 1.29538118023397E+0003
 11
 4.13940000000000E+0002
 21
 1.30700000000000E+0003
  0
LINE
  8
0
 10
 4.13940000000000E+0002
 20
 1.30700000000000E+0003
 11
 4.13940000000000E+0002
 21
 1.55000000000000E+0002
  0
LINE
  8
0
 10
 4.13940000000000E+0002
 20
 1.55000000000000E+0002
 11
 4.73940000000000E+0002
 21
 1.55000000000000E+0002
  0
LINE
  8
0
 10
 4.73940000000000E+0002
 20
 1.55000000000000E+0002
 11
 4.73940000000000E+0002
 21
 1.30700000000000E+0003
  0
LINE
  8
0
 10
 6.83940000000000E+0002
 20
 1.30700000000000E+0003
 11
 7.28949495501665E+0002
 21
 1.29538118023397E+0003
  0
ARC
  8
0
 10
 7.31950000000000E+0002
 20
 1.30700000000000E+0003
 40
 1.20000000000000E+0001
 50
 2.55520000000000E+0002
 51
 3.93805000000000E+0002
  0
LINE
  8
0
 10
 7.41921231041916E+0002
 20
 1.31367641756549E+0003
 11
 6.53940000000000E+0002
 21
 1.44500000000000E+0003
  0
LINE
  8
0
 10
 6.53940000000000E+0002
 20
 1.44500000000000E+0003
 11
 5.65978768958083E+0002
 21
 1.31367641756549E+0003
  0
ARC
  8
0
 10
 5.75950000000000E+0002
 20
 1.30700000000000E+0003
 40
 1.20000000000000E+0001
 50
 1.46195000000000E+0002
 51
 2.84475000000000E+0002
  0
LINE
  8
0
 10
 5.78949490553610E+0002
 20
 1.29538091843480E+0003
 11
 6.23940000000000E+0002
 21
 1.30700000000000E+0003
  0
LINE
  8
0
 10
 6.23940000000000E+0002
 20
 1.30700000000000E+0003
 11
 6.23940000000000E+0002
 21
 1.55000000000000E+0002
  0
LINE
  8
0
 10
 6.23940000000000E+0002
 20
 1.55000000000000E+0002
 11
 6.83940000000000E+0002
 21
 1.55000000000000E+0002
  0
LINE
  8
0
 10
 6.83940000000000E+0002
 20
 1.55000000000000E+0002
 11
 6.83940000000000E+0002
 21
 1.30700000000000E+0003
  0
LINE
  8
0
 10
 8.93940000000000E+0002
 20
 1.30700000000000E+0003
 11
 9.38950509446390E+0002
 21
 1.29538091843480E+0003
  0
ARC
  8
0
 10
 9.41950000000000E+0002
 20
 1.30700000000000E+0003
 40
 1.20000000000000E+0001
 50
 2.55525000000000E+0002
 51
 3.93805000000000E+0002
  0
LINE
  8
0
 10
 9.51921231041916E+0002
 20
 1.31367641756549E+0003
 11
 8.63940000000000E+0002
 21
 1.44500000000000E+0003
  0
LINE
  8
0
 10
 8.63940000000000E+0002
 20
 1.44500000000000E+0003
 11
 7.75978768958083E+0002
 21
 1.31367641756549E+0003
  0
ARC
  8
0
 10
 7.85950000000000E+0002
 20
 1.30700000000000E+0003
 40
 1.20000000000000E+0001
 50
 1.46195000000000E+0002
 51
 2.84475000000000E+0002
  0
LINE
  8
0
 10
 7.88949490553610E+0002
 20
 1.29538091843480E+0003
 11
 8.33940000000000E+0002
 21
 1.30700000000000E+0003
  0
LINE
  8
0
 10
 8.33940000000000E+0002
 20
 1.30700000000000E+0003
 11
 8.33940000000000E+0002
 21
 1.55000000000000E+0002
  0
LINE
  8
0
 10
 8.33940000000000E+0002
 20
 1.55000000000000E+0002
 11
 8.93940000000000E+0002
 21
 1.55000000000000E+0002
  0
LINE
  8
0
 10
 8.93940000000000E+0002
 20
 1.55000000000000E+0002
 11
 8.93940000000000E+0002
 21
 1.30700000000000E+0003
  0
LINE
  8
0
 10
 1.10394000000000E+0003
 20
 1.30700000000000E+0003
 11
 1.14894949550167E+0003
 21
 1.29538118023397E+0003
  0
ARC
  8
0
 10
 1.15195000000000E+0003
 20
 1.30700000000000E+0003
 40
 1.20000000000000E+0001
 50
 2.55520000000000E+0002
 51
 3.93805000000000E+0002
  0
LINE
  8
0
 10
 1.16192123104192E+0003
 20
 1.31367641756549E+0003
 11
 1.07394000000000E+0003
 21
 1.44500000000000E+0003
  0
LINE
  8
0
 10
 1.07394000000000E+0003
 20
 1.44500000000000E+0003
 11
 9.85978768958083E+0002
 21
 1.31367641756549E+0003
  0
ARC
  8
0
 10
 9.95950000000000E+0002
 20
 1.30700000000000E+0003
 40
 1.20000000000000E+0001
 50
 1.46195000000000E+0002
 51
 2.84480000000000E+0002
  0
LINE
  8
0
 10
 9.98950504498335E+0002
 20
 1.29538118023397E+0003
 11
 1.04394000000000E+0003
 21
 1.30700000000000E+0003
  0
LINE
  8
0
 10
 1.04394000000000E+0003
 20
 1.30700000000000E+0003
 11
 1.04394000000000E+0003
 21
 1.55000000000000E+0002
  0
LINE
  8
0
 10
 1.04394000000000E+0003
 20
 1.55000000000000E+0002
 11
 1.10394000000000E+0003
 21
 1.55000000000000E+0002
  0
LINE
  8
0
 10
 1.10394000000000E+0003
 20
 1.55000000000000E+0002
 11
 1.10394000000000E+0003
 21
 1.30700000000000E+0003
  0
LINE
  8
0
 10
 1.31394000000000E+0003
 20
 8.37600000000000E+0002
 11
 1.31394000000000E+0003
 21
 8.37597500000000E+0002
  0
LINE
  8
0
 10
 1.31394000000000E+0003
 20
 8.37597500000000E+0002
 11
 1.31394000000000E+0003
 21
 1.55000000000000E+0002
  0
LINE
  8
0
 10
 1.31394000000000E+0003
 20
 1.55000000000000E+0002
 11
 1.25394000000000E+0003
 21
 1.55000000000000E+0002
  0
LINE
  8
0
 10
 1.25394000000000E+0003
 20
 1.55000000000000E+0002
 11
 1.25394000000000E+0003
 21
 8.37600000000000E+0002
  0
ARC
  8
0
 10
 1.37394000000000E+0003
 20
 8.37600000000000E+0002
 40
 1.20000000000000E+0002
 50
 1.35000000000000E+0002
 51
 1.80000000000000E+0002
  0
LINE
  8
0
 10
 1.28908718625761E+0003
 20
 9.22452813742386E+0002
 11
 1.44027000000000E+0003
 21
 1.07363250000000E+0003
  0
LINE
  8
0
 10
 1.44027000000000E+0003
 20
 1.07363250000000E+0003
 11
 1.40025502874465E+0003
 21
 1.09721310852352E+0003
  0
ARC
  8
0
 10
 1.40635000000000E+0003
 20
 1.10755000000000E+0003
 40
 1.20000000000000E+0001
 50
 1.01195000000000E+0002
 51
 2.39475000000000E+0002
  0
LINE
  8
0
 10
 1.40402021504807E+0003
 20
 1.11932166522110E+0003
 11
 1.55906400000000E+0003
 21
 1.15000000000000E+0003
  0
LINE
  8
0
 10
 1.55906400000000E+0003
 20
 1.15000000000000E+0003
 11
 1.52842166522110E+0003
 21
 9.94920215048071E+0002
  0
ARC
  8
0
 10
 1.51665000000000E+0003
 20
 9.97250000000000E+0002
 40
 1.20000000000000E+0001
 50
 2.10520000000000E+0002
 51
 3.48805000000000E+0002
  0
LINE
  8
0
 10
 1.50631257667630E+0003
 20
 9.91155930831809E+0002
 11
 1.48269600000000E+0003
 21
 1.03120610000000E+0003
  0
LINE
  8
0
 10
 1.48269600000000E+0003
 20
 1.03120610000000E+0003
 11
 1.33151359312881E+0003
 21
 8.80026406871193E+0002
  0
ARC
  8
0
 10
 1.37394000000000E+0003
 20
 8.37600000000000E+0002
 40
 6.00000000000000E+0001
 50
 1.35000000000000E+0002
 51
 1.80000000000000E+0002
  0
LINE
  8
0
 10
 1.52394700000000E+0003
 20
 7.50650000000000E+0002
 11
 1.52394000000000E+0003
 21
 7.50629800000000E+0002
  0
LINE
  8
0
 10
 1.52394000000000E+0003
 20
 7.50629800000000E+0002
 11
 1.52394000000000E+0003
 21
 1.55000000000000E+0002
  0
LINE
  8
0
 10
 1.52394000000000E+0003
 20
 1.55000000000000E+0002
 11
 1.46394000000000E+0003
 21
 1.55000000000000E+0002
  0
LINE
  8
0
 10
 1.46394000000000E+0003
 20
 1.55000000000000E+0002
 11
 1.46394000000000E+0003
 21
 7.50650000000000E+0002
  0
ARC
  8
0
 10
 1.58394000000000E+0003
 20
 7.50650000000000E+0002
 40
 1.20000000000000E+0002
 50
 1.35000000000000E+0002
 51
 1.80000000000000E+0002
  0
LINE
  8
0
 10
 1.49908718625761E+0003
 20
 8.35502813742386E+0002
 11
 1.58876600000000E+0003
 21
 9.25162200000000E+0002
  0
LINE
  8
0
 10
 1.58876600000000E+0003
 20
 9.25162200000000E+0002
 11
 1.54875502874465E+0003
 21
 9.48763108523524E+0002
  0
ARC
  8
0
 10
 1.55485000000000E+0003
 20
 9.59100000000000E+0002
 40
 1.20000000000000E+0001
 50
 1.01195000000000E+0002
 51
 2.39475000000000E+0002
  0
LINE
  8
0
 10
 1.55252021504807E+0003
 20
 9.70871665221105E+0002
 11
 1.70756000000000E+0003
 21
 1.00152980000000E+0003
  0
LINE
  8
0
 10
 1.70756000000000E+0003
 20
 1.00152980000000E+0003
 11
 1.67692166522110E+0003
 21
 8.46470215048071E+0002
  0
ARC
  8
0
 10
 1.66515000000000E+0003
 20
 8.48800000000000E+0002
 40
 1.20000000000000E+0001
 50
 2.10525000000000E+0002
 51
 3.48805000000000E+0002
  0
LINE
  8
0
 10
 1.65481310852352E+0003
 20
 8.42705028744649E+0002
 11
 1.63119300000000E+0003
 21
 8.82735800000000E+0002
  0
LINE
  8
0
 10
 1.63119300000000E+0003
 20
 8.82735800000000E+0002
 11
 1.54151359312881E+0003
 21
 7.93076406871193E+0002
  0
ARC
  8
0
 10
 1.58394000000000E+0003
 20
 7.50650000000000E+0002
 40
 6.00000000000000E+0001
 50
 1.35000000000000E+0002
 51
 1.80000000000000E+0002
  0
LINE
  8
0
 10
 1.70909420000000E+0003
 20
 7.48502800000000E+0002
 11
 1.70908700000000E+0003
 21
 7.48497800000000E+0002
  0
LINE
  8
0
 10
 1.70908700000000E+0003
 20
 7.48497800000000E+0002
 11
 1.73725900000000E+0003
 21
 7.76669800000000E+0002
  0
LINE
  8
0
 10
 1.73725900000000E+0003
 20
 7.76669800000000E+0002
 11
 1.69720412670391E+0003
 21
 8.00263640449464E+0002
  0
ARC
  8
0
 10
 1.70330000000000E+0003
 20
 8.10600000000000E+0002
 40
 1.20000000000000E+0001
 50
 1.01195000000000E+0002
 51
 2.39470000000000E+0002
  0
LINE
  8
0
 10
 1.70097021504807E+0003
 20
 8.22371665221105E+0002
 11
 1.85605300000000E+0003
 21
 8.53037300000000E+0002
  0
LINE
  8
0
 10
 1.85605300000000E+0003
 20
 8.53037300000000E+0002
 11
 1.82542186848837E+0003
 21
 6.97971242328523E+0002
  0
ARC
  8
0
 10
 1.81365000000000E+0003
 20
 7.00300000000000E+0002
 40
 1.20000000000000E+0001
 50
 2.10520000000000E+0002
 51
 3.48810000000000E+0002
  0
LINE
  8
0
 10
 1.80331257667630E+0003
 20
 6.94205930831809E+0002
 11
 1.77968500000000E+0003
 21
 7.34243400000000E+0002
  0
LINE
  8
0
 10
 1.77968500000000E+0003
 20
 7.34243400000000E+0002
 11
 1.75151359312881E+0003
 21
 7.06076406871193E+0002
  0
ARC
  8
0
 10
 1.79394000000000E+0003
 20
 6.63650000000000E+0002
 40
 6.00000000000000E+0001
 50
 1.35000000000000E+0002
 51
 1.80000000000000E+0002
  0
LINE
  8
0
 10
 1.73394000000000E+0003
 20
 6.63650000000000E+0002
 11
 1.73394000000000E+0003
 21
 1.55000000000000E+0002
  0
LINE
  8
0
 10
 1.73394000000000E+0003
 20
 1.55000000000000E+0002
 11
 1.67394000000000E+0003
 21
 1.55000000000000E+0002
  0
LINE
  8
0
 10
 1.67394000000000E+0003
 20
 1.55000000000000E+0002
 11
 1.67394000000000E+0003
 21
 6.63650000000000E+0002
  0
ARC
  8
0
 10
 1.79394000000000E+0003
 20
 6.63650000000000E+0002
 40
 1.20000000000000E+0002
 50
 1.35000000000000E+0002
 51
 1.80000000000000E+0002
  0
ENDSEC
  0
EOF
