  0
SECTION
  2
HEADER
  9
$ACADVER
  1
AC1003
  9
$INSBASE
 10
0.0
 20
0.0
  9
$EXTMIN
 10
 0.00000000000000E+0000
 20
 0.00000000000000E+0000
  9
$EXTMAX
 10
 1.60000000000000E+0003
 20
 1.60000000000000E+0003
  9
$LIMMIN
 10
0.0
 20
0.0
  9
$LIMMAX
 10
410.0
 20
287.0
  9
$VIEWCTR
 10
227.0059616
 20
165.058879 
  9
$VIEWSIZE
 40
 1.60000000000000E+0003
9
$SNAPMODE
70
0
9
$SNAPUNIT
10
1
20
1
9
$GRIDMODE
70
0
9
$GRIDUNIT
10
1
20
1
9
$ORTHOMODE
70
0
9
$rEGENMODE
70
1
9
$FILLMODE
70
1
9
$DRAGMODE
70
2
9
$LTSCALE
40
25.0
9
$OSMODE
70
0
9
$ATTMODE
70
1
9
$TRACEWID
40
1.0
9
$TEXTSTYLE
7
STANDARD
9
$CLAYER
8
0
9
$CELTYPE
6
VONLAYER
9
$CECOLOR
62
256
9
$LUNITS
70
2
9
$LUPREC
70
2
9
$AXISMODE
70
0
9
$AXISUNIT
10
0
20
0
9
$SKETCHINC
40
1.0
9
$FILLETRAD
40
0.0
9
$AUNITS
70
0
9
$AUPREC
70
0
9
$MENU
1
ACAD
9
$ELEVATION
40
0.0
9
$THICKNESS
40
0.0
9
$VIEWDIR
10
0.0
20
0.0
30
1.0
9
$LIMCHECK
70
0
9
$BLIPMODE
70
1
9
$CHAMFERA
40
0.0
9
$CHAMFERB
40
0.0
9
$USRTIMER
70
1
9
$ANGBASE
50
0.0
9
$ANGDIR
70
0
9
$PDMODE
70
0
9
$PDSIZE
40
0.0
9
$PLINEWID
40
0.0
9
$COORDS
70
0
0
ENDSEC
0
SECTION
2
TABLES
0
TABLE
2
LTYPE
70
1
0
LTYPE
2
AUSGEZOGEN
70
64
3
Ausgezogene Linie
72
65
73
0
40
0.0
0
ENDTAB
0
TABLE
2
LAYER
70
1
0
LAYER
2
0
70
0
62
7
6
AUSGEZOGEN
0
ENDTAB
0
TABLE
2
STYLE
70
1
0
STYLE
2
STANDARD
70
0
40
0.0
41
1.0
50
0.0
71
0
42
3.5
3
txt
4

0
ENDTAB
0
TABLE
2
VIEW
70
0
0
ENDTAB
0
ENDSEC
0
SECTION
2
BLOCKS
0
ENDSEC
0
SECTION
2
ENTITIES
  0
ARC
  8
0
 10
 1.54000000000000E+0003
 20
 6.00000000000000E+0001
 40
 6.00000000000000E+0001
 50
 2.70000000000000E+0002
 51
 3.60000000000000E+0002
  0
LINE
  8
0
 10
 1.60000000000000E+0003
 20
 6.00000000000000E+0001
 11
 1.60000000000000E+0003
 21
 1.54000000000000E+0003
  0
ARC
  8
0
 10
 1.54000000000000E+0003
 20
 1.54000000000000E+0003
 40
 6.00000000000000E+0001
 50
 0.00000000000000E+0000
 51
 9.00000000000000E+0001
  0
LINE
  8
0
 10
 1.54000000000000E+0003
 20
 1.60000000000000E+0003
 11
 6.00000000000000E+0001
 21
 1.60000000000000E+0003
  0
ARC
  8
0
 10
 6.00000000000000E+0001
 20
 1.54000000000000E+0003
 40
 6.00000000000000E+0001
 50
 9.00000000000000E+0001
 51
 1.80000000000000E+0002
  0
LINE
  8
0
 10
 0.00000000000000E+0000
 20
 1.54000000000000E+0003
 11
 0.00000000000000E+0000
 21
 6.00000000000000E+0001
  0
ARC
  8
0
 10
 6.00000000000000E+0001
 20
 6.00000000000000E+0001
 40
 6.00000000000000E+0001
 50
 1.80000000000000E+0002
 51
 2.70000000000000E+0002
  0
LINE
  8
0
 10
 6.00000000000000E+0001
 20
 0.00000000000000E+0000
 11
 1.54000000000000E+0003
 21
 0.00000000000000E+0000
  0
ARC
  8
0
 10
 1.54000000000000E+0003
 20
 6.00000000000000E+0001
 40
 4.50000000000000E+0001
 50
 2.70000000000000E+0002
 51
 3.60000000000000E+0002
  0
LINE
  8
0
 10
 1.58500000000000E+0003
 20
 6.00000000000000E+0001
 11
 1.58500000000000E+0003
 21
 1.54000000000000E+0003
  0
ARC
  8
0
 10
 1.54000000000000E+0003
 20
 1.54000000000000E+0003
 40
 4.50000000000000E+0001
 50
 0.00000000000000E+0000
 51
 9.00000000000000E+0001
  0
LINE
  8
0
 10
 1.54000000000000E+0003
 20
 1.58500000000000E+0003
 11
 6.00000000000000E+0001
 21
 1.58500000000000E+0003
  0
ARC
  8
0
 10
 6.00000000000000E+0001
 20
 1.54000000000000E+0003
 40
 4.50000000000000E+0001
 50
 9.00000000000000E+0001
 51
 1.80000000000000E+0002
  0
LINE
  8
0
 10
 1.50000000000000E+0001
 20
 1.54000000000000E+0003
 11
 1.50000000000000E+0001
 21
 6.00000000000000E+0001
  0
ARC
  8
0
 10
 6.00000000000000E+0001
 20
 6.00000000000000E+0001
 40
 4.50000000000000E+0001
 50
 1.80000000000000E+0002
 51
 2.70000000000000E+0002
  0
LINE
  8
0
 10
 6.00000000000000E+0001
 20
 1.50000000000000E+0001
 11
 1.54000000000000E+0003
 21
 1.50000000000000E+0001
  0
ARC
  8
0
 10
 1.54000000000000E+0003
 20
 6.00000000000000E+0001
 40
 2.50000000000000E+0001
 50
 2.70000000000000E+0002
 51
 3.60000000000000E+0002
  0
LINE
  8
0
 10
 1.56500000000000E+0003
 20
 6.00000000000000E+0001
 11
 1.56500000000000E+0003
 21
 1.54000000000000E+0003
  0
ARC
  8
0
 10
 1.54000000000000E+0003
 20
 1.54000000000000E+0003
 40
 2.50000000000000E+0001
 50
 0.00000000000000E+0000
 51
 9.00000000000000E+0001
  0
LINE
  8
0
 10
 1.54000000000000E+0003
 20
 1.56500000000000E+0003
 11
 6.00000000000000E+0001
 21
 1.56500000000000E+0003
  0
ARC
  8
0
 10
 6.00000000000000E+0001
 20
 1.54000000000000E+0003
 40
 2.50000000000000E+0001
 50
 9.00000000000000E+0001
 51
 1.80000000000000E+0002
  0
LINE
  8
0
 10
 3.50000000000000E+0001
 20
 1.54000000000000E+0003
 11
 3.50000000000000E+0001
 21
 6.00000000000000E+0001
  0
ARC
  8
0
 10
 6.00000000000000E+0001
 20
 6.00000000000000E+0001
 40
 2.50000000000000E+0001
 50
 1.80000000000000E+0002
 51
 2.70000000000000E+0002
  0
LINE
  8
0
 10
 6.00000000000000E+0001
 20
 3.50000000000000E+0001
 11
 1.54000000000000E+0003
 21
 3.50000000000000E+0001
  0
LINE
  8
0
 10
 2.83168400000000E+0002
 20
 1.30700000000000E+0003
 11
 3.28150509446390E+0002
 21
 1.29538091843480E+0003
  0
ARC
  8
0
 10
 3.31150000000000E+0002
 20
 1.30700000000000E+0003
 40
 1.20000000000000E+0001
 50
 2.55525000000000E+0002
 51
 3.93805000000000E+0002
  0
LINE
  8
0
 10
 3.41121231041917E+0002
 20
 1.31367641756549E+0003
 11
 2.53168400000000E+0002
 21
 1.44500000000000E+0003
  0
LINE
  8
0
 10
 2.53168400000000E+0002
 20
 1.44500000000000E+0003
 11
 1.65178768958083E+0002
 21
 1.31367641756549E+0003
  0
ARC
  8
0
 10
 1.75150000000000E+0002
 20
 1.30700000000000E+0003
 40
 1.20000000000000E+0001
 50
 1.46195000000000E+0002
 51
 2.84475000000000E+0002
  0
LINE
  8
0
 10
 1.78149490553610E+0002
 20
 1.29538091843480E+0003
 11
 2.23168400000000E+0002
 21
 1.30700000000000E+0003
  0
LINE
  8
0
 10
 2.23168400000000E+0002
 20
 1.30700000000000E+0003
 11
 2.23168400000000E+0002
 21
 1.55000000000000E+0002
  0
LINE
  8
0
 10
 2.23168400000000E+0002
 20
 1.55000000000000E+0002
 11
 2.83168400000000E+0002
 21
 1.55000000000000E+0002
  0
LINE
  8
0
 10
 2.83168400000000E+0002
 20
 1.55000000000000E+0002
 11
 2.83168400000000E+0002
 21
 1.30700000000000E+0003
  0
LINE
  8
0
 10
 5.23168400000000E+0002
 20
 1.30700000000000E+0003
 11
 5.68150509446390E+0002
 21
 1.29538091843480E+0003
  0
ARC
  8
0
 10
 5.71150000000000E+0002
 20
 1.30700000000000E+0003
 40
 1.20000000000000E+0001
 50
 2.55525000000000E+0002
 51
 3.93805000000000E+0002
  0
LINE
  8
0
 10
 5.81121231041917E+0002
 20
 1.31367641756549E+0003
 11
 4.93168400000000E+0002
 21
 1.44500000000000E+0003
  0
LINE
  8
0
 10
 4.93168400000000E+0002
 20
 1.44500000000000E+0003
 11
 4.05178768958083E+0002
 21
 1.31367641756549E+0003
  0
ARC
  8
0
 10
 4.15150000000000E+0002
 20
 1.30700000000000E+0003
 40
 1.20000000000000E+0001
 50
 1.46195000000000E+0002
 51
 2.84475000000000E+0002
  0
LINE
  8
0
 10
 4.18149490553610E+0002
 20
 1.29538091843480E+0003
 11
 4.63168400000000E+0002
 21
 1.30700000000000E+0003
  0
LINE
  8
0
 10
 4.63168400000000E+0002
 20
 1.30700000000000E+0003
 11
 4.63168400000000E+0002
 21
 1.55000000000000E+0002
  0
LINE
  8
0
 10
 4.63168400000000E+0002
 20
 1.55000000000000E+0002
 11
 5.23168400000000E+0002
 21
 1.55000000000000E+0002
  0
LINE
  8
0
 10
 5.23168400000000E+0002
 20
 1.55000000000000E+0002
 11
 5.23168400000000E+0002
 21
 1.30700000000000E+0003
  0
LINE
  8
0
 10
 7.63168400000000E+0002
 20
 1.30700000000000E+0003
 11
 8.08150509446390E+0002
 21
 1.29538091843480E+0003
  0
ARC
  8
0
 10
 8.11150000000000E+0002
 20
 1.30700000000000E+0003
 40
 1.20000000000000E+0001
 50
 2.55525000000000E+0002
 51
 3.93805000000000E+0002
  0
LINE
  8
0
 10
 8.21121231041917E+0002
 20
 1.31367641756549E+0003
 11
 7.33168400000000E+0002
 21
 1.44500000000000E+0003
  0
LINE
  8
0
 10
 7.33168400000000E+0002
 20
 1.44500000000000E+0003
 11
 6.45178768958083E+0002
 21
 1.31367641756549E+0003
  0
ARC
  8
0
 10
 6.55150000000000E+0002
 20
 1.30700000000000E+0003
 40
 1.20000000000000E+0001
 50
 1.46195000000000E+0002
 51
 2.84475000000000E+0002
  0
LINE
  8
0
 10
 6.58149490553610E+0002
 20
 1.29538091843480E+0003
 11
 7.03168400000000E+0002
 21
 1.30700000000000E+0003
  0
LINE
  8
0
 10
 7.03168400000000E+0002
 20
 1.30700000000000E+0003
 11
 7.03168400000000E+0002
 21
 1.55000000000000E+0002
  0
LINE
  8
0
 10
 7.03168400000000E+0002
 20
 1.55000000000000E+0002
 11
 7.63168400000000E+0002
 21
 1.55000000000000E+0002
  0
LINE
  8
0
 10
 7.63168400000000E+0002
 20
 1.55000000000000E+0002
 11
 7.63168400000000E+0002
 21
 1.30700000000000E+0003
  0
LINE
  8
0
 10
 1.00316840000000E+0003
 20
 1.30700000000000E+0003
 11
 1.04815050944639E+0003
 21
 1.29538091843480E+0003
  0
ARC
  8
0
 10
 1.05115000000000E+0003
 20
 1.30700000000000E+0003
 40
 1.20000000000000E+0001
 50
 2.55525000000000E+0002
 51
 3.93805000000000E+0002
  0
LINE
  8
0
 10
 1.06112123104192E+0003
 20
 1.31367641756549E+0003
 11
 9.73168400000000E+0002
 21
 1.44500000000000E+0003
  0
LINE
  8
0
 10
 9.73168400000000E+0002
 20
 1.44500000000000E+0003
 11
 8.85178768958083E+0002
 21
 1.31367641756549E+0003
  0
ARC
  8
0
 10
 8.95150000000000E+0002
 20
 1.30700000000000E+0003
 40
 1.20000000000000E+0001
 50
 1.46195000000000E+0002
 51
 2.84475000000000E+0002
  0
LINE
  8
0
 10
 8.98149490553610E+0002
 20
 1.29538091843480E+0003
 11
 9.43168400000000E+0002
 21
 1.30700000000000E+0003
  0
LINE
  8
0
 10
 9.43168400000000E+0002
 20
 1.30700000000000E+0003
 11
 9.43168400000000E+0002
 21
 1.55000000000000E+0002
  0
LINE
  8
0
 10
 9.43168400000000E+0002
 20
 1.55000000000000E+0002
 11
 1.00316840000000E+0003
 21
 1.55000000000000E+0002
  0
LINE
  8
0
 10
 1.00316840000000E+0003
 20
 1.55000000000000E+0002
 11
 1.00316840000000E+0003
 21
 1.30700000000000E+0003
  0
LINE
  8
0
 10
 1.24316840000000E+0003
 20
 8.37600000000000E+0002
 11
 1.24316840000000E+0003
 21
 1.55000000000000E+0002
  0
LINE
  8
0
 10
 1.24316840000000E+0003
 20
 1.55000000000000E+0002
 11
 1.18316840000000E+0003
 21
 1.55000000000000E+0002
  0
LINE
  8
0
 10
 1.18316840000000E+0003
 20
 1.55000000000000E+0002
 11
 1.18316840000000E+0003
 21
 8.37600000000000E+0002
  0
ARC
  8
0
 10
 1.30316840000000E+0003
 20
 8.37600000000000E+0002
 40
 1.20000000000000E+0002
 50
 1.35000000000000E+0002
 51
 1.80000000000000E+0002
  0
LINE
  8
0
 10
 1.21831558625761E+0003
 20
 9.22452813742386E+0002
 11
 1.36949780000000E+0003
 21
 1.07363250000000E+0003
  0
LINE
  8
0
 10
 1.36949780000000E+0003
 20
 1.07363250000000E+0003
 11
 1.32945502874465E+0003
 21
 1.09721310852352E+0003
  0
ARC
  8
0
 10
 1.33555000000000E+0003
 20
 1.10755000000000E+0003
 40
 1.20000000000000E+0001
 50
 1.01195000000000E+0002
 51
 2.39475000000000E+0002
  0
LINE
  8
0
 10
 1.33322021504807E+0003
 20
 1.11932166522110E+0003
 11
 1.48829180000000E+0003
 21
 1.15000010000000E+0003
  0
LINE
  8
0
 10
 1.48829180000000E+0003
 20
 1.15000010000000E+0003
 11
 1.45762166522110E+0003
 21
 9.94920215048071E+0002
  0
ARC
  8
0
 10
 1.44585000000000E+0003
 20
 9.97250000000000E+0002
 40
 1.20000000000000E+0001
 50
 2.10525000000000E+0002
 51
 3.48805000000000E+0002
  0
LINE
  8
0
 10
 1.43551310852352E+0003
 20
 9.91155028744649E+0002
 11
 1.41192420000000E+0003
 21
 1.03120610000000E+0003
  0
LINE
  8
0
 10
 1.41192420000000E+0003
 20
 1.03120610000000E+0003
 11
 1.26074199312881E+0003
 21
 8.80026406871193E+0002
  0
ARC
  8
0
 10
 1.30316840000000E+0003
 20
 8.37600000000000E+0002
 40
 6.00000000000000E+0001
 50
 1.35000000000000E+0002
 51
 1.80000000000000E+0002
  0
ENDSEC
  0
EOF
