  0
SECTION
  2
HEADER
  9
$ACADVER
  1
AC1003
  9
$INSBASE
 10
0.0
 20
0.0
  9
$EXTMIN
 10
 0.00000000000000E+0000
 20
 0.00000000000000E+0000
  9
$EXTMAX
 10
 1.25000000000000E+0003
 20
 1.60000000000000E+0003
  9
$LIMMIN
 10
0.0
 20
0.0
  9
$LIMMAX
 10
410.0
 20
287.0
  9
$VIEWCTR
 10
227.0059616
 20
165.058879 
  9
$VIEWSIZE
 40
 1.60000000000000E+0003
9
$SNAPMODE
70
0
9
$SNAPUNIT
10
1
20
1
9
$GRIDMODE
70
0
9
$GRIDUNIT
10
1
20
1
9
$ORTHOMODE
70
0
9
$rEGENMODE
70
1
9
$FILLMODE
70
1
9
$DRAGMODE
70
2
9
$LTSCALE
40
25.0
9
$OSMODE
70
0
9
$ATTMODE
70
1
9
$TRACEWID
40
1.0
9
$TEXTSTYLE
7
STANDARD
9
$CLAYER
8
0
9
$CELTYPE
6
VONLAYER
9
$CECOLOR
62
256
9
$LUNITS
70
2
9
$LUPREC
70
2
9
$AXISMODE
70
0
9
$AXISUNIT
10
0
20
0
9
$SKETCHINC
40
1.0
9
$FILLETRAD
40
0.0
9
$AUNITS
70
0
9
$AUPREC
70
0
9
$MENU
1
ACAD
9
$ELEVATION
40
0.0
9
$THICKNESS
40
0.0
9
$VIEWDIR
10
0.0
20
0.0
30
1.0
9
$LIMCHECK
70
0
9
$BLIPMODE
70
1
9
$CHAMFERA
40
0.0
9
$CHAMFERB
40
0.0
9
$USRTIMER
70
1
9
$ANGBASE
50
0.0
9
$ANGDIR
70
0
9
$PDMODE
70
0
9
$PDSIZE
40
0.0
9
$PLINEWID
40
0.0
9
$COORDS
70
0
0
ENDSEC
0
SECTION
2
TABLES
0
TABLE
2
LTYPE
70
1
0
LTYPE
2
AUSGEZOGEN
70
64
3
Ausgezogene Linie
72
65
73
0
40
0.0
0
ENDTAB
0
TABLE
2
LAYER
70
1
0
LAYER
2
0
70
0
62
7
6
AUSGEZOGEN
0
ENDTAB
0
TABLE
2
STYLE
70
1
0
STYLE
2
STANDARD
70
0
40
0.0
41
1.0
50
0.0
71
0
42
3.5
3
txt
4

0
ENDTAB
0
TABLE
2
VIEW
70
0
0
ENDTAB
0
ENDSEC
0
SECTION
2
BLOCKS
0
ENDSEC
0
SECTION
2
ENTITIES
  0
ARC
  8
0
 10
 1.19000000000000E+0003
 20
 6.00000000000000E+0001
 40
 6.00000000000000E+0001
 50
 2.70000000000000E+0002
 51
 3.60000000000000E+0002
  0
LINE
  8
0
 10
 1.25000000000000E+0003
 20
 6.00000000000000E+0001
 11
 1.25000000000000E+0003
 21
 1.54000000000000E+0003
  0
ARC
  8
0
 10
 1.19000000000000E+0003
 20
 1.54000000000000E+0003
 40
 6.00000000000000E+0001
 50
 0.00000000000000E+0000
 51
 9.00000000000000E+0001
  0
LINE
  8
0
 10
 1.19000000000000E+0003
 20
 1.60000000000000E+0003
 11
 6.00000000000000E+0001
 21
 1.60000000000000E+0003
  0
ARC
  8
0
 10
 6.00000000000000E+0001
 20
 1.54000000000000E+0003
 40
 6.00000000000000E+0001
 50
 9.00000000000000E+0001
 51
 1.80000000000000E+0002
  0
LINE
  8
0
 10
 0.00000000000000E+0000
 20
 1.54000000000000E+0003
 11
 0.00000000000000E+0000
 21
 6.00000000000000E+0001
  0
ARC
  8
0
 10
 6.00000000000000E+0001
 20
 6.00000000000000E+0001
 40
 6.00000000000000E+0001
 50
 1.80000000000000E+0002
 51
 2.70000000000000E+0002
  0
LINE
  8
0
 10
 6.00000000000000E+0001
 20
 0.00000000000000E+0000
 11
 1.19000000000000E+0003
 21
 0.00000000000000E+0000
  0
ARC
  8
0
 10
 1.19000000000000E+0003
 20
 6.00000000000000E+0001
 40
 4.50000000000000E+0001
 50
 2.70000000000000E+0002
 51
 3.60000000000000E+0002
  0
LINE
  8
0
 10
 1.23500000000000E+0003
 20
 6.00000000000000E+0001
 11
 1.23500000000000E+0003
 21
 1.54000000000000E+0003
  0
ARC
  8
0
 10
 1.19000000000000E+0003
 20
 1.54000000000000E+0003
 40
 4.50000000000000E+0001
 50
 0.00000000000000E+0000
 51
 9.00000000000000E+0001
  0
LINE
  8
0
 10
 1.19000000000000E+0003
 20
 1.58500000000000E+0003
 11
 6.00000000000000E+0001
 21
 1.58500000000000E+0003
  0
ARC
  8
0
 10
 6.00000000000000E+0001
 20
 1.54000000000000E+0003
 40
 4.50000000000000E+0001
 50
 9.00000000000000E+0001
 51
 1.80000000000000E+0002
  0
LINE
  8
0
 10
 1.50000000000000E+0001
 20
 1.54000000000000E+0003
 11
 1.50000000000000E+0001
 21
 6.00000000000000E+0001
  0
ARC
  8
0
 10
 6.00000000000000E+0001
 20
 6.00000000000000E+0001
 40
 4.50000000000000E+0001
 50
 1.80000000000000E+0002
 51
 2.70000000000000E+0002
  0
LINE
  8
0
 10
 6.00000000000000E+0001
 20
 1.50000000000000E+0001
 11
 1.19000000000000E+0003
 21
 1.50000000000000E+0001
  0
ARC
  8
0
 10
 1.19000000000000E+0003
 20
 6.00000000000000E+0001
 40
 2.50000000000000E+0001
 50
 2.70000000000000E+0002
 51
 3.60000000000000E+0002
  0
LINE
  8
0
 10
 1.21500000000000E+0003
 20
 6.00000000000000E+0001
 11
 1.21500000000000E+0003
 21
 1.54000000000000E+0003
  0
ARC
  8
0
 10
 1.19000000000000E+0003
 20
 1.54000000000000E+0003
 40
 2.50000000000000E+0001
 50
 0.00000000000000E+0000
 51
 9.00000000000000E+0001
  0
LINE
  8
0
 10
 1.19000000000000E+0003
 20
 1.56500000000000E+0003
 11
 6.00000000000000E+0001
 21
 1.56500000000000E+0003
  0
ARC
  8
0
 10
 6.00000000000000E+0001
 20
 1.54000000000000E+0003
 40
 2.50000000000000E+0001
 50
 9.00000000000000E+0001
 51
 1.80000000000000E+0002
  0
LINE
  8
0
 10
 3.50000000000000E+0001
 20
 1.54000000000000E+0003
 11
 3.50000000000000E+0001
 21
 6.00000000000000E+0001
  0
ARC
  8
0
 10
 6.00000000000000E+0001
 20
 6.00000000000000E+0001
 40
 2.50000000000000E+0001
 50
 1.80000000000000E+0002
 51
 2.70000000000000E+0002
  0
LINE
  8
0
 10
 6.00000000000000E+0001
 20
 3.50000000000000E+0001
 11
 1.19000000000000E+0003
 21
 3.50000000000000E+0001
  0
LINE
  8
0
 10
 2.36206000000000E+0002
 20
 5.68299000000000E+0002
 11
 1.96155930831810E+0002
 21
 5.91912576676303E+0002
  0
ARC
  8
0
 10
 2.02250000000000E+0002
 20
 6.02250000000000E+0002
 40
 1.20000000000000E+0001
 50
 1.01195000000000E+0002
 51
 2.39480000000000E+0002
  0
LINE
  8
0
 10
 1.99920215048071E+0002
 20
 6.14021665221105E+0002
 11
 3.55000000000000E+0002
 21
 6.44667000000000E+0002
  0
LINE
  8
0
 10
 3.55000000000000E+0002
 20
 6.44667000000000E+0002
 11
 3.24321665221105E+0002
 21
 4.89620215048071E+0002
  0
ARC
  8
0
 10
 3.12550000000000E+0002
 20
 4.91950000000000E+0002
 40
 1.20000000000000E+0001
 50
 2.10520000000000E+0002
 51
 3.48805000000000E+0002
  0
LINE
  8
0
 10
 3.02212576676303E+0002
 20
 4.85855930831809E+0002
 11
 2.78633000000000E+0002
 21
 5.25873000000000E+0002
  0
LINE
  8
0
 10
 2.78633000000000E+0002
 20
 5.25873000000000E+0002
 11
 1.92573593128807E+0002
 21
 4.39826406871193E+0002
  0
ARC
  8
0
 10
 2.35000000000000E+0002
 20
 3.97400000000000E+0002
 40
 6.00000000000000E+0001
 50
 1.35000000000000E+0002
 51
 1.80000000000000E+0002
  0
LINE
  8
0
 10
 1.75000000000000E+0002
 20
 3.97400000000000E+0002
 11
 1.75000000000000E+0002
 21
 1.55000000000000E+0002
  0
LINE
  8
0
 10
 1.75000000000000E+0002
 20
 1.55000000000000E+0002
 11
 1.15000000000000E+0002
 21
 1.55000000000000E+0002
  0
LINE
  8
0
 10
 1.15000000000000E+0002
 20
 1.55000000000000E+0002
 11
 1.15000000000000E+0002
 21
 3.97400000000000E+0002
  0
ARC
  8
0
 10
 2.35000000000000E+0002
 20
 3.97400000000000E+0002
 40
 1.20000000000000E+0002
 50
 1.35000000000000E+0002
 51
 1.80000000000000E+0002
  0
LINE
  8
0
 10
 1.50147186257614E+0002
 20
 4.82252813742386E+0002
 11
 2.36206000000000E+0002
 21
 5.68299000000000E+0002
  0
LINE
  8
0
 10
 5.36206000000000E+0002
 20
 8.68632000000000E+0002
 11
 4.96155930831809E+0002
 21
 8.92212576676303E+0002
  0
ARC
  8
0
 10
 5.02250000000000E+0002
 20
 9.02550000000000E+0002
 40
 1.20000000000000E+0001
 50
 1.01195000000000E+0002
 51
 2.39480000000000E+0002
  0
LINE
  8
0
 10
 4.99920215048071E+0002
 20
 9.14321665221104E+0002
 11
 6.55000000000000E+0002
 21
 9.45000000000000E+0002
  0
LINE
  8
0
 10
 6.55000000000000E+0002
 20
 9.45000000000000E+0002
 11
 6.24321665221105E+0002
 21
 7.89920215048071E+0002
  0
ARC
  8
0
 10
 6.12550000000000E+0002
 20
 7.92250000000000E+0002
 40
 1.20000000000000E+0001
 50
 2.10520000000000E+0002
 51
 3.48805000000000E+0002
  0
LINE
  8
0
 10
 6.02212576676303E+0002
 20
 7.86155930831809E+0002
 11
 5.78633000000000E+0002
 21
 8.26206000000000E+0002
  0
LINE
  8
0
 10
 5.78633000000000E+0002
 20
 8.26206000000000E+0002
 11
 4.92573593128807E+0002
 21
 7.40126406871193E+0002
  0
ARC
  8
0
 10
 5.35000000000000E+0002
 20
 6.97700000000000E+0002
 40
 6.00000000000000E+0001
 50
 1.35000000000000E+0002
 51
 1.80000000000000E+0002
  0
LINE
  8
0
 10
 4.75000000000000E+0002
 20
 6.97700000000000E+0002
 11
 4.75000000000000E+0002
 21
 1.55000000000000E+0002
  0
LINE
  8
0
 10
 4.75000000000000E+0002
 20
 1.55000000000000E+0002
 11
 4.15000000000000E+0002
 21
 1.55000000000000E+0002
  0
LINE
  8
0
 10
 4.15000000000000E+0002
 20
 1.55000000000000E+0002
 11
 4.15000000000000E+0002
 21
 6.97700000000000E+0002
  0
ARC
  8
0
 10
 5.35000000000000E+0002
 20
 6.97700000000000E+0002
 40
 1.20000000000000E+0002
 50
 1.35000000000000E+0002
 51
 1.80000000000000E+0002
  0
LINE
  8
0
 10
 4.50147186257614E+0002
 20
 7.82552813742386E+0002
 11
 5.36206000000000E+0002
 21
 8.68632000000000E+0002
  0
LINE
  8
0
 10
 7.15000000000000E+0002
 20
 1.30700000000000E+0003
 11
 6.69999490553610E+0002
 21
 1.29538091843480E+0003
  0
ARC
  8
0
 10
 6.67000000000000E+0002
 20
 1.30700000000000E+0003
 40
 1.20000000000000E+0001
 50
 1.46195000000000E+0002
 51
 2.84475000000000E+0002
  0
LINE
  8
0
 10
 6.57028768958083E+0002
 20
 1.31367641756549E+0003
 11
 7.45000000000000E+0002
 21
 1.44500000000000E+0003
  0
LINE
  8
0
 10
 7.45000000000000E+0002
 20
 1.44500000000000E+0003
 11
 8.32971231041917E+0002
 21
 1.31367641756549E+0003
  0
ARC
  8
0
 10
 8.23000000000000E+0002
 20
 1.30700000000000E+0003
 40
 1.20000000000000E+0001
 50
 2.55525000000000E+0002
 51
 3.93805000000000E+0002
  0
LINE
  8
0
 10
 8.20000509446390E+0002
 20
 1.29538091843480E+0003
 11
 7.75000000000000E+0002
 21
 1.30700000000000E+0003
  0
LINE
  8
0
 10
 7.75000000000000E+0002
 20
 1.30700000000000E+0003
 11
 7.75000000000000E+0002
 21
 1.55000000000000E+0002
  0
LINE
  8
0
 10
 7.75000000000000E+0002
 20
 1.55000000000000E+0002
 11
 7.15000000000000E+0002
 21
 1.55000000000000E+0002
  0
LINE
  8
0
 10
 7.15000000000000E+0002
 20
 1.55000000000000E+0002
 11
 7.15000000000000E+0002
 21
 1.30700000000000E+0003
  0
LINE
  8
0
 10
 1.01500000000000E+0003
 20
 1.30700000000000E+0003
 11
 9.69999490553610E+0002
 21
 1.29538091843480E+0003
  0
ARC
  8
0
 10
 9.67000000000000E+0002
 20
 1.30700000000000E+0003
 40
 1.20000000000000E+0001
 50
 1.46195000000000E+0002
 51
 2.84475000000000E+0002
  0
LINE
  8
0
 10
 9.57028768958083E+0002
 20
 1.31367641756549E+0003
 11
 1.04500000000000E+0003
 21
 1.44500000000000E+0003
  0
LINE
  8
0
 10
 1.04500000000000E+0003
 20
 1.44500000000000E+0003
 11
 1.13297123104192E+0003
 21
 1.31367641756549E+0003
  0
ARC
  8
0
 10
 1.12300000000000E+0003
 20
 1.30700000000000E+0003
 40
 1.20000000000000E+0001
 50
 2.55525000000000E+0002
 51
 3.93805000000000E+0002
  0
LINE
  8
0
 10
 1.12000050944639E+0003
 20
 1.29538091843480E+0003
 11
 1.07500000000000E+0003
 21
 1.30700000000000E+0003
  0
LINE
  8
0
 10
 1.07500000000000E+0003
 20
 1.30700000000000E+0003
 11
 1.07500000000000E+0003
 21
 1.55000000000000E+0002
  0
LINE
  8
0
 10
 1.07500000000000E+0003
 20
 1.55000000000000E+0002
 11
 1.01500000000000E+0003
 21
 1.55000000000000E+0002
  0
LINE
  8
0
 10
 1.01500000000000E+0003
 20
 1.55000000000000E+0002
 11
 1.01500000000000E+0003
 21
 1.30700000000000E+0003
  0
ENDSEC
  0
EOF
