  0
SECTION
  2
HEADER
  9
$ACADVER
  1
AC1003
  9
$INSBASE
 10
0.0
 20
0.0
  9
$EXTMIN
 10
 0.00000000000000E+0000
 20
 0.00000000000000E+0000
  9
$EXTMAX
 10
 1.25000000000000E+0003
 20
 1.60000000000000E+0003
  9
$LIMMIN
 10
0.0
 20
0.0
  9
$LIMMAX
 10
410.0
 20
287.0
  9
$VIEWCTR
 10
227.0059616
 20
165.058879 
  9
$VIEWSIZE
 40
 1.60000000000000E+0003
9
$SNAPMODE
70
0
9
$SNAPUNIT
10
1
20
1
9
$GRIDMODE
70
0
9
$GRIDUNIT
10
1
20
1
9
$ORTHOMODE
70
0
9
$rEGENMODE
70
1
9
$FILLMODE
70
1
9
$DRAGMODE
70
2
9
$LTSCALE
40
25.0
9
$OSMODE
70
0
9
$ATTMODE
70
1
9
$TRACEWID
40
1.0
9
$TEXTSTYLE
7
STANDARD
9
$CLAYER
8
0
9
$CELTYPE
6
VONLAYER
9
$CECOLOR
62
256
9
$LUNITS
70
2
9
$LUPREC
70
2
9
$AXISMODE
70
0
9
$AXISUNIT
10
0
20
0
9
$SKETCHINC
40
1.0
9
$FILLETRAD
40
0.0
9
$AUNITS
70
0
9
$AUPREC
70
0
9
$MENU
1
ACAD
9
$ELEVATION
40
0.0
9
$THICKNESS
40
0.0
9
$VIEWDIR
10
0.0
20
0.0
30
1.0
9
$LIMCHECK
70
0
9
$BLIPMODE
70
1
9
$CHAMFERA
40
0.0
9
$CHAMFERB
40
0.0
9
$USRTIMER
70
1
9
$ANGBASE
50
0.0
9
$ANGDIR
70
0
9
$PDMODE
70
0
9
$PDSIZE
40
0.0
9
$PLINEWID
40
0.0
9
$COORDS
70
0
0
ENDSEC
0
SECTION
2
TABLES
0
TABLE
2
LTYPE
70
1
0
LTYPE
2
AUSGEZOGEN
70
64
3
Ausgezogene Linie
72
65
73
0
40
0.0
0
ENDTAB
0
TABLE
2
LAYER
70
1
0
LAYER
2
0
70
0
62
7
6
AUSGEZOGEN
0
ENDTAB
0
TABLE
2
STYLE
70
1
0
STYLE
2
STANDARD
70
0
40
0.0
41
1.0
50
0.0
71
0
42
3.5
3
txt
4

0
ENDTAB
0
TABLE
2
VIEW
70
0
0
ENDTAB
0
ENDSEC
0
SECTION
2
BLOCKS
0
ENDSEC
0
SECTION
2
ENTITIES
  0
ARC
  8
0
 10
 6.00000000000000E+0001
 20
 6.00000000000000E+0001
 40
 6.00000000000000E+0001
 50
 1.80000000000000E+0002
 51
 2.70000000000000E+0002
  0
LINE
  8
0
 10
 0.00000000000000E+0000
 20
 6.00000000000000E+0001
 11
 0.00000000000000E+0000
 21
 1.54000000000000E+0003
  0
ARC
  8
0
 10
 6.00000000000000E+0001
 20
 1.54000000000000E+0003
 40
 6.00000000000000E+0001
 50
 9.00000000000000E+0001
 51
 1.80000000000000E+0002
  0
LINE
  8
0
 10
 6.00000000000000E+0001
 20
 1.60000000000000E+0003
 11
 1.19000000000000E+0003
 21
 1.60000000000000E+0003
  0
ARC
  8
0
 10
 1.19000000000000E+0003
 20
 1.54000000000000E+0003
 40
 6.00000000000000E+0001
 50
 0.00000000000000E+0000
 51
 9.00000000000000E+0001
  0
LINE
  8
0
 10
 1.25000000000000E+0003
 20
 1.54000000000000E+0003
 11
 1.25000000000000E+0003
 21
 6.00000000000000E+0001
  0
ARC
  8
0
 10
 1.19000000000000E+0003
 20
 6.00000000000000E+0001
 40
 6.00000000000000E+0001
 50
 2.70000000000000E+0002
 51
 3.60000000000000E+0002
  0
LINE
  8
0
 10
 1.19000000000000E+0003
 20
 0.00000000000000E+0000
 11
 6.00000000000000E+0001
 21
 0.00000000000000E+0000
  0
ARC
  8
0
 10
 6.00000000000000E+0001
 20
 6.00000000000000E+0001
 40
 4.50000000000000E+0001
 50
 1.80000000000000E+0002
 51
 2.70000000000000E+0002
  0
LINE
  8
0
 10
 1.50000000000000E+0001
 20
 6.00000000000000E+0001
 11
 1.50000000000000E+0001
 21
 1.54000000000000E+0003
  0
ARC
  8
0
 10
 6.00000000000000E+0001
 20
 1.54000000000000E+0003
 40
 4.50000000000000E+0001
 50
 9.00000000000000E+0001
 51
 1.80000000000000E+0002
  0
LINE
  8
0
 10
 6.00000000000000E+0001
 20
 1.58500000000000E+0003
 11
 1.19000000000000E+0003
 21
 1.58500000000000E+0003
  0
ARC
  8
0
 10
 1.19000000000000E+0003
 20
 1.54000000000000E+0003
 40
 4.50000000000000E+0001
 50
 0.00000000000000E+0000
 51
 9.00000000000000E+0001
  0
LINE
  8
0
 10
 1.23500000000000E+0003
 20
 1.54000000000000E+0003
 11
 1.23500000000000E+0003
 21
 6.00000000000000E+0001
  0
ARC
  8
0
 10
 1.19000000000000E+0003
 20
 6.00000000000000E+0001
 40
 4.50000000000000E+0001
 50
 2.70000000000000E+0002
 51
 3.60000000000000E+0002
  0
LINE
  8
0
 10
 1.19000000000000E+0003
 20
 1.50000000000000E+0001
 11
 6.00000000000000E+0001
 21
 1.50000000000000E+0001
  0
ARC
  8
0
 10
 6.00000000000000E+0001
 20
 6.00000000000000E+0001
 40
 2.50000000000000E+0001
 50
 1.80000000000000E+0002
 51
 2.70000000000000E+0002
  0
LINE
  8
0
 10
 3.50000000000000E+0001
 20
 6.00000000000000E+0001
 11
 3.50000000000000E+0001
 21
 1.54000000000000E+0003
  0
ARC
  8
0
 10
 6.00000000000000E+0001
 20
 1.54000000000000E+0003
 40
 2.50000000000000E+0001
 50
 9.00000000000000E+0001
 51
 1.80000000000000E+0002
  0
LINE
  8
0
 10
 6.00000000000000E+0001
 20
 1.56500000000000E+0003
 11
 1.19000000000000E+0003
 21
 1.56500000000000E+0003
  0
ARC
  8
0
 10
 1.19000000000000E+0003
 20
 1.54000000000000E+0003
 40
 2.50000000000000E+0001
 50
 0.00000000000000E+0000
 51
 9.00000000000000E+0001
  0
LINE
  8
0
 10
 1.21500000000000E+0003
 20
 1.54000000000000E+0003
 11
 1.21500000000000E+0003
 21
 6.00000000000000E+0001
  0
ARC
  8
0
 10
 1.19000000000000E+0003
 20
 6.00000000000000E+0001
 40
 2.50000000000000E+0001
 50
 2.70000000000000E+0002
 51
 3.60000000000000E+0002
  0
LINE
  8
0
 10
 1.19000000000000E+0003
 20
 3.50000000000000E+0001
 11
 6.00000000000000E+0001
 21
 3.50000000000000E+0001
  0
LINE
  8
0
 10
 3.86206000000000E+0002
 20
 5.28299000000000E+0002
 11
 3.46155930831809E+0002
 21
 5.51912576676303E+0002
  0
ARC
  8
0
 10
 3.52250000000000E+0002
 20
 5.62250000000000E+0002
 40
 1.20000000000000E+0001
 50
 1.01195000000000E+0002
 51
 2.39480000000000E+0002
  0
LINE
  8
0
 10
 3.49920215048071E+0002
 20
 5.74021665221105E+0002
 11
 5.05000000000000E+0002
 21
 6.04667000000000E+0002
  0
LINE
  8
0
 10
 5.05000000000000E+0002
 20
 6.04667000000000E+0002
 11
 4.74321665221105E+0002
 21
 4.49620215048071E+0002
  0
ARC
  8
0
 10
 4.62550000000000E+0002
 20
 4.51950000000000E+0002
 40
 1.20000000000000E+0001
 50
 2.10520000000000E+0002
 51
 3.48805000000000E+0002
  0
LINE
  8
0
 10
 4.52212576676303E+0002
 20
 4.45855930831809E+0002
 11
 4.28633000000000E+0002
 21
 4.85873000000000E+0002
  0
LINE
  8
0
 10
 4.28633000000000E+0002
 20
 4.85873000000000E+0002
 11
 3.02573593128807E+0002
 21
 3.59826406871193E+0002
  0
ARC
  8
0
 10
 3.45000000000000E+0002
 20
 3.17400000000000E+0002
 40
 6.00000000000000E+0001
 50
 1.35000000000000E+0002
 51
 1.80000000000000E+0002
  0
LINE
  8
0
 10
 2.85000000000000E+0002
 20
 3.17400000000000E+0002
 11
 2.85000000000000E+0002
 21
 1.55000000000000E+0002
  0
LINE
  8
0
 10
 2.85000000000000E+0002
 20
 1.55000000000000E+0002
 11
 2.25000000000000E+0002
 21
 1.55000000000000E+0002
  0
LINE
  8
0
 10
 2.25000000000000E+0002
 20
 1.55000000000000E+0002
 11
 2.25000000000000E+0002
 21
 3.17400000000000E+0002
  0
ARC
  8
0
 10
 3.45000000000000E+0002
 20
 3.17400000000000E+0002
 40
 1.20000000000000E+0002
 50
 1.35000000000000E+0002
 51
 1.80000000000000E+0002
  0
LINE
  8
0
 10
 2.60147186257614E+0002
 20
 4.02252813742386E+0002
 11
 3.86206000000000E+0002
 21
 5.28299000000000E+0002
  0
LINE
  8
0
 10
 7.26206000000000E+0002
 20
 8.68632000000000E+0002
 11
 6.86155930831809E+0002
 21
 8.92212576676303E+0002
  0
ARC
  8
0
 10
 6.92250000000000E+0002
 20
 9.02550000000000E+0002
 40
 1.20000000000000E+0001
 50
 1.01195000000000E+0002
 51
 2.39480000000000E+0002
  0
LINE
  8
0
 10
 6.89920215048071E+0002
 20
 9.14321665221104E+0002
 11
 8.45000000000000E+0002
 21
 9.45000000000000E+0002
  0
LINE
  8
0
 10
 8.45000000000000E+0002
 20
 9.45000000000000E+0002
 11
 8.14321665221104E+0002
 21
 7.89920215048071E+0002
  0
ARC
  8
0
 10
 8.02550000000000E+0002
 20
 7.92250000000000E+0002
 40
 1.20000000000000E+0001
 50
 2.10520000000000E+0002
 51
 3.48805000000000E+0002
  0
LINE
  8
0
 10
 7.92212576676303E+0002
 20
 7.86155930831809E+0002
 11
 7.68633000000000E+0002
 21
 8.26206000000000E+0002
  0
LINE
  8
0
 10
 7.68633000000000E+0002
 20
 8.26206000000000E+0002
 11
 6.42573593128807E+0002
 21
 7.00126406871193E+0002
  0
ARC
  8
0
 10
 6.85000000000000E+0002
 20
 6.57700000000000E+0002
 40
 6.00000000000000E+0001
 50
 1.35000000000000E+0002
 51
 1.80000000000000E+0002
  0
LINE
  8
0
 10
 6.25000000000000E+0002
 20
 6.57700000000000E+0002
 11
 6.25000000000000E+0002
 21
 1.55000000000000E+0002
  0
LINE
  8
0
 10
 6.25000000000000E+0002
 20
 1.55000000000000E+0002
 11
 5.65000000000000E+0002
 21
 1.55000000000000E+0002
  0
LINE
  8
0
 10
 5.65000000000000E+0002
 20
 1.55000000000000E+0002
 11
 5.65000000000000E+0002
 21
 6.57700000000000E+0002
  0
ARC
  8
0
 10
 6.85000000000000E+0002
 20
 6.57700000000000E+0002
 40
 1.20000000000000E+0002
 50
 1.35000000000000E+0002
 51
 1.80000000000000E+0002
  0
LINE
  8
0
 10
 6.00147186257614E+0002
 20
 7.42552813742386E+0002
 11
 7.26206000000000E+0002
 21
 8.68632000000000E+0002
  0
LINE
  8
0
 10
 9.05000000000000E+0002
 20
 1.30700000000000E+0003
 11
 8.59999490553610E+0002
 21
 1.29538091843480E+0003
  0
ARC
  8
0
 10
 8.57000000000000E+0002
 20
 1.30700000000000E+0003
 40
 1.20000000000000E+0001
 50
 1.46195000000000E+0002
 51
 2.84475000000000E+0002
  0
LINE
  8
0
 10
 8.47028768958083E+0002
 20
 1.31367641756549E+0003
 11
 9.35000000000000E+0002
 21
 1.44500000000000E+0003
  0
LINE
  8
0
 10
 9.35000000000000E+0002
 20
 1.44500000000000E+0003
 11
 1.02297123104191E+0003
 21
 1.31367641756549E+0003
  0
ARC
  8
0
 10
 1.01300000000000E+0003
 20
 1.30700000000000E+0003
 40
 1.20000000000000E+0001
 50
 2.55525000000000E+0002
 51
 3.93805000000000E+0002
  0
LINE
  8
0
 10
 1.01000050944639E+0003
 20
 1.29538091843480E+0003
 11
 9.65000000000000E+0002
 21
 1.30700000000000E+0003
  0
LINE
  8
0
 10
 9.65000000000000E+0002
 20
 1.30700000000000E+0003
 11
 9.65000000000000E+0002
 21
 1.55000000000000E+0002
  0
LINE
  8
0
 10
 9.65000000000000E+0002
 20
 1.55000000000000E+0002
 11
 9.05000000000000E+0002
 21
 1.55000000000000E+0002
  0
LINE
  8
0
 10
 9.05000000000000E+0002
 20
 1.55000000000000E+0002
 11
 9.05000000000000E+0002
 21
 1.30700000000000E+0003
  0
ENDSEC
  0
EOF
