  0
SECTION
  2
HEADER
  9
$ACADVER
  1
AC1003
  9
$INSBASE
 10
0.0
 20
0.0
  9
$EXTMIN
 10
 0.00000000000000E+0000
 20
 0.00000000000000E+0000
  9
$EXTMAX
 10
 6.00000000000000E+0002
 20
 9.00000000000000E+0002
  9
$LIMMIN
 10
0.0
 20
0.0
  9
$LIMMAX
 10
410.0
 20
287.0
  9
$VIEWCTR
 10
227.0059616
 20
165.058879 
  9
$VIEWSIZE
 40
 9.00000000000000E+0002
9
$SNAPMODE
70
0
9
$SNAPUNIT
10
1
20
1
9
$GRIDMODE
70
0
9
$GRIDUNIT
10
1
20
1
9
$ORTHOMODE
70
0
9
$rEGENMODE
70
1
9
$FILLMODE
70
1
9
$DRAGMODE
70
2
9
$LTSCALE
40
25.0
9
$OSMODE
70
0
9
$ATTMODE
70
1
9
$TRACEWID
40
1.0
9
$TEXTSTYLE
7
STANDARD
9
$CLAYER
8
0
9
$CELTYPE
6
VONLAYER
9
$CECOLOR
62
256
9
$LUNITS
70
2
9
$LUPREC
70
2
9
$AXISMODE
70
0
9
$AXISUNIT
10
0
20
0
9
$SKETCHINC
40
1.0
9
$FILLETRAD
40
0.0
9
$AUNITS
70
0
9
$AUPREC
70
0
9
$MENU
1
ACAD
9
$ELEVATION
40
0.0
9
$THICKNESS
40
0.0
9
$VIEWDIR
10
0.0
20
0.0
30
1.0
9
$LIMCHECK
70
0
9
$BLIPMODE
70
1
9
$CHAMFERA
40
0.0
9
$CHAMFERB
40
0.0
9
$USRTIMER
70
1
9
$ANGBASE
50
0.0
9
$ANGDIR
70
0
9
$PDMODE
70
0
9
$PDSIZE
40
0.0
9
$PLINEWID
40
0.0
9
$COORDS
70
0
0
ENDSEC
0
SECTION
2
TABLES
0
TABLE
2
LTYPE
70
1
0
LTYPE
2
AUSGEZOGEN
70
64
3
Ausgezogene Linie
72
65
73
0
40
0.0
0
ENDTAB
0
TABLE
2
LAYER
70
1
0
LAYER
2
0
70
0
62
7
6
AUSGEZOGEN
0
ENDTAB
0
TABLE
2
STYLE
70
1
0
STYLE
2
STANDARD
70
0
40
0.0
41
1.0
50
0.0
71
0
42
3.5
3
txt
4

0
ENDTAB
0
TABLE
2
VIEW
70
0
0
ENDTAB
0
ENDSEC
0
SECTION
2
BLOCKS
0
ENDSEC
0
SECTION
2
ENTITIES
  0
ARC
  8
0
 10
 4.00000000000000E+0001
 20
 4.00000000000000E+0001
 40
 4.00000000000000E+0001
 50
 1.80000000000000E+0002
 51
 2.70000000000000E+0002
  0
LINE
  8
0
 10
 0.00000000000000E+0000
 20
 4.00000000000000E+0001
 11
 0.00000000000000E+0000
 21
 8.60000000000000E+0002
  0
ARC
  8
0
 10
 4.00000000000000E+0001
 20
 8.60000000000000E+0002
 40
 4.00000000000000E+0001
 50
 9.00000000000000E+0001
 51
 1.80000000000000E+0002
  0
LINE
  8
0
 10
 4.00000000000000E+0001
 20
 9.00000000000000E+0002
 11
 5.60000000000000E+0002
 21
 9.00000000000000E+0002
  0
ARC
  8
0
 10
 5.60000000000000E+0002
 20
 8.60000000000000E+0002
 40
 4.00000000000000E+0001
 50
 0.00000000000000E+0000
 51
 9.00000000000000E+0001
  0
LINE
  8
0
 10
 6.00000000000000E+0002
 20
 8.60000000000000E+0002
 11
 6.00000000000000E+0002
 21
 4.00000000000000E+0001
  0
ARC
  8
0
 10
 5.60000000000000E+0002
 20
 4.00000000000000E+0001
 40
 4.00000000000000E+0001
 50
 2.70000000000000E+0002
 51
 3.60000000000000E+0002
  0
LINE
  8
0
 10
 5.60000000000000E+0002
 20
 0.00000000000000E+0000
 11
 4.00000000000000E+0001
 21
 0.00000000000000E+0000
  0
ARC
  8
0
 10
 4.00000000000000E+0001
 20
 4.00000000000000E+0001
 40
 3.00000000000000E+0001
 50
 1.80000000000000E+0002
 51
 2.70000000000000E+0002
  0
LINE
  8
0
 10
 1.00000000000000E+0001
 20
 4.00000000000000E+0001
 11
 1.00000000000000E+0001
 21
 8.60000000000000E+0002
  0
ARC
  8
0
 10
 4.00000000000000E+0001
 20
 8.60000000000000E+0002
 40
 3.00000000000000E+0001
 50
 9.00000000000000E+0001
 51
 1.80000000000000E+0002
  0
LINE
  8
0
 10
 4.00000000000000E+0001
 20
 8.90000000000000E+0002
 11
 5.60000000000000E+0002
 21
 8.90000000000000E+0002
  0
ARC
  8
0
 10
 5.60000000000000E+0002
 20
 8.60000000000000E+0002
 40
 3.00000000000000E+0001
 50
 0.00000000000000E+0000
 51
 9.00000000000000E+0001
  0
LINE
  8
0
 10
 5.90000000000000E+0002
 20
 8.60000000000000E+0002
 11
 5.90000000000000E+0002
 21
 4.00000000000000E+0001
  0
ARC
  8
0
 10
 5.60000000000000E+0002
 20
 4.00000000000000E+0001
 40
 3.00000000000000E+0001
 50
 2.70000000000000E+0002
 51
 3.60000000000000E+0002
  0
LINE
  8
0
 10
 5.60000000000000E+0002
 20
 1.00000000000000E+0001
 11
 4.00000000000000E+0001
 21
 1.00000000000000E+0001
  0
ARC
  8
0
 10
 4.00000000000000E+0001
 20
 4.00000000000000E+0001
 40
 1.50000000000000E+0001
 50
 1.80000000000000E+0002
 51
 2.70000000000000E+0002
  0
LINE
  8
0
 10
 2.50000000000000E+0001
 20
 4.00000000000000E+0001
 11
 2.50000000000000E+0001
 21
 8.60000000000000E+0002
  0
ARC
  8
0
 10
 4.00000000000000E+0001
 20
 8.60000000000000E+0002
 40
 1.50000000000000E+0001
 50
 9.00000000000000E+0001
 51
 1.80000000000000E+0002
  0
LINE
  8
0
 10
 4.00000000000000E+0001
 20
 8.75000000000000E+0002
 11
 5.60000000000000E+0002
 21
 8.75000000000000E+0002
  0
ARC
  8
0
 10
 5.60000000000000E+0002
 20
 8.60000000000000E+0002
 40
 1.50000000000000E+0001
 50
 0.00000000000000E+0000
 51
 9.00000000000000E+0001
  0
LINE
  8
0
 10
 5.75000000000000E+0002
 20
 8.60000000000000E+0002
 11
 5.75000000000000E+0002
 21
 4.00000000000000E+0001
  0
ARC
  8
0
 10
 5.60000000000000E+0002
 20
 4.00000000000000E+0001
 40
 1.50000000000000E+0001
 50
 2.70000000000000E+0002
 51
 3.60000000000000E+0002
  0
LINE
  8
0
 10
 5.60000000000000E+0002
 20
 2.50000000000000E+0001
 11
 4.00000000000000E+0001
 21
 2.50000000000000E+0001
  0
LINE
  8
0
 10
 1.98372100000000E+0002
 20
 7.47907000000000E+0002
 11
 1.05671396623463E+0002
 21
 7.42113267119791E+0002
  0
ARC
  8
0
 10
 1.06338700000000E+0002
 20
 7.31436400000000E+0002
 40
 1.06977000000000E+0001
 50
 9.35763300000000E+0001
 51
 1.59443950000000E+0002
  0
LINE
  8
0
 10
 9.63221316705156E+0001
 20
 7.35192614076803E+0002
 11
 7.27245203149772E+0001
 21
 6.72265421194858E+0002
  0
ARC
  8
0
 10
 1.12790700000000E+0002
 20
 6.57240600000000E+0002
 40
 4.27907000000000E+0001
 50
 1.59443950000000E+0002
 51
 1.80000000000000E+0002
  0
LINE
  8
0
 10
 7.00000000000000E+0001
 20
 6.57240600000000E+0002
 11
 7.00000000000000E+0001
 21
 5.98139500000000E+0002
  0
ARC
  8
0
 10
 8.06977000000000E+0001
 20
 5.98139500000000E+0002
 40
 1.06977000000000E+0001
 50
 1.80000000000000E+0002
 51
 2.70000000000000E+0002
  0
LINE
  8
0
 10
 8.06977000000000E+0001
 20
 5.87441800000000E+0002
 11
 8.60464000000000E+0001
 21
 5.87441800000000E+0002
  0
ARC
  8
0
 10
 1.34185900000000E+0002
 20
 5.87441800000000E+0002
 40
 4.81395000000000E+0001
 50
 0.00000000000000E+0000
 51
 1.80000000000000E+0002
  0
LINE
  8
0
 10
 1.82325400000000E+0002
 20
 5.87441800000000E+0002
 11
 3.74883900000000E+0002
 21
 5.87441800000000E+0002
  0
ARC
  8
0
 10
 4.23023400000000E+0002
 20
 5.87441800000000E+0002
 40
 4.81395000000000E+0001
 50
 1.28942440000000E+0002
 51
 1.80000000000000E+0002
  0
LINE
  8
0
 10
 3.92765830257765E+0002
 20
 6.24883634003475E+0002
 11
 1.98372100000000E+0002
 21
 6.24883800000000E+0002
  0
LINE
  8
0
 10
 1.98372100000000E+0002
 20
 6.24883800000000E+0002
 11
 1.98372100000000E+0002
 21
 7.47907000000000E+0002
  0
LINE
  8
0
 10
 1.60930200000000E+0002
 20
 6.75697700000000E+0002
 11
 1.60930200000000E+0002
 21
 7.29186100000000E+0002
  0
LINE
  8
0
 10
 1.60930200000000E+0002
 20
 7.29186100000000E+0002
 11
 1.06877545192821E+0002
 21
 7.25807983462524E+0002
  0
ARC
  8
0
 10
 1.07211200000000E+0002
 20
 7.20469500000000E+0002
 40
 5.34890000000000E+0000
 50
 9.35763300000000E+0001
 51
 1.59443950000000E+0002
  0
LINE
  8
0
 10
 1.02202869018800E+0002
 20
 7.22347624594577E+0002
 11
 8.42720690188004E+0001
 21
 6.74532024594577E+0002
  0
ARC
  8
0
 10
 8.92804000000000E+0001
 20
 6.72653900000000E+0002
 40
 5.34890000000000E+0000
 50
 1.59443950000000E+0002
 51
 2.76709840000000E+0002
  0
LINE
  8
0
 10
 8.99053724450868E+0001
 20
 6.67341636767358E+0002
 11
 1.60930200000000E+0002
 21
 6.75697700000000E+0002
  0
LINE
  8
0
 10
 4.97907000000000E+0002
 20
 5.87441800000000E+0002
 11
 5.30000000000000E+0002
 21
 5.98139500000000E+0002
  0
LINE
  8
0
 10
 5.30000000000000E+0002
 20
 5.98139500000000E+0002
 11
 5.30000000000000E+0002
 21
 6.24883800000000E+0002
  0
LINE
  8
0
 10
 5.30000000000000E+0002
 20
 6.24883800000000E+0002
 11
 4.53280969742235E+0002
 21
 6.24883634003475E+0002
  0
ARC
  8
0
 10
 4.23023400000000E+0002
 20
 5.87441800000000E+0002
 40
 4.81395000000000E+0001
 50
 0.00000000000000E+0000
 51
 5.10575600000000E+0001
  0
LINE
  8
0
 10
 4.71162900000000E+0002
 20
 5.87441800000000E+0002
 11
 4.97907000000000E+0002
 21
 5.87441800000000E+0002
  0
LINE
  8
0
 10
 5.30000000000000E+0002
 20
 6.35581400000000E+0002
 11
 5.30000000000000E+0002
 21
 7.85348900000000E+0002
  0
LINE
  8
0
 10
 5.30000000000000E+0002
 20
 7.85348900000000E+0002
 11
 2.19767500000000E+0002
 21
 7.85348900000000E+0002
  0
LINE
  8
0
 10
 2.19767500000000E+0002
 20
 7.85348900000000E+0002
 11
 2.19767500000000E+0002
 21
 6.35581400000000E+0002
  0
LINE
  8
0
 10
 2.19767500000000E+0002
 20
 6.35581400000000E+0002
 11
 5.30000000000000E+0002
 21
 6.35581400000000E+0002
  0
CIRCLE
  8
0
 10
 1.34185900000000E+0002
 20
 5.87441800000000E+0002
 40
 3.74418000000000E+0001
  0
CIRCLE
  8
0
 10
 4.23023400000000E+0002
 20
 5.87441800000000E+0002
 40
 3.74418000000000E+0001
  0
LINE
  8
0
 10
 2.20000000000000E+0002
 20
 6.50000000000000E+0001
 11
 2.50000000000000E+0002
 21
 6.50000000000000E+0001
  0
LINE
  8
0
 10
 2.50000000000000E+0002
 20
 6.50000000000000E+0001
 11
 2.49875872995737E+0002
 21
 1.25962647913827E+0002
  0
ARC
  8
0
 10
 2.35000000000000E+0002
 20
 2.24850000000000E+0002
 40
 1.00000000000000E+0002
 50
 2.78555000000000E+0002
 51
 3.51445000000000E+0002
  0
LINE
  8
0
 10
 3.33887352086173E+0002
 20
 2.09974127004263E+0002
 11
 4.12500000000000E+0002
 21
 2.10000000000000E+0002
  0
LINE
  8
0
 10
 4.12500000000000E+0002
 20
 2.10000000000000E+0002
 11
 3.60000000000000E+0002
 21
 1.57500000000000E+0002
  0
LINE
  8
0
 10
 3.60000000000000E+0002
 20
 1.57500000000000E+0002
 11
 3.97500000000000E+0002
 21
 1.57500000000000E+0002
  0
LINE
  8
0
 10
 3.97500000000000E+0002
 20
 1.57500000000000E+0002
 11
 4.65000000000000E+0002
 21
 2.25000000000000E+0002
  0
LINE
  8
0
 10
 4.65000000000000E+0002
 20
 2.25000000000000E+0002
 11
 3.97500000000000E+0002
 21
 2.92500000000000E+0002
  0
LINE
  8
0
 10
 3.97500000000000E+0002
 20
 2.92500000000000E+0002
 11
 3.60000000000000E+0002
 21
 2.92500000000000E+0002
  0
LINE
  8
0
 10
 3.60000000000000E+0002
 20
 2.92500000000000E+0002
 11
 4.12500000000000E+0002
 21
 2.40000000000000E+0002
  0
LINE
  8
0
 10
 4.12500000000000E+0002
 20
 2.40000000000000E+0002
 11
 3.33887352086173E+0002
 21
 2.39875872995737E+0002
  0
ARC
  8
0
 10
 2.35000000000000E+0002
 20
 2.25000000000000E+0002
 40
 1.00000000000000E+0002
 50
 8.55500000000000E+0000
 51
 2.00000000000000E+0002
  0
LINE
  8
0
 10
 1.41030737921409E+0002
 20
 1.90797985667433E+0002
 11
 1.69221516544986E+0002
 21
 2.01058589967203E+0002
  0
ARC
  8
0
 10
 2.35000000000000E+0002
 20
 2.25000000000000E+0002
 40
 7.00000000000000E+0001
 50
 2.57625000000000E+0002
 51
 5.60000000000000E+0002
  0
ENDSEC
  0
EOF
