  0
SECTION
  2
HEADER
  9
$ACADVER
  1
AC1003
  9
$INSBASE
 10
0.0
 20
0.0
  9
$EXTMIN
 10
 0.00000000000000E+0000
 20
 0.00000000000000E+0000
  9
$EXTMAX
 10
 6.00000000000000E+0002
 20
 9.00000000000000E+0002
  9
$LIMMIN
 10
0.0
 20
0.0
  9
$LIMMAX
 10
410.0
 20
287.0
  9
$VIEWCTR
 10
227.0059616
 20
165.058879 
  9
$VIEWSIZE
 40
 9.00000000000000E+0002
9
$SNAPMODE
70
0
9
$SNAPUNIT
10
1
20
1
9
$GRIDMODE
70
0
9
$GRIDUNIT
10
1
20
1
9
$ORTHOMODE
70
0
9
$rEGENMODE
70
1
9
$FILLMODE
70
1
9
$DRAGMODE
70
2
9
$LTSCALE
40
25.0
9
$OSMODE
70
0
9
$ATTMODE
70
1
9
$TRACEWID
40
1.0
9
$TEXTSTYLE
7
STANDARD
9
$CLAYER
8
0
9
$CELTYPE
6
VONLAYER
9
$CECOLOR
62
256
9
$LUNITS
70
2
9
$LUPREC
70
2
9
$AXISMODE
70
0
9
$AXISUNIT
10
0
20
0
9
$SKETCHINC
40
1.0
9
$FILLETRAD
40
0.0
9
$AUNITS
70
0
9
$AUPREC
70
0
9
$MENU
1
ACAD
9
$ELEVATION
40
0.0
9
$THICKNESS
40
0.0
9
$VIEWDIR
10
0.0
20
0.0
30
1.0
9
$LIMCHECK
70
0
9
$BLIPMODE
70
1
9
$CHAMFERA
40
0.0
9
$CHAMFERB
40
0.0
9
$USRTIMER
70
1
9
$ANGBASE
50
0.0
9
$ANGDIR
70
0
9
$PDMODE
70
0
9
$PDSIZE
40
0.0
9
$PLINEWID
40
0.0
9
$COORDS
70
0
0
ENDSEC
0
SECTION
2
TABLES
0
TABLE
2
LTYPE
70
1
0
LTYPE
2
AUSGEZOGEN
70
64
3
Ausgezogene Linie
72
65
73
0
40
0.0
0
ENDTAB
0
TABLE
2
LAYER
70
1
0
LAYER
2
0
70
0
62
7
6
AUSGEZOGEN
0
ENDTAB
0
TABLE
2
STYLE
70
1
0
STYLE
2
STANDARD
70
0
40
0.0
41
1.0
50
0.0
71
0
42
3.5
3
txt
4

0
ENDTAB
0
TABLE
2
VIEW
70
0
0
ENDTAB
0
ENDSEC
0
SECTION
2
BLOCKS
0
ENDSEC
0
SECTION
2
ENTITIES
  0
ARC
  8
0
 10
 4.00000000000000E+0001
 20
 4.00000000000000E+0001
 40
 4.00000000000000E+0001
 50
 1.80000000000000E+0002
 51
 2.70000000000000E+0002
  0
LINE
  8
0
 10
 0.00000000000000E+0000
 20
 4.00000000000000E+0001
 11
 0.00000000000000E+0000
 21
 8.60000000000000E+0002
  0
ARC
  8
0
 10
 4.00000000000000E+0001
 20
 8.60000000000000E+0002
 40
 4.00000000000000E+0001
 50
 9.00000000000000E+0001
 51
 1.80000000000000E+0002
  0
LINE
  8
0
 10
 4.00000000000000E+0001
 20
 9.00000000000000E+0002
 11
 5.60000000000000E+0002
 21
 9.00000000000000E+0002
  0
ARC
  8
0
 10
 5.60000000000000E+0002
 20
 8.60000000000000E+0002
 40
 4.00000000000000E+0001
 50
 0.00000000000000E+0000
 51
 9.00000000000000E+0001
  0
LINE
  8
0
 10
 6.00000000000000E+0002
 20
 8.60000000000000E+0002
 11
 6.00000000000000E+0002
 21
 4.00000000000000E+0001
  0
ARC
  8
0
 10
 5.60000000000000E+0002
 20
 4.00000000000000E+0001
 40
 4.00000000000000E+0001
 50
 2.70000000000000E+0002
 51
 3.60000000000000E+0002
  0
LINE
  8
0
 10
 5.60000000000000E+0002
 20
 0.00000000000000E+0000
 11
 4.00000000000000E+0001
 21
 0.00000000000000E+0000
  0
ARC
  8
0
 10
 4.00000000000000E+0001
 20
 4.00000000000000E+0001
 40
 3.00000000000000E+0001
 50
 1.80000000000000E+0002
 51
 2.70000000000000E+0002
  0
LINE
  8
0
 10
 1.00000000000000E+0001
 20
 4.00000000000000E+0001
 11
 1.00000000000000E+0001
 21
 8.60000000000000E+0002
  0
ARC
  8
0
 10
 4.00000000000000E+0001
 20
 8.60000000000000E+0002
 40
 3.00000000000000E+0001
 50
 9.00000000000000E+0001
 51
 1.80000000000000E+0002
  0
LINE
  8
0
 10
 4.00000000000000E+0001
 20
 8.90000000000000E+0002
 11
 5.60000000000000E+0002
 21
 8.90000000000000E+0002
  0
ARC
  8
0
 10
 5.60000000000000E+0002
 20
 8.60000000000000E+0002
 40
 3.00000000000000E+0001
 50
 0.00000000000000E+0000
 51
 9.00000000000000E+0001
  0
LINE
  8
0
 10
 5.90000000000000E+0002
 20
 8.60000000000000E+0002
 11
 5.90000000000000E+0002
 21
 4.00000000000000E+0001
  0
ARC
  8
0
 10
 5.60000000000000E+0002
 20
 4.00000000000000E+0001
 40
 3.00000000000000E+0001
 50
 2.70000000000000E+0002
 51
 3.60000000000000E+0002
  0
LINE
  8
0
 10
 5.60000000000000E+0002
 20
 1.00000000000000E+0001
 11
 4.00000000000000E+0001
 21
 1.00000000000000E+0001
  0
ARC
  8
0
 10
 4.00000000000000E+0001
 20
 4.00000000000000E+0001
 40
 1.50000000000000E+0001
 50
 1.80000000000000E+0002
 51
 2.70000000000000E+0002
  0
LINE
  8
0
 10
 2.50000000000000E+0001
 20
 4.00000000000000E+0001
 11
 2.50000000000000E+0001
 21
 8.60000000000000E+0002
  0
ARC
  8
0
 10
 4.00000000000000E+0001
 20
 8.60000000000000E+0002
 40
 1.50000000000000E+0001
 50
 9.00000000000000E+0001
 51
 1.80000000000000E+0002
  0
LINE
  8
0
 10
 4.00000000000000E+0001
 20
 8.75000000000000E+0002
 11
 5.60000000000000E+0002
 21
 8.75000000000000E+0002
  0
ARC
  8
0
 10
 5.60000000000000E+0002
 20
 8.60000000000000E+0002
 40
 1.50000000000000E+0001
 50
 0.00000000000000E+0000
 51
 9.00000000000000E+0001
  0
LINE
  8
0
 10
 5.75000000000000E+0002
 20
 8.60000000000000E+0002
 11
 5.75000000000000E+0002
 21
 4.00000000000000E+0001
  0
ARC
  8
0
 10
 5.60000000000000E+0002
 20
 4.00000000000000E+0001
 40
 1.50000000000000E+0001
 50
 2.70000000000000E+0002
 51
 3.60000000000000E+0002
  0
LINE
  8
0
 10
 5.60000000000000E+0002
 20
 2.50000000000000E+0001
 11
 4.00000000000000E+0001
 21
 2.50000000000000E+0001
  0
LINE
  8
0
 10
 1.60000000000000E+0002
 20
 4.87000000000000E+0002
 11
 1.66461542925665E+0002
 21
 4.89692309552360E+0002
  0
ARC
  8
0
 10
 1.88000000000000E+0002
 20
 4.38000000000000E+0002
 40
 5.60000000000000E+0001
 50
 6.73801400000000E+0001
 51
 1.12619860000000E+0002
  0
LINE
  8
0
 10
 2.09538457074335E+0002
 20
 4.89692309552360E+0002
 11
 2.22461542925665E+0002
 21
 4.84307690447640E+0002
  0
ARC
  8
0
 10
 2.44000000000000E+0002
 20
 5.36000000000000E+0002
 40
 5.60000000000000E+0001
 50
 2.47380140000000E+0002
 51
 2.92619860000000E+0002
  0
LINE
  8
0
 10
 2.65538457074335E+0002
 20
 4.84307690447640E+0002
 11
 2.78461542925665E+0002
 21
 4.89692309552360E+0002
  0
ARC
  8
0
 10
 3.00000000000000E+0002
 20
 4.38000000000000E+0002
 40
 5.60000000000000E+0001
 50
 6.73801400000000E+0001
 51
 1.12619860000000E+0002
  0
LINE
  8
0
 10
 3.21538457074335E+0002
 20
 4.89692309552360E+0002
 11
 3.34461542925665E+0002
 21
 4.84307690447640E+0002
  0
ARC
  8
0
 10
 3.56000000000000E+0002
 20
 5.36000000000000E+0002
 40
 5.60000000000000E+0001
 50
 2.47380140000000E+0002
 51
 2.92619860000000E+0002
  0
LINE
  8
0
 10
 3.77538457074335E+0002
 20
 4.84307690447640E+0002
 11
 3.90461442925665E+0002
 21
 4.89692309552360E+0002
  0
ARC
  8
0
 10
 4.11999900000000E+0002
 20
 4.38000000000000E+0002
 40
 5.60000000000000E+0001
 50
 6.73801400000000E+0001
 51
 1.12619860000000E+0002
  0
LINE
  8
0
 10
 4.33538357074335E+0002
 20
 4.89692309552360E+0002
 11
 4.39999900000000E+0002
 21
 4.87000000000000E+0002
  0
LINE
  8
0
 10
 4.39999900000000E+0002
 20
 4.87000000000000E+0002
 11
 4.39999900000000E+0002
 21
 5.01000000000000E+0002
  0
LINE
  8
0
 10
 4.39999900000000E+0002
 20
 5.01000000000000E+0002
 11
 4.33538357074335E+0002
 21
 5.03692309552360E+0002
  0
ARC
  8
0
 10
 4.11999900000000E+0002
 20
 4.52000000000000E+0002
 40
 5.60000000000000E+0001
 50
 6.73801400000000E+0001
 51
 1.12619860000000E+0002
  0
LINE
  8
0
 10
 3.90461442925665E+0002
 20
 5.03692309552360E+0002
 11
 3.77538457074335E+0002
 21
 4.98307690447640E+0002
  0
ARC
  8
0
 10
 3.56000000000000E+0002
 20
 5.50000000000000E+0002
 40
 5.60000000000000E+0001
 50
 2.47380140000000E+0002
 51
 2.92619860000000E+0002
  0
LINE
  8
0
 10
 3.34461542925665E+0002
 20
 4.98307690447640E+0002
 11
 3.21538457074335E+0002
 21
 5.03692309552360E+0002
  0
ARC
  8
0
 10
 3.00000000000000E+0002
 20
 4.52000000000000E+0002
 40
 5.60000000000000E+0001
 50
 6.73801400000000E+0001
 51
 1.12619860000000E+0002
  0
LINE
  8
0
 10
 2.78461542925665E+0002
 20
 5.03692309552360E+0002
 11
 2.65538457074335E+0002
 21
 4.98307690447640E+0002
  0
ARC
  8
0
 10
 2.44000000000000E+0002
 20
 5.50000000000000E+0002
 40
 5.60000000000000E+0001
 50
 2.47380140000000E+0002
 51
 2.92619860000000E+0002
  0
LINE
  8
0
 10
 2.22461542925665E+0002
 20
 4.98307690447640E+0002
 11
 2.09538457074335E+0002
 21
 5.03692309552360E+0002
  0
ARC
  8
0
 10
 1.88000000000000E+0002
 20
 4.52000000000000E+0002
 40
 5.60000000000000E+0001
 50
 6.73801400000000E+0001
 51
 1.12619860000000E+0002
  0
LINE
  8
0
 10
 1.66461542925665E+0002
 20
 5.03692309552360E+0002
 11
 1.60000000000000E+0002
 21
 5.01000000000000E+0002
  0
LINE
  8
0
 10
 1.60000000000000E+0002
 20
 5.01000000000000E+0002
 11
 1.60000000000000E+0002
 21
 4.87000000000000E+0002
  0
LINE
  8
0
 10
 1.60000000000000E+0002
 20
 5.15000000000000E+0002
 11
 1.66461542925665E+0002
 21
 5.17692309552360E+0002
  0
ARC
  8
0
 10
 1.88000000000000E+0002
 20
 4.66000000000000E+0002
 40
 5.60000000000000E+0001
 50
 6.73801400000000E+0001
 51
 1.12619860000000E+0002
  0
LINE
  8
0
 10
 2.09538457074335E+0002
 20
 5.17692309552360E+0002
 11
 2.22461542925665E+0002
 21
 5.12307690447640E+0002
  0
ARC
  8
0
 10
 2.44000000000000E+0002
 20
 5.64000000000000E+0002
 40
 5.60000000000000E+0001
 50
 2.47380140000000E+0002
 51
 2.92619860000000E+0002
  0
LINE
  8
0
 10
 2.65538457074335E+0002
 20
 5.12307690447640E+0002
 11
 2.78461542925665E+0002
 21
 5.17692309552360E+0002
  0
ARC
  8
0
 10
 3.00000000000000E+0002
 20
 4.66000000000000E+0002
 40
 5.60000000000000E+0001
 50
 6.73801400000000E+0001
 51
 1.12619860000000E+0002
  0
LINE
  8
0
 10
 3.21538457074335E+0002
 20
 5.17692309552360E+0002
 11
 3.34461542925665E+0002
 21
 5.12307690447640E+0002
  0
ARC
  8
0
 10
 3.56000000000000E+0002
 20
 5.64000000000000E+0002
 40
 5.60000000000000E+0001
 50
 2.47380140000000E+0002
 51
 2.92619860000000E+0002
  0
LINE
  8
0
 10
 3.77538457074335E+0002
 20
 5.12307690447640E+0002
 11
 3.90461442925665E+0002
 21
 5.17692309552360E+0002
  0
ARC
  8
0
 10
 4.11999900000000E+0002
 20
 4.66000000000000E+0002
 40
 5.60000000000000E+0001
 50
 6.73801400000000E+0001
 51
 1.12619860000000E+0002
  0
LINE
  8
0
 10
 4.33538357074335E+0002
 20
 5.17692309552360E+0002
 11
 4.39999900000000E+0002
 21
 5.15000000000000E+0002
  0
LINE
  8
0
 10
 4.39999900000000E+0002
 20
 5.15000000000000E+0002
 11
 4.39999900000000E+0002
 21
 5.29000000000000E+0002
  0
LINE
  8
0
 10
 4.39999900000000E+0002
 20
 5.29000000000000E+0002
 11
 4.33538357074335E+0002
 21
 5.31692309552360E+0002
  0
ARC
  8
0
 10
 4.11999900000000E+0002
 20
 4.80000000000000E+0002
 40
 5.60000000000000E+0001
 50
 6.73801400000000E+0001
 51
 1.12619860000000E+0002
  0
LINE
  8
0
 10
 3.90461442925665E+0002
 20
 5.31692309552360E+0002
 11
 3.77538457074335E+0002
 21
 5.26307690447640E+0002
  0
ARC
  8
0
 10
 3.56000000000000E+0002
 20
 5.78000000000000E+0002
 40
 5.60000000000000E+0001
 50
 2.47380140000000E+0002
 51
 2.92619860000000E+0002
  0
LINE
  8
0
 10
 3.34461542925665E+0002
 20
 5.26307690447640E+0002
 11
 3.21538457074335E+0002
 21
 5.31692309552360E+0002
  0
ARC
  8
0
 10
 3.00000000000000E+0002
 20
 4.80000000000000E+0002
 40
 5.60000000000000E+0001
 50
 6.73801400000000E+0001
 51
 1.12619860000000E+0002
  0
LINE
  8
0
 10
 2.78461542925665E+0002
 20
 5.31692309552360E+0002
 11
 2.65538457074335E+0002
 21
 5.26307690447640E+0002
  0
ARC
  8
0
 10
 2.44000000000000E+0002
 20
 5.78000000000000E+0002
 40
 5.60000000000000E+0001
 50
 2.47380140000000E+0002
 51
 2.92619860000000E+0002
  0
LINE
  8
0
 10
 2.22461542925665E+0002
 20
 5.26307690447640E+0002
 11
 2.09538457074335E+0002
 21
 5.31692309552360E+0002
  0
ARC
  8
0
 10
 1.88000000000000E+0002
 20
 4.80000000000000E+0002
 40
 5.60000000000000E+0001
 50
 6.73801400000000E+0001
 51
 1.12619860000000E+0002
  0
LINE
  8
0
 10
 1.66461542925665E+0002
 20
 5.31692309552360E+0002
 11
 1.60000000000000E+0002
 21
 5.29000000000000E+0002
  0
LINE
  8
0
 10
 1.60000000000000E+0002
 20
 5.29000000000000E+0002
 11
 1.60000000000000E+0002
 21
 5.15000000000000E+0002
  0
ARC
  8
0
 10
 1.81000000000000E+0002
 20
 5.57000000000000E+0002
 40
 7.00000000000000E+0000
 50
 1.80000000000000E+0002
 51
 2.70000000000000E+0002
  0
LINE
  8
0
 10
 1.74000000000000E+0002
 20
 5.57000000000000E+0002
 11
 1.74000000000000E+0002
 21
 6.27000000000000E+0002
  0
ARC
  8
0
 10
 1.81000000000000E+0002
 20
 6.27000000000000E+0002
 40
 7.00000000000000E+0000
 50
 9.00000000000000E+0001
 51
 1.80000000000000E+0002
  0
LINE
  8
0
 10
 1.81000000000000E+0002
 20
 6.34000000000000E+0002
 11
 2.02000000000000E+0002
 21
 6.34000000000000E+0002
  0
ARC
  8
0
 10
 2.02000000000000E+0002
 20
 6.27000000000000E+0002
 40
 7.00000000000000E+0000
 50
 0.00000000000000E+0000
 51
 9.00000000000000E+0001
  0
LINE
  8
0
 10
 2.09000000000000E+0002
 20
 6.27000000000000E+0002
 11
 2.09000000000000E+0002
 21
 5.57000000000000E+0002
  0
ARC
  8
0
 10
 2.02000000000000E+0002
 20
 5.57000000000000E+0002
 40
 7.00000000000000E+0000
 50
 2.70000000000000E+0002
 51
 3.60000000000000E+0002
  0
LINE
  8
0
 10
 2.02000000000000E+0002
 20
 5.50000000000000E+0002
 11
 1.81000000000000E+0002
 21
 5.50000000000000E+0002
  0
ARC
  8
0
 10
 2.23000000000000E+0002
 20
 5.57000000000000E+0002
 40
 7.00000000000000E+0000
 50
 1.80000000000000E+0002
 51
 2.70000000000000E+0002
  0
LINE
  8
0
 10
 2.16000000000000E+0002
 20
 5.57000000000000E+0002
 11
 2.16000000000000E+0002
 21
 6.27000000000000E+0002
  0
ARC
  8
0
 10
 2.23000000000000E+0002
 20
 6.27000000000000E+0002
 40
 7.00000000000000E+0000
 50
 9.00000000000000E+0001
 51
 1.80000000000000E+0002
  0
LINE
  8
0
 10
 2.23000000000000E+0002
 20
 6.34000000000000E+0002
 11
 2.44000000000000E+0002
 21
 6.34000000000000E+0002
  0
ARC
  8
0
 10
 2.44000000000000E+0002
 20
 6.27000000000000E+0002
 40
 7.00000000000000E+0000
 50
 0.00000000000000E+0000
 51
 9.00000000000000E+0001
  0
LINE
  8
0
 10
 2.51000000000000E+0002
 20
 6.27000000000000E+0002
 11
 2.51000000000000E+0002
 21
 6.07750000000000E+0002
  0
ARC
  8
0
 10
 2.58000000000000E+0002
 20
 6.07750000000000E+0002
 40
 7.00000000000000E+0000
 50
 1.80000000000000E+0002
 51
 2.70000000000000E+0002
  0
LINE
  8
0
 10
 2.58000000000000E+0002
 20
 6.00750000000000E+0002
 11
 2.71300000000000E+0002
 21
 6.00750000000000E+0002
  0
ARC
  8
0
 10
 2.71300000000000E+0002
 20
 6.14750000000000E+0002
 40
 1.40000000000000E+0001
 50
 2.70000000000000E+0002
 51
 3.13602810000000E+0002
  0
LINE
  8
0
 10
 2.80955170826160E+0002
 20
 6.04612067453486E+0002
 11
 2.85517243760759E+0002
 21
 6.08956898819771E+0002
  0
ARC
  8
0
 10
 3.00000000000000E+0002
 20
 5.93750000000000E+0002
 40
 2.10000000000000E+0001
 50
 4.63971900000000E+0001
 51
 1.33602810000000E+0002
  0
LINE
  8
0
 10
 3.14482756239241E+0002
 20
 6.08956898819771E+0002
 11
 3.19044829173840E+0002
 21
 6.04612067453486E+0002
  0
ARC
  8
0
 10
 3.28700000000000E+0002
 20
 6.14750000000000E+0002
 40
 1.40000000000000E+0001
 50
 2.26397190000000E+0002
 51
 2.70000000000000E+0002
  0
LINE
  8
0
 10
 3.28700000000000E+0002
 20
 6.00750000000000E+0002
 11
 3.42000000000000E+0002
 21
 6.00750000000000E+0002
  0
ARC
  8
0
 10
 3.42000000000000E+0002
 20
 6.07750000000000E+0002
 40
 7.00000000000000E+0000
 50
 2.70000000000000E+0002
 51
 3.60000000000000E+0002
  0
LINE
  8
0
 10
 3.49000000000000E+0002
 20
 6.07750000000000E+0002
 11
 3.49000000000000E+0002
 21
 6.27000000000000E+0002
  0
ARC
  8
0
 10
 3.56000000000000E+0002
 20
 6.27000000000000E+0002
 40
 7.00000000000000E+0000
 50
 9.00000000000000E+0001
 51
 1.80000000000000E+0002
  0
LINE
  8
0
 10
 3.56000000000000E+0002
 20
 6.34000000000000E+0002
 11
 3.77000000000000E+0002
 21
 6.34000000000000E+0002
  0
ARC
  8
0
 10
 3.77000000000000E+0002
 20
 6.27000000000000E+0002
 40
 7.00000000000000E+0000
 50
 0.00000000000000E+0000
 51
 9.00000000000000E+0001
  0
LINE
  8
0
 10
 3.84000000000000E+0002
 20
 6.27000000000000E+0002
 11
 3.84000000000000E+0002
 21
 5.57000000000000E+0002
  0
ARC
  8
0
 10
 3.77000000000000E+0002
 20
 5.57000000000000E+0002
 40
 7.00000000000000E+0000
 50
 2.70000000000000E+0002
 51
 3.60000000000000E+0002
  0
LINE
  8
0
 10
 3.77000000000000E+0002
 20
 5.50000000000000E+0002
 11
 3.56000000000000E+0002
 21
 5.50000000000000E+0002
  0
ARC
  8
0
 10
 3.56000000000000E+0002
 20
 5.57000000000000E+0002
 40
 7.00000000000000E+0000
 50
 1.80000000000000E+0002
 51
 2.70000000000000E+0002
  0
LINE
  8
0
 10
 3.49000000000000E+0002
 20
 5.57000000000000E+0002
 11
 3.49000000000000E+0002
 21
 5.76250000000000E+0002
  0
ARC
  8
0
 10
 3.42000000000000E+0002
 20
 5.76250000000000E+0002
 40
 7.00000000000000E+0000
 50
 0.00000000000000E+0000
 51
 9.00000000000000E+0001
  0
LINE
  8
0
 10
 3.42000000000000E+0002
 20
 5.83250000000000E+0002
 11
 3.28700000000000E+0002
 21
 5.83250000000000E+0002
  0
ARC
  8
0
 10
 3.28700000000000E+0002
 20
 5.69250000000000E+0002
 40
 1.40000000000000E+0001
 50
 9.00000000000000E+0001
 51
 1.33602810000000E+0002
  0
LINE
  8
0
 10
 3.19044829173840E+0002
 20
 5.79387932546514E+0002
 11
 3.14482756239241E+0002
 21
 5.75043101180229E+0002
  0
ARC
  8
0
 10
 3.00000000000000E+0002
 20
 5.90250000000000E+0002
 40
 2.10000000000000E+0001
 50
 2.26397190000000E+0002
 51
 3.13602810000000E+0002
  0
LINE
  8
0
 10
 2.85517243760759E+0002
 20
 5.75043101180229E+0002
 11
 2.80955170826160E+0002
 21
 5.79387932546514E+0002
  0
ARC
  8
0
 10
 2.71300000000000E+0002
 20
 5.69250000000000E+0002
 40
 1.40000000000000E+0001
 50
 4.63971900000000E+0001
 51
 9.00000000000000E+0001
  0
LINE
  8
0
 10
 2.71300000000000E+0002
 20
 5.83250000000000E+0002
 11
 2.58000000000000E+0002
 21
 5.83250000000000E+0002
  0
ARC
  8
0
 10
 2.58000000000000E+0002
 20
 5.76250000000000E+0002
 40
 7.00000000000000E+0000
 50
 9.00000000000000E+0001
 51
 1.80000000000000E+0002
  0
LINE
  8
0
 10
 2.51000000000000E+0002
 20
 5.76250000000000E+0002
 11
 2.51000000000000E+0002
 21
 5.57000000000000E+0002
  0
ARC
  8
0
 10
 2.44000000000000E+0002
 20
 5.57000000000000E+0002
 40
 7.00000000000000E+0000
 50
 2.70000000000000E+0002
 51
 3.60000000000000E+0002
  0
LINE
  8
0
 10
 2.44000000000000E+0002
 20
 5.50000000000000E+0002
 11
 2.23000000000000E+0002
 21
 5.50000000000000E+0002
  0
ARC
  8
0
 10
 3.97999900000000E+0002
 20
 5.57000000000000E+0002
 40
 7.00000000000000E+0000
 50
 1.80000000000000E+0002
 51
 2.70000000000000E+0002
  0
LINE
  8
0
 10
 3.90999900000000E+0002
 20
 5.57000000000000E+0002
 11
 3.90999900000000E+0002
 21
 6.27000000000000E+0002
  0
ARC
  8
0
 10
 3.97999900000000E+0002
 20
 6.27000000000000E+0002
 40
 7.00000000000000E+0000
 50
 9.00000000000000E+0001
 51
 1.80000000000000E+0002
  0
LINE
  8
0
 10
 3.97999900000000E+0002
 20
 6.34000000000000E+0002
 11
 4.18999900000000E+0002
 21
 6.34000000000000E+0002
  0
ARC
  8
0
 10
 4.18999900000000E+0002
 20
 6.27000000000000E+0002
 40
 7.00000000000000E+0000
 50
 0.00000000000000E+0000
 51
 9.00000000000000E+0001
  0
LINE
  8
0
 10
 4.25999900000000E+0002
 20
 6.27000000000000E+0002
 11
 4.25999900000000E+0002
 21
 5.57000000000000E+0002
  0
ARC
  8
0
 10
 4.18999900000000E+0002
 20
 5.57000000000000E+0002
 40
 7.00000000000000E+0000
 50
 2.70000000000000E+0002
 51
 3.60000000000000E+0002
  0
LINE
  8
0
 10
 4.18999900000000E+0002
 20
 5.50000000000000E+0002
 11
 3.97999900000000E+0002
 21
 5.50000000000000E+0002
  0
LINE
  8
0
 10
 1.60000000000000E+0002
 20
 6.41000000000000E+0002
 11
 1.60000000000000E+0002
 21
 6.83000000000000E+0002
  0
LINE
  8
0
 10
 1.60000000000000E+0002
 20
 6.83000000000000E+0002
 11
 1.97121428232328E+0002
 21
 6.82999901679225E+0002
  0
LINE
  8
0
 10
 1.97121428232328E+0002
 20
 6.82999901679225E+0002
 11
 1.98846290343306E+0002
 21
 6.81891101612728E+0002
  0
LINE
  8
0
 10
 1.98846290343306E+0002
 20
 6.81891101612728E+0002
 11
 2.00591316655761E+0002
 21
 6.80804701547574E+0002
  0
LINE
  8
0
 10
 2.00591316655761E+0002
 20
 6.80804701547574E+0002
 11
 2.02356095655378E+0002
 21
 6.79740701483763E+0002
  0
LINE
  8
0
 10
 2.02356095655378E+0002
 20
 6.79740701483763E+0002
 11
 2.04140215827840E+0002
 21
 6.78699101421296E+0002
  0
LINE
  8
0
 10
 2.04140215827840E+0002
 20
 6.78699101421296E+0002
 11
 2.05943265658832E+0002
 21
 6.77679901360172E+0002
  0
LINE
  8
0
 10
 2.05943265658832E+0002
 20
 6.77679901360172E+0002
 11
 2.07764833634038E+0002
 21
 6.76683101300392E+0002
  0
LINE
  8
0
 10
 2.07764833634038E+0002
 20
 6.76683101300392E+0002
 11
 2.09604508239142E+0002
 21
 6.75708701241955E+0002
  0
LINE
  8
0
 10
 2.09604508239142E+0002
 20
 6.75708701241955E+0002
 11
 2.11461877959828E+0002
 21
 6.74756701184861E+0002
  0
LINE
  8
0
 10
 2.11461877959828E+0002
 20
 6.74756701184861E+0002
 11
 2.13336531281780E+0002
 21
 6.73827101129111E+0002
  0
LINE
  8
0
 10
 2.13336531281780E+0002
 20
 6.73827101129111E+0002
 11
 2.15228056690682E+0002
 21
 6.72919901074704E+0002
  0
LINE
  8
0
 10
 2.15228056690682E+0002
 20
 6.72919901074704E+0002
 11
 2.17136042672219E+0002
 21
 6.72035101021641E+0002
  0
LINE
  8
0
 10
 2.17136042672219E+0002
 20
 6.72035101021641E+0002
 11
 2.19060077712075E+0002
 21
 6.71172700969920E+0002
  0
LINE
  8
0
 10
 2.19060077712075E+0002
 20
 6.71172700969920E+0002
 11
 2.20999750295934E+0002
 21
 6.70332700919544E+0002
  0
LINE
  8
0
 10
 2.20999750295934E+0002
 20
 6.70332700919544E+0002
 11
 2.22954648909479E+0002
 21
 6.69515100870510E+0002
  0
LINE
  8
0
 10
 2.22954648909479E+0002
 20
 6.69515100870510E+0002
 11
 2.24924362038396E+0002
 21
 6.68719900822820E+0002
  0
LINE
  8
0
 10
 2.24924362038396E+0002
 20
 6.68719900822820E+0002
 11
 2.26908478168368E+0002
 21
 6.67947100776474E+0002
  0
LINE
  8
0
 10
 2.26908478168368E+0002
 20
 6.67947100776474E+0002
 11
 2.28906585785079E+0002
 21
 6.67196700731470E+0002
  0
LINE
  8
0
 10
 2.28906585785079E+0002
 20
 6.67196700731470E+0002
 11
 2.30918273374213E+0002
 21
 6.66468700687810E+0002
  0
LINE
  8
0
 10
 2.30918273374213E+0002
 20
 6.66468700687810E+0002
 11
 2.32943129421456E+0002
 21
 6.65763100645494E+0002
  0
LINE
  8
0
 10
 2.32943129421456E+0002
 20
 6.65763100645494E+0002
 11
 2.34980742412490E+0002
 21
 6.65079900604521E+0002
  0
LINE
  8
0
 10
 2.34980742412490E+0002
 20
 6.65079900604521E+0002
 11
 2.37030700833000E+0002
 21
 6.64419100564891E+0002
  0
LINE
  8
0
 10
 2.37030700833000E+0002
 20
 6.64419100564891E+0002
 11
 2.39092593168670E+0002
 21
 6.63780700526605E+0002
  0
LINE
  8
0
 10
 2.39092593168670E+0002
 20
 6.63780700526605E+0002
 11
 2.41166007905184E+0002
 21
 6.63164700489662E+0002
  0
LINE
  8
0
 10
 2.41166007905184E+0002
 20
 6.63164700489662E+0002
 11
 2.43250533528226E+0002
 21
 6.62571100454063E+0002
  0
LINE
  8
0
 10
 2.43250533528226E+0002
 20
 6.62571100454063E+0002
 11
 2.45345758523481E+0002
 21
 6.61999900419806E+0002
  0
LINE
  8
0
 10
 2.45345758523481E+0002
 20
 6.61999900419806E+0002
 11
 2.47451271376633E+0002
 21
 6.61451100386893E+0002
  0
LINE
  8
0
 10
 2.47451271376633E+0002
 20
 6.61451100386893E+0002
 11
 2.49566660573365E+0002
 21
 6.60924700355324E+0002
  0
LINE
  8
0
 10
 2.49566660573365E+0002
 20
 6.60924700355324E+0002
 11
 2.51691514599362E+0002
 21
 6.60420700325098E+0002
  0
LINE
  8
0
 10
 2.51691514599362E+0002
 20
 6.60420700325098E+0002
 11
 2.53825421940308E+0002
 21
 6.59939100296215E+0002
  0
LINE
  8
0
 10
 2.53825421940308E+0002
 20
 6.59939100296215E+0002
 11
 2.55967971081888E+0002
 21
 6.59479900268676E+0002
  0
LINE
  8
0
 10
 2.55967971081888E+0002
 20
 6.59479900268676E+0002
 11
 2.58118750509784E+0002
 21
 6.59043100242480E+0002
  0
LINE
  8
0
 10
 2.58118750509784E+0002
 20
 6.59043100242480E+0002
 11
 2.60277348709682E+0002
 21
 6.58628700217628E+0002
  0
LINE
  8
0
 10
 2.60277348709682E+0002
 20
 6.58628700217628E+0002
 11
 2.62443354167265E+0002
 21
 6.58236700194118E+0002
  0
LINE
  8
0
 10
 2.62443354167265E+0002
 20
 6.58236700194118E+0002
 11
 2.64616355368218E+0002
 21
 6.57867100171953E+0002
  0
LINE
  8
0
 10
 2.64616355368218E+0002
 20
 6.57867100171953E+0002
 11
 2.66795940798225E+0002
 21
 6.57519900151130E+0002
  0
LINE
  8
0
 10
 2.66795940798225E+0002
 20
 6.57519900151130E+0002
 11
 2.68981698942970E+0002
 21
 6.57195100131651E+0002
  0
LINE
  8
0
 10
 2.68981698942970E+0002
 20
 6.57195100131651E+0002
 11
 2.71173218288137E+0002
 21
 6.56892700113516E+0002
  0
LINE
  8
0
 10
 2.71173218288137E+0002
 20
 6.56892700113516E+0002
 11
 2.73370087319410E+0002
 21
 6.56612700096723E+0002
  0
LINE
  8
0
 10
 2.73370087319410E+0002
 20
 6.56612700096723E+0002
 11
 2.75571894522474E+0002
 21
 6.56355100081274E+0002
  0
LINE
  8
0
 10
 2.75571894522474E+0002
 20
 6.56355100081274E+0002
 11
 2.77778228383012E+0002
 21
 6.56119900067169E+0002
  0
LINE
  8
0
 10
 2.77778228383012E+0002
 20
 6.56119900067169E+0002
 11
 2.79988677386709E+0002
 21
 6.55907100054407E+0002
  0
LINE
  8
0
 10
 2.79988677386709E+0002
 20
 6.55907100054407E+0002
 11
 2.82202830019248E+0002
 21
 6.55716700042988E+0002
  0
LINE
  8
0
 10
 2.82202830019248E+0002
 20
 6.55716700042988E+0002
 11
 2.84420274766315E+0002
 21
 6.55548700032913E+0002
  0
LINE
  8
0
 10
 2.84420274766315E+0002
 20
 6.55548700032913E+0002
 11
 2.86640600113592E+0002
 21
 6.55403100024181E+0002
  0
LINE
  8
0
 10
 2.86640600113592E+0002
 20
 6.55403100024181E+0002
 11
 2.88863394546765E+0002
 21
 6.55279900016792E+0002
  0
LINE
  8
0
 10
 2.88863394546765E+0002
 20
 6.55279900016792E+0002
 11
 2.91088246551516E+0002
 21
 6.55179100010747E+0002
  0
LINE
  8
0
 10
 2.91088246551516E+0002
 20
 6.55179100010747E+0002
 11
 2.93314744613532E+0002
 21
 6.55100700006045E+0002
  0
LINE
  8
0
 10
 2.93314744613532E+0002
 20
 6.55100700006045E+0002
 11
 2.95542477218495E+0002
 21
 6.55044700002687E+0002
  0
LINE
  8
0
 10
 2.95542477218495E+0002
 20
 6.55044700002687E+0002
 11
 2.97771032852089E+0002
 21
 6.55011100000672E+0002
  0
LINE
  8
0
 10
 2.97771032852089E+0002
 20
 6.55011100000672E+0002
 11
 3.00000000000000E+0002
 21
 6.54999900000000E+0002
  0
LINE
  8
0
 10
 3.00000000000000E+0002
 20
 6.54999900000000E+0002
 11
 3.02228967147911E+0002
 21
 6.55011100000672E+0002
  0
LINE
  8
0
 10
 3.02228967147911E+0002
 20
 6.55011100000672E+0002
 11
 3.04457522781505E+0002
 21
 6.55044700002687E+0002
  0
LINE
  8
0
 10
 3.04457522781505E+0002
 20
 6.55044700002687E+0002
 11
 3.06685255386468E+0002
 21
 6.55100700006045E+0002
  0
LINE
  8
0
 10
 3.06685255386468E+0002
 20
 6.55100700006045E+0002
 11
 3.08911753448484E+0002
 21
 6.55179100010747E+0002
  0
LINE
  8
0
 10
 3.08911753448484E+0002
 20
 6.55179100010747E+0002
 11
 3.11136605453235E+0002
 21
 6.55279900016792E+0002
  0
LINE
  8
0
 10
 3.11136605453235E+0002
 20
 6.55279900016792E+0002
 11
 3.13359399886408E+0002
 21
 6.55403100024181E+0002
  0
LINE
  8
0
 10
 3.13359399886408E+0002
 20
 6.55403100024181E+0002
 11
 3.15579725233685E+0002
 21
 6.55548700032913E+0002
  0
LINE
  8
0
 10
 3.15579725233685E+0002
 20
 6.55548700032913E+0002
 11
 3.17797169980752E+0002
 21
 6.55716700042988E+0002
  0
LINE
  8
0
 10
 3.17797169980752E+0002
 20
 6.55716700042988E+0002
 11
 3.20011322613291E+0002
 21
 6.55907100054407E+0002
  0
LINE
  8
0
 10
 3.20011322613291E+0002
 20
 6.55907100054407E+0002
 11
 3.22221771616988E+0002
 21
 6.56119900067169E+0002
  0
LINE
  8
0
 10
 3.22221771616988E+0002
 20
 6.56119900067169E+0002
 11
 3.24428105477526E+0002
 21
 6.56355100081274E+0002
  0
LINE
  8
0
 10
 3.24428105477526E+0002
 20
 6.56355100081274E+0002
 11
 3.26629912680590E+0002
 21
 6.56612700096723E+0002
  0
LINE
  8
0
 10
 3.26629912680590E+0002
 20
 6.56612700096723E+0002
 11
 3.28826781711863E+0002
 21
 6.56892700113516E+0002
  0
LINE
  8
0
 10
 3.28826781711863E+0002
 20
 6.56892700113516E+0002
 11
 3.31018301057030E+0002
 21
 6.57195100131651E+0002
  0
LINE
  8
0
 10
 3.31018301057030E+0002
 20
 6.57195100131651E+0002
 11
 3.33204059201775E+0002
 21
 6.57519900151130E+0002
  0
LINE
  8
0
 10
 3.33204059201775E+0002
 20
 6.57519900151130E+0002
 11
 3.35383644631782E+0002
 21
 6.57867100171953E+0002
  0
LINE
  8
0
 10
 3.35383644631782E+0002
 20
 6.57867100171953E+0002
 11
 3.37556645832735E+0002
 21
 6.58236700194118E+0002
  0
LINE
  8
0
 10
 3.37556645832735E+0002
 20
 6.58236700194118E+0002
 11
 3.39722651290318E+0002
 21
 6.58628700217628E+0002
  0
LINE
  8
0
 10
 3.39722651290318E+0002
 20
 6.58628700217628E+0002
 11
 3.41881249490216E+0002
 21
 6.59043100242480E+0002
  0
LINE
  8
0
 10
 3.41881249490216E+0002
 20
 6.59043100242480E+0002
 11
 3.44032028918112E+0002
 21
 6.59479900268676E+0002
  0
LINE
  8
0
 10
 3.44032028918112E+0002
 20
 6.59479900268676E+0002
 11
 3.46174578059692E+0002
 21
 6.59939100296215E+0002
  0
LINE
  8
0
 10
 3.46174578059692E+0002
 20
 6.59939100296215E+0002
 11
 3.48308485400638E+0002
 21
 6.60420700325098E+0002
  0
LINE
  8
0
 10
 3.48308485400638E+0002
 20
 6.60420700325098E+0002
 11
 3.50433339426635E+0002
 21
 6.60924700355324E+0002
  0
LINE
  8
0
 10
 3.50433339426635E+0002
 20
 6.60924700355324E+0002
 11
 3.52548728623367E+0002
 21
 6.61451100386893E+0002
  0
LINE
  8
0
 10
 3.52548728623367E+0002
 20
 6.61451100386893E+0002
 11
 3.54654241476519E+0002
 21
 6.61999900419806E+0002
  0
LINE
  8
0
 10
 3.54654241476519E+0002
 20
 6.61999900419806E+0002
 11
 3.56749466471774E+0002
 21
 6.62571100454063E+0002
  0
LINE
  8
0
 10
 3.56749466471774E+0002
 20
 6.62571100454063E+0002
 11
 3.58833992094816E+0002
 21
 6.63164700489662E+0002
  0
LINE
  8
0
 10
 3.58833992094816E+0002
 20
 6.63164700489662E+0002
 11
 3.60907406831330E+0002
 21
 6.63780700526605E+0002
  0
LINE
  8
0
 10
 3.60907406831330E+0002
 20
 6.63780700526605E+0002
 11
 3.62969299167000E+0002
 21
 6.64419100564891E+0002
  0
LINE
  8
0
 10
 3.62969299167000E+0002
 20
 6.64419100564891E+0002
 11
 3.65019257587510E+0002
 21
 6.65079900604521E+0002
  0
LINE
  8
0
 10
 3.65019257587510E+0002
 20
 6.65079900604521E+0002
 11
 3.67056870578544E+0002
 21
 6.65763100645494E+0002
  0
LINE
  8
0
 10
 3.67056870578544E+0002
 20
 6.65763100645494E+0002
 11
 3.69081726625786E+0002
 21
 6.66468700687810E+0002
  0
LINE
  8
0
 10
 3.69081726625786E+0002
 20
 6.66468700687810E+0002
 11
 3.71093414214921E+0002
 21
 6.67196700731470E+0002
  0
LINE
  8
0
 10
 3.71093414214921E+0002
 20
 6.67196700731470E+0002
 11
 3.73091521831632E+0002
 21
 6.67947100776474E+0002
  0
LINE
  8
0
 10
 3.73091521831632E+0002
 20
 6.67947100776474E+0002
 11
 3.75075637961604E+0002
 21
 6.68719900822820E+0002
  0
LINE
  8
0
 10
 3.75075637961604E+0002
 20
 6.68719900822820E+0002
 11
 3.77045351090521E+0002
 21
 6.69515100870510E+0002
  0
LINE
  8
0
 10
 3.77045351090521E+0002
 20
 6.69515100870510E+0002
 11
 3.79000249704066E+0002
 21
 6.70332700919544E+0002
  0
LINE
  8
0
 10
 3.79000249704066E+0002
 20
 6.70332700919544E+0002
 11
 3.80939922287925E+0002
 21
 6.71172700969920E+0002
  0
LINE
  8
0
 10
 3.80939922287925E+0002
 20
 6.71172700969920E+0002
 11
 3.82863957327781E+0002
 21
 6.72035101021641E+0002
  0
LINE
  8
0
 10
 3.82863957327781E+0002
 20
 6.72035101021641E+0002
 11
 3.84771943309318E+0002
 21
 6.72919901074704E+0002
  0
LINE
  8
0
 10
 3.84771943309318E+0002
 20
 6.72919901074704E+0002
 11
 3.86663468718220E+0002
 21
 6.73827101129111E+0002
  0
LINE
  8
0
 10
 3.86663468718220E+0002
 20
 6.73827101129111E+0002
 11
 3.88538122040172E+0002
 21
 6.74756701184861E+0002
  0
LINE
  8
0
 10
 3.88538122040172E+0002
 20
 6.74756701184861E+0002
 11
 3.90395491760858E+0002
 21
 6.75708701241955E+0002
  0
LINE
  8
0
 10
 3.90395491760858E+0002
 20
 6.75708701241955E+0002
 11
 3.92235166365962E+0002
 21
 6.76683101300392E+0002
  0
LINE
  8
0
 10
 3.92235166365962E+0002
 20
 6.76683101300392E+0002
 11
 3.94056734341168E+0002
 21
 6.77679901360172E+0002
  0
LINE
  8
0
 10
 3.94056734341168E+0002
 20
 6.77679901360172E+0002
 11
 3.95859784172160E+0002
 21
 6.78699101421296E+0002
  0
LINE
  8
0
 10
 3.95859784172160E+0002
 20
 6.78699101421296E+0002
 11
 3.97643904344622E+0002
 21
 6.79740701483763E+0002
  0
LINE
  8
0
 10
 3.97643904344622E+0002
 20
 6.79740701483763E+0002
 11
 3.99408683344239E+0002
 21
 6.80804701547574E+0002
  0
LINE
  8
0
 10
 3.99408683344239E+0002
 20
 6.80804701547574E+0002
 11
 4.01153709656694E+0002
 21
 6.81891101612728E+0002
  0
LINE
  8
0
 10
 4.01153709656694E+0002
 20
 6.81891101612728E+0002
 11
 4.02878571767672E+0002
 21
 6.82999901679225E+0002
  0
LINE
  8
0
 10
 4.02878571767672E+0002
 20
 6.82999901679225E+0002
 11
 4.39999900000000E+0002
 21
 6.83000000000000E+0002
  0
LINE
  8
0
 10
 4.39999900000000E+0002
 20
 6.83000000000000E+0002
 11
 4.39999900000000E+0002
 21
 6.41000000000000E+0002
  0
LINE
  8
0
 10
 4.39999900000000E+0002
 20
 6.41000000000000E+0002
 11
 1.60000000000000E+0002
 21
 6.41000000000000E+0002
  0
LINE
  8
0
 10
 4.40000000000000E+0002
 20
 7.52999900000000E+0002
 11
 4.39981243999898E+0002
 21
 7.54504751393434E+0002
  0
LINE
  8
0
 10
 4.39981243999898E+0002
 20
 7.54504751393434E+0002
 11
 4.39925168161212E+0002
 21
 7.56003705934607E+0002
  0
LINE
  8
0
 10
 4.39925168161212E+0002
 20
 7.56003705934607E+0002
 11
 4.39832060726373E+0002
 21
 7.57496576265938E+0002
  0
LINE
  8
0
 10
 4.39832060726373E+0002
 20
 7.57496576265938E+0002
 11
 4.39702209937811E+0002
 21
 7.58983175029849E+0002
  0
LINE
  8
0
 10
 4.39702209937811E+0002
 20
 7.58983175029849E+0002
 11
 4.39535904037956E+0002
 21
 7.60463314868759E+0002
  0
LINE
  8
0
 10
 4.39535904037956E+0002
 20
 7.60463314868759E+0002
 11
 4.39333431269239E+0002
 21
 7.61936808425089E+0002
  0
LINE
  8
0
 10
 4.39333431269239E+0002
 20
 7.61936808425089E+0002
 11
 4.39095079874091E+0002
 21
 7.63403468341259E+0002
  0
LINE
  8
0
 10
 4.39095079874091E+0002
 20
 7.63403468341259E+0002
 11
 4.38821138094942E+0002
 21
 7.64863107259688E+0002
  0
LINE
  8
0
 10
 4.38821138094942E+0002
 20
 7.64863107259688E+0002
 11
 4.38511894174221E+0002
 21
 7.66315537822798E+0002
  0
LINE
  8
0
 10
 4.38511894174221E+0002
 20
 7.66315537822798E+0002
 11
 4.38167636354360E+0002
 21
 7.67760572673008E+0002
  0
LINE
  8
0
 10
 4.38167636354360E+0002
 20
 7.67760572673008E+0002
 11
 4.37788652877790E+0002
 21
 7.69198024452739E+0002
  0
LINE
  8
0
 10
 4.37788652877790E+0002
 20
 7.69198024452739E+0002
 11
 4.37375231986939E+0002
 21
 7.70627705804411E+0002
  0
LINE
  8
0
 10
 4.37375231986939E+0002
 20
 7.70627705804411E+0002
 11
 4.36927661924240E+0002
 21
 7.72049429370444E+0002
  0
LINE
  8
0
 10
 4.36927661924240E+0002
 20
 7.72049429370444E+0002
 11
 4.36446230932122E+0002
 21
 7.73463007793259E+0002
  0
LINE
  8
0
 10
 4.36446230932122E+0002
 20
 7.73463007793259E+0002
 11
 4.35931227253016E+0002
 21
 7.74868253715275E+0002
  0
LINE
  8
0
 10
 4.35931227253016E+0002
 20
 7.74868253715275E+0002
 11
 4.35382939129352E+0002
 21
 7.76264979778913E+0002
  0
LINE
  8
0
 10
 4.35382939129352E+0002
 20
 7.76264979778913E+0002
 11
 4.34801654803560E+0002
 21
 7.77652998626593E+0002
  0
LINE
  8
0
 10
 4.34801654803560E+0002
 20
 7.77652998626593E+0002
 11
 4.34187662518072E+0002
 21
 7.79032122900735E+0002
  0
LINE
  8
0
 10
 4.34187662518072E+0002
 20
 7.79032122900735E+0002
 11
 4.33541250515317E+0002
 21
 7.80402165243760E+0002
  0
LINE
  8
0
 10
 4.33541250515317E+0002
 20
 7.80402165243760E+0002
 11
 4.32862707037726E+0002
 21
 7.81762938298087E+0002
  0
LINE
  8
0
 10
 4.32862707037726E+0002
 20
 7.81762938298087E+0002
 11
 4.32152320327729E+0002
 21
 7.83114254706138E+0002
  0
LINE
  8
0
 10
 4.32152320327729E+0002
 20
 7.83114254706138E+0002
 11
 4.31410378627757E+0002
 21
 7.84455927110331E+0002
  0
LINE
  8
0
 10
 4.31410378627757E+0002
 20
 7.84455927110331E+0002
 11
 4.30637170180240E+0002
 21
 7.85787768153088E+0002
  0
LINE
  8
0
 10
 4.30637170180240E+0002
 20
 7.85787768153088E+0002
 11
 4.29832983227609E+0002
 21
 7.87109590476828E+0002
  0
LINE
  8
0
 10
 4.29832983227609E+0002
 20
 7.87109590476828E+0002
 11
 4.28998106012294E+0002
 21
 7.88421206723973E+0002
  0
LINE
  8
0
 10
 4.28998106012294E+0002
 20
 7.88421206723973E+0002
 11
 4.28132826776725E+0002
 21
 7.89722429536941E+0002
  0
LINE
  8
0
 10
 4.28132826776725E+0002
 20
 7.89722429536941E+0002
 11
 4.27237433763333E+0002
 21
 7.91013071558154E+0002
  0
LINE
  8
0
 10
 4.27237433763333E+0002
 20
 7.91013071558154E+0002
 11
 4.26312215214548E+0002
 21
 7.92292945430031E+0002
  0
LINE
  8
0
 10
 4.26312215214548E+0002
 20
 7.92292945430031E+0002
 11
 4.25357459372802E+0002
 21
 7.93561863794993E+0002
  0
LINE
  8
0
 10
 4.25357459372802E+0002
 20
 7.93561863794993E+0002
 11
 4.24373454480523E+0002
 21
 7.94819639295460E+0002
  0
LINE
  8
0
 10
 4.24373454480523E+0002
 20
 7.94819639295460E+0002
 11
 4.23360488780143E+0002
 21
 7.96066084573852E+0002
  0
LINE
  8
0
 10
 4.23360488780143E+0002
 20
 7.96066084573852E+0002
 11
 4.22318850514092E+0002
 21
 7.97301012272589E+0002
  0
LINE
  8
0
 10
 4.22318850514092E+0002
 20
 7.97301012272589E+0002
 11
 4.21248827924800E+0002
 21
 7.98524235034092E+0002
  0
LINE
  8
0
 10
 4.21248827924800E+0002
 20
 7.98524235034092E+0002
 11
 4.20150709254698E+0002
 21
 7.99735565500780E+0002
  0
LINE
  8
0
 10
 4.20150709254698E+0002
 20
 7.99735565500780E+0002
 11
 4.19024782746216E+0002
 21
 8.00934816315075E+0002
  0
LINE
  8
0
 10
 4.19024782746216E+0002
 20
 8.00934816315075E+0002
 11
 4.17871336641785E+0002
 21
 8.02121800119396E+0002
  0
LINE
  8
0
 10
 4.17871336641785E+0002
 20
 8.02121800119396E+0002
 11
 4.16690659183836E+0002
 21
 8.03296329556164E+0002
  0
LINE
  8
0
 10
 4.16690659183836E+0002
 20
 8.03296329556164E+0002
 11
 4.15483038614798E+0002
 21
 8.04458217267798E+0002
  0
LINE
  8
0
 10
 4.15483038614798E+0002
 20
 8.04458217267798E+0002
 11
 4.14248763177101E+0002
 21
 8.05607275896720E+0002
  0
LINE
  8
0
 10
 4.14248763177101E+0002
 20
 8.05607275896720E+0002
 11
 4.12988121113178E+0002
 21
 8.06743318085348E+0002
  0
LINE
  8
0
 10
 4.12988121113178E+0002
 20
 8.06743318085348E+0002
 11
 4.11701400665457E+0002
 21
 8.07866156476104E+0002
  0
LINE
  8
0
 10
 4.11701400665457E+0002
 20
 8.07866156476104E+0002
 11
 4.10388890076369E+0002
 21
 8.08975603711407E+0002
  0
LINE
  8
0
 10
 4.10388890076369E+0002
 20
 8.08975603711407E+0002
 11
 4.09050877588345E+0002
 21
 8.10071472433679E+0002
  0
LINE
  8
0
 10
 4.09050877588345E+0002
 20
 8.10071472433679E+0002
 11
 4.07687651443815E+0002
 21
 8.11153575285338E+0002
  0
LINE
  8
0
 10
 4.07687651443815E+0002
 20
 8.11153575285338E+0002
 11
 4.06299499885210E+0002
 21
 8.12221724908806E+0002
  0
LINE
  8
0
 10
 4.06299499885210E+0002
 20
 8.12221724908806E+0002
 11
 4.04886711154960E+0002
 21
 8.13275733946502E+0002
  0
LINE
  8
0
 10
 4.04886711154960E+0002
 20
 8.13275733946502E+0002
 11
 4.03449573495495E+0002
 21
 8.14315415040846E+0002
  0
LINE
  8
0
 10
 4.03449573495495E+0002
 20
 8.14315415040846E+0002
 11
 4.01988375149246E+0002
 21
 8.15340580834260E+0002
  0
LINE
  8
0
 10
 4.01988375149246E+0002
 20
 8.15340580834260E+0002
 11
 4.00503404358643E+0002
 21
 8.16351043969163E+0002
  0
LINE
  8
0
 10
 4.00503404358643E+0002
 20
 8.16351043969163E+0002
 11
 3.98994949366117E+0002
 21
 8.17346617087976E+0002
  0
LINE
  8
0
 10
 3.98994949366117E+0002
 20
 8.17346617087976E+0002
 11
 3.97463298414098E+0002
 21
 8.18327112833118E+0002
  0
LINE
  8
0
 10
 3.97463298414098E+0002
 20
 8.18327112833118E+0002
 11
 3.95908739745016E+0002
 21
 8.19292343847010E+0002
  0
LINE
  8
0
 10
 3.95908739745016E+0002
 20
 8.19292343847010E+0002
 11
 3.94331561601302E+0002
 21
 8.20242122772071E+0002
  0
LINE
  8
0
 10
 3.94331561601302E+0002
 20
 8.20242122772071E+0002
 11
 3.92732052225387E+0002
 21
 8.21176262250724E+0002
  0
LINE
  8
0
 10
 3.92732052225387E+0002
 20
 8.21176262250724E+0002
 11
 3.91110499859701E+0002
 21
 8.22094574925386E+0002
  0
LINE
  8
0
 10
 3.91110499859701E+0002
 20
 8.22094574925386E+0002
 11
 3.89467192746674E+0002
 21
 8.22996873438480E+0002
  0
LINE
  8
0
 10
 3.89467192746674E+0002
 20
 8.22996873438480E+0002
 11
 3.87802419128736E+0002
 21
 8.23882970432424E+0002
  0
LINE
  8
0
 10
 3.87802419128736E+0002
 20
 8.23882970432424E+0002
 11
 3.86116467248319E+0002
 21
 8.24752678549640E+0002
  0
LINE
  8
0
 10
 3.86116467248319E+0002
 20
 8.24752678549640E+0002
 11
 3.84409625347852E+0002
 21
 8.25605810432547E+0002
  0
LINE
  8
0
 10
 3.84409625347852E+0002
 20
 8.25605810432547E+0002
 11
 3.82682181669766E+0002
 21
 8.26442178723565E+0002
  0
LINE
  8
0
 10
 3.82682181669766E+0002
 20
 8.26442178723565E+0002
 11
 3.80934424456492E+0002
 21
 8.27261596065116E+0002
  0
LINE
  8
0
 10
 3.80934424456492E+0002
 20
 8.27261596065116E+0002
 11
 3.79166641950459E+0002
 21
 8.28063875099618E+0002
  0
LINE
  8
0
 10
 3.79166641950459E+0002
 20
 8.28063875099618E+0002
 11
 3.77379122394099E+0002
 21
 8.28848828469493E+0002
  0
LINE
  8
0
 10
 3.77379122394099E+0002
 20
 8.28848828469493E+0002
 11
 3.75572154029841E+0002
 21
 8.29616268817160E+0002
  0
LINE
  8
0
 10
 3.75572154029841E+0002
 20
 8.29616268817160E+0002
 11
 3.73746025100116E+0002
 21
 8.30366008785040E+0002
  0
LINE
  8
0
 10
 3.73746025100116E+0002
 20
 8.30366008785040E+0002
 11
 3.71901023847355E+0002
 21
 8.31097861015554E+0002
  0
LINE
  8
0
 10
 3.71901023847355E+0002
 20
 8.31097861015554E+0002
 11
 3.70037438513987E+0002
 21
 8.31811638151120E+0002
  0
LINE
  8
0
 10
 3.70037438513987E+0002
 20
 8.31811638151120E+0002
 11
 3.68155557342444E+0002
 21
 8.32507152834159E+0002
  0
LINE
  8
0
 10
 3.68155557342444E+0002
 20
 8.32507152834159E+0002
 11
 3.66255668575156E+0002
 21
 8.33184217707093E+0002
  0
LINE
  8
0
 10
 3.66255668575156E+0002
 20
 8.33184217707093E+0002
 11
 3.64338060454553E+0002
 21
 8.33842645412340E+0002
  0
LINE
  8
0
 10
 3.64338060454553E+0002
 20
 8.33842645412340E+0002
 11
 3.62403021223066E+0002
 21
 8.34482248592321E+0002
  0
LINE
  8
0
 10
 3.62403021223066E+0002
 20
 8.34482248592321E+0002
 11
 3.60450839123125E+0002
 21
 8.35102839889456E+0002
  0
LINE
  8
0
 10
 3.60450839123125E+0002
 20
 8.35102839889456E+0002
 11
 3.58481802397160E+0002
 21
 8.35704231946166E+0002
  0
LINE
  8
0
 10
 3.58481802397160E+0002
 20
 8.35704231946166E+0002
 11
 3.56496199287602E+0002
 21
 8.36286237404871E+0002
  0
LINE
  8
0
 10
 3.56496199287602E+0002
 20
 8.36286237404871E+0002
 11
 3.54494318036881E+0002
 21
 8.36848668907991E+0002
  0
LINE
  8
0
 10
 3.54494318036881E+0002
 20
 8.36848668907991E+0002
 11
 3.52476446887428E+0002
 21
 8.37391339097946E+0002
  0
LINE
  8
0
 10
 3.52476446887428E+0002
 20
 8.37391339097946E+0002
 11
 3.50442874081674E+0002
 21
 8.37914060617156E+0002
  0
LINE
  8
0
 10
 3.50442874081674E+0002
 20
 8.37914060617156E+0002
 11
 3.48393887862048E+0002
 21
 8.38416646108042E+0002
  0
LINE
  8
0
 10
 3.48393887862048E+0002
 20
 8.38416646108042E+0002
 11
 3.46329776470981E+0002
 21
 8.38898908213024E+0002
  0
LINE
  8
0
 10
 3.46329776470981E+0002
 20
 8.38898908213024E+0002
 11
 3.44250828150903E+0002
 21
 8.39360659574522E+0002
  0
LINE
  8
0
 10
 3.44250828150903E+0002
 20
 8.39360659574522E+0002
 11
 3.42157331144246E+0002
 21
 8.39801712834956E+0002
  0
LINE
  8
0
 10
 3.42157331144246E+0002
 20
 8.39801712834956E+0002
 11
 3.40049573693439E+0002
 21
 8.40221880636747E+0002
  0
LINE
  8
0
 10
 3.40049573693439E+0002
 20
 8.40221880636747E+0002
 11
 3.37927844040912E+0002
 21
 8.40620975622314E+0002
  0
LINE
  8
0
 10
 3.37927844040912E+0002
 20
 8.40620975622314E+0002
 11
 3.35792430429097E+0002
 21
 8.40998810434078E+0002
  0
LINE
  8
0
 10
 3.35792430429097E+0002
 20
 8.40998810434078E+0002
 11
 3.33643621100423E+0002
 21
 8.41355197714460E+0002
  0
LINE
  8
0
 10
 3.33643621100423E+0002
 20
 8.41355197714460E+0002
 11
 3.31481704297321E+0002
 21
 8.41689950105879E+0002
  0
LINE
  8
0
 10
 3.31481704297321E+0002
 20
 8.41689950105879E+0002
 11
 3.29306968262222E+0002
 21
 8.42002880250756E+0002
  0
LINE
  8
0
 10
 3.29306968262222E+0002
 20
 8.42002880250756E+0002
 11
 3.27119701237556E+0002
 21
 8.42293800791511E+0002
  0
LINE
  8
0
 10
 3.27119701237556E+0002
 20
 8.42293800791511E+0002
 11
 3.24920191465753E+0002
 21
 8.42562524370563E+0002
  0
LINE
  8
0
 10
 3.24920191465753E+0002
 20
 8.42562524370563E+0002
 11
 3.22708727189244E+0002
 21
 8.42808863630334E+0002
  0
LINE
  8
0
 10
 3.22708727189244E+0002
 20
 8.42808863630334E+0002
 11
 3.20485596650458E+0002
 21
 8.43032631213244E+0002
  0
LINE
  8
0
 10
 3.20485596650458E+0002
 20
 8.43032631213244E+0002
 11
 3.18251088091828E+0002
 21
 8.43233639761712E+0002
  0
LINE
  8
0
 10
 3.18251088091828E+0002
 20
 8.43233639761712E+0002
 11
 3.16005489755782E+0002
 21
 8.43411701918159E+0002
  0
LINE
  8
0
 10
 3.16005489755782E+0002
 20
 8.43411701918159E+0002
 11
 3.13749089884752E+0002
 21
 8.43566630325006E+0002
  0
LINE
  8
0
 10
 3.13749089884752E+0002
 20
 8.43566630325006E+0002
 11
 3.11482176721168E+0002
 21
 8.43698237624671E+0002
  0
LINE
  8
0
 10
 3.11482176721168E+0002
 20
 8.43698237624671E+0002
 11
 3.09205038507460E+0002
 21
 8.43806336459577E+0002
  0
LINE
  8
0
 10
 3.09205038507460E+0002
 20
 8.43806336459577E+0002
 11
 3.06917963486059E+0002
 21
 8.43890739472142E+0002
  0
LINE
  8
0
 10
 3.06917963486059E+0002
 20
 8.43890739472142E+0002
 11
 3.04621239899395E+0002
 21
 8.43951259304788E+0002
  0
LINE
  8
0
 10
 3.04621239899395E+0002
 20
 8.43951259304788E+0002
 11
 3.02315155989898E+0002
 21
 8.43987708599934E+0002
  0
LINE
  8
0
 10
 3.02315155989898E+0002
 20
 8.43987708599934E+0002
 11
 3.00000000000000E+0002
 21
 8.43999900000000E+0002
  0
LINE
  8
0
 10
 3.00000000000000E+0002
 20
 8.43999900000000E+0002
 11
 3.00000000000000E+0002
 21
 8.43999900000000E+0002
  0
LINE
  8
0
 10
 3.00000000000000E+0002
 20
 8.43999900000000E+0002
 11
 2.97684844010102E+0002
 21
 8.43987708599934E+0002
  0
LINE
  8
0
 10
 2.97684844010102E+0002
 20
 8.43987708599934E+0002
 11
 2.95378760100605E+0002
 21
 8.43951259304788E+0002
  0
LINE
  8
0
 10
 2.95378760100605E+0002
 20
 8.43951259304788E+0002
 11
 2.93082036513941E+0002
 21
 8.43890739472142E+0002
  0
LINE
  8
0
 10
 2.93082036513941E+0002
 20
 8.43890739472142E+0002
 11
 2.90794961492540E+0002
 21
 8.43806336459577E+0002
  0
LINE
  8
0
 10
 2.90794961492540E+0002
 20
 8.43806336459577E+0002
 11
 2.88517823278832E+0002
 21
 8.43698237624671E+0002
  0
LINE
  8
0
 10
 2.88517823278832E+0002
 20
 8.43698237624671E+0002
 11
 2.86250910115248E+0002
 21
 8.43566630325006E+0002
  0
LINE
  8
0
 10
 2.86250910115248E+0002
 20
 8.43566630325006E+0002
 11
 2.83994510244218E+0002
 21
 8.43411701918159E+0002
  0
LINE
  8
0
 10
 2.83994510244218E+0002
 20
 8.43411701918159E+0002
 11
 2.81748911908172E+0002
 21
 8.43233639761712E+0002
  0
LINE
  8
0
 10
 2.81748911908172E+0002
 20
 8.43233639761712E+0002
 11
 2.79514403349542E+0002
 21
 8.43032631213244E+0002
  0
LINE
  8
0
 10
 2.79514403349542E+0002
 20
 8.43032631213244E+0002
 11
 2.77291272810756E+0002
 21
 8.42808863630334E+0002
  0
LINE
  8
0
 10
 2.77291272810756E+0002
 20
 8.42808863630334E+0002
 11
 2.75079808534247E+0002
 21
 8.42562524370563E+0002
  0
LINE
  8
0
 10
 2.75079808534247E+0002
 20
 8.42562524370563E+0002
 11
 2.72880298762444E+0002
 21
 8.42293800791511E+0002
  0
LINE
  8
0
 10
 2.72880298762444E+0002
 20
 8.42293800791511E+0002
 11
 2.70693031737778E+0002
 21
 8.42002880250756E+0002
  0
LINE
  8
0
 10
 2.70693031737778E+0002
 20
 8.42002880250756E+0002
 11
 2.68518295702679E+0002
 21
 8.41689950105879E+0002
  0
LINE
  8
0
 10
 2.68518295702679E+0002
 20
 8.41689950105879E+0002
 11
 2.66356378899577E+0002
 21
 8.41355197714460E+0002
  0
LINE
  8
0
 10
 2.66356378899577E+0002
 20
 8.41355197714460E+0002
 11
 2.64207569570903E+0002
 21
 8.40998810434078E+0002
  0
LINE
  8
0
 10
 2.64207569570903E+0002
 20
 8.40998810434078E+0002
 11
 2.62072155959088E+0002
 21
 8.40620975622314E+0002
  0
LINE
  8
0
 10
 2.62072155959088E+0002
 20
 8.40620975622314E+0002
 11
 2.59950426306561E+0002
 21
 8.40221880636747E+0002
  0
LINE
  8
0
 10
 2.59950426306561E+0002
 20
 8.40221880636747E+0002
 11
 2.57842668855754E+0002
 21
 8.39801712834956E+0002
  0
LINE
  8
0
 10
 2.57842668855754E+0002
 20
 8.39801712834956E+0002
 11
 2.55749171849097E+0002
 21
 8.39360659574522E+0002
  0
LINE
  8
0
 10
 2.55749171849097E+0002
 20
 8.39360659574522E+0002
 11
 2.53670223529019E+0002
 21
 8.38898908213024E+0002
  0
LINE
  8
0
 10
 2.53670223529019E+0002
 20
 8.38898908213024E+0002
 11
 2.51606112137952E+0002
 21
 8.38416646108042E+0002
  0
LINE
  8
0
 10
 2.51606112137952E+0002
 20
 8.38416646108042E+0002
 11
 2.49557125918326E+0002
 21
 8.37914060617156E+0002
  0
LINE
  8
0
 10
 2.49557125918326E+0002
 20
 8.37914060617156E+0002
 11
 2.47523553112572E+0002
 21
 8.37391339097946E+0002
  0
LINE
  8
0
 10
 2.47523553112572E+0002
 20
 8.37391339097946E+0002
 11
 2.45505681963119E+0002
 21
 8.36848668907991E+0002
  0
LINE
  8
0
 10
 2.45505681963119E+0002
 20
 8.36848668907991E+0002
 11
 2.43503800712398E+0002
 21
 8.36286237404871E+0002
  0
LINE
  8
0
 10
 2.43503800712398E+0002
 20
 8.36286237404871E+0002
 11
 2.41518197602840E+0002
 21
 8.35704231946166E+0002
  0
LINE
  8
0
 10
 2.41518197602840E+0002
 20
 8.35704231946166E+0002
 11
 2.39549160876875E+0002
 21
 8.35102839889456E+0002
  0
LINE
  8
0
 10
 2.39549160876875E+0002
 20
 8.35102839889456E+0002
 11
 2.37596978776934E+0002
 21
 8.34482248592321E+0002
  0
LINE
  8
0
 10
 2.37596978776934E+0002
 20
 8.34482248592321E+0002
 11
 2.35661939545447E+0002
 21
 8.33842645412340E+0002
  0
LINE
  8
0
 10
 2.35661939545447E+0002
 20
 8.33842645412340E+0002
 11
 2.33744331424844E+0002
 21
 8.33184217707093E+0002
  0
LINE
  8
0
 10
 2.33744331424844E+0002
 20
 8.33184217707093E+0002
 11
 2.31844442657556E+0002
 21
 8.32507152834159E+0002
  0
LINE
  8
0
 10
 2.31844442657556E+0002
 20
 8.32507152834159E+0002
 11
 2.29962561486013E+0002
 21
 8.31811638151120E+0002
  0
LINE
  8
0
 10
 2.29962561486013E+0002
 20
 8.31811638151120E+0002
 11
 2.28098976152645E+0002
 21
 8.31097861015554E+0002
  0
LINE
  8
0
 10
 2.28098976152645E+0002
 20
 8.31097861015554E+0002
 11
 2.26253974899884E+0002
 21
 8.30366008785040E+0002
  0
LINE
  8
0
 10
 2.26253974899884E+0002
 20
 8.30366008785040E+0002
 11
 2.24427845970159E+0002
 21
 8.29616268817160E+0002
  0
LINE
  8
0
 10
 2.24427845970159E+0002
 20
 8.29616268817160E+0002
 11
 2.22620877605901E+0002
 21
 8.28848828469493E+0002
  0
LINE
  8
0
 10
 2.22620877605901E+0002
 20
 8.28848828469493E+0002
 11
 2.20833358049541E+0002
 21
 8.28063875099618E+0002
  0
LINE
  8
0
 10
 2.20833358049541E+0002
 20
 8.28063875099618E+0002
 11
 2.19065575543508E+0002
 21
 8.27261596065116E+0002
  0
LINE
  8
0
 10
 2.19065575543508E+0002
 20
 8.27261596065116E+0002
 11
 2.17317818330234E+0002
 21
 8.26442178723565E+0002
  0
LINE
  8
0
 10
 2.17317818330234E+0002
 20
 8.26442178723565E+0002
 11
 2.15590374652148E+0002
 21
 8.25605810432547E+0002
  0
LINE
  8
0
 10
 2.15590374652148E+0002
 20
 8.25605810432547E+0002
 11
 2.13883532751681E+0002
 21
 8.24752678549640E+0002
  0
LINE
  8
0
 10
 2.13883532751681E+0002
 20
 8.24752678549640E+0002
 11
 2.12197580871264E+0002
 21
 8.23882970432424E+0002
  0
LINE
  8
0
 10
 2.12197580871264E+0002
 20
 8.23882970432424E+0002
 11
 2.10532807253326E+0002
 21
 8.22996873438480E+0002
  0
LINE
  8
0
 10
 2.10532807253326E+0002
 20
 8.22996873438480E+0002
 11
 2.08889500140299E+0002
 21
 8.22094574925386E+0002
  0
LINE
  8
0
 10
 2.08889500140299E+0002
 20
 8.22094574925386E+0002
 11
 2.07267947774613E+0002
 21
 8.21176262250724E+0002
  0
LINE
  8
0
 10
 2.07267947774613E+0002
 20
 8.21176262250724E+0002
 11
 2.05668438398697E+0002
 21
 8.20242122772071E+0002
  0
LINE
  8
0
 10
 2.05668438398697E+0002
 20
 8.20242122772071E+0002
 11
 2.04091260254984E+0002
 21
 8.19292343847010E+0002
  0
LINE
  8
0
 10
 2.04091260254984E+0002
 20
 8.19292343847010E+0002
 11
 2.02536701585902E+0002
 21
 8.18327112833118E+0002
  0
LINE
  8
0
 10
 2.02536701585902E+0002
 20
 8.18327112833118E+0002
 11
 2.01005050633883E+0002
 21
 8.17346617087976E+0002
  0
LINE
  8
0
 10
 2.01005050633883E+0002
 20
 8.17346617087976E+0002
 11
 1.99496595641357E+0002
 21
 8.16351043969163E+0002
  0
LINE
  8
0
 10
 1.99496595641357E+0002
 20
 8.16351043969163E+0002
 11
 1.98011624850754E+0002
 21
 8.15340580834260E+0002
  0
LINE
  8
0
 10
 1.98011624850754E+0002
 20
 8.15340580834260E+0002
 11
 1.96550426504505E+0002
 21
 8.14315415040846E+0002
  0
LINE
  8
0
 10
 1.96550426504505E+0002
 20
 8.14315415040846E+0002
 11
 1.95113288845040E+0002
 21
 8.13275733946502E+0002
  0
LINE
  8
0
 10
 1.95113288845040E+0002
 20
 8.13275733946502E+0002
 11
 1.93700500114790E+0002
 21
 8.12221724908806E+0002
  0
LINE
  8
0
 10
 1.93700500114790E+0002
 20
 8.12221724908806E+0002
 11
 1.92312348556185E+0002
 21
 8.11153575285338E+0002
  0
LINE
  8
0
 10
 1.92312348556185E+0002
 20
 8.11153575285338E+0002
 11
 1.90949122411655E+0002
 21
 8.10071472433679E+0002
  0
LINE
  8
0
 10
 1.90949122411655E+0002
 20
 8.10071472433679E+0002
 11
 1.89611109923631E+0002
 21
 8.08975603711407E+0002
  0
LINE
  8
0
 10
 1.89611109923631E+0002
 20
 8.08975603711407E+0002
 11
 1.88298599334543E+0002
 21
 8.07866156476104E+0002
  0
LINE
  8
0
 10
 1.88298599334543E+0002
 20
 8.07866156476104E+0002
 11
 1.87011878886822E+0002
 21
 8.06743318085348E+0002
  0
LINE
  8
0
 10
 1.87011878886822E+0002
 20
 8.06743318085348E+0002
 11
 1.85751236822899E+0002
 21
 8.05607275896720E+0002
  0
LINE
  8
0
 10
 1.85751236822899E+0002
 20
 8.05607275896720E+0002
 11
 1.84516961385202E+0002
 21
 8.04458217267798E+0002
  0
LINE
  8
0
 10
 1.84516961385202E+0002
 20
 8.04458217267798E+0002
 11
 1.83309340816164E+0002
 21
 8.03296329556164E+0002
  0
LINE
  8
0
 10
 1.83309340816164E+0002
 20
 8.03296329556164E+0002
 11
 1.82128663358215E+0002
 21
 8.02121800119396E+0002
  0
LINE
  8
0
 10
 1.82128663358215E+0002
 20
 8.02121800119396E+0002
 11
 1.80975217253784E+0002
 21
 8.00934816315075E+0002
  0
LINE
  8
0
 10
 1.80975217253784E+0002
 20
 8.00934816315075E+0002
 11
 1.79849290745302E+0002
 21
 7.99735565500780E+0002
  0
LINE
  8
0
 10
 1.79849290745302E+0002
 20
 7.99735565500780E+0002
 11
 1.78751172075200E+0002
 21
 7.98524235034092E+0002
  0
LINE
  8
0
 10
 1.78751172075200E+0002
 20
 7.98524235034092E+0002
 11
 1.77681149485909E+0002
 21
 7.97301012272589E+0002
  0
LINE
  8
0
 10
 1.77681149485909E+0002
 20
 7.97301012272589E+0002
 11
 1.76639511219857E+0002
 21
 7.96066084573852E+0002
  0
LINE
  8
0
 10
 1.76639511219857E+0002
 20
 7.96066084573852E+0002
 11
 1.75626545519477E+0002
 21
 7.94819639295460E+0002
  0
LINE
  8
0
 10
 1.75626545519477E+0002
 20
 7.94819639295460E+0002
 11
 1.74642540627198E+0002
 21
 7.93561863794993E+0002
  0
LINE
  8
0
 10
 1.74642540627198E+0002
 20
 7.93561863794993E+0002
 11
 1.73687784785452E+0002
 21
 7.92292945430031E+0002
  0
LINE
  8
0
 10
 1.73687784785452E+0002
 20
 7.92292945430031E+0002
 11
 1.72762566236667E+0002
 21
 7.91013071558154E+0002
  0
LINE
  8
0
 10
 1.72762566236667E+0002
 20
 7.91013071558154E+0002
 11
 1.71867173223275E+0002
 21
 7.89722429536941E+0002
  0
LINE
  8
0
 10
 1.71867173223275E+0002
 20
 7.89722429536941E+0002
 11
 1.71001893987706E+0002
 21
 7.88421206723973E+0002
  0
LINE
  8
0
 10
 1.71001893987706E+0002
 20
 7.88421206723973E+0002
 11
 1.70167016772391E+0002
 21
 7.87109590476828E+0002
  0
LINE
  8
0
 10
 1.70167016772391E+0002
 20
 7.87109590476828E+0002
 11
 1.69362829819760E+0002
 21
 7.85787768153088E+0002
  0
LINE
  8
0
 10
 1.69362829819760E+0002
 20
 7.85787768153088E+0002
 11
 1.68589621372243E+0002
 21
 7.84455927110331E+0002
  0
LINE
  8
0
 10
 1.68589621372243E+0002
 20
 7.84455927110331E+0002
 11
 1.67847679672271E+0002
 21
 7.83114254706138E+0002
  0
LINE
  8
0
 10
 1.67847679672271E+0002
 20
 7.83114254706138E+0002
 11
 1.67137292962274E+0002
 21
 7.81762938298087E+0002
  0
LINE
  8
0
 10
 1.67137292962274E+0002
 20
 7.81762938298087E+0002
 11
 1.66458749484683E+0002
 21
 7.80402165243760E+0002
  0
LINE
  8
0
 10
 1.66458749484683E+0002
 20
 7.80402165243760E+0002
 11
 1.65812337481928E+0002
 21
 7.79032122900735E+0002
  0
LINE
  8
0
 10
 1.65812337481928E+0002
 20
 7.79032122900735E+0002
 11
 1.65198345196440E+0002
 21
 7.77652998626593E+0002
  0
LINE
  8
0
 10
 1.65198345196440E+0002
 20
 7.77652998626593E+0002
 11
 1.64617060870648E+0002
 21
 7.76264979778913E+0002
  0
LINE
  8
0
 10
 1.64617060870648E+0002
 20
 7.76264979778913E+0002
 11
 1.64068772746984E+0002
 21
 7.74868253715275E+0002
  0
LINE
  8
0
 10
 1.64068772746984E+0002
 20
 7.74868253715275E+0002
 11
 1.63553769067878E+0002
 21
 7.73463007793259E+0002
  0
LINE
  8
0
 10
 1.63553769067878E+0002
 20
 7.73463007793259E+0002
 11
 1.63072338075760E+0002
 21
 7.72049429370444E+0002
  0
LINE
  8
0
 10
 1.63072338075760E+0002
 20
 7.72049429370444E+0002
 11
 1.62624768013061E+0002
 21
 7.70627705804411E+0002
  0
LINE
  8
0
 10
 1.62624768013061E+0002
 20
 7.70627705804411E+0002
 11
 1.62211347122210E+0002
 21
 7.69198024452739E+0002
  0
LINE
  8
0
 10
 1.62211347122210E+0002
 20
 7.69198024452739E+0002
 11
 1.61832363645640E+0002
 21
 7.67760572673008E+0002
  0
LINE
  8
0
 10
 1.61832363645640E+0002
 20
 7.67760572673008E+0002
 11
 1.61488105825779E+0002
 21
 7.66315537822798E+0002
  0
LINE
  8
0
 10
 1.61488105825779E+0002
 20
 7.66315537822798E+0002
 11
 1.61178861905058E+0002
 21
 7.64863107259688E+0002
  0
LINE
  8
0
 10
 1.61178861905058E+0002
 20
 7.64863107259688E+0002
 11
 1.60904920125909E+0002
 21
 7.63403468341259E+0002
  0
LINE
  8
0
 10
 1.60904920125909E+0002
 20
 7.63403468341259E+0002
 11
 1.60666568730761E+0002
 21
 7.61936808425089E+0002
  0
LINE
  8
0
 10
 1.60666568730761E+0002
 20
 7.61936808425089E+0002
 11
 1.60464095962044E+0002
 21
 7.60463314868759E+0002
  0
LINE
  8
0
 10
 1.60464095962044E+0002
 20
 7.60463314868759E+0002
 11
 1.60297790062189E+0002
 21
 7.58983175029849E+0002
  0
LINE
  8
0
 10
 1.60297790062189E+0002
 20
 7.58983175029849E+0002
 11
 1.60167939273627E+0002
 21
 7.57496576265938E+0002
  0
LINE
  8
0
 10
 1.60167939273627E+0002
 20
 7.57496576265938E+0002
 11
 1.60074831838788E+0002
 21
 7.56003705934607E+0002
  0
LINE
  8
0
 10
 1.60074831838788E+0002
 20
 7.56003705934607E+0002
 11
 1.60018756000102E+0002
 21
 7.54504751393434E+0002
  0
LINE
  8
0
 10
 1.60018756000102E+0002
 20
 7.54504751393434E+0002
 11
 1.60000000000000E+0002
 21
 7.52999900000000E+0002
  0
LINE
  8
0
 10
 1.60000000000000E+0002
 20
 7.52999900000000E+0002
 11
 1.60000000000000E+0002
 21
 7.52999900000000E+0002
  0
LINE
  8
0
 10
 1.60000000000000E+0002
 20
 7.52999900000000E+0002
 11
 1.60018756000102E+0002
 21
 7.51495048606566E+0002
  0
LINE
  8
0
 10
 1.60018756000102E+0002
 20
 7.51495048606566E+0002
 11
 1.60074831838788E+0002
 21
 7.49996094065393E+0002
  0
LINE
  8
0
 10
 1.60074831838788E+0002
 20
 7.49996094065393E+0002
 11
 1.60167939273627E+0002
 21
 7.48503223734062E+0002
  0
LINE
  8
0
 10
 1.60167939273627E+0002
 20
 7.48503223734062E+0002
 11
 1.60297790062189E+0002
 21
 7.47016624970151E+0002
  0
LINE
  8
0
 10
 1.60297790062189E+0002
 20
 7.47016624970151E+0002
 11
 1.60464095962044E+0002
 21
 7.45536485131241E+0002
  0
LINE
  8
0
 10
 1.60464095962044E+0002
 20
 7.45536485131241E+0002
 11
 1.60666568730761E+0002
 21
 7.44062991574911E+0002
  0
LINE
  8
0
 10
 1.60666568730761E+0002
 20
 7.44062991574911E+0002
 11
 1.60904920125909E+0002
 21
 7.42596331658741E+0002
  0
LINE
  8
0
 10
 1.60904920125909E+0002
 20
 7.42596331658741E+0002
 11
 1.61178861905058E+0002
 21
 7.41136692740312E+0002
  0
LINE
  8
0
 10
 1.61178861905058E+0002
 20
 7.41136692740312E+0002
 11
 1.61488105825779E+0002
 21
 7.39684262177202E+0002
  0
LINE
  8
0
 10
 1.61488105825779E+0002
 20
 7.39684262177202E+0002
 11
 1.61832363645640E+0002
 21
 7.38239227326992E+0002
  0
LINE
  8
0
 10
 1.61832363645640E+0002
 20
 7.38239227326992E+0002
 11
 1.62211347122210E+0002
 21
 7.36801775547261E+0002
  0
LINE
  8
0
 10
 1.62211347122210E+0002
 20
 7.36801775547261E+0002
 11
 1.62624768013061E+0002
 21
 7.35372094195589E+0002
  0
LINE
  8
0
 10
 1.62624768013061E+0002
 20
 7.35372094195589E+0002
 11
 1.63072338075760E+0002
 21
 7.33950370629556E+0002
  0
LINE
  8
0
 10
 1.63072338075760E+0002
 20
 7.33950370629556E+0002
 11
 1.63553769067878E+0002
 21
 7.32536792206741E+0002
  0
LINE
  8
0
 10
 1.63553769067878E+0002
 20
 7.32536792206741E+0002
 11
 1.64068772746984E+0002
 21
 7.31131546284725E+0002
  0
LINE
  8
0
 10
 1.64068772746984E+0002
 20
 7.31131546284725E+0002
 11
 1.64617060870648E+0002
 21
 7.29734820221087E+0002
  0
LINE
  8
0
 10
 1.64617060870648E+0002
 20
 7.29734820221087E+0002
 11
 1.65198345196440E+0002
 21
 7.28346801373407E+0002
  0
LINE
  8
0
 10
 1.65198345196440E+0002
 20
 7.28346801373407E+0002
 11
 1.65812337481928E+0002
 21
 7.26967677099265E+0002
  0
LINE
  8
0
 10
 1.65812337481928E+0002
 20
 7.26967677099265E+0002
 11
 1.66458749484683E+0002
 21
 7.25597634756240E+0002
  0
LINE
  8
0
 10
 1.66458749484683E+0002
 20
 7.25597634756240E+0002
 11
 1.67137292962274E+0002
 21
 7.24236861701913E+0002
  0
LINE
  8
0
 10
 1.67137292962274E+0002
 20
 7.24236861701913E+0002
 11
 1.67847679672271E+0002
 21
 7.22885545293862E+0002
  0
LINE
  8
0
 10
 1.67847679672271E+0002
 20
 7.22885545293862E+0002
 11
 1.68589621372243E+0002
 21
 7.21543872889669E+0002
  0
LINE
  8
0
 10
 1.68589621372243E+0002
 20
 7.21543872889669E+0002
 11
 1.69362829819760E+0002
 21
 7.20212031846912E+0002
  0
LINE
  8
0
 10
 1.69362829819760E+0002
 20
 7.20212031846912E+0002
 11
 1.70167016772391E+0002
 21
 7.18890209523172E+0002
  0
LINE
  8
0
 10
 1.70167016772391E+0002
 20
 7.18890209523172E+0002
 11
 1.71001893987706E+0002
 21
 7.17578593276027E+0002
  0
LINE
  8
0
 10
 1.71001893987706E+0002
 20
 7.17578593276027E+0002
 11
 1.71867173223275E+0002
 21
 7.16277370463059E+0002
  0
LINE
  8
0
 10
 1.71867173223275E+0002
 20
 7.16277370463059E+0002
 11
 1.72762566236667E+0002
 21
 7.14986728441846E+0002
  0
LINE
  8
0
 10
 1.72762566236667E+0002
 20
 7.14986728441846E+0002
 11
 1.73687784785452E+0002
 21
 7.13706854569969E+0002
  0
LINE
  8
0
 10
 1.73687784785452E+0002
 20
 7.13706854569969E+0002
 11
 1.74642540627198E+0002
 21
 7.12437936205007E+0002
  0
LINE
  8
0
 10
 1.74642540627198E+0002
 20
 7.12437936205007E+0002
 11
 1.75626545519477E+0002
 21
 7.11180160704540E+0002
  0
LINE
  8
0
 10
 1.75626545519477E+0002
 20
 7.11180160704540E+0002
 11
 1.76639511219857E+0002
 21
 7.09933715426148E+0002
  0
LINE
  8
0
 10
 1.76639511219857E+0002
 20
 7.09933715426148E+0002
 11
 1.77681149485909E+0002
 21
 7.08698787727411E+0002
  0
LINE
  8
0
 10
 1.77681149485909E+0002
 20
 7.08698787727411E+0002
 11
 1.78751172075200E+0002
 21
 7.07475564965908E+0002
  0
LINE
  8
0
 10
 1.78751172075200E+0002
 20
 7.07475564965908E+0002
 11
 1.79849290745302E+0002
 21
 7.06264234499219E+0002
  0
LINE
  8
0
 10
 1.79849290745302E+0002
 20
 7.06264234499219E+0002
 11
 1.80975217253784E+0002
 21
 7.05064983684925E+0002
  0
LINE
  8
0
 10
 1.80975217253784E+0002
 20
 7.05064983684925E+0002
 11
 1.82128663358215E+0002
 21
 7.03877999880604E+0002
  0
LINE
  8
0
 10
 1.82128663358215E+0002
 20
 7.03877999880604E+0002
 11
 1.83309340816164E+0002
 21
 7.02703470443836E+0002
  0
LINE
  8
0
 10
 1.83309340816164E+0002
 20
 7.02703470443836E+0002
 11
 1.84516961385202E+0002
 21
 7.01541582732202E+0002
  0
LINE
  8
0
 10
 1.84516961385202E+0002
 20
 7.01541582732202E+0002
 11
 1.85751236822899E+0002
 21
 7.00392524103280E+0002
  0
LINE
  8
0
 10
 1.85751236822899E+0002
 20
 7.00392524103280E+0002
 11
 1.87011878886822E+0002
 21
 6.99256481914652E+0002
  0
LINE
  8
0
 10
 1.87011878886822E+0002
 20
 6.99256481914652E+0002
 11
 1.88298599334543E+0002
 21
 6.98133643523896E+0002
  0
LINE
  8
0
 10
 1.88298599334543E+0002
 20
 6.98133643523896E+0002
 11
 1.89611109923631E+0002
 21
 6.97024196288593E+0002
  0
LINE
  8
0
 10
 1.89611109923631E+0002
 20
 6.97024196288593E+0002
 11
 1.90949122411655E+0002
 21
 6.95928327566321E+0002
  0
LINE
  8
0
 10
 1.90949122411655E+0002
 20
 6.95928327566321E+0002
 11
 1.92312348556185E+0002
 21
 6.94846224714662E+0002
  0
LINE
  8
0
 10
 1.92312348556185E+0002
 20
 6.94846224714662E+0002
 11
 1.93700500114790E+0002
 21
 6.93778075091194E+0002
  0
LINE
  8
0
 10
 1.93700500114790E+0002
 20
 6.93778075091194E+0002
 11
 1.95113288845040E+0002
 21
 6.92724066053498E+0002
  0
LINE
  8
0
 10
 1.95113288845040E+0002
 20
 6.92724066053498E+0002
 11
 1.96550426504505E+0002
 21
 6.91684384959153E+0002
  0
LINE
  8
0
 10
 1.96550426504505E+0002
 20
 6.91684384959153E+0002
 11
 1.98011624850754E+0002
 21
 6.90659219165740E+0002
  0
LINE
  8
0
 10
 1.98011624850754E+0002
 20
 6.90659219165740E+0002
 11
 1.99496595641357E+0002
 21
 6.89648756030837E+0002
  0
LINE
  8
0
 10
 1.99496595641357E+0002
 20
 6.89648756030837E+0002
 11
 2.01005050633883E+0002
 21
 6.88653182912024E+0002
  0
LINE
  8
0
 10
 2.01005050633883E+0002
 20
 6.88653182912024E+0002
 11
 2.02536701585902E+0002
 21
 6.87672687166882E+0002
  0
LINE
  8
0
 10
 2.02536701585902E+0002
 20
 6.87672687166882E+0002
 11
 2.04091260254984E+0002
 21
 6.86707456152990E+0002
  0
LINE
  8
0
 10
 2.04091260254984E+0002
 20
 6.86707456152990E+0002
 11
 2.05668438398697E+0002
 21
 6.85757677227929E+0002
  0
LINE
  8
0
 10
 2.05668438398697E+0002
 20
 6.85757677227929E+0002
 11
 2.07267947774613E+0002
 21
 6.84823537749276E+0002
  0
LINE
  8
0
 10
 2.07267947774613E+0002
 20
 6.84823537749276E+0002
 11
 2.08889500140299E+0002
 21
 6.83905225074614E+0002
  0
LINE
  8
0
 10
 2.08889500140299E+0002
 20
 6.83905225074614E+0002
 11
 2.10532807253326E+0002
 21
 6.83002926561520E+0002
  0
LINE
  8
0
 10
 2.10532807253326E+0002
 20
 6.83002926561520E+0002
 11
 2.12197580871264E+0002
 21
 6.82116829567576E+0002
  0
LINE
  8
0
 10
 2.12197580871264E+0002
 20
 6.82116829567576E+0002
 11
 2.13883532751681E+0002
 21
 6.81247121450360E+0002
  0
LINE
  8
0
 10
 2.13883532751681E+0002
 20
 6.81247121450360E+0002
 11
 2.15590374652148E+0002
 21
 6.80393989567453E+0002
  0
LINE
  8
0
 10
 2.15590374652148E+0002
 20
 6.80393989567453E+0002
 11
 2.17317818330234E+0002
 21
 6.79557621276434E+0002
  0
LINE
  8
0
 10
 2.17317818330234E+0002
 20
 6.79557621276434E+0002
 11
 2.19065575543508E+0002
 21
 6.78738203934884E+0002
  0
LINE
  8
0
 10
 2.19065575543508E+0002
 20
 6.78738203934884E+0002
 11
 2.20833358049541E+0002
 21
 6.77935924900382E+0002
  0
LINE
  8
0
 10
 2.20833358049541E+0002
 20
 6.77935924900382E+0002
 11
 2.22620877605901E+0002
 21
 6.77150971530507E+0002
  0
LINE
  8
0
 10
 2.22620877605901E+0002
 20
 6.77150971530507E+0002
 11
 2.24427845970159E+0002
 21
 6.76383531182839E+0002
  0
LINE
  8
0
 10
 2.24427845970159E+0002
 20
 6.76383531182839E+0002
 11
 2.26253974899884E+0002
 21
 6.75633791214959E+0002
  0
LINE
  8
0
 10
 2.26253974899884E+0002
 20
 6.75633791214959E+0002
 11
 2.28098976152645E+0002
 21
 6.74901938984446E+0002
  0
LINE
  8
0
 10
 2.28098976152645E+0002
 20
 6.74901938984446E+0002
 11
 2.29962561486013E+0002
 21
 6.74188161848880E+0002
  0
LINE
  8
0
 10
 2.29962561486013E+0002
 20
 6.74188161848880E+0002
 11
 2.31844442657556E+0002
 21
 6.73492647165841E+0002
  0
LINE
  8
0
 10
 2.31844442657556E+0002
 20
 6.73492647165841E+0002
 11
 2.33744331424844E+0002
 21
 6.72815582292907E+0002
  0
LINE
  8
0
 10
 2.33744331424844E+0002
 20
 6.72815582292907E+0002
 11
 2.35661939545447E+0002
 21
 6.72157154587660E+0002
  0
LINE
  8
0
 10
 2.35661939545447E+0002
 20
 6.72157154587660E+0002
 11
 2.37596978776934E+0002
 21
 6.71517551407679E+0002
  0
LINE
  8
0
 10
 2.37596978776934E+0002
 20
 6.71517551407679E+0002
 11
 2.39549160876875E+0002
 21
 6.70896960110544E+0002
  0
LINE
  8
0
 10
 2.39549160876875E+0002
 20
 6.70896960110544E+0002
 11
 2.41518197602840E+0002
 21
 6.70295568053833E+0002
  0
LINE
  8
0
 10
 2.41518197602840E+0002
 20
 6.70295568053833E+0002
 11
 2.43503800712398E+0002
 21
 6.69713562595129E+0002
  0
LINE
  8
0
 10
 2.43503800712398E+0002
 20
 6.69713562595129E+0002
 11
 2.45505681963119E+0002
 21
 6.69151131092009E+0002
  0
LINE
  8
0
 10
 2.45505681963119E+0002
 20
 6.69151131092009E+0002
 11
 2.47523553112572E+0002
 21
 6.68608460902054E+0002
  0
LINE
  8
0
 10
 2.47523553112572E+0002
 20
 6.68608460902054E+0002
 11
 2.49557125918326E+0002
 21
 6.68085739382844E+0002
  0
LINE
  8
0
 10
 2.49557125918326E+0002
 20
 6.68085739382844E+0002
 11
 2.51606112137952E+0002
 21
 6.67583153891958E+0002
  0
LINE
  8
0
 10
 2.51606112137952E+0002
 20
 6.67583153891958E+0002
 11
 2.53670223529019E+0002
 21
 6.67100891786976E+0002
  0
LINE
  8
0
 10
 2.53670223529019E+0002
 20
 6.67100891786976E+0002
 11
 2.55749171849097E+0002
 21
 6.66639140425478E+0002
  0
LINE
  8
0
 10
 2.55749171849097E+0002
 20
 6.66639140425478E+0002
 11
 2.57842668855754E+0002
 21
 6.66198087165044E+0002
  0
LINE
  8
0
 10
 2.57842668855754E+0002
 20
 6.66198087165044E+0002
 11
 2.59950426306561E+0002
 21
 6.65777919363253E+0002
  0
LINE
  8
0
 10
 2.59950426306561E+0002
 20
 6.65777919363253E+0002
 11
 2.62072155959088E+0002
 21
 6.65378824377686E+0002
  0
LINE
  8
0
 10
 2.62072155959088E+0002
 20
 6.65378824377686E+0002
 11
 2.64207569570903E+0002
 21
 6.65000989565921E+0002
  0
LINE
  8
0
 10
 2.64207569570903E+0002
 20
 6.65000989565921E+0002
 11
 2.66356378899577E+0002
 21
 6.64644602285540E+0002
  0
LINE
  8
0
 10
 2.66356378899577E+0002
 20
 6.64644602285540E+0002
 11
 2.68518295702679E+0002
 21
 6.64309849894121E+0002
  0
LINE
  8
0
 10
 2.68518295702679E+0002
 20
 6.64309849894121E+0002
 11
 2.70693031737778E+0002
 21
 6.63996919749244E+0002
  0
LINE
  8
0
 10
 2.70693031737778E+0002
 20
 6.63996919749244E+0002
 11
 2.72880298762444E+0002
 21
 6.63705999208489E+0002
  0
LINE
  8
0
 10
 2.72880298762444E+0002
 20
 6.63705999208489E+0002
 11
 2.75079808534247E+0002
 21
 6.63437275629437E+0002
  0
LINE
  8
0
 10
 2.75079808534247E+0002
 20
 6.63437275629437E+0002
 11
 2.77291272810756E+0002
 21
 6.63190936369666E+0002
  0
LINE
  8
0
 10
 2.77291272810756E+0002
 20
 6.63190936369666E+0002
 11
 2.79514403349542E+0002
 21
 6.62967168786756E+0002
  0
LINE
  8
0
 10
 2.79514403349542E+0002
 20
 6.62967168786756E+0002
 11
 2.81748911908172E+0002
 21
 6.62766160238288E+0002
  0
LINE
  8
0
 10
 2.81748911908172E+0002
 20
 6.62766160238288E+0002
 11
 2.83994510244218E+0002
 21
 6.62588098081841E+0002
  0
LINE
  8
0
 10
 2.83994510244218E+0002
 20
 6.62588098081841E+0002
 11
 2.86250910115248E+0002
 21
 6.62433169674994E+0002
  0
LINE
  8
0
 10
 2.86250910115248E+0002
 20
 6.62433169674994E+0002
 11
 2.88517823278832E+0002
 21
 6.62301562375328E+0002
  0
LINE
  8
0
 10
 2.88517823278832E+0002
 20
 6.62301562375328E+0002
 11
 2.90794961492540E+0002
 21
 6.62193463540423E+0002
  0
LINE
  8
0
 10
 2.90794961492540E+0002
 20
 6.62193463540423E+0002
 11
 2.93082036513941E+0002
 21
 6.62109060527858E+0002
  0
LINE
  8
0
 10
 2.93082036513941E+0002
 20
 6.62109060527858E+0002
 11
 2.95378760100605E+0002
 21
 6.62048540695212E+0002
  0
LINE
  8
0
 10
 2.95378760100605E+0002
 20
 6.62048540695212E+0002
 11
 2.97684844010102E+0002
 21
 6.62012091400066E+0002
  0
LINE
  8
0
 10
 2.97684844010102E+0002
 20
 6.62012091400066E+0002
 11
 3.00000000000000E+0002
 21
 6.61999900000000E+0002
  0
LINE
  8
0
 10
 3.00000000000000E+0002
 20
 6.61999900000000E+0002
 11
 3.00000000000000E+0002
 21
 6.61999900000000E+0002
  0
LINE
  8
0
 10
 3.00000000000000E+0002
 20
 6.61999900000000E+0002
 11
 3.02315155989898E+0002
 21
 6.62012091400066E+0002
  0
LINE
  8
0
 10
 3.02315155989898E+0002
 20
 6.62012091400066E+0002
 11
 3.04621239899395E+0002
 21
 6.62048540695212E+0002
  0
LINE
  8
0
 10
 3.04621239899395E+0002
 20
 6.62048540695212E+0002
 11
 3.06917963486059E+0002
 21
 6.62109060527858E+0002
  0
LINE
  8
0
 10
 3.06917963486059E+0002
 20
 6.62109060527858E+0002
 11
 3.09205038507460E+0002
 21
 6.62193463540423E+0002
  0
LINE
  8
0
 10
 3.09205038507460E+0002
 20
 6.62193463540423E+0002
 11
 3.11482176721168E+0002
 21
 6.62301562375328E+0002
  0
LINE
  8
0
 10
 3.11482176721168E+0002
 20
 6.62301562375328E+0002
 11
 3.13749089884752E+0002
 21
 6.62433169674994E+0002
  0
LINE
  8
0
 10
 3.13749089884752E+0002
 20
 6.62433169674994E+0002
 11
 3.16005489755782E+0002
 21
 6.62588098081841E+0002
  0
LINE
  8
0
 10
 3.16005489755782E+0002
 20
 6.62588098081841E+0002
 11
 3.18251088091828E+0002
 21
 6.62766160238288E+0002
  0
LINE
  8
0
 10
 3.18251088091828E+0002
 20
 6.62766160238288E+0002
 11
 3.20485596650458E+0002
 21
 6.62967168786756E+0002
  0
LINE
  8
0
 10
 3.20485596650458E+0002
 20
 6.62967168786756E+0002
 11
 3.22708727189244E+0002
 21
 6.63190936369666E+0002
  0
LINE
  8
0
 10
 3.22708727189244E+0002
 20
 6.63190936369666E+0002
 11
 3.24920191465753E+0002
 21
 6.63437275629437E+0002
  0
LINE
  8
0
 10
 3.24920191465753E+0002
 20
 6.63437275629437E+0002
 11
 3.27119701237556E+0002
 21
 6.63705999208489E+0002
  0
LINE
  8
0
 10
 3.27119701237556E+0002
 20
 6.63705999208489E+0002
 11
 3.29306968262222E+0002
 21
 6.63996919749244E+0002
  0
LINE
  8
0
 10
 3.29306968262222E+0002
 20
 6.63996919749244E+0002
 11
 3.31481704297321E+0002
 21
 6.64309849894121E+0002
  0
LINE
  8
0
 10
 3.31481704297321E+0002
 20
 6.64309849894121E+0002
 11
 3.33643621100423E+0002
 21
 6.64644602285540E+0002
  0
LINE
  8
0
 10
 3.33643621100423E+0002
 20
 6.64644602285540E+0002
 11
 3.35792430429097E+0002
 21
 6.65000989565921E+0002
  0
LINE
  8
0
 10
 3.35792430429097E+0002
 20
 6.65000989565921E+0002
 11
 3.37927844040912E+0002
 21
 6.65378824377686E+0002
  0
LINE
  8
0
 10
 3.37927844040912E+0002
 20
 6.65378824377686E+0002
 11
 3.40049573693439E+0002
 21
 6.65777919363253E+0002
  0
LINE
  8
0
 10
 3.40049573693439E+0002
 20
 6.65777919363253E+0002
 11
 3.42157331144246E+0002
 21
 6.66198087165044E+0002
  0
LINE
  8
0
 10
 3.42157331144246E+0002
 20
 6.66198087165044E+0002
 11
 3.44250828150903E+0002
 21
 6.66639140425478E+0002
  0
LINE
  8
0
 10
 3.44250828150903E+0002
 20
 6.66639140425478E+0002
 11
 3.46329776470981E+0002
 21
 6.67100891786976E+0002
  0
LINE
  8
0
 10
 3.46329776470981E+0002
 20
 6.67100891786976E+0002
 11
 3.48393887862048E+0002
 21
 6.67583153891958E+0002
  0
LINE
  8
0
 10
 3.48393887862048E+0002
 20
 6.67583153891958E+0002
 11
 3.50442874081674E+0002
 21
 6.68085739382844E+0002
  0
LINE
  8
0
 10
 3.50442874081674E+0002
 20
 6.68085739382844E+0002
 11
 3.52476446887428E+0002
 21
 6.68608460902054E+0002
  0
LINE
  8
0
 10
 3.52476446887428E+0002
 20
 6.68608460902054E+0002
 11
 3.54494318036881E+0002
 21
 6.69151131092009E+0002
  0
LINE
  8
0
 10
 3.54494318036881E+0002
 20
 6.69151131092009E+0002
 11
 3.56496199287602E+0002
 21
 6.69713562595129E+0002
  0
LINE
  8
0
 10
 3.56496199287602E+0002
 20
 6.69713562595129E+0002
 11
 3.58481802397160E+0002
 21
 6.70295568053833E+0002
  0
LINE
  8
0
 10
 3.58481802397160E+0002
 20
 6.70295568053833E+0002
 11
 3.60450839123125E+0002
 21
 6.70896960110544E+0002
  0
LINE
  8
0
 10
 3.60450839123125E+0002
 20
 6.70896960110544E+0002
 11
 3.62403021223066E+0002
 21
 6.71517551407679E+0002
  0
LINE
  8
0
 10
 3.62403021223066E+0002
 20
 6.71517551407679E+0002
 11
 3.64338060454553E+0002
 21
 6.72157154587660E+0002
  0
LINE
  8
0
 10
 3.64338060454553E+0002
 20
 6.72157154587660E+0002
 11
 3.66255668575156E+0002
 21
 6.72815582292907E+0002
  0
LINE
  8
0
 10
 3.66255668575156E+0002
 20
 6.72815582292907E+0002
 11
 3.68155557342444E+0002
 21
 6.73492647165841E+0002
  0
LINE
  8
0
 10
 3.68155557342444E+0002
 20
 6.73492647165841E+0002
 11
 3.70037438513987E+0002
 21
 6.74188161848880E+0002
  0
LINE
  8
0
 10
 3.70037438513987E+0002
 20
 6.74188161848880E+0002
 11
 3.71901023847355E+0002
 21
 6.74901938984446E+0002
  0
LINE
  8
0
 10
 3.71901023847355E+0002
 20
 6.74901938984446E+0002
 11
 3.73746025100116E+0002
 21
 6.75633791214959E+0002
  0
LINE
  8
0
 10
 3.73746025100116E+0002
 20
 6.75633791214959E+0002
 11
 3.75572154029841E+0002
 21
 6.76383531182839E+0002
  0
LINE
  8
0
 10
 3.75572154029841E+0002
 20
 6.76383531182839E+0002
 11
 3.77379122394099E+0002
 21
 6.77150971530507E+0002
  0
LINE
  8
0
 10
 3.77379122394099E+0002
 20
 6.77150971530507E+0002
 11
 3.79166641950459E+0002
 21
 6.77935924900382E+0002
  0
LINE
  8
0
 10
 3.79166641950459E+0002
 20
 6.77935924900382E+0002
 11
 3.80934424456492E+0002
 21
 6.78738203934884E+0002
  0
LINE
  8
0
 10
 3.80934424456492E+0002
 20
 6.78738203934884E+0002
 11
 3.82682181669766E+0002
 21
 6.79557621276434E+0002
  0
LINE
  8
0
 10
 3.82682181669766E+0002
 20
 6.79557621276434E+0002
 11
 3.84409625347852E+0002
 21
 6.80393989567453E+0002
  0
LINE
  8
0
 10
 3.84409625347852E+0002
 20
 6.80393989567453E+0002
 11
 3.86116467248319E+0002
 21
 6.81247121450360E+0002
  0
LINE
  8
0
 10
 3.86116467248319E+0002
 20
 6.81247121450360E+0002
 11
 3.87802419128736E+0002
 21
 6.82116829567576E+0002
  0
LINE
  8
0
 10
 3.87802419128736E+0002
 20
 6.82116829567576E+0002
 11
 3.89467192746674E+0002
 21
 6.83002926561520E+0002
  0
LINE
  8
0
 10
 3.89467192746674E+0002
 20
 6.83002926561520E+0002
 11
 3.91110499859701E+0002
 21
 6.83905225074614E+0002
  0
LINE
  8
0
 10
 3.91110499859701E+0002
 20
 6.83905225074614E+0002
 11
 3.92732052225387E+0002
 21
 6.84823537749276E+0002
  0
LINE
  8
0
 10
 3.92732052225387E+0002
 20
 6.84823537749276E+0002
 11
 3.94331561601303E+0002
 21
 6.85757677227929E+0002
  0
LINE
  8
0
 10
 3.94331561601303E+0002
 20
 6.85757677227929E+0002
 11
 3.95908739745016E+0002
 21
 6.86707456152990E+0002
  0
LINE
  8
0
 10
 3.95908739745016E+0002
 20
 6.86707456152990E+0002
 11
 3.97463298414098E+0002
 21
 6.87672687166882E+0002
  0
LINE
  8
0
 10
 3.97463298414098E+0002
 20
 6.87672687166882E+0002
 11
 3.98994949366117E+0002
 21
 6.88653182912024E+0002
  0
LINE
  8
0
 10
 3.98994949366117E+0002
 20
 6.88653182912024E+0002
 11
 4.00503404358643E+0002
 21
 6.89648756030837E+0002
  0
LINE
  8
0
 10
 4.00503404358643E+0002
 20
 6.89648756030837E+0002
 11
 4.01988375149246E+0002
 21
 6.90659219165740E+0002
  0
LINE
  8
0
 10
 4.01988375149246E+0002
 20
 6.90659219165740E+0002
 11
 4.03449573495495E+0002
 21
 6.91684384959153E+0002
  0
LINE
  8
0
 10
 4.03449573495495E+0002
 20
 6.91684384959153E+0002
 11
 4.04886711154960E+0002
 21
 6.92724066053498E+0002
  0
LINE
  8
0
 10
 4.04886711154960E+0002
 20
 6.92724066053498E+0002
 11
 4.06299499885210E+0002
 21
 6.93778075091194E+0002
  0
LINE
  8
0
 10
 4.06299499885210E+0002
 20
 6.93778075091194E+0002
 11
 4.07687651443815E+0002
 21
 6.94846224714662E+0002
  0
LINE
  8
0
 10
 4.07687651443815E+0002
 20
 6.94846224714662E+0002
 11
 4.09050877588345E+0002
 21
 6.95928327566321E+0002
  0
LINE
  8
0
 10
 4.09050877588345E+0002
 20
 6.95928327566321E+0002
 11
 4.10388890076369E+0002
 21
 6.97024196288593E+0002
  0
LINE
  8
0
 10
 4.10388890076369E+0002
 20
 6.97024196288593E+0002
 11
 4.11701400665457E+0002
 21
 6.98133643523896E+0002
  0
LINE
  8
0
 10
 4.11701400665457E+0002
 20
 6.98133643523896E+0002
 11
 4.12988121113178E+0002
 21
 6.99256481914652E+0002
  0
LINE
  8
0
 10
 4.12988121113178E+0002
 20
 6.99256481914652E+0002
 11
 4.14248763177101E+0002
 21
 7.00392524103280E+0002
  0
LINE
  8
0
 10
 4.14248763177101E+0002
 20
 7.00392524103280E+0002
 11
 4.15483038614798E+0002
 21
 7.01541582732202E+0002
  0
LINE
  8
0
 10
 4.15483038614798E+0002
 20
 7.01541582732202E+0002
 11
 4.16690659183836E+0002
 21
 7.02703470443836E+0002
  0
LINE
  8
0
 10
 4.16690659183836E+0002
 20
 7.02703470443836E+0002
 11
 4.17871336641785E+0002
 21
 7.03877999880604E+0002
  0
LINE
  8
0
 10
 4.17871336641785E+0002
 20
 7.03877999880604E+0002
 11
 4.19024782746216E+0002
 21
 7.05064983684925E+0002
  0
LINE
  8
0
 10
 4.19024782746216E+0002
 20
 7.05064983684925E+0002
 11
 4.20150709254698E+0002
 21
 7.06264234499219E+0002
  0
LINE
  8
0
 10
 4.20150709254698E+0002
 20
 7.06264234499219E+0002
 11
 4.21248827924800E+0002
 21
 7.07475564965908E+0002
  0
LINE
  8
0
 10
 4.21248827924800E+0002
 20
 7.07475564965908E+0002
 11
 4.22318850514092E+0002
 21
 7.08698787727411E+0002
  0
LINE
  8
0
 10
 4.22318850514092E+0002
 20
 7.08698787727411E+0002
 11
 4.23360488780143E+0002
 21
 7.09933715426148E+0002
  0
LINE
  8
0
 10
 4.23360488780143E+0002
 20
 7.09933715426148E+0002
 11
 4.24373454480523E+0002
 21
 7.11180160704540E+0002
  0
LINE
  8
0
 10
 4.24373454480523E+0002
 20
 7.11180160704540E+0002
 11
 4.25357459372802E+0002
 21
 7.12437936205007E+0002
  0
LINE
  8
0
 10
 4.25357459372802E+0002
 20
 7.12437936205007E+0002
 11
 4.26312215214548E+0002
 21
 7.13706854569969E+0002
  0
LINE
  8
0
 10
 4.26312215214548E+0002
 20
 7.13706854569969E+0002
 11
 4.27237433763333E+0002
 21
 7.14986728441846E+0002
  0
LINE
  8
0
 10
 4.27237433763333E+0002
 20
 7.14986728441846E+0002
 11
 4.28132826776725E+0002
 21
 7.16277370463059E+0002
  0
LINE
  8
0
 10
 4.28132826776725E+0002
 20
 7.16277370463059E+0002
 11
 4.28998106012294E+0002
 21
 7.17578593276027E+0002
  0
LINE
  8
0
 10
 4.28998106012294E+0002
 20
 7.17578593276027E+0002
 11
 4.29832983227609E+0002
 21
 7.18890209523172E+0002
  0
LINE
  8
0
 10
 4.29832983227609E+0002
 20
 7.18890209523172E+0002
 11
 4.30637170180240E+0002
 21
 7.20212031846912E+0002
  0
LINE
  8
0
 10
 4.30637170180240E+0002
 20
 7.20212031846912E+0002
 11
 4.31410378627757E+0002
 21
 7.21543872889669E+0002
  0
LINE
  8
0
 10
 4.31410378627757E+0002
 20
 7.21543872889669E+0002
 11
 4.32152320327729E+0002
 21
 7.22885545293862E+0002
  0
LINE
  8
0
 10
 4.32152320327729E+0002
 20
 7.22885545293862E+0002
 11
 4.32862707037726E+0002
 21
 7.24236861701913E+0002
  0
LINE
  8
0
 10
 4.32862707037726E+0002
 20
 7.24236861701913E+0002
 11
 4.33541250515317E+0002
 21
 7.25597634756240E+0002
  0
LINE
  8
0
 10
 4.33541250515317E+0002
 20
 7.25597634756240E+0002
 11
 4.34187662518072E+0002
 21
 7.26967677099265E+0002
  0
LINE
  8
0
 10
 4.34187662518072E+0002
 20
 7.26967677099265E+0002
 11
 4.34801654803560E+0002
 21
 7.28346801373407E+0002
  0
LINE
  8
0
 10
 4.34801654803560E+0002
 20
 7.28346801373407E+0002
 11
 4.35382939129352E+0002
 21
 7.29734820221087E+0002
  0
LINE
  8
0
 10
 4.35382939129352E+0002
 20
 7.29734820221087E+0002
 11
 4.35931227253016E+0002
 21
 7.31131546284725E+0002
  0
LINE
  8
0
 10
 4.35931227253016E+0002
 20
 7.31131546284725E+0002
 11
 4.36446230932122E+0002
 21
 7.32536792206741E+0002
  0
LINE
  8
0
 10
 4.36446230932122E+0002
 20
 7.32536792206741E+0002
 11
 4.36927661924240E+0002
 21
 7.33950370629556E+0002
  0
LINE
  8
0
 10
 4.36927661924240E+0002
 20
 7.33950370629556E+0002
 11
 4.37375231986939E+0002
 21
 7.35372094195589E+0002
  0
LINE
  8
0
 10
 4.37375231986939E+0002
 20
 7.35372094195589E+0002
 11
 4.37788652877790E+0002
 21
 7.36801775547261E+0002
  0
LINE
  8
0
 10
 4.37788652877790E+0002
 20
 7.36801775547261E+0002
 11
 4.38167636354360E+0002
 21
 7.38239227326992E+0002
  0
LINE
  8
0
 10
 4.38167636354360E+0002
 20
 7.38239227326992E+0002
 11
 4.38511894174221E+0002
 21
 7.39684262177202E+0002
  0
LINE
  8
0
 10
 4.38511894174221E+0002
 20
 7.39684262177202E+0002
 11
 4.38821138094942E+0002
 21
 7.41136692740312E+0002
  0
LINE
  8
0
 10
 4.38821138094942E+0002
 20
 7.41136692740312E+0002
 11
 4.39095079874091E+0002
 21
 7.42596331658741E+0002
  0
LINE
  8
0
 10
 4.39095079874091E+0002
 20
 7.42596331658741E+0002
 11
 4.39333431269239E+0002
 21
 7.44062991574911E+0002
  0
LINE
  8
0
 10
 4.39333431269239E+0002
 20
 7.44062991574911E+0002
 11
 4.39535904037956E+0002
 21
 7.45536485131241E+0002
  0
LINE
  8
0
 10
 4.39535904037956E+0002
 20
 7.45536485131241E+0002
 11
 4.39702209937811E+0002
 21
 7.47016624970151E+0002
  0
LINE
  8
0
 10
 4.39702209937811E+0002
 20
 7.47016624970151E+0002
 11
 4.39832060726373E+0002
 21
 7.48503223734062E+0002
  0
LINE
  8
0
 10
 4.39832060726373E+0002
 20
 7.48503223734062E+0002
 11
 4.39925168161212E+0002
 21
 7.49996094065393E+0002
  0
LINE
  8
0
 10
 4.39925168161212E+0002
 20
 7.49996094065393E+0002
 11
 4.39981243999898E+0002
 21
 7.51495048606566E+0002
  0
LINE
  8
0
 10
 4.39981243999898E+0002
 20
 7.51495048606566E+0002
 11
 4.40000000000000E+0002
 21
 7.52999900000000E+0002
  0
LINE
  8
0
 10
 4.19000000000000E+0002
 20
 7.52999900000000E+0002
 11
 4.18984057399913E+0002
 21
 7.54215356894697E+0002
  0
LINE
  8
0
 10
 4.18984057399913E+0002
 20
 7.54215356894697E+0002
 11
 4.18936392937030E+0002
 21
 7.55426050947182E+0002
  0
LINE
  8
0
 10
 4.18936392937030E+0002
 20
 7.55426050947182E+0002
 11
 4.18857251617417E+0002
 21
 7.56631830830181E+0002
  0
LINE
  8
0
 10
 4.18857251617417E+0002
 20
 7.56631830830181E+0002
 11
 4.18746878447139E+0002
 21
 7.57832545216417E+0002
  0
LINE
  8
0
 10
 4.18746878447139E+0002
 20
 7.57832545216417E+0002
 11
 4.18605518432263E+0002
 21
 7.59028042778613E+0002
  0
LINE
  8
0
 10
 4.18605518432263E+0002
 20
 7.59028042778613E+0002
 11
 4.18433416578854E+0002
 21
 7.60218172189495E+0002
  0
LINE
  8
0
 10
 4.18433416578854E+0002
 20
 7.60218172189495E+0002
 11
 4.18230817892977E+0002
 21
 7.61402782121786E+0002
  0
LINE
  8
0
 10
 4.18230817892977E+0002
 20
 7.61402782121786E+0002
 11
 4.17997967380700E+0002
 21
 7.62581721248210E+0002
  0
LINE
  8
0
 10
 4.17997967380700E+0002
 20
 7.62581721248210E+0002
 11
 4.17735110048088E+0002
 21
 7.63754838241491E+0002
  0
LINE
  8
0
 10
 4.17735110048088E+0002
 20
 7.63754838241491E+0002
 11
 4.17442490901206E+0002
 21
 7.64921981774353E+0002
  0
LINE
  8
0
 10
 4.17442490901206E+0002
 20
 7.64921981774353E+0002
 11
 4.17120354946121E+0002
 21
 7.66083000519520E+0002
  0
LINE
  8
0
 10
 4.17120354946121E+0002
 20
 7.66083000519520E+0002
 11
 4.16768947188898E+0002
 21
 7.67237743149717E+0002
  0
LINE
  8
0
 10
 4.16768947188898E+0002
 20
 7.67237743149717E+0002
 11
 4.16388512635604E+0002
 21
 7.68386058337667E+0002
  0
LINE
  8
0
 10
 4.16388512635604E+0002
 20
 7.68386058337667E+0002
 11
 4.15979296292304E+0002
 21
 7.69527794756094E+0002
  0
LINE
  8
0
 10
 4.15979296292304E+0002
 20
 7.69527794756094E+0002
 11
 4.15541543165064E+0002
 21
 7.70662801077722E+0002
  0
LINE
  8
0
 10
 4.15541543165064E+0002
 20
 7.70662801077722E+0002
 11
 4.15075498259949E+0002
 21
 7.71790925975276E+0002
  0
LINE
  8
0
 10
 4.15075498259949E+0002
 20
 7.71790925975276E+0002
 11
 4.14581406583026E+0002
 21
 7.72912018121479E+0002
  0
LINE
  8
0
 10
 4.14581406583026E+0002
 20
 7.72912018121479E+0002
 11
 4.14059513140361E+0002
 21
 7.74025926189055E+0002
  0
LINE
  8
0
 10
 4.14059513140361E+0002
 20
 7.74025926189055E+0002
 11
 4.13510062938019E+0002
 21
 7.75132498850729E+0002
  0
LINE
  8
0
 10
 4.13510062938019E+0002
 20
 7.75132498850729E+0002
 11
 4.12933300982067E+0002
 21
 7.76231584779224E+0002
  0
LINE
  8
0
 10
 4.12933300982067E+0002
 20
 7.76231584779224E+0002
 11
 4.12329472278570E+0002
 21
 7.77323032647265E+0002
  0
LINE
  8
0
 10
 4.12329472278570E+0002
 20
 7.77323032647265E+0002
 11
 4.11698821833593E+0002
 21
 7.78406691127575E+0002
  0
LINE
  8
0
 10
 4.11698821833593E+0002
 20
 7.78406691127575E+0002
 11
 4.11041594653204E+0002
 21
 7.79482408892879E+0002
  0
LINE
  8
0
 10
 4.11041594653204E+0002
 20
 7.79482408892879E+0002
 11
 4.10358035743468E+0002
 21
 7.80550034615900E+0002
  0
LINE
  8
0
 10
 4.10358035743468E+0002
 20
 7.80550034615900E+0002
 11
 4.09648390110450E+0002
 21
 7.81609416969363E+0002
  0
LINE
  8
0
 10
 4.09648390110450E+0002
 20
 7.81609416969363E+0002
 11
 4.08912902760216E+0002
 21
 7.82660404625991E+0002
  0
LINE
  8
0
 10
 4.08912902760216E+0002
 20
 7.82660404625991E+0002
 11
 4.08151818698833E+0002
 21
 7.83702846258509E+0002
  0
LINE
  8
0
 10
 4.08151818698833E+0002
 20
 7.83702846258509E+0002
 11
 4.07365382932366E+0002
 21
 7.84736590539640E+0002
  0
LINE
  8
0
 10
 4.07365382932366E+0002
 20
 7.84736590539640E+0002
 11
 4.06553840466881E+0002
 21
 7.85761486142110E+0002
  0
LINE
  8
0
 10
 4.06553840466881E+0002
 20
 7.85761486142110E+0002
 11
 4.05717436308444E+0002
 21
 7.86777381738640E+0002
  0
LINE
  8
0
 10
 4.05717436308444E+0002
 20
 7.86777381738640E+0002
 11
 4.04856415463121E+0002
 21
 7.87784126001957E+0002
  0
LINE
  8
0
 10
 4.04856415463121E+0002
 20
 7.87784126001957E+0002
 11
 4.03971022936978E+0002
 21
 7.88781567604783E+0002
  0
LINE
  8
0
 10
 4.03971022936978E+0002
 20
 7.88781567604783E+0002
 11
 4.03061503736080E+0002
 21
 7.89769555219843E+0002
  0
LINE
  8
0
 10
 4.03061503736080E+0002
 20
 7.89769555219843E+0002
 11
 4.02128102866493E+0002
 21
 7.90747937519861E+0002
  0
LINE
  8
0
 10
 4.02128102866493E+0002
 20
 7.90747937519861E+0002
 11
 4.01171065334284E+0002
 21
 7.91716563177561E+0002
  0
LINE
  8
0
 10
 4.01171065334284E+0002
 20
 7.91716563177561E+0002
 11
 4.00190636145518E+0002
 21
 7.92675280865666E+0002
  0
LINE
  8
0
 10
 4.00190636145518E+0002
 20
 7.92675280865666E+0002
 11
 3.99187060306260E+0002
 21
 7.93623939256902E+0002
  0
LINE
  8
0
 10
 3.99187060306260E+0002
 20
 7.93623939256902E+0002
 11
 3.98160582822578E+0002
 21
 7.94562387023991E+0002
  0
LINE
  8
0
 10
 3.98160582822578E+0002
 20
 7.94562387023991E+0002
 11
 3.97111448700536E+0002
 21
 7.95490472839658E+0002
  0
LINE
  8
0
 10
 3.97111448700536E+0002
 20
 7.95490472839658E+0002
 11
 3.96039902946201E+0002
 21
 7.96408045376627E+0002
  0
LINE
  8
0
 10
 3.96039902946201E+0002
 20
 7.96408045376627E+0002
 11
 3.94946190565638E+0002
 21
 7.97314953307622E+0002
  0
LINE
  8
0
 10
 3.94946190565638E+0002
 20
 7.97314953307622E+0002
 11
 3.93830556564914E+0002
 21
 7.98211045305367E+0002
  0
LINE
  8
0
 10
 3.93830556564914E+0002
 20
 7.98211045305367E+0002
 11
 3.92693245950093E+0002
 21
 7.99096170042587E+0002
  0
LINE
  8
0
 10
 3.92693245950093E+0002
 20
 7.99096170042587E+0002
 11
 3.91534503727243E+0002
 21
 7.99970176192004E+0002
  0
LINE
  8
0
 10
 3.91534503727243E+0002
 20
 7.99970176192004E+0002
 11
 3.90354574902428E+0002
 21
 8.00832912426343E+0002
  0
LINE
  8
0
 10
 3.90354574902428E+0002
 20
 8.00832912426343E+0002
 11
 3.89153704481716E+0002
 21
 8.01684227418328E+0002
  0
LINE
  8
0
 10
 3.89153704481716E+0002
 20
 8.01684227418328E+0002
 11
 3.87932137471171E+0002
 21
 8.02523969840684E+0002
  0
LINE
  8
0
 10
 3.87932137471171E+0002
 20
 8.02523969840684E+0002
 11
 3.86690118876859E+0002
 21
 8.03351988366133E+0002
  0
LINE
  8
0
 10
 3.86690118876859E+0002
 20
 8.03351988366133E+0002
 11
 3.85427893704846E+0002
 21
 8.04168131667401E+0002
  0
LINE
  8
0
 10
 3.85427893704846E+0002
 20
 8.04168131667401E+0002
 11
 3.84145706961199E+0002
 21
 8.04972248417211E+0002
  0
LINE
  8
0
 10
 3.84145706961199E+0002
 20
 8.04972248417211E+0002
 11
 3.82843803651983E+0002
 21
 8.05764187288287E+0002
  0
LINE
  8
0
 10
 3.82843803651983E+0002
 20
 8.05764187288287E+0002
 11
 3.81522428783264E+0002
 21
 8.06543796953354E+0002
  0
LINE
  8
0
 10
 3.81522428783264E+0002
 20
 8.06543796953354E+0002
 11
 3.80181827361107E+0002
 21
 8.07310926085135E+0002
  0
LINE
  8
0
 10
 3.80181827361107E+0002
 20
 8.07310926085135E+0002
 11
 3.78822244391579E+0002
 21
 8.08065423356354E+0002
  0
LINE
  8
0
 10
 3.78822244391579E+0002
 20
 8.08065423356354E+0002
 11
 3.77443924880746E+0002
 21
 8.08807137439735E+0002
  0
LINE
  8
0
 10
 3.77443924880746E+0002
 20
 8.08807137439735E+0002
 11
 3.76047113834673E+0002
 21
 8.09535917008003E+0002
  0
LINE
  8
0
 10
 3.76047113834673E+0002
 20
 8.09535917008003E+0002
 11
 3.74632056259426E+0002
 21
 8.10251610733881E+0002
  0
LINE
  8
0
 10
 3.74632056259426E+0002
 20
 8.10251610733881E+0002
 11
 3.73198997161071E+0002
 21
 8.10954067290094E+0002
  0
LINE
  8
0
 10
 3.73198997161071E+0002
 20
 8.10954067290094E+0002
 11
 3.71748181545674E+0002
 21
 8.11643135349365E+0002
  0
LINE
  8
0
 10
 3.71748181545674E+0002
 20
 8.11643135349365E+0002
 11
 3.70279854419301E+0002
 21
 8.12318663584418E+0002
  0
LINE
  8
0
 10
 3.70279854419301E+0002
 20
 8.12318663584418E+0002
 11
 3.68794260788018E+0002
 21
 8.12980500667978E+0002
  0
LINE
  8
0
 10
 3.68794260788018E+0002
 20
 8.12980500667978E+0002
 11
 3.67291645657890E+0002
 21
 8.13628495272769E+0002
  0
LINE
  8
0
 10
 3.67291645657890E+0002
 20
 8.13628495272769E+0002
 11
 3.65772254034984E+0002
 21
 8.14262496071514E+0002
  0
LINE
  8
0
 10
 3.65772254034984E+0002
 20
 8.14262496071514E+0002
 11
 3.64236330925365E+0002
 21
 8.14882351736937E+0002
  0
LINE
  8
0
 10
 3.64236330925365E+0002
 20
 8.14882351736937E+0002
 11
 3.62684121335099E+0002
 21
 8.15487910941764E+0002
  0
LINE
  8
0
 10
 3.62684121335099E+0002
 20
 8.15487910941764E+0002
 11
 3.61115870270252E+0002
 21
 8.16079022358716E+0002
  0
LINE
  8
0
 10
 3.61115870270252E+0002
 20
 8.16079022358716E+0002
 11
 3.59531822736889E+0002
 21
 8.16655534660520E+0002
  0
LINE
  8
0
 10
 3.59531822736889E+0002
 20
 8.16655534660520E+0002
 11
 3.57932223741078E+0002
 21
 8.17217296519898E+0002
  0
LINE
  8
0
 10
 3.57932223741078E+0002
 20
 8.17217296519898E+0002
 11
 3.56317318288883E+0002
 21
 8.17764156609575E+0002
  0
LINE
  8
0
 10
 3.56317318288883E+0002
 20
 8.17764156609575E+0002
 11
 3.54687351386370E+0002
 21
 8.18295963602274E+0002
  0
LINE
  8
0
 10
 3.54687351386370E+0002
 20
 8.18295963602274E+0002
 11
 3.53042568039606E+0002
 21
 8.18812566170721E+0002
  0
LINE
  8
0
 10
 3.53042568039606E+0002
 20
 8.18812566170721E+0002
 11
 3.51383213254656E+0002
 21
 8.19313812987638E+0002
  0
LINE
  8
0
 10
 3.51383213254656E+0002
 20
 8.19313812987638E+0002
 11
 3.49709532037586E+0002
 21
 8.19799552725750E+0002
  0
LINE
  8
0
 10
 3.49709532037586E+0002
 20
 8.19799552725750E+0002
 11
 3.48021769394462E+0002
 21
 8.20269634057780E+0002
  0
LINE
  8
0
 10
 3.48021769394462E+0002
 20
 8.20269634057780E+0002
 11
 3.46320170331349E+0002
 21
 8.20723905656454E+0002
  0
LINE
  8
0
 10
 3.46320170331349E+0002
 20
 8.20723905656454E+0002
 11
 3.44604979854314E+0002
 21
 8.21162216194495E+0002
  0
LINE
  8
0
 10
 3.44604979854314E+0002
 20
 8.21162216194495E+0002
 11
 3.42876442969423E+0002
 21
 8.21584414344626E+0002
  0
LINE
  8
0
 10
 3.42876442969423E+0002
 20
 8.21584414344626E+0002
 11
 3.41134804682741E+0002
 21
 8.21990348779572E+0002
  0
LINE
  8
0
 10
 3.41134804682741E+0002
 20
 8.21990348779572E+0002
 11
 3.39380310000334E+0002
 21
 8.22379868172058E+0002
  0
LINE
  8
0
 10
 3.39380310000334E+0002
 20
 8.22379868172058E+0002
 11
 3.37613203928268E+0002
 21
 8.22752821194806E+0002
  0
LINE
  8
0
 10
 3.37613203928268E+0002
 20
 8.22752821194806E+0002
 11
 3.35833731472609E+0002
 21
 8.23109056520541E+0002
  0
LINE
  8
0
 10
 3.35833731472609E+0002
 20
 8.23109056520541E+0002
 11
 3.34042137639423E+0002
 21
 8.23448422821988E+0002
  0
LINE
  8
0
 10
 3.34042137639423E+0002
 20
 8.23448422821988E+0002
 11
 3.32238667434775E+0002
 21
 8.23770768771869E+0002
  0
LINE
  8
0
 10
 3.32238667434775E+0002
 20
 8.23770768771869E+0002
 11
 3.30423565864732E+0002
 21
 8.24075943042910E+0002
  0
LINE
  8
0
 10
 3.30423565864732E+0002
 20
 8.24075943042910E+0002
 11
 3.28597077935360E+0002
 21
 8.24363794307833E+0002
  0
LINE
  8
0
 10
 3.28597077935360E+0002
 20
 8.24363794307833E+0002
 11
 3.26759448652723E+0002
 21
 8.24634171239364E+0002
  0
LINE
  8
0
 10
 3.26759448652723E+0002
 20
 8.24634171239364E+0002
 11
 3.24910923022889E+0002
 21
 8.24886922510226E+0002
  0
LINE
  8
0
 10
 3.24910923022889E+0002
 20
 8.24886922510226E+0002
 11
 3.23051746051923E+0002
 21
 8.25121896793143E+0002
  0
LINE
  8
0
 10
 3.23051746051923E+0002
 20
 8.25121896793143E+0002
 11
 3.21182162745890E+0002
 21
 8.25338942760839E+0002
  0
LINE
  8
0
 10
 3.21182162745890E+0002
 20
 8.25338942760839E+0002
 11
 3.19302418110857E+0002
 21
 8.25537909086039E+0002
  0
LINE
  8
0
 10
 3.19302418110857E+0002
 20
 8.25537909086039E+0002
 11
 3.17412757152890E+0002
 21
 8.25718644441466E+0002
  0
LINE
  8
0
 10
 3.17412757152890E+0002
 20
 8.25718644441466E+0002
 11
 3.15513424878054E+0002
 21
 8.25880997499844E+0002
  0
LINE
  8
0
 10
 3.15513424878054E+0002
 20
 8.25880997499844E+0002
 11
 3.13604666292415E+0002
 21
 8.26024816933898E+0002
  0
LINE
  8
0
 10
 3.13604666292415E+0002
 20
 8.26024816933898E+0002
 11
 3.11686726402039E+0002
 21
 8.26149951416351E+0002
  0
LINE
  8
0
 10
 3.11686726402039E+0002
 20
 8.26149951416351E+0002
 11
 3.09759850212993E+0002
 21
 8.26256249619927E+0002
  0
LINE
  8
0
 10
 3.09759850212993E+0002
 20
 8.26256249619927E+0002
 11
 3.07824282731341E+0002
 21
 8.26343560217351E+0002
  0
LINE
  8
0
 10
 3.07824282731341E+0002
 20
 8.26343560217351E+0002
 11
 3.05880268963150E+0002
 21
 8.26411731881346E+0002
  0
LINE
  8
0
 10
 3.05880268963150E+0002
 20
 8.26411731881346E+0002
 11
 3.03928053914486E+0002
 21
 8.26460613284636E+0002
  0
LINE
  8
0
 10
 3.03928053914486E+0002
 20
 8.26460613284636E+0002
 11
 3.01967882591414E+0002
 21
 8.26490053099946E+0002
  0
LINE
  8
0
 10
 3.01967882591414E+0002
 20
 8.26490053099946E+0002
 11
 3.00000000000000E+0002
 21
 8.26499900000000E+0002
  0
LINE
  8
0
 10
 3.00000000000000E+0002
 20
 8.26499900000000E+0002
 11
 3.00000000000000E+0002
 21
 8.26499900000000E+0002
  0
LINE
  8
0
 10
 3.00000000000000E+0002
 20
 8.26499900000000E+0002
 11
 2.98032117408586E+0002
 21
 8.26490053099946E+0002
  0
LINE
  8
0
 10
 2.98032117408586E+0002
 20
 8.26490053099946E+0002
 11
 2.96071946085514E+0002
 21
 8.26460613284636E+0002
  0
LINE
  8
0
 10
 2.96071946085514E+0002
 20
 8.26460613284636E+0002
 11
 2.94119731036850E+0002
 21
 8.26411731881346E+0002
  0
LINE
  8
0
 10
 2.94119731036850E+0002
 20
 8.26411731881346E+0002
 11
 2.92175717268659E+0002
 21
 8.26343560217351E+0002
  0
LINE
  8
0
 10
 2.92175717268659E+0002
 20
 8.26343560217351E+0002
 11
 2.90240149787007E+0002
 21
 8.26256249619927E+0002
  0
LINE
  8
0
 10
 2.90240149787007E+0002
 20
 8.26256249619927E+0002
 11
 2.88313273597961E+0002
 21
 8.26149951416351E+0002
  0
LINE
  8
0
 10
 2.88313273597961E+0002
 20
 8.26149951416351E+0002
 11
 2.86395333707585E+0002
 21
 8.26024816933898E+0002
  0
LINE
  8
0
 10
 2.86395333707585E+0002
 20
 8.26024816933898E+0002
 11
 2.84486575121946E+0002
 21
 8.25880997499844E+0002
  0
LINE
  8
0
 10
 2.84486575121946E+0002
 20
 8.25880997499844E+0002
 11
 2.82587242847110E+0002
 21
 8.25718644441466E+0002
  0
LINE
  8
0
 10
 2.82587242847110E+0002
 20
 8.25718644441466E+0002
 11
 2.80697581889143E+0002
 21
 8.25537909086039E+0002
  0
LINE
  8
0
 10
 2.80697581889143E+0002
 20
 8.25537909086039E+0002
 11
 2.78817837254110E+0002
 21
 8.25338942760839E+0002
  0
LINE
  8
0
 10
 2.78817837254110E+0002
 20
 8.25338942760839E+0002
 11
 2.76948253948077E+0002
 21
 8.25121896793143E+0002
  0
LINE
  8
0
 10
 2.76948253948077E+0002
 20
 8.25121896793143E+0002
 11
 2.75089076977111E+0002
 21
 8.24886922510226E+0002
  0
LINE
  8
0
 10
 2.75089076977111E+0002
 20
 8.24886922510226E+0002
 11
 2.73240551347277E+0002
 21
 8.24634171239364E+0002
  0
LINE
  8
0
 10
 2.73240551347277E+0002
 20
 8.24634171239364E+0002
 11
 2.71402922064640E+0002
 21
 8.24363794307833E+0002
  0
LINE
  8
0
 10
 2.71402922064640E+0002
 20
 8.24363794307833E+0002
 11
 2.69576434135268E+0002
 21
 8.24075943042910E+0002
  0
LINE
  8
0
 10
 2.69576434135268E+0002
 20
 8.24075943042910E+0002
 11
 2.67761332565225E+0002
 21
 8.23770768771869E+0002
  0
LINE
  8
0
 10
 2.67761332565225E+0002
 20
 8.23770768771869E+0002
 11
 2.65957862360577E+0002
 21
 8.23448422821988E+0002
  0
LINE
  8
0
 10
 2.65957862360577E+0002
 20
 8.23448422821988E+0002
 11
 2.64166268527391E+0002
 21
 8.23109056520541E+0002
  0
LINE
  8
0
 10
 2.64166268527391E+0002
 20
 8.23109056520541E+0002
 11
 2.62386796071732E+0002
 21
 8.22752821194806E+0002
  0
LINE
  8
0
 10
 2.62386796071732E+0002
 20
 8.22752821194806E+0002
 11
 2.60619689999666E+0002
 21
 8.22379868172058E+0002
  0
LINE
  8
0
 10
 2.60619689999666E+0002
 20
 8.22379868172058E+0002
 11
 2.58865195317259E+0002
 21
 8.21990348779572E+0002
  0
LINE
  8
0
 10
 2.58865195317259E+0002
 20
 8.21990348779572E+0002
 11
 2.57123557030577E+0002
 21
 8.21584414344626E+0002
  0
LINE
  8
0
 10
 2.57123557030577E+0002
 20
 8.21584414344626E+0002
 11
 2.55395020145686E+0002
 21
 8.21162216194495E+0002
  0
LINE
  8
0
 10
 2.55395020145686E+0002
 20
 8.21162216194495E+0002
 11
 2.53679829668651E+0002
 21
 8.20723905656454E+0002
  0
LINE
  8
0
 10
 2.53679829668651E+0002
 20
 8.20723905656454E+0002
 11
 2.51978230605538E+0002
 21
 8.20269634057780E+0002
  0
LINE
  8
0
 10
 2.51978230605538E+0002
 20
 8.20269634057780E+0002
 11
 2.50290467962414E+0002
 21
 8.19799552725750E+0002
  0
LINE
  8
0
 10
 2.50290467962414E+0002
 20
 8.19799552725750E+0002
 11
 2.48616786745344E+0002
 21
 8.19313812987638E+0002
  0
LINE
  8
0
 10
 2.48616786745344E+0002
 20
 8.19313812987638E+0002
 11
 2.46957431960394E+0002
 21
 8.18812566170721E+0002
  0
LINE
  8
0
 10
 2.46957431960394E+0002
 20
 8.18812566170721E+0002
 11
 2.45312648613630E+0002
 21
 8.18295963602274E+0002
  0
LINE
  8
0
 10
 2.45312648613630E+0002
 20
 8.18295963602274E+0002
 11
 2.43682681711117E+0002
 21
 8.17764156609575E+0002
  0
LINE
  8
0
 10
 2.43682681711117E+0002
 20
 8.17764156609575E+0002
 11
 2.42067776258922E+0002
 21
 8.17217296519898E+0002
  0
LINE
  8
0
 10
 2.42067776258922E+0002
 20
 8.17217296519898E+0002
 11
 2.40468177263111E+0002
 21
 8.16655534660520E+0002
  0
LINE
  8
0
 10
 2.40468177263111E+0002
 20
 8.16655534660520E+0002
 11
 2.38884129729748E+0002
 21
 8.16079022358716E+0002
  0
LINE
  8
0
 10
 2.38884129729748E+0002
 20
 8.16079022358716E+0002
 11
 2.37315878664901E+0002
 21
 8.15487910941764E+0002
  0
LINE
  8
0
 10
 2.37315878664901E+0002
 20
 8.15487910941764E+0002
 11
 2.35763669074635E+0002
 21
 8.14882351736937E+0002
  0
LINE
  8
0
 10
 2.35763669074635E+0002
 20
 8.14882351736937E+0002
 11
 2.34227745965016E+0002
 21
 8.14262496071514E+0002
  0
LINE
  8
0
 10
 2.34227745965016E+0002
 20
 8.14262496071514E+0002
 11
 2.32708354342110E+0002
 21
 8.13628495272769E+0002
  0
LINE
  8
0
 10
 2.32708354342110E+0002
 20
 8.13628495272769E+0002
 11
 2.31205739211982E+0002
 21
 8.12980500667978E+0002
  0
LINE
  8
0
 10
 2.31205739211982E+0002
 20
 8.12980500667978E+0002
 11
 2.29720145580699E+0002
 21
 8.12318663584418E+0002
  0
LINE
  8
0
 10
 2.29720145580699E+0002
 20
 8.12318663584418E+0002
 11
 2.28251818454326E+0002
 21
 8.11643135349365E+0002
  0
LINE
  8
0
 10
 2.28251818454326E+0002
 20
 8.11643135349365E+0002
 11
 2.26801002838929E+0002
 21
 8.10954067290094E+0002
  0
LINE
  8
0
 10
 2.26801002838929E+0002
 20
 8.10954067290094E+0002
 11
 2.25367943740574E+0002
 21
 8.10251610733881E+0002
  0
LINE
  8
0
 10
 2.25367943740574E+0002
 20
 8.10251610733881E+0002
 11
 2.23952886165327E+0002
 21
 8.09535917008003E+0002
  0
LINE
  8
0
 10
 2.23952886165327E+0002
 20
 8.09535917008003E+0002
 11
 2.22556075119254E+0002
 21
 8.08807137439735E+0002
  0
LINE
  8
0
 10
 2.22556075119254E+0002
 20
 8.08807137439735E+0002
 11
 2.21177755608421E+0002
 21
 8.08065423356354E+0002
  0
LINE
  8
0
 10
 2.21177755608421E+0002
 20
 8.08065423356354E+0002
 11
 2.19818172638893E+0002
 21
 8.07310926085135E+0002
  0
LINE
  8
0
 10
 2.19818172638893E+0002
 20
 8.07310926085135E+0002
 11
 2.18477571216736E+0002
 21
 8.06543796953354E+0002
  0
LINE
  8
0
 10
 2.18477571216736E+0002
 20
 8.06543796953354E+0002
 11
 2.17156196348017E+0002
 21
 8.05764187288287E+0002
  0
LINE
  8
0
 10
 2.17156196348017E+0002
 20
 8.05764187288287E+0002
 11
 2.15854293038801E+0002
 21
 8.04972248417211E+0002
  0
LINE
  8
0
 10
 2.15854293038801E+0002
 20
 8.04972248417211E+0002
 11
 2.14572106295154E+0002
 21
 8.04168131667401E+0002
  0
LINE
  8
0
 10
 2.14572106295154E+0002
 20
 8.04168131667401E+0002
 11
 2.13309881123141E+0002
 21
 8.03351988366133E+0002
  0
LINE
  8
0
 10
 2.13309881123141E+0002
 20
 8.03351988366133E+0002
 11
 2.12067862528829E+0002
 21
 8.02523969840684E+0002
  0
LINE
  8
0
 10
 2.12067862528829E+0002
 20
 8.02523969840684E+0002
 11
 2.10846295518284E+0002
 21
 8.01684227418328E+0002
  0
LINE
  8
0
 10
 2.10846295518284E+0002
 20
 8.01684227418328E+0002
 11
 2.09645425097572E+0002
 21
 8.00832912426343E+0002
  0
LINE
  8
0
 10
 2.09645425097572E+0002
 20
 8.00832912426343E+0002
 11
 2.08465496272757E+0002
 21
 7.99970176192004E+0002
  0
LINE
  8
0
 10
 2.08465496272757E+0002
 20
 7.99970176192004E+0002
 11
 2.07306754049907E+0002
 21
 7.99096170042587E+0002
  0
LINE
  8
0
 10
 2.07306754049907E+0002
 20
 7.99096170042587E+0002
 11
 2.06169443435086E+0002
 21
 7.98211045305367E+0002
  0
LINE
  8
0
 10
 2.06169443435086E+0002
 20
 7.98211045305367E+0002
 11
 2.05053809434362E+0002
 21
 7.97314953307622E+0002
  0
LINE
  8
0
 10
 2.05053809434362E+0002
 20
 7.97314953307622E+0002
 11
 2.03960097053799E+0002
 21
 7.96408045376627E+0002
  0
LINE
  8
0
 10
 2.03960097053799E+0002
 20
 7.96408045376627E+0002
 11
 2.02888551299464E+0002
 21
 7.95490472839658E+0002
  0
LINE
  8
0
 10
 2.02888551299464E+0002
 20
 7.95490472839658E+0002
 11
 2.01839417177422E+0002
 21
 7.94562387023991E+0002
  0
LINE
  8
0
 10
 2.01839417177422E+0002
 20
 7.94562387023991E+0002
 11
 2.00812939693740E+0002
 21
 7.93623939256902E+0002
  0
LINE
  8
0
 10
 2.00812939693740E+0002
 20
 7.93623939256902E+0002
 11
 1.99809363854482E+0002
 21
 7.92675280865666E+0002
  0
LINE
  8
0
 10
 1.99809363854482E+0002
 20
 7.92675280865666E+0002
 11
 1.98828934665716E+0002
 21
 7.91716563177561E+0002
  0
LINE
  8
0
 10
 1.98828934665716E+0002
 20
 7.91716563177561E+0002
 11
 1.97871897133507E+0002
 21
 7.90747937519861E+0002
  0
LINE
  8
0
 10
 1.97871897133507E+0002
 20
 7.90747937519861E+0002
 11
 1.96938496263920E+0002
 21
 7.89769555219843E+0002
  0
LINE
  8
0
 10
 1.96938496263920E+0002
 20
 7.89769555219843E+0002
 11
 1.96028977063022E+0002
 21
 7.88781567604783E+0002
  0
LINE
  8
0
 10
 1.96028977063022E+0002
 20
 7.88781567604783E+0002
 11
 1.95143584536879E+0002
 21
 7.87784126001957E+0002
  0
LINE
  8
0
 10
 1.95143584536879E+0002
 20
 7.87784126001957E+0002
 11
 1.94282563691556E+0002
 21
 7.86777381738640E+0002
  0
LINE
  8
0
 10
 1.94282563691556E+0002
 20
 7.86777381738640E+0002
 11
 1.93446159533119E+0002
 21
 7.85761486142110E+0002
  0
LINE
  8
0
 10
 1.93446159533119E+0002
 20
 7.85761486142110E+0002
 11
 1.92634617067634E+0002
 21
 7.84736590539640E+0002
  0
LINE
  8
0
 10
 1.92634617067634E+0002
 20
 7.84736590539640E+0002
 11
 1.91848181301167E+0002
 21
 7.83702846258509E+0002
  0
LINE
  8
0
 10
 1.91848181301167E+0002
 20
 7.83702846258509E+0002
 11
 1.91087097239784E+0002
 21
 7.82660404625991E+0002
  0
LINE
  8
0
 10
 1.91087097239784E+0002
 20
 7.82660404625991E+0002
 11
 1.90351609889550E+0002
 21
 7.81609416969363E+0002
  0
LINE
  8
0
 10
 1.90351609889550E+0002
 20
 7.81609416969363E+0002
 11
 1.89641964256532E+0002
 21
 7.80550034615900E+0002
  0
LINE
  8
0
 10
 1.89641964256532E+0002
 20
 7.80550034615900E+0002
 11
 1.88958405346796E+0002
 21
 7.79482408892879E+0002
  0
LINE
  8
0
 10
 1.88958405346796E+0002
 20
 7.79482408892879E+0002
 11
 1.88301178166406E+0002
 21
 7.78406691127575E+0002
  0
LINE
  8
0
 10
 1.88301178166406E+0002
 20
 7.78406691127575E+0002
 11
 1.87670527721430E+0002
 21
 7.77323032647265E+0002
  0
LINE
  8
0
 10
 1.87670527721430E+0002
 20
 7.77323032647265E+0002
 11
 1.87066699017933E+0002
 21
 7.76231584779224E+0002
  0
LINE
  8
0
 10
 1.87066699017933E+0002
 20
 7.76231584779224E+0002
 11
 1.86489937061981E+0002
 21
 7.75132498850729E+0002
  0
LINE
  8
0
 10
 1.86489937061981E+0002
 20
 7.75132498850729E+0002
 11
 1.85940486859639E+0002
 21
 7.74025926189055E+0002
  0
LINE
  8
0
 10
 1.85940486859639E+0002
 20
 7.74025926189055E+0002
 11
 1.85418593416974E+0002
 21
 7.72912018121479E+0002
  0
LINE
  8
0
 10
 1.85418593416974E+0002
 20
 7.72912018121479E+0002
 11
 1.84924501740051E+0002
 21
 7.71790925975276E+0002
  0
LINE
  8
0
 10
 1.84924501740051E+0002
 20
 7.71790925975276E+0002
 11
 1.84458456834937E+0002
 21
 7.70662801077722E+0002
  0
LINE
  8
0
 10
 1.84458456834937E+0002
 20
 7.70662801077722E+0002
 11
 1.84020703707696E+0002
 21
 7.69527794756094E+0002
  0
LINE
  8
0
 10
 1.84020703707696E+0002
 20
 7.69527794756094E+0002
 11
 1.83611487364396E+0002
 21
 7.68386058337667E+0002
  0
LINE
  8
0
 10
 1.83611487364396E+0002
 20
 7.68386058337667E+0002
 11
 1.83231052811101E+0002
 21
 7.67237743149717E+0002
  0
LINE
  8
0
 10
 1.83231052811101E+0002
 20
 7.67237743149717E+0002
 11
 1.82879645053879E+0002
 21
 7.66083000519520E+0002
  0
LINE
  8
0
 10
 1.82879645053879E+0002
 20
 7.66083000519520E+0002
 11
 1.82557509098794E+0002
 21
 7.64921981774353E+0002
  0
LINE
  8
0
 10
 1.82557509098794E+0002
 20
 7.64921981774353E+0002
 11
 1.82264889951912E+0002
 21
 7.63754838241491E+0002
  0
LINE
  8
0
 10
 1.82264889951912E+0002
 20
 7.63754838241491E+0002
 11
 1.82002032619300E+0002
 21
 7.62581721248210E+0002
  0
LINE
  8
0
 10
 1.82002032619300E+0002
 20
 7.62581721248210E+0002
 11
 1.81769182107023E+0002
 21
 7.61402782121786E+0002
  0
LINE
  8
0
 10
 1.81769182107023E+0002
 20
 7.61402782121786E+0002
 11
 1.81566583421146E+0002
 21
 7.60218172189495E+0002
  0
LINE
  8
0
 10
 1.81566583421146E+0002
 20
 7.60218172189495E+0002
 11
 1.81394481567737E+0002
 21
 7.59028042778613E+0002
  0
LINE
  8
0
 10
 1.81394481567737E+0002
 20
 7.59028042778613E+0002
 11
 1.81253121552861E+0002
 21
 7.57832545216417E+0002
  0
LINE
  8
0
 10
 1.81253121552861E+0002
 20
 7.57832545216417E+0002
 11
 1.81142748382583E+0002
 21
 7.56631830830181E+0002
  0
LINE
  8
0
 10
 1.81142748382583E+0002
 20
 7.56631830830181E+0002
 11
 1.81063607062970E+0002
 21
 7.55426050947182E+0002
  0
LINE
  8
0
 10
 1.81063607062970E+0002
 20
 7.55426050947182E+0002
 11
 1.81015942600087E+0002
 21
 7.54215356894697E+0002
  0
LINE
  8
0
 10
 1.81015942600087E+0002
 20
 7.54215356894697E+0002
 11
 1.81000000000000E+0002
 21
 7.52999900000000E+0002
  0
LINE
  8
0
 10
 1.81000000000000E+0002
 20
 7.52999900000000E+0002
 11
 1.81000000000000E+0002
 21
 7.52999900000000E+0002
  0
LINE
  8
0
 10
 1.81000000000000E+0002
 20
 7.52999900000000E+0002
 11
 1.81015942600087E+0002
 21
 7.51784443105303E+0002
  0
LINE
  8
0
 10
 1.81015942600087E+0002
 20
 7.51784443105303E+0002
 11
 1.81063607062970E+0002
 21
 7.50573749052818E+0002
  0
LINE
  8
0
 10
 1.81063607062970E+0002
 20
 7.50573749052818E+0002
 11
 1.81142748382583E+0002
 21
 7.49367969169819E+0002
  0
LINE
  8
0
 10
 1.81142748382583E+0002
 20
 7.49367969169819E+0002
 11
 1.81253121552861E+0002
 21
 7.48167254783583E+0002
  0
LINE
  8
0
 10
 1.81253121552861E+0002
 20
 7.48167254783583E+0002
 11
 1.81394481567737E+0002
 21
 7.46971757221387E+0002
  0
LINE
  8
0
 10
 1.81394481567737E+0002
 20
 7.46971757221387E+0002
 11
 1.81566583421146E+0002
 21
 7.45781627810505E+0002
  0
LINE
  8
0
 10
 1.81566583421146E+0002
 20
 7.45781627810505E+0002
 11
 1.81769182107023E+0002
 21
 7.44597017878214E+0002
  0
LINE
  8
0
 10
 1.81769182107023E+0002
 20
 7.44597017878214E+0002
 11
 1.82002032619300E+0002
 21
 7.43418078751790E+0002
  0
LINE
  8
0
 10
 1.82002032619300E+0002
 20
 7.43418078751790E+0002
 11
 1.82264889951912E+0002
 21
 7.42244961758509E+0002
  0
LINE
  8
0
 10
 1.82264889951912E+0002
 20
 7.42244961758509E+0002
 11
 1.82557509098794E+0002
 21
 7.41077818225647E+0002
  0
LINE
  8
0
 10
 1.82557509098794E+0002
 20
 7.41077818225647E+0002
 11
 1.82879645053879E+0002
 21
 7.39916799480480E+0002
  0
LINE
  8
0
 10
 1.82879645053879E+0002
 20
 7.39916799480480E+0002
 11
 1.83231052811101E+0002
 21
 7.38762056850283E+0002
  0
LINE
  8
0
 10
 1.83231052811101E+0002
 20
 7.38762056850283E+0002
 11
 1.83611487364396E+0002
 21
 7.37613741662333E+0002
  0
LINE
  8
0
 10
 1.83611487364396E+0002
 20
 7.37613741662333E+0002
 11
 1.84020703707696E+0002
 21
 7.36472005243906E+0002
  0
LINE
  8
0
 10
 1.84020703707696E+0002
 20
 7.36472005243906E+0002
 11
 1.84458456834937E+0002
 21
 7.35336998922278E+0002
  0
LINE
  8
0
 10
 1.84458456834937E+0002
 20
 7.35336998922278E+0002
 11
 1.84924501740051E+0002
 21
 7.34208874024724E+0002
  0
LINE
  8
0
 10
 1.84924501740051E+0002
 20
 7.34208874024724E+0002
 11
 1.85418593416974E+0002
 21
 7.33087781878521E+0002
  0
LINE
  8
0
 10
 1.85418593416974E+0002
 20
 7.33087781878521E+0002
 11
 1.85940486859639E+0002
 21
 7.31973873810945E+0002
  0
LINE
  8
0
 10
 1.85940486859639E+0002
 20
 7.31973873810945E+0002
 11
 1.86489937061981E+0002
 21
 7.30867301149271E+0002
  0
LINE
  8
0
 10
 1.86489937061981E+0002
 20
 7.30867301149271E+0002
 11
 1.87066699017933E+0002
 21
 7.29768215220776E+0002
  0
LINE
  8
0
 10
 1.87066699017933E+0002
 20
 7.29768215220776E+0002
 11
 1.87670527721430E+0002
 21
 7.28676767352735E+0002
  0
LINE
  8
0
 10
 1.87670527721430E+0002
 20
 7.28676767352735E+0002
 11
 1.88301178166406E+0002
 21
 7.27593108872425E+0002
  0
LINE
  8
0
 10
 1.88301178166406E+0002
 20
 7.27593108872425E+0002
 11
 1.88958405346796E+0002
 21
 7.26517391107121E+0002
  0
LINE
  8
0
 10
 1.88958405346796E+0002
 20
 7.26517391107121E+0002
 11
 1.89641964256532E+0002
 21
 7.25449765384100E+0002
  0
LINE
  8
0
 10
 1.89641964256532E+0002
 20
 7.25449765384100E+0002
 11
 1.90351609889550E+0002
 21
 7.24390383030637E+0002
  0
LINE
  8
0
 10
 1.90351609889550E+0002
 20
 7.24390383030637E+0002
 11
 1.91087097239784E+0002
 21
 7.23339395374009E+0002
  0
LINE
  8
0
 10
 1.91087097239784E+0002
 20
 7.23339395374009E+0002
 11
 1.91848181301167E+0002
 21
 7.22296953741491E+0002
  0
LINE
  8
0
 10
 1.91848181301167E+0002
 20
 7.22296953741491E+0002
 11
 1.92634617067634E+0002
 21
 7.21263209460360E+0002
  0
LINE
  8
0
 10
 1.92634617067634E+0002
 20
 7.21263209460360E+0002
 11
 1.93446159533119E+0002
 21
 7.20238313857890E+0002
  0
LINE
  8
0
 10
 1.93446159533119E+0002
 20
 7.20238313857890E+0002
 11
 1.94282563691556E+0002
 21
 7.19222418261360E+0002
  0
LINE
  8
0
 10
 1.94282563691556E+0002
 20
 7.19222418261360E+0002
 11
 1.95143584536879E+0002
 21
 7.18215673998043E+0002
  0
LINE
  8
0
 10
 1.95143584536879E+0002
 20
 7.18215673998043E+0002
 11
 1.96028977063022E+0002
 21
 7.17218232395217E+0002
  0
LINE
  8
0
 10
 1.96028977063022E+0002
 20
 7.17218232395217E+0002
 11
 1.96938496263920E+0002
 21
 7.16230244780156E+0002
  0
LINE
  8
0
 10
 1.96938496263920E+0002
 20
 7.16230244780156E+0002
 11
 1.97871897133507E+0002
 21
 7.15251862480139E+0002
  0
LINE
  8
0
 10
 1.97871897133507E+0002
 20
 7.15251862480139E+0002
 11
 1.98828934665716E+0002
 21
 7.14283236822439E+0002
  0
LINE
  8
0
 10
 1.98828934665716E+0002
 20
 7.14283236822439E+0002
 11
 1.99809363854482E+0002
 21
 7.13324519134334E+0002
  0
LINE
  8
0
 10
 1.99809363854482E+0002
 20
 7.13324519134334E+0002
 11
 2.00812939693740E+0002
 21
 7.12375860743098E+0002
  0
LINE
  8
0
 10
 2.00812939693740E+0002
 20
 7.12375860743098E+0002
 11
 2.01839417177422E+0002
 21
 7.11437412976009E+0002
  0
LINE
  8
0
 10
 2.01839417177422E+0002
 20
 7.11437412976009E+0002
 11
 2.02888551299464E+0002
 21
 7.10509327160342E+0002
  0
LINE
  8
0
 10
 2.02888551299464E+0002
 20
 7.10509327160342E+0002
 11
 2.03960097053799E+0002
 21
 7.09591754623373E+0002
  0
LINE
  8
0
 10
 2.03960097053799E+0002
 20
 7.09591754623373E+0002
 11
 2.05053809434362E+0002
 21
 7.08684846692378E+0002
  0
LINE
  8
0
 10
 2.05053809434362E+0002
 20
 7.08684846692378E+0002
 11
 2.06169443435086E+0002
 21
 7.07788754694632E+0002
  0
LINE
  8
0
 10
 2.06169443435086E+0002
 20
 7.07788754694632E+0002
 11
 2.07306754049907E+0002
 21
 7.06903629957413E+0002
  0
LINE
  8
0
 10
 2.07306754049907E+0002
 20
 7.06903629957413E+0002
 11
 2.08465496272757E+0002
 21
 7.06029623807996E+0002
  0
LINE
  8
0
 10
 2.08465496272757E+0002
 20
 7.06029623807996E+0002
 11
 2.09645425097572E+0002
 21
 7.05166887573657E+0002
  0
LINE
  8
0
 10
 2.09645425097572E+0002
 20
 7.05166887573657E+0002
 11
 2.10846295518284E+0002
 21
 7.04315572581672E+0002
  0
LINE
  8
0
 10
 2.10846295518284E+0002
 20
 7.04315572581672E+0002
 11
 2.12067862528829E+0002
 21
 7.03475830159316E+0002
  0
LINE
  8
0
 10
 2.12067862528829E+0002
 20
 7.03475830159316E+0002
 11
 2.13309881123141E+0002
 21
 7.02647811633866E+0002
  0
LINE
  8
0
 10
 2.13309881123141E+0002
 20
 7.02647811633866E+0002
 11
 2.14572106295154E+0002
 21
 7.01831668332599E+0002
  0
LINE
  8
0
 10
 2.14572106295154E+0002
 20
 7.01831668332599E+0002
 11
 2.15854293038801E+0002
 21
 7.01027551582789E+0002
  0
LINE
  8
0
 10
 2.15854293038801E+0002
 20
 7.01027551582789E+0002
 11
 2.17156196348017E+0002
 21
 7.00235612711713E+0002
  0
LINE
  8
0
 10
 2.17156196348017E+0002
 20
 7.00235612711713E+0002
 11
 2.18477571216736E+0002
 21
 6.99456003046646E+0002
  0
LINE
  8
0
 10
 2.18477571216736E+0002
 20
 6.99456003046646E+0002
 11
 2.19818172638893E+0002
 21
 6.98688873914865E+0002
  0
LINE
  8
0
 10
 2.19818172638893E+0002
 20
 6.98688873914865E+0002
 11
 2.21177755608421E+0002
 21
 6.97934376643646E+0002
  0
LINE
  8
0
 10
 2.21177755608421E+0002
 20
 6.97934376643646E+0002
 11
 2.22556075119254E+0002
 21
 6.97192662560265E+0002
  0
LINE
  8
0
 10
 2.22556075119254E+0002
 20
 6.97192662560265E+0002
 11
 2.23952886165327E+0002
 21
 6.96463882991997E+0002
  0
LINE
  8
0
 10
 2.23952886165327E+0002
 20
 6.96463882991997E+0002
 11
 2.25367943740574E+0002
 21
 6.95748189266119E+0002
  0
LINE
  8
0
 10
 2.25367943740574E+0002
 20
 6.95748189266119E+0002
 11
 2.26801002838929E+0002
 21
 6.95045732709906E+0002
  0
LINE
  8
0
 10
 2.26801002838929E+0002
 20
 6.95045732709906E+0002
 11
 2.28251818454326E+0002
 21
 6.94356664650635E+0002
  0
LINE
  8
0
 10
 2.28251818454326E+0002
 20
 6.94356664650635E+0002
 11
 2.29720145580699E+0002
 21
 6.93681136415582E+0002
  0
LINE
  8
0
 10
 2.29720145580699E+0002
 20
 6.93681136415582E+0002
 11
 2.31205739211982E+0002
 21
 6.93019299332022E+0002
  0
LINE
  8
0
 10
 2.31205739211982E+0002
 20
 6.93019299332022E+0002
 11
 2.32708354342110E+0002
 21
 6.92371304727231E+0002
  0
LINE
  8
0
 10
 2.32708354342110E+0002
 20
 6.92371304727231E+0002
 11
 2.34227745965016E+0002
 21
 6.91737303928486E+0002
  0
LINE
  8
0
 10
 2.34227745965016E+0002
 20
 6.91737303928486E+0002
 11
 2.35763669074635E+0002
 21
 6.91117448263063E+0002
  0
LINE
  8
0
 10
 2.35763669074635E+0002
 20
 6.91117448263063E+0002
 11
 2.37315878664901E+0002
 21
 6.90511889058236E+0002
  0
LINE
  8
0
 10
 2.37315878664901E+0002
 20
 6.90511889058236E+0002
 11
 2.38884129729748E+0002
 21
 6.89920777641284E+0002
  0
LINE
  8
0
 10
 2.38884129729748E+0002
 20
 6.89920777641284E+0002
 11
 2.40468177263111E+0002
 21
 6.89344265339480E+0002
  0
LINE
  8
0
 10
 2.40468177263111E+0002
 20
 6.89344265339480E+0002
 11
 2.42067776258922E+0002
 21
 6.88782503480102E+0002
  0
LINE
  8
0
 10
 2.42067776258922E+0002
 20
 6.88782503480102E+0002
 11
 2.43682681711117E+0002
 21
 6.88235643390425E+0002
  0
LINE
  8
0
 10
 2.43682681711117E+0002
 20
 6.88235643390425E+0002
 11
 2.45312648613630E+0002
 21
 6.87703836397725E+0002
  0
LINE
  8
0
 10
 2.45312648613630E+0002
 20
 6.87703836397725E+0002
 11
 2.46957431960394E+0002
 21
 6.87187233829279E+0002
  0
LINE
  8
0
 10
 2.46957431960394E+0002
 20
 6.87187233829279E+0002
 11
 2.48616786745344E+0002
 21
 6.86685987012362E+0002
  0
LINE
  8
0
 10
 2.48616786745344E+0002
 20
 6.86685987012362E+0002
 11
 2.50290467962414E+0002
 21
 6.86200247274250E+0002
  0
LINE
  8
0
 10
 2.50290467962414E+0002
 20
 6.86200247274250E+0002
 11
 2.51978230605538E+0002
 21
 6.85730165942219E+0002
  0
LINE
  8
0
 10
 2.51978230605538E+0002
 20
 6.85730165942219E+0002
 11
 2.53679829668651E+0002
 21
 6.85275894343546E+0002
  0
LINE
  8
0
 10
 2.53679829668651E+0002
 20
 6.85275894343546E+0002
 11
 2.55395020145686E+0002
 21
 6.84837583805505E+0002
  0
LINE
  8
0
 10
 2.55395020145686E+0002
 20
 6.84837583805505E+0002
 11
 2.57123557030577E+0002
 21
 6.84415385655374E+0002
  0
LINE
  8
0
 10
 2.57123557030577E+0002
 20
 6.84415385655374E+0002
 11
 2.58865195317259E+0002
 21
 6.84009451220428E+0002
  0
LINE
  8
0
 10
 2.58865195317259E+0002
 20
 6.84009451220428E+0002
 11
 2.60619689999666E+0002
 21
 6.83619931827942E+0002
  0
LINE
  8
0
 10
 2.60619689999666E+0002
 20
 6.83619931827942E+0002
 11
 2.62386796071732E+0002
 21
 6.83246978805194E+0002
  0
LINE
  8
0
 10
 2.62386796071732E+0002
 20
 6.83246978805194E+0002
 11
 2.64166268527391E+0002
 21
 6.82890743479459E+0002
  0
LINE
  8
0
 10
 2.64166268527391E+0002
 20
 6.82890743479459E+0002
 11
 2.65957862360577E+0002
 21
 6.82551377178012E+0002
  0
LINE
  8
0
 10
 2.65957862360577E+0002
 20
 6.82551377178012E+0002
 11
 2.67761332565225E+0002
 21
 6.82229031228131E+0002
  0
LINE
  8
0
 10
 2.67761332565225E+0002
 20
 6.82229031228131E+0002
 11
 2.69576434135268E+0002
 21
 6.81923856957090E+0002
  0
LINE
  8
0
 10
 2.69576434135268E+0002
 20
 6.81923856957090E+0002
 11
 2.71402922064640E+0002
 21
 6.81636005692167E+0002
  0
LINE
  8
0
 10
 2.71402922064640E+0002
 20
 6.81636005692167E+0002
 11
 2.73240551347277E+0002
 21
 6.81365628760636E+0002
  0
LINE
  8
0
 10
 2.73240551347277E+0002
 20
 6.81365628760636E+0002
 11
 2.75089076977111E+0002
 21
 6.81112877489774E+0002
  0
LINE
  8
0
 10
 2.75089076977111E+0002
 20
 6.81112877489774E+0002
 11
 2.76948253948077E+0002
 21
 6.80877903206857E+0002
  0
LINE
  8
0
 10
 2.76948253948077E+0002
 20
 6.80877903206857E+0002
 11
 2.78817837254110E+0002
 21
 6.80660857239160E+0002
  0
LINE
  8
0
 10
 2.78817837254110E+0002
 20
 6.80660857239160E+0002
 11
 2.80697581889143E+0002
 21
 6.80461890913961E+0002
  0
LINE
  8
0
 10
 2.80697581889143E+0002
 20
 6.80461890913961E+0002
 11
 2.82587242847110E+0002
 21
 6.80281155558534E+0002
  0
LINE
  8
0
 10
 2.82587242847110E+0002
 20
 6.80281155558534E+0002
 11
 2.84486575121946E+0002
 21
 6.80118802500156E+0002
  0
LINE
  8
0
 10
 2.84486575121946E+0002
 20
 6.80118802500156E+0002
 11
 2.86395333707585E+0002
 21
 6.79974983066102E+0002
  0
LINE
  8
0
 10
 2.86395333707585E+0002
 20
 6.79974983066102E+0002
 11
 2.88313273597961E+0002
 21
 6.79849848583649E+0002
  0
LINE
  8
0
 10
 2.88313273597961E+0002
 20
 6.79849848583649E+0002
 11
 2.90240149787007E+0002
 21
 6.79743550380073E+0002
  0
LINE
  8
0
 10
 2.90240149787007E+0002
 20
 6.79743550380073E+0002
 11
 2.92175717268659E+0002
 21
 6.79656239782649E+0002
  0
LINE
  8
0
 10
 2.92175717268659E+0002
 20
 6.79656239782649E+0002
 11
 2.94119731036850E+0002
 21
 6.79588068118654E+0002
  0
LINE
  8
0
 10
 2.94119731036850E+0002
 20
 6.79588068118654E+0002
 11
 2.96071946085514E+0002
 21
 6.79539186715364E+0002
  0
LINE
  8
0
 10
 2.96071946085514E+0002
 20
 6.79539186715364E+0002
 11
 2.98032117408586E+0002
 21
 6.79509746900054E+0002
  0
LINE
  8
0
 10
 2.98032117408586E+0002
 20
 6.79509746900054E+0002
 11
 3.00000000000000E+0002
 21
 6.79499900000000E+0002
  0
LINE
  8
0
 10
 3.00000000000000E+0002
 20
 6.79499900000000E+0002
 11
 3.00000000000000E+0002
 21
 6.79499900000000E+0002
  0
LINE
  8
0
 10
 3.00000000000000E+0002
 20
 6.79499900000000E+0002
 11
 3.01967882591414E+0002
 21
 6.79509746900054E+0002
  0
LINE
  8
0
 10
 3.01967882591414E+0002
 20
 6.79509746900054E+0002
 11
 3.03928053914486E+0002
 21
 6.79539186715364E+0002
  0
LINE
  8
0
 10
 3.03928053914486E+0002
 20
 6.79539186715364E+0002
 11
 3.05880268963150E+0002
 21
 6.79588068118654E+0002
  0
LINE
  8
0
 10
 3.05880268963150E+0002
 20
 6.79588068118654E+0002
 11
 3.07824282731341E+0002
 21
 6.79656239782649E+0002
  0
LINE
  8
0
 10
 3.07824282731341E+0002
 20
 6.79656239782649E+0002
 11
 3.09759850212993E+0002
 21
 6.79743550380073E+0002
  0
LINE
  8
0
 10
 3.09759850212993E+0002
 20
 6.79743550380073E+0002
 11
 3.11686726402039E+0002
 21
 6.79849848583649E+0002
  0
LINE
  8
0
 10
 3.11686726402039E+0002
 20
 6.79849848583649E+0002
 11
 3.13604666292415E+0002
 21
 6.79974983066102E+0002
  0
LINE
  8
0
 10
 3.13604666292415E+0002
 20
 6.79974983066102E+0002
 11
 3.15513424878054E+0002
 21
 6.80118802500156E+0002
  0
LINE
  8
0
 10
 3.15513424878054E+0002
 20
 6.80118802500156E+0002
 11
 3.17412757152890E+0002
 21
 6.80281155558534E+0002
  0
LINE
  8
0
 10
 3.17412757152890E+0002
 20
 6.80281155558534E+0002
 11
 3.19302418110857E+0002
 21
 6.80461890913961E+0002
  0
LINE
  8
0
 10
 3.19302418110857E+0002
 20
 6.80461890913961E+0002
 11
 3.21182162745890E+0002
 21
 6.80660857239160E+0002
  0
LINE
  8
0
 10
 3.21182162745890E+0002
 20
 6.80660857239160E+0002
 11
 3.23051746051922E+0002
 21
 6.80877903206857E+0002
  0
LINE
  8
0
 10
 3.23051746051922E+0002
 20
 6.80877903206857E+0002
 11
 3.24910923022889E+0002
 21
 6.81112877489774E+0002
  0
LINE
  8
0
 10
 3.24910923022889E+0002
 20
 6.81112877489774E+0002
 11
 3.26759448652723E+0002
 21
 6.81365628760636E+0002
  0
LINE
  8
0
 10
 3.26759448652723E+0002
 20
 6.81365628760636E+0002
 11
 3.28597077935360E+0002
 21
 6.81636005692167E+0002
  0
LINE
  8
0
 10
 3.28597077935360E+0002
 20
 6.81636005692167E+0002
 11
 3.30423565864732E+0002
 21
 6.81923856957090E+0002
  0
LINE
  8
0
 10
 3.30423565864732E+0002
 20
 6.81923856957090E+0002
 11
 3.32238667434775E+0002
 21
 6.82229031228131E+0002
  0
LINE
  8
0
 10
 3.32238667434775E+0002
 20
 6.82229031228131E+0002
 11
 3.34042137639423E+0002
 21
 6.82551377178012E+0002
  0
LINE
  8
0
 10
 3.34042137639423E+0002
 20
 6.82551377178012E+0002
 11
 3.35833731472609E+0002
 21
 6.82890743479459E+0002
  0
LINE
  8
0
 10
 3.35833731472609E+0002
 20
 6.82890743479459E+0002
 11
 3.37613203928268E+0002
 21
 6.83246978805194E+0002
  0
LINE
  8
0
 10
 3.37613203928268E+0002
 20
 6.83246978805194E+0002
 11
 3.39380310000334E+0002
 21
 6.83619931827942E+0002
  0
LINE
  8
0
 10
 3.39380310000334E+0002
 20
 6.83619931827942E+0002
 11
 3.41134804682741E+0002
 21
 6.84009451220428E+0002
  0
LINE
  8
0
 10
 3.41134804682741E+0002
 20
 6.84009451220428E+0002
 11
 3.42876442969423E+0002
 21
 6.84415385655374E+0002
  0
LINE
  8
0
 10
 3.42876442969423E+0002
 20
 6.84415385655374E+0002
 11
 3.44604979854314E+0002
 21
 6.84837583805505E+0002
  0
LINE
  8
0
 10
 3.44604979854314E+0002
 20
 6.84837583805505E+0002
 11
 3.46320170331349E+0002
 21
 6.85275894343546E+0002
  0
LINE
  8
0
 10
 3.46320170331349E+0002
 20
 6.85275894343546E+0002
 11
 3.48021769394462E+0002
 21
 6.85730165942219E+0002
  0
LINE
  8
0
 10
 3.48021769394462E+0002
 20
 6.85730165942219E+0002
 11
 3.49709532037586E+0002
 21
 6.86200247274250E+0002
  0
LINE
  8
0
 10
 3.49709532037586E+0002
 20
 6.86200247274250E+0002
 11
 3.51383213254656E+0002
 21
 6.86685987012362E+0002
  0
LINE
  8
0
 10
 3.51383213254656E+0002
 20
 6.86685987012362E+0002
 11
 3.53042568039606E+0002
 21
 6.87187233829279E+0002
  0
LINE
  8
0
 10
 3.53042568039606E+0002
 20
 6.87187233829279E+0002
 11
 3.54687351386370E+0002
 21
 6.87703836397725E+0002
  0
LINE
  8
0
 10
 3.54687351386370E+0002
 20
 6.87703836397725E+0002
 11
 3.56317318288883E+0002
 21
 6.88235643390425E+0002
  0
LINE
  8
0
 10
 3.56317318288883E+0002
 20
 6.88235643390425E+0002
 11
 3.57932223741078E+0002
 21
 6.88782503480102E+0002
  0
LINE
  8
0
 10
 3.57932223741078E+0002
 20
 6.88782503480102E+0002
 11
 3.59531822736889E+0002
 21
 6.89344265339480E+0002
  0
LINE
  8
0
 10
 3.59531822736889E+0002
 20
 6.89344265339480E+0002
 11
 3.61115870270252E+0002
 21
 6.89920777641284E+0002
  0
LINE
  8
0
 10
 3.61115870270252E+0002
 20
 6.89920777641284E+0002
 11
 3.62684121335099E+0002
 21
 6.90511889058236E+0002
  0
LINE
  8
0
 10
 3.62684121335099E+0002
 20
 6.90511889058236E+0002
 11
 3.64236330925365E+0002
 21
 6.91117448263063E+0002
  0
LINE
  8
0
 10
 3.64236330925365E+0002
 20
 6.91117448263063E+0002
 11
 3.65772254034984E+0002
 21
 6.91737303928486E+0002
  0
LINE
  8
0
 10
 3.65772254034984E+0002
 20
 6.91737303928486E+0002
 11
 3.67291645657890E+0002
 21
 6.92371304727231E+0002
  0
LINE
  8
0
 10
 3.67291645657890E+0002
 20
 6.92371304727231E+0002
 11
 3.68794260788018E+0002
 21
 6.93019299332022E+0002
  0
LINE
  8
0
 10
 3.68794260788018E+0002
 20
 6.93019299332022E+0002
 11
 3.70279854419301E+0002
 21
 6.93681136415582E+0002
  0
LINE
  8
0
 10
 3.70279854419301E+0002
 20
 6.93681136415582E+0002
 11
 3.71748181545674E+0002
 21
 6.94356664650635E+0002
  0
LINE
  8
0
 10
 3.71748181545674E+0002
 20
 6.94356664650635E+0002
 11
 3.73198997161071E+0002
 21
 6.95045732709906E+0002
  0
LINE
  8
0
 10
 3.73198997161071E+0002
 20
 6.95045732709906E+0002
 11
 3.74632056259426E+0002
 21
 6.95748189266119E+0002
  0
LINE
  8
0
 10
 3.74632056259426E+0002
 20
 6.95748189266119E+0002
 11
 3.76047113834673E+0002
 21
 6.96463882991997E+0002
  0
LINE
  8
0
 10
 3.76047113834673E+0002
 20
 6.96463882991997E+0002
 11
 3.77443924880746E+0002
 21
 6.97192662560265E+0002
  0
LINE
  8
0
 10
 3.77443924880746E+0002
 20
 6.97192662560265E+0002
 11
 3.78822244391579E+0002
 21
 6.97934376643646E+0002
  0
LINE
  8
0
 10
 3.78822244391579E+0002
 20
 6.97934376643646E+0002
 11
 3.80181827361107E+0002
 21
 6.98688873914865E+0002
  0
LINE
  8
0
 10
 3.80181827361107E+0002
 20
 6.98688873914865E+0002
 11
 3.81522428783264E+0002
 21
 6.99456003046646E+0002
  0
LINE
  8
0
 10
 3.81522428783264E+0002
 20
 6.99456003046646E+0002
 11
 3.82843803651983E+0002
 21
 7.00235612711713E+0002
  0
LINE
  8
0
 10
 3.82843803651983E+0002
 20
 7.00235612711713E+0002
 11
 3.84145706961199E+0002
 21
 7.01027551582789E+0002
  0
LINE
  8
0
 10
 3.84145706961199E+0002
 20
 7.01027551582789E+0002
 11
 3.85427893704846E+0002
 21
 7.01831668332599E+0002
  0
LINE
  8
0
 10
 3.85427893704846E+0002
 20
 7.01831668332599E+0002
 11
 3.86690118876859E+0002
 21
 7.02647811633866E+0002
  0
LINE
  8
0
 10
 3.86690118876859E+0002
 20
 7.02647811633866E+0002
 11
 3.87932137471171E+0002
 21
 7.03475830159316E+0002
  0
LINE
  8
0
 10
 3.87932137471171E+0002
 20
 7.03475830159316E+0002
 11
 3.89153704481716E+0002
 21
 7.04315572581672E+0002
  0
LINE
  8
0
 10
 3.89153704481716E+0002
 20
 7.04315572581672E+0002
 11
 3.90354574902428E+0002
 21
 7.05166887573657E+0002
  0
LINE
  8
0
 10
 3.90354574902428E+0002
 20
 7.05166887573657E+0002
 11
 3.91534503727243E+0002
 21
 7.06029623807996E+0002
  0
LINE
  8
0
 10
 3.91534503727243E+0002
 20
 7.06029623807996E+0002
 11
 3.92693245950093E+0002
 21
 7.06903629957413E+0002
  0
LINE
  8
0
 10
 3.92693245950093E+0002
 20
 7.06903629957413E+0002
 11
 3.93830556564914E+0002
 21
 7.07788754694632E+0002
  0
LINE
  8
0
 10
 3.93830556564914E+0002
 20
 7.07788754694632E+0002
 11
 3.94946190565638E+0002
 21
 7.08684846692378E+0002
  0
LINE
  8
0
 10
 3.94946190565638E+0002
 20
 7.08684846692378E+0002
 11
 3.96039902946201E+0002
 21
 7.09591754623373E+0002
  0
LINE
  8
0
 10
 3.96039902946201E+0002
 20
 7.09591754623373E+0002
 11
 3.97111448700536E+0002
 21
 7.10509327160342E+0002
  0
LINE
  8
0
 10
 3.97111448700536E+0002
 20
 7.10509327160342E+0002
 11
 3.98160582822578E+0002
 21
 7.11437412976009E+0002
  0
LINE
  8
0
 10
 3.98160582822578E+0002
 20
 7.11437412976009E+0002
 11
 3.99187060306260E+0002
 21
 7.12375860743098E+0002
  0
LINE
  8
0
 10
 3.99187060306260E+0002
 20
 7.12375860743098E+0002
 11
 4.00190636145518E+0002
 21
 7.13324519134334E+0002
  0
LINE
  8
0
 10
 4.00190636145518E+0002
 20
 7.13324519134334E+0002
 11
 4.01171065334284E+0002
 21
 7.14283236822439E+0002
  0
LINE
  8
0
 10
 4.01171065334284E+0002
 20
 7.14283236822439E+0002
 11
 4.02128102866493E+0002
 21
 7.15251862480139E+0002
  0
LINE
  8
0
 10
 4.02128102866493E+0002
 20
 7.15251862480139E+0002
 11
 4.03061503736080E+0002
 21
 7.16230244780156E+0002
  0
LINE
  8
0
 10
 4.03061503736080E+0002
 20
 7.16230244780156E+0002
 11
 4.03971022936978E+0002
 21
 7.17218232395217E+0002
  0
LINE
  8
0
 10
 4.03971022936978E+0002
 20
 7.17218232395217E+0002
 11
 4.04856415463121E+0002
 21
 7.18215673998043E+0002
  0
LINE
  8
0
 10
 4.04856415463121E+0002
 20
 7.18215673998043E+0002
 11
 4.05717436308444E+0002
 21
 7.19222418261360E+0002
  0
LINE
  8
0
 10
 4.05717436308444E+0002
 20
 7.19222418261360E+0002
 11
 4.06553840466881E+0002
 21
 7.20238313857890E+0002
  0
LINE
  8
0
 10
 4.06553840466881E+0002
 20
 7.20238313857890E+0002
 11
 4.07365382932366E+0002
 21
 7.21263209460360E+0002
  0
LINE
  8
0
 10
 4.07365382932366E+0002
 20
 7.21263209460360E+0002
 11
 4.08151818698833E+0002
 21
 7.22296953741491E+0002
  0
LINE
  8
0
 10
 4.08151818698833E+0002
 20
 7.22296953741491E+0002
 11
 4.08912902760216E+0002
 21
 7.23339395374009E+0002
  0
LINE
  8
0
 10
 4.08912902760216E+0002
 20
 7.23339395374009E+0002
 11
 4.09648390110450E+0002
 21
 7.24390383030637E+0002
  0
LINE
  8
0
 10
 4.09648390110450E+0002
 20
 7.24390383030637E+0002
 11
 4.10358035743468E+0002
 21
 7.25449765384100E+0002
  0
LINE
  8
0
 10
 4.10358035743468E+0002
 20
 7.25449765384100E+0002
 11
 4.11041594653204E+0002
 21
 7.26517391107121E+0002
  0
LINE
  8
0
 10
 4.11041594653204E+0002
 20
 7.26517391107121E+0002
 11
 4.11698821833593E+0002
 21
 7.27593108872425E+0002
  0
LINE
  8
0
 10
 4.11698821833593E+0002
 20
 7.27593108872425E+0002
 11
 4.12329472278570E+0002
 21
 7.28676767352735E+0002
  0
LINE
  8
0
 10
 4.12329472278570E+0002
 20
 7.28676767352735E+0002
 11
 4.12933300982067E+0002
 21
 7.29768215220776E+0002
  0
LINE
  8
0
 10
 4.12933300982067E+0002
 20
 7.29768215220776E+0002
 11
 4.13510062938019E+0002
 21
 7.30867301149271E+0002
  0
LINE
  8
0
 10
 4.13510062938019E+0002
 20
 7.30867301149271E+0002
 11
 4.14059513140361E+0002
 21
 7.31973873810945E+0002
  0
LINE
  8
0
 10
 4.14059513140361E+0002
 20
 7.31973873810945E+0002
 11
 4.14581406583026E+0002
 21
 7.33087781878521E+0002
  0
LINE
  8
0
 10
 4.14581406583026E+0002
 20
 7.33087781878521E+0002
 11
 4.15075498259949E+0002
 21
 7.34208874024724E+0002
  0
LINE
  8
0
 10
 4.15075498259949E+0002
 20
 7.34208874024724E+0002
 11
 4.15541543165064E+0002
 21
 7.35336998922278E+0002
  0
LINE
  8
0
 10
 4.15541543165064E+0002
 20
 7.35336998922278E+0002
 11
 4.15979296292304E+0002
 21
 7.36472005243906E+0002
  0
LINE
  8
0
 10
 4.15979296292304E+0002
 20
 7.36472005243906E+0002
 11
 4.16388512635604E+0002
 21
 7.37613741662333E+0002
  0
LINE
  8
0
 10
 4.16388512635604E+0002
 20
 7.37613741662333E+0002
 11
 4.16768947188899E+0002
 21
 7.38762056850283E+0002
  0
LINE
  8
0
 10
 4.16768947188899E+0002
 20
 7.38762056850283E+0002
 11
 4.17120354946121E+0002
 21
 7.39916799480480E+0002
  0
LINE
  8
0
 10
 4.17120354946121E+0002
 20
 7.39916799480480E+0002
 11
 4.17442490901206E+0002
 21
 7.41077818225647E+0002
  0
LINE
  8
0
 10
 4.17442490901206E+0002
 20
 7.41077818225647E+0002
 11
 4.17735110048088E+0002
 21
 7.42244961758509E+0002
  0
LINE
  8
0
 10
 4.17735110048088E+0002
 20
 7.42244961758509E+0002
 11
 4.17997967380700E+0002
 21
 7.43418078751790E+0002
  0
LINE
  8
0
 10
 4.17997967380700E+0002
 20
 7.43418078751790E+0002
 11
 4.18230817892977E+0002
 21
 7.44597017878214E+0002
  0
LINE
  8
0
 10
 4.18230817892977E+0002
 20
 7.44597017878214E+0002
 11
 4.18433416578854E+0002
 21
 7.45781627810505E+0002
  0
LINE
  8
0
 10
 4.18433416578854E+0002
 20
 7.45781627810505E+0002
 11
 4.18605518432263E+0002
 21
 7.46971757221387E+0002
  0
LINE
  8
0
 10
 4.18605518432263E+0002
 20
 7.46971757221387E+0002
 11
 4.18746878447139E+0002
 21
 7.48167254783583E+0002
  0
LINE
  8
0
 10
 4.18746878447139E+0002
 20
 7.48167254783583E+0002
 11
 4.18857251617417E+0002
 21
 7.49367969169819E+0002
  0
LINE
  8
0
 10
 4.18857251617417E+0002
 20
 7.49367969169819E+0002
 11
 4.18936392937030E+0002
 21
 7.50573749052818E+0002
  0
LINE
  8
0
 10
 4.18936392937030E+0002
 20
 7.50573749052818E+0002
 11
 4.18984057399913E+0002
 21
 7.51784443105303E+0002
  0
LINE
  8
0
 10
 4.18984057399913E+0002
 20
 7.51784443105303E+0002
 11
 4.19000000000000E+0002
 21
 7.52999900000000E+0002
  0
LINE
  8
0
 10
 2.99221500000000E+0002
 20
 2.01061500000000E+0002
 11
 2.71030737921409E+0002
 21
 1.90797985667433E+0002
  0
ARC
  8
0
 10
 3.65000000000000E+0002
 20
 2.25000000000000E+0002
 40
 1.00000000000000E+0002
 50
 1.88625000000000E+0002
 51
 2.00000000000000E+0002
  0
LINE
  8
0
 10
 2.66130896017583E+0002
 20
 2.10003324444595E+0002
 11
 1.87500000000000E+0002
 21
 2.10000000000000E+0002
  0
LINE
  8
0
 10
 1.87500000000000E+0002
 20
 2.10000000000000E+0002
 11
 2.40000000000000E+0002
 21
 1.57500000000000E+0002
  0
LINE
  8
0
 10
 2.40000000000000E+0002
 20
 1.57500000000000E+0002
 11
 2.02500000000000E+0002
 21
 1.57500000000000E+0002
  0
LINE
  8
0
 10
 2.02500000000000E+0002
 20
 1.57500000000000E+0002
 11
 1.35000000000000E+0002
 21
 2.25000000000000E+0002
  0
LINE
  8
0
 10
 1.35000000000000E+0002
 20
 2.25000000000000E+0002
 11
 2.02500000000000E+0002
 21
 2.92500000000000E+0002
  0
LINE
  8
0
 10
 2.02500000000000E+0002
 20
 2.92500000000000E+0002
 11
 2.40000000000000E+0002
 21
 2.92500000000000E+0002
  0
LINE
  8
0
 10
 2.40000000000000E+0002
 20
 2.92500000000000E+0002
 11
 1.87500000000000E+0002
 21
 2.40000000000000E+0002
  0
LINE
  8
0
 10
 1.87500000000000E+0002
 20
 2.40000000000000E+0002
 11
 2.66112647913827E+0002
 21
 2.39875872995737E+0002
  0
ARC
  8
0
 10
 3.65000000000000E+0002
 20
 2.25000000000000E+0002
 40
 1.00000000000000E+0002
 50
 2.78495000000000E+0002
 51
 5.31445000000000E+0002
  0
LINE
  8
0
 10
 3.79772310265105E+0002
 20
 1.26097124159954E+0002
 11
 3.80000000000000E+0002
 21
 6.50000000000000E+0001
  0
LINE
  8
0
 10
 3.80000000000000E+0002
 20
 6.50000000000000E+0001
 11
 3.50000000000000E+0002
 21
 6.50000000000000E+0001
  0
LINE
  8
0
 10
 3.50000000000000E+0002
 20
 6.50000000000000E+0001
 11
 3.49998359285446E+0002
 21
 1.56626388307539E+0002
  0
ARC
  8
0
 10
 3.65000000000000E+0002
 20
 2.25000000000000E+0002
 40
 7.00000000000000E+0001
 50
 2.57625000000000E+0002
 51
 5.60000000000000E+0002
  0
ENDSEC
  0
EOF
