  0
SECTION
  2
HEADER
  9
$ACADVER
  1
AC1003
  9
$INSBASE
 10
0.0
 20
0.0
  9
$EXTMIN
 10
 0.00000000000000E+0000
 20
 0.00000000000000E+0000
  9
$EXTMAX
 10
 6.00000000000000E+0002
 20
 9.00000000000000E+0002
  9
$LIMMIN
 10
0.0
 20
0.0
  9
$LIMMAX
 10
410.0
 20
287.0
  9
$VIEWCTR
 10
227.0059616
 20
165.058879 
  9
$VIEWSIZE
 40
 9.00000000000000E+0002
9
$SNAPMODE
70
0
9
$SNAPUNIT
10
1
20
1
9
$GRIDMODE
70
0
9
$GRIDUNIT
10
1
20
1
9
$ORTHOMODE
70
0
9
$rEGENMODE
70
1
9
$FILLMODE
70
1
9
$DRAGMODE
70
2
9
$LTSCALE
40
25.0
9
$OSMODE
70
0
9
$ATTMODE
70
1
9
$TRACEWID
40
1.0
9
$TEXTSTYLE
7
STANDARD
9
$CLAYER
8
0
9
$CELTYPE
6
VONLAYER
9
$CECOLOR
62
256
9
$LUNITS
70
2
9
$LUPREC
70
2
9
$AXISMODE
70
0
9
$AXISUNIT
10
0
20
0
9
$SKETCHINC
40
1.0
9
$FILLETRAD
40
0.0
9
$AUNITS
70
0
9
$AUPREC
70
0
9
$MENU
1
ACAD
9
$ELEVATION
40
0.0
9
$THICKNESS
40
0.0
9
$VIEWDIR
10
0.0
20
0.0
30
1.0
9
$LIMCHECK
70
0
9
$BLIPMODE
70
1
9
$CHAMFERA
40
0.0
9
$CHAMFERB
40
0.0
9
$USRTIMER
70
1
9
$ANGBASE
50
0.0
9
$ANGDIR
70
0
9
$PDMODE
70
0
9
$PDSIZE
40
0.0
9
$PLINEWID
40
0.0
9
$COORDS
70
0
0
ENDSEC
0
SECTION
2
TABLES
0
TABLE
2
LTYPE
70
1
0
LTYPE
2
AUSGEZOGEN
70
64
3
Ausgezogene Linie
72
65
73
0
40
0.0
0
ENDTAB
0
TABLE
2
LAYER
70
1
0
LAYER
2
0
70
0
62
7
6
AUSGEZOGEN
0
ENDTAB
0
TABLE
2
STYLE
70
1
0
STYLE
2
STANDARD
70
0
40
0.0
41
1.0
50
0.0
71
0
42
3.5
3
txt
4

0
ENDTAB
0
TABLE
2
VIEW
70
0
0
ENDTAB
0
ENDSEC
0
SECTION
2
BLOCKS
0
ENDSEC
0
SECTION
2
ENTITIES
  0
ARC
  8
0
 10
 4.00000000000000E+0001
 20
 4.00000000000000E+0001
 40
 4.00000000000000E+0001
 50
 1.80000000000000E+0002
 51
 2.70000000000000E+0002
  0
LINE
  8
0
 10
 0.00000000000000E+0000
 20
 4.00000000000000E+0001
 11
 0.00000000000000E+0000
 21
 8.60000000000000E+0002
  0
ARC
  8
0
 10
 4.00000000000000E+0001
 20
 8.60000000000000E+0002
 40
 4.00000000000000E+0001
 50
 9.00000000000000E+0001
 51
 1.80000000000000E+0002
  0
LINE
  8
0
 10
 4.00000000000000E+0001
 20
 9.00000000000000E+0002
 11
 5.60000000000000E+0002
 21
 9.00000000000000E+0002
  0
ARC
  8
0
 10
 5.60000000000000E+0002
 20
 8.60000000000000E+0002
 40
 4.00000000000000E+0001
 50
 0.00000000000000E+0000
 51
 9.00000000000000E+0001
  0
LINE
  8
0
 10
 6.00000000000000E+0002
 20
 8.60000000000000E+0002
 11
 6.00000000000000E+0002
 21
 4.00000000000000E+0001
  0
ARC
  8
0
 10
 5.60000000000000E+0002
 20
 4.00000000000000E+0001
 40
 4.00000000000000E+0001
 50
 2.70000000000000E+0002
 51
 3.60000000000000E+0002
  0
LINE
  8
0
 10
 5.60000000000000E+0002
 20
 0.00000000000000E+0000
 11
 4.00000000000000E+0001
 21
 0.00000000000000E+0000
  0
ARC
  8
0
 10
 4.00000000000000E+0001
 20
 4.00000000000000E+0001
 40
 3.00000000000000E+0001
 50
 1.80000000000000E+0002
 51
 2.70000000000000E+0002
  0
LINE
  8
0
 10
 1.00000000000000E+0001
 20
 4.00000000000000E+0001
 11
 1.00000000000000E+0001
 21
 8.60000000000000E+0002
  0
ARC
  8
0
 10
 4.00000000000000E+0001
 20
 8.60000000000000E+0002
 40
 3.00000000000000E+0001
 50
 9.00000000000000E+0001
 51
 1.80000000000000E+0002
  0
LINE
  8
0
 10
 4.00000000000000E+0001
 20
 8.90000000000000E+0002
 11
 5.60000000000000E+0002
 21
 8.90000000000000E+0002
  0
ARC
  8
0
 10
 5.60000000000000E+0002
 20
 8.60000000000000E+0002
 40
 3.00000000000000E+0001
 50
 0.00000000000000E+0000
 51
 9.00000000000000E+0001
  0
LINE
  8
0
 10
 5.90000000000000E+0002
 20
 8.60000000000000E+0002
 11
 5.90000000000000E+0002
 21
 4.00000000000000E+0001
  0
ARC
  8
0
 10
 5.60000000000000E+0002
 20
 4.00000000000000E+0001
 40
 3.00000000000000E+0001
 50
 2.70000000000000E+0002
 51
 3.60000000000000E+0002
  0
LINE
  8
0
 10
 5.60000000000000E+0002
 20
 1.00000000000000E+0001
 11
 4.00000000000000E+0001
 21
 1.00000000000000E+0001
  0
ARC
  8
0
 10
 4.00000000000000E+0001
 20
 4.00000000000000E+0001
 40
 1.50000000000000E+0001
 50
 1.80000000000000E+0002
 51
 2.70000000000000E+0002
  0
LINE
  8
0
 10
 2.50000000000000E+0001
 20
 4.00000000000000E+0001
 11
 2.50000000000000E+0001
 21
 8.60000000000000E+0002
  0
ARC
  8
0
 10
 4.00000000000000E+0001
 20
 8.60000000000000E+0002
 40
 1.50000000000000E+0001
 50
 9.00000000000000E+0001
 51
 1.80000000000000E+0002
  0
LINE
  8
0
 10
 4.00000000000000E+0001
 20
 8.75000000000000E+0002
 11
 5.60000000000000E+0002
 21
 8.75000000000000E+0002
  0
ARC
  8
0
 10
 5.60000000000000E+0002
 20
 8.60000000000000E+0002
 40
 1.50000000000000E+0001
 50
 0.00000000000000E+0000
 51
 9.00000000000000E+0001
  0
LINE
  8
0
 10
 5.75000000000000E+0002
 20
 8.60000000000000E+0002
 11
 5.75000000000000E+0002
 21
 4.00000000000000E+0001
  0
ARC
  8
0
 10
 5.60000000000000E+0002
 20
 4.00000000000000E+0001
 40
 1.50000000000000E+0001
 50
 2.70000000000000E+0002
 51
 3.60000000000000E+0002
  0
LINE
  8
0
 10
 5.60000000000000E+0002
 20
 2.50000000000000E+0001
 11
 4.00000000000000E+0001
 21
 2.50000000000000E+0001
  0
ARC
  8
0
 10
 1.81000000000000E+0002
 20
 4.97000000000000E+0002
 40
 7.00000000000000E+0000
 50
 1.80000000000000E+0002
 51
 2.70000000000000E+0002
  0
LINE
  8
0
 10
 1.74000000000000E+0002
 20
 4.97000000000000E+0002
 11
 1.74000000000000E+0002
 21
 5.67000000000000E+0002
  0
ARC
  8
0
 10
 1.81000000000000E+0002
 20
 5.67000000000000E+0002
 40
 7.00000000000000E+0000
 50
 9.00000000000000E+0001
 51
 1.80000000000000E+0002
  0
LINE
  8
0
 10
 1.81000000000000E+0002
 20
 5.74000000000000E+0002
 11
 2.02000000000000E+0002
 21
 5.74000000000000E+0002
  0
ARC
  8
0
 10
 2.02000000000000E+0002
 20
 5.67000000000000E+0002
 40
 7.00000000000000E+0000
 50
 0.00000000000000E+0000
 51
 9.00000000000000E+0001
  0
LINE
  8
0
 10
 2.09000000000000E+0002
 20
 5.67000000000000E+0002
 11
 2.09000000000000E+0002
 21
 4.97000000000000E+0002
  0
ARC
  8
0
 10
 2.02000000000000E+0002
 20
 4.97000000000000E+0002
 40
 7.00000000000000E+0000
 50
 2.70000000000000E+0002
 51
 3.60000000000000E+0002
  0
LINE
  8
0
 10
 2.02000000000000E+0002
 20
 4.90000000000000E+0002
 11
 1.81000000000000E+0002
 21
 4.90000000000000E+0002
  0
ARC
  8
0
 10
 2.23000000000000E+0002
 20
 4.97000000000000E+0002
 40
 7.00000000000000E+0000
 50
 1.80000000000000E+0002
 51
 2.70000000000000E+0002
  0
LINE
  8
0
 10
 2.16000000000000E+0002
 20
 4.97000000000000E+0002
 11
 2.16000000000000E+0002
 21
 5.67000000000000E+0002
  0
ARC
  8
0
 10
 2.23000000000000E+0002
 20
 5.67000000000000E+0002
 40
 7.00000000000000E+0000
 50
 9.00000000000000E+0001
 51
 1.80000000000000E+0002
  0
LINE
  8
0
 10
 2.23000000000000E+0002
 20
 5.74000000000000E+0002
 11
 2.44000000000000E+0002
 21
 5.74000000000000E+0002
  0
ARC
  8
0
 10
 2.44000000000000E+0002
 20
 5.67000000000000E+0002
 40
 7.00000000000000E+0000
 50
 0.00000000000000E+0000
 51
 9.00000000000000E+0001
  0
LINE
  8
0
 10
 2.51000000000000E+0002
 20
 5.67000000000000E+0002
 11
 2.51000000000000E+0002
 21
 5.47749900000000E+0002
  0
ARC
  8
0
 10
 2.58000000000000E+0002
 20
 5.47749900000000E+0002
 40
 7.00000000000000E+0000
 50
 1.80000000000000E+0002
 51
 2.70000000000000E+0002
  0
LINE
  8
0
 10
 2.58000000000000E+0002
 20
 5.40749900000000E+0002
 11
 2.71299900000000E+0002
 21
 5.40749900000000E+0002
  0
ARC
  8
0
 10
 2.71299900000000E+0002
 20
 5.54749900000000E+0002
 40
 1.40000000000000E+0001
 50
 2.70000000000000E+0002
 51
 3.13602810000000E+0002
  0
LINE
  8
0
 10
 2.80955070826160E+0002
 20
 5.44611967453486E+0002
 11
 2.85517143760759E+0002
 21
 5.48956798819771E+0002
  0
ARC
  8
0
 10
 2.99999900000000E+0002
 20
 5.33749900000000E+0002
 40
 2.10000000000000E+0001
 50
 4.63971900000000E+0001
 51
 1.33602810000000E+0002
  0
LINE
  8
0
 10
 3.14482656239240E+0002
 20
 5.48956798819771E+0002
 11
 3.19044729173840E+0002
 21
 5.44611967453486E+0002
  0
ARC
  8
0
 10
 3.28699900000000E+0002
 20
 5.54749900000000E+0002
 40
 1.40000000000000E+0001
 50
 2.26397190000000E+0002
 51
 2.70000000000000E+0002
  0
LINE
  8
0
 10
 3.28699900000000E+0002
 20
 5.40749900000000E+0002
 11
 3.41999900000000E+0002
 21
 5.40749900000000E+0002
  0
ARC
  8
0
 10
 3.41999900000000E+0002
 20
 5.47749900000000E+0002
 40
 7.00000000000000E+0000
 50
 2.70000000000000E+0002
 51
 3.60000000000000E+0002
  0
LINE
  8
0
 10
 3.48999900000000E+0002
 20
 5.47749900000000E+0002
 11
 3.48999900000000E+0002
 21
 5.67000000000000E+0002
  0
ARC
  8
0
 10
 3.55999900000000E+0002
 20
 5.67000000000000E+0002
 40
 7.00000000000000E+0000
 50
 9.00000000000000E+0001
 51
 1.80000000000000E+0002
  0
LINE
  8
0
 10
 3.55999900000000E+0002
 20
 5.74000000000000E+0002
 11
 3.76999900000000E+0002
 21
 5.74000000000000E+0002
  0
ARC
  8
0
 10
 3.76999900000000E+0002
 20
 5.67000000000000E+0002
 40
 7.00000000000000E+0000
 50
 0.00000000000000E+0000
 51
 9.00000000000000E+0001
  0
LINE
  8
0
 10
 3.83999900000000E+0002
 20
 5.67000000000000E+0002
 11
 3.83999900000000E+0002
 21
 4.97000000000000E+0002
  0
ARC
  8
0
 10
 3.76999900000000E+0002
 20
 4.97000000000000E+0002
 40
 7.00000000000000E+0000
 50
 2.70000000000000E+0002
 51
 3.60000000000000E+0002
  0
LINE
  8
0
 10
 3.76999900000000E+0002
 20
 4.90000000000000E+0002
 11
 3.55999900000000E+0002
 21
 4.90000000000000E+0002
  0
ARC
  8
0
 10
 3.55999900000000E+0002
 20
 4.97000000000000E+0002
 40
 7.00000000000000E+0000
 50
 1.80000000000000E+0002
 51
 2.70000000000000E+0002
  0
LINE
  8
0
 10
 3.48999900000000E+0002
 20
 4.97000000000000E+0002
 11
 3.48999900000000E+0002
 21
 5.16249900000000E+0002
  0
ARC
  8
0
 10
 3.41999900000000E+0002
 20
 5.16249900000000E+0002
 40
 7.00000000000000E+0000
 50
 0.00000000000000E+0000
 51
 9.00000000000000E+0001
  0
LINE
  8
0
 10
 3.41999900000000E+0002
 20
 5.23249900000000E+0002
 11
 3.28699900000000E+0002
 21
 5.23249900000000E+0002
  0
ARC
  8
0
 10
 3.28699900000000E+0002
 20
 5.09249900000000E+0002
 40
 1.40000000000000E+0001
 50
 9.00000000000000E+0001
 51
 1.33602810000000E+0002
  0
LINE
  8
0
 10
 3.19044729173840E+0002
 20
 5.19387832546514E+0002
 11
 3.14482656239240E+0002
 21
 5.15043001180229E+0002
  0
ARC
  8
0
 10
 2.99999900000000E+0002
 20
 5.30249900000000E+0002
 40
 2.10000000000000E+0001
 50
 2.26397190000000E+0002
 51
 3.13602810000000E+0002
  0
LINE
  8
0
 10
 2.85517143760759E+0002
 20
 5.15043001180229E+0002
 11
 2.80955070826160E+0002
 21
 5.19387832546514E+0002
  0
ARC
  8
0
 10
 2.71299900000000E+0002
 20
 5.09249900000000E+0002
 40
 1.40000000000000E+0001
 50
 4.63971900000000E+0001
 51
 9.00000000000000E+0001
  0
LINE
  8
0
 10
 2.71299900000000E+0002
 20
 5.23249900000000E+0002
 11
 2.58000000000000E+0002
 21
 5.23249900000000E+0002
  0
ARC
  8
0
 10
 2.58000000000000E+0002
 20
 5.16249900000000E+0002
 40
 7.00000000000000E+0000
 50
 9.00000000000000E+0001
 51
 1.80000000000000E+0002
  0
LINE
  8
0
 10
 2.51000000000000E+0002
 20
 5.16249900000000E+0002
 11
 2.51000000000000E+0002
 21
 4.97000000000000E+0002
  0
ARC
  8
0
 10
 2.44000000000000E+0002
 20
 4.97000000000000E+0002
 40
 7.00000000000000E+0000
 50
 2.70000000000000E+0002
 51
 3.60000000000000E+0002
  0
LINE
  8
0
 10
 2.44000000000000E+0002
 20
 4.90000000000000E+0002
 11
 2.23000000000000E+0002
 21
 4.90000000000000E+0002
  0
ARC
  8
0
 10
 3.97999900000000E+0002
 20
 4.97000000000000E+0002
 40
 7.00000000000000E+0000
 50
 1.80000000000000E+0002
 51
 2.70000000000000E+0002
  0
LINE
  8
0
 10
 3.90999900000000E+0002
 20
 4.97000000000000E+0002
 11
 3.90999900000000E+0002
 21
 5.67000000000000E+0002
  0
ARC
  8
0
 10
 3.97999900000000E+0002
 20
 5.67000000000000E+0002
 40
 7.00000000000000E+0000
 50
 9.00000000000000E+0001
 51
 1.80000000000000E+0002
  0
LINE
  8
0
 10
 3.97999900000000E+0002
 20
 5.74000000000000E+0002
 11
 4.18999900000000E+0002
 21
 5.74000000000000E+0002
  0
ARC
  8
0
 10
 4.18999900000000E+0002
 20
 5.67000000000000E+0002
 40
 7.00000000000000E+0000
 50
 0.00000000000000E+0000
 51
 9.00000000000000E+0001
  0
LINE
  8
0
 10
 4.25999900000000E+0002
 20
 5.67000000000000E+0002
 11
 4.25999900000000E+0002
 21
 4.97000000000000E+0002
  0
ARC
  8
0
 10
 4.18999900000000E+0002
 20
 4.97000000000000E+0002
 40
 7.00000000000000E+0000
 50
 2.70000000000000E+0002
 51
 3.60000000000000E+0002
  0
LINE
  8
0
 10
 4.18999900000000E+0002
 20
 4.90000000000000E+0002
 11
 3.97999900000000E+0002
 21
 4.90000000000000E+0002
  0
LINE
  8
0
 10
 1.60000000000000E+0002
 20
 5.81000000000000E+0002
 11
 1.60000000000000E+0002
 21
 5.95000000000000E+0002
  0
LINE
  8
0
 10
 1.60000000000000E+0002
 20
 5.95000000000000E+0002
 11
 4.39999900000000E+0002
 21
 5.95000000000000E+0002
  0
LINE
  8
0
 10
 4.39999900000000E+0002
 20
 5.95000000000000E+0002
 11
 4.39999900000000E+0002
 21
 5.81000000000000E+0002
  0
LINE
  8
0
 10
 4.39999900000000E+0002
 20
 5.81000000000000E+0002
 11
 1.60000000000000E+0002
 21
 5.81000000000000E+0002
  0
LINE
  8
0
 10
 1.74000000000000E+0002
 20
 6.01999900000000E+0002
 11
 1.74000000000000E+0002
 21
 8.08499800000000E+0002
  0
ARC
  8
0
 10
 1.98500000000000E+0002
 20
 8.08499800000000E+0002
 40
 2.45000000000000E+0001
 50
 9.00000000000000E+0001
 51
 1.80000000000000E+0002
  0
LINE
  8
0
 10
 1.98500000000000E+0002
 20
 8.32999800000000E+0002
 11
 4.01499900000000E+0002
 21
 8.32999800000000E+0002
  0
ARC
  8
0
 10
 4.01499900000000E+0002
 20
 8.08499800000000E+0002
 40
 2.45000000000000E+0001
 50
 0.00000000000000E+0000
 51
 9.00000000000000E+0001
  0
LINE
  8
0
 10
 4.25999900000000E+0002
 20
 8.08499800000000E+0002
 11
 4.25999900000000E+0002
 21
 6.01999900000000E+0002
  0
LINE
  8
0
 10
 4.25999900000000E+0002
 20
 6.01999900000000E+0002
 11
 1.74000000000000E+0002
 21
 6.01999900000000E+0002
  0
LINE
  8
0
 10
 2.09000000000000E+0002
 20
 6.29999900000000E+0002
 11
 2.09000000000000E+0002
 21
 8.04999800000000E+0002
  0
LINE
  8
0
 10
 2.09000000000000E+0002
 20
 8.04999800000000E+0002
 11
 3.90999900000000E+0002
 21
 8.04999800000000E+0002
  0
LINE
  8
0
 10
 3.90999900000000E+0002
 20
 8.04999800000000E+0002
 11
 3.90999900000000E+0002
 21
 6.29999900000000E+0002
  0
LINE
  8
0
 10
 3.90999900000000E+0002
 20
 6.29999900000000E+0002
 11
 2.09000000000000E+0002
 21
 6.29999900000000E+0002
  0
LINE
  8
0
 10
 2.20000000000000E+0002
 20
 6.50000000000000E+0001
 11
 2.50000000000000E+0002
 21
 6.50000000000000E+0001
  0
LINE
  8
0
 10
 2.50000000000000E+0002
 20
 6.50000000000000E+0001
 11
 2.49875872995737E+0002
 21
 1.26112647913827E+0002
  0
ARC
  8
0
 10
 2.35000000000000E+0002
 20
 2.25000000000000E+0002
 40
 1.00000000000000E+0002
 50
 2.78555000000000E+0002
 51
 3.51445000000000E+0002
  0
LINE
  8
0
 10
 3.33887352086173E+0002
 20
 2.10124127004263E+0002
 11
 4.12500000000000E+0002
 21
 2.10000000000000E+0002
  0
LINE
  8
0
 10
 4.12500000000000E+0002
 20
 2.10000000000000E+0002
 11
 3.60000000000000E+0002
 21
 1.57500000000000E+0002
  0
LINE
  8
0
 10
 3.60000000000000E+0002
 20
 1.57500000000000E+0002
 11
 3.97500000000000E+0002
 21
 1.57500000000000E+0002
  0
LINE
  8
0
 10
 3.97500000000000E+0002
 20
 1.57500000000000E+0002
 11
 4.65000000000000E+0002
 21
 2.25000000000000E+0002
  0
LINE
  8
0
 10
 4.65000000000000E+0002
 20
 2.25000000000000E+0002
 11
 3.97500000000000E+0002
 21
 2.92500000000000E+0002
  0
LINE
  8
0
 10
 3.97500000000000E+0002
 20
 2.92500000000000E+0002
 11
 3.60000000000000E+0002
 21
 2.92500000000000E+0002
  0
LINE
  8
0
 10
 3.60000000000000E+0002
 20
 2.92500000000000E+0002
 11
 4.12500000000000E+0002
 21
 2.40000000000000E+0002
  0
LINE
  8
0
 10
 4.12500000000000E+0002
 20
 2.40000000000000E+0002
 11
 3.33887352086173E+0002
 21
 2.39875872995737E+0002
  0
ARC
  8
0
 10
 2.35000000000000E+0002
 20
 2.25000000000000E+0002
 40
 1.00000000000000E+0002
 50
 8.55500000000000E+0000
 51
 2.00000000000000E+0002
  0
LINE
  8
0
 10
 1.41030737921409E+0002
 20
 1.90797985667433E+0002
 11
 1.69221516544986E+0002
 21
 2.01058589967203E+0002
  0
ARC
  8
0
 10
 2.35000000000000E+0002
 20
 2.25000000000000E+0002
 40
 7.00000000000000E+0001
 50
 2.57625000000000E+0002
 51
 5.60000000000000E+0002
  0
ENDSEC
  0
EOF
