  0
SECTION
  2
HEADER
  9
$ACADVER
  1
AC1003
  9
$INSBASE
 10
0.0
 20
0.0
  9
$EXTMIN
 10
 0.00000000000000E+0000
 20
 0.00000000000000E+0000
  9
$EXTMAX
 10
 6.00000000000000E+0002
 20
 9.00000000000000E+0002
  9
$LIMMIN
 10
0.0
 20
0.0
  9
$LIMMAX
 10
410.0
 20
287.0
  9
$VIEWCTR
 10
227.0059616
 20
165.058879 
  9
$VIEWSIZE
 40
 9.00000000000000E+0002
9
$SNAPMODE
70
0
9
$SNAPUNIT
10
1
20
1
9
$GRIDMODE
70
0
9
$GRIDUNIT
10
1
20
1
9
$ORTHOMODE
70
0
9
$rEGENMODE
70
1
9
$FILLMODE
70
1
9
$DRAGMODE
70
2
9
$LTSCALE
40
25.0
9
$OSMODE
70
0
9
$ATTMODE
70
1
9
$TRACEWID
40
1.0
9
$TEXTSTYLE
7
STANDARD
9
$CLAYER
8
0
9
$CELTYPE
6
VONLAYER
9
$CECOLOR
62
256
9
$LUNITS
70
2
9
$LUPREC
70
2
9
$AXISMODE
70
0
9
$AXISUNIT
10
0
20
0
9
$SKETCHINC
40
1.0
9
$FILLETRAD
40
0.0
9
$AUNITS
70
0
9
$AUPREC
70
0
9
$MENU
1
ACAD
9
$ELEVATION
40
0.0
9
$THICKNESS
40
0.0
9
$VIEWDIR
10
0.0
20
0.0
30
1.0
9
$LIMCHECK
70
0
9
$BLIPMODE
70
1
9
$CHAMFERA
40
0.0
9
$CHAMFERB
40
0.0
9
$USRTIMER
70
1
9
$ANGBASE
50
0.0
9
$ANGDIR
70
0
9
$PDMODE
70
0
9
$PDSIZE
40
0.0
9
$PLINEWID
40
0.0
9
$COORDS
70
0
0
ENDSEC
0
SECTION
2
TABLES
0
TABLE
2
LTYPE
70
1
0
LTYPE
2
AUSGEZOGEN
70
64
3
Ausgezogene Linie
72
65
73
0
40
0.0
0
ENDTAB
0
TABLE
2
LAYER
70
1
0
LAYER
2
0
70
0
62
7
6
AUSGEZOGEN
0
ENDTAB
0
TABLE
2
STYLE
70
1
0
STYLE
2
STANDARD
70
0
40
0.0
41
1.0
50
0.0
71
0
42
3.5
3
txt
4

0
ENDTAB
0
TABLE
2
VIEW
70
0
0
ENDTAB
0
ENDSEC
0
SECTION
2
BLOCKS
0
ENDSEC
0
SECTION
2
ENTITIES
  0
ARC
  8
0
 10
 4.00000000000000E+0001
 20
 4.00000000000000E+0001
 40
 4.00000000000000E+0001
 50
 1.80000000000000E+0002
 51
 2.70000000000000E+0002
  0
LINE
  8
0
 10
 0.00000000000000E+0000
 20
 4.00000000000000E+0001
 11
 0.00000000000000E+0000
 21
 8.60000000000000E+0002
  0
ARC
  8
0
 10
 4.00000000000000E+0001
 20
 8.60000000000000E+0002
 40
 4.00000000000000E+0001
 50
 9.00000000000000E+0001
 51
 1.80000000000000E+0002
  0
LINE
  8
0
 10
 4.00000000000000E+0001
 20
 9.00000000000000E+0002
 11
 5.60000000000000E+0002
 21
 9.00000000000000E+0002
  0
ARC
  8
0
 10
 5.60000000000000E+0002
 20
 8.60000000000000E+0002
 40
 4.00000000000000E+0001
 50
 0.00000000000000E+0000
 51
 9.00000000000000E+0001
  0
LINE
  8
0
 10
 6.00000000000000E+0002
 20
 8.60000000000000E+0002
 11
 6.00000000000000E+0002
 21
 4.00000000000000E+0001
  0
ARC
  8
0
 10
 5.60000000000000E+0002
 20
 4.00000000000000E+0001
 40
 4.00000000000000E+0001
 50
 2.70000000000000E+0002
 51
 3.60000000000000E+0002
  0
LINE
  8
0
 10
 5.60000000000000E+0002
 20
 0.00000000000000E+0000
 11
 4.00000000000000E+0001
 21
 0.00000000000000E+0000
  0
ARC
  8
0
 10
 4.00000000000000E+0001
 20
 4.00000000000000E+0001
 40
 3.00000000000000E+0001
 50
 1.80000000000000E+0002
 51
 2.70000000000000E+0002
  0
LINE
  8
0
 10
 1.00000000000000E+0001
 20
 4.00000000000000E+0001
 11
 1.00000000000000E+0001
 21
 8.60000000000000E+0002
  0
ARC
  8
0
 10
 4.00000000000000E+0001
 20
 8.60000000000000E+0002
 40
 3.00000000000000E+0001
 50
 9.00000000000000E+0001
 51
 1.80000000000000E+0002
  0
LINE
  8
0
 10
 4.00000000000000E+0001
 20
 8.90000000000000E+0002
 11
 5.60000000000000E+0002
 21
 8.90000000000000E+0002
  0
ARC
  8
0
 10
 5.60000000000000E+0002
 20
 8.60000000000000E+0002
 40
 3.00000000000000E+0001
 50
 0.00000000000000E+0000
 51
 9.00000000000000E+0001
  0
LINE
  8
0
 10
 5.90000000000000E+0002
 20
 8.60000000000000E+0002
 11
 5.90000000000000E+0002
 21
 4.00000000000000E+0001
  0
ARC
  8
0
 10
 5.60000000000000E+0002
 20
 4.00000000000000E+0001
 40
 3.00000000000000E+0001
 50
 2.70000000000000E+0002
 51
 3.60000000000000E+0002
  0
LINE
  8
0
 10
 5.60000000000000E+0002
 20
 1.00000000000000E+0001
 11
 4.00000000000000E+0001
 21
 1.00000000000000E+0001
  0
ARC
  8
0
 10
 4.00000000000000E+0001
 20
 4.00000000000000E+0001
 40
 1.50000000000000E+0001
 50
 1.80000000000000E+0002
 51
 2.70000000000000E+0002
  0
LINE
  8
0
 10
 2.50000000000000E+0001
 20
 4.00000000000000E+0001
 11
 2.50000000000000E+0001
 21
 8.60000000000000E+0002
  0
ARC
  8
0
 10
 4.00000000000000E+0001
 20
 8.60000000000000E+0002
 40
 1.50000000000000E+0001
 50
 9.00000000000000E+0001
 51
 1.80000000000000E+0002
  0
LINE
  8
0
 10
 4.00000000000000E+0001
 20
 8.75000000000000E+0002
 11
 5.60000000000000E+0002
 21
 8.75000000000000E+0002
  0
ARC
  8
0
 10
 5.60000000000000E+0002
 20
 8.60000000000000E+0002
 40
 1.50000000000000E+0001
 50
 0.00000000000000E+0000
 51
 9.00000000000000E+0001
  0
LINE
  8
0
 10
 5.75000000000000E+0002
 20
 8.60000000000000E+0002
 11
 5.75000000000000E+0002
 21
 4.00000000000000E+0001
  0
ARC
  8
0
 10
 5.60000000000000E+0002
 20
 4.00000000000000E+0001
 40
 1.50000000000000E+0001
 50
 2.70000000000000E+0002
 51
 3.60000000000000E+0002
  0
LINE
  8
0
 10
 5.60000000000000E+0002
 20
 2.50000000000000E+0001
 11
 4.00000000000000E+0001
 21
 2.50000000000000E+0001
  0
LINE
  8
0
 10
 2.67307700000000E+0002
 20
 8.11538500000000E+0002
 11
 2.40441200000000E+0002
 21
 8.11538500000000E+0002
  0
ARC
  8
0
 10
 2.40441200000000E+0002
 20
 7.78846200000000E+0002
 40
 3.26923000000000E+0001
 50
 9.00000000000000E+0001
 51
 1.62798840000000E+0002
  0
LINE
  8
0
 10
 2.09211148932342E+0002
 20
 7.88514208564408E+0002
 11
 1.85472053652905E+0002
 21
 7.11831644867092E+0002
  0
ARC
  8
0
 10
 1.69230800000000E+0002
 20
 6.31730800000000E+0002
 40
 8.17308000000000E+0001
 50
 7.85380900000000E+0001
 51
 4.27059690000000E+0002
  0
LINE
  8
0
 10
 2.01087173014050E+0002
 20
 7.06997626471093E+0002
 11
 2.07582900000000E+0002
 21
 7.27980800000000E+0002
  0
LINE
  8
0
 10
 2.07582900000000E+0002
 20
 7.27980800000000E+0002
 11
 3.04204428303022E+0002
 21
 6.20786594478425E+0002
  0
ARC
  8
0
 10
 3.16346200000000E+0002
 20
 6.31730800000000E+0002
 40
 1.63462000000000E+0001
 50
 2.22030490000000E+0002
 51
 2.70000000000000E+0002
  0
LINE
  8
0
 10
 3.16346200000000E+0002
 20
 6.15384600000000E+0002
 11
 3.50689697768147E+0002
 21
 6.15384638648214E+0002
  0
ARC
  8
0
 10
 4.30769200000000E+0002
 20
 6.31730800000000E+0002
 40
 8.17308000000000E+0001
 50
 1.91536960000000E+0002
 51
 4.68055110000000E+0002
  0
LINE
  8
0
 10
 4.05438240269591E+0002
 20
 7.09437081263334E+0002
 11
 3.81730800000000E+0002
 21
 7.62500000000000E+0002
  0
LINE
  8
0
 10
 3.81730800000000E+0002
 20
 7.62500000000000E+0002
 11
 3.87860500000000E+0002
 21
 7.78846200000000E+0002
  0
LINE
  8
0
 10
 3.87860500000000E+0002
 20
 7.78846200000000E+0002
 11
 4.06250000000000E+0002
 21
 7.78846200000000E+0002
  0
LINE
  8
0
 10
 4.06250000000000E+0002
 20
 7.78846200000000E+0002
 11
 4.06250000000000E+0002
 21
 7.95192300000000E+0002
  0
LINE
  8
0
 10
 4.06250000000000E+0002
 20
 7.95192300000000E+0002
 11
 3.36778800000000E+0002
 21
 7.95192300000000E+0002
  0
ARC
  8
0
 10
 3.36778800000000E+0002
 20
 7.91105800000000E+0002
 40
 4.08650000000000E+0000
 50
 9.00000000000000E+0001
 51
 2.56524160000000E+0002
  0
LINE
  8
0
 10
 3.35826501155073E+0002
 20
 7.87131808409678E+0002
 11
 3.70402900000000E+0002
 21
 7.78846200000000E+0002
  0
LINE
  8
0
 10
 3.70402900000000E+0002
 20
 7.78846200000000E+0002
 11
 3.64273000000000E+0002
 21
 7.62500000000000E+0002
  0
LINE
  8
0
 10
 3.64273000000000E+0002
 20
 7.62500000000000E+0002
 11
 2.18269200000000E+0002
 21
 7.62500000000000E+0002
  0
LINE
  8
0
 10
 2.18269200000000E+0002
 20
 7.62500000000000E+0002
 11
 2.24826126702552E+0002
 21
 7.83680219068573E+0002
  0
ARC
  8
0
 10
 2.40441200000000E+0002
 20
 7.78846200000000E+0002
 40
 1.63462000000000E+0001
 50
 9.00000000000000E+0001
 51
 1.62798840000000E+0002
  0
LINE
  8
0
 10
 2.40441200000000E+0002
 20
 7.95192400000000E+0002
 11
 2.67307700000000E+0002
 21
 7.95192300000000E+0002
  0
LINE
  8
0
 10
 2.67307700000000E+0002
 20
 7.95192300000000E+0002
 11
 2.67307700000000E+0002
 21
 8.11538500000000E+0002
  0
LINE
  8
0
 10
 2.13208900000000E+0002
 20
 7.46153800000000E+0002
 11
 3.15561200000000E+0002
 21
 6.32601700000000E+0002
  0
LINE
  8
0
 10
 3.15561200000000E+0002
 20
 6.32601700000000E+0002
 11
 3.58143300000000E+0002
 21
 7.46153800000000E+0002
  0
LINE
  8
0
 10
 3.58143300000000E+0002
 20
 7.46153800000000E+0002
 11
 2.13208900000000E+0002
 21
 7.46153800000000E+0002
  0
ARC
  8
0
 10
 1.69230800000000E+0002
 20
 6.31730800000000E+0002
 40
 6.53846000000000E+0001
 50
 7.99797400000000E+0001
 51
 4.25618100000000E+0002
  0
LINE
  8
0
 10
 1.96222656114671E+0002
 20
 6.91284016711147E+0002
 11
 1.77038241121486E+0002
 21
 6.29313820038452E+0002
  0
ARC
  8
0
 10
 1.69230800000000E+0002
 20
 6.31730800000000E+0002
 40
 8.17300000000000E+0000
 50
 1.62798840000000E+0002
 51
 3.42798840000000E+0002
  0
LINE
  8
0
 10
 1.61423358878514E+0002
 20
 6.34147779961548E+0002
 11
 1.80607600000000E+0002
 21
 6.96118000000000E+0002
  0
LINE
  8
0
 10
 3.32692300000000E+0002
 20
 6.31730800000000E+0002
 11
 3.49038400000000E+0002
 21
 6.31730800000000E+0002
  0
ARC
  8
0
 10
 4.30769200000000E+0002
 20
 6.31730800000000E+0002
 40
 8.17308000000000E+0001
 50
 1.19533580000000E+0002
 51
 1.80000000000000E+0002
  0
LINE
  8
0
 10
 3.90481344574187E+0002
 20
 7.02842067558867E+0002
 11
 3.73561000000000E+0002
 21
 7.40713800000000E+0002
  0
LINE
  8
0
 10
 3.73561000000000E+0002
 20
 7.40713800000000E+0002
 11
 3.32692300000000E+0002
 21
 6.31730800000000E+0002
  0
LINE
  8
0
 10
 3.65384600000000E+0002
 20
 6.31730800000000E+0002
 11
 4.22252500000000E+0002
 21
 6.31730800000000E+0002
  0
LINE
  8
0
 10
 4.22252500000000E+0002
 20
 6.31730800000000E+0002
 11
 3.97187300169982E+0002
 21
 6.87832510499473E+0002
  0
ARC
  8
0
 10
 4.30769200000000E+0002
 20
 6.31730800000000E+0002
 40
 6.53846000000000E+0001
 50
 1.20904300000000E+0002
 51
 1.80000000000000E+0002
  0
ARC
  8
0
 10
 4.30769200000000E+0002
 20
 6.31730800000000E+0002
 40
 6.53846000000000E+0001
 50
 1.94477510000000E+0002
 51
 4.66542510000000E+0002
  0
LINE
  8
0
 10
 4.12152461705948E+0002
 20
 6.94409049596258E+0002
 11
 4.42317898064122E+0002
 21
 6.26891619837282E+0002
  0
ARC
  8
0
 10
 4.34855800000000E+0002
 20
 6.23557700000000E+0002
 40
 8.17300000000000E+0000
 50
 2.70000000000000E+0002
 51
 3.84074160000000E+0002
  0
LINE
  8
0
 10
 4.34855800000000E+0002
 20
 6.15384700000000E+0002
 11
 3.67460900000000E+0002
 21
 6.15384600000000E+0002
  0
LINE
  8
0
 10
 2.99221500000000E+0002
 20
 2.01061500000000E+0002
 11
 2.71030737921409E+0002
 21
 1.90797985667433E+0002
  0
ARC
  8
0
 10
 3.65000000000000E+0002
 20
 2.25000000000000E+0002
 40
 1.00000000000000E+0002
 50
 1.88625000000000E+0002
 51
 2.00000000000000E+0002
  0
LINE
  8
0
 10
 2.66130896017583E+0002
 20
 2.10003324444595E+0002
 11
 1.87500000000000E+0002
 21
 2.10000000000000E+0002
  0
LINE
  8
0
 10
 1.87500000000000E+0002
 20
 2.10000000000000E+0002
 11
 2.40000000000000E+0002
 21
 1.57500000000000E+0002
  0
LINE
  8
0
 10
 2.40000000000000E+0002
 20
 1.57500000000000E+0002
 11
 2.02500000000000E+0002
 21
 1.57500000000000E+0002
  0
LINE
  8
0
 10
 2.02500000000000E+0002
 20
 1.57500000000000E+0002
 11
 1.35000000000000E+0002
 21
 2.25000000000000E+0002
  0
LINE
  8
0
 10
 1.35000000000000E+0002
 20
 2.25000000000000E+0002
 11
 2.02500000000000E+0002
 21
 2.92500000000000E+0002
  0
LINE
  8
0
 10
 2.02500000000000E+0002
 20
 2.92500000000000E+0002
 11
 2.40000000000000E+0002
 21
 2.92500000000000E+0002
  0
LINE
  8
0
 10
 2.40000000000000E+0002
 20
 2.92500000000000E+0002
 11
 1.87500000000000E+0002
 21
 2.40000000000000E+0002
  0
LINE
  8
0
 10
 1.87500000000000E+0002
 20
 2.40000000000000E+0002
 11
 2.66112647913827E+0002
 21
 2.39875872995737E+0002
  0
ARC
  8
0
 10
 3.65000000000000E+0002
 20
 2.25000000000000E+0002
 40
 1.00000000000000E+0002
 50
 2.78495000000000E+0002
 51
 5.31445000000000E+0002
  0
LINE
  8
0
 10
 3.79772310265105E+0002
 20
 1.26097124159954E+0002
 11
 3.80000000000000E+0002
 21
 6.50000000000000E+0001
  0
LINE
  8
0
 10
 3.80000000000000E+0002
 20
 6.50000000000000E+0001
 11
 3.50000000000000E+0002
 21
 6.50000000000000E+0001
  0
LINE
  8
0
 10
 3.50000000000000E+0002
 20
 6.50000000000000E+0001
 11
 3.49998359285446E+0002
 21
 1.56626388307539E+0002
  0
ARC
  8
0
 10
 3.65000000000000E+0002
 20
 2.25000000000000E+0002
 40
 7.00000000000000E+0001
 50
 2.57625000000000E+0002
 51
 5.60000000000000E+0002
  0
ENDSEC
  0
EOF
