  0
SECTION
  2
HEADER
  9
$ACADVER
  1
AC1003
  9
$INSBASE
 10
0.0
 20
0.0
  9
$EXTMIN
 10
 0.00000000000000E+0000
 20
 0.00000000000000E+0000
  9
$EXTMAX
 10
 1.00000000000000E+0002
 20
 1.00000000000000E+0002
  9
$LIMMIN
 10
0.0
 20
0.0
  9
$LIMMAX
 10
410.0
 20
287.0
  9
$VIEWCTR
 10
227.0059616
 20
165.058879 
  9
$VIEWSIZE
 40
 1.00000000000000E+0002
9
$SNAPMODE
70
0
9
$SNAPUNIT
10
1
20
1
9
$GRIDMODE
70
0
9
$GRIDUNIT
10
1
20
1
9
$ORTHOMODE
70
0
9
$rEGENMODE
70
1
9
$FILLMODE
70
1
9
$DRAGMODE
70
2
9
$LTSCALE
40
25.0
9
$OSMODE
70
0
9
$ATTMODE
70
1
9
$TRACEWID
40
1.0
9
$TEXTSTYLE
7
STANDARD
9
$CLAYER
8
0
9
$CELTYPE
6
VONLAYER
9
$CECOLOR
62
256
9
$LUNITS
70
2
9
$LUPREC
70
2
9
$AXISMODE
70
0
9
$AXISUNIT
10
0
20
0
9
$SKETCHINC
40
1.0
9
$FILLETRAD
40
0.0
9
$AUNITS
70
0
9
$AUPREC
70
0
9
$MENU
1
ACAD
9
$ELEVATION
40
0.0
9
$THICKNESS
40
0.0
9
$VIEWDIR
10
0.0
20
0.0
30
1.0
9
$LIMCHECK
70
0
9
$BLIPMODE
70
1
9
$CHAMFERA
40
0.0
9
$CHAMFERB
40
0.0
9
$USRTIMER
70
1
9
$ANGBASE
50
0.0
9
$ANGDIR
70
0
9
$PDMODE
70
0
9
$PDSIZE
40
0.0
9
$PLINEWID
40
0.0
9
$COORDS
70
0
0
ENDSEC
0
SECTION
2
TABLES
0
TABLE
2
LTYPE
70
1
0
LTYPE
2
AUSGEZOGEN
70
64
3
Ausgezogene Linie
72
65
73
0
40
0.0
0
ENDTAB
0
TABLE
2
LAYER
70
1
0
LAYER
2
0
70
0
62
7
6
AUSGEZOGEN
0
ENDTAB
0
TABLE
2
STYLE
70
1
0
STYLE
2
STANDARD
70
0
40
0.0
41
1.0
50
0.0
71
0
42
3.5
3
txt
4

0
ENDTAB
0
TABLE
2
VIEW
70
0
0
ENDTAB
0
ENDSEC
0
SECTION
2
BLOCKS
0
ENDSEC
0
SECTION
2
ENTITIES
  0
LINE
  8
0
 10
 1.50000000000000E+0000
 20
 1.00000000000000E+0002
 11
 9.85000000000000E+0001
 21
 1.00000000000000E+0002
  0
ARC
  8
0
 10
 9.85000000000000E+0001
 20
 9.85000000000000E+0001
 40
 1.50000000000000E+0000
 50
 0.00000000000000E+0000
 51
 9.00000000000000E+0001
  0
LINE
  8
0
 10
 1.00000000000000E+0002
 20
 9.85000000000000E+0001
 11
 1.00000000000000E+0002
 21
 1.50000000000000E+0000
  0
ARC
  8
0
 10
 9.85000000000000E+0001
 20
 1.50000000000000E+0000
 40
 1.50000000000000E+0000
 50
 2.70000000000000E+0002
 51
 3.60000000000000E+0002
  0
LINE
  8
0
 10
 9.85000000000000E+0001
 20
 0.00000000000000E+0000
 11
 1.50000000000000E+0000
 21
 0.00000000000000E+0000
  0
ARC
  8
0
 10
 1.50000000000000E+0000
 20
 1.50000000000000E+0000
 40
 1.50000000000000E+0000
 50
 1.80000000000000E+0002
 51
 2.70000000000000E+0002
  0
LINE
  8
0
 10
 0.00000000000000E+0000
 20
 1.50000000000000E+0000
 11
 0.00000000000000E+0000
 21
 9.85000000000000E+0001
  0
ARC
  8
0
 10
 1.50000000000000E+0000
 20
 9.85000000000000E+0001
 40
 1.50000000000000E+0000
 50
 9.00000000000000E+0001
 51
 1.80000000000000E+0002
  0
LINE
  8
0
 10
 2.47000000000000E+0000
 20
 9.90000000000000E+0001
 11
 9.75500000000000E+0001
 21
 9.90000000000000E+0001
  0
ARC
  8
0
 10
 9.75500000000000E+0001
 20
 9.75500000000000E+0001
 40
 1.45000000000000E+0000
 50
 0.00000000000000E+0000
 51
 9.00000000000000E+0001
  0
LINE
  8
0
 10
 9.90000000000000E+0001
 20
 9.75500000000000E+0001
 11
 9.90000000000000E+0001
 21
 2.45000000000000E+0000
  0
ARC
  8
0
 10
 9.75500000000000E+0001
 20
 2.45000000000000E+0000
 40
 1.45000000000000E+0000
 50
 2.70000000000000E+0002
 51
 3.60000000000000E+0002
  0
LINE
  8
0
 10
 9.75500000000000E+0001
 20
 1.00000000000000E+0000
 11
 2.45000000000000E+0000
 21
 1.00000000000000E+0000
  0
ARC
  8
0
 10
 2.45000000000000E+0000
 20
 2.45000000000000E+0000
 40
 1.45000000000000E+0000
 50
 1.80000000000000E+0002
 51
 2.70000000000000E+0002
  0
LINE
  8
0
 10
 1.00000000000000E+0000
 20
 2.45000000000000E+0000
 11
 1.00000000000000E+0000
 21
 9.75500000000000E+0001
  0
ARC
  8
0
 10
 2.45000000000000E+0000
 20
 9.75500000000000E+0001
 40
 1.45000000000000E+0000
 50
 9.00000000000000E+0001
 51
 1.80000000000000E+0002
  0
LINE
  8
0
 10
 5.00000000000000E+0000
 20
 9.50000000000000E+0001
 11
 9.50000000000000E+0001
 21
 9.50000000000000E+0001
  0
LINE
  8
0
 10
 9.50000000000000E+0001
 20
 9.50000000000000E+0001
 11
 9.50000000000000E+0001
 21
 5.00000000000000E+0000
  0
LINE
  8
0
 10
 9.50000000000000E+0001
 20
 5.00000000000000E+0000
 11
 5.00000000000000E+0000
 21
 5.00000000000000E+0000
  0
LINE
  8
0
 10
 5.00000000000000E+0000
 20
 5.00000000000000E+0000
 11
 5.00000000000000E+0000
 21
 9.50000000000000E+0001
  0
CIRCLE
  8
0
 10
 2.09000000000000E+0001
 20
 9.00000000000000E+0001
 40
 2.25000000000000E+0000
  0
LINE
  8
0
 10
 2.09138000000000E+0001
 20
 7.27268000000000E+0001
 11
 1.55207132794368E+0001
 21
 7.27177075742823E+0001
  0
ARC
  8
0
 10
 2.63000000000000E+0001
 20
 7.11000000000000E+0001
 40
 1.09000000000000E+0001
 50
 1.38780000000000E+0002
 51
 1.71465000000000E+0002
  0
LINE
  8
0
 10
 1.81011841860012E+0001
 20
 7.82825774794375E+0001
 11
 1.80707304500068E+0001
 21
 7.82632237360222E+0001
  0
ARC
  8
0
 10
 2.09000000000000E+0001
 20
 8.08000000000000E+0001
 40
 3.80000000000000E+0000
 50
 1.80000000000000E+0002
 51
 2.21880000000000E+0002
  0
LINE
  8
0
 10
 1.71000000000000E+0001
 20
 8.08000000000000E+0001
 11
 1.71000000000000E+0001
 21
 8.30000000000000E+0001
  0
ARC
  8
0
 10
 2.09000000000000E+0001
 20
 8.30000000000000E+0001
 40
 3.80000000000000E+0000
 50
 5.00000000000000E-0003
 51
 1.80000000000000E+0002
  0
LINE
  8
0
 10
 2.46999999855307E+0001
 20
 8.30003316125575E+0001
 11
 2.47000000000000E+0001
 21
 8.08000000000000E+0001
  0
ARC
  8
0
 10
 2.09000000000000E+0001
 20
 8.08000000000000E+0001
 40
 3.80000000000000E+0000
 50
 3.18120000000000E+0002
 51
 3.60000000000000E+0002
  0
LINE
  8
0
 10
 2.37292695499932E+0001
 20
 7.82632237360222E+0001
 11
 2.36988158139988E+0001
 21
 7.82825774794375E+0001
  0
ARC
  8
0
 10
 1.55000000000000E+0001
 20
 7.11000000000000E+0001
 40
 1.09000000000000E+0001
 50
 8.53500000000000E+0000
 51
 4.12200000000000E+0001
  0
LINE
  8
0
 10
 2.62792867205632E+0001
 20
 7.27177075742823E+0001
 11
 2.09138000000000E+0001
 21
 7.27268000000000E+0001
  0
LINE
  8
0
 10
 2.06439000000000E+0001
 20
 7.21872000000000E+0001
 11
 1.90249000000000E+0001
 21
 7.21872000000000E+0001
  0
LINE
  8
0
 10
 1.90249000000000E+0001
 20
 7.21872000000000E+0001
 11
 1.90500000000000E+0001
 21
 6.49000000000000E+0001
  0
ARC
  8
0
 10
 1.98500000000000E+0001
 20
 6.49000000000000E+0001
 40
 8.00000000000000E-0001
 50
 1.80000000000000E+0002
 51
 3.60000000000000E+0002
  0
LINE
  8
0
 10
 2.06500000000000E+0001
 20
 6.49000000000000E+0001
 11
 2.06439000000000E+0001
 21
 7.21872000000000E+0001
  0
LINE
  8
0
 10
 2.28026000000000E+0001
 20
 7.21872000000000E+0001
 11
 2.11837000000000E+0001
 21
 7.21872000000000E+0001
  0
LINE
  8
0
 10
 2.11837000000000E+0001
 20
 7.21872000000000E+0001
 11
 2.12000000000000E+0001
 21
 6.65000000000000E+0001
  0
ARC
  8
0
 10
 2.20000000000000E+0001
 20
 6.65000000000000E+0001
 40
 8.00000000000000E-0001
 50
 1.80000000000000E+0002
 51
 3.60000000000000E+0002
  0
LINE
  8
0
 10
 2.28000000000000E+0001
 20
 6.65000000000000E+0001
 11
 2.28026000000000E+0001
 21
 7.21872000000000E+0001
  0
LINE
  8
0
 10
 1.87553000000000E+0001
 20
 7.89854000000000E+0001
 11
 1.91358422841740E+0001
 21
 7.93580488145911E+0001
  0
ARC
  8
0
 10
 1.87500000000000E+0001
 20
 7.97500000000000E+0001
 40
 5.50000000000000E-0001
 50
 3.14550000000000E+0002
 51
 3.60000000000000E+0002
  0
LINE
  8
0
 10
 1.93000000000000E+0001
 20
 7.97500000000000E+0001
 11
 1.93000000000000E+0001
 21
 8.38000000000000E+0001
  0
ARC
  8
0
 10
 1.90500000000000E+0001
 20
 8.38000000000000E+0001
 40
 2.50000000000000E-0001
 50
 0.00000000000000E+0000
 51
 1.80000000000000E+0002
  0
LINE
  8
0
 10
 1.88000000000000E+0001
 20
 8.38000000000000E+0001
 11
 1.87553000000000E+0001
 21
 7.89854000000000E+0001
  0
LINE
  8
0
 10
 2.30766000000000E+0001
 20
 7.89854000000000E+0001
 11
 2.27143287735174E+0001
 21
 7.93578804964511E+0001
  0
ARC
  8
0
 10
 2.31000000000000E+0001
 20
 7.97500000000000E+0001
 40
 5.50000000000000E-0001
 50
 1.80000000000000E+0002
 51
 2.25475000000000E+0002
  0
LINE
  8
0
 10
 2.25500000000000E+0001
 20
 7.97500000000000E+0001
 11
 2.25500000000000E+0001
 21
 8.38000000000000E+0001
  0
ARC
  8
0
 10
 2.28000000000000E+0001
 20
 8.38000000000000E+0001
 40
 2.50000000000000E-0001
 50
 0.00000000000000E+0000
 51
 1.80000000000000E+0002
  0
LINE
  8
0
 10
 2.30500000000000E+0001
 20
 8.38000000000000E+0001
 11
 2.30766000000000E+0001
 21
 7.89854000000000E+0001
  0
LINE
  8
0
 10
 7.56385000000000E+0001
 20
 7.69024000000000E+0001
 11
 7.56500000000000E+0001
 21
 6.40500000000000E+0001
  0
ARC
  8
0
 10
 7.56500000000000E+0001
 20
 6.63000000000000E+0001
 40
 2.25000000000000E+0000
 50
 2.70000000000000E+0002
 51
 3.60000000000000E+0002
  0
LINE
  8
0
 10
 7.79000000000000E+0001
 20
 6.63000000000000E+0001
 11
 7.78662000000000E+0001
 21
 7.41176000000000E+0001
  0
LINE
  8
0
 10
 7.78662000000000E+0001
 20
 7.41176000000000E+0001
 11
 8.34426513540716E+0001
 21
 6.51920999115176E+0001
  0
ARC
  8
0
 10
 8.22500000000000E+0001
 20
 6.71000000000000E+0001
 40
 2.25000000000000E+0000
 50
 3.02010000000000E+0002
 51
 3.92000000000000E+0002
  0
LINE
  8
0
 10
 8.41581082163520E+0001
 20
 6.82923183445247E+0001
 11
 8.00940000000000E+0001
 21
 7.47565000000000E+0001
  0
LINE
  8
0
 10
 8.00940000000000E+0001
 20
 7.47565000000000E+0001
 11
 8.00940000000000E+0001
 21
 7.69024000000000E+0001
  0
LINE
  8
0
 10
 8.00940000000000E+0001
 20
 7.69024000000000E+0001
 11
 7.56385000000000E+0001
 21
 7.69024000000000E+0001
  0
LINE
  8
0
 10
 7.56385000000000E+0001
 20
 7.74594000000000E+0001
 11
 8.00940000000000E+0001
 21
 7.74594000000000E+0001
  0
LINE
  8
0
 10
 8.00940000000000E+0001
 20
 7.74594000000000E+0001
 11
 8.00940000000000E+0001
 21
 8.16608000000000E+0001
  0
LINE
  8
0
 10
 8.00940000000000E+0001
 20
 8.16608000000000E+0001
 11
 8.30833425652548E+0001
 21
 7.68963062124950E+0001
  0
ARC
  8
0
 10
 8.20500000000000E+0001
 20
 7.85500000000000E+0001
 40
 1.95000000000000E+0000
 50
 3.02000000000000E+0002
 51
 3.92000000000000E+0002
  0
LINE
  8
0
 10
 8.37036937875050E+0001
 20
 7.95833425652548E+0001
 11
 7.97580041596823E+0001
 21
 8.58924848538388E+0001
  0
ARC
  8
0
 10
 7.78500000000000E+0001
 20
 8.47000000000000E+0001
 40
 2.25000000000000E+0000
 50
 3.20050000000000E+0001
 51
 1.80000000000000E+0002
  0
LINE
  8
0
 10
 7.56000000000000E+0001
 20
 8.47000000000000E+0001
 11
 7.56385000000000E+0001
 21
 8.21936000000000E+0001
  0
LINE
  8
0
 10
 7.56385000000000E+0001
 20
 8.21936000000000E+0001
 11
 7.14778230204224E+0001
 21
 7.96968429091261E+0001
  0
ARC
  8
0
 10
 7.31500000000000E+0001
 20
 8.07000000000000E+0001
 40
 1.95000000000000E+0000
 50
 2.10960000000000E+0002
 51
 3.00960000000000E+0002
  0
LINE
  8
0
 10
 7.41531570908739E+0001
 20
 7.90278230204224E+0001
 11
 7.56385000000000E+0001
 21
 7.99203000000000E+0001
  0
LINE
  8
0
 10
 7.56385000000000E+0001
 20
 7.99203000000000E+0001
 11
 7.56385000000000E+0001
 21
 7.74594000000000E+0001
  0
CIRCLE
  8
0
 10
 7.64500000000000E+0001
 20
 9.00000000000000E+0001
 40
 2.25000000000000E+0000
  0
LINE
  8
0
 10
 1.96944000000000E+0001
 20
 3.60861000000000E+0001
 11
 1.97000000000000E+0001
 21
 2.32500000000000E+0001
  0
ARC
  8
0
 10
 1.97000000000000E+0001
 20
 2.55000000000000E+0001
 40
 2.25000000000000E+0000
 50
 2.70000000000000E+0002
 51
 3.60000000000000E+0002
  0
LINE
  8
0
 10
 2.19500000000000E+0001
 20
 2.55000000000000E+0001
 11
 2.19221000000000E+0001
 21
 3.33013000000000E+0001
  0
LINE
  8
0
 10
 2.19221000000000E+0001
 20
 3.33013000000000E+0001
 11
 2.74923183445247E+0001
 21
 2.43918917836480E+0001
  0
ARC
  8
0
 10
 2.63000000000000E+0001
 20
 2.63000000000000E+0001
 40
 2.25000000000000E+0000
 50
 3.02000000000000E+0002
 51
 3.92000000000000E+0002
  0
LINE
  8
0
 10
 2.82081082163520E+0001
 20
 2.74923183445247E+0001
 11
 2.41499000000000E+0001
 21
 3.39403000000000E+0001
  0
LINE
  8
0
 10
 2.41499000000000E+0001
 20
 3.39403000000000E+0001
 11
 2.41499000000000E+0001
 21
 3.60861000000000E+0001
  0
LINE
  8
0
 10
 2.41499000000000E+0001
 20
 3.60861000000000E+0001
 11
 1.96944000000000E+0001
 21
 3.60861000000000E+0001
  0
LINE
  8
0
 10
 1.96944000000000E+0001
 20
 3.66431000000000E+0001
 11
 2.41499000000000E+0001
 21
 3.66431000000000E+0001
  0
LINE
  8
0
 10
 2.41499000000000E+0001
 20
 3.66431000000000E+0001
 11
 2.41499000000000E+0001
 21
 4.08446000000000E+0001
  0
LINE
  8
0
 10
 2.41499000000000E+0001
 20
 4.08446000000000E+0001
 11
 2.71334868733269E+0001
 21
 3.60963963949420E+0001
  0
ARC
  8
0
 10
 2.61000000000000E+0001
 20
 3.77500000000000E+0001
 40
 1.95000000000000E+0000
 50
 3.02005000000000E+0002
 51
 3.92000000000000E+0002
  0
LINE
  8
0
 10
 2.77536937875050E+0001
 20
 3.87833425652547E+0001
 11
 2.38080041596823E+0001
 21
 4.50924848538388E+0001
  0
ARC
  8
0
 10
 2.19000000000000E+0001
 20
 4.39000000000000E+0001
 40
 2.25000000000000E+0000
 50
 3.20050000000000E+0001
 51
 1.80000000000000E+0002
  0
LINE
  8
0
 10
 1.96500000000000E+0001
 20
 4.39000000000000E+0001
 11
 1.96944000000000E+0001
 21
 4.13773000000000E+0001
  0
LINE
  8
0
 10
 1.96944000000000E+0001
 20
 4.13773000000000E+0001
 11
 1.55277354848189E+0001
 21
 3.88469888379155E+0001
  0
ARC
  8
0
 10
 1.72000000000000E+0001
 20
 3.98500000000000E+0001
 40
 1.95000000000000E+0000
 50
 2.10955000000000E+0002
 51
 3.00965000000000E+0002
  0
LINE
  8
0
 10
 1.82033030120239E+0001
 20
 3.81779105687602E+0001
 11
 1.96944000000000E+0001
 21
 3.91040000000000E+0001
  0
LINE
  8
0
 10
 1.96944000000000E+0001
 20
 3.91040000000000E+0001
 11
 1.96944000000000E+0001
 21
 3.66431000000000E+0001
  0
CIRCLE
  8
0
 10
 2.05500000000000E+0001
 20
 4.91500000000000E+0001
 40
 2.25000000000000E+0000
  0
CIRCLE
  8
0
 10
 7.91000000000000E+0001
 20
 4.92000000000000E+0001
 40
 2.25000000000000E+0000
  0
LINE
  8
0
 10
 7.90862000000000E+0001
 20
 3.19105000000000E+0001
 11
 8.44792867205632E+0001
 21
 3.19177075742823E+0001
  0
ARC
  8
0
 10
 7.37000000000000E+0001
 20
 3.03000000000000E+0001
 40
 1.09000000000000E+0001
 50
 8.53500000000000E+0000
 51
 4.12200000000000E+0001
  0
LINE
  8
0
 10
 8.18988158139988E+0001
 20
 3.74825774794375E+0001
 11
 8.19292695499932E+0001
 21
 3.74632237360222E+0001
  0
ARC
  8
0
 10
 7.91000000000000E+0001
 20
 4.00000000000000E+0001
 40
 3.80000000000000E+0000
 50
 3.18120000000000E+0002
 51
 3.60000000000000E+0002
  0
LINE
  8
0
 10
 8.29000000000000E+0001
 20
 4.00000000000000E+0001
 11
 8.29000000000000E+0001
 21
 4.21500000000000E+0001
  0
ARC
  8
0
 10
 7.91000000000000E+0001
 20
 4.21500000000000E+0001
 40
 3.80000000000000E+0000
 50
 0.00000000000000E+0000
 51
 1.79995000000000E+0002
  0
LINE
  8
0
 10
 7.53000000144693E+0001
 20
 4.21503316125575E+0001
 11
 7.53000000000000E+0001
 21
 4.00000000000000E+0001
  0
ARC
  8
0
 10
 7.91000000000000E+0001
 20
 4.00000000000000E+0001
 40
 3.80000000000000E+0000
 50
 1.80000000000000E+0002
 51
 2.21885000000000E+0002
  0
LINE
  8
0
 10
 7.62709518362705E+0001
 20
 3.74629768453365E+0001
 11
 7.63011841860012E+0001
 21
 3.74825774794375E+0001
  0
ARC
  8
0
 10
 8.45000000000000E+0001
 20
 3.03000000000000E+0001
 40
 1.09000000000000E+0001
 50
 1.38780000000000E+0002
 51
 1.71465000000000E+0002
  0
LINE
  8
0
 10
 7.37207132794368E+0001
 20
 3.19177075742823E+0001
 11
 7.90862000000000E+0001
 21
 3.19105000000000E+0001
  0
LINE
  8
0
 10
 7.93561000000000E+0001
 20
 3.13709000000000E+0001
 11
 8.09751000000000E+0001
 21
 3.13709000000000E+0001
  0
LINE
  8
0
 10
 8.09751000000000E+0001
 20
 3.13709000000000E+0001
 11
 8.09500000000000E+0001
 21
 2.41000000000000E+0001
  0
ARC
  8
0
 10
 8.01500000000000E+0001
 20
 2.41000000000000E+0001
 40
 8.00000000000000E-0001
 50
 1.80000000000000E+0002
 51
 3.60000000000000E+0002
  0
LINE
  8
0
 10
 7.93500000000000E+0001
 20
 2.41000000000000E+0001
 11
 7.93561000000000E+0001
 21
 3.13709000000000E+0001
  0
LINE
  8
0
 10
 7.71974000000000E+0001
 20
 3.13709000000000E+0001
 11
 7.88163000000000E+0001
 21
 3.13709000000000E+0001
  0
LINE
  8
0
 10
 7.88163000000000E+0001
 20
 3.13709000000000E+0001
 11
 7.88000000000000E+0001
 21
 2.57000000000000E+0001
  0
ARC
  8
0
 10
 7.80000000000000E+0001
 20
 2.57000000000000E+0001
 40
 8.00000000000000E-0001
 50
 1.80000000000000E+0002
 51
 3.60000000000000E+0002
  0
LINE
  8
0
 10
 7.72000000000000E+0001
 20
 2.57000000000000E+0001
 11
 7.71974000000000E+0001
 21
 3.13709000000000E+0001
  0
LINE
  8
0
 10
 8.12447000000000E+0001
 20
 3.81691000000000E+0001
 11
 8.08641577158260E+0001
 21
 3.85580488145911E+0001
  0
ARC
  8
0
 10
 8.12500000000000E+0001
 20
 3.89500000000000E+0001
 40
 5.50000000000000E-0001
 50
 1.80000000000000E+0002
 51
 2.25450000000000E+0002
  0
LINE
  8
0
 10
 8.07000000000000E+0001
 20
 3.89500000000000E+0001
 11
 8.07000000000000E+0001
 21
 4.29500000000000E+0001
  0
ARC
  8
0
 10
 8.09500000000000E+0001
 20
 4.29500000000000E+0001
 40
 2.50000000000000E-0001
 50
 0.00000000000000E+0000
 51
 1.80000000000000E+0002
  0
LINE
  8
0
 10
 8.12000000000000E+0001
 20
 4.29500000000000E+0001
 11
 8.12447000000000E+0001
 21
 3.81691000000000E+0001
  0
LINE
  8
0
 10
 7.69234000000000E+0001
 20
 3.81691000000000E+0001
 11
 7.72856712264826E+0001
 21
 3.85578804964512E+0001
  0
ARC
  8
0
 10
 7.69000000000000E+0001
 20
 3.89500000000000E+0001
 40
 5.50000000000000E-0001
 50
 3.14525000000000E+0002
 51
 3.60000000000000E+0002
  0
LINE
  8
0
 10
 7.74500000000000E+0001
 20
 3.89500000000000E+0001
 11
 7.74500000000000E+0001
 21
 4.29500000000000E+0001
  0
ARC
  8
0
 10
 7.72000000000000E+0001
 20
 4.29500000000000E+0001
 40
 2.50000000000000E-0001
 50
 0.00000000000000E+0000
 51
 1.80000000000000E+0002
  0
LINE
  8
0
 10
 7.69500000000000E+0001
 20
 4.29500000000000E+0001
 11
 7.69234000000000E+0001
 21
 3.81691000000000E+0001
  0
ARC
  8
0
 10
 3.24000000000000E+0001
 20
 5.86500000000000E+0001
 40
 2.65000000000000E+0000
 50
 1.43115000000000E+0002
 51
 1.80000000000000E+0002
  0
LINE
  8
0
 10
 3.02804191750709E+0001
 20
 6.02405587466652E+0001
 11
 3.08199915323732E+0001
 21
 6.09099887098520E+0001
  0
ARC
  8
0
 10
 2.45000000000000E+0001
 20
 6.56500000000000E+0001
 40
 7.90000000000000E+0000
 50
 3.23130000000000E+0002
 51
 3.36485000000000E+0002
  0
LINE
  8
0
 10
 3.17439496405066E+0001
 20
 6.24979857859133E+0001
 11
 3.52326975684665E+0001
 21
 7.05277761102520E+0001
  0
ARC
  8
0
 10
 3.72500000000000E+0001
 20
 6.96500000000000E+0001
 40
 2.20000000000000E+0000
 50
 9.00000000000000E+0001
 51
 1.56485000000000E+0002
  0
LINE
  8
0
 10
 3.72500000000000E+0001
 20
 7.18500000000000E+0001
 11
 4.82413000000000E+0001
 21
 7.18333000000000E+0001
  0
LINE
  8
0
 10
 4.82413000000000E+0001
 20
 7.18333000000000E+0001
 11
 4.82413000000000E+0001
 21
 6.96343000000000E+0001
  0
LINE
  8
0
 10
 4.82413000000000E+0001
 20
 6.96343000000000E+0001
 11
 3.78000000000000E+0001
 21
 6.96500000000000E+0001
  0
ARC
  8
0
 10
 3.78000000000000E+0001
 20
 6.87500000000000E+0001
 40
 9.00000000000000E-0001
 50
 9.00000000000000E+0001
 51
 1.56470000000000E+0002
  0
LINE
  8
0
 10
 3.69748339522544E+0001
 20
 6.91093062671982E+0001
 11
 3.39466000000000E+0001
 21
 6.21570000000000E+0001
  0
LINE
  8
0
 10
 3.39466000000000E+0001
 20
 6.21570000000000E+0001
 11
 4.82413000000000E+0001
 21
 6.21570000000000E+0001
  0
LINE
  8
0
 10
 4.82413000000000E+0001
 20
 6.21570000000000E+0001
 11
 4.82413000000000E+0001
 21
 5.07212000000000E+0001
  0
LINE
  8
0
 10
 4.82413000000000E+0001
 20
 5.07212000000000E+0001
 11
 3.19500000000000E+0001
 21
 5.07000000000000E+0001
  0
ARC
  8
0
 10
 3.19500000000000E+0001
 20
 5.29000000000000E+0001
 40
 2.20000000000000E+0000
 50
 1.80000000000000E+0002
 51
 2.70000000000000E+0002
  0
LINE
  8
0
 10
 2.97500000000000E+0001
 20
 5.29000000000000E+0001
 11
 2.97683000000000E+0001
 21
 5.86383000000000E+0001
  0
LINE
  8
0
 10
 3.19672000000000E+0001
 20
 4.98415000000000E+0001
 11
 3.72452000000000E+0001
 21
 4.98415000000000E+0001
  0
LINE
  8
0
 10
 3.72452000000000E+0001
 20
 4.98415000000000E+0001
 11
 3.72500000000000E+0001
 21
 4.50000000000000E+0001
  0
ARC
  8
0
 10
 3.59500000000000E+0001
 20
 4.50000000000000E+0001
 40
 1.30000000000000E+0000
 50
 2.70000000000000E+0002
 51
 3.60000000000000E+0002
  0
LINE
  8
0
 10
 3.59500000000000E+0001
 20
 4.37000000000000E+0001
 11
 3.33000000000000E+0001
 21
 4.37000000000000E+0001
  0
ARC
  8
0
 10
 3.33000000000000E+0001
 20
 4.50000000000000E+0001
 40
 1.30000000000000E+0000
 50
 1.80000000000000E+0002
 51
 2.70000000000000E+0002
  0
LINE
  8
0
 10
 3.20000000000000E+0001
 20
 4.50000000000000E+0001
 11
 3.19672000000000E+0001
 21
 4.98415000000000E+0001
  0
CIRCLE
  8
0
 10
 3.46500000000000E+0001
 20
 5.73500000000000E+0001
 40
 2.65000000000000E+0000
  0
LINE
  8
0
 10
 5.17586000000000E+0001
 20
 7.18333000000000E+0001
 11
 5.19059000000000E+0001
 21
 7.18333000000000E+0001
  0
LINE
  8
0
 10
 5.19059000000000E+0001
 20
 7.18333000000000E+0001
 11
 6.27500000000000E+0001
 21
 7.18500000000000E+0001
  0
ARC
  8
0
 10
 6.27500000000000E+0001
 20
 6.96500000000000E+0001
 40
 2.20000000000000E+0000
 50
 2.35200000000000E+0001
 51
 9.00000000000000E+0001
  0
LINE
  8
0
 10
 6.47672258234361E+0001
 20
 7.05279521497566E+0001
 11
 6.82110332449137E+0001
 21
 6.25261279730828E+0001
  0
ARC
  8
0
 10
 7.55000000000000E+0001
 20
 6.57000000000000E+0001
 40
 7.95000000000000E+0000
 50
 2.03530000000000E+0002
 51
 2.16855000000000E+0002
  0
LINE
  8
0
 10
 6.91387599531328E+0001
 20
 6.09316538437176E+0001
 11
 6.97195808249291E+0001
 21
 6.02405587466652E+0001
  0
ARC
  8
0
 10
 6.76000000000000E+0001
 20
 5.86500000000000E+0001
 40
 2.65000000000000E+0000
 50
 0.00000000000000E+0000
 51
 3.68850000000000E+0001
  0
LINE
  8
0
 10
 7.02500000000000E+0001
 20
 5.86500000000000E+0001
 11
 7.02500000000000E+0001
 21
 5.29000000000000E+0001
  0
ARC
  8
0
 10
 6.80500000000000E+0001
 20
 5.29000000000000E+0001
 40
 2.20000000000000E+0000
 50
 2.69995000000000E+0002
 51
 3.60000000000000E+0002
  0
LINE
  8
0
 10
 6.80498080137825E+0001
 20
 5.07000000083770E+0001
 11
 5.18123000000000E+0001
 21
 5.07212000000000E+0001
  0
LINE
  8
0
 10
 5.18123000000000E+0001
 20
 5.07212000000000E+0001
 11
 5.17586000000000E+0001
 21
 5.07212000000000E+0001
  0
LINE
  8
0
 10
 5.17586000000000E+0001
 20
 5.07212000000000E+0001
 11
 5.17586000000000E+0001
 21
 6.21570000000000E+0001
  0
LINE
  8
0
 10
 5.17586000000000E+0001
 20
 6.21570000000000E+0001
 11
 5.18630000000000E+0001
 21
 6.21570000000000E+0001
  0
LINE
  8
0
 10
 5.18630000000000E+0001
 20
 6.21570000000000E+0001
 11
 6.60534000000000E+0001
 21
 6.21570000000000E+0001
  0
LINE
  8
0
 10
 6.60534000000000E+0001
 20
 6.21570000000000E+0001
 11
 6.30253853814825E+0001
 21
 6.91088021349365E+0001
  0
ARC
  8
0
 10
 6.22000000000000E+0001
 20
 6.87500000000000E+0001
 40
 9.00000000000000E-0001
 50
 2.34950000000000E+0001
 51
 9.00000000000000E+0001
  0
LINE
  8
0
 10
 6.22000000000000E+0001
 20
 6.96500000000000E+0001
 11
 5.18960000000000E+0001
 21
 6.96343000000000E+0001
  0
LINE
  8
0
 10
 5.18960000000000E+0001
 20
 6.96343000000000E+0001
 11
 5.17586000000000E+0001
 21
 6.96343000000000E+0001
  0
LINE
  8
0
 10
 5.17586000000000E+0001
 20
 6.96343000000000E+0001
 11
 5.17586000000000E+0001
 21
 7.18333000000000E+0001
  0
CIRCLE
  8
0
 10
 6.54000000000000E+0001
 20
 5.73000000000000E+0001
 40
 2.65000000000000E+0000
  0
LINE
  8
0
 10
 6.27544000000000E+0001
 20
 4.98415000000000E+0001
 11
 6.80326000000000E+0001
 21
 4.98415000000000E+0001
  0
LINE
  8
0
 10
 6.80326000000000E+0001
 20
 4.98415000000000E+0001
 11
 6.80000000000000E+0001
 21
 4.50000000000000E+0001
  0
ARC
  8
0
 10
 6.67000000000000E+0001
 20
 4.50000000000000E+0001
 40
 1.30000000000000E+0000
 50
 2.70000000000000E+0002
 51
 3.60000000000000E+0002
  0
LINE
  8
0
 10
 6.67000000000000E+0001
 20
 4.37000000000000E+0001
 11
 6.40500000000000E+0001
 21
 4.37000000000000E+0001
  0
ARC
  8
0
 10
 6.40500000000000E+0001
 20
 4.50000000000000E+0001
 40
 1.30000000000000E+0000
 50
 1.80000000000000E+0002
 51
 2.70000000000000E+0002
  0
LINE
  8
0
 10
 6.27500000000000E+0001
 20
 4.50000000000000E+0001
 11
 6.27544000000000E+0001
 21
 4.98415000000000E+0001
  0
LINE
  8
0
 10
 3.65517785714286E+0001
 20
 7.93780000000000E+0000
 11
 3.65517785714286E+0001
 21
 1.66015580357143E+0001
  0
LINE
  8
0
 10
 3.65517785714286E+0001
 20
 1.66015580357143E+0001
 11
 3.55173000000000E+0001
 21
 1.66015580357143E+0001
  0
LINE
  8
0
 10
 3.55173000000000E+0001
 20
 1.66015580357143E+0001
 11
 3.55173000000000E+0001
 21
 1.82825857142857E+0001
  0
LINE
  8
0
 10
 3.55173000000000E+0001
 20
 1.82825857142857E+0001
 11
 3.65517785714286E+0001
 21
 1.82825857142857E+0001
  0
LINE
  8
0
 10
 3.65517785714286E+0001
 20
 1.82825857142857E+0001
 11
 3.65517785714286E+0001
 21
 1.98343035714286E+0001
  0
ARC
  8
0
 10
 3.91379750000000E+0001
 20
 1.98343035714286E+0001
 40
 2.58619642857143E+0000
 50
 9.00000000000000E+0001
 51
 1.80000000000000E+0002
  0
LINE
  8
0
 10
 3.91379750000000E+0001
 20
 2.24205000000000E+0001
 11
 4.06896928571429E+0001
 21
 2.24205000000000E+0001
  0
LINE
  8
0
 10
 4.06896928571429E+0001
 20
 2.24205000000000E+0001
 11
 4.06896928571429E+0001
 21
 2.04808526785714E+0001
  0
LINE
  8
0
 10
 4.06896928571429E+0001
 20
 2.04808526785714E+0001
 11
 3.92672848214286E+0001
 21
 2.04808526785714E+0001
  0
ARC
  8
0
 10
 3.92672848214286E+0001
 20
 1.98343035714286E+0001
 40
 6.46549107142857E-0001
 50
 9.00000000000000E+0001
 51
 1.80000000000000E+0002
  0
LINE
  8
0
 10
 3.86207357142857E+0001
 20
 1.98343035714286E+0001
 11
 3.86207357142857E+0001
 21
 1.82825857142857E+0001
  0
LINE
  8
0
 10
 3.86207357142857E+0001
 20
 1.82825857142857E+0001
 11
 4.06896928571429E+0001
 21
 1.82825857142857E+0001
  0
LINE
  8
0
 10
 4.06896928571429E+0001
 20
 1.82825857142857E+0001
 11
 4.06896928571429E+0001
 21
 1.66015580357143E+0001
  0
LINE
  8
0
 10
 4.06896928571429E+0001
 20
 1.66015580357143E+0001
 11
 3.86207357142857E+0001
 21
 1.66015580357143E+0001
  0
LINE
  8
0
 10
 3.86207357142857E+0001
 20
 1.66015580357143E+0001
 11
 3.86207357142857E+0001
 21
 7.93780000000000E+0000
  0
LINE
  8
0
 10
 3.86207357142857E+0001
 20
 7.93780000000000E+0000
 11
 3.65517785714286E+0001
 21
 7.93780000000000E+0000
  0
LINE
  8
0
 10
 4.30172696428571E+0001
 20
 7.93780000000000E+0000
 11
 4.30172696428571E+0001
 21
 1.82825857142857E+0001
  0
LINE
  8
0
 10
 4.30172696428571E+0001
 20
 1.82825857142857E+0001
 11
 4.50862267857143E+0001
 21
 1.82825857142857E+0001
  0
LINE
  8
0
 10
 4.50862267857143E+0001
 20
 1.82825857142857E+0001
 11
 4.50862267371116E+0001
 21
 1.71149907355480E+0001
  0
ARC
  8
0
 10
 4.78017330357143E+0001
 20
 1.49205303571428E+0001
 40
 3.49136517857143E+0000
 50
 5.09772000000000E+0001
 51
 1.41057560000000E+0002
  0
LINE
  8
0
 10
 4.99999998785599E+0001
 20
 1.76329561529549E+0001
 11
 4.85304517284851E+0001
 21
 1.58196921341889E+0001
  0
ARC
  8
0
 10
 4.71551839285714E+0001
 20
 1.42739812500000E+0001
 40
 2.06895714285714E+0000
 50
 4.83395000000000E+0001
 51
 1.80000000000000E+0002
  0
LINE
  8
0
 10
 4.50862267857143E+0001
 20
 1.42739812500000E+0001
 11
 4.50862267857143E+0001
 21
 7.93780000000000E+0000
  0
LINE
  8
0
 10
 4.50862267857143E+0001
 20
 7.93780000000000E+0000
 11
 4.30172696428571E+0001
 21
 7.93780000000000E+0000
  0
LINE
  8
0
 10
 5.95689267857162E+0001
 20
 1.23343339285714E+0001
 11
 5.31034357142876E+0001
 21
 1.23343339285714E+0001
  0
LINE
  8
0
 10
 5.31034357142876E+0001
 20
 1.23343339285714E+0001
 11
 5.31034357142876E+0001
 21
 1.20757142857142E+0001
  0
ARC
  8
0
 10
 5.53017026785733E+0001
 20
 1.20757142857142E+0001
 40
 2.19826696428571E+0000
 50
 1.80000000000000E+0002
 51
 2.48198600000000E+0002
  0
LINE
  8
0
 10
 5.44852871618314E+0001
 20
 1.00346745138595E+0001
 11
 5.44852855787615E+0001
 21
 1.00346702457440E+0001
  0
ARC
  8
0
 10
 5.55603223214305E+0001
 20
 1.27222633928571E+0001
 40
 2.89462621464286E+0000
 50
 2.48198600000000E+0002
 51
 3.19360800000000E+0002
  0
LINE
  8
0
 10
 5.77568396352002E+0001
 20
 1.08370120534311E+0001
 11
 5.93268178806621E+0001
 21
 9.48951364239097E+0000
  0
ARC
  8
0
 10
 5.55603223214305E+0001
 20
 1.27222633928571E+0001
 40
 4.96358335750000E+0000
 50
 2.48198600000000E+0002
 51
 3.19360800000000E+0002
  0
LINE
  8
0
 10
 5.37168945041809E+0001
 20
 8.11369163693954E+0000
 11
 5.37168960872507E+0001
 21
 8.11369590505505E+0000
  0
ARC
  8
0
 10
 5.53017026785733E+0001
 20
 1.20757142857142E+0001
 40
 4.26722410714286E+0000
 50
 1.80000000000000E+0002
 51
 2.48198600000000E+0002
  0
LINE
  8
0
 10
 5.10344785714305E+0001
 20
 1.20757142857142E+0001
 11
 5.10344785714305E+0001
 21
 1.41446714285714E+0001
  0
ARC
  8
0
 10
 5.53017026785733E+0001
 20
 1.41446714285714E+0001
 40
 4.26722410714286E+0000
 50
 0.00000000000000E+0000
 51
 1.80000000000000E+0002
  0
LINE
  8
0
 10
 5.95689267857162E+0001
 20
 1.41446714285714E+0001
 11
 5.95689267857162E+0001
 21
 1.23343339285714E+0001
  0
ARC
  8
0
 10
 5.53017026785733E+0001
 20
 1.41446714285714E+0001
 40
 2.19826696428571E+0000
 50
 0.00000000000000E+0000
 51
 1.80000000000000E+0002
  0
LINE
  8
0
 10
 5.74999696428590E+0001
 20
 1.41446714285714E+0001
 11
 5.31034357142876E+0001
 21
 1.41446714285714E+0001
  0
LINE
  8
0
 10
 6.24137428571429E+0001
 20
 7.93780000000000E+0000
 11
 6.24137428571429E+0001
 21
 1.82825857142857E+0001
  0
LINE
  8
0
 10
 6.24137428571429E+0001
 20
 1.82825857142857E+0001
 11
 6.44827000000000E+0001
 21
 1.82825857142857E+0001
  0
LINE
  8
0
 10
 6.44827000000000E+0001
 20
 1.82825857142857E+0001
 11
 6.44827000000000E+0001
 21
 7.93780000000000E+0000
  0
LINE
  8
0
 10
 6.44827000000000E+0001
 20
 7.93780000000000E+0000
 11
 6.24137428571429E+0001
 21
 7.93780000000000E+0000
  0
LINE
  8
0
 10
 6.24137428571429E+0001
 20
 2.03515428571429E+0001
 11
 6.24137428571429E+0001
 21
 2.24205000000000E+0001
  0
LINE
  8
0
 10
 6.24137428571429E+0001
 20
 2.24205000000000E+0001
 11
 6.44827000000000E+0001
 21
 2.24205000000000E+0001
  0
LINE
  8
0
 10
 6.44827000000000E+0001
 20
 2.24205000000000E+0001
 11
 6.44827000000000E+0001
 21
 2.03515428571429E+0001
  0
LINE
  8
0
 10
 6.44827000000000E+0001
 20
 2.03515428571429E+0001
 11
 6.24137428571429E+0001
 21
 2.03515428571429E+0001
  0
ENDSEC
  0
EOF
