<?xml version="1.0" encoding="UTF-8"?>
<svg xmlns="http://www.w3.org/2000/svg" version="1.1" width="21.17mm" height="35.28mm" viewBox="0 0 60 100">
<g transform="scale(0.1)">
  <g id="panel">
    <path id="ground" fill="#fff" d="M50 0h500a50 50 0 0 1 50 50v900a50 50 0 0 1 -50 50h-500a50 50 0 0 1 -50 -50v-900a50 50 0 0 1 50 -50Z"/>
  </g>
  <g id="legend">
    <path fill="#000" d="M73.53 240H193.53V211.36H102.83V167.58H150.71V138.38H102.83V108.64H190.71V80H73.53Z M330.39 240H355.21V80H327.59V185.56L253.69 80H225.53V240H253.71V129.96Z M396.81 240H449.89C497.97 240 526.47 203.68 526.47 159.72C526.47 113.52 494.59 80 448.47 80H396.81ZM448.37 108.64C477.67 108.64 497.89 127.44 497.89 159.72C497.89 194.44 473.79 211.36 448.15 211.36H425.97V108.64Z"/>
    <path fill="#000" fill-rule="evenodd" d="M18 617a282 282 0 1 0 564 0a282 282 0 1 0 -564 0Z M63 617a237 237 0 1 0 474 0a237 237 0 1 0 -474 0Z"/>
    <path fill="#000" d="M113.7 737H148.74V497H125.67C120.54 507.11 112.02 512.99 98.34 513.83V539.96H113.7Z M226.74 703.31C248.58 606.59 324 630.74 324 560.21C324 523.16 294.39 492.83 257.19 492.83C219.21 492.83 190.38 522.29 189.54 560.21H223.38C223.38 541.55 238.53 526.37 257.19 526.37C275.85 526.37 291 541.55 291 560.21C291 580.58 273.57 584.96 252.36 601.88C224.73 623.9 191.46 661.37 189.54 737H324V703.31Z M431.25 741.2C444.18 741.2 501.66 743.18 501.66 616.64C501.66 490.91 444.18 492.83 431.25 492.83C418.32 492.83 360 490.85 360 616.58C360 743.15 418.32 741.2 431.25 741.2ZM468.57 616.67C468.57 708.92 437.67 707.51 430.83 707.51C423.99 707.51 393.09 708.92 393.09 616.67C393.09 525.05 423.99 526.46 430.83 526.46C437.67 526.46 468.57 525.05 468.57 616.67Z"/>
  </g>
</g>
</svg>
