  0
SECTION
  2
HEADER
  9
$ACADVER
  1
AC1003
  9
$INSBASE
 10
0.0
 20
0.0
  9
$EXTMIN
 10
-2.76794900000000E+0002
 20
 1.00000000000000E+0002
  9
$EXTMAX
 10
 2.70833987151926E+0002
 20
 3.39402300000000E+0002
  9
$LIMMIN
 10
0.0
 20
0.0
  9
$LIMMAX
 10
410.0
 20
287.0
  9
$VIEWCTR
 10
227.0059616
 20
165.058879 
  9
$VIEWSIZE
 40
 5.47628887151926E+0002
9
$SNAPMODE
70
0
9
$SNAPUNIT
10
1
20
1
9
$GRIDMODE
70
0
9
$GRIDUNIT
10
1
20
1
9
$ORTHOMODE
70
0
9
$rEGENMODE
70
1
9
$FILLMODE
70
1
9
$DRAGMODE
70
2
9
$LTSCALE
40
25.0
9
$OSMODE
70
0
9
$ATTMODE
70
1
9
$TRACEWID
40
1.0
9
$TEXTSTYLE
7
STANDARD
9
$CLAYER
8
0
9
$CELTYPE
6
VONLAYER
9
$CECOLOR
62
256
9
$LUNITS
70
2
9
$LUPREC
70
2
9
$AXISMODE
70
0
9
$AXISUNIT
10
0
20
0
9
$SKETCHINC
40
1.0
9
$FILLETRAD
40
0.0
9
$AUNITS
70
0
9
$AUPREC
70
0
9
$MENU
1
ACAD
9
$ELEVATION
40
0.0
9
$THICKNESS
40
0.0
9
$VIEWDIR
10
0.0
20
0.0
30
1.0
9
$LIMCHECK
70
0
9
$BLIPMODE
70
1
9
$CHAMFERA
40
0.0
9
$CHAMFERB
40
0.0
9
$USRTIMER
70
1
9
$ANGBASE
50
0.0
9
$ANGDIR
70
0
9
$PDMODE
70
0
9
$PDSIZE
40
0.0
9
$PLINEWID
40
0.0
9
$COORDS
70
0
0
ENDSEC
0
SECTION
2
TABLES
0
TABLE
2
LTYPE
70
1
0
LTYPE
2
AUSGEZOGEN
70
64
3
Ausgezogene Linie
72
65
73
0
40
0.0
0
ENDTAB
0
TABLE
2
LAYER
70
1
0
LAYER
2
0
70
0
62
7
6
AUSGEZOGEN
0
ENDTAB
0
TABLE
2
STYLE
70
1
0
STYLE
2
STANDARD
70
0
40
0.0
41
1.0
50
0.0
71
0
42
3.5
3
txt
4

0
ENDTAB
0
TABLE
2
VIEW
70
0
0
ENDTAB
0
ENDSEC
0
SECTION
2
BLOCKS
0
ENDSEC
0
SECTION
2
ENTITIES
  0
LINE
  8
0
 10
-2.76794900000000E+0002
 20
 1.00000000000000E+0002
 11
-1.98852600000000E+0002
 21
 2.35000000000000E+0002
  0
LINE
  8
0
 10
-1.98852600000000E+0002
 20
 2.35000000000000E+0002
 11
-1.00000000000000E+0002
 21
 2.35000000000000E+0002
  0
LINE
  8
0
 10
-1.00000000000000E+0002
 20
 2.35000000000000E+0002
 11
-1.00000000000000E+0002
 21
 1.00000000000000E+0002
  0
LINE
  8
0
 10
-1.00000000000000E+0002
 20
 1.00000000000000E+0002
 11
-2.76794900000000E+0002
 21
 1.00000000000000E+0002
  0
LINE
  8
0
 10
-9.00000000000000E+0001
 20
 1.05250000000000E+0002
 11
-8.51538428057509E+0001
 21
 1.07269232164270E+0002
  0
ARC
  8
0
 10
-6.90000000000000E+0001
 20
 6.85000000000000E+0001
 40
 4.20000000000000E+0001
 50
 6.73801400000000E+0001
 51
 1.12619860000000E+0002
  0
LINE
  8
0
 10
-5.28461571942491E+0001
 20
 1.07269232164270E+0002
 11
-4.31538428057510E+0001
 21
 1.03230767835729E+0002
  0
ARC
  8
0
 10
-2.70000000000000E+0001
 20
 1.42000000000000E+0002
 40
 4.20000000000000E+0001
 50
 2.47380140000000E+0002
 51
 2.92619860000000E+0002
  0
LINE
  8
0
 10
-1.08461571942490E+0001
 20
 1.03230767835729E+0002
 11
-1.15384280575095E+0000
 21
 1.07269232164270E+0002
  0
ARC
  8
0
 10
 1.50000000000000E+0001
 20
 6.85000000000000E+0001
 40
 4.20000000000000E+0001
 50
 6.73801400000000E+0001
 51
 1.12619860000000E+0002
  0
LINE
  8
0
 10
 3.11538428057510E+0001
 20
 1.07269232164270E+0002
 11
 4.08461571942490E+0001
 21
 1.03230767835729E+0002
  0
ARC
  8
0
 10
 5.70000000000000E+0001
 20
 1.42000000000000E+0002
 40
 4.20000000000000E+0001
 50
 2.47380140000000E+0002
 51
 2.92619860000000E+0002
  0
LINE
  8
0
 10
 7.31538428057510E+0001
 20
 1.03230767835729E+0002
 11
 8.28461571942491E+0001
 21
 1.07269232164270E+0002
  0
ARC
  8
0
 10
 9.90000000000000E+0001
 20
 6.85000000000000E+0001
 40
 4.20000000000000E+0001
 50
 6.73801400000000E+0001
 51
 1.12619860000000E+0002
  0
LINE
  8
0
 10
 1.15153842805750E+0002
 20
 1.07269232164270E+0002
 11
 1.24846157194249E+0002
 21
 1.03230767835729E+0002
  0
ARC
  8
0
 10
 1.41000000000000E+0002
 20
 1.42000000000000E+0002
 40
 4.20000000000000E+0001
 50
 2.47380140000000E+0002
 51
 2.92619860000000E+0002
  0
LINE
  8
0
 10
 1.57153842805751E+0002
 20
 1.03230767835729E+0002
 11
 1.66846157194249E+0002
 21
 1.07269232164270E+0002
  0
ARC
  8
0
 10
 1.83000000000000E+0002
 20
 6.85000000000000E+0001
 40
 4.20000000000000E+0001
 50
 6.73801400000000E+0001
 51
 1.12619860000000E+0002
  0
LINE
  8
0
 10
 1.99153842805751E+0002
 20
 1.07269232164270E+0002
 11
 2.08846157194249E+0002
 21
 1.03230767835729E+0002
  0
ARC
  8
0
 10
 2.25000000000000E+0002
 20
 1.42000000000000E+0002
 40
 4.20000000000000E+0001
 50
 2.47380140000000E+0002
 51
 2.92619860000000E+0002
  0
LINE
  8
0
 10
 2.41153842805751E+0002
 20
 1.03230767835729E+0002
 11
 2.50846157194249E+0002
 21
 1.07269232164270E+0002
  0
ARC
  8
0
 10
 2.67000000000000E+0002
 20
 6.85000000000000E+0001
 40
 4.20000000000000E+0001
 50
 8.47624400000000E+0001
 51
 1.12619860000000E+0002
  0
LINE
  8
0
 10
 2.70833987151926E+0002
 20
 1.10324640375248E+0002
 11
 2.61824297794402E+0002
 21
 1.25929876519478E+0002
  0
ARC
  8
0
 10
 2.67000000000000E+0002
 20
 8.42500000000000E+0001
 40
 4.20000000000000E+0001
 50
 9.70786100000000E+0001
 51
 1.12619860000000E+0002
  0
LINE
  8
0
 10
 2.50846157194249E+0002
 20
 1.23019232164270E+0002
 11
 2.41153842805751E+0002
 21
 1.18980767835729E+0002
  0
ARC
  8
0
 10
 2.25000000000000E+0002
 20
 1.57750000000000E+0002
 40
 4.20000000000000E+0001
 50
 2.47380140000000E+0002
 51
 2.92619860000000E+0002
  0
LINE
  8
0
 10
 2.08846157194249E+0002
 20
 1.18980767835729E+0002
 11
 1.99153842805751E+0002
 21
 1.23019232164270E+0002
  0
ARC
  8
0
 10
 1.83000000000000E+0002
 20
 8.42500000000000E+0001
 40
 4.20000000000000E+0001
 50
 6.73801400000000E+0001
 51
 1.12619860000000E+0002
  0
LINE
  8
0
 10
 1.66846157194249E+0002
 20
 1.23019232164270E+0002
 11
 1.57153842805751E+0002
 21
 1.18980767835729E+0002
  0
ARC
  8
0
 10
 1.41000000000000E+0002
 20
 1.57750000000000E+0002
 40
 4.20000000000000E+0001
 50
 2.47380140000000E+0002
 51
 2.92619860000000E+0002
  0
LINE
  8
0
 10
 1.24846157194249E+0002
 20
 1.18980767835729E+0002
 11
 1.15153842805750E+0002
 21
 1.23019232164270E+0002
  0
ARC
  8
0
 10
 9.90000000000000E+0001
 20
 8.42500000000000E+0001
 40
 4.20000000000000E+0001
 50
 6.73801400000000E+0001
 51
 1.12619860000000E+0002
  0
LINE
  8
0
 10
 8.28461571942491E+0001
 20
 1.23019232164270E+0002
 11
 7.31538428057510E+0001
 21
 1.18980767835729E+0002
  0
ARC
  8
0
 10
 5.70000000000000E+0001
 20
 1.57750000000000E+0002
 40
 4.20000000000000E+0001
 50
 2.47380140000000E+0002
 51
 2.92619860000000E+0002
  0
LINE
  8
0
 10
 4.08461571942490E+0001
 20
 1.18980767835729E+0002
 11
 3.11538428057510E+0001
 21
 1.23019232164270E+0002
  0
ARC
  8
0
 10
 1.50000000000000E+0001
 20
 8.42500000000000E+0001
 40
 4.20000000000000E+0001
 50
 6.73801400000000E+0001
 51
 1.12619860000000E+0002
  0
LINE
  8
0
 10
-1.15384280575095E+0000
 20
 1.23019232164270E+0002
 11
-1.08461571942490E+0001
 21
 1.18980767835729E+0002
  0
ARC
  8
0
 10
-2.70000000000000E+0001
 20
 1.57750000000000E+0002
 40
 4.20000000000000E+0001
 50
 2.47380140000000E+0002
 51
 2.92619860000000E+0002
  0
LINE
  8
0
 10
-4.31538428057510E+0001
 20
 1.18980767835729E+0002
 11
-5.28461571942491E+0001
 21
 1.23019232164270E+0002
  0
ARC
  8
0
 10
-6.90000000000000E+0001
 20
 8.42500000000000E+0001
 40
 4.20000000000000E+0001
 50
 6.73801400000000E+0001
 51
 1.12619860000000E+0002
  0
LINE
  8
0
 10
-8.51538428057509E+0001
 20
 1.23019232164270E+0002
 11
-9.00000000000000E+0001
 21
 1.21000000000000E+0002
  0
LINE
  8
0
 10
-9.00000000000000E+0001
 20
 1.21000000000000E+0002
 11
-9.00000000000000E+0001
 21
 1.05250000000000E+0002
  0
LINE
  8
0
 10
-9.00000000000000E+0001
 20
 1.36750000000000E+0002
 11
-8.51538428057509E+0001
 21
 1.38769232164270E+0002
  0
ARC
  8
0
 10
-6.90000000000000E+0001
 20
 1.00000000000000E+0002
 40
 4.20000000000000E+0001
 50
 6.73801400000000E+0001
 51
 1.12619860000000E+0002
  0
LINE
  8
0
 10
-5.28461571942491E+0001
 20
 1.38769232164270E+0002
 11
-4.31538428057510E+0001
 21
 1.34730767835730E+0002
  0
ARC
  8
0
 10
-2.70000000000000E+0001
 20
 1.73500000000000E+0002
 40
 4.20000000000000E+0001
 50
 2.47380140000000E+0002
 51
 2.92619860000000E+0002
  0
LINE
  8
0
 10
-1.08461571942490E+0001
 20
 1.34730767835730E+0002
 11
-1.15384280575095E+0000
 21
 1.38769232164270E+0002
  0
ARC
  8
0
 10
 1.50000000000000E+0001
 20
 1.00000000000000E+0002
 40
 4.20000000000000E+0001
 50
 6.73801400000000E+0001
 51
 1.12619860000000E+0002
  0
LINE
  8
0
 10
 3.11538428057510E+0001
 20
 1.38769232164270E+0002
 11
 4.08461571942490E+0001
 21
 1.34730767835730E+0002
  0
ARC
  8
0
 10
 5.70000000000000E+0001
 20
 1.73500000000000E+0002
 40
 4.20000000000000E+0001
 50
 2.47380140000000E+0002
 51
 2.92619860000000E+0002
  0
LINE
  8
0
 10
 7.31538428057510E+0001
 20
 1.34730767835730E+0002
 11
 8.28461571942491E+0001
 21
 1.38769232164270E+0002
  0
ARC
  8
0
 10
 9.90000000000000E+0001
 20
 1.00000000000000E+0002
 40
 4.20000000000000E+0001
 50
 6.73801400000000E+0001
 51
 1.12619860000000E+0002
  0
LINE
  8
0
 10
 1.15153842805750E+0002
 20
 1.38769232164270E+0002
 11
 1.24846157194249E+0002
 21
 1.34730767835730E+0002
  0
ARC
  8
0
 10
 1.41000000000000E+0002
 20
 1.73500000000000E+0002
 40
 4.20000000000000E+0001
 50
 2.47380140000000E+0002
 51
 2.92619860000000E+0002
  0
LINE
  8
0
 10
 1.57153842805751E+0002
 20
 1.34730767835730E+0002
 11
 1.66846157194249E+0002
 21
 1.38769232164270E+0002
  0
ARC
  8
0
 10
 1.83000000000000E+0002
 20
 1.00000000000000E+0002
 40
 4.20000000000000E+0001
 50
 6.73801400000000E+0001
 51
 1.12619860000000E+0002
  0
LINE
  8
0
 10
 1.99153842805751E+0002
 20
 1.38769232164270E+0002
 11
 2.08846157194249E+0002
 21
 1.34730767835730E+0002
  0
ARC
  8
0
 10
 2.25000000000000E+0002
 20
 1.73500000000000E+0002
 40
 4.20000000000000E+0001
 50
 2.47380140000000E+0002
 51
 2.92619860000000E+0002
  0
LINE
  8
0
 10
 2.41153842805751E+0002
 20
 1.34730767835730E+0002
 11
 2.50846157194249E+0002
 21
 1.38769232164270E+0002
  0
ARC
  8
0
 10
 2.67000000000000E+0002
 20
 1.00000000000000E+0002
 40
 4.20000000000000E+0001
 50
 1.08347940000000E+0002
 51
 1.12619860000000E+0002
  0
LINE
  8
0
 10
 2.53778956896641E+0002
 20
 1.39864821826507E+0002
 11
 2.46390200000000E+0002
 21
 1.52662600000000E+0002
  0
LINE
  8
0
 10
 2.46390200000000E+0002
 20
 1.52662600000000E+0002
 11
 2.41153842805751E+0002
 21
 1.50480767835730E+0002
  0
ARC
  8
0
 10
 2.25000000000000E+0002
 20
 1.89250000000000E+0002
 40
 4.20000000000000E+0001
 50
 2.47380140000000E+0002
 51
 2.92619860000000E+0002
  0
LINE
  8
0
 10
 2.08846157194249E+0002
 20
 1.50480767835730E+0002
 11
 1.99153842805751E+0002
 21
 1.54519232164270E+0002
  0
ARC
  8
0
 10
 1.83000000000000E+0002
 20
 1.15750000000000E+0002
 40
 4.20000000000000E+0001
 50
 6.73801400000000E+0001
 51
 1.12619860000000E+0002
  0
LINE
  8
0
 10
 1.66846157194249E+0002
 20
 1.54519232164270E+0002
 11
 1.57153842805751E+0002
 21
 1.50480767835730E+0002
  0
ARC
  8
0
 10
 1.41000000000000E+0002
 20
 1.89250000000000E+0002
 40
 4.20000000000000E+0001
 50
 2.47380140000000E+0002
 51
 2.92619860000000E+0002
  0
LINE
  8
0
 10
 1.24846157194249E+0002
 20
 1.50480767835730E+0002
 11
 1.15153842805750E+0002
 21
 1.54519232164270E+0002
  0
ARC
  8
0
 10
 9.90000000000000E+0001
 20
 1.15750000000000E+0002
 40
 4.20000000000000E+0001
 50
 6.73801400000000E+0001
 51
 1.12619860000000E+0002
  0
LINE
  8
0
 10
 8.28461571942491E+0001
 20
 1.54519232164270E+0002
 11
 7.31538428057510E+0001
 21
 1.50480767835730E+0002
  0
ARC
  8
0
 10
 5.70000000000000E+0001
 20
 1.89250000000000E+0002
 40
 4.20000000000000E+0001
 50
 2.47380140000000E+0002
 51
 2.92619860000000E+0002
  0
LINE
  8
0
 10
 4.08461571942490E+0001
 20
 1.50480767835730E+0002
 11
 3.11538428057510E+0001
 21
 1.54519232164270E+0002
  0
ARC
  8
0
 10
 1.50000000000000E+0001
 20
 1.15750000000000E+0002
 40
 4.20000000000000E+0001
 50
 6.73801400000000E+0001
 51
 1.12619860000000E+0002
  0
LINE
  8
0
 10
-1.15384280575095E+0000
 20
 1.54519232164270E+0002
 11
-1.08461571942490E+0001
 21
 1.50480767835730E+0002
  0
ARC
  8
0
 10
-2.70000000000000E+0001
 20
 1.89250000000000E+0002
 40
 4.20000000000000E+0001
 50
 2.47380140000000E+0002
 51
 2.92619860000000E+0002
  0
LINE
  8
0
 10
-4.31538428057510E+0001
 20
 1.50480767835730E+0002
 11
-5.28461571942491E+0001
 21
 1.54519232164270E+0002
  0
ARC
  8
0
 10
-6.90000000000000E+0001
 20
 1.15750000000000E+0002
 40
 4.20000000000000E+0001
 50
 6.73801400000000E+0001
 51
 1.12619860000000E+0002
  0
LINE
  8
0
 10
-8.51538428057509E+0001
 20
 1.54519232164270E+0002
 11
-9.00000000000000E+0001
 21
 1.52500000000000E+0002
  0
LINE
  8
0
 10
-9.00000000000000E+0001
 20
 1.52500000000000E+0002
 11
-9.00000000000000E+0001
 21
 1.36750000000000E+0002
  0
CIRCLE
  8
0
 10
 8.14518000000000E+0001
 20
 2.19059600000000E+0002
 40
 2.00000000000000E+0001
  0
CIRCLE
  8
0
 10
-9.00000000000000E+0001
 20
 2.65000000000000E+0002
 40
 2.00000000000000E+0001
  0
LINE
  8
0
 10
 1.05600000000000E+0002
 20
 2.12589100000000E+0002
 11
 1.17674004774487E+0002
 21
 2.09353870868555E+0002
  0
ARC
  8
0
 10
 1.18968100000000E+0002
 20
 2.14183500000000E+0002
 40
 5.00000000000000E+0000
 50
 2.55000000000000E+0002
 51
 3.45000000000000E+0002
  0
LINE
  8
0
 10
 1.23797729131445E+0002
 20
 2.12889404774487E+0002
 11
 1.29819029131445E+0002
 21
 2.35361104774487E+0002
  0
ARC
  8
0
 10
 1.24989400000000E+0002
 20
 2.36655200000000E+0002
 40
 5.00000000000000E+0000
 50
 3.45000000000000E+0002
 51
 4.25537670000000E+0002
  0
LINE
  8
0
 10
 1.27059874424514E+0002
 20
 2.41206368603494E+0002
 11
 6.17061000000000E+0001
 21
 2.70937900000000E+0002
  0
LINE
  8
0
 10
 6.17061000000000E+0001
 20
 2.70937900000000E+0002
 11
 3.79928270189222E+0001
 21
 3.12010400000000E+0002
  0
ARC
  8
0
 10
 3.36627000000000E+0001
 20
 3.09510400000000E+0002
 40
 5.00000000000000E+0000
 50
 3.00000000000000E+0001
 51
 7.50000000000000E+0001
  0
LINE
  8
0
 10
 3.49567952255126E+0001
 20
 3.14340029131445E+0002
 11
-5.79411047744874E+0001
 21
 3.39231929131445E+0002
  0
ARC
  8
0
 10
-5.92352000000000E+0001
 20
 3.34402300000000E+0002
 40
 5.00000000000000E+0000
 50
 7.50000000000000E+0001
 51
 1.13659810000000E+0002
  0
LINE
  8
0
 10
-6.12417269414393E+0001
 20
 3.38982021567222E+0002
 11
-1.16083126941439E+0002
 21
 3.14954221567222E+0002
  0
ARC
  8
0
 10
-1.14076600000000E+0002
 20
 3.10374500000000E+0002
 40
 5.00000000000000E+0000
 50
 1.13659810000000E+0002
 51
 1.65000000000000E+0002
  0
LINE
  8
0
 10
-1.18906229131445E+0002
 20
 3.11668595225513E+0002
 11
-1.27342929131445E+0002
 21
 2.80182395225513E+0002
  0
ARC
  8
0
 10
-1.22513300000000E+0002
 20
 2.78888300000000E+0002
 40
 5.00000000000000E+0000
 50
 1.65000000000000E+0002
 51
 2.55000000000000E+0002
  0
LINE
  8
0
 10
-1.23807395225512E+0002
 20
 2.74058670868555E+0002
 11
-1.14148145657226E+0002
 21
 2.71470476127563E+0002
  0
ARC
  8
0
 10
-9.00000000000000E+0001
 20
 2.65000000000000E+0002
 40
 2.50000000000000E+0001
 50
 3.45000000000000E+0002
 51
 5.25000000000000E+0002
  0
LINE
  8
0
 10
-6.58518543427733E+0001
 20
 2.58529523872437E+0002
 11
 5.73036543427733E+0001
 21
 2.25530076127563E+0002
  0
ARC
  8
0
 10
 8.14518000000000E+0001
 20
 2.19059600000000E+0002
 40
 2.50000000000000E+0001
 50
 3.45000000000000E+0002
 51
 5.25000000000000E+0002
  0
LINE
  8
0
 10
-1.68621000000000E+0001
 20
 2.86813800000000E+0002
 11
 4.97525523872437E+0001
 21
 2.68964485434277E+0002
  0
ARC
  8
0
 10
 5.03996000000000E+0001
 20
 2.71379300000000E+0002
 40
 2.50000000000000E+0000
 50
 2.55000000000000E+0002
 51
 3.90000000000000E+0002
  0
LINE
  8
0
 10
 5.25646635094611E+0001
 20
 2.72629300000000E+0002
 11
 3.54046270189222E+0001
 21
 3.02351100000000E+0002
  0
ARC
  8
0
 10
 3.10745000000000E+0001
 20
 2.99851100000000E+0002
 40
 5.00000000000000E+0000
 50
 3.00000000000000E+0001
 51
 7.50000000000000E+0001
  0
LINE
  8
0
 10
 3.23685952255126E+0001
 20
 3.04680729131445E+0002
 11
-9.09750000000000E+0000
 21
 3.15791600000000E+0002
  0
LINE
  8
0
 10
-9.09750000000000E+0000
 20
 3.15791600000000E+0002
 11
-1.68621000000000E+0001
 21
 2.86813800000000E+0002
  0
LINE
  8
0
 10
-2.41065000000000E+0001
 20
 2.88754900000000E+0002
 11
-1.63419000000000E+0001
 21
 3.17732700000000E+0002
  0
LINE
  8
0
 10
-1.63419000000000E+0001
 20
 3.17732700000000E+0002
 11
-5.05636047744874E+0001
 21
 3.26902429131445E+0002
  0
ARC
  8
0
 10
-5.18577000000000E+0001
 20
 3.22072800000000E+0002
 40
 5.00000000000000E+0000
 50
 7.50000000000000E+0001
 51
 1.20000000000000E+0002
  0
LINE
  8
0
 10
-5.43577000000000E+0001
 20
 3.26402927018922E+0002
 11
-7.88526000000000E+0001
 21
 3.12260727018922E+0002
  0
ARC
  8
0
 10
-7.63526000000000E+0001
 20
 3.07930600000000E+0002
 40
 5.00000000000000E+0000
 50
 1.20000000000000E+0002
 51
 2.55000000000000E+0002
  0
LINE
  8
0
 10
-7.76466952255126E+0001
 20
 3.03100970868555E+0002
 11
-2.41065000000000E+0001
 21
 2.88754900000000E+0002
  0
ENDSEC
  0
EOF
