  0
SECTION
  2
HEADER
  9
$ACADVER
  1
AC1003
  9
$INSBASE
 10
0.0
 20
0.0
  9
$EXTMIN
 10
 0.00000000000000E+0000
 20
 0.00000000000000E+0000
  9
$EXTMAX
 10
 1.60000000000000E+0003
 20
 1.60000000000000E+0003
  9
$LIMMIN
 10
0.0
 20
0.0
  9
$LIMMAX
 10
410.0
 20
287.0
  9
$VIEWCTR
 10
227.0059616
 20
165.058879 
  9
$VIEWSIZE
 40
 1.60000000000000E+0003
9
$SNAPMODE
70
0
9
$SNAPUNIT
10
1
20
1
9
$GRIDMODE
70
0
9
$GRIDUNIT
10
1
20
1
9
$ORTHOMODE
70
0
9
$rEGENMODE
70
1
9
$FILLMODE
70
1
9
$DRAGMODE
70
2
9
$LTSCALE
40
25.0
9
$OSMODE
70
0
9
$ATTMODE
70
1
9
$TRACEWID
40
1.0
9
$TEXTSTYLE
7
STANDARD
9
$CLAYER
8
0
9
$CELTYPE
6
VONLAYER
9
$CECOLOR
62
256
9
$LUNITS
70
2
9
$LUPREC
70
2
9
$AXISMODE
70
0
9
$AXISUNIT
10
0
20
0
9
$SKETCHINC
40
1.0
9
$FILLETRAD
40
0.0
9
$AUNITS
70
0
9
$AUPREC
70
0
9
$MENU
1
ACAD
9
$ELEVATION
40
0.0
9
$THICKNESS
40
0.0
9
$VIEWDIR
10
0.0
20
0.0
30
1.0
9
$LIMCHECK
70
0
9
$BLIPMODE
70
1
9
$CHAMFERA
40
0.0
9
$CHAMFERB
40
0.0
9
$USRTIMER
70
1
9
$ANGBASE
50
0.0
9
$ANGDIR
70
0
9
$PDMODE
70
0
9
$PDSIZE
40
0.0
9
$PLINEWID
40
0.0
9
$COORDS
70
0
0
ENDSEC
0
SECTION
2
TABLES
0
TABLE
2
LTYPE
70
1
0
LTYPE
2
AUSGEZOGEN
70
64
3
Ausgezogene Linie
72
65
73
0
40
0.0
0
ENDTAB
0
TABLE
2
LAYER
70
1
0
LAYER
2
0
70
0
62
7
6
AUSGEZOGEN
0
ENDTAB
0
TABLE
2
STYLE
70
1
0
STYLE
2
STANDARD
70
0
40
0.0
41
1.0
50
0.0
71
0
42
3.5
3
txt
4

0
ENDTAB
0
TABLE
2
VIEW
70
0
0
ENDTAB
0
ENDSEC
0
SECTION
2
BLOCKS
0
ENDSEC
0
SECTION
2
ENTITIES
  0
ARC
  8
0
 10
 6.00000000000000E+0001
 20
 6.00000000000000E+0001
 40
 6.00000000000000E+0001
 50
 1.80000000000000E+0002
 51
 2.70000000000000E+0002
  0
LINE
  8
0
 10
 0.00000000000000E+0000
 20
 6.00000000000000E+0001
 11
 0.00000000000000E+0000
 21
 1.54000000000000E+0003
  0
ARC
  8
0
 10
 6.00000000000000E+0001
 20
 1.54000000000000E+0003
 40
 6.00000000000000E+0001
 50
 9.00000000000000E+0001
 51
 1.80000000000000E+0002
  0
LINE
  8
0
 10
 6.00000000000000E+0001
 20
 1.60000000000000E+0003
 11
 1.54000000000000E+0003
 21
 1.60000000000000E+0003
  0
ARC
  8
0
 10
 1.54000000000000E+0003
 20
 1.54000000000000E+0003
 40
 6.00000000000000E+0001
 50
 0.00000000000000E+0000
 51
 9.00000000000000E+0001
  0
LINE
  8
0
 10
 1.60000000000000E+0003
 20
 1.54000000000000E+0003
 11
 1.60000000000000E+0003
 21
 6.00000000000000E+0001
  0
ARC
  8
0
 10
 1.54000000000000E+0003
 20
 6.00000000000000E+0001
 40
 6.00000000000000E+0001
 50
 2.70000000000000E+0002
 51
 3.60000000000000E+0002
  0
LINE
  8
0
 10
 1.54000000000000E+0003
 20
 0.00000000000000E+0000
 11
 6.00000000000000E+0001
 21
 0.00000000000000E+0000
  0
ARC
  8
0
 10
 6.00000000000000E+0001
 20
 6.00000000000000E+0001
 40
 4.50000000000000E+0001
 50
 1.80000000000000E+0002
 51
 2.70000000000000E+0002
  0
LINE
  8
0
 10
 1.50000000000000E+0001
 20
 6.00000000000000E+0001
 11
 1.50000000000000E+0001
 21
 1.54000000000000E+0003
  0
ARC
  8
0
 10
 6.00000000000000E+0001
 20
 1.54000000000000E+0003
 40
 4.50000000000000E+0001
 50
 9.00000000000000E+0001
 51
 1.80000000000000E+0002
  0
LINE
  8
0
 10
 6.00000000000000E+0001
 20
 1.58500000000000E+0003
 11
 1.54000000000000E+0003
 21
 1.58500000000000E+0003
  0
ARC
  8
0
 10
 1.54000000000000E+0003
 20
 1.54000000000000E+0003
 40
 4.50000000000000E+0001
 50
 0.00000000000000E+0000
 51
 9.00000000000000E+0001
  0
LINE
  8
0
 10
 1.58500000000000E+0003
 20
 1.54000000000000E+0003
 11
 1.58500000000000E+0003
 21
 6.00000000000000E+0001
  0
ARC
  8
0
 10
 1.54000000000000E+0003
 20
 6.00000000000000E+0001
 40
 4.50000000000000E+0001
 50
 2.70000000000000E+0002
 51
 3.60000000000000E+0002
  0
LINE
  8
0
 10
 1.54000000000000E+0003
 20
 1.50000000000000E+0001
 11
 6.00000000000000E+0001
 21
 1.50000000000000E+0001
  0
ARC
  8
0
 10
 6.00000000000000E+0001
 20
 6.00000000000000E+0001
 40
 2.50000000000000E+0001
 50
 1.80000000000000E+0002
 51
 2.70000000000000E+0002
  0
LINE
  8
0
 10
 3.50000000000000E+0001
 20
 6.00000000000000E+0001
 11
 3.50000000000000E+0001
 21
 1.54000000000000E+0003
  0
ARC
  8
0
 10
 6.00000000000000E+0001
 20
 1.54000000000000E+0003
 40
 2.50000000000000E+0001
 50
 9.00000000000000E+0001
 51
 1.80000000000000E+0002
  0
LINE
  8
0
 10
 6.00000000000000E+0001
 20
 1.56500000000000E+0003
 11
 1.54000000000000E+0003
 21
 1.56500000000000E+0003
  0
ARC
  8
0
 10
 1.54000000000000E+0003
 20
 1.54000000000000E+0003
 40
 2.50000000000000E+0001
 50
 0.00000000000000E+0000
 51
 9.00000000000000E+0001
  0
LINE
  8
0
 10
 1.56500000000000E+0003
 20
 1.54000000000000E+0003
 11
 1.56500000000000E+0003
 21
 6.00000000000000E+0001
  0
ARC
  8
0
 10
 1.54000000000000E+0003
 20
 6.00000000000000E+0001
 40
 2.50000000000000E+0001
 50
 2.70000000000000E+0002
 51
 3.60000000000000E+0002
  0
LINE
  8
0
 10
 1.54000000000000E+0003
 20
 3.50000000000000E+0001
 11
 6.00000000000000E+0001
 21
 3.50000000000000E+0001
  0
LINE
  8
0
 10
 1.29992440000000E+0003
 20
 6.24011000000000E+0002
 11
 1.07037359312881E+0003
 21
 3.94126406871193E+0002
  0
ARC
  8
0
 10
 1.11280000000000E+0003
 20
 3.51700000000000E+0002
 40
 6.00000000000000E+0001
 50
 1.35000000000000E+0002
 51
 1.80000000000000E+0002
  0
LINE
  8
0
 10
 1.05280000000000E+0003
 20
 3.51700000000000E+0002
 11
 1.05260340000000E+0003
 21
 1.15000000000000E+0002
  0
LINE
  8
0
 10
 1.05260340000000E+0003
 20
 1.15000000000000E+0002
 11
 9.92603600000000E+0002
 21
 1.15000000000000E+0002
  0
LINE
  8
0
 10
 9.92603600000000E+0002
 20
 1.15000000000000E+0002
 11
 9.92600000000000E+0002
 21
 3.51700000000000E+0002
  0
ARC
  8
0
 10
 1.11260000000000E+0003
 20
 3.51700000000000E+0002
 40
 1.20000000000000E+0002
 50
 1.35000000000000E+0002
 51
 1.80000000000000E+0002
  0
LINE
  8
0
 10
 1.02774718625761E+0003
 20
 4.36552813742386E+0002
 11
 1.25749790000000E+0003
 21
 6.66437500000000E+0002
  0
LINE
  8
0
 10
 1.25749790000000E+0003
 20
 6.66437500000000E+0002
 11
 1.21745953964447E+0003
 21
 6.90060450074702E+0002
  0
ARC
  8
0
 10
 1.22355000000000E+0003
 20
 7.00400000000000E+0002
 40
 1.20000000000000E+0001
 50
 1.01195000000000E+0002
 51
 2.39500000000000E+0002
  0
LINE
  8
0
 10
 1.22122021504807E+0003
 20
 7.12171665221105E+0002
 11
 1.37629200000000E+0003
 21
 7.42804300000000E+0002
  0
LINE
  8
0
 10
 1.37629200000000E+0003
 20
 7.42804300000000E+0002
 11
 1.34562146186419E+0003
 21
 5.87769187785360E+0002
  0
ARC
  8
0
 10
 1.33385000000000E+0003
 20
 5.90100000000000E+0002
 40
 1.20000000000000E+0001
 50
 2.10525000000000E+0002
 51
 3.48800000000000E+0002
  0
LINE
  8
0
 10
 1.32351310852352E+0003
 20
 5.84005028744649E+0002
 11
 1.29992440000000E+0003
 21
 6.24011000000000E+0002
  0
LINE
  8
0
 10
 1.15143210000000E+0003
 20
 7.72503500000000E+0002
 11
 8.60232171772570E+0002
 21
 4.81217828227430E+0002
  0
ARC
  8
0
 10
 9.02800000000000E+0002
 20
 4.38650000000000E+0002
 40
 6.02000000000000E+0001
 50
 1.35000000000000E+0002
 51
 1.80000000000000E+0002
  0
LINE
  8
0
 10
 8.42600000000000E+0002
 20
 4.38650000000000E+0002
 11
 8.42603400000000E+0002
 21
 1.15000000000000E+0002
  0
LINE
  8
0
 10
 8.42603400000000E+0002
 20
 1.15000000000000E+0002
 11
 7.82603700000000E+0002
 21
 1.15000000000000E+0002
  0
LINE
  8
0
 10
 7.82603700000000E+0002
 20
 1.15000000000000E+0002
 11
 7.82600000000000E+0002
 21
 4.38700000000000E+0002
  0
ARC
  8
0
 10
 9.02600000000000E+0002
 20
 4.38700000000000E+0002
 40
 1.20000000000000E+0002
 50
 1.35000000000000E+0002
 51
 1.80000000000000E+0002
  0
LINE
  8
0
 10
 8.17747186257614E+0002
 20
 5.23552813742386E+0002
 11
 1.10900560000000E+0003
 21
 8.14929900000000E+0002
  0
LINE
  8
0
 10
 1.10900560000000E+0003
 20
 8.14929900000000E+0002
 11
 1.06895412670390E+0003
 21
 8.38513640449464E+0002
  0
ARC
  8
0
 10
 1.07505000000000E+0003
 20
 8.48850000000000E+0002
 40
 1.20000000000000E+0001
 50
 1.01200000000000E+0002
 51
 2.39470000000000E+0002
  0
LINE
  8
0
 10
 1.07271918778536E+0003
 20
 8.60621461864190E+0002
 11
 1.22779970000000E+0003
 21
 8.91296800000000E+0002
  0
LINE
  8
0
 10
 1.22779970000000E+0003
 20
 8.91296800000000E+0002
 11
 1.19712146186419E+0003
 21
 7.36219187785360E+0002
  0
ARC
  8
0
 10
 1.18535000000000E+0003
 20
 7.38550000000000E+0002
 40
 1.20000000000000E+0001
 50
 2.10525000000000E+0002
 51
 3.48800000000000E+0002
  0
LINE
  8
0
 10
 1.17501310852352E+0003
 20
 7.32455028744649E+0002
 11
 1.15143210000000E+0003
 21
 7.72503500000000E+0002
  0
LINE
  8
0
 10
 1.00293970000000E+0003
 20
 9.20995300000000E+0002
 11
 7.11611600000000E+0002
 21
 6.29667300000000E+0002
  0
LINE
  8
0
 10
 7.11611600000000E+0002
 20
 6.29667300000000E+0002
 11
 6.69185200000000E+0002
 21
 6.72093700000000E+0002
  0
LINE
  8
0
 10
 6.69185200000000E+0002
 20
 6.72093700000000E+0002
 11
 9.60513300000000E+0002
 21
 9.63421700000000E+0002
  0
LINE
  8
0
 10
 9.60513300000000E+0002
 20
 9.63421700000000E+0002
 11
 9.20454126703905E+0002
 21
 9.87013640449464E+0002
  0
ARC
  8
0
 10
 9.26550000000000E+0002
 20
 9.97350000000000E+0002
 40
 1.20000000000000E+0001
 50
 1.01200000000000E+0002
 51
 2.39470000000000E+0002
  0
LINE
  8
0
 10
 9.24219187785360E+0002
 20
 1.00912146186419E+0003
 11
 1.07930720000000E+0003
 21
 1.03978920000000E+0003
  0
LINE
  8
0
 10
 1.07930720000000E+0003
 20
 1.03978920000000E+0003
 11
 1.04867146186419E+0003
 21
 8.84719187785360E+0002
  0
ARC
  8
0
 10
 1.03690000000000E+0003
 20
 8.87050000000000E+0002
 40
 1.20000000000000E+0001
 50
 2.10525000000000E+0002
 51
 3.48800000000000E+0002
  0
LINE
  8
0
 10
 1.02656310852352E+0003
 20
 8.80955028744649E+0002
 11
 1.00293970000000E+0003
 21
 9.20995300000000E+0002
  0
LINE
  8
0
 10
 8.12020900000000E+0002
 20
 1.11191410000000E+0003
 11
 7.72004126703905E+0002
 21
 1.13551364044946E+0003
  0
ARC
  8
0
 10
 7.78100000000000E+0002
 20
 1.14585000000000E+0003
 40
 1.20000000000000E+0001
 50
 1.01200000000000E+0002
 51
 2.39470000000000E+0002
  0
LINE
  8
0
 10
 7.75769187785360E+0002
 20
 1.15762146186419E+0003
 11
 9.30814800000000E+0002
 21
 1.18828160000000E+0003
  0
LINE
  8
0
 10
 9.30814800000000E+0002
 20
 1.18828160000000E+0003
 11
 9.00171461864190E+0002
 21
 1.03321918778536E+0003
  0
ARC
  8
0
 10
 8.88400000000000E+0002
 20
 1.03555000000000E+0003
 40
 1.20000000000000E+0001
 50
 2.10525000000000E+0002
 51
 3.48800000000000E+0002
  0
LINE
  8
0
 10
 8.78063108523524E+0002
 20
 1.02945502874465E+0003
 11
 8.54447300000000E+0002
 21
 1.06948770000000E+0003
  0
LINE
  8
0
 10
 8.54447300000000E+0002
 20
 1.06948770000000E+0003
 11
 5.63119200000000E+0002
 21
 7.78159700000000E+0002
  0
LINE
  8
0
 10
 5.63119200000000E+0002
 20
 7.78159700000000E+0002
 11
 5.20692800000000E+0002
 21
 8.20586100000000E+0002
  0
LINE
  8
0
 10
 5.20692800000000E+0002
 20
 8.20586100000000E+0002
 11
 8.12020900000000E+0002
 21
 1.11191410000000E+0003
  0
LINE
  8
0
 10
 6.63528400000000E+0002
 20
 1.26040650000000E+0003
 11
 6.23504126703905E+0002
 21
 1.28401364044946E+0003
  0
ARC
  8
0
 10
 6.29600000000000E+0002
 20
 1.29435000000000E+0003
 40
 1.20000000000000E+0001
 50
 1.01200000000000E+0002
 51
 2.39470000000000E+0002
  0
LINE
  8
0
 10
 6.27269187785360E+0002
 20
 1.30612146186419E+0003
 11
 7.82322400000000E+0002
 21
 1.33677400000000E+0003
  0
LINE
  8
0
 10
 7.82322400000000E+0002
 20
 1.33677400000000E+0003
 11
 7.51671461864190E+0002
 21
 1.18171918778536E+0003
  0
ARC
  8
0
 10
 7.39900000000000E+0002
 20
 1.18405000000000E+0003
 40
 1.20000000000000E+0001
 50
 2.10525000000000E+0002
 51
 3.48800000000000E+0002
  0
LINE
  8
0
 10
 7.29563108523524E+0002
 20
 1.17795502874465E+0003
 11
 7.05954800000000E+0002
 21
 1.21798010000000E+0003
  0
LINE
  8
0
 10
 7.05954800000000E+0002
 20
 1.21798010000000E+0003
 11
 4.14626800000000E+0002
 21
 9.26652200000000E+0002
  0
LINE
  8
0
 10
 4.14626800000000E+0002
 20
 9.26652200000000E+0002
 11
 3.72200400000000E+0002
 21
 9.69078600000000E+0002
  0
LINE
  8
0
 10
 3.72200400000000E+0002
 20
 9.69078600000000E+0002
 11
 6.63528400000000E+0002
 21
 1.26040650000000E+0003
  0
LINE
  8
0
 10
 5.15036000000000E+0002
 20
 1.40889890000000E+0003
 11
 4.75004126703905E+0002
 21
 1.43251364044946E+0003
  0
ARC
  8
0
 10
 4.81100000000000E+0002
 20
 1.44285000000000E+0003
 40
 1.20000000000000E+0001
 50
 1.01200000000000E+0002
 51
 2.39470000000000E+0002
  0
LINE
  8
0
 10
 4.78769187785360E+0002
 20
 1.45462146186419E+0003
 11
 6.33830000000000E+0002
 21
 1.48526650000000E+0003
  0
LINE
  8
0
 10
 6.33830000000000E+0002
 20
 1.48526650000000E+0003
 11
 6.03171461864190E+0002
 21
 1.33021918778536E+0003
  0
ARC
  8
0
 10
 5.91400000000000E+0002
 20
 1.33255000000000E+0003
 40
 1.20000000000000E+0001
 50
 2.10525000000000E+0002
 51
 3.48800000000000E+0002
  0
LINE
  8
0
 10
 5.81063108523524E+0002
 20
 1.32645502874465E+0003
 11
 5.57462400000000E+0002
 21
 1.36647250000000E+0003
  0
LINE
  8
0
 10
 5.57462400000000E+0002
 20
 1.36647250000000E+0003
 11
 2.66134400000000E+0002
 21
 1.07514460000000E+0003
  0
LINE
  8
0
 10
 2.66134400000000E+0002
 20
 1.07514460000000E+0003
 11
 2.23708000000000E+0002
 21
 1.11757100000000E+0003
  0
LINE
  8
0
 10
 2.23708000000000E+0002
 20
 1.11757100000000E+0003
 11
 5.15036000000000E+0002
 21
 1.40889890000000E+0003
  0
ENDSEC
  0
EOF
