  0
SECTION
  2
HEADER
  9
$ACADVER
  1
AC1003
  9
$INSBASE
 10
0.0
 20
0.0
  9
$EXTMIN
 10
 0.00000000000000E+0000
 20
 0.00000000000000E+0000
  9
$EXTMAX
 10
 1.60000000000000E+0003
 20
 1.60000000000000E+0003
  9
$LIMMIN
 10
0.0
 20
0.0
  9
$LIMMAX
 10
410.0
 20
287.0
  9
$VIEWCTR
 10
227.0059616
 20
165.058879 
  9
$VIEWSIZE
 40
 1.60000000000000E+0003
9
$SNAPMODE
70
0
9
$SNAPUNIT
10
1
20
1
9
$GRIDMODE
70
0
9
$GRIDUNIT
10
1
20
1
9
$ORTHOMODE
70
0
9
$rEGENMODE
70
1
9
$FILLMODE
70
1
9
$DRAGMODE
70
2
9
$LTSCALE
40
25.0
9
$OSMODE
70
0
9
$ATTMODE
70
1
9
$TRACEWID
40
1.0
9
$TEXTSTYLE
7
STANDARD
9
$CLAYER
8
0
9
$CELTYPE
6
VONLAYER
9
$CECOLOR
62
256
9
$LUNITS
70
2
9
$LUPREC
70
2
9
$AXISMODE
70
0
9
$AXISUNIT
10
0
20
0
9
$SKETCHINC
40
1.0
9
$FILLETRAD
40
0.0
9
$AUNITS
70
0
9
$AUPREC
70
0
9
$MENU
1
ACAD
9
$ELEVATION
40
0.0
9
$THICKNESS
40
0.0
9
$VIEWDIR
10
0.0
20
0.0
30
1.0
9
$LIMCHECK
70
0
9
$BLIPMODE
70
1
9
$CHAMFERA
40
0.0
9
$CHAMFERB
40
0.0
9
$USRTIMER
70
1
9
$ANGBASE
50
0.0
9
$ANGDIR
70
0
9
$PDMODE
70
0
9
$PDSIZE
40
0.0
9
$PLINEWID
40
0.0
9
$COORDS
70
0
0
ENDSEC
0
SECTION
2
TABLES
0
TABLE
2
LTYPE
70
1
0
LTYPE
2
AUSGEZOGEN
70
64
3
Ausgezogene Linie
72
65
73
0
40
0.0
0
ENDTAB
0
TABLE
2
LAYER
70
1
0
LAYER
2
0
70
0
62
7
6
AUSGEZOGEN
0
ENDTAB
0
TABLE
2
STYLE
70
1
0
STYLE
2
STANDARD
70
0
40
0.0
41
1.0
50
0.0
71
0
42
3.5
3
txt
4

0
ENDTAB
0
TABLE
2
VIEW
70
0
0
ENDTAB
0
ENDSEC
0
SECTION
2
BLOCKS
0
ENDSEC
0
SECTION
2
ENTITIES
  0
ARC
  8
0
 10
 6.00000000000000E+0001
 20
 6.00000000000000E+0001
 40
 6.00000000000000E+0001
 50
 1.80000000000000E+0002
 51
 2.70000000000000E+0002
  0
LINE
  8
0
 10
 0.00000000000000E+0000
 20
 6.00000000000000E+0001
 11
 0.00000000000000E+0000
 21
 1.54000000000000E+0003
  0
ARC
  8
0
 10
 6.00000000000000E+0001
 20
 1.54000000000000E+0003
 40
 6.00000000000000E+0001
 50
 9.00000000000000E+0001
 51
 1.80000000000000E+0002
  0
LINE
  8
0
 10
 6.00000000000000E+0001
 20
 1.60000000000000E+0003
 11
 1.54000000000000E+0003
 21
 1.60000000000000E+0003
  0
ARC
  8
0
 10
 1.54000000000000E+0003
 20
 1.54000000000000E+0003
 40
 6.00000000000000E+0001
 50
 0.00000000000000E+0000
 51
 9.00000000000000E+0001
  0
LINE
  8
0
 10
 1.60000000000000E+0003
 20
 1.54000000000000E+0003
 11
 1.60000000000000E+0003
 21
 6.00000000000000E+0001
  0
ARC
  8
0
 10
 1.54000000000000E+0003
 20
 6.00000000000000E+0001
 40
 6.00000000000000E+0001
 50
 2.70000000000000E+0002
 51
 3.60000000000000E+0002
  0
LINE
  8
0
 10
 1.54000000000000E+0003
 20
 0.00000000000000E+0000
 11
 6.00000000000000E+0001
 21
 0.00000000000000E+0000
  0
ARC
  8
0
 10
 6.00000000000000E+0001
 20
 6.00000000000000E+0001
 40
 4.50000000000000E+0001
 50
 1.80000000000000E+0002
 51
 2.70000000000000E+0002
  0
LINE
  8
0
 10
 1.50000000000000E+0001
 20
 6.00000000000000E+0001
 11
 1.50000000000000E+0001
 21
 1.54000000000000E+0003
  0
ARC
  8
0
 10
 6.00000000000000E+0001
 20
 1.54000000000000E+0003
 40
 4.50000000000000E+0001
 50
 9.00050000000000E+0001
 51
 1.80000000000000E+0002
  0
LINE
  8
0
 10
 5.99960730091880E+0001
 20
 1.58499999982865E+0003
 11
 1.54000000000000E+0003
 21
 1.58500000000000E+0003
  0
ARC
  8
0
 10
 1.54000000000000E+0003
 20
 1.54000000000000E+0003
 40
 4.50000000000000E+0001
 50
-0.00000000000000E+0000
 51
 9.00000000000000E+0001
  0
LINE
  8
0
 10
 1.58500000000000E+0003
 20
 1.54000000000000E+0003
 11
 1.58500000000000E+0003
 21
 6.00000000000000E+0001
  0
ARC
  8
0
 10
 1.54000000000000E+0003
 20
 6.00000000000000E+0001
 40
 4.50000000000000E+0001
 50
 2.70000000000000E+0002
 51
 3.60000000000000E+0002
  0
LINE
  8
0
 10
 1.54000000000000E+0003
 20
 1.50000000000000E+0001
 11
 6.00000000000000E+0001
 21
 1.50000000000000E+0001
  0
LINE
  8
0
 10
 6.00000000000000E+0001
 20
 3.50000000000000E+0001
 11
 1.54000000000000E+0003
 21
 3.50000000000000E+0001
  0
ARC
  8
0
 10
 1.54000000000000E+0003
 20
 6.00000000000000E+0001
 40
 2.50000000000000E+0001
 50
 2.70000000000000E+0002
 51
 3.60000000000000E+0002
  0
LINE
  8
0
 10
 1.56500000000000E+0003
 20
 6.00000000000000E+0001
 11
 1.56500000000000E+0003
 21
 1.54000000000000E+0003
  0
ARC
  8
0
 10
 1.54000000000000E+0003
 20
 1.54000000000000E+0003
 40
 2.50000000000000E+0001
 50
 0.00000000000000E+0000
 51
 9.00000000000000E+0001
  0
LINE
  8
0
 10
 1.54000000000000E+0003
 20
 1.56500000000000E+0003
 11
 6.00000000000000E+0001
 21
 1.56500000000000E+0003
  0
ARC
  8
0
 10
 6.00000000000000E+0001
 20
 1.54000000000000E+0003
 40
 2.50000000000000E+0001
 50
 9.00000000000000E+0001
 51
 1.80000000000000E+0002
  0
LINE
  8
0
 10
 3.50000000000000E+0001
 20
 1.54000000000000E+0003
 11
 3.50000000000000E+0001
 21
 6.00000000000000E+0001
  0
ARC
  8
0
 10
 6.00000000000000E+0001
 20
 6.00000000000000E+0001
 40
 2.50000000000000E+0001
 50
 1.80000000000000E+0002
 51
 2.70000000000000E+0002
  0
LINE
  8
0
 10
 1.40952500000000E+0003
 20
 3.26753600000000E+0002
 11
 1.31927359312881E+0003
 21
 2.36126406871193E+0002
  0
ARC
  8
0
 10
 1.36170000000000E+0003
 20
 1.93700000000000E+0002
 40
 6.00000000000000E+0001
 50
 1.35000000000000E+0002
 51
 1.80000000000000E+0002
  0
LINE
  8
0
 10
 1.30170000000000E+0003
 20
 1.93700000000000E+0002
 11
 1.30149330000000E+0003
 21
 1.15000000000000E+0002
  0
LINE
  8
0
 10
 1.30149330000000E+0003
 20
 1.15000000000000E+0002
 11
 1.24149320000000E+0003
 21
 1.15000000000000E+0002
  0
LINE
  8
0
 10
 1.24149320000000E+0003
 20
 1.15000000000000E+0002
 11
 1.24150000000000E+0003
 21
 1.93700000000000E+0002
  0
ARC
  8
0
 10
 1.36150000000000E+0003
 20
 1.93700000000000E+0002
 40
 1.20000000000000E+0002
 50
 1.35000000000000E+0002
 51
 1.80000000000000E+0002
  0
LINE
  8
0
 10
 1.27664718625761E+0003
 20
 2.78552813742386E+0002
 11
 1.36709850000000E+0003
 21
 3.69180100000000E+0002
  0
LINE
  8
0
 10
 1.36709850000000E+0003
 20
 3.69180100000000E+0002
 11
 1.32705953964447E+0003
 21
 3.92760450074702E+0002
  0
ARC
  8
0
 10
 1.33315000000000E+0003
 20
 4.03100000000000E+0002
 40
 1.20000000000000E+0001
 50
 1.01195000000000E+0002
 51
 2.39500000000000E+0002
  0
LINE
  8
0
 10
 1.33082021504807E+0003
 20
 4.14871665221105E+0002
 11
 1.48589270000000E+0003
 21
 4.45547000000000E+0002
  0
LINE
  8
0
 10
 1.48589270000000E+0003
 20
 4.45547000000000E+0002
 11
 1.45522146186419E+0003
 21
 2.90469187785360E+0002
  0
ARC
  8
0
 10
 1.44345000000000E+0003
 20
 2.92800000000000E+0002
 40
 1.20000000000000E+0001
 50
 2.10525000000000E+0002
 51
 3.48800000000000E+0002
  0
LINE
  8
0
 10
 1.43311310852352E+0003
 20
 2.86705028744649E+0002
 11
 1.40952500000000E+0003
 21
 3.26753600000000E+0002
  0
LINE
  8
0
 10
 1.26103270000000E+0003
 20
 4.75246100000000E+0002
 11
 1.10927359312881E+0003
 21
 3.23126406871193E+0002
  0
ARC
  8
0
 10
 1.15170000000000E+0003
 20
 2.80700000000000E+0002
 40
 6.00000000000000E+0001
 50
 1.35000000000000E+0002
 51
 1.80000000000000E+0002
  0
LINE
  8
0
 10
 1.09170000000000E+0003
 20
 2.80700000000000E+0002
 11
 1.09149340000000E+0003
 21
 1.15000000000000E+0002
  0
LINE
  8
0
 10
 1.09149340000000E+0003
 20
 1.15000000000000E+0002
 11
 1.03149360000000E+0003
 21
 1.15000000000000E+0002
  0
LINE
  8
0
 10
 1.03149360000000E+0003
 20
 1.15000000000000E+0002
 11
 1.03150000000000E+0003
 21
 2.80700000000000E+0002
  0
ARC
  8
0
 10
 1.15150000000000E+0003
 20
 2.80700000000000E+0002
 40
 1.20000000000000E+0002
 50
 1.35000000000000E+0002
 51
 1.80000000000000E+0002
  0
LINE
  8
0
 10
 1.06664718625761E+0003
 20
 3.65552813742386E+0002
 11
 1.21860610000000E+0003
 21
 5.17672600000000E+0002
  0
LINE
  8
0
 10
 1.21860610000000E+0003
 20
 5.17672600000000E+0002
 11
 1.17855953964447E+0003
 21
 5.41260450074702E+0002
  0
ARC
  8
0
 10
 1.18465000000000E+0003
 20
 5.51600000000000E+0002
 40
 1.20000000000000E+0001
 50
 1.01195000000000E+0002
 51
 2.39500000000000E+0002
  0
LINE
  8
0
 10
 1.18232021504807E+0003
 20
 5.63371665221105E+0002
 11
 1.33740030000000E+0003
 21
 5.94039400000000E+0002
  0
LINE
  8
0
 10
 1.33740030000000E+0003
 20
 5.94039400000000E+0002
 11
 1.30677146186419E+0003
 21
 4.38969187785360E+0002
  0
ARC
  8
0
 10
 1.29500000000000E+0003
 20
 4.41300000000000E+0002
 40
 1.20000000000000E+0001
 50
 2.10525000000000E+0002
 51
 3.48800000000000E+0002
  0
LINE
  8
0
 10
 1.28466310852352E+0003
 20
 4.35205028744649E+0002
 11
 1.26103270000000E+0003
 21
 4.75246100000000E+0002
  0
LINE
  8
0
 10
 1.11254030000000E+0003
 20
 6.23738600000000E+0002
 11
 8.99273593128807E+0002
 21
 4.10126406871193E+0002
  0
ARC
  8
0
 10
 9.41700000000000E+0002
 20
 3.67700000000000E+0002
 40
 6.00000000000000E+0001
 50
 1.35000000000000E+0002
 51
 1.80000000000000E+0002
  0
LINE
  8
0
 10
 8.81700000000000E+0002
 20
 3.67700000000000E+0002
 11
 8.81493400000000E+0002
 21
 1.15000000000000E+0002
  0
LINE
  8
0
 10
 8.81493400000000E+0002
 20
 1.15000000000000E+0002
 11
 8.21493700000000E+0002
 21
 1.15000000000000E+0002
  0
LINE
  8
0
 10
 8.21493700000000E+0002
 20
 1.15000000000000E+0002
 11
 8.21500000000000E+0002
 21
 3.67700000000000E+0002
  0
ARC
  8
0
 10
 9.41500000000000E+0002
 20
 3.67700000000000E+0002
 40
 1.20000000000000E+0002
 50
 1.35000000000000E+0002
 51
 1.80000000000000E+0002
  0
LINE
  8
0
 10
 8.56647186257614E+0002
 20
 4.52552813742386E+0002
 11
 1.07011380000000E+0003
 21
 6.66165100000000E+0002
  0
LINE
  8
0
 10
 1.07011380000000E+0003
 20
 6.66165100000000E+0002
 11
 1.03005953964447E+0003
 21
 6.89760450074702E+0002
  0
ARC
  8
0
 10
 1.03615000000000E+0003
 20
 7.00100000000000E+0002
 40
 1.20000000000000E+0001
 50
 1.01195000000000E+0002
 51
 2.39500000000000E+0002
  0
LINE
  8
0
 10
 1.03382021504807E+0003
 20
 7.11871665221105E+0002
 11
 1.18890790000000E+0003
 21
 7.42531900000000E+0002
  0
LINE
  8
0
 10
 1.18890790000000E+0003
 20
 7.42531900000000E+0002
 11
 1.15827146186419E+0003
 21
 5.87469187785360E+0002
  0
ARC
  8
0
 10
 1.14650000000000E+0003
 20
 5.89800000000000E+0002
 40
 1.20000000000000E+0001
 50
 2.10525000000000E+0002
 51
 3.48800000000000E+0002
  0
LINE
  8
0
 10
 1.13616310852352E+0003
 20
 5.83705028744649E+0002
 11
 1.11254030000000E+0003
 21
 6.23738600000000E+0002
  0
LINE
  8
0
 10
 9.64047900000000E+0002
 20
 7.72230400000000E+0002
 11
 7.50501600000000E+0002
 21
 5.58684100000000E+0002
  0
LINE
  8
0
 10
 7.50501600000000E+0002
 20
 5.58684100000000E+0002
 11
 7.08075200000000E+0002
 21
 6.01110500000000E+0002
  0
LINE
  8
0
 10
 7.08075200000000E+0002
 20
 6.01110500000000E+0002
 11
 9.21621500000000E+0002
 21
 8.14656800000000E+0002
  0
LINE
  8
0
 10
 9.21621500000000E+0002
 20
 8.14656800000000E+0002
 11
 8.81604126703905E+0002
 21
 8.38263640449464E+0002
  0
ARC
  8
0
 10
 8.87700000000000E+0002
 20
 8.48600000000000E+0002
 40
 1.20000000000000E+0001
 50
 1.01200000000000E+0002
 51
 2.39470000000000E+0002
  0
LINE
  8
0
 10
 8.85369187785360E+0002
 20
 8.60371461864190E+0002
 11
 1.04041540000000E+0003
 21
 8.91024300000000E+0002
  0
LINE
  8
0
 10
 1.04041540000000E+0003
 20
 8.91024300000000E+0002
 11
 1.00977146186419E+0003
 21
 7.35969187785360E+0002
  0
ARC
  8
0
 10
 9.98000000000000E+0002
 20
 7.38300000000000E+0002
 40
 1.20000000000000E+0001
 50
 2.10525000000000E+0002
 51
 3.48800000000000E+0002
  0
LINE
  8
0
 10
 9.87663108523524E+0002
 20
 7.32205028744649E+0002
 11
 9.64047900000000E+0002
 21
 7.72230400000000E+0002
  0
LINE
  8
0
 10
 7.73129100000000E+0002
 20
 9.63149200000000E+0002
 11
 7.33104126703905E+0002
 21
 9.86763640449464E+0002
  0
ARC
  8
0
 10
 7.39200000000000E+0002
 20
 9.97100000000000E+0002
 40
 1.20000000000000E+0001
 50
 1.01200000000000E+0002
 51
 2.39470000000000E+0002
  0
LINE
  8
0
 10
 7.36869187785360E+0002
 20
 1.00887146186419E+0003
 11
 8.91923000000000E+0002
 21
 1.03951670000000E+0003
  0
LINE
  8
0
 10
 8.91923000000000E+0002
 20
 1.03951670000000E+0003
 11
 8.61271461864190E+0002
 21
 8.84469187785360E+0002
  0
ARC
  8
0
 10
 8.49500000000000E+0002
 20
 8.86800000000000E+0002
 40
 1.20000000000000E+0001
 50
 2.10525000000000E+0002
 51
 3.48800000000000E+0002
  0
LINE
  8
0
 10
 8.39163108523524E+0002
 20
 8.80705028744649E+0002
 11
 8.15555500000000E+0002
 21
 9.20722800000000E+0002
  0
LINE
  8
0
 10
 8.15555500000000E+0002
 20
 9.20722800000000E+0002
 11
 6.02009200000000E+0002
 21
 7.07176500000000E+0002
  0
LINE
  8
0
 10
 6.02009200000000E+0002
 20
 7.07176500000000E+0002
 11
 5.59582800000000E+0002
 21
 7.49602900000000E+0002
  0
LINE
  8
0
 10
 5.59582800000000E+0002
 20
 7.49602900000000E+0002
 11
 7.73129100000000E+0002
 21
 9.63149200000000E+0002
  0
LINE
  8
0
 10
 6.24636600000000E+0002
 20
 1.11164160000000E+0003
 11
 5.84604126703905E+0002
 21
 1.13526364044946E+0003
  0
ARC
  8
0
 10
 5.90700000000000E+0002
 20
 1.14560000000000E+0003
 40
 1.20000000000000E+0001
 50
 1.01200000000000E+0002
 51
 2.39470000000000E+0002
  0
LINE
  8
0
 10
 5.88369187785360E+0002
 20
 1.15737146186419E+0003
 11
 7.43430600000000E+0002
 21
 1.18800910000000E+0003
  0
LINE
  8
0
 10
 7.43430600000000E+0002
 20
 1.18800910000000E+0003
 11
 7.12771461864190E+0002
 21
 1.03296918778536E+0003
  0
ARC
  8
0
 10
 7.01000000000000E+0002
 20
 1.03530000000000E+0003
 40
 1.20000000000000E+0001
 50
 2.10525000000000E+0002
 51
 3.48800000000000E+0002
  0
LINE
  8
0
 10
 6.90663108523524E+0002
 20
 1.02920502874465E+0003
 11
 6.67063000000000E+0002
 21
 1.06921520000000E+0003
  0
LINE
  8
0
 10
 6.67063000000000E+0002
 20
 1.06921520000000E+0003
 11
 4.53516800000000E+0002
 21
 8.55669000000000E+0002
  0
LINE
  8
0
 10
 4.53516800000000E+0002
 20
 8.55669000000000E+0002
 11
 4.11090400000000E+0002
 21
 8.98095400000000E+0002
  0
LINE
  8
0
 10
 4.11090400000000E+0002
 20
 8.98095400000000E+0002
 11
 6.24636600000000E+0002
 21
 1.11164160000000E+0003
  0
LINE
  8
0
 10
 4.76144200000000E+0002
 20
 1.26013400000000E+0003
 11
 4.36104126703905E+0002
 21
 1.28376364044946E+0003
  0
ARC
  8
0
 10
 4.42200000000000E+0002
 20
 1.29410000000000E+0003
 40
 1.20000000000000E+0001
 50
 1.01200000000000E+0002
 51
 2.39470000000000E+0002
  0
LINE
  8
0
 10
 4.39869187785360E+0002
 20
 1.30587146186419E+0003
 11
 5.94938200000000E+0002
 21
 1.33650160000000E+0003
  0
LINE
  8
0
 10
 5.94938200000000E+0002
 20
 1.33650160000000E+0003
 11
 5.64271461864190E+0002
 21
 1.18141918778536E+0003
  0
ARC
  8
0
 10
 5.52500000000000E+0002
 20
 1.18375000000000E+0003
 40
 1.20000000000000E+0001
 50
 2.10525000000000E+0002
 51
 3.48800000000000E+0002
  0
LINE
  8
0
 10
 5.42163108523524E+0002
 20
 1.17765502874465E+0003
 11
 5.18570600000000E+0002
 21
 1.21770760000000E+0003
  0
LINE
  8
0
 10
 5.18570600000000E+0002
 20
 1.21770760000000E+0003
 11
 3.05024400000000E+0002
 21
 1.00416140000000E+0003
  0
LINE
  8
0
 10
 3.05024400000000E+0002
 20
 1.00416140000000E+0003
 11
 2.62598000000000E+0002
 21
 1.04658780000000E+0003
  0
LINE
  8
0
 10
 2.62598000000000E+0002
 20
 1.04658780000000E+0003
 11
 4.76144200000000E+0002
 21
 1.26013400000000E+0003
  0
LINE
  8
0
 10
 3.27651800000000E+0002
 20
 1.40862650000000E+0003
 11
 2.87604126703905E+0002
 21
 1.43221364044946E+0003
  0
ARC
  8
0
 10
 2.93700000000000E+0002
 20
 1.44255000000000E+0003
 40
 1.20000000000000E+0001
 50
 1.01200000000000E+0002
 51
 2.39470000000000E+0002
  0
LINE
  8
0
 10
 2.91369187785360E+0002
 20
 1.45432146186419E+0003
 11
 4.46445700000000E+0002
 21
 1.48499400000000E+0003
  0
LINE
  8
0
 10
 4.46445700000000E+0002
 20
 1.48499400000000E+0003
 11
 4.15771461864190E+0002
 21
 1.32991918778536E+0003
  0
ARC
  8
0
 10
 4.04000000000000E+0002
 20
 1.33225000000000E+0003
 40
 1.20000000000000E+0001
 50
 2.10525000000000E+0002
 51
 3.48800000000000E+0002
  0
LINE
  8
0
 10
 3.93663108523524E+0002
 20
 1.32615502874465E+0003
 11
 3.70078200000000E+0002
 21
 1.36620000000000E+0003
  0
LINE
  8
0
 10
 3.70078200000000E+0002
 20
 1.36620000000000E+0003
 11
 1.56531900000000E+0002
 21
 1.15265380000000E+0003
  0
LINE
  8
0
 10
 1.56531900000000E+0002
 20
 1.15265380000000E+0003
 11
 1.14105500000000E+0002
 21
 1.19508020000000E+0003
  0
LINE
  8
0
 10
 1.14105500000000E+0002
 20
 1.19508020000000E+0003
 11
 3.27651800000000E+0002
 21
 1.40862650000000E+0003
  0
ENDSEC
  0
EOF
