  0
SECTION
  2
HEADER
  9
$ACADVER
  1
AC1003
  9
$INSBASE
 10
0.0
 20
0.0
  9
$EXTMIN
 10
 0.00000000000000E+0000
 20
 0.00000000000000E+0000
  9
$EXTMAX
 10
 1.60000000000000E+0003
 20
 1.60000000000000E+0003
  9
$LIMMIN
 10
0.0
 20
0.0
  9
$LIMMAX
 10
410.0
 20
287.0
  9
$VIEWCTR
 10
227.0059616
 20
165.058879 
  9
$VIEWSIZE
 40
 1.60000000000000E+0003
9
$SNAPMODE
70
0
9
$SNAPUNIT
10
1
20
1
9
$GRIDMODE
70
0
9
$GRIDUNIT
10
1
20
1
9
$ORTHOMODE
70
0
9
$rEGENMODE
70
1
9
$FILLMODE
70
1
9
$DRAGMODE
70
2
9
$LTSCALE
40
25.0
9
$OSMODE
70
0
9
$ATTMODE
70
1
9
$TRACEWID
40
1.0
9
$TEXTSTYLE
7
STANDARD
9
$CLAYER
8
0
9
$CELTYPE
6
VONLAYER
9
$CECOLOR
62
256
9
$LUNITS
70
2
9
$LUPREC
70
2
9
$AXISMODE
70
0
9
$AXISUNIT
10
0
20
0
9
$SKETCHINC
40
1.0
9
$FILLETRAD
40
0.0
9
$AUNITS
70
0
9
$AUPREC
70
0
9
$MENU
1
ACAD
9
$ELEVATION
40
0.0
9
$THICKNESS
40
0.0
9
$VIEWDIR
10
0.0
20
0.0
30
1.0
9
$LIMCHECK
70
0
9
$BLIPMODE
70
1
9
$CHAMFERA
40
0.0
9
$CHAMFERB
40
0.0
9
$USRTIMER
70
1
9
$ANGBASE
50
0.0
9
$ANGDIR
70
0
9
$PDMODE
70
0
9
$PDSIZE
40
0.0
9
$PLINEWID
40
0.0
9
$COORDS
70
0
0
ENDSEC
0
SECTION
2
TABLES
0
TABLE
2
LTYPE
70
1
0
LTYPE
2
AUSGEZOGEN
70
64
3
Ausgezogene Linie
72
65
73
0
40
0.0
0
ENDTAB
0
TABLE
2
LAYER
70
1
0
LAYER
2
0
70
0
62
7
6
AUSGEZOGEN
0
ENDTAB
0
TABLE
2
STYLE
70
1
0
STYLE
2
STANDARD
70
0
40
0.0
41
1.0
50
0.0
71
0
42
3.5
3
txt
4

0
ENDTAB
0
TABLE
2
VIEW
70
0
0
ENDTAB
0
ENDSEC
0
SECTION
2
BLOCKS
0
ENDSEC
0
SECTION
2
ENTITIES
  0
ARC
  8
0
 10
 6.00000000000000E+0001
 20
 6.00000000000000E+0001
 40
 6.00000000000000E+0001
 50
 1.80000000000000E+0002
 51
 2.70000000000000E+0002
  0
LINE
  8
0
 10
 0.00000000000000E+0000
 20
 6.00000000000000E+0001
 11
 0.00000000000000E+0000
 21
 1.54000000000000E+0003
  0
ARC
  8
0
 10
 6.00000000000000E+0001
 20
 1.54000000000000E+0003
 40
 6.00000000000000E+0001
 50
 9.00000000000000E+0001
 51
 1.80000000000000E+0002
  0
LINE
  8
0
 10
 6.00000000000000E+0001
 20
 1.60000000000000E+0003
 11
 1.54000000000000E+0003
 21
 1.60000000000000E+0003
  0
ARC
  8
0
 10
 1.54000000000000E+0003
 20
 1.54000000000000E+0003
 40
 6.00000000000000E+0001
 50
 0.00000000000000E+0000
 51
 9.00000000000000E+0001
  0
LINE
  8
0
 10
 1.60000000000000E+0003
 20
 1.54000000000000E+0003
 11
 1.60000000000000E+0003
 21
 6.00000000000000E+0001
  0
ARC
  8
0
 10
 1.54000000000000E+0003
 20
 6.00000000000000E+0001
 40
 6.00000000000000E+0001
 50
 2.70000000000000E+0002
 51
 3.60000000000000E+0002
  0
LINE
  8
0
 10
 1.54000000000000E+0003
 20
 0.00000000000000E+0000
 11
 6.00000000000000E+0001
 21
 0.00000000000000E+0000
  0
ARC
  8
0
 10
 6.00000000000000E+0001
 20
 6.00000000000000E+0001
 40
 4.50000000000000E+0001
 50
 1.80000000000000E+0002
 51
 2.70000000000000E+0002
  0
LINE
  8
0
 10
 1.50000000000000E+0001
 20
 6.00000000000000E+0001
 11
 1.50000000000000E+0001
 21
 1.54000000000000E+0003
  0
ARC
  8
0
 10
 6.00000000000000E+0001
 20
 1.54000000000000E+0003
 40
 4.50000000000000E+0001
 50
 9.00000000000000E+0001
 51
 1.80000000000000E+0002
  0
LINE
  8
0
 10
 6.00000000000000E+0001
 20
 1.58500000000000E+0003
 11
 1.54000000000000E+0003
 21
 1.58500000000000E+0003
  0
ARC
  8
0
 10
 1.54000000000000E+0003
 20
 1.54000000000000E+0003
 40
 4.50000000000000E+0001
 50
 0.00000000000000E+0000
 51
 9.00000000000000E+0001
  0
LINE
  8
0
 10
 1.58500000000000E+0003
 20
 1.54000000000000E+0003
 11
 1.58500000000000E+0003
 21
 6.00000000000000E+0001
  0
ARC
  8
0
 10
 1.54000000000000E+0003
 20
 6.00000000000000E+0001
 40
 4.50000000000000E+0001
 50
 2.70000000000000E+0002
 51
 3.60000000000000E+0002
  0
LINE
  8
0
 10
 1.54000000000000E+0003
 20
 1.50000000000000E+0001
 11
 6.00000000000000E+0001
 21
 1.50000000000000E+0001
  0
ARC
  8
0
 10
 6.00000000000000E+0001
 20
 6.00000000000000E+0001
 40
 2.50000000000000E+0001
 50
 1.80000000000000E+0002
 51
 2.70000000000000E+0002
  0
LINE
  8
0
 10
 3.50000000000000E+0001
 20
 6.00000000000000E+0001
 11
 3.50000000000000E+0001
 21
 1.54000000000000E+0003
  0
ARC
  8
0
 10
 6.00000000000000E+0001
 20
 1.54000000000000E+0003
 40
 2.50000000000000E+0001
 50
 9.00000000000000E+0001
 51
 1.80000000000000E+0002
  0
LINE
  8
0
 10
 6.00000000000000E+0001
 20
 1.56500000000000E+0003
 11
 1.54000000000000E+0003
 21
 1.56500000000000E+0003
  0
ARC
  8
0
 10
 1.54000000000000E+0003
 20
 1.54000000000000E+0003
 40
 2.50000000000000E+0001
 50
 0.00000000000000E+0000
 51
 9.00000000000000E+0001
  0
LINE
  8
0
 10
 1.56500000000000E+0003
 20
 1.54000000000000E+0003
 11
 1.56500000000000E+0003
 21
 6.00000000000000E+0001
  0
ARC
  8
0
 10
 1.54000000000000E+0003
 20
 6.00000000000000E+0001
 40
 2.50000000000000E+0001
 50
 2.70000000000000E+0002
 51
 3.60000000000000E+0002
  0
LINE
  8
0
 10
 1.54000000000000E+0003
 20
 3.50000000000000E+0001
 11
 6.00000000000000E+0001
 21
 3.50000000000000E+0001
  0
LINE
  8
0
 10
 1.37212310000000E+0003
 20
 4.75252200000000E+0002
 11
 1.14257359312881E+0003
 21
 2.45376406871193E+0002
  0
ARC
  8
0
 10
 1.18500000000000E+0003
 20
 2.02950000000000E+0002
 40
 6.00000000000000E+0001
 50
 1.35000000000000E+0002
 51
 1.80000000000000E+0002
  0
LINE
  8
0
 10
 1.12500000000000E+0003
 20
 2.02950000000000E+0002
 11
 1.12480210000000E+0003
 21
 1.15000000000000E+0002
  0
LINE
  8
0
 10
 1.12480210000000E+0003
 20
 1.15000000000000E+0002
 11
 1.06480230000000E+0003
 21
 1.15000000000000E+0002
  0
LINE
  8
0
 10
 1.06480230000000E+0003
 20
 1.15000000000000E+0002
 11
 1.06480000000000E+0003
 21
 2.02950000000000E+0002
  0
ARC
  8
0
 10
 1.18480000000000E+0003
 20
 2.02950000000000E+0002
 40
 1.20000000000000E+0002
 50
 1.35000000000000E+0002
 51
 1.80000000000000E+0002
  0
LINE
  8
0
 10
 1.09994718625761E+0003
 20
 2.87802813742386E+0002
 11
 1.32969660000000E+0003
 21
 5.17678700000000E+0002
  0
LINE
  8
0
 10
 1.32969660000000E+0003
 20
 5.17678700000000E+0002
 11
 1.28965953964447E+0003
 21
 5.41260450074702E+0002
  0
ARC
  8
0
 10
 1.29575000000000E+0003
 20
 5.51600000000000E+0002
 40
 1.20000000000000E+0001
 50
 1.01195000000000E+0002
 51
 2.39500000000000E+0002
  0
LINE
  8
0
 10
 1.29342021504807E+0003
 20
 5.63371665221105E+0002
 11
 1.44849070000000E+0003
 21
 5.94045500000000E+0002
  0
LINE
  8
0
 10
 1.44849070000000E+0003
 20
 5.94045500000000E+0002
 11
 1.41782146186419E+0003
 21
 4.38969187785360E+0002
  0
ARC
  8
0
 10
 1.40605000000000E+0003
 20
 4.41300000000000E+0002
 40
 1.20000000000000E+0001
 50
 2.10525000000000E+0002
 51
 3.48800000000000E+0002
  0
LINE
  8
0
 10
 1.39571310852352E+0003
 20
 4.35205028744649E+0002
 11
 1.37212310000000E+0003
 21
 4.75252200000000E+0002
  0
LINE
  8
0
 10
 1.22363080000000E+0003
 20
 6.23744700000000E+0002
 11
 9.32573593128807E+0002
 21
 3.32326406871193E+0002
  0
ARC
  8
0
 10
 9.75000000000000E+0002
 20
 2.89900000000000E+0002
 40
 6.00000000000000E+0001
 50
 1.35000000000000E+0002
 51
 1.80000000000000E+0002
  0
LINE
  8
0
 10
 9.15000000000000E+0002
 20
 2.89900000000000E+0002
 11
 9.14802100000000E+0002
 21
 1.15000000000000E+0002
  0
LINE
  8
0
 10
 9.14802100000000E+0002
 20
 1.15000000000000E+0002
 11
 8.54802400000000E+0002
 21
 1.15000000000000E+0002
  0
LINE
  8
0
 10
 8.54802400000000E+0002
 20
 1.15000000000000E+0002
 11
 8.54800000000000E+0002
 21
 2.89900000000000E+0002
  0
ARC
  8
0
 10
 9.74800000000000E+0002
 20
 2.89900000000000E+0002
 40
 1.20000000000000E+0002
 50
 1.35000000000000E+0002
 51
 1.80000000000000E+0002
  0
LINE
  8
0
 10
 8.89947186257614E+0002
 20
 3.74752813742386E+0002
 11
 1.18120430000000E+0003
 21
 6.66171100000000E+0002
  0
LINE
  8
0
 10
 1.18120430000000E+0003
 20
 6.66171100000000E+0002
 11
 1.14115953964447E+0003
 21
 6.89760450074702E+0002
  0
ARC
  8
0
 10
 1.14725000000000E+0003
 20
 7.00100000000000E+0002
 40
 1.20000000000000E+0001
 50
 1.01195000000000E+0002
 51
 2.39500000000000E+0002
  0
LINE
  8
0
 10
 1.14492021504807E+0003
 20
 7.11871665221105E+0002
 11
 1.29999840000000E+0003
 21
 7.42538000000000E+0002
  0
LINE
  8
0
 10
 1.29999840000000E+0003
 20
 7.42538000000000E+0002
 11
 1.26932146186419E+0003
 21
 5.87469187785360E+0002
  0
ARC
  8
0
 10
 1.25755000000000E+0003
 20
 5.89800000000000E+0002
 40
 1.20000000000000E+0001
 50
 2.10525000000000E+0002
 51
 3.48800000000000E+0002
  0
LINE
  8
0
 10
 1.24721310852352E+0003
 20
 5.83705028744649E+0002
 11
 1.22363080000000E+0003
 21
 6.23744700000000E+0002
  0
LINE
  8
0
 10
 1.07513840000000E+0003
 20
 7.72236400000000E+0002
 11
 7.83810300000000E+0002
 21
 4.80908400000000E+0002
  0
LINE
  8
0
 10
 7.83810300000000E+0002
 20
 4.80908400000000E+0002
 11
 7.41383900000000E+0002
 21
 5.23334900000000E+0002
  0
LINE
  8
0
 10
 7.41383900000000E+0002
 20
 5.23334900000000E+0002
 11
 1.03271200000000E+0003
 21
 8.14662900000000E+0002
  0
LINE
  8
0
 10
 1.03271200000000E+0003
 20
 8.14662900000000E+0002
 11
 9.92654126703905E+0002
 21
 8.38263640449464E+0002
  0
ARC
  8
0
 10
 9.98750000000000E+0002
 20
 8.48600000000000E+0002
 40
 1.20000000000000E+0001
 50
 1.01200000000000E+0002
 51
 2.39470000000000E+0002
  0
LINE
  8
0
 10
 9.96419187785360E+0002
 20
 8.60371461864190E+0002
 11
 1.15150590000000E+0003
 21
 8.91030300000000E+0002
  0
LINE
  8
0
 10
 1.15150590000000E+0003
 20
 8.91030300000000E+0002
 11
 1.12087146186419E+0003
 21
 7.35969187785360E+0002
  0
ARC
  8
0
 10
 1.10910000000000E+0003
 20
 7.38300000000000E+0002
 40
 1.20000000000000E+0001
 50
 2.10525000000000E+0002
 51
 3.48800000000000E+0002
  0
LINE
  8
0
 10
 1.09876310852352E+0003
 20
 7.32205028744649E+0002
 11
 1.07513840000000E+0003
 21
 7.72236400000000E+0002
  0
LINE
  8
0
 10
 8.84219600000000E+0002
 20
 9.63155300000000E+0002
 11
 8.44204126703905E+0002
 21
 9.86763640449464E+0002
  0
ARC
  8
0
 10
 8.50300000000000E+0002
 20
 9.97100000000000E+0002
 40
 1.20000000000000E+0001
 50
 1.01200000000000E+0002
 51
 2.39470000000000E+0002
  0
LINE
  8
0
 10
 8.47969187785360E+0002
 20
 1.00887146186419E+0003
 11
 1.00301350000000E+0003
 21
 1.03952270000000E+0003
  0
LINE
  8
0
 10
 1.00301350000000E+0003
 20
 1.03952270000000E+0003
 11
 9.72371461864190E+0002
 21
 8.84469187785360E+0002
  0
ARC
  8
0
 10
 9.60600000000000E+0002
 20
 8.86800000000000E+0002
 40
 1.20000000000000E+0001
 50
 2.10525000000000E+0002
 51
 3.48800000000000E+0002
  0
LINE
  8
0
 10
 9.50263108523524E+0002
 20
 8.80705028744649E+0002
 11
 9.26646000000000E+0002
 21
 9.20728900000000E+0002
  0
LINE
  8
0
 10
 9.26646000000000E+0002
 20
 9.20728900000000E+0002
 11
 6.35317900000000E+0002
 21
 6.29400900000000E+0002
  0
LINE
  8
0
 10
 6.35317900000000E+0002
 20
 6.29400900000000E+0002
 11
 5.92891500000000E+0002
 21
 6.71827300000000E+0002
  0
LINE
  8
0
 10
 5.92891500000000E+0002
 20
 6.71827300000000E+0002
 11
 8.84219600000000E+0002
 21
 9.63155300000000E+0002
  0
LINE
  8
0
 10
 7.35727100000000E+0002
 20
 1.11164760000000E+0003
 11
 6.95704126703905E+0002
 21
 1.13526364044946E+0003
  0
ARC
  8
0
 10
 7.01800000000000E+0002
 20
 1.14560000000000E+0003
 40
 1.20000000000000E+0001
 50
 1.01200000000000E+0002
 51
 2.39470000000000E+0002
  0
LINE
  8
0
 10
 6.99469187785360E+0002
 20
 1.15737146186419E+0003
 11
 8.54521000000000E+0002
 21
 1.18801520000000E+0003
  0
LINE
  8
0
 10
 8.54521000000000E+0002
 20
 1.18801520000000E+0003
 11
 8.23871461864190E+0002
 21
 1.03296918778536E+0003
  0
ARC
  8
0
 10
 8.12100000000000E+0002
 20
 1.03530000000000E+0003
 40
 1.20000000000000E+0001
 50
 2.10525000000000E+0002
 51
 3.48800000000000E+0002
  0
LINE
  8
0
 10
 8.01763108523524E+0002
 20
 1.02920502874465E+0003
 11
 7.78153400000000E+0002
 21
 1.06922130000000E+0003
  0
LINE
  8
0
 10
 7.78153400000000E+0002
 20
 1.06922130000000E+0003
 11
 4.86825500000000E+0002
 21
 7.77893400000000E+0002
  0
LINE
  8
0
 10
 4.86825500000000E+0002
 20
 7.77893400000000E+0002
 11
 4.44399100000000E+0002
 21
 8.20319800000000E+0002
  0
LINE
  8
0
 10
 4.44399100000000E+0002
 20
 8.20319800000000E+0002
 11
 7.35727100000000E+0002
 21
 1.11164760000000E+0003
  0
LINE
  8
0
 10
 5.87234700000000E+0002
 20
 1.26014010000000E+0003
 11
 5.47204126703905E+0002
 21
 1.28376364044946E+0003
  0
ARC
  8
0
 10
 5.53300000000000E+0002
 20
 1.29410000000000E+0003
 40
 1.20000000000000E+0001
 50
 1.01200000000000E+0002
 51
 2.39470000000000E+0002
  0
LINE
  8
0
 10
 5.50969187785360E+0002
 20
 1.30587146186419E+0003
 11
 7.06028700000000E+0002
 21
 1.33650770000000E+0003
  0
LINE
  8
0
 10
 7.06028700000000E+0002
 20
 1.33650770000000E+0003
 11
 6.75371461864190E+0002
 21
 1.18146918778536E+0003
  0
ARC
  8
0
 10
 6.63600000000000E+0002
 20
 1.18380000000000E+0003
 40
 1.20000000000000E+0001
 50
 2.10525000000000E+0002
 51
 3.48800000000000E+0002
  0
LINE
  8
0
 10
 6.53263108523524E+0002
 20
 1.17770502874465E+0003
 11
 6.29661100000000E+0002
 21
 1.21771360000000E+0003
  0
LINE
  8
0
 10
 6.29661100000000E+0002
 20
 1.21771360000000E+0003
 11
 3.38333100000000E+0002
 21
 9.26385800000000E+0002
  0
LINE
  8
0
 10
 3.38333100000000E+0002
 20
 9.26385800000000E+0002
 11
 2.95906700000000E+0002
 21
 9.68812200000000E+0002
  0
LINE
  8
0
 10
 2.95906700000000E+0002
 20
 9.68812200000000E+0002
 11
 5.87234700000000E+0002
 21
 1.26014010000000E+0003
  0
LINE
  8
0
 10
 4.38742300000000E+0002
 20
 1.40863250000000E+0003
 11
 3.98704126703905E+0002
 21
 1.43221364044946E+0003
  0
ARC
  8
0
 10
 4.04800000000000E+0002
 20
 1.44255000000000E+0003
 40
 1.20000000000000E+0001
 50
 1.01200000000000E+0002
 51
 2.39470000000000E+0002
  0
LINE
  8
0
 10
 4.02469187785360E+0002
 20
 1.45432146186419E+0003
 11
 5.57536200000000E+0002
 21
 1.48500000000000E+0003
  0
LINE
  8
0
 10
 5.57536200000000E+0002
 20
 1.48500000000000E+0003
 11
 5.26871461864190E+0002
 21
 1.32991918778536E+0003
  0
ARC
  8
0
 10
 5.15100000000000E+0002
 20
 1.33225000000000E+0003
 40
 1.20000000000000E+0001
 50
 2.10525000000000E+0002
 51
 3.48800000000000E+0002
  0
LINE
  8
0
 10
 5.04763108523524E+0002
 20
 1.32615502874465E+0003
 11
 4.81168700000000E+0002
 21
 1.36620610000000E+0003
  0
LINE
  8
0
 10
 4.81168700000000E+0002
 20
 1.36620610000000E+0003
 11
 1.89840600000000E+0002
 21
 1.07487810000000E+0003
  0
LINE
  8
0
 10
 1.89840600000000E+0002
 20
 1.07487810000000E+0003
 11
 1.47414200000000E+0002
 21
 1.11730460000000E+0003
  0
LINE
  8
0
 10
 1.47414200000000E+0002
 20
 1.11730460000000E+0003
 11
 4.38742300000000E+0002
 21
 1.40863250000000E+0003
  0
ENDSEC
  0
EOF
