  0
SECTION
  2
HEADER
  9
$ACADVER
  1
AC1003
  9
$INSBASE
 10
0.0
 20
0.0
  9
$EXTMIN
 10
 0.00000000000000E+0000
 20
 0.00000000000000E+0000
  9
$EXTMAX
 10
 1.25000000000000E+0003
 20
 1.60000000000000E+0003
  9
$LIMMIN
 10
0.0
 20
0.0
  9
$LIMMAX
 10
410.0
 20
287.0
  9
$VIEWCTR
 10
227.0059616
 20
165.058879 
  9
$VIEWSIZE
 40
 1.60000000000000E+0003
9
$SNAPMODE
70
0
9
$SNAPUNIT
10
1
20
1
9
$GRIDMODE
70
0
9
$GRIDUNIT
10
1
20
1
9
$ORTHOMODE
70
0
9
$rEGENMODE
70
1
9
$FILLMODE
70
1
9
$DRAGMODE
70
2
9
$LTSCALE
40
25.0
9
$OSMODE
70
0
9
$ATTMODE
70
1
9
$TRACEWID
40
1.0
9
$TEXTSTYLE
7
STANDARD
9
$CLAYER
8
0
9
$CELTYPE
6
VONLAYER
9
$CECOLOR
62
256
9
$LUNITS
70
2
9
$LUPREC
70
2
9
$AXISMODE
70
0
9
$AXISUNIT
10
0
20
0
9
$SKETCHINC
40
1.0
9
$FILLETRAD
40
0.0
9
$AUNITS
70
0
9
$AUPREC
70
0
9
$MENU
1
ACAD
9
$ELEVATION
40
0.0
9
$THICKNESS
40
0.0
9
$VIEWDIR
10
0.0
20
0.0
30
1.0
9
$LIMCHECK
70
0
9
$BLIPMODE
70
1
9
$CHAMFERA
40
0.0
9
$CHAMFERB
40
0.0
9
$USRTIMER
70
1
9
$ANGBASE
50
0.0
9
$ANGDIR
70
0
9
$PDMODE
70
0
9
$PDSIZE
40
0.0
9
$PLINEWID
40
0.0
9
$COORDS
70
0
0
ENDSEC
0
SECTION
2
TABLES
0
TABLE
2
LTYPE
70
1
0
LTYPE
2
AUSGEZOGEN
70
64
3
Ausgezogene Linie
72
65
73
0
40
0.0
0
ENDTAB
0
TABLE
2
LAYER
70
1
0
LAYER
2
0
70
0
62
7
6
AUSGEZOGEN
0
ENDTAB
0
TABLE
2
STYLE
70
1
0
STYLE
2
STANDARD
70
0
40
0.0
41
1.0
50
0.0
71
0
42
3.5
3
txt
4

0
ENDTAB
0
TABLE
2
VIEW
70
0
0
ENDTAB
0
ENDSEC
0
SECTION
2
BLOCKS
0
ENDSEC
0
SECTION
2
ENTITIES
  0
ARC
  8
0
 10
 6.00000000000000E+0001
 20
 6.00000000000000E+0001
 40
 6.00000000000000E+0001
 50
 1.80000000000000E+0002
 51
 2.70000000000000E+0002
  0
LINE
  8
0
 10
 0.00000000000000E+0000
 20
 6.00000000000000E+0001
 11
 0.00000000000000E+0000
 21
 1.54000000000000E+0003
  0
ARC
  8
0
 10
 6.00000000000000E+0001
 20
 1.54000000000000E+0003
 40
 6.00000000000000E+0001
 50
 9.00000000000000E+0001
 51
 1.80000000000000E+0002
  0
LINE
  8
0
 10
 6.00000000000000E+0001
 20
 1.60000000000000E+0003
 11
 1.19000000000000E+0003
 21
 1.60000000000000E+0003
  0
ARC
  8
0
 10
 1.19000000000000E+0003
 20
 1.54000000000000E+0003
 40
 6.00000000000000E+0001
 50
 0.00000000000000E+0000
 51
 9.00000000000000E+0001
  0
LINE
  8
0
 10
 1.25000000000000E+0003
 20
 1.54000000000000E+0003
 11
 1.25000000000000E+0003
 21
 6.00000000000000E+0001
  0
ARC
  8
0
 10
 1.19000000000000E+0003
 20
 6.00000000000000E+0001
 40
 6.00000000000000E+0001
 50
 2.70000000000000E+0002
 51
 3.60000000000000E+0002
  0
LINE
  8
0
 10
 1.19000000000000E+0003
 20
 0.00000000000000E+0000
 11
 6.00000000000000E+0001
 21
 0.00000000000000E+0000
  0
ARC
  8
0
 10
 6.00000000000000E+0001
 20
 6.00000000000000E+0001
 40
 4.50000000000000E+0001
 50
 1.80000000000000E+0002
 51
 2.70000000000000E+0002
  0
LINE
  8
0
 10
 1.50000000000000E+0001
 20
 6.00000000000000E+0001
 11
 1.50000000000000E+0001
 21
 1.54000000000000E+0003
  0
ARC
  8
0
 10
 6.00000000000000E+0001
 20
 1.54000000000000E+0003
 40
 4.50000000000000E+0001
 50
 9.00000000000000E+0001
 51
 1.80000000000000E+0002
  0
LINE
  8
0
 10
 6.00000000000000E+0001
 20
 1.58500000000000E+0003
 11
 1.19000000000000E+0003
 21
 1.58500000000000E+0003
  0
ARC
  8
0
 10
 1.19000000000000E+0003
 20
 1.54000000000000E+0003
 40
 4.50000000000000E+0001
 50
 0.00000000000000E+0000
 51
 9.00000000000000E+0001
  0
LINE
  8
0
 10
 1.23500000000000E+0003
 20
 1.54000000000000E+0003
 11
 1.23500000000000E+0003
 21
 6.00000000000000E+0001
  0
ARC
  8
0
 10
 1.19000000000000E+0003
 20
 6.00000000000000E+0001
 40
 4.50000000000000E+0001
 50
 2.70000000000000E+0002
 51
 3.60000000000000E+0002
  0
LINE
  8
0
 10
 1.19000000000000E+0003
 20
 1.50000000000000E+0001
 11
 6.00000000000000E+0001
 21
 1.50000000000000E+0001
  0
ARC
  8
0
 10
 6.00000000000000E+0001
 20
 6.00000000000000E+0001
 40
 2.50000000000000E+0001
 50
 1.80000000000000E+0002
 51
 2.70000000000000E+0002
  0
LINE
  8
0
 10
 3.50000000000000E+0001
 20
 6.00000000000000E+0001
 11
 3.50000000000000E+0001
 21
 1.54000000000000E+0003
  0
ARC
  8
0
 10
 6.00000000000000E+0001
 20
 1.54000000000000E+0003
 40
 2.50000000000000E+0001
 50
 9.00000000000000E+0001
 51
 1.80000000000000E+0002
  0
LINE
  8
0
 10
 6.00000000000000E+0001
 20
 1.56500000000000E+0003
 11
 1.19000000000000E+0003
 21
 1.56500000000000E+0003
  0
ARC
  8
0
 10
 1.19000000000000E+0003
 20
 1.54000000000000E+0003
 40
 2.50000000000000E+0001
 50
 0.00000000000000E+0000
 51
 9.00000000000000E+0001
  0
LINE
  8
0
 10
 1.21500000000000E+0003
 20
 1.54000000000000E+0003
 11
 1.21500000000000E+0003
 21
 6.00000000000000E+0001
  0
ARC
  8
0
 10
 1.19000000000000E+0003
 20
 6.00000000000000E+0001
 40
 2.50000000000000E+0001
 50
 2.70000000000000E+0002
 51
 3.60000000000000E+0002
  0
LINE
  8
0
 10
 1.19000000000000E+0003
 20
 3.50000000000000E+0001
 11
 6.00000000000000E+0001
 21
 3.50000000000000E+0001
  0
LINE
  8
0
 10
 1.01178740000000E+0003
 20
 7.72237000000000E+0002
 11
 7.98523593128807E+0002
 21
 5.58626406871193E+0002
  0
ARC
  8
0
 10
 8.40950000000000E+0002
 20
 5.16200000000000E+0002
 40
 6.00000000000000E+0001
 50
 1.35000000000000E+0002
 51
 1.80000000000000E+0002
  0
LINE
  8
0
 10
 7.80950000000000E+0002
 20
 5.16200000000000E+0002
 11
 7.80740500000000E+0002
 21
 1.15000000000000E+0002
  0
LINE
  8
0
 10
 7.80740500000000E+0002
 20
 1.15000000000000E+0002
 11
 7.20740800000000E+0002
 21
 1.15000000000000E+0002
  0
LINE
  8
0
 10
 7.20740800000000E+0002
 20
 1.15000000000000E+0002
 11
 7.20750000000000E+0002
 21
 5.16200000000000E+0002
  0
ARC
  8
0
 10
 8.40750000000000E+0002
 20
 5.16200000000000E+0002
 40
 1.20000000000000E+0002
 50
 1.35000000000000E+0002
 51
 1.80000000000000E+0002
  0
LINE
  8
0
 10
 7.55897186257614E+0002
 20
 6.01052813742386E+0002
 11
 9.69360900000000E+0002
 21
 8.14663500000000E+0002
  0
LINE
  8
0
 10
 9.69360900000000E+0002
 20
 8.14663500000000E+0002
 11
 9.29309539644472E+0002
 21
 8.38260450074702E+0002
  0
ARC
  8
0
 10
 9.35400000000000E+0002
 20
 8.48600000000000E+0002
 40
 1.20000000000000E+0001
 50
 1.01195000000000E+0002
 51
 2.39500000000000E+0002
  0
LINE
  8
0
 10
 9.33070215048071E+0002
 20
 8.60371665221105E+0002
 11
 1.08815500000000E+0003
 21
 8.91030300000000E+0002
  0
LINE
  8
0
 10
 1.08815500000000E+0003
 20
 8.91030300000000E+0002
 11
 1.05752146186419E+0003
 21
 7.35969187785360E+0002
  0
ARC
  8
0
 10
 1.04575000000000E+0003
 20
 7.38300000000000E+0002
 40
 1.20000000000000E+0001
 50
 2.10525000000000E+0002
 51
 3.48800000000000E+0002
  0
LINE
  8
0
 10
 1.03541310852352E+0003
 20
 7.32205028744649E+0002
 11
 1.01178740000000E+0003
 21
 7.72237000000000E+0002
  0
LINE
  8
0
 10
 8.63295000000000E+0002
 20
 9.20728800000000E+0002
 11
 6.49748700000000E+0002
 21
 7.07182500000000E+0002
  0
LINE
  8
0
 10
 6.49748700000000E+0002
 20
 7.07182500000000E+0002
 11
 6.07322300000000E+0002
 21
 7.49608900000000E+0002
  0
LINE
  8
0
 10
 6.07322300000000E+0002
 20
 7.49608900000000E+0002
 11
 8.20868600000000E+0002
 21
 9.63155200000000E+0002
  0
LINE
  8
0
 10
 8.20868600000000E+0002
 20
 9.63155200000000E+0002
 11
 7.80854126703905E+0002
 21
 9.86763640449464E+0002
  0
ARC
  8
0
 10
 7.86950000000000E+0002
 20
 9.97100000000000E+0002
 40
 1.20000000000000E+0001
 50
 1.01200000000000E+0002
 51
 2.39470000000000E+0002
  0
LINE
  8
0
 10
 7.84619187785360E+0002
 20
 1.00887146186419E+0003
 11
 9.39662500000000E+0002
 21
 1.03952270000000E+0003
  0
LINE
  8
0
 10
 9.39662500000000E+0002
 20
 1.03952270000000E+0003
 11
 9.09021461864190E+0002
 21
 8.84469187785360E+0002
  0
ARC
  8
0
 10
 8.97250000000000E+0002
 20
 8.86800000000000E+0002
 40
 1.20000000000000E+0001
 50
 2.10525000000000E+0002
 51
 3.48800000000000E+0002
  0
LINE
  8
0
 10
 8.86913108523524E+0002
 20
 8.80705028744649E+0002
 11
 8.63295000000000E+0002
 21
 9.20728800000000E+0002
  0
LINE
  8
0
 10
 6.72376200000000E+0002
 20
 1.11164760000000E+0003
 11
 6.32354126703905E+0002
 21
 1.13526364044946E+0003
  0
ARC
  8
0
 10
 6.38450000000000E+0002
 20
 1.14560000000000E+0003
 40
 1.20000000000000E+0001
 50
 1.01200000000000E+0002
 51
 2.39470000000000E+0002
  0
LINE
  8
0
 10
 6.36119187785360E+0002
 20
 1.15737146186419E+0003
 11
 7.91170100000000E+0002
 21
 1.18801510000000E+0003
  0
LINE
  8
0
 10
 7.91170100000000E+0002
 20
 1.18801510000000E+0003
 11
 7.60521461864190E+0002
 21
 1.03296918778536E+0003
  0
ARC
  8
0
 10
 7.48750000000000E+0002
 20
 1.03530000000000E+0003
 40
 1.20000000000000E+0001
 50
 2.10525000000000E+0002
 51
 3.48800000000000E+0002
  0
LINE
  8
0
 10
 7.38413108523524E+0002
 20
 1.02920502874465E+0003
 11
 7.14802600000000E+0002
 21
 1.06922120000000E+0003
  0
LINE
  8
0
 10
 7.14802600000000E+0002
 20
 1.06922120000000E+0003
 11
 5.01256300000000E+0002
 21
 8.55674900000000E+0002
  0
LINE
  8
0
 10
 5.01256300000000E+0002
 20
 8.55674900000000E+0002
 11
 4.58829900000000E+0002
 21
 8.98101300000000E+0002
  0
LINE
  8
0
 10
 4.58829900000000E+0002
 20
 8.98101300000000E+0002
 11
 6.72376200000000E+0002
 21
 1.11164760000000E+0003
  0
LINE
  8
0
 10
 5.23883700000000E+0002
 20
 1.26014000000000E+0003
 11
 4.83854126703905E+0002
 21
 1.28376364044946E+0003
  0
ARC
  8
0
 10
 4.89950000000000E+0002
 20
 1.29410000000000E+0003
 40
 1.20000000000000E+0001
 50
 1.01200000000000E+0002
 51
 2.39470000000000E+0002
  0
LINE
  8
0
 10
 4.87619187785360E+0002
 20
 1.30587146186419E+0003
 11
 6.42677700000000E+0002
 21
 1.33650750000000E+0003
  0
LINE
  8
0
 10
 6.42677700000000E+0002
 20
 1.33650750000000E+0003
 11
 6.12021461864190E+0002
 21
 1.18141918778536E+0003
  0
ARC
  8
0
 10
 6.00250000000000E+0002
 20
 1.18375000000000E+0003
 40
 1.20000000000000E+0001
 50
 2.10525000000000E+0002
 51
 3.48800000000000E+0002
  0
LINE
  8
0
 10
 5.89913108523524E+0002
 20
 1.17765502874465E+0003
 11
 5.66310100000000E+0002
 21
 1.21771360000000E+0003
  0
LINE
  8
0
 10
 5.66310100000000E+0002
 20
 1.21771360000000E+0003
 11
 3.52763900000000E+0002
 21
 1.00416740000000E+0003
  0
LINE
  8
0
 10
 3.52763900000000E+0002
 20
 1.00416740000000E+0003
 11
 3.10337500000000E+0002
 21
 1.04659380000000E+0003
  0
LINE
  8
0
 10
 3.10337500000000E+0002
 20
 1.04659380000000E+0003
 11
 5.23883700000000E+0002
 21
 1.26014000000000E+0003
  0
LINE
  8
0
 10
 3.75391300000000E+0002
 20
 1.40863240000000E+0003
 11
 3.35354126703905E+0002
 21
 1.43221364044946E+0003
  0
ARC
  8
0
 10
 3.41450000000000E+0002
 20
 1.44255000000000E+0003
 40
 1.20000000000000E+0001
 50
 1.01200000000000E+0002
 51
 2.39470000000000E+0002
  0
LINE
  8
0
 10
 3.39119187785360E+0002
 20
 1.45432146186419E+0003
 11
 4.94185300000000E+0002
 21
 1.48500000000000E+0003
  0
LINE
  8
0
 10
 4.94185300000000E+0002
 20
 1.48500000000000E+0003
 11
 4.63521461864190E+0002
 21
 1.32991918778536E+0003
  0
ARC
  8
0
 10
 4.51750000000000E+0002
 20
 1.33225000000000E+0003
 40
 1.20000000000000E+0001
 50
 2.10525000000000E+0002
 51
 3.48800000000000E+0002
  0
LINE
  8
0
 10
 4.41413108523524E+0002
 20
 1.32615502874465E+0003
 11
 4.17817700000000E+0002
 21
 1.36620600000000E+0003
  0
LINE
  8
0
 10
 4.17817700000000E+0002
 20
 1.36620600000000E+0003
 11
 2.04271500000000E+0002
 21
 1.15265980000000E+0003
  0
LINE
  8
0
 10
 2.04271500000000E+0002
 20
 1.15265980000000E+0003
 11
 1.61845100000000E+0002
 21
 1.19508620000000E+0003
  0
LINE
  8
0
 10
 1.61845100000000E+0002
 20
 1.19508620000000E+0003
 11
 3.75391300000000E+0002
 21
 1.40863240000000E+0003
  0
ENDSEC
  0
EOF
