  0
SECTION
  2
HEADER
  9
$ACADVER
  1
AC1003
  9
$INSBASE
 10
0.0
 20
0.0
  9
$EXTMIN
 10
 0.00000000000000E+0000
 20
 0.00000000000000E+0000
  9
$EXTMAX
 10
 1.60000000000000E+0003
 20
 1.60000000000000E+0003
  9
$LIMMIN
 10
0.0
 20
0.0
  9
$LIMMAX
 10
410.0
 20
287.0
  9
$VIEWCTR
 10
227.0059616
 20
165.058879 
  9
$VIEWSIZE
 40
 1.60000000000000E+0003
9
$SNAPMODE
70
0
9
$SNAPUNIT
10
1
20
1
9
$GRIDMODE
70
0
9
$GRIDUNIT
10
1
20
1
9
$ORTHOMODE
70
0
9
$rEGENMODE
70
1
9
$FILLMODE
70
1
9
$DRAGMODE
70
2
9
$LTSCALE
40
25.0
9
$OSMODE
70
0
9
$ATTMODE
70
1
9
$TRACEWID
40
1.0
9
$TEXTSTYLE
7
STANDARD
9
$CLAYER
8
0
9
$CELTYPE
6
VONLAYER
9
$CECOLOR
62
256
9
$LUNITS
70
2
9
$LUPREC
70
2
9
$AXISMODE
70
0
9
$AXISUNIT
10
0
20
0
9
$SKETCHINC
40
1.0
9
$FILLETRAD
40
0.0
9
$AUNITS
70
0
9
$AUPREC
70
0
9
$MENU
1
ACAD
9
$ELEVATION
40
0.0
9
$THICKNESS
40
0.0
9
$VIEWDIR
10
0.0
20
0.0
30
1.0
9
$LIMCHECK
70
0
9
$BLIPMODE
70
1
9
$CHAMFERA
40
0.0
9
$CHAMFERB
40
0.0
9
$USRTIMER
70
1
9
$ANGBASE
50
0.0
9
$ANGDIR
70
0
9
$PDMODE
70
0
9
$PDSIZE
40
0.0
9
$PLINEWID
40
0.0
9
$COORDS
70
0
0
ENDSEC
0
SECTION
2
TABLES
0
TABLE
2
LTYPE
70
1
0
LTYPE
2
AUSGEZOGEN
70
64
3
Ausgezogene Linie
72
65
73
0
40
0.0
0
ENDTAB
0
TABLE
2
LAYER
70
1
0
LAYER
2
0
70
0
62
7
6
AUSGEZOGEN
0
ENDTAB
0
TABLE
2
STYLE
70
1
0
STYLE
2
STANDARD
70
0
40
0.0
41
1.0
50
0.0
71
0
42
3.5
3
txt
4

0
ENDTAB
0
TABLE
2
VIEW
70
0
0
ENDTAB
0
ENDSEC
0
SECTION
2
BLOCKS
0
ENDSEC
0
SECTION
2
ENTITIES
  0
ARC
  8
0
 10
 6.00000000000000E+0001
 20
 6.00000000000000E+0001
 40
 6.00000000000000E+0001
 50
 1.80000000000000E+0002
 51
 2.70000000000000E+0002
  0
LINE
  8
0
 10
 0.00000000000000E+0000
 20
 6.00000000000000E+0001
 11
 0.00000000000000E+0000
 21
 1.54000000000000E+0003
  0
ARC
  8
0
 10
 6.00000000000000E+0001
 20
 1.54000000000000E+0003
 40
 6.00000000000000E+0001
 50
 9.00000000000000E+0001
 51
 1.80000000000000E+0002
  0
LINE
  8
0
 10
 6.00000000000000E+0001
 20
 1.60000000000000E+0003
 11
 1.54000000000000E+0003
 21
 1.60000000000000E+0003
  0
ARC
  8
0
 10
 1.54000000000000E+0003
 20
 1.54000000000000E+0003
 40
 6.00000000000000E+0001
 50
 0.00000000000000E+0000
 51
 9.00000000000000E+0001
  0
LINE
  8
0
 10
 1.60000000000000E+0003
 20
 1.54000000000000E+0003
 11
 1.60000000000000E+0003
 21
 6.00000000000000E+0001
  0
ARC
  8
0
 10
 1.54000000000000E+0003
 20
 6.00000000000000E+0001
 40
 6.00000000000000E+0001
 50
 2.70000000000000E+0002
 51
 3.60000000000000E+0002
  0
LINE
  8
0
 10
 1.54000000000000E+0003
 20
 0.00000000000000E+0000
 11
 6.00000000000000E+0001
 21
 0.00000000000000E+0000
  0
ARC
  8
0
 10
 6.00000000000000E+0001
 20
 6.00000000000000E+0001
 40
 4.50000000000000E+0001
 50
 1.80000000000000E+0002
 51
 2.70000000000000E+0002
  0
LINE
  8
0
 10
 1.50000000000000E+0001
 20
 6.00000000000000E+0001
 11
 1.50000000000000E+0001
 21
 1.54000000000000E+0003
  0
ARC
  8
0
 10
 6.00000000000000E+0001
 20
 1.54000000000000E+0003
 40
 4.50000000000000E+0001
 50
 9.00000000000000E+0001
 51
 1.80000000000000E+0002
  0
LINE
  8
0
 10
 6.00000000000000E+0001
 20
 1.58500000000000E+0003
 11
 1.54000000000000E+0003
 21
 1.58500000000000E+0003
  0
ARC
  8
0
 10
 1.54000000000000E+0003
 20
 1.54000000000000E+0003
 40
 4.50000000000000E+0001
 50
 0.00000000000000E+0000
 51
 9.00000000000000E+0001
  0
LINE
  8
0
 10
 1.58500000000000E+0003
 20
 1.54000000000000E+0003
 11
 1.58500000000000E+0003
 21
 6.00000000000000E+0001
  0
ARC
  8
0
 10
 1.54000000000000E+0003
 20
 6.00000000000000E+0001
 40
 4.50000000000000E+0001
 50
 2.70000000000000E+0002
 51
 3.60000000000000E+0002
  0
LINE
  8
0
 10
 1.54000000000000E+0003
 20
 1.50000000000000E+0001
 11
 6.00000000000000E+0001
 21
 1.50000000000000E+0001
  0
ARC
  8
0
 10
 6.00000000000000E+0001
 20
 6.00000000000000E+0001
 40
 2.50000000000000E+0001
 50
 1.80000000000000E+0002
 51
 2.70000000000000E+0002
  0
LINE
  8
0
 10
 3.50000000000000E+0001
 20
 6.00000000000000E+0001
 11
 3.50000000000000E+0001
 21
 1.54000000000000E+0003
  0
ARC
  8
0
 10
 6.00000000000000E+0001
 20
 1.54000000000000E+0003
 40
 2.50000000000000E+0001
 50
 9.00000000000000E+0001
 51
 1.80000000000000E+0002
  0
LINE
  8
0
 10
 6.00000000000000E+0001
 20
 1.56500000000000E+0003
 11
 1.54000000000000E+0003
 21
 1.56500000000000E+0003
  0
ARC
  8
0
 10
 1.54000000000000E+0003
 20
 1.54000000000000E+0003
 40
 2.50000000000000E+0001
 50
 0.00000000000000E+0000
 51
 9.00000000000000E+0001
  0
LINE
  8
0
 10
 1.56500000000000E+0003
 20
 1.54000000000000E+0003
 11
 1.56500000000000E+0003
 21
 6.00000000000000E+0001
  0
ARC
  8
0
 10
 1.54000000000000E+0003
 20
 6.00000000000000E+0001
 40
 2.50000000000000E+0001
 50
 2.70000000000000E+0002
 51
 3.60000000000000E+0002
  0
LINE
  8
0
 10
 1.54000000000000E+0003
 20
 3.50000000000000E+0001
 11
 6.00000000000000E+0001
 21
 3.50000000000000E+0001
  0
LINE
  8
0
 10
 1.33323100000000E+0003
 20
 4.75518500000000E+0002
 11
 1.24297359312881E+0003
 21
 3.84926406871193E+0002
  0
ARC
  8
0
 10
 1.28540000000000E+0003
 20
 3.42500000000000E+0002
 40
 6.00000000000000E+0001
 50
 1.35000000000000E+0002
 51
 1.80000000000000E+0002
  0
LINE
  8
0
 10
 1.22540000000000E+0003
 20
 3.42500000000000E+0002
 11
 1.22520000000000E+0003
 21
 1.15000000000000E+0002
  0
LINE
  8
0
 10
 1.22520000000000E+0003
 20
 1.15000000000000E+0002
 11
 1.16520000000000E+0003
 21
 1.15200000000000E+0002
  0
LINE
  8
0
 10
 1.16520000000000E+0003
 20
 1.15200000000000E+0002
 11
 1.16520000000000E+0003
 21
 3.42500000000000E+0002
  0
ARC
  8
0
 10
 1.28520000000000E+0003
 20
 3.42500000000000E+0002
 40
 1.20000000000000E+0002
 50
 1.35000000000000E+0002
 51
 1.80000000000000E+0002
  0
LINE
  8
0
 10
 1.20034718625761E+0003
 20
 4.27352813742386E+0002
 11
 1.29080000000000E+0003
 21
 5.17945000000000E+0002
  0
LINE
  8
0
 10
 1.29080000000000E+0003
 20
 5.17945000000000E+0002
 11
 1.25075412670390E+0003
 21
 5.41563640449464E+0002
  0
ARC
  8
0
 10
 1.25685000000000E+0003
 20
 5.51900000000000E+0002
 40
 1.20000000000000E+0001
 50
 1.01195000000000E+0002
 51
 2.39470000000000E+0002
  0
LINE
  8
0
 10
 1.25452021504807E+0003
 20
 5.63671665221105E+0002
 11
 1.40959900000000E+0003
 21
 5.94311900000000E+0002
  0
LINE
  8
0
 10
 1.40959900000000E+0003
 20
 5.94311900000000E+0002
 11
 1.37892146186419E+0003
 21
 4.39269187785360E+0002
  0
ARC
  8
0
 10
 1.36715000000000E+0003
 20
 4.41600000000000E+0002
 40
 1.20000000000000E+0001
 50
 2.10525000000000E+0002
 51
 3.48800000000000E+0002
  0
LINE
  8
0
 10
 1.35681310852352E+0003
 20
 4.35505028744649E+0002
 11
 1.33323100000000E+0003
 21
 4.75518500000000E+0002
  0
LINE
  8
0
 10
 1.18473900000000E+0003
 20
 6.24011000000000E+0002
 11
 1.03297359312881E+0003
 21
 4.71876406871193E+0002
  0
ARC
  8
0
 10
 1.07540000000000E+0003
 20
 4.29450000000000E+0002
 40
 6.00000000000000E+0001
 50
 1.35000000000000E+0002
 51
 1.80000000000000E+0002
  0
LINE
  8
0
 10
 1.01540000000000E+0003
 20
 4.29450000000000E+0002
 11
 1.01520000000000E+0003
 21
 1.15000000000000E+0002
  0
LINE
  8
0
 10
 1.01520000000000E+0003
 20
 1.15000000000000E+0002
 11
 9.55200000000000E+0002
 21
 1.15000000000000E+0002
  0
LINE
  8
0
 10
 9.55200000000000E+0002
 20
 1.15000000000000E+0002
 11
 9.55200000000000E+0002
 21
 4.29450000000000E+0002
  0
ARC
  8
0
 10
 1.07520000000000E+0003
 20
 4.29450000000000E+0002
 40
 1.20000000000000E+0002
 50
 1.35000000000000E+0002
 51
 1.80000000000000E+0002
  0
LINE
  8
0
 10
 9.90347186257614E+0002
 20
 5.14302813742386E+0002
 11
 1.14231200000000E+0003
 21
 6.66437500000000E+0002
  0
LINE
  8
0
 10
 1.14231200000000E+0003
 20
 6.66437500000000E+0002
 11
 1.10225412670390E+0003
 21
 6.90063640449464E+0002
  0
ARC
  8
0
 10
 1.10835000000000E+0003
 20
 7.00400000000000E+0002
 40
 1.20000000000000E+0001
 50
 1.01195000000000E+0002
 51
 2.39470000000000E+0002
  0
LINE
  8
0
 10
 1.10602021504807E+0003
 20
 7.12171665221105E+0002
 11
 1.26110600000000E+0003
 21
 7.42804300000000E+0002
  0
LINE
  8
0
 10
 1.26110600000000E+0003
 20
 7.42804300000000E+0002
 11
 1.23047146186419E+0003
 21
 5.87719187785360E+0002
  0
ARC
  8
0
 10
 1.21870000000000E+0003
 20
 5.90050000000000E+0002
 40
 1.20000000000000E+0001
 50
 2.10525000000000E+0002
 51
 3.48800000000000E+0002
  0
LINE
  8
0
 10
 1.20836310852352E+0003
 20
 5.83955028744649E+0002
 11
 1.18473900000000E+0003
 21
 6.24011000000000E+0002
  0
LINE
  8
0
 10
 1.03624600000000E+0003
 20
 7.72503500000000E+0002
 11
 8.22973593128807E+0002
 21
 5.58876406871193E+0002
  0
ARC
  8
0
 10
 8.65400000000000E+0002
 20
 5.16450000000000E+0002
 40
 6.00000000000000E+0001
 50
 1.35000000000000E+0002
 51
 1.80000000000000E+0002
  0
LINE
  8
0
 10
 8.05400000000000E+0002
 20
 5.16450000000000E+0002
 11
 8.05200000000000E+0002
 21
 1.15000000000000E+0002
  0
LINE
  8
0
 10
 8.05200000000000E+0002
 20
 1.15000000000000E+0002
 11
 7.45200000000000E+0002
 21
 1.15000000000000E+0002
  0
LINE
  8
0
 10
 7.45200000000000E+0002
 20
 1.15000000000000E+0002
 11
 7.45200000000000E+0002
 21
 5.16450000000000E+0002
  0
ARC
  8
0
 10
 8.65200000000000E+0002
 20
 5.16450000000000E+0002
 40
 1.20000000000000E+0002
 50
 1.35000000000000E+0002
 51
 1.80000000000000E+0002
  0
LINE
  8
0
 10
 7.80347186257614E+0002
 20
 6.01302813742386E+0002
 11
 9.93820000000000E+0002
 21
 8.14930000000000E+0002
  0
LINE
  8
0
 10
 9.93820000000000E+0002
 20
 8.14930000000000E+0002
 11
 9.53804126703905E+0002
 21
 8.38513640449464E+0002
  0
ARC
  8
0
 10
 9.59900000000000E+0002
 20
 8.48850000000000E+0002
 40
 1.20000000000000E+0001
 50
 1.01195000000000E+0002
 51
 2.39470000000000E+0002
  0
LINE
  8
0
 10
 9.57570215048071E+0002
 20
 8.60621665221105E+0002
 11
 1.11261400000000E+0003
 21
 8.91296800000000E+0002
  0
LINE
  8
0
 10
 1.11261400000000E+0003
 20
 8.91296800000000E+0002
 11
 1.08197146186419E+0003
 21
 7.36219187785360E+0002
  0
ARC
  8
0
 10
 1.07020000000000E+0003
 20
 7.38550000000000E+0002
 40
 1.20000000000000E+0001
 50
 2.10505000000000E+0002
 51
 3.48800000000000E+0002
  0
LINE
  8
0
 10
 1.05986098160700E+0003
 20
 7.32458637371717E+0002
 11
 1.03624600000000E+0003
 21
 7.72503500000000E+0002
  0
LINE
  8
0
 10
 8.87754000000000E+0002
 20
 9.20995300000000E+0002
 11
 6.74208000000000E+0002
 21
 7.07449000000000E+0002
  0
LINE
  8
0
 10
 6.74208000000000E+0002
 20
 7.07449000000000E+0002
 11
 6.31781000000000E+0002
 21
 7.49875400000000E+0002
  0
LINE
  8
0
 10
 6.31781000000000E+0002
 20
 7.49875400000000E+0002
 11
 8.45328000000000E+0002
 21
 9.63421700000000E+0002
  0
LINE
  8
0
 10
 8.45328000000000E+0002
 20
 9.63421700000000E+0002
 11
 8.05304126703905E+0002
 21
 9.87013640449464E+0002
  0
ARC
  8
0
 10
 8.11400000000000E+0002
 20
 9.97350000000000E+0002
 40
 1.20000000000000E+0001
 50
 1.01200000000000E+0002
 51
 2.39470000000000E+0002
  0
LINE
  8
0
 10
 8.09069187785360E+0002
 20
 1.00912146186419E+0003
 11
 9.64121000000000E+0002
 21
 1.03978920000000E+0003
  0
LINE
  8
0
 10
 9.64121000000000E+0002
 20
 1.03978920000000E+0003
 11
 9.33471461864190E+0002
 21
 8.84719187785360E+0002
  0
ARC
  8
0
 10
 9.21700000000000E+0002
 20
 8.87050000000000E+0002
 40
 1.20000000000000E+0001
 50
 2.10525000000000E+0002
 51
 3.48800000000000E+0002
  0
LINE
  8
0
 10
 9.11363108523524E+0002
 20
 8.80955028744649E+0002
 11
 8.87754000000000E+0002
 21
 9.20995300000000E+0002
  0
LINE
  8
0
 10
 6.96835000000000E+0002
 20
 1.11191410000000E+0003
 11
 6.56804126703905E+0002
 21
 1.13551364044946E+0003
  0
ARC
  8
0
 10
 6.62900000000000E+0002
 20
 1.14585000000000E+0003
 40
 1.20000000000000E+0001
 50
 1.01200000000000E+0002
 51
 2.39470000000000E+0002
  0
LINE
  8
0
 10
 6.60569187785360E+0002
 20
 1.15762146186419E+0003
 11
 8.15629000000000E+0002
 21
 1.18828160000000E+0003
  0
LINE
  8
0
 10
 8.15629000000000E+0002
 20
 1.18828160000000E+0003
 11
 7.84971461864190E+0002
 21
 1.03321918778536E+0003
  0
ARC
  8
0
 10
 7.73200000000000E+0002
 20
 1.03555000000000E+0003
 40
 1.20000000000000E+0001
 50
 2.10525000000000E+0002
 51
 3.48800000000000E+0002
  0
LINE
  8
0
 10
 7.62863108523524E+0002
 20
 1.02945502874465E+0003
 11
 7.39262000000000E+0002
 21
 1.06948770000000E+0003
  0
LINE
  8
0
 10
 7.39262000000000E+0002
 20
 1.06948770000000E+0003
 11
 5.25715000000000E+0002
 21
 8.55941400000000E+0002
  0
LINE
  8
0
 10
 5.25715000000000E+0002
 20
 8.55941400000000E+0002
 11
 4.83289000000000E+0002
 21
 8.98367800000000E+0002
  0
LINE
  8
0
 10
 4.83289000000000E+0002
 20
 8.98367800000000E+0002
 11
 6.96835000000000E+0002
 21
 1.11191410000000E+0003
  0
LINE
  8
0
 10
 5.48343000000000E+0002
 20
 1.26040650000000E+0003
 11
 5.08304126703905E+0002
 21
 1.28401364044946E+0003
  0
ARC
  8
0
 10
 5.14400000000000E+0002
 20
 1.29435000000000E+0003
 40
 1.20000000000000E+0001
 50
 1.01200000000000E+0002
 51
 2.39470000000000E+0002
  0
LINE
  8
0
 10
 5.12069187785360E+0002
 20
 1.30612146186419E+0003
 11
 6.67137000000000E+0002
 21
 1.33677400000000E+0003
  0
LINE
  8
0
 10
 6.67137000000000E+0002
 20
 1.33677400000000E+0003
 11
 6.36471461864190E+0002
 21
 1.18171918778536E+0003
  0
ARC
  8
0
 10
 6.24700000000000E+0002
 20
 1.18405000000000E+0003
 40
 1.20000000000000E+0001
 50
 2.10525000000000E+0002
 51
 3.48800000000000E+0002
  0
LINE
  8
0
 10
 6.14363108523524E+0002
 20
 1.17795502874465E+0003
 11
 5.90769000000000E+0002
 21
 1.21798010000000E+0003
  0
LINE
  8
0
 10
 5.90769000000000E+0002
 20
 1.21798010000000E+0003
 11
 3.77223000000000E+0002
 21
 1.00443390000000E+0003
  0
LINE
  8
0
 10
 3.77223000000000E+0002
 20
 1.00443390000000E+0003
 11
 3.34796000000000E+0002
 21
 1.04686030000000E+0003
  0
LINE
  8
0
 10
 3.34796000000000E+0002
 20
 1.04686030000000E+0003
 11
 5.48343000000000E+0002
 21
 1.26040650000000E+0003
  0
LINE
  8
0
 10
 3.99850000000000E+0002
 20
 1.40889890000000E+0003
 11
 3.59804126703905E+0002
 21
 1.43251364044946E+0003
  0
ARC
  8
0
 10
 3.65900000000000E+0002
 20
 1.44285000000000E+0003
 40
 1.20000000000000E+0001
 50
 1.01200000000000E+0002
 51
 2.39470000000000E+0002
  0
LINE
  8
0
 10
 3.63569187785360E+0002
 20
 1.45462146186419E+0003
 11
 5.18644000000000E+0002
 21
 1.48526650000000E+0003
  0
LINE
  8
0
 10
 5.18644000000000E+0002
 20
 1.48526650000000E+0003
 11
 4.87971461864190E+0002
 21
 1.33021918778536E+0003
  0
ARC
  8
0
 10
 4.76200000000000E+0002
 20
 1.33255000000000E+0003
 40
 1.20000000000000E+0001
 50
 2.10525000000000E+0002
 51
 3.48800000000000E+0002
  0
LINE
  8
0
 10
 4.65863108523524E+0002
 20
 1.32645502874465E+0003
 11
 4.42277000000000E+0002
 21
 1.36647250000000E+0003
  0
LINE
  8
0
 10
 4.42277000000000E+0002
 20
 1.36647250000000E+0003
 11
 2.28730000000000E+0002
 21
 1.15292630000000E+0003
  0
LINE
  8
0
 10
 2.28730000000000E+0002
 20
 1.15292630000000E+0003
 11
 1.86304000000000E+0002
 21
 1.19535270000000E+0003
  0
LINE
  8
0
 10
 1.86304000000000E+0002
 20
 1.19535270000000E+0003
 11
 3.99850000000000E+0002
 21
 1.40889890000000E+0003
  0
ENDSEC
  0
EOF
