  0
SECTION
  2
HEADER
  9
$ACADVER
  1
AC1003
  9
$INSBASE
 10
0.0
 20
0.0
  9
$EXTMIN
 10
 0.00000000000000E+0000
 20
 0.00000000000000E+0000
  9
$EXTMAX
 10
 1.25000000000000E+0003
 20
 1.60000000000000E+0003
  9
$LIMMIN
 10
0.0
 20
0.0
  9
$LIMMAX
 10
410.0
 20
287.0
  9
$VIEWCTR
 10
227.0059616
 20
165.058879 
  9
$VIEWSIZE
 40
 1.60000000000000E+0003
9
$SNAPMODE
70
0
9
$SNAPUNIT
10
1
20
1
9
$GRIDMODE
70
0
9
$GRIDUNIT
10
1
20
1
9
$ORTHOMODE
70
0
9
$rEGENMODE
70
1
9
$FILLMODE
70
1
9
$DRAGMODE
70
2
9
$LTSCALE
40
25.0
9
$OSMODE
70
0
9
$ATTMODE
70
1
9
$TRACEWID
40
1.0
9
$TEXTSTYLE
7
STANDARD
9
$CLAYER
8
0
9
$CELTYPE
6
VONLAYER
9
$CECOLOR
62
256
9
$LUNITS
70
2
9
$LUPREC
70
2
9
$AXISMODE
70
0
9
$AXISUNIT
10
0
20
0
9
$SKETCHINC
40
1.0
9
$FILLETRAD
40
0.0
9
$AUNITS
70
0
9
$AUPREC
70
0
9
$MENU
1
ACAD
9
$ELEVATION
40
0.0
9
$THICKNESS
40
0.0
9
$VIEWDIR
10
0.0
20
0.0
30
1.0
9
$LIMCHECK
70
0
9
$BLIPMODE
70
1
9
$CHAMFERA
40
0.0
9
$CHAMFERB
40
0.0
9
$USRTIMER
70
1
9
$ANGBASE
50
0.0
9
$ANGDIR
70
0
9
$PDMODE
70
0
9
$PDSIZE
40
0.0
9
$PLINEWID
40
0.0
9
$COORDS
70
0
0
ENDSEC
0
SECTION
2
TABLES
0
TABLE
2
LTYPE
70
1
0
LTYPE
2
AUSGEZOGEN
70
64
3
Ausgezogene Linie
72
65
73
0
40
0.0
0
ENDTAB
0
TABLE
2
LAYER
70
1
0
LAYER
2
0
70
0
62
7
6
AUSGEZOGEN
0
ENDTAB
0
TABLE
2
STYLE
70
1
0
STYLE
2
STANDARD
70
0
40
0.0
41
1.0
50
0.0
71
0
42
3.5
3
txt
4

0
ENDTAB
0
TABLE
2
VIEW
70
0
0
ENDTAB
0
ENDSEC
0
SECTION
2
BLOCKS
0
ENDSEC
0
SECTION
2
ENTITIES
  0
ARC
  8
0
 10
 6.00000000000000E+0001
 20
 6.00000000000000E+0001
 40
 6.00000000000000E+0001
 50
 1.80000000000000E+0002
 51
 2.70000000000000E+0002
  0
LINE
  8
0
 10
 0.00000000000000E+0000
 20
 6.00000000000000E+0001
 11
 0.00000000000000E+0000
 21
 1.54000000000000E+0003
  0
ARC
  8
0
 10
 6.00000000000000E+0001
 20
 1.54000000000000E+0003
 40
 6.00000000000000E+0001
 50
 9.00000000000000E+0001
 51
 1.80000000000000E+0002
  0
LINE
  8
0
 10
 6.00000000000000E+0001
 20
 1.60000000000000E+0003
 11
 1.19000000000000E+0003
 21
 1.60000000000000E+0003
  0
ARC
  8
0
 10
 1.19000000000000E+0003
 20
 1.54000000000000E+0003
 40
 6.00000000000000E+0001
 50
 0.00000000000000E+0000
 51
 9.00000000000000E+0001
  0
LINE
  8
0
 10
 1.25000000000000E+0003
 20
 1.54000000000000E+0003
 11
 1.25000000000000E+0003
 21
 6.00000000000000E+0001
  0
ARC
  8
0
 10
 1.19000000000000E+0003
 20
 6.00000000000000E+0001
 40
 6.00000000000000E+0001
 50
 2.70000000000000E+0002
 51
 3.60000000000000E+0002
  0
LINE
  8
0
 10
 1.19000000000000E+0003
 20
 0.00000000000000E+0000
 11
 6.00000000000000E+0001
 21
 0.00000000000000E+0000
  0
ARC
  8
0
 10
 6.00000000000000E+0001
 20
 6.00000000000000E+0001
 40
 4.50000000000000E+0001
 50
 1.80000000000000E+0002
 51
 2.70000000000000E+0002
  0
LINE
  8
0
 10
 1.50000000000000E+0001
 20
 6.00000000000000E+0001
 11
 1.50000000000000E+0001
 21
 1.54000000000000E+0003
  0
ARC
  8
0
 10
 6.00000000000000E+0001
 20
 1.54000000000000E+0003
 40
 4.50000000000000E+0001
 50
 9.00000000000000E+0001
 51
 1.80000000000000E+0002
  0
LINE
  8
0
 10
 6.00000000000000E+0001
 20
 1.58500000000000E+0003
 11
 1.19000000000000E+0003
 21
 1.58500000000000E+0003
  0
ARC
  8
0
 10
 1.19000000000000E+0003
 20
 1.54000000000000E+0003
 40
 4.50000000000000E+0001
 50
 0.00000000000000E+0000
 51
 9.00000000000000E+0001
  0
LINE
  8
0
 10
 1.23500000000000E+0003
 20
 1.54000000000000E+0003
 11
 1.23500000000000E+0003
 21
 6.00000000000000E+0001
  0
ARC
  8
0
 10
 1.19000000000000E+0003
 20
 6.00000000000000E+0001
 40
 4.50000000000000E+0001
 50
 2.70000000000000E+0002
 51
 3.60000000000000E+0002
  0
LINE
  8
0
 10
 1.19000000000000E+0003
 20
 1.50000000000000E+0001
 11
 6.00000000000000E+0001
 21
 1.50000000000000E+0001
  0
ARC
  8
0
 10
 6.00000000000000E+0001
 20
 6.00000000000000E+0001
 40
 2.50000000000000E+0001
 50
 1.80000000000000E+0002
 51
 2.70000000000000E+0002
  0
LINE
  8
0
 10
 3.50000000000000E+0001
 20
 6.00000000000000E+0001
 11
 3.50000000000000E+0001
 21
 1.54000000000000E+0003
  0
ARC
  8
0
 10
 6.00000000000000E+0001
 20
 1.54000000000000E+0003
 40
 2.50000000000000E+0001
 50
 9.00000000000000E+0001
 51
 1.80000000000000E+0002
  0
LINE
  8
0
 10
 6.00000000000000E+0001
 20
 1.56500000000000E+0003
 11
 1.19000000000000E+0003
 21
 1.56500000000000E+0003
  0
ARC
  8
0
 10
 1.19000000000000E+0003
 20
 1.54000000000000E+0003
 40
 2.50000000000000E+0001
 50
 0.00000000000000E+0000
 51
 9.00000000000000E+0001
  0
LINE
  8
0
 10
 1.21500000000000E+0003
 20
 1.54000000000000E+0003
 11
 1.21500000000000E+0003
 21
 6.00000000000000E+0001
  0
ARC
  8
0
 10
 1.19000000000000E+0003
 20
 6.00000000000000E+0001
 40
 2.50000000000000E+0001
 50
 2.70000000000000E+0002
 51
 3.60000000000000E+0002
  0
LINE
  8
0
 10
 1.19000000000000E+0003
 20
 3.50000000000000E+0001
 11
 6.00000000000000E+0001
 21
 3.50000000000000E+0001
  0
LINE
  8
0
 10
 2.15000000000000E+0002
 20
 2.93000000000000E+0002
 11
 2.60000509446390E+0002
 21
 3.04619081565201E+0002
  0
ARC
  8
0
 10
 2.63000000000000E+0002
 20
 2.93000000000000E+0002
 40
 1.20000000000000E+0001
 50
 3.26195000000000E+0002
 51
 4.64475000000000E+0002
  0
LINE
  8
0
 10
 2.72971231041917E+0002
 20
 2.86323582434515E+0002
 11
 1.85000000000000E+0002
 21
 1.55000000000000E+0002
  0
LINE
  8
0
 10
 1.85000000000000E+0002
 20
 1.55000000000000E+0002
 11
 9.70287689580835E+0001
 21
 2.86323582434515E+0002
  0
ARC
  8
0
 10
 1.07000000000000E+0002
 20
 2.93000000000000E+0002
 40
 1.20000000000000E+0001
 50
 7.55250000000000E+0001
 51
 2.13805000000000E+0002
  0
LINE
  8
0
 10
 1.09999490553610E+0002
 20
 3.04619081565201E+0002
 11
 1.55000000000000E+0002
 21
 2.93000000000000E+0002
  0
LINE
  8
0
 10
 1.55000000000000E+0002
 20
 2.93000000000000E+0002
 11
 1.55000000000000E+0002
 21
 1.26500000000000E+0003
  0
LINE
  8
0
 10
 1.55000000000000E+0002
 20
 1.26500000000000E+0003
 11
 2.15000000000000E+0002
 21
 1.26500000000000E+0003
  0
LINE
  8
0
 10
 2.15000000000000E+0002
 20
 1.26500000000000E+0003
 11
 2.15000000000000E+0002
 21
 2.93000000000000E+0002
  0
LINE
  8
0
 10
 4.25000000000000E+0002
 20
 2.93000000000000E+0002
 11
 4.70000509446390E+0002
 21
 3.04619081565201E+0002
  0
ARC
  8
0
 10
 4.73000000000000E+0002
 20
 2.93000000000000E+0002
 40
 1.20000000000000E+0001
 50
 3.26195000000000E+0002
 51
 4.64475000000000E+0002
  0
LINE
  8
0
 10
 4.82971231041916E+0002
 20
 2.86323582434515E+0002
 11
 3.95000000000000E+0002
 21
 1.55000000000000E+0002
  0
LINE
  8
0
 10
 3.95000000000000E+0002
 20
 1.55000000000000E+0002
 11
 3.07028768958083E+0002
 21
 2.86323582434515E+0002
  0
ARC
  8
0
 10
 3.17000000000000E+0002
 20
 2.93000000000000E+0002
 40
 1.20000000000000E+0001
 50
 7.55250000000000E+0001
 51
 2.13805000000000E+0002
  0
LINE
  8
0
 10
 3.19999490553610E+0002
 20
 3.04619081565201E+0002
 11
 3.65000000000000E+0002
 21
 2.93000000000000E+0002
  0
LINE
  8
0
 10
 3.65000000000000E+0002
 20
 2.93000000000000E+0002
 11
 3.65000000000000E+0002
 21
 1.26500000000000E+0003
  0
LINE
  8
0
 10
 3.65000000000000E+0002
 20
 1.26500000000000E+0003
 11
 4.25000000000000E+0002
 21
 1.26500000000000E+0003
  0
LINE
  8
0
 10
 4.25000000000000E+0002
 20
 1.26500000000000E+0003
 11
 4.25000000000000E+0002
 21
 2.93000000000000E+0002
  0
LINE
  8
0
 10
 8.85000000000000E+0002
 20
 1.30700000000000E+0003
 11
 8.85000000000000E+0002
 21
 1.55000000000000E+0002
  0
LINE
  8
0
 10
 8.85000000000000E+0002
 20
 1.55000000000000E+0002
 11
 8.25000000000000E+0002
 21
 1.55000000000000E+0002
  0
LINE
  8
0
 10
 8.25000000000000E+0002
 20
 1.55000000000000E+0002
 11
 8.25000000000000E+0002
 21
 1.30700000000000E+0003
  0
LINE
  8
0
 10
 8.25000000000000E+0002
 20
 1.30700000000000E+0003
 11
 7.79999490553610E+0002
 21
 1.29538091843480E+0003
  0
ARC
  8
0
 10
 7.77000000000000E+0002
 20
 1.30700000000000E+0003
 40
 1.20000000000000E+0001
 50
 1.46195000000000E+0002
 51
 2.84475000000000E+0002
  0
LINE
  8
0
 10
 7.67028768958083E+0002
 20
 1.31367641756549E+0003
 11
 8.55000000000000E+0002
 21
 1.44500000000000E+0003
  0
LINE
  8
0
 10
 8.55000000000000E+0002
 20
 1.44500000000000E+0003
 11
 9.42971231041917E+0002
 21
 1.31367641756549E+0003
  0
ARC
  8
0
 10
 9.33000000000000E+0002
 20
 1.30700000000000E+0003
 40
 1.20000000000000E+0001
 50
 2.55525000000000E+0002
 51
 3.93805000000000E+0002
  0
LINE
  8
0
 10
 9.30000509446390E+0002
 20
 1.29538091843480E+0003
 11
 8.85000000000000E+0002
 21
 1.30700000000000E+0003
  0
LINE
  8
0
 10
 1.03500000000000E+0003
 20
 1.30700000000000E+0003
 11
 9.89999490553610E+0002
 21
 1.29538091843480E+0003
  0
ARC
  8
0
 10
 9.87000000000000E+0002
 20
 1.30700000000000E+0003
 40
 1.20000000000000E+0001
 50
 1.46195000000000E+0002
 51
 2.84475000000000E+0002
  0
LINE
  8
0
 10
 9.77028768958083E+0002
 20
 1.31367641756549E+0003
 11
 1.06500000000000E+0003
 21
 1.44500000000000E+0003
  0
LINE
  8
0
 10
 1.06500000000000E+0003
 20
 1.44500000000000E+0003
 11
 1.15297123104192E+0003
 21
 1.31367641756549E+0003
  0
ARC
  8
0
 10
 1.14300000000000E+0003
 20
 1.30700000000000E+0003
 40
 1.20000000000000E+0001
 50
 2.55525000000000E+0002
 51
 3.93805000000000E+0002
  0
LINE
  8
0
 10
 1.14000050944639E+0003
 20
 1.29538091843480E+0003
 11
 1.09500000000000E+0003
 21
 1.30700000000000E+0003
  0
LINE
  8
0
 10
 1.09500000000000E+0003
 20
 1.30700000000000E+0003
 11
 1.09500000000000E+0003
 21
 1.55000000000000E+0002
  0
LINE
  8
0
 10
 1.09500000000000E+0003
 20
 1.55000000000000E+0002
 11
 1.03500000000000E+0003
 21
 1.55000000000000E+0002
  0
LINE
  8
0
 10
 1.03500000000000E+0003
 20
 1.55000000000000E+0002
 11
 1.03500000000000E+0003
 21
 1.30700000000000E+0003
  0
LINE
  8
0
 10
 6.15000000000000E+0002
 20
 1.30700000000000E+0003
 11
 5.69999490553610E+0002
 21
 1.29538091843480E+0003
  0
ARC
  8
0
 10
 5.67000000000000E+0002
 20
 1.30700000000000E+0003
 40
 1.20000000000000E+0001
 50
 1.46195000000000E+0002
 51
 2.84475000000000E+0002
  0
LINE
  8
0
 10
 5.57028768958084E+0002
 20
 1.31367641756549E+0003
 11
 6.45000000000000E+0002
 21
 1.44500000000000E+0003
  0
LINE
  8
0
 10
 6.45000000000000E+0002
 20
 1.44500000000000E+0003
 11
 7.32971231041917E+0002
 21
 1.31367641756549E+0003
  0
ARC
  8
0
 10
 7.23000000000000E+0002
 20
 1.30700000000000E+0003
 40
 1.20000000000000E+0001
 50
 2.55525000000000E+0002
 51
 3.93805000000000E+0002
  0
LINE
  8
0
 10
 7.20000509446390E+0002
 20
 1.29538091843480E+0003
 11
 6.75000000000000E+0002
 21
 1.30700000000000E+0003
  0
LINE
  8
0
 10
 6.75000000000000E+0002
 20
 1.30700000000000E+0003
 11
 6.75000000000000E+0002
 21
 8.84700000000000E+0002
  0
ARC
  8
0
 10
 7.35000000000000E+0002
 20
 8.84700000000000E+0002
 40
 6.00000000000000E+0001
 50
 1.80000000000000E+0002
 51
 2.25000000000000E+0002
  0
LINE
  8
0
 10
 6.92573593128807E+0002
 20
 8.42273593128807E+0002
 11
 7.65000400000000E+0002
 21
 7.69852700000000E+0002
  0
LINE
  8
0
 10
 7.65000400000000E+0002
 20
 7.69852700000000E+0002
 11
 7.65000400000000E+0002
 21
 6.84999700000000E+0002
  0
LINE
  8
0
 10
 7.65000400000000E+0002
 20
 6.84999700000000E+0002
 11
 6.50147186257614E+0002
 21
 7.99847186257614E+0002
  0
ARC
  8
0
 10
 7.35000000000000E+0002
 20
 8.84700000000000E+0002
 40
 1.20000000000000E+0002
 50
 1.80000000000000E+0002
 51
 2.25000000000000E+0002
  0
LINE
  8
0
 10
 6.15000000000000E+0002
 20
 8.84700000000000E+0002
 11
 6.15000000000000E+0002
 21
 1.30700000000000E+0003
  0
ENDSEC
  0
EOF
