  0
SECTION
  2
HEADER
  9
$ACADVER
  1
AC1003
  9
$INSBASE
 10
0.0
 20
0.0
  9
$EXTMIN
 10
 0.00000000000000E+0000
 20
 0.00000000000000E+0000
  9
$EXTMAX
 10
 6.00000000000000E+0002
 20
 4.50000000000000E+0002
  9
$LIMMIN
 10
0.0
 20
0.0
  9
$LIMMAX
 10
410.0
 20
287.0
  9
$VIEWCTR
 10
227.0059616
 20
165.058879 
  9
$VIEWSIZE
 40
 6.00000000000000E+0002
9
$SNAPMODE
70
0
9
$SNAPUNIT
10
1
20
1
9
$GRIDMODE
70
0
9
$GRIDUNIT
10
1
20
1
9
$ORTHOMODE
70
0
9
$rEGENMODE
70
1
9
$FILLMODE
70
1
9
$DRAGMODE
70
2
9
$LTSCALE
40
25.0
9
$OSMODE
70
0
9
$ATTMODE
70
1
9
$TRACEWID
40
1.0
9
$TEXTSTYLE
7
STANDARD
9
$CLAYER
8
0
9
$CELTYPE
6
VONLAYER
9
$CECOLOR
62
256
9
$LUNITS
70
2
9
$LUPREC
70
2
9
$AXISMODE
70
0
9
$AXISUNIT
10
0
20
0
9
$SKETCHINC
40
1.0
9
$FILLETRAD
40
0.0
9
$AUNITS
70
0
9
$AUPREC
70
0
9
$MENU
1
ACAD
9
$ELEVATION
40
0.0
9
$THICKNESS
40
0.0
9
$VIEWDIR
10
0.0
20
0.0
30
1.0
9
$LIMCHECK
70
0
9
$BLIPMODE
70
1
9
$CHAMFERA
40
0.0
9
$CHAMFERB
40
0.0
9
$USRTIMER
70
1
9
$ANGBASE
50
0.0
9
$ANGDIR
70
0
9
$PDMODE
70
0
9
$PDSIZE
40
0.0
9
$PLINEWID
40
0.0
9
$COORDS
70
0
0
ENDSEC
0
SECTION
2
TABLES
0
TABLE
2
LTYPE
70
1
0
LTYPE
2
AUSGEZOGEN
70
64
3
Ausgezogene Linie
72
65
73
0
40
0.0
0
ENDTAB
0
TABLE
2
LAYER
70
1
0
LAYER
2
0
70
0
62
7
6
AUSGEZOGEN
0
ENDTAB
0
TABLE
2
STYLE
70
1
0
STYLE
2
STANDARD
70
0
40
0.0
41
1.0
50
0.0
71
0
42
3.5
3
txt
4

0
ENDTAB
0
TABLE
2
VIEW
70
0
0
ENDTAB
0
ENDSEC
0
SECTION
2
BLOCKS
0
ENDSEC
0
SECTION
2
ENTITIES
  0
ARC
  8
0
 10
 4.00000000000000E+0001
 20
 4.00000000000000E+0001
 40
 4.00000000000000E+0001
 50
 1.80000000000000E+0002
 51
 2.70000000000000E+0002
  0
LINE
  8
0
 10
 0.00000000000000E+0000
 20
 4.00000000000000E+0001
 11
 0.00000000000000E+0000
 21
 4.10000000000000E+0002
  0
ARC
  8
0
 10
 4.00000000000000E+0001
 20
 4.10000000000000E+0002
 40
 4.00000000000000E+0001
 50
 9.00000000000000E+0001
 51
 1.80000000000000E+0002
  0
LINE
  8
0
 10
 4.00000000000000E+0001
 20
 4.50000000000000E+0002
 11
 5.60000000000000E+0002
 21
 4.50000000000000E+0002
  0
ARC
  8
0
 10
 5.60000000000000E+0002
 20
 4.10000000000000E+0002
 40
 4.00000000000000E+0001
 50
 0.00000000000000E+0000
 51
 9.00000000000000E+0001
  0
LINE
  8
0
 10
 6.00000000000000E+0002
 20
 4.10000000000000E+0002
 11
 6.00000000000000E+0002
 21
 4.00000000000000E+0001
  0
ARC
  8
0
 10
 5.60000000000000E+0002
 20
 4.00000000000000E+0001
 40
 4.00000000000000E+0001
 50
 2.70000000000000E+0002
 51
 3.60000000000000E+0002
  0
LINE
  8
0
 10
 5.60000000000000E+0002
 20
 0.00000000000000E+0000
 11
 4.00000000000000E+0001
 21
 0.00000000000000E+0000
  0
ARC
  8
0
 10
 4.00000000000000E+0001
 20
 4.00000000000000E+0001
 40
 3.00000000000000E+0001
 50
 1.80000000000000E+0002
 51
 2.70000000000000E+0002
  0
LINE
  8
0
 10
 1.00000000000000E+0001
 20
 4.00000000000000E+0001
 11
 1.00000000000000E+0001
 21
 4.10000000000000E+0002
  0
ARC
  8
0
 10
 4.00000000000000E+0001
 20
 4.10000000000000E+0002
 40
 3.00000000000000E+0001
 50
 9.00000000000000E+0001
 51
 1.80000000000000E+0002
  0
LINE
  8
0
 10
 4.00000000000000E+0001
 20
 4.40000000000000E+0002
 11
 5.60000000000000E+0002
 21
 4.40000000000000E+0002
  0
ARC
  8
0
 10
 5.60000000000000E+0002
 20
 4.10000000000000E+0002
 40
 3.00000000000000E+0001
 50
 0.00000000000000E+0000
 51
 9.00000000000000E+0001
  0
LINE
  8
0
 10
 5.90000000000000E+0002
 20
 4.10000000000000E+0002
 11
 5.90000000000000E+0002
 21
 4.00000000000000E+0001
  0
ARC
  8
0
 10
 5.60000000000000E+0002
 20
 4.00000000000000E+0001
 40
 3.00000000000000E+0001
 50
 2.70000000000000E+0002
 51
 3.60000000000000E+0002
  0
LINE
  8
0
 10
 5.60000000000000E+0002
 20
 1.00000000000000E+0001
 11
 4.00000000000000E+0001
 21
 1.00000000000000E+0001
  0
ARC
  8
0
 10
 4.00000000000000E+0001
 20
 4.00000000000000E+0001
 40
 1.50000000000000E+0001
 50
 1.80000000000000E+0002
 51
 2.70000000000000E+0002
  0
LINE
  8
0
 10
 2.50000000000000E+0001
 20
 4.00000000000000E+0001
 11
 2.50000000000000E+0001
 21
 4.10000000000000E+0002
  0
ARC
  8
0
 10
 4.00000000000000E+0001
 20
 4.10000000000000E+0002
 40
 1.50000000000000E+0001
 50
 9.00000000000000E+0001
 51
 1.80000000000000E+0002
  0
LINE
  8
0
 10
 4.00000000000000E+0001
 20
 4.25000000000000E+0002
 11
 5.60000000000000E+0002
 21
 4.25000000000000E+0002
  0
ARC
  8
0
 10
 5.60000000000000E+0002
 20
 4.10000000000000E+0002
 40
 1.50000000000000E+0001
 50
 0.00000000000000E+0000
 51
 9.00000000000000E+0001
  0
LINE
  8
0
 10
 5.75000000000000E+0002
 20
 4.10000000000000E+0002
 11
 5.75000000000000E+0002
 21
 4.00000000000000E+0001
  0
ARC
  8
0
 10
 5.60000000000000E+0002
 20
 4.00000000000000E+0001
 40
 1.50000000000000E+0001
 50
 2.70000000000000E+0002
 51
 3.60000000000000E+0002
  0
LINE
  8
0
 10
 5.60000000000000E+0002
 20
 2.50000000000000E+0001
 11
 4.00000000000000E+0001
 21
 2.50000000000000E+0001
  0
LINE
  8
0
 10
 1.69504000000000E+0002
 20
 2.38000000000000E+0002
 11
 1.69500000000000E+0002
 21
 2.38000000000000E+0002
  0
LINE
  8
0
 10
 1.69500000000000E+0002
 20
 2.38000000000000E+0002
 11
 1.31680000000000E+0002
 21
 2.79412100000000E+0002
  0
LINE
  8
0
 10
 1.31680000000000E+0002
 20
 2.79412100000000E+0002
 11
 1.15970489763264E+0002
 21
 2.28651824687225E+0002
  0
ARC
  8
0
 10
 1.10000000000000E+0002
 20
 2.30500000000000E+0002
 40
 6.25000000000000E+0000
 50
 1.62780000000000E+0002
 51
 3.42800000000000E+0002
  0
LINE
  8
0
 10
 1.04030155735352E+0002
 20
 2.32350259294222E+0002
 11
 1.22720000000000E+0002
 21
 2.92736900000000E+0002
  0
LINE
  8
0
 10
 1.22720000000000E+0002
 20
 2.92736900000000E+0002
 11
 1.22768000000000E+0002
 21
 2.92891600000000E+0002
  0
LINE
  8
0
 10
 1.22768000000000E+0002
 20
 2.92891600000000E+0002
 11
 1.23672000000000E+0002
 21
 2.95812300000000E+0002
  0
LINE
  8
0
 10
 1.23672000000000E+0002
 20
 2.95812300000000E+0002
 11
 1.26187000000000E+0002
 21
 3.03936200000000E+0002
  0
LINE
  8
0
 10
 1.26187000000000E+0002
 20
 3.03936200000000E+0002
 11
 1.74989000000000E+0002
 21
 2.50497900000000E+0002
  0
LINE
  8
0
 10
 1.74989000000000E+0002
 20
 2.50497900000000E+0002
 11
 2.63437000000000E+0002
 21
 2.50497900000000E+0002
  0
LINE
  8
0
 10
 2.63437000000000E+0002
 20
 2.50497900000000E+0002
 11
 2.63798905021000E+0002
 21
 2.51666892442200E+0002
  0
LINE
  8
0
 10
 2.63798905021000E+0002
 20
 2.51666892442200E+0002
 11
 2.64161396008000E+0002
 21
 2.52837750057600E+0002
  0
LINE
  8
0
 10
 2.64161396008000E+0002
 20
 2.52837750057600E+0002
 11
 2.64524460847000E+0002
 21
 2.54010434279400E+0002
  0
LINE
  8
0
 10
 2.64524460847000E+0002
 20
 2.54010434279400E+0002
 11
 2.64888087424000E+0002
 21
 2.55184906540800E+0002
  0
LINE
  8
0
 10
 2.64888087424000E+0002
 20
 2.55184906540800E+0002
 11
 2.65252263625000E+0002
 21
 2.56361128275000E+0002
  0
LINE
  8
0
 10
 2.65252263625000E+0002
 20
 2.56361128275000E+0002
 11
 2.65616977336000E+0002
 21
 2.57539060915200E+0002
  0
LINE
  8
0
 10
 2.65616977336000E+0002
 20
 2.57539060915200E+0002
 11
 2.65982216443000E+0002
 21
 2.58718665894600E+0002
  0
LINE
  8
0
 10
 2.65982216443000E+0002
 20
 2.58718665894600E+0002
 11
 2.66347968832000E+0002
 21
 2.59899904646400E+0002
  0
LINE
  8
0
 10
 2.66347968832000E+0002
 20
 2.59899904646400E+0002
 11
 2.66714222389000E+0002
 21
 2.61082738603800E+0002
  0
LINE
  8
0
 10
 2.66714222389000E+0002
 20
 2.61082738603800E+0002
 11
 2.67080965000000E+0002
 21
 2.62267129200000E+0002
  0
LINE
  8
0
 10
 2.67080965000000E+0002
 20
 2.62267129200000E+0002
 11
 2.67448184551000E+0002
 21
 2.63453037868200E+0002
  0
LINE
  8
0
 10
 2.67448184551000E+0002
 20
 2.63453037868200E+0002
 11
 2.67815868928000E+0002
 21
 2.64640426041600E+0002
  0
LINE
  8
0
 10
 2.67815868928000E+0002
 20
 2.64640426041600E+0002
 11
 2.68184006017000E+0002
 21
 2.65829255153400E+0002
  0
LINE
  8
0
 10
 2.68184006017000E+0002
 20
 2.65829255153400E+0002
 11
 2.68552583704000E+0002
 21
 2.67019486636800E+0002
  0
LINE
  8
0
 10
 2.68552583704000E+0002
 20
 2.67019486636800E+0002
 11
 2.68921589875000E+0002
 21
 2.68211081925000E+0002
  0
LINE
  8
0
 10
 2.68921589875000E+0002
 20
 2.68211081925000E+0002
 11
 2.69291012416000E+0002
 21
 2.69404002451200E+0002
  0
LINE
  8
0
 10
 2.69291012416000E+0002
 20
 2.69404002451200E+0002
 11
 2.69660839213000E+0002
 21
 2.70598209648600E+0002
  0
LINE
  8
0
 10
 2.69660839213000E+0002
 20
 2.70598209648600E+0002
 11
 2.70031058152000E+0002
 21
 2.71793664950400E+0002
  0
LINE
  8
0
 10
 2.70031058152000E+0002
 20
 2.71793664950400E+0002
 11
 2.70401657119000E+0002
 21
 2.72990329789800E+0002
  0
LINE
  8
0
 10
 2.70401657119000E+0002
 20
 2.72990329789800E+0002
 11
 2.70772624000000E+0002
 21
 2.74188165600000E+0002
  0
LINE
  8
0
 10
 2.70772624000000E+0002
 20
 2.74188165600000E+0002
 11
 2.71143946681000E+0002
 21
 2.75387133814200E+0002
  0
LINE
  8
0
 10
 2.71143946681000E+0002
 20
 2.75387133814200E+0002
 11
 2.71515613048000E+0002
 21
 2.76587195865600E+0002
  0
LINE
  8
0
 10
 2.71515613048000E+0002
 20
 2.76587195865600E+0002
 11
 2.71887610987000E+0002
 21
 2.77788313187400E+0002
  0
LINE
  8
0
 10
 2.71887610987000E+0002
 20
 2.77788313187400E+0002
 11
 2.72259928384000E+0002
 21
 2.78990447212800E+0002
  0
LINE
  8
0
 10
 2.72259928384000E+0002
 20
 2.78990447212800E+0002
 11
 2.72632553125000E+0002
 21
 2.80193559375000E+0002
  0
LINE
  8
0
 10
 2.72632553125000E+0002
 20
 2.80193559375000E+0002
 11
 2.73005473096000E+0002
 21
 2.81397611107200E+0002
  0
LINE
  8
0
 10
 2.73005473096000E+0002
 20
 2.81397611107200E+0002
 11
 2.73378676183000E+0002
 21
 2.82602563842600E+0002
  0
LINE
  8
0
 10
 2.73378676183000E+0002
 20
 2.82602563842600E+0002
 11
 2.73752150272000E+0002
 21
 2.83808379014400E+0002
  0
LINE
  8
0
 10
 2.73752150272000E+0002
 20
 2.83808379014400E+0002
 11
 2.74125883249000E+0002
 21
 2.85015018055800E+0002
  0
LINE
  8
0
 10
 2.74125883249000E+0002
 20
 2.85015018055800E+0002
 11
 2.74499863000000E+0002
 21
 2.86222442400000E+0002
  0
LINE
  8
0
 10
 2.74499863000000E+0002
 20
 2.86222442400000E+0002
 11
 2.74874077411000E+0002
 21
 2.87430613480200E+0002
  0
LINE
  8
0
 10
 2.74874077411000E+0002
 20
 2.87430613480200E+0002
 11
 2.75248514368000E+0002
 21
 2.88639492729600E+0002
  0
LINE
  8
0
 10
 2.75248514368000E+0002
 20
 2.88639492729600E+0002
 11
 2.75623161757000E+0002
 21
 2.89849041581400E+0002
  0
LINE
  8
0
 10
 2.75623161757000E+0002
 20
 2.89849041581400E+0002
 11
 2.75998007464000E+0002
 21
 2.91059221468800E+0002
  0
LINE
  8
0
 10
 2.75998007464000E+0002
 20
 2.91059221468800E+0002
 11
 2.76373039375000E+0002
 21
 2.92269993825000E+0002
  0
LINE
  8
0
 10
 2.76373039375000E+0002
 20
 2.92269993825000E+0002
 11
 2.76748245376000E+0002
 21
 2.93481320083200E+0002
  0
LINE
  8
0
 10
 2.76748245376000E+0002
 20
 2.93481320083200E+0002
 11
 2.77123613353000E+0002
 21
 2.94693161676600E+0002
  0
LINE
  8
0
 10
 2.77123613353000E+0002
 20
 2.94693161676600E+0002
 11
 2.77499131192000E+0002
 21
 2.95905480038400E+0002
  0
LINE
  8
0
 10
 2.77499131192000E+0002
 20
 2.95905480038400E+0002
 11
 2.77874786779000E+0002
 21
 2.97118236601800E+0002
  0
LINE
  8
0
 10
 2.77874786779000E+0002
 20
 2.97118236601800E+0002
 11
 2.78250568000000E+0002
 21
 2.98331392800000E+0002
  0
LINE
  8
0
 10
 2.78250568000000E+0002
 20
 2.98331392800000E+0002
 11
 2.78626462741000E+0002
 21
 2.99544910066200E+0002
  0
LINE
  8
0
 10
 2.78626462741000E+0002
 20
 2.99544910066200E+0002
 11
 2.79002458888000E+0002
 21
 3.00758749833600E+0002
  0
LINE
  8
0
 10
 2.79002458888000E+0002
 20
 3.00758749833600E+0002
 11
 2.79378544327000E+0002
 21
 3.01972873535400E+0002
  0
LINE
  8
0
 10
 2.79378544327000E+0002
 20
 3.01972873535400E+0002
 11
 2.79754706944000E+0002
 21
 3.03187242604800E+0002
  0
LINE
  8
0
 10
 2.79754706944000E+0002
 20
 3.03187242604800E+0002
 11
 2.80130934625000E+0002
 21
 3.04401818475000E+0002
  0
LINE
  8
0
 10
 2.80130934625000E+0002
 20
 3.04401818475000E+0002
 11
 2.80507215256000E+0002
 21
 3.05616562579200E+0002
  0
LINE
  8
0
 10
 2.80507215256000E+0002
 20
 3.05616562579200E+0002
 11
 2.80883536723000E+0002
 21
 3.06831436350600E+0002
  0
LINE
  8
0
 10
 2.80883536723000E+0002
 20
 3.06831436350600E+0002
 11
 2.81259886912000E+0002
 21
 3.08046401222400E+0002
  0
LINE
  8
0
 10
 2.81259886912000E+0002
 20
 3.08046401222400E+0002
 11
 2.81636253709000E+0002
 21
 3.09261418627800E+0002
  0
LINE
  8
0
 10
 2.81636253709000E+0002
 20
 3.09261418627800E+0002
 11
 2.82012625000000E+0002
 21
 3.10476450000000E+0002
  0
LINE
  8
0
 10
 2.82012625000000E+0002
 20
 3.10476450000000E+0002
 11
 2.82388988671000E+0002
 21
 3.11691456772200E+0002
  0
LINE
  8
0
 10
 2.82388988671000E+0002
 20
 3.11691456772200E+0002
 11
 2.82765332608000E+0002
 21
 3.12906400377600E+0002
  0
LINE
  8
0
 10
 2.82765332608000E+0002
 20
 3.12906400377600E+0002
 11
 2.83141644697000E+0002
 21
 3.14121242249400E+0002
  0
LINE
  8
0
 10
 2.83141644697000E+0002
 20
 3.14121242249400E+0002
 11
 2.83517912824000E+0002
 21
 3.15335943820800E+0002
  0
LINE
  8
0
 10
 2.83517912824000E+0002
 20
 3.15335943820800E+0002
 11
 2.83894124875000E+0002
 21
 3.16550466525000E+0002
  0
LINE
  8
0
 10
 2.83894124875000E+0002
 20
 3.16550466525000E+0002
 11
 2.84270268736000E+0002
 21
 3.17764771795200E+0002
  0
LINE
  8
0
 10
 2.84270268736000E+0002
 20
 3.17764771795200E+0002
 11
 2.84646332293000E+0002
 21
 3.18978821064600E+0002
  0
LINE
  8
0
 10
 2.84646332293000E+0002
 20
 3.18978821064600E+0002
 11
 2.85022303432000E+0002
 21
 3.20192575766400E+0002
  0
LINE
  8
0
 10
 2.85022303432000E+0002
 20
 3.20192575766400E+0002
 11
 2.85398170039000E+0002
 21
 3.21405997333800E+0002
  0
LINE
  8
0
 10
 2.85398170039000E+0002
 20
 3.21405997333800E+0002
 11
 2.85773920000000E+0002
 21
 3.22619047200000E+0002
  0
LINE
  8
0
 10
 2.85773920000000E+0002
 20
 3.22619047200000E+0002
 11
 2.86149541201000E+0002
 21
 3.23831686798200E+0002
  0
LINE
  8
0
 10
 2.86149541201000E+0002
 20
 3.23831686798200E+0002
 11
 2.86525021528000E+0002
 21
 3.25043877561600E+0002
  0
LINE
  8
0
 10
 2.86525021528000E+0002
 20
 3.25043877561600E+0002
 11
 2.86900348867000E+0002
 21
 3.26255580923400E+0002
  0
LINE
  8
0
 10
 2.86900348867000E+0002
 20
 3.26255580923400E+0002
 11
 2.87275511104000E+0002
 21
 3.27466758316800E+0002
  0
LINE
  8
0
 10
 2.87275511104000E+0002
 20
 3.27466758316800E+0002
 11
 2.87650496125000E+0002
 21
 3.28677371175000E+0002
  0
LINE
  8
0
 10
 2.87650496125000E+0002
 20
 3.28677371175000E+0002
 11
 2.88025291816000E+0002
 21
 3.29887380931200E+0002
  0
LINE
  8
0
 10
 2.88025291816000E+0002
 20
 3.29887380931200E+0002
 11
 2.88399886063000E+0002
 21
 3.31096749018600E+0002
  0
LINE
  8
0
 10
 2.88399886063000E+0002
 20
 3.31096749018600E+0002
 11
 2.88774266752000E+0002
 21
 3.32305436870400E+0002
  0
LINE
  8
0
 10
 2.88774266752000E+0002
 20
 3.32305436870400E+0002
 11
 2.89148421769000E+0002
 21
 3.33513405919800E+0002
  0
LINE
  8
0
 10
 2.89148421769000E+0002
 20
 3.33513405919800E+0002
 11
 2.89522339000000E+0002
 21
 3.34720617600000E+0002
  0
LINE
  8
0
 10
 2.89522339000000E+0002
 20
 3.34720617600000E+0002
 11
 2.89896006331000E+0002
 21
 3.35927033344200E+0002
  0
LINE
  8
0
 10
 2.89896006331000E+0002
 20
 3.35927033344200E+0002
 11
 2.90269411648000E+0002
 21
 3.37132614585600E+0002
  0
LINE
  8
0
 10
 2.90269411648000E+0002
 20
 3.37132614585600E+0002
 11
 2.90642542837000E+0002
 21
 3.38337322757400E+0002
  0
LINE
  8
0
 10
 2.90642542837000E+0002
 20
 3.38337322757400E+0002
 11
 2.91015387784000E+0002
 21
 3.39541119292800E+0002
  0
LINE
  8
0
 10
 2.91015387784000E+0002
 20
 3.39541119292800E+0002
 11
 2.91387934375000E+0002
 21
 3.40743965625000E+0002
  0
LINE
  8
0
 10
 2.91387934375000E+0002
 20
 3.40743965625000E+0002
 11
 2.91760170496000E+0002
 21
 3.41945823187200E+0002
  0
LINE
  8
0
 10
 2.91760170496000E+0002
 20
 3.41945823187200E+0002
 11
 2.92132084033000E+0002
 21
 3.43146653412600E+0002
  0
LINE
  8
0
 10
 2.92132084033000E+0002
 20
 3.43146653412600E+0002
 11
 2.92503662872000E+0002
 21
 3.44346417734400E+0002
  0
LINE
  8
0
 10
 2.92503662872000E+0002
 20
 3.44346417734400E+0002
 11
 2.92874894899000E+0002
 21
 3.45545077585800E+0002
  0
LINE
  8
0
 10
 2.92874894899000E+0002
 20
 3.45545077585800E+0002
 11
 2.93245768000000E+0002
 21
 3.46742594400000E+0002
  0
LINE
  8
0
 10
 2.93245768000000E+0002
 20
 3.46742594400000E+0002
 11
 2.93616270061000E+0002
 21
 3.47938929610200E+0002
  0
LINE
  8
0
 10
 2.93616270061000E+0002
 20
 3.47938929610200E+0002
 11
 2.93986388968000E+0002
 21
 3.49134044649600E+0002
  0
LINE
  8
0
 10
 2.93986388968000E+0002
 20
 3.49134044649600E+0002
 11
 2.94356112607000E+0002
 21
 3.50327900951400E+0002
  0
LINE
  8
0
 10
 2.94356112607000E+0002
 20
 3.50327900951400E+0002
 11
 2.94725428864000E+0002
 21
 3.51520459948800E+0002
  0
LINE
  8
0
 10
 2.94725428864000E+0002
 20
 3.51520459948800E+0002
 11
 2.95094325625000E+0002
 21
 3.52711683075000E+0002
  0
LINE
  8
0
 10
 2.95094325625000E+0002
 20
 3.52711683075000E+0002
 11
 2.95462790776000E+0002
 21
 3.53901531763200E+0002
  0
LINE
  8
0
 10
 2.95462790776000E+0002
 20
 3.53901531763200E+0002
 11
 2.95830812203000E+0002
 21
 3.55089967446600E+0002
  0
LINE
  8
0
 10
 2.95830812203000E+0002
 20
 3.55089967446600E+0002
 11
 2.96198377792000E+0002
 21
 3.56276951558400E+0002
  0
LINE
  8
0
 10
 2.96198377792000E+0002
 20
 3.56276951558400E+0002
 11
 2.96565475429000E+0002
 21
 3.57462445531800E+0002
  0
LINE
  8
0
 10
 2.96565475429000E+0002
 20
 3.57462445531800E+0002
 11
 2.96932093000000E+0002
 21
 3.58646410800000E+0002
  0
LINE
  8
0
 10
 2.96932093000000E+0002
 20
 3.58646410800000E+0002
 11
 2.97298218391000E+0002
 21
 3.59828808796200E+0002
  0
LINE
  8
0
 10
 2.97298218391000E+0002
 20
 3.59828808796200E+0002
 11
 2.97663839488000E+0002
 21
 3.61009600953600E+0002
  0
LINE
  8
0
 10
 2.97663839488000E+0002
 20
 3.61009600953600E+0002
 11
 2.98028944177000E+0002
 21
 3.62188748705400E+0002
  0
LINE
  8
0
 10
 2.98028944177000E+0002
 20
 3.62188748705400E+0002
 11
 2.98393520344000E+0002
 21
 3.63366213484800E+0002
  0
LINE
  8
0
 10
 2.98393520344000E+0002
 20
 3.63366213484800E+0002
 11
 2.98757555875000E+0002
 21
 3.64541956725000E+0002
  0
LINE
  8
0
 10
 2.98757555875000E+0002
 20
 3.64541956725000E+0002
 11
 2.99121038656000E+0002
 21
 3.65715939859200E+0002
  0
LINE
  8
0
 10
 2.99121038656000E+0002
 20
 3.65715939859200E+0002
 11
 2.99483956573000E+0002
 21
 3.66888124320600E+0002
  0
LINE
  8
0
 10
 2.99483956573000E+0002
 20
 3.66888124320600E+0002
 11
 2.99846297512000E+0002
 21
 3.68058471542400E+0002
  0
LINE
  8
0
 10
 2.99846297512000E+0002
 20
 3.68058471542400E+0002
 11
 3.00208049359000E+0002
 21
 3.69226942957800E+0002
  0
LINE
  8
0
 10
 3.00208049359000E+0002
 20
 3.69226942957800E+0002
 11
 3.00569200000000E+0002
 21
 3.70393500000000E+0002
  0
LINE
  8
0
 10
 3.00569200000000E+0002
 20
 3.70393500000000E+0002
 11
 3.00568000000000E+0002
 21
 3.70392700000000E+0002
  0
LINE
  8
0
 10
 3.00568000000000E+0002
 20
 3.70392700000000E+0002
 11
 3.00569200000000E+0002
 21
 3.70393500000000E+0002
  0
LINE
  8
0
 10
 3.00569200000000E+0002
 20
 3.70393500000000E+0002
 11
 3.00568040946941E+0002
 21
 3.70392701251101E+0002
  0
ARC
  8
0
 10
 3.24450000000000E+0002
 20
 3.63000000000000E+0002
 40
 2.50000000000000E+0001
 50
 9.00000000000000E+0001
 51
 1.62800000000000E+0002
  0
LINE
  8
0
 10
 3.24450000000000E+0002
 20
 3.88000000000000E+0002
 11
 3.45000000000000E+0002
 21
 3.88000000000000E+0002
  0
LINE
  8
0
 10
 3.45000000000000E+0002
 20
 3.88000000000000E+0002
 11
 3.45000000000000E+0002
 21
 3.75500000000000E+0002
  0
LINE
  8
0
 10
 3.45000000000000E+0002
 20
 3.75500000000000E+0002
 11
 3.24450000000000E+0002
 21
 3.75500000000000E+0002
  0
ARC
  8
0
 10
 3.24450000000000E+0002
 20
 3.63000000000000E+0002
 40
 1.25000000000000E+0001
 50
 9.00000000000000E+0001
 51
 1.62795000000000E+0002
  0
LINE
  8
0
 10
 3.12509343086382E+0002
 20
 3.66697392658518E+0002
 11
 3.07500000000000E+0002
 21
 3.50500000000000E+0002
  0
LINE
  8
0
 10
 3.07500000000000E+0002
 20
 3.50500000000000E+0002
 11
 3.03567000000000E+0002
 21
 3.38000000000000E+0002
  0
LINE
  8
0
 10
 3.03567000000000E+0002
 20
 3.38000000000000E+0002
 11
 3.03630000000000E+0002
 21
 3.38000000000000E+0002
  0
LINE
  8
0
 10
 3.03630000000000E+0002
 20
 3.38000000000000E+0002
 11
 3.46346000000000E+0002
 21
 2.90608200000000E+0002
  0
LINE
  8
0
 10
 3.46346000000000E+0002
 20
 2.90608200000000E+0002
 11
 3.96489000000000E+0002
 21
 2.90608200000000E+0002
  0
LINE
  8
0
 10
 3.96489000000000E+0002
 20
 2.90608200000000E+0002
 11
 3.96758138513800E+0002
 21
 2.91335392958500E+0002
  0
LINE
  8
0
 10
 3.96758138513800E+0002
 20
 2.91335392958500E+0002
 11
 3.97027483630400E+0002
 21
 2.92062435548000E+0002
  0
LINE
  8
0
 10
 3.97027483630400E+0002
 20
 2.92062435548000E+0002
 11
 3.97297031712600E+0002
 21
 2.92789330339500E+0002
  0
LINE
  8
0
 10
 3.97297031712600E+0002
 20
 2.92789330339500E+0002
 11
 3.97566779123200E+0002
 21
 2.93516079904000E+0002
  0
LINE
  8
0
 10
 3.97566779123200E+0002
 20
 2.93516079904000E+0002
 11
 3.97836722225000E+0002
 21
 2.94242686812500E+0002
  0
LINE
  8
0
 10
 3.97836722225000E+0002
 20
 2.94242686812500E+0002
 11
 3.98106857380800E+0002
 21
 2.94969153636000E+0002
  0
LINE
  8
0
 10
 3.98106857380800E+0002
 20
 2.94969153636000E+0002
 11
 3.98377180953400E+0002
 21
 2.95695482945500E+0002
  0
LINE
  8
0
 10
 3.98377180953400E+0002
 20
 2.95695482945500E+0002
 11
 3.98647689305600E+0002
 21
 2.96421677312000E+0002
  0
LINE
  8
0
 10
 3.98647689305600E+0002
 20
 2.96421677312000E+0002
 11
 3.98918378800200E+0002
 21
 2.97147739306500E+0002
  0
LINE
  8
0
 10
 3.98918378800200E+0002
 20
 2.97147739306500E+0002
 11
 3.99189245800000E+0002
 21
 2.97873671500000E+0002
  0
LINE
  8
0
 10
 3.99189245800000E+0002
 20
 2.97873671500000E+0002
 11
 3.99460286667800E+0002
 21
 2.98599476463500E+0002
  0
LINE
  8
0
 10
 3.99460286667800E+0002
 20
 2.98599476463500E+0002
 11
 3.99731497766400E+0002
 21
 2.99325156768000E+0002
  0
LINE
  8
0
 10
 3.99731497766400E+0002
 20
 2.99325156768000E+0002
 11
 4.00002875458600E+0002
 21
 3.00050714984500E+0002
  0
LINE
  8
0
 10
 4.00002875458600E+0002
 20
 3.00050714984500E+0002
 11
 4.00274416107200E+0002
 21
 3.00776153684000E+0002
  0
LINE
  8
0
 10
 4.00274416107200E+0002
 20
 3.00776153684000E+0002
 11
 4.00546116075000E+0002
 21
 3.01501475437500E+0002
  0
LINE
  8
0
 10
 4.00546116075000E+0002
 20
 3.01501475437500E+0002
 11
 4.00817971724800E+0002
 21
 3.02226682816000E+0002
  0
LINE
  8
0
 10
 4.00817971724800E+0002
 20
 3.02226682816000E+0002
 11
 4.01089979419400E+0002
 21
 3.02951778390500E+0002
  0
LINE
  8
0
 10
 4.01089979419400E+0002
 20
 3.02951778390500E+0002
 11
 4.01362135521600E+0002
 21
 3.03676764732000E+0002
  0
LINE
  8
0
 10
 4.01362135521600E+0002
 20
 3.03676764732000E+0002
 11
 4.01634436394200E+0002
 21
 3.04401644411500E+0002
  0
LINE
  8
0
 10
 4.01634436394200E+0002
 20
 3.04401644411500E+0002
 11
 4.01906878400000E+0002
 21
 3.05126420000000E+0002
  0
LINE
  8
0
 10
 4.01906878400000E+0002
 20
 3.05126420000000E+0002
 11
 4.02179457901800E+0002
 21
 3.05851094068500E+0002
  0
LINE
  8
0
 10
 4.02179457901800E+0002
 20
 3.05851094068500E+0002
 11
 4.02452171262400E+0002
 21
 3.06575669188000E+0002
  0
LINE
  8
0
 10
 4.02452171262400E+0002
 20
 3.06575669188000E+0002
 11
 4.02725014844600E+0002
 21
 3.07300147929500E+0002
  0
LINE
  8
0
 10
 4.02725014844600E+0002
 20
 3.07300147929500E+0002
 11
 4.02997985011200E+0002
 21
 3.08024532864000E+0002
  0
LINE
  8
0
 10
 4.02997985011200E+0002
 20
 3.08024532864000E+0002
 11
 4.03271078125000E+0002
 21
 3.08748826562500E+0002
  0
LINE
  8
0
 10
 4.03271078125000E+0002
 20
 3.08748826562500E+0002
 11
 4.03544290548800E+0002
 21
 3.09473031596000E+0002
  0
LINE
  8
0
 10
 4.03544290548800E+0002
 20
 3.09473031596000E+0002
 11
 4.03817618645400E+0002
 21
 3.10197150535500E+0002
  0
LINE
  8
0
 10
 4.03817618645400E+0002
 20
 3.10197150535500E+0002
 11
 4.04091058777600E+0002
 21
 3.10921185952000E+0002
  0
LINE
  8
0
 10
 4.04091058777600E+0002
 20
 3.10921185952000E+0002
 11
 4.04364607308200E+0002
 21
 3.11645140416500E+0002
  0
LINE
  8
0
 10
 4.04364607308200E+0002
 20
 3.11645140416500E+0002
 11
 4.04638260600000E+0002
 21
 3.12369016500000E+0002
  0
LINE
  8
0
 10
 4.04638260600000E+0002
 20
 3.12369016500000E+0002
 11
 4.04912015015800E+0002
 21
 3.13092816773500E+0002
  0
LINE
  8
0
 10
 4.04912015015800E+0002
 20
 3.13092816773500E+0002
 11
 4.05185866918400E+0002
 21
 3.13816543808000E+0002
  0
LINE
  8
0
 10
 4.05185866918400E+0002
 20
 3.13816543808000E+0002
 11
 4.05459812670600E+0002
 21
 3.14540200174500E+0002
  0
LINE
  8
0
 10
 4.05459812670600E+0002
 20
 3.14540200174500E+0002
 11
 4.05733848635200E+0002
 21
 3.15263788444000E+0002
  0
LINE
  8
0
 10
 4.05733848635200E+0002
 20
 3.15263788444000E+0002
 11
 4.06007971175000E+0002
 21
 3.15987311187500E+0002
  0
LINE
  8
0
 10
 4.06007971175000E+0002
 20
 3.15987311187500E+0002
 11
 4.06282176652800E+0002
 21
 3.16710770976000E+0002
  0
LINE
  8
0
 10
 4.06282176652800E+0002
 20
 3.16710770976000E+0002
 11
 4.06556461431400E+0002
 21
 3.17434170380500E+0002
  0
LINE
  8
0
 10
 4.06556461431400E+0002
 20
 3.17434170380500E+0002
 11
 4.06830821873600E+0002
 21
 3.18157511972000E+0002
  0
LINE
  8
0
 10
 4.06830821873600E+0002
 20
 3.18157511972000E+0002
 11
 4.07105254342200E+0002
 21
 3.18880798321500E+0002
  0
LINE
  8
0
 10
 4.07105254342200E+0002
 20
 3.18880798321500E+0002
 11
 4.07379755200000E+0002
 21
 3.19604032000000E+0002
  0
LINE
  8
0
 10
 4.07379755200000E+0002
 20
 3.19604032000000E+0002
 11
 4.07654320809800E+0002
 21
 3.20327215578500E+0002
  0
LINE
  8
0
 10
 4.07654320809800E+0002
 20
 3.20327215578500E+0002
 11
 4.07928947534400E+0002
 21
 3.21050351628000E+0002
  0
LINE
  8
0
 10
 4.07928947534400E+0002
 20
 3.21050351628000E+0002
 11
 4.08203631736600E+0002
 21
 3.21773442719500E+0002
  0
LINE
  8
0
 10
 4.08203631736600E+0002
 20
 3.21773442719500E+0002
 11
 4.08478369779200E+0002
 21
 3.22496491424000E+0002
  0
LINE
  8
0
 10
 4.08478369779200E+0002
 20
 3.22496491424000E+0002
 11
 4.08753158025000E+0002
 21
 3.23219500312500E+0002
  0
LINE
  8
0
 10
 4.08753158025000E+0002
 20
 3.23219500312500E+0002
 11
 4.09027992836800E+0002
 21
 3.23942471956000E+0002
  0
LINE
  8
0
 10
 4.09027992836800E+0002
 20
 3.23942471956000E+0002
 11
 4.09302870577400E+0002
 21
 3.24665408925500E+0002
  0
LINE
  8
0
 10
 4.09302870577400E+0002
 20
 3.24665408925500E+0002
 11
 4.09577787609600E+0002
 21
 3.25388313792000E+0002
  0
LINE
  8
0
 10
 4.09577787609600E+0002
 20
 3.25388313792000E+0002
 11
 4.09852740296200E+0002
 21
 3.26111189126500E+0002
  0
LINE
  8
0
 10
 4.09852740296200E+0002
 20
 3.26111189126500E+0002
 11
 4.10127725000000E+0002
 21
 3.26834037500000E+0002
  0
LINE
  8
0
 10
 4.10127725000000E+0002
 20
 3.26834037500000E+0002
 11
 4.10402738083800E+0002
 21
 3.27556861483500E+0002
  0
LINE
  8
0
 10
 4.10402738083800E+0002
 20
 3.27556861483500E+0002
 11
 4.10677775910400E+0002
 21
 3.28279663648000E+0002
  0
LINE
  8
0
 10
 4.10677775910400E+0002
 20
 3.28279663648000E+0002
 11
 4.10952834842600E+0002
 21
 3.29002446564500E+0002
  0
LINE
  8
0
 10
 4.10952834842600E+0002
 20
 3.29002446564500E+0002
 11
 4.11227911243200E+0002
 21
 3.29725212804000E+0002
  0
LINE
  8
0
 10
 4.11227911243200E+0002
 20
 3.29725212804000E+0002
 11
 4.11503001475000E+0002
 21
 3.30447964937500E+0002
  0
LINE
  8
0
 10
 4.11503001475000E+0002
 20
 3.30447964937500E+0002
 11
 4.11778101900800E+0002
 21
 3.31170705536000E+0002
  0
LINE
  8
0
 10
 4.11778101900800E+0002
 20
 3.31170705536000E+0002
 11
 4.12053208883400E+0002
 21
 3.31893437170500E+0002
  0
LINE
  8
0
 10
 4.12053208883400E+0002
 20
 3.31893437170500E+0002
 11
 4.12328318785600E+0002
 21
 3.32616162412000E+0002
  0
LINE
  8
0
 10
 4.12328318785600E+0002
 20
 3.32616162412000E+0002
 11
 4.12603427970200E+0002
 21
 3.33338883831500E+0002
  0
LINE
  8
0
 10
 4.12603427970200E+0002
 20
 3.33338883831500E+0002
 11
 4.12878532800000E+0002
 21
 3.34061604000000E+0002
  0
LINE
  8
0
 10
 4.12878532800000E+0002
 20
 3.34061604000000E+0002
 11
 4.13153629637800E+0002
 21
 3.34784325488500E+0002
  0
LINE
  8
0
 10
 4.13153629637800E+0002
 20
 3.34784325488500E+0002
 11
 4.13428714846400E+0002
 21
 3.35507050868000E+0002
  0
LINE
  8
0
 10
 4.13428714846400E+0002
 20
 3.35507050868000E+0002
 11
 4.13703784788600E+0002
 21
 3.36229782709500E+0002
  0
LINE
  8
0
 10
 4.13703784788600E+0002
 20
 3.36229782709500E+0002
 11
 4.13978835827200E+0002
 21
 3.36952523584000E+0002
  0
LINE
  8
0
 10
 4.13978835827200E+0002
 20
 3.36952523584000E+0002
 11
 4.14253864325000E+0002
 21
 3.37675276062500E+0002
  0
LINE
  8
0
 10
 4.14253864325000E+0002
 20
 3.37675276062500E+0002
 11
 4.14528866644800E+0002
 21
 3.38398042716000E+0002
  0
LINE
  8
0
 10
 4.14528866644800E+0002
 20
 3.38398042716000E+0002
 11
 4.14803839149400E+0002
 21
 3.39120826115500E+0002
  0
LINE
  8
0
 10
 4.14803839149400E+0002
 20
 3.39120826115500E+0002
 11
 4.15078778201600E+0002
 21
 3.39843628832000E+0002
  0
LINE
  8
0
 10
 4.15078778201600E+0002
 20
 3.39843628832000E+0002
 11
 4.15353680164200E+0002
 21
 3.40566453436500E+0002
  0
LINE
  8
0
 10
 4.15353680164200E+0002
 20
 3.40566453436500E+0002
 11
 4.15628541400000E+0002
 21
 3.41289302500000E+0002
  0
LINE
  8
0
 10
 4.15628541400000E+0002
 20
 3.41289302500000E+0002
 11
 4.15903358271800E+0002
 21
 3.42012178593500E+0002
  0
LINE
  8
0
 10
 4.15903358271800E+0002
 20
 3.42012178593500E+0002
 11
 4.16178127142400E+0002
 21
 3.42735084288000E+0002
  0
LINE
  8
0
 10
 4.16178127142400E+0002
 20
 3.42735084288000E+0002
 11
 4.16452844374600E+0002
 21
 3.43458022154500E+0002
  0
LINE
  8
0
 10
 4.16452844374600E+0002
 20
 3.43458022154500E+0002
 11
 4.16727506331200E+0002
 21
 3.44180994764000E+0002
  0
LINE
  8
0
 10
 4.16727506331200E+0002
 20
 3.44180994764000E+0002
 11
 4.17002109375000E+0002
 21
 3.44904004687500E+0002
  0
LINE
  8
0
 10
 4.17002109375000E+0002
 20
 3.44904004687500E+0002
 11
 4.17276649868800E+0002
 21
 3.45627054496000E+0002
  0
LINE
  8
0
 10
 4.17276649868800E+0002
 20
 3.45627054496000E+0002
 11
 4.17551124175400E+0002
 21
 3.46350146760500E+0002
  0
LINE
  8
0
 10
 4.17551124175400E+0002
 20
 3.46350146760500E+0002
 11
 4.17825528657600E+0002
 21
 3.47073284052000E+0002
  0
LINE
  8
0
 10
 4.17825528657600E+0002
 20
 3.47073284052000E+0002
 11
 4.18099859678200E+0002
 21
 3.47796468941500E+0002
  0
LINE
  8
0
 10
 4.18099859678200E+0002
 20
 3.47796468941500E+0002
 11
 4.18374113600000E+0002
 21
 3.48519704000000E+0002
  0
LINE
  8
0
 10
 4.18374113600000E+0002
 20
 3.48519704000000E+0002
 11
 4.18648286785800E+0002
 21
 3.49242991798500E+0002
  0
LINE
  8
0
 10
 4.18648286785800E+0002
 20
 3.49242991798500E+0002
 11
 4.18922375598400E+0002
 21
 3.49966334908000E+0002
  0
LINE
  8
0
 10
 4.18922375598400E+0002
 20
 3.49966334908000E+0002
 11
 4.19196376400600E+0002
 21
 3.50689735899500E+0002
  0
LINE
  8
0
 10
 4.19196376400600E+0002
 20
 3.50689735899500E+0002
 11
 4.19470285555200E+0002
 21
 3.51413197344000E+0002
  0
LINE
  8
0
 10
 4.19470285555200E+0002
 20
 3.51413197344000E+0002
 11
 4.19744099425000E+0002
 21
 3.52136721812500E+0002
  0
LINE
  8
0
 10
 4.19744099425000E+0002
 20
 3.52136721812500E+0002
 11
 4.20017814372800E+0002
 21
 3.52860311876000E+0002
  0
LINE
  8
0
 10
 4.20017814372800E+0002
 20
 3.52860311876000E+0002
 11
 4.20291426761400E+0002
 21
 3.53583970105500E+0002
  0
LINE
  8
0
 10
 4.20291426761400E+0002
 20
 3.53583970105500E+0002
 11
 4.20564932953600E+0002
 21
 3.54307699072000E+0002
  0
LINE
  8
0
 10
 4.20564932953600E+0002
 20
 3.54307699072000E+0002
 11
 4.20838329312200E+0002
 21
 3.55031501346500E+0002
  0
LINE
  8
0
 10
 4.20838329312200E+0002
 20
 3.55031501346500E+0002
 11
 4.21111612200000E+0002
 21
 3.55755379500000E+0002
  0
LINE
  8
0
 10
 4.21111612200000E+0002
 20
 3.55755379500000E+0002
 11
 4.21384777979800E+0002
 21
 3.56479336103500E+0002
  0
LINE
  8
0
 10
 4.21384777979800E+0002
 20
 3.56479336103500E+0002
 11
 4.21657823014400E+0002
 21
 3.57203373728000E+0002
  0
LINE
  8
0
 10
 4.21657823014400E+0002
 20
 3.57203373728000E+0002
 11
 4.21930743666600E+0002
 21
 3.57927494944500E+0002
  0
LINE
  8
0
 10
 4.21930743666600E+0002
 20
 3.57927494944500E+0002
 11
 4.22203536299200E+0002
 21
 3.58651702324000E+0002
  0
LINE
  8
0
 10
 4.22203536299200E+0002
 20
 3.58651702324000E+0002
 11
 4.22476197275000E+0002
 21
 3.59375998437500E+0002
  0
LINE
  8
0
 10
 4.22476197275000E+0002
 20
 3.59375998437500E+0002
 11
 4.22748722956800E+0002
 21
 3.60100385856000E+0002
  0
LINE
  8
0
 10
 4.22748722956800E+0002
 20
 3.60100385856000E+0002
 11
 4.23021109707400E+0002
 21
 3.60824867150500E+0002
  0
LINE
  8
0
 10
 4.23021109707400E+0002
 20
 3.60824867150500E+0002
 11
 4.23293353889600E+0002
 21
 3.61549444892000E+0002
  0
LINE
  8
0
 10
 4.23293353889600E+0002
 20
 3.61549444892000E+0002
 11
 4.23565451866200E+0002
 21
 3.62274121651500E+0002
  0
LINE
  8
0
 10
 4.23565451866200E+0002
 20
 3.62274121651500E+0002
 11
 4.23837400000000E+0002
 21
 3.62998900000000E+0002
  0
LINE
  8
0
 10
 4.23837400000000E+0002
 20
 3.62998900000000E+0002
 11
 3.97377371621627E+0002
 21
 3.69335400818223E+0002
  0
ARC
  8
0
 10
 3.98100000000000E+0002
 20
 3.72350000000000E+0002
 40
 3.10000000000000E+0000
 50
 9.00000000000000E+0001
 51
 2.56520000000000E+0002
  0
LINE
  8
0
 10
 3.98100000000000E+0002
 20
 3.75450000000000E+0002
 11
 4.51248000000000E+0002
 21
 3.75500000000000E+0002
  0
LINE
  8
0
 10
 4.51248000000000E+0002
 20
 3.75500000000000E+0002
 11
 4.51248000000000E+0002
 21
 3.63000000000000E+0002
  0
LINE
  8
0
 10
 4.51248000000000E+0002
 20
 3.63000000000000E+0002
 11
 4.37186000000000E+0002
 21
 3.63000000000000E+0002
  0
LINE
  8
0
 10
 4.37186000000000E+0002
 20
 3.63000000000000E+0002
 11
 4.32500000000000E+0002
 21
 3.50500000000000E+0002
  0
LINE
  8
0
 10
 4.32500000000000E+0002
 20
 3.50500000000000E+0002
 11
 4.50629387463927E+0002
 21
 3.09922465196063E+0002
  0
ARC
  8
0
 10
 4.70000000000000E+0002
 20
 2.50500000000000E+0002
 40
 6.25000000000000E+0001
 50
 1.91540000000000E+0002
 51
 4.68055000000000E+0002
  0
LINE
  8
0
 10
 4.08763419952794E+0002
 20
 2.37996749857652E+0002
 11
 3.90738000000000E+0002
 21
 2.38000000000000E+0002
  0
LINE
  8
0
 10
 3.90738000000000E+0002
 20
 2.38000000000000E+0002
 11
 1.69504000000000E+0002
 21
 2.38000000000000E+0002
  0
LINE
  8
0
 10
 2.76500000000000E+0002
 20
 2.50500000000000E+0002
 11
 2.76538000000000E+0002
 21
 2.50500000000000E+0002
  0
LINE
  8
0
 10
 2.76538000000000E+0002
 20
 2.50500000000000E+0002
 11
 3.65686000000000E+0002
 21
 2.50500000000000E+0002
  0
LINE
  8
0
 10
 3.65686000000000E+0002
 20
 2.50500000000000E+0002
 11
 2.99359000000000E+0002
 21
 3.24217600000000E+0002
  0
LINE
  8
0
 10
 2.99359000000000E+0002
 20
 3.24217600000000E+0002
 11
 2.99324000000000E+0002
 21
 3.24103500000000E+0002
  0
LINE
  8
0
 10
 2.99324000000000E+0002
 20
 3.24103500000000E+0002
 11
 2.76500000000000E+0002
 21
 2.50500000000000E+0002
  0
ARC
  8
0
 10
 1.10000000000000E+0002
 20
 2.30150000000000E+0002
 40
 4.28500000000000E+0001
 50
 8.13300000000000E+0001
 51
 9.00000000000000E+0001
  0
LINE
  8
0
 10
 1.16459347206142E+0002
 20
 2.72510350962551E+0002
 11
 1.04030155735352E+0002
 21
 2.32350259294222E+0002
  0
ARC
  8
0
 10
 1.10000000000000E+0002
 20
 2.30500000000000E+0002
 40
 6.25000000000000E+0000
 50
 1.62780000000000E+0002
 51
 3.42795000000000E+0002
  0
LINE
  8
0
 10
 1.15970328456809E+0002
 20
 2.28651303670741E+0002
 11
 1.28423826940936E+0002
 21
 2.68798989553909E+0002
  0
ARC
  8
0
 10
 1.10000000000000E+0002
 20
 2.30500000000000E+0002
 40
 4.25000000000000E+0001
 50
 9.00000000000000E+0001
 51
 4.24310000000000E+0002
  0
ARC
  8
0
 10
 1.10000000000000E+0002
 20
 2.30150000000000E+0002
 40
 3.03500000000000E+0001
 50
 8.48800000000000E+0001
 51
 9.00000000000000E+0001
  0
LINE
  8
0
 10
 1.12708493952332E+0002
 20
 2.60378902734141E+0002
 11
 1.04030155735352E+0002
 21
 2.32350259294222E+0002
  0
ARC
  8
0
 10
 1.10000000000000E+0002
 20
 2.30500000000000E+0002
 40
 6.25000000000000E+0000
 50
 1.62780000000000E+0002
 51
 3.42795000000000E+0002
  0
LINE
  8
0
 10
 1.15970328456809E+0002
 20
 2.28651303670741E+0002
 11
 1.24670056795172E+0002
 21
 2.56668481683629E+0002
  0
ARC
  8
0
 10
 1.10000000000000E+0002
 20
 2.30500000000000E+0002
 40
 3.00000000000000E+0001
 50
 9.00000000000000E+0001
 51
 4.20725000000000E+0002
  0
LINE
  8
0
 10
 2.86830000000000E+0002
 20
 3.43000000000000E+0002
 11
 2.84500009997600E+0002
 21
 3.43057763887600E+0002
  0
LINE
  8
0
 10
 2.84500009997600E+0002
 20
 3.43057763887600E+0002
 11
 2.82174808700800E+0002
 21
 3.43114489100800E+0002
  0
LINE
  8
0
 10
 2.82174808700800E+0002
 20
 3.43114489100800E+0002
 11
 2.79854661175200E+0002
 21
 3.43170015965200E+0002
  0
LINE
  8
0
 10
 2.79854661175200E+0002
 20
 3.43170015965200E+0002
 11
 2.77539832486400E+0002
 21
 3.43224184806400E+0002
  0
LINE
  8
0
 10
 2.77539832486400E+0002
 20
 3.43224184806400E+0002
 11
 2.75230587700000E+0002
 21
 3.43276835950000E+0002
  0
LINE
  8
0
 10
 2.75230587700000E+0002
 20
 3.43276835950000E+0002
 11
 2.72927191881600E+0002
 21
 3.43327809721600E+0002
  0
LINE
  8
0
 10
 2.72927191881600E+0002
 20
 3.43327809721600E+0002
 11
 2.70629910096800E+0002
 21
 3.43376946446800E+0002
  0
LINE
  8
0
 10
 2.70629910096800E+0002
 20
 3.43376946446800E+0002
 11
 2.68339007411200E+0002
 21
 3.43424086451200E+0002
  0
LINE
  8
0
 10
 2.68339007411200E+0002
 20
 3.43424086451200E+0002
 11
 2.66054748890400E+0002
 21
 3.43469070060400E+0002
  0
LINE
  8
0
 10
 2.66054748890400E+0002
 20
 3.43469070060400E+0002
 11
 2.63777399600000E+0002
 21
 3.43511737600000E+0002
  0
LINE
  8
0
 10
 2.63777399600000E+0002
 20
 3.43511737600000E+0002
 11
 2.61507224605600E+0002
 21
 3.43551929395600E+0002
  0
LINE
  8
0
 10
 2.61507224605600E+0002
 20
 3.43551929395600E+0002
 11
 2.59244488972800E+0002
 21
 3.43589485772800E+0002
  0
LINE
  8
0
 10
 2.59244488972800E+0002
 20
 3.43589485772800E+0002
 11
 2.56989457767200E+0002
 21
 3.43624247057200E+0002
  0
LINE
  8
0
 10
 2.56989457767200E+0002
 20
 3.43624247057200E+0002
 11
 2.54742396054400E+0002
 21
 3.43656053574400E+0002
  0
LINE
  8
0
 10
 2.54742396054400E+0002
 20
 3.43656053574400E+0002
 11
 2.52503568900000E+0002
 21
 3.43684745650000E+0002
  0
LINE
  8
0
 10
 2.52503568900000E+0002
 20
 3.43684745650000E+0002
 11
 2.50273241369600E+0002
 21
 3.43710163609600E+0002
  0
LINE
  8
0
 10
 2.50273241369600E+0002
 20
 3.43710163609600E+0002
 11
 2.48051678528800E+0002
 21
 3.43732147778800E+0002
  0
LINE
  8
0
 10
 2.48051678528800E+0002
 20
 3.43732147778800E+0002
 11
 2.45839145443200E+0002
 21
 3.43750538483200E+0002
  0
LINE
  8
0
 10
 2.45839145443200E+0002
 20
 3.43750538483200E+0002
 11
 2.43635907178400E+0002
 21
 3.43765176048400E+0002
  0
LINE
  8
0
 10
 2.43635907178400E+0002
 20
 3.43765176048400E+0002
 11
 2.41442228800000E+0002
 21
 3.43775900800000E+0002
  0
LINE
  8
0
 10
 2.41442228800000E+0002
 20
 3.43775900800000E+0002
 11
 2.39258375373600E+0002
 21
 3.43782553063600E+0002
  0
LINE
  8
0
 10
 2.39258375373600E+0002
 20
 3.43782553063600E+0002
 11
 2.37084611964800E+0002
 21
 3.43784973164800E+0002
  0
LINE
  8
0
 10
 2.37084611964800E+0002
 20
 3.43784973164800E+0002
 11
 2.34921203639200E+0002
 21
 3.43783001429200E+0002
  0
LINE
  8
0
 10
 2.34921203639200E+0002
 20
 3.43783001429200E+0002
 11
 2.32768415462400E+0002
 21
 3.43776478182400E+0002
  0
LINE
  8
0
 10
 2.32768415462400E+0002
 20
 3.43776478182400E+0002
 11
 2.30626512500000E+0002
 21
 3.43765243750000E+0002
  0
LINE
  8
0
 10
 2.30626512500000E+0002
 20
 3.43765243750000E+0002
 11
 2.28495759817600E+0002
 21
 3.43749138457600E+0002
  0
LINE
  8
0
 10
 2.28495759817600E+0002
 20
 3.43749138457600E+0002
 11
 2.26376422480800E+0002
 21
 3.43728002630800E+0002
  0
LINE
  8
0
 10
 2.26376422480800E+0002
 20
 3.43728002630800E+0002
 11
 2.24268765555200E+0002
 21
 3.43701676595200E+0002
  0
LINE
  8
0
 10
 2.24268765555200E+0002
 20
 3.43701676595200E+0002
 11
 2.22173054106400E+0002
 21
 3.43670000676400E+0002
  0
LINE
  8
0
 10
 2.22173054106400E+0002
 20
 3.43670000676400E+0002
 11
 2.20089553200000E+0002
 21
 3.43632815200000E+0002
  0
LINE
  8
0
 10
 2.20089553200000E+0002
 20
 3.43632815200000E+0002
 11
 2.18018527901600E+0002
 21
 3.43589960491600E+0002
  0
LINE
  8
0
 10
 2.18018527901600E+0002
 20
 3.43589960491600E+0002
 11
 2.15960243276800E+0002
 21
 3.43541276876800E+0002
  0
LINE
  8
0
 10
 2.15960243276800E+0002
 20
 3.43541276876800E+0002
 11
 2.13914964391200E+0002
 21
 3.43486604681200E+0002
  0
LINE
  8
0
 10
 2.13914964391200E+0002
 20
 3.43486604681200E+0002
 11
 2.11882956310400E+0002
 21
 3.43425784230400E+0002
  0
LINE
  8
0
 10
 2.11882956310400E+0002
 20
 3.43425784230400E+0002
 11
 2.09864484100000E+0002
 21
 3.43358655850000E+0002
  0
LINE
  8
0
 10
 2.09864484100000E+0002
 20
 3.43358655850000E+0002
 11
 2.07859812825600E+0002
 21
 3.43285059865600E+0002
  0
LINE
  8
0
 10
 2.07859812825600E+0002
 20
 3.43285059865600E+0002
 11
 2.05869207552800E+0002
 21
 3.43204836602800E+0002
  0
LINE
  8
0
 10
 2.05869207552800E+0002
 20
 3.43204836602800E+0002
 11
 2.03892933347200E+0002
 21
 3.43117826387200E+0002
  0
LINE
  8
0
 10
 2.03892933347200E+0002
 20
 3.43117826387200E+0002
 11
 2.01931255274400E+0002
 21
 3.43023869544400E+0002
  0
LINE
  8
0
 10
 2.01931255274400E+0002
 20
 3.43023869544400E+0002
 11
 1.99984438400000E+0002
 21
 3.42922806400000E+0002
  0
LINE
  8
0
 10
 1.99984438400000E+0002
 20
 3.42922806400000E+0002
 11
 1.98052747789600E+0002
 21
 3.42814477279600E+0002
  0
LINE
  8
0
 10
 1.98052747789600E+0002
 20
 3.42814477279600E+0002
 11
 1.96136448508800E+0002
 21
 3.42698722508800E+0002
  0
LINE
  8
0
 10
 1.96136448508800E+0002
 20
 3.42698722508800E+0002
 11
 1.94235805623200E+0002
 21
 3.42575382413200E+0002
  0
LINE
  8
0
 10
 1.94235805623200E+0002
 20
 3.42575382413200E+0002
 11
 1.92351084198400E+0002
 21
 3.42444297318400E+0002
  0
LINE
  8
0
 10
 1.92351084198400E+0002
 20
 3.42444297318400E+0002
 11
 1.90482549300000E+0002
 21
 3.42305307550000E+0002
  0
LINE
  8
0
 10
 1.90482549300000E+0002
 20
 3.42305307550000E+0002
 11
 1.88630465993600E+0002
 21
 3.42158253433600E+0002
  0
LINE
  8
0
 10
 1.88630465993600E+0002
 20
 3.42158253433600E+0002
 11
 1.86795099344800E+0002
 21
 3.42002975294800E+0002
  0
LINE
  8
0
 10
 1.86795099344800E+0002
 20
 3.42002975294800E+0002
 11
 1.84976714419200E+0002
 21
 3.41839313459200E+0002
  0
LINE
  8
0
 10
 1.84976714419200E+0002
 20
 3.41839313459200E+0002
 11
 1.83175576282400E+0002
 21
 3.41667108252400E+0002
  0
LINE
  8
0
 10
 1.83175576282400E+0002
 20
 3.41667108252400E+0002
 11
 1.81391950000000E+0002
 21
 3.41486200000000E+0002
  0
LINE
  8
0
 10
 1.81391950000000E+0002
 20
 3.41486200000000E+0002
 11
 1.79626100637600E+0002
 21
 3.41296429027600E+0002
  0
LINE
  8
0
 10
 1.79626100637600E+0002
 20
 3.41296429027600E+0002
 11
 1.77878293260800E+0002
 21
 3.41097635660800E+0002
  0
LINE
  8
0
 10
 1.77878293260800E+0002
 20
 3.41097635660800E+0002
 11
 1.76148792935200E+0002
 21
 3.40889660225200E+0002
  0
LINE
  8
0
 10
 1.76148792935200E+0002
 20
 3.40889660225200E+0002
 11
 1.74437864726400E+0002
 21
 3.40672343046400E+0002
  0
LINE
  8
0
 10
 1.74437864726400E+0002
 20
 3.40672343046400E+0002
 11
 1.72745773700000E+0002
 21
 3.40445524450000E+0002
  0
LINE
  8
0
 10
 1.72745773700000E+0002
 20
 3.40445524450000E+0002
 11
 1.71072784921600E+0002
 21
 3.40209044761600E+0002
  0
LINE
  8
0
 10
 1.71072784921600E+0002
 20
 3.40209044761600E+0002
 11
 1.69419163456800E+0002
 21
 3.39962744306800E+0002
  0
LINE
  8
0
 10
 1.69419163456800E+0002
 20
 3.39962744306800E+0002
 11
 1.67785174371200E+0002
 21
 3.39706463411200E+0002
  0
LINE
  8
0
 10
 1.67785174371200E+0002
 20
 3.39706463411200E+0002
 11
 1.66171082730400E+0002
 21
 3.39440042400400E+0002
  0
LINE
  8
0
 10
 1.66171082730400E+0002
 20
 3.39440042400400E+0002
 11
 1.64577153600000E+0002
 21
 3.39163321600000E+0002
  0
LINE
  8
0
 10
 1.64577153600000E+0002
 20
 3.39163321600000E+0002
 11
 1.63003652045600E+0002
 21
 3.38876141335600E+0002
  0
LINE
  8
0
 10
 1.63003652045600E+0002
 20
 3.38876141335600E+0002
 11
 1.61450843132800E+0002
 21
 3.38578341932800E+0002
  0
LINE
  8
0
 10
 1.61450843132800E+0002
 20
 3.38578341932800E+0002
 11
 1.59918991927200E+0002
 21
 3.38269763717200E+0002
  0
LINE
  8
0
 10
 1.59918991927200E+0002
 20
 3.38269763717200E+0002
 11
 1.58408363494400E+0002
 21
 3.37950247014400E+0002
  0
LINE
  8
0
 10
 1.58408363494400E+0002
 20
 3.37950247014400E+0002
 11
 1.56919222900000E+0002
 21
 3.37619632150000E+0002
  0
LINE
  8
0
 10
 1.56919222900000E+0002
 20
 3.37619632150000E+0002
 11
 1.55451835209600E+0002
 21
 3.37277759449600E+0002
  0
LINE
  8
0
 10
 1.55451835209600E+0002
 20
 3.37277759449600E+0002
 11
 1.54006465488800E+0002
 21
 3.36924469238800E+0002
  0
LINE
  8
0
 10
 1.54006465488800E+0002
 20
 3.36924469238800E+0002
 11
 1.52583378803200E+0002
 21
 3.36559601843200E+0002
  0
LINE
  8
0
 10
 1.52583378803200E+0002
 20
 3.36559601843200E+0002
 11
 1.51182840218400E+0002
 21
 3.36182997588400E+0002
  0
LINE
  8
0
 10
 1.51182840218400E+0002
 20
 3.36182997588400E+0002
 11
 1.49805114800000E+0002
 21
 3.35794496800000E+0002
  0
LINE
  8
0
 10
 1.49805114800000E+0002
 20
 3.35794496800000E+0002
 11
 1.48450467613600E+0002
 21
 3.35393939803600E+0002
  0
LINE
  8
0
 10
 1.48450467613600E+0002
 20
 3.35393939803600E+0002
 11
 1.47119163724800E+0002
 21
 3.34981166924800E+0002
  0
LINE
  8
0
 10
 1.47119163724800E+0002
 20
 3.34981166924800E+0002
 11
 1.45811468199200E+0002
 21
 3.34556018489200E+0002
  0
LINE
  8
0
 10
 1.45811468199200E+0002
 20
 3.34556018489200E+0002
 11
 1.44527646102400E+0002
 21
 3.34118334822400E+0002
  0
LINE
  8
0
 10
 1.44527646102400E+0002
 20
 3.34118334822400E+0002
 11
 1.43267962500000E+0002
 21
 3.33667956250000E+0002
  0
LINE
  8
0
 10
 1.43267962500000E+0002
 20
 3.33667956250000E+0002
 11
 1.42032682457600E+0002
 21
 3.33204723097600E+0002
  0
LINE
  8
0
 10
 1.42032682457600E+0002
 20
 3.33204723097600E+0002
 11
 1.40822071040800E+0002
 21
 3.32728475690800E+0002
  0
LINE
  8
0
 10
 1.40822071040800E+0002
 20
 3.32728475690800E+0002
 11
 1.39636393315200E+0002
 21
 3.32239054355200E+0002
  0
LINE
  8
0
 10
 1.39636393315200E+0002
 20
 3.32239054355200E+0002
 11
 1.38475914346400E+0002
 21
 3.31736299416400E+0002
  0
LINE
  8
0
 10
 1.38475914346400E+0002
 20
 3.31736299416400E+0002
 11
 1.37340899200000E+0002
 21
 3.31220051200000E+0002
  0
LINE
  8
0
 10
 1.37340899200000E+0002
 20
 3.31220051200000E+0002
 11
 1.36231612941600E+0002
 21
 3.30690150031600E+0002
  0
LINE
  8
0
 10
 1.36231612941600E+0002
 20
 3.30690150031600E+0002
 11
 1.35148320636800E+0002
 21
 3.30146436236800E+0002
  0
LINE
  8
0
 10
 1.35148320636800E+0002
 20
 3.30146436236800E+0002
 11
 1.34091287351200E+0002
 21
 3.29588750141200E+0002
  0
LINE
  8
0
 10
 1.34091287351200E+0002
 20
 3.29588750141200E+0002
 11
 1.33060778150400E+0002
 21
 3.29016932070400E+0002
  0
LINE
  8
0
 10
 1.33060778150400E+0002
 20
 3.29016932070400E+0002
 11
 1.32057058100000E+0002
 21
 3.28430822350000E+0002
  0
LINE
  8
0
 10
 1.32057058100000E+0002
 20
 3.28430822350000E+0002
 11
 1.31080392265600E+0002
 21
 3.27830261305600E+0002
  0
LINE
  8
0
 10
 1.31080392265600E+0002
 20
 3.27830261305600E+0002
 11
 1.30131045712800E+0002
 21
 3.27215089262800E+0002
  0
LINE
  8
0
 10
 1.30131045712800E+0002
 20
 3.27215089262800E+0002
 11
 1.29209283507200E+0002
 21
 3.26585146547200E+0002
  0
LINE
  8
0
 10
 1.29209283507200E+0002
 20
 3.26585146547200E+0002
 11
 1.28315370714400E+0002
 21
 3.25940273484400E+0002
  0
LINE
  8
0
 10
 1.28315370714400E+0002
 20
 3.25940273484400E+0002
 11
 1.27449572400000E+0002
 21
 3.25280310400000E+0002
  0
LINE
  8
0
 10
 1.27449572400000E+0002
 20
 3.25280310400000E+0002
 11
 1.26612153629600E+0002
 21
 3.24605097619600E+0002
  0
LINE
  8
0
 10
 1.26612153629600E+0002
 20
 3.24605097619600E+0002
 11
 1.25803379468800E+0002
 21
 3.23914475468800E+0002
  0
LINE
  8
0
 10
 1.25803379468800E+0002
 20
 3.23914475468800E+0002
 11
 1.25023514983200E+0002
 21
 3.23208284273200E+0002
  0
LINE
  8
0
 10
 1.25023514983200E+0002
 20
 3.23208284273200E+0002
 11
 1.24272825238400E+0002
 21
 3.22486364358400E+0002
  0
LINE
  8
0
 10
 1.24272825238400E+0002
 20
 3.22486364358400E+0002
 11
 1.23551575300000E+0002
 21
 3.21748556050000E+0002
  0
LINE
  8
0
 10
 1.23551575300000E+0002
 20
 3.21748556050000E+0002
 11
 1.22860030233600E+0002
 21
 3.20994699673600E+0002
  0
LINE
  8
0
 10
 1.22860030233600E+0002
 20
 3.20994699673600E+0002
 11
 1.22198455104800E+0002
 21
 3.20224635554800E+0002
  0
LINE
  8
0
 10
 1.22198455104800E+0002
 20
 3.20224635554800E+0002
 11
 1.21567114979200E+0002
 21
 3.19438204019200E+0002
  0
LINE
  8
0
 10
 1.21567114979200E+0002
 20
 3.19438204019200E+0002
 11
 1.20966274922400E+0002
 21
 3.18635245392400E+0002
  0
LINE
  8
0
 10
 1.20966274922400E+0002
 20
 3.18635245392400E+0002
 11
 1.20396200000000E+0002
 21
 3.17815600000000E+0002
  0
LINE
  8
0
 10
 1.20396200000000E+0002
 20
 3.17815600000000E+0002
 11
 1.77289000000000E+0002
 21
 2.55500000000000E+0002
  0
LINE
  8
0
 10
 1.77289000000000E+0002
 20
 2.55500000000000E+0002
 11
 2.59738000000000E+0002
 21
 2.55500000000000E+0002
  0
LINE
  8
0
 10
 2.59738000000000E+0002
 20
 2.55500000000000E+0002
 11
 2.86830000000000E+0002
 21
 3.43000000000000E+0002
  0
LINE
  8
0
 10
 3.57613000000000E+0002
 20
 2.78108200000000E+0002
 11
 3.81899000000000E+0002
 21
 2.51165500000000E+0002
  0
LINE
  8
0
 10
 3.81899000000000E+0002
 20
 2.51165500000000E+0002
 11
 3.91865000000000E+0002
 21
 2.78108200000000E+0002
  0
LINE
  8
0
 10
 3.91865000000000E+0002
 20
 2.78108200000000E+0002
 11
 3.57613000000000E+0002
 21
 2.78108200000000E+0002
  0
LINE
  8
0
 10
 3.95000000000000E+0002
 20
 2.50500000000000E+0002
 11
 4.26250000000000E+0002
 21
 3.33839000000000E+0002
  0
LINE
  8
0
 10
 4.26250000000000E+0002
 20
 3.33839000000000E+0002
 11
 4.39190303860348E+0002
 21
 3.04878420570869E+0002
  0
ARC
  8
0
 10
 4.70000000000000E+0002
 20
 2.50500000000000E+0002
 40
 6.25000000000000E+0001
 50
 1.19535000000000E+0002
 51
 1.80000000000000E+0002
  0
LINE
  8
0
 10
 4.07500000000000E+0002
 20
 2.50500000000000E+0002
 11
 3.95000000000000E+0002
 21
 2.50500000000000E+0002
  0
LINE
  8
0
 10
 4.19999000000000E+0002
 20
 2.50500000000000E+0002
 11
 4.20000000000000E+0002
 21
 2.50500000000000E+0002
  0
ARC
  8
0
 10
 4.70000000000000E+0002
 20
 2.50500000000000E+0002
 40
 5.00000000000000E+0001
 50
 1.20900000000000E+0002
 51
 1.80000000000000E+0002
  0
LINE
  8
0
 10
 4.44322937397092E+0002
 20
 2.93403245286182E+0002
 11
 4.63486000000000E+0002
 21
 2.50500000000000E+0002
  0
LINE
  8
0
 10
 4.63486000000000E+0002
 20
 2.50500000000000E+0002
 11
 4.19999000000000E+0002
 21
 2.50500000000000E+0002
  0
LINE
  8
0
 10
 4.21587000000000E+0002
 20
 2.38000000000000E+0002
 11
 4.73100000000000E+0002
 21
 2.37950000000000E+0002
  0
ARC
  8
0
 10
 4.73100000000000E+0002
 20
 2.44250000000000E+0002
 40
 6.30000000000000E+0000
 50
 2.70000000000000E+0002
 51
 3.83960000000000E+0002
  0
LINE
  8
0
 10
 4.78857123901652E+0002
 20
 2.46808422244475E+0002
 11
 4.55753219271052E+0002
 21
 2.98427332899519E+0002
  0
ARC
  8
0
 10
 4.70000000000000E+0002
 20
 2.50500000000000E+0002
 40
 5.00000000000000E+0001
 50
 1.94480000000000E+0002
 51
 4.66555000000000E+0002
  0
LINE
  8
0
 10
 4.21588250974878E+0002
 20
 2.37997897923606E+0002
 11
 4.21587000000000E+0002
 21
 2.38000000000000E+0002
  0
LINE
  8
0
 10
 2.22000000000000E+0002
 20
 6.70000000000000E+0001
 11
 2.22000000000000E+0002
 21
 1.17250000000000E+0002
  0
LINE
  8
0
 10
 2.22000000000000E+0002
 20
 1.17250000000000E+0002
 11
 2.16000000000000E+0002
 21
 1.17250000000000E+0002
  0
LINE
  8
0
 10
 2.16000000000000E+0002
 20
 1.17250000000000E+0002
 11
 2.16000000000000E+0002
 21
 1.27000000000000E+0002
  0
LINE
  8
0
 10
 2.16000000000000E+0002
 20
 1.27000000000000E+0002
 11
 2.22000000000000E+0002
 21
 1.27000000000000E+0002
  0
LINE
  8
0
 10
 2.22000000000000E+0002
 20
 1.27000000000000E+0002
 11
 2.22000000000000E+0002
 21
 1.36000000000000E+0002
  0
ARC
  8
0
 10
 2.37000000000000E+0002
 20
 1.36000000000000E+0002
 40
 1.50000000000000E+0001
 50
 9.00000000000000E+0001
 51
 1.80000000000000E+0002
  0
LINE
  8
0
 10
 2.37000000000000E+0002
 20
 1.51000000000000E+0002
 11
 2.46000000000000E+0002
 21
 1.51000000000000E+0002
  0
LINE
  8
0
 10
 2.46000000000000E+0002
 20
 1.51000000000000E+0002
 11
 2.46000000000000E+0002
 21
 1.39750000000000E+0002
  0
LINE
  8
0
 10
 2.46000000000000E+0002
 20
 1.39750000000000E+0002
 11
 2.37750000000000E+0002
 21
 1.39750000000000E+0002
  0
ARC
  8
0
 10
 2.37750000000000E+0002
 20
 1.36000000000000E+0002
 40
 3.75000000000000E+0000
 50
 9.00000000000000E+0001
 51
 1.80000000000000E+0002
  0
LINE
  8
0
 10
 2.34000000000000E+0002
 20
 1.36000000000000E+0002
 11
 2.34000000000000E+0002
 21
 1.27000000000000E+0002
  0
LINE
  8
0
 10
 2.34000000000000E+0002
 20
 1.27000000000000E+0002
 11
 2.46000000000000E+0002
 21
 1.27000000000000E+0002
  0
LINE
  8
0
 10
 2.46000000000000E+0002
 20
 1.27000000000000E+0002
 11
 2.46000000000000E+0002
 21
 1.17250000000000E+0002
  0
LINE
  8
0
 10
 2.46000000000000E+0002
 20
 1.17250000000000E+0002
 11
 2.34000000000000E+0002
 21
 1.17250000000000E+0002
  0
LINE
  8
0
 10
 2.34000000000000E+0002
 20
 1.17250000000000E+0002
 11
 2.34000000000000E+0002
 21
 6.70000000000000E+0001
  0
LINE
  8
0
 10
 2.34000000000000E+0002
 20
 6.70000000000000E+0001
 11
 2.22000000000000E+0002
 21
 6.70000000000000E+0001
  0
LINE
  8
0
 10
 2.59500000000000E+0002
 20
 6.70000000000000E+0001
 11
 2.59500000000000E+0002
 21
 1.27000000000000E+0002
  0
LINE
  8
0
 10
 2.59500000000000E+0002
 20
 1.27000000000000E+0002
 11
 2.71500000000000E+0002
 21
 1.27000000000000E+0002
  0
LINE
  8
0
 10
 2.71500000000000E+0002
 20
 1.27000000000000E+0002
 11
 2.71499999718103E+0002
 21
 1.20227921712528E+0002
  0
ARC
  8
0
 10
 2.87250000000000E+0002
 20
 1.07500000000000E+0002
 40
 2.02500000000000E+0001
 50
 5.09772000000000E+0001
 51
 1.41057560000000E+0002
  0
LINE
  8
0
 10
 2.99999999295645E+0002
 20
 1.23232133293392E+0002
 11
 2.91476585525679E+0002
 21
 1.12715159415845E+0002
  0
ARC
  8
0
 10
 2.83500000000000E+0002
 20
 1.03750000000000E+0002
 40
 1.20000000000000E+0001
 50
 4.83395000000000E+0001
 51
 1.80000000000000E+0002
  0
LINE
  8
0
 10
 2.71500000000000E+0002
 20
 1.03750000000000E+0002
 11
 2.71500000000000E+0002
 21
 6.70000000000000E+0001
  0
LINE
  8
0
 10
 2.71500000000000E+0002
 20
 6.70000000000000E+0001
 11
 2.59500000000000E+0002
 21
 6.70000000000000E+0001
  0
LINE
  8
0
 10
 3.55500000000011E+0002
 20
 9.25000000000000E+0001
 11
 3.18000000000011E+0002
 21
 9.25000000000000E+0001
  0
LINE
  8
0
 10
 3.18000000000011E+0002
 20
 9.25000000000000E+0001
 11
 3.18000000000011E+0002
 21
 9.10000000000000E+0001
  0
ARC
  8
0
 10
 3.30750000000011E+0002
 20
 9.10000000000000E+0001
 40
 1.27500000000000E+0001
 50
 1.80000000000000E+0002
 51
 2.48198600000000E+0002
  0
LINE
  8
0
 10
 3.26014770836504E+0002
 20
 7.91619214072100E+0001
 11
 3.26014761654662E+0002
 21
 7.91618966520399E+0001
  0
ARC
  8
0
 10
 3.32250000000011E+0002
 20
 9.47500000000000E+0001
 40
 1.67889000000000E+0001
 50
 2.48198600000000E+0002
 51
 3.19360800000000E+0002
  0
LINE
  8
0
 10
 3.44989851985943E+0002
 20
 8.38154979726305E+0001
 11
 3.54095762666880E+0002
 21
 7.59999755543401E+0001
  0
ARC
  8
0
 10
 3.32250000000011E+0002
 20
 9.47500000000000E+0001
 40
 2.87889000000000E+0001
 50
 2.48198600000000E+0002
 51
 3.19360800000000E+0002
  0
LINE
  8
0
 10
 3.21558075383126E+0002
 20
 6.80201756235317E+0001
 11
 3.21558084564968E+0002
 21
 6.80202003787018E+0001
  0
ARC
  8
0
 10
 3.30750000000011E+0002
 20
 9.10000000000000E+0001
 40
 2.47500000000000E+0001
 50
 1.80000000000000E+0002
 51
 2.48198600000000E+0002
  0
LINE
  8
0
 10
 3.06000000000011E+0002
 20
 9.10000000000000E+0001
 11
 3.06000000000011E+0002
 21
 1.03000000000000E+0002
  0
ARC
  8
0
 10
 3.30750000000011E+0002
 20
 1.03000000000000E+0002
 40
 2.47500000000000E+0001
 50
 0.00000000000000E+0000
 51
 1.80000000000000E+0002
  0
LINE
  8
0
 10
 3.55500000000011E+0002
 20
 1.03000000000000E+0002
 11
 3.55500000000011E+0002
 21
 9.25000000000000E+0001
  0
ARC
  8
0
 10
 3.30750000000011E+0002
 20
 1.03000000000000E+0002
 40
 1.27500000000000E+0001
 50
 0.00000000000000E+0000
 51
 1.80000000000000E+0002
  0
LINE
  8
0
 10
 3.43500000000011E+0002
 20
 1.03000000000000E+0002
 11
 3.18000000000011E+0002
 21
 1.03000000000000E+0002
  0
LINE
  8
0
 10
 3.72000000000000E+0002
 20
 6.70000000000000E+0001
 11
 3.72000000000000E+0002
 21
 1.27000000000000E+0002
  0
LINE
  8
0
 10
 3.72000000000000E+0002
 20
 1.27000000000000E+0002
 11
 3.84000000000000E+0002
 21
 1.27000000000000E+0002
  0
LINE
  8
0
 10
 3.84000000000000E+0002
 20
 1.27000000000000E+0002
 11
 3.84000000000000E+0002
 21
 6.70000000000000E+0001
  0
LINE
  8
0
 10
 3.84000000000000E+0002
 20
 6.70000000000000E+0001
 11
 3.72000000000000E+0002
 21
 6.70000000000000E+0001
  0
LINE
  8
0
 10
 3.72000000000000E+0002
 20
 1.39000000000000E+0002
 11
 3.72000000000000E+0002
 21
 1.51000000000000E+0002
  0
LINE
  8
0
 10
 3.72000000000000E+0002
 20
 1.51000000000000E+0002
 11
 3.84000000000000E+0002
 21
 1.51000000000000E+0002
  0
LINE
  8
0
 10
 3.84000000000000E+0002
 20
 1.51000000000000E+0002
 11
 3.84000000000000E+0002
 21
 1.39000000000000E+0002
  0
LINE
  8
0
 10
 3.84000000000000E+0002
 20
 1.39000000000000E+0002
 11
 3.72000000000000E+0002
 21
 1.39000000000000E+0002
  0
ENDSEC
  0
EOF
