  0
SECTION
  2
HEADER
  9
$ACADVER
  1
AC1003
  9
$INSBASE
 10
0.0
 20
0.0
  9
$EXTMIN
 10
-2.76794900000000E+0002
 20
 1.00000000000000E+0002
  9
$EXTMAX
 10
 2.76794900000000E+0002
 20
 4.90000000000000E+0002
  9
$LIMMIN
 10
0.0
 20
0.0
  9
$LIMMAX
 10
410.0
 20
287.0
  9
$VIEWCTR
 10
227.0059616
 20
165.058879 
  9
$VIEWSIZE
 40
 5.53589800000000E+0002
9
$SNAPMODE
70
0
9
$SNAPUNIT
10
1
20
1
9
$GRIDMODE
70
0
9
$GRIDUNIT
10
1
20
1
9
$ORTHOMODE
70
0
9
$rEGENMODE
70
1
9
$FILLMODE
70
1
9
$DRAGMODE
70
2
9
$LTSCALE
40
25.0
9
$OSMODE
70
0
9
$ATTMODE
70
1
9
$TRACEWID
40
1.0
9
$TEXTSTYLE
7
STANDARD
9
$CLAYER
8
0
9
$CELTYPE
6
VONLAYER
9
$CECOLOR
62
256
9
$LUNITS
70
2
9
$LUPREC
70
2
9
$AXISMODE
70
0
9
$AXISUNIT
10
0
20
0
9
$SKETCHINC
40
1.0
9
$FILLETRAD
40
0.0
9
$AUNITS
70
0
9
$AUPREC
70
0
9
$MENU
1
ACAD
9
$ELEVATION
40
0.0
9
$THICKNESS
40
0.0
9
$VIEWDIR
10
0.0
20
0.0
30
1.0
9
$LIMCHECK
70
0
9
$BLIPMODE
70
1
9
$CHAMFERA
40
0.0
9
$CHAMFERB
40
0.0
9
$USRTIMER
70
1
9
$ANGBASE
50
0.0
9
$ANGDIR
70
0
9
$PDMODE
70
0
9
$PDSIZE
40
0.0
9
$PLINEWID
40
0.0
9
$COORDS
70
0
0
ENDSEC
0
SECTION
2
TABLES
0
TABLE
2
LTYPE
70
1
0
LTYPE
2
AUSGEZOGEN
70
64
3
Ausgezogene Linie
72
65
73
0
40
0.0
0
ENDTAB
0
TABLE
2
LAYER
70
1
0
LAYER
2
0
70
0
62
7
6
AUSGEZOGEN
0
ENDTAB
0
TABLE
2
STYLE
70
1
0
STYLE
2
STANDARD
70
0
40
0.0
41
1.0
50
0.0
71
0
42
3.5
3
txt
4

0
ENDTAB
0
TABLE
2
VIEW
70
0
0
ENDTAB
0
ENDSEC
0
SECTION
2
BLOCKS
0
ENDSEC
0
SECTION
2
ENTITIES
  0
LINE
  8
0
 10
-2.76794900000000E+0002
 20
 1.00000000000000E+0002
 11
 2.76794900000000E+0002
 21
 1.00000000000000E+0002
  0
LINE
  8
0
 10
 2.76794900000000E+0002
 20
 1.00000000000000E+0002
 11
 7.50000000000000E+0001
 21
 4.49519000000000E+0002
  0
LINE
  8
0
 10
 7.50000000000000E+0001
 20
 4.49519000000000E+0002
 11
 2.50000000000000E+0001
 21
 4.25000000000000E+0002
  0
LINE
  8
0
 10
 2.50000000000000E+0001
 20
 4.25000000000000E+0002
 11
 1.50000000000000E+0001
 21
 3.55000000000000E+0002
  0
LINE
  8
0
 10
 1.50000000000000E+0001
 20
 3.55000000000000E+0002
 11
 2.50000000000000E+0001
 21
 3.40000000000000E+0002
  0
LINE
  8
0
 10
 2.50000000000000E+0001
 20
 3.40000000000000E+0002
 11
 1.00000000000000E+0001
 21
 3.30000000000000E+0002
  0
LINE
  8
0
 10
 1.00000000000000E+0001
 20
 3.30000000000000E+0002
 11
 2.00000000000000E+0001
 21
 2.30000000000000E+0002
  0
LINE
  8
0
 10
 2.00000000000000E+0001
 20
 2.30000000000000E+0002
 11
 7.50000000000000E+0000
 21
 2.20000000000000E+0002
  0
LINE
  8
0
 10
 7.50000000000000E+0000
 20
 2.20000000000000E+0002
 11
-1.00000000000000E+0001
 21
 1.25000000000000E+0002
  0
LINE
  8
0
 10
-1.00000000000000E+0001
 20
 1.25000000000000E+0002
 11
-1.05000000000000E+0002
 21
 1.25000000000000E+0002
  0
LINE
  8
0
 10
-1.05000000000000E+0002
 20
 1.25000000000000E+0002
 11
-6.50000000000000E+0001
 21
 1.45000000000000E+0002
  0
LINE
  8
0
 10
-6.50000000000000E+0001
 20
 1.45000000000000E+0002
 11
-6.25000000000000E+0001
 21
 1.75000000000000E+0002
  0
LINE
  8
0
 10
-6.25000000000000E+0001
 20
 1.75000000000000E+0002
 11
-8.50000000000000E+0001
 21
 1.95000000000000E+0002
  0
LINE
  8
0
 10
-8.50000000000000E+0001
 20
 1.95000000000000E+0002
 11
-1.20000000000000E+0002
 21
 2.07500000000000E+0002
  0
LINE
  8
0
 10
-1.20000000000000E+0002
 20
 2.07500000000000E+0002
 11
-1.35000000000000E+0002
 21
 2.00000000000000E+0002
  0
LINE
  8
0
 10
-1.35000000000000E+0002
 20
 2.00000000000000E+0002
 11
-1.55000000000000E+0002
 21
 2.02500000000000E+0002
  0
LINE
  8
0
 10
-1.55000000000000E+0002
 20
 2.02500000000000E+0002
 11
-1.90000000000000E+0002
 21
 1.65000000000000E+0002
  0
LINE
  8
0
 10
-1.90000000000000E+0002
 20
 1.65000000000000E+0002
 11
-1.75000000000000E+0002
 21
 1.37500000000000E+0002
  0
LINE
  8
0
 10
-1.75000000000000E+0002
 20
 1.37500000000000E+0002
 11
-1.60000000000000E+0002
 21
 1.37500000000000E+0002
  0
LINE
  8
0
 10
-1.60000000000000E+0002
 20
 1.37500000000000E+0002
 11
-1.47500000000000E+0002
 21
 1.25000000000000E+0002
  0
LINE
  8
0
 10
-1.47500000000000E+0002
 20
 1.25000000000000E+0002
 11
-2.62361100000000E+0002
 21
 1.25000000000000E+0002
  0
LINE
  8
0
 10
-2.62361100000000E+0002
 20
 1.25000000000000E+0002
 11
-2.76794900000000E+0002
 21
 1.00000000000000E+0002
  0
LINE
  8
0
 10
-1.17500000000000E+0002
 20
 2.32500000000000E+0002
 11
-9.00000000000000E+0001
 21
 2.50000000000000E+0002
  0
LINE
  8
0
 10
-9.00000000000000E+0001
 20
 2.50000000000000E+0002
 11
-8.25000000000000E+0001
 21
 2.75000000000000E+0002
  0
LINE
  8
0
 10
-8.25000000000000E+0001
 20
 2.75000000000000E+0002
 11
-1.00000000000000E+0002
 21
 2.92500000000000E+0002
  0
LINE
  8
0
 10
-1.00000000000000E+0002
 20
 2.92500000000000E+0002
 11
-1.10000000000000E+0002
 21
 2.85000000000000E+0002
  0
LINE
  8
0
 10
-1.10000000000000E+0002
 20
 2.85000000000000E+0002
 11
-1.20000000000000E+0002
 21
 2.92500000000000E+0002
  0
LINE
  8
0
 10
-1.20000000000000E+0002
 20
 2.92500000000000E+0002
 11
-1.45000000000000E+0002
 21
 2.72500000000000E+0002
  0
LINE
  8
0
 10
-1.45000000000000E+0002
 20
 2.72500000000000E+0002
 11
-1.42500000000000E+0002
 21
 2.57500000000000E+0002
  0
LINE
  8
0
 10
-1.42500000000000E+0002
 20
 2.57500000000000E+0002
 11
-1.40000000000000E+0002
 21
 2.40000000000000E+0002
  0
LINE
  8
0
 10
-1.40000000000000E+0002
 20
 2.40000000000000E+0002
 11
-1.17500000000000E+0002
 21
 2.32500000000000E+0002
  0
LINE
  8
0
 10
-2.50000000000000E+0001
 20
 3.40000000000000E+0002
 11
-2.50000000000000E+0001
 21
 3.17500000000000E+0002
  0
LINE
  8
0
 10
-2.50000000000000E+0001
 20
 3.17500000000000E+0002
 11
-1.87500000000000E+0001
 21
 3.10000000000000E+0002
  0
LINE
  8
0
 10
-1.87500000000000E+0001
 20
 3.10000000000000E+0002
 11
-4.00000000000000E+0001
 21
 2.85000000000000E+0002
  0
LINE
  8
0
 10
-4.00000000000000E+0001
 20
 2.85000000000000E+0002
 11
-5.00000000000000E+0001
 21
 2.85000000000000E+0002
  0
LINE
  8
0
 10
-5.00000000000000E+0001
 20
 2.85000000000000E+0002
 11
-6.00000000000000E+0001
 21
 2.70000000000000E+0002
  0
LINE
  8
0
 10
-6.00000000000000E+0001
 20
 2.70000000000000E+0002
 11
-8.00000000000000E+0001
 21
 2.87500000000000E+0002
  0
LINE
  8
0
 10
-8.00000000000000E+0001
 20
 2.87500000000000E+0002
 11
-7.75000000000000E+0001
 21
 3.20000000000000E+0002
  0
LINE
  8
0
 10
-7.75000000000000E+0001
 20
 3.20000000000000E+0002
 11
-4.75000000000000E+0001
 21
 3.45000000000000E+0002
  0
LINE
  8
0
 10
-4.75000000000000E+0001
 20
 3.45000000000000E+0002
 11
-2.50000000000000E+0001
 21
 3.40000000000000E+0002
  0
LINE
  8
0
 10
 1.75000000000000E+0001
 20
 4.27500000000000E+0002
 11
 5.00000000000000E+0001
 21
 4.67500000000000E+0002
  0
LINE
  8
0
 10
 5.00000000000000E+0001
 20
 4.67500000000000E+0002
 11
 3.50000000000000E+0001
 21
 4.80000000000000E+0002
  0
LINE
  8
0
 10
 3.50000000000000E+0001
 20
 4.80000000000000E+0002
 11
 3.00000000000000E+0001
 21
 4.77500000000000E+0002
  0
LINE
  8
0
 10
 3.00000000000000E+0001
 20
 4.77500000000000E+0002
 11
 1.00000000000000E+0001
 21
 4.90000000000000E+0002
  0
LINE
  8
0
 10
 1.00000000000000E+0001
 20
 4.90000000000000E+0002
 11
-3.00000000000000E+0001
 21
 4.82500000000000E+0002
  0
LINE
  8
0
 10
-3.00000000000000E+0001
 20
 4.82500000000000E+0002
 11
-3.25000000000000E+0001
 21
 4.65000000000000E+0002
  0
LINE
  8
0
 10
-3.25000000000000E+0001
 20
 4.65000000000000E+0002
 11
-5.00000000000000E+0001
 21
 4.52500000000000E+0002
  0
LINE
  8
0
 10
-5.00000000000000E+0001
 20
 4.52500000000000E+0002
 11
-3.50000000000000E+0001
 21
 4.22500000000000E+0002
  0
LINE
  8
0
 10
-3.50000000000000E+0001
 20
 4.22500000000000E+0002
 11
 1.75000000000000E+0001
 21
 4.27500000000000E+0002
  0
ENDSEC
  0
EOF
