  0
SECTION
  2
HEADER
  9
$ACADVER
  1
AC1003
  9
$INSBASE
 10
0.0
 20
0.0
  9
$EXTMIN
 10
 0.00000000000000E+0000
 20
 0.00000000000000E+0000
  9
$EXTMAX
 10
 6.00000000000000E+0002
 20
 3.30000000000000E+0002
  9
$LIMMIN
 10
0.0
 20
0.0
  9
$LIMMAX
 10
410.0
 20
287.0
  9
$VIEWCTR
 10
227.0059616
 20
165.058879 
  9
$VIEWSIZE
 40
 6.00000000000000E+0002
9
$SNAPMODE
70
0
9
$SNAPUNIT
10
1
20
1
9
$GRIDMODE
70
0
9
$GRIDUNIT
10
1
20
1
9
$ORTHOMODE
70
0
9
$rEGENMODE
70
1
9
$FILLMODE
70
1
9
$DRAGMODE
70
2
9
$LTSCALE
40
25.0
9
$OSMODE
70
0
9
$ATTMODE
70
1
9
$TRACEWID
40
1.0
9
$TEXTSTYLE
7
STANDARD
9
$CLAYER
8
0
9
$CELTYPE
6
VONLAYER
9
$CECOLOR
62
256
9
$LUNITS
70
2
9
$LUPREC
70
2
9
$AXISMODE
70
0
9
$AXISUNIT
10
0
20
0
9
$SKETCHINC
40
1.0
9
$FILLETRAD
40
0.0
9
$AUNITS
70
0
9
$AUPREC
70
0
9
$MENU
1
ACAD
9
$ELEVATION
40
0.0
9
$THICKNESS
40
0.0
9
$VIEWDIR
10
0.0
20
0.0
30
1.0
9
$LIMCHECK
70
0
9
$BLIPMODE
70
1
9
$CHAMFERA
40
0.0
9
$CHAMFERB
40
0.0
9
$USRTIMER
70
1
9
$ANGBASE
50
0.0
9
$ANGDIR
70
0
9
$PDMODE
70
0
9
$PDSIZE
40
0.0
9
$PLINEWID
40
0.0
9
$COORDS
70
0
0
ENDSEC
0
SECTION
2
TABLES
0
TABLE
2
LTYPE
70
1
0
LTYPE
2
AUSGEZOGEN
70
64
3
Ausgezogene Linie
72
65
73
0
40
0.0
0
ENDTAB
0
TABLE
2
LAYER
70
1
0
LAYER
2
0
70
0
62
7
6
AUSGEZOGEN
0
ENDTAB
0
TABLE
2
STYLE
70
1
0
STYLE
2
STANDARD
70
0
40
0.0
41
1.0
50
0.0
71
0
42
3.5
3
txt
4

0
ENDTAB
0
TABLE
2
VIEW
70
0
0
ENDTAB
0
ENDSEC
0
SECTION
2
BLOCKS
0
ENDSEC
0
SECTION
2
ENTITIES
  0
ARC
  8
0
 10
 4.00000000000000E+0001
 20
 4.00000000000000E+0001
 40
 4.00000000000000E+0001
 50
 1.80000000000000E+0002
 51
 2.70000000000000E+0002
  0
LINE
  8
0
 10
 0.00000000000000E+0000
 20
 4.00000000000000E+0001
 11
 0.00000000000000E+0000
 21
 2.90000000000000E+0002
  0
ARC
  8
0
 10
 4.00000000000000E+0001
 20
 2.90000000000000E+0002
 40
 4.00000000000000E+0001
 50
 9.00000000000000E+0001
 51
 1.80000000000000E+0002
  0
LINE
  8
0
 10
 4.00000000000000E+0001
 20
 3.30000000000000E+0002
 11
 5.60000000000000E+0002
 21
 3.30000000000000E+0002
  0
ARC
  8
0
 10
 5.60000000000000E+0002
 20
 2.90000000000000E+0002
 40
 4.00000000000000E+0001
 50
 0.00000000000000E+0000
 51
 9.00000000000000E+0001
  0
LINE
  8
0
 10
 6.00000000000000E+0002
 20
 2.90000000000000E+0002
 11
 6.00000000000000E+0002
 21
 4.00000000000000E+0001
  0
ARC
  8
0
 10
 5.60000000000000E+0002
 20
 4.00000000000000E+0001
 40
 4.00000000000000E+0001
 50
 2.70000000000000E+0002
 51
 3.60000000000000E+0002
  0
LINE
  8
0
 10
 5.60000000000000E+0002
 20
 0.00000000000000E+0000
 11
 4.00000000000000E+0001
 21
 0.00000000000000E+0000
  0
ARC
  8
0
 10
 4.00000000000000E+0001
 20
 4.00000000000000E+0001
 40
 3.00000000000000E+0001
 50
 1.80000000000000E+0002
 51
 2.70000000000000E+0002
  0
LINE
  8
0
 10
 1.00000000000000E+0001
 20
 4.00000000000000E+0001
 11
 1.00000000000000E+0001
 21
 2.90000000000000E+0002
  0
ARC
  8
0
 10
 4.00000000000000E+0001
 20
 2.90000000000000E+0002
 40
 3.00000000000000E+0001
 50
 9.00000000000000E+0001
 51
 1.80000000000000E+0002
  0
LINE
  8
0
 10
 4.00000000000000E+0001
 20
 3.20000000000000E+0002
 11
 5.60000000000000E+0002
 21
 3.20000000000000E+0002
  0
ARC
  8
0
 10
 5.60000000000000E+0002
 20
 2.90000000000000E+0002
 40
 3.00000000000000E+0001
 50
 0.00000000000000E+0000
 51
 9.00000000000000E+0001
  0
LINE
  8
0
 10
 5.90000000000000E+0002
 20
 2.90000000000000E+0002
 11
 5.90000000000000E+0002
 21
 4.00000000000000E+0001
  0
ARC
  8
0
 10
 5.60000000000000E+0002
 20
 4.00000000000000E+0001
 40
 3.00000000000000E+0001
 50
 2.70000000000000E+0002
 51
 3.60000000000000E+0002
  0
LINE
  8
0
 10
 5.60000000000000E+0002
 20
 1.00000000000000E+0001
 11
 4.00000000000000E+0001
 21
 1.00000000000000E+0001
  0
ARC
  8
0
 10
 4.00000000000000E+0001
 20
 4.00000000000000E+0001
 40
 1.50000000000000E+0001
 50
 1.80000000000000E+0002
 51
 2.70000000000000E+0002
  0
LINE
  8
0
 10
 2.50000000000000E+0001
 20
 4.00000000000000E+0001
 11
 2.50000000000000E+0001
 21
 2.90000000000000E+0002
  0
ARC
  8
0
 10
 4.00000000000000E+0001
 20
 2.90000000000000E+0002
 40
 1.50000000000000E+0001
 50
 9.00000000000000E+0001
 51
 1.80000000000000E+0002
  0
LINE
  8
0
 10
 4.00000000000000E+0001
 20
 3.05000000000000E+0002
 11
 5.60000000000000E+0002
 21
 3.05000000000000E+0002
  0
ARC
  8
0
 10
 5.60000000000000E+0002
 20
 2.90000000000000E+0002
 40
 1.50000000000000E+0001
 50
 0.00000000000000E+0000
 51
 9.00000000000000E+0001
  0
LINE
  8
0
 10
 5.75000000000000E+0002
 20
 2.90000000000000E+0002
 11
 5.75000000000000E+0002
 21
 4.00000000000000E+0001
  0
ARC
  8
0
 10
 5.60000000000000E+0002
 20
 4.00000000000000E+0001
 40
 1.50000000000000E+0001
 50
 2.70000000000000E+0002
 51
 3.60000000000000E+0002
  0
LINE
  8
0
 10
 5.60000000000000E+0002
 20
 2.50000000000000E+0001
 11
 4.00000000000000E+0001
 21
 2.50000000000000E+0001
  0
LINE
  8
0
 10
 3.97500000000000E+0001
 20
 1.47000000000000E+0002
 11
 5.17500000000000E+0001
 21
 1.47000000000000E+0002
  0
LINE
  8
0
 10
 5.17500000000000E+0001
 20
 1.47000000000000E+0002
 11
 5.17500000000000E+0001
 21
 1.42500000000000E+0002
  0
ARC
  8
0
 10
 6.00000000000000E+0001
 20
 1.42500000000000E+0002
 40
 8.25000000000000E+0000
 50
 1.80000000000000E+0002
 51
 2.70000000000000E+0002
  0
LINE
  8
0
 10
 6.00000000000000E+0001
 20
 1.34250000000000E+0002
 11
 6.07500000000000E+0001
 21
 1.34250000000000E+0002
  0
ARC
  8
0
 10
 6.07500000000000E+0001
 20
 1.42500000000000E+0002
 40
 8.25000000000000E+0000
 50
 2.70000000000000E+0002
 51
 3.60000000000000E+0002
  0
LINE
  8
0
 10
 6.90000000000000E+0001
 20
 1.42500000000000E+0002
 11
 6.90000000000000E+0001
 21
 1.51500000000000E+0002
  0
ARC
  8
0
 10
 6.07500000000000E+0001
 20
 1.51500000000000E+0002
 40
 8.25000000000000E+0000
 50
 0.00000000000000E+0000
 51
 6.79458000000000E+0001
  0
LINE
  8
0
 10
 6.38477389769171E+0001
 20
 1.59146339858448E+0002
 11
 5.31464588748398E+0001
 21
 1.63481711256537E+0002
  0
ARC
  8
0
 10
 6.07500000000000E+0001
 20
 1.82250000000000E+0002
 40
 2.02500000000000E+0001
 50
 1.80000000000000E+0002
 51
 2.47945800000000E+0002
  0
LINE
  8
0
 10
 4.05000000000000E+0001
 20
 1.82250000000000E+0002
 11
 4.05000000000000E+0001
 21
 1.87500000000000E+0002
  0
ARC
  8
0
 10
 6.07500000000000E+0001
 20
 1.87500000000000E+0002
 40
 2.02500000000000E+0001
 50
 0.00000000000000E+0000
 51
 1.80000000000000E+0002
  0
LINE
  8
0
 10
 8.10000000000000E+0001
 20
 1.87500000000000E+0002
 11
 8.10000000000000E+0001
 21
 1.83000000000000E+0002
  0
LINE
  8
0
 10
 8.10000000000000E+0001
 20
 1.83000000000000E+0002
 11
 6.90000000000000E+0001
 21
 1.83000000000000E+0002
  0
LINE
  8
0
 10
 6.90000000000000E+0001
 20
 1.83000000000000E+0002
 11
 6.90000000000000E+0001
 21
 1.87500000000000E+0002
  0
ARC
  8
0
 10
 6.07500000000000E+0001
 20
 1.87500000000000E+0002
 40
 8.25000000000000E+0000
 50
 0.00000000000000E+0000
 51
 1.80000000000000E+0002
  0
LINE
  8
0
 10
 5.25000000000000E+0001
 20
 1.87500000000000E+0002
 11
 5.25000000000000E+0001
 21
 1.82250000000000E+0002
  0
ARC
  8
0
 10
 6.07500000000000E+0001
 20
 1.82250000000000E+0002
 40
 8.25000000000000E+0000
 50
 1.80000000000000E+0002
 51
 2.47945800000000E+0002
  0
LINE
  8
0
 10
 5.76522610230829E+0001
 20
 1.74603660141552E+0002
 11
 6.83535411251602E+0001
 21
 1.70268288743463E+0002
  0
ARC
  8
0
 10
 6.07500000000000E+0001
 20
 1.51500000000000E+0002
 40
 2.02500000000000E+0001
 50
 0.00000000000000E+0000
 51
 6.79458000000000E+0001
  0
LINE
  8
0
 10
 8.10000000000000E+0001
 20
 1.51500000000000E+0002
 11
 8.10000000000000E+0001
 21
 1.42500000000000E+0002
  0
ARC
  8
0
 10
 6.07500000000000E+0001
 20
 1.42500000000000E+0002
 40
 2.02500000000000E+0001
 50
 2.70000000000000E+0002
 51
 3.60000000000000E+0002
  0
LINE
  8
0
 10
 6.07500000000000E+0001
 20
 1.22250000000000E+0002
 11
 6.00000000000000E+0001
 21
 1.22250000000000E+0002
  0
ARC
  8
0
 10
 6.00000000000000E+0001
 20
 1.42500000000000E+0002
 40
 2.02500000000000E+0001
 50
 1.80000000000000E+0002
 51
 2.70000000000000E+0002
  0
LINE
  8
0
 10
 3.97500000000000E+0001
 20
 1.42500000000000E+0002
 11
 3.97500000000000E+0001
 21
 1.47000000000000E+0002
  0
ARC
  8
0
 10
 1.08000000000000E+0002
 20
 1.40250000000000E+0002
 40
 1.80000000000000E+0001
 50
 1.80000000000000E+0002
 51
 3.60000000000000E+0002
  0
LINE
  8
0
 10
 9.00000000000000E+0001
 20
 1.40250000000000E+0002
 11
 9.00000000000000E+0001
 21
 1.65750000000000E+0002
  0
ARC
  8
0
 10
 1.08000000000000E+0002
 20
 1.65750000000000E+0002
 40
 1.80000000000000E+0001
 50
 0.00000000000000E+0000
 51
 1.80000000000000E+0002
  0
LINE
  8
0
 10
 1.26000000000000E+0002
 20
 1.65750000000000E+0002
 11
 1.26000000000000E+0002
 21
 1.48500000000000E+0002
  0
LINE
  8
0
 10
 1.26000000000000E+0002
 20
 1.48500000000000E+0002
 11
 1.02000000000000E+0002
 21
 1.48500000000000E+0002
  0
LINE
  8
0
 10
 1.02000000000000E+0002
 20
 1.48500000000000E+0002
 11
 1.02000000000000E+0002
 21
 1.40250000000000E+0002
  0
ARC
  8
0
 10
 1.08000000000000E+0002
 20
 1.40250000000000E+0002
 40
 6.00000000000000E+0000
 50
 1.80000000000000E+0002
 51
 3.60000000000000E+0002
  0
LINE
  8
0
 10
 1.14000000000000E+0002
 20
 1.40250000000000E+0002
 11
 1.26000000000000E+0002
 21
 1.40250000000000E+0002
  0
LINE
  8
0
 10
 1.02000000000000E+0002
 20
 1.58250000000000E+0002
 11
 1.02000000000000E+0002
 21
 1.65750000000000E+0002
  0
ARC
  8
0
 10
 1.08000000000000E+0002
 20
 1.65750000000000E+0002
 40
 6.00000000000000E+0000
 50
 0.00000000000000E+0000
 51
 1.80000000000000E+0002
  0
LINE
  8
0
 10
 1.14000000000000E+0002
 20
 1.65750000000000E+0002
 11
 1.14000000000000E+0002
 21
 1.58250000000000E+0002
  0
LINE
  8
0
 10
 1.14000000000000E+0002
 20
 1.58250000000000E+0002
 11
 1.02000000000000E+0002
 21
 1.58250000000000E+0002
  0
LINE
  8
0
 10
 1.36500000000022E+0002
 20
 1.23000000000000E+0002
 11
 1.36500000000022E+0002
 21
 1.83000000000000E+0002
  0
LINE
  8
0
 10
 1.36500000000022E+0002
 20
 1.83000000000000E+0002
 11
 1.48500000000022E+0002
 21
 1.83000000000000E+0002
  0
LINE
  8
0
 10
 1.48500000000022E+0002
 20
 1.83000000000000E+0002
 11
 1.48500000320899E+0002
 21
 1.77000000601644E+0002
  0
ARC
  8
0
 10
 1.59750000000022E+0002
 20
 1.71000000000000E+0002
 40
 1.27500000000000E+0001
 50
 0.00000000000000E+0000
 51
 1.51927510000000E+0002
  0
LINE
  8
0
 10
 1.72500000000022E+0002
 20
 1.71000000000000E+0002
 11
 1.72500000000022E+0002
 21
 1.23000000000000E+0002
  0
LINE
  8
0
 10
 1.72500000000022E+0002
 20
 1.23000000000000E+0002
 11
 1.60500000000022E+0002
 21
 1.23000000000000E+0002
  0
LINE
  8
0
 10
 1.60500000000022E+0002
 20
 1.23000000000000E+0002
 11
 1.60500000000022E+0002
 21
 1.65750000000000E+0002
  0
ARC
  8
0
 10
 1.54500000000022E+0002
 20
 1.65750000000000E+0002
 40
 6.00000000000000E+0000
 50
 0.00000000000000E+0000
 51
 1.80000000000000E+0002
  0
LINE
  8
0
 10
 1.48500000000022E+0002
 20
 1.65750000000000E+0002
 11
 1.48500000000022E+0002
 21
 1.23000000000000E+0002
  0
LINE
  8
0
 10
 1.48500000000022E+0002
 20
 1.23000000000000E+0002
 11
 1.36500000000022E+0002
 21
 1.23000000000000E+0002
  0
LINE
  8
0
 10
 1.84500000000044E+0002
 20
 1.23000000000000E+0002
 11
 1.84500000000044E+0002
 21
 1.83000000000000E+0002
  0
LINE
  8
0
 10
 1.84500000000044E+0002
 20
 1.83000000000000E+0002
 11
 1.96500000000044E+0002
 21
 1.83000000000000E+0002
  0
LINE
  8
0
 10
 1.96500000000044E+0002
 20
 1.83000000000000E+0002
 11
 1.96500000000044E+0002
 21
 1.23000000000000E+0002
  0
LINE
  8
0
 10
 1.96500000000044E+0002
 20
 1.23000000000000E+0002
 11
 1.84500000000044E+0002
 21
 1.23000000000000E+0002
  0
LINE
  8
0
 10
 1.84500000000044E+0002
 20
 1.95000000000000E+0002
 11
 1.84500000000044E+0002
 21
 2.07000000000000E+0002
  0
LINE
  8
0
 10
 1.84500000000044E+0002
 20
 2.07000000000000E+0002
 11
 1.96500000000044E+0002
 21
 2.07000000000000E+0002
  0
LINE
  8
0
 10
 1.96500000000044E+0002
 20
 2.07000000000000E+0002
 11
 1.96500000000044E+0002
 21
 1.95000000000000E+0002
  0
LINE
  8
0
 10
 1.96500000000044E+0002
 20
 1.95000000000000E+0002
 11
 1.84500000000044E+0002
 21
 1.95000000000000E+0002
  0
LINE
  8
0
 10
 2.08500000000046E+0002
 20
 1.40250000000000E+0002
 11
 2.08500000000046E+0002
 21
 1.65750000000000E+0002
  0
ARC
  8
0
 10
 2.26500000000046E+0002
 20
 1.65750000000000E+0002
 40
 1.80000000000000E+0001
 50
 0.00000000000000E+0000
 51
 1.80000000000000E+0002
  0
LINE
  8
0
 10
 2.44500000000046E+0002
 20
 1.65750000000000E+0002
 11
 2.44500000000046E+0002
 21
 1.40250000000000E+0002
  0
ARC
  8
0
 10
 2.26500000000046E+0002
 20
 1.40250000000000E+0002
 40
 1.80000000000000E+0001
 50
 1.80000000000000E+0002
 51
 3.60000000000000E+0002
  0
LINE
  8
0
 10
 2.20500000000046E+0002
 20
 1.40250000000000E+0002
 11
 2.20500000000046E+0002
 21
 1.65750000000000E+0002
  0
ARC
  8
0
 10
 2.26500000000046E+0002
 20
 1.65750000000000E+0002
 40
 6.00000000000000E+0000
 50
 0.00000000000000E+0000
 51
 1.80000000000000E+0002
  0
LINE
  8
0
 10
 2.32500000000046E+0002
 20
 1.65750000000000E+0002
 11
 2.32500000000046E+0002
 21
 1.40250000000000E+0002
  0
ARC
  8
0
 10
 2.26500000000046E+0002
 20
 1.40250000000000E+0002
 40
 6.00000000000000E+0000
 50
 1.80000000000000E+0002
 51
 3.60000000000000E+0002
  0
LINE
  8
0
 10
 2.56500000000068E+0002
 20
 1.23000000000000E+0002
 11
 2.56500000000068E+0002
 21
 1.83000000000000E+0002
  0
LINE
  8
0
 10
 2.56500000000068E+0002
 20
 1.83000000000000E+0002
 11
 2.68500000000068E+0002
 21
 1.83000000000000E+0002
  0
LINE
  8
0
 10
 2.68500000000068E+0002
 20
 1.83000000000000E+0002
 11
 2.68499999718171E+0002
 21
 1.76227921712528E+0002
  0
ARC
  8
0
 10
 2.84250000000068E+0002
 20
 1.63500000000000E+0002
 40
 2.02500000000000E+0001
 50
 9.00000000000000E+0001
 51
 1.41057560000000E+0002
  0
LINE
  8
0
 10
 2.84250000000068E+0002
 20
 1.83750000000000E+0002
 11
 2.84250008581931E+0002
 21
 1.71149010291949E+0002
  0
ARC
  8
0
 10
 2.80500000000068E+0002
 20
 1.59750000000000E+0002
 40
 1.20000000000000E+0001
 50
 7.17900000000000E+0001
 51
 1.80000000000000E+0002
  0
LINE
  8
0
 10
 2.68500000000068E+0002
 20
 1.59750000000000E+0002
 11
 2.68500000000068E+0002
 21
 1.23000000000000E+0002
  0
LINE
  8
0
 10
 2.68500000000068E+0002
 20
 1.23000000000000E+0002
 11
 2.56500000000068E+0002
 21
 1.23000000000000E+0002
  0
ARC
  8
0
 10
 3.06750000000074E+0002
 20
 1.40250000000000E+0002
 40
 1.80000000000000E+0001
 50
 1.80000000000000E+0002
 51
 3.60000000000000E+0002
  0
LINE
  8
0
 10
 2.88750000000074E+0002
 20
 1.40250000000000E+0002
 11
 2.88750000000074E+0002
 21
 1.65750000000000E+0002
  0
ARC
  8
0
 10
 3.06750000000074E+0002
 20
 1.65750000000000E+0002
 40
 1.80000000000000E+0001
 50
 0.00000000000000E+0000
 51
 1.80000000000000E+0002
  0
LINE
  8
0
 10
 3.24750000000074E+0002
 20
 1.65750000000000E+0002
 11
 3.24750000000074E+0002
 21
 1.48500000000000E+0002
  0
LINE
  8
0
 10
 3.24750000000074E+0002
 20
 1.48500000000000E+0002
 11
 3.00750000000074E+0002
 21
 1.48500000000000E+0002
  0
LINE
  8
0
 10
 3.00750000000074E+0002
 20
 1.48500000000000E+0002
 11
 3.00750000000074E+0002
 21
 1.40250000000000E+0002
  0
ARC
  8
0
 10
 3.06750000000074E+0002
 20
 1.40250000000000E+0002
 40
 6.00000000000000E+0000
 50
 1.80000000000000E+0002
 51
 3.60000000000000E+0002
  0
LINE
  8
0
 10
 3.12750000000074E+0002
 20
 1.40250000000000E+0002
 11
 3.24750000000074E+0002
 21
 1.40250000000000E+0002
  0
LINE
  8
0
 10
 3.00750000000074E+0002
 20
 1.58250000000000E+0002
 11
 3.00750000000074E+0002
 21
 1.65750000000000E+0002
  0
ARC
  8
0
 10
 3.06750000000074E+0002
 20
 1.65750000000000E+0002
 40
 6.00000000000000E+0000
 50
 0.00000000000000E+0000
 51
 1.80000000000000E+0002
  0
LINE
  8
0
 10
 3.12750000000074E+0002
 20
 1.65750000000000E+0002
 11
 3.12750000000074E+0002
 21
 1.58250000000000E+0002
  0
LINE
  8
0
 10
 3.12750000000074E+0002
 20
 1.58250000000000E+0002
 11
 3.00750000000074E+0002
 21
 1.58250000000000E+0002
  0
LINE
  8
0
 10
 3.35250000000096E+0002
 20
 1.23000000000000E+0002
 11
 3.35250000000096E+0002
 21
 1.83000000000000E+0002
  0
LINE
  8
0
 10
 3.35250000000096E+0002
 20
 1.83000000000000E+0002
 11
 3.47250000000096E+0002
 21
 1.83000000000000E+0002
  0
LINE
  8
0
 10
 3.47250000000096E+0002
 20
 1.83000000000000E+0002
 11
 3.47250000320972E+0002
 21
 1.77000000601644E+0002
  0
ARC
  8
0
 10
 3.58500000000096E+0002
 20
 1.71000000000000E+0002
 40
 1.27500000000000E+0001
 50
 0.00000000000000E+0000
 51
 1.51927510000000E+0002
  0
LINE
  8
0
 10
 3.71250000000096E+0002
 20
 1.71000000000000E+0002
 11
 3.71250000000096E+0002
 21
 1.23000000000000E+0002
  0
LINE
  8
0
 10
 3.71250000000096E+0002
 20
 1.23000000000000E+0002
 11
 3.59250000000096E+0002
 21
 1.23000000000000E+0002
  0
LINE
  8
0
 10
 3.59250000000096E+0002
 20
 1.23000000000000E+0002
 11
 3.59250000000096E+0002
 21
 1.65750000000000E+0002
  0
ARC
  8
0
 10
 3.53250000000095E+0002
 20
 1.65750000000000E+0002
 40
 6.00000000000000E+0000
 50
 0.00000000000000E+0000
 51
 1.80000000000000E+0002
  0
LINE
  8
0
 10
 3.47250000000095E+0002
 20
 1.65750000000000E+0002
 11
 3.47250000000096E+0002
 21
 1.23000000000000E+0002
  0
LINE
  8
0
 10
 3.47250000000096E+0002
 20
 1.23000000000000E+0002
 11
 3.35250000000096E+0002
 21
 1.23000000000000E+0002
  0
LINE
  8
0
 10
 3.83250000000117E+0002
 20
 1.23000000000000E+0002
 11
 3.83250000000117E+0002
 21
 2.07000000000000E+0002
  0
LINE
  8
0
 10
 3.83250000000117E+0002
 20
 2.07000000000000E+0002
 11
 3.95250000000117E+0002
 21
 2.07000000000000E+0002
  0
LINE
  8
0
 10
 3.95250000000117E+0002
 20
 2.07000000000000E+0002
 11
 3.95250000320994E+0002
 21
 1.77000000601644E+0002
  0
ARC
  8
0
 10
 4.06500000000117E+0002
 20
 1.71000000000000E+0002
 40
 1.27500000000000E+0001
 50
 0.00000000000000E+0000
 51
 1.51927510000000E+0002
  0
LINE
  8
0
 10
 4.19250000000117E+0002
 20
 1.71000000000000E+0002
 11
 4.19250000000117E+0002
 21
 1.23000000000000E+0002
  0
LINE
  8
0
 10
 4.19250000000117E+0002
 20
 1.23000000000000E+0002
 11
 4.07250000000117E+0002
 21
 1.23000000000000E+0002
  0
LINE
  8
0
 10
 4.07250000000117E+0002
 20
 1.23000000000000E+0002
 11
 4.07250000000117E+0002
 21
 1.65750000000000E+0002
  0
ARC
  8
0
 10
 4.01250000000117E+0002
 20
 1.65750000000000E+0002
 40
 6.00000000000000E+0000
 50
 0.00000000000000E+0000
 51
 1.80000000000000E+0002
  0
LINE
  8
0
 10
 3.95250000000117E+0002
 20
 1.65750000000000E+0002
 11
 3.95250000000117E+0002
 21
 1.23000000000000E+0002
  0
LINE
  8
0
 10
 3.95250000000117E+0002
 20
 1.23000000000000E+0002
 11
 3.83250000000117E+0002
 21
 1.23000000000000E+0002
  0
ARC
  8
0
 10
 4.47750000000139E+0002
 20
 1.40250000000000E+0002
 40
 1.80000000000000E+0001
 50
 1.80000000000000E+0002
 51
 3.60000000000000E+0002
  0
LINE
  8
0
 10
 4.29750000000139E+0002
 20
 1.40250000000000E+0002
 11
 4.29750000000139E+0002
 21
 1.65750000000000E+0002
  0
ARC
  8
0
 10
 4.47750000000139E+0002
 20
 1.65750000000000E+0002
 40
 1.80000000000000E+0001
 50
 0.00000000000000E+0000
 51
 1.80000000000000E+0002
  0
LINE
  8
0
 10
 4.65750000000139E+0002
 20
 1.65750000000000E+0002
 11
 4.65750000000139E+0002
 21
 1.48500000000000E+0002
  0
LINE
  8
0
 10
 4.65750000000139E+0002
 20
 1.48500000000000E+0002
 11
 4.41750000000139E+0002
 21
 1.48500000000000E+0002
  0
LINE
  8
0
 10
 4.41750000000139E+0002
 20
 1.48500000000000E+0002
 11
 4.41750000000139E+0002
 21
 1.40250000000000E+0002
  0
ARC
  8
0
 10
 4.47750000000139E+0002
 20
 1.40250000000000E+0002
 40
 6.00000000000000E+0000
 50
 1.80000000000000E+0002
 51
 3.60000000000000E+0002
  0
LINE
  8
0
 10
 4.53750000000139E+0002
 20
 1.40250000000000E+0002
 11
 4.65750000000139E+0002
 21
 1.40250000000000E+0002
  0
LINE
  8
0
 10
 4.41750000000139E+0002
 20
 1.58250000000000E+0002
 11
 4.41750000000139E+0002
 21
 1.65750000000000E+0002
  0
ARC
  8
0
 10
 4.47750000000139E+0002
 20
 1.65750000000000E+0002
 40
 6.00000000000000E+0000
 50
 0.00000000000000E+0000
 51
 1.80000000000000E+0002
  0
LINE
  8
0
 10
 4.53750000000139E+0002
 20
 1.65750000000000E+0002
 11
 4.53750000000139E+0002
 21
 1.58250000000000E+0002
  0
LINE
  8
0
 10
 4.53750000000139E+0002
 20
 1.58250000000000E+0002
 11
 4.41750000000139E+0002
 21
 1.58250000000000E+0002
  0
LINE
  8
0
 10
 4.76250000000161E+0002
 20
 1.23000000000000E+0002
 11
 4.76250000000161E+0002
 21
 1.83000000000000E+0002
  0
LINE
  8
0
 10
 4.76250000000161E+0002
 20
 1.83000000000000E+0002
 11
 4.88250000000161E+0002
 21
 1.83000000000000E+0002
  0
LINE
  8
0
 10
 4.88250000000161E+0002
 20
 1.83000000000000E+0002
 11
 4.88250000000161E+0002
 21
 1.23000000000000E+0002
  0
LINE
  8
0
 10
 4.88250000000161E+0002
 20
 1.23000000000000E+0002
 11
 4.76250000000161E+0002
 21
 1.23000000000000E+0002
  0
LINE
  8
0
 10
 4.76250000000161E+0002
 20
 1.95000000000000E+0002
 11
 4.76250000000161E+0002
 21
 2.07000000000000E+0002
  0
LINE
  8
0
 10
 4.76250000000161E+0002
 20
 2.07000000000000E+0002
 11
 4.88250000000161E+0002
 21
 2.07000000000000E+0002
  0
LINE
  8
0
 10
 4.88250000000161E+0002
 20
 2.07000000000000E+0002
 11
 4.88250000000161E+0002
 21
 1.95000000000000E+0002
  0
LINE
  8
0
 10
 4.88250000000161E+0002
 20
 1.95000000000000E+0002
 11
 4.76250000000161E+0002
 21
 1.95000000000000E+0002
  0
LINE
  8
0
 10
 5.00250000000164E+0002
 20
 1.23000000000000E+0002
 11
 5.00250000000164E+0002
 21
 1.83000000000000E+0002
  0
LINE
  8
0
 10
 5.00250000000164E+0002
 20
 1.83000000000000E+0002
 11
 5.12250000000164E+0002
 21
 1.83000000000000E+0002
  0
LINE
  8
0
 10
 5.12250000000164E+0002
 20
 1.83000000000000E+0002
 11
 5.12250000321040E+0002
 21
 1.77000000601644E+0002
  0
ARC
  8
0
 10
 5.23500000000164E+0002
 20
 1.71000000000000E+0002
 40
 1.27500000000000E+0001
 50
 3.17091900000000E+0001
 51
 1.51927510000000E+0002
  0
LINE
  8
0
 10
 5.34346766892130E+0002
 20
 1.77701503412768E+0002
 11
 5.34346766223657E+0002
 21
 1.77701502456873E+0002
  0
ARC
  8
0
 10
 5.46000000000164E+0002
 20
 1.69500000000000E+0002
 40
 1.42500000000000E+0001
 50
 0.00000000000000E+0000
 51
 1.44862260000000E+0002
  0
LINE
  8
0
 10
 5.60250000000164E+0002
 20
 1.69500000000000E+0002
 11
 5.60250000000164E+0002
 21
 1.23000000000000E+0002
  0
LINE
  8
0
 10
 5.60250000000164E+0002
 20
 1.23000000000000E+0002
 11
 5.48250000000164E+0002
 21
 1.23000000000000E+0002
  0
LINE
  8
0
 10
 5.48250000000164E+0002
 20
 1.23000000000000E+0002
 11
 5.48250000000164E+0002
 21
 1.65750000000000E+0002
  0
ARC
  8
0
 10
 5.42250000000164E+0002
 20
 1.65750000000000E+0002
 40
 6.00000000000000E+0000
 50
 0.00000000000000E+0000
 51
 1.80000000000000E+0002
  0
LINE
  8
0
 10
 5.36250000000164E+0002
 20
 1.65750000000000E+0002
 11
 5.36250000000164E+0002
 21
 1.23000000000000E+0002
  0
LINE
  8
0
 10
 5.36250000000164E+0002
 20
 1.23000000000000E+0002
 11
 5.24250000000164E+0002
 21
 1.23000000000000E+0002
  0
LINE
  8
0
 10
 5.24250000000164E+0002
 20
 1.23000000000000E+0002
 11
 5.24250000000164E+0002
 21
 1.65750000000000E+0002
  0
ARC
  8
0
 10
 5.18250000000164E+0002
 20
 1.65750000000000E+0002
 40
 6.00000000000000E+0000
 50
 0.00000000000000E+0000
 51
 1.80000000000000E+0002
  0
LINE
  8
0
 10
 5.12250000000164E+0002
 20
 1.65750000000000E+0002
 11
 5.12250000000164E+0002
 21
 1.23000000000000E+0002
  0
LINE
  8
0
 10
 5.12250000000164E+0002
 20
 1.23000000000000E+0002
 11
 5.00250000000164E+0002
 21
 1.23000000000000E+0002
  0
ENDSEC
  0
EOF
