<?xml version="1.0" encoding="UTF-8"?>
<svg xmlns="http://www.w3.org/2000/svg" version="1.1" width="47.74mm" height="24mm" viewBox="0 0 135.32 68.03">
<g transform="scale(0.1)">
  <path fill="#ffffff" d="M563.03 149.44L542.29 141.82C490.94 124.5 431.82 123.01 378.04 120.65L327.03 120.65L291.89 123.19C245.03 123.6 200.95 131.82 157.9 150.71L151.13 154.73L148.8 159.81L147.96 164.68L149.23 169.76L152.4 174.2L161.08 179.28L185.21 187.96L212.09 194.95L252.1 202.14L297.18 205.32L342.05 207.01L400.47 206.16L435.82 204.47L481.75 200.03L517.1 194.1L543.14 186.27L559.86 180.13L571.08 173.78L573.83 168.91C576.15 160.76 574.58 156.94 567.69 151.77L563.03 149.44"/>
  <path fill="#ffffff" d="M490.86 153.88L473.08 148.17L456.99 144.78C408.34 137.77 359.14 137.14 310.09 139.06L285.12 140.97L264.79 143.51L238.34 149.86L227.54 154.3L220.56 156.84L217.17 160.23L215.9 162.56L215.9 165.95L216.75 169.33L221.4 172.3L230.93 175.89L249.98 180.55L273.9 185L310.09 188.81L353.7 189.23L400.9 189.23L437.52 185.42L461.86 182.25L490.01 174.2L499.32 169.33C503.29 164.43 503.22 161.01 498.05 156.84L490.86 153.88"/>
  <path fill="#ffffff" fill-rule="evenodd" d="M1320.8 37.89L45.3 37.89L45.3 639.45L1320.8 639.45L1320.8 37.89"/>
  <path fill="#ff0000" fill-rule="evenodd" d="M1023.83 466.09L887.1 486.62"/>
  <path fill="#ff0000" fill-rule="evenodd" d="M435.82 243.63L147.96 296.76"/>
  <path fill="#ff0000" fill-rule="evenodd" d="M45.3 37.89L45.3 639.45L148.38 639.45L343.75 639.44L566.6 639.44L786.34 639.45L1207.95 639.44L1320.8 639.45L1320.8 37.89L45.3 37.89M786.34 466.09L786.34 450L1214.33 450L1214.33 465.67L944.67 498.47L921.81 501.23L944.67 503.98L1214.33 537.21L1214.33 552.45L786.34 552.45L786.34 535.94L887.1 535.94L887.1 535.94L998.82 535.94L1023.83 535.94L1005.22 533.19L887.1 514.77L805.34 501.99L805.35 498.84L887.09 486.62L1023.83 466.09L786.34 466.09M1150.62 206.59L1150.62 171.87L787.19 171.87L787.19 155.36L1151.47 155.36L1151.47 121.07L1214.33 121.07L1213.91 206.59L1150.62 206.59M786.34 414.91L887.09 404.49L892.17 403.22L892.17 403.22L894.49 402.07L894.9 400.5L894.93 400.47L895.35 398.8L896.62 393.91L896.62 366.18L895.35 360.26L895.35 360.26L895.3 360.01L889.64 356.23L889.64 356.28L786.77 345.86L786.77 328.04L889.64 338.86L889.64 338.86L890.79 338.98L895.35 339.46L962.24 346.5L983.4 348.61L999.49 350.33L1027.57 353.26L1047.76 355.39L1071.46 357.93L1092.84 360.04L1110.61 361.97L1137.93 364.7L1155.3 366.61L1181.32 369.39L1186.96 369.99L1187.03 369.99L1187.03 369.99L1203.52 371.69L1203.57 371.69L1213.06 372.74L1213.91 372.74L1214.33 389.25L889.32 421.88L889.32 421.88L786.34 432.22L786.34 414.91M1011.77 300.87L1005.21 299.51L983.4 292.95L962.24 285.11L787.19 311.15L787.19 292.52L944.67 269.45L944.67 242.57L786.77 242.57L786.77 226.06L1144.24 226.06L1206.68 226.06L1213.91 226.06L1213.06 267.33L1209.25 276.22L1203.54 279.4L1187.02 285.96L1160.99 295.49L1137.92 301.62L1116.33 305.43L1092.84 307.76L1071.46 308.19L1047.75 306.7L1027.64 304.17L1020.97 302.78L1017.49 302.06L1011.77 300.87M233.17 128.23L234.95 127.85L263.95 124.46L291.89 123.19L327.03 120.65L378.04 120.65L408.3 121.92L437.09 123.61L465.67 126.15L493.82 129.96L521.55 135.68L542.29 141.82L566 150.5L574.25 157.69L575.1 164.46L572.97 172.77L559.86 180.13L543.14 186.27L517.1 194.1L481.75 200.02L435.82 204.47L400.47 206.16L342.05 207.01L297.18 205.32L252.1 202.14L212.09 194.94L185.21 187.96L161.08 179.28L152.4 174.2L149.23 169.76L147.96 164.68L148.38 162.16L149.44 156L157.9 150.71L175.68 143.51L206.38 133.98L217.17 131.67L217.17 131.67L233.17 128.23M571.92 346.08L572.35 363.85L209.34 363.85L209.34 432.01L148.8 432.01L148.8 346.08L571.92 346.08M209.34 494.24L342.48 494.24L571.92 449.37L572.34 466.43L400.49 499.74L392.64 501.23L400.47 502.92L400.47 502.92L571.92 536.57L571.92 552.66L343.75 509.69L148.38 509.69L148.38 494.24L209.34 494.24L209.34 494.24M147.96 226.06L161.08 226.06L178.82 226.06L212.09 226.06L212.09 226.06L252.1 226.06L290.8 226.06L335.67 226.06L400.47 226.06L435.82 226.06L510.72 226.06L559.86 226.06L571.92 226.06L571.92 243.98L299.4 292.05L273.38 296.76L285.5 296.76L571.5 296.76L571.5 312.42L147.96 312.42L147.96 296.76L435.82 243.63L147.96 243.63L147.96 226.06"/>
  <path fill="#ff0000" fill-rule="evenodd" d="M1010.5 242.99L1010.5 269.24L1010.71 271.99L1011.77 275.17L1011.77 275.17L1011.77 275.17L1012.78 278.21L1030.61 285.75L1043.3 290.2L1054.31 291.89L1075.9 292.31L1086.48 291.25L1100.67 288.92L1109.77 285.33L1123.1 278.66L1123.1 278.98L1125.64 276.44L1127.34 272.84L1127.97 268.61L1128.39 242.99L1010.5 242.99"/>
  <path fill="#ff0000" fill-rule="evenodd" d="M962.45 396.03L1093.58 381.97L1105.98 380.56L962.45 364.49L962.45 396.03"/>
  <path fill="#ff0000" fill-rule="evenodd" d="M216.75 169.33L217.17 169.55L221.4 172.19L221.4 172.3L223.42 173.06L227.54 174.63L231.9 176.28L238.33 177.8L246.59 179.92L264.85 183.31L273.9 185L285.12 186.27L285.12 186.27L310.09 188.81L340.78 189.02L353.7 189.23L400.9 189.23L409.99 188.17L433.71 185.84L433.71 185.84L433.71 185.84L435.99 185.62L461.86 182.24L461.86 182.25L473.08 179.07L490.01 174.2L490.01 174.2L490.01 174.2L490.86 173.78L490.86 173.78L498.05 169.97L499.32 169.33L499.32 169.33L499.36 169.27L499.36 169.27L500.8 167.22L501.23 166.79L501.65 165.1L502.07 161.71L500.8 159.81L499.32 158.11L499.32 158.12L497.22 156.01L473.08 148.17L461.87 145.84L456.99 144.78L437.52 142.66L433.7 142.24L410 139.49L410 139.49L400.9 139.06L380.58 138.64L353.7 138.22L340.78 138.22L310.09 139.06L285.12 140.97L285.12 140.97L273.89 142.45L264.79 143.51L264.79 143.51L264.79 143.51L264.79 143.51L249.99 147.11L238.34 149.86L238.34 149.86L238.34 149.86L231.22 152.91L227.53 154.31L218.42 157.72L217.17 160.23L217.17 160.34L215.9 162.56L215.9 165.95L216.73 169.27L216.75 169.33"/>
  <path fill="#fcfcfc" fill-rule="evenodd" d="M944.67 242.57L944.67 269.45L787.19 292.52L787.19 311.15L944.67 287.87L962.24 285.11L983.4 292.95L1005.21 299.51L1010.71 300.61L1010.71 300.78L1013.88 301.41L1013.88 301.41L1019.6 302.47L1027.64 304.16L1027.64 304.17L1030.61 304.59L1043.3 306.07L1047.75 306.71L1052.52 307.01L1054.31 307.13L1054.31 307.13L1054.31 307.13L1071.46 308.19L1071.46 308.19L1075.9 308.19L1086.49 307.97L1086.49 307.98L1086.49 307.97L1092.84 307.76L1092.84 307.76L1100.67 307.13L1100.67 307.13L1109.77 306.07L1116.33 305.43L1117.81 305.22L1123.1 304.17L1125.64 303.74L1127.34 303.53L1127.97 303.32L1128.39 303.32L1137.92 301.62L1137.92 301.62L1137.92 301.62L1160.99 295.49L1187.03 285.96L1187.03 285.96L1187.03 285.96L1187.03 285.96L1206.54 278.21L1207.35 277.28L1207.35 277.28L1208.83 275.59L1213.02 269.3L1213.06 267.35L1213.06 267.35L1213.91 226.06L786.77 226.06L786.77 242.57L944.67 242.57M1071.46 292.1L1054.31 291.89L1047.75 290.83L1043.3 290.2L1030.61 285.75L1028.81 284.98L1019.6 281.09L1013.88 277.5L1011.77 275.17L1010.71 271.99L1010.5 269.24L1010.5 242.99L1128.39 242.99L1127.97 268.6L1127.34 272.84L1125.64 276.44L1123.1 278.98L1117.81 281.3L1116.33 282.15L1109.77 285.33L1100.67 288.92L1092.84 290.19L1086.49 291.25L1075.9 292.31L1071.46 292.1L1071.46 292.1"/>
  <path fill="#fcfcfc" fill-rule="evenodd" d="M795.02 500.38L922.22 520.13L1008.71 533.59L1008.52 535.94L786.34 535.94L786.34 552.45L1214.33 552.45L1214.33 537.21L1023.83 513.71L928.03 501.99L928.03 500.47L1024.25 488.74L1214.33 465.67L1214.33 450L786.34 450L786.34 466.09L1008.18 466.09L1008.35 468.49L921.82 481.54L795.02 500.38"/>
  <path fill="#fcfcfc" fill-rule="evenodd" d="M786.77 345.86L889.64 356.24L892.17 357.93L895.35 360.26L896.62 366.18L896.62 393.91L894.93 400.47L892.17 403.22L887.1 404.49L786.34 414.87L786.34 432.22L887.1 422.06L892.18 421.64L894.93 421.43L894.93 421.39L960.34 414.86L1106.23 400.04L1213.91 389.25L1214.33 389.25L1213.91 372.74L1106.12 361.52L962.45 346.5L896.62 339.51L895.35 339.51L892.18 339.09L892.18 339.09L889.63 338.88L786.77 328.08L786.77 345.86M1098.19 379.68L1098.18 381.44L962.45 396.03L962.45 364.49L1098.19 379.68"/>
  <path fill="#fcfcfc" fill-rule="evenodd" d="M1150.62 206.59L1213.91 206.59L1214.33 121.07L1151.47 121.07L1151.47 155.36L787.19 155.36L787.19 171.87L1150.62 171.87L1150.62 206.59"/>
  <path fill="#fcfcfc" fill-rule="evenodd" d="M148.75 159.91L147.96 164.68L149.22 169.76L152.24 174.11L157.9 177.37L161.08 179.28L161.08 179.28L175.68 184.57L185.21 187.96L204.94 193.09L212.09 194.94L212.09 194.94L212.09 194.95L212.09 194.95L215.9 195.58L216.75 195.79L219.83 196.35L229.35 198.05L249.98 201.72L252.1 202.14L273.9 203.62L297.18 205.32L310.09 205.95L310.09 205.95L310.09 205.95L342.05 207.01L353.7 206.8L400.9 206.16L400.9 206.16L435.82 204.47L437.52 204.47L461.85 201.93L481.75 200.02L481.75 200.03L490.01 198.54L499.32 197.06L501.65 196.85L501.65 196.85L502.29 196.64L517.1 194.1L521.55 192.83L542.29 186.48L543.14 186.27L559.86 180.13L563.03 178.22L567.69 175.68L567.69 175.68L571.18 173.72L571.5 173.14L571.5 173.14L571.5 173.14L573.83 168.91L574.25 167.22L574.68 165.52L574.68 162.14L574.25 158.96L573.83 158.33L571.5 155.15L571.5 155.15L571.5 155.15L569.78 152.81L563.03 149.44L559.86 148.17L542.29 141.94L542.29 141.82L521.55 135.68L517.1 134.62L502.29 131.66L499.59 131.12L493.82 129.96L490.86 129.54L473.08 127.21L465.67 126.15L456.99 125.31L456.99 125.31L437.09 123.61L433.71 123.4L408.31 122.04L408.31 121.92L380.58 120.86L378.04 120.65L378.04 120.65L327.03 120.65L310.05 121.92L291.89 123.19L285.12 123.61L264.79 124.46L263.95 124.46L238.34 127.42L234.95 127.85L227.54 129.33L227.54 129.33L220.56 131.02L217.16 131.66L215.9 131.87L214.42 132.2L206.37 133.98L185.21 140.55L175.68 143.51L161.08 149.22L157.9 150.71L157.9 150.71L151.2 154.57L148.8 159.9L148.8 159.6L148.75 159.91M217.17 160.23L220.56 156.84L227.54 154.3L227.54 154.3L234.95 151.13L238.34 149.86L263.95 143.72L264.79 143.51L285.12 140.97L291.89 140.55L310.09 139.06L327.03 138.43L340.78 138.22L378.04 138.64L378.04 138.64L380.58 138.64L408.31 139.28L410 139.49L433.71 142.24L437.09 142.66L456.99 144.78L465.67 146.69L473.08 148.17L490.86 153.88L493.82 155.15L498.05 156.84L502.29 161.08L501.65 166.58L499.32 169.33L490.01 174.2L484.19 175.84L461.86 182.24L437.52 185.42L435.82 185.63L400.9 189.23L353.7 189.23L342.05 189.02L310.09 188.81L297.18 187.54L273.9 185L252.1 180.97L249.98 180.55L230.93 175.89L221.4 172.3L216.75 169.33L215.9 165.95L215.9 162.56L217.17 160.23"/>
  <path fill="#fcfcfc" fill-rule="evenodd" d="M209.34 363.85L571.92 363.85L572.35 363.85L571.92 346.07L209.34 346.07L148.8 346.07L148.8 432.01L209.34 432.01L209.34 363.85"/>
  <path fill="#fcfcfc" fill-rule="evenodd" d="M343.75 494.03L342.48 494.24L148.38 494.24L148.38 509.69L343.75 509.69L392.63 518.79L571.92 552.66L571.92 536.57L393.05 501.31L393.05 501.15L571.92 466.51L572.35 466.51L571.92 449.37L392.72 484.49L343.75 494.03"/>
  <path fill="#fcfcfc" fill-rule="evenodd" d="M273.26 312.42L273.26 312.42L571.5 312.42L571.5 296.76L285.18 296.76L284.99 294.59L436.24 267.97L571.92 244.05L571.92 226.06L147.96 226.06L147.96 243.63L424.68 243.63L424.87 245.72L273.9 273.47L273.9 273.47L273.26 273.68L147.96 296.76L147.96 312.42L273.26 312.42"/>
  <path fill="#fcfcfc" fill-rule="evenodd" d="M102.45 639.45L110.91 639.45L110.91 37.89L102.45 37.89L102.45 639.45"/>
  <path fill="#000000" fill-rule="evenodd" d="M1270.63 676.7L1270.63 676.49C1270.51 674.76 1269.86 673.83 1268.52 672.89L1267.88 672.68L1267.67 670.56L1267.04 670.56C1264.33 670.61 1261.65 670.63 1259.42 672.25L1258.99 672.46L1259.21 676.28L1259.21 675.64C1260.59 671.89 1268.3 671.81 1268.52 676.28L1268.52 680.3L1268.94 680.08C1269.44 679.63 1270.41 678.4 1270.63 677.76L1270.63 677.12"/>
  <path fill="#000000" fill-rule="evenodd" d="M1275.93 672.68L1275.5 672.25L1275.29 672.04C1274.34 671.64 1274.5 671.97 1273.17 671.19L1272.75 671.19L1272.12 670.98C1271.12 670.95 1270.16 670.53 1269.15 670.56L1267.67 670.56L1267.88 672.68L1268.1 672.68C1270.32 672.38 1275.43 673.17 1275.71 675.85L1275.93 676.27"/>
  <path fill="#000000" fill-rule="evenodd" d="M1347.47 381L1347.47 380.37L1347.26 379.94L1347.26 379.31L1347.05 378.88L1346.62 378.46L1346.41 378.04L1345.99 377.61L1345.57 377.4L1345.14 376.98L1344.72 376.77L1344.08 376.55L1343.66 376.34L1343.24 376.34L1342.81 376.13L1342.18 375.92L1341.54 375.92C1337.85 375.99 1338.47 375.54 1334.98 376.77L1334.56 377.19L1334.13 377.4L1334.13 381.21L1334.13 380.58L1334.35 380.15C1335.74 378.33 1336.73 378.05 1339 378.04L1339.85 377.83L1340.49 378.04C1342.44 377.92 1344.59 378.56 1345.35 380.58L1345.35 384.17L1346.2 383.75L1346.62 383.33L1347.05 382.91L1347.05 382.48L1347.26 382.06L1347.47 381.42"/>
  <path fill="#000000" fill-rule="evenodd" d="M1352.76 386.29L1352.76 384.17L1345.35 384.17L1345.35 381L1345.35 381.85L1344.93 382.69L1344.51 383.12L1344.08 383.54L1343.87 383.54L1342.6 384.17L1342.18 384.17L1341.54 384.39L1340.27 384.39C1338.61 384.41 1336.16 384.5 1334.98 383.12L1334.56 382.69L1334.35 382.27L1334.35 384.39L1332.44 384.39L1332.44 386.29"/>
  <path fill="#000000" fill-rule="evenodd" d="M1331.17 389.04L1330.75 389.04L1330.11 389.25L1329.48 389.25L1328.21 389.89L1327.36 390.74L1327.15 391.16L1326.94 391.58L1326.73 392.22L1326.52 392.64L1326.52 394.97L1326.73 395.39L1326.73 396.03L1327.15 396.45L1327.36 396.87L1327.36 397.09L1327.79 397.51L1328.21 397.93L1328.42 393.91C1328.78 392.99 1328.65 391.56 1330.33 391.16L1330.96 391.16"/>
  <path fill="#000000" fill-rule="evenodd" d="M1334.35 399.41L1334.35 397.3L1332.44 397.3L1331.81 397.09L1331.17 397.09L1330.54 396.87L1329.9 396.66L1329.48 396.45L1329.27 396.03L1329.05 396.03L1328.84 395.6L1328.63 394.97L1328.63 394.55L1328.42 393.91L1328.21 397.93L1328.63 398.14C1329.45 399.06 1331.89 399.31 1333.08 399.2L1333.71 399.2"/>
  <path fill="#000000" fill-rule="evenodd" d="M1345.56 390.31L1345.14 389.89L1344.72 389.68L1344.08 389.47L1343.87 389.25L1343.24 389.25L1342.81 389.04L1342.18 388.83L1341.12 388.83L1340.48 388.62L1339.43 388.62L1338.79 388.83L1337.52 388.83L1337.1 389.04L1336.46 389.25L1336.04 389.25L1335.19 389.68L1334.77 390.1L1333.92 390.52L1333.5 390.95L1333.29 391.37L1332.87 391.79L1332.65 392.43L1332.65 392.85L1332.44 393.28C1332.39 394.51 1332.43 395.62 1333.5 396.45L1333.92 396.87L1334.35 397.3L1334.35 399.41L1334.56 394.12L1334.56 393.91C1334.55 392.21 1336.98 390.67 1338.58 390.95L1339.43 390.74L1340.06 390.74C1341.9 390.72 1344.22 391.27 1345.14 393.06L1345.35 393.49L1345.35 393.91"/>
  <path fill="#000000" fill-rule="evenodd" d="M1347.05 399.41L1347.05 397.51L1345.35 397.51L1345.35 394.76L1344.93 395.6L1343.87 396.66L1343.45 396.87L1343.03 397.09L1342.39 397.09L1341.97 397.3L1340.7 397.3L1339.85 397.51L1339.43 397.51C1337.78 397.09 1335.46 397.14 1334.77 395.18L1334.56 394.55L1334.56 394.12L1334.35 399.41"/>
  <path fill="#000000" fill-rule="evenodd" d="M1347.47 393.91L1347.47 393.28C1346.88 391.38 1347.68 392.57 1345.99 390.52L1345.57 390.31L1345.35 393.91L1345.35 397.51L1345.78 397.09C1346.75 395.98 1346.97 396.33 1347.26 394.97L1347.47 394.55"/>
  <path fill="#000000" fill-rule="evenodd" d="M1337.1 410.63L1336.46 410.42L1335.62 410L1334.77 409.15L1334.13 407.88L1334.13 403.22L1333.71 403.44L1333.5 403.86L1333.08 404.28L1332.87 404.71L1332.44 405.34L1332.44 405.76L1332.23 406.4L1332.23 406.82L1332.02 407.46L1332.02 407.88L1332.23 408.3L1332.23 408.94L1332.44 409.57C1333.48 411.11 1333.75 411.71 1335.62 412.33L1336.25 412.54L1336.89 412.75"/>
  <path fill="#000000" fill-rule="evenodd" d="M1345.56 403.22L1345.14 403.01C1342.47 401.22 1336.67 401.22 1334.13 403.22L1334.13 407.46L1334.13 407.25C1333.89 405.25 1337.03 403.81 1338.58 403.86L1339.21 403.86L1339.21 412.75L1340.91 412.75L1341.12 403.86L1341.75 404.07C1343.39 404.07 1345.07 405.1 1345.35 406.82L1345.35 407.25"/>
  <path fill="#000000" fill-rule="evenodd" d="M1347.47 407.25L1347.47 406.61L1347.26 405.98L1347.05 405.55L1346.84 404.92L1346.41 404.07L1345.57 403.22L1345.35 407.25L1345.35 408.09L1345.14 408.52L1344.93 409.15L1344.51 409.36L1344.08 409.79L1343.87 410L1343.03 410.42L1342.6 410.42L1341.97 410.63L1341.12 410.63L1341.12 403.86L1340.91 412.75L1341.54 412.75C1343.34 412.36 1343.44 412.37 1345.14 411.48L1345.57 411.27L1345.57 411.06L1345.99 410.84C1347.39 409.58 1346.62 409.99 1347.47 408.52L1347.47 407.88"/>
  <path fill="#000000" fill-rule="evenodd" d="M1345.56 422.7L1344.29 422.06C1343.02 421.46 1342.54 421.09 1341.12 421.22L1340.48 421.22L1339.85 421C1338.17 421.67 1337.94 420.59 1335.83 421.85L1335.19 421.85L1334.77 422.28L1334.35 422.49L1334.13 422.7C1332.94 423.79 1332.78 424.13 1332.23 425.66L1332.23 426.08L1332.02 426.72L1332.02 426.93L1332.23 427.57L1332.23 428.2L1332.44 428.62L1332.65 429.05L1332.87 429.47L1333.29 430.11L1333.71 430.32L1334.13 430.74L1334.13 430.95L1334.13 426.51C1334.99 424.12 1335.94 423.56 1338.37 423.33L1339.21 423.12L1339.85 423.12C1341.76 423.39 1344.38 423.41 1345.14 425.66L1345.35 426.08L1345.35 426.72"/>
  <path fill="#000000" fill-rule="evenodd" d="M1347.47 426.72L1347.47 426.51C1347.16 424.18 1347.45 424.93 1345.99 423.12L1345.57 422.7L1345.35 426.72C1345.43 431.49 1335.36 431.47 1334.13 427.35L1334.13 426.72L1334.13 430.95L1334.56 431.16L1334.77 431.38C1336.94 432.27 1339.41 432.79 1341.76 432.22L1342.18 432.22L1342.81 432.01L1343.45 432.01L1345.14 431.16L1345.78 430.53L1346.2 430.32L1346.41 429.89L1346.84 429.26L1347.05 428.84L1347.26 428.41L1347.47 427.78L1347.47 427.35"/>
  <path fill="#000000" fill-rule="evenodd" d="M1352.76 455.29L1352.76 447.89L1332.44 447.89L1332.44 450.21L1341.54 450.21L1341.54 452.75C1342.17 456.73 1340.85 457.37 1343.45 460.16L1343.66 460.16L1343.87 450.21L1350.43 450.21L1350.43 455.51L1350.65 460.38L1351.07 459.95C1352.31 459.47 1352.39 457.85 1352.76 456.78L1352.76 456.14"/>
  <path fill="#000000" fill-rule="evenodd" d="M1337.1 472.65L1336.46 472.44L1335.62 472.02L1335.19 471.59L1334.77 471.17L1334.13 469.9L1334.13 465.24L1333.71 465.45L1333.5 465.88L1333.08 466.3L1332.87 466.72L1332.44 467.36L1332.44 467.78L1332.23 468.42L1332.23 468.84L1332.02 469.48L1332.02 469.9L1332.23 470.32L1332.23 470.96L1332.44 471.59C1333.47 473.12 1333.75 473.73 1335.62 474.34L1336.89 474.77"/>
  <path fill="#000000" fill-rule="evenodd" d="M1345.56 465.24L1345.14 465.03C1342.47 463.24 1336.67 463.24 1334.13 465.24L1334.13 469.48L1334.13 469.27C1333.89 467.27 1337.03 465.83 1338.58 465.88L1339.21 465.88L1339.21 474.77L1340.91 474.77L1341.12 465.88L1341.75 466.09C1343.39 466.09 1345.07 467.12 1345.35 468.84L1345.35 469.27"/>
  <path fill="#000000" fill-rule="evenodd" d="M1347.47 469.26L1347.47 468.63L1347.26 467.99L1347.05 467.57L1346.84 466.94L1346.41 466.09L1345.57 465.24L1345.35 469.26L1345.35 470.11L1345.14 470.53L1344.93 471.17L1344.51 471.38L1344.08 471.8L1343.87 472.02L1343.03 472.44L1342.6 472.44L1341.97 472.65L1341.12 472.65L1341.12 465.88L1340.91 474.77L1341.54 474.77C1343.34 474.38 1343.44 474.39 1345.14 473.5L1345.57 473.29L1345.57 473.07L1345.99 472.86C1347.39 471.6 1346.62 472.01 1347.47 470.53L1347.47 469.9"/>
  <path fill="#000000" fill-rule="evenodd" d="M1347.47 481.96L1347.47 481.33L1347.26 480.91L1347.26 480.27L1347.05 479.85L1346.62 479.42L1346.41 479L1345.99 478.58L1345.57 478.37L1345.14 477.94L1344.72 477.73L1344.08 477.52L1343.66 477.31L1343.24 477.31L1342.81 477.1L1342.18 476.88L1341.54 476.88C1337.85 476.95 1338.47 476.51 1334.98 477.73L1334.56 478.16L1334.13 478.37L1334.13 482.18L1334.13 481.54L1334.35 481.12C1335.73 479.3 1336.73 479.02 1339 479L1339.85 478.79L1340.49 479C1342.44 478.89 1344.59 479.52 1345.35 481.54L1345.35 485.14L1346.2 484.72L1346.62 484.29L1347.05 483.87L1347.05 483.45L1347.26 483.02L1347.47 482.39"/>
  <path fill="#000000" fill-rule="evenodd" d="M1352.76 487.26L1352.76 485.14L1345.35 485.14L1345.35 481.96L1345.35 482.81L1344.93 483.66L1344.51 484.08L1344.08 484.5L1343.87 484.5L1342.6 485.14L1342.18 485.14L1341.54 485.35L1340.27 485.35C1338.61 485.37 1336.16 485.46 1334.98 484.08L1334.56 483.66L1334.35 483.23L1334.35 485.35L1332.44 485.35L1332.44 487.26"/>
  <path fill="#000000" fill-rule="evenodd" d="M1350.43 508.85L1350.43 503.55L1350.43 503.77L1350.22 504.4L1350.22 505.67L1350.01 505.88L1349.8 506.31L1349.38 506.73L1348.95 507.15L1348.53 507.15L1347.89 507.36L1347.47 507.58L1346.41 507.58L1345.78 507.36L1345.35 507.36L1344.72 507.15L1344.29 506.94L1344.08 506.52L1343.87 506.31L1343.45 505.88L1343.24 505.46L1343.24 504.82L1343.03 504.19L1343.03 499.32L1342.6 508.63L1343.03 508.85C1344.93 509.82 1347.38 510.11 1349.38 509.27L1350.01 509.27"/>
  <path fill="#000000" fill-rule="evenodd" d="M1345.56 521.76L1345.35 517.31L1345.35 517.74C1345.32 519.91 1343.87 519.94 1342.39 520.28L1341.75 520.06L1341.75 519.85C1340.88 518.42 1341.12 515.34 1340.06 513.71L1339.85 513.29L1339.85 520.06L1339 520.06C1336.91 520.42 1334.17 519.29 1334.13 516.89L1334.13 516.47L1333.92 519.85L1334.35 520.28L1334.35 522.39L1334.77 522.39L1335.19 522.18L1344.08 522.18L1344.51 521.97L1345.14 521.97"/>
  <path fill="#000000" fill-rule="evenodd" d="M1347.47 517.52L1347.47 516.25L1347.26 515.62L1347.05 515.2L1346.84 514.77L1346.62 514.35L1346.41 513.93L1345.57 513.08L1345.14 512.87L1344.72 512.66L1344.08 512.44L1343.66 512.23L1343.03 512.02L1342.6 514.14L1343.03 514.14C1344.75 514.61 1345.58 515.44 1345.35 517.31L1345.57 521.76L1345.99 521.33L1346.41 521.12L1346.84 520.49L1346.84 520.28L1347.05 519.85L1347.26 519.43L1347.47 518.79L1347.47 518.16"/>
  <path fill="#000000" fill-rule="evenodd" d="M1347.05 535.3L1347.05 533.19L1338.16 530.44C1337.27 530.12 1336.34 529.87 1335.41 529.8L1332.44 528.74L1332.44 530.65"/>
  <path fill="#000000" fill-rule="evenodd" d="M1337.1 545.04L1336.46 544.83L1336.04 544.62L1335.62 544.41L1334.77 543.56L1334.13 542.29L1334.13 537.63L1333.71 537.84L1333.5 538.27L1333.08 538.69L1332.87 539.12L1332.44 539.75L1332.44 540.17L1332.23 540.81L1332.23 541.23L1332.02 541.87L1332.02 542.29L1332.23 542.71L1332.23 543.35L1332.44 543.98C1333.47 545.51 1333.75 546.12 1335.62 546.74L1336.89 547.16"/>
  <path fill="#000000" fill-rule="evenodd" d="M1345.56 537.63L1345.14 537.42C1342.47 535.63 1336.67 535.63 1334.13 537.63L1334.13 541.87L1334.13 541.65C1333.89 539.66 1337.03 538.22 1338.58 538.27L1339.21 538.27L1339.21 547.16L1340.91 547.16L1341.12 538.27L1341.75 538.48C1343.39 538.48 1345.07 539.51 1345.35 541.23L1345.35 541.65"/>
  <path fill="#000000" fill-rule="evenodd" d="M1347.47 541.65L1347.47 541.02L1347.26 540.38L1347.05 539.96L1346.84 539.33L1346.62 538.9L1346.41 538.48L1345.57 537.63L1345.35 541.65L1345.35 542.5L1345.14 542.92L1344.93 543.56L1344.51 543.77L1344.08 544.19L1343.87 544.41L1343.45 544.62L1343.03 544.83L1342.6 544.83L1341.97 545.04L1341.12 545.04L1341.12 538.27L1340.91 547.16L1341.54 547.16C1343.34 546.77 1343.44 546.78 1345.14 545.89L1345.57 545.68L1345.57 545.46L1345.99 545.25C1347.39 543.99 1346.62 544.4 1347.47 542.92L1347.47 542.29"/>
  <path fill="#000000" fill-rule="evenodd" d="M1347.05 551.81L1347.05 549.91L1332.44 549.91L1332.44 552.03L1340.06 552.03C1341.61 551.96 1343.29 552.03 1344.51 553.08L1344.93 553.51L1345.14 551.81"/>
  <path fill="#000000" fill-rule="evenodd" d="M1347.47 555.41L1347.47 554.99C1346.6 552.75 1347.23 553.72 1345.57 552.03L1345.14 551.82L1344.93 553.51L1345.35 554.36L1345.35 554.99L1345.57 558.59L1345.99 558.38L1346.84 557.53L1347.05 557.11L1347.26 556.68L1347.47 556.05"/>
  <path fill="#000000" fill-rule="evenodd" d="M1347.47 562.61L1347.47 561.97C1347.07 561.06 1346.76 560.11 1345.99 559.43L1345.35 559.22L1345.35 562.19L1345.14 562.82L1344.93 563.24L1344.93 563.46L1344.51 563.88L1343.87 564.09L1343.66 564.09L1343.03 564.3L1332.44 564.3L1332.44 566.21L1342.6 566.21C1344.51 566.44 1346.89 565.83 1347.26 563.67L1347.47 563.24"/>
  <path fill="#000000" fill-rule="evenodd" d="M1337.1 577.43L1336.46 577.21L1336.04 577L1335.62 576.79L1335.19 576.37L1334.77 575.94L1334.13 574.67L1334.13 570.02L1333.71 570.23L1333.5 570.65L1333.08 571.08L1332.87 571.5L1332.44 572.13L1332.44 572.56L1332.23 573.19L1332.23 573.62L1332.02 574.25L1332.02 574.67L1332.23 575.1L1332.23 575.73L1332.44 576.37C1333.47 577.9 1333.75 578.51 1335.62 579.12L1336.89 579.54"/>
  <path fill="#000000" fill-rule="evenodd" d="M1345.56 570.02L1345.14 569.81C1342.47 568.01 1336.67 568.02 1334.13 570.02L1334.13 574.25L1334.13 574.04C1333.89 572.04 1337.03 570.6 1338.58 570.65L1339.21 570.65L1339.21 579.54L1340.91 579.54L1341.12 570.65L1341.75 570.86C1343.39 570.86 1345.07 571.9 1345.35 573.62L1345.35 574.04"/>
  <path fill="#000000" fill-rule="evenodd" d="M1347.47 574.04L1347.47 573.4L1347.26 572.77L1347.05 572.35L1346.84 571.71L1346.41 570.86L1345.57 570.02L1345.35 574.04L1345.35 574.89L1345.14 575.31L1344.93 575.94L1344.51 576.16L1344.08 576.58L1343.87 576.79L1343.45 577L1343.03 577.21L1342.6 577.21L1341.97 577.43L1341.12 577.43L1341.12 570.65L1340.91 579.54L1341.54 579.54C1343.34 579.16 1343.44 579.16 1345.14 578.27L1345.57 578.06L1345.57 577.85L1345.99 577.64C1347.39 576.38 1346.62 576.79 1347.47 575.31L1347.47 574.67"/>
  <path fill="#000000" fill-rule="evenodd" d="M1347.05 583.99L1347.05 582.08L1332.44 582.08L1332.44 584.2L1340.49 584.2C1341.67 584.12 1343.61 584.37 1344.51 585.26L1344.93 585.68L1345.14 583.99"/>
  <path fill="#000000" fill-rule="evenodd" d="M1347.47 587.8L1347.47 587.16C1346.79 585.54 1347.24 585.77 1345.99 584.62L1345.57 584.2L1345.35 587.38L1345.35 587.8L1344.72 589.07L1343.87 589.49L1343.66 589.7L1342.81 589.7L1342.18 589.92L1332.44 589.92L1332.44 591.82L1344.08 591.82L1344.51 591.61L1345.78 591.18L1346.2 590.97L1346.41 590.55L1346.84 590.13L1347.05 589.49L1347.26 589.49L1347.26 588.86L1347.47 588.43"/>
  <path fill="#000000" fill-rule="evenodd" d="M1334.77 599.86L1334.56 599.44L1334.56 598.8L1334.13 595.84L1333.92 595.84C1332.58 596.49 1331.77 597.98 1332.44 599.44L1332.44 600.07"/>
  <path fill="#000000" fill-rule="evenodd" d="M1345.56 636.69L1345.35 632.25L1345.35 632.67C1345.32 634.84 1343.87 634.88 1342.39 635.21L1341.75 635L1341.75 634.79C1340.88 633.35 1341.12 630.27 1340.06 628.65L1339.85 628.23L1339.85 635L1339 635C1336.91 635.36 1334.17 634.22 1334.13 631.82L1334.13 631.4L1333.92 634.79L1334.35 635.21L1334.35 637.33L1334.77 637.33L1335.19 637.12L1344.08 637.12L1344.51 636.9L1345.14 636.9"/>
  <path fill="#000000" fill-rule="evenodd" d="M1347.47 632.46L1347.47 631.19L1347.26 630.55L1347.05 630.13L1346.84 629.71L1346.62 629.28L1346.41 628.86L1345.57 628.01L1344.72 627.59L1344.08 627.38L1343.66 627.17L1343.03 626.96L1342.6 629.07L1343.03 629.07C1344.75 629.55 1345.58 630.38 1345.35 632.25L1345.57 636.69L1345.99 636.27L1346.41 636.06L1346.84 635.42L1346.84 635.21L1347.05 634.79L1347.26 634.36L1347.47 633.73L1347.47 633.09"/>
  <path fill="#000000" fill-rule="evenodd" d="M1347.05 666.54L1347.05 664.63L1332.44 664.63L1332.44 666.75L1340.49 666.75C1341.67 666.68 1343.61 666.92 1344.51 667.81L1344.93 668.23L1345.14 666.54"/>
  <path fill="#000000" fill-rule="evenodd" d="M1347.47 670.35L1347.47 669.71C1346.79 668.09 1347.24 668.32 1345.99 667.17L1345.57 666.75L1345.35 669.92L1345.35 670.35L1344.93 671.19L1344.72 671.62L1344.29 671.83L1343.87 672.04L1343.66 672.25L1342.81 672.25L1342.18 672.46L1332.44 672.46L1332.44 674.37L1344.08 674.37L1344.51 674.16L1345.78 673.73L1346.2 673.52L1346.41 673.1L1346.84 672.68L1347.05 672.04L1347.26 672.04L1347.26 671.41L1347.47 670.98"/>
  <path fill="#000000" fill-rule="evenodd" d="M17.99 329.14L17.99 323.85L17.99 324.06L17.78 324.7L17.78 325.97L17.57 326.18L17.36 326.6L16.51 327.45L16.09 327.45L15.45 327.66L15.03 327.87L13.97 327.87L13.33 327.66L12.91 327.66L12.28 327.45L11.85 327.24L11.64 326.81L11.01 326.18L10.79 325.75L10.79 325.12L10.58 324.48L10.58 319.62L10.16 328.93L10.58 329.14C12.49 330.11 14.94 330.4 16.93 329.56L17.57 329.56"/>
  <path fill="#000000" fill-rule="evenodd" d="M15.03 337.61L15.03 336.97L14.82 336.34L14.61 335.91L14.39 335.28L13.97 334.43L13.55 334.01L13.12 333.59L12.91 337.61L12.91 338.45L12.7 338.88L12.49 339.51L12.07 339.72L11.43 340.36L10.58 340.78L10.16 340.78L9.53 340.99L8.68 340.99L8.68 334.22L8.47 343.11L9.1 343.11C10.9 342.72 11 342.73 12.7 341.84L13.12 341.63L13.12 341.42L13.55 341.21C14.95 339.94 14.18 340.36 15.03 338.88L15.03 338.24"/>
  <path fill="#000000" fill-rule="evenodd" d="M20.32 355.39L20.32 353.27L12.91 353.27L12.91 350.1L12.91 350.94L12.49 351.79L11.64 352.64L11.43 352.64L10.16 353.27L9.74 353.27L9.1 353.48L7.83 353.48C6.17 353.5 3.72 353.59 2.54 352.21L2.12 351.79L1.91 351.37L1.91 353.48L0 353.48L0 355.39"/>
  <path fill="#000000" fill-rule="evenodd" d="M15.03 363.64L15.03 363.01L14.82 362.37L14.61 361.95L14.39 361.31L14.18 360.89L13.97 360.47L13.12 359.62L12.91 363.64L12.91 364.49L12.7 364.91L12.49 365.55L12.07 365.76L11.64 366.18L11.43 366.39L10.58 366.82L10.16 366.82L9.53 367.03L8.68 367.03L8.68 360.26L8.47 369.15L9.1 369.15C10.9 368.76 11 368.77 12.7 367.88L13.12 367.66L13.12 367.45L13.55 367.24C14.95 365.98 14.18 366.39 15.03 364.91L15.03 364.28"/>
  <path fill="#000000" fill-rule="evenodd" d="M13.33 379.73L12.91 375.92L12.91 376.34C12.97 377.35 12.12 378.16 11.22 378.46L10.58 378.46L11.01 380.58L11.22 380.36L11.85 380.36L12.28 380.15L12.91 379.94"/>
  <path fill="#000000" fill-rule="evenodd" d="M15.03 407.67L15.03 406.4L14.82 405.76L14.61 405.34L13.97 404.07L13.12 403.22L12.28 402.8L11.64 402.59L11.22 402.38L10.58 402.17L10.16 404.28L10.58 404.28C12.31 404.76 13.13 405.59 12.91 407.46L13.12 411.9L13.55 411.48L13.97 411.27L14.39 410.63L14.39 410.42L14.61 410L14.82 409.58L15.03 408.94L15.03 408.3"/>
  <path fill="#000000" fill-rule="evenodd" d="M20.74 442.59L20.74 442.38L20.53 441.75L20.53 441.32L20.32 440.69L20.32 440.27L20.11 439.63L19.69 439.21L19.47 438.78L19.47 438.57L19.05 438.15L18.84 437.73L18.42 437.51L18.42 442.59C18.27 444.81 16.92 446.17 14.82 446.83L14.18 447.04L14.82 449.16L15.45 449.16C17.84 448.37 20.31 446.56 20.53 443.86L20.74 443.23"/>
  <path fill="#000000" fill-rule="evenodd" d="M13.33 480.7L12.91 476.89L12.91 477.31C12.97 478.31 12.12 479.13 11.22 479.43L10.58 479.43L11.01 481.54L11.22 481.33L11.85 481.33L12.28 481.12L12.91 480.91"/>
  <path fill="#000000" fill-rule="evenodd" d="M13.33 492.34L12.91 488.53L12.91 488.95C12.97 489.96 12.12 490.77 11.22 491.07L10.58 491.07L11.01 493.18L11.22 492.97L11.85 492.97L12.28 492.76L12.91 492.55"/>
  <path fill="#000000" fill-rule="evenodd" d="M15.03 517.74L15.03 516.47L14.82 515.83L14.61 515.41L13.97 514.14L13.12 513.29L12.7 513.08L12.28 512.87L11.64 512.66L11.22 512.45L10.58 512.23L10.16 514.35L10.58 514.35C12.31 514.82 13.13 515.66 12.91 517.53L13.12 521.97L13.55 521.55L13.97 521.33L14.39 520.7L14.39 520.49L14.61 520.07L14.82 519.64L15.03 519.01L15.03 518.37"/>
  <path fill="#000000" fill-rule="evenodd" d="M15.03 584.83L15.03 584.2L14.82 583.56L14.61 583.14L14.39 582.51L13.97 581.66L13.55 581.24L13.12 580.81L12.91 584.83L12.91 585.68L12.7 586.1L12.49 586.74L12.07 586.95L11.64 587.37L11.43 587.59L11.01 587.8L10.58 588.01L10.16 588.01L9.53 588.22L8.68 588.22L8.68 581.45L8.47 590.34L9.1 590.34C10.9 589.95 11 589.96 12.7 589.07L13.12 588.86L13.12 588.64L13.55 588.43C14.95 587.17 14.18 587.58 15.03 586.1L15.03 585.47"/>
  <path fill="#000000" fill-rule="evenodd" d="M17.99 618.91L17.99 613.62L17.99 613.83L17.78 614.47L17.78 615.74L17.57 615.95L17.36 616.37L16.51 617.22L16.09 617.22L15.45 617.43L15.03 617.64L13.97 617.64L13.33 617.43L12.91 617.43L12.28 617.22L11.85 617.01L11.64 616.58L11.01 615.95L10.79 615.53L10.79 614.89L10.58 614.26L10.58 609.39L10.16 618.7L10.58 618.91C12.49 619.89 14.94 620.17 16.93 619.34L17.57 619.34"/>
  <path fill="#000000" fill-rule="evenodd" d="M20.74 629.71L20.74 629.5L20.53 628.86L20.53 628.44L20.32 627.8L20.32 627.38L20.11 626.75L19.69 626.32L19.47 625.9L19.47 625.69L19.05 625.26L18.84 624.84L18.42 624.63L18.42 629.71C18.27 631.93 16.92 633.29 14.82 633.94L14.18 634.15L14.82 636.27L15.45 636.27C17.84 635.49 20.31 633.67 20.53 630.98L20.74 630.34"/>
  <path fill="#000000" fill-rule="evenodd" d="M20.32 650.03L17.78 648.55L15.45 648.97L0 652.57L2.75 653.63C5.08 653.46 7.29 652.79 9.53 652.57L9.95 652.36"/>
  <path fill="#000000" fill-rule="evenodd" d="M20.32 659.34L20.32 657.01L7.2 654.47C6.22 654.17 3.82 653.76 2.75 653.63L0 652.57L0 654.68"/>
  <path fill="#000000" fill-rule="evenodd" d="M165.1 5.29L164.47 5.29L164.04 5.5L163.41 5.5L162.98 5.71L162.56 6.14L162.14 6.35L161.71 6.77L161.5 7.2L161.08 7.62L160.87 8.04L160.66 8.68L160.44 9.1L160.44 9.53L160.23 9.95L160.02 10.58L160.02 11.22C160.09 14.91 159.64 14.29 160.87 17.78L161.29 18.2L161.5 18.63L165.31 18.63L164.68 18.63L164.25 18.42C162.43 17.03 162.15 16.03 162.14 13.76L161.93 12.91L162.14 12.28C162.02 10.32 162.66 8.17 164.68 7.41L168.28 7.41L168.06 6.99L167.85 6.56L167.01 5.71L166.58 5.71L166.16 5.5L165.52 5.29"/>
  <path fill="#000000" fill-rule="evenodd" d="M170.39 0L168.28 0L168.28 7.41L165.1 7.41L165.95 7.41L166.79 7.83L167.64 8.68L167.64 8.89L168.28 10.16L168.28 10.58L168.49 11.22L168.49 12.49C168.51 14.15 168.6 16.6 167.22 17.78L166.79 18.2L166.37 18.42L168.49 18.42L168.49 20.32L170.39 20.32"/>
  <path fill="#000000" fill-rule="evenodd" d="M173.14 21.59L173.14 22.01L173.36 22.65L173.36 23.28L173.57 23.71L173.99 24.55L174.84 25.4L175.68 25.82L176.32 26.04L176.74 26.25L179.07 26.25L179.49 26.04L180.13 26.04L180.55 25.61L180.98 25.4L181.19 25.4L182.03 24.55L178.01 24.34C177.09 23.99 175.66 24.11 175.26 22.44L175.26 21.8"/>
  <path fill="#000000" fill-rule="evenodd" d="M183.52 18.41L181.4 18.41L181.4 20.32L181.19 20.95L181.19 21.59L180.98 22.22L180.76 22.86L180.55 23.28L180.13 23.49L180.13 23.71L179.71 23.92L179.07 24.13L178.65 24.13L178.01 24.34L182.03 24.55L182.25 24.13C183.16 23.31 183.41 20.87 183.3 19.68L183.3 19.05"/>
  <path fill="#000000" fill-rule="evenodd" d="M174.41 7.2L173.99 7.62L173.78 8.04L173.57 8.68L173.36 8.89L173.36 9.52L173.14 9.95L172.93 10.58L172.93 11.64L172.72 12.28L172.72 13.33L172.93 13.97L172.93 15.24L173.14 15.66L173.36 16.3L173.36 16.72L173.57 17.14L173.78 17.57L174.2 17.99L174.62 18.84L175.05 19.26L175.47 19.47L175.9 19.9L176.53 20.11L176.95 20.11L177.38 20.32C178.61 20.37 179.72 20.33 180.55 19.26L181.4 18.41L183.51 18.41L178.22 18.2L177.59 18.2L176.74 17.78L176.32 17.36L175.9 16.93L175.68 16.72L175.47 16.3L175.26 15.66L175.05 15.24L175.05 14.18L174.84 13.33L174.84 12.7C174.82 10.85 175.37 8.54 177.17 7.62L177.59 7.41L178.01 7.41"/>
  <path fill="#000000" fill-rule="evenodd" d="M183.52 5.71L181.61 5.71L181.61 7.41L178.86 7.41L179.71 7.83L180.76 8.89L181.19 9.74L181.19 10.37L181.4 10.79L181.4 12.06L181.61 12.91L181.61 13.33C181.19 14.98 181.24 17.3 179.28 17.99L178.65 18.2L178.22 18.2L183.52 18.42"/>
  <path fill="#000000" fill-rule="evenodd" d="M178.01 5.29L177.38 5.29C175.48 5.88 176.67 5.09 174.63 6.77L174.41 7.2L178.01 7.41L181.61 7.41L181.19 6.99C180.08 6.01 180.43 5.79 179.07 5.5L178.65 5.29"/>
  <path fill="#000000" fill-rule="evenodd" d="M194.73 15.66L194.52 16.3L194.1 17.15L193.25 17.99L191.98 18.63L187.33 18.63L187.54 19.05L187.96 19.26L188.38 19.69L188.81 19.9L189.44 20.32L189.87 20.32L190.5 20.53L190.92 20.53L191.56 20.74L191.98 20.74L192.41 20.53L193.04 20.53L193.68 20.32C195.21 19.29 195.81 19.01 196.43 17.15L196.64 16.51L196.85 15.88"/>
  <path fill="#000000" fill-rule="evenodd" d="M187.33 7.2L187.11 7.62C185.32 10.29 185.32 16.09 187.33 18.63L191.56 18.63L191.35 18.63C189.35 18.87 187.91 15.73 187.96 14.18L187.96 13.55L196.85 13.55L196.85 11.85L187.96 11.64L188.17 11.01C188.17 9.37 189.21 7.69 190.92 7.41L191.35 7.41"/>
  <path fill="#000000" fill-rule="evenodd" d="M191.35 5.29L190.71 5.29L190.08 5.5L189.65 5.71L189.02 5.93L188.6 6.14L188.17 6.35L187.75 6.77L187.33 7.2L191.35 7.41L192.19 7.41L192.62 7.62L193.25 7.83L193.46 8.25L194.1 8.89L194.52 9.74L194.52 10.16L194.73 10.79L194.73 11.64L187.96 11.64L196.85 11.85L196.85 11.22C196.46 9.42 196.47 9.32 195.58 7.62L195.37 7.2L195.16 7.2L194.95 6.77C193.68 5.37 194.09 6.14 192.62 5.29L191.98 5.29"/>
  <path fill="#000000" fill-rule="evenodd" d="M206.8 7.2L206.16 8.47C205.56 9.74 205.19 10.22 205.32 11.64L205.32 12.28L205.1 12.91C205.77 14.59 204.69 14.82 205.95 16.93L205.95 17.57L206.38 17.99L206.59 18.41L206.8 18.63C207.89 19.82 208.23 19.98 209.76 20.53L210.18 20.53L210.82 20.74L211.03 20.74L211.67 20.53L212.3 20.53L213.57 19.9L214.21 19.47L214.42 19.05L214.84 18.63L215.05 18.63L210.61 18.63C208.22 17.77 207.66 16.82 207.43 14.39L207.22 13.55L207.22 12.91C207.49 11 207.51 8.38 209.76 7.62L210.18 7.41L210.82 7.41"/>
  <path fill="#000000" fill-rule="evenodd" d="M210.82 5.29L210.61 5.29C208.27 5.61 209.03 5.31 207.22 6.77L206.8 7.2L210.82 7.41C215.59 7.33 215.57 17.4 211.46 18.63L210.82 18.63L215.05 18.63L215.27 18.2L215.48 17.99C216.37 15.83 216.89 13.35 216.32 11.01L216.32 10.58L216.11 9.95L216.11 9.31L215.9 8.89L215.69 8.47L215.27 7.62L214.63 6.99L214.42 6.56L214 6.35L213.36 5.93L212.94 5.71L212.51 5.5L211.88 5.29L211.46 5.29"/>
  <path fill="#000000" fill-rule="evenodd" d="M239.4 0L231.99 0L231.99 20.32L234.32 20.32L234.32 11.22L236.86 11.22C240.83 10.59 241.47 11.91 244.26 9.31L244.26 9.1L234.32 8.89L234.32 2.33L239.61 2.33L244.48 2.12L244.05 1.69C243.57 0.45 241.95 0.37 240.88 0L240.24 0"/>
  <path fill="#000000" fill-rule="evenodd" d="M256.75 15.66L256.54 16.3L256.12 17.15L255.27 17.99L254 18.63L249.34 18.63L249.55 19.05L249.98 19.26L250.4 19.69L250.83 19.9L251.46 20.32L251.88 20.32L252.52 20.53L252.94 20.53L253.58 20.74L254 20.74L254.42 20.53L255.06 20.53L255.69 20.32C257.23 19.29 257.83 19.01 258.45 17.15L258.66 16.51L258.87 15.88"/>
  <path fill="#000000" fill-rule="evenodd" d="M249.34 7.2L249.13 7.62C247.34 10.29 247.34 16.09 249.34 18.63L253.58 18.63L253.37 18.63C251.37 18.87 249.93 15.73 249.98 14.18L249.98 13.55L258.87 13.55L258.87 11.85L249.98 11.64L250.19 11.01C250.19 9.37 251.22 7.69 252.94 7.41L253.37 7.41"/>
  <path fill="#000000" fill-rule="evenodd" d="M253.37 5.29L252.73 5.29L252.1 5.5L251.67 5.71L251.04 5.93L250.61 6.14L250.19 6.35L249.77 6.77L249.34 7.2L253.37 7.41L254.21 7.41L254.63 7.62L255.27 7.83L255.48 8.25L256.12 8.89L256.54 9.74L256.54 10.16L256.75 10.79L256.75 11.64L249.98 11.64L258.87 11.85L258.87 11.22C258.48 9.42 258.49 9.32 257.6 7.62L257.39 7.2L257.17 7.2L256.96 6.77C255.7 5.37 256.11 6.14 254.63 5.29L254 5.29"/>
  <path fill="#000000" fill-rule="evenodd" d="M266.07 5.29L265.43 5.29L265.01 5.5L264.37 5.5L263.95 5.71L263.53 6.14L263.1 6.35L262.68 6.77L262.47 7.2L262.04 7.62L261.83 8.04L261.62 8.68L261.41 9.1L261.41 9.53L261.2 9.95L260.99 10.58L260.99 11.22C261.05 14.91 260.61 14.29 261.83 17.78L262.26 18.2L262.47 18.63L266.28 18.63L265.64 18.63L265.22 18.42C263.4 17.03 263.12 16.03 263.1 13.76L262.89 12.91L263.1 12.28C262.99 10.32 263.62 8.17 265.64 7.41L269.24 7.41L268.82 6.56L267.97 5.71L267.55 5.71L267.12 5.5L266.49 5.29"/>
  <path fill="#000000" fill-rule="evenodd" d="M271.36 0L269.24 0L269.24 7.41L266.07 7.41L266.91 7.41L267.76 7.83L268.61 8.68L268.61 8.89L269.03 9.74L269.24 10.16L269.24 10.58L269.45 11.22L269.45 12.49C269.47 14.15 269.56 16.6 268.18 17.78L267.76 18.2L267.33 18.42L269.45 18.42L269.45 20.32L271.36 20.32"/>
  <path fill="#000000" fill-rule="evenodd" d="M292.95 2.33L287.66 2.33L287.87 2.33L288.5 2.54L289.77 2.54L289.98 2.75L290.41 2.96L291.25 3.81L291.25 4.23L291.46 4.87L291.68 5.29L291.68 6.35L291.46 6.98L291.46 7.41L291.25 8.04L291.04 8.47L290.62 8.68L289.98 9.31L289.56 9.52L288.92 9.52L288.29 9.74L283.42 9.74L292.74 10.16L292.95 9.74C293.92 7.83 294.21 5.38 293.37 3.39L293.37 2.75"/>
  <path fill="#000000" fill-rule="evenodd" d="M305.86 7.2L301.41 7.41L301.84 7.41C304.01 7.44 304.04 8.89 304.38 10.37L304.17 11.01L303.95 11.01C302.52 11.89 299.44 11.64 297.82 12.7L297.39 12.91L304.17 12.91L304.17 13.76C304.52 15.85 303.39 18.59 300.99 18.63L300.57 18.63L303.95 18.84L304.38 18.41L306.49 18.41L306.49 17.99L306.28 17.57L306.28 8.68L306.07 8.25L306.07 7.62"/>
  <path fill="#000000" fill-rule="evenodd" d="M301.62 5.29L300.36 5.29L299.72 5.5L299.3 5.71L298.87 5.93L298.45 6.14L298.03 6.35L297.6 6.77L297.18 7.2L296.76 8.04L296.54 8.68L296.33 9.1L296.12 9.74L298.24 10.16L298.24 9.74C298.71 8.01 299.55 7.19 301.41 7.41L305.86 7.2L305.43 6.77L305.22 6.35L304.59 5.93L304.38 5.93L303.95 5.71L303.53 5.5L302.89 5.29L302.26 5.29"/>
  <path fill="#000000" fill-rule="evenodd" d="M319.41 5.71L317.29 5.71L314.54 14.6C314.22 15.49 313.97 16.43 313.9 17.36L312.84 20.32L314.75 20.32"/>
  <path fill="#000000" fill-rule="evenodd" d="M329.14 15.66L328.93 16.3L328.51 17.15L327.66 17.99L326.39 18.63L321.73 18.63L321.95 19.05L322.37 19.26L322.79 19.69L323.22 19.9L323.85 20.32L324.27 20.32L324.91 20.53L325.33 20.53L325.97 20.74L326.39 20.74L326.81 20.53L327.45 20.53L328.08 20.32C329.61 19.29 330.22 19.01 330.84 17.15L331.05 16.51L331.26 15.88"/>
  <path fill="#000000" fill-rule="evenodd" d="M321.73 7.2L321.52 7.62C319.73 10.29 319.73 16.09 321.73 18.63L325.97 18.63L325.76 18.63C323.76 18.87 322.32 15.73 322.37 14.18L322.37 13.55L331.26 13.55L331.26 11.85L322.37 11.64L322.58 11.01C322.58 9.37 323.61 7.69 325.33 7.41L325.76 7.41"/>
  <path fill="#000000" fill-rule="evenodd" d="M325.75 5.29L325.12 5.29L324.49 5.5L324.06 5.71L323.43 5.93L323 6.14L322.58 6.35L322.16 6.77L321.73 7.2L325.75 7.41L326.6 7.41L327.02 7.62L327.66 7.83L327.87 8.25L328.51 8.89L328.93 9.74L328.93 10.16L329.14 10.79L329.14 11.64L322.37 11.64L331.26 11.85L331.26 11.22C330.87 9.42 330.88 9.32 329.99 7.62L329.78 7.2L329.56 7.2L329.35 6.77C328.09 5.37 328.5 6.14 327.02 5.29L326.39 5.29"/>
  <path fill="#000000" fill-rule="evenodd" d="M335.92 5.71L334.01 5.71L334.01 20.32L336.13 20.32L336.13 12.7C336.06 11.15 336.13 9.47 337.18 8.25L337.61 7.83L335.92 7.62"/>
  <path fill="#000000" fill-rule="evenodd" d="M339.51 5.29L339.09 5.29C336.85 6.16 337.81 5.54 336.13 7.2L335.92 7.62L337.61 7.83L338.46 7.41L339.09 7.41L342.69 7.2L342.48 6.77L341.63 5.93L341.21 5.71L340.78 5.5L340.15 5.29"/>
  <path fill="#000000" fill-rule="evenodd" d="M346.71 5.29L346.08 5.29C345.16 5.69 344.21 6 343.54 6.77L343.32 7.41L346.29 7.41L346.92 7.62L347.34 7.83L347.56 7.83L347.98 8.25L348.19 8.89L348.19 9.1L348.4 9.74L348.4 20.32L350.31 20.32L350.31 10.16C350.54 8.25 349.93 5.87 347.77 5.5L347.34 5.29"/>
  <path fill="#000000" fill-rule="evenodd" d="M361.53 15.66L361.32 16.3L361.1 16.72L360.89 17.15L360.04 17.99L358.78 18.63L354.12 18.63L354.33 19.05L354.75 19.26L355.18 19.69L355.6 19.9L356.24 20.32L356.66 20.32L357.29 20.53L357.72 20.53L358.35 20.74L358.78 20.74L359.2 20.53L359.83 20.53L360.47 20.32C362 19.29 362.6 19.01 363.22 17.15L363.43 16.51L363.64 15.88"/>
  <path fill="#000000" fill-rule="evenodd" d="M354.12 7.2L353.91 7.62C352.11 10.29 352.12 16.09 354.12 18.63L358.35 18.63L358.14 18.63C356.14 18.87 354.7 15.73 354.75 14.18L354.75 13.55L363.64 13.55L363.64 11.85L354.75 11.64L354.96 11.01C354.96 9.37 356 7.69 357.72 7.41L358.14 7.41"/>
  <path fill="#000000" fill-rule="evenodd" d="M358.14 5.29L357.51 5.29L356.87 5.5L356.45 5.71L355.81 5.93L355.39 6.14L354.97 6.35L354.54 6.77L354.12 7.2L358.14 7.41L358.99 7.41L359.41 7.62L360.05 7.83L360.26 8.25L360.89 8.89L361.1 9.31L361.32 9.74L361.32 10.16L361.53 10.79L361.53 11.64L354.75 11.64L363.64 11.85L363.64 11.22C363.26 9.42 363.26 9.32 362.37 7.62L362.16 7.2L361.95 7.2L361.74 6.77C360.48 5.37 360.89 6.14 359.41 5.29L358.78 5.29"/>
  <path fill="#000000" fill-rule="evenodd" d="M368.09 5.71L366.18 5.71L366.18 20.32L368.3 20.32L368.3 12.28C368.22 11.09 368.47 9.15 369.36 8.25L369.78 7.83L368.09 7.62"/>
  <path fill="#000000" fill-rule="evenodd" d="M371.9 5.29L371.26 5.29C370 5.81 369.64 5.67 368.72 6.77L368.3 7.2L371.48 7.41L371.9 7.41L373.17 8.04L373.59 8.89L373.8 9.1L373.8 9.95L374.02 10.58L374.02 20.32L375.92 20.32L375.92 8.68L375.71 8.25L375.29 6.99L375.07 6.56L374.65 6.35L374.23 5.93L373.59 5.71L373.59 5.5L372.96 5.5L372.53 5.29"/>
  <path fill="#000000" fill-rule="evenodd" d="M383.96 17.99L383.54 18.2L382.91 18.2L379.94 18.63L379.94 18.84C380.6 20.18 382.08 20.99 383.54 20.32L384.17 20.32"/>
  <path fill="#000000" fill-rule="evenodd" d="M420.79 7.2L416.35 7.41L416.77 7.41C418.94 7.44 418.98 8.89 419.31 10.37L419.1 11.01L418.89 11.01C417.45 11.89 414.37 11.64 412.75 12.7L412.33 12.91L419.1 12.91L419.1 13.76C419.46 15.85 418.32 18.59 415.92 18.63L415.5 18.63L418.89 18.84L419.31 18.41L421.43 18.41L421.43 17.99L421.22 17.57L421.22 8.68L421 8.25L421 7.62"/>
  <path fill="#000000" fill-rule="evenodd" d="M416.56 5.29L415.29 5.29L414.66 5.5L414.23 5.71L413.81 5.93L413.39 6.14L412.96 6.35L412.54 6.77L412.12 7.2L411.69 8.04L411.48 8.68L411.27 9.1L411.06 9.74L413.17 10.16L413.17 9.74C413.65 8.01 414.48 7.19 416.35 7.41L420.79 7.2L420.37 6.77L420.16 6.35L419.52 5.93L419.31 5.93L418.89 5.71L418.47 5.5L417.83 5.29L417.2 5.29"/>
  <path fill="#000000" fill-rule="evenodd" d="M450.64 5.71L448.73 5.71L448.73 20.32L450.85 20.32L450.85 12.28C450.77 11.09 451.02 9.15 451.91 8.25L452.33 7.83L450.64 7.62"/>
  <path fill="#000000" fill-rule="evenodd" d="M454.45 5.29L453.81 5.29C452.55 5.81 452.19 5.67 451.27 6.77L450.85 7.2L454.03 7.41L454.45 7.41L455.72 8.04L455.93 8.47L456.14 8.89L456.35 9.1L456.35 9.95L456.57 10.58L456.57 20.32L458.47 20.32L458.47 8.68L458.26 8.25L457.83 6.99L457.62 6.56L457.2 6.35L456.78 5.93L456.14 5.71L456.14 5.5L455.51 5.5L455.08 5.29"/>
  <path fill="#000000" fill-rule="evenodd" d="M461.22 21.59L461.22 22.01L461.43 22.65L461.43 23.28L462.07 24.55L462.92 25.4L463.76 25.82L464.4 26.04L464.82 26.25L467.15 26.25L467.57 26.04L468.21 26.04L468.63 25.61L469.05 25.4L469.27 25.4L470.11 24.55L466.09 24.34C465.17 23.99 463.74 24.11 463.34 22.44L463.34 21.8"/>
  <path fill="#000000" fill-rule="evenodd" d="M471.59 18.41L469.48 18.41L469.48 20.32L469.26 20.95L469.26 21.59L469.05 22.22L468.84 22.86L468.63 23.28L468.21 23.49L468.21 23.71L467.78 23.92L467.15 24.13L466.72 24.13L466.09 24.34L470.11 24.55L470.32 24.13C471.23 23.31 471.48 20.87 471.38 19.68L471.38 19.05"/>
  <path fill="#000000" fill-rule="evenodd" d="M462.49 7.2L462.07 7.62L461.86 8.04L461.65 8.68L461.43 8.89L461.43 9.52L461.22 9.95L461.01 10.58L461.01 11.64L460.8 12.28L460.8 13.33L461.01 13.97L461.01 15.24L461.22 15.66L461.43 16.3L461.43 16.72L461.86 17.57L462.28 17.99L462.7 18.84L463.13 19.26L463.55 19.47L463.97 19.9L464.61 20.11L465.03 20.11L465.46 20.32C466.69 20.37 467.79 20.33 468.63 19.26L469.48 18.41L471.59 18.41L466.3 18.2L465.67 18.2L464.82 17.78L463.97 16.93L463.76 16.72L463.55 16.3L463.34 15.66L463.13 15.24L463.13 14.18L462.92 13.33L462.92 12.7C462.9 10.85 463.45 8.54 465.24 7.62L465.67 7.41L466.09 7.41"/>
  <path fill="#000000" fill-rule="evenodd" d="M471.59 5.71L469.69 5.71L469.69 7.41L466.94 7.41L467.78 7.83L468.84 8.89L469.26 9.74L469.26 10.37L469.48 10.79L469.48 12.06L469.69 12.91L469.69 13.33C469.26 14.98 469.31 17.3 467.36 17.99L466.72 18.2L466.3 18.2L471.59 18.42"/>
  <path fill="#000000" fill-rule="evenodd" d="M466.09 5.29L465.46 5.29C463.56 5.88 464.75 5.09 462.7 6.77L462.49 7.2L466.09 7.41L469.69 7.41L469.26 6.99C468.15 6.01 468.51 5.79 467.15 5.5L466.72 5.29"/>
  <path fill="#000000" fill-rule="evenodd" d="M1337.95 459.74L1338.16 459.53L1338.79 459.32L1339.22 459.1L1339.64 458.68L1340.06 458.47L1340.49 458.05L1343.71 458.05L1343.66 460.16L1344.08 460.38L1344.51 460.8L1344.93 461.01L1345.35 461.01L1345.99 461.22L1348.74 461.22L1349.38 461.01L1350.64 460.38L1350.43 455.51L1350.43 456.78L1350.22 457.2L1350.01 457.83L1349.59 458.05L1349.16 458.89L1347.89 458.89L1347.15 459.14L1345.78 458.68L1345.35 458.47L1344.81 458.29L1343.87 456.88L1343.87 445.77L1341.33 453.39L1341.33 454.02L1340.91 454.87L1339.85 455.93L1338.58 456.56L1337.31 457.41L1336.68 457.62L1332.44 459.95L1332.44 462.7L1337.95 459.74"/>
  <path fill="#000000" fill-rule="evenodd" d="M1345.14 439.84L1348.53 439.84L1351.59 440.45L1351.59 440.45L1352.76 440.69L1352.97 440.27L1352.97 439.21L1353.19 438.79L1353.19 438.36L1352.97 437.73L1352.76 437.3L1352.55 436.88L1352.55 436.67L1352.34 436.25L1351.07 435.61L1351.07 435.61L1350.86 435.4L1347.05 435.4L1347.05 433.49L1345.14 433.49L1345.14 435.4L1332.44 435.4L1332.44 437.3L1345.14 437.3L1345.14 439.84"/>
  <path fill="#000000" fill-rule="evenodd" d="M1340.91 505.25L1340.91 505.88L1341.12 506.31L1341.33 506.94L1341.54 507.36L1341.76 507.79L1342.18 508L1342.39 508.42L1342.6 508.63L1343.03 499.32L1350.43 499.32L1350.43 508.85L1350.65 508.85L1351.92 507.58L1352.13 507.15L1352.55 506.31L1352.55 505.25L1352.76 504.83L1352.76 496.99L1332.44 496.99L1332.44 499.32L1340.7 499.32L1340.7 504.61L1340.91 505.25"/>
  <path fill="#000000" fill-rule="evenodd" d="M1332.23 379.94L1332.23 380.58L1332.02 381L1332.02 381.42L1332.23 381.85L1332.44 382.48L1332.87 383.33L1333.71 384.17L1334.35 384.39L1334.35 382.27L1334.13 381.63L1334.13 377.4L1332.87 378.67L1332.23 379.94"/>
  <path fill="#000000" fill-rule="evenodd" d="M1334.77 373.59L1334.77 363.43L1341.76 363.43L1341.76 372.74L1344.08 372.74L1344.08 363.43L1350.43 363.43L1350.43 373.38L1352.76 373.38L1352.76 361.31L1332.44 361.31L1332.44 373.59L1334.13 373.59L1334.77 373.59"/>
  <path fill="#000000" fill-rule="evenodd" d="M1332.44 658.07L1341.76 652.99L1347.05 657.44L1347.05 654.9L1341.8 650.59L1332.44 655.53L1332.44 658.07"/>
  <path fill="#000000" fill-rule="evenodd" d="M1342.87 650.03L1352.76 650.03L1352.76 647.91L1346.2 647.91L1347.47 645.37L1347.47 644.53L1347.26 643.89L1347.05 643.47L1347.05 640.29L1345.14 640.29L1339.85 640.29L1334.35 640.29L1334.35 635.21L1333.9 635.21L1334.13 631.4L1334.13 630.13L1335.4 628.86L1337.31 628.86L1338.16 629.71L1338.79 630.98L1338.79 631.82L1339.21 631.82L1339.21 633.73L1339.43 634.15L1339.64 634.79L1339.85 635L1339.85 628.23L1339.43 627.8L1339 627.59L1336.25 624.84L1332.87 628.23L1332.44 629.07L1332.23 629.71L1332.23 630.13L1332.02 630.77L1332.02 630.98L1332.23 631.61L1332.23 632.04L1332.44 632.67L1333.63 635.04L1332.44 635.63L1332.44 642.41L1342.18 642.41L1342.6 642.62L1344.25 643.17L1345.14 644.95L1343.17 647.91L1332.44 647.91L1332.44 650.03L1341.12 650.03L1342.87 650.03"/>
  <path fill="#000000" fill-rule="evenodd" d="M1337.1 623.99L1352.76 623.99L1352.76 621.03L1335.39 616.1L1352.76 611.5L1352.76 608.12L1335.89 608.12L1332.44 608.12L1332.44 610.23L1345.28 610.23L1345.45 611.45L1332.44 615.1L1332.44 615.1L1332.44 617.01L1345.35 620.72L1345.18 621.88L1332.44 621.88L1332.44 623.99L1335.41 623.99L1337.1 623.99"/>
  <path fill="#000000" fill-rule="evenodd" d="M1334.56 598.8L1334.91 597.75L1345.14 597.75L1345.14 599.86L1347.05 599.86L1347.05 597.75L1352.34 597.75L1350.86 595.63L1347.05 595.63L1347.05 594.15L1345.35 594.15L1345.14 594.15L1345.14 595.63L1335.19 595.63L1334.56 595.84L1334.14 595.84L1334.56 598.8"/>
  <path fill="#000000" fill-rule="evenodd" d="M1347.05 659.55L1332.44 659.55L1332.44 661.67L1352.76 661.67L1352.76 659.55L1349.57 659.55L1347.05 659.55"/>
  <path fill="#000000" fill-rule="evenodd" d="M1343.03 559.43L1343.66 559.43L1344.93 560.7L1345.35 561.55L1345.35 558.66L1345.56 558.59L1345.35 554.99L1345.35 555.2L1345.14 555.62L1345.04 555.94L1344.29 556.68L1343.45 557.11L1332.44 557.11L1332.44 559.22L1342.39 559.22L1343.03 559.43"/>
  <path fill="#000000" fill-rule="evenodd" d="M1332.44 520.7L1332.44 522.82L1332.65 522.82L1333.08 522.6L1333.71 522.39L1334.35 522.39L1334.35 520.28L1333.9 520.28L1334.13 516.47L1334.13 515.2L1335.4 513.93L1337.31 513.93L1338.16 514.77L1338.79 516.04L1338.79 516.89L1339.21 516.89L1339.21 518.79L1339.43 519.22L1339.64 519.85L1339.85 520.07L1339.85 513.29L1339.43 512.87L1339 512.66L1338.58 512.23L1337.95 512.02L1337.52 511.81L1335.19 511.81L1334.56 512.02L1333.71 512.45L1332.87 513.29L1332.44 514.14L1332.23 514.77L1332.23 515.2L1332.02 515.83L1332.02 516.04L1332.23 516.68L1332.23 517.1L1332.44 517.74L1333.63 520.11L1332.44 520.7"/>
  <path fill="#000000" fill-rule="evenodd" d="M1339.85 526.38L1332.44 528.74L1335.41 529.8L1335.41 529.8L1337.31 529.17L1337.73 529.17L1338.37 528.95L1347.05 526.41L1347.05 524.09L1339.85 526.38L1339.85 526.38"/>
  <path fill="#000000" fill-rule="evenodd" d="M1332.23 480.91L1332.23 481.54L1332.02 481.96L1332.02 482.39L1332.23 482.81L1332.44 483.45L1332.87 484.29L1333.71 485.14L1334.35 485.35L1334.35 483.23L1334.13 482.6L1334.13 478.37L1332.87 479.64L1332.23 480.91"/>
  <path fill="#000000" fill-rule="evenodd" d="M378.25 7.62L379.73 7.62L379.73 17.57L379.94 18.2L379.94 18.63L382.91 18.2L381.85 17.85L381.85 7.62L383.96 7.62L383.96 5.71L381.85 5.71L381.85 0.42L379.73 1.91L379.73 5.71L378.25 5.71L378.25 7.41L378.25 7.62"/>
  <path fill="#000000" fill-rule="evenodd" d="M392.22 16.87L392.22 20.32L394.34 20.32L394.34 7.48L395.56 7.31L399.2 20.32L401.11 20.32L404.82 7.42L405.98 7.58L405.98 20.32L408.09 20.32L408.09 17.36L408.09 15.66L408.09 0L405.13 0L400.2 17.37L395.61 0L392.22 0L392.22 16.87"/>
  <path fill="#000000" fill-rule="evenodd" d="M408.94 16.51L412.33 19.9L413.17 20.32L413.81 20.53L414.23 20.53L414.87 20.74L415.08 20.74L415.71 20.53L416.14 20.53L416.77 20.32L419.14 19.13L419.74 20.32L422.48 20.32L426.51 20.32L426.51 10.58L426.72 10.16L427.27 8.51L429.05 7.62L432.01 9.6L432.01 20.32L434.13 20.32L434.13 11.64L434.13 9.89L434.13 0L432.01 0L432.01 6.56L429.47 5.29L428.62 5.29L427.99 5.5L427.57 5.71L424.39 5.71L424.39 7.62L424.39 12.91L424.39 18.41L419.31 18.41L419.31 18.86L415.5 18.63L414.23 18.63L412.96 17.36L412.96 15.45L413.81 14.61L415.08 13.97L415.92 13.97L415.92 13.55L417.83 13.55L418.25 13.33L418.89 13.12L419.1 12.91L412.33 12.91L411.9 13.33L411.69 13.76L408.94 16.51"/>
  <path fill="#000000" fill-rule="evenodd" d="M434.69 10.96L439.63 20.32L442.17 20.32L437.09 11.01L441.54 5.71L439 5.71L434.69 10.96"/>
  <path fill="#000000" fill-rule="evenodd" d="M443.65 5.71L443.65 20.32L445.77 20.32L445.77 5.71L443.65 5.71"/>
  <path fill="#000000" fill-rule="evenodd" d="M339.09 7.41L339.3 7.41L339.73 7.62L340.04 7.73L340.78 8.47L341.21 9.31L341.21 20.32L343.32 20.32L343.32 10.37L343.54 9.74L343.54 9.1L344.81 7.83L345.65 7.41L342.76 7.41L342.69 7.2L339.09 7.41"/>
  <path fill="#000000" fill-rule="evenodd" d="M295.91 17.57L296.12 18.2L296.55 19.05L297.39 19.9L298.24 20.32L298.87 20.53L299.3 20.53L299.93 20.74L300.14 20.74L300.78 20.53L301.2 20.53L301.84 20.32L304.21 19.13L304.8 20.32L306.92 20.32L306.92 20.11L306.71 19.68L306.49 19.05L306.49 18.41L304.38 18.41L304.38 18.86L300.57 18.63L299.3 18.63L298.03 17.36L298.03 15.45L298.87 14.61L300.14 13.97L300.99 13.97L300.99 13.55L302.9 13.55L303.32 13.33L303.95 13.12L304.17 12.91L297.39 12.91L296.97 13.33L296.76 13.76L296.33 14.18L296.12 14.82L295.91 15.24L295.91 17.57"/>
  <path fill="#000000" fill-rule="evenodd" d="M309.86 10.95L312.84 20.32L313.9 17.36L313.9 17.36L313.27 15.45L313.27 15.03L313.06 14.39L310.52 5.71L308.19 5.71L309.86 10.95"/>
  <path fill="#000000" fill-rule="evenodd" d="M289.35 11.85L289.98 11.85L290.41 11.64L291.04 11.43L291.47 11.22L291.89 11.01L292.1 10.58L292.52 10.37L292.74 10.16L283.42 9.74L283.42 2.33L292.95 2.33L292.95 2.12L291.68 0.85L291.25 0.64L290.41 0.21L289.35 0.21L288.93 0L281.09 0L281.09 20.32L283.42 20.32L283.42 12.07L288.71 12.07L289.35 11.85"/>
  <path fill="#000000" fill-rule="evenodd" d="M266.07 20.74L266.49 20.74L266.91 20.53L267.55 20.32L268.39 19.9L269.24 19.05L269.45 18.41L267.33 18.41L266.7 18.63L262.47 18.63L263.74 19.9L265.01 20.53L265.64 20.53L266.07 20.74"/>
  <path fill="#000000" fill-rule="evenodd" d="M219.5 5.71L217.59 5.71L217.59 7.62L219.5 7.62L219.5 20.32L221.4 20.32L221.4 7.62L223.94 7.62L223.94 5.71L219.5 5.71"/>
  <path fill="#000000" fill-rule="evenodd" d="M229.87 8.89L237.49 11.43L238.12 11.43L238.97 11.85L240.03 12.91L240.67 14.18L241.09 14.82L241.51 15.45L241.72 16.09L244.05 20.32L246.8 20.32L243.84 14.82L243.63 14.6L243.42 13.97L243.21 13.55L242.78 13.12L242.57 12.7L242.15 12.28L242.15 9.06L244.26 9.1L244.48 8.68L244.9 8.25L245.11 7.83L245.11 7.41L245.32 6.77L245.32 4.02L245.11 3.39L244.48 2.12L239.61 2.33L240.88 2.33L241.3 2.54L241.94 2.75L242.15 3.17L242.99 3.6L242.99 4.87L243.24 5.61L242.78 6.99L242.57 7.41L242.39 7.95L240.98 8.89L229.87 8.89"/>
  <path fill="#000000" fill-rule="evenodd" d="M147.53 11.01L156.85 11.01L156.85 8.68L147.53 8.68L147.53 2.33L157.48 2.33L157.48 0L145.42 0L145.42 20.32L157.69 20.32L157.69 18.63L157.69 17.99L147.53 17.99L147.53 11.01"/>
  <path fill="#000000" fill-rule="evenodd" d="M161.5 18.63L162.77 19.9L164.04 20.53L164.68 20.53L165.1 20.74L165.52 20.74L165.95 20.53L166.58 20.32L167.43 19.9L168.28 19.05L168.49 18.41L166.37 18.41L165.74 18.63L161.5 18.63"/>
  <path fill="#000000" fill-rule="evenodd" d="M20.32 563.88L20.32 561.76L17.36 561.76L17.36 563.88L20.32 563.88"/>
  <path fill="#000000" fill-rule="evenodd" d="M2.12 386.93L2.47 385.87L12.7 385.87L12.7 387.99L14.61 387.99L14.61 385.87L19.9 385.87L18.42 383.75L14.61 383.75L14.61 382.27L12.7 382.27L12.7 383.75L2.75 383.75L2.12 383.96L1.69 383.96L2.12 386.93"/>
  <path fill="#000000" fill-rule="evenodd" d="M12.49 391.58L12.49 394.65L11.85 395.6L14.18 396.24L14.6 395.61L15.03 394.76L15.03 393.91L14.82 393.28L14.46 392.57L13.76 392.22L13.12 391.79L12.7 391.65L12.7 391.65L12.49 391.58"/>
  <path fill="#000000" fill-rule="evenodd" d="M17.36 397.51L17.36 399.63L20.32 399.63L20.32 397.51L17.36 397.51"/>
  <path fill="#000000" fill-rule="evenodd" d="M20.32 551.18L20.32 549.06L0 549.06L0 559.43L2.33 559.43L2.33 551.18L20.32 551.18"/>
  <path fill="#000000" fill-rule="evenodd" d="M8.47 615.32L8.47 615.95L8.68 616.37L8.89 617.01L9.31 617.86L9.74 618.07L9.95 618.49L10.16 618.7L10.58 609.39L17.99 609.39L17.99 618.91L18.2 618.91L19.47 617.64L19.9 616.8L20.11 616.37L20.11 615.32L20.32 614.89L20.32 607.06L0 607.06L0 609.39L8.25 609.39L8.25 614.68L8.47 615.32"/>
  <path fill="#000000" fill-rule="evenodd" d="M8.47 325.54L8.47 326.18L8.68 326.6L8.89 327.24L9.1 327.66L9.31 328.08L9.74 328.29L9.95 328.72L10.16 328.93L10.58 319.62L17.99 319.62L17.99 329.14L18.2 329.14L18.63 328.72L19.47 327.87L19.9 327.02L20.11 326.6L20.11 325.54L20.32 325.12L20.32 317.29L0 317.29L0 319.62L8.25 319.62L8.25 324.91L8.47 325.54"/>
  <path fill="#000000" fill-rule="evenodd" d="M0 642.41L0 644.53L15.45 648.12L16.09 648.12L16.72 648.33L17.15 648.33L17.78 648.55L20.32 650.03L20.32 647.28L3.24 643.33L20.32 640.08L20.32 637.96L0 642.41L0 642.41"/>
  <path fill="#000000" fill-rule="evenodd" d="M0 532.98L5.93 532.98L7.62 534.46L8.68 532.98L20.32 532.98L20.32 525.57L0 525.57L0 532.98"/>
  <path fill="#000000" fill-rule="evenodd" d="M12.49 456.88L11.85 457.83L14.18 458.47L14.61 457.83L14.82 457.41L15.03 456.99L15.03 456.14L14.82 455.51L14.46 454.8L13.76 454.45L13.12 454.02L12.49 453.81L12.49 456.88"/>
</g>
</svg>
