  0
SECTION
  2
HEADER
  9
$ACADVER
  1
AC1003
  9
$INSBASE
 10
0.0
 20
0.0
  9
$EXTMIN
 10
 0.00000000000000E+0000
 20
 0.00000000000000E+0000
  9
$EXTMAX
 10
 1.25000000000000E+0003
 20
 1.60000000000000E+0003
  9
$LIMMIN
 10
0.0
 20
0.0
  9
$LIMMAX
 10
410.0
 20
287.0
  9
$VIEWCTR
 10
227.0059616
 20
165.058879 
  9
$VIEWSIZE
 40
 1.60000000000000E+0003
9
$SNAPMODE
70
0
9
$SNAPUNIT
10
1
20
1
9
$GRIDMODE
70
0
9
$GRIDUNIT
10
1
20
1
9
$ORTHOMODE
70
0
9
$rEGENMODE
70
1
9
$FILLMODE
70
1
9
$DRAGMODE
70
2
9
$LTSCALE
40
25.0
9
$OSMODE
70
0
9
$ATTMODE
70
1
9
$TRACEWID
40
1.0
9
$TEXTSTYLE
7
STANDARD
9
$CLAYER
8
0
9
$CELTYPE
6
VONLAYER
9
$CECOLOR
62
256
9
$LUNITS
70
2
9
$LUPREC
70
2
9
$AXISMODE
70
0
9
$AXISUNIT
10
0
20
0
9
$SKETCHINC
40
1.0
9
$FILLETRAD
40
0.0
9
$AUNITS
70
0
9
$AUPREC
70
0
9
$MENU
1
ACAD
9
$ELEVATION
40
0.0
9
$THICKNESS
40
0.0
9
$VIEWDIR
10
0.0
20
0.0
30
1.0
9
$LIMCHECK
70
0
9
$BLIPMODE
70
1
9
$CHAMFERA
40
0.0
9
$CHAMFERB
40
0.0
9
$USRTIMER
70
1
9
$ANGBASE
50
0.0
9
$ANGDIR
70
0
9
$PDMODE
70
0
9
$PDSIZE
40
0.0
9
$PLINEWID
40
0.0
9
$COORDS
70
0
0
ENDSEC
0
SECTION
2
TABLES
0
TABLE
2
LTYPE
70
1
0
LTYPE
2
AUSGEZOGEN
70
64
3
Ausgezogene Linie
72
65
73
0
40
0.0
0
ENDTAB
0
TABLE
2
LAYER
70
1
0
LAYER
2
0
70
0
62
7
6
AUSGEZOGEN
0
ENDTAB
0
TABLE
2
STYLE
70
1
0
STYLE
2
STANDARD
70
0
40
0.0
41
1.0
50
0.0
71
0
42
3.5
3
txt
4

0
ENDTAB
0
TABLE
2
VIEW
70
0
0
ENDTAB
0
ENDSEC
0
SECTION
2
BLOCKS
0
ENDSEC
0
SECTION
2
ENTITIES
  0
ARC
  8
0
 10
 6.00000000000000E+0001
 20
 6.00000000000000E+0001
 40
 6.00000000000000E+0001
 50
 1.80000000000000E+0002
 51
 2.70000000000000E+0002
  0
LINE
  8
0
 10
 0.00000000000000E+0000
 20
 6.00000000000000E+0001
 11
 0.00000000000000E+0000
 21
 1.54000000000000E+0003
  0
ARC
  8
0
 10
 6.00000000000000E+0001
 20
 1.54000000000000E+0003
 40
 6.00000000000000E+0001
 50
 9.00000000000000E+0001
 51
 1.80000000000000E+0002
  0
LINE
  8
0
 10
 6.00000000000000E+0001
 20
 1.60000000000000E+0003
 11
 1.19000000000000E+0003
 21
 1.60000000000000E+0003
  0
ARC
  8
0
 10
 1.19000000000000E+0003
 20
 1.54000000000000E+0003
 40
 6.00000000000000E+0001
 50
 0.00000000000000E+0000
 51
 9.00000000000000E+0001
  0
LINE
  8
0
 10
 1.25000000000000E+0003
 20
 1.54000000000000E+0003
 11
 1.25000000000000E+0003
 21
 6.00000000000000E+0001
  0
ARC
  8
0
 10
 1.19000000000000E+0003
 20
 6.00000000000000E+0001
 40
 6.00000000000000E+0001
 50
 2.70000000000000E+0002
 51
 3.60000000000000E+0002
  0
LINE
  8
0
 10
 1.19000000000000E+0003
 20
 0.00000000000000E+0000
 11
 6.00000000000000E+0001
 21
 0.00000000000000E+0000
  0
ARC
  8
0
 10
 6.00000000000000E+0001
 20
 6.00000000000000E+0001
 40
 4.50000000000000E+0001
 50
 1.80000000000000E+0002
 51
 2.70000000000000E+0002
  0
LINE
  8
0
 10
 1.50000000000000E+0001
 20
 6.00000000000000E+0001
 11
 1.50000000000000E+0001
 21
 1.54000000000000E+0003
  0
ARC
  8
0
 10
 6.00000000000000E+0001
 20
 1.54000000000000E+0003
 40
 4.50000000000000E+0001
 50
 9.00000000000000E+0001
 51
 1.80000000000000E+0002
  0
LINE
  8
0
 10
 6.00000000000000E+0001
 20
 1.58500000000000E+0003
 11
 1.19000000000000E+0003
 21
 1.58500000000000E+0003
  0
ARC
  8
0
 10
 1.19000000000000E+0003
 20
 1.54000000000000E+0003
 40
 4.50000000000000E+0001
 50
 0.00000000000000E+0000
 51
 9.00000000000000E+0001
  0
LINE
  8
0
 10
 1.23500000000000E+0003
 20
 1.54000000000000E+0003
 11
 1.23500000000000E+0003
 21
 6.00000000000000E+0001
  0
ARC
  8
0
 10
 1.19000000000000E+0003
 20
 6.00000000000000E+0001
 40
 4.50000000000000E+0001
 50
 2.70000000000000E+0002
 51
 3.60000000000000E+0002
  0
LINE
  8
0
 10
 1.19000000000000E+0003
 20
 1.50000000000000E+0001
 11
 6.00000000000000E+0001
 21
 1.50000000000000E+0001
  0
ARC
  8
0
 10
 6.00000000000000E+0001
 20
 6.00000000000000E+0001
 40
 2.50000000000000E+0001
 50
 1.80000000000000E+0002
 51
 2.70000000000000E+0002
  0
LINE
  8
0
 10
 3.50000000000000E+0001
 20
 6.00000000000000E+0001
 11
 3.50000000000000E+0001
 21
 1.54000000000000E+0003
  0
ARC
  8
0
 10
 6.00000000000000E+0001
 20
 1.54000000000000E+0003
 40
 2.50000000000000E+0001
 50
 9.00000000000000E+0001
 51
 1.80000000000000E+0002
  0
LINE
  8
0
 10
 6.00000000000000E+0001
 20
 1.56500000000000E+0003
 11
 1.19000000000000E+0003
 21
 1.56500000000000E+0003
  0
ARC
  8
0
 10
 1.19000000000000E+0003
 20
 1.54000000000000E+0003
 40
 2.50000000000000E+0001
 50
 0.00000000000000E+0000
 51
 9.00000000000000E+0001
  0
LINE
  8
0
 10
 1.21500000000000E+0003
 20
 1.54000000000000E+0003
 11
 1.21500000000000E+0003
 21
 6.00000000000000E+0001
  0
ARC
  8
0
 10
 1.19000000000000E+0003
 20
 6.00000000000000E+0001
 40
 2.50000000000000E+0001
 50
 2.70000000000000E+0002
 51
 3.60000000000000E+0002
  0
LINE
  8
0
 10
 1.19000000000000E+0003
 20
 3.50000000000000E+0001
 11
 6.00000000000000E+0001
 21
 3.50000000000000E+0001
  0
LINE
  8
0
 10
 3.70000000000000E+0002
 20
 1.30700000000000E+0003
 11
 3.24978192449691E+0002
 21
 1.29537544109514E+0003
  0
ARC
  8
0
 10
 3.22000000000000E+0002
 20
 1.30700000000000E+0003
 40
 1.20000000000000E+0001
 50
 1.46195000000000E+0002
 51
 2.84370000000000E+0002
  0
LINE
  8
0
 10
 3.12028768958084E+0002
 20
 1.31367641756549E+0003
 11
 4.00000000000000E+0002
 21
 1.44500000000000E+0003
  0
LINE
  8
0
 10
 4.00000000000000E+0002
 20
 1.44500000000000E+0003
 11
 4.87970648376606E+0002
 21
 1.31367728769412E+0003
  0
ARC
  8
0
 10
 4.78000000000000E+0002
 20
 1.30700000000000E+0003
 40
 1.20000000000000E+0001
 50
 2.55635000000000E+0002
 51
 3.93810000000000E+0002
  0
LINE
  8
0
 10
 4.75022821995783E+0002
 20
 1.29537518124308E+0003
 11
 4.30000000000000E+0002
 21
 1.30700000000000E+0003
  0
LINE
  8
0
 10
 4.30000000000000E+0002
 20
 1.30700000000000E+0003
 11
 4.30000000000000E+0002
 21
 1.55000000000000E+0002
  0
LINE
  8
0
 10
 4.30000000000000E+0002
 20
 1.55000000000000E+0002
 11
 3.70000000000000E+0002
 21
 1.55000000000000E+0002
  0
LINE
  8
0
 10
 3.70000000000000E+0002
 20
 1.55000000000000E+0002
 11
 3.70000000000000E+0002
 21
 1.30700000000000E+0003
  0
LINE
  8
0
 10
 7.95000000000000E+0002
 20
 1.30700000000000E+0003
 11
 7.49999490553610E+0002
 21
 1.29538091843480E+0003
  0
ARC
  8
0
 10
 7.47000000000000E+0002
 20
 1.30700000000000E+0003
 40
 1.20000000000000E+0001
 50
 1.46195000000000E+0002
 51
 2.84475000000000E+0002
  0
LINE
  8
0
 10
 7.37028768958083E+0002
 20
 1.31367641756549E+0003
 11
 8.25000000000000E+0002
 21
 1.44500000000000E+0003
  0
LINE
  8
0
 10
 8.25000000000000E+0002
 20
 1.44500000000000E+0003
 11
 9.12971231041917E+0002
 21
 1.31367641756549E+0003
  0
ARC
  8
0
 10
 9.03000000000000E+0002
 20
 1.30700000000000E+0003
 40
 1.20000000000000E+0001
 50
 2.55525000000000E+0002
 51
 3.93805000000000E+0002
  0
LINE
  8
0
 10
 9.00000509446390E+0002
 20
 1.29538091843480E+0003
 11
 8.55000000000000E+0002
 21
 1.30700000000000E+0003
  0
LINE
  8
0
 10
 8.55000000000000E+0002
 20
 1.30700000000000E+0003
 11
 8.54990627553650E+0002
 21
 1.04317882912159E+0003
  0
ARC
  8
0
 10
 8.25000000000000E+0002
 20
 7.97150000000000E+0002
 40
 2.47850000000000E+0002
 50
 8.30500000000000E+0001
 51
 9.69500000000000E+0001
  0
LINE
  8
0
 10
 7.95009372446350E+0002
 20
 1.04317882912159E+0003
 11
 7.95000000000000E+0002
 21
 1.30700000000000E+0003
  0
LINE
  8
0
 10
 8.55000000000000E+0002
 20
 5.56828200000000E+0002
 11
 8.55000000000000E+0002
 21
 1.55000000000000E+0002
  0
LINE
  8
0
 10
 8.55000000000000E+0002
 20
 1.55000000000000E+0002
 11
 7.95000000000000E+0002
 21
 1.55000000000000E+0002
  0
LINE
  8
0
 10
 7.95000000000000E+0002
 20
 1.55000000000000E+0002
 11
 7.95009372446350E+0002
 21
 5.56821170878415E+0002
  0
ARC
  8
0
 10
 8.25000000000000E+0002
 20
 8.02850000000000E+0002
 40
 2.47850000000000E+0002
 50
 2.63050000000000E+0002
 51
 2.76950000000000E+0002
  0
CIRCLE
  8
0
 10
 8.25000000000000E+0002
 20
 8.00000000000000E+0002
 40
 2.32750000000000E+0002
  0
CIRCLE
  8
0
 10
 8.25000000000000E+0002
 20
 8.00000000000000E+0002
 40
 1.71500000000000E+0002
  0
LINE
  8
0
 10
 8.25000000000000E+0002
 20
 6.76579000000000E+0002
 11
 7.64417898129367E+0002
 21
 6.42178228900648E+0002
  0
ARC
  8
0
 10
 8.25000000000000E+0002
 20
 8.00000000000000E+0002
 40
 1.69050000000000E+0002
 50
 2.49000000000000E+0002
 51
 2.91000000000000E+0002
  0
LINE
  8
0
 10
 8.85582101870633E+0002
 20
 6.42178228900648E+0002
 11
 8.25000000000000E+0002
 21
 6.76579000000000E+0002
  0
LINE
  8
0
 10
 8.25000000000000E+0002
 20
 9.23421000000000E+0002
 11
 7.64417898129367E+0002
 21
 9.57821771099352E+0002
  0
ARC
  8
0
 10
 8.25000000000000E+0002
 20
 8.00000000000000E+0002
 40
 1.69050000000000E+0002
 50
 6.90000000000000E+0001
 51
 1.11000000000000E+0002
  0
LINE
  8
0
 10
 8.85582101870633E+0002
 20
 9.57821771099352E+0002
 11
 8.25000000000000E+0002
 21
 9.23421000000000E+0002
  0
LINE
  8
0
 10
 6.90243500000000E+0002
 20
 7.69659157142857E+0002
 11
 7.13873528571429E+0002
 21
 7.69659157142857E+0002
  0
LINE
  8
0
 10
 7.13873528571429E+0002
 20
 7.69659157142857E+0002
 11
 7.13873528571429E+0002
 21
 7.56367266071429E+0002
  0
ARC
  8
0
 10
 7.25688542857143E+0002
 20
 7.56367266071429E+0002
 40
 1.18150142857142E+0001
 50
 1.80000000000000E+0002
 51
 3.60000000000000E+0002
  0
LINE
  8
0
 10
 7.37503557142857E+0002
 20
 7.56367266071429E+0002
 11
 7.37503557142857E+0002
 21
 7.85904801785714E+0002
  0
ARC
  8
0
 10
 7.25688542857143E+0002
 20
 7.85904801785714E+0002
 40
 1.18150142857142E+0001
 50
 0.00000000000000E+0000
 51
 9.00000000000000E+0001
  0
LINE
  8
0
 10
 7.25688542857143E+0002
 20
 7.97719816071428E+0002
 11
 7.18304158928571E+0002
 21
 7.97719816071428E+0002
  0
LINE
  8
0
 10
 7.18304158928571E+0002
 20
 7.97719816071428E+0002
 11
 7.18304158928571E+0002
 21
 8.18396091071428E+0002
  0
LINE
  8
0
 10
 7.18304158928571E+0002
 20
 8.18396091071428E+0002
 11
 7.25688542857143E+0002
 21
 8.18396091071429E+0002
  0
ARC
  8
0
 10
 7.25688542857143E+0002
 20
 8.30211105357143E+0002
 40
 1.18150142857142E+0001
 50
 2.70000000000000E+0002
 51
 3.60000000000000E+0002
  0
LINE
  8
0
 10
 7.37503557142857E+0002
 20
 8.30211105357143E+0002
 11
 7.37503557142857E+0002
 21
 8.53841133928571E+0002
  0
ARC
  8
0
 10
 7.25688542857143E+0002
 20
 8.53841133928571E+0002
 40
 1.18150142857142E+0001
 50
 0.00000000000000E+0000
 51
 1.80000000000000E+0002
  0
LINE
  8
0
 10
 7.13873528571429E+0002
 20
 8.53841133928571E+0002
 11
 7.13873528571429E+0002
 21
 8.40549242857143E+0002
  0
LINE
  8
0
 10
 7.13873528571429E+0002
 20
 8.40549242857143E+0002
 11
 6.90243500000000E+0002
 21
 8.40549242857143E+0002
  0
LINE
  8
0
 10
 6.90243500000000E+0002
 20
 8.40549242857143E+0002
 11
 6.90243500000000E+0002
 21
 8.53841133928571E+0002
  0
ARC
  8
0
 10
 7.25688542857143E+0002
 20
 8.53841133928571E+0002
 40
 3.54450428571429E+0001
 50
 0.00000000000000E+0000
 51
 1.80000000000000E+0002
  0
LINE
  8
0
 10
 7.61133585714286E+0002
 20
 8.53841133928571E+0002
 11
 7.61133585714286E+0002
 21
 8.31687982142857E+0002
  0
ARC
  8
0
 10
 7.34549803571429E+0002
 20
 8.31687982142857E+0002
 40
 2.65837821428571E+0001
 50
 2.97266000000000E+0002
 51
 3.60000000000000E+0002
  0
LINE
  8
0
 10
 7.46728423206019E+0002
 20
 8.08057944123107E+0002
 11
 7.46728423206019E+0002
 21
 8.08057963019751E+0002
  0
ARC
  8
0
 10
 7.34549803571429E+0002
 20
 7.84427925000000E+0002
 40
 2.65837821428571E+0001
 50
 0.00000000000000E+0000
 51
 6.27340000000000E+0001
  0
LINE
  8
0
 10
 7.61133585714286E+0002
 20
 7.84427925000000E+0002
 11
 7.61133585714286E+0002
 21
 7.56367266071429E+0002
  0
ARC
  8
0
 10
 7.25688542857143E+0002
 20
 7.56367266071429E+0002
 40
 3.54450428571429E+0001
 50
 1.80000000000000E+0002
 51
 3.60000000000000E+0002
  0
LINE
  8
0
 10
 6.90243500000000E+0002
 20
 7.56367266071429E+0002
 11
 6.90243500000000E+0002
 21
 7.69659157142857E+0002
  0
LINE
  8
0
 10
 7.71100000000000E+0002
 20
 7.09947971428571E+0002
 11
 7.71100000000000E+0002
 21
 7.39041671428571E+0002
  0
LINE
  8
0
 10
 7.71100000000000E+0002
 20
 7.39041671428571E+0002
 11
 7.87724971428572E+0002
 21
 7.39041671428571E+0002
  0
LINE
  8
0
 10
 7.87724971428572E+0002
 20
 7.39041671428571E+0002
 11
 7.87724971428572E+0002
 21
 7.22416700000000E+0002
  0
LINE
  8
0
 10
 7.87724971428572E+0002
 20
 7.22416700000000E+0002
 11
 7.71100000000000E+0002
 21
 7.09947971428571E+0002
  0
ARC
  8
0
 10
 8.21653125000000E+0002
 20
 7.99307225000000E+0002
 40
 1.87031250000000E+0001
 50
 1.80000000000000E+0002
 51
 2.36442700000000E+0002
  0
LINE
  8
0
 10
 8.02950000000000E+0002
 20
 7.99307225000000E+0002
 11
 8.02950000000000E+0002
 21
 8.14893162500000E+0002
  0
ARC
  8
0
 10
 8.27887500000000E+0002
 20
 8.14893162500000E+0002
 40
 2.49375000000000E+0001
 50
 0.00000000000000E+0000
 51
 1.80000000000000E+0002
  0
LINE
  8
0
 10
 8.52825000000000E+0002
 20
 8.14893162500000E+0002
 11
 8.52825000000000E+0002
 21
 7.99307225000000E+0002
  0
ARC
  8
0
 10
 8.34121875000000E+0002
 20
 7.99307225000000E+0002
 40
 1.87031250000000E+0001
 50
 3.03557300000000E+0002
 51
 3.60000000000000E+0002
  0
LINE
  8
0
 10
 8.44460413683190E+0002
 20
 7.83721285738544E+0002
 11
 8.44460413683190E+0002
 21
 7.83721289261456E+0002
  0
ARC
  8
0
 10
 8.34121875000000E+0002
 20
 7.68135350000000E+0002
 40
 1.87031250000000E+0001
 50
 0.00000000000000E+0000
 51
 5.64427000000000E+0001
  0
LINE
  8
0
 10
 8.52825000000000E+0002
 20
 7.68135350000000E+0002
 11
 8.52825000000000E+0002
 21
 7.46315037500000E+0002
  0
ARC
  8
0
 10
 8.27887500000000E+0002
 20
 7.46315037500000E+0002
 40
 2.49375000000000E+0001
 50
 1.80000000000000E+0002
 51
 3.60000000000000E+0002
  0
LINE
  8
0
 10
 8.02950000000000E+0002
 20
 7.46315037500000E+0002
 11
 8.02950000000000E+0002
 21
 7.68135350000000E+0002
  0
ARC
  8
0
 10
 8.21653125000000E+0002
 20
 7.68135350000000E+0002
 40
 1.87031250000000E+0001
 50
 1.23557300000000E+0002
 51
 1.80000000000000E+0002
  0
LINE
  8
0
 10
 8.19575000000000E+0002
 20
 7.46315037500000E+0002
 11
 8.19575000000000E+0002
 21
 7.69174412500000E+0002
  0
ARC
  8
0
 10
 8.27887500000000E+0002
 20
 7.69174412500000E+0002
 40
 8.31250000000000E+0000
 50
 0.00000000000000E+0000
 51
 1.80000000000000E+0002
  0
LINE
  8
0
 10
 8.36200000000000E+0002
 20
 7.69174412500000E+0002
 11
 8.36200000000000E+0002
 21
 7.46315037500000E+0002
  0
ARC
  8
0
 10
 8.27887500000000E+0002
 20
 7.46315037500000E+0002
 40
 8.31250000000000E+0000
 50
 1.80000000000000E+0002
 51
 3.60000000000000E+0002
  0
LINE
  8
0
 10
 8.19575000000000E+0002
 20
 7.98268162500000E+0002
 11
 8.19575000000000E+0002
 21
 8.14893162500000E+0002
  0
ARC
  8
0
 10
 8.27887500000000E+0002
 20
 8.14893162500000E+0002
 40
 8.31250000000000E+0000
 50
 0.00000000000000E+0000
 51
 1.80000000000000E+0002
  0
LINE
  8
0
 10
 8.36200000000000E+0002
 20
 8.14893162500000E+0002
 11
 8.36200000000000E+0002
 21
 7.98268162500000E+0002
  0
ARC
  8
0
 10
 8.27887500000000E+0002
 20
 7.98268162500000E+0002
 40
 8.31250000000000E+0000
 50
 1.80000000000000E+0002
 51
 3.60000000000000E+0002
  0
LINE
  8
0
 10
 8.74000000000000E+0002
 20
 7.22416700000000E+0002
 11
 8.74000000000000E+0002
 21
 8.05541700000000E+0002
  0
LINE
  8
0
 10
 8.74000000000000E+0002
 20
 8.05541700000000E+0002
 11
 8.90625000000000E+0002
 21
 8.05541700000000E+0002
  0
LINE
  8
0
 10
 8.90625000000000E+0002
 20
 8.05541700000000E+0002
 11
 8.90625000444548E+0002
 21
 7.97229200833527E+0002
  0
ARC
  8
0
 10
 9.06210937500000E+0002
 20
 7.88916700000000E+0002
 40
 1.76640625000000E+0001
 50
 3.17091900000000E+0001
 51
 1.51927510000000E+0002
  0
LINE
  8
0
 10
 9.21238229131578E+0002
 20
 7.98201074519773E+0002
 11
 9.21238228205465E+0002
 21
 7.98201073195459E+0002
  0
ARC
  8
0
 10
 9.37382812500000E+0002
 20
 7.86838575000000E+0002
 40
 1.97421875000000E+0001
 50
 0.00000000000000E+0000
 51
 1.44862260000000E+0002
  0
LINE
  8
0
 10
 9.57125000000000E+0002
 20
 7.86838575000000E+0002
 11
 9.57125000000000E+0002
 21
 7.22416700000000E+0002
  0
LINE
  8
0
 10
 9.57125000000000E+0002
 20
 7.22416700000000E+0002
 11
 9.40500000000000E+0002
 21
 7.22416700000000E+0002
  0
LINE
  8
0
 10
 9.40500000000000E+0002
 20
 7.22416700000000E+0002
 11
 9.40500000000000E+0002
 21
 7.81643262500000E+0002
  0
ARC
  8
0
 10
 9.32187500000000E+0002
 20
 7.81643262500000E+0002
 40
 8.31250000000000E+0000
 50
 0.00000000000000E+0000
 51
 1.80000000000000E+0002
  0
LINE
  8
0
 10
 9.23875000000000E+0002
 20
 7.81643262500000E+0002
 11
 9.23875000000000E+0002
 21
 7.22416700000000E+0002
  0
LINE
  8
0
 10
 9.23875000000000E+0002
 20
 7.22416700000000E+0002
 11
 9.07250000000000E+0002
 21
 7.22416700000000E+0002
  0
LINE
  8
0
 10
 9.07250000000000E+0002
 20
 7.22416700000000E+0002
 11
 9.07250000000000E+0002
 21
 7.81643262500000E+0002
  0
ARC
  8
0
 10
 8.98937500000000E+0002
 20
 7.81643262500000E+0002
 40
 8.31250000000000E+0000
 50
 0.00000000000000E+0000
 51
 1.80000000000000E+0002
  0
LINE
  8
0
 10
 8.90625000000000E+0002
 20
 7.81643262500000E+0002
 11
 8.90625000000000E+0002
 21
 7.22416700000000E+0002
  0
LINE
  8
0
 10
 8.90625000000000E+0002
 20
 7.22416700000000E+0002
 11
 8.74000000000000E+0002
 21
 7.22416700000000E+0002
  0
ENDSEC
  0
EOF
