  0
SECTION
  2
HEADER
  9
$ACADVER
  1
AC1003
  9
$INSBASE
 10
0.0
 20
0.0
  9
$EXTMIN
 10
 0.00000000000000E+0000
 20
 0.00000000000000E+0000
  9
$EXTMAX
 10
 1.25000000000000E+0003
 20
 1.60000000000000E+0003
  9
$LIMMIN
 10
0.0
 20
0.0
  9
$LIMMAX
 10
410.0
 20
287.0
  9
$VIEWCTR
 10
227.0059616
 20
165.058879 
  9
$VIEWSIZE
 40
 1.60000000000000E+0003
9
$SNAPMODE
70
0
9
$SNAPUNIT
10
1
20
1
9
$GRIDMODE
70
0
9
$GRIDUNIT
10
1
20
1
9
$ORTHOMODE
70
0
9
$rEGENMODE
70
1
9
$FILLMODE
70
1
9
$DRAGMODE
70
2
9
$LTSCALE
40
25.0
9
$OSMODE
70
0
9
$ATTMODE
70
1
9
$TRACEWID
40
1.0
9
$TEXTSTYLE
7
STANDARD
9
$CLAYER
8
0
9
$CELTYPE
6
VONLAYER
9
$CECOLOR
62
256
9
$LUNITS
70
2
9
$LUPREC
70
2
9
$AXISMODE
70
0
9
$AXISUNIT
10
0
20
0
9
$SKETCHINC
40
1.0
9
$FILLETRAD
40
0.0
9
$AUNITS
70
0
9
$AUPREC
70
0
9
$MENU
1
ACAD
9
$ELEVATION
40
0.0
9
$THICKNESS
40
0.0
9
$VIEWDIR
10
0.0
20
0.0
30
1.0
9
$LIMCHECK
70
0
9
$BLIPMODE
70
1
9
$CHAMFERA
40
0.0
9
$CHAMFERB
40
0.0
9
$USRTIMER
70
1
9
$ANGBASE
50
0.0
9
$ANGDIR
70
0
9
$PDMODE
70
0
9
$PDSIZE
40
0.0
9
$PLINEWID
40
0.0
9
$COORDS
70
0
0
ENDSEC
0
SECTION
2
TABLES
0
TABLE
2
LTYPE
70
1
0
LTYPE
2
AUSGEZOGEN
70
64
3
Ausgezogene Linie
72
65
73
0
40
0.0
0
ENDTAB
0
TABLE
2
LAYER
70
1
0
LAYER
2
0
70
0
62
7
6
AUSGEZOGEN
0
ENDTAB
0
TABLE
2
STYLE
70
1
0
STYLE
2
STANDARD
70
0
40
0.0
41
1.0
50
0.0
71
0
42
3.5
3
txt
4

0
ENDTAB
0
TABLE
2
VIEW
70
0
0
ENDTAB
0
ENDSEC
0
SECTION
2
BLOCKS
0
ENDSEC
0
SECTION
2
ENTITIES
  0
ARC
  8
0
 10
 6.00000000000000E+0001
 20
 6.00000000000000E+0001
 40
 6.00000000000000E+0001
 50
 1.80000000000000E+0002
 51
 2.70000000000000E+0002
  0
LINE
  8
0
 10
 0.00000000000000E+0000
 20
 6.00000000000000E+0001
 11
 0.00000000000000E+0000
 21
 1.54000000000000E+0003
  0
ARC
  8
0
 10
 6.00000000000000E+0001
 20
 1.54000000000000E+0003
 40
 6.00000000000000E+0001
 50
 9.00000000000000E+0001
 51
 1.80000000000000E+0002
  0
LINE
  8
0
 10
 6.00000000000000E+0001
 20
 1.60000000000000E+0003
 11
 1.19000000000000E+0003
 21
 1.60000000000000E+0003
  0
ARC
  8
0
 10
 1.19000000000000E+0003
 20
 1.54000000000000E+0003
 40
 6.00000000000000E+0001
 50
 0.00000000000000E+0000
 51
 9.00000000000000E+0001
  0
LINE
  8
0
 10
 1.25000000000000E+0003
 20
 1.54000000000000E+0003
 11
 1.25000000000000E+0003
 21
 6.00000000000000E+0001
  0
ARC
  8
0
 10
 1.19000000000000E+0003
 20
 6.00000000000000E+0001
 40
 6.00000000000000E+0001
 50
 2.70000000000000E+0002
 51
 3.60000000000000E+0002
  0
LINE
  8
0
 10
 1.19000000000000E+0003
 20
 0.00000000000000E+0000
 11
 6.00000000000000E+0001
 21
 0.00000000000000E+0000
  0
ARC
  8
0
 10
 6.00000000000000E+0001
 20
 6.00000000000000E+0001
 40
 4.50000000000000E+0001
 50
 1.80000000000000E+0002
 51
 2.70000000000000E+0002
  0
LINE
  8
0
 10
 1.50000000000000E+0001
 20
 6.00000000000000E+0001
 11
 1.50000000000000E+0001
 21
 1.54000000000000E+0003
  0
ARC
  8
0
 10
 6.00000000000000E+0001
 20
 1.54000000000000E+0003
 40
 4.50000000000000E+0001
 50
 9.00000000000000E+0001
 51
 1.80000000000000E+0002
  0
LINE
  8
0
 10
 6.00000000000000E+0001
 20
 1.58500000000000E+0003
 11
 1.19000000000000E+0003
 21
 1.58500000000000E+0003
  0
ARC
  8
0
 10
 1.19000000000000E+0003
 20
 1.54000000000000E+0003
 40
 4.50000000000000E+0001
 50
 0.00000000000000E+0000
 51
 9.00000000000000E+0001
  0
LINE
  8
0
 10
 1.23500000000000E+0003
 20
 1.54000000000000E+0003
 11
 1.23500000000000E+0003
 21
 6.00000000000000E+0001
  0
ARC
  8
0
 10
 1.19000000000000E+0003
 20
 6.00000000000000E+0001
 40
 4.50000000000000E+0001
 50
 2.70000000000000E+0002
 51
 3.60000000000000E+0002
  0
LINE
  8
0
 10
 1.19000000000000E+0003
 20
 1.50000000000000E+0001
 11
 6.00000000000000E+0001
 21
 1.50000000000000E+0001
  0
ARC
  8
0
 10
 6.00000000000000E+0001
 20
 6.00000000000000E+0001
 40
 2.50000000000000E+0001
 50
 1.80000000000000E+0002
 51
 2.70000000000000E+0002
  0
LINE
  8
0
 10
 3.50000000000000E+0001
 20
 6.00000000000000E+0001
 11
 3.50000000000000E+0001
 21
 1.54000000000000E+0003
  0
ARC
  8
0
 10
 6.00000000000000E+0001
 20
 1.54000000000000E+0003
 40
 2.50000000000000E+0001
 50
 9.00000000000000E+0001
 51
 1.80000000000000E+0002
  0
LINE
  8
0
 10
 6.00000000000000E+0001
 20
 1.56500000000000E+0003
 11
 1.19000000000000E+0003
 21
 1.56500000000000E+0003
  0
ARC
  8
0
 10
 1.19000000000000E+0003
 20
 1.54000000000000E+0003
 40
 2.50000000000000E+0001
 50
 0.00000000000000E+0000
 51
 9.00000000000000E+0001
  0
LINE
  8
0
 10
 1.21500000000000E+0003
 20
 1.54000000000000E+0003
 11
 1.21500000000000E+0003
 21
 6.00000000000000E+0001
  0
ARC
  8
0
 10
 1.19000000000000E+0003
 20
 6.00000000000000E+0001
 40
 2.50000000000000E+0001
 50
 2.70000000000000E+0002
 51
 3.60000000000000E+0002
  0
LINE
  8
0
 10
 1.19000000000000E+0003
 20
 3.50000000000000E+0001
 11
 6.00000000000000E+0001
 21
 3.50000000000000E+0001
  0
LINE
  8
0
 10
 2.20000000000000E+0002
 20
 1.30700000000000E+0003
 11
 1.74999490553610E+0002
 21
 1.29538091843480E+0003
  0
ARC
  8
0
 10
 1.72000000000000E+0002
 20
 1.30700000000000E+0003
 40
 1.20000000000000E+0001
 50
 1.46195000000000E+0002
 51
 2.84475000000000E+0002
  0
LINE
  8
0
 10
 1.62028768958083E+0002
 20
 1.31367641756549E+0003
 11
 2.50000000000000E+0002
 21
 1.44500000000000E+0003
  0
LINE
  8
0
 10
 2.50000000000000E+0002
 20
 1.44500000000000E+0003
 11
 3.37971231041916E+0002
 21
 1.31367641756549E+0003
  0
ARC
  8
0
 10
 3.28000000000000E+0002
 20
 1.30700000000000E+0003
 40
 1.20000000000000E+0001
 50
 2.55525000000000E+0002
 51
 3.93805000000000E+0002
  0
LINE
  8
0
 10
 3.25000509446390E+0002
 20
 1.29538091843480E+0003
 11
 2.80000000000000E+0002
 21
 1.30700000000000E+0003
  0
LINE
  8
0
 10
 2.80000000000000E+0002
 20
 1.30700000000000E+0003
 11
 2.80000000000000E+0002
 21
 1.55000000000000E+0002
  0
LINE
  8
0
 10
 2.80000000000000E+0002
 20
 1.55000000000000E+0002
 11
 2.20000000000000E+0002
 21
 1.55000000000000E+0002
  0
LINE
  8
0
 10
 2.20000000000000E+0002
 20
 1.55000000000000E+0002
 11
 2.20000000000000E+0002
 21
 1.30700000000000E+0003
  0
LINE
  8
0
 10
 5.60000000000000E+0002
 20
 1.30700000000000E+0003
 11
 5.14999490553610E+0002
 21
 1.29538091843480E+0003
  0
ARC
  8
0
 10
 5.12000000000000E+0002
 20
 1.30700000000000E+0003
 40
 1.20000000000000E+0001
 50
 1.46195000000000E+0002
 51
 2.84475000000000E+0002
  0
LINE
  8
0
 10
 5.02028768958084E+0002
 20
 1.31367641756549E+0003
 11
 5.90000000000000E+0002
 21
 1.44500000000000E+0003
  0
LINE
  8
0
 10
 5.90000000000000E+0002
 20
 1.44500000000000E+0003
 11
 6.77971231041917E+0002
 21
 1.31367641756549E+0003
  0
ARC
  8
0
 10
 6.68000000000000E+0002
 20
 1.30700000000000E+0003
 40
 1.20000000000000E+0001
 50
 2.55525000000000E+0002
 51
 3.93805000000000E+0002
  0
LINE
  8
0
 10
 6.65000509446390E+0002
 20
 1.29538091843480E+0003
 11
 6.20000000000000E+0002
 21
 1.30700000000000E+0003
  0
LINE
  8
0
 10
 6.20000000000000E+0002
 20
 1.30700000000000E+0003
 11
 6.19990627553650E+0002
 21
 1.19542882912159E+0003
  0
ARC
  8
0
 10
 5.90000000000000E+0002
 20
 9.49400000000000E+0002
 40
 2.47850000000000E+0002
 50
 8.30500000000000E+0001
 51
 9.69500000000000E+0001
  0
LINE
  8
0
 10
 5.60009372446350E+0002
 20
 1.19542882912159E+0003
 11
 5.60000000000000E+0002
 21
 1.30700000000000E+0003
  0
LINE
  8
0
 10
 6.20000000000000E+0002
 20
 7.09078200000000E+0002
 11
 6.20000000000000E+0002
 21
 1.55000000000000E+0002
  0
LINE
  8
0
 10
 6.20000000000000E+0002
 20
 1.55000000000000E+0002
 11
 5.60000000000000E+0002
 21
 1.55000000000000E+0002
  0
LINE
  8
0
 10
 5.60000000000000E+0002
 20
 1.55000000000000E+0002
 11
 5.60009372446350E+0002
 21
 7.09071170878415E+0002
  0
ARC
  8
0
 10
 5.90000000000000E+0002
 20
 9.55100000000000E+0002
 40
 2.47850000000000E+0002
 50
 2.63050000000000E+0002
 51
 2.76950000000000E+0002
  0
LINE
  8
0
 10
 9.00000000000000E+0002
 20
 1.30700000000000E+0003
 11
 8.54999490553610E+0002
 21
 1.29538091843480E+0003
  0
ARC
  8
0
 10
 8.52000000000000E+0002
 20
 1.30700000000000E+0003
 40
 1.20000000000000E+0001
 50
 1.46195000000000E+0002
 51
 2.84475000000000E+0002
  0
LINE
  8
0
 10
 8.42028768958083E+0002
 20
 1.31367641756549E+0003
 11
 9.30000000000000E+0002
 21
 1.44500000000000E+0003
  0
LINE
  8
0
 10
 9.30000000000000E+0002
 20
 1.44500000000000E+0003
 11
 1.01797123104191E+0003
 21
 1.31367641756549E+0003
  0
ARC
  8
0
 10
 1.00800000000000E+0003
 20
 1.30700000000000E+0003
 40
 1.20000000000000E+0001
 50
 2.55525000000000E+0002
 51
 3.93805000000000E+0002
  0
LINE
  8
0
 10
 1.00500050944639E+0003
 20
 1.29538091843480E+0003
 11
 9.60000000000000E+0002
 21
 1.30700000000000E+0003
  0
LINE
  8
0
 10
 9.60000000000000E+0002
 20
 1.30700000000000E+0003
 11
 9.59990627553650E+0002
 21
 7.68178829121585E+0002
  0
ARC
  8
0
 10
 9.30000000000000E+0002
 20
 5.22150000000000E+0002
 40
 2.47850000000000E+0002
 50
 8.30500000000000E+0001
 51
 9.69500000000000E+0001
  0
LINE
  8
0
 10
 9.00009372446350E+0002
 20
 7.68178829121585E+0002
 11
 9.00000000000000E+0002
 21
 1.30700000000000E+0003
  0
LINE
  8
0
 10
 9.60000000000000E+0002
 20
 2.81828200000000E+0002
 11
 9.60000000000000E+0002
 21
 1.55000000000000E+0002
  0
LINE
  8
0
 10
 9.60000000000000E+0002
 20
 1.55000000000000E+0002
 11
 9.00000000000000E+0002
 21
 1.55000000000000E+0002
  0
LINE
  8
0
 10
 9.00000000000000E+0002
 20
 1.55000000000000E+0002
 11
 9.00009372446350E+0002
 21
 2.81821170878415E+0002
  0
ARC
  8
0
 10
 9.30000000000000E+0002
 20
 5.27850000000000E+0002
 40
 2.47850000000000E+0002
 50
 2.63050000000000E+0002
 51
 2.76950000000000E+0002
  0
CIRCLE
  8
0
 10
 5.90000000000000E+0002
 20
 9.52250000000000E+0002
 40
 2.32750000000000E+0002
  0
CIRCLE
  8
0
 10
 5.90000000000000E+0002
 20
 9.52250000000000E+0002
 40
 1.71500000000000E+0002
  0
LINE
  8
0
 10
 5.90000000000000E+0002
 20
 8.28829000000000E+0002
 11
 5.29417898129367E+0002
 21
 7.94428228900648E+0002
  0
ARC
  8
0
 10
 5.90000000000000E+0002
 20
 9.52250000000000E+0002
 40
 1.69050000000000E+0002
 50
 2.49000000000000E+0002
 51
 2.91000000000000E+0002
  0
LINE
  8
0
 10
 6.50582101870633E+0002
 20
 7.94428228900648E+0002
 11
 5.90000000000000E+0002
 21
 8.28829000000000E+0002
  0
LINE
  8
0
 10
 5.90000000000000E+0002
 20
 1.07567100000000E+0003
 11
 5.29417898129367E+0002
 21
 1.11007177109935E+0003
  0
ARC
  8
0
 10
 5.90000000000000E+0002
 20
 9.52250000000000E+0002
 40
 1.69050000000000E+0002
 50
 6.90000000000000E+0001
 51
 1.11000000000000E+0002
  0
LINE
  8
0
 10
 6.50582101870633E+0002
 20
 1.11007177109935E+0003
 11
 5.90000000000000E+0002
 21
 1.07567100000000E+0003
  0
LINE
  8
0
 10
 4.55243500000000E+0002
 20
 9.21909157142857E+0002
 11
 4.78873528571429E+0002
 21
 9.21909157142857E+0002
  0
LINE
  8
0
 10
 4.78873528571429E+0002
 20
 9.21909157142857E+0002
 11
 4.78873528571428E+0002
 21
 9.08617266071429E+0002
  0
ARC
  8
0
 10
 4.90688542857143E+0002
 20
 9.08617266071429E+0002
 40
 1.18150142857142E+0001
 50
 1.80000000000000E+0002
 51
 3.60000000000000E+0002
  0
LINE
  8
0
 10
 5.02503557142857E+0002
 20
 9.08617266071429E+0002
 11
 5.02503557142857E+0002
 21
 9.38154801785714E+0002
  0
ARC
  8
0
 10
 4.90688542857143E+0002
 20
 9.38154801785714E+0002
 40
 1.18150142857142E+0001
 50
 0.00000000000000E+0000
 51
 9.00000000000000E+0001
  0
LINE
  8
0
 10
 4.90688542857143E+0002
 20
 9.49969816071429E+0002
 11
 4.83304158928571E+0002
 21
 9.49969816071429E+0002
  0
LINE
  8
0
 10
 4.83304158928571E+0002
 20
 9.49969816071429E+0002
 11
 4.83304158928571E+0002
 21
 9.70646091071429E+0002
  0
LINE
  8
0
 10
 4.83304158928571E+0002
 20
 9.70646091071429E+0002
 11
 4.90688542857143E+0002
 21
 9.70646091071429E+0002
  0
ARC
  8
0
 10
 4.90688542857143E+0002
 20
 9.82461105357143E+0002
 40
 1.18150142857142E+0001
 50
 2.70000000000000E+0002
 51
 3.60000000000000E+0002
  0
LINE
  8
0
 10
 5.02503557142857E+0002
 20
 9.82461105357143E+0002
 11
 5.02503557142857E+0002
 21
 1.00609113392857E+0003
  0
ARC
  8
0
 10
 4.90688542857143E+0002
 20
 1.00609113392857E+0003
 40
 1.18150142857142E+0001
 50
 0.00000000000000E+0000
 51
 1.80000000000000E+0002
  0
LINE
  8
0
 10
 4.78873528571428E+0002
 20
 1.00609113392857E+0003
 11
 4.78873528571429E+0002
 21
 9.92799242857143E+0002
  0
LINE
  8
0
 10
 4.78873528571429E+0002
 20
 9.92799242857143E+0002
 11
 4.55243500000000E+0002
 21
 9.92799242857143E+0002
  0
LINE
  8
0
 10
 4.55243500000000E+0002
 20
 9.92799242857143E+0002
 11
 4.55243500000000E+0002
 21
 1.00609113392857E+0003
  0
ARC
  8
0
 10
 4.90688542857143E+0002
 20
 1.00609113392857E+0003
 40
 3.54450428571429E+0001
 50
 0.00000000000000E+0000
 51
 1.80000000000000E+0002
  0
LINE
  8
0
 10
 5.26133585714286E+0002
 20
 1.00609113392857E+0003
 11
 5.26133585714286E+0002
 21
 9.83937982142857E+0002
  0
ARC
  8
0
 10
 4.99549803571429E+0002
 20
 9.83937982142857E+0002
 40
 2.65837821428571E+0001
 50
 2.97266000000000E+0002
 51
 3.60000000000000E+0002
  0
LINE
  8
0
 10
 5.11728423206019E+0002
 20
 9.60307944123107E+0002
 11
 5.11728423206019E+0002
 21
 9.60307963019751E+0002
  0
ARC
  8
0
 10
 4.99549803571429E+0002
 20
 9.36677925000000E+0002
 40
 2.65837821428571E+0001
 50
 0.00000000000000E+0000
 51
 6.27340000000000E+0001
  0
LINE
  8
0
 10
 5.26133585714286E+0002
 20
 9.36677925000000E+0002
 11
 5.26133585714286E+0002
 21
 9.08617266071429E+0002
  0
ARC
  8
0
 10
 4.90688542857143E+0002
 20
 9.08617266071429E+0002
 40
 3.54450428571429E+0001
 50
 1.80000000000000E+0002
 51
 3.60000000000000E+0002
  0
LINE
  8
0
 10
 4.55243500000000E+0002
 20
 9.08617266071429E+0002
 11
 4.55243500000000E+0002
 21
 9.21909157142857E+0002
  0
LINE
  8
0
 10
 5.36100000000000E+0002
 20
 8.62197971428571E+0002
 11
 5.36100000000000E+0002
 21
 8.91291671428571E+0002
  0
LINE
  8
0
 10
 5.36100000000000E+0002
 20
 8.91291671428571E+0002
 11
 5.52724971428571E+0002
 21
 8.91291671428571E+0002
  0
LINE
  8
0
 10
 5.52724971428571E+0002
 20
 8.91291671428571E+0002
 11
 5.52724971428571E+0002
 21
 8.74666700000000E+0002
  0
LINE
  8
0
 10
 5.52724971428571E+0002
 20
 8.74666700000000E+0002
 11
 5.36100000000000E+0002
 21
 8.62197971428571E+0002
  0
ARC
  8
0
 10
 5.86653125000000E+0002
 20
 9.51557225000000E+0002
 40
 1.87031250000000E+0001
 50
 1.80000000000000E+0002
 51
 2.36442700000000E+0002
  0
LINE
  8
0
 10
 5.67950000000000E+0002
 20
 9.51557225000000E+0002
 11
 5.67950000000000E+0002
 21
 9.67143162500000E+0002
  0
ARC
  8
0
 10
 5.92887500000000E+0002
 20
 9.67143162500000E+0002
 40
 2.49375000000000E+0001
 50
 0.00000000000000E+0000
 51
 1.80000000000000E+0002
  0
LINE
  8
0
 10
 6.17825000000000E+0002
 20
 9.67143162500000E+0002
 11
 6.17825000000000E+0002
 21
 9.51557225000000E+0002
  0
ARC
  8
0
 10
 5.99121875000000E+0002
 20
 9.51557225000000E+0002
 40
 1.87031250000000E+0001
 50
 3.03557300000000E+0002
 51
 3.60000000000000E+0002
  0
LINE
  8
0
 10
 6.09460413683190E+0002
 20
 9.35971285738544E+0002
 11
 6.09460413683190E+0002
 21
 9.35971289261456E+0002
  0
ARC
  8
0
 10
 5.99121875000000E+0002
 20
 9.20385350000000E+0002
 40
 1.87031250000000E+0001
 50
 0.00000000000000E+0000
 51
 5.64427000000000E+0001
  0
LINE
  8
0
 10
 6.17825000000000E+0002
 20
 9.20385350000000E+0002
 11
 6.17825000000000E+0002
 21
 8.98565037500000E+0002
  0
ARC
  8
0
 10
 5.92887500000000E+0002
 20
 8.98565037500000E+0002
 40
 2.49375000000000E+0001
 50
 1.80000000000000E+0002
 51
 3.60000000000000E+0002
  0
LINE
  8
0
 10
 5.67950000000000E+0002
 20
 8.98565037500000E+0002
 11
 5.67950000000000E+0002
 21
 9.20385350000000E+0002
  0
ARC
  8
0
 10
 5.86653125000000E+0002
 20
 9.20385350000000E+0002
 40
 1.87031250000000E+0001
 50
 1.23557300000000E+0002
 51
 1.80000000000000E+0002
  0
LINE
  8
0
 10
 5.84575000000000E+0002
 20
 8.98565037500000E+0002
 11
 5.84575000000000E+0002
 21
 9.21424412500000E+0002
  0
ARC
  8
0
 10
 5.92887500000000E+0002
 20
 9.21424412500000E+0002
 40
 8.31250000000000E+0000
 50
 0.00000000000000E+0000
 51
 1.80000000000000E+0002
  0
LINE
  8
0
 10
 6.01200000000000E+0002
 20
 9.21424412500000E+0002
 11
 6.01200000000000E+0002
 21
 8.98565037500000E+0002
  0
ARC
  8
0
 10
 5.92887500000000E+0002
 20
 8.98565037500000E+0002
 40
 8.31250000000000E+0000
 50
 1.80000000000000E+0002
 51
 3.60000000000000E+0002
  0
LINE
  8
0
 10
 5.84575000000000E+0002
 20
 9.50518162500000E+0002
 11
 5.84575000000000E+0002
 21
 9.67143162500000E+0002
  0
ARC
  8
0
 10
 5.92887500000000E+0002
 20
 9.67143162500000E+0002
 40
 8.31250000000000E+0000
 50
 0.00000000000000E+0000
 51
 1.80000000000000E+0002
  0
LINE
  8
0
 10
 6.01200000000000E+0002
 20
 9.67143162500000E+0002
 11
 6.01200000000000E+0002
 21
 9.50518162500000E+0002
  0
ARC
  8
0
 10
 5.92887500000000E+0002
 20
 9.50518162500000E+0002
 40
 8.31250000000000E+0000
 50
 1.80000000000000E+0002
 51
 3.60000000000000E+0002
  0
LINE
  8
0
 10
 6.39000000000000E+0002
 20
 8.74666700000000E+0002
 11
 6.39000000000000E+0002
 21
 9.57791700000000E+0002
  0
LINE
  8
0
 10
 6.39000000000000E+0002
 20
 9.57791700000000E+0002
 11
 6.55625000000000E+0002
 21
 9.57791700000000E+0002
  0
LINE
  8
0
 10
 6.55625000000000E+0002
 20
 9.57791700000000E+0002
 11
 6.55625000444548E+0002
 21
 9.49479200833527E+0002
  0
ARC
  8
0
 10
 6.71210937500000E+0002
 20
 9.41166700000000E+0002
 40
 1.76640625000000E+0001
 50
 3.17091900000000E+0001
 51
 1.51927510000000E+0002
  0
LINE
  8
0
 10
 6.86238229131578E+0002
 20
 9.50451074519773E+0002
 11
 6.86238228205465E+0002
 21
 9.50451073195459E+0002
  0
ARC
  8
0
 10
 7.02382812500000E+0002
 20
 9.39088575000000E+0002
 40
 1.97421875000000E+0001
 50
 0.00000000000000E+0000
 51
 1.44862260000000E+0002
  0
LINE
  8
0
 10
 7.22125000000000E+0002
 20
 9.39088575000000E+0002
 11
 7.22125000000000E+0002
 21
 8.74666700000000E+0002
  0
LINE
  8
0
 10
 7.22125000000000E+0002
 20
 8.74666700000000E+0002
 11
 7.05500000000000E+0002
 21
 8.74666700000000E+0002
  0
LINE
  8
0
 10
 7.05500000000000E+0002
 20
 8.74666700000000E+0002
 11
 7.05500000000000E+0002
 21
 9.33893262500000E+0002
  0
ARC
  8
0
 10
 6.97187500000000E+0002
 20
 9.33893262500000E+0002
 40
 8.31250000000000E+0000
 50
 0.00000000000000E+0000
 51
 1.80000000000000E+0002
  0
LINE
  8
0
 10
 6.88875000000000E+0002
 20
 9.33893262500000E+0002
 11
 6.88875000000000E+0002
 21
 8.74666700000000E+0002
  0
LINE
  8
0
 10
 6.88875000000000E+0002
 20
 8.74666700000000E+0002
 11
 6.72250000000000E+0002
 21
 8.74666700000000E+0002
  0
LINE
  8
0
 10
 6.72250000000000E+0002
 20
 8.74666700000000E+0002
 11
 6.72250000000000E+0002
 21
 9.33893262500000E+0002
  0
ARC
  8
0
 10
 6.63937500000000E+0002
 20
 9.33893262500000E+0002
 40
 8.31250000000000E+0000
 50
 0.00000000000000E+0000
 51
 1.80000000000000E+0002
  0
LINE
  8
0
 10
 6.55625000000000E+0002
 20
 9.33893262500000E+0002
 11
 6.55625000000000E+0002
 21
 8.74666700000000E+0002
  0
LINE
  8
0
 10
 6.55625000000000E+0002
 20
 8.74666700000000E+0002
 11
 6.39000000000000E+0002
 21
 8.74666700000000E+0002
  0
CIRCLE
  8
0
 10
 9.30000000000000E+0002
 20
 5.25000000000000E+0002
 40
 2.32750000000000E+0002
  0
CIRCLE
  8
0
 10
 9.30000000000000E+0002
 20
 5.25000000000000E+0002
 40
 1.71500000000000E+0002
  0
LINE
  8
0
 10
 9.30000000000000E+0002
 20
 4.01579000000000E+0002
 11
 8.69417898129367E+0002
 21
 3.67178228900648E+0002
  0
ARC
  8
0
 10
 9.30000000000000E+0002
 20
 5.25000000000000E+0002
 40
 1.69050000000000E+0002
 50
 2.49000000000000E+0002
 51
 2.91000000000000E+0002
  0
LINE
  8
0
 10
 9.90582101870633E+0002
 20
 3.67178228900648E+0002
 11
 9.30000000000000E+0002
 21
 4.01579000000000E+0002
  0
LINE
  8
0
 10
 9.30000000000000E+0002
 20
 6.48421000000000E+0002
 11
 8.69417898129367E+0002
 21
 6.82821771099352E+0002
  0
ARC
  8
0
 10
 9.30000000000000E+0002
 20
 5.25000000000000E+0002
 40
 1.69050000000000E+0002
 50
 6.90000000000000E+0001
 51
 1.11000000000000E+0002
  0
LINE
  8
0
 10
 9.90582101870633E+0002
 20
 6.82821771099352E+0002
 11
 9.30000000000000E+0002
 21
 6.48421000000000E+0002
  0
LINE
  8
0
 10
 7.95243500000000E+0002
 20
 4.94659157142857E+0002
 11
 8.18873528571429E+0002
 21
 4.94659157142857E+0002
  0
LINE
  8
0
 10
 8.18873528571429E+0002
 20
 4.94659157142857E+0002
 11
 8.18873528571429E+0002
 21
 4.81367266071429E+0002
  0
ARC
  8
0
 10
 8.30688542857143E+0002
 20
 4.81367266071429E+0002
 40
 1.18150142857142E+0001
 50
 1.80000000000000E+0002
 51
 3.60000000000000E+0002
  0
LINE
  8
0
 10
 8.42503557142857E+0002
 20
 4.81367266071429E+0002
 11
 8.42503557142857E+0002
 21
 5.10904801785714E+0002
  0
ARC
  8
0
 10
 8.30688542857143E+0002
 20
 5.10904801785714E+0002
 40
 1.18150142857142E+0001
 50
 0.00000000000000E+0000
 51
 9.00000000000000E+0001
  0
LINE
  8
0
 10
 8.30688542857143E+0002
 20
 5.22719816071429E+0002
 11
 8.23304158928571E+0002
 21
 5.22719816071429E+0002
  0
LINE
  8
0
 10
 8.23304158928571E+0002
 20
 5.22719816071429E+0002
 11
 8.23304158928571E+0002
 21
 5.43396091071429E+0002
  0
LINE
  8
0
 10
 8.23304158928571E+0002
 20
 5.43396091071429E+0002
 11
 8.30688542857143E+0002
 21
 5.43396091071429E+0002
  0
ARC
  8
0
 10
 8.30688542857143E+0002
 20
 5.55211105357143E+0002
 40
 1.18150142857142E+0001
 50
 2.70000000000000E+0002
 51
 3.60000000000000E+0002
  0
LINE
  8
0
 10
 8.42503557142857E+0002
 20
 5.55211105357143E+0002
 11
 8.42503557142857E+0002
 21
 5.78841133928571E+0002
  0
ARC
  8
0
 10
 8.30688542857143E+0002
 20
 5.78841133928571E+0002
 40
 1.18150142857142E+0001
 50
 0.00000000000000E+0000
 51
 1.80000000000000E+0002
  0
LINE
  8
0
 10
 8.18873528571429E+0002
 20
 5.78841133928571E+0002
 11
 8.18873528571429E+0002
 21
 5.65549242857143E+0002
  0
LINE
  8
0
 10
 8.18873528571429E+0002
 20
 5.65549242857143E+0002
 11
 7.95243500000000E+0002
 21
 5.65549242857143E+0002
  0
LINE
  8
0
 10
 7.95243500000000E+0002
 20
 5.65549242857143E+0002
 11
 7.95243500000000E+0002
 21
 5.78841133928571E+0002
  0
ARC
  8
0
 10
 8.30688542857143E+0002
 20
 5.78841133928571E+0002
 40
 3.54450428571429E+0001
 50
 0.00000000000000E+0000
 51
 1.80000000000000E+0002
  0
LINE
  8
0
 10
 8.66133585714286E+0002
 20
 5.78841133928571E+0002
 11
 8.66133585714286E+0002
 21
 5.56687982142857E+0002
  0
ARC
  8
0
 10
 8.39549803571429E+0002
 20
 5.56687982142857E+0002
 40
 2.65837821428571E+0001
 50
 2.97266000000000E+0002
 51
 3.60000000000000E+0002
  0
LINE
  8
0
 10
 8.51728423206019E+0002
 20
 5.33057944123106E+0002
 11
 8.51728423206019E+0002
 21
 5.33057963019751E+0002
  0
ARC
  8
0
 10
 8.39549803571429E+0002
 20
 5.09427925000000E+0002
 40
 2.65837821428571E+0001
 50
 0.00000000000000E+0000
 51
 6.27340000000000E+0001
  0
LINE
  8
0
 10
 8.66133585714286E+0002
 20
 5.09427925000000E+0002
 11
 8.66133585714286E+0002
 21
 4.81367266071429E+0002
  0
ARC
  8
0
 10
 8.30688542857143E+0002
 20
 4.81367266071429E+0002
 40
 3.54450428571429E+0001
 50
 1.80000000000000E+0002
 51
 3.60000000000000E+0002
  0
LINE
  8
0
 10
 7.95243500000000E+0002
 20
 4.81367266071429E+0002
 11
 7.95243500000000E+0002
 21
 4.94659157142857E+0002
  0
LINE
  8
0
 10
 8.76100000000000E+0002
 20
 4.34947971428571E+0002
 11
 8.76100000000000E+0002
 21
 4.64041671428571E+0002
  0
LINE
  8
0
 10
 8.76100000000000E+0002
 20
 4.64041671428571E+0002
 11
 8.92724971428572E+0002
 21
 4.64041671428571E+0002
  0
LINE
  8
0
 10
 8.92724971428572E+0002
 20
 4.64041671428571E+0002
 11
 8.92724971428572E+0002
 21
 4.47416700000000E+0002
  0
LINE
  8
0
 10
 8.92724971428572E+0002
 20
 4.47416700000000E+0002
 11
 8.76100000000000E+0002
 21
 4.34947971428571E+0002
  0
ARC
  8
0
 10
 9.26653125000000E+0002
 20
 5.24307225000000E+0002
 40
 1.87031250000000E+0001
 50
 1.80000000000000E+0002
 51
 2.36442700000000E+0002
  0
LINE
  8
0
 10
 9.07950000000000E+0002
 20
 5.24307225000000E+0002
 11
 9.07950000000000E+0002
 21
 5.39893162500000E+0002
  0
ARC
  8
0
 10
 9.32887500000000E+0002
 20
 5.39893162500000E+0002
 40
 2.49375000000000E+0001
 50
 0.00000000000000E+0000
 51
 1.80000000000000E+0002
  0
LINE
  8
0
 10
 9.57825000000000E+0002
 20
 5.39893162500000E+0002
 11
 9.57825000000000E+0002
 21
 5.24307225000000E+0002
  0
ARC
  8
0
 10
 9.39121875000000E+0002
 20
 5.24307225000000E+0002
 40
 1.87031250000000E+0001
 50
 3.03557300000000E+0002
 51
 3.60000000000000E+0002
  0
LINE
  8
0
 10
 9.49460413683190E+0002
 20
 5.08721285738544E+0002
 11
 9.49460413683190E+0002
 21
 5.08721289261456E+0002
  0
ARC
  8
0
 10
 9.39121875000000E+0002
 20
 4.93135350000000E+0002
 40
 1.87031250000000E+0001
 50
 0.00000000000000E+0000
 51
 5.64427000000000E+0001
  0
LINE
  8
0
 10
 9.57825000000000E+0002
 20
 4.93135350000000E+0002
 11
 9.57825000000000E+0002
 21
 4.71315037500000E+0002
  0
ARC
  8
0
 10
 9.32887500000000E+0002
 20
 4.71315037500000E+0002
 40
 2.49375000000000E+0001
 50
 1.80000000000000E+0002
 51
 3.60000000000000E+0002
  0
LINE
  8
0
 10
 9.07950000000000E+0002
 20
 4.71315037500000E+0002
 11
 9.07950000000000E+0002
 21
 4.93135350000000E+0002
  0
ARC
  8
0
 10
 9.26653125000000E+0002
 20
 4.93135350000000E+0002
 40
 1.87031250000000E+0001
 50
 1.23557300000000E+0002
 51
 1.80000000000000E+0002
  0
LINE
  8
0
 10
 9.24575000000000E+0002
 20
 4.71315037500000E+0002
 11
 9.24575000000000E+0002
 21
 4.94174412500000E+0002
  0
ARC
  8
0
 10
 9.32887500000000E+0002
 20
 4.94174412500000E+0002
 40
 8.31250000000000E+0000
 50
 0.00000000000000E+0000
 51
 1.80000000000000E+0002
  0
LINE
  8
0
 10
 9.41200000000000E+0002
 20
 4.94174412500000E+0002
 11
 9.41200000000000E+0002
 21
 4.71315037500000E+0002
  0
ARC
  8
0
 10
 9.32887500000000E+0002
 20
 4.71315037500000E+0002
 40
 8.31250000000000E+0000
 50
 1.80000000000000E+0002
 51
 3.60000000000000E+0002
  0
LINE
  8
0
 10
 9.24575000000000E+0002
 20
 5.23268162500000E+0002
 11
 9.24575000000000E+0002
 21
 5.39893162500000E+0002
  0
ARC
  8
0
 10
 9.32887500000000E+0002
 20
 5.39893162500000E+0002
 40
 8.31250000000000E+0000
 50
 0.00000000000000E+0000
 51
 1.80000000000000E+0002
  0
LINE
  8
0
 10
 9.41200000000000E+0002
 20
 5.39893162500000E+0002
 11
 9.41200000000000E+0002
 21
 5.23268162500000E+0002
  0
ARC
  8
0
 10
 9.32887500000000E+0002
 20
 5.23268162500000E+0002
 40
 8.31250000000000E+0000
 50
 1.80000000000000E+0002
 51
 3.60000000000000E+0002
  0
LINE
  8
0
 10
 9.79000000000000E+0002
 20
 4.47416700000000E+0002
 11
 9.79000000000000E+0002
 21
 5.30541700000000E+0002
  0
LINE
  8
0
 10
 9.79000000000000E+0002
 20
 5.30541700000000E+0002
 11
 9.95625000000000E+0002
 21
 5.30541700000000E+0002
  0
LINE
  8
0
 10
 9.95625000000000E+0002
 20
 5.30541700000000E+0002
 11
 9.95625000444548E+0002
 21
 5.22229200833527E+0002
  0
ARC
  8
0
 10
 1.01121093750000E+0003
 20
 5.13916700000000E+0002
 40
 1.76640625000000E+0001
 50
 3.17091900000000E+0001
 51
 1.51927510000000E+0002
  0
LINE
  8
0
 10
 1.02623822913158E+0003
 20
 5.23201074519773E+0002
 11
 1.02623822820547E+0003
 21
 5.23201073195459E+0002
  0
ARC
  8
0
 10
 1.04238281250000E+0003
 20
 5.11838575000000E+0002
 40
 1.97421875000000E+0001
 50
 0.00000000000000E+0000
 51
 1.44862260000000E+0002
  0
LINE
  8
0
 10
 1.06212500000000E+0003
 20
 5.11838575000000E+0002
 11
 1.06212500000000E+0003
 21
 4.47416700000000E+0002
  0
LINE
  8
0
 10
 1.06212500000000E+0003
 20
 4.47416700000000E+0002
 11
 1.04550000000000E+0003
 21
 4.47416700000000E+0002
  0
LINE
  8
0
 10
 1.04550000000000E+0003
 20
 4.47416700000000E+0002
 11
 1.04550000000000E+0003
 21
 5.06643262500000E+0002
  0
ARC
  8
0
 10
 1.03718750000000E+0003
 20
 5.06643262500000E+0002
 40
 8.31250000000000E+0000
 50
 0.00000000000000E+0000
 51
 1.80000000000000E+0002
  0
LINE
  8
0
 10
 1.02887500000000E+0003
 20
 5.06643262500000E+0002
 11
 1.02887500000000E+0003
 21
 4.47416700000000E+0002
  0
LINE
  8
0
 10
 1.02887500000000E+0003
 20
 4.47416700000000E+0002
 11
 1.01225000000000E+0003
 21
 4.47416700000000E+0002
  0
LINE
  8
0
 10
 1.01225000000000E+0003
 20
 4.47416700000000E+0002
 11
 1.01225000000000E+0003
 21
 5.06643262500000E+0002
  0
ARC
  8
0
 10
 1.00393750000000E+0003
 20
 5.06643262500000E+0002
 40
 8.31250000000000E+0000
 50
 0.00000000000000E+0000
 51
 1.80000000000000E+0002
  0
LINE
  8
0
 10
 9.95625000000000E+0002
 20
 5.06643262500000E+0002
 11
 9.95625000000000E+0002
 21
 4.47416700000000E+0002
  0
LINE
  8
0
 10
 9.95625000000000E+0002
 20
 4.47416700000000E+0002
 11
 9.79000000000000E+0002
 21
 4.47416700000000E+0002
  0
ENDSEC
  0
EOF
