  0
SECTION
  2
HEADER
  9
$ACADVER
  1
AC1003
  9
$INSBASE
 10
0.0
 20
0.0
  9
$EXTMIN
 10
 8.04500000000000E+0001
 20
 1.79600000000000E+0002
  9
$EXTMAX
 10
 5.19550000000000E+0002
 20
 5.18400000000000E+0002
  9
$LIMMIN
 10
0.0
 20
0.0
  9
$LIMMAX
 10
410.0
 20
287.0
  9
$VIEWCTR
 10
227.0059616
 20
165.058879 
  9
$VIEWSIZE
 40
 4.39100000000000E+0002
9
$SNAPMODE
70
0
9
$SNAPUNIT
10
1
20
1
9
$GRIDMODE
70
0
9
$GRIDUNIT
10
1
20
1
9
$ORTHOMODE
70
0
9
$rEGENMODE
70
1
9
$FILLMODE
70
1
9
$DRAGMODE
70
2
9
$LTSCALE
40
25.0
9
$OSMODE
70
0
9
$ATTMODE
70
1
9
$TRACEWID
40
1.0
9
$TEXTSTYLE
7
STANDARD
9
$CLAYER
8
0
9
$CELTYPE
6
VONLAYER
9
$CECOLOR
62
256
9
$LUNITS
70
2
9
$LUPREC
70
2
9
$AXISMODE
70
0
9
$AXISUNIT
10
0
20
0
9
$SKETCHINC
40
1.0
9
$FILLETRAD
40
0.0
9
$AUNITS
70
0
9
$AUPREC
70
0
9
$MENU
1
ACAD
9
$ELEVATION
40
0.0
9
$THICKNESS
40
0.0
9
$VIEWDIR
10
0.0
20
0.0
30
1.0
9
$LIMCHECK
70
0
9
$BLIPMODE
70
1
9
$CHAMFERA
40
0.0
9
$CHAMFERB
40
0.0
9
$USRTIMER
70
1
9
$ANGBASE
50
0.0
9
$ANGDIR
70
0
9
$PDMODE
70
0
9
$PDSIZE
40
0.0
9
$PLINEWID
40
0.0
9
$COORDS
70
0
0
ENDSEC
0
SECTION
2
TABLES
0
TABLE
2
LTYPE
70
1
0
LTYPE
2
AUSGEZOGEN
70
64
3
Ausgezogene Linie
72
65
73
0
40
0.0
0
ENDTAB
0
TABLE
2
LAYER
70
1
0
LAYER
2
0
70
0
62
7
6
AUSGEZOGEN
0
ENDTAB
0
TABLE
2
STYLE
70
1
0
STYLE
2
STANDARD
70
0
40
0.0
41
1.0
50
0.0
71
0
42
3.5
3
txt
4

0
ENDTAB
0
TABLE
2
VIEW
70
0
0
ENDTAB
0
ENDSEC
0
SECTION
2
BLOCKS
0
ENDSEC
0
SECTION
2
ENTITIES
  0
CIRCLE
  8
0
 10
 1.30450000000000E+0002
 20
 2.29600000000000E+0002
 40
 5.00000000000000E+0001
  0
CIRCLE
  8
0
 10
 1.30450000000000E+0002
 20
 2.29600000000000E+0002
 40
 3.00000000000000E+0001
  0
CIRCLE
  8
0
 10
 4.69550000000000E+0002
 20
 2.29600000000000E+0002
 40
 5.00000000000000E+0001
  0
CIRCLE
  8
0
 10
 4.69550000000000E+0002
 20
 2.29600000000000E+0002
 40
 3.00000000000000E+0001
  0
LINE
  8
0
 10
 1.77803700000000E+0002
 20
 4.99931600000000E+0002
 11
 1.53696900000000E+0002
 21
 3.28620300000000E+0002
  0
LINE
  8
0
 10
 1.53696900000000E+0002
 20
 3.28620300000000E+0002
 11
 2.18421300000000E+0002
 21
 2.45759800000000E+0002
  0
LINE
  8
0
 10
 2.18421300000000E+0002
 20
 2.45759800000000E+0002
 11
 3.01830308763070E+0002
 21
 2.45762960444381E+0002
  0
ARC
  8
0
 10
 3.69400000000000E+0002
 20
 2.07300000000000E+0002
 40
 7.77500000000000E+0001
 50
 9.00000000000000E+0001
 51
 1.50350000000000E+0002
  0
LINE
  8
0
 10
 3.69400000000000E+0002
 20
 2.85050000000000E+0002
 11
 3.69400000000000E+0002
 21
 2.85050000000000E+0002
  0
ARC
  8
0
 10
 3.69400000000000E+0002
 20
 3.05050000000000E+0002
 40
 2.00000000000000E+0001
 50
 2.70000000000000E+0002
 51
 3.26000000000000E+0002
  0
LINE
  8
0
 10
 3.85980751451101E+0002
 20
 2.93866141930585E+0002
 11
 4.08321369596468E+0002
 21
 3.25345967399657E+0002
  0
ARC
  8
0
 10
 4.23850000000000E+0002
 20
 3.37950000000000E+0002
 40
 2.00000000000000E+0001
 50
 1.44660000000000E+0002
 51
 2.19065000000000E+0002
  0
LINE
  8
0
 10
 4.07535320590019E+0002
 20
 3.49518545100814E+0002
 11
 4.21474500000000E+0002
 21
 3.69199500000000E+0002
  0
LINE
  8
0
 10
 4.21474500000000E+0002
 20
 3.69199500000000E+0002
 11
 4.27033700000000E+0002
 21
 3.65260500000000E+0002
  0
LINE
  8
0
 10
 4.27033700000000E+0002
 20
 3.65260500000000E+0002
 11
 4.38476504500303E+0002
 21
 3.81516652667138E+0002
  0
ARC
  8
0
 10
 4.41250000000000E+0002
 20
 3.79550000000000E+0002
 40
 3.40000000000000E+0000
 50
 3.24645000000000E+0002
 51
 5.04660000000000E+0002
  0
LINE
  8
0
 10
 4.44022980536192E+0002
 20
 3.77582621300842E+0002
 11
 4.32493500000000E+0002
 21
 3.61390500000000E+0002
  0
LINE
  8
0
 10
 4.32493500000000E+0002
 20
 3.61390500000000E+0002
 11
 4.43188300000000E+0002
 21
 3.53811100000000E+0002
  0
LINE
  8
0
 10
 4.43188300000000E+0002
 20
 3.53811100000000E+0002
 11
 4.54676504500303E+0002
 21
 3.70166652667138E+0002
  0
ARC
  8
0
 10
 4.57450000000000E+0002
 20
 3.68200000000000E+0002
 40
 3.40000000000000E+0000
 50
 3.24645000000000E+0002
 51
 5.04660000000000E+0002
  0
LINE
  8
0
 10
 4.60222980536192E+0002
 20
 3.66232621300842E+0002
 11
 4.48644600000000E+0002
 21
 3.49940500000000E+0002
  0
LINE
  8
0
 10
 4.48644600000000E+0002
 20
 3.49940500000000E+0002
 11
 4.54203700000000E+0002
 21
 3.46001300000000E+0002
  0
LINE
  8
0
 10
 4.54203700000000E+0002
 20
 3.46001300000000E+0002
 11
 4.40165688893866E+0002
 21
 3.26382878667595E+0002
  0
ARC
  8
0
 10
 4.23850000000000E+0002
 20
 3.37950000000000E+0002
 40
 2.00000000000000E+0001
 50
 2.50270000000000E+0002
 51
 3.24665000000000E+0002
  0
LINE
  8
0
 10
 4.17098236699664E+0002
 20
 3.19124121737984E+0002
 11
 3.94892905356068E+0002
 21
 2.87854818218275E+0002
  0
ARC
  8
0
 10
 3.69400000000000E+0002
 20
 3.05050000000000E+0002
 40
 3.07500000000000E+0001
 50
 2.70000000000000E+0002
 51
 3.26000000000000E+0002
  0
LINE
  8
0
 10
 3.69400000000000E+0002
 20
 2.74300000000000E+0002
 11
 3.69400000000000E+0002
 21
 2.74300000000000E+0002
  0
ARC
  8
0
 10
 3.69400000000000E+0002
 20
 2.07300000000000E+0002
 40
 6.70000000000000E+0001
 50
 9.00000000000000E+0001
 51
 1.44920000000000E+0002
  0
LINE
  8
0
 10
 3.14570524387662E+0002
 20
 2.45806215135690E+0002
 11
 3.99220300000000E+0002
 21
 2.45759800000000E+0002
  0
LINE
  8
0
 10
 3.99220300000000E+0002
 20
 2.45759800000000E+0002
 11
 3.94174600000000E+0002
 21
 2.38839000000000E+0002
  0
LINE
  8
0
 10
 3.94174600000000E+0002
 20
 2.38839000000000E+0002
 11
 4.69550000000000E+0002
 21
 2.38850000000000E+0002
  0
ARC
  8
0
 10
 4.69550000000000E+0002
 20
 2.29600000000000E+0002
 40
 9.25000000000000E+0000
 50
 2.70000000000000E+0002
 51
 4.50000000000000E+0002
  0
LINE
  8
0
 10
 4.69550000000000E+0002
 20
 2.20350000000000E+0002
 11
 3.81251400000000E+0002
 21
 2.20381600000000E+0002
  0
LINE
  8
0
 10
 3.81251400000000E+0002
 20
 2.20381600000000E+0002
 11
 3.74790300000000E+0002
 21
 2.11142700000000E+0002
  0
LINE
  8
0
 10
 3.74790300000000E+0002
 20
 2.11142700000000E+0002
 11
 2.16848700000000E+0002
 21
 2.11142700000000E+0002
  0
LINE
  8
0
 10
 2.16848700000000E+0002
 20
 2.11142700000000E+0002
 11
 2.02208500000000E+0002
 21
 2.25982400000000E+0002
  0
LINE
  8
0
 10
 2.02208500000000E+0002
 20
 2.25982400000000E+0002
 11
 2.02208500000000E+0002
 21
 2.36545300000000E+0002
  0
LINE
  8
0
 10
 2.02208500000000E+0002
 20
 2.36545300000000E+0002
 11
 1.50125300000000E+0002
 21
 3.03209600000000E+0002
  0
LINE
  8
0
 10
 1.50125300000000E+0002
 20
 3.03209600000000E+0002
 11
 1.39609979635860E+0002
 21
 2.28312648816119E+0002
  0
ARC
  8
0
 10
 1.30450000000000E+0002
 20
 2.29600000000000E+0002
 40
 9.25000000000000E+0000
 50
 1.71970000000000E+0002
 51
 3.52000000000000E+0002
  0
LINE
  8
0
 10
 1.21290695675243E+0002
 20
 2.30892147161316E+0002
 11
 1.59165000000000E+0002
 21
 4.99931600000000E+0002
  0
LINE
  8
0
 10
 1.59165000000000E+0002
 20
 4.99931600000000E+0002
 11
 1.19400000000000E+0002
 21
 4.99900000000000E+0002
  0
ARC
  8
0
 10
 1.19400000000000E+0002
 20
 5.09150000000000E+0002
 40
 9.25000000000000E+0000
 50
 9.00000000000000E+0001
 51
 2.70000000000000E+0002
  0
LINE
  8
0
 10
 1.19400000000000E+0002
 20
 5.18400000000000E+0002
 11
 2.24000000000000E+0002
 21
 5.18400000000000E+0002
  0
ARC
  8
0
 10
 2.24000000000000E+0002
 20
 5.09150000000000E+0002
 40
 9.25000000000000E+0000
 50
 2.70000000000000E+0002
 51
 4.50000000000000E+0002
  0
LINE
  8
0
 10
 2.24000000000000E+0002
 20
 4.99900000000000E+0002
 11
 1.77803700000000E+0002
 21
 4.99931600000000E+0002
  0
ENDSEC
  0
EOF
