  0
SECTION
  2
HEADER
  9
$ACADVER
  1
AC1003
  9
$INSBASE
 10
0.0
 20
0.0
  9
$EXTMIN
 10
-1.76068400000000E+0002
 20
 1.10000000000000E+0002
  9
$EXTMAX
 10
 1.23931600000000E+0002
 20
 4.28750000000000E+0002
  9
$LIMMIN
 10
0.0
 20
0.0
  9
$LIMMAX
 10
410.0
 20
287.0
  9
$VIEWCTR
 10
227.0059616
 20
165.058879 
  9
$VIEWSIZE
 40
 3.18750000000000E+0002
9
$SNAPMODE
70
0
9
$SNAPUNIT
10
1
20
1
9
$GRIDMODE
70
0
9
$GRIDUNIT
10
1
20
1
9
$ORTHOMODE
70
0
9
$rEGENMODE
70
1
9
$FILLMODE
70
1
9
$DRAGMODE
70
2
9
$LTSCALE
40
25.0
9
$OSMODE
70
0
9
$ATTMODE
70
1
9
$TRACEWID
40
1.0
9
$TEXTSTYLE
7
STANDARD
9
$CLAYER
8
0
9
$CELTYPE
6
VONLAYER
9
$CECOLOR
62
256
9
$LUNITS
70
2
9
$LUPREC
70
2
9
$AXISMODE
70
0
9
$AXISUNIT
10
0
20
0
9
$SKETCHINC
40
1.0
9
$FILLETRAD
40
0.0
9
$AUNITS
70
0
9
$AUPREC
70
0
9
$MENU
1
ACAD
9
$ELEVATION
40
0.0
9
$THICKNESS
40
0.0
9
$VIEWDIR
10
0.0
20
0.0
30
1.0
9
$LIMCHECK
70
0
9
$BLIPMODE
70
1
9
$CHAMFERA
40
0.0
9
$CHAMFERB
40
0.0
9
$USRTIMER
70
1
9
$ANGBASE
50
0.0
9
$ANGDIR
70
0
9
$PDMODE
70
0
9
$PDSIZE
40
0.0
9
$PLINEWID
40
0.0
9
$COORDS
70
0
0
ENDSEC
0
SECTION
2
TABLES
0
TABLE
2
LTYPE
70
1
0
LTYPE
2
AUSGEZOGEN
70
64
3
Ausgezogene Linie
72
65
73
0
40
0.0
0
ENDTAB
0
TABLE
2
LAYER
70
1
0
LAYER
2
0
70
0
62
7
6
AUSGEZOGEN
0
ENDTAB
0
TABLE
2
STYLE
70
1
0
STYLE
2
STANDARD
70
0
40
0.0
41
1.0
50
0.0
71
0
42
3.5
3
txt
4

0
ENDTAB
0
TABLE
2
VIEW
70
0
0
ENDTAB
0
ENDSEC
0
SECTION
2
BLOCKS
0
ENDSEC
0
SECTION
2
ENTITIES
  0
ARC
  8
0
 10
 7.94408900000000E+0002
 20
 1.77639900000000E+0002
 40
 7.76315800000000E+0002
 50
 1.76787600000000E+0002
 51
 1.84000000000000E+0002
  0
LINE
  8
0
 10
 1.99841662713043E+0001
 20
 1.23486847280150E+0002
 11
 5.28790357179769E+0001
 21
 1.23486872378696E+0002
  0
ARC
  8
0
 10
 5.93034900000000E+0002
 20
 2.68221200000000E+0002
 40
 5.59210500000000E+0002
 50
 1.84852850000000E+0002
 51
 1.95000000000000E+0002
  0
LINE
  8
0
 10
 3.58290296451655E+0001
 20
 2.20913681016636E+0002
 11
 3.58289226756774E+0001
 21
 2.20913646905123E+0002
  0
ARC
  8
0
 10
 2.78789000000000E+0001
 20
 2.43223700000000E+0002
 40
 2.36842000000000E+0001
 50
 2.89613150000000E+0002
 51
 3.26398350000000E+0002
  0
LINE
  8
0
 10
 4.76055957970215E+0001
 20
 2.30116495775919E+0002
 11
 4.76056730350005E+0001
 21
 2.30116452700718E+0002
  0
ARC
  8
0
 10
 6.07737000000000E+0001
 20
 2.49802600000000E+0002
 40
 2.36842000000000E+0001
 50
 2.36221510000000E+0002
 51
 3.50852860000000E+0002
  0
LINE
  8
0
 10
 8.41567162778438E+0001
 20
 2.46037513096608E+0002
 11
 8.41567366988844E+0001
 21
 2.46037580311182E+0002
  0
ARC
  8
0
 10
 8.70895000000000E+0001
 20
 2.69539500000000E+0002
 40
 2.36842000000000E+0001
 50
 2.62886930000000E+0002
 51
 3.86610800000000E+0002
  0
LINE
  8
0
 10
 1.08264828439259E+0002
 20
 2.80148307432012E+0002
 11
 1.08264839206772E+0002
 21
 2.80148285205994E+0002
  0
ARC
  8
0
 10
 1.00247400000000E+0002
 20
 3.02434200000000E+0002
 40
 2.36842000000000E+0001
 50
 2.89786380000000E+0002
 51
 4.37466800000000E+0002
  0
LINE
  8
0
 10
 1.05386996727779E+0002
 20
 3.25554015637582E+0002
 11
 1.05386985369360E+0002
 21
 3.25554036334819E+0002
  0
ARC
  8
0
 10
 8.70895000000000E+0001
 20
 3.40592100000000E+0002
 40
 2.36842000000000E+0001
 50
 3.20584410000000E+0002
 51
 4.56693880000000E+0002
  0
LINE
  8
0
 10
 8.43287594749039E+0001
 20
 3.64114847318141E+0002
 11
 8.43287377060422E+0001
 21
 3.64114827184364E+0002
  0
ARC
  8
0
 10
 6.07737000000000E+0001
 20
 3.61644700000000E+0002
 40
 2.36842000000000E+0001
 50
 5.98651000000000E+0000
 51
 8.04116000000000E+0001
  0
LINE
  8
0
 10
 6.47187563595634E+0001
 20
 3.84998026528781E+0002
 11
 6.47186887034841E+0001
 21
 3.84998026798013E+0002
  0
ARC
  8
0
 10
 4.10368000000000E+0001
 20
 3.85328900000000E+0002
 40
 2.36842000000000E+0001
 50
 3.59199540000000E+0002
 51
 4.73117950000000E+0002
  0
LINE
  8
0
 10
 3.17377846964281E+0001
 20
 4.07111224118972E+0002
 11
 3.17378052013285E+0001
 21
 4.07111289108258E+0002
  0
ARC
  8
0
 10
 8.14210000000000E+0000
 20
 4.05065800000000E+0002
 40
 2.36842000000000E+0001
 50
 4.95453000000000E+0000
 51
 1.72056740000000E+0002
  0
LINE
  8
0
 10
-1.53148597224867E+0001
 20
 4.08338775743514E+0002
 11
-1.53148595836813E+0001
 21
 4.08338732297111E+0002
  0
ARC
  8
0
 10
-2.73842000000000E+0001
 20
 3.87960500000000E+0002
 40
 2.36842000000000E+0001
 50
 5.93631700000000E+0001
 51
 1.80800460000000E+0002
  0
LINE
  8
0
 10
-5.10660887034841E+0001
 20
 3.87629626798013E+0002
 11
-5.10661563595634E+0001
 21
 3.87629626528781E+0002
  0
ARC
  8
0
 10
-4.71211000000000E+0001
 20
 3.64276300000000E+0002
 40
 2.36842000000000E+0001
 50
 9.95884000000000E+0001
 51
 2.04036080000000E+0002
  0
LINE
  8
0
 10
-6.87516228496980E+0001
 20
 3.54629445026036E+0002
 11
-6.87515651291961E+0001
 21
 3.54629466679558E+0002
  0
ARC
  8
0
 10
-6.42263000000000E+0001
 20
 3.31381600000000E+0002
 40
 2.36842000000000E+0001
 50
 1.01015050000000E+0002
 51
 2.04971760000000E+0002
  0
LINE
  8
0
 10
-8.56964057130295E+0001
 20
 3.21382805557102E+0002
 11
-8.56963850941672E+0001
 21
 3.21382750543723E+0002
  0
ARC
  8
0
 10
-7.34368000000000E+0001
 20
 3.01118400000000E+0002
 40
 2.36842000000000E+0001
 50
 1.21173220000000E+0002
 51
 1.88787940000000E+0002
  0
LINE
  8
0
 10
-9.68429607797782E+0001
 20
 2.97499979461813E+0002
 11
-3.62993000000000E+0001
 21
 2.97499900000000E+0002
  0
ARC
  8
0
 10
-3.62993000000000E+0001
 20
 2.77058300000000E+0002
 40
 2.04416000000000E+0001
 50
 0.00000000000000E+0000
 51
 9.00000000000000E+0001
  0
LINE
  8
0
 10
-1.58577000000000E+0001
 20
 2.77058300000000E+0002
 11
-1.58576161505721E+0001
 21
 2.34271591777727E+0002
  0
ARC
  8
0
 10
-2.38420000000000E+0000
 20
 2.53750000000000E+0002
 40
 2.36842000000000E+0001
 50
 2.35327990000000E+0002
 51
 2.93386530000000E+0002
  0
LINE
  8
0
 10
 7.01681970128771E+0000
 20
 2.32011505152932E+0002
 11
 7.01677399155994E+0000
 21
 2.32011517873047E+0002
  0
ARC
  8
0
 10
 2.78789000000000E+0001
 20
 2.43223700000000E+0002
 40
 2.36842000000000E+0001
 50
 2.08255450000000E+0002
 51
 2.48797050000000E+0002
  0
LINE
  8
0
 10
-1.76068400000000E+0002
 20
 1.10000000000000E+0002
 11
-1.72630000000000E+0000
 21
 1.10000000000000E+0002
  0
LINE
  8
0
 10
-1.72630000000000E+0000
 20
 1.10000000000000E+0002
 11
-1.72630000000000E+0000
 21
 1.18223700000000E+0002
  0
LINE
  8
0
 10
-1.72630000000000E+0000
 20
 1.18223700000000E+0002
 11
-1.76068400000000E+0002
 21
 1.18223700000000E+0002
  0
LINE
  8
0
 10
-1.76068400000000E+0002
 20
 1.18223700000000E+0002
 11
-1.76068400000000E+0002
 21
 1.10000000000000E+0002
  0
LINE
  8
0
 10
 3.53680000000000E+0000
 20
 1.10000000000000E+0002
 11
 1.47211000000000E+0001
 21
 1.10000000000000E+0002
  0
LINE
  8
0
 10
 1.47211000000000E+0001
 20
 1.10000000000000E+0002
 11
 1.47211000000000E+0001
 21
 1.18223700000000E+0002
  0
LINE
  8
0
 10
 1.47211000000000E+0001
 20
 1.18223700000000E+0002
 11
 3.53680000000000E+0000
 21
 1.18223700000000E+0002
  0
LINE
  8
0
 10
 3.53680000000000E+0000
 20
 1.18223700000000E+0002
 11
 3.53680000000000E+0000
 21
 1.10000000000000E+0002
  0
LINE
  8
0
 10
 1.99842000000000E+0001
 20
 1.10000000000000E+0002
 11
 3.11684000000000E+0001
 21
 1.10000000000000E+0002
  0
LINE
  8
0
 10
 3.11684000000000E+0001
 20
 1.10000000000000E+0002
 11
 3.11684000000000E+0001
 21
 1.18223700000000E+0002
  0
LINE
  8
0
 10
 3.11684000000000E+0001
 20
 1.18223700000000E+0002
 11
 1.99842000000000E+0001
 21
 1.18223700000000E+0002
  0
LINE
  8
0
 10
 1.99842000000000E+0001
 20
 1.18223700000000E+0002
 11
 1.99842000000000E+0001
 21
 1.10000000000000E+0002
  0
LINE
  8
0
 10
 3.64316000000000E+0001
 20
 1.10000000000000E+0002
 11
 4.76158000000000E+0001
 21
 1.10000000000000E+0002
  0
LINE
  8
0
 10
 4.76158000000000E+0001
 20
 1.10000000000000E+0002
 11
 4.76158000000000E+0001
 21
 1.18223700000000E+0002
  0
LINE
  8
0
 10
 4.76158000000000E+0001
 20
 1.18223700000000E+0002
 11
 3.64316000000000E+0001
 21
 1.18223700000000E+0002
  0
LINE
  8
0
 10
 3.64316000000000E+0001
 20
 1.18223700000000E+0002
 11
 3.64316000000000E+0001
 21
 1.10000000000000E+0002
  0
LINE
  8
0
 10
 5.28789000000000E+0001
 20
 1.10000000000000E+0002
 11
 6.40632000000000E+0001
 21
 1.10000000000000E+0002
  0
LINE
  8
0
 10
 6.40632000000000E+0001
 20
 1.10000000000000E+0002
 11
 6.40632000000000E+0001
 21
 1.18223700000000E+0002
  0
LINE
  8
0
 10
 6.40632000000000E+0001
 20
 1.18223700000000E+0002
 11
 5.28789000000000E+0001
 21
 1.18223700000000E+0002
  0
LINE
  8
0
 10
 5.28789000000000E+0001
 20
 1.18223700000000E+0002
 11
 5.28789000000000E+0001
 21
 1.10000000000000E+0002
  0
LINE
  8
0
 10
 6.93263000000000E+0001
 20
 1.10000000000000E+0002
 11
 8.05105000000000E+0001
 21
 1.10000000000000E+0002
  0
LINE
  8
0
 10
 8.05105000000000E+0001
 20
 1.10000000000000E+0002
 11
 8.05105000000000E+0001
 21
 1.18223700000000E+0002
  0
LINE
  8
0
 10
 8.05105000000000E+0001
 20
 1.18223700000000E+0002
 11
 6.93263000000000E+0001
 21
 1.18223700000000E+0002
  0
LINE
  8
0
 10
 6.93263000000000E+0001
 20
 1.18223700000000E+0002
 11
 6.93263000000000E+0001
 21
 1.10000000000000E+0002
  0
LINE
  8
0
 10
 8.57737000000000E+0001
 20
 1.10000000000000E+0002
 11
 9.69579000000000E+0001
 21
 1.10000000000000E+0002
  0
LINE
  8
0
 10
 9.69579000000000E+0001
 20
 1.10000000000000E+0002
 11
 9.69579000000000E+0001
 21
 1.18223700000000E+0002
  0
LINE
  8
0
 10
 9.69579000000000E+0001
 20
 1.18223700000000E+0002
 11
 8.57737000000000E+0001
 21
 1.18223700000000E+0002
  0
LINE
  8
0
 10
 8.57737000000000E+0001
 20
 1.18223700000000E+0002
 11
 8.57737000000000E+0001
 21
 1.10000000000000E+0002
  0
LINE
  8
0
 10
 1.02221100000000E+0002
 20
 1.10000000000000E+0002
 11
 1.13405300000000E+0002
 21
 1.10000000000000E+0002
  0
LINE
  8
0
 10
 1.13405300000000E+0002
 20
 1.10000000000000E+0002
 11
 1.13405300000000E+0002
 21
 1.18223700000000E+0002
  0
LINE
  8
0
 10
 1.13405300000000E+0002
 20
 1.18223700000000E+0002
 11
 1.02221100000000E+0002
 21
 1.18223700000000E+0002
  0
LINE
  8
0
 10
 1.02221100000000E+0002
 20
 1.18223700000000E+0002
 11
 1.02221100000000E+0002
 21
 1.10000000000000E+0002
  0
ARC
  8
0
 10
-1.46261700000000E+0002
 20
 1.21714600000000E+0002
 40
 3.49090000000000E+0000
 50
 1.80000000000000E+0002
 51
 2.70000000000000E+0002
  0
LINE
  8
0
 10
-1.49752600000000E+0002
 20
 1.21714600000000E+0002
 11
-1.49752600000000E+0002
 21
 1.56623300000000E+0002
  0
ARC
  8
0
 10
-1.46261700000000E+0002
 20
 1.56623300000000E+0002
 40
 3.49090000000000E+0000
 50
 9.00000000000000E+0001
 51
 1.80000000000000E+0002
  0
LINE
  8
0
 10
-1.46261700000000E+0002
 20
 1.60114200000000E+0002
 11
-1.35789200000000E+0002
 21
 1.60114200000000E+0002
  0
ARC
  8
0
 10
-1.35789200000000E+0002
 20
 1.56623300000000E+0002
 40
 3.49090000000000E+0000
 50
 0.00000000000000E+0000
 51
 9.00000000000000E+0001
  0
LINE
  8
0
 10
-1.32298300000000E+0002
 20
 1.56623300000000E+0002
 11
-1.32298300000000E+0002
 21
 1.21714600000000E+0002
  0
ARC
  8
0
 10
-1.35789200000000E+0002
 20
 1.21714600000000E+0002
 40
 3.49090000000000E+0000
 50
 2.70000000000000E+0002
 51
 3.60000000000000E+0002
  0
LINE
  8
0
 10
-1.35789200000000E+0002
 20
 1.18223700000000E+0002
 11
-1.46261700000000E+0002
 21
 1.18223700000000E+0002
  0
ARC
  8
0
 10
-1.25316500000000E+0002
 20
 1.21714600000000E+0002
 40
 3.49090000000000E+0000
 50
 1.80000000000000E+0002
 51
 2.70000000000000E+0002
  0
LINE
  8
0
 10
-1.28807400000000E+0002
 20
 1.21714600000000E+0002
 11
-1.28807400000000E+0002
 21
 1.56623300000000E+0002
  0
ARC
  8
0
 10
-1.25316500000000E+0002
 20
 1.56623300000000E+0002
 40
 3.49090000000000E+0000
 50
 9.00000000000000E+0001
 51
 1.80000000000000E+0002
  0
LINE
  8
0
 10
-1.25316500000000E+0002
 20
 1.60114200000000E+0002
 11
-1.14843900000000E+0002
 21
 1.60114200000000E+0002
  0
ARC
  8
0
 10
-1.14843900000000E+0002
 20
 1.56623300000000E+0002
 40
 3.49090000000000E+0000
 50
 0.00000000000000E+0000
 51
 9.00000000000000E+0001
  0
LINE
  8
0
 10
-1.11353000000000E+0002
 20
 1.56623300000000E+0002
 11
-1.11353100000000E+0002
 21
 1.47023300000000E+0002
  0
ARC
  8
0
 10
-1.07862200000000E+0002
 20
 1.47023300000000E+0002
 40
 3.49090000000000E+0000
 50
 1.80000000000000E+0002
 51
 2.70000000000000E+0002
  0
LINE
  8
0
 10
-1.07862200000000E+0002
 20
 1.43532400000000E+0002
 11
-1.01229600000000E+0002
 21
 1.43532500000000E+0002
  0
ARC
  8
0
 10
-1.01229600000000E+0002
 20
 1.50514300000000E+0002
 40
 6.98180000000000E+0000
 50
 2.70000000000000E+0002
 51
 3.13602810000000E+0002
  0
LINE
  8
0
 10
-9.64145663089939E+0001
 20
 1.45458513039054E+0002
 11
-9.41394815710033E+0001
 21
 1.47625208027616E+0002
  0
ARC
  8
0
 10
-8.69170000000000E+0001
 20
 1.40041600000000E+0002
 40
 1.04726000000000E+0001
 50
 4.63971900000000E+0001
 51
 1.33602810000000E+0002
  0
LINE
  8
0
 10
-7.96945184289967E+0001
 20
 1.47625208027616E+0002
 11
-7.74194336910062E+0001
 21
 1.45458513039054E+0002
  0
ARC
  8
0
 10
-7.26044000000000E+0001
 20
 1.50514300000000E+0002
 40
 6.98180000000000E+0000
 50
 2.26397190000000E+0002
 51
 2.70000000000000E+0002
  0
LINE
  8
0
 10
-7.26044000000000E+0001
 20
 1.43532500000000E+0002
 11
-6.59718000000000E+0001
 21
 1.43532400000000E+0002
  0
ARC
  8
0
 10
-6.59718000000000E+0001
 20
 1.47023300000000E+0002
 40
 3.49090000000000E+0000
 50
 2.70000000000000E+0002
 51
 3.60000000000000E+0002
  0
LINE
  8
0
 10
-6.24809000000000E+0001
 20
 1.47023300000000E+0002
 11
-6.24810000000000E+0001
 21
 1.56623300000000E+0002
  0
ARC
  8
0
 10
-5.89901000000000E+0001
 20
 1.56623300000000E+0002
 40
 3.49090000000000E+0000
 50
 9.00000000000000E+0001
 51
 1.80000000000000E+0002
  0
LINE
  8
0
 10
-5.89901000000000E+0001
 20
 1.60114200000000E+0002
 11
-4.85174000000000E+0001
 21
 1.60114200000000E+0002
  0
ARC
  8
0
 10
-4.85174000000000E+0001
 20
 1.56623300000000E+0002
 40
 3.49090000000000E+0000
 50
 0.00000000000000E+0000
 51
 9.00000000000000E+0001
  0
LINE
  8
0
 10
-4.50265000000000E+0001
 20
 1.56623300000000E+0002
 11
-4.50265000000000E+0001
 21
 1.21714600000000E+0002
  0
ARC
  8
0
 10
-4.85174000000000E+0001
 20
 1.21714600000000E+0002
 40
 3.49090000000000E+0000
 50
 2.70000000000000E+0002
 51
 3.60000000000000E+0002
  0
LINE
  8
0
 10
-4.85174000000000E+0001
 20
 1.18223700000000E+0002
 11
-5.89901000000000E+0001
 21
 1.18223700000000E+0002
  0
ARC
  8
0
 10
-5.89901000000000E+0001
 20
 1.21714600000000E+0002
 40
 3.49090000000000E+0000
 50
 1.80000000000000E+0002
 51
 2.70000000000000E+0002
  0
LINE
  8
0
 10
-6.24810000000000E+0001
 20
 1.21714600000000E+0002
 11
-6.24809000000000E+0001
 21
 1.31314400000000E+0002
  0
ARC
  8
0
 10
-6.59718000000000E+0001
 20
 1.31314400000000E+0002
 40
 3.49090000000000E+0000
 50
 0.00000000000000E+0000
 51
 9.00000000000000E+0001
  0
LINE
  8
0
 10
-6.59718000000000E+0001
 20
 1.34805300000000E+0002
 11
-7.26044000000000E+0001
 21
 1.34805400000000E+0002
  0
ARC
  8
0
 10
-7.26044000000000E+0001
 20
 1.27823600000000E+0002
 40
 6.98180000000000E+0000
 50
 9.00000000000000E+0001
 51
 1.33602810000000E+0002
  0
LINE
  8
0
 10
-7.74194336910062E+0001
 20
 1.32879386960946E+0002
 11
-7.96945184289967E+0001
 21
 1.30712491972384E+0002
  0
ARC
  8
0
 10
-8.69170000000000E+0001
 20
 1.38296100000000E+0002
 40
 1.04726000000000E+0001
 50
 2.26397190000000E+0002
 51
 3.13602810000000E+0002
  0
LINE
  8
0
 10
-9.41394815710033E+0001
 20
 1.30712491972384E+0002
 11
-9.64145663089939E+0001
 21
 1.32879386960946E+0002
  0
ARC
  8
0
 10
-1.01229600000000E+0002
 20
 1.27823600000000E+0002
 40
 6.98180000000000E+0000
 50
 4.63971900000000E+0001
 51
 9.00000000000000E+0001
  0
LINE
  8
0
 10
-1.01229600000000E+0002
 20
 1.34805400000000E+0002
 11
-1.07862200000000E+0002
 21
 1.34805300000000E+0002
  0
ARC
  8
0
 10
-1.07862200000000E+0002
 20
 1.31314400000000E+0002
 40
 3.49090000000000E+0000
 50
 9.00000000000000E+0001
 51
 1.80000000000000E+0002
  0
LINE
  8
0
 10
-1.11353100000000E+0002
 20
 1.31314400000000E+0002
 11
-1.11353000000000E+0002
 21
 1.21714600000000E+0002
  0
ARC
  8
0
 10
-1.14843900000000E+0002
 20
 1.21714600000000E+0002
 40
 3.49090000000000E+0000
 50
 2.70000000000000E+0002
 51
 3.60000000000000E+0002
  0
LINE
  8
0
 10
-1.14843900000000E+0002
 20
 1.18223700000000E+0002
 11
-1.25316500000000E+0002
 21
 1.18223700000000E+0002
  0
ARC
  8
0
 10
-3.80447000000000E+0001
 20
 1.21714600000000E+0002
 40
 3.49090000000000E+0000
 50
 1.80000000000000E+0002
 51
 2.70000000000000E+0002
  0
LINE
  8
0
 10
-4.15356000000000E+0001
 20
 1.21714600000000E+0002
 11
-4.15356000000000E+0001
 21
 1.56623300000000E+0002
  0
ARC
  8
0
 10
-3.80447000000000E+0001
 20
 1.56623300000000E+0002
 40
 3.49090000000000E+0000
 50
 9.00000000000000E+0001
 51
 1.80000000000000E+0002
  0
LINE
  8
0
 10
-3.80447000000000E+0001
 20
 1.60114200000000E+0002
 11
-2.75722000000000E+0001
 21
 1.60114200000000E+0002
  0
ARC
  8
0
 10
-2.75722000000000E+0001
 20
 1.56623300000000E+0002
 40
 3.49090000000000E+0000
 50
 0.00000000000000E+0000
 51
 9.00000000000000E+0001
  0
LINE
  8
0
 10
-2.40813000000000E+0001
 20
 1.56623300000000E+0002
 11
-2.40813000000000E+0001
 21
 1.21714600000000E+0002
  0
ARC
  8
0
 10
-2.75722000000000E+0001
 20
 1.21714600000000E+0002
 40
 3.49090000000000E+0000
 50
 2.70000000000000E+0002
 51
 3.60000000000000E+0002
  0
LINE
  8
0
 10
-2.75722000000000E+0001
 20
 1.18223700000000E+0002
 11
-3.80447000000000E+0001
 21
 1.18223700000000E+0002
  0
LINE
  8
0
 10
-1.49752600000000E+0002
 20
 1.63604900000000E+0002
 11
-1.49752700000000E+0002
 21
 2.77058300000000E+0002
  0
ARC
  8
0
 10
-1.37534700000000E+0002
 20
 2.77058300000000E+0002
 40
 1.22180000000000E+0001
 50
 9.00000000000000E+0001
 51
 1.80000000000000E+0002
  0
LINE
  8
0
 10
-1.37534700000000E+0002
 20
 2.89276300000000E+0002
 11
-3.62993000000000E+0001
 21
 2.89276300000000E+0002
  0
ARC
  8
0
 10
-3.62993000000000E+0001
 20
 2.77058300000000E+0002
 40
 1.22180000000000E+0001
 50
 0.00000000000000E+0000
 51
 9.00000000000000E+0001
  0
LINE
  8
0
 10
-2.40813000000000E+0001
 20
 2.77058300000000E+0002
 11
-2.40813000000000E+0001
 21
 1.63604900000000E+0002
  0
LINE
  8
0
 10
-2.40813000000000E+0001
 20
 1.63604900000000E+0002
 11
-1.49752600000000E+0002
 21
 1.63604900000000E+0002
  0
ENDSEC
  0
EOF
