  0
SECTION
  2
HEADER
  9
$ACADVER
  1
AC1003
  9
$INSBASE
 10
0.0
 20
0.0
  9
$EXTMIN
 10
 0.00000000000000E+0000
 20
 0.00000000000000E+0000
  9
$EXTMAX
 10
 7.50000000000000E+0002
 20
 6.00000000000000E+0002
  9
$LIMMIN
 10
0.0
 20
0.0
  9
$LIMMAX
 10
410.0
 20
287.0
  9
$VIEWCTR
 10
227.0059616
 20
165.058879 
  9
$VIEWSIZE
 40
 7.50000000000000E+0002
9
$SNAPMODE
70
0
9
$SNAPUNIT
10
1
20
1
9
$GRIDMODE
70
0
9
$GRIDUNIT
10
1
20
1
9
$ORTHOMODE
70
0
9
$rEGENMODE
70
1
9
$FILLMODE
70
1
9
$DRAGMODE
70
2
9
$LTSCALE
40
25.0
9
$OSMODE
70
0
9
$ATTMODE
70
1
9
$TRACEWID
40
1.0
9
$TEXTSTYLE
7
STANDARD
9
$CLAYER
8
0
9
$CELTYPE
6
VONLAYER
9
$CECOLOR
62
256
9
$LUNITS
70
2
9
$LUPREC
70
2
9
$AXISMODE
70
0
9
$AXISUNIT
10
0
20
0
9
$SKETCHINC
40
1.0
9
$FILLETRAD
40
0.0
9
$AUNITS
70
0
9
$AUPREC
70
0
9
$MENU
1
ACAD
9
$ELEVATION
40
0.0
9
$THICKNESS
40
0.0
9
$VIEWDIR
10
0.0
20
0.0
30
1.0
9
$LIMCHECK
70
0
9
$BLIPMODE
70
1
9
$CHAMFERA
40
0.0
9
$CHAMFERB
40
0.0
9
$USRTIMER
70
1
9
$ANGBASE
50
0.0
9
$ANGDIR
70
0
9
$PDMODE
70
0
9
$PDSIZE
40
0.0
9
$PLINEWID
40
0.0
9
$COORDS
70
0
0
ENDSEC
0
SECTION
2
TABLES
0
TABLE
2
LTYPE
70
1
0
LTYPE
2
AUSGEZOGEN
70
64
3
Ausgezogene Linie
72
65
73
0
40
0.0
0
ENDTAB
0
TABLE
2
LAYER
70
1
0
LAYER
2
0
70
0
62
7
6
AUSGEZOGEN
0
ENDTAB
0
TABLE
2
STYLE
70
1
0
STYLE
2
STANDARD
70
0
40
0.0
41
1.0
50
0.0
71
0
42
3.5
3
txt
4

0
ENDTAB
0
TABLE
2
VIEW
70
0
0
ENDTAB
0
ENDSEC
0
SECTION
2
BLOCKS
0
ENDSEC
0
SECTION
2
ENTITIES
  0
LINE
  8
0
 10
 4.00000000000000E+0001
 20
 6.00000000000000E+0002
 11
 7.10000000000000E+0002
 21
 6.00000000000000E+0002
  0
ARC
  8
0
 10
 7.10000000000000E+0002
 20
 5.60000000000000E+0002
 40
 4.00000000000000E+0001
 50
 0.00000000000000E+0000
 51
 9.00000000000000E+0001
  0
LINE
  8
0
 10
 7.50000000000000E+0002
 20
 5.60000000000000E+0002
 11
 7.50000000000000E+0002
 21
 4.00000000000000E+0001
  0
ARC
  8
0
 10
 7.10000000000000E+0002
 20
 4.00000000000000E+0001
 40
 4.00000000000000E+0001
 50
 2.70000000000000E+0002
 51
 3.60000000000000E+0002
  0
LINE
  8
0
 10
 7.10000000000000E+0002
 20
 0.00000000000000E+0000
 11
 4.00000000000000E+0001
 21
 0.00000000000000E+0000
  0
ARC
  8
0
 10
 4.00000000000000E+0001
 20
 4.00000000000000E+0001
 40
 4.00000000000000E+0001
 50
 1.80000000000000E+0002
 51
 2.70000000000000E+0002
  0
LINE
  8
0
 10
 0.00000000000000E+0000
 20
 4.00000000000000E+0001
 11
 0.00000000000000E+0000
 21
 5.60000000000000E+0002
  0
ARC
  8
0
 10
 4.00000000000000E+0001
 20
 5.60000000000000E+0002
 40
 4.00000000000000E+0001
 50
 9.00000000000000E+0001
 51
 1.80000000000000E+0002
  0
LINE
  8
0
 10
 4.00001000000000E+0001
 20
 5.85000000000000E+0002
 11
 7.10000000000000E+0002
 21
 5.85000000000000E+0002
  0
ARC
  8
0
 10
 7.10000000000000E+0002
 20
 5.60000000000000E+0002
 40
 2.50000000000000E+0001
 50
 0.00000000000000E+0000
 51
 9.00000000000000E+0001
  0
LINE
  8
0
 10
 7.35000000000000E+0002
 20
 5.60000000000000E+0002
 11
 7.35000000000000E+0002
 21
 4.00000000000000E+0001
  0
ARC
  8
0
 10
 7.10000000000000E+0002
 20
 4.00000000000000E+0001
 40
 2.50000000000000E+0001
 50
 2.70000000000000E+0002
 51
 3.60000000000000E+0002
  0
LINE
  8
0
 10
 7.10000000000000E+0002
 20
 1.50000000000000E+0001
 11
 4.00000000000000E+0001
 21
 1.50000000000000E+0001
  0
ARC
  8
0
 10
 4.00000000000000E+0001
 20
 4.00000000000000E+0001
 40
 2.50000000000000E+0001
 50
 1.80000000000000E+0002
 51
 2.70000000000000E+0002
  0
LINE
  8
0
 10
 1.50000000000000E+0001
 20
 4.00000000000000E+0001
 11
 1.50000000000000E+0001
 21
 5.60000000000000E+0002
  0
ARC
  8
0
 10
 4.00000000000000E+0001
 20
 5.60000000000000E+0002
 40
 2.50000000000000E+0001
 50
 9.00000000000000E+0001
 51
 1.80000000000000E+0002
  0
LINE
  8
0
 10
 1.00000000000000E+0002
 20
 5.00000000000000E+0002
 11
 6.50000000000000E+0002
 21
 5.00000000000000E+0002
  0
LINE
  8
0
 10
 6.50000000000000E+0002
 20
 5.00000000000000E+0002
 11
 6.50000000000000E+0002
 21
 1.00000000000000E+0002
  0
LINE
  8
0
 10
 6.50000000000000E+0002
 20
 1.00000000000000E+0002
 11
 1.00000000000000E+0002
 21
 1.00000000000000E+0002
  0
LINE
  8
0
 10
 1.00000000000000E+0002
 20
 1.00000000000000E+0002
 11
 1.00000000000000E+0002
 21
 5.00000000000000E+0002
  0
LINE
  8
0
 10
 1.25000000000000E+0002
 20
 3.90000000000000E+0002
 11
 1.25000000000000E+0002
 21
 4.74000000000000E+0002
  0
LINE
  8
0
 10
 1.25000000000000E+0002
 20
 4.74000000000000E+0002
 11
 1.37750000000000E+0002
 21
 4.74000000000000E+0002
  0
LINE
  8
0
 10
 1.37750000000000E+0002
 20
 4.74000000000000E+0002
 11
 1.37750000000000E+0002
 21
 4.02000000000000E+0002
  0
LINE
  8
0
 10
 1.37750000000000E+0002
 20
 4.02000000000000E+0002
 11
 1.79000000000000E+0002
 21
 4.02000000000000E+0002
  0
LINE
  8
0
 10
 1.79000000000000E+0002
 20
 4.02000000000000E+0002
 11
 1.79000000000000E+0002
 21
 3.90000000000000E+0002
  0
LINE
  8
0
 10
 1.79000000000000E+0002
 20
 3.90000000000000E+0002
 11
 1.25000000000000E+0002
 21
 3.90000000000000E+0002
  0
LINE
  8
0
 10
 1.90999999999978E+0002
 20
 3.90000000000000E+0002
 11
 1.90999999999978E+0002
 21
 4.74000000000000E+0002
  0
LINE
  8
0
 10
 1.90999999999978E+0002
 20
 4.74000000000000E+0002
 11
 2.23999999999978E+0002
 21
 4.74000000000000E+0002
  0
ARC
  8
0
 10
 2.23999999999978E+0002
 20
 4.48500000000000E+0002
 40
 2.55000000000000E+0001
 50
 2.70000000000000E+0002
 51
 4.50000000000000E+0002
  0
LINE
  8
0
 10
 2.23999999999978E+0002
 20
 4.23000000000000E+0002
 11
 2.03749999999978E+0002
 21
 4.23000000000000E+0002
  0
LINE
  8
0
 10
 2.03749999999978E+0002
 20
 4.23000000000000E+0002
 11
 2.03749999999978E+0002
 21
 3.90000000000000E+0002
  0
LINE
  8
0
 10
 2.03749999999978E+0002
 20
 3.90000000000000E+0002
 11
 1.90999999999978E+0002
 21
 3.90000000000000E+0002
  0
LINE
  8
0
 10
 2.03749999999978E+0002
 20
 4.35000000000000E+0002
 11
 2.23249999999978E+0002
 21
 4.35000000000000E+0002
  0
ARC
  8
0
 10
 2.23249999999978E+0002
 20
 4.48500000000000E+0002
 40
 1.35000000000000E+0001
 50
 2.70000000000000E+0002
 51
 4.50000000000000E+0002
  0
LINE
  8
0
 10
 2.23249999999978E+0002
 20
 4.62000000000000E+0002
 11
 2.03749999999978E+0002
 21
 4.62000000000000E+0002
  0
LINE
  8
0
 10
 2.03749999999978E+0002
 20
 4.62000000000000E+0002
 11
 2.03749999999978E+0002
 21
 4.35000000000000E+0002
  0
LINE
  8
0
 10
 3.21500000000000E+0002
 20
 4.36500000000000E+0002
 11
 3.21500000000000E+0002
 21
 4.19250000000000E+0002
  0
ARC
  8
0
 10
 2.91500000000000E+0002
 20
 4.19250000000000E+0002
 40
 3.00000000000000E+0001
 50
 1.80000000000000E+0002
 51
 3.60000000000000E+0002
  0
LINE
  8
0
 10
 2.61500000000000E+0002
 20
 4.19250000000000E+0002
 11
 2.61500000000000E+0002
 21
 4.44750000000000E+0002
  0
ARC
  8
0
 10
 2.91500000000000E+0002
 20
 4.44750000000000E+0002
 40
 3.00000000000000E+0001
 50
 1.00787000000000E+0001
 51
 1.80000000000000E+0002
  0
LINE
  8
0
 10
 3.21037049162691E+0002
 20
 4.50000021596223E+0002
 11
 3.07931679645706E+0002
 21
 4.49999990859125E+0002
  0
ARC
  8
0
 10
 2.91500000000000E+0002
 20
 4.44750000000000E+0002
 40
 1.72500000000000E+0001
 50
 1.77189000000000E+0001
 51
 1.80000000000000E+0002
  0
LINE
  8
0
 10
 2.74250000000000E+0002
 20
 4.44750000000000E+0002
 11
 2.74250000000000E+0002
 21
 4.19250000000000E+0002
  0
ARC
  8
0
 10
 2.91500000000000E+0002
 20
 4.19250000000000E+0002
 40
 1.72500000000000E+0001
 50
 1.80000000000000E+0002
 51
 3.60000000000000E+0002
  0
LINE
  8
0
 10
 3.08750000000000E+0002
 20
 4.19250000000000E+0002
 11
 3.08750000000000E+0002
 21
 4.24500000000000E+0002
  0
LINE
  8
0
 10
 3.08750000000000E+0002
 20
 4.24500000000000E+0002
 11
 2.91500000000000E+0002
 21
 4.24500000000000E+0002
  0
LINE
  8
0
 10
 2.91500000000000E+0002
 20
 4.24500000000000E+0002
 11
 2.91500000000000E+0002
 21
 4.36500000000000E+0002
  0
LINE
  8
0
 10
 2.91500000000000E+0002
 20
 4.36500000000000E+0002
 11
 3.21500000000000E+0002
 21
 4.36500000000000E+0002
  0
ARC
  8
0
 10
 1.55000000000000E+0002
 20
 2.99000000000000E+0002
 40
 3.00000000000000E+0001
 50
 1.80000000000000E+0002
 51
 3.49921300000000E+0002
  0
LINE
  8
0
 10
 1.25000000000000E+0002
 20
 2.99000000000000E+0002
 11
 1.25000000000000E+0002
 21
 3.24500000000000E+0002
  0
ARC
  8
0
 10
 1.55000000000000E+0002
 20
 3.24500000000000E+0002
 40
 3.00000000000000E+0001
 50
 1.00787000000000E+0001
 51
 1.80000000000000E+0002
  0
LINE
  8
0
 10
 1.84537049162690E+0002
 20
 3.29750021596223E+0002
 11
 1.71431679645706E+0002
 21
 3.29749990859125E+0002
  0
ARC
  8
0
 10
 1.55000000000000E+0002
 20
 3.24500000000000E+0002
 40
 1.72500000000000E+0001
 50
 1.77189000000000E+0001
 51
 1.80000000000000E+0002
  0
LINE
  8
0
 10
 1.37750000000000E+0002
 20
 3.24500000000000E+0002
 11
 1.37750000000000E+0002
 21
 2.99000000000000E+0002
  0
ARC
  8
0
 10
 1.55000000000000E+0002
 20
 2.99000000000000E+0002
 40
 1.72500000000000E+0001
 50
 1.80000000000000E+0002
 51
 3.42281100000000E+0002
  0
LINE
  8
0
 10
 1.71431679645706E+0002
 20
 2.93750009140875E+0002
 11
 1.84537025000000E+0002
 21
 2.93750000000000E+0002
  0
LINE
  8
0
 10
 1.99537024999991E+0002
 20
 2.69750000000000E+0002
 11
 1.99537024999991E+0002
 21
 3.53750000000000E+0002
  0
LINE
  8
0
 10
 1.99537024999991E+0002
 20
 3.53750000000000E+0002
 11
 2.11537024999991E+0002
 21
 3.53750000000000E+0002
  0
LINE
  8
0
 10
 2.11537024999991E+0002
 20
 3.53750000000000E+0002
 11
 2.49787024999991E+0002
 21
 2.93750000000000E+0002
  0
LINE
  8
0
 10
 2.49787024999991E+0002
 20
 2.93750000000000E+0002
 11
 2.49787024999991E+0002
 21
 3.53750000000000E+0002
  0
LINE
  8
0
 10
 2.49787024999991E+0002
 20
 3.53750000000000E+0002
 11
 2.62537024999991E+0002
 21
 3.53750000000000E+0002
  0
LINE
  8
0
 10
 2.62537024999991E+0002
 20
 3.53750000000000E+0002
 11
 2.62537024999991E+0002
 21
 2.69750000000000E+0002
  0
LINE
  8
0
 10
 2.62537024999991E+0002
 20
 2.69750000000000E+0002
 11
 2.50537024999991E+0002
 21
 2.69750000000000E+0002
  0
LINE
  8
0
 10
 2.50537024999991E+0002
 20
 2.69750000000000E+0002
 11
 2.12287024999991E+0002
 21
 3.29750000000000E+0002
  0
LINE
  8
0
 10
 2.12287024999991E+0002
 20
 3.29750000000000E+0002
 11
 2.12287024999991E+0002
 21
 2.69750000000000E+0002
  0
LINE
  8
0
 10
 2.12287024999991E+0002
 20
 2.69750000000000E+0002
 11
 1.99537024999991E+0002
 21
 2.69750000000000E+0002
  0
LINE
  8
0
 10
 3.39037024999947E+0002
 20
 3.16250000000000E+0002
 11
 3.39037024999947E+0002
 21
 2.99000000000000E+0002
  0
ARC
  8
0
 10
 3.09037024999947E+0002
 20
 2.99000000000000E+0002
 40
 3.00000000000000E+0001
 50
 1.80000000000000E+0002
 51
 3.60000000000000E+0002
  0
LINE
  8
0
 10
 2.79037024999947E+0002
 20
 2.99000000000000E+0002
 11
 2.79037024999947E+0002
 21
 3.24500000000000E+0002
  0
ARC
  8
0
 10
 3.09037024999947E+0002
 20
 3.24500000000000E+0002
 40
 3.00000000000000E+0001
 50
 1.00787000000000E+0001
 51
 1.80000000000000E+0002
  0
LINE
  8
0
 10
 3.38574074162637E+0002
 20
 3.29750021596223E+0002
 11
 3.25468704645653E+0002
 21
 3.29749990859125E+0002
  0
ARC
  8
0
 10
 3.09037024999947E+0002
 20
 3.24500000000000E+0002
 40
 1.72500000000000E+0001
 50
 1.77189000000000E+0001
 51
 1.80000000000000E+0002
  0
LINE
  8
0
 10
 2.91787024999947E+0002
 20
 3.24500000000000E+0002
 11
 2.91787024999947E+0002
 21
 2.99000000000000E+0002
  0
ARC
  8
0
 10
 3.09037024999947E+0002
 20
 2.99000000000000E+0002
 40
 1.72500000000000E+0001
 50
 1.80000000000000E+0002
 51
 3.60000000000000E+0002
  0
LINE
  8
0
 10
 3.26287024999947E+0002
 20
 2.99000000000000E+0002
 11
 3.26287024999947E+0002
 21
 3.04250000000000E+0002
  0
LINE
  8
0
 10
 3.26287024999947E+0002
 20
 3.04250000000000E+0002
 11
 3.09037024999947E+0002
 21
 3.04250000000000E+0002
  0
LINE
  8
0
 10
 3.09037024999947E+0002
 20
 3.04250000000000E+0002
 11
 3.09037024999947E+0002
 21
 3.16250000000000E+0002
  0
LINE
  8
0
 10
 3.09037024999947E+0002
 20
 3.16250000000000E+0002
 11
 3.39037024999947E+0002
 21
 3.16250000000000E+0002
  0
LINE
  8
0
 10
 1.25000000000000E+0002
 20
 1.50000000000000E+0002
 11
 1.25000000000000E+0002
 21
 2.34000000000000E+0002
  0
LINE
  8
0
 10
 1.25000000000000E+0002
 20
 2.34000000000000E+0002
 11
 1.37750000000000E+0002
 21
 2.34000000000000E+0002
  0
LINE
  8
0
 10
 1.37750000000000E+0002
 20
 2.34000000000000E+0002
 11
 1.37750000000000E+0002
 21
 1.98000000000000E+0002
  0
LINE
  8
0
 10
 1.37750000000000E+0002
 20
 1.98000000000000E+0002
 11
 1.72250000000000E+0002
 21
 1.98000000000000E+0002
  0
LINE
  8
0
 10
 1.72250000000000E+0002
 20
 1.98000000000000E+0002
 11
 1.72250000000000E+0002
 21
 2.34000000000000E+0002
  0
LINE
  8
0
 10
 1.72250000000000E+0002
 20
 2.34000000000000E+0002
 11
 1.85000000000000E+0002
 21
 2.34000000000000E+0002
  0
LINE
  8
0
 10
 1.85000000000000E+0002
 20
 2.34000000000000E+0002
 11
 1.85000000000000E+0002
 21
 1.50000000000000E+0002
  0
LINE
  8
0
 10
 1.85000000000000E+0002
 20
 1.50000000000000E+0002
 11
 1.72250000000000E+0002
 21
 1.50000000000000E+0002
  0
LINE
  8
0
 10
 1.72250000000000E+0002
 20
 1.50000000000000E+0002
 11
 1.72250000000000E+0002
 21
 1.86750000000000E+0002
  0
LINE
  8
0
 10
 1.72250000000000E+0002
 20
 1.86750000000000E+0002
 11
 1.37750000000000E+0002
 21
 1.86750000000000E+0002
  0
LINE
  8
0
 10
 1.37750000000000E+0002
 20
 1.86750000000000E+0002
 11
 1.37750000000000E+0002
 21
 1.50000000000000E+0002
  0
LINE
  8
0
 10
 1.37750000000000E+0002
 20
 1.50000000000000E+0002
 11
 1.25000000000000E+0002
 21
 1.50000000000000E+0002
  0
LINE
  8
0
 10
 2.01850000000000E+0002
 20
 1.13500000000000E+0002
 11
 2.01850000000000E+0002
 21
 1.24750000000000E+0002
  0
LINE
  8
0
 10
 2.01850000000000E+0002
 20
 1.24750000000000E+0002
 11
 2.35245729119915E+0002
 21
 1.66785398583636E+0002
  0
ARC
  8
0
 10
 2.25850000000000E+0002
 20
 1.74250000000000E+0002
 40
 1.20000000000000E+0001
 50
 3.21534000000000E+0002
 51
 5.40000000000000E+0002
  0
LINE
  8
0
 10
 2.13850000000000E+0002
 20
 1.74250000000000E+0002
 11
 2.01850000000000E+0002
 21
 1.74250000000000E+0002
  0
ARC
  8
0
 10
 2.25850000000000E+0002
 20
 1.74250000000000E+0002
 40
 2.40000000000000E+0001
 50
 3.21355700000000E+0002
 51
 5.40000000000000E+0002
  0
LINE
  8
0
 10
 2.44594908810515E+0002
 20
 1.59262391995869E+0002
 11
 2.17600000000000E+0002
 21
 1.25500000000000E+0002
  0
LINE
  8
0
 10
 2.17600000000000E+0002
 20
 1.25500000000000E+0002
 11
 2.49850000000000E+0002
 21
 1.25500000000000E+0002
  0
LINE
  8
0
 10
 2.49850000000000E+0002
 20
 1.25500000000000E+0002
 11
 2.49850000000000E+0002
 21
 1.13500000000000E+0002
  0
LINE
  8
0
 10
 2.49850000000000E+0002
 20
 1.13500000000000E+0002
 11
 2.01850000000000E+0002
 21
 1.13500000000000E+0002
  0
LINE
  8
0
 10
 4.12694700000000E+0002
 20
 1.47500100000000E+0002
 11
 4.12694700000000E+0002
 21
 1.65441200000000E+0002
  0
LINE
  8
0
 10
 4.12694700000000E+0002
 20
 1.65441200000000E+0002
 11
 4.00733900000000E+0002
 21
 1.65441200000000E+0002
  0
LINE
  8
0
 10
 4.00733900000000E+0002
 20
 1.65441200000000E+0002
 11
 4.00733900000000E+0002
 21
 3.29902300000000E+0002
  0
LINE
  8
0
 10
 4.00733900000000E+0002
 20
 3.29902300000000E+0002
 11
 3.88773700000000E+0002
 21
 3.29902300000000E+0002
  0
LINE
  8
0
 10
 3.88773700000000E+0002
 20
 3.29902300000000E+0002
 11
 3.88800000000000E+0002
 21
 1.83400000000000E+0002
  0
ARC
  8
0
 10
 3.52900000000000E+0002
 20
 1.83400000000000E+0002
 40
 3.59000000000000E+0001
 50
 1.80000000000000E+0002
 51
 3.60000000000000E+0002
  0
LINE
  8
0
 10
 3.17000000000000E+0002
 20
 1.83400000000000E+0002
 11
 3.17000000000000E+0002
 21
 1.83400000000000E+0002
  0
ARC
  8
0
 10
 3.64850000000000E+0002
 20
 1.83400000000000E+0002
 40
 4.78500000000000E+0001
 50
 1.51195000000000E+0002
 51
 1.80000000000000E+0002
  0
LINE
  8
0
 10
 3.22920737178491E+0002
 20
 2.06455572411997E+0002
 11
 3.48681138478325E+0002
 21
 2.53304099673429E+0002
  0
ARC
  8
0
 10
 1.49550000000000E+0002
 20
 3.62800000000000E+0002
 40
 2.27250000000000E+0002
 50
 3.31195000000000E+0002
 51
 3.60000000000000E+0002
  0
LINE
  8
0
 10
 3.76800000000000E+0002
 20
 3.62800000000000E+0002
 11
 3.83719241602862E+0002
 21
 3.79346179846782E+0002
  0
ARC
  8
0
 10
 3.94750000000000E+0002
 20
 3.74750000000000E+0002
 40
 1.19500000000000E+0001
 50
 9.00000000000000E+0001
 51
 1.57380000000000E+0002
  0
LINE
  8
0
 10
 3.94750000000000E+0002
 20
 3.86700000000000E+0002
 11
 4.00733900000000E+0002
 21
 3.86715900000000E+0002
  0
LINE
  8
0
 10
 4.00733900000000E+0002
 20
 3.86715900000000E+0002
 11
 4.00750000000000E+0002
 21
 3.98700000000000E+0002
  0
ARC
  8
0
 10
 4.12700000000000E+0002
 20
 3.98700000000000E+0002
 40
 1.19500000000000E+0001
 50
 9.00000000000000E+0001
 51
 1.80000000000000E+0002
  0
LINE
  8
0
 10
 4.12700000000000E+0002
 20
 4.10650000000000E+0002
 11
 5.32300000000000E+0002
 21
 4.10650000000000E+0002
  0
ARC
  8
0
 10
 5.32300000000000E+0002
 20
 3.98700000000000E+0002
 40
 1.19500000000000E+0001
 50
 0.00000000000000E+0000
 51
 9.00000000000000E+0001
  0
LINE
  8
0
 10
 5.44250000000000E+0002
 20
 3.98700000000000E+0002
 11
 5.44263100000000E+0002
 21
 1.65441200000000E+0002
  0
LINE
  8
0
 10
 5.44263100000000E+0002
 20
 1.65441200000000E+0002
 11
 5.32302300000000E+0002
 21
 1.65441200000000E+0002
  0
LINE
  8
0
 10
 5.32302300000000E+0002
 20
 1.65441200000000E+0002
 11
 5.32302300000000E+0002
 21
 1.47500100000000E+0002
  0
LINE
  8
0
 10
 5.32302300000000E+0002
 20
 1.47500100000000E+0002
 11
 4.12694700000000E+0002
 21
 1.47500100000000E+0002
  0
LINE
  8
0
 10
 3.76812800000000E+0002
 20
 2.88099100000000E+0002
 11
 3.76800000000000E+0002
 21
 1.83400000000000E+0002
  0
ARC
  8
0
 10
 3.52900000000000E+0002
 20
 1.83400000000000E+0002
 40
 2.39000000000000E+0001
 50
 1.80000000000000E+0002
 51
 3.60000000000000E+0002
  0
LINE
  8
0
 10
 3.29000000000000E+0002
 20
 1.83400000000000E+0002
 11
 3.28950000000000E+0002
 21
 1.83400000000000E+0002
  0
ARC
  8
0
 10
 3.64850000000000E+0002
 20
 1.83400000000000E+0002
 40
 3.59000000000000E+0001
 50
 1.51200000000000E+0002
 51
 1.80000000000000E+0002
  0
LINE
  8
0
 10
 3.33390590186425E+0002
 20
 2.00694956900252E+0002
 11
 3.59194003868499E+0002
 21
 2.47542258103754E+0002
  0
ARC
  8
0
 10
 1.49450000000000E+0002
 20
 3.62850000000000E+0002
 40
 2.39350000000000E+0002
 50
 3.31200000000000E+0002
 51
 3.41805000000000E+0002
  0
ARC
  8
0
 10
 4.36600000000000E+0002
 20
 3.20950000000000E+0002
 40
 1.19500000000000E+0001
 50
 1.79995000000000E+0002
 51
 2.70000000000000E+0002
  0
LINE
  8
0
 10
 4.24650000045502E+0002
 20
 3.20951042834227E+0002
 11
 4.24650000000000E+0002
 21
 3.74750000000000E+0002
  0
ARC
  8
0
 10
 4.36600000000000E+0002
 20
 3.74750000000000E+0002
 40
 1.19500000000000E+0001
 50
 9.00000000000000E+0001
 51
 1.80000000000000E+0002
  0
LINE
  8
0
 10
 4.36600000000000E+0002
 20
 3.86700000000000E+0002
 11
 5.08400000000000E+0002
 21
 3.86700000000000E+0002
  0
ARC
  8
0
 10
 5.08400000000000E+0002
 20
 3.74750000000000E+0002
 40
 1.19500000000000E+0001
 50
 0.00000000000000E+0000
 51
 9.00000000000000E+0001
  0
LINE
  8
0
 10
 5.20350000000000E+0002
 20
 3.74750000000000E+0002
 11
 5.20350000000000E+0002
 21
 3.20950000000000E+0002
  0
ARC
  8
0
 10
 5.08400000000000E+0002
 20
 3.20950000000000E+0002
 40
 1.19500000000000E+0001
 50
 2.70005000000000E+0002
 51
 3.60000000000000E+0002
  0
LINE
  8
0
 10
 5.08401042834227E+0002
 20
 3.09000000045502E+0002
 11
 4.36616600000000E+0002
 21
 3.08971000000000E+0002
  0
LINE
  8
0
 10
 5.44263100000000E+0002
 20
 1.89362700000000E+0002
 11
 5.44263100000000E+0002
 21
 3.50833500000000E+0002
  0
LINE
  8
0
 10
 5.44263100000000E+0002
 20
 3.50833500000000E+0002
 11
 5.89100000000000E+0002
 21
 3.50850000000000E+0002
  0
ARC
  8
0
 10
 5.89100000000000E+0002
 20
 3.62800000000000E+0002
 40
 1.19500000000000E+0001
 50
 2.70000000000000E+0002
 51
 3.59995000000000E+0002
  0
LINE
  8
0
 10
 6.01049999954498E+0002
 20
 3.62798957165773E+0002
 11
 6.01050000000000E+0002
 21
 4.16600000000000E+0002
  0
ARC
  8
0
 10
 5.89100000000000E+0002
 20
 4.16600000000000E+0002
 40
 1.19500000000000E+0001
 50
 0.00000000000000E+0000
 51
 9.00050000000000E+0001
  0
LINE
  8
0
 10
 5.89098957165773E+0002
 20
 4.28549999954498E+0002
 11
 5.17350000000000E+0002
 21
 4.28550000000000E+0002
  0
ARC
  8
0
 10
 5.17350000000000E+0002
 20
 4.16600000000000E+0002
 40
 1.19500000000000E+0001
 50
 9.00000000000000E+0001
 51
 1.80000000000000E+0002
  0
LINE
  8
0
 10
 5.05400000000000E+0002
 20
 4.16600000000000E+0002
 11
 5.05390600000000E+0002
 21
 4.10637300000000E+0002
  0
LINE
  8
0
 10
 5.05390600000000E+0002
 20
 4.10637300000000E+0002
 11
 4.61285600000000E+0002
 21
 4.10637300000000E+0002
  0
LINE
  8
0
 10
 4.61285600000000E+0002
 20
 4.10637300000000E+0002
 11
 4.64469642737220E+0002
 21
 4.21197142444545E+0002
  0
ARC
  8
0
 10
 4.75500000000000E+0002
 20
 4.16600000000000E+0002
 40
 1.19500000000000E+0001
 50
 9.00000000000000E+0001
 51
 1.57375000000000E+0002
  0
LINE
  8
0
 10
 4.75500000000000E+0002
 20
 4.28550000000000E+0002
 11
 4.81469200000000E+0002
 21
 4.28578600000000E+0002
  0
LINE
  8
0
 10
 4.81469200000000E+0002
 20
 4.28578600000000E+0002
 11
 4.81500000000000E+0002
 21
 4.40550000000000E+0002
  0
ARC
  8
0
 10
 4.93450000000000E+0002
 20
 4.40550000000000E+0002
 40
 1.19500000000000E+0001
 50
 9.00000000000000E+0001
 51
 1.80000000000000E+0002
  0
LINE
  8
0
 10
 4.93450000000000E+0002
 20
 4.52500000000000E+0002
 11
 6.13050000000000E+0002
 21
 4.52500000000000E+0002
  0
ARC
  8
0
 10
 6.13050000000000E+0002
 20
 4.40550000000000E+0002
 40
 1.19500000000000E+0001
 50
 3.59980000000000E+0002
 51
 4.50000000000000E+0002
  0
LINE
  8
0
 10
 6.24999999271964E+0002
 20
 4.40545828663172E+0002
 11
 6.25000000000000E+0002
 21
 2.07304000000000E+0002
  0
LINE
  8
0
 10
 6.25000000000000E+0002
 20
 2.07304000000000E+0002
 11
 6.13035200000000E+0002
 21
 2.07304000000000E+0002
  0
LINE
  8
0
 10
 6.13035200000000E+0002
 20
 2.07304000000000E+0002
 11
 6.13035200000000E+0002
 21
 1.89362700000000E+0002
  0
LINE
  8
0
 10
 6.13035200000000E+0002
 20
 1.89362700000000E+0002
 11
 5.44263100000000E+0002
 21
 1.89362700000000E+0002
  0
ENDSEC
  0
EOF
