<?xml version="1.0" encoding="UTF-8"?>
<svg xmlns="http://www.w3.org/2000/svg" version="1.1" width="35.28mm" height="18.82mm" viewBox="0 0 100 53.36">
<g transform="scale(0.1)">
  <path fill="#231f20" d="M6.43 22.02L6.43 4.02L0 4.02L0 0.38L17.19 0.38L17.19 4.02L10.8 4.02L10.8 22.02L6.43 22.02M29.76 22.02L25.57 22.02L25.57 6.4C24.06 7.82 22.29 8.83 20.23 9.52L20.23 5.75C21.3 5.41 22.48 4.71 23.74 3.76C25.04 2.75 25.89 1.61 26.37 0.29L29.76 0.29L29.76 22.02M36.35 16.24L36.35 12.09L44.52 12.09L44.52 16.24L36.35 16.24M64.34 19.27C65.41 20.03 66.59 20.66 67.85 21.11L66.27 24.22C65.6 23.99 64.94 23.74 64.31 23.38C64.18 23.32 63.2 22.69 61.39 21.45C59.97 22.09 58.42 22.37 56.71 22.37C53.35 22.37 50.73 21.42 48.86 19.46C47 17.5 46.04 14.74 46.04 11.2C46.04 7.66 47 4.9 48.86 2.94C50.76 0.98 53.32 0 56.59 0C59.78 0 62.31 0.98 64.21 2.94C66.08 4.9 67.03 7.66 67.03 11.2C67.03 13.07 66.77 14.71 66.27 16.14C65.82 17.22 65.23 18.26 64.34 19.27M60.85 16.84C61.39 16.17 61.8 15.35 62.12 14.39C62.38 13.48 62.51 12.4 62.51 11.2C62.51 8.67 61.96 6.84 60.88 5.59C59.74 4.36 58.32 3.73 56.55 3.73C54.75 3.73 53.32 4.36 52.18 5.59C51.1 6.84 50.54 8.7 50.54 11.2C50.54 13.73 51.1 15.61 52.18 16.87C53.32 18.14 54.69 18.77 56.39 18.77C57.03 18.77 57.63 18.67 58.17 18.45C57.31 17.88 56.39 17.44 55.48 17.09L56.74 14.58C58.13 15.1 59.52 15.83 60.85 16.84M76.54 0.29C78.66 0.29 80.27 1.04 81.47 2.5C82.91 4.3 83.6 7.25 83.6 11.36C83.6 15.45 82.88 18.39 81.47 20.19C80.27 21.67 78.66 22.37 76.54 22.37C74.46 22.37 72.74 21.58 71.44 19.97C70.15 18.32 69.52 15.48 69.52 11.3C69.52 7.25 70.24 4.3 71.63 2.47C72.8 1.04 74.46 0.29 76.54 0.29M76.54 3.73C76.07 3.73 75.59 3.86 75.21 4.21C74.8 4.49 74.52 5.09 74.29 5.91C74 7 73.88 8.8 73.88 11.36C73.88 13.89 74 15.64 74.22 16.59C74.52 17.53 74.8 18.17 75.21 18.48C75.59 18.8 76.07 18.93 76.54 18.93C77.05 18.93 77.52 18.8 77.9 18.45C78.28 18.17 78.6 17.57 78.82 16.78C79.1 15.67 79.23 13.89 79.23 11.36C79.23 8.8 79.1 7.06 78.88 6.11C78.6 5.15 78.28 4.49 77.9 4.21C77.52 3.86 77.05 3.73 76.54 3.73M86.43 16.46L90.54 16.05C90.66 16.96 91.01 17.69 91.58 18.26C92.18 18.8 92.85 19.05 93.61 19.05C94.47 19.05 95.19 18.74 95.79 18.01C96.39 17.31 96.71 16.24 96.71 14.81C96.71 13.48 96.39 12.5 95.79 11.83C95.23 11.17 94.43 10.82 93.49 10.82C92.27 10.82 91.23 11.36 90.25 12.44L86.9 11.93L89.02 0.66L100 0.66L100 4.52L92.18 4.52L91.55 8.23C92.46 7.79 93.42 7.53 94.37 7.53C96.24 7.53 97.79 8.2 99.05 9.52C100.35 10.88 100.99 12.62 100.99 14.77C100.99 16.55 100.47 18.14 99.43 19.53C98.01 21.45 96.08 22.37 93.58 22.37C91.58 22.37 89.94 21.83 88.67 20.79C87.44 19.68 86.68 18.26 86.43 16.46M123.6 22.02L118.85 22.02L116.98 17.09L108.31 17.09L106.51 22.02L101.89 22.02L110.33 0.38L114.96 0.38L123.6 22.02M115.56 13.45L112.58 5.41L109.67 13.45L115.56 13.45M612.36 531.42L612.36 513.41L605.94 513.41L605.94 509.78L623.13 509.78L623.13 513.41L616.73 513.41L616.73 531.42L612.36 531.42M635.68 531.42L631.51 531.42L631.51 515.8C629.99 517.22 628.22 518.23 626.15 518.92L626.15 515.16C627.23 514.82 628.41 514.11 629.67 513.16C630.97 512.15 631.82 511.01 632.29 509.69L635.68 509.69L635.68 531.42M642.28 525.64L642.28 521.49L650.45 521.49L650.45 525.64L642.28 525.64M670.27 528.67C671.35 529.43 672.52 530.06 673.78 530.5L672.2 533.62C671.53 533.39 670.87 533.14 670.24 532.79C670.11 532.73 669.13 532.09 667.33 530.85C665.9 531.49 664.35 531.77 662.64 531.77C659.29 531.77 656.66 530.82 654.79 528.86C652.93 526.9 651.98 524.15 651.98 520.6C651.98 517.06 652.93 514.3 654.79 512.34C656.69 510.38 659.26 509.4 662.52 509.4C665.71 509.4 668.25 510.38 670.14 512.34C672.01 514.3 672.96 517.06 672.96 520.6C672.96 522.47 672.7 524.12 672.2 525.54C671.76 526.62 671.16 527.66 670.27 528.67M666.79 526.24C667.33 525.57 667.74 524.75 668.06 523.8C668.31 522.88 668.44 521.8 668.44 520.6C668.44 518.07 667.9 516.24 666.82 515C665.67 513.76 664.25 513.13 662.48 513.13C660.68 513.13 659.26 513.76 658.11 515C657.03 516.24 656.47 518.1 656.47 520.6C656.47 523.13 657.03 525 658.11 526.27C659.26 527.53 660.62 528.17 662.32 528.17C662.96 528.17 663.56 528.07 664.1 527.85C663.24 527.28 662.32 526.84 661.41 526.49L662.67 523.99C664.06 524.5 665.45 525.23 666.79 526.24M682.47 509.69C684.59 509.69 686.2 510.44 687.41 511.9C688.84 513.7 689.53 516.65 689.53 520.76C689.53 524.85 688.81 527.79 687.41 529.59C686.2 531.07 684.59 531.77 682.47 531.77C680.39 531.77 678.68 530.98 677.37 529.37C676.08 527.72 675.45 524.88 675.45 520.7C675.45 516.65 676.17 513.7 677.56 511.87C678.74 510.44 680.39 509.69 682.47 509.69M682.47 513.13C682 513.13 681.52 513.26 681.15 513.6C680.74 513.89 680.45 514.49 680.23 515.32C679.94 516.4 679.82 518.2 679.82 520.76C679.82 523.29 679.94 525.04 680.17 525.99C680.45 526.93 680.74 527.56 681.15 527.88C681.52 528.2 682 528.33 682.47 528.33C682.98 528.33 683.45 528.2 683.83 527.85C684.21 527.56 684.53 526.97 684.75 526.18C685.03 525.07 685.16 523.29 685.16 520.76C685.16 518.2 685.03 516.46 684.81 515.51C684.53 514.56 684.21 513.89 683.83 513.6C683.45 513.26 682.98 513.13 682.47 513.13M692.36 525.86L696.48 525.45C696.6 526.36 696.95 527.09 697.52 527.66C698.12 528.2 698.78 528.45 699.54 528.45C700.4 528.45 701.12 528.13 701.72 527.41C702.32 526.71 702.64 525.64 702.64 524.21C702.64 522.88 702.32 521.9 701.72 521.23C701.16 520.57 700.36 520.22 699.42 520.22C698.22 520.22 697.17 520.76 696.18 521.83L692.83 521.33L694.95 510.06L705.94 510.06L705.94 513.92L698.12 513.92L697.49 517.63C698.4 517.19 699.35 516.93 700.3 516.93C702.17 516.93 703.72 517.6 704.99 518.92C706.29 520.28 706.92 522.02 706.92 524.18C706.92 525.95 706.41 527.53 705.37 528.92C703.94 530.85 702.01 531.77 699.51 531.77C697.52 531.77 695.87 531.23 694.6 530.19C693.37 529.08 692.61 527.66 692.36 525.86M710.03 509.78L718.67 509.78C720.41 509.78 721.67 509.81 722.53 509.97C723.36 510.13 724.12 510.44 724.78 510.89C725.44 511.33 726.01 511.93 726.46 512.69C726.87 513.41 727.12 514.27 727.12 515.23C727.12 516.24 726.83 517.19 726.3 518.01C725.76 518.86 725 519.49 724.05 519.94C725.38 520.28 726.39 520.95 727.12 521.86C727.81 522.81 728.16 523.9 728.16 525.13C728.16 526.14 727.94 527.09 727.47 528.01C727.02 528.96 726.39 529.71 725.6 530.25C724.81 530.79 723.86 531.14 722.66 531.27C721.92 531.36 720.18 531.39 717.4 531.42L710.03 531.42L710.03 509.78M714.39 513.35L714.39 518.39L717.28 518.39C718.98 518.39 720.03 518.36 720.47 518.29C721.2 518.2 721.8 517.98 722.21 517.54C722.63 517.12 722.85 516.55 722.85 515.86C722.85 515.2 722.66 514.63 722.3 514.2C721.92 513.79 721.35 513.54 720.63 513.45C720.22 513.38 718.98 513.35 716.93 513.35L714.39 513.35M714.39 521.99L714.39 527.76L718.48 527.76C720.03 527.76 721.04 527.72 721.45 527.66C722.08 527.53 722.63 527.22 723.04 526.77C723.45 526.3 723.67 525.7 723.67 524.94C723.67 524.28 723.48 523.74 723.2 523.29C722.85 522.81 722.4 522.5 721.83 522.27C721.23 522.09 719.9 521.99 717.94 521.99L714.39 521.99M738 531.77L743.38 509.4L746.52 509.4L741.1 531.77L738 531.77M761.97 531.42L761.97 513.41L755.55 513.41L755.55 509.78L772.73 509.78L772.73 513.41L766.34 513.41L766.34 531.42L761.97 531.42M785.29 531.42L781.12 531.42L781.12 515.8C779.6 517.22 777.82 518.23 775.77 518.92L775.77 515.16C776.84 514.82 778.01 514.11 779.29 513.16C780.58 512.15 781.44 511.01 781.91 509.69L785.29 509.69L785.29 531.42M791.9 525.64L791.9 521.49L800.07 521.49L800.07 525.64L791.9 525.64M819.88 528.67C820.95 529.43 822.12 530.06 823.4 530.5L821.8 533.62C821.14 533.39 820.48 533.14 819.85 532.79C819.72 532.73 818.74 532.09 816.94 530.85C815.51 531.49 813.95 531.77 812.25 531.77C808.9 531.77 806.26 530.82 804.4 528.86C802.53 526.9 801.58 524.15 801.58 520.6C801.58 517.06 802.53 514.3 804.4 512.34C806.29 510.38 808.87 509.4 812.12 509.4C815.33 509.4 817.86 510.38 819.75 512.34C821.62 514.3 822.57 517.06 822.57 520.6C822.57 522.47 822.31 524.12 821.8 525.54C821.36 526.62 820.76 527.66 819.88 528.67M816.4 526.24C816.94 525.57 817.35 524.75 817.66 523.8C817.92 522.88 818.04 521.8 818.04 520.6C818.04 518.07 817.51 516.24 816.43 515C815.29 513.76 813.86 513.13 812.09 513.13C810.29 513.13 808.87 513.76 807.73 515C806.64 516.24 806.07 518.1 806.07 520.6C806.07 523.13 806.64 525 807.73 526.27C808.87 527.53 810.22 528.17 811.93 528.17C812.57 528.17 813.16 528.07 813.7 527.85C812.85 527.28 811.93 526.84 811.01 526.49L812.28 523.99C813.67 524.5 815.06 525.23 816.4 526.24M832.09 509.69C834.21 509.69 835.82 510.44 837.02 511.9C838.45 513.7 839.15 516.65 839.15 520.76C839.15 524.85 838.42 527.79 837.02 529.59C835.82 531.07 834.21 531.77 832.09 531.77C830 531.77 828.29 530.98 826.99 529.37C825.69 527.72 825.06 524.88 825.06 520.7C825.06 516.65 825.79 513.7 827.18 511.87C828.35 510.44 830 509.69 832.09 509.69M832.09 513.13C831.62 513.13 831.14 513.26 830.76 513.6C830.35 513.89 830.07 514.49 829.85 515.32C829.56 516.4 829.43 518.2 829.43 520.76C829.43 523.29 829.56 525.04 829.78 525.99C830.07 526.93 830.35 527.56 830.76 527.88C831.14 528.2 831.62 528.33 832.09 528.33C832.59 528.33 833.07 528.2 833.45 527.85C833.83 527.56 834.15 526.97 834.37 526.18C834.65 525.07 834.78 523.29 834.78 520.76C834.78 518.2 834.65 516.46 834.43 515.51C834.15 514.56 833.83 513.89 833.45 513.6C833.07 513.26 832.59 513.13 832.09 513.13M841.97 525.86L846.08 525.45C846.21 526.36 846.56 527.09 847.13 527.66C847.74 528.2 848.4 528.45 849.16 528.45C850.01 528.45 850.74 528.13 851.34 527.41C851.94 526.71 852.26 525.64 852.26 524.21C852.26 522.88 851.94 521.9 851.34 521.23C850.77 520.57 849.98 520.22 849.03 520.22C847.83 520.22 846.78 520.76 845.8 521.83L842.45 521.33L844.57 510.06L855.56 510.06L855.56 513.92L847.74 513.92L847.09 517.63C848.02 517.19 848.97 516.93 849.92 516.93C851.78 516.93 853.33 517.6 854.6 518.92C855.9 520.28 856.54 522.02 856.54 524.18C856.54 525.95 856.03 527.53 854.98 528.92C853.55 530.85 851.63 531.77 849.13 531.77C847.13 531.77 845.48 531.23 844.22 530.19C842.99 529.08 842.23 527.66 841.97 525.86M873.5 523.49L877.72 524.82C877.05 527.15 876.01 528.92 874.49 530.06C872.96 531.2 871.03 531.77 868.76 531.77C865.88 531.77 863.47 530.82 861.64 528.86C859.8 526.9 858.85 524.21 858.85 520.76C858.85 517.19 859.8 514.4 861.67 512.4C863.5 510.41 865.98 509.4 868.98 509.4C871.64 509.4 873.8 510.19 875.47 511.77C876.42 512.66 877.18 513.98 877.68 515.73L873.34 516.77C873.09 515.64 872.55 514.75 871.73 514.11C870.91 513.45 869.93 513.13 868.76 513.13C867.18 513.13 865.88 513.7 864.86 514.88C863.88 516.02 863.34 517.88 863.34 520.48C863.34 523.19 863.88 525.16 864.83 526.3C865.85 527.47 867.11 528.07 868.7 528.07C869.87 528.07 870.85 527.66 871.67 526.97C872.52 526.24 873.12 525.04 873.5 523.49"/>
  <path fill="#231f20" d="M448.73 344.02L1000 344.02L1000 481.82L448.73 481.82L448.73 344.02"/>
  <path fill="#ed2d30" d="M460.21 355.51L988.52 355.51L988.52 470.34L460.21 470.34L460.21 355.51"/>
  <path fill="#ffffff" d="M516.15 402.35C516.15 406.76 515.02 410.17 512.82 412.54C510.58 414.86 507.39 416 503.27 416L495.64 416L495.64 437.45L488.64 437.45L488.64 388.59L503.27 388.59C505.24 388.59 507.01 388.91 508.56 389.54C510.11 390.2 511.47 391.15 512.63 392.38C513.72 393.52 514.61 395.01 515.2 396.72C515.81 398.43 516.15 400.27 516.15 402.35M509.22 402.35C509.22 401.28 509.09 400.33 508.75 399.51C508.49 398.62 508.08 397.86 507.54 397.33C506.91 396.72 506.31 396.24 505.49 395.89C504.75 395.58 503.87 395.42 502.92 395.42L495.64 395.42L495.64 409.29L502.92 409.29C504.94 409.29 506.53 408.68 507.61 407.45C508.68 406.28 509.22 404.53 509.22 402.35M546.12 437.45L539.6 414.44L532.85 414.44L532.85 437.45L525.86 437.45L525.86 388.59L540.48 388.59C542.44 388.59 544.22 388.84 545.77 389.44C547.32 390.14 548.68 390.96 549.85 392.1C550.93 393.27 551.82 394.63 552.42 396.24C553.02 397.86 553.37 399.63 553.37 401.59C553.37 404.53 552.77 407.04 551.6 409.07C550.39 411.12 548.62 412.6 546.31 413.49L553.37 437.45L546.12 437.45M546.44 401.59C546.44 399.7 545.9 398.15 544.76 397.07C543.59 395.96 542.03 395.42 540.14 395.42L532.85 395.42L532.85 407.8L540.14 407.8C542.16 407.8 543.75 407.23 544.83 406.22C545.9 405.13 546.44 403.65 546.44 401.59M561.64 437.45L561.64 388.59L584.69 388.59L584.69 395.42L568.64 395.42L568.64 407.8L578.83 407.8L578.83 414.44L568.64 414.44L568.64 430.58L586.52 430.58L586.52 437.45L561.64 437.45M622.36 402.35C622.36 406.76 621.22 410.17 619.03 412.54C616.78 414.86 613.59 416 609.47 416L601.84 416L601.84 437.45L594.85 437.45L594.85 388.59L609.47 388.59C611.43 388.59 613.21 388.91 614.76 389.54C616.31 390.2 617.67 391.15 618.84 392.38C619.92 393.52 620.81 395.01 621.41 396.72C622.01 398.43 622.36 400.27 622.36 402.35M615.43 402.35C615.43 401.28 615.3 400.33 614.95 399.51C614.7 398.62 614.29 397.86 613.75 397.33C613.12 396.72 612.51 396.24 611.68 395.89C610.96 395.58 610.07 395.42 609.12 395.42L601.84 395.42L601.84 409.29L609.12 409.29C611.15 409.29 612.74 408.68 613.81 407.45C614.89 406.28 615.43 404.53 615.43 402.35M652.39 437.45L648.9 424.07L638.46 424.07L635.2 437.45L628.14 437.45L640.36 388.59L647.23 388.59L659.38 437.45L652.39 437.45M643.62 403.17L640.23 417.17L647.23 417.17L643.62 403.17M686.48 437.45L679.95 414.44L673.21 414.44L673.21 437.45L666.23 437.45L666.23 388.59L680.84 388.59C682.81 388.59 684.58 388.84 686.13 389.44C687.68 390.14 689.04 390.96 690.21 392.1C691.29 393.27 692.18 394.63 692.78 396.24C693.38 397.86 693.73 399.63 693.73 401.59C693.73 404.53 693.12 407.04 691.96 409.07C690.75 411.12 688.97 412.6 686.67 413.49L693.73 437.45L686.48 437.45M686.79 401.59C686.79 399.7 686.25 398.15 685.12 397.07C683.95 395.96 682.4 395.42 680.49 395.42L673.21 395.42L673.21 407.8L680.49 407.8C682.53 407.8 684.11 407.23 685.18 406.22C686.25 405.13 686.79 403.65 686.79 401.59M702.01 437.45L702.01 388.59L725.05 388.59L725.05 395.42L709.01 395.42L709.01 407.8L719.19 407.8L719.19 414.44L709.01 414.44L709.01 430.58L726.89 430.58L726.89 437.45L702.01 437.45M766.79 395.1L766.79 437.45L759.8 437.45L759.8 395.1L750.85 395.1L750.85 388.59L775.76 388.59L775.76 395.1L766.79 395.1M810.34 412.95C810.34 414.8 810.25 416.53 810.18 418.12C810.06 419.66 809.93 421.09 809.65 422.45C809.46 423.82 809.17 425.11 808.82 426.31C808.51 427.55 808.03 428.75 807.56 429.92C806.33 432.84 804.83 434.95 803 436.31C801.16 437.58 798.86 438.27 796.06 438.27C794.58 438.27 793.28 438.11 792.14 437.8C790.97 437.45 789.9 436.91 788.94 436.22C788.06 435.55 787.23 434.67 786.5 433.66C785.75 432.65 785.08 431.34 784.45 429.92C783.98 428.68 783.5 427.48 783.19 426.25C782.84 425.02 782.56 423.75 782.3 422.38C782.08 421.02 781.89 419.6 781.83 418.05C781.67 416.47 781.61 414.8 781.61 412.95C781.61 411.12 781.67 409.41 781.77 407.86C781.89 406.28 782.02 404.79 782.3 403.43C782.49 402.01 782.78 400.74 783.19 399.51C783.5 398.28 783.92 397.07 784.45 395.89C785.15 394.47 785.81 393.27 786.57 392.23C787.3 391.15 788.12 390.33 789.08 389.66C790.03 388.97 791.04 388.5 792.21 388.24C793.35 387.88 794.64 387.76 796.06 387.76C797.5 387.76 798.79 387.88 799.87 388.24C801.04 388.5 802.05 389.07 803 389.66C803.94 390.33 804.77 391.22 805.5 392.32C806.26 393.33 806.93 394.63 807.56 396.11C808.03 397.33 808.51 398.5 808.82 399.7C809.17 400.93 809.46 402.23 809.65 403.58C809.93 404.94 810.06 406.38 810.18 407.93C810.25 409.41 810.34 411.12 810.34 412.95M803.6 412.95C803.6 411.59 803.6 410.3 803.53 409.22C803.47 408.12 803.35 407.04 803.19 406.09C803.06 405.13 802.93 404.25 802.81 403.36C802.58 402.54 802.4 401.69 802.11 400.8C801.51 398.62 800.69 397.01 799.74 396.05C798.73 395.01 797.5 394.53 796.06 394.53C794.51 394.53 793.22 395.01 792.27 396.05C791.32 397.01 790.5 398.5 789.9 400.58C789.62 401.53 789.36 402.42 789.14 403.3C789.01 404.25 788.81 405.2 788.65 406.16C788.59 407.17 788.47 408.21 788.4 409.35C788.4 410.42 788.34 411.72 788.34 413.08C788.34 414.44 788.4 415.65 788.4 416.76C788.47 417.83 788.59 418.84 788.75 419.79C788.89 420.74 789.01 421.69 789.23 422.64C789.42 423.53 789.62 424.48 789.9 425.43C790.5 427.55 791.26 429.03 792.27 429.98C793.22 430.99 794.51 431.47 796.06 431.47C797.5 431.47 798.73 430.99 799.74 429.98C800.69 429.03 801.51 427.55 802.11 425.43C802.46 424.42 802.65 423.53 802.87 422.64C803.06 421.78 803.19 420.8 803.35 419.86C803.41 418.91 803.53 417.83 803.53 416.76C803.6 415.59 803.6 414.37 803.6 412.95M864.37 424.07C864.37 426.06 864.05 427.89 863.35 429.63C862.63 431.34 861.68 432.84 860.45 434.13C859.2 435.43 857.78 436.44 856.17 437.17C854.52 437.93 852.85 438.27 850.94 438.27C848.82 438.27 846.86 437.86 845.16 437.04C843.48 436.22 841.98 435.08 840.81 433.72C839.68 432.29 838.73 430.65 838.09 428.84C837.5 427.01 837.15 425.11 837.15 423.05L844.02 423.05C844.02 424.07 844.15 425.11 844.43 426.12C844.68 427.07 845.09 428.02 845.63 428.75C846.26 429.57 846.93 430.27 847.81 430.74C848.7 431.21 849.71 431.47 850.94 431.47C851.9 431.47 852.69 431.28 853.51 430.87C854.4 430.45 855.09 429.92 855.76 429.22C856.36 428.56 856.83 427.74 857.24 426.85C857.59 425.97 857.78 425.02 857.78 424.07C857.78 422.64 857.53 421.37 856.89 420.33C856.3 419.32 855.47 418.31 854.4 417.36C853.32 416.47 852.03 415.52 850.53 414.5C849.04 413.55 847.34 412.38 845.57 411.18C843.42 409.63 841.89 407.99 840.94 406.22C840.06 404.47 839.58 402.54 839.58 400.45C839.58 398.69 839.93 397.01 840.53 395.48C841.23 393.93 842.11 392.57 843.19 391.44C844.37 390.33 845.63 389.38 847.21 388.78C848.7 388.12 850.31 387.76 852.09 387.76C853.8 387.76 855.41 388.02 856.89 388.72C858.41 389.32 859.69 390.2 860.79 391.28C861.87 392.45 862.75 393.81 863.35 395.29C864.05 396.85 864.37 398.62 864.37 400.45L857.78 400.45C857.78 399.57 857.59 398.81 857.24 398.08C856.89 397.39 856.52 396.78 856.04 396.3C855.47 395.77 854.94 395.42 854.27 395.16C853.58 394.88 852.91 394.75 852.09 394.75C851.26 394.75 850.53 394.88 849.77 395.16C849.11 395.42 848.47 395.83 847.94 396.37C847.4 396.85 846.99 397.48 846.74 398.15C846.39 398.91 846.26 399.63 846.26 400.45C846.26 400.99 846.33 401.53 846.45 402.01C846.58 402.48 846.86 402.95 847.21 403.36C847.62 403.84 848.09 404.25 848.7 404.72C849.23 405.2 850.06 405.67 850.94 406.22C853.32 407.58 855.28 408.94 856.99 410.36C858.66 411.72 860.1 413.14 861.2 414.57C862.28 416 863.1 417.58 863.58 419.13C864.11 420.68 864.37 422.32 864.37 424.07M884.75 395.1L884.75 437.45L877.76 437.45L877.76 395.1L868.8 395.1L868.8 388.59L893.71 388.59L893.71 395.1L884.75 395.1M928.29 412.95C928.29 414.8 928.2 416.53 928.14 418.12C928.01 419.66 927.88 421.09 927.6 422.45C927.41 423.82 927.12 425.11 926.78 426.31C926.46 427.55 925.99 428.75 925.51 429.92C924.28 432.84 922.79 434.95 920.95 436.31C919.12 437.58 916.81 438.27 914.03 438.27C912.53 438.27 911.24 438.11 910.1 437.8C908.93 437.45 907.85 436.91 906.9 436.22C906.02 435.55 905.19 434.67 904.46 433.66C903.7 432.65 903.04 431.34 902.4 429.92C901.93 428.68 901.46 427.48 901.14 426.25C900.79 425.02 900.51 423.75 900.25 422.38C900.03 421.02 899.84 419.6 899.78 418.05C899.62 416.47 899.56 414.8 899.56 412.95C899.56 411.12 899.62 409.41 899.72 407.86C899.84 406.28 899.97 404.79 900.25 403.43C900.45 402.01 900.73 400.74 901.14 399.51C901.46 398.28 901.87 397.07 902.4 395.89C903.1 394.47 903.76 393.27 904.52 392.23C905.25 391.15 906.08 390.33 907.03 389.66C907.98 388.97 908.99 388.5 910.16 388.24C911.3 387.88 912.59 387.76 914.03 387.76C915.45 387.76 916.75 387.88 917.82 388.24C918.99 388.5 920 389.07 920.95 389.66C921.91 390.33 922.73 391.22 923.46 392.32C924.22 393.33 924.88 394.63 925.51 396.11C925.99 397.33 926.46 398.5 926.78 399.7C927.12 400.93 927.41 402.23 927.6 403.58C927.88 404.94 928.01 406.38 928.14 407.93C928.2 409.41 928.29 411.12 928.29 412.95M921.55 412.95C921.55 411.59 921.55 410.3 921.49 409.22C921.42 408.12 921.3 407.04 921.14 406.09C921.01 405.13 920.89 404.25 920.76 403.36C920.54 402.54 920.35 401.69 920.06 400.8C919.47 398.62 918.64 397.01 917.69 396.05C916.68 395.01 915.45 394.53 914.03 394.53C912.47 394.53 911.17 395.01 910.22 396.05C909.27 397.01 908.45 398.5 907.85 400.58C907.57 401.53 907.32 402.42 907.09 403.3C906.97 404.25 906.78 405.2 906.62 406.16C906.56 407.17 906.43 408.21 906.37 409.35C906.37 410.42 906.3 411.72 906.3 413.08C906.3 414.44 906.37 415.65 906.37 416.76C906.43 417.83 906.56 418.84 906.71 419.79C906.84 420.74 906.97 421.69 907.19 422.64C907.38 423.53 907.57 424.48 907.85 425.43C908.45 427.55 909.21 429.03 910.22 429.98C911.17 430.99 912.47 431.47 914.03 431.47C915.45 431.47 916.68 430.99 917.69 429.98C918.64 429.03 919.47 427.55 920.06 425.43C920.41 424.42 920.6 423.53 920.82 422.64C921.01 421.78 921.14 420.8 921.3 419.86C921.36 418.91 921.49 417.83 921.49 416.76C921.55 415.59 921.55 414.37 921.55 412.95M965.49 402.35C965.49 406.76 964.35 410.17 962.17 412.54C959.92 414.86 956.72 416 952.6 416L944.98 416L944.98 437.45L937.99 437.45L937.99 388.59L952.6 388.59C954.57 388.59 956.34 388.91 957.89 389.54C959.44 390.2 960.8 391.15 961.97 392.38C963.06 393.52 963.94 395.01 964.54 396.72C965.14 398.43 965.49 400.27 965.49 402.35M958.56 402.35C958.56 401.28 958.43 400.33 958.08 399.51C957.83 398.62 957.42 397.86 956.88 397.33C956.25 396.72 955.65 396.24 954.83 395.89C954.1 395.58 953.2 395.42 952.26 395.42L944.98 395.42L944.98 409.29L952.26 409.29C954.29 409.29 955.87 408.68 956.94 407.45C958.02 406.28 958.56 404.53 958.56 402.35"/>
  <path fill="#231f20" d="M448.73 68.42L1000 68.42L1000 355.5L448.73 355.5L448.73 68.42"/>
  <path fill="#f5821f" d="M460.21 79.9L988.52 79.9L988.52 344.02L460.21 344.02L460.21 79.9"/>
</g>
</svg>
